<?xml version="1.0" standalone="no"?>
<!DOCTYPE svg PUBLIC "-//W3C//DTD SVG 1.1//EN" "http://www.w3.org/Graphics/SVG/1.1/DTD/svg11.dtd" >
<svg>
<metadata>
Created by FontForge 20090914 at Tue Apr 16 11:44:06 2019
 By www-data
Copyright (C) 2005 Emigre Inc.; Designed by Xavier Dupre
</metadata>
<defs>
<font id="VistaSansAltLight" horiz-adv-x="500" >
  <font-face 
    font-family="VistaSansAltLight"
    font-weight="500"
    font-stretch="normal"
    units-per-em="1000"
    panose-1="2 0 6 3 4 0 0 2 0 4"
    ascent="800"
    descent="-200"
    x-height="521.999"
    cap-height="674"
    bbox="-75.001 -216.004 1111 846"
    underline-thickness="20"
    underline-position="-123"
    unicode-range="U+0020-U+FB02"
  />
<missing-glyph 
 />
    <glyph glyph-name=".notdef" 
 />
    <glyph glyph-name="space" unicode=" " horiz-adv-x="204" 
 />
    <glyph glyph-name="exclam" unicode="!" horiz-adv-x="240" 
d="M147 674c0 -40 -0.166992 -81.002 -0.5 -123.002l-1 -126.5c-0.333008 -42.333 -0.833008 -84 -1.5 -125s-1.66699 -80.167 -3 -117.5c-6 -2 -12.667 -3.5 -20 -4.5s-14.333 -1.5 -21 -1.5c-1.33301 38.667 -2.5 78.834 -3.5 120.501s-1.83301 83.834 -2.5 126.501
s-1.16699 85.167 -1.5 127.5s-0.5 83.5 -0.5 123.5h55v0zM154 23.998c0 -11.333 -3.16602 -20.168 -9.49902 -26.501s-14.5 -9.5 -24.5 -9.5s-18.167 3.33301 -24.5 10s-9.5 15.334 -9.5 26.001c0 11.333 3.16699 20.5 9.5 27.5s14.833 10.5 25.5 10.5
c9.33301 0 17.166 -3.5 23.499 -10.5s9.5 -16.167 9.5 -27.5z" />
    <glyph glyph-name="quotedbl" unicode="&#x22;" horiz-adv-x="293" 
d="M98 455c-11.333 -3.33301 -23 -5 -35 -5l-13 263h62zM229 455c-12 -3.33301 -23.667 -5 -35 -5l-13 263h62z" />
    <glyph glyph-name="numbersign" unicode="#" horiz-adv-x="502" 
d="M475 494c0 -12.667 -1.66699 -27.334 -5 -44.001h-103l-37 -213h103c0 -6 -0.5 -13 -1.5 -21s-2.16699 -15.667 -3.5 -23h-105l-32 -193h-44l32 193h-106l-32 -193h-44l33 193h-103c0 7.33301 0.666992 15 2 23s3 15 5 21h103l36 213h-104
c0 16.667 2.33301 31.334 7 44.001h105l30 180h44l-30 -180h105l31 180h44l-31 -180h101v0zM323 450h-106l-36 -213h106z" />
    <glyph glyph-name="dollar" unicode="$" 
d="M443 209c0 -18.667 -3.66797 -36.8301 -11.001 -54.4971s-18.5 -33.334 -33.5 -47.001s-33.833 -25 -56.5 -34s-49.334 -14.5 -80.001 -16.5l4 -57h-53l4 57c-25.333 0.666992 -51.333 3 -78 7s-51.667 10.333 -75 19c0.666992 7.33301 1.83398 16 3.50098 26
s4.16699 17.667 7.5 23c27.333 -10.667 53.666 -18 78.999 -22s54 -6 86 -6c48 0 85 8.66699 111 26s39 42.666 39 75.999c0 26.667 -8.16699 47.667 -24.5 63s-36.666 28 -60.999 38s-50.666 18.667 -78.999 26s-54.666 16.166 -78.999 26.499s-44.666 24 -60.999 41
s-24.5 40.167 -24.5 69.5c0 42.667 15.833 77.667 47.5 105s75.834 43 132.501 47l-3 52h54l-3 -51c19.333 -0.666992 39.333 -1.83398 60 -3.50098s40.667 -4.16699 60 -7.5c0 -7.33301 -0.666992 -15.5 -2 -24.5s-3.33301 -17.167 -6 -24.5
c-18.667 4 -39.5 7.33301 -62.5 10s-46.5 4 -70.5 4c-30.667 0 -56 -2.66699 -76 -8s-35.833 -12.666 -47.5 -21.999s-19.834 -20 -24.501 -32s-7 -25 -7 -39c0 -22.667 8.16699 -40.334 24.5 -53.001s36.666 -23.167 60.999 -31.5s50.833 -16.166 79.5 -23.499
s55.167 -17 79.5 -29s44.666 -28.167 60.999 -48.5s24.5 -47.5 24.5 -81.5z" />
    <glyph glyph-name="percent" unicode="%" horiz-adv-x="799" 
d="M341 494c0 -58.667 -12.5 -105 -37.5 -139s-62.167 -51 -111.5 -51c-47.333 0 -84.5 15.5 -111.5 46.5s-40.5 78.833 -40.5 143.5c0 62 14 109.167 42 141.5s64.667 48.5 110 48.5c48.667 0 85.667 -15.833 111 -47.5s38 -79.167 38 -142.5zM292 494
c0 46 -7.33398 82.5 -22.001 109.5s-40.667 40.5 -78 40.5c-35.333 0 -61.166 -13 -77.499 -39s-24.5 -63 -24.5 -111c0 -50 8 -87.5 24 -112.5s42 -37.5 78 -37.5s61.667 13 77 39s23 63 23 111zM288.999 -8c-7.33301 1.33301 -15 3.16699 -23 5.5s-15.333 5.5 -22 9.5
l265 671c8 0 16.5 -0.666992 25.5 -2s16.833 -3 23.5 -5zM758.999 180.001c0 -58.667 -12.5 -105 -37.5 -139s-62.167 -51 -111.5 -51c-47.333 0 -84.5 15.5 -111.5 46.5s-40.5 78.833 -40.5 143.5c0 62 14 109.167 42 141.5s64.667 48.5 110 48.5
c48.667 0 85.667 -15.833 111 -47.5s38 -79.167 38 -142.5zM709.999 180.001c0 46 -7.33398 82.5 -22.001 109.5s-40.667 40.5 -78 40.5c-35.333 0 -61.166 -13 -77.499 -39s-24.5 -63 -24.5 -111c0 -50 8 -87.5 24 -112.5s42 -37.5 78 -37.5s61.667 13 77 39s23 63 23 111z
" />
    <glyph glyph-name="ampersand" unicode="&#x26;" horiz-adv-x="703" 
d="M633 330c0 -107.333 -25.834 -190.838 -77.501 -250.505s-125.5 -89.5 -221.5 -89.5c-36.667 0 -70.167 4.66699 -100.5 14s-56.333 24 -78 44s-38.334 45.833 -50.001 77.5s-17.5 69.834 -17.5 114.501v9h-58c0 6.66699 0.666992 14 2 22s3 14.667 5 20h53
c3.33301 40.667 10.833 74.834 22.5 102.501s26.334 50.167 44.001 67.5s37.834 29.833 60.501 37.5s47 11.5 73 11.5c56 0 100 -15 132 -45s48 -77.667 48 -143c0 -11.333 -0.166992 -23.333 -0.5 -36s-0.833008 -25 -1.5 -37h-325v-6c0 -72 16.167 -124 48.5 -156
s80.833 -48 145.5 -48c37.333 0 71.166 5.5 101.499 16.5s56 28.333 77 52s37.167 54 48.5 91s17 81.5 17 133.5c0 56.667 -6.83301 104.334 -20.5 143.001s-32.5 70 -56.5 94s-52.667 41.167 -86 51.5s-70 15.5 -110 15.5c0 5.33301 0.833008 12.5 2.5 21.5
s4.16699 17.833 7.5 26.5c55.333 0 102.833 -8.66699 142.5 -26s72.334 -41.666 98.001 -72.999s44.5 -68.666 56.5 -111.999s18 -91 18 -143zM417.999 324.995c0 26.667 -3.00293 48.998 -9.00293 66.998s-14.667 32.333 -26 43s-25 18.334 -41 23.001s-34 7 -54 7
c-20.667 0 -39.667 -3 -57 -9s-32.166 -15.833 -44.499 -29.5s-22.166 -31.5 -29.499 -53.5s-11.666 -49.333 -12.999 -82h273c0.666992 4.66699 1 10.334 1 17.001v17z" />
    <glyph glyph-name="quotesingle" unicode="'" horiz-adv-x="162" 
d="M98 455c-11.333 -3.33301 -23 -5 -35 -5l-13 263h62z" />
    <glyph glyph-name="parenleft" unicode="(" horiz-adv-x="247" 
d="M215 -164c-5.33301 -3.33301 -12.5 -5.99902 -21.5 -7.99902s-16.167 -3 -21.5 -3c-40 68.667 -70 142.667 -90 222s-30 158.333 -30 237c0 80 10 159.5 30 238.5s50 152.833 90 221.5c6 0 13.333 -1 22 -3s15.667 -4.66699 21 -8
c-35.333 -63.333 -62.333 -133.5 -81 -210.5s-28 -154.833 -28 -233.5c0 -80 9.5 -159.333 28.5 -238s45.833 -150.334 80.5 -215.001z" />
    <glyph glyph-name="parenright" unicode=")" horiz-adv-x="247" 
d="M195 285c0 -80 -10 -159.501 -30 -238.501s-50 -152.833 -90 -221.5c-6 0 -13.333 1 -22 3s-15.667 4.66699 -21 8c35.333 63.333 62.333 133.5 81 210.5s28 154.833 28 233.5c0 80 -9.5 159.333 -28.5 238s-45.833 150.334 -80.5 215.001c5.33301 3.33301 12.5 6 21.5 8
s16.167 3 21.5 3c40 -68.667 70 -142.667 90 -222s30 -158.333 30 -237z" />
    <glyph glyph-name="asterisk" unicode="*" horiz-adv-x="414" 
d="M228 478l107.001 -126.999c-5.33301 -7.33301 -12 -14.833 -20 -22.5s-15.667 -14.167 -23 -19.5l-92 151l-87 -142c-8.66699 3.33301 -17.834 7.66602 -27.501 12.999s-18.167 11 -25.5 17l117 132l-163 40c0.666992 9.33301 2 19.333 4 30s4.66699 20.667 8 30l161 -70
l-12 166c9.33301 2.66699 19.5 4.66699 30.5 6s21.167 2 30.5 2l-17 -176l154 64c5.33301 -7.33301 10.333 -16 15 -26s8.66699 -19.667 12 -29z" />
    <glyph glyph-name="plus" unicode="+" horiz-adv-x="498" 
d="M273 250v-205h-48v205h-182v45h182v205h48v-205h182v-45h-182z" />
    <glyph glyph-name="comma" unicode="," horiz-adv-x="191" 
d="M132 59c0 -39.333 -10.499 -78.002 -31.499 -116.002s-49.5 -76.667 -85.5 -116l-34 26c21.333 24.667 38.666 46.334 51.999 65.001s24 36.334 32 53.001s13.5 33.5 16.5 50.5s4.5 35.833 4.5 56.5v35h42c1.33301 -6.66699 2.33301 -15.667 3 -27s1 -20.333 1 -27z" />
    <glyph glyph-name="hyphen" unicode="-" horiz-adv-x="250" 
d="M35 278v49h180v-49h-180z" />
    <glyph glyph-name="hyphen" unicode="&#xad;" horiz-adv-x="250" 
d="M35 278v49h180v-49h-180z" />
    <glyph glyph-name="period" unicode="." horiz-adv-x="191" 
d="M129 24c0 -11.333 -3.16602 -20.168 -9.49902 -26.501s-14.5 -9.5 -24.5 -9.5s-18 3.33301 -24 10s-9 15.334 -9 26.001c0 11.333 3 20.5 9 27.5s14.333 10.5 25 10.5c9.33301 0 17.166 -3.5 23.499 -10.5s9.5 -16.167 9.5 -27.5z" />
    <glyph glyph-name="slash" unicode="/" horiz-adv-x="361" 
d="M35 -114c-10.667 2.66699 -19.167 5.16699 -25.5 7.5s-12.833 5.83301 -19.5 10.5l310 780c6.66699 0 14.5 -1.33301 23.5 -4s17.167 -5.66699 24.5 -9z" />
    <glyph glyph-name="zero" unicode="0" 
d="M454 337c0 -122 -17.333 -210.333 -52 -265s-85 -82 -151 -82c-31.333 0 -59.666 5.33301 -84.999 16s-46.833 29.167 -64.5 55.5s-31.334 61.833 -41.001 106.5s-14.5 101 -14.5 169c0 65.333 5 120.166 15 164.499s24 80 42 107s39.667 46.333 65 58s53 17.5 83 17.5
c32.667 0 61.5 -5.83301 86.5 -17.5s46.167 -31 63.5 -58s30.5 -62.667 39.5 -107s13.5 -99.166 13.5 -164.499zM402 337c0 104.667 -11.167 181.168 -33.5 229.501s-61.5 72.5 -117.5 72.5c-26 0 -48.667 -5.33301 -68 -16s-35.333 -28 -48 -52s-22 -55.167 -28 -93.5
s-9 -85.166 -9 -140.499c0 -56 3 -103.333 9 -142s15.333 -69.834 28 -93.501s28.5 -40.667 47.5 -51s41.833 -15.5 68.5 -15.5c26 0 48.5 5.66699 67.5 17s34.667 29.166 47 53.499s21.5 55.5 27.5 93.5s9 84 9 138z" />
    <glyph glyph-name="one" unicode="1" 
d="M76 0l0.000976562 48h196v576l-182 -31c-2.66699 7.33301 -4.83398 15.666 -6.50098 24.999s-2.5 17 -2.5 23l191 33h55v-626h147c0 -7.33301 -0.333008 -15.166 -1 -23.499s-2 -16.5 -4 -24.5h-393z" />
    <glyph glyph-name="two" unicode="2" 
d="M459 47c0 -16 -2 -31.668 -6 -47.001h-386l-4 47c59.333 43.333 108.333 85.666 147 126.999s69.334 81 92.001 119s38.5 73.333 47.5 106s13.5 61.334 13.5 86.001c0 48 -12.5 85.167 -37.5 111.5s-59.167 39.5 -102.5 39.5c-29.333 0 -56.666 -2.66699 -81.999 -8
s-45.666 -11.666 -60.999 -18.999c-2.66699 8 -4.83398 16.167 -6.50098 24.5s-2.83398 16.166 -3.50098 23.499c47.333 18 96.666 27 147.999 27c66 0 115.667 -18.167 149 -54.5s50 -86.166 50 -149.499c0 -25.333 -4.66699 -54.666 -14 -87.999s-25 -68.833 -47 -106.5
s-51 -76.834 -87 -117.501s-80.667 -81 -134 -121h324z" />
    <glyph glyph-name="three" unicode="3" 
d="M414 192c0 -34.667 -5.66406 -64.832 -16.9971 -90.499s-27 -46.667 -47 -63s-43.333 -28.5 -70 -36.5s-55.334 -12 -86.001 -12c-24.667 0 -50.5 2.5 -77.5 7.5s-50.833 12.167 -71.5 21.5l4 27.5c1.33301 9 3.33301 16.167 6 21.5c22.667 -11.333 45 -19 67 -23
s48 -6 78 -6c51.333 0 90.833 12 118.5 36s41.5 62 41.5 114c0 50.667 -12.667 86.667 -38 108s-60 32 -104 32h-109v47h101c25.333 0 46.333 3.83301 63 11.5s30 18 40 31s17.167 28.167 21.5 45.5s6.5 35.666 6.5 54.999c0 36.667 -11.333 65.334 -34 86.001
s-55 31 -97 31c-26 0 -50.5 -2.33301 -73.5 -7s-44.167 -11 -63.5 -19c-2.66699 6.66699 -4.83398 14.667 -6.50098 24l-4.5 25c25.333 9.33301 50.166 15.833 74.499 19.5s48.5 5.5 72.5 5.5c26 0 50.167 -3.16699 72.5 -9.5s42 -16.333 59 -30s30.333 -31 40 -52
s14.5 -46.167 14.5 -75.5c0 -40 -8 -73 -24 -99s-39.333 -45.333 -70 -58v-4c38 -11.333 66.333 -31.333 85 -60s28 -63.334 28 -104.001z" />
    <glyph glyph-name="four" unicode="4" 
d="M458 212c0 -7.33301 -0.666016 -15.1699 -1.99902 -23.5029s-2.66602 -16.166 -3.99902 -23.499h-89v-165h-50v165h-263v49c15.333 34.667 33.666 73.334 54.999 116.001l65.5 129l66 124l57.5 101c4.66699 0 11.667 -1.16699 21 -3.5s16.666 -5.16602 21.999 -8.49902
l-239 -460h215v223h50v-223h95v0z" />
    <glyph glyph-name="five" unicode="5" 
d="M434 185c0 -62.667 -19.167 -110.832 -57.5 -144.499s-90.166 -50.5 -155.499 -50.5c-9.33301 0 -20 0.5 -32 1.5s-24.333 2.66699 -37 5s-25.334 5 -38.001 8s-24.334 6.5 -35.001 10.5c1.33301 16.667 5 33 11 49c16 -7.33301 35.833 -13.333 59.5 -18
s46.167 -7 67.5 -7c58 0 99.667 11.833 125 35.5s38 62.834 38 117.501c0 48 -18.5 84.167 -55.5 108.5s-91.167 36.5 -162.5 36.5c-18.667 0 -32.667 -0.166992 -42 -0.5s-20.333 -1.16602 -33 -2.49902c1.33301 28 3 57.333 5 88s4.33301 61 7 91s5.5 58.833 8.5 86.5
s5.83301 52.5 8.5 74.5h310c0 -6.66699 -0.5 -14.334 -1.5 -23.001s-2.5 -16.667 -4.5 -24h-263l-22 -241h15c40 0 77.333 -3.33301 112 -10s64.834 -17.834 90.501 -33.501s45.667 -36.334 60 -62.001s21.5 -57.5 21.5 -95.5z" />
    <glyph glyph-name="six" unicode="6" 
d="M441 220c0 -37.333 -4.50098 -70.3311 -13.501 -98.998s-21.833 -52.667 -38.5 -72s-36.167 -34 -58.5 -44s-47.166 -15 -74.499 -15c-66 0 -115.333 24.667 -148 74s-49 128.333 -49 237c0 128 20.667 223.833 62 287.5s102 95.5 182 95.5c18.667 0 38 -1 58 -3
s37.333 -5.66699 52 -11c0 -6.66699 -0.5 -14.834 -1.5 -24.501s-2.83301 -18.167 -5.5 -25.5c-12 4.66699 -27.667 8.5 -47 11.5s-38 4.5 -56 4.5c-62 0 -108.5 -23.667 -139.5 -71s-49.167 -122.333 -54.5 -225h3c18 30.667 39.667 52.167 65 64.5s53 18.5 83 18.5
c26 0 50.167 -3.83301 72.5 -11.5s41.5 -19.834 57.5 -36.501s28.5 -37.667 37.5 -63s13.5 -56 13.5 -92zM386.999 220.002c0 29.333 -3.33105 54.002 -9.99805 74.002s-15.667 36.167 -27 48.5s-25 21.166 -41 26.499s-33 8 -51 8
c-46.667 0 -81.834 -12.833 -105.501 -38.5s-35.5 -67.834 -35.5 -126.501c0 -54 11.5 -96.5 34.5 -127.5s56.5 -46.5 100.5 -46.5c43.333 0 76.666 14 99.999 42s35 74.667 35 140z" />
    <glyph glyph-name="seven" unicode="7" 
d="M444 630l-73.001 -147.501l-87.5 -168.5l-91 -169.5l-83.5 -150.5c-9.33301 0.666992 -17.166 1.83398 -23.499 3.50098s-13.5 4.5 -21.5 8.5l328 621h-325c-2.66699 7.33301 -4.5 15 -5.5 23s-1.5 16 -1.5 24h384v-44v0z" />
    <glyph glyph-name="eight" unicode="8" 
d="M436 170c0 -30 -4.6709 -56.167 -14.0039 -78.5s-22.5 -41 -39.5 -56s-37.167 -26.333 -60.5 -34s-49 -11.5 -77 -11.5c-25.333 0 -49.166 3.16699 -71.499 9.5s-41.666 16.5 -57.999 30.5s-29.166 32.333 -38.499 55s-14 50 -14 82c0 17.333 2.5 34.833 7.5 52.5
s12.5 34.834 22.5 51.501s22.667 32.167 38 46.5s33.333 26.833 54 37.5c-71.333 37.333 -107 90.333 -107 159c0 28.667 4.5 53.667 13.5 75s21.167 39 36.5 53s33.5 24.5 54.5 31.5s43.833 10.5 68.5 10.5c50.667 0 91.334 -13.333 122.001 -40s46 -67.334 46 -122.001
c0 -31.333 -9.5 -62.5 -28.5 -93.5s-47.5 -55.5 -85.5 -73.5c47.333 -22.667 81 -49 101 -79s30 -65.333 30 -106zM367.996 522c0 37.333 -10.5 66.167 -31.5 86.5s-51.167 30.5 -90.5 30.5s-69 -10.667 -89 -32s-30 -48.666 -30 -81.999c0 -35.333 9.5 -66 28.5 -92
s51.833 -45.667 98.5 -59c17.333 6 33 14.167 47 24.5s26 22.166 36 35.499s17.667 27.5 23 42.5s8 30.167 8 45.5zM382.996 170.001c0 38 -11.001 70.832 -33.001 98.499s-58.667 50.167 -110 67.5c-41.333 -12 -72.666 -33.667 -93.999 -65s-32 -65 -32 -101
c0 -41.333 10.5 -74.166 31.5 -98.499s54.833 -36.5 101.5 -36.5c48.667 0 83.5 12 104.5 36s31.5 57 31.5 99z" />
    <glyph glyph-name="nine" unicode="9" 
d="M59 454c0 37.333 4.49805 70.3311 13.498 98.998s21.833 52.667 38.5 72s36.334 34 59.001 44s47.334 15 74.001 15c66 0 115.333 -24.5 148 -73.5s49 -128.167 49 -237.5c0 -128 -20.667 -223.833 -62 -287.5s-102 -95.5 -182 -95.5c-18.667 0 -38 1 -58 3
s-37.333 5.66699 -52 11c0 6.66699 0.5 14.834 1.5 24.501s2.83301 18.167 5.5 25.5c12 -4.66699 27.667 -8.5 47 -11.5s38 -4.5 56 -4.5c62 0 108.667 23.667 140 71s49.333 122.333 54 225h-3c-18 -30.667 -39.667 -52.167 -65 -64.5s-53 -18.5 -83 -18.5
c-26 0 -50.167 3.83301 -72.5 11.5s-41.5 19.834 -57.5 36.501s-28.5 37.667 -37.5 63s-13.5 56 -13.5 92zM112.998 453.998c0 -29.333 3.33105 -54.002 9.99805 -74.002s15.667 -36.167 27 -48.5s25 -21.166 41 -26.499s33 -8 51 -8c46.667 0 81.834 12.833 105.501 38.5
s35.5 67.834 35.5 126.501c0 54 -11.5 96.5 -34.5 127.5s-56.5 46.5 -100.5 46.5c-43.333 0 -76.666 -14 -99.999 -42s-35 -74.667 -35 -140z" />
    <glyph glyph-name="colon" unicode=":" horiz-adv-x="191" 
d="M129 24c0 -11.333 -3.16602 -20.168 -9.49902 -26.501s-14.5 -9.5 -24.5 -9.5s-18 3.33301 -24 10s-9 15.334 -9 26.001c0 11.333 3 20.5 9 27.5s14.333 10.5 25 10.5c9.33301 0 17.166 -3.5 23.499 -10.5s9.5 -16.167 9.5 -27.5zM129.001 445.998
c0 -11.333 -3.16602 -20.168 -9.49902 -26.501s-14.5 -9.5 -24.5 -9.5s-18 3.33301 -24 10s-9 15.334 -9 26.001c0 11.333 3 20.5 9 27.5s14.333 10.5 25 10.5c9.33301 0 17.166 -3.5 23.499 -10.5s9.5 -16.167 9.5 -27.5z" />
    <glyph glyph-name="semicolon" unicode=";" horiz-adv-x="191" 
d="M129 446c0 -11.333 -3.16602 -20.168 -9.49902 -26.501s-14.5 -9.5 -24.5 -9.5s-18 3.33301 -24 10s-9 15.334 -9 26.001c0 11.333 3 20.5 9 27.5s14.333 10.5 25 10.5c9.33301 0 17.166 -3.5 23.499 -10.5s9.5 -16.167 9.5 -27.5zM132.001 58.998
c0 -39.333 -10.499 -78.002 -31.499 -116.002s-49.5 -76.667 -85.5 -116l-34 26c21.333 24.667 38.666 46.334 51.999 65.001s24 36.334 32 53.001s13.5 33.5 16.5 50.5s4.5 35.833 4.5 56.5v35h42c1.33301 -6.66699 2.33301 -15.667 3 -27s1 -20.333 1 -27z" />
    <glyph glyph-name="less" unicode="&#x3c;" horiz-adv-x="375" 
d="M251 45l-205 230l205 225h58v-6l-200 -215l200 -229v-5h-58z" />
    <glyph glyph-name="equal" unicode="=" horiz-adv-x="489" 
d="M68 352v45h353v-45h-353zM68 162v45h353v-45h-353z" />
    <glyph glyph-name="greater" unicode="&#x3e;" horiz-adv-x="375" 
d="M124 500l205 -229l-205 -226h-58v6l200 216l-200 228v5h58z" />
    <glyph glyph-name="question" unicode="?" horiz-adv-x="353" 
d="M335 513c0 -22.667 -3.50098 -44.499 -10.501 -65.499s-18.833 -40.667 -35.5 -59s-38.167 -35.5 -64.5 -51.5s-59.166 -30.667 -98.499 -44v-111c-6 -2 -12.833 -3.5 -20.5 -4.5s-14.834 -1.5 -21.501 -1.5c-1.33301 10 -2.66602 21.167 -3.99902 33.5
s-2.5 25.166 -3.5 38.499s-1.83301 26.666 -2.5 39.999s-1 25.333 -1 36c66.667 21.333 118.167 46.333 154.5 75s54.5 65.667 54.5 111c0 42.667 -12 74.334 -36 95.001s-58.667 31 -104 31c-43.333 0 -81 -4.66699 -113 -14c-2 6.66699 -3.5 14.667 -4.5 24
s-1.5 18 -1.5 26c40 8 80.333 12 121 12c26 0 50.5 -3.16699 73.5 -9.5s43.333 -16.5 61 -30.5s31.5 -31.833 41.5 -53.5s15 -47.5 15 -77.5zM135.999 24.001c0 -11.333 -3.16602 -20.168 -9.49902 -26.501s-14.5 -9.5 -24.5 -9.5s-18.167 3.33301 -24.5 10
s-9.5 15.334 -9.5 26.001c0 11.333 3.16699 20.5 9.5 27.5s14.833 10.5 25.5 10.5c9.33301 0 17.166 -3.5 23.499 -10.5s9.5 -16.167 9.5 -27.5z" />
    <glyph glyph-name="at" unicode="@" horiz-adv-x="850" 
d="M527 468c-14.667 6 -29.1699 10.334 -43.5029 13.001s-27.166 4 -38.499 4c-21.333 0 -40.666 -2.83301 -57.999 -8.5s-32.166 -15.5 -44.499 -29.5s-21.833 -32.833 -28.5 -56.5s-10 -53.834 -10 -90.501c0 -34.667 2.5 -63.167 7.5 -85.5s12.333 -39.833 22 -52.5
s21.5 -21.5 35.5 -26.5s29.667 -7.5 47 -7.5c20 0 39 3.33301 57 10s36 16.667 54 30v300zM779.997 343.001c0 -40 -3.83105 -75.8291 -11.498 -107.496s-18.167 -58.667 -31.5 -81s-29.5 -39.5 -48.5 -51.5s-40.167 -18 -63.5 -18c-19.333 0 -37.5 2.83301 -54.5 8.5
s-30.167 19.834 -39.5 42.501h-2c-18.667 -15.333 -37.667 -27.666 -57 -36.999s-41 -14 -65 -14c-22 0 -42.167 3.66699 -60.5 11s-34.166 19.333 -47.499 36s-23.666 38.167 -30.999 64.5s-11 58.5 -11 96.5c0 42 4.33301 77.667 13 107s21.167 53.166 37.5 71.499
s36.166 31.666 59.499 39.999s49.333 12.5 78 12.5c13.333 0 26.333 -1 39 -3s27 -5.33301 43 -10c4 3.33301 8.66699 5.66602 14 6.99902s10.666 2 15.999 2c6 0 10.333 -0.333008 13 -1v-342c0 -17.333 4.66699 -30.666 14 -39.999s21.666 -14 36.999 -14
c12.667 0 25.667 2.66699 39 8s25.333 16 36 32s19.5 38.5 26.5 67.5s10.5 66.833 10.5 113.5c0 50.667 -7.33301 94.5 -22 131.5s-35 67.667 -61 92s-57.333 42.333 -94 54s-77 17.5 -121 17.5c-48.667 0 -92.667 -7.16699 -132 -21.5s-72.833 -35.833 -100.5 -64.5
s-48.834 -64.5 -63.501 -107.5s-22 -93.167 -22 -150.5c0 -107.333 23.333 -187.5 70 -240.5s119.334 -79.5 218.001 -79.5c10 0 21.5 0.666992 34.5 2s25.833 3.16602 38.5 5.49902s24.834 5.16602 36.501 8.49902s21.5 6.66602 29.5 9.99902
c2.66699 -7.33301 4.66699 -15.333 6 -24s2 -16.334 2 -23.001c-9.33301 -3.33301 -20.5 -6.5 -33.5 -9.5s-26.333 -5.5 -40 -7.5s-27 -3.66699 -40 -5s-24.167 -2 -33.5 -2c-52 0 -98.667 7.16699 -140 21.5s-76.5 36.333 -105.5 66s-51.167 67.5 -66.5 113.5
s-23 101 -23 165c0 70 9.83301 129.667 29.5 179s46.167 89.5 79.5 120.5s72.166 53.5 116.499 67.5s91.166 21 140.499 21s95 -6.66699 137 -20s78.333 -34 109 -62s54.667 -63.333 72 -106s26 -93.667 26 -153z" />
    <glyph glyph-name="A" unicode="A" horiz-adv-x="561" 
d="M547 5c-6.66699 -3.33301 -14.832 -5.66602 -24.499 -6.99902s-19.167 -2.33301 -28.5 -3l-81 236h-262l-52 -152c-9.33301 -28 -20.666 -49.833 -33.999 -65.5s-32.333 -23.5 -57 -23.5c-19.333 0 -32.5 3.5 -39.5 10.5s-10.5 18.167 -10.5 33.5v10h40
c15.333 0 25.666 3.16699 30.999 9.5s10.666 17.166 15.999 32.499l211 588h54l60.5 -164.5l61 -169.5l59.5 -169.5zM292.002 585l-5 18c-2 7.33301 -3 14.333 -3 21h-5c0 -6.66699 -0.833008 -13.667 -2.5 -21s-3.16699 -13.333 -4.5 -18l-105 -308h230z" />
    <glyph glyph-name="B" unicode="B" horiz-adv-x="606" 
d="M464 506c0 40.667 -12.498 72.668 -37.498 96.001s-62.167 35 -111.5 35c-8.66699 0 -18.334 -0.666992 -29.001 -2s-21.667 -3 -33 -5s-22.333 -4.33301 -33 -7s-20.334 -5.33398 -29.001 -8.00098v-245h135c42 0 75.5 12.5 100.5 37.5s37.5 57.833 37.5 98.5z
M487.002 191.001c0 40.667 -13.334 73.166 -40.001 97.499s-64.334 36.5 -113.001 36.5h-143v-277c24.667 -3.33301 47.334 -5.66602 68.001 -6.99902s38.667 -2 54 -2c56.667 0 99.834 12.833 129.501 38.5s44.5 63.5 44.5 113.5zM546.001 190
c0 -36 -6.33301 -66.5 -19 -91.5s-30 -45.5 -52 -61.5s-47.5 -27.667 -76.5 -35s-59.5 -11 -91.5 -11c-19.333 0 -44.166 1.16699 -74.499 3.5s-62.166 5.83301 -95.499 10.5v590c0 14.667 -2.5 24.167 -7.5 28.5s-14.167 6.5 -27.5 6.5h-43v10c0 29.333 16.667 44 50 44
c14.667 0 28.667 -2.33301 42 -7s24 -12 32 -22c18 9.33301 39 16.5 63 21.5s47 7.5 69 7.5c31.333 0 59.666 -3.33301 84.999 -10s47 -17.334 65 -32.001s31.833 -33.167 41.5 -55.5s14.5 -49.166 14.5 -80.499c0 -18.667 -2.66699 -35.667 -8 -51s-12.5 -29.333 -21.5 -42
s-19.5 -23.667 -31.5 -33s-24.333 -17 -37 -23v-5c37.333 -12.667 67.166 -32.167 89.499 -58.5s33.5 -60.833 33.5 -103.5z" />
    <glyph glyph-name="C" unicode="C" horiz-adv-x="567" 
d="M527 33c-24.667 -15.333 -52.5 -26.333 -83.5 -33s-61.5 -10 -91.5 -10c-94.667 0 -165.334 29.333 -212.001 88s-70 145.334 -70 260.001c0 60 6.66699 111.833 20 155.5s32.5 79.667 57.5 108s55.167 49.166 90.5 62.499s74.666 20 117.999 20
c28 0 56.5 -2.83301 85.5 -8.5s53.167 -14.167 72.5 -25.5c-1.33301 -8.66699 -3.66602 -17.5 -6.99902 -26.5s-6.66602 -17.5 -9.99902 -25.5c-40.667 23.333 -88 35 -142 35c-38 0 -71 -5.33301 -99 -16s-51.167 -27.667 -69.5 -51s-32.166 -54 -41.499 -92
s-14 -84.667 -14 -140c0 -99.333 17.333 -173 52 -221s90.667 -72 168 -72c28 0 55.167 3.33301 81.5 10s52.166 18 77.499 34c3.33301 -8 6.5 -16.333 9.5 -25s5.5 -17.667 7.5 -27z" />
    <glyph glyph-name="D" unicode="D" horiz-adv-x="716" 
d="M585 343c0 60 -6.99902 109.001 -20.999 147.001s-32 67.667 -54 89s-46.833 36 -74.5 44s-55.167 12 -82.5 12s-54.666 -1.66699 -81.999 -5s-53 -8.66602 -77 -15.999v-565c19.333 -2.66699 43.166 -4.83398 71.499 -6.50098s57.166 -2.5 86.499 -2.5
c76 0 133.833 25.667 173.5 77s59.5 126.666 59.5 225.999zM646.001 351.001c0 -61.333 -7.33203 -114.667 -21.999 -160s-34.834 -82.833 -60.501 -112.5s-56.167 -51.667 -91.5 -66s-73.666 -21.5 -114.999 -21.5c-34 0 -70.333 1 -109 3s-75.667 5.66699 -111 11v590
c0 14.667 -2.5 24.167 -7.5 28.5s-14.167 6.5 -27.5 6.5h-43v10c0 16 4.66699 27.333 14 34s21.666 10 36.999 10c32.667 0 57 -8.66699 73 -26c26 10 53 16.833 81 20.5s58.667 5.5 92 5.5c42.667 0 81.667 -6.33301 117 -19s65.833 -32.5 91.5 -59.5
s45.667 -61.5 60 -103.5s21.5 -92.333 21.5 -151z" />
    <glyph glyph-name="E" unicode="E" horiz-adv-x="550" 
d="M488 50c0 -16.667 -1.66699 -33.333 -5 -50h-373v674h362c0 -8.66699 -0.5 -17 -1.5 -25s-2.16699 -16.333 -3.5 -25h-300v-242h232v-50h-232v-282h321v0z" />
    <glyph glyph-name="F" unicode="F" horiz-adv-x="524" 
d="M479 674c0 -16.667 -1.66699 -33.333 -5 -50h-307v-254h250v-50h-250v-320h-57v674h369v0z" />
    <glyph glyph-name="G" unicode="G" horiz-adv-x="650" 
d="M555 33c-23.333 -12 -51.3291 -22.167 -83.9961 -30.5s-64.667 -12.5 -96 -12.5c-106 0 -183.333 28.833 -232 86.5s-73 144.834 -73 261.501c0 60 7.16699 111.833 21.5 155.5s34.666 79.667 60.999 108s58.666 49.166 96.999 62.499s81.5 20 129.5 20
c28 0 55.833 -2.33301 83.5 -7s53.167 -12.667 76.5 -24c-1.33301 -8 -3.66602 -17.167 -6.99902 -27.5s-6.66602 -19.166 -9.99902 -26.499c-18.667 10 -41.334 18.167 -68.001 24.5s-52 9.5 -76 9.5c-38.667 0 -73.334 -4.66699 -104.001 -14s-56.667 -25.5 -78 -48.5
s-37.5 -53.667 -48.5 -92s-16.5 -86.5 -16.5 -144.5c0 -58.667 5.5 -106.834 16.5 -144.501s27.167 -67.5 48.5 -89.5s47.333 -37.333 78 -46s65.667 -13 105 -13c15.333 0 34.166 1.83301 56.499 5.5s43.166 10.167 62.499 19.5v212h-157c-2 7.33301 -3.5 15.833 -4.5 25.5
s-1.5 18.167 -1.5 25.5h220v-296v0z" />
    <glyph glyph-name="H" unicode="H" horiz-adv-x="697" 
d="M654 34c0 -29.333 -17.667 -43.999 -53 -43.999c-30 0 -52.167 8 -66.5 24s-21.5 39 -21.5 69v252h-346v-335h-57v674h57v-289h346v289h57v-591c0 -14.667 3 -24.834 9 -30.501s16.667 -8.5 32 -8.5h43v-10v0z" />
    <glyph glyph-name="I" unicode="I" horiz-adv-x="277" 
d="M110 0v674h57v-674h-57z" />
    <glyph glyph-name="J" unicode="J" horiz-adv-x="309" 
d="M199 29c0 -54.667 -12.501 -98.334 -37.501 -131.001s-65.5 -50 -121.5 -52c-2 8.66699 -3.5 18 -4.5 28s-1.5 19.667 -1.5 29c38.667 0 66.334 10 83.001 30s25 51.333 25 94v567c0 14.667 -2.66699 24.334 -8 29.001s-14.666 7 -27.999 7h-41v10
c0 15.333 4.66699 26.5 14 33.5s22.666 10.5 39.999 10.5c24.667 0 44.167 -6.16699 58.5 -18.5s21.5 -33.5 21.5 -63.5v-573v0z" />
    <glyph glyph-name="K" unicode="K" horiz-adv-x="614" 
d="M587 33c0 -28.667 -16.332 -43.002 -48.999 -43.002c-19.333 0 -34.833 4.83301 -46.5 14.5s-23.167 23.834 -34.5 42.501l-186 306l-105 -118v-235h-56v674h56v-361h3l323 366c7.33301 0 17 -0.833008 29 -2.5s22.333 -4.16699 31 -7.5l-244 -277l193 -309
c11.333 -17.333 20.166 -28.166 26.499 -32.499s14.833 -6.5 25.5 -6.5h34v-11v0z" />
    <glyph glyph-name="L" unicode="L" horiz-adv-x="495" 
d="M465 50c0 -16.667 -2.33301 -33.333 -7 -50h-348v674h57v-624h298v0z" />
    <glyph glyph-name="M" unicode="M" horiz-adv-x="841" 
d="M751 3c-8 -2 -16.668 -3.5 -26.001 -4.5s-18.333 -1.5 -27 -1.5l-48 554c-0.666992 7.33301 -1 16.666 -1 27.999v27h-5c-1.33301 -11.333 -3 -21.666 -5 -30.999s-4 -17.333 -6 -24l-183 -551h-51l-179 551c-2.66699 7.33301 -4.66699 15.666 -6 24.999
s-2.66602 19.333 -3.99902 30h-5c0 -10 -0.166992 -20.167 -0.5 -30.5s-0.833008 -18.5 -1.5 -24.5l-45 -475c-2.66699 -26.667 -10.167 -47.667 -22.5 -63s-32.166 -23 -59.499 -23c-19.333 0 -33 3.66699 -41 11s-12 18.333 -12 33v10h43c15.333 0 25.5 2.83301 30.5 8.5
s8.16699 16.167 9.5 31.5l62 590h63l178 -541c3.33301 -9.33301 6.33301 -20.166 9 -32.499s5 -25.166 7 -38.499h5c1.33301 13.333 3.16602 26.333 5.49902 39s5.16602 23.667 8.49902 33l180 540h65c12.667 -113.333 24.334 -225.833 35.001 -337.5
s19.667 -222.834 27 -333.501z" />
    <glyph glyph-name="N" unicode="N" horiz-adv-x="698" 
d="M588 3c-14.667 -5.33301 -30.335 -8 -47.002 -8l-329 540c-4 6.66699 -9.66699 17.334 -17 32.001s-13 27.334 -17 38.001l-5 -1c1.33301 -10 2.66602 -22.5 3.99902 -37.5s2 -26.5 2 -34.5v-449c0 -26.667 -6 -48.834 -18 -66.501s-33.667 -26.5 -65 -26.5
c-35.333 0 -53 14.667 -53 44v10h43c16.667 0 27.667 3.16699 33 9.5s8 16.166 8 29.499v585c8.66699 2.66699 18.334 4.66699 29.001 6s20.334 2 29.001 2l318 -522c5.33301 -9.33301 11.333 -20.5 18 -33.5s12 -25.167 16 -36.5l5 1
c-1.33301 11.333 -2.66602 23.333 -3.99902 36s-2 24.667 -2 36v517h52v-671v0z" />
    <glyph glyph-name="O" unicode="O" horiz-adv-x="675" 
d="M605 337c0 -116 -23.832 -202.832 -71.499 -260.499s-112.834 -86.5 -195.501 -86.5c-88 0 -154.667 28.667 -200 86s-68 143 -68 257c0 115.333 23 202.666 69 261.999s112.333 89 199 89c88 0 154.5 -28.833 199.5 -86.5s67.5 -144.5 67.5 -260.5zM544.001 337.001
c0 54.667 -4.33008 100.834 -12.9971 138.501s-21.667 68.167 -39 91.5s-38.833 40.166 -64.5 50.499s-55.5 15.5 -89.5 15.5s-63.833 -5 -89.5 -15s-47.334 -26.667 -65.001 -50s-30.834 -53.833 -39.501 -91.5s-13 -84.167 -13 -139.5
c0 -102.667 16.167 -177.667 48.5 -225s85.166 -71 158.499 -71c71.333 0 123.5 23.167 156.5 69.5s49.5 121.833 49.5 226.5z" />
    <glyph glyph-name="P" unicode="P" horiz-adv-x="588" 
d="M469 479c0 30 -4 54.999 -12 74.999s-19.167 35.833 -33.5 47.5s-31.5 20 -51.5 25s-42 7.5 -66 7.5c-16.667 0 -35 -1.66699 -55 -5s-39.333 -7.66602 -58 -12.999v-294h96c26 0 50 2.83301 72 8.5s41 14.667 57 27s28.5 28.5 37.5 48.5s13.5 44.333 13.5 73z
M528 478.999c0 -35.333 -6.16797 -65.834 -18.501 -91.501s-29 -47 -50 -64s-45.167 -29.5 -72.5 -37.5s-56 -12 -86 -12h-108v-274h-56v595c0 14.667 -2.5 24.167 -7.5 28.5s-14.167 6.5 -27.5 6.5h-43v10c0 16 4.5 27.333 13.5 34s21.167 10 36.5 10
c34 0 58.667 -8.66699 74 -26c18 9.33301 38.667 16 62 20s44.333 6 63 6c30.667 0 59.334 -3.66699 86.001 -11s50 -19.166 70 -35.499s35.667 -37.5 47 -63.5s17 -57.667 17 -95z" />
    <glyph glyph-name="Q" unicode="Q" horiz-adv-x="675" 
d="M892 -191c-16.667 10 -31.498 18.168 -44.498 24.501s-25.333 11.333 -37 15s-22.834 6.16699 -33.501 7.5s-21.667 2 -33 2c-16.667 0 -36.667 -2.16699 -60 -6.5l-72 -14l-71.5 -14c-23 -4.33301 -42.167 -6.5 -57.5 -6.5c-26.667 0 -50.667 3.16699 -72 9.5
s-39.666 16.5 -54.999 30.5s-27.333 32.333 -36 55s-13.667 50 -15 82c-77.333 6.66699 -135.833 38.167 -175.5 94.5s-59.5 137.833 -59.5 244.5c0 115.333 23 202.666 69 261.999s112.333 89 199 89c88 0 154.5 -28.833 199.5 -86.5s67.5 -144.5 67.5 -260.5
c0 -112 -22.333 -196.5 -67 -253.5s-105.667 -87.167 -183 -90.5c1.33301 -42 12.166 -73.5 32.499 -94.5s52.5 -31.5 96.5 -31.5c15.333 0 33.666 2.16699 54.999 6.5l67.5 14c23.667 5 47.667 9.66699 72 14s46.5 6.5 66.5 6.5c10.667 0 21.667 -0.5 33 -1.5
s23.666 -3.33301 36.999 -7s28.333 -9.16699 45 -16.5s35.334 -17.333 56.001 -30zM544.002 337.001c0 54.667 -4.33008 100.834 -12.9971 138.501s-21.667 68.167 -39 91.5s-38.833 40.166 -64.5 50.499s-55.5 15.5 -89.5 15.5s-63.833 -5 -89.5 -15
s-47.334 -26.667 -65.001 -50s-30.834 -53.833 -39.501 -91.5s-13 -84.167 -13 -139.5c0 -102.667 16.167 -177.667 48.5 -225s85.166 -71 158.499 -71c71.333 0 123.5 23.167 156.5 69.5s49.5 121.833 49.5 226.5z" />
    <glyph glyph-name="R" unicode="R" horiz-adv-x="613" 
d="M461 493c0 52.667 -14 89.5 -42 110.5s-65.667 31.5 -113 31.5c-8 0 -16.833 -0.5 -26.5 -1.5s-19.667 -2.33301 -30 -4s-20.5 -3.5 -30.5 -5.5s-18.667 -4.33301 -26 -7v-274h102c110.667 0 166 50 166 150zM594 33c0 -15.333 -4.67383 -26.334 -14.0068 -33.001
s-21.666 -10 -36.999 -10c-17.333 0 -32.666 4.5 -45.999 13.5s-25.666 23.5 -36.999 43.5l-139 247h-128v-294h-56v595c0 14.667 -2.5 24.167 -7.5 28.5s-14.167 6.5 -27.5 6.5h-43v10c0 15.333 4.5 26.5 13.5 33.5s21.167 10.5 36.5 10.5c16 0 30.167 -2 42.5 -6
s22.833 -10.667 31.5 -20c18 9.33301 38.5 16 61.5 20s43.5 6 61.5 6c28.667 0 55.834 -3.16699 81.501 -9.5s48.334 -17 68.001 -32s35.167 -34.667 46.5 -59s17 -54.5 17 -90.5c0 -48 -12.667 -87.5 -38 -118.5s-61 -52.5 -107 -64.5l131 -227
c8.66699 -15.333 16.334 -25.666 23.001 -30.999s17.334 -8 32.001 -8h34v-11v0z" />
    <glyph glyph-name="S" unicode="S" horiz-adv-x="510" 
d="M455 169c0 -24.667 -4.49902 -47.8389 -13.499 -69.5059s-22.167 -40.667 -39.5 -57s-38.833 -29.166 -64.5 -38.499s-55.167 -14 -88.5 -14c-13.333 0 -27.666 0.5 -42.999 1.5s-30.833 2.83301 -46.5 5.5s-31 5.83398 -46 9.50098s-28.833 8.5 -41.5 14.5
c1.33301 7.33301 3.33301 16.166 6 26.499s5.66699 18.833 9 25.5c28.667 -12.667 56 -21.167 82 -25.5s53.667 -6.5 83 -6.5c48 0 84.5 10.5 109.5 31.5s37.5 51.833 37.5 92.5c0 28.667 -8.16699 52.5 -24.5 71.5s-36.666 36 -60.999 51s-50.666 29.167 -78.999 42.5
s-54.666 28 -78.999 44s-44.666 34.5 -60.999 55.5s-24.5 47.167 -24.5 78.5c0 28 5.16699 53 15.5 75s24.666 40.5 42.999 55.5s40.5 26.333 66.5 34s54.667 11.5 86 11.5c10.667 0 22.334 -0.333008 35.001 -1s25.167 -1.5 37.5 -2.5s24.5 -2.5 36.5 -4.5s22.333 -4 31 -6
c0 -2 -0.333008 -5.33301 -1 -10s-1.5 -9.66699 -2.5 -15s-2.33301 -10.666 -4 -15.999l-4.5 -14c-19.333 6 -40.5 10.5 -63.5 13.5s-45.167 4.5 -66.5 4.5c-30.667 0 -55.834 -3 -75.501 -9s-35.334 -14.167 -47.001 -24.5s-19.667 -22.666 -24 -36.999
s-6.5 -29.833 -6.5 -46.5c0 -24.667 8.16699 -45.5 24.5 -62.5s36.666 -32.333 60.999 -46s50.666 -27.167 78.999 -40.5s54.666 -28.666 78.999 -45.999s44.666 -38.166 60.999 -62.499s24.5 -54.166 24.5 -89.499z" />
    <glyph glyph-name="T" unicode="T" horiz-adv-x="518" 
d="M491 674c0 -17.333 -2.33301 -34 -7 -50h-189v-624h-57v624h-134c-14.667 0 -24.5 -3 -29.5 -9s-7.5 -15.667 -7.5 -29v-35h-10c-15.333 0 -26.5 3.5 -33.5 10.5s-10.5 20.167 -10.5 39.5c0 27.333 8.5 46.333 25.5 57s38.5 16 64.5 16h388v0z" />
    <glyph glyph-name="U" unicode="U" horiz-adv-x="680" 
d="M570 261c0 -42 -3.5 -79.666 -10.5 -112.999s-19.167 -61.833 -36.5 -85.5s-40.5 -41.667 -69.5 -54s-65.5 -18.5 -109.5 -18.5c-36.667 0 -69 3.83301 -97 11.5s-51.5 21.667 -70.5 42s-33.333 48 -43 83s-14.5 79.833 -14.5 134.5v332c0 14.667 -3.5 24.5 -10.5 29.5
s-17.167 7.5 -30.5 7.5h-43v10c0 29.333 17.667 44 53 44c28.667 0 50.5 -7.5 65.5 -22.5s22.5 -36.167 22.5 -63.5v-352c0 -36.667 2.66699 -68 8 -94s14.5 -47.333 27.5 -64s30.333 -28.834 52 -36.501s49.167 -11.5 82.5 -11.5c58 0 101.167 16.333 129.5 49
s42.5 85 42.5 157v428h52v-413v0z" />
    <glyph glyph-name="V" unicode="V" horiz-adv-x="592" 
d="M555 670c-33.333 -114 -68.6689 -227.666 -106.002 -340.999s-76.666 -223 -117.999 -329h-56l-201 589c-5.33301 14.667 -10.166 25.167 -14.499 31.5s-12.166 9.5 -23.499 9.5h-45v10c0 29.333 16.667 44 50 44c23.333 0 41.666 -7 54.999 -21s24 -33.667 32 -59
l162 -500c2.66699 -8 5 -16.833 7 -26.5s3.66699 -18.834 5 -27.501h5c1.33301 9.33301 3 18.5 5 27.5s4.66699 17.833 8 26.5l187 571c7.33301 0 15.333 -0.333008 24 -1s16.667 -2 24 -4z" />
    <glyph glyph-name="W" unicode="W" horiz-adv-x="897" 
d="M843 670l-37.001 -164.499l-42 -171.5l-45 -171l-46 -163h-58l-147 533c-3.33301 10 -5.83301 21.167 -7.5 33.5s-3.16699 25.166 -4.5 38.499h-5c-4 -28.667 -9 -53 -15 -73l-151 -532h-60l-146 589c-3.33301 15.333 -7.66602 26 -12.999 32s-13.666 9 -24.999 9h-43v10
c0 29.333 16.667 44 50 44c23.333 0 41.666 -7.33301 54.999 -22s23 -34.667 29 -60l112 -482c2 -8.66699 3.83301 -18.5 5.5 -29.5s3.16699 -22.167 4.5 -33.5h5c1.33301 11.333 3 22.5 5 33.5s4.33301 20.833 7 29.5l159 554h50l152 -554c2.66699 -8 5 -18 7 -30
s3.66699 -23 5 -33h5l4.5 32.5c1.66699 11.667 3.5 21.834 5.5 30.501l136 556c7.33301 0 15.5 -0.333008 24.5 -1s16.833 -2.33398 23.5 -5.00098z" />
    <glyph glyph-name="X" unicode="X" horiz-adv-x="581" 
d="M545 4c-8 -3.33301 -17.332 -5.50195 -27.999 -6.50195s-20.334 -1.5 -29.001 -1.5l-172 281c-5.33301 7.33301 -9.5 14 -12.5 20s-6.16699 12 -9.5 18h-3c-2.66699 -5.33301 -5.33398 -11.166 -8.00098 -17.499s-6.66699 -13.166 -12 -20.499l-145 -226
c-14.667 -23.333 -28.334 -39.333 -41.001 -48s-27.667 -13 -45 -13s-29.166 3.5 -35.499 10.5s-9.5 18.167 -9.5 33.5v10h40c11.333 0 20.333 3.16699 27 9.5s14.667 16.5 24 30.5l173 263l-213 323c9.33301 2 19.833 3.33301 31.5 4s22.167 1 31.5 1l166 -262
c5.33301 -8.66699 8.83301 -15.167 10.5 -19.5s3.83398 -9.16602 6.50098 -14.499h3l8 16c2.66699 5.33301 6.66699 11.666 12 18.999l160 261c21.333 0 41.333 -1.66699 60 -5l-205 -320l215 -346v0z" />
    <glyph glyph-name="Y" unicode="Y" horiz-adv-x="564" 
d="M534 670l-54.999 -108l-52 -99.5l-53 -97l-58 -101.5v-264h-57v264l-180 331c-7.33301 13.333 -13.333 22.5 -18 27.5s-12.667 7.5 -24 7.5h-37v10c0 29.333 16.667 44 50 44c18 0 33.167 -5 45.5 -15s23.5 -24.667 33.5 -44l138 -269l10 -22
c3.33301 -7.33301 6.66602 -15.333 9.99902 -24h5l9 25c2.66699 7.33301 6 15 10 23l166 317c9.33301 0 19 -0.333008 29 -1s19.333 -2 28 -4z" />
    <glyph glyph-name="Z" unicode="Z" horiz-adv-x="540" 
d="M517 -17c0 -16 -3.5 -28.998 -10.5 -38.998s-18.167 -15 -33.5 -15h-10v40c0 11.333 -2.33301 19.333 -7 24s-14 7 -28 7h-379l-6 49l385 575h-367c-2 7.33301 -3.33301 15.666 -4 24.999s-1 17.666 -1 24.999h430l6 -49l-385 -575h334c50.667 0 76 -22.333 76 -67z" />
    <glyph glyph-name="bracketleft" unicode="[" horiz-adv-x="353" 
d="M120 -175v910.001h173c0 -7.33301 -0.5 -15.833 -1.5 -25.5s-2.83301 -18.167 -5.5 -25.5h-113v-808h113c2.66699 -8 4.5 -16.833 5.5 -26.5s1.5 -17.834 1.5 -24.501h-173z" />
    <glyph glyph-name="backslash" unicode="\" horiz-adv-x="361" 
d="M371 -96c-6.66699 -4.66699 -13.167 -8.16699 -19.5 -10.5s-14.833 -4.83301 -25.5 -7.5l-313 785c7.33301 3.33301 15.5 6.33301 24.5 9s16.833 4 23.5 4l310 -780v0z" />
    <glyph glyph-name="bracketright" unicode="]" horiz-adv-x="353" 
d="M233 735v-910.001h-173c0 7.33301 0.5 15.833 1.5 25.5s2.83301 18.167 5.5 25.5h113v808h-113c-2.66699 8 -4.5 16.833 -5.5 26.5s-1.5 17.834 -1.5 24.501h173z" />
    <glyph glyph-name="asciicircum" unicode="^" horiz-adv-x="492" 
d="M414 363c-5.33301 -2 -12.668 -3.50098 -22.001 -4.50098s-17.666 -1.5 -24.999 -1.5l-119 276l-124 -276c-5.33301 0 -13 0.5 -23 1.5s-17.667 2.16699 -23 3.5c9.33301 24 20.333 50.833 33 80.5l38.5 87.5l38.5 81.5c12.667 25.667 23.667 46.5 33 62.5h55
c8 -15.333 18 -35.666 30 -60.999l37 -81.5l38 -88c12.667 -29.667 23.667 -56.5 33 -80.5z" />
    <glyph glyph-name="underscore" unicode="_" 
d="M53 -139v45.999h398c0 -6.66699 -0.5 -14.167 -1.5 -22.5s-2.5 -16.166 -4.5 -23.499h-392z" />
    <glyph glyph-name="grave" unicode="`" 
d="M323 578c-4.66699 -2 -10.501 -3.5 -17.501 -4.5s-13.167 -1.5 -18.5 -1.5c-22 25.333 -42.167 51.833 -60.5 79.5s-32.166 54.167 -41.499 79.5h49l89 -153v0z" />
    <glyph glyph-name="a" unicode="a" horiz-adv-x="569" 
d="M400 465c-17.333 7.33301 -35.5 12.168 -54.5 14.501s-35.5 3.5 -49.5 3.5c-26 0 -49.5 -3.5 -70.5 -10.5s-38.667 -19.333 -53 -37s-25.5 -41.167 -33.5 -70.5s-12 -66.333 -12 -111c0 -42.667 3.16699 -77.834 9.5 -105.501s15.333 -49.5 27 -65.5s26 -27.167 43 -33.5
s36.167 -9.5 57.5 -9.5c24.667 0 48 4.16699 70 12.5s44 20.5 66 36.5v376zM453 73.002c0 -12 2.17285 -20.3311 6.50586 -24.998s12.166 -7 23.499 -7h56v-12c0 -26 -14.667 -39 -44 -39c-21.333 0 -39.5 3 -54.5 9s-28.167 20.667 -39.5 44h-3
c-24 -16.667 -46.833 -29.667 -68.5 -39s-47.167 -14 -76.5 -14c-26.667 0 -51.334 4.5 -74.001 13.5s-42 23.667 -58 44s-28.5 46.666 -37.5 78.999s-13.5 71.833 -13.5 118.5c0 51.333 5.33301 95.166 16 131.499s26 66 46 89s44.167 39.833 72.5 50.5
s60.166 16 95.499 16c16.667 0 32.667 -1.33301 48 -4s32.666 -6.66699 51.999 -12c5.33301 4 11.166 6.83301 17.499 8.5s12.833 2.5 19.5 2.5c7.33301 0 12.666 -0.333008 15.999 -1v-453z" />
    <glyph glyph-name="b" unicode="b" horiz-adv-x="573" 
d="M503 277c0 -101.333 -20.332 -174.5 -60.999 -219.5s-97.334 -67.5 -170.001 -67.5c-31.333 0 -59.666 3.83301 -84.999 11.5s-51 20.5 -77 38.5v698c6 1.33301 14.5 2.66602 25.5 3.99902s20.167 2 27.5 2v-267h3c26 20 50.667 34.167 74 42.5s50 12.5 80 12.5
c26.667 0 51.167 -4.5 73.5 -13.5s41.666 -23.5 57.999 -43.5s29 -46.167 38 -78.5s13.5 -72.166 13.5 -119.499zM446.001 269c0 42 -3.16699 76.833 -9.5 104.5s-15.333 49.5 -27 65.5s-26 27.167 -43 33.5s-36.167 9.5 -57.5 9.5c-50 0 -98.667 -17.333 -146 -52v-362
c16 -10.667 33.333 -18.167 52 -22.5s37.667 -6.5 57 -6.5c26.667 0 50.667 3.5 72 10.5s39.5 19.167 54.5 36.5s26.667 40.833 35 70.5s12.5 67.167 12.5 112.5z" />
    <glyph glyph-name="c" unicode="c" horiz-adv-x="479" 
d="M429 23c-9.33301 -6 -19.9951 -11.167 -31.9951 -15.5s-24.333 -7.66602 -37 -9.99902s-24.834 -4.16602 -36.501 -5.49902s-22.167 -2 -31.5 -2c-75.333 0 -131.166 22 -167.499 66s-54.5 109.333 -54.5 196c0 50.667 5.5 93.667 16.5 129s26 64.166 45 86.499
s41.333 38.666 67 48.999s53.167 15.5 82.5 15.5c9.33301 0 19.666 -0.5 30.999 -1.5s23 -2.33301 35 -4s23.667 -4 35 -7s21.666 -6.5 30.999 -10.5c-0.666992 -7.33301 -1.83398 -15.833 -3.50098 -25.5s-4.16699 -18.167 -7.5 -25.5
c-19.333 8.66699 -39.166 14.834 -59.499 18.501s-40.5 5.5 -60.5 5.5c-22.667 0 -43.667 -3.5 -63 -10.5s-35.666 -18.667 -48.999 -35s-23.833 -37.833 -31.5 -64.5s-11.5 -60 -11.5 -100c0 -45.333 3.5 -82.833 10.5 -112.5s17.333 -53.334 31 -71.001
s30.667 -30.167 51 -37.5s44.166 -11 71.499 -11c21.333 0 43.166 2.5 65.499 7.5s41.833 13.167 58.5 24.5c3.33301 -6.66699 6.16602 -14.5 8.49902 -23.5s4.16602 -17.5 5.49902 -25.5z" />
    <glyph glyph-name="d" unicode="d" horiz-adv-x="579" 
d="M410 459c-15.333 7.33301 -33.332 13.166 -53.999 17.499s-40.667 6.5 -60 6.5c-25.333 0 -48.5 -3.5 -69.5 -10.5s-38.833 -19.167 -53.5 -36.5s-26 -40.666 -34 -69.999s-12 -66.666 -12 -111.999c0 -42.667 3.16699 -77.834 9.5 -105.501s15.333 -49.5 27 -65.5
s26 -27.167 43 -33.5s36.5 -9.5 58.5 -9.5c22.667 0 45.667 3.5 69 10.5s48.666 19.833 75.999 38.5v370zM549.001 29c0 -26 -14.666 -38.9971 -43.999 -38.9971c-9.33301 0 -18.5 0.5 -27.5 1.5s-17.5 3.33301 -25.5 7s-15.5 9 -22.5 16s-13.167 16.833 -18.5 29.5h-4
c-26 -20.667 -50.833 -34.834 -74.5 -42.501s-50.5 -11.5 -80.5 -11.5c-26 0 -50.167 4.5 -72.5 13.5s-41.666 23.667 -57.999 44s-29 46.666 -38 78.999s-13.5 71.833 -13.5 118.5c0 52 5.33301 96.167 16 132.5s26 66 46 89s44.167 39.667 72.5 50
s60.166 15.5 95.499 15.5c17.333 0 35.5 -1.83301 54.5 -5.5s37.5 -9.16699 55.5 -16.5v228c6 1.33301 14.5 2.66602 25.5 3.99902s20.167 2 27.5 2v-671c0 -12 2.16699 -20.333 6.5 -25s12.166 -7 23.499 -7h56v-12v0z" />
    <glyph glyph-name="e" unicode="e" horiz-adv-x="516" 
d="M452 336c0 -11.333 -0.165039 -23.334 -0.498047 -36.001s-0.833008 -25 -1.5 -37h-324v-6c0 -36 2.83301 -67.5 8.5 -94.5s15.167 -49.667 28.5 -68s30.833 -32 52.5 -41s48.834 -13.5 81.501 -13.5c24 0 47.5 3.33301 70.5 10s41.833 14.667 56.5 24
c3.33301 -7.33301 6.66602 -15.333 9.99902 -24s5.66602 -16.667 6.99902 -24c-17.333 -11.333 -39.5 -20.166 -66.5 -26.499s-53.833 -9.5 -80.5 -9.5c-74.667 0 -130.667 21.333 -168 64s-56 109.334 -56 200.001c0 50 5.16699 92.667 15.5 128
s24.666 64.166 42.999 86.499s39.833 38.5 64.5 48.5s51 15 79 15c56 0 100 -16.333 132 -49s48 -81.667 48 -147zM270.002 486.999c-42 0 -75.667 -14.001 -101 -42.001s-39.333 -74.667 -42 -140h272c0.666992 4.66699 1 10.334 1 17.001v17
c0 53.333 -11.833 91.333 -35.5 114s-55.167 34 -94.5 34z" />
    <glyph glyph-name="f" unicode="f" horiz-adv-x="348" 
d="M310 741c0 -8 -0.333984 -16.499 -1.00098 -25.499s-2 -17.5 -4 -25.5c-5.33301 1.33301 -12 2.16602 -20 2.49902s-15.667 0.5 -23 0.5c-25.333 0 -43.833 -7 -55.5 -21s-17.5 -36.667 -17.5 -68v-82h119c0 -14.667 -1.66699 -29.667 -5 -45h-114v-549
c0 -24 -4 -45 -12 -63s-18.5 -33 -31.5 -45s-27.5 -21 -43.5 -27s-32.333 -9 -49 -9c-6 0 -12 0.166992 -18 0.5s-12.667 1.16602 -20 2.49902c0 8 0.333008 16.5 1 25.5s2 17.5 4 25.5c5.33301 -1.33301 12 -2.16602 20 -2.49902s15.667 -0.5 23 -0.5
c25.333 0 43.833 7 55.5 21s17.5 36.667 17.5 68v553h-66v45h66v78c0 24 4 45 12 63s18.5 33 31.5 45s27.5 21 43.5 27s32.333 9 49 9c10.667 0 23.334 -1 38.001 -3z" />
    <glyph glyph-name="g" unicode="g" horiz-adv-x="542" 
d="M487 -42c0 -25.333 -4.33594 -48.6719 -13.0029 -70.0049s-22 -39.666 -40 -54.999s-40.667 -27.333 -68 -36s-59.666 -13 -96.999 -13c-39.333 0 -71.833 4 -97.5 12s-46 18.833 -61 32.5s-25.5 29.834 -31.5 48.501s-9 38.667 -9 60
c0 20.667 3.83301 40.834 11.5 60.501s21.5 40.167 41.5 61.5c-5.33301 8.66699 -10.666 19.334 -15.999 32.001s-8.66602 25.334 -9.99902 38.001c5.33301 16.667 13 34.334 23 53.001s20.667 35 32 49c-20.667 13.333 -36.167 31.333 -46.5 54s-15.5 47.667 -15.5 75
c0 25.333 4 48.5 12 69.5s19.5 39.167 34.5 54.5s33 27.166 54 35.499s44.833 12.5 71.5 12.5c10.667 0 21 -0.5 31 -1.5s20.333 -3.16699 31 -6.5c0 51.333 10.833 87.5 32.5 108.5s51.5 31.5 89.5 31.5c14.667 0 24.834 -2.66699 30.501 -8s8.5 -14 8.5 -26v-16h-37
c-27.333 0 -47.333 -6.16699 -60 -18.5s-19 -33.166 -19 -62.499v-30c22.667 -18 39 -38.5 49 -61.5s15 -48.5 15 -76.5s-4.5 -52.333 -13.5 -73s-21.167 -38 -36.5 -52s-33.166 -24.333 -53.499 -31s-41.5 -10 -63.5 -10c-14.667 0 -28.834 1.16699 -42.501 3.5
s-24.834 5.16602 -33.501 8.49902c-15.333 -17.333 -26 -33.666 -32 -48.999s-9 -27.333 -9 -36c0 -12.667 2.5 -21.334 7.5 -26.001s12.167 -7 21.5 -7h174c42 0 75 -10.5 99 -31.5s36 -55.5 36 -103.5zM435.997 -46.0059c0 33.333 -6.33301 56.166 -19 68.499
s-33.667 18.5 -63 18.5h-199c-15.333 -14.667 -25 -30.667 -29 -48s-6 -32 -6 -44c0 -41.333 10.833 -71.666 32.5 -90.999s60.5 -29 116.5 -29c111.333 0 167 41.667 167 125zM379.997 365.994c0 44 -10.499 75.667 -31.499 95s-50.167 29 -87.5 29
c-38 0 -67 -10.5 -87 -31.5s-30 -51.833 -30 -92.5c0 -42 10.167 -73 30.5 -93s49.166 -30 86.499 -30s66.5 9.5 87.5 28.5s31.5 50.5 31.5 94.5z" />
    <glyph glyph-name="h" unicode="h" horiz-adv-x="583" 
d="M425 0v381.001c0 32 -8.16699 56.667 -24.5 74s-41.5 26 -75.5 26c-30.667 0 -58.834 -4.16699 -84.501 -12.5s-51.5 -21.833 -77.5 -40.5v-428h-53v738c6 1.33301 14.5 2.66602 25.5 3.99902s20.167 2 27.5 2v-271h3c26.667 21.333 53.334 36.5 80.001 45.5
s55.667 13.5 87 13.5c19.333 0 37.833 -2.33301 55.5 -7s33.167 -13 46.5 -25s23.833 -28 31.5 -48s11.5 -45 11.5 -75v-377h-53z" />
    <glyph glyph-name="i" unicode="i" horiz-adv-x="272" 
d="M171 674c0 -11.333 -3 -20.333 -9 -27s-14.667 -10 -26 -10s-19.833 3.5 -25.5 10.5s-8.5 15.833 -8.5 26.5s3 19.667 9 27s14.667 11 26 11s19.833 -3.66699 25.5 -11s8.5 -16.333 8.5 -27zM110 0v522h53v-522h-53z" />
    <glyph glyph-name="j" unicode="j" horiz-adv-x="272" 
d="M163 -49c0 -21.333 -2.66602 -41.665 -7.99902 -60.998s-13.833 -36.333 -25.5 -51s-26.667 -26.834 -45 -36.501s-40.5 -15.834 -66.5 -18.501c-2.66699 7.33301 -4.83398 15.833 -6.50098 25.5s-2.5 18.167 -2.5 25.5c38 3.33301 64.333 14.5 79 33.5
s22 46.167 22 81.5v572h53v-571v0zM171.001 674.001c0 -11.333 -3 -20.333 -9 -27s-14.667 -10 -26 -10s-19.833 3.5 -25.5 10.5s-8.5 15.833 -8.5 26.5s3 19.667 9 27s14.667 11 26 11s19.833 -3.66699 25.5 -11s8.5 -16.333 8.5 -27z" />
    <glyph glyph-name="k" unicode="k" horiz-adv-x="502" 
d="M467 4c-7.33301 -2.66699 -16 -4.66602 -26 -5.99902s-19.333 -2 -28 -2l-174 278l-76 -84v-190h-53v738c6 1.33301 14.5 2.66602 25.5 3.99902s20.167 2 27.5 2v-482h3l237 264c7.33301 0 17.5 -0.666992 30.5 -2s22.833 -3.33301 29.5 -6l-188 -205l49.5 -76.5
l44.5 -69.5l45 -74z" />
    <glyph glyph-name="l" unicode="l" horiz-adv-x="273" 
d="M110 0v738.001c6 1.33301 14.5 2.66602 25.5 3.99902s20.167 2 27.5 2v-744h-53z" />
    <glyph glyph-name="m" unicode="m" horiz-adv-x="855" 
d="M697 0l0.000976562 380.999c0 30 -7.83301 54.167 -23.5 72.5s-41.167 27.5 -76.5 27.5c-14.667 0 -28.167 -1.16699 -40.5 -3.5s-24 -5.66602 -35 -9.99902s-21.833 -10 -32.5 -17s-21.667 -15.167 -33 -24.5v-426h-53v381c0 30 -8.33301 54.167 -25 72.5
s-42.667 27.5 -78 27.5c-25.333 0 -48.833 -4.5 -70.5 -13.5s-43.834 -22.167 -66.501 -39.5v-428h-53v519c6 1.33301 14.5 2.5 25.5 3.5s20.167 1.5 27.5 1.5v-51h3c23.333 21.333 45.833 36.5 67.5 45.5s46.5 13.5 74.5 13.5c27.333 0 52.5 -5.5 75.5 -16.5
s40.5 -29.833 52.5 -56.5c28.667 25.333 56.334 43.833 83.001 55.5s55.334 17.5 86.001 17.5c19.333 0 37.666 -2.33301 54.999 -7s32.666 -13 45.999 -25s24 -28 32 -48s12 -45 12 -75v-377h-53z" />
    <glyph glyph-name="n" unicode="n" horiz-adv-x="583" 
d="M425 0l0.00195312 381c0 30 -7.66699 54.167 -23 72.5s-41 27.5 -77 27.5c-32.667 0 -61.5 -4.5 -86.5 -13.5s-50.167 -22.167 -75.5 -39.5v-428h-53v519c6 1.33301 14.5 2.5 25.5 3.5s20.167 1.5 27.5 1.5v-51h3c25.333 20.667 51.666 35.667 78.999 45
s56.666 14 87.999 14c19.333 0 37.833 -2.33301 55.5 -7s33.167 -13 46.5 -25s23.833 -28 31.5 -48s11.5 -45 11.5 -75v-377h-53z" />
    <glyph glyph-name="o" unicode="o" horiz-adv-x="566" 
d="M496 261c0 -46.667 -5.50195 -87.167 -16.502 -121.5s-26.167 -62.5 -45.5 -84.5s-42.166 -38.333 -68.499 -49s-54.833 -16 -85.5 -16c-32 0 -61 5 -87 15s-48 25.833 -66 47.5s-32 49.667 -42 84s-15 75.833 -15 124.5c0 44 5.16699 82.833 15.5 116.5s25 62 44 85
s41.5 40.333 67.5 52s55 17.5 87 17.5c30.667 0 59 -4.66699 85 -14s48.333 -24.833 67 -46.5s33.334 -49.667 44.001 -84s16 -76.5 16 -126.5zM438.998 261c0 42.667 -3.66895 78.3311 -11.002 106.998s-17.833 51.5 -31.5 68.5s-30 29 -49 36s-40.167 10.5 -63.5 10.5
c-21.333 0 -41.5 -3.16699 -60.5 -9.5s-35.667 -17.666 -50 -33.999s-25.666 -38.833 -33.999 -67.5s-12.5 -65.667 -12.5 -111c0 -43.333 3.5 -79.166 10.5 -107.499s17.167 -51 30.5 -68s29.5 -29 48.5 -36s40.5 -10.5 64.5 -10.5s45.667 3.33301 65 10
s35.833 18.5 49.5 35.5s24.334 39.833 32.001 68.5s11.5 64.667 11.5 108z" />
    <glyph glyph-name="p" unicode="p" horiz-adv-x="573" 
d="M503 277c0 -50.667 -5.16504 -94.1689 -15.498 -130.502s-25.5 -66.166 -45.5 -89.499s-44.167 -40.333 -72.5 -51s-60.5 -16 -96.5 -16c-36.667 0 -73.334 7.33301 -110.001 22v-218h-53v725c6 1.33301 14.5 2.5 25.5 3.5s20.167 1.5 27.5 1.5v-47h3
c26.667 21.333 52.167 35.833 76.5 43.5s50.5 11.5 78.5 11.5c26 0 50.167 -4.5 72.5 -13.5s41.666 -23.667 57.999 -44s29 -46.666 38 -78.999s13.5 -71.833 13.5 -118.5zM446.002 268.998c0 42.667 -3.16699 77.668 -9.5 105.001s-15.5 49 -27.5 65
s-26.5 27.167 -43.5 33.5s-36.167 9.5 -57.5 9.5c-26 0 -51 -4.33301 -75 -13s-47.333 -21 -70 -37v-369c18.667 -8.66699 38 -14.834 58 -18.501s38.667 -5.5 56 -5.5c28 0 52.5 4 73.5 12s38.5 21 52.5 39s24.667 41.667 32 71s11 65.333 11 108z" />
    <glyph glyph-name="q" unicode="q" horiz-adv-x="573" 
d="M410 -206l0.000976562 250.001h-3c-25.333 -19.333 -50.5 -33.166 -75.5 -41.499s-51.5 -12.5 -79.5 -12.5c-26 0 -50.167 4.5 -72.5 13.5s-41.5 23.667 -57.5 44s-28.667 46.666 -38 78.999s-14 71.833 -14 118.5c0 51.333 5.33301 95.166 16 131.499s26 66 46 89
s44.167 39.833 72.5 50.5s60.166 16 95.499 16c26 0 53.333 -3.33301 82 -10s55.667 -18 81 -34v-694h-53zM410.001 459.001c-13.333 7.33301 -30.665 13.168 -51.998 17.501s-42 6.5 -62 6.5c-26 0 -49.5 -3.66699 -70.5 -11s-38.833 -19.833 -53.5 -37.5
s-25.834 -41.167 -33.501 -70.5s-11.5 -66 -11.5 -110c0 -42.667 3.16699 -77.834 9.5 -105.501s15.5 -49.5 27.5 -65.5s26.5 -27.167 43.5 -33.5s36.167 -9.5 57.5 -9.5c23.333 0 46.666 3.83301 69.999 11.5s48.333 20.167 75 37.5v370z" />
    <glyph glyph-name="r" unicode="r" horiz-adv-x="373" 
d="M343 527c0 -7.33301 -0.669922 -16.3311 -2.00293 -26.998s-2.66602 -20 -3.99902 -28c-12 3.33301 -26.667 5 -44 5c-8.66699 0 -17.667 -0.666992 -27 -2s-19.166 -4.33301 -29.499 -9s-21.666 -11.834 -33.999 -21.501s-25.5 -22.834 -39.5 -39.501v-405h-53v519
c6 1.33301 14.5 2.5 25.5 3.5s20.167 1.5 27.5 1.5v-66h3c16 17.333 30.333 30.833 43 40.5s24.5 17 35.5 22s21 8.16699 30 9.5s17.5 2 25.5 2c6 0 13.167 -0.333008 21.5 -1s15.5 -2 21.5 -4z" />
    <glyph glyph-name="s" unicode="s" horiz-adv-x="444" 
d="M379 135c0 -24.667 -4.67188 -46.168 -14.0049 -64.501s-22 -33.5 -38 -45.5s-34.833 -20.833 -56.5 -26.5s-45.167 -8.5 -70.5 -8.5c-23.333 0 -47.666 2.16699 -72.999 6.5s-47.666 11.833 -66.999 22.5c2 8 4.33301 16.333 7 25s5.66699 16.667 9 24
c20.667 -10.667 42.667 -18.167 66 -22.5s47.333 -6.5 72 -6.5c39.333 0 67.333 7.66699 84 23s25 37.333 25 66c0 22 -6.16699 40.167 -18.5 54.5s-27.833 27 -46.5 38s-39 21.167 -61 30.5s-42.333 19.833 -61 31.5s-34.167 25.5 -46.5 41.5s-18.5 36 -18.5 60
c0 23.333 4.5 44.166 13.5 62.499s21.333 33.833 37 46.5s34.334 22.334 56.001 29.001s44.834 10 69.501 10c15.333 0 33.666 -1.16699 54.999 -3.5s41.666 -6.16602 60.999 -11.499c0 -7.33301 -1 -16 -3 -26s-4.33301 -18.667 -7 -26
c-18 6.66699 -37.667 11.334 -59 14.001s-42.666 4 -63.999 4c-34 0 -60.167 -7.33301 -78.5 -22s-27.5 -38.334 -27.5 -71.001c0 -18 6.33301 -33 19 -45s28.334 -23 47.001 -33s39.167 -19.833 61.5 -29.5s42.833 -21 61.5 -34s34.334 -28.5 47.001 -46.5
s19 -40.333 19 -67z" />
    <glyph glyph-name="t" unicode="t" horiz-adv-x="372" 
d="M342 7c-13.333 -6 -27.1689 -10.333 -41.502 -13s-28.5 -4 -42.5 -4c-48 0 -81.333 12.667 -100 38s-28 64 -28 116v333h-65v45h65v116c5.33301 2.66699 13.833 5 25.5 7s20.834 3 27.501 3v-126h129c0 -7.33301 -0.333008 -15 -1 -23s-1.66699 -15.333 -3 -22h-125v-338
c0 -37.333 5.16699 -63 15.5 -77s29.5 -21 57.5 -21c12 0 25 1.33301 39 4s26.667 6.66699 38 12c2.66699 -7.33301 4.83398 -15.5 6.50098 -24.5s2.5 -17.5 2.5 -25.5z" />
    <glyph glyph-name="u" unicode="u" horiz-adv-x="578" 
d="M415 0l-0.000976562 45h-3c-26.667 -17.333 -53 -30.833 -79 -40.5s-55 -14.5 -87 -14.5c-19.333 0 -37.5 2.33301 -54.5 7s-32 13 -45 25s-23.167 27.833 -30.5 47.5s-11 44.5 -11 74.5v375c6.66699 1.33301 15.334 2.5 26.001 3.5s19.667 1.5 27 1.5v-383
c0 -30 7.16699 -54.167 21.5 -72.5s39.166 -27.5 74.499 -27.5c32.667 0 61.834 4.5 87.501 13.5s50.167 21.167 73.5 36.5v428c6 1.33301 14.5 2.5 25.5 3.5s20.167 1.5 27.5 1.5v-524h-53z" />
    <glyph glyph-name="v" unicode="v" horiz-adv-x="493" 
d="M458 519c-28 -89.333 -57.3311 -176.835 -87.998 -262.502s-63 -171.167 -97 -256.5h-55l-48 125.5l-48 132.5l-46 133l-41 128c6.66699 1.33301 15 2.5 25 3.5s18.667 1.5 26 1.5l145 -416c3.33301 -10 6.16602 -19.667 8.49902 -29s4.5 -19.666 6.5 -30.999h3
c2 11.333 4.16699 21.833 6.5 31.5s5.16602 19.834 8.49902 30.501l143 414c18.667 0 35.667 -1.66699 51 -5z" />
    <glyph glyph-name="w" unicode="w" horiz-adv-x="781" 
d="M726 519c-37.333 -181.333 -82.6689 -354.336 -136.002 -519.003h-53l-132 395c-3.33301 9.33301 -6.33301 19.5 -9 30.5s-4.66699 23.167 -6 36.5h-3c-2.66699 -25.333 -7.66699 -48 -15 -68l-129 -394h-54c-25.333 80.667 -49.666 165.834 -72.999 255.501
s-43.666 177.5 -60.999 263.5c6 1.33301 14 2.5 24 3.5s18.667 1.5 26 1.5l98 -400c3.33301 -11.333 6 -23 8 -35s3.66699 -24.333 5 -37h3c2 12.667 4.33301 25 7 37s6 24.333 10 37l129 396h50l133 -398c3.33301 -11.333 6.33301 -22.666 9 -33.999s5 -24 7 -38h3
c1.33301 13.333 3.33301 25.833 6 37.5s5.66699 23.834 9 36.501l96 398c17.333 0 33.333 -1.66699 48 -5z" />
    <glyph glyph-name="x" unicode="x" horiz-adv-x="488" 
d="M453 4c-6.66699 -2.66699 -16.333 -4.66797 -29 -6.00098s-22.667 -2 -30 -2l-133 207c-4 6.66699 -7.16699 12.334 -9.5 17.001s-4.83301 10 -7.5 16h-3c-2.66699 -6 -5.33398 -11.5 -8.00098 -16.5s-6 -10.833 -10 -17.5l-130 -206
c-7.33301 0 -17.166 0.666992 -29.499 2s-21.833 3.33301 -28.5 6l177 268l-165 247c7.33301 2 17 3.5 29 4.5s22 1.5 30 1.5l119 -188c3.33301 -5.33301 6.5 -11 9.5 -17l8.5 -17h3l8.5 17c3 6 6.16699 11.667 9.5 17l119 188c7.33301 0 16.833 -0.5 28.5 -1.5
s21.5 -2.5 29.5 -4.5l-167 -251l179 -264v0z" />
    <glyph glyph-name="y" unicode="y" horiz-adv-x="504" 
d="M469 519l-8.49902 -26.0029l-23 -69l-33.5 -98l-39.5 -113.5l-41.5 -115l-39 -103.5c-14 -36 -27.833 -67.167 -41.5 -93.5s-28.167 -48.166 -43.5 -65.499s-31.833 -30.166 -49.5 -38.499s-37.167 -12.5 -58.5 -12.5c-12 0 -25.167 1.16699 -39.5 3.5
s-29.166 7.5 -44.499 15.5c1.33301 8.66699 3.16602 17.334 5.49902 26.001s5.16602 16.334 8.49902 23.001c20.667 -10.667 45.334 -16 74.001 -16c19.333 0 37 5.33301 53 16s30.667 31.667 44 63l38 86l-49 125.5l-48.5 132l-45.5 132.5l-41 128
c6.66699 2 15.167 3.5 25.5 4.5s19.166 1.5 26.499 1.5l141 -414c3.33301 -10 6.5 -20 9.5 -30s5.5 -20.667 7.5 -32h3c4 21.333 9.66699 42.666 17 63.999l141 412c6.66699 0 15.5 -0.5 26.5 -1.5s19.5 -2.5 25.5 -4.5z" />
    <glyph glyph-name="z" unicode="z" horiz-adv-x="457" 
d="M45 0l-6 42l303 435h-280c-1.33301 7.33301 -2.33301 15.166 -3 23.499s-1 15.5 -1 21.5h339l6 -42l-303 -435h306c2.66699 -8 4.66699 -15.667 6 -23s2 -14.666 2 -21.999h-369z" />
    <glyph glyph-name="braceleft" unicode="{" horiz-adv-x="320" 
d="M270 -128c0 -19.333 -1.66602 -36.667 -4.99902 -52c-72.667 0 -125.5 11 -158.5 33s-49.5 53 -49.5 93c0 22 6.33301 43.5 19 64.5s26.5 41.667 41.5 62s28.667 40.333 41 60s18.5 38.5 18.5 56.5c0 10 -1.83301 19.167 -5.5 27.5s-10.167 15.333 -19.5 21
s-22.333 10 -39 13s-37.667 4.5 -63 4.5v52c25.333 0 46.333 1.5 63 4.5s29.667 7.33301 39 13s15.833 12.667 19.5 21s5.5 17.5 5.5 27.5c0 18 -6.16699 36.667 -18.5 56s-26 39.166 -41 59.499s-28.833 41 -41.5 62s-19 42.5 -19 64.5c0 20 5.16699 37.667 15.5 53
s24.833 28.333 43.5 39s40.667 18.834 66 24.501s53 8.5 83 8.5c3.33301 -15.333 5 -32.333 5 -51c-50 0 -88.667 -6 -116 -18s-41 -30.667 -41 -56c0 -16 6.16699 -33.667 18.5 -53s25.666 -39.166 39.999 -59.499s27.666 -40.833 39.999 -61.5s18.5 -41 18.5 -61
c0 -24.667 -6.33301 -44.834 -19 -60.501s-36.334 -27.5 -71.001 -35.5v-4c34.667 -6.66699 58.334 -18.5 71.001 -35.5s19 -37.833 19 -62.5c0 -20 -6.16699 -40.5 -18.5 -61.5s-25.666 -41.833 -39.999 -62.5l-40 -59.5c-12.333 -19 -18.5 -36.5 -18.5 -52.5
c0 -26 13.667 -44.833 41 -56.5s66 -17.5 116 -17.5z" />
    <glyph glyph-name="bar" unicode="|" horiz-adv-x="260" 
d="M105 -206v938h50v-938h-50z" />
    <glyph glyph-name="braceright" unicode="}" horiz-adv-x="320" 
d="M270 254c-25.333 0 -46.167 -1.49902 -62.5 -4.49902s-29.333 -7.33301 -39 -13s-16.334 -12.667 -20.001 -21s-5.5 -17.5 -5.5 -27.5c0 -18 6.33301 -36.667 19 -56s26.5 -39.166 41.5 -59.499s28.667 -41 41 -62s18.5 -42.5 18.5 -64.5
c0 -20 -5.16699 -37.667 -15.5 -53s-24.833 -28.333 -43.5 -39s-40.667 -18.834 -66 -24.501s-53 -8.5 -83 -8.5c-3.33301 15.333 -5 32.333 -5 51c50 0 88.667 6 116 18s41 30.667 41 56c0 16 -6.16699 33.667 -18.5 53s-25.666 39.166 -39.999 59.499
s-27.666 40.833 -39.999 61.5s-18.5 41 -18.5 61c0 24.667 6.33301 44.834 19 60.501s36.334 27.5 71.001 35.5v4c-34.667 6.66699 -58.334 18.5 -71.001 35.5s-19 37.833 -19 62.5c0 20 6.16699 40.5 18.5 61.5s25.666 41.833 39.999 62.5l40 59.5
c12.333 19 18.5 36.5 18.5 52.5c0 26 -13.667 44.833 -41 56.5s-66 17.5 -116 17.5c0 19.333 1.66699 36.666 5 51.999c72.667 0 125.5 -11 158.5 -33s49.5 -53 49.5 -93c0 -22 -6.16699 -43.5 -18.5 -64.5s-26 -41.667 -41 -62s-28.833 -40.333 -41.5 -60
s-19 -38.5 -19 -56.5c0 -10 1.83301 -19.167 5.5 -27.5s10.334 -15.333 20.001 -21s22.667 -10 39 -13s37.166 -4.5 62.499 -4.5v-52v0z" />
    <glyph glyph-name="asciitilde" unicode="~" horiz-adv-x="492" 
d="M30 201c6 28 12.668 50.999 20.001 68.999s15.5 32.167 24.5 42.5s18.667 17.5 29 21.5s21.5 6 33.5 6c18 0 36.833 -5.33301 56.5 -16s39.167 -22.5 58.5 -35.5s37.833 -24.833 55.5 -35.5s33.167 -16 46.5 -16c15.333 0 27.833 8 37.5 24s17.5 42.333 23.5 79
c6.66699 0 14.834 -1.16699 24.501 -3.5s17.167 -5.16602 22.5 -8.49902c-6 -26.667 -12.667 -48.667 -20 -66s-15.333 -31.333 -24 -42s-18.167 -18.167 -28.5 -22.5s-21.833 -6.5 -34.5 -6.5c-18 0 -37 5.33301 -57 16s-39.5 22.5 -58.5 35.5s-37.333 24.833 -55 35.5
s-33.167 16 -46.5 16c-16.667 0 -29.334 -8.16699 -38.001 -24.5s-16.334 -42.5 -23.001 -78.5c-6.66699 0 -14.667 0.833008 -24 2.5s-17 4.16699 -23 7.5z" />
    <glyph glyph-name="nonbreakingspace" unicode="&#xa0;" horiz-adv-x="204" 
 />
    <glyph glyph-name="exclamdown" unicode="&#xa1;" horiz-adv-x="240" 
d="M91 -141c0 39.333 0.166992 80.167 0.5 122.5l1 126.5c0.333008 42 1 83.667 2 125s1.83301 80.666 2.5 117.999c6 2 12.667 3.5 20 4.5s14.333 1.5 21 1.5c2.66699 -78 4.66699 -160.167 6 -246.5s2 -170.166 2 -251.499h-55v0zM84 509.001
c0 11.333 3.16602 20.168 9.49902 26.501s14.5 9.5 24.5 9.5s18.167 -3.33301 24.5 -10s9.5 -15.334 9.5 -26.001c0 -11.333 -3.16699 -20.5 -9.5 -27.5s-14.833 -10.5 -25.5 -10.5c-9.33301 0 -17.166 3.5 -23.499 10.5s-9.5 16.167 -9.5 27.5z" />
    <glyph glyph-name="cent" unicode="&#xa2;" 
d="M463 102c-17.333 -10.667 -37.8301 -18.668 -61.4971 -24.001s-45.167 -8.66602 -64.5 -9.99902l4 -68h-58l4 69c-70 6 -124.833 30.333 -164.5 73s-59.5 104.334 -59.5 185.001c0 47.333 6.16699 88 18.5 122s28.666 62 48.999 84s44 38.5 71 49.5
s55.167 17.5 84.5 19.5l-3 72h58l-4 -72c19.333 -1.33301 38.666 -3.66602 57.999 -6.99902s36.666 -8 51.999 -14c-1.33301 -8 -2.83301 -16.5 -4.5 -25.5s-4.16699 -17.167 -7.5 -24.5c-18.667 8 -39 14 -61 18s-43.667 6 -65 6c-24 0 -47.5 -3.33301 -70.5 -10
s-43.5 -18 -61.5 -34s-32.5 -37.333 -43.5 -64s-16.5 -60 -16.5 -100c0 -45.333 5 -82.833 15 -112.5s24 -53.167 42 -70.5s39.333 -29.5 64 -36.5s51.334 -10.5 80.001 -10.5c22 0 45.167 2.66699 69.5 8s45.166 13.666 62.499 24.999
c3.33301 -6.66699 6 -14.334 8 -23.001s3.66699 -17 5 -25z" />
    <glyph glyph-name="sterling" unicode="&#xa3;" 
d="M473 46c0 -6 -0.500977 -13.334 -1.50098 -22.001s-2.5 -16.667 -4.5 -24h-377v43c62.667 21.333 94 66.333 94 135c0 20 -5.5 43.667 -16.5 71l-34.5 86h-76v44h59c-7.33301 20 -13.166 39.333 -17.499 58s-6.5 34.667 -6.5 48c0 60 17.333 108.167 52 144.5
s83.334 54.5 146.001 54.5c21.333 0 45.666 -1 72.999 -3s51.333 -5.66699 72 -11c0 -5.33301 -0.833008 -13.166 -2.5 -23.499s-4.16699 -19.5 -7.5 -27.5c-17.333 5.33301 -38.5 9.5 -63.5 12.5s-47.5 4.5 -67.5 4.5c-52 0 -89.667 -13.167 -113 -39.5
s-35 -63.166 -35 -110.499c0 -12.667 2.33301 -28.834 7 -48.501s11 -39.167 19 -58.5h249c0 -5.33301 -0.666992 -12.333 -2 -21s-3 -16.334 -5 -23.001h-223c11.333 -25.333 22 -51.5 32 -78.5s15 -52.167 15 -75.5c0 -30 -5.5 -55.667 -16.5 -77
s-27.833 -40.666 -50.5 -57.999h302v0z" />
    <glyph glyph-name="currency" unicode="&#xa4;" 
d="M158 237c8 -66.667 25.332 -116.661 51.999 -149.994s64.334 -50 113.001 -50c21.333 0 43.333 2.83301 66 8.5s43.334 14.167 62.001 25.5c1.33301 -8.66699 2.5 -17.334 3.5 -26.001s1.5 -17.667 1.5 -27c-17.333 -9.33301 -38.333 -16.333 -63 -21s-47.667 -7 -69 -7
c-60.667 0 -109.334 19.833 -146.001 59.5s-60.334 102.167 -71.001 187.5h-71v44h67c-0.666992 9.33301 -1.16699 18.666 -1.5 27.999s-0.5 19 -0.5 29c0 26 1 50.333 3 73h-68v44h73c6.66699 40.667 16.667 75.5 30 104.5s29.5 52.667 48.5 71s40.333 31.833 64 40.5
s48.834 13 75.501 13c8 0 17.5 -0.5 28.5 -1.5s22 -2.33301 33 -4s21.667 -3.83398 32 -6.50098s18.833 -5.66699 25.5 -9c0 -8.66699 -0.333008 -17.667 -1 -27s-2 -18 -4 -26c-13.333 7.33301 -31 13.5 -53 18.5s-42.667 7.5 -62 7.5c-46 0 -82.833 -14 -110.5 -42
s-46.167 -74.333 -55.5 -139h246c0 -5.33301 -0.666992 -12.333 -2 -21s-3 -16.334 -5 -23.001h-244c-1.33301 -12 -2 -24.333 -2 -37v-40v-27c0 -8.66699 0.333008 -17.334 1 -26.001h236c0 -5.33301 -0.666992 -12.333 -2 -21s-3 -16.334 -5 -23.001h-225z" />
    <glyph glyph-name="yen" unicode="&#xa5;" horiz-adv-x="501" 
d="M477 671l-47.001 -105.501l-44 -93.5l-45 -89l-50 -92h138c0 -6 -0.666992 -13.167 -2 -21.5s-3 -16.166 -5 -23.499h-147v-246h-55v246h-159v45h143c-33.333 60 -64.5 120.833 -93.5 182.5s-57.833 127.5 -86.5 197.5c8 2 16.833 3.33301 26.5 4s19.167 1 28.5 1
l148 -323l11 -24c4 -8.66699 7.66699 -17.667 11 -27h3l10 27.5c3.33301 9 7 17.5 11 25.5l151 321c9.33301 0 18.333 -0.333008 27 -1s17.334 -2 26.001 -4z" />
    <glyph glyph-name="brokenbar" unicode="&#xa6;" horiz-adv-x="249" 
d="M100 401v273h49v-273h-49zM100 0v277h49v-277h-49z" />
    <glyph glyph-name="section" unicode="&#xa7;" horiz-adv-x="499" 
d="M450 292c0 -29.333 -8.83301 -57.5029 -26.5 -84.5029s-44.5 -50.167 -80.5 -69.5c-6 4 -11.5 9.5 -16.5 16.5s-9.16699 13.167 -12.5 18.5c34 17.333 56.667 35.833 68 55.5s17 38.5 17 56.5c0 25.333 -7.5 45.333 -22.5 60s-33.667 26.834 -56 36.501
s-46.666 18.334 -72.999 26.001s-50.666 17 -72.999 28s-41 25 -56 42s-22.5 39.5 -22.5 67.5c0 20 4.33301 38.5 13 55.5s21 31.667 37 44s35.167 22 57.5 29s47.166 10.5 74.499 10.5c15.333 0 34.333 -1 57 -3s43.667 -5.33301 63 -10
c-0.666992 -7.33301 -1.83398 -15.833 -3.50098 -25.5s-3.5 -17.167 -5.5 -22.5c-20.667 5.33301 -40.5 9.33301 -59.5 12s-40.5 4 -64.5 4c-36 0 -65 -7.66699 -87 -23s-33 -36.666 -33 -63.999c0 -21.333 7.5 -38.5 22.5 -51.5s33.833 -24.167 56.5 -33.5
s47.167 -18 73.5 -26s50.833 -18 73.5 -30s41.5 -27.333 56.5 -46s22.5 -43 22.5 -73zM49 252.997c0 29.333 8.83301 57.5029 26.5 84.5029s44.5 50.167 80.5 69.5c6 -4 11.5 -9.5 16.5 -16.5s9.16699 -13.167 12.5 -18.5c-34 -17.333 -56.667 -35.833 -68 -55.5
s-17 -38.5 -17 -56.5c0 -24.667 7.5 -44.5 22.5 -59.5s33.667 -27.333 56 -37s46.666 -18.334 72.999 -26.001s50.666 -17 72.999 -28s41 -24.833 56 -41.5s22.5 -39.334 22.5 -68.001c0 -20 -4.33301 -38.5 -13 -55.5s-21 -31.667 -37 -44s-35.167 -22 -57.5 -29
s-47.166 -10.5 -74.499 -10.5c-15.333 0 -34.333 1 -57 3s-43.667 5.33301 -63 10c0.666992 7.33301 1.83398 15.833 3.50098 25.5s3.5 17.167 5.5 22.5c20.667 -5.33301 40.5 -9.33301 59.5 -12s40.5 -4 64.5 -4c36 0 65 7.66699 87 23s33 36.666 33 63.999
c0 21.333 -7.5 38.5 -22.5 51.5s-33.833 24.167 -56.5 33.5s-47.167 18 -73.5 26s-50.833 18 -73.5 30s-41.5 27.333 -56.5 46s-22.5 43 -22.5 73z" />
    <glyph glyph-name="dieresis" unicode="&#xa8;" 
d="M200 627c0 -11.333 -3.16602 -20.333 -9.49902 -27s-14.5 -10 -24.5 -10s-18.167 3.5 -24.5 10.5s-9.5 15.833 -9.5 26.5s3.16699 19.667 9.5 27s14.833 11 25.5 11c9.33301 0 17.166 -3.66699 23.499 -11s9.5 -16.333 9.5 -27zM367.001 627
c0 -11.333 -3.16602 -20.333 -9.49902 -27s-14.5 -10 -24.5 -10s-18 3.5 -24 10.5s-9 15.833 -9 26.5s3 19.667 9 27s14.333 11 25 11c9.33301 0 17.166 -3.66699 23.499 -11s9.5 -16.333 9.5 -27z" />
    <glyph glyph-name="copyright" unicode="&#xa9;" horiz-adv-x="725" 
d="M658 338c0 -48 -7.33301 -91.333 -22 -130s-35.167 -71.834 -61.5 -99.501s-57.5 -49 -93.5 -64s-75.667 -22.5 -119 -22.5c-42.667 0 -82 7.33301 -118 22s-67.167 35.834 -93.5 63.501s-46.833 61 -61.5 100s-22 82.5 -22 130.5c0 46.667 7.33301 89.167 22 127.5
s35 71.333 61 99s57.167 49 93.5 64s75.833 22.5 118.5 22.5c41.333 0 80 -7.33301 116 -22s67.333 -35.5 94 -62.5s47.667 -59.833 63 -98.5s23 -82 23 -130zM484 162c-14.667 -9.33301 -32.3301 -15.6689 -52.9971 -19.002s-39.667 -5 -57 -5
c-111.333 0 -167 65.333 -167 196c0 34 4.16699 63.167 12.5 87.5s19.833 44.333 34.5 60s32.167 27.334 52.5 35.001s42.833 11.5 67.5 11.5c17.333 0 35.833 -1.66699 55.5 -5s35.167 -7.66602 46.5 -12.999c-0.666992 -7.33301 -1.66699 -14.666 -3 -21.999l-4 -22
c-12 5.33301 -26.333 9.83301 -43 13.5s-33.667 5.5 -51 5.5c-18.667 0 -35.334 -2.5 -50.001 -7.5s-27 -13.5 -37 -25.5s-17.667 -27.667 -23 -47s-8 -43.333 -8 -72c0 -52.667 9.66699 -91.334 29 -116.001s49 -37 89 -37c17.333 0 35.166 2.33301 53.499 7
s34.166 11 47.499 19c2 -7.33301 3.66699 -14.5 5 -21.5s2.33301 -14.5 3 -22.5zM622.004 335.997c0 42.667 -6.5 81.5029 -19.5 116.503s-31 64.833 -54 89.5s-50.333 43.667 -82 57s-66.5 20 -104.5 20c-40.667 0 -77 -6.83301 -109 -20.5s-59.167 -32.834 -81.5 -57.501
s-39.5 -54.5 -51.5 -89.5s-18 -73.5 -18 -115.5c0 -40.667 6.16699 -78.334 18.5 -113.001s29.833 -64.5 52.5 -89.5s50 -44.5 82 -58.5s67.667 -21 107 -21s75 6.66699 107 20s59.333 32.166 82 56.499s40.167 54 52.5 89s18.5 73.833 18.5 116.5z" />
    <glyph glyph-name="ordfeminine" unicode="&#xaa;" horiz-adv-x="380" 
d="M349 367c0 -21.333 -11.333 -32.0029 -34 -32.0029c-12.667 0 -23.334 2.66699 -32.001 8s-15.667 15 -21 29h-2c-15.333 -14 -31.833 -23.667 -49.5 -29s-35.167 -8 -52.5 -8c-28 0 -50.833 7 -68.5 21s-26.5 36 -26.5 66c0 34.667 9.66699 59.334 29 74.001
s48.666 22.667 87.999 24l77 3v96c-8 4.66699 -19.667 8.33398 -35 11.001s-29.666 4 -42.999 4c-14 0 -28.167 -1.33301 -42.5 -4s-26.166 -6 -35.499 -10c-2 6 -3.66699 12.5 -5 19.5s-2 14.167 -2 21.5c14.667 4 28.667 7.16699 42 9.5s28 3.5 44 3.5
c21.333 0 43 -2.5 65 -7.5s39.667 -12.5 53 -22.5v-243c0 -7.33301 1.33301 -12.666 4 -15.999s8 -5 16 -5h31v-13zM257 489.997l-84.001 -3.00098c-25.333 -1.33301 -42.666 -6.83301 -51.999 -16.5s-14 -24.5 -14 -44.5c0 -18 4.33301 -31.333 13 -40s22.667 -13 42 -13
c14.667 0 31.167 2.33301 49.5 7s33.5 12.334 45.5 23.001v87z" />
    <glyph glyph-name="guillemotleft" unicode="&#xab;" horiz-adv-x="461" 
d="M174 43l-139 220l139 220l42 -14l-122 -207l122 -206zM384 43l-139 220l139 220l42 -14l-122 -207l122 -206z" />
    <glyph glyph-name="logicalnot" unicode="&#xac;" horiz-adv-x="498" 
d="M452 138c-8 -2 -15.833 -3.33301 -23.5 -4s-15.167 -1 -22.5 -1v186h-371v46h417v-227v0z" />
    <glyph glyph-name="registered" unicode="&#xae;" horiz-adv-x="725" 
d="M658 338c0 -48 -7.33301 -91.333 -22 -130s-35.167 -71.834 -61.5 -99.501s-57.5 -49 -93.5 -64s-75.667 -22.5 -119 -22.5c-42.667 0 -82 7.33301 -118 22s-67.167 35.834 -93.5 63.501s-46.833 61 -61.5 100s-22 82.5 -22 130.5c0 46.667 7.33301 89.167 22 127.5
s35 71.333 61 99s57.167 49 93.5 64s75.833 22.5 118.5 22.5c41.333 0 80 -7.33301 116 -22s67.333 -35.5 94 -62.5s47.667 -59.833 63 -98.5s23 -82 23 -130zM622 336c0 42.667 -6.5 81.5029 -19.5 116.503s-31 64.833 -54 89.5s-50.333 43.667 -82 57s-66.5 20 -104.5 20
c-40.667 0 -77 -6.83301 -109 -20.5s-59.167 -32.834 -81.5 -57.501s-39.5 -54.5 -51.5 -89.5s-18 -73.5 -18 -115.5c0 -40.667 6.16699 -78.334 18.5 -113.001s29.833 -64.5 52.5 -89.5s50 -44.5 82 -58.5s67.667 -21 107 -21s75 6.66699 107 20s59.333 32.166 82 56.499
s40.167 54 52.5 89s18.5 73.833 18.5 116.5zM509 148.003c-7.33301 -2.66699 -15.334 -4.16406 -24.001 -4.49707s-17.334 -0.833008 -26.001 -1.5l-32 60c-11.333 22 -23 41.5 -35 58.5s-23 30.167 -33 39.5h-64v-156h-46v375c20.667 2.66699 39.834 4.5 57.501 5.5
s34.167 1.5 49.5 1.5c16.667 0 32.5 -1.83301 47.5 -5.5s28 -9.83398 39 -18.501s19.833 -19.834 26.5 -33.501s10 -30.5 10 -50.5c0 -26 -7.16699 -48 -21.5 -66s-33.166 -30.333 -56.499 -37c10 -8.66699 20.833 -20.334 32.5 -35.001s22.5 -32 32.5 -52zM429.999 416.006
c0 25.333 -6.83301 43.501 -20.5 54.501s-32.167 16.5 -55.5 16.5c-8 0 -17.667 -0.333008 -29 -1s-21.333 -1.33398 -30 -2.00098v-144h53c26 0 46.167 6.33301 60.5 19s21.5 31.667 21.5 57z" />
    <glyph glyph-name="macron" unicode="&#xaf;" 
d="M379 647c0 -5.33301 -0.666992 -12.167 -2 -20.5s-3 -15.5 -5 -21.5h-245v42h252v0z" />
    <glyph glyph-name="macron" unicode="&#x2c9;" 
d="M379 647c0 -5.33301 -0.666992 -12.167 -2 -20.5s-3 -15.5 -5 -21.5h-245v42h252v0z" />
    <glyph glyph-name="degree" unicode="&#xb0;" horiz-adv-x="310" 
d="M275 562c0 -18 -2.99902 -34.5 -8.99902 -49.5s-14.167 -28 -24.5 -39s-22.833 -19.667 -37.5 -26s-31 -9.5 -49 -9.5c-38 0 -67.5 11 -88.5 33s-31.5 51.667 -31.5 89c0 36.667 11.167 66.5 33.5 89.5s51.166 34.5 86.499 34.5c38 0 67.5 -11 88.5 -33
s31.5 -51.667 31.5 -89zM234.001 562c0 28 -7.33301 49.667 -22 65s-33.667 23 -57 23c-24 0 -43.167 -8.33301 -57.5 -25s-21.5 -37.667 -21.5 -63c0 -28 6.83301 -49.833 20.5 -65.5s33.167 -23.5 58.5 -23.5s44.833 8.16699 58.5 24.5s20.5 37.833 20.5 64.5z" />
    <glyph glyph-name="plusminus" unicode="&#xb1;" horiz-adv-x="431" 
d="M236 327v-134h-43v134h-133v42h133v131h43v-131h135v-42h-135zM60 45v42h311v-42h-311z" />
    <glyph glyph-name="twosuperior" unicode="&#xb2;" horiz-adv-x="330" 
d="M299 325c0 -6 -0.334961 -12.502 -1.00195 -19.502s-1.66699 -13.167 -3 -18.5h-256l-2 36c37.333 26 68.166 49.667 92.499 71s43.833 41.333 58.5 60s25 36.667 31 54s9 34.333 9 51c0 30 -8.16699 51.167 -24.5 63.5s-37.166 18.5 -62.499 18.5
c-17.333 0 -34.666 -1.83301 -51.999 -5.5s-31 -8.16699 -41 -13.5c-1.33301 5.33301 -2.66602 12.166 -3.99902 20.499s-2.33301 15.166 -3 20.499c15.333 6.66699 32.5 11.334 51.5 14.001s36.167 4 51.5 4c39.333 0 70.833 -10.167 94.5 -30.5s35.5 -52.166 35.5 -95.499
c0 -33.333 -13 -69.166 -39 -107.499s-70.667 -79.166 -134 -122.499h198v0z" />
    <glyph glyph-name="threesuperior" unicode="&#xb3;" horiz-adv-x="330" 
d="M283 394c0 -38 -13.6699 -66.4951 -41.0029 -85.4951s-64 -28.5 -110 -28.5c-16.667 0 -34.5 1.5 -53.5 4.5s-35.5 7.5 -49.5 13.5c0.666992 6 1.83398 13.5 3.50098 22.5s3.16699 15.833 4.5 20.5c14.667 -6.66699 29 -11.834 43 -15.501s31 -5.5 51 -5.5
c32.667 0 58.5 5 77.5 15s28.5 29 28.5 57c0 29.333 -8.5 49.166 -25.5 59.499s-40.167 15.5 -69.5 15.5h-69v39h64c32 0 55.167 6.66699 69.5 20s21.5 31.666 21.5 54.999c0 22 -8.16699 37.5 -24.5 46.5s-37.5 13.5 -63.5 13.5c-17.333 0 -33.5 -1.5 -48.5 -4.5
s-29.167 -7.16699 -42.5 -12.5c-1.33301 4 -2.66602 10.333 -3.99902 19s-2.66602 16 -3.99902 22c17.333 5.33301 34.5 9.33301 51.5 12s34.167 4 51.5 4s33.833 -1.83301 49.5 -5.5s29.334 -9.33398 41.001 -17.001s21 -17.834 28 -30.501s10.5 -28 10.5 -46
c0 -23.333 -6 -42.5 -18 -57.5s-27.667 -25.833 -47 -32.5v-3c23.333 -6 41.666 -16.833 54.999 -32.5s20 -36.5 20 -62.5z" />
    <glyph glyph-name="acute" unicode="&#xb4;" 
d="M315 731c-9.33301 -25.333 -23.167 -51.833 -41.5 -79.5s-38.5 -54.167 -60.5 -79.5c-5.33301 0 -11.5 0.5 -18.5 1.5s-12.833 2.5 -17.5 4.5l89 153h49v0z" />
    <glyph glyph-name="mu" unicode="&#xb5;" horiz-adv-x="583" 
d="M420 0l0.000976562 45h-3c-27.333 -18 -54.166 -31.667 -80.499 -41s-54.833 -14 -85.5 -14c-16.667 0 -32.334 2 -47.001 6s-28.334 13.667 -41.001 29v-231h-53v725c6.66699 1.33301 15.334 2.5 26.001 3.5s19.667 1.5 27 1.5v-383c0 -30 7.16699 -54.167 21.5 -72.5
s39.166 -27.5 74.499 -27.5c32.667 0 61.5 4.5 86.5 13.5s49.833 21.167 74.5 36.5v428c6 1.33301 14.5 2.5 25.5 3.5s20.167 1.5 27.5 1.5v-524h-53z" />
    <glyph glyph-name="mu" unicode="&#x3bc;" horiz-adv-x="583" 
d="M420 0l0.000976562 45h-3c-27.333 -18 -54.166 -31.667 -80.499 -41s-54.833 -14 -85.5 -14c-16.667 0 -32.334 2 -47.001 6s-28.334 13.667 -41.001 29v-231h-53v725c6.66699 1.33301 15.334 2.5 26.001 3.5s19.667 1.5 27 1.5v-383c0 -30 7.16699 -54.167 21.5 -72.5
s39.166 -27.5 74.499 -27.5c32.667 0 61.5 4.5 86.5 13.5s49.833 21.167 74.5 36.5v428c6 1.33301 14.5 2.5 25.5 3.5s20.167 1.5 27.5 1.5v-524h-53z" />
    <glyph glyph-name="paragraph" unicode="&#xb6;" 
d="M433 123c0 -29.333 -1.82715 -56.333 -5.49414 -81s-10.334 -47.667 -20.001 -69s-23 -41.166 -40 -59.499s-38.833 -35.833 -65.5 -52.5l-30 36c24 14 43.333 29.167 58 45.5s26 34 34 53s13.5 39 16.5 60s4.5 43.5 4.5 67.5v504c-8.66699 2.66699 -22.334 5 -41.001 7
s-35.334 3 -50.001 3v-514c0 -20.667 -1.16699 -38.834 -3.5 -54.501s-6.33301 -29.5 -12 -41.5s-13.334 -23 -23.001 -33s-21.834 -20 -36.501 -30l-28 35c21.333 13.333 35.833 29.333 43.5 48s11.5 40.667 11.5 66v125h-19c-26.667 0 -51.334 4.16699 -74.001 12.5
s-42.334 21 -59.001 38s-29.5 38.667 -38.5 65s-13.5 57.833 -13.5 94.5c0 43.333 7 80 21 110s32.333 54.333 55 73s47.834 32.167 75.501 40.5s55.5 12.5 83.5 12.5s54.5 -1.33301 79.5 -4s50.5 -7.66699 76.5 -15v-542z" />
    <glyph glyph-name="periodcentered" unicode="&#xb7;" horiz-adv-x="203" 
d="M135 277c0 -11.333 -3.16602 -20.168 -9.49902 -26.501s-14.5 -9.5 -24.5 -9.5s-18 3.33301 -24 10s-9 15.334 -9 26.001c0 11.333 3 20.5 9 27.5s14.333 10.5 25 10.5c9.33301 0 17.166 -3.5 23.499 -10.5s9.5 -16.167 9.5 -27.5z" />
    <glyph glyph-name="cedilla" unicode="&#xb8;" 
d="M354 -121c0 -30 -10 -53.333 -30 -70s-51 -25 -93 -25c-8.66699 0 -18.334 0.333008 -29.001 1s-20.667 2 -30 4c-2 12 -3 27.667 -3 47c10.667 -3.33301 22 -5.5 34 -6.5s22 -1.5 30 -1.5c19.333 0 35.833 3.5 49.5 10.5s20.5 21.167 20.5 42.5
c0 18.667 -5.16699 31.5 -15.5 38.5s-26.166 10.5 -47.499 10.5c-6 0 -13.5 -0.166992 -22.5 -0.5s-16.167 -0.833008 -21.5 -1.5c0.666992 6 1.5 12.333 2.5 19s2.5 13.667 4.5 21h51c32 0 56.667 -7.83301 74 -23.5s26 -37.5 26 -65.5z" />
    <glyph glyph-name="onesuperior" unicode="&#xb9;" horiz-adv-x="330" 
d="M307 326c0 -5.33301 -0.333008 -11.834 -1 -19.501s-1.66699 -14.167 -3 -19.5h-261v39h132v308l-125 -22c-2 5.33301 -3.5 11.833 -4.5 19.5s-1.5 13.834 -1.5 18.501l134 24h39v-348h91v0z" />
    <glyph glyph-name="ordmasculine" unicode="&#xba;" horiz-adv-x="379" 
d="M330 504c0 -56.667 -13.667 -99.001 -41 -127.001s-61 -42 -101 -42c-41.333 0 -74.833 13.167 -100.5 39.5s-38.5 69.5 -38.5 129.5c0 55.333 13 97.5 39 126.5s60 43.5 102 43.5c20 0 38.5 -3 55.5 -9s31.833 -15.833 44.5 -29.5s22.5 -31.167 29.5 -52.5
s10.5 -47.666 10.5 -78.999zM284 503.999c0 24 -2.33105 44.333 -6.99805 61s-11.167 30.167 -19.5 40.5s-18.333 17.833 -30 22.5s-24.167 7 -37.5 7c-12.667 0 -24.667 -2.16699 -36 -6.5s-21.333 -11.5 -30 -21.5s-15.667 -23.333 -21 -40s-8 -37.667 -8 -63
c0 -48.667 8.66699 -82.5 26 -101.5s39.666 -28.5 66.999 -28.5s50.166 9.5 68.499 28.5s27.5 52.833 27.5 101.5z" />
    <glyph glyph-name="guillemotright" unicode="&#xbb;" horiz-adv-x="461" 
d="M287 43l-42 14l122 207l-122 206l42 13l139 -220zM77 43l-42 14l122 207l-122 206l42 13l139 -220z" />
    <glyph glyph-name="onequarter" unicode="&#xbc;" horiz-adv-x="810" 
d="M307 326c0 -5.33301 -0.333008 -11.834 -1 -19.501s-1.66699 -14.167 -3 -19.5h-261v39h132v308l-125 -22c-2 5.33301 -3.5 11.833 -4.5 19.5s-1.5 13.834 -1.5 18.501l134 24h39v-348h91v0zM796 124.999c0 -5.33301 -0.332031 -11.5 -0.999023 -18.5
s-1.66699 -13.167 -3 -18.5h-56v-88h-40v88h-197v40c12.667 23.333 26.667 47 42 71l46.5 71l46.5 67c15.333 21.333 29.666 40.333 42.999 57c1.33301 0 3.83301 -0.166992 7.5 -0.5s7.5 -1 11.5 -2s7.66699 -1.83301 11 -2.5s6 -1.66699 8 -3l-176 -261h157v92h40v-92h60
v0zM295.001 -6.00098c-14.667 2 -27.001 6.33301 -37.001 13l272 677c12.667 -1.33301 25.334 -5 38.001 -11z" />
    <glyph glyph-name="onehalf" unicode="&#xbd;" horiz-adv-x="820" 
d="M307 326c0 -5.33301 -0.333008 -11.834 -1 -19.501s-1.66699 -14.167 -3 -19.5h-261v39h132v308l-125 -22c-2 5.33301 -3.5 11.833 -4.5 19.5s-1.5 13.834 -1.5 18.501l134 24h39v-348h91v0zM789 37.999c0 -6 -0.334961 -12.502 -1.00195 -19.502
s-1.66699 -13.167 -3 -18.5h-256l-2 36c37.333 26 68.166 49.667 92.499 71s43.833 41.333 58.5 60s25 36.667 31 54s9 34.333 9 51c0 30 -8.16699 51.167 -24.5 63.5s-37.166 18.5 -62.499 18.5c-17.333 0 -34.666 -1.83301 -51.999 -5.5s-31 -8.16699 -41 -13.5
c-1.33301 5.33301 -2.66602 12.166 -3.99902 20.499s-2.33301 15.166 -3 20.499c15.333 6.66699 32.5 11.334 51.5 14.001s36.167 4 51.5 4c39.333 0 70.833 -10.167 94.5 -30.5s35.5 -52.166 35.5 -95.499c0 -33.333 -13 -69.166 -39 -107.499
s-70.667 -79.166 -134 -122.499h198v0zM294.998 -6.00293c-14.667 2 -27.001 6.33301 -37.001 13l272 677c12.667 -1.33301 25.334 -5 38.001 -11z" />
    <glyph glyph-name="threequarters" unicode="&#xbe;" horiz-adv-x="810" 
d="M283 394c0 -38 -13.6699 -66.4951 -41.0029 -85.4951s-64 -28.5 -110 -28.5c-16.667 0 -34.5 1.5 -53.5 4.5s-35.5 7.5 -49.5 13.5c0.666992 6 1.83398 13.5 3.50098 22.5s3.16699 15.833 4.5 20.5c14.667 -6.66699 29 -11.834 43 -15.501s31 -5.5 51 -5.5
c32.667 0 58.5 5 77.5 15s28.5 29 28.5 57c0 29.333 -8.5 49.166 -25.5 59.499s-40.167 15.5 -69.5 15.5h-69v39h64c32 0 55.167 6.66699 69.5 20s21.5 31.666 21.5 54.999c0 22 -8.16699 37.5 -24.5 46.5s-37.5 13.5 -63.5 13.5c-17.333 0 -33.5 -1.5 -48.5 -4.5
s-29.167 -7.16699 -42.5 -12.5c-1.33301 4 -2.66602 10.333 -3.99902 19s-2.66602 16 -3.99902 22c17.333 5.33301 34.5 9.33301 51.5 12s34.167 4 51.5 4s33.833 -1.83301 49.5 -5.5s29.334 -9.33398 41.001 -17.001s21 -17.834 28 -30.501s10.5 -28 10.5 -46
c0 -23.333 -6 -42.5 -18 -57.5s-27.667 -25.833 -47 -32.5v-3c23.333 -6 41.666 -16.833 54.999 -32.5s20 -36.5 20 -62.5zM795.997 125.005c0 -5.33301 -0.332031 -11.5 -0.999023 -18.5s-1.66699 -13.167 -3 -18.5h-56v-88h-40v88h-197v40c12.667 23.333 26.667 47 42 71
l46.5 71l46.5 67c15.333 21.333 29.666 40.333 42.999 57c1.33301 0 3.83301 -0.166992 7.5 -0.5s7.5 -1 11.5 -2s7.66699 -1.83301 11 -2.5s6 -1.66699 8 -3l-176 -261h157v92h40v-92h60v0zM294.998 -5.99512c-14.667 2 -27.001 6.33301 -37.001 13l272 677
c12.667 -1.33301 25.334 -5 38.001 -11z" />
    <glyph glyph-name="questiondown" unicode="&#xbf;" horiz-adv-x="353" 
d="M20 20c0 23.333 3.49805 45.333 10.498 66s18.833 40.167 35.5 58.5s38.334 35.5 65.001 51.5s59.334 30.667 98.001 44v111c6 2 12.833 3.5 20.5 4.5s14.834 1.5 21.501 1.5c1.33301 -10 2.66602 -21.167 3.99902 -33.5s2.5 -25.166 3.5 -38.499
s1.83301 -26.5 2.5 -39.5s1 -25.167 1 -36.5c-66.667 -21.333 -118.167 -46.333 -154.5 -75s-54.5 -65.667 -54.5 -111c0 -42.667 12 -74.334 36 -95.001s58.667 -31 104 -31c43.333 0 81 4.66699 113 14c2 -6.66699 3.5 -14.667 4.5 -24s1.5 -18 1.5 -26
c-40 -8 -80.333 -12 -121 -12c-26 0 -50.5 3.16699 -73.5 9.5s-43.333 16.5 -61 30.5s-31.5 31.833 -41.5 53.5s-15 47.5 -15 77.5zM218.998 509c0 11.333 3.16602 20.168 9.49902 26.501s14.5 9.5 24.5 9.5s18.167 -3.33301 24.5 -10s9.5 -15.334 9.5 -26.001
c0 -11.333 -3.16699 -20.5 -9.5 -27.5s-14.833 -10.5 -25.5 -10.5c-9.33301 0 -17.166 3.5 -23.499 10.5s-9.5 16.167 -9.5 27.5z" />
    <glyph glyph-name="Agrave" unicode="&#xc0;" horiz-adv-x="561" 
d="M302 711l-40 -6c-20.667 19.333 -38 37.5 -52 54.5s-26.667 35.5 -38 55.5h50zM547 5l-56.002 165.5l-59.5 169.5l-61 169.5l-60.5 164.5h-54l-211 -588c-5.33301 -15.333 -10.666 -26.166 -15.999 -32.499s-15.666 -9.5 -30.999 -9.5h-40v-10
c0 -15.333 3.5 -26.5 10.5 -33.5s20.167 -10.5 39.5 -10.5c24.667 0 43.667 7.83301 57 23.5s24.666 37.5 33.999 65.5l52 152h262l81 -236c9.33301 0.666992 18.833 1.66699 28.5 3s17.834 3.66602 24.501 6.99902zM396.998 277h-230l105 308
c1.33301 4.66699 2.83301 10.667 4.5 18s2.5 14.333 2.5 21h5c0 -6.66699 1 -13.667 3 -21l5 -18z" />
    <glyph glyph-name="Aacute" unicode="&#xc1;" horiz-adv-x="561" 
d="M547 5c-6.66699 -3.33301 -14.832 -5.66602 -24.499 -6.99902s-19.167 -2.33301 -28.5 -3l-81 236h-262l-52 -152c-9.33301 -28 -20.666 -49.833 -33.999 -65.5s-32.333 -23.5 -57 -23.5c-19.333 0 -32.5 3.5 -39.5 10.5s-10.5 18.167 -10.5 33.5v10h40
c15.333 0 25.666 3.16699 30.999 9.5s10.666 17.166 15.999 32.499l211 588h54l60.5 -164.5l61 -169.5l59.5 -169.5zM292.002 585l-5 18c-2 7.33301 -3 14.333 -3 21h-5c0 -6.66699 -0.833008 -13.667 -2.5 -21s-3.16699 -13.333 -4.5 -18l-105 -308h230zM395.002 815
c-11.333 -20 -24 -38.5 -38 -55.5s-31.333 -35.167 -52 -54.5l-40 6l80 104h50v0z" />
    <glyph glyph-name="Acircumflex" unicode="&#xc2;" horiz-adv-x="561" 
d="M547 5c-6.66699 -3.33301 -14.832 -5.66602 -24.499 -6.99902s-19.167 -2.33301 -28.5 -3l-81 236h-262l-52 -152c-9.33301 -28 -20.666 -49.833 -33.999 -65.5s-32.333 -23.5 -57 -23.5c-19.333 0 -32.5 3.5 -39.5 10.5s-10.5 18.167 -10.5 33.5v10h40
c15.333 0 25.666 3.16699 30.999 9.5s10.666 17.166 15.999 32.499l211 588h54l60.5 -164.5l61 -169.5l59.5 -169.5zM292.002 585l-5 18c-2 7.33301 -3 14.333 -3 21h-5c0 -6.66699 -0.833008 -13.667 -2.5 -21s-3.16699 -13.333 -4.5 -18l-105 -308h230zM414.002 711
c-6 -2 -13.1689 -3.50195 -21.502 -4.50195s-16.166 -1.5 -23.499 -1.5l-88 82l-88 -82c-5.33301 0 -12.5 0.5 -21.5 1.5s-16.167 2.16699 -21.5 3.5l29.5 33.5l23 25l21.5 22.5l25 24h67c18.667 -17.333 35.334 -33.666 50.001 -48.999s30.667 -33.666 48 -54.999z" />
    <glyph glyph-name="Atilde" unicode="&#xc3;" horiz-adv-x="561" 
d="M547 5c-6.66699 -3.33301 -14.832 -5.66602 -24.499 -6.99902s-19.167 -2.33301 -28.5 -3l-81 236h-262l-52 -152c-9.33301 -28 -20.666 -49.833 -33.999 -65.5s-32.333 -23.5 -57 -23.5c-19.333 0 -32.5 3.5 -39.5 10.5s-10.5 18.167 -10.5 33.5v10h40
c15.333 0 25.666 3.16699 30.999 9.5s10.666 17.166 15.999 32.499l211 588h54l60.5 -164.5l61 -169.5l59.5 -169.5zM292.002 585l-5 18c-2 7.33301 -3 14.333 -3 21h-5c0 -6.66699 -0.833008 -13.667 -2.5 -21s-3.16699 -13.333 -4.5 -18l-105 -308h230zM122.002 713
c3.33301 19.333 7.83105 35.002 13.498 47.002s12.167 21.167 19.5 27.5s15.333 10.666 24 12.999s18 3.5 28 3.5c10.667 0 22.334 -2.83301 35.001 -8.5s25.334 -11.667 38.001 -18l37 -18c12 -5.66699 22.333 -8.5 31 -8.5c6 0 11.5 0.5 16.5 1.5s9.33301 3.66699 13 8
s6.83398 10.666 9.50098 18.999s5 19.5 7 33.5c6.66699 0 13.5 -0.833008 20.5 -2.5s13.167 -3.83398 18.5 -6.50098c-4 -20 -8.83301 -36.167 -14.5 -48.5s-12.167 -21.666 -19.5 -27.999s-15.333 -10.5 -24 -12.5s-18 -3 -28 -3c-10.667 0 -22.5 2.83301 -35.5 8.5
s-26 11.667 -39 18l-37 18c-11.667 5.66699 -22.167 8.5 -31.5 8.5c-12.667 0 -22.334 -4.16699 -29.001 -12.5s-11.667 -24.833 -15 -49.5c-6 0 -12.5 0.833008 -19.5 2.5s-13.167 4.16699 -18.5 7.5z" />
    <glyph glyph-name="Adieresis" unicode="&#xc4;" horiz-adv-x="561" 
d="M229 753c0 -10.667 -3.16797 -19.167 -9.50098 -25.5s-14.833 -9.5 -25.5 -9.5c-10 0 -18.333 3.33301 -25 10s-10 15 -10 25c0 10.667 3.33301 19.334 10 26.001s15.334 10 26.001 10c10 0 18.167 -3.33301 24.5 -10s9.5 -15.334 9.5 -26.001zM401.999 753
c0 -10.667 -3.33301 -19.167 -10 -25.5s-15 -9.5 -25 -9.5c-10.667 0 -19 3.33301 -25 10s-9 15 -9 25c0 10.667 3 19.334 9 26.001s14.667 10 26 10c9.33301 0 17.333 -3.33301 24 -10s10 -15.334 10 -26.001zM546.999 5
c-6.66699 -3.33301 -14.832 -5.66602 -24.499 -6.99902s-19.167 -2.33301 -28.5 -3l-81 236h-262l-52 -152c-9.33301 -28 -20.666 -49.833 -33.999 -65.5s-32.333 -23.5 -57 -23.5c-19.333 0 -32.5 3.5 -39.5 10.5s-10.5 18.167 -10.5 33.5v10h40
c15.333 0 25.666 3.16699 30.999 9.5s10.666 17.166 15.999 32.499l211 588h54l60.5 -164.5l61 -169.5l59.5 -169.5zM292.001 585l-5 18c-2 7.33301 -3 14.333 -3 21h-5c0 -6.66699 -0.833008 -13.667 -2.5 -21s-3.16699 -13.333 -4.5 -18l-105 -308h230z" />
    <glyph glyph-name="Aring" unicode="&#xc5;" horiz-adv-x="561" 
d="M547 5c-6.66699 -3.33301 -14.833 -5.66602 -24.5 -6.99902s-19.167 -2.33301 -28.5 -3l-81 236h-262l-52 -152c-9.33301 -28 -20.666 -49.833 -33.999 -65.5s-32.333 -23.5 -57 -23.5c-19.333 0 -32.5 3.5 -39.5 10.5s-10.5 18.167 -10.5 33.5v10h40
c15.333 0 25.666 3.16699 30.999 9.5s10.666 17.166 15.999 32.499l207 576c-24 5.33301 -42.167 15.833 -54.5 31.5s-18.5 35.167 -18.5 58.5c0 27.333 9.33301 49.833 28 67.5s44.667 26.5 78 26.5c32.667 0 58.167 -8.33301 76.5 -25s27.5 -39.667 27.5 -69
c0 -23.333 -6.66699 -42.833 -20 -58.5s-31.666 -26.167 -54.999 -31.5l119.5 -328.5zM292.001 585l-5 18c-2 7.33301 -3 14.333 -3 21h-5c0 -6.66699 -0.833008 -13.667 -2.5 -21s-3.16699 -13.333 -4.5 -18l-105 -308h230zM346.001 754
c0 19.333 -5.50098 33.667 -16.501 43s-25.833 14 -44.5 14c-17.333 0 -32.166 -4.5 -44.499 -13.5s-18.5 -23.5 -18.5 -43.5c0 -39.333 20.333 -59 61 -59c18 0 33 4.66699 45 14s18 24.333 18 45z" />
    <glyph glyph-name="AE" unicode="&#xc6;" horiz-adv-x="808" 
d="M371 628h-5l-179 -328h184v328zM746 50c0 -16.667 -1.66797 -33.335 -5.00098 -50.002h-370v253h-208l-146 -258c-8.66699 0.666992 -17.667 1.83398 -27 3.50098s-17.666 3.83398 -24.999 6.50098l185 333l194 336h386c0 -8.66699 -0.5 -17 -1.5 -25
s-2.16699 -16.333 -3.5 -25h-300v-242h232v-50h-232v-282h321v0z" />
    <glyph glyph-name="Ccedilla" unicode="&#xc7;" horiz-adv-x="567" 
d="M527 33c-24.667 -15.333 -52.5 -26.333 -83.5 -33s-61.5 -10 -91.5 -10c-94.667 0 -165.334 29.333 -212.001 88s-70 145.334 -70 260.001c0 60 6.66699 111.833 20 155.5s32.5 79.667 57.5 108s55.167 49.166 90.5 62.499s74.666 20 117.999 20
c28 0 56.5 -2.83301 85.5 -8.5s53.167 -14.167 72.5 -25.5c-1.33301 -8.66699 -3.66602 -17.5 -6.99902 -26.5s-6.66602 -17.5 -9.99902 -25.5c-40.667 23.333 -88 35 -142 35c-38 0 -71 -5.33301 -99 -16s-51.167 -27.667 -69.5 -51s-32.166 -54 -41.499 -92
s-14 -84.667 -14 -140c0 -99.333 17.333 -173 52 -221s90.667 -72 168 -72c28 0 55.167 3.33301 81.5 10s52.166 18 77.499 34c3.33301 -8 6.5 -16.333 9.5 -25s5.5 -17.667 7.5 -27zM420 -121c0 -30 -10 -53.333 -30 -70s-51 -25 -93 -25
c-8.66699 0 -18.334 0.333008 -29.001 1s-20.667 2 -30 4c-2 12 -3 27.667 -3 47c10.667 -3.33301 22 -5.5 34 -6.5s22 -1.5 30 -1.5c19.333 0 35.833 3.5 49.5 10.5s20.5 21.167 20.5 42.5c0 18.667 -5.16699 31.5 -15.5 38.5s-26.166 10.5 -47.499 10.5
c-6 0 -13.5 -0.166992 -22.5 -0.5s-16.167 -0.833008 -21.5 -1.5c0.666992 6 1.5 12.333 2.5 19s2.5 13.667 4.5 21h51c32 0 56.667 -7.83301 74 -23.5s26 -37.5 26 -65.5z" />
    <glyph glyph-name="Egrave" unicode="&#xc8;" horiz-adv-x="550" 
d="M488 50l-321 -0.000976562v282h232v50h-232v242h300c1.33301 8.66699 2.5 17 3.5 25s1.5 16.333 1.5 25h-362v-674h373c3.33301 16.667 5 33.334 5 50.001zM310 710.999l-40 -6c-20.667 19.333 -38 37.5 -52 54.5s-26.667 35.5 -38 55.5h50z" />
    <glyph glyph-name="Eacute" unicode="&#xc9;" horiz-adv-x="550" 
d="M359 815c-11.333 -20 -24 -38.5 -38 -55.5s-31.333 -35.167 -52 -54.5l-40 6l80 104h50v0zM488 50c0 -16.667 -1.66699 -33.333 -5 -50h-373v674h362c0 -8.66699 -0.5 -17 -1.5 -25s-2.16699 -16.333 -3.5 -25h-300v-242h232v-50h-232v-282h321v0z" />
    <glyph glyph-name="Ecircumflex" unicode="&#xca;" horiz-adv-x="550" 
d="M488 50c0 -16.667 -1.66699 -33.333 -5 -50h-373v674h362c0 -8.66699 -0.5 -17 -1.5 -25s-2.16699 -16.333 -3.5 -25h-300v-242h232v-50h-232v-282h321v0zM420 711.001c-6 -2 -13.1689 -3.50195 -21.502 -4.50195s-16.166 -1.5 -23.499 -1.5l-88 82l-88 -82
c-5.33301 0 -12.5 0.5 -21.5 1.5s-16.167 2.16699 -21.5 3.5l29.5 33.5l23 25l21.5 22.5l25 24h67c18.667 -17.333 35.334 -33.666 50.001 -48.999s30.667 -33.666 48 -54.999z" />
    <glyph glyph-name="Edieresis" unicode="&#xcb;" horiz-adv-x="550" 
d="M488 50c0 -16.667 -1.66699 -33.333 -5 -50h-373v674h362c0 -8.66699 -0.5 -17 -1.5 -25s-2.16699 -16.333 -3.5 -25h-300v-242h232v-50h-232v-282h321v0zM238 753.001c0 -10.667 -3.16797 -19.167 -9.50098 -25.5s-14.833 -9.5 -25.5 -9.5c-10 0 -18.333 3.33301 -25 10
s-10 15 -10 25c0 10.667 3.33301 19.334 10 26.001s15.334 10 26.001 10c10 0 18.167 -3.33301 24.5 -10s9.5 -15.334 9.5 -26.001zM410.999 753.001c0 -10.667 -3.33301 -19.167 -10 -25.5s-15 -9.5 -25 -9.5c-10.667 0 -19 3.33301 -25 10s-9 15 -9 25
c0 10.667 3 19.334 9 26.001s14.667 10 26 10c9.33301 0 17.333 -3.33301 24 -10s10 -15.334 10 -26.001z" />
    <glyph glyph-name="Igrave" unicode="&#xcc;" horiz-adv-x="277" 
d="M164 711l-40 -6c-20.667 19.333 -38 37.5 -52 54.5s-26.667 35.5 -38 55.5h50zM167 0v674h-57v-674h57z" />
    <glyph glyph-name="Iacute" unicode="&#xcd;" horiz-adv-x="277" 
d="M243 815c-11.333 -20 -24 -38.5 -38 -55.5s-31.333 -35.167 -52 -54.5l-40 6l80 104h50v0zM110 0v674h57v-674h-57z" />
    <glyph glyph-name="Icircumflex" unicode="&#xce;" horiz-adv-x="277" 
d="M267 709c-5.33301 -2 -12.167 -3.5 -20.5 -4.5s-15.833 -1.5 -22.5 -1.5l-86 83l-85 -83c-5.33301 0 -12.333 0.5 -21 1.5s-15.667 2.16699 -21 3.5l29 34l22.5 25.5l21 22.5l23.5 24h65c18 -17.333 34 -33.833 48 -49.5s29.667 -34.167 47 -55.5zM109.999 0v674h57v-674
h-57z" />
    <glyph glyph-name="Idieresis" unicode="&#xcf;" horiz-adv-x="277" 
d="M88 753c0 -10.667 -3 -19.167 -9 -25.5s-14 -9.5 -24 -9.5s-18.167 3.33301 -24.5 10s-9.5 15 -9.5 25c0 10.667 3.16699 19.334 9.5 26.001s14.833 10 25.5 10c9.33301 0 17 -3.33301 23 -10s9 -15.334 9 -26.001zM256 753c0 -10.667 -3.33203 -19.167 -9.99902 -25.5
s-14.667 -9.5 -24 -9.5c-10 0 -18 3.33301 -24 10s-9 15 -9 25c0 10.667 3 19.334 9 26.001s14.333 10 25 10c9.33301 0 17.166 -3.33301 23.499 -10s9.5 -15.334 9.5 -26.001zM110.001 0v674h57v-674h-57z" />
    <glyph glyph-name="Eth" unicode="&#xd0;" horiz-adv-x="716" 
d="M646 351c0 -61.333 -7.33203 -114.667 -21.999 -160s-34.834 -82.833 -60.501 -112.5s-56.167 -51.667 -91.5 -66s-73.666 -21.5 -114.999 -21.5c-34 0 -70.333 1 -109 3s-75.667 5.66699 -111 11v328h-65v50h65v212c0 14.667 -2.5 24.167 -7.5 28.5
s-14.167 6.5 -27.5 6.5h-43v10c0 16 4.66699 27.333 14 34s21.666 10 36.999 10c32.667 0 57 -8.66699 73 -26c26 10 53 16.833 81 20.5s58.667 5.5 92 5.5c42.667 0 81.667 -6.33301 117 -19s65.833 -32.5 91.5 -59.5s45.667 -61.5 60 -103.5s21.5 -92.333 21.5 -151z
M585.001 342.999c0 60 -7 109.002 -21 147.002s-32 67.667 -54 89s-46.833 36 -74.5 44s-55.167 12 -82.5 12s-54.666 -1.66699 -81.999 -5s-53 -8.66602 -77 -15.999v-231h134c0 -6.66699 -0.666992 -14.334 -2 -23.001s-3.66602 -17.667 -6.99902 -27h-125v-284
c19.333 -2.66699 43.166 -4.83398 71.499 -6.50098s57.166 -2.5 86.499 -2.5c76 0 133.833 25.667 173.5 77s59.5 126.666 59.5 225.999z" />
    <glyph glyph-name="Ntilde" unicode="&#xd1;" horiz-adv-x="698" 
d="M215 713c3.33301 19.333 7.83105 35.002 13.498 47.002s12.167 21.167 19.5 27.5s15.333 10.666 24 12.999s18 3.5 28 3.5c10.667 0 22.334 -2.83301 35.001 -8.5s25.334 -11.667 38.001 -18l37 -18c12 -5.66699 22.333 -8.5 31 -8.5c6 0 11.5 0.5 16.5 1.5
s9.33301 3.66699 13 8s6.83398 10.666 9.50098 18.999s5 19.5 7 33.5c6.66699 0 13.5 -0.833008 20.5 -2.5s13.167 -3.83398 18.5 -6.50098c-4 -20 -8.83301 -36.167 -14.5 -48.5s-12.167 -21.666 -19.5 -27.999s-15.333 -10.5 -24 -12.5s-18 -3 -28 -3
c-10.667 0 -22.5 2.83301 -35.5 8.5s-26 11.667 -39 18l-37 18c-11.667 5.66699 -22.167 8.5 -31.5 8.5c-12.667 0 -22.334 -4.16699 -29.001 -12.5s-11.667 -24.833 -15 -49.5c-6 0 -12.5 0.833008 -19.5 2.5s-13.167 4.16699 -18.5 7.5zM587.998 3.00195
c-14.667 -5.33301 -30.335 -8 -47.002 -8l-329 540c-4 6.66699 -9.66699 17.334 -17 32.001s-13 27.334 -17 38.001l-5 -1c1.33301 -10 2.66602 -22.5 3.99902 -37.5s2 -26.5 2 -34.5v-449c0 -26.667 -6 -48.834 -18 -66.501s-33.667 -26.5 -65 -26.5
c-35.333 0 -53 14.667 -53 44v10h43c16.667 0 27.667 3.16699 33 9.5s8 16.166 8 29.499v585c8.66699 2.66699 18.334 4.66699 29.001 6s20.334 2 29.001 2l318 -522c5.33301 -9.33301 11.333 -20.5 18 -33.5s12 -25.167 16 -36.5l5 1
c-1.33301 11.333 -2.66602 23.333 -3.99902 36s-2 24.667 -2 36v517h52v-671v0z" />
    <glyph glyph-name="Ograve" unicode="&#xd2;" horiz-adv-x="675" 
d="M366 711l-40 -6c-20.667 19.333 -38 37.5 -52 54.5s-26.667 35.5 -38 55.5h50zM605 337c0 116 -22.501 202.832 -67.501 260.499s-111.5 86.5 -199.5 86.5c-86.667 0 -153 -29.667 -199 -89s-69 -146.666 -69 -261.999c0 -114 22.667 -199.667 68 -257s112 -86 200 -86
c82.667 0 147.834 28.833 195.501 86.5s71.5 144.5 71.5 260.5zM543.999 336.999c0 -104.667 -16.5029 -180.167 -49.5029 -226.5s-85.167 -69.5 -156.5 -69.5c-73.333 0 -126.166 23.667 -158.499 71s-48.5 122.333 -48.5 225c0 55.333 4.33301 101.833 13 139.5
s21.834 68.167 39.501 91.5s39.334 40 65.001 50s55.5 15 89.5 15s63.833 -5.16699 89.5 -15.5s47.167 -27.166 64.5 -50.499s30.333 -53.833 39 -91.5s13 -83.834 13 -138.501z" />
    <glyph glyph-name="Oacute" unicode="&#xd3;" horiz-adv-x="675" 
d="M430 815c-11.333 -20 -24 -38.5 -38 -55.5s-31.333 -35.167 -52 -54.5l-40 6l80 104h50v0zM605 337c0 -116 -23.832 -202.832 -71.499 -260.499s-112.834 -86.5 -195.501 -86.5c-88 0 -154.667 28.667 -200 86s-68 143 -68 257c0 115.333 23 202.666 69 261.999
s112.333 89 199 89c88 0 154.5 -28.833 199.5 -86.5s67.5 -144.5 67.5 -260.5zM544.001 337.001c0 54.667 -4.33008 100.834 -12.9971 138.501s-21.667 68.167 -39 91.5s-38.833 40.166 -64.5 50.499s-55.5 15.5 -89.5 15.5s-63.833 -5 -89.5 -15
s-47.334 -26.667 -65.001 -50s-30.834 -53.833 -39.501 -91.5s-13 -84.167 -13 -139.5c0 -102.667 16.167 -177.667 48.5 -225s85.166 -71 158.499 -71c71.333 0 123.5 23.167 156.5 69.5s49.5 121.833 49.5 226.5z" />
    <glyph glyph-name="Ocircumflex" unicode="&#xd4;" horiz-adv-x="675" 
d="M466 711c-6 -2 -13.1689 -3.50195 -21.502 -4.50195s-16.166 -1.5 -23.499 -1.5l-88 82l-88 -82c-5.33301 0 -12.5 0.5 -21.5 1.5s-16.167 2.16699 -21.5 3.5l29.5 33.5l23 25l21.5 22.5l25 24h67c18.667 -17.333 35.334 -33.666 50.001 -48.999
s30.667 -33.666 48 -54.999zM604.998 336.998c0 -116 -23.832 -202.832 -71.499 -260.499s-112.834 -86.5 -195.501 -86.5c-88 0 -154.667 28.667 -200 86s-68 143 -68 257c0 115.333 23 202.666 69 261.999s112.333 89 199 89c88 0 154.5 -28.833 199.5 -86.5
s67.5 -144.5 67.5 -260.5zM543.999 336.999c0 54.667 -4.33008 100.834 -12.9971 138.501s-21.667 68.167 -39 91.5s-38.833 40.166 -64.5 50.499s-55.5 15.5 -89.5 15.5s-63.833 -5 -89.5 -15s-47.334 -26.667 -65.001 -50s-30.834 -53.833 -39.501 -91.5
s-13 -84.167 -13 -139.5c0 -102.667 16.167 -177.667 48.5 -225s85.166 -71 158.499 -71c71.333 0 123.5 23.167 156.5 69.5s49.5 121.833 49.5 226.5z" />
    <glyph glyph-name="Otilde" unicode="&#xd5;" horiz-adv-x="675" 
d="M180 713c3.33301 19.333 7.83105 35.002 13.498 47.002s12.167 21.167 19.5 27.5s15.333 10.666 24 12.999s18 3.5 28 3.5c10.667 0 22.334 -2.83301 35.001 -8.5s25.334 -11.667 38.001 -18l37 -18c12 -5.66699 22.333 -8.5 31 -8.5c6 0 11.5 0.5 16.5 1.5
s9.33301 3.66699 13 8s6.83398 10.666 9.50098 18.999s5 19.5 7 33.5c6.66699 0 13.5 -0.833008 20.5 -2.5s13.167 -3.83398 18.5 -6.50098c-4 -20 -8.83301 -36.167 -14.5 -48.5s-12.167 -21.666 -19.5 -27.999s-15.333 -10.5 -24 -12.5s-18 -3 -28 -3
c-10.667 0 -22.5 2.83301 -35.5 8.5s-26 11.667 -39 18l-37 18c-11.667 5.66699 -22.167 8.5 -31.5 8.5c-12.667 0 -22.334 -4.16699 -29.001 -12.5s-11.667 -24.833 -15 -49.5c-6 0 -12.5 0.833008 -19.5 2.5s-13.167 4.16699 -18.5 7.5zM604.998 337.002
c0 -116 -23.832 -202.832 -71.499 -260.499s-112.834 -86.5 -195.501 -86.5c-88 0 -154.667 28.667 -200 86s-68 143 -68 257c0 115.333 23 202.666 69 261.999s112.333 89 199 89c88 0 154.5 -28.833 199.5 -86.5s67.5 -144.5 67.5 -260.5zM543.999 337.003
c0 54.667 -4.33008 100.834 -12.9971 138.501s-21.667 68.167 -39 91.5s-38.833 40.166 -64.5 50.499s-55.5 15.5 -89.5 15.5s-63.833 -5 -89.5 -15s-47.334 -26.667 -65.001 -50s-30.834 -53.833 -39.501 -91.5s-13 -84.167 -13 -139.5
c0 -102.667 16.167 -177.667 48.5 -225s85.166 -71 158.499 -71c71.333 0 123.5 23.167 156.5 69.5s49.5 121.833 49.5 226.5z" />
    <glyph glyph-name="Odieresis" unicode="&#xd6;" horiz-adv-x="675" 
d="M287 753c0 -10.667 -3.16797 -19.167 -9.50098 -25.5s-14.833 -9.5 -25.5 -9.5c-10 0 -18.333 3.33301 -25 10s-10 15 -10 25c0 10.667 3.33301 19.334 10 26.001s15.334 10 26.001 10c10 0 18.167 -3.33301 24.5 -10s9.5 -15.334 9.5 -26.001zM459.999 753
c0 -10.667 -3.33301 -19.167 -10 -25.5s-15 -9.5 -25 -9.5c-10.667 0 -19 3.33301 -25 10s-9 15 -9 25c0 10.667 3 19.334 9 26.001s14.667 10 26 10c9.33301 0 17.333 -3.33301 24 -10s10 -15.334 10 -26.001zM604.999 337c0 -116 -23.832 -202.832 -71.499 -260.499
s-112.834 -86.5 -195.501 -86.5c-88 0 -154.667 28.667 -200 86s-68 143 -68 257c0 115.333 23 202.666 69 261.999s112.333 89 199 89c88 0 154.5 -28.833 199.5 -86.5s67.5 -144.5 67.5 -260.5zM544 337.001c0 54.667 -4.33008 100.834 -12.9971 138.501
s-21.667 68.167 -39 91.5s-38.833 40.166 -64.5 50.499s-55.5 15.5 -89.5 15.5s-63.833 -5 -89.5 -15s-47.334 -26.667 -65.001 -50s-30.834 -53.833 -39.501 -91.5s-13 -84.167 -13 -139.5c0 -102.667 16.167 -177.667 48.5 -225s85.166 -71 158.499 -71
c71.333 0 123.5 23.167 156.5 69.5s49.5 121.833 49.5 226.5z" />
    <glyph glyph-name="multiply" unicode="&#xd7;" horiz-adv-x="497" 
d="M400 36l-151 156l-153 -156l-34 34l155 155l-155 153l34 34l153 -157l151 157l35 -34l-155 -153l155 -155z" />
    <glyph glyph-name="Oslash" unicode="&#xd8;" horiz-adv-x="669" 
d="M602 337c0 -116 -23.8311 -202.833 -71.498 -260.5s-112.834 -86.5 -195.501 -86.5c-58.667 0 -107.334 12.333 -146.001 37l-48 -88h-39l59 110c-62.667 55.333 -94 150 -94 284c0 115.333 23 202.666 69 261.999s112.333 89 199 89c59.333 0 108.333 -13 147 -39l47 87
h40l-59 -109c61.333 -57.333 92 -152.666 92 -285.999zM128.002 337c0 -56.667 4.66895 -104.833 14.002 -144.5s24.333 -71.167 45 -94.5l270 500c-31.333 23.333 -72 35 -122 35c-34 0 -63.833 -5 -89.5 -15s-47.334 -26.667 -65.001 -50s-30.834 -53.833 -39.501 -91.5
s-13 -84.167 -13 -139.5zM541.004 337.001c0 57.333 -4.83203 105.168 -14.499 143.501s-24.167 69.166 -43.5 92.499l-269 -499c31.333 -22 71.666 -33 120.999 -33c71.333 0 123.5 23.167 156.5 69.5s49.5 121.833 49.5 226.5z" />
    <glyph glyph-name="Ugrave" unicode="&#xd9;" horiz-adv-x="680" 
d="M570 261v412.999h-52v-428c0 -72 -14.167 -124.333 -42.5 -157s-71.5 -49 -129.5 -49c-33.333 0 -60.833 3.83301 -82.5 11.5s-39 19.834 -52 36.501s-22.167 38 -27.5 64s-8 57.333 -8 94v352c0 27.333 -7.5 48.5 -22.5 63.5s-36.833 22.5 -65.5 22.5
c-35.333 0 -53 -14.667 -53 -44v-10h43c13.333 0 23.5 -2.5 30.5 -7.5s10.5 -14.833 10.5 -29.5v-332c0 -54.667 4.83301 -99.5 14.5 -134.5s24 -62.667 43 -83s42.5 -34.333 70.5 -42s60.333 -11.5 97 -11.5c44 0 80.5 6.16699 109.5 18.5s52.167 30.333 69.5 54
s29.5 52.167 36.5 85.5s10.5 71 10.5 113zM383 710.999l-40 -6c-20.667 19.333 -38 37.5 -52 54.5s-26.667 35.5 -38 55.5h50z" />
    <glyph glyph-name="Uacute" unicode="&#xda;" horiz-adv-x="680" 
d="M570 261c0 -42 -3.5 -79.666 -10.5 -112.999s-19.167 -61.833 -36.5 -85.5s-40.5 -41.667 -69.5 -54s-65.5 -18.5 -109.5 -18.5c-36.667 0 -69 3.83301 -97 11.5s-51.5 21.667 -70.5 42s-33.333 48 -43 83s-14.5 79.833 -14.5 134.5v332c0 14.667 -3.5 24.5 -10.5 29.5
s-17.167 7.5 -30.5 7.5h-43v10c0 29.333 17.667 44 53 44c28.667 0 50.5 -7.5 65.5 -22.5s22.5 -36.167 22.5 -63.5v-352c0 -36.667 2.66699 -68 8 -94s14.5 -47.333 27.5 -64s30.333 -28.834 52 -36.501s49.167 -11.5 82.5 -11.5c58 0 101.167 16.333 129.5 49
s42.5 85 42.5 157v428h52v-413v0zM436 815.001c-11.333 -20 -24 -38.5 -38 -55.5s-31.333 -35.167 -52 -54.5l-40 6l80 104h50v0z" />
    <glyph glyph-name="Ucircumflex" unicode="&#xdb;" horiz-adv-x="680" 
d="M570 261c0 -42 -3.5 -79.666 -10.5 -112.999s-19.167 -61.833 -36.5 -85.5s-40.5 -41.667 -69.5 -54s-65.5 -18.5 -109.5 -18.5c-36.667 0 -69 3.83301 -97 11.5s-51.5 21.667 -70.5 42s-33.333 48 -43 83s-14.5 79.833 -14.5 134.5v332c0 14.667 -3.5 24.5 -10.5 29.5
s-17.167 7.5 -30.5 7.5h-43v10c0 29.333 17.667 44 53 44c28.667 0 50.5 -7.5 65.5 -22.5s22.5 -36.167 22.5 -63.5v-352c0 -36.667 2.66699 -68 8 -94s14.5 -47.333 27.5 -64s30.333 -28.834 52 -36.501s49.167 -11.5 82.5 -11.5c58 0 101.167 16.333 129.5 49
s42.5 85 42.5 157v428h52v-413v0zM475 711.001c-6 -2 -13.1689 -3.50195 -21.502 -4.50195s-16.166 -1.5 -23.499 -1.5l-88 82l-88 -82c-5.33301 0 -12.5 0.5 -21.5 1.5s-16.167 2.16699 -21.5 3.5l29.5 33.5l23 25l21.5 22.5l25 24h67
c18.667 -17.333 35.334 -33.666 50.001 -48.999s30.667 -33.666 48 -54.999z" />
    <glyph glyph-name="Udieresis" unicode="&#xdc;" horiz-adv-x="680" 
d="M288 753c0 -10.667 -3.16797 -19.167 -9.50098 -25.5s-14.833 -9.5 -25.5 -9.5c-10 0 -18.333 3.33301 -25 10s-10 15 -10 25c0 10.667 3.33301 19.334 10 26.001s15.334 10 26.001 10c10 0 18.167 -3.33301 24.5 -10s9.5 -15.334 9.5 -26.001zM460.999 753
c0 -10.667 -3.33301 -19.167 -10 -25.5s-15 -9.5 -25 -9.5c-10.667 0 -19 3.33301 -25 10s-9 15 -9 25c0 10.667 3 19.334 9 26.001s14.667 10 26 10c9.33301 0 17.333 -3.33301 24 -10s10 -15.334 10 -26.001zM569.999 261c0 -42 -3.5 -79.666 -10.5 -112.999
s-19.167 -61.833 -36.5 -85.5s-40.5 -41.667 -69.5 -54s-65.5 -18.5 -109.5 -18.5c-36.667 0 -69 3.83301 -97 11.5s-51.5 21.667 -70.5 42s-33.333 48 -43 83s-14.5 79.833 -14.5 134.5v332c0 14.667 -3.5 24.5 -10.5 29.5s-17.167 7.5 -30.5 7.5h-43v10
c0 29.333 17.667 44 53 44c28.667 0 50.5 -7.5 65.5 -22.5s22.5 -36.167 22.5 -63.5v-352c0 -36.667 2.66699 -68 8 -94s14.5 -47.333 27.5 -64s30.333 -28.834 52 -36.501s49.167 -11.5 82.5 -11.5c58 0 101.167 16.333 129.5 49s42.5 85 42.5 157v428h52v-413v0z" />
    <glyph glyph-name="Yacute" unicode="&#xdd;" horiz-adv-x="564" 
d="M534 670l-54.999 -108l-52 -99.5l-53 -97l-58 -101.5v-264h-57v264l-180 331c-7.33301 13.333 -13.333 22.5 -18 27.5s-12.667 7.5 -24 7.5h-37v10c0 29.333 16.667 44 50 44c18 0 33.167 -5 45.5 -15s23.5 -24.667 33.5 -44l138 -269l10 -22
c3.33301 -7.33301 6.66602 -15.333 9.99902 -24h5l9 25c2.66699 7.33301 6 15 10 23l166 317c9.33301 0 19 -0.333008 29 -1s19.333 -2 28 -4zM378.001 815c-11.333 -20 -24 -38.5 -38 -55.5s-31.333 -35.167 -52 -54.5l-40 6l80 104h50v0z" />
    <glyph glyph-name="Thorn" unicode="&#xde;" horiz-adv-x="561" 
d="M501 349c0 -35.333 -6.16895 -65.833 -18.502 -91.5s-29 -47 -50 -64s-45.167 -29.5 -72.5 -37.5s-56 -12 -86 -12h-108v-144h-56v674h57v-130c20.667 2.66699 39.334 4.5 56.001 5.5s35 1.5 55 1.5c29.333 0 57.333 -3.5 84 -10.5s50.334 -18.5 71.001 -34.5
s37.167 -36.833 49.5 -62.5s18.5 -57.167 18.5 -94.5zM441.998 349c0 30 -4.5 55 -13.5 75s-21 35.833 -36 47.5s-32.333 20 -52 25s-40.167 7.5 -61.5 7.5c-12 0 -27.833 -0.666992 -47.5 -2s-41.5 -3.33301 -65.5 -6v-304h96c26 0 50 2.83301 72 8.5s41 14.667 57 27
s28.5 28.5 37.5 48.5s13.5 44.333 13.5 73z" />
    <glyph glyph-name="germandbls" unicode="&#xdf;" horiz-adv-x="551" 
d="M503 115c0 -36.667 -12.998 -66.6689 -38.998 -90.002s-61 -35 -105 -35c-18 0 -38.667 2 -62 6s-45.666 11.667 -66.999 23c1.33301 8 3.5 16.5 6.5 25.5s6.16699 16.833 9.5 23.5c8 -4.66699 17 -8.83398 27 -12.501s20.167 -6.66699 30.5 -9
s20.666 -4.16602 30.999 -5.49902s19.5 -2 27.5 -2c30 0 51.667 6.33301 65 19s20 30.667 20 54c0 18 -4.33301 33.5 -13 46.5s-19.334 25 -32.001 36s-26.667 21.667 -42 32s-29.333 21.5 -42 33.5s-23.334 25.833 -32.001 41.5s-13 34.5 -13 56.5
c0 27.333 6.66699 51.5 20 72.5s27.833 40.667 43.5 59s30.167 36.5 43.5 54.5s20 37.667 20 59c0 32.667 -7.66699 56.167 -23 70.5s-41.333 21.5 -78 21.5c-26.667 0 -48.834 -3 -66.501 -9s-31.667 -15 -42 -27s-17.5 -27.167 -21.5 -45.5s-6 -40.166 -6 -65.499v-548
h-53v550c0 64.667 16.667 113.167 50 145.5s80 48.5 140 48.5c23.333 0 44.5 -2.5 63.5 -7.5s35.333 -12.833 49 -23.5s24.334 -24.5 32.001 -41.5s11.5 -37.167 11.5 -60.5c0 -27.333 -6.83301 -51.666 -20.5 -72.999s-28.5 -41.5 -44.5 -60.5s-30.833 -37.5 -44.5 -55.5
s-20.5 -37.333 -20.5 -58c0 -18 4.33301 -33.5 13 -46.5s19.667 -25 33 -36s27.5 -21.667 42.5 -32s29.167 -21.833 42.5 -34.5s24.333 -27 33 -43s13 -35 13 -57z" />
    <glyph glyph-name="agrave" unicode="&#xe0;" horiz-adv-x="569" 
d="M400 465c-17.333 7.33301 -35.5 12.168 -54.5 14.501s-35.5 3.5 -49.5 3.5c-26 0 -49.5 -3.5 -70.5 -10.5s-38.667 -19.333 -53 -37s-25.5 -41.167 -33.5 -70.5s-12 -66.333 -12 -111c0 -42.667 3.16699 -77.834 9.5 -105.501s15.333 -49.5 27 -65.5s26 -27.167 43 -33.5
s36.167 -9.5 57.5 -9.5c24.667 0 48 4.16699 70 12.5s44 20.5 66 36.5v376zM453 73.002c0 -12 2.17285 -20.3311 6.50586 -24.998s12.166 -7 23.499 -7h56v-12c0 -26 -14.667 -39 -44 -39c-21.333 0 -39.5 3 -54.5 9s-28.167 20.667 -39.5 44h-3
c-24 -16.667 -46.833 -29.667 -68.5 -39s-47.167 -14 -76.5 -14c-26.667 0 -51.334 4.5 -74.001 13.5s-42 23.667 -58 44s-28.5 46.666 -37.5 78.999s-13.5 71.833 -13.5 118.5c0 51.333 5.33301 95.166 16 131.499s26 66 46 89s44.167 39.833 72.5 50.5
s60.166 16 95.499 16c16.667 0 32.667 -1.33301 48 -4s32.666 -6.66699 51.999 -12c5.33301 4 11.166 6.83301 17.499 8.5s12.833 2.5 19.5 2.5c7.33301 0 12.666 -0.333008 15.999 -1v-453zM321.006 578.004c-4.66699 -2 -10.501 -3.5 -17.501 -4.5
s-13.167 -1.5 -18.5 -1.5c-22 25.333 -42.167 51.833 -60.5 79.5s-32.166 54.167 -41.499 79.5h49l89 -153v0z" />
    <glyph glyph-name="aacute" unicode="&#xe1;" horiz-adv-x="569" 
d="M400 465c-17.333 7.33301 -35.5 12.168 -54.5 14.501s-35.5 3.5 -49.5 3.5c-26 0 -49.5 -3.5 -70.5 -10.5s-38.667 -19.333 -53 -37s-25.5 -41.167 -33.5 -70.5s-12 -66.333 -12 -111c0 -42.667 3.16699 -77.834 9.5 -105.501s15.333 -49.5 27 -65.5s26 -27.167 43 -33.5
s36.167 -9.5 57.5 -9.5c24.667 0 48 4.16699 70 12.5s44 20.5 66 36.5v376zM453 73.002c0 -12 2.17285 -20.3311 6.50586 -24.998s12.166 -7 23.499 -7h56v-12c0 -26 -14.667 -39 -44 -39c-21.333 0 -39.5 3 -54.5 9s-28.167 20.667 -39.5 44h-3
c-24 -16.667 -46.833 -29.667 -68.5 -39s-47.167 -14 -76.5 -14c-26.667 0 -51.334 4.5 -74.001 13.5s-42 23.667 -58 44s-28.5 46.666 -37.5 78.999s-13.5 71.833 -13.5 118.5c0 51.333 5.33301 95.166 16 131.499s26 66 46 89s44.167 39.833 72.5 50.5
s60.166 16 95.499 16c16.667 0 32.667 -1.33301 48 -4s32.666 -6.66699 51.999 -12c5.33301 4 11.166 6.83301 17.499 8.5s12.833 2.5 19.5 2.5c7.33301 0 12.666 -0.333008 15.999 -1v-453zM404.006 731.004c-9.33301 -25.333 -23.167 -51.833 -41.5 -79.5
s-38.5 -54.167 -60.5 -79.5c-5.33301 0 -11.5 0.5 -18.5 1.5s-12.833 2.5 -17.5 4.5l89 153h49v0z" />
    <glyph glyph-name="acircumflex" unicode="&#xe2;" horiz-adv-x="569" 
d="M400 465c-17.333 7.33301 -35.5 12.168 -54.5 14.501s-35.5 3.5 -49.5 3.5c-26 0 -49.5 -3.5 -70.5 -10.5s-38.667 -19.333 -53 -37s-25.5 -41.167 -33.5 -70.5s-12 -66.333 -12 -111c0 -42.667 3.16699 -77.834 9.5 -105.501s15.333 -49.5 27 -65.5s26 -27.167 43 -33.5
s36.167 -9.5 57.5 -9.5c24.667 0 48 4.16699 70 12.5s44 20.5 66 36.5v376zM453 73.002c0 -12 2.17285 -20.3311 6.50586 -24.998s12.166 -7 23.499 -7h56v-12c0 -26 -14.667 -39 -44 -39c-21.333 0 -39.5 3 -54.5 9s-28.167 20.667 -39.5 44h-3
c-24 -16.667 -46.833 -29.667 -68.5 -39s-47.167 -14 -76.5 -14c-26.667 0 -51.334 4.5 -74.001 13.5s-42 23.667 -58 44s-28.5 46.666 -37.5 78.999s-13.5 71.833 -13.5 118.5c0 51.333 5.33301 95.166 16 131.499s26 66 46 89s44.167 39.833 72.5 50.5
s60.166 16 95.499 16c16.667 0 32.667 -1.33301 48 -4s32.666 -6.66699 51.999 -12c5.33301 4 11.166 6.83301 17.499 8.5s12.833 2.5 19.5 2.5c7.33301 0 12.666 -0.333008 15.999 -1v-453zM426.006 578.004c-6 -2 -12.6689 -3.5 -20.002 -4.5s-14.666 -1.5 -21.999 -1.5
l-91 120l-91 -120c-5.33301 0 -12 0.5 -20 1.5s-14.667 2.16699 -20 3.5c18.667 30 36.334 56.833 53.001 80.5l54 73.5h51l54.5 -74c17 -24 34.167 -50.333 51.5 -79z" />
    <glyph glyph-name="atilde" unicode="&#xe3;" horiz-adv-x="569" 
d="M400 465c-17.333 7.33301 -35.5 12.168 -54.5 14.501s-35.5 3.5 -49.5 3.5c-26 0 -49.5 -3.5 -70.5 -10.5s-38.667 -19.333 -53 -37s-25.5 -41.167 -33.5 -70.5s-12 -66.333 -12 -111c0 -42.667 3.16699 -77.834 9.5 -105.501s15.333 -49.5 27 -65.5s26 -27.167 43 -33.5
s36.167 -9.5 57.5 -9.5c24.667 0 48 4.16699 70 12.5s44 20.5 66 36.5v376zM453 73.002c0 -12 2.17285 -20.3311 6.50586 -24.998s12.166 -7 23.499 -7h56v-12c0 -26 -14.667 -39 -44 -39c-21.333 0 -39.5 3 -54.5 9s-28.167 20.667 -39.5 44h-3
c-24 -16.667 -46.833 -29.667 -68.5 -39s-47.167 -14 -76.5 -14c-26.667 0 -51.334 4.5 -74.001 13.5s-42 23.667 -58 44s-28.5 46.666 -37.5 78.999s-13.5 71.833 -13.5 118.5c0 51.333 5.33301 95.166 16 131.499s26 66 46 89s44.167 39.833 72.5 50.5
s60.166 16 95.499 16c16.667 0 32.667 -1.33301 48 -4s32.666 -6.66699 51.999 -12c5.33301 4 11.166 6.83301 17.499 8.5s12.833 2.5 19.5 2.5c7.33301 0 12.666 -0.333008 15.999 -1v-453zM125.006 580.004c4 21.333 9.00195 38.502 15.002 51.502s12.667 23 20 30
s15.666 11.667 24.999 14s19 3.5 29 3.5c17.333 0 34.333 -5 51 -15l53 -30c8.66699 -5.33301 15.834 -8.83301 21.501 -10.5s11.167 -2.5 16.5 -2.5c13.333 0 23.666 3.83301 30.999 11.5s13.333 26.167 18 55.5c14 0 27.667 -3.33301 41 -10
c-4 -20.667 -8.66699 -37.334 -14 -50.001s-11.833 -22.667 -19.5 -30s-16 -12.333 -25 -15s-19.167 -4 -30.5 -4c-7.33301 0 -15 1 -23 3s-17.333 6 -28 12l-53 30c-14.667 8.66699 -27.334 13 -38.001 13c-7.33301 0 -13.5 -0.833008 -18.5 -2.5
s-9.5 -4.83398 -13.5 -9.50098s-7.33301 -11.5 -10 -20.5s-5 -20.5 -7 -34.5c-14 0 -27.667 3.33301 -41 10z" />
    <glyph glyph-name="adieresis" unicode="&#xe4;" horiz-adv-x="569" 
d="M400 465c-17.333 7.33301 -35.5 12.168 -54.5 14.501s-35.5 3.5 -49.5 3.5c-26 0 -49.5 -3.5 -70.5 -10.5s-38.667 -19.333 -53 -37s-25.5 -41.167 -33.5 -70.5s-12 -66.333 -12 -111c0 -42.667 3.16699 -77.834 9.5 -105.501s15.333 -49.5 27 -65.5s26 -27.167 43 -33.5
s36.167 -9.5 57.5 -9.5c24.667 0 48 4.16699 70 12.5s44 20.5 66 36.5v376zM453 73.002c0 -12 2.17285 -20.3311 6.50586 -24.998s12.166 -7 23.499 -7h56v-12c0 -26 -14.667 -39 -44 -39c-21.333 0 -39.5 3 -54.5 9s-28.167 20.667 -39.5 44h-3
c-24 -16.667 -46.833 -29.667 -68.5 -39s-47.167 -14 -76.5 -14c-26.667 0 -51.334 4.5 -74.001 13.5s-42 23.667 -58 44s-28.5 46.666 -37.5 78.999s-13.5 71.833 -13.5 118.5c0 51.333 5.33301 95.166 16 131.499s26 66 46 89s44.167 39.833 72.5 50.5
s60.166 16 95.499 16c16.667 0 32.667 -1.33301 48 -4s32.666 -6.66699 51.999 -12c5.33301 4 11.166 6.83301 17.499 8.5s12.833 2.5 19.5 2.5c7.33301 0 12.666 -0.333008 15.999 -1v-453zM240.006 627.004c0 -11.333 -3.16602 -20.333 -9.49902 -27s-14.5 -10 -24.5 -10
s-18.167 3.5 -24.5 10.5s-9.5 15.833 -9.5 26.5s3.16699 19.667 9.5 27s14.833 11 25.5 11c9.33301 0 17.166 -3.66699 23.499 -11s9.5 -16.333 9.5 -27zM407.007 627.004c0 -11.333 -3.16602 -20.333 -9.49902 -27s-14.5 -10 -24.5 -10s-18 3.5 -24 10.5s-9 15.833 -9 26.5
s3 19.667 9 27s14.333 11 25 11c9.33301 0 17.166 -3.66699 23.499 -11s9.5 -16.333 9.5 -27z" />
    <glyph glyph-name="aring" unicode="&#xe5;" horiz-adv-x="569" 
d="M400 465c-17.333 7.33301 -35.5 12.168 -54.5 14.501s-35.5 3.5 -49.5 3.5c-26 0 -49.5 -3.5 -70.5 -10.5s-38.667 -19.333 -53 -37s-25.5 -41.167 -33.5 -70.5s-12 -66.333 -12 -111c0 -42.667 3.16699 -77.834 9.5 -105.501s15.333 -49.5 27 -65.5s26 -27.167 43 -33.5
s36.167 -9.5 57.5 -9.5c24.667 0 48 4.16699 70 12.5s44 20.5 66 36.5v376zM453 73.002c0 -12 2.17285 -20.3311 6.50586 -24.998s12.166 -7 23.499 -7h56v-12c0 -26 -14.667 -39 -44 -39c-21.333 0 -39.5 3 -54.5 9s-28.167 20.667 -39.5 44h-3
c-24 -16.667 -46.833 -29.667 -68.5 -39s-47.167 -14 -76.5 -14c-26.667 0 -51.334 4.5 -74.001 13.5s-42 23.667 -58 44s-28.5 46.666 -37.5 78.999s-13.5 71.833 -13.5 118.5c0 51.333 5.33301 95.166 16 131.499s26 66 46 89s44.167 39.833 72.5 50.5
s60.166 16 95.499 16c16.667 0 32.667 -1.33301 48 -4s32.666 -6.66699 51.999 -12c5.33301 4 11.166 6.83301 17.499 8.5s12.833 2.5 19.5 2.5c7.33301 0 12.666 -0.333008 15.999 -1v-453zM394.006 669.004c0 -29.333 -9.33301 -53.167 -28 -71.5s-44 -27.5 -76 -27.5
c-34.667 0 -61 9 -79 27s-27 42 -27 72c0 29.333 9.33301 53.5 28 72.5s44.667 28.5 78 28.5c32.667 0 58.167 -9 76.5 -27s27.5 -42.667 27.5 -74zM351.006 672.003c0 20 -5.50098 35.332 -16.501 45.999s-25.833 16 -44.5 16c-17.333 0 -32.166 -5 -44.499 -15
s-18.5 -25.667 -18.5 -47s5.33301 -37.666 16 -48.999s25.667 -17 45 -17c18 0 33 5.5 45 16.5s18 27.5 18 49.5z" />
    <glyph glyph-name="ae" unicode="&#xe6;" horiz-adv-x="787" 
d="M723 336c0 -22.667 -0.999023 -45.668 -2.99902 -69.001l-323 -11v-5c0 -34.667 2.66699 -65.167 8 -91.5s14.5 -48.333 27.5 -66s30.5 -31 52.5 -40s49.667 -13.5 83 -13.5c25.333 0 49.333 3.33301 72 10s41 14.667 55 24
c3.33301 -6.66699 6.66602 -14.834 9.99902 -24.501s5.66602 -17.5 6.99902 -23.5c-17.333 -11.333 -39.166 -20.166 -65.499 -26.499s-53.5 -9.5 -81.5 -9.5c-42.667 0 -78.167 6.33301 -106.5 19s-52.166 33.334 -71.499 62.001h-3
c-14.667 -14.667 -30.167 -27.167 -46.5 -37.5s-32.5 -18.833 -48.5 -25.5s-31.333 -11.334 -46 -14.001s-28 -4 -40 -4c-46.667 0 -83 12 -109 36s-39 60 -39 108c0 56 15.667 95.333 47 118s77.333 35.334 138 38.001l107 4c2.66699 34 7.66699 64 15 90
s17.333 48.667 30 68c-18.667 9.33301 -42.5 17 -71.5 23s-55.833 9 -80.5 9c-20.667 0 -42.667 -1.83301 -66 -5.5s-43 -9.16699 -59 -16.5c-2 7.33301 -3.5 15.833 -4.5 25.5s-1.5 18.167 -1.5 25.5c25.333 7.33301 47.666 12.333 66.999 15s40.333 4 63 4
c34 0 67 -3.33301 99 -10s60.333 -18 85 -34c18 15.333 36.667 26.5 56 33.5s40.666 10.5 63.999 10.5c58.667 0 103.334 -17.167 134.001 -51.5s46 -82.5 46 -144.5zM209.001 37.999c26.667 0 52.834 4.50098 78.501 13.501s53.167 26.833 82.5 53.5
c-8.66699 19.333 -14.834 41.166 -18.501 65.499s-5.5 52.5 -5.5 84.5l-107 -4c-44.667 -1.33301 -77.167 -10.833 -97.5 -28.5s-30.5 -46.5 -30.5 -86.5c0 -36 7.83301 -61.333 23.5 -76s40.5 -22 74.5 -22zM670.001 304c0.666992 5.33301 1.00195 11.332 1.00195 17.999
v17c0 53.333 -11.667 91.333 -35 114s-55 34 -95 34c-20 0 -38.333 -3.5 -55 -10.5s-31.334 -18.167 -44.001 -33.5s-22.834 -35.166 -30.501 -59.499s-12.167 -53.833 -13.5 -88.5l272 9v0z" />
    <glyph glyph-name="ccedilla" unicode="&#xe7;" horiz-adv-x="479" 
d="M429 23c-9.33301 -6 -19.9951 -11.167 -31.9951 -15.5s-24.333 -7.66602 -37 -9.99902s-24.834 -4.16602 -36.501 -5.49902s-22.167 -2 -31.5 -2c-75.333 0 -131.166 22 -167.499 66s-54.5 109.333 -54.5 196c0 50.667 5.5 93.667 16.5 129s26 64.166 45 86.499
s41.333 38.666 67 48.999s53.167 15.5 82.5 15.5c9.33301 0 19.666 -0.5 30.999 -1.5s23 -2.33301 35 -4s23.667 -4 35 -7s21.666 -6.5 30.999 -10.5c-0.666992 -7.33301 -1.83398 -15.833 -3.50098 -25.5s-4.16699 -18.167 -7.5 -25.5
c-19.333 8.66699 -39.166 14.834 -59.499 18.501s-40.5 5.5 -60.5 5.5c-22.667 0 -43.667 -3.5 -63 -10.5s-35.666 -18.667 -48.999 -35s-23.833 -37.833 -31.5 -64.5s-11.5 -60 -11.5 -100c0 -45.333 3.5 -82.833 10.5 -112.5s17.333 -53.334 31 -71.001
s30.667 -30.167 51 -37.5s44.166 -11 71.499 -11c21.333 0 43.166 2.5 65.499 7.5s41.833 13.167 58.5 24.5c3.33301 -6.66699 6.16602 -14.5 8.49902 -23.5s4.16602 -17.5 5.49902 -25.5zM367.005 -121c0 -30 -10 -53.333 -30 -70s-51 -25 -93 -25
c-8.66699 0 -18.334 0.333008 -29.001 1s-20.667 2 -30 4c-2 12 -3 27.667 -3 47c10.667 -3.33301 22 -5.5 34 -6.5s22 -1.5 30 -1.5c19.333 0 35.833 3.5 49.5 10.5s20.5 21.167 20.5 42.5c0 18.667 -5.16699 31.5 -15.5 38.5s-26.166 10.5 -47.499 10.5
c-6 0 -13.5 -0.166992 -22.5 -0.5s-16.167 -0.833008 -21.5 -1.5c0.666992 6 1.5 12.333 2.5 19s2.5 13.667 4.5 21h51c32 0 56.667 -7.83301 74 -23.5s26 -37.5 26 -65.5z" />
    <glyph glyph-name="egrave" unicode="&#xe8;" horiz-adv-x="516" 
d="M452 336c0 -11.333 -0.165039 -23.334 -0.498047 -36.001s-0.833008 -25 -1.5 -37h-324v-6c0 -36 2.83301 -67.5 8.5 -94.5s15.167 -49.667 28.5 -68s30.833 -32 52.5 -41s48.834 -13.5 81.501 -13.5c24 0 47.5 3.33301 70.5 10s41.833 14.667 56.5 24
c3.33301 -7.33301 6.66602 -15.333 9.99902 -24s5.66602 -16.667 6.99902 -24c-17.333 -11.333 -39.5 -20.166 -66.5 -26.499s-53.833 -9.5 -80.5 -9.5c-74.667 0 -130.667 21.333 -168 64s-56 109.334 -56 200.001c0 50 5.16699 92.667 15.5 128
s24.666 64.166 42.999 86.499s39.833 38.5 64.5 48.5s51 15 79 15c56 0 100 -16.333 132 -49s48 -81.667 48 -147zM270.002 486.999c-42 0 -75.667 -14.001 -101 -42.001s-39.333 -74.667 -42 -140h272c0.666992 4.66699 1 10.334 1 17.001v17
c0 53.333 -11.833 91.333 -35.5 114s-55.167 34 -94.5 34zM304.002 577.998c-4.66699 -2 -10.501 -3.5 -17.501 -4.5s-13.167 -1.5 -18.5 -1.5c-22 25.333 -42.167 51.833 -60.5 79.5s-32.166 54.167 -41.499 79.5h49l89 -153v0z" />
    <glyph glyph-name="eacute" unicode="&#xe9;" horiz-adv-x="516" 
d="M452 336c0 -11.333 -0.165039 -23.334 -0.498047 -36.001s-0.833008 -25 -1.5 -37h-324v-6c0 -36 2.83301 -67.5 8.5 -94.5s15.167 -49.667 28.5 -68s30.833 -32 52.5 -41s48.834 -13.5 81.501 -13.5c24 0 47.5 3.33301 70.5 10s41.833 14.667 56.5 24
c3.33301 -7.33301 6.66602 -15.333 9.99902 -24s5.66602 -16.667 6.99902 -24c-17.333 -11.333 -39.5 -20.166 -66.5 -26.499s-53.833 -9.5 -80.5 -9.5c-74.667 0 -130.667 21.333 -168 64s-56 109.334 -56 200.001c0 50 5.16699 92.667 15.5 128
s24.666 64.166 42.999 86.499s39.833 38.5 64.5 48.5s51 15 79 15c56 0 100 -16.333 132 -49s48 -81.667 48 -147zM270.002 486.999c-42 0 -75.667 -14.001 -101 -42.001s-39.333 -74.667 -42 -140h272c0.666992 4.66699 1 10.334 1 17.001v17
c0 53.333 -11.833 91.333 -35.5 114s-55.167 34 -94.5 34zM380.002 730.998c-9.33301 -25.333 -23.167 -51.833 -41.5 -79.5s-38.5 -54.167 -60.5 -79.5c-5.33301 0 -11.5 0.5 -18.5 1.5s-12.833 2.5 -17.5 4.5l89 153h49v0z" />
    <glyph glyph-name="ecircumflex" unicode="&#xea;" horiz-adv-x="516" 
d="M452 336c0 -11.333 -0.165039 -23.334 -0.498047 -36.001s-0.833008 -25 -1.5 -37h-324v-6c0 -36 2.83301 -67.5 8.5 -94.5s15.167 -49.667 28.5 -68s30.833 -32 52.5 -41s48.834 -13.5 81.501 -13.5c24 0 47.5 3.33301 70.5 10s41.833 14.667 56.5 24
c3.33301 -7.33301 6.66602 -15.333 9.99902 -24s5.66602 -16.667 6.99902 -24c-17.333 -11.333 -39.5 -20.166 -66.5 -26.499s-53.833 -9.5 -80.5 -9.5c-74.667 0 -130.667 21.333 -168 64s-56 109.334 -56 200.001c0 50 5.16699 92.667 15.5 128
s24.666 64.166 42.999 86.499s39.833 38.5 64.5 48.5s51 15 79 15c56 0 100 -16.333 132 -49s48 -81.667 48 -147zM270.002 486.999c-42 0 -75.667 -14.001 -101 -42.001s-39.333 -74.667 -42 -140h272c0.666992 4.66699 1 10.334 1 17.001v17
c0 53.333 -11.833 91.333 -35.5 114s-55.167 34 -94.5 34zM406.002 577.998c-6 -2 -12.6689 -3.5 -20.002 -4.5s-14.666 -1.5 -21.999 -1.5l-91 120l-91 -120c-5.33301 0 -12 0.5 -20 1.5s-14.667 2.16699 -20 3.5c18.667 30 36.334 56.833 53.001 80.5l54 73.5h51l54.5 -74
c17 -24 34.167 -50.333 51.5 -79z" />
    <glyph glyph-name="edieresis" unicode="&#xeb;" horiz-adv-x="516" 
d="M452 336c0 -11.333 -0.165039 -23.334 -0.498047 -36.001s-0.833008 -25 -1.5 -37h-324v-6c0 -36 2.83301 -67.5 8.5 -94.5s15.167 -49.667 28.5 -68s30.833 -32 52.5 -41s48.834 -13.5 81.501 -13.5c24 0 47.5 3.33301 70.5 10s41.833 14.667 56.5 24
c3.33301 -7.33301 6.66602 -15.333 9.99902 -24s5.66602 -16.667 6.99902 -24c-17.333 -11.333 -39.5 -20.166 -66.5 -26.499s-53.833 -9.5 -80.5 -9.5c-74.667 0 -130.667 21.333 -168 64s-56 109.334 -56 200.001c0 50 5.16699 92.667 15.5 128
s24.666 64.166 42.999 86.499s39.833 38.5 64.5 48.5s51 15 79 15c56 0 100 -16.333 132 -49s48 -81.667 48 -147zM270.002 486.999c-42 0 -75.667 -14.001 -101 -42.001s-39.333 -74.667 -42 -140h272c0.666992 4.66699 1 10.334 1 17.001v17
c0 53.333 -11.833 91.333 -35.5 114s-55.167 34 -94.5 34zM225.002 626.998c0 -11.333 -3.16602 -20.333 -9.49902 -27s-14.5 -10 -24.5 -10s-18.167 3.5 -24.5 10.5s-9.5 15.833 -9.5 26.5s3.16699 19.667 9.5 27s14.833 11 25.5 11c9.33301 0 17.166 -3.66699 23.499 -11
s9.5 -16.333 9.5 -27zM392.003 626.998c0 -11.333 -3.16602 -20.333 -9.49902 -27s-14.5 -10 -24.5 -10s-18 3.5 -24 10.5s-9 15.833 -9 26.5s3 19.667 9 27s14.333 11 25 11c9.33301 0 17.166 -3.66699 23.499 -11s9.5 -16.333 9.5 -27z" />
    <glyph glyph-name="igrave" unicode="&#xec;" horiz-adv-x="272" 
d="M110 0v522h53v-522h-53zM161 578c-4.66699 -2 -10.501 -3.5 -17.501 -4.5s-13.167 -1.5 -18.5 -1.5c-22 25.333 -42.167 51.833 -60.5 79.5s-32.166 54.167 -41.499 79.5h49l89 -153v0z" />
    <glyph glyph-name="iacute" unicode="&#xed;" horiz-adv-x="272" 
d="M110 0v522h53v-522h-53zM251 731c-9.33301 -25.333 -23.167 -51.833 -41.5 -79.5s-38.5 -54.167 -60.5 -79.5c-5.33301 0 -11.5 0.5 -18.5 1.5s-12.833 2.5 -17.5 4.5l89 153h49v0z" />
    <glyph glyph-name="icircumflex" unicode="&#xee;" horiz-adv-x="272" 
d="M110 0v522h53v-522h-53zM268 578c-6 -2 -12.6689 -3.5 -20.002 -4.5s-14.666 -1.5 -21.999 -1.5l-91 120l-91 -120c-5.33301 0 -12 0.5 -20 1.5s-14.667 2.16699 -20 3.5c18.667 30 36.334 56.833 53.001 80.5l54 73.5h51l54.5 -74c17 -24 34.167 -50.333 51.5 -79z" />
    <glyph glyph-name="idieresis" unicode="&#xef;" horiz-adv-x="272" 
d="M110 0v522h53v-522h-53zM87 627c0 -11.333 -3.16602 -20.333 -9.49902 -27s-14.5 -10 -24.5 -10s-18.167 3.5 -24.5 10.5s-9.5 15.833 -9.5 26.5s3.16699 19.667 9.5 27s14.833 11 25.5 11c9.33301 0 17.166 -3.66699 23.499 -11s9.5 -16.333 9.5 -27zM254.001 627
c0 -11.333 -3.16602 -20.333 -9.49902 -27s-14.5 -10 -24.5 -10s-18 3.5 -24 10.5s-9 15.833 -9 26.5s3 19.667 9 27s14.333 11 25 11c9.33301 0 17.166 -3.66699 23.499 -11s9.5 -16.333 9.5 -27z" />
    <glyph glyph-name="eth" unicode="&#xf0;" horiz-adv-x="539" 
d="M479 366c0 -63.333 -3.66602 -118.665 -10.999 -165.998s-19 -86.5 -35 -117.5s-36.833 -54.167 -62.5 -69.5s-57.167 -23 -94.5 -23c-69.333 0 -121 20.667 -155 62s-51 108.666 -51 201.999c0 88 20.167 155.5 60.5 202.5s96.833 70.5 169.5 70.5
c37.333 0 76 -5.66699 116 -17c-1.33301 11.333 -2.83301 21.833 -4.5 31.5s-3.83398 19.167 -6.50098 28.5c-12 45.333 -30.833 77.166 -56.5 95.499s-60.167 28.166 -103.5 29.499l-48 -107c-7.33301 0.666992 -14.333 1.5 -21 2.5s-13.334 2.5 -20.001 4.5l44 99
c-18.667 -1.33301 -37.667 -4.33301 -57 -9s-35.666 -10 -48.999 -16c0 10 0.333008 20 1 30s1.66699 17 3 21c17.333 8 37.5 13.833 60.5 17.5s44.167 5.83398 63.5 6.50098l32 71c6 0 12.833 -0.833008 20.5 -2.5s14.5 -4.16699 20.5 -7.5l-28 -63
c32 -2.66699 61 -10.167 87 -22.5s48.333 -32.5 67 -60.5s33 -65.667 43 -113s15 -107.333 15 -180zM424.001 355.001c0 19.333 -0.336914 37.6689 -1.00391 55.002s-1.66699 34 -3 50c-18 6 -37.333 10.833 -58 14.5s-41 5.5 -61 5.5c-26 0 -49.667 -3.83301 -71 -11.5
s-39.666 -20.167 -54.999 -37.5s-27.166 -39.833 -35.499 -67.5s-12.5 -61.834 -12.5 -102.501c0 -42.667 2.66699 -78.167 8 -106.5s13.833 -51 25.5 -68s26.834 -29 45.501 -36s41.334 -10.5 68.001 -10.5s49.5 4.16699 68.5 12.5s34.5 24.166 46.5 47.499
s20.833 55.5 26.5 96.5s8.5 93.833 8.5 158.5z" />
    <glyph glyph-name="ntilde" unicode="&#xf1;" horiz-adv-x="583" 
d="M425 0l0.00195312 381c0 30 -7.66699 54.167 -23 72.5s-41 27.5 -77 27.5c-32.667 0 -61.5 -4.5 -86.5 -13.5s-50.167 -22.167 -75.5 -39.5v-428h-53v519c6 1.33301 14.5 2.5 25.5 3.5s20.167 1.5 27.5 1.5v-51h3c25.333 20.667 51.666 35.667 78.999 45
s56.666 14 87.999 14c19.333 0 37.833 -2.33301 55.5 -7s33.167 -13 46.5 -25s23.833 -28 31.5 -48s11.5 -45 11.5 -75v-377h-53zM132.002 580c4 21.333 9.00195 38.502 15.002 51.502s12.667 23 20 30s15.666 11.667 24.999 14s19 3.5 29 3.5c17.333 0 34.333 -5 51 -15
l53 -30c8.66699 -5.33301 15.834 -8.83301 21.501 -10.5s11.167 -2.5 16.5 -2.5c13.333 0 23.666 3.83301 30.999 11.5s13.333 26.167 18 55.5c14 0 27.667 -3.33301 41 -10c-4 -20.667 -8.66699 -37.334 -14 -50.001s-11.833 -22.667 -19.5 -30s-16 -12.333 -25 -15
s-19.167 -4 -30.5 -4c-7.33301 0 -15 1 -23 3s-17.333 6 -28 12l-53 30c-14.667 8.66699 -27.334 13 -38.001 13c-7.33301 0 -13.5 -0.833008 -18.5 -2.5s-9.5 -4.83398 -13.5 -9.50098s-7.33301 -11.5 -10 -20.5s-5 -20.5 -7 -34.5c-14 0 -27.667 3.33301 -41 10z" />
    <glyph glyph-name="ograve" unicode="&#xf2;" horiz-adv-x="566" 
d="M496 261c0 -46.667 -5.50195 -87.167 -16.502 -121.5s-26.167 -62.5 -45.5 -84.5s-42.166 -38.333 -68.499 -49s-54.833 -16 -85.5 -16c-32 0 -61 5 -87 15s-48 25.833 -66 47.5s-32 49.667 -42 84s-15 75.833 -15 124.5c0 44 5.16699 82.833 15.5 116.5s25 62 44 85
s41.5 40.333 67.5 52s55 17.5 87 17.5c30.667 0 59 -4.66699 85 -14s48.333 -24.833 67 -46.5s33.334 -49.667 44.001 -84s16 -76.5 16 -126.5zM438.998 261c0 42.667 -3.66895 78.3311 -11.002 106.998s-17.833 51.5 -31.5 68.5s-30 29 -49 36s-40.167 10.5 -63.5 10.5
c-21.333 0 -41.5 -3.16699 -60.5 -9.5s-35.667 -17.666 -50 -33.999s-25.666 -38.833 -33.999 -67.5s-12.5 -65.667 -12.5 -111c0 -43.333 3.5 -79.166 10.5 -107.499s17.167 -51 30.5 -68s29.5 -29 48.5 -36s40.5 -10.5 64.5 -10.5s45.667 3.33301 65 10
s35.833 18.5 49.5 35.5s24.334 39.833 32.001 68.5s11.5 64.667 11.5 108zM316.996 577.997c-4.66699 -2 -10.501 -3.5 -17.501 -4.5s-13.167 -1.5 -18.5 -1.5c-22 25.333 -42.167 51.833 -60.5 79.5s-32.166 54.167 -41.499 79.5h49l89 -153v0z" />
    <glyph glyph-name="oacute" unicode="&#xf3;" horiz-adv-x="566" 
d="M496 261c0 -46.667 -5.50195 -87.167 -16.502 -121.5s-26.167 -62.5 -45.5 -84.5s-42.166 -38.333 -68.499 -49s-54.833 -16 -85.5 -16c-32 0 -61 5 -87 15s-48 25.833 -66 47.5s-32 49.667 -42 84s-15 75.833 -15 124.5c0 44 5.16699 82.833 15.5 116.5s25 62 44 85
s41.5 40.333 67.5 52s55 17.5 87 17.5c30.667 0 59 -4.66699 85 -14s48.333 -24.833 67 -46.5s33.334 -49.667 44.001 -84s16 -76.5 16 -126.5zM438.998 261c0 42.667 -3.66895 78.3311 -11.002 106.998s-17.833 51.5 -31.5 68.5s-30 29 -49 36s-40.167 10.5 -63.5 10.5
c-21.333 0 -41.5 -3.16699 -60.5 -9.5s-35.667 -17.666 -50 -33.999s-25.666 -38.833 -33.999 -67.5s-12.5 -65.667 -12.5 -111c0 -43.333 3.5 -79.166 10.5 -107.499s17.167 -51 30.5 -68s29.5 -29 48.5 -36s40.5 -10.5 64.5 -10.5s45.667 3.33301 65 10
s35.833 18.5 49.5 35.5s24.334 39.833 32.001 68.5s11.5 64.667 11.5 108zM385.996 730.997c-9.33301 -25.333 -23.167 -51.833 -41.5 -79.5s-38.5 -54.167 -60.5 -79.5c-5.33301 0 -11.5 0.5 -18.5 1.5s-12.833 2.5 -17.5 4.5l89 153h49v0z" />
    <glyph glyph-name="ocircumflex" unicode="&#xf4;" horiz-adv-x="566" 
d="M496 261c0 -46.667 -5.50195 -87.167 -16.502 -121.5s-26.167 -62.5 -45.5 -84.5s-42.166 -38.333 -68.499 -49s-54.833 -16 -85.5 -16c-32 0 -61 5 -87 15s-48 25.833 -66 47.5s-32 49.667 -42 84s-15 75.833 -15 124.5c0 44 5.16699 82.833 15.5 116.5s25 62 44 85
s41.5 40.333 67.5 52s55 17.5 87 17.5c30.667 0 59 -4.66699 85 -14s48.333 -24.833 67 -46.5s33.334 -49.667 44.001 -84s16 -76.5 16 -126.5zM438.998 261c0 42.667 -3.66895 78.3311 -11.002 106.998s-17.833 51.5 -31.5 68.5s-30 29 -49 36s-40.167 10.5 -63.5 10.5
c-21.333 0 -41.5 -3.16699 -60.5 -9.5s-35.667 -17.666 -50 -33.999s-25.666 -38.833 -33.999 -67.5s-12.5 -65.667 -12.5 -111c0 -43.333 3.5 -79.166 10.5 -107.499s17.167 -51 30.5 -68s29.5 -29 48.5 -36s40.5 -10.5 64.5 -10.5s45.667 3.33301 65 10
s35.833 18.5 49.5 35.5s24.334 39.833 32.001 68.5s11.5 64.667 11.5 108zM417.996 577.997c-6 -2 -12.6689 -3.5 -20.002 -4.5s-14.666 -1.5 -21.999 -1.5l-91 120l-91 -120c-5.33301 0 -12 0.5 -20 1.5s-14.667 2.16699 -20 3.5c18.667 30 36.334 56.833 53.001 80.5
l54 73.5h51l54.5 -74c17 -24 34.167 -50.333 51.5 -79z" />
    <glyph glyph-name="otilde" unicode="&#xf5;" horiz-adv-x="566" 
d="M496 261c0 -46.667 -5.50195 -87.167 -16.502 -121.5s-26.167 -62.5 -45.5 -84.5s-42.166 -38.333 -68.499 -49s-54.833 -16 -85.5 -16c-32 0 -61 5 -87 15s-48 25.833 -66 47.5s-32 49.667 -42 84s-15 75.833 -15 124.5c0 44 5.16699 82.833 15.5 116.5s25 62 44 85
s41.5 40.333 67.5 52s55 17.5 87 17.5c30.667 0 59 -4.66699 85 -14s48.333 -24.833 67 -46.5s33.334 -49.667 44.001 -84s16 -76.5 16 -126.5zM438.998 261c0 42.667 -3.66895 78.3311 -11.002 106.998s-17.833 51.5 -31.5 68.5s-30 29 -49 36s-40.167 10.5 -63.5 10.5
c-21.333 0 -41.5 -3.16699 -60.5 -9.5s-35.667 -17.666 -50 -33.999s-25.666 -38.833 -33.999 -67.5s-12.5 -65.667 -12.5 -111c0 -43.333 3.5 -79.166 10.5 -107.499s17.167 -51 30.5 -68s29.5 -29 48.5 -36s40.5 -10.5 64.5 -10.5s45.667 3.33301 65 10
s35.833 18.5 49.5 35.5s24.334 39.833 32.001 68.5s11.5 64.667 11.5 108zM124.996 579.997c4 21.333 9.00195 38.502 15.002 51.502s12.667 23 20 30s15.666 11.667 24.999 14s19 3.5 29 3.5c17.333 0 34.333 -5 51 -15l53 -30
c8.66699 -5.33301 15.834 -8.83301 21.501 -10.5s11.167 -2.5 16.5 -2.5c13.333 0 23.666 3.83301 30.999 11.5s13.333 26.167 18 55.5c14 0 27.667 -3.33301 41 -10c-4 -20.667 -8.66699 -37.334 -14 -50.001s-11.833 -22.667 -19.5 -30s-16 -12.333 -25 -15
s-19.167 -4 -30.5 -4c-7.33301 0 -15 1 -23 3s-17.333 6 -28 12l-53 30c-14.667 8.66699 -27.334 13 -38.001 13c-7.33301 0 -13.5 -0.833008 -18.5 -2.5s-9.5 -4.83398 -13.5 -9.50098s-7.33301 -11.5 -10 -20.5s-5 -20.5 -7 -34.5c-14 0 -27.667 3.33301 -41 10z" />
    <glyph glyph-name="odieresis" unicode="&#xf6;" horiz-adv-x="566" 
d="M496 261c0 -46.667 -5.50195 -87.167 -16.502 -121.5s-26.167 -62.5 -45.5 -84.5s-42.166 -38.333 -68.499 -49s-54.833 -16 -85.5 -16c-32 0 -61 5 -87 15s-48 25.833 -66 47.5s-32 49.667 -42 84s-15 75.833 -15 124.5c0 44 5.16699 82.833 15.5 116.5s25 62 44 85
s41.5 40.333 67.5 52s55 17.5 87 17.5c30.667 0 59 -4.66699 85 -14s48.333 -24.833 67 -46.5s33.334 -49.667 44.001 -84s16 -76.5 16 -126.5zM438.998 261c0 42.667 -3.66895 78.3311 -11.002 106.998s-17.833 51.5 -31.5 68.5s-30 29 -49 36s-40.167 10.5 -63.5 10.5
c-21.333 0 -41.5 -3.16699 -60.5 -9.5s-35.667 -17.666 -50 -33.999s-25.666 -38.833 -33.999 -67.5s-12.5 -65.667 -12.5 -111c0 -43.333 3.5 -79.166 10.5 -107.499s17.167 -51 30.5 -68s29.5 -29 48.5 -36s40.5 -10.5 64.5 -10.5s45.667 3.33301 65 10
s35.833 18.5 49.5 35.5s24.334 39.833 32.001 68.5s11.5 64.667 11.5 108zM235.996 626.997c0 -11.333 -3.16602 -20.333 -9.49902 -27s-14.5 -10 -24.5 -10s-18.167 3.5 -24.5 10.5s-9.5 15.833 -9.5 26.5s3.16699 19.667 9.5 27s14.833 11 25.5 11
c9.33301 0 17.166 -3.66699 23.499 -11s9.5 -16.333 9.5 -27zM402.997 626.997c0 -11.333 -3.16602 -20.333 -9.49902 -27s-14.5 -10 -24.5 -10s-18 3.5 -24 10.5s-9 15.833 -9 26.5s3 19.667 9 27s14.333 11 25 11c9.33301 0 17.166 -3.66699 23.499 -11
s9.5 -16.333 9.5 -27z" />
    <glyph glyph-name="divide" unicode="&#xf7;" horiz-adv-x="407" 
d="M237 81c0 -11.333 -3.16602 -20.168 -9.49902 -26.501s-14.5 -9.5 -24.5 -9.5s-18 3.33301 -24 10s-9 15.334 -9 26.001c0 11.333 3 20.5 9 27.5s14.333 10.5 25 10.5c9.33301 0 17.166 -3.5 23.499 -10.5s9.5 -16.167 9.5 -27.5zM237.001 461.998
c0 -11.333 -3.16602 -20.168 -9.49902 -26.501s-14.5 -9.5 -24.5 -9.5s-18 3.33301 -24 10s-9 15.334 -9 26.001c0 11.333 3 20.5 9 27.5s14.333 10.5 25 10.5c9.33301 0 17.166 -3.5 23.499 -10.5s9.5 -16.167 9.5 -27.5zM68.002 252.996v42h271v-42h-271z" />
    <glyph glyph-name="oslash" unicode="&#xf8;" horiz-adv-x="566" 
d="M496 261c0 -46.667 -5.50293 -87.165 -16.5029 -121.498s-26.167 -62.5 -45.5 -84.5s-42.166 -38.333 -68.499 -49s-54.833 -16 -85.5 -16c-42.667 0 -79.667 9 -111 27l-50 -92h-38l61 112c-23.333 21.333 -41.166 50.166 -53.499 86.499s-18.5 82.166 -18.5 137.499
c0 44 5.16699 82.833 15.5 116.5s25 62 44 85s41.5 40.333 67.5 52s55 17.5 87 17.5c21.333 0 41.5 -2.33301 60.5 -7s36.5 -11.667 52.5 -21l46 85h38l-57 -105c22.667 -21.333 40.334 -50 53.001 -86s19 -81.667 19 -137zM126.997 261.002
c0 -43.333 3.49902 -79.1699 10.499 -107.503s17.167 -51.166 30.5 -68.499l204 374c-12 8.66699 -25.333 14.834 -40 18.501s-30.667 5.5 -48 5.5c-21.333 0 -41.5 -3.16699 -60.5 -9.5s-35.667 -17.666 -50 -33.999s-25.666 -38.833 -33.999 -67.5
s-12.5 -65.667 -12.5 -111zM438.996 260.998c0 42.667 -3.66895 78 -11.002 106s-17.666 50.667 -30.999 68l-204 -374c12 -8 25.333 -13.667 40 -17s30.667 -5 48 -5c24 0 45.667 3.33301 65 10s35.833 18.5 49.5 35.5s24.334 39.833 32.001 68.5s11.5 64.667 11.5 108z
" />
    <glyph glyph-name="ugrave" unicode="&#xf9;" horiz-adv-x="578" 
d="M415 0l-0.000976562 45h-3c-26.667 -17.333 -53 -30.833 -79 -40.5s-55 -14.5 -87 -14.5c-19.333 0 -37.5 2.33301 -54.5 7s-32 13 -45 25s-23.167 27.833 -30.5 47.5s-11 44.5 -11 74.5v375c6.66699 1.33301 15.334 2.5 26.001 3.5s19.667 1.5 27 1.5v-383
c0 -30 7.16699 -54.167 21.5 -72.5s39.166 -27.5 74.499 -27.5c32.667 0 61.834 4.5 87.501 13.5s50.167 21.167 73.5 36.5v428c6 1.33301 14.5 2.5 25.5 3.5s20.167 1.5 27.5 1.5v-524h-53zM312.999 578c-4.66699 -2 -10.501 -3.5 -17.501 -4.5s-13.167 -1.5 -18.5 -1.5
c-22 25.333 -42.167 51.833 -60.5 79.5s-32.166 54.167 -41.499 79.5h49l89 -153v0z" />
    <glyph glyph-name="uacute" unicode="&#xfa;" horiz-adv-x="578" 
d="M415 0l-0.000976562 45h-3c-26.667 -17.333 -53 -30.833 -79 -40.5s-55 -14.5 -87 -14.5c-19.333 0 -37.5 2.33301 -54.5 7s-32 13 -45 25s-23.167 27.833 -30.5 47.5s-11 44.5 -11 74.5v375c6.66699 1.33301 15.334 2.5 26.001 3.5s19.667 1.5 27 1.5v-383
c0 -30 7.16699 -54.167 21.5 -72.5s39.166 -27.5 74.499 -27.5c32.667 0 61.834 4.5 87.501 13.5s50.167 21.167 73.5 36.5v428c6 1.33301 14.5 2.5 25.5 3.5s20.167 1.5 27.5 1.5v-524h-53zM392.999 731c-9.33301 -25.333 -23.167 -51.833 -41.5 -79.5
s-38.5 -54.167 -60.5 -79.5c-5.33301 0 -11.5 0.5 -18.5 1.5s-12.833 2.5 -17.5 4.5l89 153h49v0z" />
    <glyph glyph-name="ucircumflex" unicode="&#xfb;" horiz-adv-x="578" 
d="M415 0l-0.000976562 45h-3c-26.667 -17.333 -53 -30.833 -79 -40.5s-55 -14.5 -87 -14.5c-19.333 0 -37.5 2.33301 -54.5 7s-32 13 -45 25s-23.167 27.833 -30.5 47.5s-11 44.5 -11 74.5v375c6.66699 1.33301 15.334 2.5 26.001 3.5s19.667 1.5 27 1.5v-383
c0 -30 7.16699 -54.167 21.5 -72.5s39.166 -27.5 74.499 -27.5c32.667 0 61.834 4.5 87.501 13.5s50.167 21.167 73.5 36.5v428c6 1.33301 14.5 2.5 25.5 3.5s20.167 1.5 27.5 1.5v-524h-53zM420.999 578c-6 -2 -12.6689 -3.5 -20.002 -4.5s-14.666 -1.5 -21.999 -1.5
l-91 120l-91 -120c-5.33301 0 -12 0.5 -20 1.5s-14.667 2.16699 -20 3.5c18.667 30 36.334 56.833 53.001 80.5l54 73.5h51l54.5 -74c17 -24 34.167 -50.333 51.5 -79z" />
    <glyph glyph-name="udieresis" unicode="&#xfc;" horiz-adv-x="578" 
d="M415 0l-0.000976562 45h-3c-26.667 -17.333 -53 -30.833 -79 -40.5s-55 -14.5 -87 -14.5c-19.333 0 -37.5 2.33301 -54.5 7s-32 13 -45 25s-23.167 27.833 -30.5 47.5s-11 44.5 -11 74.5v375c6.66699 1.33301 15.334 2.5 26.001 3.5s19.667 1.5 27 1.5v-383
c0 -30 7.16699 -54.167 21.5 -72.5s39.166 -27.5 74.499 -27.5c32.667 0 61.834 4.5 87.501 13.5s50.167 21.167 73.5 36.5v428c6 1.33301 14.5 2.5 25.5 3.5s20.167 1.5 27.5 1.5v-524h-53zM237.999 627c0 -11.333 -3.16602 -20.333 -9.49902 -27s-14.5 -10 -24.5 -10
s-18.167 3.5 -24.5 10.5s-9.5 15.833 -9.5 26.5s3.16699 19.667 9.5 27s14.833 11 25.5 11c9.33301 0 17.166 -3.66699 23.499 -11s9.5 -16.333 9.5 -27zM405 627c0 -11.333 -3.16602 -20.333 -9.49902 -27s-14.5 -10 -24.5 -10s-18 3.5 -24 10.5s-9 15.833 -9 26.5
s3 19.667 9 27s14.333 11 25 11c9.33301 0 17.166 -3.66699 23.499 -11s9.5 -16.333 9.5 -27z" />
    <glyph glyph-name="yacute" unicode="&#xfd;" horiz-adv-x="504" 
d="M469 519l-8.49902 -26.0029l-23 -69l-33.5 -98l-39.5 -113.5l-41.5 -115l-39 -103.5c-14 -36 -27.833 -67.167 -41.5 -93.5s-28.167 -48.166 -43.5 -65.499s-31.833 -30.166 -49.5 -38.499s-37.167 -12.5 -58.5 -12.5c-12 0 -25.167 1.16699 -39.5 3.5
s-29.166 7.5 -44.499 15.5c1.33301 8.66699 3.16602 17.334 5.49902 26.001s5.16602 16.334 8.49902 23.001c20.667 -10.667 45.334 -16 74.001 -16c19.333 0 37 5.33301 53 16s30.667 31.667 44 63l38 86l-49 125.5l-48.5 132l-45.5 132.5l-41 128
c6.66699 2 15.167 3.5 25.5 4.5s19.166 1.5 26.499 1.5l141 -414c3.33301 -10 6.5 -20 9.5 -30s5.5 -20.667 7.5 -32h3c4 21.333 9.66699 42.666 17 63.999l141 412c6.66699 0 15.5 -0.5 26.5 -1.5s19.5 -2.5 25.5 -4.5zM363.001 730.997
c-9.33301 -25.333 -23.167 -51.833 -41.5 -79.5s-38.5 -54.167 -60.5 -79.5c-5.33301 0 -11.5 0.5 -18.5 1.5s-12.833 2.5 -17.5 4.5l89 153h49v0z" />
    <glyph glyph-name="thorn" unicode="&#xfe;" horiz-adv-x="573" 
d="M503 277c0 -50.667 -5.33105 -94.168 -15.998 -130.501s-25.834 -66.166 -45.501 -89.499s-43.667 -40.333 -72 -51s-60.5 -16 -96.5 -16c-38 0 -74.667 7.33301 -110 22v-218h-53v944c6 1.33301 14.5 2.66602 25.5 3.99902s20.167 2 27.5 2v-267h3
c26.667 21.333 52.167 35.833 76.5 43.5s50.5 11.5 78.5 11.5c26 0 50 -4.5 72 -13.5s41.167 -23.5 57.5 -43.5s29.166 -46.167 38.499 -78.5s14 -72.166 14 -119.499zM446.002 268.999c0 42.667 -3.16797 77.668 -9.50098 105.001s-15.5 49 -27.5 65
s-26.5 27.167 -43.5 33.5s-36.167 9.5 -57.5 9.5c-48.667 0 -97 -16.667 -145 -50v-369c17.333 -8 35.833 -14 55.5 -18s39.167 -6 58.5 -6c27.333 0 51.333 3.83301 72 11.5s38.334 20.5 53.001 38.5s25.667 41.667 33 71s11 65.666 11 108.999z" />
    <glyph glyph-name="ydieresis" unicode="&#xff;" horiz-adv-x="504" 
d="M469 519l-8.49902 -26.0029l-23 -69l-33.5 -98l-39.5 -113.5l-41.5 -115l-39 -103.5c-14 -36 -27.833 -67.167 -41.5 -93.5s-28.167 -48.166 -43.5 -65.499s-31.833 -30.166 -49.5 -38.499s-37.167 -12.5 -58.5 -12.5c-12 0 -25.167 1.16699 -39.5 3.5
s-29.166 7.5 -44.499 15.5c1.33301 8.66699 3.16602 17.334 5.49902 26.001s5.16602 16.334 8.49902 23.001c20.667 -10.667 45.334 -16 74.001 -16c19.333 0 37 5.33301 53 16s30.667 31.667 44 63l38 86l-49 125.5l-48.5 132l-45.5 132.5l-41 128
c6.66699 2 15.167 3.5 25.5 4.5s19.166 1.5 26.499 1.5l141 -414c3.33301 -10 6.5 -20 9.5 -30s5.5 -20.667 7.5 -32h3c4 21.333 9.66699 42.666 17 63.999l141 412c6.66699 0 15.5 -0.5 26.5 -1.5s19.5 -2.5 25.5 -4.5zM213.001 626.997
c0 -11.333 -3.16602 -20.333 -9.49902 -27s-14.5 -10 -24.5 -10s-18.167 3.5 -24.5 10.5s-9.5 15.833 -9.5 26.5s3.16699 19.667 9.5 27s14.833 11 25.5 11c9.33301 0 17.166 -3.66699 23.499 -11s9.5 -16.333 9.5 -27zM380.002 626.997
c0 -11.333 -3.16602 -20.333 -9.49902 -27s-14.5 -10 -24.5 -10s-18 3.5 -24 10.5s-9 15.833 -9 26.5s3 19.667 9 27s14.333 11 25 11c9.33301 0 17.166 -3.66699 23.499 -11s9.5 -16.333 9.5 -27z" />
    <glyph glyph-name="dotlessi" unicode="&#x131;" horiz-adv-x="272" 
d="M110 0v522h53v-522h-53z" />
    <glyph glyph-name="Lslash" unicode="&#x141;" horiz-adv-x="495" 
d="M465 50c0 -16.667 -2.33301 -33.332 -7 -49.999h-348v331l-65 -23v51l65 23v292h57v-272l104 37c0 -20.667 -2.33301 -38.334 -7 -53.001l-97 -35v-301h298v0z" />
    <glyph glyph-name="lslash" unicode="&#x142;" horiz-adv-x="273" 
d="M107 0v340.002l-60 -20v51l60 20v347c6 1.33301 14.5 2.66602 25.5 3.99902s20.167 2 27.5 2v-335l68 23c0 -20.667 -2.33301 -38.334 -7 -53.001l-61 -21v-358h-53z" />
    <glyph glyph-name="OE" unicode="&#x152;" horiz-adv-x="959" 
d="M897 50c0 -16.667 -1.66895 -33.334 -5.00195 -50.001h-366v89h-3c-19.333 -33.333 -45.666 -58.166 -78.999 -74.499s-70.333 -24.5 -111 -24.5c-175.333 0 -263 114.333 -263 343c0 110 22 196 66 258s109 93 195 93c44 0 82.333 -8 115 -24s58.334 -40 77.001 -72h3
v86h355c0 -8.66699 -0.5 -17 -1.5 -25s-2.16699 -16.333 -3.5 -25h-300v-242h232v-50h-232v-282h321v0zM525.998 337c0 54 -3.83301 99.833 -11.5 137.5s-19.5 68.334 -35.5 92.001s-36.167 40.834 -60.5 51.501s-53.5 16 -87.5 16s-63.5 -5.5 -88.5 -16.5
s-45.833 -28.333 -62.5 -52s-29 -54.334 -37 -92.001s-12 -83.167 -12 -136.5c0 -101.333 15.333 -176.333 46 -225s82.667 -73 156 -73c36 0 66.333 5.66699 91 17s44.5 29.166 59.5 53.499s25.833 55.333 32.5 93s10 82.5 10 134.5z" />
    <glyph glyph-name="oe" unicode="&#x153;" horiz-adv-x="878" 
d="M814 339c0 -11.333 -0.165039 -23.8311 -0.498047 -37.498s-0.833008 -26.5 -1.5 -38.5h-324v-7c0 -74.667 13 -129.334 39 -164.001s70 -52 132 -52c23.333 0 46.666 3.16699 69.999 9.5s42.333 14.5 57 24.5c3.33301 -6 6.66602 -14 9.99902 -24
s5.66602 -18 6.99902 -24c-18 -11.333 -40.167 -20.166 -66.5 -26.499s-52.833 -9.5 -79.5 -9.5c-103.333 0 -168.666 41.333 -195.999 124c-17.333 -43.333 -41.333 -74.833 -72 -94.5s-67 -29.5 -109 -29.5c-68 0 -120 21.667 -156 65s-54 112 -54 206
c0 42 4.83301 79.833 14.5 113.5s23.667 62.167 42 85.5s40.833 41.166 67.5 53.499s56.667 18.5 90 18.5c44.667 0 82.167 -10.333 112.5 -31s52.5 -52.334 66.5 -95.001c13.333 44 35.166 76 65.499 96s65.5 30 105.5 30c56.667 0 100.834 -16.667 132.501 -50
s47.5 -81 47.5 -143zM439.002 261.002c0 41.333 -3.5 76.166 -10.5 104.499s-17.167 51.166 -30.5 68.499s-29.666 29.833 -48.999 37.5s-41 11.5 -65 11.5c-22.667 0 -43.667 -3.33301 -63 -10s-36 -18.5 -50 -35.5s-24.833 -39.833 -32.5 -68.5s-11.5 -64.667 -11.5 -108
c0 -42 3.33301 -77.167 10 -105.5s16.5 -51.166 29.5 -68.499s29.167 -29.666 48.5 -36.999s41.333 -11 66 -11c25.333 0 47.666 3.66699 66.999 11s35.833 19.5 49.5 36.5s24 39.833 31 68.5s10.5 64 10.5 106zM761.002 305.002c0.666992 6 1 12 1 18v16
c0 54 -11.667 92.167 -35 114.5s-55 33.5 -95 33.5c-20 0 -38.333 -3 -55 -9s-31.167 -16 -43.5 -30s-22.333 -32.667 -30 -56s-12.5 -52.333 -14.5 -87h272v0z" />
    <glyph glyph-name="Scaron" unicode="&#x160;" horiz-adv-x="510" 
d="M455 169c0 -24.667 -4.49902 -47.8389 -13.499 -69.5059s-22.167 -40.667 -39.5 -57s-38.833 -29.166 -64.5 -38.499s-55.167 -14 -88.5 -14c-13.333 0 -27.666 0.5 -42.999 1.5s-30.833 2.83301 -46.5 5.5s-31 5.83398 -46 9.50098s-28.833 8.5 -41.5 14.5
c1.33301 7.33301 3.33301 16.166 6 26.499s5.66699 18.833 9 25.5c28.667 -12.667 56 -21.167 82 -25.5s53.667 -6.5 83 -6.5c48 0 84.5 10.5 109.5 31.5s37.5 51.833 37.5 92.5c0 28.667 -8.16699 52.5 -24.5 71.5s-36.666 36 -60.999 51s-50.666 29.167 -78.999 42.5
s-54.666 28 -78.999 44s-44.666 34.5 -60.999 55.5s-24.5 47.167 -24.5 78.5c0 28 5.16699 53 15.5 75s24.666 40.5 42.999 55.5s40.5 26.333 66.5 34s54.667 11.5 86 11.5c10.667 0 22.334 -0.333008 35.001 -1s25.167 -1.5 37.5 -2.5s24.5 -2.5 36.5 -4.5s22.333 -4 31 -6
c0 -2 -0.333008 -5.33301 -1 -10s-1.5 -9.66699 -2.5 -15s-2.33301 -10.666 -4 -15.999l-4.5 -14c-19.333 6 -40.5 10.5 -63.5 13.5s-45.167 4.5 -66.5 4.5c-30.667 0 -55.834 -3 -75.501 -9s-35.334 -14.167 -47.001 -24.5s-19.667 -22.666 -24 -36.999
s-6.5 -29.833 -6.5 -46.5c0 -24.667 8.16699 -45.5 24.5 -62.5s36.666 -32.333 60.999 -46s50.666 -27.167 78.999 -40.5s54.666 -28.666 78.999 -45.999s44.666 -38.166 60.999 -62.499s24.5 -54.166 24.5 -89.499zM145.001 811.995c6 2 13.1689 3.50195 21.502 4.50195
s16.166 1.5 23.499 1.5l88 -82l88 82c5.33301 0 12.5 -0.5 21.5 -1.5s16.167 -2.16699 21.5 -3.5l-29.5 -33l-23 -25.5l-21.5 -22.5l-25 -24h-67c-18.667 17.333 -35.334 33.666 -50.001 48.999s-30.667 33.666 -48 54.999z" />
    <glyph glyph-name="scaron" unicode="&#x161;" horiz-adv-x="444" 
d="M379 135c0 -24.667 -4.67188 -46.168 -14.0049 -64.501s-22 -33.5 -38 -45.5s-34.833 -20.833 -56.5 -26.5s-45.167 -8.5 -70.5 -8.5c-23.333 0 -47.666 2.16699 -72.999 6.5s-47.666 11.833 -66.999 22.5c2 8 4.33301 16.333 7 25s5.66699 16.667 9 24
c20.667 -10.667 42.667 -18.167 66 -22.5s47.333 -6.5 72 -6.5c39.333 0 67.333 7.66699 84 23s25 37.333 25 66c0 22 -6.16699 40.167 -18.5 54.5s-27.833 27 -46.5 38s-39 21.167 -61 30.5s-42.333 19.833 -61 31.5s-34.167 25.5 -46.5 41.5s-18.5 36 -18.5 60
c0 23.333 4.5 44.166 13.5 62.499s21.333 33.833 37 46.5s34.334 22.334 56.001 29.001s44.834 10 69.501 10c15.333 0 33.666 -1.16699 54.999 -3.5s41.666 -6.16602 60.999 -11.499c0 -7.33301 -1 -16 -3 -26s-4.33301 -18.667 -7 -26
c-18 6.66699 -37.667 11.334 -59 14.001s-42.666 4 -63.999 4c-34 0 -60.167 -7.33301 -78.5 -22s-27.5 -38.334 -27.5 -71.001c0 -18 6.33301 -33 19 -45s28.334 -23 47.001 -33s39.167 -19.833 61.5 -29.5s42.833 -21 61.5 -34s34.334 -28.5 47.001 -46.5
s19 -40.333 19 -67zM112.995 727.999c6 2 12.6689 3.5 20.002 4.5s14.666 1.5 21.999 1.5l91 -120l91 120c5.33301 0 12 -0.5 20 -1.5s14.667 -2.16699 20 -3.5c-18.667 -30 -36.334 -56.833 -53.001 -80.5l-54 -73.5h-51l-54.5 74c-17 24 -34.167 50.333 -51.5 79z" />
    <glyph glyph-name="Ydieresis" unicode="&#x178;" horiz-adv-x="564" 
d="M534 670l-54.999 -108l-52 -99.5l-53 -97l-58 -101.5v-264h-57v264l-180 331c-7.33301 13.333 -13.333 22.5 -18 27.5s-12.667 7.5 -24 7.5h-37v10c0 29.333 16.667 44 50 44c18 0 33.167 -5 45.5 -15s23.5 -24.667 33.5 -44l138 -269l10 -22
c3.33301 -7.33301 6.66602 -15.333 9.99902 -24h5l9 25c2.66699 7.33301 6 15 10 23l166 317c9.33301 0 19 -0.333008 29 -1s19.333 -2 28 -4zM239.001 753c0 -10.667 -3.16797 -19.167 -9.50098 -25.5s-14.833 -9.5 -25.5 -9.5c-10 0 -18.333 3.33301 -25 10s-10 15 -10 25
c0 10.667 3.33301 19.334 10 26.001s15.334 10 26.001 10c10 0 18.167 -3.33301 24.5 -10s9.5 -15.334 9.5 -26.001zM412 753c0 -10.667 -3.33301 -19.167 -10 -25.5s-15 -9.5 -25 -9.5c-10.667 0 -19 3.33301 -25 10s-9 15 -9 25c0 10.667 3 19.334 9 26.001
s14.667 10 26 10c9.33301 0 17.333 -3.33301 24 -10s10 -15.334 10 -26.001z" />
    <glyph glyph-name="Zcaron" unicode="&#x17d;" horiz-adv-x="540" 
d="M517 -17c0 -16 -3.5 -28.998 -10.5 -38.998s-18.167 -15 -33.5 -15h-10v40c0 11.333 -2.33301 19.333 -7 24s-14 7 -28 7h-379l-6 49l385 575h-367c-2 7.33301 -3.33301 15.666 -4 24.999s-1 17.666 -1 24.999h430l6 -49l-385 -575h334c50.667 0 76 -22.333 76 -67z
M132 812.002c6 2 13.1689 3.50195 21.502 4.50195s16.166 1.5 23.499 1.5l88 -82l88 82c5.33301 0 12.5 -0.5 21.5 -1.5s16.167 -2.16699 21.5 -3.5l-29.5 -33l-23 -25.5l-21.5 -22.5l-25 -24h-67c-18.667 17.333 -35.334 33.666 -50.001 48.999s-30.667 33.666 -48 54.999z
" />
    <glyph glyph-name="zcaron" unicode="&#x17e;" horiz-adv-x="457" 
d="M45 0l-6 42l303 435h-280c-1.33301 7.33301 -2.33301 15.166 -3 23.499s-1 15.5 -1 21.5h339l6 -42l-303 -435h306c2.66699 -8 4.66699 -15.667 6 -23s2 -14.666 2 -21.999h-369zM97 728c6 2 12.6689 3.5 20.002 4.5s14.666 1.5 21.999 1.5l91 -120l91 120
c5.33301 0 12 -0.5 20 -1.5s14.667 -2.16699 20 -3.5c-18.667 -30 -36.334 -56.833 -53.001 -80.5l-54 -73.5h-51l-54.5 74c-17 24 -34.167 50.333 -51.5 79z" />
    <glyph glyph-name="florin" unicode="&#x192;" 
d="M413 681c0 -8 -0.332031 -16.167 -0.999023 -24.5s-2 -16.833 -4 -25.5c-5.33301 1.33301 -12.333 2.33301 -21 3s-16.667 1 -24 1c-12.667 0 -25 -2.33301 -37 -7s-22.833 -11.667 -32.5 -21s-17.334 -21 -23.001 -35s-8.5 -30.667 -8.5 -50v-129h172
c0 -14.667 -1.66699 -29.667 -5 -45h-167v-480h-49v480h-142v45h142v125c0 26 4.33301 49.333 13 70s20.5 38 35.5 52s32.167 24.833 51.5 32.5s39.333 11.5 60 11.5c12 0 25.333 -1 40 -3z" />
    <glyph glyph-name="circumflex" unicode="&#x2c6;" 
d="M385 578c-6 -2 -12.6689 -3.5 -20.002 -4.5s-14.666 -1.5 -21.999 -1.5l-91 120l-91 -120c-5.33301 0 -12 0.5 -20 1.5s-14.667 2.16699 -20 3.5c18.667 30 36.334 56.833 53.001 80.5l54 73.5h51l54.5 -74c17 -24 34.167 -50.333 51.5 -79z" />
    <glyph glyph-name="caron" unicode="&#x2c7;" 
d="M118 728c6 2 12.6689 3.5 20.002 4.5s14.666 1.5 21.999 1.5l91 -120l91 120c5.33301 0 12 -0.5 20 -1.5s14.667 -2.16699 20 -3.5c-18.667 -30 -36.334 -56.833 -53.001 -80.5l-54 -73.5h-51l-54.5 74c-17 24 -34.167 50.333 -51.5 79z" />
    <glyph glyph-name="breve" unicode="&#x2d8;" 
d="M417 698c-17.333 -44.667 -39.6719 -77.165 -67.0049 -97.498s-60.666 -30.5 -99.999 -30.5c-77.333 0 -131.666 42.667 -162.999 128c11.333 7.33301 25 13 41 17c12 -34 28 -59.5 48 -76.5s45.333 -25.5 76 -25.5s56.334 8.66699 77.001 26
s37.334 42.666 50.001 75.999c14.667 -4.66699 27.334 -10.334 38.001 -17.001z" />
    <glyph glyph-name="dotaccent" unicode="&#x2d9;" 
d="M284 627c0 -11.333 -3 -20.333 -9 -27s-14.667 -10 -26 -10s-19.833 3.5 -25.5 10.5s-8.5 15.833 -8.5 26.5s3 19.667 9 27s14.667 11 26 11s19.833 -3.66699 25.5 -11s8.5 -16.333 8.5 -27z" />
    <glyph glyph-name="ring" unicode="&#x2da;" 
d="M355 669c0 -29.333 -9.33301 -53.167 -28 -71.5s-44 -27.5 -76 -27.5c-34.667 0 -61 9 -79 27s-27 42 -27 72c0 29.333 9.33301 53.5 28 72.5s44.667 28.5 78 28.5c32.667 0 58.167 -9 76.5 -27s27.5 -42.667 27.5 -74zM312 671.999c0 20 -5.50098 35.332 -16.501 45.999
s-25.833 16 -44.5 16c-17.333 0 -32.166 -5 -44.499 -15s-18.5 -25.667 -18.5 -47s5.33301 -37.666 16 -48.999s25.667 -17 45 -17c18 0 33 5.5 45 16.5s18 27.5 18 49.5z" />
    <glyph glyph-name="ogonek" unicode="&#x2db;" 
d="M366 19c-32 -15.333 -57.834 -29.335 -77.501 -42.002s-35 -24.667 -46 -36s-18.5 -22.333 -22.5 -33s-6 -21.667 -6 -33c0 -18.667 5.5 -31.167 16.5 -37.5s24.833 -9.5 41.5 -9.5c8.66699 0 17.334 0.333008 26.001 1s17.667 2 27 4c0 -7.33301 -0.666992 -15 -2 -23
s-2.66602 -14.667 -3.99902 -20c-10 -2 -20.167 -3.5 -30.5 -4.5s-19.833 -1.5 -28.5 -1.5c-28.667 0 -52.167 6.83301 -70.5 20.5s-27.5 35.834 -27.5 66.501c0 32.667 14.167 61.834 42.5 87.501s73.166 51.167 134.499 76.5l27 -16v0z" />
    <glyph glyph-name="tilde" unicode="&#x2dc;" 
d="M90 580c4 21.333 9.00195 38.502 15.002 51.502s12.667 23 20 30s15.666 11.667 24.999 14s19 3.5 29 3.5c17.333 0 34.333 -5 51 -15l53 -30c8.66699 -5.33301 15.834 -8.83301 21.501 -10.5s11.167 -2.5 16.5 -2.5c13.333 0 23.666 3.83301 30.999 11.5
s13.333 26.167 18 55.5c14 0 27.667 -3.33301 41 -10c-4 -20.667 -8.66699 -37.334 -14 -50.001s-11.833 -22.667 -19.5 -30s-16 -12.333 -25 -15s-19.167 -4 -30.5 -4c-7.33301 0 -15 1 -23 3s-17.333 6 -28 12l-53 30c-14.667 8.66699 -27.334 13 -38.001 13
c-7.33301 0 -13.5 -0.833008 -18.5 -2.5s-9.5 -4.83398 -13.5 -9.50098s-7.33301 -11.5 -10 -20.5s-5 -20.5 -7 -34.5c-14 0 -27.667 3.33301 -41 10z" />
    <glyph glyph-name="hungarumlaut" unicode="&#x2dd;" 
d="M262 731c-9.33301 -25.333 -22.168 -51.333 -38.501 -78s-35.833 -53.667 -58.5 -81c-5.33301 0 -11.166 0.5 -17.499 1.5s-11.833 2.5 -16.5 4.5l84 153h47v0zM384.998 731c-9.33301 -25.333 -22.168 -51.333 -38.501 -78s-35.833 -53.667 -58.5 -81
c-5.33301 0 -11.166 0.5 -17.499 1.5s-11.833 2.5 -16.5 4.5l84 153h47v0z" />
    <glyph glyph-name="Delta" unicode="&#x394;" horiz-adv-x="556" 
d="M12 0c34 108 71.333 219.333 112 334s83 228 127 340h54l61 -165l61.5 -171.5l60 -171.5l56.5 -166h-532zM287 585c-1.33301 4.66699 -2.83301 10.334 -4.5 17.001s-2.83398 14 -3.50098 22h-5c-0.666992 -8 -1.66699 -15.333 -3 -22s-2.66602 -12.334 -3.99902 -17.001
l-187 -540h392z" />
    <glyph glyph-name="Omega" unicode="&#x3a9;" horiz-adv-x="644" 
d="M350 0l-3 41.9961c22 6 43.333 16.5 64 31.5s39.167 35.833 55.5 62.5s29.333 59.334 39 98.001s14.5 84.334 14.5 137.001c0 48 -4.33301 88.5 -13 121.5s-21.334 59.667 -38.001 80s-37.5 35 -62.5 44s-53.5 13.5 -85.5 13.5c-31.333 0 -59.166 -4.5 -83.499 -13.5
s-45 -23.667 -62 -44s-29.833 -47.166 -38.5 -80.499s-13 -74.333 -13 -123s4.5 -92 13.5 -130s21.333 -70.5 37 -97.5s34 -48.833 55 -65.5s43.5 -28 67.5 -34l-3 -42h-242v49h145v3c-40 28 -72 68.833 -96 122.5s-36 119.834 -36 198.501c0 106 22.167 184.333 66.5 235
s108.166 76 191.499 76c170.667 0 256 -103.333 256 -310c0 -77.333 -12.167 -143.333 -36.5 -198s-56.166 -96 -95.499 -124v-3h145v-49h-242z" />
    <glyph glyph-name="pi" unicode="&#x3c0;" horiz-adv-x="644" 
d="M620 7c-24.667 -11.333 -51 -17.001 -79 -17.001c-36 0 -62.5 8.66699 -79.5 26s-25.5 43 -25.5 77v377h-250v-470h-52v470h-104v52h587c0 -7.33301 -0.333008 -16.166 -1 -26.499s-1.66699 -18.833 -3 -25.5h-125v-373c0 -24 4.16699 -40.167 12.5 -48.5
s22.166 -12.5 41.499 -12.5c24.667 0 47.667 5.66699 69 17c2.66699 -7.33301 4.83398 -14.833 6.50098 -22.5s2.5 -15.5 2.5 -23.5z" />
    <glyph glyph-name="endash" unicode="&#x2013;" 
d="M54 243v45.999h398c0 -6.66699 -0.5 -14.167 -1.5 -22.5s-2.5 -16.166 -4.5 -23.499h-392z" />
    <glyph glyph-name="emdash" unicode="&#x2014;" horiz-adv-x="1000" 
d="M66 243v45.999h869c0 -6.66699 -0.5 -14.167 -1.5 -22.5s-2.5 -16.166 -4.5 -23.499h-863z" />
    <glyph glyph-name="quoteleft" unicode="&#x2018;" horiz-adv-x="212" 
d="M46 536c0 42 8.66699 78.5 26 109.5s43 55.833 77 74.5c9.33301 -9.33301 17 -21 23 -35c-30 -16 -51.5 -36 -64.5 -60s-19.5 -52 -19.5 -84h37c3.33301 -13.333 5.83301 -27 7.5 -41s2.5 -28.333 2.5 -43h-89v79v0z" />
    <glyph glyph-name="quoteright" unicode="&#x2019;" horiz-adv-x="212" 
d="M166 634c0 -42 -8.66699 -78.5 -26 -109.5s-43 -55.833 -77 -74.5c-9.33301 9.33301 -17 21 -23 35c30 16 51.5 36 64.5 60s19.5 52 19.5 84h-37c-3.33301 13.333 -5.83301 27 -7.5 41s-2.5 28.333 -2.5 43h89v-79v0z" />
    <glyph glyph-name="quotesinglbase" unicode="&#x201a;" horiz-adv-x="212" 
d="M166 87c0 -42 -8.66602 -78.498 -25.999 -109.498s-43 -55.833 -77 -74.5c-8.66699 8.66699 -16.334 20.667 -23.001 36c29.333 14.667 50.333 34.667 63 60s19 51.666 19 78.999h-37c-3.33301 13.333 -5.83301 27.666 -7.5 42.999s-2.5 30.333 -2.5 45h91v-79v0z" />
    <glyph glyph-name="quotedblleft" unicode="&#x201c;" horiz-adv-x="375" 
d="M46 536c0 42 8.66699 78.5 26 109.5s43 55.833 77 74.5c9.33301 -9.33301 17 -21 23 -35c-30 -16 -51.5 -36 -64.5 -60s-19.5 -52 -19.5 -84h37c3.33301 -13.333 5.83301 -27 7.5 -41s2.5 -28.333 2.5 -43h-89v79v0zM209 536c0 42 8.66699 78.5 26 109.5
s43 55.833 77 74.5c9.33301 -9.33301 17 -21 23 -35c-30 -16 -51.5 -36 -64.5 -60s-19.5 -52 -19.5 -84h37c3.33301 -13.333 5.83301 -27 7.5 -41s2.5 -28.333 2.5 -43h-89v79v0z" />
    <glyph glyph-name="quotedblright" unicode="&#x201d;" horiz-adv-x="375" 
d="M166 634c0 -42 -8.66699 -78.5 -26 -109.5s-43 -55.833 -77 -74.5c-9.33301 9.33301 -17 21 -23 35c30 16 51.5 36 64.5 60s19.5 52 19.5 84h-37c-3.33301 13.333 -5.83301 27 -7.5 41s-2.5 28.333 -2.5 43h89v-79v0zM329 634c0 -42 -8.66699 -78.5 -26 -109.5
s-43 -55.833 -77 -74.5c-9.33301 9.33301 -17 21 -23 35c30 16 51.5 36 64.5 60s19.5 52 19.5 84h-37c-3.33301 13.333 -5.83301 27 -7.5 41s-2.5 28.333 -2.5 43h89v-79v0z" />
    <glyph glyph-name="quotedblbase" unicode="&#x201e;" horiz-adv-x="375" 
d="M166 87c0 -42 -8.66602 -78.498 -25.999 -109.498s-43 -55.833 -77 -74.5c-8.66699 8.66699 -16.334 20.667 -23.001 36c29.333 14.667 50.333 34.667 63 60s19 51.666 19 78.999h-37c-3.33301 13.333 -5.83301 27.666 -7.5 42.999s-2.5 30.333 -2.5 45h91v-79v0z
M330.001 87.002c0 -84.667 -34.6689 -145.998 -104.002 -183.998c-10 11.333 -17.333 23.333 -22 36c28.667 14.667 49.334 34.667 62.001 60s19 51.666 19 78.999h-37c-3.33301 13.333 -5.66602 27.666 -6.99902 42.999s-2 30.333 -2 45h91v-79v0z" />
    <glyph glyph-name="dagger" unicode="&#x2020;" horiz-adv-x="523" 
d="M286 440v-440c-6 -2.66699 -13.833 -4.66699 -23.5 -6s-18.167 -2 -25.5 -2v448h-180v45h180v189h49v-189h180v-45h-180z" />
    <glyph glyph-name="daggerdbl" unicode="&#x2021;" horiz-adv-x="523" 
d="M286 208v-208c-6 -2.66699 -13.833 -4.66699 -23.5 -6s-18.167 -2 -25.5 -2v216h-180v46h180v178h-180v45h180v197h49v-197h180v-45h-180v-178h180v-46h-180z" />
    <glyph glyph-name="bullet" unicode="&#x2022;" horiz-adv-x="350" 
d="M265 278c0 -28 -8.66699 -50.167 -26 -66.5s-38.666 -24.5 -63.999 -24.5c-26 0 -47.5 8.16699 -64.5 24.5s-25.5 38.5 -25.5 66.5c0 28.667 8.5 51.5 25.5 68.5s38.5 25.5 64.5 25.5c25.333 0 46.666 -8.5 63.999 -25.5s26 -39.833 26 -68.5z" />
    <glyph glyph-name="ellipsis" unicode="&#x2026;" horiz-adv-x="553" 
d="M129 24c0 -11.333 -3.16602 -20.168 -9.49902 -26.501s-14.5 -9.5 -24.5 -9.5s-18 3.33301 -24 10s-9 15.334 -9 26.001c0 11.333 3 20.5 9 27.5s14.333 10.5 25 10.5c9.33301 0 17.166 -3.5 23.499 -10.5s9.5 -16.167 9.5 -27.5zM310.001 23.998
c0 -11.333 -3.16602 -20.168 -9.49902 -26.501s-14.5 -9.5 -24.5 -9.5s-18 3.33301 -24 10s-9 15.334 -9 26.001c0 11.333 3 20.5 9 27.5s14.333 10.5 25 10.5c9.33301 0 17.166 -3.5 23.499 -10.5s9.5 -16.167 9.5 -27.5zM491.002 23.9961
c0 -11.333 -3.16602 -20.168 -9.49902 -26.501s-14.5 -9.5 -24.5 -9.5s-18 3.33301 -24 10s-9 15.334 -9 26.001c0 11.333 3 20.5 9 27.5s14.333 10.5 25 10.5c9.33301 0 17.166 -3.5 23.499 -10.5s9.5 -16.167 9.5 -27.5z" />
    <glyph glyph-name="perthousand" unicode="&#x2030;" horiz-adv-x="1151" 
d="M341 494c0 -58.667 -12.5 -105 -37.5 -139s-62.167 -51 -111.5 -51c-47.333 0 -84.5 15.5 -111.5 46.5s-40.5 78.833 -40.5 143.5c0 62 14 109.167 42 141.5s64.667 48.5 110 48.5c48.667 0 85.667 -15.833 111 -47.5s38 -79.167 38 -142.5zM292 494
c0 46 -7.33398 82.5 -22.001 109.5s-40.667 40.5 -78 40.5c-35.333 0 -61.166 -13 -77.499 -39s-24.5 -63 -24.5 -111c0 -50 8 -87.5 24 -112.5s42 -37.5 78 -37.5s61.667 13 77 39s23 63 23 111zM288.999 -8c-7.33301 1.33301 -15 3.16699 -23 5.5s-15.333 5.5 -22 9.5
l265 671c8 0 16.5 -0.666992 25.5 -2s16.833 -3 23.5 -5zM758.999 180.001c0 -58.667 -12.5 -105 -37.5 -139s-62.167 -51 -111.5 -51c-47.333 0 -84.5 15.5 -111.5 46.5s-40.5 78.833 -40.5 143.5c0 62 14 109.167 42 141.5s64.667 48.5 110 48.5
c48.667 0 85.667 -15.833 111 -47.5s38 -79.167 38 -142.5zM709.999 180.001c0 46 -7.33398 82.5 -22.001 109.5s-40.667 40.5 -78 40.5c-35.333 0 -61.166 -13 -77.499 -39s-24.5 -63 -24.5 -111c0 -50 8 -87.5 24 -112.5s42 -37.5 78 -37.5s61.667 13 77 39s23 63 23 111z
M1111 180.001c0 -58.667 -12.5 -105 -37.5 -139s-62.167 -51 -111.5 -51c-47.333 0 -84.5 15.5 -111.5 46.5s-40.5 78.833 -40.5 143.5c0 62 14 109.167 42 141.5s64.667 48.5 110 48.5c48.667 0 85.667 -15.833 111 -47.5s38 -79.167 38 -142.5zM1062 180.001
c0 46 -7.33398 82.5 -22.001 109.5s-40.667 40.5 -78 40.5c-35.333 0 -61.166 -13 -77.499 -39s-24.5 -63 -24.5 -111c0 -50 8 -87.5 24 -112.5s42 -37.5 78 -37.5s61.667 13 77 39s23 63 23 111z" />
    <glyph glyph-name="guilsinglleft" unicode="&#x2039;" horiz-adv-x="251" 
d="M174 43l-139 220l139 220l42 -14l-122 -207l122 -206z" />
    <glyph glyph-name="guilsinglright" unicode="&#x203a;" horiz-adv-x="251" 
d="M77 43l-42 14l122 207l-122 206l42 13l139 -220z" />
    <glyph glyph-name="Euro" unicode="&#x20ac;" 
d="M158 237c8 -66.667 25.332 -116.661 51.999 -149.994s64.334 -50 113.001 -50c21.333 0 43.333 2.83301 66 8.5s43.334 14.167 62.001 25.5c1.33301 -8.66699 2.5 -17.334 3.5 -26.001s1.5 -17.667 1.5 -27c-17.333 -9.33301 -38.333 -16.333 -63 -21s-47.667 -7 -69 -7
c-60.667 0 -109.334 19.833 -146.001 59.5s-60.334 102.167 -71.001 187.5h-71v44h67c-0.666992 9.33301 -1.16699 18.666 -1.5 27.999s-0.5 19 -0.5 29c0 26 1 50.333 3 73h-68v44h73c6.66699 40.667 16.667 75.5 30 104.5s29.5 52.667 48.5 71s40.333 31.833 64 40.5
s48.834 13 75.501 13c8 0 17.5 -0.5 28.5 -1.5s22 -2.33301 33 -4s21.667 -3.83398 32 -6.50098s18.833 -5.66699 25.5 -9c0 -8.66699 -0.333008 -17.667 -1 -27s-2 -18 -4 -26c-13.333 7.33301 -31 13.5 -53 18.5s-42.667 7.5 -62 7.5c-46 0 -82.833 -14 -110.5 -42
s-46.167 -74.333 -55.5 -139h246c0 -5.33301 -0.666992 -12.333 -2 -21s-3 -16.334 -5 -23.001h-244c-1.33301 -12 -2 -24.333 -2 -37v-40v-27c0 -8.66699 0.333008 -17.334 1 -26.001h236c0 -5.33301 -0.666992 -12.333 -2 -21s-3 -16.334 -5 -23.001h-225z" />
    <glyph glyph-name="trademark" unicode="&#x2122;" horiz-adv-x="740" 
d="M684 326c-4 -0.666992 -9.83398 -1.33105 -17.501 -1.99805s-14.167 -1 -19.5 -1l-25 253c-0.666992 4.66699 -1.16699 10.5 -1.5 17.5s-0.5 12.167 -0.5 15.5h-4c-1.33301 -11.333 -3.66602 -21.333 -6.99902 -30l-99 -254h-40l-96 254
c-1.33301 3.33301 -2.83301 8.16602 -4.5 14.499s-2.5 11.5 -2.5 15.5h-4c0 -2 -0.166992 -6.83301 -0.5 -14.5s-0.833008 -13.834 -1.5 -18.501l-28 -253c-3.33301 0 -9.16602 0.333008 -17.499 1s-14.166 1.33398 -17.499 2.00098c4 58 9.66699 115.833 17 173.5l22 174.5
h40l105 -274c3.33301 -9.33301 6 -19 8 -29h4c1.33301 4.66699 2.66602 9.66699 3.99902 15s2.66602 10 3.99902 14l107 274h39c8 -58.667 15 -116.834 21 -174.501s11 -115.5 15 -173.5zM273.999 674.003c0 -3.33301 -0.166992 -9.16699 -0.5 -17.5
s-1.83301 -14.833 -4.5 -19.5h-98v-312h-41v312h-101v37h245v0z" />
    <glyph glyph-name="partialdiff" unicode="&#x2202;" horiz-adv-x="539" 
d="M479 366c0 -63.333 -3.66699 -118.67 -11 -166.003s-19 -86.5 -35 -117.5s-36.833 -54.167 -62.5 -69.5s-57.167 -23 -94.5 -23c-69.333 0 -121 20.667 -155 62s-51 108.666 -51 201.999c0 88 20.167 155.5 60.5 202.5s96.833 70.5 169.5 70.5
c37.333 0 76 -5.66699 116 -17c-1.33301 9.33301 -2.83301 18 -4.5 26s-3.16699 15.667 -4.5 23c-6 26 -14 47.833 -24 65.5s-22.333 31.834 -37 42.501s-31.5 18.167 -50.5 22.5s-41.167 6.5 -66.5 6.5c-10.667 0 -22.167 -0.666992 -34.5 -2s-24.5 -3.33301 -36.5 -6
s-23.667 -5.5 -35 -8.5s-21 -6.5 -29 -10.5c0 10 0.333008 20 1 30s1.66699 17 3 21c19.333 8.66699 41.166 14.834 65.499 18.501s46.5 5.5 66.5 5.5c37.333 0 71.333 -4.83301 102 -14.5s56.834 -28.167 78.501 -55.5s38.5 -65.666 50.5 -114.999s18 -113.666 18 -192.999
zM424 354.996c0 19.333 -0.336914 37.6689 -1.00391 55.002s-1.66699 34 -3 50c-18 6 -37.333 10.833 -58 14.5s-41 5.5 -61 5.5c-26 0 -49.667 -3.83301 -71 -11.5s-39.666 -20.167 -54.999 -37.5s-27.166 -39.833 -35.499 -67.5s-12.5 -61.834 -12.5 -102.501
c0 -42.667 2.66699 -78.167 8 -106.5s13.833 -51 25.5 -68s26.834 -29 45.501 -36s41.334 -10.5 68.001 -10.5s49.5 4.16699 68.5 12.5s34.5 24.166 46.5 47.499s20.833 55.5 26.5 96.5s8.5 93.833 8.5 158.5z" />
    <glyph glyph-name="product" unicode="&#x220f;" horiz-adv-x="686" 
d="M519 0v624h-352v-624h-57v674h466v-674h-57z" />
    <glyph glyph-name="summation" unicode="&#x2211;" horiz-adv-x="535" 
d="M484 49c0 -6.66699 -0.5 -14.334 -1.5 -23.001s-2.5 -17.334 -4.5 -26.001h-440v46l298 303l-279 279v46h410c0 -7.33301 -0.5 -15.166 -1.5 -23.499s-2.16699 -17.166 -3.5 -26.499h-327l252 -255v-38l-277 -282h374z" />
    <glyph glyph-name="minus" unicode="&#x2212;" horiz-adv-x="501" 
d="M74 257v51h353v-51h-353z" />
    <glyph glyph-name="fraction" unicode="&#x2215;" horiz-adv-x="160" 
d="M-38 -6c-14.667 2 -27.001 6.33301 -37.001 13l272 677c12.667 -1.33301 25.334 -5 38.001 -11z" />
    <glyph glyph-name="radical" unicode="&#x221a;" horiz-adv-x="523" 
d="M511 674c0 -14.667 -2 -31 -6 -49h-98l-73 -625h-46l-134.5 257.5l-131.5 273.5c6 2 14.333 3.66699 25 5s18.667 2 24 2l201 -408l11.5 -26.5l11.5 -28.5h5c0 7.33301 0.5 17.333 1.5 30s2.16699 23 3.5 31l62 538h144v0z" />
    <glyph glyph-name="infinity" unicode="&#x221e;" horiz-adv-x="876" 
d="M235 62c-63.333 0 -109.999 18.999 -139.999 56.999s-45 88 -45 150c0 27.333 3.66699 52.833 11 76.5s18.5 44.334 33.5 62.001s34.5 31.667 58.5 42s52.333 15.5 85 15.5c17.333 0 34.5 -2.16699 51.5 -6.5s33.667 -12 50 -23s32.666 -25.833 48.999 -44.5
s32.833 -42.334 49.5 -71.001c18 28.667 35.167 52.334 51.5 71.001s32.833 33.5 49.5 44.5s33.334 18.667 50.001 23s34.334 6.5 53.001 6.5c60.667 0 106.5 -17.833 137.5 -53.5s46.5 -84.167 46.5 -145.5c0 -64 -15.5 -114 -46.5 -150s-76.5 -54 -136.5 -54
c-18 0 -35.167 1.83301 -51.5 5.5s-32.833 10.667 -49.5 21s-33.5 24.833 -50.5 43.5s-35.167 43 -54.5 73c-30.667 -52.667 -62.334 -89.667 -95.001 -111s-68.334 -32 -107.001 -32zM647.001 106.999c41.333 0 73.167 13.166 95.5 39.499s33.5 65.833 33.5 118.5
c0 27.333 -3.33301 50.833 -10 70.5s-16 35.667 -28 48s-25.833 21.333 -41.5 27s-32.5 8.5 -50.5 8.5c-19.333 0 -37.5 -2.66699 -54.5 -8s-33 -14.166 -48 -26.499s-29.5 -28.333 -43.5 -48s-28 -43.5 -42 -71.5c29.333 -59.333 59.833 -100.5 91.5 -123.5
s64.167 -34.5 97.5 -34.5zM236.002 106.998c38 0 72.3311 13.333 102.998 40s56.334 66 77.001 118c-25.333 51.333 -52.166 89.833 -80.499 115.5s-61.5 38.5 -99.5 38.5c-44.667 0 -78.5 -12.333 -101.5 -37s-34.5 -64 -34.5 -118c0 -52 11 -91.167 33 -117.5
s56.333 -39.5 103 -39.5z" />
    <glyph glyph-name="integral" unicode="&#x222b;" horiz-adv-x="304" 
d="M305 741c0 -8 -0.333984 -16.499 -1.00098 -25.499s-2 -17.5 -4 -25.5c-5.33301 1.33301 -12.333 2.16602 -21 2.49902s-16.667 0.5 -24 0.5c-55.333 0 -83 -35.333 -83 -106v-646c0 -24 -3.83301 -45.667 -11.5 -65s-18.167 -35.833 -31.5 -49.5s-29 -24.167 -47 -31.5
s-37.333 -11 -58 -11c-6 0 -12 0.166992 -18 0.5s-12.667 1.16602 -20 2.49902c0 8 0.333008 16.5 1 25.5s2 17.5 4 25.5c5.33301 -1.33301 12.333 -2.16602 21 -2.49902s16.667 -0.5 24 -0.5c55.333 0 83 35.333 83 106v646c0 24 3.83301 45.667 11.5 65
s18.167 35.833 31.5 49.5s29 24.167 47 31.5s37.333 11 58 11c10.667 0 23.334 -1 38.001 -3z" />
    <glyph glyph-name="approxequal" unicode="&#x2248;" horiz-adv-x="496" 
d="M438 367c-12.667 -11.333 -26.3311 -20.168 -40.998 -26.501s-30.334 -9.5 -47.001 -9.5s-33.167 2.16699 -49.5 6.5s-32.333 9.33301 -48 15s-31.5 10.667 -47.5 15s-32.333 6.5 -49 6.5c-19.333 0 -37 -3.5 -53 -10.5s-31 -17.167 -45 -30.5v46
c14 13.333 29 23.5 45 30.5s33.667 10.5 53 10.5c16.667 0 32.834 -2.16699 48.501 -6.5s31.5 -9.16602 47.5 -14.499s32 -10.166 48 -14.499s32.333 -6.5 49 -6.5c17.333 0 33.166 3.16699 47.499 9.5s28.166 15.166 41.499 26.499v-47v0zM438.003 177.998
c-12.667 -11.333 -26.3311 -20.168 -40.998 -26.501s-30.334 -9.5 -47.001 -9.5s-33.167 2.16699 -49.5 6.5s-32.333 9.33301 -48 15s-31.5 10.667 -47.5 15s-32.333 6.5 -49 6.5c-19.333 0 -37 -3.5 -53 -10.5s-31 -17.167 -45 -30.5v46c14 13.333 29 23.5 45 30.5
s33.667 10.5 53 10.5c16.667 0 32.834 -2.16699 48.501 -6.5s31.5 -9.16602 47.5 -14.499s32 -10.166 48 -14.499s32.333 -6.5 49 -6.5c17.333 0 33.166 3.16699 47.499 9.5s28.166 15.166 41.499 26.499v-47v0z" />
    <glyph glyph-name="notequal" unicode="&#x2260;" horiz-adv-x="489" 
d="M195 162l-81 -126h-45l81 126h-82v45h111l93 145h-204v45h233l73 114h47l-74 -114h74v-45h-103l-94 -145h197v-45h-226z" />
    <glyph glyph-name="lessequal" unicode="&#x2264;" horiz-adv-x="431" 
d="M285 140l-196 182l196 178h54v-5l-189 -171l190 -178v-6h-55zM60 45v42h311v-42h-311z" />
    <glyph glyph-name="greaterequal" unicode="&#x2265;" horiz-adv-x="431" 
d="M146 500l196 -182l-196 -178h-54v5l189 171l-190 178v6h55zM60 45v42h311v-42h-311z" />
    <glyph glyph-name="lozenge" unicode="&#x25ca;" horiz-adv-x="462" 
d="M403 252c-45.333 -90 -94.666 -177.332 -147.999 -261.999h-48l-76.5 129c-25 44 -48.833 88.667 -71.5 134v30c21.333 44 44.333 87.667 69 131s51 87 79 131h48c26.667 -40.667 52.667 -83.334 78 -128.001s48.666 -89.667 69.999 -135v-30v0zM231 505.001l-132 -236
l133 -239l131 237z" />
    <glyph glyph-name="DLE" unicode="&#xe000;" horiz-adv-x="563" 
d="M458 38l-53 57.998c-36.667 -29.333 -78.334 -44 -125.001 -44c-48 0 -89.333 14.667 -124 44l-52 -58l-36 33l55 59c-14.667 19.333 -26 41 -34 65s-12 51 -12 81s4.16699 57.167 12.5 81.5s19.5 45.5 33.5 63.5l-52 57l36 33l50 -56c18.667 14 38.834 24.667 60.501 32
s43.5 11 65.5 11c47.333 0 89 -13.333 125 -40l48 53l36 -33l-50 -54c14 -18 25.167 -39.333 33.5 -64s12.5 -52.667 12.5 -84c0 -29.333 -4.33301 -56.166 -13 -80.499s-20.667 -46.166 -36 -65.499l55 -59zM442 275.998c0 28 -4.1709 53 -12.5039 75
s-19.666 40.5 -33.999 55.5s-31.166 26.5 -50.499 34.5s-40 12 -62 12c-20 0 -39.5 -4 -58.5 -12s-36 -19.5 -51 -34.5s-27.167 -33.5 -36.5 -55.5s-14 -47 -14 -75c0 -28.667 4 -54 12 -76s19 -40.667 33 -56s30.5 -27 49.5 -35s39.833 -12 62.5 -12c22 0 42.833 4 62.5 12
s36.834 19.667 51.501 35s26.334 34 35.001 56s13 47.333 13 76z" />
    <glyph glyph-name="fi" unicode="&#xfb01;" horiz-adv-x="594" 
d="M432 0l-0.000976562 477.001h-243v-549c0 -24 -4 -45 -12 -63s-18.5 -33 -31.5 -45s-27.5 -21 -43.5 -27s-32.333 -9 -49 -9c-6 0 -12 0.166992 -18 0.5s-12.667 1.16602 -20 2.49902c0 8 0.333008 16.5 1 25.5s2 17.5 4 25.5c5.33301 -1.33301 12 -2.16602 20 -2.49902
s15.667 -0.5 23 -0.5c25.333 0 43.833 7 55.5 21s17.5 36.667 17.5 68v553h-66v45h66v78c0 24 4 45 12 63s18.5 33 31.5 45s27.5 21 43.5 27s32.333 9 49 9c10.667 0 23.334 -1 38.001 -3c0 -8 -0.333008 -16.5 -1 -25.5s-2 -17.5 -4 -25.5
c-5.33301 1.33301 -12 2.16602 -20 2.49902s-15.667 0.5 -23 0.5c-25.333 0 -43.833 -7 -55.5 -21s-17.5 -36.667 -17.5 -68v-82h296v-522h-53zM492.999 674.001c0 -11.333 -3 -20.333 -9 -27s-14.667 -10 -26 -10s-19.833 3.5 -25.5 10.5s-8.5 15.833 -8.5 26.5
s3 19.667 9 27s14.667 11 26 11s19.833 -3.66699 25.5 -11s8.5 -16.333 8.5 -27z" />
    <glyph glyph-name="fl" unicode="&#xfb02;" horiz-adv-x="610" 
d="M447 0l-0.000976562 687.001c-6.66699 1.33301 -15.667 2.5 -27 3.5s-23.333 2 -36 3s-25.167 1.83301 -37.5 2.5s-23.5 1 -33.5 1c-24.667 0 -45 -2 -61 -6s-28.667 -9.83301 -38 -17.5s-15.833 -17.334 -19.5 -29.001s-5.5 -25.167 -5.5 -40.5v-82h119
c0 -14.667 -1.66699 -29.667 -5 -45h-114v-549c0 -24 -4 -45 -12 -63s-18.5 -33 -31.5 -45s-27.5 -21 -43.5 -27s-32.333 -9 -49 -9c-6 0 -12 0.166992 -18 0.5s-12.667 1.16602 -20 2.49902c0 8 0.333008 16.5 1 25.5s2 17.5 4 25.5
c5.33301 -1.33301 12 -2.16602 20 -2.49902s15.667 -0.5 23 -0.5c25.333 0 43.833 7 55.5 21s17.5 36.667 17.5 68v553h-66v45h66v78c0 96 60.667 144 182 144c13.333 0 28 -0.333008 44 -1s32 -1.66699 48 -3s31.833 -3 47.5 -5s29.834 -4.33301 42.501 -7v-728h-53z" />
    <glyph glyph-name=".null" horiz-adv-x="0" 
 />
    <glyph glyph-name="nonmarkingreturn" 
 />
    </font>
</defs>
</svg>
