<?xml version="1.0" encoding="utf-8"?>
<!-- Generator: Adobe Illustrator 21.1.0, SVG Export Plug-In . SVG Version: 6.00 Build 0)  -->
<svg version="1.1" id="Capa_1" xmlns="http://www.w3.org/2000/svg" xmlns:xlink="http://www.w3.org/1999/xlink" x="0px" y="0px"
	 viewBox="0 0 512 512" style="enable-background:new 0 0 512 512;" xml:space="preserve">
<style type="text/css">
	.st0{fill:#003366;}
</style>
<g>
	<path id="LinkedIn__x28_alt_x29__3_" class="st0" d="M474.1,0H37.9C17,0,0,16.5,0,36.7v438.7C0,495.6,17,512,37.9,512h436.2
		c21,0,37.9-16.4,37.9-36.6V36.7C512,16.5,495.1,0,474.1,0z M155.3,428.6H77.9V197.5h77.3L155.3,428.6L155.3,428.6z M116.5,165.9
		H116c-26,0-42.8-17.9-42.8-40c0-22.7,17.3-40,43.8-40c26.5,0,42.8,17.3,43.2,40C160.3,148.1,143.5,165.9,116.5,165.9z M434.1,428.6
		h-77.2V305c0-31.1-11.3-52.4-39.3-52.4c-21.5,0-34,14.4-39.6,28.3c-2,4.7-2.6,11.7-2.6,18.6v129.1H198c0,0,1-209.5,0-231.1h77.4
		v32.8C285.6,214.5,304,192,345,192c50.9,0,89,33,89,104L434.1,428.6L434.1,428.6z M274.9,231c0.1-0.2,0.2-0.5,0.4-0.7v0.7H274.9
		L274.9,231z"/>
</g>
</svg>
