<?xml version="1.0" encoding="utf-8"?>
<!-- Generator: Adobe Illustrator 23.0.1, SVG Export Plug-In . SVG Version: 6.00 Build 0)  -->
<svg version="1.1" xmlns="http://www.w3.org/2000/svg" xmlns:xlink="http://www.w3.org/1999/xlink" x="0px" y="0px"
	 viewBox="0 0 463.7 308.9" style="enable-background:new 0 0 463.7 308.9;" xml:space="preserve">
<style type="text/css">
	.st0{fill:#FFFFFF;}
</style>
<g id="Layer_1">
	<g>
		<g>
			<path class="st0" d="M236.9,31.9l-35.8,7.9v26.3l35.8-2.3v31.9l-35.8-3.3v21.9L176,108v-18V67.7V42.5l0-19.6l25.1-9.4L236.9,0
				V31.9z M209.2,21.5v5.3l9-2.5v-5.6L209.2,21.5 M196.3,30.5l4.8-1.4l2.9-0.8v-5.1l-2.9,0.9l-4.8,1.5V30.5 M191.8,31.8V27l-6.6,2.1
				v4.6L191.8,31.8"/>
			<polygon class="st0" points="303.7,117.6 303.7,112.9 278.6,119.8 239.9,130.5 201.1,119.8 176,112.9 176,117.6 239.9,145.4 			
				"/>
			<g>
				<path class="st0" d="M296.7,90.7L296.7,90.7C296.6,90.7,296.7,90.7,296.7,90.7z"/>
				<path class="st0" d="M296.6,90.7L296.6,90.7c0.9-0.1,7.1-0.9,7.1-7.7c0,0,0,0,0,0V67.7V45.3v-6.8c0,0,0-0.1,0-0.1
					c0-15.4-11-19.7-11-19.7l-14-5.3L242.9,0v31.9l35.8,7.9v32.8l-6.5-6.9l-29.2-1.8v31.9v27.5l35.8-8.9V92.4L296.6,90.7L296.6,90.7
					C296.6,90.8,296.6,90.7,296.6,90.7z"/>
				<path class="st0" d="M296.6,90.8L296.6,90.8L296.6,90.8C296.6,90.7,296.6,90.8,296.6,90.8z"/>
			</g>
		</g>
		<g>
			<path class="st0" d="M7.1,297c0.1,0,0.1,0,0.1,0.1v0.4c0,0.1,0,0.1-0.1,0.1H3.7c-1.8,0-2.6,0.5-2.6,1.8v0.2c0,1,0.2,1.5,1.4,2
				l3.7,1.6c1.6,0.7,1.7,2,1.7,2.7v0.4c0,2.5-2,2.5-3.9,2.5c-0.8,0-2.8,0-3.9-0.1c-0.1,0-0.1,0-0.1-0.1v-0.4c0-0.1,0.1-0.1,0.1-0.1
				h4.1c1.4,0,2.8-0.1,2.8-1.8V306c0-0.6-0.1-1.5-1.3-2.1l-3.9-1.6c-1.4-0.6-1.7-1.4-1.7-2.6v-0.3c0-2,1.5-2.5,3.7-2.5
				C4.7,296.9,6.1,297,7.1,297z"/>
			<path class="st0" d="M22.6,300.6c0,3.4-1.2,3.7-4.8,3.7h-2v4.4c0,0.1,0,0.1-0.2,0.1H15c-0.1,0-0.2,0-0.2-0.1v-11.6
				c0-0.1,0-0.1,0.2-0.1c0.9,0,2.1-0.1,2.7-0.1C21.4,296.9,22.6,297.3,22.6,300.6z M15.8,297.7v5.8h2c3.1,0,4-0.1,4-2.9
				c0-2.7-0.9-2.9-4-2.9H15.8z"/>
			<path class="st0" d="M37.3,300.6c0,2.7-0.7,3.4-2.7,3.6l2.8,4.4c0.1,0.1,0,0.2-0.1,0.2h-0.5c-0.2,0-0.3-0.1-0.4-0.2l-2.7-4.3
				h-3.1v4.4c0,0.1,0,0.1-0.2,0.1h-0.6c-0.1,0-0.2,0-0.2-0.1v-11.6c0-0.1,0-0.1,0.2-0.1c0.9,0,2.1-0.1,2.7-0.1
				C36.2,296.9,37.3,297.3,37.3,300.6z M30.5,297.7v5.8h2c3.1,0,4-0.1,4-2.9c0-2.7-0.9-2.9-4-2.9H30.5z"/>
			<path class="st0" d="M49.9,298.7l2.8,9.9c0,0.1,0,0.2-0.1,0.2h-0.7c-0.1,0-0.1,0-0.1-0.1l-1.1-3.9h-5.2l-1.1,3.9
				c0,0.1-0.1,0.1-0.1,0.1h-0.7c-0.1,0-0.1,0-0.1-0.2l2.8-9.9c0.4-1.6,0.6-1.8,1.8-1.8C49.3,296.9,49.4,297.2,49.9,298.7z M47.1,299
				l-1.4,5.1h4.7L49,299c-0.3-1.1-0.4-1.2-1-1.2C47.5,297.7,47.4,297.9,47.1,299z"/>
			<path class="st0" d="M65,298.7l2.8,9.9c0,0.1,0,0.2-0.1,0.2h-0.7c-0.1,0-0.1,0-0.1-0.1l-1.1-3.9h-5.2l-1.1,3.9
				c0,0.1-0.1,0.1-0.1,0.1h-0.7c-0.1,0-0.1,0-0.1-0.2l2.8-9.9c0.4-1.6,0.6-1.8,1.8-1.8C64.4,296.9,64.5,297.2,65,298.7z M62.2,299
				l-1.4,5.1h4.7l-1.4-5.1c-0.3-1.1-0.4-1.2-1-1.2C62.6,297.7,62.5,297.9,62.2,299z"/>
			<path class="st0" d="M81.7,297c0.2,0,0.2,0.1,0.1,0.2l-5.4,5.3l5.7,6.1c0.1,0.1,0.1,0.2-0.2,0.2h-0.6c-0.1,0-0.2,0-0.2-0.1
				l-5.5-6v6c0,0.1-0.1,0.1-0.2,0.1h-0.6c-0.1,0-0.2,0-0.2-0.1v-11.6c0-0.1,0.1-0.1,0.2-0.1h0.6c0.1,0,0.2,0,0.2,0.1v5.1l5.3-5.1
				c0,0,0.1-0.1,0.2-0.1H81.7z"/>
			<path class="st0" d="M99.2,297c0.1,0,0.2,0.1,0.2,0.2l1,11.5c0,0.1,0,0.1-0.1,0.1h-0.6c-0.1,0-0.1,0-0.1-0.1l-0.8-10.3l-3.9,10
				c0,0.1-0.1,0.2-0.3,0.2H94c-0.1,0-0.2-0.1-0.3-0.2l-3.9-10L89,308.7c0,0.1,0,0.1-0.1,0.1h-0.6c-0.1,0-0.2,0-0.1-0.1l0.9-11.5
				c0-0.2,0.1-0.2,0.3-0.2h0.6c0.3,0,0.4,0.2,0.6,0.6l3.9,10l3.9-10c0.2-0.4,0.3-0.6,0.5-0.6H99.2z"/>
			<path class="st0" d="M113.2,298.7l2.8,9.9c0,0.1,0,0.2-0.1,0.2h-0.7c-0.1,0-0.1,0-0.1-0.1l-1.1-3.9h-5.2l-1.1,3.9
				c0,0.1-0.1,0.1-0.1,0.1h-0.7c-0.1,0-0.1,0-0.1-0.2l2.8-9.9c0.4-1.6,0.6-1.8,1.8-1.8C112.6,296.9,112.8,297.2,113.2,298.7z
				 M110.5,299l-1.4,5.1h4.7l-1.4-5.1c-0.3-1.1-0.4-1.2-1-1.2C110.8,297.7,110.8,297.9,110.5,299z"/>
			<path class="st0" d="M129.9,297c0.2,0,0.2,0.1,0.1,0.2l-5.4,5.3l5.7,6.1c0.1,0.1,0.1,0.2-0.2,0.2h-0.6c-0.1,0-0.2,0-0.2-0.1
				l-5.5-6v6c0,0.1-0.1,0.1-0.2,0.1h-0.6c-0.1,0-0.2,0-0.2-0.1v-11.6c0-0.1,0.1-0.1,0.2-0.1h0.6c0.1,0,0.2,0,0.2,0.1v5.1l5.3-5.1
				c0,0,0.1-0.1,0.2-0.1H129.9z"/>
			<path class="st0" d="M144,297c0.1,0,0.1,0,0.1,0.1v0.5c0,0.1,0,0.1-0.1,0.1h-6.3v5h5.8c0.1,0,0.1,0.1,0.1,0.2v0.5
				c0,0.1,0,0.1-0.1,0.1h-5.8v4.5h6.3c0.1,0,0.1,0,0.1,0.1v0.5c0,0.1,0,0.1-0.1,0.1h-7c-0.2,0-0.2-0.1-0.2-0.2v-11.4
				c0-0.2,0.1-0.2,0.2-0.2H144z"/>
			<path class="st0" d="M160.2,297c0.1,0,0.1,0,0.1,0.1v11.6c0,0.1,0,0.1-0.1,0.1h-0.6c-0.1,0-0.2,0-0.4-0.2l-7.1-10.5v10.6
				c0,0.1-0.1,0.1-0.2,0.1h-0.6c-0.1,0-0.2,0-0.2-0.1v-11.6c0-0.1,0.1-0.1,0.2-0.1h0.7c0.3,0,0.4,0,0.5,0.3l6.9,10.2v-10.3
				c0-0.1,0-0.1,0.1-0.1H160.2z"/>
			<path class="st0" d="M177.2,302.9c0,4.4-1,6-4.7,6c-0.9,0-3.4,0-4.3-0.1c-0.1,0-0.2,0-0.2-0.1v-11.6c0-0.1,0-0.1,0.2-0.1
				c0.9,0,3.4-0.1,4.3-0.1C176.2,296.9,177.2,298.5,177.2,302.9z M169,297.7v10.4h3.6c3,0,3.8-1.4,3.8-5.2c0-3.8-0.8-5.2-3.9-5.2
				H169z"/>
			<path class="st0" d="M193.9,297c0.1,0,0.2,0,0.2,0.1v11.6c0,0.1-0.1,0.1-0.2,0.1h-0.6c-0.1,0-0.2,0-0.2-0.1v-11.6
				c0-0.1,0.1-0.1,0.2-0.1H193.9z"/>
			<path class="st0" d="M210.8,297c0.1,0,0.1,0,0.1,0.1v11.6c0,0.1,0,0.1-0.1,0.1h-0.6c-0.1,0-0.2,0-0.4-0.2l-7.1-10.5v10.6
				c0,0.1-0.1,0.1-0.2,0.1h-0.6c-0.1,0-0.2,0-0.2-0.1v-11.6c0-0.1,0.1-0.1,0.2-0.1h0.7c0.3,0,0.4,0,0.5,0.3l6.9,10.2v-10.3
				c0-0.1,0-0.1,0.1-0.1H210.8z"/>
			<path class="st0" d="M234.8,297c0.1,0,0.1,0,0.1,0.1v0.5c0,0.1,0,0.1-0.1,0.1h-6.5v5h5.9c0.1,0,0.1,0,0.1,0.1v0.5
				c0,0.1,0,0.1-0.1,0.1h-5.9v5.1c0,0.1-0.1,0.1-0.2,0.1h-0.6c-0.1,0-0.2,0-0.2-0.1v-11.5c0-0.2,0.1-0.2,0.2-0.2H234.8z"/>
			<path class="st0" d="M242.2,297c0.1,0,0.2,0,0.2,0.1v11.6c0,0.1-0.1,0.1-0.2,0.1h-0.6c-0.1,0-0.2,0-0.2-0.1v-11.6
				c0-0.1,0.1-0.1,0.2-0.1H242.2z"/>
			<path class="st0" d="M250.8,297c0.1,0,0.2,0,0.2,0.1v10.9h6.3c0.1,0,0.2,0,0.2,0.1v0.5c0,0.1-0.1,0.1-0.2,0.1h-6.9
				c-0.1,0-0.2-0.1-0.2-0.2v-11.5c0-0.1,0.1-0.1,0.2-0.1H250.8z"/>
			<path class="st0" d="M274.6,297c0.1,0,0.2,0.1,0.2,0.2l1,11.5c0,0.1,0,0.1-0.1,0.1h-0.6c-0.1,0-0.1,0-0.1-0.1l-0.8-10.3l-3.9,10
				c0,0.1-0.1,0.2-0.3,0.2h-0.6c-0.1,0-0.2-0.1-0.3-0.2l-3.9-10l-0.8,10.3c0,0.1,0,0.1-0.1,0.1h-0.6c-0.1,0-0.2,0-0.1-0.1l0.9-11.5
				c0-0.2,0.1-0.2,0.3-0.2h0.6c0.3,0,0.4,0.2,0.6,0.6l3.9,10l3.9-10c0.2-0.4,0.3-0.6,0.5-0.6H274.6z"/>
			<path class="st0" d="M299,297c0.1,0,0.1,0,0.1,0.1v0.5c0,0.1,0,0.1-0.1,0.1h-6.3v5h5.8c0.1,0,0.1,0.1,0.1,0.2v0.5
				c0,0.1,0,0.1-0.1,0.1h-5.8v4.5h6.3c0.1,0,0.1,0,0.1,0.1v0.5c0,0.1,0,0.1-0.1,0.1h-7c-0.2,0-0.2-0.1-0.2-0.2v-11.4
				c0-0.2,0.1-0.2,0.2-0.2H299z"/>
			<path class="st0" d="M315.3,297c0.1,0,0.1,0,0.1,0.1v11.6c0,0.1,0,0.1-0.1,0.1h-0.6c-0.1,0-0.2,0-0.4-0.2l-7.1-10.5v10.6
				c0,0.1-0.1,0.1-0.2,0.1h-0.6c-0.1,0-0.2,0-0.2-0.1v-11.6c0-0.1,0.1-0.1,0.2-0.1h0.7c0.3,0,0.4,0,0.5,0.3l6.9,10.2v-10.3
				c0-0.1,0-0.1,0.1-0.1H315.3z"/>
			<path class="st0" d="M331.3,297c0.1,0,0.1,0,0.1,0.1l2.8,9.8c0.3,1.1,0.4,1.2,0.8,1.2c0.5,0,0.5-0.1,0.8-1.2l2.7-9.8
				c0-0.1,0-0.1,0.1-0.1h0.6c0.1,0,0.2,0,0.1,0.2l-2.8,9.9c-0.4,1.6-0.5,1.8-1.7,1.8c-1.1,0-1.2-0.2-1.6-1.8l-2.8-9.9
				c0-0.1,0-0.2,0.1-0.2H331.3z"/>
			<path class="st0" d="M354.9,303c0,4.6-0.9,6-4.6,6s-4.6-1.3-4.6-6c0-4.6,0.8-6,4.6-6S354.9,298.3,354.9,303z M346.6,303
				c0,4,0.6,5.2,3.7,5.2s3.7-1.2,3.7-5.2c0-4-0.6-5.2-3.7-5.2S346.6,298.9,346.6,303z"/>
			<path class="st0" d="M363,297c0.1,0,0.2,0,0.2,0.1v11.6c0,0.1-0.1,0.1-0.2,0.1h-0.6c-0.1,0-0.2,0-0.2-0.1v-11.6
				c0-0.1,0.1-0.1,0.2-0.1H363z"/>
			<path class="st0" d="M377.8,297c0.1,0,0.1,0.1,0.1,0.1v0.4c0,0.1,0,0.1-0.1,0.1H375c-3.1,0-3.7,1.2-3.7,5.2c0,4,0.6,5.2,3.7,5.2
				h2.8c0.1,0,0.1,0,0.1,0.1v0.4c0,0.1,0,0.1-0.1,0.1c-0.8,0.1-2.1,0.1-2.8,0.1c-3.8,0-4.6-1.4-4.6-6c0-4.6,0.9-6,4.6-6
				C375.7,296.9,377,296.9,377.8,297z"/>
			<path class="st0" d="M392,297c0.1,0,0.1,0,0.1,0.1v0.5c0,0.1,0,0.1-0.1,0.1h-6.3v5h5.8c0.1,0,0.1,0.1,0.1,0.2v0.5
				c0,0.1,0,0.1-0.1,0.1h-5.8v4.5h6.3c0.1,0,0.1,0,0.1,0.1v0.5c0,0.1,0,0.1-0.1,0.1h-7c-0.2,0-0.2-0.1-0.2-0.2v-11.4
				c0-0.2,0.1-0.2,0.2-0.2H392z"/>
			<path class="st0" d="M403.1,304.5c0.1,0,0.1,0.1,0.1,0.2v0.5c0,0.1,0,0.1-0.1,0.1h-4.4c-0.1,0-0.1,0-0.1-0.1v-0.5
				c0-0.1,0-0.2,0.1-0.2H403.1z"/>
			<path class="st0" d="M419.5,303c0,4.6-0.9,6-4.6,6s-4.6-1.3-4.6-6c0-4.6,0.8-6,4.6-6S419.5,298.3,419.5,303z M411.1,303
				c0,4,0.6,5.2,3.7,5.2s3.7-1.2,3.7-5.2c0-4-0.6-5.2-3.7-5.2S411.1,298.9,411.1,303z"/>
			<path class="st0" d="M426.5,297c0.1,0,0.1,0,0.1,0.1l2.8,9.8c0.3,1.1,0.4,1.2,0.8,1.2c0.5,0,0.5-0.1,0.8-1.2l2.7-9.8
				c0-0.1,0-0.1,0.1-0.1h0.6c0.1,0,0.2,0,0.1,0.2l-2.8,9.9c-0.4,1.6-0.5,1.8-1.7,1.8c-1.1,0-1.2-0.2-1.6-1.8l-2.8-9.9
				c0-0.1,0-0.2,0.1-0.2H426.5z"/>
			<path class="st0" d="M448.7,297c0.1,0,0.1,0,0.1,0.1v0.5c0,0.1,0,0.1-0.1,0.1h-6.3v5h5.8c0.1,0,0.1,0.1,0.1,0.2v0.5
				c0,0.1,0,0.1-0.1,0.1h-5.8v4.5h6.3c0.1,0,0.1,0,0.1,0.1v0.5c0,0.1,0,0.1-0.1,0.1h-7c-0.2,0-0.2-0.1-0.2-0.2v-11.4
				c0-0.2,0.1-0.2,0.2-0.2H448.7z"/>
			<path class="st0" d="M463.7,300.6c0,2.7-0.7,3.4-2.7,3.6l2.8,4.4c0.1,0.1,0,0.2-0.1,0.2h-0.5c-0.2,0-0.3-0.1-0.4-0.2l-2.7-4.3
				h-3.1v4.4c0,0.1,0,0.1-0.2,0.1h-0.6c-0.1,0-0.2,0-0.2-0.1v-11.6c0-0.1,0-0.1,0.2-0.1c0.9,0,2.1-0.1,2.7-0.1
				C462.5,296.9,463.7,297.3,463.7,300.6z M456.8,297.7v5.8h2c3.1,0,4-0.1,4-2.9c0-2.7-0.9-2.9-4-2.9H456.8z"/>
		</g>
		<g>
			<path class="st0" d="M15.9,217.7h36.9v13H15.9v34.9H0v-82.8h54.7v13.6H15.9V217.7z"/>
			<path class="st0" d="M64,182.9h36.6c5.5,0,10.2,0.4,14,1.2c3.8,0.8,6.8,2.3,9.1,4.4c2.3,2.1,3.9,5,4.9,8.7
				c1,3.7,1.5,8.4,1.5,14.2c0,5.9-0.5,10.6-1.5,14.2c-1,3.6-2.7,6.3-5.1,8.3c-2.4,2-5.4,3.3-9.2,4c-3.8,0.7-8.3,1-13.7,1H79.9v26.8
				H64V182.9z M100.6,225.2c2.9-0.1,5.2-0.3,7-0.7c1.8-0.4,3.1-1,4.1-2c1-1,1.7-2.4,2-4.2c0.3-1.8,0.5-4.1,0.5-7
				c0-2.9-0.1-5.4-0.4-7.3c-0.3-1.9-0.9-3.4-1.9-4.6c-1-1.1-2.3-1.9-4.1-2.4c-1.8-0.4-4.2-0.7-7.1-0.7H79.9v28.8H100.6z"/>
			<path class="st0" d="M209.4,182.9l-26.7,82.8h-23.9l-26.5-82.8h16.2l22.1,69.5h0.3l22.1-69.5H209.4z"/>
			<path class="st0" d="M231.4,265.6h-15.9v-82.8h15.9V265.6z"/>
			<path class="st0" d="M444,183.2c4.4,0.7,8.1,2,11,4.1c2.9,2.1,5.1,5.1,6.6,9.2c1.4,4,2.2,9.3,2.2,15.9v22.3c0,6.6-0.7,12-2,16.1
				c-1.3,4.1-3.4,7.3-6.3,9.6c-2.9,2.3-6.5,3.8-11,4.6c-4.5,0.8-9.8,1.2-16.1,1.2c-6.4,0-11.8-0.4-16.3-1.1
				c-4.5-0.7-8.1-2.2-10.8-4.5c-2.8-2.2-4.8-5.4-6-9.6c-1.3-4.2-1.9-9.6-1.9-16.4v-22.3c0-6.4,0.6-11.6,1.8-15.6
				c1.2-4,3.1-7,5.8-9.2c2.7-2.2,6.3-3.6,10.8-4.4c4.5-0.7,10-1.1,16.6-1.1C434.4,182.2,439.6,182.5,444,183.2z M418.3,196.6
				c-2.5,0.5-4.4,1.4-5.7,2.6c-1.3,1.3-2.1,2.9-2.5,5.1c-0.4,2.1-0.6,4.9-0.7,8.2v22.3c0,4.1,0.3,7.4,0.8,9.8
				c0.5,2.4,1.5,4.2,2.8,5.4c1.4,1.2,3.3,2,5.8,2.3c2.5,0.3,5.7,0.5,9.7,0.5c3.6,0,6.6-0.2,9.1-0.6c2.5-0.4,4.5-1.2,6-2.4
				c1.5-1.2,2.6-3.1,3.3-5.5c0.7-2.4,1-5.6,1-9.5v-22.3c0.1-3.9-0.2-7-0.9-9.2c-0.7-2.2-1.8-3.9-3.4-5c-1.5-1.1-3.6-1.8-6.1-2.1
				c-2.5-0.3-5.5-0.4-9-0.4C424.2,195.8,420.8,196,418.3,196.6z"/>
			<path class="st0" d="M245.7,182.9h37.5c5.7,0,10.6,0.6,14.7,1.7s7.4,2.9,10.1,5.3c2.6,2.4,4.6,5.6,5.8,9.5
				c1.2,3.9,1.9,8.7,1.9,14.3v19.5c0,4.3-0.4,8.5-1.2,12.4c-0.8,3.9-2.2,7.3-4.4,10.3c-2.2,3-5.2,5.4-9.1,7.1
				c-3.9,1.8-9,2.6-15.2,2.6h-40.1V182.9z M285.8,252c2.6,0,4.9-0.6,6.7-1.7c1.8-1.1,3.3-2.5,4.4-4.3c1.1-1.8,1.9-3.8,2.3-6
				c0.4-2.2,0.7-4.5,0.7-6.9v-19.5c0-3.5-0.3-6.3-0.9-8.5c-0.6-2.2-1.5-4-2.9-5.2c-1.3-1.3-3.1-2.2-5.2-2.7
				c-2.1-0.5-4.7-0.8-7.7-0.8h-21.6V252H285.8z"/>
			<polygon class="st0" points="383.4,196.4 383.4,182.9 328.7,182.9 328.7,265.6 344.6,265.6 383.4,265.6 383.4,252 344.6,252 
				344.6,230.8 381.4,230.8 381.4,217.7 344.6,217.7 344.6,196.4 			"/>
		</g>
	</g>
</g>
<g id="Layer_2">
</g>
</svg>
