<svg width="167" height="20" viewBox="0 0 167 20" fill="none" xmlns="http://www.w3.org/2000/svg">
<path d="M7.03516 11.4746L10.2578 0.78125H13.5195L8.56836 15H5.51172L0.580078 0.78125H3.83203L7.03516 11.4746ZM19.1152 15.1953C17.5658 15.1953 16.3027 14.7201 15.3262 13.7695C14.3561 12.819 13.8711 11.5527 13.8711 9.9707V9.69727C13.8711 8.63607 14.0762 7.6888 14.4863 6.85547C14.8965 6.01562 15.4759 5.37109 16.2246 4.92188C16.9798 4.46615 17.8392 4.23828 18.8027 4.23828C20.248 4.23828 21.3841 4.69401 22.2109 5.60547C23.0443 6.51693 23.4609 7.80924 23.4609 9.48242V10.6348H16.7324C16.8236 11.3249 17.097 11.8783 17.5527 12.2949C18.015 12.7116 18.5977 12.9199 19.3008 12.9199C20.388 12.9199 21.2376 12.526 21.8496 11.7383L23.2363 13.291C22.8132 13.89 22.2402 14.3587 21.5176 14.6973C20.7949 15.0293 19.9941 15.1953 19.1152 15.1953ZM18.793 6.52344C18.2331 6.52344 17.7773 6.71224 17.4258 7.08984C17.0807 7.46745 16.8594 8.00781 16.7617 8.71094H20.6875V8.48633C20.6745 7.86133 20.5052 7.37956 20.1797 7.04102C19.8542 6.69596 19.3919 6.52344 18.793 6.52344ZM31.0098 7.08008C30.6257 7.02799 30.2871 7.00195 29.9941 7.00195C28.9264 7.00195 28.2266 7.36328 27.8945 8.08594V15H25.0723V4.43359H27.7383L27.8164 5.69336C28.3828 4.72331 29.1673 4.23828 30.1699 4.23828C30.4824 4.23828 30.7754 4.2806 31.0488 4.36523L31.0098 7.08008ZM31.7422 9.63867C31.7422 7.99154 32.11 6.67969 32.8457 5.70312C33.5879 4.72656 34.6003 4.23828 35.8828 4.23828C36.9115 4.23828 37.7611 4.6224 38.4316 5.39062V0H41.2637V15H38.7148L38.5781 13.877C37.875 14.7559 36.9701 15.1953 35.8633 15.1953C34.6198 15.1953 33.6204 14.707 32.8652 13.7305C32.1165 12.7474 31.7422 11.3835 31.7422 9.63867ZM34.5645 9.84375C34.5645 10.8333 34.737 11.5918 35.082 12.1191C35.4271 12.6465 35.9284 12.9102 36.5859 12.9102C37.4583 12.9102 38.0736 12.5423 38.4316 11.8066V7.63672C38.0801 6.90104 37.4714 6.5332 36.6055 6.5332C35.2448 6.5332 34.5645 7.63672 34.5645 9.84375ZM49.7793 13.9258C49.0827 14.7721 48.1191 15.1953 46.8887 15.1953C45.7559 15.1953 44.89 14.8698 44.291 14.2188C43.6986 13.5677 43.3958 12.6139 43.3828 11.3574V4.43359H46.2051V11.2598C46.2051 12.36 46.7064 12.9102 47.709 12.9102C48.666 12.9102 49.3236 12.5781 49.6816 11.9141V4.43359H52.5137V15H49.8574L49.7793 13.9258ZM64.1641 9.81445C64.1641 11.5072 63.8027 12.8288 63.0801 13.7793C62.3574 14.7233 61.3483 15.1953 60.0527 15.1953C58.9069 15.1953 57.9922 14.7559 57.3086 13.877L57.1816 15H54.6426V0H57.4648V5.38086C58.1159 4.61914 58.972 4.23828 60.0332 4.23828C61.3223 4.23828 62.3314 4.71354 63.0605 5.66406C63.7962 6.60807 64.1641 7.93945 64.1641 9.6582V9.81445ZM61.3418 9.60938C61.3418 8.54167 61.1725 7.76367 60.834 7.27539C60.4954 6.7806 59.9909 6.5332 59.3203 6.5332C58.4219 6.5332 57.8034 6.90104 57.4648 7.63672V11.8066C57.8099 12.5488 58.4349 12.9199 59.3398 12.9199C60.2513 12.9199 60.8503 12.4707 61.1367 11.5723C61.2734 11.1426 61.3418 10.4883 61.3418 9.60938ZM75.4336 9.81445C75.4336 11.5072 75.0723 12.8288 74.3496 13.7793C73.627 14.7233 72.6178 15.1953 71.3223 15.1953C70.1764 15.1953 69.2617 14.7559 68.5781 13.877L68.4512 15H65.9121V0H68.7344V5.38086C69.3854 4.61914 70.2415 4.23828 71.3027 4.23828C72.5918 4.23828 73.6009 4.71354 74.3301 5.66406C75.0658 6.60807 75.4336 7.93945 75.4336 9.6582V9.81445ZM72.6113 9.60938C72.6113 8.54167 72.4421 7.76367 72.1035 7.27539C71.765 6.7806 71.2604 6.5332 70.5898 6.5332C69.6914 6.5332 69.0729 6.90104 68.7344 7.63672V11.8066C69.0794 12.5488 69.7044 12.9199 70.6094 12.9199C71.5208 12.9199 72.1198 12.4707 72.4062 11.5723C72.543 11.1426 72.6113 10.4883 72.6113 9.60938ZM82.0449 15.1953C80.4954 15.1953 79.2324 14.7201 78.2559 13.7695C77.2858 12.819 76.8008 11.5527 76.8008 9.9707V9.69727C76.8008 8.63607 77.0059 7.6888 77.416 6.85547C77.8262 6.01562 78.4056 5.37109 79.1543 4.92188C79.9095 4.46615 80.7689 4.23828 81.7324 4.23828C83.1777 4.23828 84.3138 4.69401 85.1406 5.60547C85.974 6.51693 86.3906 7.80924 86.3906 9.48242V10.6348H79.6621C79.7533 11.3249 80.0267 11.8783 80.4824 12.2949C80.9447 12.7116 81.5273 12.9199 82.2305 12.9199C83.3177 12.9199 84.1673 12.526 84.7793 11.7383L86.166 13.291C85.7428 13.89 85.1699 14.3587 84.4473 14.6973C83.7246 15.0293 82.9238 15.1953 82.0449 15.1953ZM81.7227 6.52344C81.1628 6.52344 80.707 6.71224 80.3555 7.08984C80.0104 7.46745 79.7891 8.00781 79.6914 8.71094H83.6172V8.48633C83.6042 7.86133 83.4349 7.37956 83.1094 7.04102C82.7839 6.69596 82.3216 6.52344 81.7227 6.52344ZM90.9805 15H88.1484V0H90.9805V15ZM101.283 4.43359V15.5762C101.283 16.7415 100.974 17.6465 100.355 18.291C99.737 18.9421 98.8451 19.2676 97.6797 19.2676C97.1914 19.2676 96.7259 19.2122 96.2832 19.1016V16.8652C96.6217 16.9238 96.918 16.9531 97.1719 16.9531C98.0247 16.9531 98.4512 16.5007 98.4512 15.5957V4.43359H101.283ZM98.2266 1.69922C98.2266 1.27604 98.3665 0.927734 98.6465 0.654297C98.9329 0.380859 99.3203 0.244141 99.8086 0.244141C100.297 0.244141 100.681 0.380859 100.961 0.654297C101.247 0.927734 101.391 1.27604 101.391 1.69922C101.391 2.12891 101.244 2.48047 100.951 2.75391C100.665 3.02734 100.284 3.16406 99.8086 3.16406C99.3333 3.16406 98.9492 3.02734 98.6562 2.75391C98.3698 2.48047 98.2266 2.12891 98.2266 1.69922ZM108.354 15.1953C106.804 15.1953 105.541 14.7201 104.564 13.7695C103.594 12.819 103.109 11.5527 103.109 9.9707V9.69727C103.109 8.63607 103.314 7.6888 103.725 6.85547C104.135 6.01562 104.714 5.37109 105.463 4.92188C106.218 4.46615 107.077 4.23828 108.041 4.23828C109.486 4.23828 110.622 4.69401 111.449 5.60547C112.283 6.51693 112.699 7.80924 112.699 9.48242V10.6348H105.971C106.062 11.3249 106.335 11.8783 106.791 12.2949C107.253 12.7116 107.836 12.9199 108.539 12.9199C109.626 12.9199 110.476 12.526 111.088 11.7383L112.475 13.291C112.051 13.89 111.479 14.3587 110.756 14.6973C110.033 15.0293 109.232 15.1953 108.354 15.1953ZM108.031 6.52344C107.471 6.52344 107.016 6.71224 106.664 7.08984C106.319 7.46745 106.098 8.00781 106 8.71094H109.926V8.48633C109.913 7.86133 109.743 7.37956 109.418 7.04102C109.092 6.69596 108.63 6.52344 108.031 6.52344ZM128.48 11.1621L129.867 4.43359H132.592L129.896 15H127.533L125.531 8.34961L123.529 15H121.176L118.48 4.43359H121.205L122.582 11.1523L124.516 4.43359H126.557L128.48 11.1621ZM136.977 15H134.145V4.43359H136.977V15ZM133.979 1.69922C133.979 1.27604 134.118 0.927734 134.398 0.654297C134.685 0.380859 135.072 0.244141 135.561 0.244141C136.042 0.244141 136.426 0.380859 136.713 0.654297C136.999 0.927734 137.143 1.27604 137.143 1.69922C137.143 2.12891 136.996 2.48047 136.703 2.75391C136.417 3.02734 136.036 3.16406 135.561 3.16406C135.085 3.16406 134.701 3.02734 134.408 2.75391C134.122 2.48047 133.979 2.12891 133.979 1.69922ZM141.908 4.43359L141.996 5.6543C142.751 4.71029 143.764 4.23828 145.033 4.23828C146.153 4.23828 146.986 4.56706 147.533 5.22461C148.08 5.88216 148.36 6.86523 148.373 8.17383V15H145.551V8.24219C145.551 7.64323 145.421 7.21029 145.16 6.94336C144.9 6.66992 144.467 6.5332 143.861 6.5332C143.067 6.5332 142.471 6.87174 142.074 7.54883V15H139.252V4.43359H141.908ZM156.244 12.0801C156.244 11.735 156.072 11.4648 155.727 11.2695C155.388 11.0677 154.841 10.8887 154.086 10.7324C151.573 10.2051 150.316 9.13737 150.316 7.5293C150.316 6.5918 150.704 5.81055 151.479 5.18555C152.26 4.55404 153.279 4.23828 154.535 4.23828C155.876 4.23828 156.947 4.55404 157.748 5.18555C158.555 5.81706 158.959 6.63737 158.959 7.64648H156.137C156.137 7.24284 156.007 6.91081 155.746 6.65039C155.486 6.38346 155.079 6.25 154.525 6.25C154.05 6.25 153.682 6.35742 153.422 6.57227C153.161 6.78711 153.031 7.06055 153.031 7.39258C153.031 7.70508 153.178 7.95898 153.471 8.1543C153.77 8.3431 154.271 8.50911 154.975 8.65234C155.678 8.78906 156.27 8.94531 156.752 9.12109C158.243 9.66797 158.988 10.6152 158.988 11.9629C158.988 12.9264 158.575 13.7077 157.748 14.3066C156.921 14.8991 155.854 15.1953 154.545 15.1953C153.66 15.1953 152.872 15.0391 152.182 14.7266C151.498 14.4076 150.961 13.9746 150.57 13.4277C150.18 12.8743 149.984 12.2786 149.984 11.6406H152.66C152.686 12.1419 152.872 12.526 153.217 12.793C153.562 13.0599 154.024 13.1934 154.604 13.1934C155.144 13.1934 155.551 13.0924 155.824 12.8906C156.104 12.6823 156.244 12.4121 156.244 12.0801ZM164.193 1.83594V4.43359H166V6.50391H164.193V11.7773C164.193 12.168 164.268 12.4479 164.418 12.6172C164.568 12.7865 164.854 12.8711 165.277 12.8711C165.59 12.8711 165.867 12.8483 166.107 12.8027V14.9414C165.554 15.1107 164.984 15.1953 164.398 15.1953C162.419 15.1953 161.41 14.196 161.371 12.1973V6.50391H159.828V4.43359H161.371V1.83594H164.193Z" fill="#333333"/>
</svg>
