<svg width="18" height="18" viewBox="0 0 18 18" fill="none" xmlns="http://www.w3.org/2000/svg">
<path fill-rule="evenodd" clip-rule="evenodd" d="M16.879 14.22L11.655 8.999L16.875 3.775C17.477 3.175 17.477 2.21 16.877 1.608L16.392 1.122C16.107 0.829998 15.717 0.670998 15.307 0.670998C15.305 0.670998 15.305 0.670998 15.305 0.670998C14.895 0.670998 14.51 0.831998 14.222 1.121L9 6.347L3.776 1.127C3.177 0.526998 2.213 0.523998 1.611 1.124L1.125 1.605C0.831997 1.892 0.671997 2.282 0.671997 2.691C0.671997 3.102 0.832997 3.489 1.122 3.777L6.348 8.999L1.127 14.223C0.524997 14.823 0.524997 15.788 1.125 16.392L1.61 16.877C1.897 17.169 2.286 17.328 2.696 17.328C3.104 17.328 3.494 17.165 3.781 16.878L9.002 11.653L14.224 16.872C14.52 17.171 14.914 17.322 15.309 17.322C15.7 17.322 16.092 17.173 16.391 16.875L16.876 16.391C17.17 16.106 17.329 15.716 17.329 15.306C17.331 14.896 17.17 14.509 16.881 14.22H16.879Z" fill="#787878"/>
</svg>
