<svg width="12" height="20" viewBox="0 0 12 20" fill="none" xmlns="http://www.w3.org/2000/svg">
<g id="noun_Chair_2255404_000000">
<path id="Shape" fill-rule="evenodd" clip-rule="evenodd" d="M12 10.5051C12 9.99578 11.5928 9.58111 11.0922 9.58111H9.74943V6.17489H10.487C11.1952 6.17489 11.7716 5.58822 11.7716 4.86733V1.30756C11.7716 0.586667 11.1952 0 10.487 0H1.51305C0.804774 0 0.228376 0.586667 0.228376 1.30756V4.86733C0.228376 5.58844 0.804774 6.17489 1.51305 6.17489H2.25079V9.58111H0.907827C0.40719 9.58111 0 9.99578 0 10.5051V11.9491H0.827917V20H2.25079V16.4853H9.74921V20H11.1719V11.9491H11.9998V10.5051H12ZM3.41494 6.17489H8.58506V9.58111H3.41494V6.17489ZM2.25079 15.3007H9.74921V11.9491H2.25079V15.3007Z" fill="#333333"/>
</g>
</svg>
