<svg width="24" height="20" viewBox="0 0 24 20" fill="none" xmlns="http://www.w3.org/2000/svg">
<g id="noun_1028739">
<path id="Shape" fill-rule="evenodd" clip-rule="evenodd" d="M0 1.31579C0 0.600494 0.595278 0 1.30435 0H22.6957C23.4047 0 24 0.600494 24 1.31579V18.6842C24 19.3995 23.4047 20 22.6957 20H1.30435C0.595278 20 0 19.3995 0 18.6842V1.31579ZM22.4348 1.57895H1.56522V5.78947H22.4348V1.57895ZM6 2.63158C5.42371 2.63158 4.95652 3.10285 4.95652 3.68421C4.95652 4.26556 5.42371 4.73684 6 4.73684C6.57629 4.73684 7.04348 4.26556 7.04348 3.68421C7.04348 3.10285 6.57629 2.63158 6 2.63158ZM16.9565 3.68421C16.9565 3.10285 17.4237 2.63158 18 2.63158C18.5763 2.63158 19.0435 3.10285 19.0435 3.68421C19.0435 4.26556 18.5763 4.73684 18 4.73684C17.4237 4.73684 16.9565 4.26556 16.9565 3.68421ZM1.56522 7.36842H22.4348V18.4211H1.56522V7.36842ZM3.65217 12.3684V8.68421H7.04348V12.3684H3.65217ZM8.08696 8.68421V12.3684H11.4783V8.68421H8.08696ZM12.5217 12.3684V8.68421H15.913V12.3684H12.5217ZM16.9565 8.68421V12.3684H20.3478V8.68421H16.9565ZM3.65217 17.1053V13.4211H7.04348V17.1053H3.65217ZM8.08696 13.4211V17.1053H11.4783V13.4211H8.08696ZM12.5217 17.1053V13.4211H15.913V17.1053H12.5217Z" fill="#FDEFD9"/>
</g>
</svg>
