<svg width="24" height="24" viewBox="0 0 24 24" fill="none" xmlns="http://www.w3.org/2000/svg">
<g id="noun_clock_801045_000000">
<path id="Shape" fill-rule="evenodd" clip-rule="evenodd" d="M0 12C0 5.38667 5.38667 0 12 0C18.6133 0 24 5.38667 24 12C24 18.6133 18.6133 24 12 24C5.38667 24 0 18.6133 0 12ZM2.4 12C2.4 17.28 6.69333 21.6 12 21.6C17.3067 21.6 21.6 17.28 21.6 12C21.6 6.72 17.28 2.4 12 2.4C6.72 2.4 2.4 6.72 2.4 12Z" fill="black"/>
<path id="Path" fill-rule="evenodd" clip-rule="evenodd" d="M13.335 11.8101C13.335 11.7551 13.3613 11.6728 13.3613 11.6178V6.2357C13.3613 5.5492 12.8365 5 12.1806 5C11.5247 5 11 5.5492 11 6.2357V11.6178C11 11.7277 11 12.9085 11.3673 13.2654L15.0141 16.6979C15.2503 16.9176 15.5126 17 15.8012 17C16.1161 17 16.4571 16.8627 16.6933 16.5881C17.1393 16.0664 17.0868 15.2975 16.6145 14.8307L13.335 11.8101Z" fill="black"/>
</g>
</svg>
