<svg width="19" height="19" viewBox="0 0 19 19" fill="none" xmlns="http://www.w3.org/2000/svg">
<path fill-rule="evenodd" clip-rule="evenodd" d="M0 9.5C0 4.26444 4.26444 0 9.5 0C14.7356 0 19 4.26444 19 9.5C19 14.7356 14.7356 19 9.5 19C4.26444 19 0 14.7356 0 9.5ZM1.9 9.5C1.9 13.68 5.29889 17.1 9.5 17.1C13.7011 17.1 17.1 13.68 17.1 9.5C17.1 5.32 13.68 1.9 9.5 1.9C5.32 1.9 1.9 5.32 1.9 9.5Z" fill="#5F5F5F"/>
<path fill-rule="evenodd" clip-rule="evenodd" d="M10.5566 9.34956C10.5566 9.30608 10.5773 9.24086 10.5773 9.19738V4.93651C10.5773 4.39303 10.1619 3.95825 9.64267 3.95825C9.12341 3.95825 8.70801 4.39303 8.70801 4.93651V9.19738C8.70801 9.28434 8.70801 10.2191 8.99879 10.5017L11.8859 13.2191C12.0728 13.393 12.2805 13.4583 12.509 13.4583C12.7582 13.4583 13.0282 13.3496 13.2152 13.1322C13.5683 12.7191 13.5267 12.1104 13.1529 11.7409L10.5566 9.34956Z" fill="#5F5F5F"/>
</svg>
