<svg width="16" height="26" viewBox="0 0 16 26" fill="none" xmlns="http://www.w3.org/2000/svg">
<g id="noun_Chair_2255404_000000">
<path id="Shape" fill-rule="evenodd" clip-rule="evenodd" d="M16 13.6566C16 12.9945 15.4571 12.4554 14.7896 12.4554H12.9992V8.02736H13.9826C14.927 8.02736 15.6955 7.26469 15.6955 6.32753V1.69982C15.6955 0.762667 14.927 0 13.9826 0H2.01739C1.07303 0 0.304501 0.762667 0.304501 1.69982V6.32753C0.304501 7.26498 1.07303 8.02736 2.01739 8.02736H3.00106V12.4554H1.21044C0.542921 12.4554 0 12.9945 0 13.6566V15.5338H1.10389V26H3.00106V21.4309H12.9989V26H14.8958V15.5338H15.9997V13.6566H16ZM4.55326 8.02736H11.4467V12.4554H4.55326V8.02736ZM3.00106 19.8909H12.9989V15.5338H3.00106V19.8909Z" fill="black"/>
</g>
</svg>
