<svg width="19" height="19" viewBox="0 0 19 19" fill="none" xmlns="http://www.w3.org/2000/svg">
<g id="noun_clock_801045_000000">
<path id="Shape" fill-rule="evenodd" clip-rule="evenodd" d="M0 9.5C0 4.26444 4.26444 0 9.5 0C14.7356 0 19 4.26444 19 9.5C19 14.7356 14.7356 19 9.5 19C4.26444 19 0 14.7356 0 9.5ZM1.9 9.5C1.9 13.68 5.29889 17.1 9.5 17.1C13.7011 17.1 17.1 13.68 17.1 9.5C17.1 5.32 13.68 1.9 9.5 1.9C5.32 1.9 1.9 5.32 1.9 9.5Z" fill="#333333"/>
<path id="Path" fill-rule="evenodd" clip-rule="evenodd" d="M10.5566 9.34962C10.5566 9.30614 10.5773 9.24092 10.5773 9.19744V4.93657C10.5773 4.3931 10.1619 3.95831 9.64267 3.95831C9.12341 3.95831 8.70801 4.3931 8.70801 4.93657V9.19744C8.70801 9.2844 8.70801 10.2192 8.99879 10.5018L11.8859 13.2192C12.0728 13.3931 12.2805 13.4583 12.509 13.4583C12.7582 13.4583 13.0282 13.3496 13.2152 13.1322C13.5683 12.7192 13.5267 12.1105 13.1529 11.7409L10.5566 9.34962Z" fill="#333333"/>
</g>
</svg>
