<svg width="19" height="16" viewBox="0 0 19 16" fill="none" xmlns="http://www.w3.org/2000/svg">
<g id="noun_1028739">
<path id="Shape" fill-rule="evenodd" clip-rule="evenodd" d="M0 1.05263C0 0.480396 0.471262 0 1.03261 0H17.9674C18.5287 0 19 0.480396 19 1.05263V14.9474C19 15.5196 18.5287 16 17.9674 16H1.03261C0.471262 16 0 15.5196 0 14.9474V1.05263ZM17.7609 1.26316H1.23913V4.63158H17.7609V1.26316ZM4.75 2.10526C4.29377 2.10526 3.92391 2.48228 3.92391 2.94737C3.92391 3.41244 4.29377 3.78947 4.75 3.78947C5.20623 3.78947 5.57609 3.41244 5.57609 2.94737C5.57609 2.48228 5.20623 2.10526 4.75 2.10526ZM13.4239 2.94737C13.4239 2.48228 13.7938 2.10526 14.25 2.10526C14.7062 2.10526 15.0761 2.48228 15.0761 2.94737C15.0761 3.41244 14.7062 3.78947 14.25 3.78947C13.7938 3.78947 13.4239 3.41244 13.4239 2.94737ZM1.23913 5.89473H17.7609V14.7368H1.23913V5.89473ZM2.8913 9.89474V6.94736H5.57609V9.89474H2.8913ZM6.40217 6.94736V9.89474H9.08696V6.94736H6.40217ZM9.91304 9.89474V6.94736H12.5978V9.89474H9.91304ZM13.4239 6.94736V9.89474H16.1087V6.94736H13.4239ZM2.8913 13.6842V10.7368H5.57609V13.6842H2.8913ZM6.40217 10.7368V13.6842H9.08696V10.7368H6.40217ZM9.91304 13.6842V10.7368H12.5978V13.6842H9.91304Z" fill="#333333"/>
</g>
</svg>
