<svg width="21" height="15" viewBox="0 0 21 15" fill="none" xmlns="http://www.w3.org/2000/svg">
<path fill-rule="evenodd" clip-rule="evenodd" d="M4.40409 13.6198C4.40409 13.8633 4.40409 14.1069 4.40409 14.3505C4.40409 14.7023 4.1087 15 3.75959 15H0.966752C0.617647 15 0.349105 14.7023 0.349105 14.3505C0.349105 12.456 0.349105 10.5616 0.375959 8.66712C0.402813 6.39378 1.34271 5.74425 1.53069 5.52774H0.402813C0.18798 5.52774 0 5.33829 0 5.12179V4.60758C0 4.39107 0.268542 4.17456 0.483376 4.1475L2.44373 3.87686L3.73274 1.44114C3.84015 1.27876 4.53836 0.520974 5.3977 0.385656C8.70077 -0.128552 12.2724 -0.128552 15.6023 0.385656C16.4348 0.520974 17.133 1.27876 17.2404 1.44114L18.5563 3.87686L20.5166 4.1475C20.7315 4.17456 21 4.39107 21 4.60758V5.12179C21 5.33829 20.812 5.52774 20.5972 5.52774H19.4425C19.6573 5.74425 20.5972 6.39378 20.624 8.66712C20.624 10.5616 20.6509 12.456 20.6509 14.3505C20.6509 14.7023 20.3555 15 20.0332 15H17.2136C16.8645 15 16.5959 14.7023 16.5959 14.3505C16.5959 14.1069 16.5959 13.8633 16.5959 13.6198C12.5141 13.8633 8.45908 13.8633 4.40409 13.6198ZM5.50512 1.54939C5.18286 1.63058 4.88747 1.7659 4.61893 2.17185C4.24297 2.90257 3.86701 3.66035 3.49105 4.39107H17.509C17.133 3.66035 16.757 2.90257 16.3811 2.17185C16.1125 1.7659 15.8171 1.63058 15.4949 1.54939C12.165 1.14344 8.83504 1.14344 5.50512 1.54939ZM19.335 9.01894C18.046 9.26252 16.7839 9.4249 15.5486 9.69553C15.2532 9.85792 15.0384 10.1286 14.8504 10.4533C14.7967 10.5886 14.7967 10.8051 14.8235 11.0217C16.032 10.8322 17.2404 10.6428 18.422 10.4263C18.8248 10.2909 19.1202 9.99323 19.335 9.58728C19.3887 9.31664 19.3887 9.1272 19.335 9.01894ZM1.66496 9.01894C2.92711 9.26252 4.18926 9.4249 5.42455 9.69553C5.71995 9.85792 5.96164 10.1286 6.14962 10.4533C6.17647 10.5886 6.17647 10.8051 6.14962 11.0217C4.94118 10.8322 3.75959 10.6428 2.55115 10.4263C2.14834 10.2909 1.85294 9.99323 1.63811 9.58728C1.61125 9.31664 1.61125 9.1272 1.66496 9.01894Z" fill="black"/>
</svg>
