<svg width="19" height="17" viewBox="0 0 19 17" fill="none" xmlns="http://www.w3.org/2000/svg">
<path fill-rule="evenodd" clip-rule="evenodd" d="M0 8.49998C0 8.29294 0.126627 8.01803 0.255104 7.88463L7.49312 0.279258C7.83105 -0.0662444 8.37853 -0.106284 8.77249 0.244363C9.12472 0.557834 9.13349 1.16921 8.80778 1.50961L2.99759 7.60507H18.0952C18.5949 7.60507 19 8.00564 19 8.4998C19 8.99396 18.5949 9.39458 18.0952 9.39458H2.99759L8.80778 15.4901C9.13345 15.8304 9.11033 16.4268 8.77249 16.7553C8.4158 17.1021 7.82589 17.0712 7.49312 16.7204L0.255104 9.11502C0.0424336 8.90874 0.00357384 8.71006 0 8.49998Z" fill="#f4ac3d"/>
</svg>
