<svg width="17" height="17" viewBox="0 0 17 17" fill="none" xmlns="http://www.w3.org/2000/svg">
<rect y="5" width="4" height="12" fill="#BEBEBE"/>
<path fill-rule="evenodd" clip-rule="evenodd" d="M2 0C0.903226 0 0 0.887097 0 2C0 3.09677 0.887097 4 2 4C3.09677 4 4 3.1129 4 2C4 0.887097 3.09677 0 2 0Z" fill="#BEBEBE"/>
<path fill-rule="evenodd" clip-rule="evenodd" d="M6 5.28977V17H9.52331V11.2045C9.52331 9.67045 9.80451 8.20455 11.6406 8.20455C13.4602 8.20455 13.4767 9.96023 13.4767 11.3068V17H17V10.5739C17 7.42045 16.3383 5 12.7654 5C11.0451 5 9.88722 5.97159 9.42406 6.89205H9.37444V5.28977H6Z" fill="#BEBEBE"/>
</svg>
