<svg width="34" height="34" viewBox="0 0 34 34" fill="none" xmlns="http://www.w3.org/2000/svg">
<g id="noun_Plus_479868_000000">
<path id="Shape" fill-rule="evenodd" clip-rule="evenodd" d="M0 17C0 7.61116 7.61116 0 17 0C26.3844 0.0106075 33.9894 7.61556 34 17C34 26.3888 26.3888 34 17 34C7.61116 34 0 26.3888 0 17ZM1.15489 17C1.15489 25.751 8.24899 32.8451 17 32.8451C25.7466 32.8345 32.8345 25.7466 32.8451 17C32.8451 8.24899 25.751 1.15489 17 1.15489C8.24899 1.15489 1.15489 8.24899 1.15489 17Z" fill="white"/>
<path id="Path" fill-rule="evenodd" clip-rule="evenodd" d="M22.4375 16.4375H17.5625V11.5625C17.5625 11.2518 17.3107 11 17 11C16.6893 11 16.4375 11.2518 16.4375 11.5625V16.4375H11.5625C11.2518 16.4375 11 16.6893 11 17C11 17.3107 11.2518 17.5625 11.5625 17.5625H16.4375V22.4375C16.4375 22.7482 16.6893 23 17 23C17.3107 23 17.5625 22.7482 17.5625 22.4375V17.5625H22.4375C22.7482 17.5625 23 17.3107 23 17C23 16.6893 22.7482 16.4375 22.4375 16.4375V16.4375Z" fill="white"/>
</g>
</svg>
