<svg width="19" height="17" viewBox="0 0 19 17" fill="none" xmlns="http://www.w3.org/2000/svg">
<path fill-rule="evenodd" clip-rule="evenodd" d="M19 8.49998C19 8.29294 18.8734 8.01803 18.7449 7.88463L11.5069 0.279258C11.1689 -0.0662444 10.6215 -0.106284 10.2275 0.244363C9.87528 0.557834 9.86651 1.16921 10.1922 1.50961L16.0024 7.60507H0.904769C0.405065 7.60507 0 8.00564 0 8.4998C0 8.99396 0.405065 9.39458 0.904769 9.39458H16.0024L10.1922 15.4901C9.86655 15.8304 9.88967 16.4268 10.2275 16.7553C10.5842 17.1021 11.1741 17.0712 11.5069 16.7204L18.7449 9.11502C18.9576 8.90874 18.9964 8.71006 19 8.49998Z" fill="#F4AC3C"/>
</svg>
