<?xml version="1.0" encoding="utf-8"?>
<!-- Generator: Adobe Illustrator 21.1.0, SVG Export Plug-In . SVG Version: 6.00 Build 0)  -->
<svg version="1.1" id="Layer_1" xmlns="http://www.w3.org/2000/svg" xmlns:xlink="http://www.w3.org/1999/xlink" x="0px" y="0px" width="30px"
	 viewBox="0 0 30 30" style="enable-background:new 0 0 30 30;" xml:space="preserve">
<style type="text/css">
	.st0{display:none;fill:#FFFFFF;}
	.st1{display:none;}
	.st2{display:inline;fill:#FFFFFF;}
	.st3{fill:#FFFFFF;}
</style>
<path class="st0" d="M16.7,25v-9.1h3.4l0.5-3.5h-3.9v-2.3c0-1,0.3-1.7,1.9-1.7h2.1V5.2c-0.4,0-1.6-0.1-3-0.1c-3,0-5,1.6-5,4.7v2.6
	H9.3v3.5h3.4V25H16.7z"/>
<g class="st1">
	<rect x="6.5" y="12.2" class="st2" width="4" height="11.3"/>
	<path class="st2" d="M8.5,6.5c-1.1,0-2,0.9-2,2c0,1.1,0.9,2,2,2c1.1,0,2-0.9,2-2S9.7,6.5,8.5,6.5z"/>
	<path class="st2" d="M13,12.5v11h3.4V18c0-1.4,0.3-2.8,2-2.8c1.7,0,1.8,1.7,1.8,2.9v5.4h3.4v-6c0-3-0.6-5.2-4-5.2
		c-1.6,0-2.7,0.9-3.2,1.8h0v-1.5H13z"/>
</g>
<path class="st3" d="M21.3,7.3c-2.5-0.1-4.2,1.3-5.1,4.2c0.5-0.2,0.9-0.3,1.3-0.3c0.9,0,1.3,0.5,1.2,1.5c-0.1,0.6-0.5,1.5-1.2,2.7
	c-0.8,1.2-1.3,1.8-1.7,1.8c-0.5,0-0.9-0.9-1.3-2.7c-0.1-0.5-0.4-1.9-0.7-4.1c-0.3-2-1.2-3-2.6-2.9c-0.6,0.1-1.5,0.6-2.6,1.6
	C7.8,9.9,6.9,10.6,6,11.4l0.8,1.1c0.8-0.6,1.3-0.8,1.4-0.8c0.6,0,1.2,1,1.7,2.9c0.5,1.8,1,3.5,1.4,5.3c0.7,1.9,1.6,2.9,2.6,2.9
	c1.7,0,3.7-1.6,6.2-4.7c2.4-3,3.6-5.4,3.7-7.1C24.1,8.5,23.2,7.3,21.3,7.3z"/>
</svg>
