<svg xmlns="http://www.w3.org/2000/svg" width="22.39" height="22.39" viewBox="0 0 22.39 22.39">
  <path id="Path_90" data-name="Path 90" d="M109.221,79.732a1.506,1.506,0,0,0-1.506,1.507v19.377a1.506,1.506,0,0,0,1.506,1.507H128.6a1.507,1.507,0,0,0,1.507-1.507V81.239a1.507,1.507,0,0,0-1.507-1.507Zm12.443,15.087h-5.509V90.447h5.509Zm1.466-4.372h5.509v4.372H123.13Zm-1.466,5.837v4.372h-5.509V96.284Zm-12.484-5.837h5.509v4.372h-5.509Zm6.975-1.466V84.609h5.509v4.372Zm-1.466-4.372v4.372h-5.509V84.609Zm-5.509,11.675h5.509v4.372h-5.509Zm13.949,4.372V96.284h5.509v4.372Zm5.509-11.675H123.13V84.609h5.509Z" transform="translate(-107.715 -79.732)" fill="#702081"/>
</svg>
