<svg xmlns="http://www.w3.org/2000/svg" width="293.771" height="88" viewBox="0 0 293.771 88">
  <g id="Logo" transform="translate(-231.686 -240.945)">
    <g id="Group_1" data-name="Group 1" transform="translate(332.4 267.731)">
      <path id="Path_1" data-name="Path 1" d="M368.937,312.484h-7.483V278.122h16.3a11.193,11.193,0,0,1,4.283.788,9.173,9.173,0,0,1,3.274,2.24,10.135,10.135,0,0,1,2.092,3.47,12.972,12.972,0,0,1,.738,4.481,11.721,11.721,0,0,1-1.551,6.1,8.875,8.875,0,0,1-4.7,3.791l6.744,13.489h-8.32l-6.006-12.6h-5.366Zm7.877-18.9a3.8,3.8,0,0,0,2.633-.861,3.229,3.229,0,0,0,.96-2.536v-2.166a3.23,3.23,0,0,0-.96-2.535,3.8,3.8,0,0,0-2.633-.862h-7.877v8.959Z" transform="translate(-361.454 -276.054)" fill="#702081"/>
      <path id="Path_2" data-name="Path 2" d="M411.983,315.361a13.127,13.127,0,0,1-5.1-.936,10.143,10.143,0,0,1-3.79-2.707,12.325,12.325,0,0,1-2.388-4.283,19.223,19.223,0,0,1,0-11.224,12.067,12.067,0,0,1,2.388-4.259,10.3,10.3,0,0,1,3.79-2.683,14.348,14.348,0,0,1,10.19,0,10.3,10.3,0,0,1,3.791,2.683,12.067,12.067,0,0,1,2.387,4.259,19.224,19.224,0,0,1,0,11.224,12.325,12.325,0,0,1-2.387,4.283,10.146,10.146,0,0,1-3.791,2.707A13.127,13.127,0,0,1,411.983,315.361Zm0-5.76a4.246,4.246,0,0,0,3.347-1.329,5.52,5.52,0,0,0,1.182-3.791v-5.267a5.522,5.522,0,0,0-1.182-3.791,4.879,4.879,0,0,0-6.695,0,5.521,5.521,0,0,0-1.181,3.791v5.267a5.52,5.52,0,0,0,1.181,3.791A4.246,4.246,0,0,0,411.983,309.6Z" transform="translate(-370.056 -278.341)" fill="#702081"/>
      <path id="Path_3" data-name="Path 3" d="M434.037,314.94v-5.76l12.849-14.424H434.48V289.1h20.872v5.711l-12.9,14.474H455.7v5.661Z" transform="translate(-377.704 -278.511)" fill="#702081"/>
      <path id="Path_4" data-name="Path 4" d="M477.3,315.361a13.653,13.653,0,0,1-5.267-.96,10.865,10.865,0,0,1-3.913-2.707,11.39,11.39,0,0,1-2.412-4.259,19.823,19.823,0,0,1-.025-11.15,11.782,11.782,0,0,1,2.338-4.259,10.37,10.37,0,0,1,3.815-2.732,13.133,13.133,0,0,1,5.169-.96,12.752,12.752,0,0,1,5.49,1.083,10.368,10.368,0,0,1,3.741,2.9,11.723,11.723,0,0,1,2.117,4.209,18.58,18.58,0,0,1,.664,5v2.166h-16.59v.39a5.029,5.029,0,0,0,5.71,5.517,6.817,6.817,0,0,0,3.693-.9,14.571,14.571,0,0,0,2.658-2.173l3.643,4.54a11.5,11.5,0,0,1-4.5,3.16A16.622,16.622,0,0,1,477.3,315.361Zm-.147-21.66a4.347,4.347,0,0,0-3.471,1.452,5.7,5.7,0,0,0-1.255,3.864v.394h9.058v-.444a6.334,6.334,0,0,0-1.058-3.815A3.785,3.785,0,0,0,477.152,293.7Z" transform="translate(-384.613 -278.341)" fill="#702081"/>
      <path id="Path_5" data-name="Path 5" d="M508.425,311.887q-3.743,0-5.489-1.822a7.314,7.314,0,0,1-1.747-5.267v-29.34h7.286v30.768h3.248v5.661Z" transform="translate(-392.739 -275.458)" fill="#702081"/>
      <path id="Path_6" data-name="Path 6" d="M538.719,314.77a4.582,4.582,0,0,1-3.274-1.231,5.653,5.653,0,0,1-1.649-3.3h-.3a5.974,5.974,0,0,1-2.609,3.815,8.977,8.977,0,0,1-4.972,1.3,8.08,8.08,0,0,1-5.957-2.061,7.354,7.354,0,0,1-2.068-5.448,6.786,6.786,0,0,1,2.979-6.061,14.421,14.421,0,0,1,8.1-1.987h4.086V298.18a4.317,4.317,0,0,0-.986-2.978,4.225,4.225,0,0,0-3.3-1.108,5.728,5.728,0,0,0-3.446.935,9.236,9.236,0,0,0-2.117,2.117l-4.333-3.861a11.326,11.326,0,0,1,3.964-3.638,13.494,13.494,0,0,1,6.474-1.312q5.512,0,8.27,2.413t2.757,7.039v11.323h2.412v5.661Zm-10.092-4.48a5.967,5.967,0,0,0,3.125-.782,2.731,2.731,0,0,0,1.305-2.54V303.94h-3.544q-4.283,0-4.283,2.882v.733a2.42,2.42,0,0,0,.886,2.077A4.145,4.145,0,0,0,528.627,310.289Z" transform="translate(-396.479 -278.341)" fill="#702081"/>
      <path id="Path_7" data-name="Path 7" d="M574.175,314.77a4.582,4.582,0,0,1-3.274-1.231,5.653,5.653,0,0,1-1.649-3.3h-.3a5.974,5.974,0,0,1-2.609,3.815,8.977,8.977,0,0,1-4.972,1.3,8.08,8.08,0,0,1-5.957-2.061,7.354,7.354,0,0,1-2.068-5.448,6.786,6.786,0,0,1,2.979-6.061,14.421,14.421,0,0,1,8.1-1.987h4.086V298.18a4.321,4.321,0,0,0-.985-2.978,4.227,4.227,0,0,0-3.3-1.108,5.729,5.729,0,0,0-3.447.935,9.234,9.234,0,0,0-2.116,2.117l-4.332-3.861a11.317,11.317,0,0,1,3.963-3.638,13.494,13.494,0,0,1,6.474-1.312q5.512,0,8.27,2.413t2.757,7.039v11.323h2.412v5.661Zm-10.092-4.48a5.967,5.967,0,0,0,3.125-.782,2.731,2.731,0,0,0,1.305-2.54V303.94h-3.544q-4.283,0-4.283,2.882v.733a2.42,2.42,0,0,0,.886,2.077A4.145,4.145,0,0,0,564.083,310.289Z" transform="translate(-404.418 -278.341)" fill="#702081"/>
      <path id="Path_8" data-name="Path 8" d="M590.35,314.94V289.1h7.286v5.612h.245a8.012,8.012,0,0,1,.69-2.092,6.364,6.364,0,0,1,1.3-1.8,6.112,6.112,0,0,1,1.944-1.256,6.932,6.932,0,0,1,2.659-.468h1.281v6.794h-1.822a10.372,10.372,0,0,0-4.75.837,3.205,3.205,0,0,0-1.551,3.1V314.94Z" transform="translate(-412.701 -278.511)" fill="#702081"/>
    </g>
    <path id="Rectangle_1" data-name="Rectangle 1" d="M0,0H19.3a0,0,0,0,1,0,0V0A9.648,9.648,0,0,1,9.648,9.648h0A9.648,9.648,0,0,1,0,0V0A0,0,0,0,1,0,0Z" transform="translate(280.377 240.945) rotate(89.818)" fill="#ffc72c"/>
    <path id="Rectangle_2" data-name="Rectangle 2" d="M0,0H19.3a0,0,0,0,1,0,0V0A9.648,9.648,0,0,1,9.648,9.648h0A9.648,9.648,0,0,1,0,0V0A0,0,0,0,1,0,0Z" transform="translate(270.996 328.945) rotate(-90.182)" fill="#ffc72c"/>
    <circle id="Ellipse_1" data-name="Ellipse 1" cx="4.839" cy="4.839" r="4.839" transform="translate(270.852 280.239)" fill="#64a70b"/>
    <path id="Rectangle_3" data-name="Rectangle 3" d="M0,0H19.3a0,0,0,0,1,0,0V0A9.648,9.648,0,0,1,9.648,9.648h0A9.648,9.648,0,0,1,0,0V0A0,0,0,0,1,0,0Z" transform="translate(231.686 280.254) rotate(-0.182)" fill="#ffc72c"/>
    <path id="Rectangle_4" data-name="Rectangle 4" d="M0,0H19.3a0,0,0,0,1,0,0V0A9.648,9.648,0,0,1,9.648,9.648h0A9.648,9.648,0,0,1,0,0V0A0,0,0,0,1,0,0Z" transform="translate(319.686 289.635) rotate(179.818)" fill="#ffc72c"/>
    <path id="Path_9" data-name="Path 9" d="M300.52,262.45h0v27.292c0,.017-.005.033-.005.05,0,.034.005.067.005.1a9.637,9.637,0,0,1-1.284,4.808h1.747a15.661,15.661,0,0,0,15.663-15.655v-.405A16.136,16.136,0,0,0,300.52,262.45Z" transform="translate(-15.123 -4.815)" fill="#702081"/>
    <path id="Path_10" data-name="Path 10" d="M253.029,280.732v0h27.292c.017,0,.033.005.05.005.034,0,.067-.005.1-.005a9.637,9.637,0,0,1,4.808,1.284v-1.747a15.661,15.661,0,0,0-15.655-15.663h-.405A16.136,16.136,0,0,0,253.029,280.732Z" transform="translate(-4.778 -5.299)" fill="#702081"/>
    <path id="Path_11" data-name="Path 11" d="M271.353,323.866h0V296.574c0-.017,0-.033,0-.05,0-.034,0-.067,0-.1a9.629,9.629,0,0,1,1.284-4.808h-1.748a15.661,15.661,0,0,0-15.663,15.655v.405A16.137,16.137,0,0,0,271.353,323.866Z" transform="translate(-5.272 -11.344)" fill="#702081"/>
    <path id="Path_12" data-name="Path 12" d="M314.44,309.865v0H287.148c-.018,0-.033-.005-.051-.005-.033,0-.067.005-.1.005a9.637,9.637,0,0,1-4.808-1.284v1.747a15.662,15.662,0,0,0,15.656,15.663h.4A16.137,16.137,0,0,0,314.44,309.865Z" transform="translate(-11.307 -15.142)" fill="#702081"/>
  </g>
</svg>
