<svg xmlns="http://www.w3.org/2000/svg" width="163.565" height="194.264" viewBox="0 0 163.565 194.264">
  <path id="Path_120" data-name="Path 120" d="M1638.441,406.352l2.031-.963,1.122-.267h4.375l4.218-.96-1.71-.912-10.251.371-.637-.263-.7.589-.269,1.065.747,1.064Zm-19.974,5.493,5.872-2.614,1.5-.371,1.921-.856,1.753-.052.592-.314-.106-.269-.108-.537-.1-.267,2.507-.1,1.175-.425,1.015-1.4-6.3,1.229-.592.434-.7.582-5.71,1.173h-.957l-.752.7-2.3.8-.477,1.222.529,1.067ZM1657.505,404v.212l.268.422.854-1.068,7.317-2.3h.587V400.8l-1.18-.369-4.212.369-1.123.267-1.6.7-1.071.957.428.964Zm19.758-5.346.159-.477.324-.109.1-.154h-.96l-.431.369-.1.37.639.325Zm-5.551-.421,1.5.522.1-.267.111-.1.156-.107h.215l-2.354-1.065-.538.059.055.471Zm-64.829,22.583.96-1.4,3.367-3.259,1.227-.476.532-.318h1.12v-.477l-2.127-.318-2.889,1.7-2.776,2.563-1.816,2.354,1.333.588Zm95.744,4.111.376-1.178.1-1.114-.052-1.122-.11-1.983h-.472l-3.106-.8-1.282-.743-.1-1.179-.212-.591V415.9l.158-.214.313-.318v-.477h-.263l-.376.37-.481.16-.532-.1-.369-.428-.747.212-1.712-.964-1.34-.428-.312-.312-.214-.325-.22-.161-.051-.159-1.019-.746-.212-.1-1.443-5.874-.518-.661-.85-.433-4.223-.689-10.037,1.545-6.357,1.874-1.065.848-.373.1-.433-.16-.744-.639-.431-.159-8.33.27-4.11.21-2.883,1.494-.96.054-1.551,1.122-6.782,2.727-1.5,1.281-2.028.319-.853.318-.749.8-.644.963-.7.8-1.544.689-.911.8-1.5,1.765-.85,2.129-1.18,4.81-.854,1.761-.85.593-1.978.478-.8.644-.636.742-8.55,7.636-1.657.746-1.71.217-.908.323-1.81,1.546-.963.535-1.66.1-1.759-.529-.966-1.282.639-2.137-.318-.53-.423.422-2.62-.422-.48.583-.318,1.44-.159,1.654-.052,1.282-.381,2.3-1.81,4.7-.431,2.189-.1,1.065-.747,3.476-1.819,13.5-.85,1.818v.529l-.376,1.978-2.565,7.589-4.329,7.8-5.181,7.636-6.086,7.365-1.438.968-1.657.265-1.972-.423-.272.472-.269.537.483,1.177.8,2.725.167,1.067-.109.211-.217.271-.211.371-.107.535.107.428.211.269.269.216,1.065,1.492.327.644-.538.422-.425.214-.318.058-.167-.058-1.174-.637-1.441-.326-.8.061-.371.477-2.667.8-1.226.848.373,1.874h.431l.32-.054.159-.274.853-.214h1.067l1.07-.316.8-.591,1.232.85,1.012.963.691,1.444.267,2.236.587.909,2.936.91,1.065.746.428.481-1.444.1-.746.315-.535.594-.1.584v.749l.1.8.214.591.321.371.425.324.43.159,1.866.058.533.525.214,1.286-1.018-.848-1.119-.323-3.789-.217-1.122.319-2.244,1.069,3.367,3.144,1.01.6.644.1,1.334-.161.642.058,1.762.8,1.926.323,1.174.688.908,1.122.37,1.5-.582,1.548-1.281.369-1.386-.052-.856.263-.859-.423-2.19.318-1.008-.318-.644-.853-.856-2.353-.587-1.065-1.764-1.55-2.08-.851-4.058-.425v-.428l.266-.274.748-.478.431-.158-.376-1.016-.587-.85-.694-.642-.64-.38-.96-.1-11.428,1.225-4.376,2.727-.431.587.159,1.121.482.748,1.391,1.229.53.794.587,1.069.641.963.75.435,2.4.528.962-.054,1.762-.644.639.054,1.657,1.608,2.565,1.279,1.174,1.223.426.211.474-.054.541-.373,1.544-.158.642-.321.481-.686,1.281-2.4.582-.381,1.767.158.7.324,2.351,2.029.856.532.909.266,3.9.058.958-.27.483-.641.423.319.107.529v.7l.107.849.322.8.164.212,1.224.058.48.269,1.067.582.478.16.318.107,1.66.107h.318l.8-.425.055-.269.159-.912-.055-.1-.216-.537-.957-1.116-.108-.159-.211-.428v-.7l.268-.535.1-.477-.53-.59,2.245-1.281,1.44-.53.8-.324,1.117-.1h.159l.533.1.318.6-.052.848v.268l-.371.851-.057.318-.052.318.264.212.535.376.263.056h.271l.321-.056.911-.163,1.279.328h.159l.59-.058.587-.217.431-.318,3.309-4.053,1.391-.752.582.056.327.1.425.161.212.1.529.382.431.581.109,1.018-.168.645-.1.37-.113.7-.052.318.165.636.159.537-1.869-.856-.478.058-.269.807.907.367,2.991.107.378.1.425.11.8.375.854.37.908-.265.482-.539.588-.584.645-.909.318-.425.264-.435.382-.637.159-.428.158-.378.11-.426.057-.217.263-.376.643.433.057.107.072.044,1.278.848.318.588.535,1.02-.159,1.123-.479,1.064-.055.531-.1.9.263.646,1.44,1.6.217.592.423,1.494.165.369v.059h.051l.7.375,1.649-.164h.17l.581.054.753.967v2.4l.748.218,1.6-.376,5.021.217.9-.318,1.767-1.226.212-.108.645-.318.911.107.474.318.533.317.644.8.163.212.323,1.281.159,1.55.963.851,2.4.753.319.211.265.212.431.484.267.214.211.161h.752l.963-.214.793-.16h.592l.688.426.911,1.226.536.426.055.058.642-.165.639-.159h.212l.535.054.376.856.108.318-.324.318-.27.275-.159.746.962,1.011-.266.163-.11.058-.158.052-.27.1-.477.058-.477-.058.055.165.052.315.052.214.107.211v.058l-.323.9-.212.435v.052l-.32.428-.478-.428-.323.217-.163.371-.054.265-.052.374-.052.535.582.81-.691,1.6-1.658,2.674.911-.27h.422l.433.212-.109.216-.377.589-.751,1.55-.535.8-.211.159-.481.159-.37.165-.113.052-2.512,2.78-.582.644.052,1.01v.483l.1.159.588.848.962.644.16.053.752.378h.052l.593.16-.052.53v.214l-.17.59-.264.963h.052l.381.214.316.211.324.058h.162l.214-.058.264-.056.592-.907.052-.1.37-.313.273.1.159.052.851.966.433.316,3.682-.1.905.313h.057l3.095.1.324-.052.53-.1.108-.853-.267-.429-.431-.313-.318-.54-.17-.85.645.16.589-.592.214-.8-.1-.582-.055-.593.374-.639.589-.318.954.058.48-.593.272-.688v-.537l-.381-1.389.057-.428.212-.38.1-.265-1.385-.478-1.012-.642-.321-.373-.107-.532v-1.018l.214-.748.263-.594-.106-.37-1.546.159-1.122-.371-.591-.054-.586.158-1.123.535-.587.1-.055-1.709-.645-1.92-.263-1.55,1.174-.639.593.315.53.637.589.541.8-.1.541-.6.793-1.7.592-.646,3.9-3.1,2.4-1.333.645-.848-.908-.855.958-.8.321-.214-.964-.315-2.132,1.438-1.015-.529-.324-1.227.108-1.5.377-1.334.425-.746.911-1.069,2.19-4,.423-.431,1.064-.749.429-.584.214-.851.109-1.5.269-.586-.646-.748.053-1.225.323-1.441.159-1.334-.211-1.228-.325-2.242-1.7-1.978-2.831-3.9-.165-.856.214-.955.48-1.555-2.883-1.222-.963-1.223.592-1.926-.433-.429-.958-.694-.483-.217-1.221.058-.43-.159.054-.749.963-.955.053-1.4-.594-1.336-.952-.744.154-.593.7-.471,1.765-.326.8-.371.85-.64.587-.323,1.706-.478,1.388.37,1.015.275.7.159-.591-.909-1.6-1.651-.535-.381,1.44-.8,1.386.643,1.391,1.116,1.44.593,1.334-.274.382.052.317.326.475.848.214.217,1.6.269.694.372.1,1.068,1.6-.429.164-.693-.321-1.55,2.724.8h.85l.7-.318,2.08-1.6,4.217-1.441,3.789-.11,1.122-.639,1.021-1.173.963-1.767.37-.369.318-.056.218-.211.052-.856-.107-.478-.212-.326-1.065-1.174-2.776-1.548-.906-.262-.642-.486-.109-1.062.322-.692.377-.159h.421l.536-.269.322-.433.367-.911.219-.37.746-.75.641-.373,2.778-.313.535-.48.958-1.924.8-.85,1.816-.8.848-.744,1.021-1.6.475-.532,1.868-1.175.106-.376-.369-.639-.376-1.493v-1.29l.318-1.059.851-1.978.477-2.615-.587-1.767-2.559-4.222-.272.107-.263.477-.376.376-1.067.321-1.122.053-1.175-.218-2.192-.85-3.36-.477-1.118-.535-.856-.964-.266-1.017-.057-1.224-.162-1.223-.53-1.071.692-.051,2.354-1.181-1.393-1.173-.316-.423v-.6l.214-.582.053-.646-.371-.746,1.492-1.064,1.443-.433,4.056-.052,2.238.7,2.083-.321.647.269,1.493.478.8-1.493.318-2.455.374-7.589.372-2.352.746-2.135,3.477-5.5.912-2.35.37-2.243.052-2.51-.371-5.079-.165-.582-.209-.376-.161-.428-.051-.854.1-.586Zm-55.91,46.729-.483,1.65-.8,1.392-1.71,2.456-.908,1.015-1.388,1.021-1.443.751-2.456.741-1.284,1.065-1.924,2.354-1.385,3.259-.481.535-3.679.906-1.816-.16-1.871-.9-3.953-2.884-.857-.107-1.811.211-1.015-.1-.8-.316-2.132-1.5-.853-.313-1.926-.158-.689-.212-2.623-1.662.217-.318.263-.1.058-.052v-.535l.642.1.269.165.318.266v-.535l.645.48.37-.75.321-1.069.535-.53.478-.159.48-.434.376-.581.324-.752-.695-.371-.318-.586-.269-.587-.481-.433.857-.371.318-.051-.212-.7-.1-.269.854-.9-.318-1.7-1.387-3.154-.592-2.025-.052-1.765.644-1.179,1.493-.267,1.122.425.321.216.752.8.587-.107.645-.265,2.615-1.66.691-.8.535-1.66.646-.581,1.388-.7-.159-.692-.107-.958-.16-.859-.268-.369-2.187-.965-.694-.051-.587.1-.48.266-.425.434-.588.37-.532-.318-.482-.535-.423-.27-.587-.963-.112-4.486-.211-1.545-2.137-4.329-.911-.741,1.766-.752,1.812-1.123,6.731-5.978,3.578-2.3.478,1.492.268.65.428.747.425.263.161.912-.051.906-.269.85.423.8.167,1.123-.212,1.123-.8.954.593,1.122-.382.539-.69.37-.479.8-.211.108-.214.211v.7l.165.425.266.211.322.158.268.321.906.746,1.333.376,2.673.112.529.157,1.016.637.642.159.692-.1.43-.216.9-.634.7-.275h.644l3.1.906.482.376-1.548.314-1.283.912-1.013,1.392-.855,1.7-.376,1.766-.322,2.933.052,2.725.752,1.174.53.433,1.015,1.922.379.535.689.212,5.611-.318.749.159.588.434.428.742.318,1.174.6,2.6.159,1.29Zm-8.224-6.413-1.174-1.226-.746.586-2.455.8-.752.537-1.868,1.866-.423.061-.857-.111-.318.269-1.021,2.622-.587.425-1.6.646-1.927,1.755-3.2,1.282-1.818,1.82-2.667,1.44-1.229,1.175-.747.428.429,1.064.159,1.016.266.8.908.477,1.926-.1.689.1,2.938,1.123,1.334.752,2.557,2.031,1.12.472,2.837-.1,1.492-.59.909-1.223.266-1.764-.318-2.141,1.174-.642.593-.22.688-.052.646-.318.9-1.333.535-.318,1.123-.214,2.029-.961,1.225-.214,1.178-.431,1.12-1.069.906-1.386.7-1.334.64-1.709v-1.392l-.856-3.1Zm-83.3,63.283,1.918-.114.269-.211,1.07-1.226.587.052.371.321.269.376.268.266,1.652.7.7.532.266.859.423.906.911.639,1.6.587.746.052,3.26-.639.746-.266.694-.48.428-.695-.107-1.122-.8-.59-1.766-.478-.423-.375-.266-.376-.217-.37-1.654-1.978-.7-.53-.963-.211-4.058-.114-.585-.321-.7-.054-.158.054-3.578.539-1.548,1.012-.107,2.19.587.8Zm19.487,20.5-.266.263-.747,1.069-1.443-.107-.266-.1-.423-.323-1.018-.159-.486-.162-.37-.425-.48-1.067-.266-.425-.587-.376-.963-.377-.908-.051-.425.587-.212,1.339-.592.688-4.16,1.766-1.015.161-1.6-.484h-1.71l-.911-.374-1.282-1.337-4.165-1.173-2.669-1.709-.637.054-.645.532-6.889,2.246.216,1.709.1.906-.159,1.715-.055,1.6.378,1.121.212.589,1.015,1.122.689.321.593.265.854.107.428.052,1.709-.267.32-.052.055-.269.053-.375-.108-.854.055-.268.053-.53.477-.48h.052l.593-.164.688-.052,1.712-.37h.107l.964-.055,1.065.159,5.18,1.71.8.535.211.908-.052.746.052.7.643.746.48.216.052.052,5.018-.052.645-.216.318-.1.263-.216,1.66-1.282,5.282-2.667,2.086-1.656,1.657-2.3.159-.481.051-.159.322-1.547v-.269l-.908-.536ZM1599.5,437.214l1.443-.425.963-1.871,1.978-1.651,1.175-1.823.587-1.119.266-.9h-.848v-.431l.73-.646v-1.122l-.425-1.282-.587-.957.216-.323.053-.319-.11-.369-.159-.435-1.334-.052-1.065,1.767-1.014,2.136-2.034,1.705-1.015,1.714-.848,2.08-.269,1.869.8,1.811Z" transform="translate(-1539.542 -397.219)" fill="rgba(100,167,11,0.21)"/>
</svg>
