<?xml version="1.0" encoding="utf-8"?>
<!-- Generator: Adobe Illustrator 21.1.0, SVG Export Plug-In . SVG Version: 6.00 Build 0)  -->
<svg version="1.1" id="Layer_1" xmlns="http://www.w3.org/2000/svg" xmlns:xlink="http://www.w3.org/1999/xlink" x="0px" y="0px"
	 viewBox="0 0 14.2 12" style="enable-background:new 0 0 14.2 12;" xml:space="preserve">
<style type="text/css">
	.st0{fill:#702081;}
</style>
<g>
	<polygon class="st0" points="13.2,2 14.2,2 14.2,1 14.2,1 14.2,1 14.2,0 13.2,0 1,0 0,0 0,2 1,2 	"/>
	<polygon class="st0" points="14.2,5 13.2,5 1,5 0,5 0,6 0,6 0,6 0,7 1,7 13.2,7 14.2,7 14.2,6 14.2,6 14.2,6 	"/>
	<polygon class="st0" points="14.2,11 14.2,10 13.2,10 1,10 0,10 0,11 0,11 0,11 0,12 1,12 13.2,12 14.2,12 14.2,11 14.2,11 	"/>
</g>
</svg>
