<?xml version="1.0" encoding="utf-8"?>
<!-- Generator: Adobe Illustrator 23.0.1, SVG Export Plug-In . SVG Version: 6.00 Build 0)  -->
<svg version="1.1" id="Layer_1" xmlns="http://www.w3.org/2000/svg" xmlns:xlink="http://www.w3.org/1999/xlink" x="0px" y="0px"
	 viewBox="0 0 37.3 36" style="enable-background:new 0 0 37.3 36;" xml:space="preserve">
<style type="text/css">
	.st0{fill:#FFFFFF;}
</style>
<g>
	<path class="st0" d="M0.1,6.9C0,7.4,0,7.6,0,7.6v20.7c0,0.1,0,0.4,0.1,0.7l12.2-11.7L0.1,6.9z"/>
	<path class="st0" d="M15.5,17.3l3.2,2.6l3.2-2.6l1.6-1.3L35.7,5.5c-0.2-0.1-0.4-0.1-0.6-0.1H2.2c-0.2,0-0.4,0-0.6,0.1L13.9,16
		L15.5,17.3z"/>
	<path class="st0" d="M18.7,22.6l-4.8-3.9L1.7,30.5c0.2,0.1,0.4,0.1,0.6,0.1h32.9c0.2,0,0.4,0,0.6-0.1L23.4,18.7L18.7,22.6z"/>
	<path class="st0" d="M37.2,6.9L25.1,17.4l12.2,11.7c0.1-0.3,0.1-0.5,0.1-0.7V7.6C37.3,7.4,37.3,7.2,37.2,6.9z"/>
</g>
</svg>
