<?xml version="1.0" encoding="utf-8"?>
<!-- Generator: Adobe Illustrator 19.2.1, SVG Export Plug-In . SVG Version: 6.00 Build 0)  -->
<svg version="1.1" id="Layer_1" xmlns="http://www.w3.org/2000/svg" xmlns:xlink="http://www.w3.org/1999/xlink" x="0px" y="0px"
	 viewBox="0 0 27 27" style="enable-background:new 0 0 27 27;" xml:space="preserve">
<style type="text/css">
	.st0{fill:#FFFFFF;}
</style>
<path class="st0" d="M22.3,6.3c0,0.9-0.7,1.6-1.6,1.6c-0.9,0-1.6-0.7-1.6-1.6c0-0.9,0.7-1.6,1.6-1.6C21.6,4.7,22.3,5.4,22.3,6.3z
	 M13.5,18C11,18,9,16,9,13.5C9,11,11,9,13.5,9C16,9,18,11,18,13.5C18,16,16,18,13.5,18z M13.5,6.6c-3.8,0-6.9,3.1-6.9,6.9
	c0,3.8,3.1,6.9,6.9,6.9c3.8,0,6.9-3.1,6.9-6.9C20.4,9.7,17.3,6.6,13.5,6.6z M13.5,2.4c3.6,0,4,0,5.5,0.1c1.3,0.1,2,0.3,2.5,0.5
	c0.6,0.2,1.1,0.5,1.6,1c0.5,0.5,0.8,0.9,1,1.6C24.2,6,24.4,6.7,24.5,8c0.1,1.4,0.1,1.9,0.1,5.5c0,3.6,0,4-0.1,5.5
	c-0.1,1.3-0.3,2-0.5,2.5c-0.3,0.6-0.5,1.1-1,1.6c-0.5,0.5-0.9,0.8-1.6,1c-0.5,0.2-1.2,0.4-2.5,0.5c-1.4,0.1-1.9,0.1-5.5,0.1
	c-3.6,0-4,0-5.5-0.1c-1.3-0.1-2-0.3-2.5-0.5c-0.6-0.3-1.1-0.5-1.6-1c-0.5-0.5-0.8-0.9-1-1.6c-0.2-0.5-0.4-1.2-0.5-2.5
	c-0.1-1.4-0.1-1.9-0.1-5.4c0-3.6,0-4,0.1-5.5c0.1-1.3,0.3-2,0.5-2.5c0.2-0.6,0.5-1.1,1-1.6c0.5-0.5,0.9-0.8,1.6-1
	C6,2.8,6.7,2.5,8,2.5C9.4,2.4,9.8,2.4,13.5,2.4L13.5,2.4L13.5,2.4z M13.5,0C9.8,0,9.4,0,7.9,0.1C6.5,0.1,5.5,0.4,4.7,0.7
	C3.8,1.1,3,1.5,2.3,2.3C1.5,3,1.1,3.8,0.7,4.7C0.4,5.5,0.1,6.5,0.1,7.9C0,9.4,0,9.8,0,13.5c0,3.7,0,4.1,0.1,5.6
	c0.1,1.4,0.3,2.4,0.6,3.3c0.3,0.9,0.8,1.6,1.6,2.4c0.8,0.7,1.5,1.2,2.4,1.6c0.9,0.3,1.8,0.6,3.3,0.6C9.4,27,9.8,27,13.5,27
	c3.7,0,4.1,0,5.6-0.1c1.4-0.1,2.4-0.3,3.3-0.6c0.9-0.3,1.6-0.8,2.4-1.6c0.7-0.8,1.2-1.5,1.6-2.4c0.3-0.9,0.6-1.8,0.6-3.3
	c0.1-1.4,0.1-1.9,0.1-5.6c0-3.7,0-4.1-0.1-5.6c-0.1-1.4-0.3-2.4-0.6-3.3c-0.3-0.9-0.8-1.6-1.6-2.4c-0.8-0.8-1.5-1.2-2.4-1.6
	c-0.9-0.3-1.8-0.6-3.3-0.6C17.6,0,17.2,0,13.5,0z"/>
</svg>
