<?xml version="1.0" encoding="utf-8"?>
<!-- Generator: Adobe Illustrator 23.0.1, SVG Export Plug-In . SVG Version: 6.00 Build 0)  -->
<svg version="1.1" id="Layer_1" xmlns="http://www.w3.org/2000/svg" xmlns:xlink="http://www.w3.org/1999/xlink" x="0px" y="0px"
	 viewBox="0 0 40 40" style="enable-background:new 0 0 40 40;" xml:space="preserve">
<style type="text/css">
	.st0{fill:#FFFFFF;}
</style>
<g>
	<path class="st0" d="M0,0v40h40V0H0z M39,39H1V1h38V39z"/>
	<path class="st0" d="M7.4,28.7c0.3,0.9,0.9,1.7,1.5,2.4c0.7,0.7,1.5,1.2,2.4,1.5c0.8,0.3,1.8,0.6,3.2,0.6c1.4,0.1,1.9,0.1,5.5,0.1
		s4.1,0,5.5-0.1c1.4-0.1,2.4-0.3,3.2-0.6c1.8-0.7,3.2-2.1,3.9-3.9c0.3-0.8,0.6-1.8,0.6-3.2c0.1-1.4,0.1-1.9,0.1-5.5s0-4.1-0.1-5.5
		c-0.1-1.4-0.3-2.4-0.6-3.2c-0.3-0.9-0.9-1.7-1.5-2.4c-0.7-0.7-1.5-1.2-2.4-1.5c-0.8-0.3-1.8-0.6-3.2-0.6c-1.4-0.1-1.9-0.1-5.5-0.1
		s-4.1,0-5.5,0.1c-1.4,0.1-2.4,0.3-3.2,0.6c-0.9,0.3-1.7,0.9-2.4,1.5c-0.7,0.7-1.2,1.5-1.5,2.4c-0.3,0.8-0.6,1.8-0.6,3.2
		c-0.1,1.4-0.1,1.9-0.1,5.5s0,4.1,0.1,5.5C6.8,26.9,7.1,27.9,7.4,28.7z M9.2,14.6c0.1-1.3,0.3-2,0.5-2.5c0.2-0.6,0.6-1.1,1-1.5
		c0.4-0.4,1-0.8,1.5-1c0.5-0.2,1.2-0.4,2.5-0.5C16,9.1,16.5,9.1,20,9.1c3.6,0,4,0,5.4,0.1c1.3,0.1,2,0.3,2.5,0.5
		c0.6,0.2,1.1,0.6,1.5,1c0.4,0.4,0.8,1,1,1.5c0.2,0.5,0.4,1.2,0.5,2.5c0.1,1.4,0.1,1.8,0.1,5.4c0,3.5,0,4-0.1,5.4
		c-0.1,1.3-0.3,2-0.5,2.5c-0.4,1.2-1.4,2.1-2.5,2.5c-0.5,0.2-1.2,0.4-2.5,0.5c-1.4,0.1-1.8,0.1-5.4,0.1s-4,0-5.4-0.1
		c-1.3-0.1-2-0.3-2.5-0.5c-0.6-0.2-1.1-0.6-1.5-1c-0.4-0.4-0.8-1-1-1.5c-0.2-0.5-0.4-1.2-0.5-2.5C9.1,24,9.1,23.6,9.1,20
		C9.1,16.5,9.1,16,9.2,14.6z"/>
	<path class="st0" d="M20,26.8c3.8,0,6.8-3.1,6.8-6.8c0-3.8-3.1-6.8-6.8-6.8c-3.8,0-6.8,3.1-6.8,6.8C13.2,23.8,16.2,26.8,20,26.8z
		 M20,15.6c2.4,0,4.4,2,4.4,4.4s-2,4.4-4.4,4.4c-2.4,0-4.4-2-4.4-4.4S17.6,15.6,20,15.6z"/>
	<path class="st0" d="M27.1,14.5c0.9,0,1.6-0.7,1.6-1.6c0-0.9-0.7-1.6-1.6-1.6c-0.9,0-1.6,0.7-1.6,1.6
		C25.5,13.8,26.2,14.5,27.1,14.5z"/>
</g>
</svg>
