<?xml version="1.0" encoding="utf-8"?>
<!-- Generator: Adobe Illustrator 23.0.1, SVG Export Plug-In . SVG Version: 6.00 Build 0)  -->
<svg version="1.1" id="Layer_1" xmlns="http://www.w3.org/2000/svg" xmlns:xlink="http://www.w3.org/1999/xlink" x="0px" y="0px"
	 viewBox="0 0 30 30" style="enable-background:new 0 0 30 30;" xml:space="preserve">
<style type="text/css">
	.st0{fill:#FFFFFF;}
</style>
<g>
	<path class="st0" d="M3,6H0v21c0,1.6,1.3,3,3,3h21v-3H3V6z"/>
	<rect x="10.5" y="9.8" class="st0" width="1.5" height="1.5"/>
	<rect x="18" y="9.8" class="st0" width="1.5" height="4.5"/>
	<path class="st0" d="M27,0H9C7.3,0,6,1.3,6,3v18c0,1.6,1.3,3,3,3h18c1.6,0,3-1.4,3-3V3C30,1.3,28.6,0,27,0z M14.3,11.3
		c0,1.2-1,2.3-2.3,2.3h-1.5v3H8.3v-9H12c1.2,0,2.3,1,2.3,2.3V11.3z M21.8,14.3c0,1.2-1,2.3-2.3,2.3h-3.8v-9h3.8c1.2,0,2.3,1,2.3,2.3
		V14.3z M27.8,9.8h-2.3v1.5h2.3v2.3h-2.3v3h-2.3v-9h4.5V9.8z"/>
</g>
</svg>
