<?xml version="1.0" encoding="utf-8"?>
<!-- Generator: Adobe Illustrator 23.0.1, SVG Export Plug-In . SVG Version: 6.00 Build 0)  -->
<svg version="1.1" id="Layer_1" xmlns="http://www.w3.org/2000/svg" xmlns:xlink="http://www.w3.org/1999/xlink" x="0px" y="0px"
	 viewBox="0 0 37.3 36" style="enable-background:new 0 0 37.3 36;" xml:space="preserve">
<style type="text/css">
	.st0{fill:#FFFFFF;}
</style>
<path class="st0" d="M35.6,25.4l-7.9-3.4c-0.7-0.3-1.5-0.1-2,0.5l-3.5,4.3c-5.5-2.6-9.9-7-12.5-12.5l4.3-3.5c0.6-0.5,0.8-1.3,0.5-2
	L11.2,1c-0.3-0.7-1.1-1.2-1.9-1L2,1.7C1.2,1.9,0.7,2.6,0.7,3.4c0,18,14.6,32.6,32.6,32.6c0.8,0,1.5-0.5,1.6-1.3l1.7-7.3
	C36.8,26.6,36.4,25.8,35.6,25.4z"/>
</svg>
