<?xml version="1.0" encoding="utf-8"?>
<!-- Generator: Adobe Illustrator 19.2.1, SVG Export Plug-In . SVG Version: 6.00 Build 0)  -->
<svg version="1.1" id="Layer_1" xmlns="http://www.w3.org/2000/svg" xmlns:xlink="http://www.w3.org/1999/xlink" x="0px" y="0px"
	 viewBox="0 0 20.8 27" style="enable-background:new 0 0 20.8 27;" xml:space="preserve">
<style type="text/css">
	.st0{fill:#FFFFFF;}
</style>
<path class="st0" d="M11,0C5.5,0,0,3.7,0,9.7c0,3.8,2.1,6,3.4,6c0.5,0,0.8-1.5,0.8-1.9c0-0.5-1.3-1.6-1.3-3.7c0-4.3,3.3-7.4,7.6-7.4
	c3.7,0,6.4,2.1,6.4,5.9c0,2.9-1.2,8.3-4.9,8.3c-1.3,0-2.5-1-2.5-2.4c0-2,1.4-4,1.4-6.1C11.1,4.8,6,5.4,6,9.7c0,0.9,0.1,1.9,0.5,2.7
	c-0.7,3.2-2.3,8-2.3,11.3c0,1,0.1,2,0.2,3.1C4.6,27,4.6,27,4.8,26.9c2.7-3.7,2.6-4.5,3.9-9.3c0.7,1.3,2.4,1.9,3.7,1.9
	c5.7,0,8.3-5.6,8.3-10.6C20.8,3.5,16.1,0,11,0z"/>
</svg>
