<svg xmlns="http://www.w3.org/2000/svg" width="300.141" height="253.682" viewBox="0 0 300.141 253.682">
  <g id="Group_29" data-name="Group 29" transform="translate(-39.359 -51.997)">
    <g id="Group_24" data-name="Group 24" transform="translate(101.408 51.997)">
      <circle id="Ellipse_13" data-name="Ellipse 13" cx="92.108" cy="92.108" r="92.108" transform="translate(0)" fill="#fff"/>
      <circle id="Ellipse_14" data-name="Ellipse 14" cx="87.025" cy="87.025" r="87.025" transform="translate(5.083 5.083)" fill="#4dbdc6"/>
      <path id="Path_55" data-name="Path 55" d="M140.616,177.106a3.7,3.7,0,1,1-3.7-3.7A3.7,3.7,0,0,1,140.616,177.106Z" transform="translate(-79.522 -23.688)" fill="#fff"/>
      <path id="Path_56" data-name="Path 56" d="M144.3,185.788a2.8,2.8,0,1,1-2.8-2.8A2.8,2.8,0,0,1,144.3,185.788Z" transform="translate(-78.244 -21.453)" fill="#fff"/>
      <path id="Path_57" data-name="Path 57" d="M151.034,162.828a7.407,7.407,0,1,1-7.408-7.406A7.406,7.406,0,0,1,151.034,162.828Z" transform="translate(-78.823 -27.882)" fill="#fff"/>
      <circle id="Ellipse_15" data-name="Ellipse 15" cx="8.933" cy="8.933" r="8.933" transform="translate(42.307 105.627)" fill="#fff"/>
    </g>
    <g id="Group_25" data-name="Group 25" transform="translate(39.359 246.844)">
      <path id="Path_58" data-name="Path 58" d="M39.359,267.982V210.564H52.3a16.5,16.5,0,0,1,9.255,2.707,12.612,12.612,0,0,1,5.036,7.083,20.306,20.306,0,0,1,.819,6.107,13.566,13.566,0,0,1-3.055,9.255,8.989,8.989,0,0,1-3.021,2.234,10.109,10.109,0,0,1,4.88,4.344,16.447,16.447,0,0,1,1.982,5.666,23.254,23.254,0,0,1,.316,4,19.343,19.343,0,0,1-2.046,9.255,13.28,13.28,0,0,1-11.081,6.768Zm9.318-33.965H52.3a5.321,5.321,0,0,0,5.414-3.935,11.332,11.332,0,0,0,.5-3.621,7.592,7.592,0,0,0-1.733-5.415,5.5,5.5,0,0,0-4.185-1.7H48.677Zm0,25.4H52.3q4.406,0,6.107-4.533a9.8,9.8,0,0,0,.6-3.556q0-4.817-1.858-7.02a5.876,5.876,0,0,0-4.846-2.015H48.677Z" transform="translate(-39.359 -209.871)" fill="#004169"/>
      <path id="Path_59" data-name="Path 59" d="M76.345,254.793l-2.11,13.189h-9l9.727-57.418H86.891l9.6,57.418H87.426l-2.047-13.189Zm4.533-31.071-3.21,22.634h6.421Z" transform="translate(-33.326 -209.871)" fill="#004169"/>
      <path id="Path_60" data-name="Path 60" d="M107.337,210.564q7.24,0,10.608,4,2.991,3.494,2.99,9.7V232.6a13.352,13.352,0,0,1-4.619,10.293l6.414,25.089h-9.336l-5.279-21.689q-.377.031-.786.032h-4.965v21.657H93.706V210.564Zm5.162,13.851q0-5.005-4.927-5.005h-5.209v18.352h5.209a4.7,4.7,0,0,0,3.5-1.464,4.847,4.847,0,0,0,1.428-3.51Z" transform="translate(-26.687 -209.871)" fill="#004169"/>
      <path id="Path_61" data-name="Path 61" d="M128.644,219.221h-9.192v-8.657h27.01v8.657H137.3v48.761h-8.658Z" transform="translate(-20.684 -209.871)" fill="#004169"/>
      <path id="Path_62" data-name="Path 62" d="M158.532,255.075a13.056,13.056,0,0,1-4.014,9.68,13.3,13.3,0,0,1-9.68,3.95,16.366,16.366,0,0,1-5.352-.724l1.229-8.059a12,12,0,0,0,2.518.316,11.054,11.054,0,0,0,1.825-.032,5.625,5.625,0,0,0,3.558-1.527,4.509,4.509,0,0,0,1.448-3.415v-44.7h8.468Z" transform="translate(-16.013 -209.871)" fill="#004169"/>
      <path id="Path_63" data-name="Path 63" d="M159.128,267.982V210.564h24.649v8.657h-15.99V234.96h11.678v8.657H167.786v15.708h15.99v8.657Z" transform="translate(-11.433 -209.871)" fill="#004169"/>
      <path id="Path_64" data-name="Path 64" d="M210.411,253.853a16.086,16.086,0,0,1-3.115,10.261,11.074,11.074,0,0,1-5.95,4.062,15.928,15.928,0,0,1-4.817.66,13.61,13.61,0,0,1-8.437-2.518,14.421,14.421,0,0,1-4.406-5.618,22.205,22.205,0,0,1-1.889-8.168l8.217-.567q.566,5.005,2.676,7.24a4.384,4.384,0,0,0,3.558,1.606,5.4,5.4,0,0,0,4.533-2.77,6.978,6.978,0,0,0,.88-3.809q0-3.62-3.242-7.146-2.582-2.423-7.712-7.272a31.819,31.819,0,0,1-6.076-7.461,17.285,17.285,0,0,1-1.921-8.058q0-7.839,5.258-11.868A13.082,13.082,0,0,1,196.027,210a14.608,14.608,0,0,1,7.933,2.078,11.938,11.938,0,0,1,4.122,4.486A16.907,16.907,0,0,1,210,223.192l-8.31,1.511a9.722,9.722,0,0,0-2.015-5.478,4.2,4.2,0,0,0-3.431-1.447,3.991,3.991,0,0,0-3.622,2.109,8.146,8.146,0,0,0-1.006,4.217q0,3.936,3.4,8.028a30.261,30.261,0,0,0,3.84,3.651q3.022,2.519,4,3.526a30.477,30.477,0,0,1,4.943,6.327,22.77,22.77,0,0,1,1.322,2.707A16.1,16.1,0,0,1,210.411,253.853Z" transform="translate(-6.147 -210.002)" fill="#004169"/>
      <path id="Path_65" data-name="Path 65" d="M230.111,267.982l-10.232-57.418h9.068l7.176,44.7,7.272-44.7h9.066l-10.419,57.418Z" transform="translate(2.733 -209.871)" fill="#4dbdc6"/>
      <path id="Path_66" data-name="Path 66" d="M258.081,267.982h-8.657V210.564h8.657Z" transform="translate(9.622 -209.871)" fill="#4dbdc6"/>
      <path id="Path_67" data-name="Path 67" d="M288.157,253.853a16.086,16.086,0,0,1-3.115,10.261,11.075,11.075,0,0,1-5.95,4.062,15.923,15.923,0,0,1-4.817.66,13.607,13.607,0,0,1-8.436-2.518,14.412,14.412,0,0,1-4.407-5.618,22.23,22.23,0,0,1-1.889-8.168l8.217-.567q.566,5.005,2.676,7.24a4.384,4.384,0,0,0,3.558,1.606,5.4,5.4,0,0,0,4.533-2.77,6.978,6.978,0,0,0,.88-3.809q0-3.62-3.242-7.146-2.582-2.423-7.712-7.272a31.819,31.819,0,0,1-6.076-7.461,17.285,17.285,0,0,1-1.921-8.058q0-7.839,5.258-11.868A13.082,13.082,0,0,1,273.773,210a14.608,14.608,0,0,1,7.933,2.078,11.952,11.952,0,0,1,4.124,4.486,16.926,16.926,0,0,1,1.92,6.626l-8.31,1.511a9.722,9.722,0,0,0-2.015-5.478,4.2,4.2,0,0,0-3.431-1.447,3.992,3.992,0,0,0-3.622,2.109,8.145,8.145,0,0,0-1.006,4.217q0,3.936,3.4,8.028a30.261,30.261,0,0,0,3.84,3.651q3.022,2.519,4,3.526a30.477,30.477,0,0,1,4.943,6.327,22.775,22.775,0,0,1,1.322,2.707A16.1,16.1,0,0,1,288.157,253.853Z" transform="translate(11.981 -210.002)" fill="#4dbdc6"/>
    </g>
    <path id="Path_68" data-name="Path 68" d="M245.221,192.437c9.733-29.8-5.684-48.223-21.878-66.894-2.82-3.252-9.587-11.91-10.344-13.479s-1.147-4.527.523-6.409c7.244-8.169,22.128-1.4,22.826-2.4.682-.975-4.83-7.4-15.984-7.8s-24.57,2.617-31.3,1.876c-6.779-.745-16.6-4.282-23.085-3.087-6.468,1.191-19.5,2.121-29.06-1.131C132.3,91.54,116.825,84.9,112,82.871c-4.412-1.856-18.051-8.62-19.015-7.738-.429.392.006,1.62,6.489,4.729S132.915,96.091,137.9,99.413s18.459,12.1,17.959,12.672-25.218,1.943-25.268,3.18c-.043,1.1,2.2.221,3.956.263,1.709.041,13.675.271,19.722,4.663,4.061,2.949,6.432,6.373,11.805,10.111a22,22,0,0,0-2.966,6.551c-.86,3.936-1.211,13.023-.474,13.21,1.4.356,4.713-10.9,6.006-10.419.836.314-.187,4.624.039,8.879.162,3.026-.039,14.892,4.722,17.96,1.493.847-.645-6.378.081-9.969.6-2.963,2.433-8.03,2.936-10.118a17.752,17.752,0,0,0-.851-10.773c10.635,5.347,22.382,11.533,32.459,19.162l.872.762c1.389,1.308.919,4.838,1.776,9.314s3.85,14.852,11.011,16.834c0,0-3.851-17.211-1.022-15.3l.166.157c9.6,11.17,14.64,24.946,9.894,42.458-.678,2.5-6.742,2.418-9.277,3.244s-23.574,5.761-23.275,25.4l.544,0s2.884-17.311,26.056-13.428,13.992,37.684,13.736,38.673l.769.162s6.563-14.178,5.594-26.421-6.859-22.308-5.018-28.378S243.469,197.8,245.221,192.437Z" transform="translate(12.477 5.376)" fill="#004169"/>
  </g>
</svg>
