<svg xmlns="http://www.w3.org/2000/svg" width="45.207" height="45.258" viewBox="0 0 45.207 45.258">
  <g id="Group_51" data-name="Group 51" transform="translate(0 0)">
    <g id="Group_46" data-name="Group 46" transform="translate(0 32.695)">
      <path id="Path_88" data-name="Path 88" d="M32.247,50.2,26.4,51.943c-.627-2.646-2.3-.348-11.628-4.038-3.412-1.253-7.172.418-8.912,1.393l-.139-.627a1.256,1.256,0,0,0-1.393-1.044l-2.785.418A1.207,1.207,0,0,0,.5,49.436l1.393,9.539A1.216,1.216,0,0,0,3.143,60.02h.209L6.137,59.6a1.291,1.291,0,0,0,.836-.487,1.711,1.711,0,0,0,.139-1.393,20,20,0,0,1,8.843.905,10.781,10.781,0,0,0,8.7-.07l10.166-4.874a1.723,1.723,0,0,0,.487-2.785A3.689,3.689,0,0,0,32.247,50.2ZM3.282,58.627,1.889,49.367,4.4,49.018c0,.07.209,1.6.209,1.532L5.58,57.3h0l.139.975Zm30.984-6.2L24.031,57.3a9.3,9.3,0,0,1-7.52.07h-.07A23.467,23.467,0,0,0,9.2,56.19a15.479,15.479,0,0,0-2.3.139c0-.139-.836-5.64-.836-5.57,1.184-.7,5.083-2.715,8.216-1.532a30.471,30.471,0,0,0,10.3,2.576.509.509,0,0,1,.487.418c.07.139,0,.279,0,.348-.418.7-.139.348-5.918-.07a.7.7,0,0,0-.139,1.393l5.361.418a1.941,1.941,0,0,0,1.741-.836l6.545-1.95a2.04,2.04,0,0,1,1.741.348A.386.386,0,0,1,34.266,52.43Z" transform="translate(-0.489 -47.456)" fill="#77d8e0"/>
    </g>
    <g id="Group_47" data-name="Group 47" transform="translate(7.11 8.894)">
      <path id="Path_89" data-name="Path 89" d="M48.16,26.173H42.938c2.3-2.507,3.551-3.273,2.715-3.969-1.184-.975-2.785-.836-4.526.348-1.6,1.044-2.228-3.2-8.286-5.222a7.087,7.087,0,0,1,1.114-2.994.671.671,0,0,0-.7-1.044h-.07c-.557.139-4.387,1.114-5.779,3.273a18.933,18.933,0,0,0-13.16,5.222.855.855,0,0,0-.139.905,18.508,18.508,0,0,0,2.924,3.621H11.4a.658.658,0,0,0-.7.7v2.785a2.793,2.793,0,0,0,2.785,2.785h1.95v1.114a2.052,2.052,0,0,0,2.089,2.089H41.963a2.052,2.052,0,0,0,2.089-2.089V32.579H46a2.793,2.793,0,0,0,2.785-2.785V27.009A.659.659,0,0,0,48.16,26.173ZM29.221,16.634A10.882,10.882,0,0,1,32.006,15.1a6.886,6.886,0,0,0-.487,1.81C31.171,16.843,29.43,16.634,29.221,16.634Zm2.715,1.88a14.182,14.182,0,0,1,6.893,4.8,2.351,2.351,0,0,0,3.064.418,3.71,3.71,0,0,1,2.158-.766l-2.994,3.2H20.1a5.669,5.669,0,0,0,.557-6.963A17.838,17.838,0,0,1,31.937,18.514Zm-16.223,3.83a19.141,19.141,0,0,1,3.69-2.507,4.281,4.281,0,0,1-.766,5.918A19.439,19.439,0,0,1,15.713,22.344ZM42.033,34.32H17.593a.658.658,0,0,1-.7-.7V32.509H42.729C42.659,32.858,43.007,34.32,42.033,34.32Zm5.431-4.665a1.4,1.4,0,0,1-1.393,1.393H13.555a1.4,1.4,0,0,1-1.393-1.393V27.566h35.3Z" transform="translate(-10.7 -13.274)" fill="#77d8e0"/>
    </g>
    <g id="Group_48" data-name="Group 48" transform="translate(25.317 0)">
      <path id="Path_90" data-name="Path 90" d="M38.347,7.324a.7.7,0,0,0,1.393,0c0-1.81-1.532-2.019-1.532-3.064S39.74,3.007,39.74,1.2a.7.7,0,0,0-1.393,0,1.322,1.322,0,0,1-.557,1.044,2.639,2.639,0,0,0,0,4.038A1.322,1.322,0,0,1,38.347,7.324Z" transform="translate(-36.85 -0.5)" fill="#77d8e0"/>
    </g>
    <g id="Group_49" data-name="Group 49" transform="translate(18.912 2.228)">
      <path id="Path_91" data-name="Path 91" d="M29.147,10.524a.7.7,0,0,0,1.393,0c0-2.228-2.646-2.367-.975-4.108A2.667,2.667,0,0,0,30.54,4.4a.7.7,0,0,0-1.393,0,1.322,1.322,0,0,1-.557,1.044,2.639,2.639,0,0,0,0,4.038C28.938,9.9,29.147,10.106,29.147,10.524Z" transform="translate(-27.65 -3.7)" fill="#77d8e0"/>
    </g>
    <g id="Group_50" data-name="Group 50" transform="translate(31.619 2.246)">
      <path id="Path_92" data-name="Path 92" d="M47.432,10.531a.7.7,0,0,0,1.393,0,2.667,2.667,0,0,0-.975-2.019c-1.741-1.81.975-1.81.975-4.108a.7.7,0,0,0-1.393,0c0,1.044-1.532,1.253-1.532,3.064C45.97,9.278,47.432,9.487,47.432,10.531Z" transform="translate(-45.9 -3.725)" fill="#77d8e0"/>
    </g>
  </g>
</svg>
