<svg xmlns="http://www.w3.org/2000/svg" width="504.283" height="221.082" viewBox="0 0 504.283 221.082">
  <g id="Group_27" data-name="Group 27" transform="translate(-83.427 -57.997)">
    <g id="Group_27-2" data-name="Group 27" transform="translate(83.427 57.997)">
      <circle id="Ellipse_16" data-name="Ellipse 16" cx="93.95" cy="93.95" r="93.95" fill="#fff"/>
      <circle id="Ellipse_17" data-name="Ellipse 17" cx="88.766" cy="88.766" r="88.766" transform="translate(5.184 5.184)" fill="#4dbdc6"/>
      <path id="Path_69" data-name="Path 69" d="M134.516,183.18a3.771,3.771,0,1,1-3.771-3.772A3.772,3.772,0,0,1,134.516,183.18Z" transform="translate(-72.199 -26.692)" fill="#fff"/>
      <path id="Path_70" data-name="Path 70" d="M138.162,191.844a2.853,2.853,0,1,1-2.854-2.853A2.853,2.853,0,0,1,138.162,191.844Z" transform="translate(-70.786 -24.222)" fill="#fff"/>
      <path id="Path_71" data-name="Path 71" d="M145.082,168.977a7.555,7.555,0,1,1-7.556-7.555A7.554,7.554,0,0,1,145.082,168.977Z" transform="translate(-71.426 -31.33)" fill="#fff"/>
      <circle id="Ellipse_18" data-name="Ellipse 18" cx="9.111" cy="9.111" r="9.111" transform="translate(43.153 107.74)" fill="#fff"/>
    </g>
    <g id="Group_28" data-name="Group 28" transform="translate(285.337 123.888)">
      <path id="Path_72" data-name="Path 72" d="M243.948,169.51V110.942h13.2a16.829,16.829,0,0,1,9.44,2.761,12.863,12.863,0,0,1,5.137,7.225,20.678,20.678,0,0,1,.835,6.229,13.837,13.837,0,0,1-3.114,9.44,9.2,9.2,0,0,1-3.082,2.28,10.31,10.31,0,0,1,4.977,4.431,16.759,16.759,0,0,1,2.021,5.779,23.716,23.716,0,0,1,.322,4.078,19.73,19.73,0,0,1-2.087,9.44,13.55,13.55,0,0,1-11.3,6.9Zm9.505-34.646h3.692a5.427,5.427,0,0,0,5.523-4.014,11.6,11.6,0,0,0,.513-3.693,7.744,7.744,0,0,0-1.766-5.522,5.6,5.6,0,0,0-4.27-1.735h-3.692Zm0,25.911h3.692q4.494,0,6.229-4.624a9.971,9.971,0,0,0,.611-3.628q0-4.913-1.9-7.161a6,6,0,0,0-4.945-2.054h-3.692Z" transform="translate(-243.948 -110.236)" fill="#004169"/>
      <path id="Path_73" data-name="Path 73" d="M281.158,156.056l-2.152,13.454h-9.184l9.923-58.568h12.17l9.792,58.568h-9.248l-2.087-13.454Zm4.624-31.693-3.275,23.086h6.55Z" transform="translate(-237.277 -110.236)" fill="#004169"/>
      <path id="Path_74" data-name="Path 74" d="M312.2,110.942q7.385,0,10.82,4.078,3.049,3.564,3.05,9.889v8.509a13.619,13.619,0,0,1-4.712,10.5L327.9,169.51h-9.523l-5.386-22.124q-.385.032-.8.033h-5.065V169.51H298.3V110.942Zm5.265,14.128q0-5.106-5.025-5.106h-5.314v18.719h5.314a4.792,4.792,0,0,0,3.568-1.493,4.949,4.949,0,0,0,1.457-3.58Z" transform="translate(-229.935 -110.236)" fill="#004169"/>
      <path id="Path_75" data-name="Path 75" d="M333.418,119.772h-9.376v-8.83h27.549v8.83h-9.342V169.51h-8.831Z" transform="translate(-223.297 -110.236)" fill="#004169"/>
      <path id="Path_76" data-name="Path 76" d="M363.5,156.344a13.321,13.321,0,0,1-4.093,9.874,13.564,13.564,0,0,1-9.874,4.029,16.731,16.731,0,0,1-5.459-.737l1.253-8.221a12.249,12.249,0,0,0,2.569.322,11.3,11.3,0,0,0,1.863-.033,5.737,5.737,0,0,0,3.628-1.557,4.594,4.594,0,0,0,1.477-3.483v-45.6H363.5Z" transform="translate(-218.131 -110.236)" fill="#004169"/>
      <path id="Path_77" data-name="Path 77" d="M363.718,169.51V110.942H388.86v8.83H372.548v16.054h11.913v8.83H372.548v16.024H388.86v8.83Z" transform="translate(-213.067 -110.236)" fill="#004169"/>
      <path id="Path_78" data-name="Path 78" d="M415.574,155.109a16.408,16.408,0,0,1-3.179,10.466,11.291,11.291,0,0,1-6.069,4.143,16.238,16.238,0,0,1-4.912.673,13.89,13.89,0,0,1-8.606-2.567,14.723,14.723,0,0,1-4.494-5.732,22.624,22.624,0,0,1-1.927-8.332l8.381-.579q.576,5.106,2.73,7.385a4.471,4.471,0,0,0,3.628,1.638,5.5,5.5,0,0,0,4.624-2.825,7.106,7.106,0,0,0,.9-3.885q0-3.692-3.308-7.289-2.632-2.472-7.867-7.417a32.511,32.511,0,0,1-6.2-7.609,17.638,17.638,0,0,1-1.958-8.22q0-8,5.363-12.105a13.338,13.338,0,0,1,8.22-2.472,14.9,14.9,0,0,1,8.09,2.118,12.189,12.189,0,0,1,4.206,4.576,17.265,17.265,0,0,1,1.96,6.758l-8.478,1.541a9.9,9.9,0,0,0-2.054-5.586,4.285,4.285,0,0,0-3.5-1.477,4.07,4.07,0,0,0-3.693,2.151,8.31,8.31,0,0,0-1.028,4.3q0,4.013,3.468,8.187a30.977,30.977,0,0,0,3.918,3.724q3.081,2.57,4.078,3.6a31.171,31.171,0,0,1,5.041,6.454,23.431,23.431,0,0,1,1.348,2.761A16.423,16.423,0,0,1,415.574,155.109Z" transform="translate(-207.222 -110.381)" fill="#004169"/>
      <path id="Path_79" data-name="Path 79" d="M431.905,169.51l-10.436-58.568h9.248l7.321,45.6,7.417-45.6H454.7L444.074,169.51Z" transform="translate(-198.176 -110.236)" fill="#4dbdc6"/>
      <path id="Path_80" data-name="Path 80" d="M459.844,169.51h-8.83V110.942h8.83Z" transform="translate(-190.558 -110.236)" fill="#4dbdc6"/>
      <path id="Path_81" data-name="Path 81" d="M490.32,155.109a16.4,16.4,0,0,1-3.179,10.466,11.291,11.291,0,0,1-6.069,4.143,16.237,16.237,0,0,1-4.912.673,13.89,13.89,0,0,1-8.606-2.567,14.723,14.723,0,0,1-4.494-5.732,22.623,22.623,0,0,1-1.927-8.332l8.381-.579q.576,5.106,2.73,7.385a4.47,4.47,0,0,0,3.628,1.638,5.5,5.5,0,0,0,4.624-2.825,7.106,7.106,0,0,0,.9-3.885q0-3.692-3.308-7.289-2.632-2.472-7.867-7.417a32.467,32.467,0,0,1-6.2-7.609,17.623,17.623,0,0,1-1.96-8.22q0-8,5.363-12.105a13.34,13.34,0,0,1,8.22-2.472,14.9,14.9,0,0,1,8.09,2.118,12.18,12.18,0,0,1,4.206,4.576,17.265,17.265,0,0,1,1.96,6.758l-8.477,1.541a9.909,9.909,0,0,0-2.055-5.586,4.285,4.285,0,0,0-3.5-1.477,4.07,4.07,0,0,0-3.693,2.151,8.31,8.31,0,0,0-1.026,4.3q0,4.013,3.467,8.187a30.972,30.972,0,0,0,3.918,3.724q3.081,2.57,4.078,3.6a31.087,31.087,0,0,1,5.041,6.454A23.42,23.42,0,0,1,489,149.488,16.422,16.422,0,0,1,490.32,155.109Z" transform="translate(-187.949 -110.381)" fill="#4dbdc6"/>
    </g>
    <path id="Path_82" data-name="Path 82" d="M242.021,201.033c9.928-30.393-5.8-49.188-22.317-68.233-2.875-3.317-9.777-12.148-10.549-13.748s-1.17-4.618.533-6.537c7.389-8.332,22.571-1.43,23.283-2.448.7-.995-4.927-7.547-16.3-7.961s-25.061,2.669-31.928,1.914c-6.914-.761-16.933-4.368-23.547-3.15-6.6,1.215-19.888,2.165-29.642-1.153-4.706-1.6-20.494-8.375-25.412-10.443-4.5-1.893-18.412-8.791-19.4-7.893-.438.4.006,1.653,6.619,4.825s34.108,16.552,39.192,19.941,18.829,12.338,18.318,12.927-25.723,1.981-25.773,3.243c-.044,1.126,2.246.225,4.034.268,1.745.042,13.949.277,20.118,4.756,4.142,3.007,6.561,6.5,12.04,10.314a22.422,22.422,0,0,0-3.024,6.68c-.878,4.015-1.235,13.284-.484,13.475,1.433.362,4.809-11.122,6.126-10.629.854.321-.19,4.717.042,9.056.165,3.088-.042,15.19,4.815,18.319,1.524.864-.658-6.5.083-10.168.611-3.021,2.482-8.191,3-10.321a18.107,18.107,0,0,0-.868-10.988c10.846,5.454,22.83,11.763,33.109,19.546l.889.777c1.416,1.335.937,4.934,1.81,9.5s3.928,15.149,11.232,17.171c0,0-3.928-17.554-1.044-15.606l.171.16c9.792,11.394,14.933,25.445,10.092,43.307-.693,2.555-6.878,2.467-9.463,3.309s-24.046,5.877-23.74,25.905l.555,0s2.942-17.656,26.577-13.7S235.434,271.9,235.173,272.9l.785.165s6.693-14.463,5.706-26.949-7-22.756-5.118-28.945S240.233,206.5,242.021,201.033Z" transform="translate(0.823 6.009)" fill="#004169"/>
  </g>
</svg>
