<?xml version="1.0" standalone="no"?>
<!DOCTYPE svg PUBLIC "-//W3C//DTD SVG 1.1//EN" "http://www.w3.org/Graphics/SVG/1.1/DTD/svg11.dtd" >
<svg>
<metadata>
Created by FontForge 20090914 at Tue Mar  3 08:08:25 2020
 By www-data
Copyright 2015 Dalton Maag Ltd. Modification of this file requires prior written permission from Dalton Maag Ltd.
</metadata>
<defs>
<font id="ObjektivMk3W03-Thin" horiz-adv-x="386" >
  <font-face 
    font-family="ObjektivMk3W03-Thin"
    font-weight="250"
    font-stretch="normal"
    units-per-em="1000"
    panose-1="2 11 3 2 2 2 4 2 2 3"
    ascent="800"
    descent="-200"
    x-height="480"
    cap-height="760"
    bbox="-238 -305 1229 1056"
    underline-thickness="50"
    underline-position="-125"
    unicode-range="U+0008-U+FEFF"
  />
<missing-glyph horiz-adv-x="500" 
d="M50 750h400v-750h-400v750zM400 50v650h-300v-650h300z" />
    <glyph glyph-name=".notdef" horiz-adv-x="500" 
d="M50 750h400v-750h-400v750zM400 50v650h-300v-650h300z" />
    <glyph glyph-name="uni0008" horiz-adv-x="0" 
 />
    <glyph glyph-name="uni0008" horiz-adv-x="0" 
 />
    <glyph glyph-name="uni0008" horiz-adv-x="0" 
 />
    <glyph glyph-name="uni0009" unicode="&#x9;" horiz-adv-x="225" 
 />
    <glyph glyph-name="uni0009" unicode="&#xd;" horiz-adv-x="225" 
 />
    <glyph glyph-name="space" unicode=" " horiz-adv-x="225" 
 />
    <glyph glyph-name="exclam" unicode="!" horiz-adv-x="246" 
d="M103 789h40l-5 -587h-30zM123 -9c-9.33301 0 -17.166 3 -23.499 9s-9.5 14 -9.5 24s3.16699 18 9.5 24s14.166 9 23.499 9s17.166 -3 23.499 -9s9.5 -14 9.5 -24s-3.16699 -18 -9.5 -24s-14.166 -9 -23.499 -9z" />
    <glyph glyph-name="quotedbl" unicode="&#x22;" horiz-adv-x="302" 
d="M211 760h40l-5 -293h-30zM51 760h40l-5 -293h-30z" />
    <glyph glyph-name="numbersign" unicode="#" horiz-adv-x="680" 
d="M171 194h-106v28h112l52 233h-128v28h134l44 194h31l-44 -194h204l44 194h31l-44 -194h109v-28h-115l-52 -233h130v-28h-136l-43 -194h-31l43 194h-204l-43 -194h-31zM412 222l52 233h-204l-52 -233h204z" />
    <glyph glyph-name="dollar" unicode="$" horiz-adv-x="620" 
d="M290 -130l0.000976562 122.999c-80.667 1.33301 -147.334 20 -200.001 56l8 35c53.333 -36.667 117.333 -55.667 192 -57v342c-70.667 28 -120.667 57.167 -150 87.5s-44 68.166 -44 113.499c0 52.667 17.667 95.334 53 128.001s82.333 50 141 52v126h33v-127
c58.667 -3.33301 112 -18 160 -44l-6 -33c-46.667 26 -98 40.667 -154 44v-322c72 -29.333 123.167 -60 153.5 -92s45.5 -71.333 45.5 -118c0 -53.333 -18 -97.166 -54 -131.499s-84.333 -53.833 -145 -58.5v-124h-33zM323.001 27.999c50 4 89.667 19.5 119 46.5
s44 62.167 44 105.5c0 41.333 -11.667 74.5 -35 99.5s-66 50.167 -128 75.5v-327zM290.001 716.999c-48.667 -2 -87.166 -16 -115.499 -42s-42.5 -60.333 -42.5 -103c0 -27.333 5.16699 -50 15.5 -68s26.666 -34.5 48.999 -49.5s53.5 -30.833 93.5 -47.5v310z" />
    <glyph glyph-name="percent" unicode="%" horiz-adv-x="870" 
d="M215 462c36 0 66.167 12.668 90.5 38.001s36.5 56.666 36.5 93.999s-12 68.666 -36 93.999s-54.333 38 -91 38s-67.334 -12.5 -92.001 -37.5s-37 -56.5 -37 -94.5c0 -37.333 12.333 -68.666 37 -93.999s55.334 -38 92.001 -38zM215 428.001
c-29.333 0 -56.499 7 -81.499 21s-45.167 33.833 -60.5 59.5s-23 54.167 -23 85.5c0 30 7 57.5 21 82.5s33.667 45.167 59 60.5s53.666 23 84.999 23c29.333 0 56.333 -7 81 -21s44.5 -33.667 59.5 -59s22.5 -54 22.5 -86c0 -29.333 -6.83301 -56.5 -20.5 -81.5
s-33 -45.333 -58 -61s-53.167 -23.5 -84.5 -23.5zM706.001 744.001h44l-590 -744h-44zM657.001 24.001c36 0 66.167 12.668 90.5 38.001s36.5 56.666 36.5 93.999s-12 68.666 -36 93.999s-54.333 38 -91 38s-67.334 -12.5 -92.001 -37.5s-37 -56.5 -37 -94.5
c0 -37.333 12.333 -68.666 37 -93.999s55.334 -38 92.001 -38zM657.001 -9.99805c-29.333 0 -56.499 7 -81.499 21s-45.167 33.833 -60.5 59.5s-23 54.167 -23 85.5c0 30 7 57.5 21 82.5s33.667 45.167 59 60.5s53.666 23 84.999 23c29.333 0 56.333 -7 81 -21
s44.5 -33.667 59.5 -59s22.5 -54 22.5 -86c0 -29.333 -6.83301 -56.5 -20.5 -81.5s-33 -45.333 -58 -61s-53.167 -23.5 -84.5 -23.5z" />
    <glyph glyph-name="ampersand" unicode="&#x26;" horiz-adv-x="742" 
d="M324 -16c-47.333 0 -89.334 8.16602 -126.001 24.499s-65.5 40 -86.5 71s-31.5 67.167 -31.5 108.5c0 46 14.5 87.5 43.5 124.5s73.833 71.5 134.5 103.5c-39.333 46 -66.333 83 -81 111s-22 57.667 -22 89c0 47.333 15.833 86.166 47.5 116.499
s72.834 45.5 123.501 45.5c48.667 0 88 -14.667 118 -44s45 -67.666 45 -114.999c0 -40 -14.167 -76.667 -42.5 -110s-73.166 -66.666 -134.499 -99.999l244 -270c39.333 60.667 59 139 59 235l33 -5c0 -102 -23 -187.333 -69 -256l103 -113h-48l-77 85
c-28.667 -33.333 -62.834 -58.5 -102.501 -75.5s-83.167 -25.5 -130.5 -25.5zM323.999 17.999c88.667 0 158.667 30.668 210 92.001l-256 283c-58.667 -33.333 -100 -65.333 -124 -96s-36 -67.334 -36 -110.001c0 -50.667 19 -91.5 57 -122.5s87.667 -46.5 149 -46.5z
M290.999 432c57.333 31.333 98.498 61.502 123.498 90.502s37.5 61.167 37.5 96.5c0 38.667 -11.667 69.667 -35 93s-53.666 35 -90.999 35c-39.333 0 -71.5 -12.167 -96.5 -36.5s-37.5 -55.833 -37.5 -94.5c0 -26.667 6.83301 -52.834 20.5 -78.501
s39.834 -60.834 78.501 -105.501z" />
    <glyph glyph-name="quotesingle" unicode="'" horiz-adv-x="142" 
d="M51 760h40l-5 -293h-30z" />
    <glyph glyph-name="parenleft" unicode="(" horiz-adv-x="373" 
d="M272 -133c-54.667 58.667 -97.667 130.165 -129 214.498s-47 171.5 -47 261.5c0 90.667 15.667 178.5 47 263.5s74.333 156.167 129 213.5h38c-56.667 -63.333 -100.5 -136.833 -131.5 -220.5s-46.5 -169.167 -46.5 -256.5s15.5 -172.666 46.5 -255.999
s74.833 -156.666 131.5 -219.999h-38z" />
    <glyph glyph-name="parenright" unicode=")" horiz-adv-x="373" 
d="M63 -133c56.667 63.333 100.5 136.835 131.5 220.502s46.5 169.167 46.5 256.5s-15.5 172.666 -46.5 255.999s-74.833 156.666 -131.5 219.999h38c54.667 -58.667 97.667 -130.167 129 -214.5s47 -171.5 47 -261.5c0 -90.667 -15.667 -178.5 -47 -263.5
s-74.333 -156.167 -129 -213.5h-38z" />
    <glyph glyph-name="asterisk" unicode="*" horiz-adv-x="511" 
d="M115 414l113 140l-163 55l13 33l162 -61l-4 179h38l-4 -179l163 61l13 -33l-163 -55l113 -140l-32 -22l-109 149l-108 -149z" />
    <glyph glyph-name="plus" unicode="+" horiz-adv-x="620" 
d="M291 320h-199v34h199v197h37v-197h199v-34h-199v-197h-37v197z" />
    <glyph glyph-name="comma" unicode="," horiz-adv-x="290" 
d="M33 -181c21.333 34 39.332 71.665 53.999 112.998s24.334 82.333 29.001 123h41c-6 -43.333 -17 -85.666 -33 -126.999s-35.667 -77.666 -59 -108.999h-32z" />
    <glyph glyph-name="hyphen" unicode="-" horiz-adv-x="439" 
d="M80 301h279v-36h-279v36z" />
    <glyph glyph-name="period" unicode="." horiz-adv-x="290" 
d="M145 -9c-9.33301 0 -17.166 3 -23.499 9s-9.5 14 -9.5 24s3.16699 18 9.5 24s14.166 9 23.499 9s17.166 -3 23.499 -9s9.5 -14 9.5 -24s-3.16699 -18 -9.5 -24s-14.166 -9 -23.499 -9z" />
    <glyph glyph-name="slash" unicode="/" horiz-adv-x="504" 
d="M450 810h40l-435 -943h-40z" />
    <glyph glyph-name="zero" unicode="0" horiz-adv-x="620" 
d="M309 18c40.667 0 76.167 14 106.5 42s53.833 68.667 70.5 122s25 117 25 191c0 71.333 -8 133.5 -24 186.5s-39.167 94 -69.5 123s-66.5 43.5 -108.5 43.5c-62 0 -110.833 -31.5 -146.5 -94.5s-53.5 -149.167 -53.5 -258.5s18 -195.833 54 -259.5s84.667 -95.5 146 -95.5
zM309 -16c-73.333 0 -131.5 34.8311 -174.5 104.498s-64.5 164.5 -64.5 284.5c0 78 9.5 146.167 28.5 204.5s46.5 103.333 82.5 135s78.667 47.5 128 47.5c48.667 0 91 -15.167 127 -45.5s64 -74.666 84 -132.999s30 -127.833 30 -208.5c0 -78 -9.5 -146.167 -28.5 -204.5
s-46.667 -103.666 -83 -135.999s-79.5 -48.5 -129.5 -48.5z" />
    <glyph glyph-name="one" unicode="1" horiz-adv-x="620" 
d="M335 703l-228 -100l-4 34l239 107h30v-744h-37v703z" />
    <glyph glyph-name="two" unicode="2" horiz-adv-x="620" 
d="M88 0l-0.000976562 31.998c14 14 40 41.833 78 83.5l104 116.5c67.333 76.667 114.833 139.334 142.5 188.001s41.5 94.334 41.5 137.001c0 52 -14.333 92.833 -43 122.5s-68.667 44.5 -120 44.5c-66 0 -125.667 -28.667 -179 -86l-7 36
c23.333 27.333 51.5 48.5 84.5 63.5s67.167 22.5 102.5 22.5c61.333 0 110 -18 146 -54s54 -84.667 54 -146c0 -45.333 -12.167 -91.333 -36.5 -138s-67.166 -105.667 -128.499 -177c-62.667 -72 -127 -142 -193 -210h386v-35h-432z" />
    <glyph glyph-name="three" unicode="3" horiz-adv-x="620" 
d="M260 -16c-34.667 0 -68.333 4.66699 -101 14s-60 22 -82 38l5 36c54.667 -36 113.667 -54 177 -54c66 0 117.833 17.167 155.5 51.5s56.5 81.5 56.5 141.5c0 56 -17.5 99.833 -52.5 131.5s-83.5 47.5 -145.5 47.5c-26.667 0 -50 -2.66699 -70 -8l-11 24l256 304h-354v34
h394v-35l-246 -291c10.667 2.66699 24.334 4 41.001 4c67.333 0 121.666 -19.333 162.999 -58s62 -90 62 -154c0 -44 -10 -83 -30 -117s-48.833 -60.667 -86.5 -80s-81.5 -29 -131.5 -29z" />
    <glyph glyph-name="four" unicode="4" horiz-adv-x="620" 
d="M409 207h-356v30l359 507h32v-506h102v-31h-102v-207h-35v207zM409 238v448l-315 -448h315z" />
    <glyph glyph-name="five" unicode="5" horiz-adv-x="620" 
d="M278 -16c-35.333 0 -69.166 4.66797 -101.499 14.001s-60.833 22.666 -85.5 39.999l5 36c55.333 -37.333 114.666 -56 177.999 -56c62.667 0 113 19 151 57s57 88.667 57 152c0 60.667 -19.667 108.167 -59 142.5s-93.666 51.5 -162.999 51.5
c-42 0 -86.667 -8.66699 -134 -26l12 349h338v-35h-306l-9 -271c30.667 10.667 68 16 112 16c48 0 90.5 -9.16699 127.5 -27.5s66 -44.5 87 -78.5s31.5 -74 31.5 -120s-9.83301 -87.5 -29.5 -124.5s-47.834 -66.167 -84.501 -87.5s-79 -32 -127 -32z" />
    <glyph glyph-name="six" unicode="6" horiz-adv-x="620" 
d="M310 -16c-40.667 0 -77.668 9.66504 -111.001 28.998s-59.666 47 -78.999 83s-29 77 -29 123c0 88 27.333 180.333 82 277s126.334 179.667 215.001 249l47 -5c-70 -52 -131.5 -114 -184.5 -186s-89.833 -143.667 -110.5 -215c19.333 30.667 45.333 54.5 78 71.5
s68 25.5 106 25.5c40 0 76.167 -9.16699 108.5 -27.5s58.166 -44.166 77.499 -77.499s29 -71.666 29 -114.999s-9.5 -82.5 -28.5 -117.5s-46 -62.833 -81 -83.5s-74.833 -31 -119.5 -31zM313.999 17.998c35.333 0 67.167 8 95.5 24s50.833 38.5 67.5 67.5s25 62.5 25 100.5
c0 60.667 -16.5 107.834 -49.5 141.501s-79.167 50.5 -138.5 50.5c-33.333 0 -64 -8.16699 -92 -24.5s-50.667 -39.333 -68 -69s-26 -62.834 -26 -99.501c0 -57.333 17 -103.5 51 -138.5s79 -52.5 135 -52.5z" />
    <glyph glyph-name="seven" unicode="7" horiz-adv-x="620" 
d="M190 2l291 706h-395v36h434v-28l-291 -718z" />
    <glyph glyph-name="eight" unicode="8" horiz-adv-x="620" 
d="M310 -16c-46 0 -87.002 8.5 -123.002 25.5s-64.333 41.5 -85 73.5s-31 69.333 -31 112c0 47.333 14.333 88.666 43 123.999s67.334 59.666 116.001 72.999c-42 12.667 -75.167 35 -99.5 67s-36.5 69.667 -36.5 113c0 35.333 8.83301 67.333 26.5 96s43 51.334 76 68.001
s70.833 25 113.5 25c63.333 0 115.333 -17.667 156 -53s61 -80.666 61 -135.999c0 -42.667 -12.167 -80 -36.5 -112s-57.5 -54.667 -99.5 -68c31.333 -8.66699 59 -22.5 83 -41.5s42.667 -41.833 56 -68.5s20 -55.667 20 -87c0 -62.667 -22.167 -113.5 -66.5 -152.5
s-102.166 -58.5 -173.499 -58.5zM309.998 18c39.333 0 74.332 7.33301 104.999 22s54.834 35.667 72.501 63s26.5 58.666 26.5 93.999c0 33.333 -8.33301 63.333 -25 90s-40.5 47.834 -71.5 63.501s-66.833 23.5 -107.5 23.5c-38 0 -72.333 -7.33301 -103 -22
s-55 -35.5 -73 -62.5s-27 -57.833 -27 -92.5c0 -52.667 18.833 -95.667 56.5 -129s86.5 -50 146.5 -50zM309.997 411c52.667 0 96.1689 14.8311 130.502 44.498s51.5 67.5 51.5 113.5c0 30.667 -7.33301 57.834 -22 81.501s-35.834 42.334 -63.501 56.001
s-59.834 20.5 -96.501 20.5c-54 0 -97.667 -14.5 -131 -43.5s-50 -67.167 -50 -114.5c0 -46 17 -83.833 51 -113.5s77.333 -44.5 130 -44.5z" />
    <glyph glyph-name="nine" unicode="9" horiz-adv-x="620" 
d="M185 4c69.333 51.333 130.501 113.002 183.501 185.002s89.833 143.667 110.5 215c-18.667 -30 -44.167 -53.5 -76.5 -70.5s-67.833 -25.5 -106.5 -25.5c-40 0 -76.167 9.16699 -108.5 27.5s-58.166 44.166 -77.499 77.499s-29 71.666 -29 114.999s9.5 82.5 28.5 117.5
s46 62.833 81 83.5s74.833 31 119.5 31c40.667 0 77.667 -9.66699 111 -29s59.666 -47 78.999 -83s29 -77 29 -123c0 -88 -27.333 -180.333 -82 -277s-126.334 -179.667 -215.001 -249zM306.001 342.002c33.333 0 63.999 8.16699 91.999 24.5s50.667 39.333 68 69
s26 62.834 26 99.501c0 57.333 -17 103.5 -51 138.5s-79 52.5 -135 52.5c-35.333 0 -67.166 -8 -95.499 -24s-50.833 -38.5 -67.5 -67.5s-25 -62.5 -25 -100.5c0 -60.667 16.5 -107.834 49.5 -141.501s79.167 -50.5 138.5 -50.5z" />
    <glyph glyph-name="colon" unicode=":" horiz-adv-x="290" 
d="M145 -9c-9.33301 0 -17.166 3 -23.499 9s-9.5 14 -9.5 24s3.16699 18 9.5 24s14.166 9 23.499 9s17.166 -3 23.499 -9s9.5 -14 9.5 -24s-3.16699 -18 -9.5 -24s-14.166 -9 -23.499 -9zM145 421c-9.33301 0 -17.166 3 -23.499 9s-9.5 14 -9.5 24s3.16699 18 9.5 24
s14.166 9 23.499 9s17.166 -3 23.499 -9s9.5 -14 9.5 -24s-3.16699 -18 -9.5 -24s-14.166 -9 -23.499 -9z" />
    <glyph glyph-name="semicolon" unicode=";" horiz-adv-x="290" 
d="M33 -181c21.333 34 39.332 71.665 53.999 112.998s24.334 82.333 29.001 123h41c-6 -43.333 -17 -85.666 -33 -126.999s-35.667 -77.666 -59 -108.999h-32zM144.999 420.998c-9.33301 0 -17.166 3 -23.499 9s-9.5 14 -9.5 24s3.16699 18 9.5 24s14.166 9 23.499 9
s17.166 -3 23.499 -9s9.5 -14 9.5 -24s-3.16699 -18 -9.5 -24s-14.166 -9 -23.499 -9z" />
    <glyph glyph-name="less" unicode="&#x3c;" horiz-adv-x="620" 
d="M111 320v33l398 199v-38l-354 -176l354 -176v-40z" />
    <glyph glyph-name="equal" unicode="=" horiz-adv-x="620" 
d="M107 466h406v-34h-406v34zM107 241h406v-34h-406v34z" />
    <glyph glyph-name="greater" unicode="&#x3e;" horiz-adv-x="620" 
d="M111 161l354 176l-354 176v40l398 -198v-33l-398 -199v38z" />
    <glyph glyph-name="question" unicode="?" horiz-adv-x="473" 
d="M186 202c-2.66699 21.333 -4.00098 40.334 -4.00098 57.001c0 34.667 4.66699 64.5 14 89.5s21.5 46.667 36.5 65s30.667 35.166 47 50.499l47 46c15 15.333 27.167 32.5 36.5 51.5s14 41.5 14 67.5c0 41.333 -14.5 74.333 -43.5 99s-67.5 37 -115.5 37
c-68.667 0 -129 -28 -181 -84l-9 34c20.667 26 48.334 46.5 83.001 61.5s71.667 22.5 111 22.5c36.667 0 69.5 -7 98.5 -21s52 -34 69 -60s25.5 -55.667 25.5 -89c0 -29.333 -4.83301 -54.5 -14.5 -75.5s-22.167 -39.667 -37.5 -56s-31.5 -32.166 -48.5 -47.499
s-33.167 -31.666 -48.5 -48.999s-27.833 -37.833 -37.5 -61.5s-14.5 -51.834 -14.5 -84.501c0 -16.667 0.666992 -34.334 2 -53.001h-30zM202.999 -8.99902c-9.33301 0 -17.166 3 -23.499 9s-9.5 14 -9.5 24s3.16699 18 9.5 24s14.166 9 23.499 9s17.166 -3 23.499 -9
s9.5 -14 9.5 -24s-3.16699 -18 -9.5 -24s-14.166 -9 -23.499 -9z" />
    <glyph glyph-name="at" unicode="@" horiz-adv-x="966" 
d="M470 -220c-83.333 0 -156.168 15.834 -218.501 47.501s-110.666 77.834 -144.999 138.501s-51.5 132.667 -51.5 216c0 82 20.167 158.667 60.5 230s97 129.166 170 173.499s154.167 66.5 243.5 66.5c75.333 0 142.166 -15.333 200.499 -46s104 -74.667 137 -132
s49.5 -124.333 49.5 -201c0 -51.333 -8 -97.5 -24 -138.5s-39 -73.5 -69 -97.5s-64.667 -36 -104 -36c-32 0 -57.167 7.83301 -75.5 23.5s-29.166 38.5 -32.499 68.5c-20 -28.667 -44.833 -50.834 -74.5 -66.501s-61.834 -23.5 -96.501 -23.5
c-50 0 -91.167 17.833 -123.5 53.5s-48.5 81.5 -48.5 137.5c0 40.667 9.16699 78.834 27.5 114.501s44 64.667 77 87s69.5 33.5 109.5 33.5c40.667 0 75.5 -11.333 104.5 -34s49.167 -54.334 60.5 -95.001l25 113h32l-56 -257c-4 -18 -6 -33.667 -6 -47
c0 -52.667 26.667 -79 80 -79c28.667 0 55.167 10.167 79.5 30.5s43.833 49 58.5 86s22 78.833 22 125.5c0 68.667 -14.167 129.167 -42.5 181.5s-69.166 93.333 -122.499 123s-116.333 44.5 -189 44.5c-77.333 0 -149.166 -18.833 -215.499 -56.5
s-120.166 -90.167 -161.499 -157.5s-62 -142 -62 -224c0 -74.667 15.167 -140 45.5 -196s74.166 -99.333 131.499 -130s125.666 -46 204.999 -46c75.333 0 146.333 15.667 213 47l2 -32c-62.667 -30.667 -134.667 -46 -216 -46zM446.998 32.001
c32.667 0 62.833 8.66699 90.5 26s50 41.5 67 72.5s25.5 65.833 25.5 104.5c0 49.333 -13.167 88.833 -39.5 118.5s-61.5 44.5 -105.5 44.5c-32 0 -62 -8.66699 -90 -26s-50.667 -41.5 -68 -72.5s-26 -65.833 -26 -104.5c0 -49.333 13.333 -88.833 40 -118.5
s62 -44.5 106 -44.5z" />
    <glyph glyph-name="A" unicode="A" horiz-adv-x="738" 
d="M346 760h45l314 -760h-45l-103 252h-380l-102 -252h-42zM543 288l-175 432l-176 -432h351z" />
    <glyph glyph-name="B" unicode="B" horiz-adv-x="719" 
d="M135 760l226 -0.000976562c75.333 0 133.5 -16.167 174.5 -48.5s61.5 -78.166 61.5 -137.499c0 -86.667 -41.667 -144.334 -125 -173.001c52.667 -9.33301 93.167 -30.666 121.5 -63.999s42.5 -76 42.5 -128c0 -68 -21 -119.833 -63 -155.5s-103.333 -53.5 -184 -53.5
h-254v760zM174 37.999h209c141.333 0 212 57 212 171c0 57.333 -17.833 100 -53.5 128s-89.167 42 -160.5 42h-207v-341zM174 416.999l195 0.000976562c60.667 0 107 13.167 139 39.5s48 64.166 48 113.499c0 101.333 -66.667 152 -200 152h-182v-305z" />
    <glyph glyph-name="C" unicode="C" horiz-adv-x="776" 
d="M467 -11c-74 0 -140.172 16.001 -198.505 48.001s-104.333 77.833 -138 137.5s-50.5 128.5 -50.5 206.5c0 75.333 15.833 142.333 47.5 201s77.334 104.834 137.001 138.501s128.834 50.5 207.501 50.5c80 0 153 -18 219 -54l-10 -37
c-65.333 34.667 -135.666 52 -210.999 52c-67.333 0 -127.166 -14.167 -179.499 -42.5s-93.5 -68.833 -123.5 -121.5s-45 -114.334 -45 -185.001c0 -67.333 14 -127.833 42 -181.5s68.333 -96 121 -127s113.334 -46.5 182.001 -46.5c38 0 77 4.66699 117 14
s75.333 21.666 106 36.999l7 -37c-31.333 -16.667 -67.5 -29.667 -108.5 -39s-81.5 -14 -121.5 -14z" />
    <glyph glyph-name="D" unicode="D" horiz-adv-x="857" 
d="M135 760l235 -0.000976562c131.333 0 232 -32.667 302 -98s105 -159.666 105 -282.999s-34.833 -217.333 -104.5 -282s-171.167 -97 -304.5 -97h-233v760zM175 37.999h195c120 0 210.833 28.667 272.5 86s92.5 142.333 92.5 255s-30.833 198 -92.5 256
s-152.5 87 -272.5 87h-195v-684z" />
    <glyph glyph-name="E" unicode="E" horiz-adv-x="648" 
d="M135 760h418v-37h-378v-314h338v-35h-338v-337h393v-37h-433v760z" />
    <glyph glyph-name="F" unicode="F" horiz-adv-x="598" 
d="M135 760h403v-37h-363v-333h312v-36h-312v-354h-40v760z" />
    <glyph glyph-name="G" unicode="G" horiz-adv-x="839" 
d="M475 -11c-76 0 -143.835 15.665 -203.502 46.998s-106.5 76.333 -140.5 135s-51 127 -51 205c0 74.667 16.167 141.834 48.5 201.501s78.833 106.834 139.5 141.501s130.667 52 210 52c41.333 0 84.333 -5 129 -15s82 -23 112 -39l-10 -38
c-30.667 16 -67.167 28.833 -109.5 38.5s-83.5 14.5 -123.5 14.5c-66 0 -125.667 -14.5 -179 -43.5s-95.833 -70.333 -127.5 -124s-47.5 -115.167 -47.5 -184.5s14.333 -130.5 43 -183.5s69.834 -94.333 123.501 -124s116.834 -44.5 189.501 -44.5c38 0 76 4 114 12
s72 19.333 102 34v268h-206v38h246v-330c-33.333 -19.333 -72.833 -34.333 -118.5 -45s-92.5 -16 -140.5 -16z" />
    <glyph glyph-name="H" unicode="H" horiz-adv-x="870" 
d="M135 760h40v-342h520v342h40v-760h-40v380h-520v-380h-40v760z" />
    <glyph glyph-name="I" unicode="I" horiz-adv-x="310" 
d="M135 760h40v-760h-40v760z" />
    <glyph glyph-name="J" unicode="J" horiz-adv-x="544" 
d="M211 -12c-54 0 -104.999 12.667 -152.999 38l7 39c42.667 -26 90.667 -39 144 -39c57.333 0 99.833 14.5 127.5 43.5s41.5 73.167 41.5 132.5v558h40v-552c0 -72.667 -17.333 -127.5 -52 -164.5s-86.334 -55.5 -155.001 -55.5z" />
    <glyph glyph-name="K" unicode="K" horiz-adv-x="754" 
d="M135 760h40v-353l439 353h58l-455 -364l495 -396h-62l-475 380v-380h-40v760z" />
    <glyph glyph-name="L" unicode="L" horiz-adv-x="603" 
d="M135 760h40v-723h373v-37h-413v760z" />
    <glyph glyph-name="M" unicode="M" horiz-adv-x="1048" 
d="M158 760h43l324 -584l322 584h43l34 -760h-39l-34 692l-312 -563h-31l-312 559l-33 -688h-39z" />
    <glyph glyph-name="N" unicode="N" horiz-adv-x="890" 
d="M135 760h41l540 -703v703h39v-760h-41l-540 703v-703h-39v760z" />
    <glyph glyph-name="O" unicode="O" horiz-adv-x="922" 
d="M461 23c62 0 118.833 14.833 170.5 44.5s92.834 71.667 123.501 126s46 116.166 46 185.499c0 66 -14.167 126 -42.5 180s-68.5 97.167 -120.5 129.5s-111 48.5 -177 48.5c-62 0 -118.833 -14.833 -170.5 -44.5s-92.834 -71.667 -123.501 -126s-46 -116.166 -46 -185.499
c0 -66 14.167 -126 42.5 -180s68.5 -97.167 120.5 -129.5s111 -48.5 177 -48.5zM461 -16c-70 0 -133.667 16.501 -191 49.501s-103.333 79.667 -138 140s-52 128.833 -52 205.5c0 72.667 15.833 139 47.5 199s76.667 108 135 144s124.833 54 199.5 54
c69.333 0 132.833 -16.5 190.5 -49.5s103.667 -79.833 138 -140.5s51.5 -129.334 51.5 -206.001c0 -72 -15.833 -138 -47.5 -198s-76.667 -108 -135 -144s-124.5 -54 -198.5 -54z" />
    <glyph glyph-name="P" unicode="P" horiz-adv-x="644" 
d="M135 760l196 0.000976562c75.333 0 135.333 -19.833 180 -59.5s67 -92.834 67 -159.501c0 -71.333 -23.5 -127 -70.5 -167s-111.833 -60 -194.5 -60h-138v-314h-40v760zM175 352.001h133c74.667 0 131.334 16 170.001 48s58 78.333 58 139c0 58 -18.333 103 -55 135
s-88.334 48 -155.001 48h-151v-370z" />
    <glyph glyph-name="Q" unicode="Q" horiz-adv-x="922" 
d="M709 -182l-160 176.002c-24.667 -6.66699 -54 -10 -88 -10c-70 0 -133.667 16.5 -191 49.5s-103.333 79.667 -138 140s-52 128.833 -52 205.5c0 72.667 15.833 139 47.5 199s76.667 108 135 144s124.833 54 199.5 54c69.333 0 132.833 -16.5 190.5 -49.5
s103.667 -79.833 138 -140.5s51.5 -129.334 51.5 -206.001c0 -87.333 -22.667 -164.833 -68 -232.5s-106.333 -114.834 -183 -141.501l172 -188h-54zM461 23.002c62 0 118.833 14.833 170.5 44.5s92.834 71.667 123.501 126s46 116.166 46 185.499
c0 66 -14.167 126 -42.5 180s-68.5 97.167 -120.5 129.5s-111 48.5 -177 48.5c-62 0 -118.833 -14.833 -170.5 -44.5s-92.834 -71.667 -123.501 -126s-46 -116.166 -46 -185.499c0 -66 14.167 -126 42.5 -180s68.5 -97.167 120.5 -129.5s111 -48.5 177 -48.5z" />
    <glyph glyph-name="R" unicode="R" horiz-adv-x="695" 
d="M135 760l201 0.000976562c74 0 133 -19.333 177 -58s66 -90.334 66 -155.001c0 -51.333 -13 -94.833 -39 -130.5s-63.667 -61.167 -113 -76.5l223 -340h-49l-213 331c-25.333 -3.33301 -47.333 -5 -66 -5h-147v-326h-40v760zM175 364.001h141.001
c71.333 0 126 15.5 164 46.5s57 75.5 57 133.5c0 56.667 -17.833 100.5 -53.5 131.5s-85.834 46.5 -150.501 46.5h-158v-358z" />
    <glyph glyph-name="S" unicode="S" horiz-adv-x="649" 
d="M305 -16c-43.333 0 -84.834 5.49805 -124.501 16.498s-73.5 26.167 -101.5 45.5l7 38c28.667 -20 62.167 -35.667 100.5 -47s77.5 -17 117.5 -17c66.667 0 119.167 14.667 157.5 44s57.5 69.666 57.5 120.999c0 34 -7 61.5 -21 82.5s-37.5 40 -70.5 57
s-80.833 36.167 -143.5 57.5c-65.333 22 -113.166 49.333 -143.499 82s-45.5 73.334 -45.5 122.001c0 58 20.5 104.167 61.5 138.5s96.5 51.5 166.5 51.5c72 0 139.333 -15.667 202 -47l-9 -35c-62 30.667 -126.333 46 -193 46c-58.667 0 -104.834 -13.333 -138.501 -40
s-50.5 -63.667 -50.5 -111c0 -30.667 6 -56 18 -76s31 -37.667 57 -53s61.333 -30.666 106 -45.999c64.667 -22 114.334 -43.667 149.001 -65s59.167 -44.666 73.5 -69.999s21.5 -55.666 21.5 -90.999c0 -62.667 -22.833 -112.334 -68.5 -149.001s-107.5 -55 -185.5 -55z
" />
    <glyph glyph-name="T" unicode="T" horiz-adv-x="666" 
d="M313 723h-260v37h560v-37h-260v-723h-40v723z" />
    <glyph glyph-name="U" unicode="U" horiz-adv-x="836" 
d="M418 -16c-97.333 0 -172.168 26.833 -224.501 80.5s-78.5 130.834 -78.5 231.501v464h40v-456c0 -187.333 87.667 -281 263 -281s263 93.667 263 281v456h40v-464c0 -100.667 -26.167 -177.834 -78.5 -231.501s-127.166 -80.5 -224.499 -80.5z" />
    <glyph glyph-name="V" unicode="V" horiz-adv-x="731" 
d="M37 760h46l283 -716l285 716h43l-305 -760h-47z" />
    <glyph glyph-name="W" unicode="W" horiz-adv-x="1093" 
d="M42 760h45l216 -707l222 697h43l222 -697l217 707h44l-238 -760h-43l-225 691l-221 -691h-44z" />
    <glyph glyph-name="X" unicode="X" horiz-adv-x="729" 
d="M341 399l-267 361h50l241 -331l244 331h46l-267 -360l296 -400h-51l-269 369l-272 -369h-47z" />
    <glyph glyph-name="Y" unicode="Y" horiz-adv-x="704" 
d="M331 343l-291 417h48l265 -382l266 382h45l-293 -417v-343h-40v343z" />
    <glyph glyph-name="Z" unicode="Z" horiz-adv-x="701" 
d="M70 36l495 687h-470v37h518v-36l-495 -687h503v-37h-551v36z" />
    <glyph glyph-name="bracketleft" unicode="[" horiz-adv-x="359" 
d="M102 820h211v-32h-176v-889h176v-32h-211v953z" />
    <glyph glyph-name="backslash" unicode="\" horiz-adv-x="504" 
d="M14 810h40l435 -943h-40z" />
    <glyph glyph-name="bracketright" unicode="]" horiz-adv-x="359" 
d="M46 -101h176v889h-176v32h211v-953h-211v32z" />
    <glyph glyph-name="asciicircum" unicode="^" horiz-adv-x="620" 
d="M297 696h36l197 -360h-40l-175 325l-187 -325h-39z" />
    <glyph glyph-name="underscore" unicode="_" horiz-adv-x="500" 
d="M0 -72h500v-35h-500v35z" />
    <glyph glyph-name="grave" unicode="`" horiz-adv-x="500" 
d="M160 773h44l136 -183h-40z" />
    <glyph glyph-name="a" unicode="a" horiz-adv-x="544" 
d="M237 -16c-51.333 0 -93.667 13.833 -127 41.5s-50 62.834 -50 105.501c0 49.333 17.333 88.166 52 116.499s82.667 42.5 144 42.5c58.667 0 114 -11.667 166 -35v30c0 58 -14.667 102 -44 132s-72.333 45 -129 45c-60 0 -112.333 -18.667 -157 -56l-6 35
c20.667 17.333 46 30.833 76 40.5s61 14.5 93 14.5c63.333 0 113 -18.167 149 -54.5s54 -86.833 54 -151.5v-290h-36v103c-16.667 -38 -41.167 -67.333 -73.5 -88s-69.5 -31 -111.5 -31zM240.999 16c53.333 0 96.833 19.168 130.5 57.501s50.5 88.166 50.5 149.499
c-49.333 23.333 -104 35 -164 35c-50 0 -89.167 -11 -117.5 -33s-42.5 -52.333 -42.5 -91c0 -36 13 -64.667 39 -86s60.667 -32 104 -32z" />
    <glyph glyph-name="b" unicode="b" horiz-adv-x="648" 
d="M340 -16c-43.333 0 -82.8311 10.501 -118.498 31.501s-63.834 50.5 -84.501 88.5l-1 -104h-36v810h38v-433c21.333 38 49.5 67.333 84.5 88s74.167 31 117.5 31c45.333 0 86.5 -10.667 123.5 -32s66.667 -51.5 89 -90.5s33.5 -83.5 33.5 -133.5
c0 -46 -10.333 -88.333 -31 -127s-49.834 -69.834 -87.501 -93.501s-80.167 -35.5 -127.5 -35.5zM340.002 18.001c38 0 72.668 9.16699 104.001 27.5s56.333 44.5 75 78.5s28 72.667 28 116c0 40.667 -8.5 77.834 -25.5 111.501s-41.333 60.5 -73 80.5
s-67.834 30 -108.501 30c-38 0 -72.667 -9.16699 -104 -27.5s-56.333 -44.5 -75 -78.5s-28 -72.667 -28 -116c0 -40.667 8.66699 -77.834 26 -111.501s41.833 -60.5 73.5 -80.5s67.5 -30 107.5 -30z" />
    <glyph glyph-name="c" unicode="c" horiz-adv-x="524" 
d="M318 -14c-48.667 0 -92.335 10.332 -131.002 30.999s-69.167 50.334 -91.5 89.001s-33.5 83.334 -33.5 134.001c0 46.667 10.333 89.167 31 127.5s50.334 69 89.001 92s82.334 34.5 131.001 34.5c60 0 110.333 -11.667 151 -35l-7 -35c-40 24 -88 36 -144 36
c-40 0 -76 -9 -108 -27s-57.333 -43.667 -76 -77s-28 -72 -28 -116c0 -42.667 8.83301 -80.5 26.5 -113.5s43 -59 76 -78s71.167 -28.5 114.5 -28.5c28 0 55.167 3.66699 81.5 11s49.833 17.666 70.5 30.999l6 -33c-20 -13.333 -44.333 -23.833 -73 -31.5
s-57 -11.5 -85 -11.5z" />
    <glyph glyph-name="d" unicode="d" horiz-adv-x="648" 
d="M308 -16c-45.333 0 -86.499 10.666 -123.499 31.999s-66.667 51.5 -89 90.5s-33.5 83.5 -33.5 133.5c0 46 10.333 88.333 31 127s49.834 69.834 87.501 93.501s80.167 35.5 127.5 35.5c42.667 0 81.667 -10.333 117 -31s63.666 -50 84.999 -88v433h38v-810h-36l-1 104
c-21.333 -38 -49.833 -67.5 -85.5 -88.5s-74.834 -31.5 -117.501 -31.5zM308.001 17.999c38 0 72.666 9.16699 103.999 27.5s56.333 44.5 75 78.5s28 72.667 28 116c0 40.667 -8.66699 77.834 -26 111.501s-41.833 60.5 -73.5 80.5s-67.5 30 -107.5 30
c-38 0 -72.667 -9.16699 -104 -27.5s-56.333 -44.5 -75 -78.5s-28 -72.667 -28 -116c0 -40.667 8.5 -77.834 25.5 -111.501s41.333 -60.5 73 -80.5s67.834 -30 108.501 -30z" />
    <glyph glyph-name="e" unicode="e" horiz-adv-x="564" 
d="M321 -16c-50 0 -94.498 10.1689 -133.498 30.502s-69.667 49.666 -92 87.999s-33.5 83.166 -33.5 134.499c0 47.333 9.66699 90.5 29 129.5s46.833 70.333 82.5 94s76.167 35.5 121.5 35.5c39.333 0 74.666 -9.33301 105.999 -28s56 -45.167 74 -79.5
s27 -74.166 27 -119.499c0 -10.667 -1 -22 -3 -34h-400c1.33301 -67.333 22.166 -120.333 62.499 -159s94.5 -58 162.5 -58c57.333 0 111 14 161 42l7 -34c-21.333 -12.667 -47.333 -22.834 -78 -30.501s-61.667 -11.5 -93 -11.5zM467.002 266.002c0 38 -7 71.833 -21 101.5
s-34.333 53 -61 70s-57.667 25.5 -93 25.5c-32 0 -61.833 -8.16699 -89.5 -24.5s-50.667 -39.5 -69 -69.5s-29.5 -64.333 -33.5 -103h367z" />
    <glyph glyph-name="f" unicode="f" horiz-adv-x="379" 
d="M141 447h-103.001v33h103v103c0 76 15.333 133.667 46 173s75.334 59 134.001 59c36.667 0 67.667 -6.66699 93 -20l-6 -33c-27.333 12.667 -56.333 19 -87 19c-48 0 -83.667 -16.667 -107 -50s-35 -84.333 -35 -153v-98h172v-33h-172v-447h-38v447z" />
    <glyph glyph-name="g" unicode="g" horiz-adv-x="571" 
d="M287 -255c-72.667 0 -129.332 12.6689 -169.999 38.002s-61 60.666 -61 105.999c0 32 8.5 59.333 25.5 82s41.5 39.334 73.5 50.001c-21.333 3.33301 -38.833 12.333 -52.5 27s-20.5 32 -20.5 52c0 19.333 6.16699 37.166 18.5 53.499s29.5 30.166 51.5 41.499
c-22 15.333 -39 34.333 -51 57s-18 47.667 -18 75c0 50.667 18.167 91.5 54.5 122.5s84.166 46.5 143.499 46.5c15.333 0 32.166 -2 50.499 -6s35.166 -9.33301 50.499 -16l154 7v-33l-117 1c40 -30 60 -70.667 60 -122c0 -50.667 -18.167 -91.334 -54.5 -122.001
s-84.166 -46 -143.499 -46c-39.333 0 -73.666 7 -102.999 21c-40 -22 -60 -46.667 -60 -74c0 -21.333 8.83301 -36.666 26.5 -45.999s46.5 -14 86.5 -14h65c143.333 0 215 -48.667 215 -146c0 -48.667 -19.833 -86.667 -59.5 -114s-94.5 -41 -164.5 -41zM290.002 -221.998
c58 0 103.167 10.666 135.5 31.999s48.5 51 48.5 89c0 40 -14.333 69 -43 87s-74.667 27 -138 27h-26c-56 0 -99 -10.5 -129 -31.5s-45 -50.833 -45 -89.5c0 -37.333 16.667 -65.666 50 -84.999s82.333 -29 147 -29zM281.002 190.001c48.667 0 87.667 12.5 117 37.5
s44 58.167 44 99.5s-14.833 74.666 -44.5 99.999s-68.5 38 -116.5 38c-49.333 0 -88.5 -12.667 -117.5 -38s-43.5 -58.666 -43.5 -99.999c0 -40.667 14.833 -73.667 44.5 -99s68.5 -38 116.5 -38z" />
    <glyph glyph-name="h" unicode="h" horiz-adv-x="597" 
d="M100 810h38.002v-421c17.333 35.333 41.333 62 72 80s66.667 27 108 27c57.333 0 102.166 -18.167 134.499 -54.5s48.5 -86.833 48.5 -151.5v-290h-38v285c0 118 -50.333 177 -151 177c-52.667 0 -94.834 -18.5 -126.501 -55.5s-47.5 -86.167 -47.5 -147.5v-259h-38v810z
" />
    <glyph glyph-name="i" unicode="i" horiz-adv-x="238" 
d="M100 480h38v-480h-38v480zM119 642c-10 0 -17.833 2.83301 -23.5 8.5s-8.5 13.5 -8.5 23.5s2.83301 17.833 8.5 23.5s13.5 8.5 23.5 8.5s17.833 -2.83301 23.5 -8.5s8.5 -13.5 8.5 -23.5s-2.83301 -17.833 -8.5 -23.5s-13.5 -8.5 -23.5 -8.5z" />
    <glyph glyph-name="j" unicode="j" horiz-adv-x="238" 
d="M-4 -255c-33.333 0 -65.333 7.66699 -96 23l4 33c28.667 -14.667 60.667 -22 96 -22s60.833 10 76.5 30s23.5 53 23.5 99v572h38v-572c0 -55.333 -11.5 -96.333 -34.5 -123s-58.833 -40 -107.5 -40zM119 642c-10 0 -17.833 2.83301 -23.5 8.5s-8.5 13.5 -8.5 23.5
s3 17.833 9 23.5s13.667 8.5 23 8.5c10 0 17.833 -2.83301 23.5 -8.5s8.5 -13.5 8.5 -23.5c0 -9.33301 -2.83301 -17 -8.5 -23s-13.5 -9 -23.5 -9z" />
    <glyph glyph-name="k" unicode="k" horiz-adv-x="537" 
d="M100 810h38v-530l282 200h57l-299 -212l339 -268h-58l-321 254v-254h-38v810z" />
    <glyph glyph-name="l" unicode="l" horiz-adv-x="238" 
d="M100 810h38v-810h-38v810z" />
    <glyph glyph-name="m" unicode="m" horiz-adv-x="930" 
d="M100 480l36.002 -0.000976562v-94c16.667 36 40.167 63.333 70.5 82s65.833 28 106.5 28c41.333 0 76 -10.833 104 -32.5s47.667 -52.5 59 -92.5c16.667 40 41 70.833 73 92.5s69.333 32.5 112 32.5c54.667 0 97.167 -18.167 127.5 -54.5s45.5 -86.833 45.5 -151.5v-290
h-38v285c0 58.667 -11.833 102.834 -35.5 132.501s-58.834 44.5 -105.501 44.5c-51.333 0 -92.333 -18.667 -123 -56s-46 -87 -46 -149v-257h-38v285c0 58.667 -11.833 102.834 -35.5 132.501s-58.834 44.5 -105.501 44.5c-50.667 0 -91.5 -18.833 -122.5 -56.5
s-46.5 -86.834 -46.5 -147.501v-258h-38v480z" />
    <glyph glyph-name="n" unicode="n" horiz-adv-x="597" 
d="M100 480h36.002v-94c16.667 35.333 40.5 62.5 71.5 81.5s67.833 28.5 110.5 28.5c57.333 0 102.166 -18.167 134.499 -54.5s48.5 -86.833 48.5 -151.5v-290h-38v285c0 118 -50.333 177 -151 177c-52.667 0 -94.834 -18.5 -126.501 -55.5s-47.5 -86.167 -47.5 -147.5v-259
h-38v480z" />
    <glyph glyph-name="o" unicode="o" horiz-adv-x="616" 
d="M308 -16c-45.333 0 -86.5 10.667 -123.5 32s-66.667 51.5 -89 90.5s-33.5 83.5 -33.5 133.5c0 46 10.333 88.333 31 127s49.834 69.834 87.501 93.501s80.167 35.5 127.5 35.5c45.333 0 86.5 -10.667 123.5 -32s66.667 -51.5 89 -90.5s33.5 -83.5 33.5 -133.5
c0 -46 -10.333 -88.333 -31 -127s-49.834 -69.834 -87.501 -93.501s-80.167 -35.5 -127.5 -35.5zM308 18c38 0 72.667 9.16699 104 27.5s56.333 44.5 75 78.5s28 72.667 28 116c0 40.667 -8.5 77.834 -25.5 111.501s-41.333 60.5 -73 80.5s-67.834 30 -108.501 30
c-38 0 -72.667 -9.16699 -104 -27.5s-56.333 -44.5 -75 -78.5s-28 -72.667 -28 -116c0 -40.667 8.5 -77.834 25.5 -111.501s41.333 -60.5 73 -80.5s67.834 -30 108.501 -30z" />
    <glyph glyph-name="p" unicode="p" horiz-adv-x="648" 
d="M100 480l36.002 0.000976562l1 -105c20.667 38.667 48.834 68.5 84.501 89.5s75.167 31.5 118.5 31.5c45.333 0 86.5 -10.667 123.5 -32s66.667 -51.5 89 -90.5s33.5 -83.5 33.5 -133.5c0 -46 -10.333 -88.333 -31 -127s-49.834 -69.834 -87.501 -93.501
s-80.167 -35.5 -127.5 -35.5c-42.667 0 -81.834 10.333 -117.501 31s-63.834 49.667 -84.501 87v-347h-38v725zM340.002 18.001c38 0 72.668 9.16699 104.001 27.5s56.333 44.5 75 78.5s28 72.667 28 116c0 40.667 -8.5 77.834 -25.5 111.501s-41.333 60.5 -73 80.5
s-67.834 30 -108.501 30c-38 0 -72.667 -9.16699 -104 -27.5s-56.333 -44.5 -75 -78.5s-28 -72.667 -28 -116c0 -40.667 8.66699 -77.834 26 -111.501s41.833 -60.5 73.5 -80.5s67.5 -30 107.5 -30z" />
    <glyph glyph-name="q" unicode="q" horiz-adv-x="648" 
d="M510 -245l-0.00292969 346.999c-21.333 -37.333 -49.666 -66.333 -84.999 -87s-74.333 -31 -117 -31c-45.333 0 -86.5 10.667 -123.5 32s-66.667 51.5 -89 90.5s-33.5 83.5 -33.5 133.5c0 46 10.333 88.333 31 127s49.834 69.834 87.501 93.501s80.167 35.5 127.5 35.5
c42.667 0 81.834 -10.667 117.501 -32s64.167 -51 85.5 -89l1 105h36v-725h-38zM307.997 17.999c38 0 72.666 9.16699 103.999 27.5s56.333 44.5 75 78.5s28 72.667 28 116c0 40.667 -8.66699 77.834 -26 111.501s-41.833 60.5 -73.5 80.5s-67.5 30 -107.5 30
c-38 0 -72.667 -9.16699 -104 -27.5s-56.333 -44.5 -75 -78.5s-28 -72.667 -28 -116c0 -40.667 8.5 -77.834 25.5 -111.501s41.333 -60.5 73 -80.5s67.834 -30 108.501 -30z" />
    <glyph glyph-name="r" unicode="r" horiz-adv-x="390" 
d="M100 480h36.999v-108c14.667 37.333 36.334 65.833 65.001 85.5s62.667 29.5 102 29.5c22 0 39 -2.66699 51 -8l-3 -35c-19.333 5.33301 -37.333 8 -54 8c-50 0 -89.167 -20.667 -117.5 -62s-42.5 -98.333 -42.5 -171v-219h-38v480z" />
    <glyph glyph-name="s" unicode="s" horiz-adv-x="458" 
d="M218 -16c-29.333 0 -58.666 4.16504 -87.999 12.498s-54.333 19.833 -75 34.5l5 37c20.667 -15.333 45.5 -27.5 74.5 -36.5s56.833 -13.5 83.5 -13.5c44 0 78.667 8.66699 104 26s38 41 38 71c0 20 -4.5 36.333 -13.5 49s-23.5 23.834 -43.5 33.501
s-48.333 19.834 -85 30.501c-52 15.333 -90 34.5 -114 57.5s-36 51.833 -36 86.5c0 37.333 14.5 67.333 43.5 90s67.833 34 116.5 34c26.667 0 53.167 -3.33301 79.5 -10s48.833 -15.667 67.5 -27l-5 -35c-19.333 12 -41.666 21.333 -66.999 28s-50.333 10 -75 10
c-38.667 0 -68.834 -7.83301 -90.501 -23.5s-32.5 -37.167 -32.5 -64.5c0 -26 9.5 -47.5 28.5 -64.5s49.833 -31.5 92.5 -43.5c64 -18.667 108.667 -39 134 -61s38 -51.333 38 -88c0 -40.667 -16.333 -73 -49 -97s-76.334 -36 -131.001 -36z" />
    <glyph glyph-name="t" unicode="t" horiz-adv-x="418" 
d="M277 -16c-49.333 0 -85.499 13.668 -108.499 41.001s-34.5 70.666 -34.5 129.999v292h-114v33h114v164h38v-164h184v-33h-184v-275c0 -56.667 8.16699 -96.5 24.5 -119.5s44.5 -34.5 84.5 -34.5c15.333 0 32.333 2.66699 51 8s34.667 12 48 20l7 -33
c-13.333 -8.66699 -30.333 -15.667 -51 -21s-40.334 -8 -59.001 -8z" />
    <glyph glyph-name="u" unicode="u" horiz-adv-x="594" 
d="M278 -16c-57.333 0 -101.998 18.167 -133.998 54.5s-48 86.833 -48 151.5v290h38v-285c0 -58 12.667 -102 38 -132s62.666 -45 111.999 -45c51.333 0 92.833 18.667 124.5 56s47.5 86.333 47.5 147v259h38v-480h-36l-1 93c-16.667 -35.333 -40.334 -62.333 -71.001 -81
s-66.667 -28 -108 -28z" />
    <glyph glyph-name="v" unicode="v" horiz-adv-x="513" 
d="M30 480h42l187 -438l185 438h39l-206 -480h-38z" />
    <glyph glyph-name="w" unicode="w" horiz-adv-x="790" 
d="M35 480h39l159 -436l145 426h34l145 -425l161 435h37l-178 -480h-38l-145 424l-144 -424h-39z" />
    <glyph glyph-name="x" unicode="x" horiz-adv-x="536" 
d="M246 249l-182 231h48l157 -204l160 204h43l-182 -230l202 -250h-48l-177 223l-179 -223h-44z" />
    <glyph glyph-name="y" unicode="y" horiz-adv-x="515" 
d="M70 -255c-10 0 -20.502 1.33301 -31.502 4s-19.833 6 -26.5 10l5 37c15.333 -10 32.666 -15 51.999 -15c24.667 0 45.334 5.83301 62.001 17.5s32.834 31 48.501 58s33.834 64.833 54.501 113.5l14 33l-218 477h41l196 -435l177 435h41l-215 -515
c-24.667 -59.333 -47 -104.5 -67 -135.5s-40.333 -52.833 -61 -65.5s-44.667 -19 -72 -19z" />
    <glyph glyph-name="z" unicode="z" horiz-adv-x="495" 
d="M58 30l321 417h-309v33h355v-30l-322 -417h329v-33h-374v30z" />
    <glyph glyph-name="braceleft" unicode="{" horiz-adv-x="423" 
d="M306 -145c-49.333 0 -85.666 10.6709 -108.999 32.0039s-35 54.666 -35 99.999c0.666992 24 3.83398 49.833 9.50098 77.5l17 83c5.66699 27.667 8.83398 53.834 9.50098 78.501c0 32 -9.5 55.667 -28.5 71s-48.167 23 -87.5 23h-17v36h17c39.333 0 68.5 7.66699 87.5 23
s28.5 39 28.5 71c-0.666992 24.667 -3.83398 50.834 -9.50098 78.501l-17 83c-5.66699 27.667 -8.83398 53.5 -9.50098 77.5c0 45.333 11.667 78.666 35 99.999s59.666 32 108.999 32c14.667 0 30.667 -0.666992 48 -2v-29c-14.667 1.33301 -31 2 -49 2
c-38.667 0 -66.5 -7.83301 -83.5 -23.5s-25.5 -41.167 -25.5 -76.5c0 -16.667 1.83301 -35.334 5.5 -56.001s7.83398 -41.834 12.501 -63.501s8.83398 -42.667 12.501 -63s5.5 -38.833 5.5 -55.5c0 -32 -7.66699 -57.833 -23 -77.5s-37.666 -32.5 -66.999 -38.5
c29.333 -6 51.666 -18.833 66.999 -38.5s23 -45.5 23 -77.5c0 -16.667 -1.83301 -35.167 -5.5 -55.5s-7.83398 -41.333 -12.501 -63s-8.83398 -42.834 -12.501 -63.501s-5.5 -39.334 -5.5 -56.001c0 -35.333 8.5 -60.833 25.5 -76.5s44.833 -23.5 83.5 -23.5
c18 0 34.333 0.666992 49 2v-29c-17.333 -1.33301 -33.333 -2 -48 -2z" />
    <glyph glyph-name="bar" unicode="|" horiz-adv-x="238" 
d="M100 866h38v-1093h-38v1093z" />
    <glyph glyph-name="braceright" unicode="}" horiz-adv-x="423" 
d="M117 -145c-14.667 0 -30.667 0.666992 -48 2v29c14.667 -1.33301 31 -2 49 -2c38.667 0 66.5 7.83301 83.5 23.5s25.5 41.167 25.5 76.5c0 16.667 -1.83301 35.334 -5.5 56.001s-7.83398 41.834 -12.501 63.501s-8.83398 42.667 -12.501 63s-5.5 38.833 -5.5 55.5
c0 32 7.66699 57.833 23 77.5s37.666 32.5 66.999 38.5c-29.333 6 -51.666 18.833 -66.999 38.5s-23 45.5 -23 77.5c0 16.667 1.83301 35.167 5.5 55.5s7.83398 41.333 12.501 63s8.83398 42.834 12.501 63.501s5.5 39.334 5.5 56.001c0 35.333 -8.5 60.833 -25.5 76.5
s-44.833 23.5 -83.5 23.5c-18 0 -34.333 -0.666992 -49 -2v29c17.333 1.33301 33.333 2 48 2c49.333 0 85.666 -10.833 108.999 -32.5s35 -54.834 35 -99.501c-0.666992 -24 -3.83398 -49.833 -9.50098 -77.5l-17 -83c-5.66699 -27.667 -8.83398 -53.834 -9.50098 -78.501
c0 -32 9.5 -55.667 28.5 -71s48.167 -23 87.5 -23h17v-36h-17c-39.333 0 -68.5 -7.66699 -87.5 -23s-28.5 -39 -28.5 -71c0.666992 -24.667 3.83398 -50.834 9.50098 -78.501l17 -83c5.66699 -27.667 8.83398 -53.5 9.50098 -77.5c0 -44.667 -11.667 -77.834 -35 -99.501
s-59.666 -32.5 -108.999 -32.5z" />
    <glyph glyph-name="asciitilde" unicode="~" horiz-adv-x="620" 
d="M428 260c-18 0 -35.502 4.16992 -52.502 12.5029s-39.833 24.166 -68.5 47.499c-30.667 25.333 -53.5 42.166 -68.5 50.499s-30.167 12.5 -45.5 12.5c-25.333 0 -44 -10 -56 -30s-18 -51 -18 -93h-33v14c0 45.333 9.33301 80.666 28 105.999s44.334 38 77.001 38
c18.667 0 37.334 -4.5 56.001 -13.5s40.667 -24.167 66 -45.5c28.667 -24.667 51 -41.5 67 -50.5s32 -13.5 48 -13.5c24.667 0 43 9.83301 55 29.5s18 50.834 18 93.501h33v-14c0 -44.667 -9.33301 -79.834 -28 -105.501s-44.667 -38.5 -78 -38.5z" />
    <glyph glyph-name="uni00A0" unicode="&#xa0;" horiz-adv-x="225" 
 />
    <glyph glyph-name="exclamdown" unicode="&#xa1;" horiz-adv-x="246" 
d="M108 292h30l5 -587h-40zM123 503c9.33301 0 17.166 -3 23.499 -9s9.5 -14 9.5 -24s-3.16699 -18 -9.5 -24s-14.166 -9 -23.499 -9s-17.166 3 -23.499 9s-9.5 14 -9.5 24s3.16699 18 9.5 24s14.166 9 23.499 9z" />
    <glyph glyph-name="cent" unicode="&#xa2;" horiz-adv-x="620" 
d="M316 -130l-0.00292969 129.999c-62 10.667 -111 38.334 -147 83.001s-54 100 -54 166c0 64 18.333 118.833 55 164.5s85.334 73.834 146.001 84.501v132h33v-129c51.333 -0.666992 98 -12.667 140 -36l-4 -34c-37.333 23.333 -82.666 35.666 -135.999 36.999v-438
c56.667 0 106.334 14 149.001 42l4 -33c-19.333 -12.667 -42.5 -22.667 -69.5 -30s-54.833 -11.333 -83.5 -12v-127h-33zM315.997 464.999c-50 -10.667 -89.833 -35.667 -119.5 -75s-44.5 -86.333 -44.5 -141c0 -56 14.667 -103.167 44 -141.5s69.333 -62.833 120 -73.5v431
z" />
    <glyph glyph-name="sterling" unicode="&#xa3;" horiz-adv-x="620" 
d="M90 34l97.999 -0.00195312v315h-94v33h94v96c0 92.667 18.667 162.834 56 210.501s92 71.5 164 71.5c23.333 0 46.666 -2.66699 69.999 -8s44.333 -12.666 63 -21.999l-5 -33c-19.333 8.66699 -40.666 15.667 -63.999 21s-44.666 8 -63.999 8
c-61.333 0 -107 -20.833 -137 -62.5s-45 -105.167 -45 -190.5v-91h223v-33h-223v-315h323v-34h-459v34z" />
    <glyph glyph-name="currency" unicode="&#xa4;" horiz-adv-x="620" 
d="M91 232l64.999 61.999c-26 34 -39 75 -39 123c0 46 13 87.333 39 124l-65 62l23 21l62 -60c37.333 36 81.666 54 132.999 54c25.333 0 49.666 -4.5 72.999 -13.5s43.666 -22.167 60.999 -39.5l62 59l23 -21l-65 -62c26 -35.333 39 -76.666 39 -123.999
c0 -45.333 -13 -86.333 -39 -123l65 -62l-23 -21l-62 59c-17.333 -17.333 -37.666 -30.5 -60.999 -39.5s-47.666 -13.5 -72.999 -13.5s-49.666 4.5 -72.999 13.5s-43.666 22.167 -60.999 39.5l-61 -59zM308.999 245.999c46.667 0 85.167 16.167 115.5 48.5
s45.5 73.166 45.5 122.499c0 50 -15.167 91.167 -45.5 123.5s-68.833 48.5 -115.5 48.5c-46 0 -84 -16.333 -114 -49s-45 -73.667 -45 -123s15 -90.166 45 -122.499s68 -48.5 114 -48.5z" />
    <glyph glyph-name="yen" unicode="&#xa5;" horiz-adv-x="620" 
d="M292 176h-207v32h207v132h-207v32h187l-230 372h44l225 -374l224 374h42l-227 -372h185v-32h-205v-132h205v-32h-205v-176h-38v176z" />
    <glyph glyph-name="brokenbar" unicode="&#xa6;" horiz-adv-x="237" 
d="M100 218h37v-445h-37v445zM100 866h37v-445h-37v445z" />
    <glyph glyph-name="section" unicode="&#xa7;" horiz-adv-x="476" 
d="M220 -121c-27.333 0 -54.8311 4.16602 -82.498 12.499s-51.167 19.833 -70.5 34.5l5 37c19.333 -15.333 42.5 -27.5 69.5 -36.5s53.167 -13.5 78.5 -13.5c44.667 0 80.5 11.167 107.5 33.5s40.5 52.166 40.5 89.499c0 30.667 -11.667 55.834 -35 75.501
s-63 37.5 -119 53.5c-51.333 14.667 -89 34.5 -113 59.5s-36 56.833 -36 95.5c0 42 13.5 77 40.5 105s62.833 44.667 107.5 50c-85.333 26.667 -128 73.667 -128 141c0 40.667 15.5 73 46.5 97s72.167 36 123.5 36c24.667 0 49.167 -3.33301 73.5 -10s45.5 -15.667 63.5 -27
l-5 -35c-18.667 12 -39.667 21.333 -63 28s-46.333 10 -69 10c-42 0 -75 -8.66699 -99 -26s-36 -41 -36 -71c0 -28.667 11.167 -53.167 33.5 -73.5s56.5 -37.166 102.5 -50.499c56 -16.667 96.667 -38 122 -64s38 -59.333 38 -100c0 -40 -12.833 -74 -38.5 -102
s-58.834 -44.667 -99.501 -50c44 -14.667 76.333 -33.5 97 -56.5s31 -51.167 31 -84.5c0 -48 -16.833 -86.333 -50.5 -115s-78.834 -43 -135.501 -43zM243.002 200.999c40.667 0 73.667 11.332 99 33.999s38 52.334 38 89.001c0 37.333 -13 68 -39 92s-59 36 -99 36
c-42 0 -76.167 -12.167 -102.5 -36.5s-39.5 -55.5 -39.5 -93.5c0 -35.333 13.333 -64.333 40 -87s61 -34 103 -34z" />
    <glyph glyph-name="dieresis" unicode="&#xa8;" horiz-adv-x="500" 
d="M165 643c-8.66699 0 -16 3 -22 9s-9 13.333 -9 22c0 9.33301 2.83301 16.833 8.5 22.5s13.167 8.5 22.5 8.5c8.66699 0 16 -3 22 -9s9 -13.333 9 -22s-3 -16 -9 -22s-13.333 -9 -22 -9zM335 643c-8.66699 0 -16 3 -22 9s-9 13.333 -9 22
c0 9.33301 2.83301 16.833 8.5 22.5s13.167 8.5 22.5 8.5s16.833 -2.83301 22.5 -8.5s8.5 -13.167 8.5 -22.5c0 -8.66699 -3 -16 -9 -22s-13.333 -9 -22 -9z" />
    <glyph glyph-name="copyright" unicode="&#xa9;" horiz-adv-x="797" 
d="M411 199c-35.333 0 -66.833 7.49902 -94.5 22.499s-49.667 36.5 -66 64.5s-24.5 60.667 -24.5 98c0 34 7.5 65 22.5 93s36.5 50.5 64.5 67.5s59.667 25.5 95 25.5c38 0 73.667 -8.33301 107 -25l-5 -35c-28.667 16.667 -62.667 25 -102 25
c-42.667 0 -77.167 -13.833 -103.5 -41.5s-39.5 -64.167 -39.5 -109.5s13.333 -81.833 40 -109.5s62 -41.5 106 -41.5c41.333 0 77.333 10.333 108 31l5 -35c-13.333 -9.33301 -30 -16.666 -50 -21.999s-41 -8 -63 -8zM399 37.999c-64 0 -121.831 14.166 -173.498 42.499
s-92.834 68.5 -123.501 120.5s-46 111.667 -46 179c0 63.333 14.167 120.833 42.5 172.5s68.666 92.834 120.999 123.501s112.166 46 179.499 46c64 0 121.833 -14 173.5 -42s92.667 -68 123 -120s45.5 -112 45.5 -180c0 -64 -14 -121.833 -42 -173.5
s-68.167 -92.667 -120.5 -123s-112.166 -45.5 -179.499 -45.5zM399.002 70.998c58 0 110.167 12.667 156.5 38s83 61.5 110 108.5s40.5 101.167 40.5 162.5c0 58 -12.667 110.333 -38 157s-61.333 83.667 -108 111s-100.334 41 -161.001 41
c-58 0 -110.167 -12.667 -156.5 -38s-83.166 -61.5 -110.499 -108.5s-41 -101.167 -41 -162.5c0 -58 12.667 -110.333 38 -157s61.5 -83.667 108.5 -111s100.833 -41 161.5 -41z" />
    <glyph glyph-name="ordfeminine" unicode="&#xaa;" horiz-adv-x="463" 
d="M225 408c-29.333 0 -56.832 7.5 -82.499 22.5s-46.334 36 -62.001 63s-23.5 57.167 -23.5 90.5c0 31.333 7.16699 60.333 21.5 87s34.666 48.167 60.999 64.5s55.833 24.5 88.5 24.5c26.667 0 51.5 -6.5 74.5 -19.5s42.167 -31.167 57.5 -54.5l1 64h32v-332h-32l-1 63
c-15.333 -23.333 -34.666 -41.333 -57.999 -54s-49 -19 -77 -19zM78.001 324h320v-29h-320v29zM228.001 438c38 0 70.333 14 97 42s40 62.667 40 104c0 42 -13 76.833 -39 104.5s-58.667 41.5 -98 41.5c-38 0 -70.167 -14.167 -96.5 -42.5s-39.5 -62.833 -39.5 -103.5
c0 -41.333 13.167 -76 39.5 -104s58.5 -42 96.5 -42z" />
    <glyph glyph-name="guillemotleft" unicode="&#xab;" horiz-adv-x="424" 
d="M35 257l138 204h42l-138 -204l138 -204h-42zM199 257l138 204h42l-138 -204l138 -204h-42z" />
    <glyph glyph-name="logicalnot" unicode="&#xac;" horiz-adv-x="620" 
d="M479 344h-370v34h407v-197h-37v163z" />
    <glyph glyph-name="uni00AD" unicode="&#xad;" horiz-adv-x="439" 
d="M80 301h279v-36h-279v36z" />
    <glyph glyph-name="registered" unicode="&#xae;" horiz-adv-x="508" 
d="M254 398c-37.333 0 -71.833 8.83301 -103.5 26.5s-57.167 42.5 -76.5 74.5s-29 67.667 -29 107c0 37.333 8.83301 71.833 26.5 103.5s42.5 57 74.5 76s68 28.5 108 28.5c37.333 0 71.833 -8.83301 103.5 -26.5s57.167 -42.5 76.5 -74.5s29 -67.667 29 -107
c0 -37.333 -8.83301 -71.833 -26.5 -103.5s-42.5 -57 -74.5 -76s-68 -28.5 -108 -28.5zM254 426c32 0 61.5 7.66699 88.5 23s48.667 36.833 65 64.5s24.5 58.5 24.5 92.5c0 32 -7.5 61.667 -22.5 89s-36.167 49.333 -63.5 66s-58 25 -92 25c-32 0 -61.5 -7.66699 -88.5 -23
s-48.667 -36.833 -65 -64.5s-24.5 -58.5 -24.5 -92.5c0 -32 7.5 -61.667 22.5 -89s36.167 -49.333 63.5 -66s58 -25 92 -25zM186 712l67 0.000976562c23.333 0 41.5 -5.5 54.5 -16.5s19.5 -25.833 19.5 -44.5c0 -13.333 -3.33301 -24.833 -10 -34.5s-16 -16.834 -28 -21.501
l54 -85h-36l-49 80h-43v-80h-29v202zM215 615.001h31.001c18.667 0 31.667 2.66699 39 8s11 14.666 11 27.999c0 12.667 -3.83301 21.834 -11.5 27.501s-19.834 8.5 -36.501 8.5h-33v-72z" />
    <glyph glyph-name="macron" unicode="&#xaf;" horiz-adv-x="500" 
d="M107 692h286v-34h-286v34z" />
    <glyph glyph-name="degree" unicode="&#xb0;" horiz-adv-x="499" 
d="M250 434c-30 0 -57.333 7.16602 -82 21.499s-44.5 34.5 -59.5 60.5s-22.5 55.667 -22.5 89c0 30.667 6.83301 58.834 20.5 84.501s33.167 46.334 58.5 62.001s53.666 23.5 84.999 23.5c30 0 57.333 -7.16699 82 -21.5s44.334 -34.5 59.001 -60.5s22 -55.333 22 -88
c0 -30.667 -6.83301 -58.834 -20.5 -84.501s-33 -46.5 -58 -62.5s-53.167 -24 -84.5 -24zM250 463.999c36.667 0 67.5 13.5029 92.5 40.5029s37.5 60.5 37.5 100.5s-12.5 73.333 -37.5 100s-55.833 40 -92.5 40c-23.333 0 -45 -5.83301 -65 -17.5s-36 -28.334 -48 -50.001
s-18 -45.834 -18 -72.501c0 -40.667 12.5 -74.334 37.5 -101.001s56.167 -40 93.5 -40z" />
    <glyph glyph-name="plusminus" unicode="&#xb1;" horiz-adv-x="620" 
d="M92 35h435v-34h-435v34zM291 371h-199v34h199v197h37v-197h199v-34h-199v-197h-37v197z" />
    <glyph glyph-name="uni00B2" unicode="&#xb2;" 
d="M66 456l-0.000976562 30c28.667 24.667 52 45.5 70 62.5s36 35.167 54 54.5c30.667 31.333 52.5 58.833 65.5 82.5s19.5 47.167 19.5 70.5c0 26 -8.33301 46.833 -25 62.5s-39.334 23.5 -68.001 23.5c-44 0 -81 -16.667 -111 -50l-10 30
c13.333 15.333 31.333 27.833 54 37.5s45.334 14.5 68.001 14.5c37.333 0 67.5 -10.5 90.5 -31.5s34.5 -48.167 34.5 -81.5c0 -28.667 -7 -56.167 -21 -82.5s-38 -57.833 -72 -94.5c-21.333 -23.333 -55.666 -55.333 -102.999 -96h212v-32h-258z" />
    <glyph glyph-name="uni00B3" unicode="&#xb3;" 
d="M172 446c-20 0 -40.1689 2.66699 -60.502 8s-37.166 12.666 -50.499 21.999l4 30c16.667 -10.667 33.334 -18.5 50.001 -23.5s35.334 -7.5 56.001 -7.5c34.667 0 61.5 8.83301 80.5 26.5s28.5 42.5 28.5 74.5c0 28.667 -9.5 50.834 -28.5 66.501s-45.5 23.5 -79.5 23.5
c-16 0 -29.667 -2.33301 -41 -7l-9 21l142 154h-192v30h230v-29l-131 -142c2 0.666992 4 1 6 1h5c38.667 0 70.167 -11 94.5 -33s36.5 -50.333 36.5 -85c0 -40 -12.833 -71.667 -38.5 -95s-59.834 -35 -102.501 -35z" />
    <glyph glyph-name="acute" unicode="&#xb4;" horiz-adv-x="500" 
d="M308 773h44l-140 -183h-40z" />
    <glyph glyph-name="mu" unicode="&#xb5;" horiz-adv-x="598" 
d="M100 480l38 -0.000976562v-285c0 -61.333 12 -106.166 36 -134.499s62 -42.5 114 -42.5c51.333 0 92.833 18.667 124.5 56s47.5 86.333 47.5 147v259h38v-480h-36l-1 93c-16.667 -34.667 -40.167 -61.5 -70.5 -80.5s-64.833 -28.5 -103.5 -28.5
c-70.667 0 -120 25 -148 75v-304h-39v725z" />
    <glyph glyph-name="paragraph" unicode="&#xb6;" horiz-adv-x="584" 
d="M256 -130l0.000976562 495c-64.667 4.66699 -115.167 24.334 -151.5 59.001s-54.5 80.667 -54.5 138c0 61.333 21.167 109.666 63.5 144.999s100.166 53 173.499 53h197v-890h-39v850h-150v-850h-39z" />
    <glyph glyph-name="periodcentered" unicode="&#xb7;" horiz-adv-x="290" 
d="M145 346c-9.33301 0 -17.166 3 -23.499 9s-9.5 14 -9.5 24s3.16699 18 9.5 24s14.166 9 23.499 9s17.166 -3 23.499 -9s9.5 -14 9.5 -24s-3.16699 -18 -9.5 -24s-14.166 -9 -23.499 -9z" />
    <glyph glyph-name="cedilla" unicode="&#xb8;" horiz-adv-x="500" 
d="M244 -255c-30.667 0 -58.667 6.66699 -84 20l7 28c9.33301 -5.33301 21.333 -9.66602 36 -12.999s28.334 -5 41.001 -5c22.667 0 41.167 5.66699 55.5 17s21.5 26.333 21.5 45c0 18 -6.33301 32.167 -19 42.5s-29.334 15.5 -50.001 15.5c-18 0 -32.667 -1.33301 -44 -4
l31 119h28l-21 -86h9c29.333 0 53 -7.83301 71 -23.5s27 -35.834 27 -60.501c0 -28.667 -10 -51.667 -30 -69s-46.333 -26 -79 -26z" />
    <glyph glyph-name="uni00B9" unicode="&#xb9;" 
d="M213 828l-131 -60l-6 30l140 66h30v-408h-33v372z" />
    <glyph glyph-name="ordmasculine" unicode="&#xba;" horiz-adv-x="453" 
d="M226 408c-48.667 0 -89.332 16.833 -121.999 50.5s-49 75.5 -49 125.5c0 31.333 7.16699 60.333 21.5 87s34.666 48.167 60.999 64.5s55.833 24.5 88.5 24.5c32 0 61 -7.33301 87 -22s46.667 -35.5 62 -62.5s23 -57.5 23 -91.5c0 -50 -16.5 -91.833 -49.5 -125.5
s-73.833 -50.5 -122.5 -50.5zM226.002 438c38 0 70.333 14 97 42s40 62.667 40 104c0 42 -13 76.833 -39 104.5s-58.667 41.5 -98 41.5c-38 0 -70.167 -14.167 -96.5 -42.5s-39.5 -62.833 -39.5 -103.5c0 -41.333 13.167 -76 39.5 -104s58.5 -42 96.5 -42zM66.002 324h320
v-29h-320v29z" />
    <glyph glyph-name="guillemotright" unicode="&#xbb;" horiz-adv-x="424" 
d="M183 257l-138 204h42l138 -204l-138 -204h-42zM347 257l-138 204h42l138 -204l-138 -204h-42z" />
    <glyph glyph-name="onequarter" unicode="&#xbc;" horiz-adv-x="931" 
d="M766 744h44l-590 -744h-44zM795 111h-204v30l200 267h35v-269h58v-28h-58v-111h-31v111zM795 139v226l-170 -226h170zM213 708l-131 -60l-6 30l140 66h30v-408h-33v372z" />
    <glyph glyph-name="onehalf" unicode="&#xbd;" horiz-adv-x="931" 
d="M731 744h44l-590 -744h-44zM611 0l-0.000976562 30c28.667 24.667 52 45.5 70 62.5s36 35.167 54 54.5c30.667 31.333 52.5 58.833 65.5 82.5s19.5 47.167 19.5 70.5c0 26 -8.33301 46.833 -25 62.5s-39.334 23.5 -68.001 23.5c-44 0 -81 -16.667 -111 -50l-10 30
c13.333 15.333 31.333 27.833 54 37.5s45.334 14.5 68.001 14.5c37.333 0 67.5 -10.5 90.5 -31.5s34.5 -48.167 34.5 -81.5c0 -28.667 -7 -56.167 -21 -82.5s-38 -57.833 -72 -94.5c-21.333 -23.333 -55.666 -55.333 -102.999 -96h212v-32h-258zM212.999 708l-131 -60l-6 30
l140 66h30v-408h-33v372z" />
    <glyph glyph-name="threequarters" unicode="&#xbe;" horiz-adv-x="931" 
d="M767 744h44l-590 -744h-44zM795 111h-204v30l200 267h35v-269h58v-28h-58v-111h-31v111zM795 139v226l-170 -226h170zM172 326c-20 0 -40.1689 2.66699 -60.502 8s-37.166 12.666 -50.499 21.999l4 30c16.667 -10.667 33.334 -18.5 50.001 -23.5s35.334 -7.5 56.001 -7.5
c34.667 0 61.5 8.83301 80.5 26.5s28.5 42.5 28.5 74.5c0 28.667 -9.5 50.834 -28.5 66.501s-45.5 23.5 -79.5 23.5c-16 0 -29.667 -2.33301 -41 -7l-9 21l142 154h-192v30h230v-29l-131 -142c2 0.666992 4 1 6 1h5c38.667 0 70.167 -11 94.5 -33s36.5 -50.333 36.5 -85
c0 -40 -12.833 -71.667 -38.5 -95s-59.834 -35 -102.501 -35z" />
    <glyph glyph-name="questiondown" unicode="&#xbf;" horiz-adv-x="473" 
d="M251 -305c-36.667 0 -69.499 6.99902 -98.499 20.999s-52 34 -69 60s-25.5 55.667 -25.5 89c0 29.333 4.83301 54.5 14.5 75.5s22.167 39.667 37.5 56s31.5 32.166 48.5 47.499s33.167 31.666 48.5 48.999s27.833 37.833 37.5 61.5s14.5 51.834 14.5 84.501
c0 16.667 -0.666992 34.334 -2 53.001h30c2.66699 -21.333 4 -40.333 4 -57c0 -34.667 -4.66699 -64.5 -14 -89.5s-21.5 -46.667 -36.5 -65s-30.667 -35.166 -47 -50.499l-47 -46c-15 -15.333 -27.167 -32.5 -36.5 -51.5s-14 -41.5 -14 -67.5
c0 -41.333 14.5 -74.333 43.5 -99s67.5 -37 115.5 -37c68.667 0 129 28 181 84l9 -34c-20.667 -26 -48.334 -46.5 -83.001 -61.5s-71.667 -22.5 -111 -22.5zM270.001 502.999c9.33301 0 17.166 -3 23.499 -9s9.5 -14 9.5 -24s-3.16699 -18 -9.5 -24s-14.166 -9 -23.499 -9
s-17.166 3 -23.499 9s-9.5 14 -9.5 24s3.16699 18 9.5 24s14.166 9 23.499 9z" />
    <glyph glyph-name="Agrave" unicode="&#xc0;" horiz-adv-x="738" 
d="M346 760h45l314 -760h-45l-103 252h-380l-102 -252h-42zM543 288l-175 432l-176 -432h351zM224 964h53l155 -129h-47z" />
    <glyph glyph-name="Aacute" unicode="&#xc1;" horiz-adv-x="738" 
d="M346 760h45l314 -760h-45l-103 252h-380l-102 -252h-42zM543 288l-175 432l-176 -432h351zM461 964h53l-161 -129h-47z" />
    <glyph glyph-name="Acircumflex" unicode="&#xc2;" horiz-adv-x="738" 
d="M346 760h45l314 -760h-45l-103 252h-380l-102 -252h-42zM543 288l-175 432l-176 -432h351zM353 977h34l145 -142h-44l-119 115l-118 -115h-44z" />
    <glyph glyph-name="Atilde" unicode="&#xc3;" horiz-adv-x="738" 
d="M346 760h45l314 -760h-45l-103 252h-380l-102 -252h-42zM543 288l-175 432l-176 -432h351zM439 834c-16 0.666992 -30.166 5.16699 -42.499 13.5s-23.666 18 -33.999 29s-20.5 20.667 -30.5 29s-20.667 12.833 -32 13.5c-36.667 0 -55 -28 -55 -84h-31
c0 38 7.16699 66.833 21.5 86.5s35.166 29.5 62.499 29.5c16 -0.666992 30.167 -5.16699 42.5 -13.5s23.666 -18 33.999 -29s20.5 -20.667 30.5 -29s20.667 -12.833 32 -13.5c37.333 0 56 28 56 84h31c0 -36.667 -7.33301 -65.167 -22 -85.5s-35.667 -30.5 -63 -30.5z" />
    <glyph glyph-name="Adieresis" unicode="&#xc4;" horiz-adv-x="738" 
d="M346 760h45l314 -760h-45l-103 252h-380l-102 -252h-42zM543 288l-175 432l-176 -432h351zM278 858c-8.66699 0 -16 3 -22 9s-9 13.333 -9 22c0 9.33301 2.83301 16.833 8.5 22.5s13.167 8.5 22.5 8.5c8.66699 0 16 -3 22 -9s9 -13.333 9 -22s-3 -16 -9 -22
s-13.333 -9 -22 -9zM460 858c-8.66699 0 -16 3 -22 9s-9 13.333 -9 22c0 9.33301 2.83301 16.833 8.5 22.5s13.167 8.5 22.5 8.5s16.833 -2.83301 22.5 -8.5s8.5 -13.167 8.5 -22.5c0 -8.66699 -3 -16 -9 -22s-13.333 -9 -22 -9z" />
    <glyph glyph-name="Aring" unicode="&#xc5;" horiz-adv-x="738" 
d="M346 760h45l314 -760h-45l-103 252h-380l-102 -252h-42zM543 288l-175 432l-176 -432h351zM369 818c-35.333 0 -64.667 11.167 -88 33.5s-35 50.833 -35 85.5s11.5 63.167 34.5 85.5s52.5 33.5 88.5 33.5s65.667 -11.167 89 -33.5s35 -50.833 35 -85.5
s-11.667 -63.167 -35 -85.5s-53 -33.5 -89 -33.5zM368.999 846c27.333 0 49.833 8.5 67.5 25.5s26.5 38.833 26.5 65.5s-8.83301 48.5 -26.5 65.5s-40.167 25.5 -67.5 25.5s-49.666 -8.5 -66.999 -25.5s-26 -38.833 -26 -65.5s8.66699 -48.5 26 -65.5
s39.666 -25.5 66.999 -25.5z" />
    <glyph glyph-name="AE" unicode="&#xc6;" horiz-adv-x="1063" 
d="M552 288v433l-286 -433h286zM534 760h434v-37h-378v-314h338v-35h-338v-337h393v-37h-431v252h-310l-166 -252h-46z" />
    <glyph glyph-name="Ccedilla" unicode="&#xc7;" horiz-adv-x="776" 
d="M467 -11c-74 0 -140.172 16.001 -198.505 48.001s-104.333 77.833 -138 137.5s-50.5 128.5 -50.5 206.5c0 75.333 15.833 142.333 47.5 201s77.334 104.834 137.001 138.501s128.834 50.5 207.501 50.5c80 0 153 -18 219 -54l-10 -37
c-65.333 34.667 -135.666 52 -210.999 52c-67.333 0 -127.166 -14.167 -179.499 -42.5s-93.5 -68.833 -123.5 -121.5s-45 -114.334 -45 -185.001c0 -67.333 14 -127.833 42 -181.5s68.333 -96 121 -127s113.334 -46.5 182.001 -46.5c38 0 77 4.66699 117 14
s75.333 21.666 106 36.999l7 -37c-31.333 -16.667 -67.5 -29.667 -108.5 -39s-81.5 -14 -121.5 -14zM408.995 -254.999c-30.667 0 -58.668 6.66699 -84.001 20l7 28c9.33301 -5.33301 21.333 -9.66602 36 -12.999s28.334 -5 41.001 -5c22.667 0 41 5.66699 55 17
s21 26.333 21 45c0 18 -6.16699 32.167 -18.5 42.5s-28.833 15.5 -49.5 15.5c-18 0 -32.667 -1.33301 -44 -4l31 119h28l-21 -86h9c29.333 0 53 -7.83301 71 -23.5s27 -35.834 27 -60.501c0 -28.667 -10 -51.667 -30 -69s-46.333 -26 -79 -26z" />
    <glyph glyph-name="Egrave" unicode="&#xc8;" horiz-adv-x="648" 
d="M135 760h418v-37h-378v-314h338v-35h-338v-337h393v-37h-433v760zM209 964h53l155 -129h-47z" />
    <glyph glyph-name="Eacute" unicode="&#xc9;" horiz-adv-x="648" 
d="M135 760h418v-37h-378v-314h338v-35h-338v-337h393v-37h-433v760zM446 964h53l-161 -129h-47z" />
    <glyph glyph-name="Ecircumflex" unicode="&#xca;" horiz-adv-x="648" 
d="M135 760h418v-37h-378v-314h338v-35h-338v-337h393v-37h-433v760zM338 977h34l145 -142h-44l-119 115l-118 -115h-44z" />
    <glyph glyph-name="Edieresis" unicode="&#xcb;" horiz-adv-x="648" 
d="M135 760h418v-37h-378v-314h338v-35h-338v-337h393v-37h-433v760zM263 858c-8.66699 0 -16 3 -22 9s-9 13.333 -9 22c0 9.33301 2.83301 16.833 8.5 22.5s13.167 8.5 22.5 8.5c8.66699 0 16 -3 22 -9s9 -13.333 9 -22s-3 -16 -9 -22s-13.333 -9 -22 -9zM445 858
c-8.66699 0 -16 3 -22 9s-9 13.333 -9 22c0 9.33301 2.83301 16.833 8.5 22.5s13.167 8.5 22.5 8.5s16.833 -2.83301 22.5 -8.5s8.5 -13.167 8.5 -22.5c0 -8.66699 -3 -16 -9 -22s-13.333 -9 -22 -9z" />
    <glyph glyph-name="Igrave" unicode="&#xcc;" horiz-adv-x="310" 
d="M135 760h40v-760h-40v760zM10 964h53l155 -129h-47z" />
    <glyph glyph-name="Iacute" unicode="&#xcd;" horiz-adv-x="310" 
d="M135 760h40v-760h-40v760zM247 964h53l-161 -129h-47z" />
    <glyph glyph-name="Icircumflex" unicode="&#xce;" horiz-adv-x="310" 
d="M135 760h40v-760h-40v760zM139 977h34l145 -142h-44l-119 115l-118 -115h-44z" />
    <glyph glyph-name="Idieresis" unicode="&#xcf;" horiz-adv-x="310" 
d="M135 760h40v-760h-40v760zM64 858c-8.66699 0 -16 3 -22 9s-9 13.333 -9 22c0 9.33301 2.83301 16.833 8.5 22.5s13.167 8.5 22.5 8.5c8.66699 0 16 -3 22 -9s9 -13.333 9 -22s-3 -16 -9 -22s-13.333 -9 -22 -9zM246 858c-8.66699 0 -16 3 -22 9s-9 13.333 -9 22
c0 9.33301 2.83301 16.833 8.5 22.5s13.167 8.5 22.5 8.5s16.833 -2.83301 22.5 -8.5s8.5 -13.167 8.5 -22.5c0 -8.66699 -3 -16 -9 -22s-13.333 -9 -22 -9z" />
    <glyph glyph-name="Eth" unicode="&#xd0;" horiz-adv-x="867" 
d="M145 366l-105 -0.000976562v35h105v359h235c131.333 0 232 -32.667 302 -98s105 -159.666 105 -282.999s-34.833 -217.333 -104.5 -282s-171.167 -97 -304.5 -97h-233v366zM185 37.999h195c120 0 210.833 28.667 272.5 86s92.5 142.333 92.5 255s-30.833 198 -92.5 256
s-152.5 87 -272.5 87h-195v-321h195v-35h-195v-328z" />
    <glyph glyph-name="Ntilde" unicode="&#xd1;" horiz-adv-x="890" 
d="M135 760h41l540 -703v703h39v-760h-41l-540 703v-703h-39v760zM512 834c-16 0.666992 -30.166 5.16699 -42.499 13.5s-23.666 18 -33.999 29s-20.5 20.667 -30.5 29s-20.667 12.833 -32 13.5c-36.667 0 -55 -28 -55 -84h-31c0 38 7.16699 66.833 21.5 86.5
s35.166 29.5 62.499 29.5c16 -0.666992 30.167 -5.16699 42.5 -13.5s23.666 -18 33.999 -29s20.5 -20.667 30.5 -29s20.667 -12.833 32 -13.5c37.333 0 56 28 56 84h31c0 -36.667 -7.33301 -65.167 -22 -85.5s-35.667 -30.5 -63 -30.5z" />
    <glyph glyph-name="Ograve" unicode="&#xd2;" horiz-adv-x="922" 
d="M461 23c62 0 118.833 14.833 170.5 44.5s92.834 71.667 123.501 126s46 116.166 46 185.499c0 66 -14.167 126 -42.5 180s-68.5 97.167 -120.5 129.5s-111 48.5 -177 48.5c-62 0 -118.833 -14.833 -170.5 -44.5s-92.834 -71.667 -123.501 -126s-46 -116.166 -46 -185.499
c0 -66 14.167 -126 42.5 -180s68.5 -97.167 120.5 -129.5s111 -48.5 177 -48.5zM461 -16c-70 0 -133.667 16.501 -191 49.501s-103.333 79.667 -138 140s-52 128.833 -52 205.5c0 72.667 15.833 139 47.5 199s76.667 108 135 144s124.833 54 199.5 54
c69.333 0 132.833 -16.5 190.5 -49.5s103.667 -79.833 138 -140.5s51.5 -129.334 51.5 -206.001c0 -72 -15.833 -138 -47.5 -198s-76.667 -108 -135 -144s-124.5 -54 -198.5 -54zM316 964.001h53l155 -129h-47z" />
    <glyph glyph-name="Oacute" unicode="&#xd3;" horiz-adv-x="922" 
d="M461 23c62 0 118.833 14.833 170.5 44.5s92.834 71.667 123.501 126s46 116.166 46 185.499c0 66 -14.167 126 -42.5 180s-68.5 97.167 -120.5 129.5s-111 48.5 -177 48.5c-62 0 -118.833 -14.833 -170.5 -44.5s-92.834 -71.667 -123.501 -126s-46 -116.166 -46 -185.499
c0 -66 14.167 -126 42.5 -180s68.5 -97.167 120.5 -129.5s111 -48.5 177 -48.5zM461 -16c-70 0 -133.667 16.501 -191 49.501s-103.333 79.667 -138 140s-52 128.833 -52 205.5c0 72.667 15.833 139 47.5 199s76.667 108 135 144s124.833 54 199.5 54
c69.333 0 132.833 -16.5 190.5 -49.5s103.667 -79.833 138 -140.5s51.5 -129.334 51.5 -206.001c0 -72 -15.833 -138 -47.5 -198s-76.667 -108 -135 -144s-124.5 -54 -198.5 -54zM553 964.001h53l-161 -129h-47z" />
    <glyph glyph-name="Ocircumflex" unicode="&#xd4;" horiz-adv-x="922" 
d="M461 23c62 0 118.833 14.833 170.5 44.5s92.834 71.667 123.501 126s46 116.166 46 185.499c0 66 -14.167 126 -42.5 180s-68.5 97.167 -120.5 129.5s-111 48.5 -177 48.5c-62 0 -118.833 -14.833 -170.5 -44.5s-92.834 -71.667 -123.501 -126s-46 -116.166 -46 -185.499
c0 -66 14.167 -126 42.5 -180s68.5 -97.167 120.5 -129.5s111 -48.5 177 -48.5zM461 -16c-70 0 -133.667 16.501 -191 49.501s-103.333 79.667 -138 140s-52 128.833 -52 205.5c0 72.667 15.833 139 47.5 199s76.667 108 135 144s124.833 54 199.5 54
c69.333 0 132.833 -16.5 190.5 -49.5s103.667 -79.833 138 -140.5s51.5 -129.334 51.5 -206.001c0 -72 -15.833 -138 -47.5 -198s-76.667 -108 -135 -144s-124.5 -54 -198.5 -54zM445 977.001h34l145 -142h-44l-119 115l-118 -115h-44z" />
    <glyph glyph-name="Otilde" unicode="&#xd5;" horiz-adv-x="922" 
d="M461 23c62 0 118.833 14.833 170.5 44.5s92.834 71.667 123.501 126s46 116.166 46 185.499c0 66 -14.167 126 -42.5 180s-68.5 97.167 -120.5 129.5s-111 48.5 -177 48.5c-62 0 -118.833 -14.833 -170.5 -44.5s-92.834 -71.667 -123.501 -126s-46 -116.166 -46 -185.499
c0 -66 14.167 -126 42.5 -180s68.5 -97.167 120.5 -129.5s111 -48.5 177 -48.5zM461 -16c-70 0 -133.667 16.501 -191 49.501s-103.333 79.667 -138 140s-52 128.833 -52 205.5c0 72.667 15.833 139 47.5 199s76.667 108 135 144s124.833 54 199.5 54
c69.333 0 132.833 -16.5 190.5 -49.5s103.667 -79.833 138 -140.5s51.5 -129.334 51.5 -206.001c0 -72 -15.833 -138 -47.5 -198s-76.667 -108 -135 -144s-124.5 -54 -198.5 -54zM531 834.001c-16 0.666992 -30.166 5.16699 -42.499 13.5s-23.666 18 -33.999 29
s-20.5 20.667 -30.5 29s-20.667 12.833 -32 13.5c-36.667 0 -55 -28 -55 -84h-31c0 38 7.16699 66.833 21.5 86.5s35.166 29.5 62.499 29.5c16 -0.666992 30.167 -5.16699 42.5 -13.5s23.666 -18 33.999 -29s20.5 -20.667 30.5 -29s20.667 -12.833 32 -13.5
c37.333 0 56 28 56 84h31c0 -36.667 -7.33301 -65.167 -22 -85.5s-35.667 -30.5 -63 -30.5z" />
    <glyph glyph-name="Odieresis" unicode="&#xd6;" horiz-adv-x="922" 
d="M461 23c62 0 118.833 14.833 170.5 44.5s92.834 71.667 123.501 126s46 116.166 46 185.499c0 66 -14.167 126 -42.5 180s-68.5 97.167 -120.5 129.5s-111 48.5 -177 48.5c-62 0 -118.833 -14.833 -170.5 -44.5s-92.834 -71.667 -123.501 -126s-46 -116.166 -46 -185.499
c0 -66 14.167 -126 42.5 -180s68.5 -97.167 120.5 -129.5s111 -48.5 177 -48.5zM461 -16c-70 0 -133.667 16.501 -191 49.501s-103.333 79.667 -138 140s-52 128.833 -52 205.5c0 72.667 15.833 139 47.5 199s76.667 108 135 144s124.833 54 199.5 54
c69.333 0 132.833 -16.5 190.5 -49.5s103.667 -79.833 138 -140.5s51.5 -129.334 51.5 -206.001c0 -72 -15.833 -138 -47.5 -198s-76.667 -108 -135 -144s-124.5 -54 -198.5 -54zM370 858.001c-8.66699 0 -16 3 -22 9s-9 13.333 -9 22c0 9.33301 2.83301 16.833 8.5 22.5
s13.167 8.5 22.5 8.5c8.66699 0 16 -3 22 -9s9 -13.333 9 -22s-3 -16 -9 -22s-13.333 -9 -22 -9zM552 858.001c-8.66699 0 -16 3 -22 9s-9 13.333 -9 22c0 9.33301 2.83301 16.833 8.5 22.5s13.167 8.5 22.5 8.5s16.833 -2.83301 22.5 -8.5s8.5 -13.167 8.5 -22.5
c0 -8.66699 -3 -16 -9 -22s-13.333 -9 -22 -9z" />
    <glyph glyph-name="multiply" unicode="&#xd7;" horiz-adv-x="620" 
d="M131 185l154 152l-154 154l23 24l155 -154l156 154l23 -26l-155 -153l155 -153l-23 -24l-155 154l-156 -154z" />
    <glyph glyph-name="Oslash" unicode="&#xd8;" horiz-adv-x="922" 
d="M461 -16c-50 0 -97.5 8.66699 -142.5 26s-84.833 42.666 -119.5 75.999l-90 -91l-26 26l91 92c-30.667 35.333 -54 75.833 -70 121.5s-24 93.834 -24 144.501c0 72.667 15.833 139 47.5 199s76.667 108 135 144s124.833 54 199.5 54c50 0 97.5 -9 142.5 -27
s84.833 -43.667 119.5 -77l89 91l26 -26l-90 -92c30 -36 53 -76.667 69 -122s24 -93 24 -143c0 -72 -15.833 -138 -47.5 -198s-76.667 -108 -135 -144s-124.5 -54 -198.5 -54zM461 23c62 0 118.833 14.835 170.5 44.502s92.834 71.667 123.501 126s46 116.166 46 185.499
c0 45.333 -6.83301 88.166 -20.5 128.499s-33.834 76.5 -60.501 108.5l-493 -501c30.667 -30 66 -52.833 106 -68.5s82.667 -23.5 128 -23.5zM121 381.002c0 -46 7 -89.501 21 -130.501s34 -77.167 60 -108.5l493 502c-31.333 30 -67.166 53 -107.499 69s-82.5 24 -126.5 24
c-62 0 -118.833 -14.833 -170.5 -44.5s-92.834 -71.667 -123.501 -126s-46 -116.166 -46 -185.499z" />
    <glyph glyph-name="Ugrave" unicode="&#xd9;" horiz-adv-x="836" 
d="M418 -16c-97.333 0 -172.168 26.833 -224.501 80.5s-78.5 130.834 -78.5 231.501v464h40v-456c0 -187.333 87.667 -281 263 -281s263 93.667 263 281v456h40v-464c0 -100.667 -26.167 -177.834 -78.5 -231.501s-127.166 -80.5 -224.499 -80.5zM272.998 964h53l155 -129
h-47z" />
    <glyph glyph-name="Uacute" unicode="&#xda;" horiz-adv-x="836" 
d="M418 -16c-97.333 0 -172.168 26.833 -224.501 80.5s-78.5 130.834 -78.5 231.501v464h40v-456c0 -187.333 87.667 -281 263 -281s263 93.667 263 281v456h40v-464c0 -100.667 -26.167 -177.834 -78.5 -231.501s-127.166 -80.5 -224.499 -80.5zM509.998 964h53l-161 -129
h-47z" />
    <glyph glyph-name="Ucircumflex" unicode="&#xdb;" horiz-adv-x="836" 
d="M418 -16c-97.333 0 -172.168 26.833 -224.501 80.5s-78.5 130.834 -78.5 231.501v464h40v-456c0 -187.333 87.667 -281 263 -281s263 93.667 263 281v456h40v-464c0 -100.667 -26.167 -177.834 -78.5 -231.501s-127.166 -80.5 -224.499 -80.5zM401.998 977h34l145 -142
h-44l-119 115l-118 -115h-44z" />
    <glyph glyph-name="Udieresis" unicode="&#xdc;" horiz-adv-x="836" 
d="M418 -16c-97.333 0 -172.168 26.833 -224.501 80.5s-78.5 130.834 -78.5 231.501v464h40v-456c0 -187.333 87.667 -281 263 -281s263 93.667 263 281v456h40v-464c0 -100.667 -26.167 -177.834 -78.5 -231.501s-127.166 -80.5 -224.499 -80.5zM326.998 858
c-8.66699 0 -16 3 -22 9s-9 13.333 -9 22c0 9.33301 2.83301 16.833 8.5 22.5s13.167 8.5 22.5 8.5c8.66699 0 16 -3 22 -9s9 -13.333 9 -22s-3 -16 -9 -22s-13.333 -9 -22 -9zM508.998 858c-8.66699 0 -16 3 -22 9s-9 13.333 -9 22c0 9.33301 2.83301 16.833 8.5 22.5
s13.167 8.5 22.5 8.5s16.833 -2.83301 22.5 -8.5s8.5 -13.167 8.5 -22.5c0 -8.66699 -3 -16 -9 -22s-13.333 -9 -22 -9z" />
    <glyph glyph-name="Yacute" unicode="&#xdd;" horiz-adv-x="704" 
d="M331 343l-291 417h48l265 -382l266 382h45l-293 -417v-343h-40v343zM443 964h53l-161 -129h-47z" />
    <glyph glyph-name="Thorn" unicode="&#xde;" horiz-adv-x="648" 
d="M135 760l40 0.000976562v-148h156c75.333 0 135.333 -19.833 180 -59.5s67 -92.834 67 -159.501c0 -71.333 -23.5 -127 -70.5 -167s-111.833 -60 -194.5 -60h-138v-166h-40v760zM175 204.001h133c74.667 0 131.334 16 170.001 48s58 78.333 58 139
c0 58 -18.333 103 -55 135s-88.334 48 -155.001 48h-151v-370z" />
    <glyph glyph-name="germandbls" unicode="&#xdf;" horiz-adv-x="640" 
d="M352 -16c-52 0 -95 11.0059 -129 33.0059l10 34c15.333 -10 33.166 -17.833 53.499 -23.5s40.833 -8.5 61.5 -8.5c56 0 101 18.5 135 55.5s51 85.833 51 146.5c0 57.333 -18.333 102.833 -55 136.5s-86.334 50.5 -149.001 50.5h-44v35h36c48 0 86.667 15.833 116 47.5
s44 73.5 44 125.5c0 49.333 -15.167 89 -45.5 119s-70.5 45 -120.5 45c-56.667 0 -100.5 -19.333 -131.5 -58s-46.5 -93.334 -46.5 -164.001v-558h-38v572c0 73.333 19.667 132.166 59 176.499s92 66.5 158 66.5c39.333 0 74.333 -8.16699 105 -24.5
s54.834 -39.5 72.501 -69.5s26.5 -65 26.5 -105c0 -42.667 -10.333 -80.834 -31 -114.501s-49 -57.834 -85 -72.501c52.667 -11.333 93.834 -36 123.501 -74s44.5 -85 44.5 -141c0 -42.667 -9.16699 -81.334 -27.5 -116.001s-44.333 -62.334 -78 -83.001
s-72.167 -31 -115.5 -31z" />
    <glyph glyph-name="agrave" unicode="&#xe0;" horiz-adv-x="544" 
d="M237 -16c-51.333 0 -93.667 13.833 -127 41.5s-50 62.834 -50 105.501c0 49.333 17.333 88.166 52 116.499s82.667 42.5 144 42.5c58.667 0 114 -11.667 166 -35v30c0 58 -14.667 102 -44 132s-72.333 45 -129 45c-60 0 -112.333 -18.667 -157 -56l-6 35
c20.667 17.333 46 30.833 76 40.5s61 14.5 93 14.5c63.333 0 113 -18.167 149 -54.5s54 -86.833 54 -151.5v-290h-36v103c-16.667 -38 -41.167 -67.333 -73.5 -88s-69.5 -31 -111.5 -31zM240.999 16c53.333 0 96.833 19.168 130.5 57.501s50.5 88.166 50.5 149.499
c-49.333 23.333 -104 35 -164 35c-50 0 -89.167 -11 -117.5 -33s-42.5 -52.333 -42.5 -91c0 -36 13 -64.667 39 -86s60.667 -32 104 -32zM151.999 773.001h44l136 -183h-40z" />
    <glyph glyph-name="aacute" unicode="&#xe1;" horiz-adv-x="544" 
d="M237 -16c-51.333 0 -93.667 13.833 -127 41.5s-50 62.834 -50 105.501c0 49.333 17.333 88.166 52 116.499s82.667 42.5 144 42.5c58.667 0 114 -11.667 166 -35v30c0 58 -14.667 102 -44 132s-72.333 45 -129 45c-60 0 -112.333 -18.667 -157 -56l-6 35
c20.667 17.333 46 30.833 76 40.5s61 14.5 93 14.5c63.333 0 113 -18.167 149 -54.5s54 -86.833 54 -151.5v-290h-36v103c-16.667 -38 -41.167 -67.333 -73.5 -88s-69.5 -31 -111.5 -31zM240.999 16c53.333 0 96.833 19.168 130.5 57.501s50.5 88.166 50.5 149.499
c-49.333 23.333 -104 35 -164 35c-50 0 -89.167 -11 -117.5 -33s-42.5 -52.333 -42.5 -91c0 -36 13 -64.667 39 -86s60.667 -32 104 -32zM323.999 773.001h44l-140 -183h-40z" />
    <glyph glyph-name="acircumflex" unicode="&#xe2;" horiz-adv-x="544" 
d="M237 -16c-51.333 0 -93.667 13.833 -127 41.5s-50 62.834 -50 105.501c0 49.333 17.333 88.166 52 116.499s82.667 42.5 144 42.5c58.667 0 114 -11.667 166 -35v30c0 58 -14.667 102 -44 132s-72.333 45 -129 45c-60 0 -112.333 -18.667 -157 -56l-6 35
c20.667 17.333 46 30.833 76 40.5s61 14.5 93 14.5c63.333 0 113 -18.167 149 -54.5s54 -86.833 54 -151.5v-290h-36v103c-16.667 -38 -41.167 -67.333 -73.5 -88s-69.5 -31 -111.5 -31zM240.999 16c53.333 0 96.833 19.168 130.5 57.501s50.5 88.166 50.5 149.499
c-49.333 23.333 -104 35 -164 35c-50 0 -89.167 -11 -117.5 -33s-42.5 -52.333 -42.5 -91c0 -36 13 -64.667 39 -86s60.667 -32 104 -32zM241.999 773.001h29l151 -183h-42l-123 151l-122 -151h-40z" />
    <glyph glyph-name="atilde" unicode="&#xe3;" horiz-adv-x="544" 
d="M237 -16c-51.333 0 -93.667 13.833 -127 41.5s-50 62.834 -50 105.501c0 49.333 17.333 88.166 52 116.499s82.667 42.5 144 42.5c58.667 0 114 -11.667 166 -35v30c0 58 -14.667 102 -44 132s-72.333 45 -129 45c-60 0 -112.333 -18.667 -157 -56l-6 35
c20.667 17.333 46 30.833 76 40.5s61 14.5 93 14.5c63.333 0 113 -18.167 149 -54.5s54 -86.833 54 -151.5v-290h-36v103c-16.667 -38 -41.167 -67.333 -73.5 -88s-69.5 -31 -111.5 -31zM240.999 16c53.333 0 96.833 19.168 130.5 57.501s50.5 88.166 50.5 149.499
c-49.333 23.333 -104 35 -164 35c-50 0 -89.167 -11 -117.5 -33s-42.5 -52.333 -42.5 -91c0 -36 13 -64.667 39 -86s60.667 -32 104 -32zM328.999 621.001c-16 0.666992 -30.166 5.16699 -42.499 13.5s-23.666 18 -33.999 29s-20.5 20.667 -30.5 29s-20.667 12.833 -32 13.5
c-36.667 0 -55 -28 -55 -84h-31c0 38 7.16699 66.833 21.5 86.5s35.166 29.5 62.499 29.5c16 -0.666992 30.167 -5.16699 42.5 -13.5s23.666 -18 33.999 -29s20.5 -20.667 30.5 -29s20.667 -12.833 32 -13.5c37.333 0 56 28 56 84h31c0 -36.667 -7.33301 -65.167 -22 -85.5
s-35.667 -30.5 -63 -30.5z" />
    <glyph glyph-name="adieresis" unicode="&#xe4;" horiz-adv-x="544" 
d="M237 -16c-51.333 0 -93.667 13.833 -127 41.5s-50 62.834 -50 105.501c0 49.333 17.333 88.166 52 116.499s82.667 42.5 144 42.5c58.667 0 114 -11.667 166 -35v30c0 58 -14.667 102 -44 132s-72.333 45 -129 45c-60 0 -112.333 -18.667 -157 -56l-6 35
c20.667 17.333 46 30.833 76 40.5s61 14.5 93 14.5c63.333 0 113 -18.167 149 -54.5s54 -86.833 54 -151.5v-290h-36v103c-16.667 -38 -41.167 -67.333 -73.5 -88s-69.5 -31 -111.5 -31zM240.999 16c53.333 0 96.833 19.168 130.5 57.501s50.5 88.166 50.5 149.499
c-49.333 23.333 -104 35 -164 35c-50 0 -89.167 -11 -117.5 -33s-42.5 -52.333 -42.5 -91c0 -36 13 -64.667 39 -86s60.667 -32 104 -32zM173.999 643.001c-8.66699 0 -16 3 -22 9s-9 13.333 -9 22c0 9.33301 2.83301 16.833 8.5 22.5s13.167 8.5 22.5 8.5
c8.66699 0 16 -3 22 -9s9 -13.333 9 -22s-3 -16 -9 -22s-13.333 -9 -22 -9zM343.999 643.001c-8.66699 0 -16 3 -22 9s-9 13.333 -9 22c0 9.33301 2.83301 16.833 8.5 22.5s13.167 8.5 22.5 8.5s16.833 -2.83301 22.5 -8.5s8.5 -13.167 8.5 -22.5c0 -8.66699 -3 -16 -9 -22
s-13.333 -9 -22 -9z" />
    <glyph glyph-name="aring" unicode="&#xe5;" horiz-adv-x="544" 
d="M237 -16c-51.333 0 -93.667 13.833 -127 41.5s-50 62.834 -50 105.501c0 49.333 17.333 88.166 52 116.499s82.667 42.5 144 42.5c58.667 0 114 -11.667 166 -35v30c0 58 -14.667 102 -44 132s-72.333 45 -129 45c-60 0 -112.333 -18.667 -157 -56l-6 35
c20.667 17.333 46 30.833 76 40.5s61 14.5 93 14.5c63.333 0 113 -18.167 149 -54.5s54 -86.833 54 -151.5v-290h-36v103c-16.667 -38 -41.167 -67.333 -73.5 -88s-69.5 -31 -111.5 -31zM240.999 16c53.333 0 96.833 19.168 130.5 57.501s50.5 88.166 50.5 149.499
c-49.333 23.333 -104 35 -164 35c-50 0 -89.167 -11 -117.5 -33s-42.5 -52.333 -42.5 -91c0 -36 13 -64.667 39 -86s60.667 -32 104 -32zM258.999 588.001c-35.333 0 -64.667 11.167 -88 33.5s-35 50.833 -35 85.5s11.5 63.167 34.5 85.5s52.5 33.5 88.5 33.5
s65.667 -11.167 89 -33.5s35 -50.833 35 -85.5s-11.667 -63.167 -35 -85.5s-53 -33.5 -89 -33.5zM258.998 616.001c27.333 0 49.833 8.5 67.5 25.5s26.5 38.833 26.5 65.5s-8.83301 48.5 -26.5 65.5s-40.167 25.5 -67.5 25.5s-49.666 -8.5 -66.999 -25.5
s-26 -38.833 -26 -65.5s8.66699 -48.5 26 -65.5s39.666 -25.5 66.999 -25.5z" />
    <glyph glyph-name="ae" unicode="&#xe6;" horiz-adv-x="907" 
d="M227 -16c-48.667 0 -88.6631 13.832 -119.996 41.499s-47 62.834 -47 105.501c0 49.333 16.5 88.166 49.5 116.499s78.5 42.5 136.5 42.5c58.667 0 114 -11.667 166 -35v30c0 58 -14.667 102 -44 132s-72.333 45 -129 45c-27.333 0 -53.833 -4.5 -79.5 -13.5
s-49.167 -22.167 -70.5 -39.5l-6 35c20 16 44.667 28.667 74 38s58.666 14 87.999 14c52 0 94.5 -13.167 127.5 -39.5s54.167 -63.833 63.5 -112.5c15.333 46.667 41.333 83.667 78 111s78 41 124 41c39.333 0 74.666 -9.33301 105.999 -28s56 -45.167 74 -79.5
s27 -74.166 27 -119.499c0 -10.667 -1 -22 -3 -34h-395c1.33301 -67.333 21.666 -120.333 60.999 -159s92.333 -58 159 -58c57.333 0 111 14 161 42l7 -34c-21.333 -12.667 -47.333 -22.834 -78 -30.501s-61.667 -11.5 -93 -11.5c-56.667 0 -105.834 14.333 -147.501 43
s-69.834 67.334 -84.501 116.001c-12.667 -48 -37.667 -86.5 -75 -115.5s-80.666 -43.5 -129.999 -43.5zM231.004 15.999c32.667 0 62.666 8.16797 89.999 24.501s49.333 39.166 66 68.499s25 62.333 25 99v15c-49.333 23.333 -104 35 -164 35
c-47.333 0 -84.166 -11 -110.499 -33s-39.5 -52.333 -39.5 -91c0 -36 12 -64.667 36 -86s56.333 -32 97 -32zM810.003 266c0 38 -7 71.833 -21 101.5s-34.333 53 -61 70s-57.667 25.5 -93 25.5c-30.667 0 -59.5 -8.16699 -86.5 -24.5s-49.5 -39.5 -67.5 -69.5
s-29 -64.333 -33 -103h362z" />
    <glyph glyph-name="ccedilla" unicode="&#xe7;" horiz-adv-x="524" 
d="M318 -14c-48.667 0 -92.335 10.332 -131.002 30.999s-69.167 50.334 -91.5 89.001s-33.5 83.334 -33.5 134.001c0 46.667 10.333 89.167 31 127.5s50.334 69 89.001 92s82.334 34.5 131.001 34.5c60 0 110.333 -11.667 151 -35l-7 -35c-40 24 -88 36 -144 36
c-40 0 -76 -9 -108 -27s-57.333 -43.667 -76 -77s-28 -72 -28 -116c0 -42.667 8.83301 -80.5 26.5 -113.5s43 -59 76 -78s71.167 -28.5 114.5 -28.5c28 0 55.167 3.66699 81.5 11s49.833 17.666 70.5 30.999l6 -33c-20 -13.333 -44.333 -23.833 -73 -31.5
s-57 -11.5 -85 -11.5zM291.999 -255.001c-30.667 0 -58.667 6.66699 -84 20l7 28c9.33301 -5.33301 21.333 -9.66602 36 -12.999s28.334 -5 41.001 -5c22.667 0 41.167 5.66699 55.5 17s21.5 26.333 21.5 45c0 18 -6.33301 32.167 -19 42.5s-29.334 15.5 -50.001 15.5
c-18 0 -32.667 -1.33301 -44 -4l31 119h28l-21 -86h9c29.333 0 53 -7.83301 71 -23.5s27 -35.834 27 -60.501c0 -28.667 -10 -51.667 -30 -69s-46.333 -26 -79 -26z" />
    <glyph glyph-name="egrave" unicode="&#xe8;" horiz-adv-x="564" 
d="M321 -16c-50 0 -94.498 10.1689 -133.498 30.502s-69.667 49.666 -92 87.999s-33.5 83.166 -33.5 134.499c0 47.333 9.66699 90.5 29 129.5s46.833 70.333 82.5 94s76.167 35.5 121.5 35.5c39.333 0 74.666 -9.33301 105.999 -28s56 -45.167 74 -79.5
s27 -74.166 27 -119.499c0 -10.667 -1 -22 -3 -34h-400c1.33301 -67.333 22.166 -120.333 62.499 -159s94.5 -58 162.5 -58c57.333 0 111 14 161 42l7 -34c-21.333 -12.667 -47.333 -22.834 -78 -30.501s-61.667 -11.5 -93 -11.5zM467.002 266.002c0 38 -7 71.833 -21 101.5
s-34.333 53 -61 70s-57.667 25.5 -93 25.5c-32 0 -61.833 -8.16699 -89.5 -24.5s-50.667 -39.5 -69 -69.5s-29.5 -64.333 -33.5 -103h367zM181.002 773.002h44l136 -183h-40z" />
    <glyph glyph-name="eacute" unicode="&#xe9;" horiz-adv-x="564" 
d="M321 -16c-50 0 -94.498 10.1689 -133.498 30.502s-69.667 49.666 -92 87.999s-33.5 83.166 -33.5 134.499c0 47.333 9.66699 90.5 29 129.5s46.833 70.333 82.5 94s76.167 35.5 121.5 35.5c39.333 0 74.666 -9.33301 105.999 -28s56 -45.167 74 -79.5
s27 -74.166 27 -119.499c0 -10.667 -1 -22 -3 -34h-400c1.33301 -67.333 22.166 -120.333 62.499 -159s94.5 -58 162.5 -58c57.333 0 111 14 161 42l7 -34c-21.333 -12.667 -47.333 -22.834 -78 -30.501s-61.667 -11.5 -93 -11.5zM467.002 266.002c0 38 -7 71.833 -21 101.5
s-34.333 53 -61 70s-57.667 25.5 -93 25.5c-32 0 -61.833 -8.16699 -89.5 -24.5s-50.667 -39.5 -69 -69.5s-29.5 -64.333 -33.5 -103h367zM353.002 773.002h44l-140 -183h-40z" />
    <glyph glyph-name="ecircumflex" unicode="&#xea;" horiz-adv-x="564" 
d="M321 -16c-50 0 -94.498 10.1689 -133.498 30.502s-69.667 49.666 -92 87.999s-33.5 83.166 -33.5 134.499c0 47.333 9.66699 90.5 29 129.5s46.833 70.333 82.5 94s76.167 35.5 121.5 35.5c39.333 0 74.666 -9.33301 105.999 -28s56 -45.167 74 -79.5
s27 -74.166 27 -119.499c0 -10.667 -1 -22 -3 -34h-400c1.33301 -67.333 22.166 -120.333 62.499 -159s94.5 -58 162.5 -58c57.333 0 111 14 161 42l7 -34c-21.333 -12.667 -47.333 -22.834 -78 -30.501s-61.667 -11.5 -93 -11.5zM467.002 266.002c0 38 -7 71.833 -21 101.5
s-34.333 53 -61 70s-57.667 25.5 -93 25.5c-32 0 -61.833 -8.16699 -89.5 -24.5s-50.667 -39.5 -69 -69.5s-29.5 -64.333 -33.5 -103h367zM271.002 773.002h29l151 -183h-42l-123 151l-122 -151h-40z" />
    <glyph glyph-name="edieresis" unicode="&#xeb;" horiz-adv-x="564" 
d="M321 -16c-50 0 -94.498 10.1689 -133.498 30.502s-69.667 49.666 -92 87.999s-33.5 83.166 -33.5 134.499c0 47.333 9.66699 90.5 29 129.5s46.833 70.333 82.5 94s76.167 35.5 121.5 35.5c39.333 0 74.666 -9.33301 105.999 -28s56 -45.167 74 -79.5
s27 -74.166 27 -119.499c0 -10.667 -1 -22 -3 -34h-400c1.33301 -67.333 22.166 -120.333 62.499 -159s94.5 -58 162.5 -58c57.333 0 111 14 161 42l7 -34c-21.333 -12.667 -47.333 -22.834 -78 -30.501s-61.667 -11.5 -93 -11.5zM467.002 266.002c0 38 -7 71.833 -21 101.5
s-34.333 53 -61 70s-57.667 25.5 -93 25.5c-32 0 -61.833 -8.16699 -89.5 -24.5s-50.667 -39.5 -69 -69.5s-29.5 -64.333 -33.5 -103h367zM203.002 643.002c-8.66699 0 -16 3 -22 9s-9 13.333 -9 22c0 9.33301 2.83301 16.833 8.5 22.5s13.167 8.5 22.5 8.5
c8.66699 0 16 -3 22 -9s9 -13.333 9 -22s-3 -16 -9 -22s-13.333 -9 -22 -9zM373.002 643.002c-8.66699 0 -16 3 -22 9s-9 13.333 -9 22c0 9.33301 2.83301 16.833 8.5 22.5s13.167 8.5 22.5 8.5s16.833 -2.83301 22.5 -8.5s8.5 -13.167 8.5 -22.5c0 -8.66699 -3 -16 -9 -22
s-13.333 -9 -22 -9z" />
    <glyph glyph-name="igrave" unicode="&#xec;" horiz-adv-x="238" 
d="M100 480h38v-480h-38v480zM12 773h44l136 -183h-40z" />
    <glyph glyph-name="iacute" unicode="&#xed;" horiz-adv-x="238" 
d="M100 480h38v-480h-38v480zM184 773h44l-140 -183h-40z" />
    <glyph glyph-name="icircumflex" unicode="&#xee;" horiz-adv-x="238" 
d="M100 480h38v-480h-38v480zM102 773h29l151 -183h-42l-123 151l-122 -151h-40z" />
    <glyph glyph-name="idieresis" unicode="&#xef;" horiz-adv-x="238" 
d="M100 480h38v-480h-38v480zM34 643c-8.66699 0 -16 3 -22 9s-9 13.333 -9 22c0 9.33301 2.83301 16.833 8.5 22.5s13.167 8.5 22.5 8.5c8.66699 0 16 -3 22 -9s9 -13.333 9 -22s-3 -16 -9 -22s-13.333 -9 -22 -9zM204 643c-8.66699 0 -16 3 -22 9s-9 13.333 -9 22
c0 9.33301 2.83301 16.833 8.5 22.5s13.167 8.5 22.5 8.5s16.833 -2.83301 22.5 -8.5s8.5 -13.167 8.5 -22.5c0 -8.66699 -3 -16 -9 -22s-13.333 -9 -22 -9z" />
    <glyph glyph-name="eth" unicode="&#xf0;" horiz-adv-x="615" 
d="M310 -16c-45.333 0 -86.833 10.499 -124.5 31.499s-67.667 51.167 -90 90.5s-33.5 84 -33.5 134c0 46.667 10.333 89.334 31 128.001s49.834 69.667 87.501 93s80.167 35 127.5 35c39.333 0 75.666 -8.83301 108.999 -26.5s60.333 -42.5 81 -74.5
c-30 91.333 -81 179.333 -153 264l-144 -80l-16 29l137 77c-42 45.333 -84.667 83.333 -128 114l50 6c38.667 -30 75.667 -64 111 -102l113 63l16 -30l-106 -59c56.667 -66.667 100 -137 130 -211s45 -146.667 45 -218c0 -48 -10.167 -92 -30.5 -132s-49 -72 -86 -96
s-79.167 -36 -126.5 -36zM306 17.999c38.667 0 73.8311 9.16895 105.498 27.502s56.834 44.666 75.501 78.999s28 73.5 28 117.5c0 40.667 -8.66699 77.667 -26 111s-41.666 59.833 -72.999 79.5s-67.333 29.5 -108 29.5c-38 0 -72.667 -9.16699 -104 -27.5
s-56.333 -44.5 -75 -78.5s-28 -72.667 -28 -116c0 -40.667 8.5 -77.834 25.5 -111.501s41.167 -60.5 72.5 -80.5s67 -30 107 -30z" />
    <glyph glyph-name="ntilde" unicode="&#xf1;" horiz-adv-x="597" 
d="M100 480h36.002v-94c16.667 35.333 40.5 62.5 71.5 81.5s67.833 28.5 110.5 28.5c57.333 0 102.166 -18.167 134.499 -54.5s48.5 -86.833 48.5 -151.5v-290h-38v285c0 118 -50.333 177 -151 177c-52.667 0 -94.834 -18.5 -126.501 -55.5s-47.5 -86.167 -47.5 -147.5v-259
h-38v480zM370.002 621c-16 0.666992 -30.166 5.16699 -42.499 13.5s-23.666 18 -33.999 29s-20.5 20.667 -30.5 29s-20.667 12.833 -32 13.5c-36.667 0 -55 -28 -55 -84h-31c0 38 7.16699 66.833 21.5 86.5s35.166 29.5 62.499 29.5
c16 -0.666992 30.167 -5.16699 42.5 -13.5s23.666 -18 33.999 -29s20.5 -20.667 30.5 -29s20.667 -12.833 32 -13.5c37.333 0 56 28 56 84h31c0 -36.667 -7.33301 -65.167 -22 -85.5s-35.667 -30.5 -63 -30.5z" />
    <glyph glyph-name="ograve" unicode="&#xf2;" horiz-adv-x="616" 
d="M308 -16c-45.333 0 -86.5 10.667 -123.5 32s-66.667 51.5 -89 90.5s-33.5 83.5 -33.5 133.5c0 46 10.333 88.333 31 127s49.834 69.834 87.501 93.501s80.167 35.5 127.5 35.5c45.333 0 86.5 -10.667 123.5 -32s66.667 -51.5 89 -90.5s33.5 -83.5 33.5 -133.5
c0 -46 -10.333 -88.333 -31 -127s-49.834 -69.834 -87.501 -93.501s-80.167 -35.5 -127.5 -35.5zM308 18c38 0 72.667 9.16699 104 27.5s56.333 44.5 75 78.5s28 72.667 28 116c0 40.667 -8.5 77.834 -25.5 111.501s-41.333 60.5 -73 80.5s-67.834 30 -108.501 30
c-38 0 -72.667 -9.16699 -104 -27.5s-56.333 -44.5 -75 -78.5s-28 -72.667 -28 -116c0 -40.667 8.5 -77.834 25.5 -111.501s41.333 -60.5 73 -80.5s67.834 -30 108.501 -30zM201 773h44l136 -183h-40z" />
    <glyph glyph-name="oacute" unicode="&#xf3;" horiz-adv-x="616" 
d="M308 -16c-45.333 0 -86.5 10.667 -123.5 32s-66.667 51.5 -89 90.5s-33.5 83.5 -33.5 133.5c0 46 10.333 88.333 31 127s49.834 69.834 87.501 93.501s80.167 35.5 127.5 35.5c45.333 0 86.5 -10.667 123.5 -32s66.667 -51.5 89 -90.5s33.5 -83.5 33.5 -133.5
c0 -46 -10.333 -88.333 -31 -127s-49.834 -69.834 -87.501 -93.501s-80.167 -35.5 -127.5 -35.5zM308 18c38 0 72.667 9.16699 104 27.5s56.333 44.5 75 78.5s28 72.667 28 116c0 40.667 -8.5 77.834 -25.5 111.501s-41.333 60.5 -73 80.5s-67.834 30 -108.501 30
c-38 0 -72.667 -9.16699 -104 -27.5s-56.333 -44.5 -75 -78.5s-28 -72.667 -28 -116c0 -40.667 8.5 -77.834 25.5 -111.501s41.333 -60.5 73 -80.5s67.834 -30 108.501 -30zM373 773h44l-140 -183h-40z" />
    <glyph glyph-name="ocircumflex" unicode="&#xf4;" horiz-adv-x="616" 
d="M308 -16c-45.333 0 -86.5 10.667 -123.5 32s-66.667 51.5 -89 90.5s-33.5 83.5 -33.5 133.5c0 46 10.333 88.333 31 127s49.834 69.834 87.501 93.501s80.167 35.5 127.5 35.5c45.333 0 86.5 -10.667 123.5 -32s66.667 -51.5 89 -90.5s33.5 -83.5 33.5 -133.5
c0 -46 -10.333 -88.333 -31 -127s-49.834 -69.834 -87.501 -93.501s-80.167 -35.5 -127.5 -35.5zM308 18c38 0 72.667 9.16699 104 27.5s56.333 44.5 75 78.5s28 72.667 28 116c0 40.667 -8.5 77.834 -25.5 111.501s-41.333 60.5 -73 80.5s-67.834 30 -108.501 30
c-38 0 -72.667 -9.16699 -104 -27.5s-56.333 -44.5 -75 -78.5s-28 -72.667 -28 -116c0 -40.667 8.5 -77.834 25.5 -111.501s41.333 -60.5 73 -80.5s67.834 -30 108.501 -30zM291 773h29l151 -183h-42l-123 151l-122 -151h-40z" />
    <glyph glyph-name="otilde" unicode="&#xf5;" horiz-adv-x="616" 
d="M308 -16c-45.333 0 -86.5 10.667 -123.5 32s-66.667 51.5 -89 90.5s-33.5 83.5 -33.5 133.5c0 46 10.333 88.333 31 127s49.834 69.834 87.501 93.501s80.167 35.5 127.5 35.5c45.333 0 86.5 -10.667 123.5 -32s66.667 -51.5 89 -90.5s33.5 -83.5 33.5 -133.5
c0 -46 -10.333 -88.333 -31 -127s-49.834 -69.834 -87.501 -93.501s-80.167 -35.5 -127.5 -35.5zM308 18c38 0 72.667 9.16699 104 27.5s56.333 44.5 75 78.5s28 72.667 28 116c0 40.667 -8.5 77.834 -25.5 111.501s-41.333 60.5 -73 80.5s-67.834 30 -108.501 30
c-38 0 -72.667 -9.16699 -104 -27.5s-56.333 -44.5 -75 -78.5s-28 -72.667 -28 -116c0 -40.667 8.5 -77.834 25.5 -111.501s41.333 -60.5 73 -80.5s67.834 -30 108.501 -30zM378 621c-16 0.666992 -30.166 5.16699 -42.499 13.5s-23.666 18 -33.999 29
s-20.5 20.667 -30.5 29s-20.667 12.833 -32 13.5c-36.667 0 -55 -28 -55 -84h-31c0 38 7.16699 66.833 21.5 86.5s35.166 29.5 62.499 29.5c16 -0.666992 30.167 -5.16699 42.5 -13.5s23.666 -18 33.999 -29s20.5 -20.667 30.5 -29s20.667 -12.833 32 -13.5
c37.333 0 56 28 56 84h31c0 -36.667 -7.33301 -65.167 -22 -85.5s-35.667 -30.5 -63 -30.5z" />
    <glyph glyph-name="odieresis" unicode="&#xf6;" horiz-adv-x="616" 
d="M308 -16c-45.333 0 -86.5 10.667 -123.5 32s-66.667 51.5 -89 90.5s-33.5 83.5 -33.5 133.5c0 46 10.333 88.333 31 127s49.834 69.834 87.501 93.501s80.167 35.5 127.5 35.5c45.333 0 86.5 -10.667 123.5 -32s66.667 -51.5 89 -90.5s33.5 -83.5 33.5 -133.5
c0 -46 -10.333 -88.333 -31 -127s-49.834 -69.834 -87.501 -93.501s-80.167 -35.5 -127.5 -35.5zM308 18c38 0 72.667 9.16699 104 27.5s56.333 44.5 75 78.5s28 72.667 28 116c0 40.667 -8.5 77.834 -25.5 111.501s-41.333 60.5 -73 80.5s-67.834 30 -108.501 30
c-38 0 -72.667 -9.16699 -104 -27.5s-56.333 -44.5 -75 -78.5s-28 -72.667 -28 -116c0 -40.667 8.5 -77.834 25.5 -111.501s41.333 -60.5 73 -80.5s67.834 -30 108.501 -30zM223 643c-8.66699 0 -16 3 -22 9s-9 13.333 -9 22c0 9.33301 2.83301 16.833 8.5 22.5
s13.167 8.5 22.5 8.5c8.66699 0 16 -3 22 -9s9 -13.333 9 -22s-3 -16 -9 -22s-13.333 -9 -22 -9zM393 643c-8.66699 0 -16 3 -22 9s-9 13.333 -9 22c0 9.33301 2.83301 16.833 8.5 22.5s13.167 8.5 22.5 8.5s16.833 -2.83301 22.5 -8.5s8.5 -13.167 8.5 -22.5
c0 -8.66699 -3 -16 -9 -22s-13.333 -9 -22 -9z" />
    <glyph glyph-name="divide" unicode="&#xf7;" horiz-adv-x="620" 
d="M93 354h435v-34h-435v34zM310 126c-9.33301 0 -17.5 3.5 -24.5 10.5s-10.5 15.167 -10.5 24.5c0 10.667 3.16699 19.167 9.5 25.5s14.833 9.5 25.5 9.5c10 0 18.333 -3.33301 25 -10s10 -15 10 -25c0 -9.33301 -3.5 -17.5 -10.5 -24.5s-15.167 -10.5 -24.5 -10.5z
M310 471c-9.33301 0 -17.5 3.5 -24.5 10.5s-10.5 15.167 -10.5 24.5c0 10.667 3.16699 19.167 9.5 25.5s14.833 9.5 25.5 9.5c10 0 18.333 -3.33301 25 -10s10 -15 10 -25c0 -9.33301 -3.5 -17.5 -10.5 -24.5s-15.167 -10.5 -24.5 -10.5z" />
    <glyph glyph-name="oslash" unicode="&#xf8;" horiz-adv-x="616" 
d="M308 -16c-33.333 0 -64.667 5.83398 -94 17.501s-55 28.5 -77 50.5l-56 -57l-22 22l57 58c-36 47.333 -54 102.333 -54 165c0 46 10.333 88.333 31 127s49.834 69.834 87.501 93.501s80.167 35.5 127.5 35.5c62.667 0 117 -20.333 163 -61l67 69l22 -22l-68 -69
c20 -23.333 35.333 -49.833 46 -79.5s16 -60.834 16 -93.501c0 -46 -10.333 -88.333 -31 -127s-49.834 -69.834 -87.501 -93.501s-80.167 -35.5 -127.5 -35.5zM444.999 410.001c-38 34.667 -83.667 52 -137 52c-38 0 -72.667 -9.16699 -104 -27.5s-56.333 -44.5 -75 -78.5
s-28 -72.667 -28 -116c0 -53.333 13.667 -99.333 41 -138zM307.999 18.001c38 0 72.666 9.16602 103.999 27.499s56.333 44.5 75 78.5s28 72.667 28 116c0 57.333 -16.333 106.333 -49 147l-304 -309c19.333 -19.333 41.333 -34.166 66 -44.499s51.334 -15.5 80.001 -15.5z
" />
    <glyph glyph-name="ugrave" unicode="&#xf9;" horiz-adv-x="594" 
d="M278 -16c-57.333 0 -101.998 18.167 -133.998 54.5s-48 86.833 -48 151.5v290h38v-285c0 -58 12.667 -102 38 -132s62.666 -45 111.999 -45c51.333 0 92.833 18.667 124.5 56s47.5 86.333 47.5 147v259h38v-480h-36l-1 93c-16.667 -35.333 -40.334 -62.333 -71.001 -81
s-66.667 -28 -108 -28zM188.002 773h44l136 -183h-40z" />
    <glyph glyph-name="uacute" unicode="&#xfa;" horiz-adv-x="594" 
d="M278 -16c-57.333 0 -101.998 18.167 -133.998 54.5s-48 86.833 -48 151.5v290h38v-285c0 -58 12.667 -102 38 -132s62.666 -45 111.999 -45c51.333 0 92.833 18.667 124.5 56s47.5 86.333 47.5 147v259h38v-480h-36l-1 93c-16.667 -35.333 -40.334 -62.333 -71.001 -81
s-66.667 -28 -108 -28zM360.002 773h44l-140 -183h-40z" />
    <glyph glyph-name="ucircumflex" unicode="&#xfb;" horiz-adv-x="594" 
d="M278 -16c-57.333 0 -101.998 18.167 -133.998 54.5s-48 86.833 -48 151.5v290h38v-285c0 -58 12.667 -102 38 -132s62.666 -45 111.999 -45c51.333 0 92.833 18.667 124.5 56s47.5 86.333 47.5 147v259h38v-480h-36l-1 93c-16.667 -35.333 -40.334 -62.333 -71.001 -81
s-66.667 -28 -108 -28zM278.002 773h29l151 -183h-42l-123 151l-122 -151h-40z" />
    <glyph glyph-name="udieresis" unicode="&#xfc;" horiz-adv-x="594" 
d="M278 -16c-57.333 0 -101.998 18.167 -133.998 54.5s-48 86.833 -48 151.5v290h38v-285c0 -58 12.667 -102 38 -132s62.666 -45 111.999 -45c51.333 0 92.833 18.667 124.5 56s47.5 86.333 47.5 147v259h38v-480h-36l-1 93c-16.667 -35.333 -40.334 -62.333 -71.001 -81
s-66.667 -28 -108 -28zM210.002 643c-8.66699 0 -16 3 -22 9s-9 13.333 -9 22c0 9.33301 2.83301 16.833 8.5 22.5s13.167 8.5 22.5 8.5c8.66699 0 16 -3 22 -9s9 -13.333 9 -22s-3 -16 -9 -22s-13.333 -9 -22 -9zM380.002 643c-8.66699 0 -16 3 -22 9s-9 13.333 -9 22
c0 9.33301 2.83301 16.833 8.5 22.5s13.167 8.5 22.5 8.5s16.833 -2.83301 22.5 -8.5s8.5 -13.167 8.5 -22.5c0 -8.66699 -3 -16 -9 -22s-13.333 -9 -22 -9z" />
    <glyph glyph-name="yacute" unicode="&#xfd;" horiz-adv-x="515" 
d="M70 -255c-10 0 -20.502 1.33301 -31.502 4s-19.833 6 -26.5 10l5 37c15.333 -10 32.666 -15 51.999 -15c24.667 0 45.334 5.83301 62.001 17.5s32.834 31 48.501 58s33.834 64.833 54.501 113.5l14 33l-218 477h41l196 -435l177 435h41l-215 -515
c-24.667 -59.333 -47 -104.5 -67 -135.5s-40.333 -52.833 -61 -65.5s-44.667 -19 -72 -19zM325.998 773h44l-140 -183h-40z" />
    <glyph glyph-name="thorn" unicode="&#xfe;" horiz-adv-x="648" 
d="M100 -245l0.00292969 1055h38v-433c22 38 50.5 67.333 85.5 88s73.833 31 116.5 31c45.333 0 86.5 -10.667 123.5 -32s66.667 -51.5 89 -90.5s33.5 -83.5 33.5 -133.5c0 -46 -10.333 -88.333 -31 -127s-49.834 -69.834 -87.501 -93.501s-80.167 -35.5 -127.5 -35.5
c-42.667 0 -81.834 10.333 -117.501 31s-63.834 49.667 -84.501 87v-347h-38zM340.003 18.001c38 0 72.668 9.16699 104.001 27.5s56.333 44.5 75 78.5s28 72.667 28 116c0 40.667 -8.5 77.834 -25.5 111.501s-41.333 60.5 -73 80.5s-67.834 30 -108.501 30
c-38 0 -72.667 -9.16699 -104 -27.5s-56.333 -44.5 -75 -78.5s-28 -72.667 -28 -116c0 -40.667 8.66699 -77.834 26 -111.501s41.833 -60.5 73.5 -80.5s67.5 -30 107.5 -30z" />
    <glyph glyph-name="ydieresis" unicode="&#xff;" horiz-adv-x="515" 
d="M70 -255c-10 0 -20.502 1.33301 -31.502 4s-19.833 6 -26.5 10l5 37c15.333 -10 32.666 -15 51.999 -15c24.667 0 45.334 5.83301 62.001 17.5s32.834 31 48.501 58s33.834 64.833 54.501 113.5l14 33l-218 477h41l196 -435l177 435h41l-215 -515
c-24.667 -59.333 -47 -104.5 -67 -135.5s-40.333 -52.833 -61 -65.5s-44.667 -19 -72 -19zM175.998 643c-8.66699 0 -16 3 -22 9s-9 13.333 -9 22c0 9.33301 2.83301 16.833 8.5 22.5s13.167 8.5 22.5 8.5c8.66699 0 16 -3 22 -9s9 -13.333 9 -22s-3 -16 -9 -22
s-13.333 -9 -22 -9zM345.998 643c-8.66699 0 -16 3 -22 9s-9 13.333 -9 22c0 9.33301 2.83301 16.833 8.5 22.5s13.167 8.5 22.5 8.5s16.833 -2.83301 22.5 -8.5s8.5 -13.167 8.5 -22.5c0 -8.66699 -3 -16 -9 -22s-13.333 -9 -22 -9z" />
    <glyph glyph-name="Amacron" unicode="&#x100;" horiz-adv-x="738" 
d="M346 760h45l314 -760h-45l-103 252h-380l-102 -252h-42zM543 288l-175 432l-176 -432h351zM226 908h286v-34h-286v34z" />
    <glyph glyph-name="amacron" unicode="&#x101;" horiz-adv-x="544" 
d="M237 -16c-51.333 0 -93.667 13.833 -127 41.5s-50 62.834 -50 105.501c0 49.333 17.333 88.166 52 116.499s82.667 42.5 144 42.5c58.667 0 114 -11.667 166 -35v30c0 58 -14.667 102 -44 132s-72.333 45 -129 45c-60 0 -112.333 -18.667 -157 -56l-6 35
c20.667 17.333 46 30.833 76 40.5s61 14.5 93 14.5c63.333 0 113 -18.167 149 -54.5s54 -86.833 54 -151.5v-290h-36v103c-16.667 -38 -41.167 -67.333 -73.5 -88s-69.5 -31 -111.5 -31zM240.999 16c53.333 0 96.833 19.168 130.5 57.501s50.5 88.166 50.5 149.499
c-49.333 23.333 -104 35 -164 35c-50 0 -89.167 -11 -117.5 -33s-42.5 -52.333 -42.5 -91c0 -36 13 -64.667 39 -86s60.667 -32 104 -32zM115.999 692.001h286v-34h-286v34z" />
    <glyph glyph-name="Abreve" unicode="&#x102;" horiz-adv-x="738" 
d="M346 760h45l314 -760h-45l-103 252h-380l-102 -252h-42zM543 288l-175 432l-176 -432h351zM369 825c-41.333 0 -74.833 11.498 -100.5 34.498s-38.5 52.5 -38.5 88.5c0 7.33301 0.333008 12.333 1 15h31c0 -72 35.667 -108 107 -108c36.667 0 63.667 8.83301 81 26.5
s26 44.834 26 81.501h31c0.666992 -2.66699 1 -7.66699 1 -15c0 -37.333 -12.667 -67.166 -38 -89.499s-59 -33.5 -101 -33.5z" />
    <glyph glyph-name="abreve" unicode="&#x103;" horiz-adv-x="544" 
d="M237 -16c-51.333 0 -93.667 13.833 -127 41.5s-50 62.834 -50 105.501c0 49.333 17.333 88.166 52 116.499s82.667 42.5 144 42.5c58.667 0 114 -11.667 166 -35v30c0 58 -14.667 102 -44 132s-72.333 45 -129 45c-60 0 -112.333 -18.667 -157 -56l-6 35
c20.667 17.333 46 30.833 76 40.5s61 14.5 93 14.5c63.333 0 113 -18.167 149 -54.5s54 -86.833 54 -151.5v-290h-36v103c-16.667 -38 -41.167 -67.333 -73.5 -88s-69.5 -31 -111.5 -31zM240.999 16c53.333 0 96.833 19.168 130.5 57.501s50.5 88.166 50.5 149.499
c-49.333 23.333 -104 35 -164 35c-50 0 -89.167 -11 -117.5 -33s-42.5 -52.333 -42.5 -91c0 -36 13 -64.667 39 -86s60.667 -32 104 -32zM258.999 600.001c-42 0 -75.667 12.167 -101 36.5s-38 56.5 -38 96.5c0 7.33301 0.333008 12.333 1 15h30c0 -79.333 36 -119 108 -119
s108 39.667 108 119h30c0.666992 -2.66699 1 -7.66699 1 -15c0 -40 -12.667 -72.167 -38 -96.5s-59 -36.5 -101 -36.5z" />
    <glyph glyph-name="Aogonek" unicode="&#x104;" horiz-adv-x="738" 
d="M346 760h45l314 -760h-45l-103 252h-380l-102 -252h-42zM543 288l-175 432l-176 -432h351zM643 -252c-26.667 0 -48.832 8.5 -66.499 25.5s-26.5 38.5 -26.5 64.5c0 29.333 10.833 58.5 32.5 87.5s55.167 59.167 100.5 90.5l22 -16c-80.667 -54 -121 -106.333 -121 -157
c0 -20.667 5.66699 -36.667 17 -48s27 -17 47 -17c23.333 0 45.333 6.66699 66 20l6 -28c-9.33301 -6.66699 -21.333 -12 -36 -16s-28.334 -6 -41.001 -6z" />
    <glyph glyph-name="aogonek" unicode="&#x105;" horiz-adv-x="544" 
d="M237 -16c-51.333 0 -93.667 13.833 -127 41.5s-50 62.834 -50 105.501c0 49.333 17.333 88.166 52 116.499s82.667 42.5 144 42.5c58.667 0 114 -11.667 166 -35v30c0 58 -14.667 102 -44 132s-72.333 45 -129 45c-60 0 -112.333 -18.667 -157 -56l-6 35
c20.667 17.333 46 30.833 76 40.5s61 14.5 93 14.5c63.333 0 113 -18.167 149 -54.5s54 -86.833 54 -151.5v-290h-36v103c-16.667 -38 -41.167 -67.333 -73.5 -88s-69.5 -31 -111.5 -31zM240.999 16c53.333 0 96.833 19.168 130.5 57.501s50.5 88.166 50.5 149.499
c-49.333 23.333 -104 35 -164 35c-50 0 -89.167 -11 -117.5 -33s-42.5 -52.333 -42.5 -91c0 -36 13 -64.667 39 -86s60.667 -32 104 -32zM395.999 -251.999c-26.667 0 -48.832 8.5 -66.499 25.5s-26.5 38.5 -26.5 64.5c0 28.667 10.833 57.5 32.5 86.5
s55.167 59.167 100.5 90.5l22 -15c-80.667 -54 -121 -106.333 -121 -157c0 -20.667 5.5 -36.667 16.5 -48s26.833 -17 47.5 -17c23.333 0 45.333 6.66699 66 20l6 -28c-9.33301 -6.66699 -21.333 -12 -36 -16s-28.334 -6 -41.001 -6z" />
    <glyph glyph-name="Cacute" unicode="&#x106;" horiz-adv-x="776" 
d="M467 -11c-74 0 -140.172 16.001 -198.505 48.001s-104.333 77.833 -138 137.5s-50.5 128.5 -50.5 206.5c0 75.333 15.833 142.333 47.5 201s77.334 104.834 137.001 138.501s128.834 50.5 207.501 50.5c80 0 153 -18 219 -54l-10 -37
c-65.333 34.667 -135.666 52 -210.999 52c-67.333 0 -127.166 -14.167 -179.499 -42.5s-93.5 -68.833 -123.5 -121.5s-45 -114.334 -45 -185.001c0 -67.333 14 -127.833 42 -181.5s68.333 -96 121 -127s113.334 -46.5 182.001 -46.5c38 0 77 4.66699 117 14
s75.333 21.666 106 36.999l7 -37c-31.333 -16.667 -67.5 -29.667 -108.5 -39s-81.5 -14 -121.5 -14zM546.995 964.001h53l-161 -129h-47z" />
    <glyph glyph-name="cacute" unicode="&#x107;" horiz-adv-x="524" 
d="M318 -14c-48.667 0 -92.335 10.332 -131.002 30.999s-69.167 50.334 -91.5 89.001s-33.5 83.334 -33.5 134.001c0 46.667 10.333 89.167 31 127.5s50.334 69 89.001 92s82.334 34.5 131.001 34.5c60 0 110.333 -11.667 151 -35l-7 -35c-40 24 -88 36 -144 36
c-40 0 -76 -9 -108 -27s-57.333 -43.667 -76 -77s-28 -72 -28 -116c0 -42.667 8.83301 -80.5 26.5 -113.5s43 -59 76 -78s71.167 -28.5 114.5 -28.5c28 0 55.167 3.66699 81.5 11s49.833 17.666 70.5 30.999l6 -33c-20 -13.333 -44.333 -23.833 -73 -31.5
s-57 -11.5 -85 -11.5zM360.999 772.999h44l-140 -183h-40z" />
    <glyph glyph-name="Cdotaccent" unicode="&#x10a;" horiz-adv-x="776" 
d="M467 -11c-74 0 -140.172 16.001 -198.505 48.001s-104.333 77.833 -138 137.5s-50.5 128.5 -50.5 206.5c0 75.333 15.833 142.333 47.5 201s77.334 104.834 137.001 138.501s128.834 50.5 207.501 50.5c80 0 153 -18 219 -54l-10 -37
c-65.333 34.667 -135.666 52 -210.999 52c-67.333 0 -127.166 -14.167 -179.499 -42.5s-93.5 -68.833 -123.5 -121.5s-45 -114.334 -45 -185.001c0 -67.333 14 -127.833 42 -181.5s68.333 -96 121 -127s113.334 -46.5 182.001 -46.5c38 0 77 4.66699 117 14
s75.333 21.666 106 36.999l7 -37c-31.333 -16.667 -67.5 -29.667 -108.5 -39s-81.5 -14 -121.5 -14zM454.995 858.001c-10 0 -17.833 2.83301 -23.5 8.5s-8.5 13.5 -8.5 23.5s2.83301 17.833 8.5 23.5s13.5 8.5 23.5 8.5s17.833 -2.83301 23.5 -8.5s8.5 -13.5 8.5 -23.5
c0 -9.33301 -2.83301 -17 -8.5 -23s-13.5 -9 -23.5 -9z" />
    <glyph glyph-name="cdotaccent" unicode="&#x10b;" horiz-adv-x="524" 
d="M318 -14c-48.667 0 -92.335 10.332 -131.002 30.999s-69.167 50.334 -91.5 89.001s-33.5 83.334 -33.5 134.001c0 46.667 10.333 89.167 31 127.5s50.334 69 89.001 92s82.334 34.5 131.001 34.5c60 0 110.333 -11.667 151 -35l-7 -35c-40 24 -88 36 -144 36
c-40 0 -76 -9 -108 -27s-57.333 -43.667 -76 -77s-28 -72 -28 -116c0 -42.667 8.83301 -80.5 26.5 -113.5s43 -59 76 -78s71.167 -28.5 114.5 -28.5c28 0 55.167 3.66699 81.5 11s49.833 17.666 70.5 30.999l6 -33c-20 -13.333 -44.333 -23.833 -73 -31.5
s-57 -11.5 -85 -11.5zM295.999 641.999c-10 0 -17.833 2.83301 -23.5 8.5s-8.5 13.5 -8.5 23.5s2.83301 17.833 8.5 23.5s13.5 8.5 23.5 8.5s17.833 -2.83301 23.5 -8.5s8.5 -13.5 8.5 -23.5c0 -9.33301 -2.83301 -17 -8.5 -23s-13.5 -9 -23.5 -9z" />
    <glyph glyph-name="Ccaron" unicode="&#x10c;" horiz-adv-x="776" 
d="M467 -11c-74 0 -140.172 16.001 -198.505 48.001s-104.333 77.833 -138 137.5s-50.5 128.5 -50.5 206.5c0 75.333 15.833 142.333 47.5 201s77.334 104.834 137.001 138.501s128.834 50.5 207.501 50.5c80 0 153 -18 219 -54l-10 -37
c-65.333 34.667 -135.666 52 -210.999 52c-67.333 0 -127.166 -14.167 -179.499 -42.5s-93.5 -68.833 -123.5 -121.5s-45 -114.334 -45 -185.001c0 -67.333 14 -127.833 42 -181.5s68.333 -96 121 -127s113.334 -46.5 182.001 -46.5c38 0 77 4.66699 117 14
s75.333 21.666 106 36.999l7 -37c-31.333 -16.667 -67.5 -29.667 -108.5 -39s-81.5 -14 -121.5 -14zM291.995 977.001h44l119 -116l118 116h44l-146 -142h-34z" />
    <glyph glyph-name="ccaron" unicode="&#x10d;" horiz-adv-x="524" 
d="M318 -14c-48.667 0 -92.335 10.332 -131.002 30.999s-69.167 50.334 -91.5 89.001s-33.5 83.334 -33.5 134.001c0 46.667 10.333 89.167 31 127.5s50.334 69 89.001 92s82.334 34.5 131.001 34.5c60 0 110.333 -11.667 151 -35l-7 -35c-40 24 -88 36 -144 36
c-40 0 -76 -9 -108 -27s-57.333 -43.667 -76 -77s-28 -72 -28 -116c0 -42.667 8.83301 -80.5 26.5 -113.5s43 -59 76 -78s71.167 -28.5 114.5 -28.5c28 0 55.167 3.66699 81.5 11s49.833 17.666 70.5 30.999l6 -33c-20 -13.333 -44.333 -23.833 -73 -31.5
s-57 -11.5 -85 -11.5zM131.999 772.999h42l124 -152l121 152h40l-147 -183h-29z" />
    <glyph glyph-name="Dcaron" unicode="&#x10e;" horiz-adv-x="857" 
d="M135 760l235 -0.000976562c131.333 0 232 -32.667 302 -98s105 -159.666 105 -282.999s-34.833 -217.333 -104.5 -282s-171.167 -97 -304.5 -97h-233v760zM175 37.999h195c120 0 210.833 28.667 272.5 86s92.5 142.333 92.5 255s-30.833 198 -92.5 256
s-152.5 87 -272.5 87h-195v-684zM236 976.999h44l119 -116l118 116h44l-146 -142h-34z" />
    <glyph glyph-name="dcaron" unicode="&#x10f;" horiz-adv-x="648" 
d="M308 -16c-45.333 0 -86.499 10.666 -123.499 31.999s-66.667 51.5 -89 90.5s-33.5 83.5 -33.5 133.5c0 46 10.333 88.333 31 127s49.834 69.834 87.501 93.501s80.167 35.5 127.5 35.5c42.667 0 81.667 -10.333 117 -31s63.666 -50 84.999 -88v433h38v-810h-36l-1 104
c-21.333 -38 -49.833 -67.5 -85.5 -88.5s-74.834 -31.5 -117.501 -31.5zM308.001 17.999c38 0 72.666 9.16699 103.999 27.5s56.333 44.5 75 78.5s28 72.667 28 116c0 40.667 -8.66699 77.834 -26 111.501s-41.833 60.5 -73.5 80.5s-67.5 30 -107.5 30
c-38 0 -72.667 -9.16699 -104 -27.5s-56.333 -44.5 -75 -78.5s-28 -72.667 -28 -116c0 -40.667 8.5 -77.834 25.5 -111.501s41.333 -60.5 73 -80.5s67.834 -30 108.501 -30zM632 809.999h33l-21 -230h-26z" />
    <glyph glyph-name="Dcroat" unicode="&#x110;" horiz-adv-x="867" 
d="M145 366l-105 -0.000976562v35h105v359h235c131.333 0 232 -32.667 302 -98s105 -159.666 105 -282.999s-34.833 -217.333 -104.5 -282s-171.167 -97 -304.5 -97h-233v366zM185 37.999h195c120 0 210.833 28.667 272.5 86s92.5 142.333 92.5 255s-30.833 198 -92.5 256
s-152.5 87 -272.5 87h-195v-321h195v-35h-195v-328z" />
    <glyph glyph-name="dcroat" unicode="&#x111;" horiz-adv-x="648" 
d="M308 -16c-45.333 0 -86.499 10.666 -123.499 31.999s-66.667 51.5 -89 90.5s-33.5 83.5 -33.5 133.5c0 46 10.333 88.333 31 127s49.834 69.834 87.501 93.501s80.167 35.5 127.5 35.5c42.667 0 81.667 -10.333 117 -31s63.666 -50 84.999 -88v255h-176v30h176v148h38
v-148h77v-30h-77v-632h-36l-1 104c-21.333 -38 -49.833 -67.5 -85.5 -88.5s-74.834 -31.5 -117.501 -31.5zM308.001 17.999c38 0 72.666 9.16699 103.999 27.5s56.333 44.5 75 78.5s28 72.667 28 116c0 40.667 -8.66699 77.834 -26 111.501s-41.833 60.5 -73.5 80.5
s-67.5 30 -107.5 30c-38 0 -72.667 -9.16699 -104 -27.5s-56.333 -44.5 -75 -78.5s-28 -72.667 -28 -116c0 -40.667 8.5 -77.834 25.5 -111.501s41.333 -60.5 73 -80.5s67.834 -30 108.501 -30z" />
    <glyph glyph-name="Emacron" unicode="&#x112;" horiz-adv-x="648" 
d="M135 760h418v-37h-378v-314h338v-35h-338v-337h393v-37h-433v760zM211 908h286v-34h-286v34z" />
    <glyph glyph-name="emacron" unicode="&#x113;" horiz-adv-x="564" 
d="M321 -16c-50 0 -94.498 10.1689 -133.498 30.502s-69.667 49.666 -92 87.999s-33.5 83.166 -33.5 134.499c0 47.333 9.66699 90.5 29 129.5s46.833 70.333 82.5 94s76.167 35.5 121.5 35.5c39.333 0 74.666 -9.33301 105.999 -28s56 -45.167 74 -79.5
s27 -74.166 27 -119.499c0 -10.667 -1 -22 -3 -34h-400c1.33301 -67.333 22.166 -120.333 62.499 -159s94.5 -58 162.5 -58c57.333 0 111 14 161 42l7 -34c-21.333 -12.667 -47.333 -22.834 -78 -30.501s-61.667 -11.5 -93 -11.5zM467.002 266.002c0 38 -7 71.833 -21 101.5
s-34.333 53 -61 70s-57.667 25.5 -93 25.5c-32 0 -61.833 -8.16699 -89.5 -24.5s-50.667 -39.5 -69 -69.5s-29.5 -64.333 -33.5 -103h367zM145.002 692.002h286v-34h-286v34z" />
    <glyph glyph-name="Edotaccent" unicode="&#x116;" horiz-adv-x="648" 
d="M135 760h418v-37h-378v-314h338v-35h-338v-337h393v-37h-433v760zM354 858c-10 0 -17.833 2.83301 -23.5 8.5s-8.5 13.5 -8.5 23.5s2.83301 17.833 8.5 23.5s13.5 8.5 23.5 8.5s17.833 -2.83301 23.5 -8.5s8.5 -13.5 8.5 -23.5c0 -9.33301 -2.83301 -17 -8.5 -23
s-13.5 -9 -23.5 -9z" />
    <glyph glyph-name="edotaccent" unicode="&#x117;" horiz-adv-x="564" 
d="M321 -16c-50 0 -94.498 10.1689 -133.498 30.502s-69.667 49.666 -92 87.999s-33.5 83.166 -33.5 134.499c0 47.333 9.66699 90.5 29 129.5s46.833 70.333 82.5 94s76.167 35.5 121.5 35.5c39.333 0 74.666 -9.33301 105.999 -28s56 -45.167 74 -79.5
s27 -74.166 27 -119.499c0 -10.667 -1 -22 -3 -34h-400c1.33301 -67.333 22.166 -120.333 62.499 -159s94.5 -58 162.5 -58c57.333 0 111 14 161 42l7 -34c-21.333 -12.667 -47.333 -22.834 -78 -30.501s-61.667 -11.5 -93 -11.5zM467.002 266.002c0 38 -7 71.833 -21 101.5
s-34.333 53 -61 70s-57.667 25.5 -93 25.5c-32 0 -61.833 -8.16699 -89.5 -24.5s-50.667 -39.5 -69 -69.5s-29.5 -64.333 -33.5 -103h367zM288.002 642.002c-10 0 -17.833 2.83301 -23.5 8.5s-8.5 13.5 -8.5 23.5s2.83301 17.833 8.5 23.5s13.5 8.5 23.5 8.5
s17.833 -2.83301 23.5 -8.5s8.5 -13.5 8.5 -23.5c0 -9.33301 -2.83301 -17 -8.5 -23s-13.5 -9 -23.5 -9z" />
    <glyph glyph-name="Eogonek" unicode="&#x118;" horiz-adv-x="648" 
d="M135 760h418v-37h-378v-314h338v-35h-338v-337h393v-37h-433v760zM506 -252c-26.667 0 -48.832 8.5 -66.499 25.5s-26.5 38.5 -26.5 64.5c0 29.333 10.833 58.5 32.5 87.5s55.167 59.167 100.5 90.5l22 -16c-80.667 -54 -121 -106.333 -121 -157
c0 -20.667 5.66699 -36.667 17 -48s27 -17 47 -17c23.333 0 45.333 6.66699 66 20l6 -28c-9.33301 -6.66699 -21.333 -12 -36 -16s-28.334 -6 -41.001 -6z" />
    <glyph glyph-name="eogonek" unicode="&#x119;" horiz-adv-x="564" 
d="M321 -16c-50 0 -94.498 10.1689 -133.498 30.502s-69.667 49.666 -92 87.999s-33.5 83.166 -33.5 134.499c0 47.333 9.66699 90.5 29 129.5s46.833 70.333 82.5 94s76.167 35.5 121.5 35.5c39.333 0 74.666 -9.33301 105.999 -28s56 -45.167 74 -79.5
s27 -74.166 27 -119.499c0 -10.667 -1 -22 -3 -34h-400c1.33301 -67.333 22.166 -120.333 62.499 -159s94.5 -58 162.5 -58c57.333 0 111 14 161 42l7 -34c-21.333 -12.667 -47.333 -22.834 -78 -30.501s-61.667 -11.5 -93 -11.5zM467.002 266.002c0 38 -7 71.833 -21 101.5
s-34.333 53 -61 70s-57.667 25.5 -93 25.5c-32 0 -61.833 -8.16699 -89.5 -24.5s-50.667 -39.5 -69 -69.5s-29.5 -64.333 -33.5 -103h367zM389.002 -251.998c-26.667 0 -48.832 8.49902 -66.499 25.499s-26.5 38.5 -26.5 64.5c0 30.667 12.833 62.167 38.5 94.5
s60.5 60.833 104.5 85.5l36 -1c-49.333 -31.333 -85.833 -61.166 -109.5 -89.499s-35.5 -56.5 -35.5 -84.5c0 -20.667 5.66699 -36.667 17 -48s27 -17 47 -17c23.333 0 45.333 6.66699 66 20l6 -28c-9.33301 -6.66699 -21.333 -12 -36 -16s-28.334 -6 -41.001 -6z" />
    <glyph glyph-name="Ecaron" unicode="&#x11a;" horiz-adv-x="648" 
d="M135 760h418v-37h-378v-314h338v-35h-338v-337h393v-37h-433v760zM191 977h44l119 -116l118 116h44l-146 -142h-34z" />
    <glyph glyph-name="ecaron" unicode="&#x11b;" horiz-adv-x="564" 
d="M321 -16c-50 0 -94.498 10.1689 -133.498 30.502s-69.667 49.666 -92 87.999s-33.5 83.166 -33.5 134.499c0 47.333 9.66699 90.5 29 129.5s46.833 70.333 82.5 94s76.167 35.5 121.5 35.5c39.333 0 74.666 -9.33301 105.999 -28s56 -45.167 74 -79.5
s27 -74.166 27 -119.499c0 -10.667 -1 -22 -3 -34h-400c1.33301 -67.333 22.166 -120.333 62.499 -159s94.5 -58 162.5 -58c57.333 0 111 14 161 42l7 -34c-21.333 -12.667 -47.333 -22.834 -78 -30.501s-61.667 -11.5 -93 -11.5zM467.002 266.002c0 38 -7 71.833 -21 101.5
s-34.333 53 -61 70s-57.667 25.5 -93 25.5c-32 0 -61.833 -8.16699 -89.5 -24.5s-50.667 -39.5 -69 -69.5s-29.5 -64.333 -33.5 -103h367zM124.002 773.002h42l124 -152l121 152h40l-147 -183h-29z" />
    <glyph glyph-name="Gbreve" unicode="&#x11e;" horiz-adv-x="839" 
d="M475 -11c-76 0 -143.835 15.665 -203.502 46.998s-106.5 76.333 -140.5 135s-51 127 -51 205c0 74.667 16.167 141.834 48.5 201.501s78.833 106.834 139.5 141.501s130.667 52 210 52c41.333 0 84.333 -5 129 -15s82 -23 112 -39l-10 -38
c-30.667 16 -67.167 28.833 -109.5 38.5s-83.5 14.5 -123.5 14.5c-66 0 -125.667 -14.5 -179 -43.5s-95.833 -70.333 -127.5 -124s-47.5 -115.167 -47.5 -184.5s14.333 -130.5 43 -183.5s69.834 -94.333 123.501 -124s116.834 -44.5 189.501 -44.5c38 0 76 4 114 12
s72 19.333 102 34v268h-206v38h246v-330c-33.333 -19.333 -72.833 -34.333 -118.5 -45s-92.5 -16 -140.5 -16zM463.998 824.998c-41.333 0 -74.833 11.498 -100.5 34.498s-38.5 52.5 -38.5 88.5c0 7.33301 0.333008 12.333 1 15h31c0 -72 35.667 -108 107 -108
c36.667 0 63.667 8.83301 81 26.5s26 44.834 26 81.501h31c0.666992 -2.66699 1 -7.66699 1 -15c0 -37.333 -12.667 -67.166 -38 -89.499s-59 -33.5 -101 -33.5z" />
    <glyph glyph-name="gbreve" unicode="&#x11f;" horiz-adv-x="571" 
d="M287 -255c-72.667 0 -129.332 12.6689 -169.999 38.002s-61 60.666 -61 105.999c0 32 8.5 59.333 25.5 82s41.5 39.334 73.5 50.001c-21.333 3.33301 -38.833 12.333 -52.5 27s-20.5 32 -20.5 52c0 19.333 6.16699 37.166 18.5 53.499s29.5 30.166 51.5 41.499
c-22 15.333 -39 34.333 -51 57s-18 47.667 -18 75c0 50.667 18.167 91.5 54.5 122.5s84.166 46.5 143.499 46.5c15.333 0 32.166 -2 50.499 -6s35.166 -9.33301 50.499 -16l154 7v-33l-117 1c40 -30 60 -70.667 60 -122c0 -50.667 -18.167 -91.334 -54.5 -122.001
s-84.166 -46 -143.499 -46c-39.333 0 -73.666 7 -102.999 21c-40 -22 -60 -46.667 -60 -74c0 -21.333 8.83301 -36.666 26.5 -45.999s46.5 -14 86.5 -14h65c143.333 0 215 -48.667 215 -146c0 -48.667 -19.833 -86.667 -59.5 -114s-94.5 -41 -164.5 -41zM290.002 -221.998
c58 0 103.167 10.666 135.5 31.999s48.5 51 48.5 89c0 40 -14.333 69 -43 87s-74.667 27 -138 27h-26c-56 0 -99 -10.5 -129 -31.5s-45 -50.833 -45 -89.5c0 -37.333 16.667 -65.666 50 -84.999s82.333 -29 147 -29zM281.002 190.001c48.667 0 87.667 12.5 117 37.5
s44 58.167 44 99.5s-14.833 74.666 -44.5 99.999s-68.5 38 -116.5 38c-49.333 0 -88.5 -12.667 -117.5 -38s-43.5 -58.666 -43.5 -99.999c0 -40.667 14.833 -73.667 44.5 -99s68.5 -38 116.5 -38zM291.002 600.001c-42 0 -75.667 12.167 -101 36.5s-38 56.5 -38 96.5
c0 7.33301 0.333008 12.333 1 15h30c0 -79.333 36 -119 108 -119s108 39.667 108 119h30c0.666992 -2.66699 1 -7.66699 1 -15c0 -40 -12.667 -72.167 -38 -96.5s-59 -36.5 -101 -36.5z" />
    <glyph glyph-name="Gdotaccent" unicode="&#x120;" horiz-adv-x="839" 
d="M475 -11c-76 0 -143.835 15.665 -203.502 46.998s-106.5 76.333 -140.5 135s-51 127 -51 205c0 74.667 16.167 141.834 48.5 201.501s78.833 106.834 139.5 141.501s130.667 52 210 52c41.333 0 84.333 -5 129 -15s82 -23 112 -39l-10 -38
c-30.667 16 -67.167 28.833 -109.5 38.5s-83.5 14.5 -123.5 14.5c-66 0 -125.667 -14.5 -179 -43.5s-95.833 -70.333 -127.5 -124s-47.5 -115.167 -47.5 -184.5s14.333 -130.5 43 -183.5s69.834 -94.333 123.501 -124s116.834 -44.5 189.501 -44.5c38 0 76 4 114 12
s72 19.333 102 34v268h-206v38h246v-330c-33.333 -19.333 -72.833 -34.333 -118.5 -45s-92.5 -16 -140.5 -16zM463.998 857.998c-10 0 -17.833 2.83301 -23.5 8.5s-8.5 13.5 -8.5 23.5s2.83301 17.833 8.5 23.5s13.5 8.5 23.5 8.5s17.833 -2.83301 23.5 -8.5
s8.5 -13.5 8.5 -23.5c0 -9.33301 -2.83301 -17 -8.5 -23s-13.5 -9 -23.5 -9z" />
    <glyph glyph-name="gdotaccent" unicode="&#x121;" horiz-adv-x="571" 
d="M287 -255c-72.667 0 -129.332 12.6689 -169.999 38.002s-61 60.666 -61 105.999c0 32 8.5 59.333 25.5 82s41.5 39.334 73.5 50.001c-21.333 3.33301 -38.833 12.333 -52.5 27s-20.5 32 -20.5 52c0 19.333 6.16699 37.166 18.5 53.499s29.5 30.166 51.5 41.499
c-22 15.333 -39 34.333 -51 57s-18 47.667 -18 75c0 50.667 18.167 91.5 54.5 122.5s84.166 46.5 143.499 46.5c15.333 0 32.166 -2 50.499 -6s35.166 -9.33301 50.499 -16l154 7v-33l-117 1c40 -30 60 -70.667 60 -122c0 -50.667 -18.167 -91.334 -54.5 -122.001
s-84.166 -46 -143.499 -46c-39.333 0 -73.666 7 -102.999 21c-40 -22 -60 -46.667 -60 -74c0 -21.333 8.83301 -36.666 26.5 -45.999s46.5 -14 86.5 -14h65c143.333 0 215 -48.667 215 -146c0 -48.667 -19.833 -86.667 -59.5 -114s-94.5 -41 -164.5 -41zM290.002 -221.998
c58 0 103.167 10.666 135.5 31.999s48.5 51 48.5 89c0 40 -14.333 69 -43 87s-74.667 27 -138 27h-26c-56 0 -99 -10.5 -129 -31.5s-45 -50.833 -45 -89.5c0 -37.333 16.667 -65.666 50 -84.999s82.333 -29 147 -29zM281.002 190.001c48.667 0 87.667 12.5 117 37.5
s44 58.167 44 99.5s-14.833 74.666 -44.5 99.999s-68.5 38 -116.5 38c-49.333 0 -88.5 -12.667 -117.5 -38s-43.5 -58.666 -43.5 -99.999c0 -40.667 14.833 -73.667 44.5 -99s68.5 -38 116.5 -38zM291.002 642.001c-10 0 -17.833 2.83301 -23.5 8.5s-8.5 13.5 -8.5 23.5
s2.83301 17.833 8.5 23.5s13.5 8.5 23.5 8.5s17.833 -2.83301 23.5 -8.5s8.5 -13.5 8.5 -23.5c0 -9.33301 -2.83301 -17 -8.5 -23s-13.5 -9 -23.5 -9z" />
    <glyph glyph-name="uni0122" unicode="&#x122;" horiz-adv-x="839" 
d="M475 -11c-76 0 -143.835 15.665 -203.502 46.998s-106.5 76.333 -140.5 135s-51 127 -51 205c0 74.667 16.167 141.834 48.5 201.501s78.833 106.834 139.5 141.501s130.667 52 210 52c41.333 0 84.333 -5 129 -15s82 -23 112 -39l-10 -38
c-30.667 16 -67.167 28.833 -109.5 38.5s-83.5 14.5 -123.5 14.5c-66 0 -125.667 -14.5 -179 -43.5s-95.833 -70.333 -127.5 -124s-47.5 -115.167 -47.5 -184.5s14.333 -130.5 43 -183.5s69.834 -94.333 123.501 -124s116.834 -44.5 189.501 -44.5c38 0 76 4 114 12
s72 19.333 102 34v268h-206v38h246v-330c-33.333 -19.333 -72.833 -34.333 -118.5 -45s-92.5 -16 -140.5 -16zM380.998 -245.002c28.667 56 44.998 115.999 48.998 179.999h34c-3.33301 -33.333 -9.66602 -66.166 -18.999 -98.499s-20.666 -59.5 -33.999 -81.5h-30z" />
    <glyph glyph-name="uni0123" unicode="&#x123;" horiz-adv-x="571" 
d="M287 -255c-72.667 0 -129.332 12.6689 -169.999 38.002s-61 60.666 -61 105.999c0 32 8.5 59.333 25.5 82s41.5 39.334 73.5 50.001c-21.333 3.33301 -38.833 12.333 -52.5 27s-20.5 32 -20.5 52c0 19.333 6.16699 37.166 18.5 53.499s29.5 30.166 51.5 41.499
c-22 15.333 -39 34.333 -51 57s-18 47.667 -18 75c0 50.667 18.167 91.5 54.5 122.5s84.166 46.5 143.499 46.5c15.333 0 32.166 -2 50.499 -6s35.166 -9.33301 50.499 -16l154 7v-33l-117 1c40 -30 60 -70.667 60 -122c0 -50.667 -18.167 -91.334 -54.5 -122.001
s-84.166 -46 -143.499 -46c-39.333 0 -73.666 7 -102.999 21c-40 -22 -60 -46.667 -60 -74c0 -21.333 8.83301 -36.666 26.5 -45.999s46.5 -14 86.5 -14h65c143.333 0 215 -48.667 215 -146c0 -48.667 -19.833 -86.667 -59.5 -114s-94.5 -41 -164.5 -41zM290.002 -221.998
c58 0 103.167 10.666 135.5 31.999s48.5 51 48.5 89c0 40 -14.333 69 -43 87s-74.667 27 -138 27h-26c-56 0 -99 -10.5 -129 -31.5s-45 -50.833 -45 -89.5c0 -37.333 16.667 -65.666 50 -84.999s82.333 -29 147 -29zM281.002 190.001c48.667 0 87.667 12.5 117 37.5
s44 58.167 44 99.5s-14.833 74.666 -44.5 99.999s-68.5 38 -116.5 38c-49.333 0 -88.5 -12.667 -117.5 -38s-43.5 -58.666 -43.5 -99.999c0 -40.667 14.833 -73.667 44.5 -99s68.5 -38 116.5 -38zM270.002 610.001c2 29.333 7.49902 58.667 16.499 88s20.167 54.333 33.5 75
h30c-27.333 -48 -42.666 -102.333 -45.999 -163h-34z" />
    <glyph glyph-name="Hbar" unicode="&#x126;" horiz-adv-x="889" 
d="M145 577h-105v35h105v148h40v-148h519v148h40v-148h105v-35h-105v-577h-40v380h-519v-380h-40v577zM704 418v159h-519v-159h519z" />
    <glyph glyph-name="hbar" unicode="&#x127;" horiz-adv-x="597" 
d="M100 632h-89.998v30h90v148h38v-148h159v-30h-159v-243c17.333 35.333 41.333 62 72 80s66.667 27 108 27c57.333 0 102.166 -18.167 134.499 -54.5s48.5 -86.833 48.5 -151.5v-290h-38v285c0 118 -50.333 177 -151 177c-52.667 0 -94.834 -18.5 -126.501 -55.5
s-47.5 -86.167 -47.5 -147.5v-259h-38v632z" />
    <glyph glyph-name="Itilde" unicode="&#x128;" horiz-adv-x="310" 
d="M135 760h40v-760h-40v760zM225 834c-16 0.666992 -30.166 5.16699 -42.499 13.5s-23.666 18 -33.999 29s-20.5 20.667 -30.5 29s-20.667 12.833 -32 13.5c-36.667 0 -55 -28 -55 -84h-31c0 38 7.16699 66.833 21.5 86.5s35.166 29.5 62.499 29.5
c16 -0.666992 30.167 -5.16699 42.5 -13.5s23.666 -18 33.999 -29s20.5 -20.667 30.5 -29s20.667 -12.833 32 -13.5c37.333 0 56 28 56 84h31c0 -36.667 -7.33301 -65.167 -22 -85.5s-35.667 -30.5 -63 -30.5z" />
    <glyph glyph-name="itilde" unicode="&#x129;" horiz-adv-x="238" 
d="M100 480h38v-480h-38v480zM189 621c-16 0.666992 -30.166 5.16699 -42.499 13.5s-23.666 18 -33.999 29s-20.5 20.667 -30.5 29s-20.667 12.833 -32 13.5c-36.667 0 -55 -28 -55 -84h-31c0 38 7.16699 66.833 21.5 86.5s35.166 29.5 62.499 29.5
c16 -0.666992 30.167 -5.16699 42.5 -13.5s23.666 -18 33.999 -29s20.5 -20.667 30.5 -29s20.667 -12.833 32 -13.5c37.333 0 56 28 56 84h31c0 -36.667 -7.33301 -65.167 -22 -85.5s-35.667 -30.5 -63 -30.5z" />
    <glyph glyph-name="Imacron" unicode="&#x12a;" horiz-adv-x="310" 
d="M135 760h40v-760h-40v760zM12 908h286v-34h-286v34z" />
    <glyph glyph-name="imacron" unicode="&#x12b;" horiz-adv-x="238" 
d="M100 480h38v-480h-38v480zM-24 692h286v-34h-286v34z" />
    <glyph glyph-name="Iogonek" unicode="&#x12e;" horiz-adv-x="310" 
d="M135 760h40v-760h-40v760zM113 -252c-26.667 0 -48.832 8.5 -66.499 25.5s-26.5 38.5 -26.5 64.5c0 29.333 10.833 58.5 32.5 87.5s55.167 59.167 100.5 90.5l22 -16c-80.667 -54 -121 -106.333 -121 -157c0 -20.667 5.66699 -36.667 17 -48s27 -17 47 -17
c23.333 0 45.333 6.66699 66 20l6 -28c-9.33301 -6.66699 -21.333 -12 -36 -16s-28.334 -6 -41.001 -6z" />
    <glyph glyph-name="iogonek" unicode="&#x12f;" horiz-adv-x="238" 
d="M100 480h38v-480h-38v480zM119 642c-10 0 -17.833 2.83301 -23.5 8.5s-8.5 13.5 -8.5 23.5s2.83301 17.833 8.5 23.5s13.5 8.5 23.5 8.5s17.833 -2.83301 23.5 -8.5s8.5 -13.5 8.5 -23.5s-2.83301 -17.833 -8.5 -23.5s-13.5 -8.5 -23.5 -8.5zM76 -252
c-26.667 0 -48.832 8.5 -66.499 25.5s-26.5 38.5 -26.5 64.5c0 28.667 10.833 57.5 32.5 86.5s55.167 59.167 100.5 90.5l22 -15c-80.667 -54 -121 -106.333 -121 -157c0 -20.667 5.5 -36.667 16.5 -48s26.833 -17 47.5 -17c23.333 0 45.333 6.66699 66 20l6 -28
c-9.33301 -6.66699 -21.333 -12 -36 -16s-28.334 -6 -41.001 -6z" />
    <glyph glyph-name="Idotaccent" unicode="&#x130;" horiz-adv-x="310" 
d="M135 760h40v-760h-40v760zM155 858c-10 0 -17.833 2.83301 -23.5 8.5s-8.5 13.5 -8.5 23.5s2.83301 17.833 8.5 23.5s13.5 8.5 23.5 8.5s17.833 -2.83301 23.5 -8.5s8.5 -13.5 8.5 -23.5c0 -9.33301 -2.83301 -17 -8.5 -23s-13.5 -9 -23.5 -9z" />
    <glyph glyph-name="dotlessi" unicode="&#x131;" horiz-adv-x="238" 
d="M100 480h38v-480h-38v480z" />
    <glyph glyph-name="IJ" unicode="&#x132;" horiz-adv-x="854" 
d="M135 760h40v-760h-40v760zM521 -12c-54 0 -104.999 12.667 -152.999 38l7 39c42.667 -26 90.667 -39 144 -39c57.333 0 99.833 14.5 127.5 43.5s41.5 73.167 41.5 132.5v558h40v-552c0 -72.667 -17.333 -127.5 -52 -164.5s-86.334 -55.5 -155.001 -55.5z" />
    <glyph glyph-name="ij" unicode="&#x133;" horiz-adv-x="476" 
d="M100 480h38v-480h-38v480zM119 642c-10 0 -17.833 2.83301 -23.5 8.5s-8.5 13.5 -8.5 23.5s2.83301 17.833 8.5 23.5s13.5 8.5 23.5 8.5s17.833 -2.83301 23.5 -8.5s8.5 -13.5 8.5 -23.5s-2.83301 -17.833 -8.5 -23.5s-13.5 -8.5 -23.5 -8.5zM234 -255
c-33.333 0 -65.333 7.66699 -96 23l4 33c28.667 -14.667 60.667 -22 96 -22s60.833 10 76.5 30s23.5 53 23.5 99v572h38v-572c0 -55.333 -11.5 -96.333 -34.5 -123s-58.833 -40 -107.5 -40zM357 642c-10 0 -17.833 2.83301 -23.5 8.5s-8.5 13.5 -8.5 23.5s3 17.833 9 23.5
s13.667 8.5 23 8.5c10 0 17.833 -2.83301 23.5 -8.5s8.5 -13.5 8.5 -23.5c0 -9.33301 -2.83301 -17 -8.5 -23s-13.5 -9 -23.5 -9z" />
    <glyph glyph-name="uni0136" unicode="&#x136;" horiz-adv-x="754" 
d="M135 760h40v-353l439 353h58l-455 -364l495 -396h-62l-475 380v-380h-40v760zM346 -245c28.667 56 44.998 115.999 48.998 179.999h34c-3.33301 -33.333 -9.66602 -66.166 -18.999 -98.499s-20.666 -59.5 -33.999 -81.5h-30z" />
    <glyph glyph-name="uni0137" unicode="&#x137;" horiz-adv-x="537" 
d="M100 810h38v-530l282 200h57l-299 -212l339 -268h-58l-321 254v-254h-38v810zM241 -245c28.667 56 45 115.999 49 179.999h34c-2.66699 -32 -9 -64.167 -19 -96.5s-21.667 -60.166 -35 -83.499h-29z" />
    <glyph glyph-name="kgreenlandic" unicode="&#x138;" horiz-adv-x="538" 
d="M100 480h38v-207l283 207h55l-301 -216l343 -264h-58l-322 248v-248h-38v480z" />
    <glyph glyph-name="Lacute" unicode="&#x139;" horiz-adv-x="603" 
d="M135 760h40v-723h373v-37h-413v760zM247 964h53l-161 -129h-47z" />
    <glyph glyph-name="lacute" unicode="&#x13a;" horiz-adv-x="238" 
d="M100 810h38v-810h-38v810zM211 979h53l-161 -129h-47z" />
    <glyph glyph-name="uni013B" unicode="&#x13b;" horiz-adv-x="603" 
d="M135 760h40v-723h373v-37h-413v760zM271 -245c28.667 56 44.998 115.999 48.998 179.999h34c-3.33301 -33.333 -9.66602 -66.166 -18.999 -98.499s-20.666 -59.5 -33.999 -81.5h-30z" />
    <glyph glyph-name="uni013C" unicode="&#x13c;" horiz-adv-x="238" 
d="M100 810h38v-810h-38v810zM57 -245c28.667 56 45 115.999 49 179.999h34c-2.66699 -32 -9 -64.167 -19 -96.5s-21.667 -60.166 -35 -83.499h-29z" />
    <glyph glyph-name="Lcaron" unicode="&#x13d;" horiz-adv-x="603" 
d="M135 760h40v-723h373v-37h-413v760zM341 810h33l-21 -230h-26z" />
    <glyph glyph-name="lcaron" unicode="&#x13e;" horiz-adv-x="238" 
d="M100 810h38v-810h-38v810zM222 810h33l-21 -230h-26z" />
    <glyph glyph-name="Lslash" unicode="&#x141;" horiz-adv-x="613" 
d="M145 297l-93 -66l-6 39l99 70v420h40v-397l200 143l6 -39l-206 -147v-283h373v-37h-413v297z" />
    <glyph glyph-name="lslash" unicode="&#x142;" horiz-adv-x="258" 
d="M110 363l-97 -58l-6 36l103 62v407h38v-387l97 58l6 -36l-103 -62v-383h-38v363z" />
    <glyph glyph-name="Nacute" unicode="&#x143;" horiz-adv-x="890" 
d="M135 760h41l540 -703v703h39v-760h-41l-540 703v-703h-39v760zM534 964h53l-161 -129h-47z" />
    <glyph glyph-name="nacute" unicode="&#x144;" horiz-adv-x="597" 
d="M100 480h36.002v-94c16.667 35.333 40.5 62.5 71.5 81.5s67.833 28.5 110.5 28.5c57.333 0 102.166 -18.167 134.499 -54.5s48.5 -86.833 48.5 -151.5v-290h-38v285c0 118 -50.333 177 -151 177c-52.667 0 -94.834 -18.5 -126.501 -55.5s-47.5 -86.167 -47.5 -147.5v-259
h-38v480zM365.002 773h44l-140 -183h-40z" />
    <glyph glyph-name="uni0145" unicode="&#x145;" horiz-adv-x="890" 
d="M135 760h41l540 -703v703h39v-760h-41l-540 703v-703h-39v760zM368 -245c28.667 56 44.998 115.999 48.998 179.999h34c-3.33301 -33.333 -9.66602 -66.166 -18.999 -98.499s-20.666 -59.5 -33.999 -81.5h-30z" />
    <glyph glyph-name="uni0146" unicode="&#x146;" horiz-adv-x="597" 
d="M100 480h36.002v-94c16.667 35.333 40.5 62.5 71.5 81.5s67.833 28.5 110.5 28.5c57.333 0 102.166 -18.167 134.499 -54.5s48.5 -86.833 48.5 -151.5v-290h-38v285c0 118 -50.333 177 -151 177c-52.667 0 -94.834 -18.5 -126.501 -55.5s-47.5 -86.167 -47.5 -147.5v-259
h-38v480zM238.002 -245c28.667 56 45 115.999 49 179.999h34c-2.66699 -32 -9 -64.167 -19 -96.5s-21.667 -60.166 -35 -83.499h-29z" />
    <glyph glyph-name="Ncaron" unicode="&#x147;" horiz-adv-x="890" 
d="M135 760h41l540 -703v703h39v-760h-41l-540 703v-703h-39v760zM279 977h44l119 -116l118 116h44l-146 -142h-34z" />
    <glyph glyph-name="ncaron" unicode="&#x148;" horiz-adv-x="597" 
d="M100 480h36.002v-94c16.667 35.333 40.5 62.5 71.5 81.5s67.833 28.5 110.5 28.5c57.333 0 102.166 -18.167 134.499 -54.5s48.5 -86.833 48.5 -151.5v-290h-38v285c0 118 -50.333 177 -151 177c-52.667 0 -94.834 -18.5 -126.501 -55.5s-47.5 -86.167 -47.5 -147.5v-259
h-38v480zM136.002 773h42l124 -152l121 152h40l-147 -183h-29z" />
    <glyph glyph-name="Omacron" unicode="&#x14c;" horiz-adv-x="922" 
d="M461 23c62 0 118.833 14.833 170.5 44.5s92.834 71.667 123.501 126s46 116.166 46 185.499c0 66 -14.167 126 -42.5 180s-68.5 97.167 -120.5 129.5s-111 48.5 -177 48.5c-62 0 -118.833 -14.833 -170.5 -44.5s-92.834 -71.667 -123.501 -126s-46 -116.166 -46 -185.499
c0 -66 14.167 -126 42.5 -180s68.5 -97.167 120.5 -129.5s111 -48.5 177 -48.5zM461 -16c-70 0 -133.667 16.501 -191 49.501s-103.333 79.667 -138 140s-52 128.833 -52 205.5c0 72.667 15.833 139 47.5 199s76.667 108 135 144s124.833 54 199.5 54
c69.333 0 132.833 -16.5 190.5 -49.5s103.667 -79.833 138 -140.5s51.5 -129.334 51.5 -206.001c0 -72 -15.833 -138 -47.5 -198s-76.667 -108 -135 -144s-124.5 -54 -198.5 -54zM318 908.001h286v-34h-286v34z" />
    <glyph glyph-name="omacron" unicode="&#x14d;" horiz-adv-x="616" 
d="M308 -16c-45.333 0 -86.5 10.667 -123.5 32s-66.667 51.5 -89 90.5s-33.5 83.5 -33.5 133.5c0 46 10.333 88.333 31 127s49.834 69.834 87.501 93.501s80.167 35.5 127.5 35.5c45.333 0 86.5 -10.667 123.5 -32s66.667 -51.5 89 -90.5s33.5 -83.5 33.5 -133.5
c0 -46 -10.333 -88.333 -31 -127s-49.834 -69.834 -87.501 -93.501s-80.167 -35.5 -127.5 -35.5zM308 18c38 0 72.667 9.16699 104 27.5s56.333 44.5 75 78.5s28 72.667 28 116c0 40.667 -8.5 77.834 -25.5 111.501s-41.333 60.5 -73 80.5s-67.834 30 -108.501 30
c-38 0 -72.667 -9.16699 -104 -27.5s-56.333 -44.5 -75 -78.5s-28 -72.667 -28 -116c0 -40.667 8.5 -77.834 25.5 -111.501s41.333 -60.5 73 -80.5s67.834 -30 108.501 -30zM165 692h286v-34h-286v34z" />
    <glyph glyph-name="Ohungarumlaut" unicode="&#x150;" horiz-adv-x="922" 
d="M461 23c62 0 118.833 14.833 170.5 44.5s92.834 71.667 123.501 126s46 116.166 46 185.499c0 66 -14.167 126 -42.5 180s-68.5 97.167 -120.5 129.5s-111 48.5 -177 48.5c-62 0 -118.833 -14.833 -170.5 -44.5s-92.834 -71.667 -123.501 -126s-46 -116.166 -46 -185.499
c0 -66 14.167 -126 42.5 -180s68.5 -97.167 120.5 -129.5s111 -48.5 177 -48.5zM461 -16c-70 0 -133.667 16.501 -191 49.501s-103.333 79.667 -138 140s-52 128.833 -52 205.5c0 72.667 15.833 139 47.5 199s76.667 108 135 144s124.833 54 199.5 54
c69.333 0 132.833 -16.5 190.5 -49.5s103.667 -79.833 138 -140.5s51.5 -129.334 51.5 -206.001c0 -72 -15.833 -138 -47.5 -198s-76.667 -108 -135 -144s-124.5 -54 -198.5 -54zM476 964.001h45l-130 -129h-39zM609 964.001h46l-130 -129h-40z" />
    <glyph glyph-name="ohungarumlaut" unicode="&#x151;" horiz-adv-x="616" 
d="M308 -16c-45.333 0 -86.5 10.667 -123.5 32s-66.667 51.5 -89 90.5s-33.5 83.5 -33.5 133.5c0 46 10.333 88.333 31 127s49.834 69.834 87.501 93.501s80.167 35.5 127.5 35.5c45.333 0 86.5 -10.667 123.5 -32s66.667 -51.5 89 -90.5s33.5 -83.5 33.5 -133.5
c0 -46 -10.333 -88.333 -31 -127s-49.834 -69.834 -87.501 -93.501s-80.167 -35.5 -127.5 -35.5zM308 18c38 0 72.667 9.16699 104 27.5s56.333 44.5 75 78.5s28 72.667 28 116c0 40.667 -8.5 77.834 -25.5 111.501s-41.333 60.5 -73 80.5s-67.834 30 -108.501 30
c-38 0 -72.667 -9.16699 -104 -27.5s-56.333 -44.5 -75 -78.5s-28 -72.667 -28 -116c0 -40.667 8.5 -77.834 25.5 -111.501s41.333 -60.5 73 -80.5s67.834 -30 108.501 -30zM318 773h43l-142 -186h-39zM461 773h43l-142 -186h-39z" />
    <glyph glyph-name="OE" unicode="&#x152;" horiz-adv-x="1292" 
d="M451 -16c-68 0 -130.003 16.5 -186.003 49.5s-100.833 79.667 -134.5 140s-50.5 128.833 -50.5 205.5c0 72.667 15.5 139 46.5 199s74.833 108 131.5 144s121.334 54 194.001 54s137.834 -19.167 195.501 -57.5s101.5 -91.833 131.5 -160.5v202h418v-37h-378v-314h338
v-35h-338v-337h393v-37h-433v202c-29.333 -68 -73.166 -121.333 -131.499 -160s-123.833 -58 -196.5 -58zM450.997 23c60.667 0 116.001 14.833 166.001 44.5s89.833 71.667 119.5 126s44.5 116.166 44.5 185.499c0 66 -13.833 126 -41.5 180s-66.667 97.167 -117 129.5
s-107.5 48.5 -171.5 48.5c-60.667 0 -115.834 -14.833 -165.501 -44.5s-89.5 -71.667 -119.5 -126s-45 -116.166 -45 -185.499c0 -66 13.833 -126 41.5 -180s66.667 -97.167 117 -129.5s107.5 -48.5 171.5 -48.5z" />
    <glyph glyph-name="oe" unicode="&#x153;" horiz-adv-x="1014" 
d="M308 18c38 0 72.667 9.16699 104 27.5s56.333 44.5 75 78.5s28 72.667 28 116c0 40.667 -8.5 77.834 -25.5 111.501s-41.333 60.5 -73 80.5s-67.834 30 -108.501 30c-38 0 -72.667 -9.16699 -104 -27.5s-56.333 -44.5 -75 -78.5s-28 -72.667 -28 -116
c0 -40.667 8.5 -77.834 25.5 -111.501s41.333 -60.5 73 -80.5s67.834 -30 108.501 -30zM308 -16c-45.333 0 -86.499 10.666 -123.499 31.999s-66.667 51.5 -89 90.5s-33.5 83.5 -33.5 133.5c0 46 10.333 88.333 31 127s49.834 69.834 87.501 93.501s80.167 35.5 127.5 35.5
c51.333 0 97.166 -15 137.499 -45s68.833 -70.333 85.5 -121c15.333 50.667 42.333 91 81 121s83 45 133 45c39.333 0 74.666 -9.33301 105.999 -28s56 -45.167 74 -79.5s27 -74.166 27 -119.499c0 -10.667 -1 -22 -3 -34h-400c1.33301 -67.333 22.166 -120.333 62.499 -159
s94.5 -58 162.5 -58c57.333 0 111 14 161 42l7 -34c-21.333 -12.667 -47.333 -22.834 -78 -30.501s-61.667 -11.5 -93 -11.5c-60.667 0 -112 14.167 -154 42.5s-71 68.166 -87 119.499c-17.333 -49.333 -46.166 -88.666 -86.499 -117.999s-85.5 -44 -135.5 -44z
M917.001 265.999c0 38 -7 71.833 -21 101.5s-34.333 53 -61 70s-57.667 25.5 -93 25.5c-32 0 -61.833 -8.16699 -89.5 -24.5s-50.667 -39.5 -69 -69.5s-29.5 -64.333 -33.5 -103h367z" />
    <glyph glyph-name="Racute" unicode="&#x154;" horiz-adv-x="695" 
d="M135 760l201 0.000976562c74 0 133 -19.333 177 -58s66 -90.334 66 -155.001c0 -51.333 -13 -94.833 -39 -130.5s-63.667 -61.167 -113 -76.5l223 -340h-49l-213 331c-25.333 -3.33301 -47.333 -5 -66 -5h-147v-326h-40v760zM175 364.001h141.001
c71.333 0 126 15.5 164 46.5s57 75.5 57 133.5c0 56.667 -17.833 100.5 -53.5 131.5s-85.834 46.5 -150.501 46.5h-158v-358zM412.001 964.001h53l-161 -129h-47z" />
    <glyph glyph-name="racute" unicode="&#x155;" horiz-adv-x="390" 
d="M100 480h36.999v-108c14.667 37.333 36.334 65.833 65.001 85.5s62.667 29.5 102 29.5c22 0 39 -2.66699 51 -8l-3 -35c-19.333 5.33301 -37.333 8 -54 8c-50 0 -89.167 -20.667 -117.5 -62s-42.5 -98.333 -42.5 -171v-219h-38v480zM283.999 773h44l-140 -183h-40z" />
    <glyph glyph-name="Rcaron" unicode="&#x158;" horiz-adv-x="695" 
d="M135 760l201 0.000976562c74 0 133 -19.333 177 -58s66 -90.334 66 -155.001c0 -51.333 -13 -94.833 -39 -130.5s-63.667 -61.167 -113 -76.5l223 -340h-49l-213 331c-25.333 -3.33301 -47.333 -5 -66 -5h-147v-326h-40v760zM175 364.001h141.001
c71.333 0 126 15.5 164 46.5s57 75.5 57 133.5c0 56.667 -17.833 100.5 -53.5 131.5s-85.834 46.5 -150.501 46.5h-158v-358zM157.001 977.001h44l119 -116l118 116h44l-146 -142h-34z" />
    <glyph glyph-name="rcaron" unicode="&#x159;" horiz-adv-x="390" 
d="M100 480h36.999v-108c14.667 37.333 36.334 65.833 65.001 85.5s62.667 29.5 102 29.5c22 0 39 -2.66699 51 -8l-3 -35c-19.333 5.33301 -37.333 8 -54 8c-50 0 -89.167 -20.667 -117.5 -62s-42.5 -98.333 -42.5 -171v-219h-38v480zM54.999 773h42l124 -152l121 152h40
l-147 -183h-29z" />
    <glyph glyph-name="Sacute" unicode="&#x15a;" horiz-adv-x="649" 
d="M305 -16c-43.333 0 -84.834 5.49805 -124.501 16.498s-73.5 26.167 -101.5 45.5l7 38c28.667 -20 62.167 -35.667 100.5 -47s77.5 -17 117.5 -17c66.667 0 119.167 14.667 157.5 44s57.5 69.666 57.5 120.999c0 34 -7 61.5 -21 82.5s-37.5 40 -70.5 57
s-80.833 36.167 -143.5 57.5c-65.333 22 -113.166 49.333 -143.499 82s-45.5 73.334 -45.5 122.001c0 58 20.5 104.167 61.5 138.5s96.5 51.5 166.5 51.5c72 0 139.333 -15.667 202 -47l-9 -35c-62 30.667 -126.333 46 -193 46c-58.667 0 -104.834 -13.333 -138.501 -40
s-50.5 -63.667 -50.5 -111c0 -30.667 6 -56 18 -76s31 -37.667 57 -53s61.333 -30.666 106 -45.999c64.667 -22 114.334 -43.667 149.001 -65s59.167 -44.666 73.5 -69.999s21.5 -55.666 21.5 -90.999c0 -62.667 -22.833 -112.334 -68.5 -149.001s-107.5 -55 -185.5 -55z
M411.999 963.998h53l-161 -129h-47z" />
    <glyph glyph-name="sacute" unicode="&#x15b;" horiz-adv-x="458" 
d="M218 -16c-29.333 0 -58.666 4.16504 -87.999 12.498s-54.333 19.833 -75 34.5l5 37c20.667 -15.333 45.5 -27.5 74.5 -36.5s56.833 -13.5 83.5 -13.5c44 0 78.667 8.66699 104 26s38 41 38 71c0 20 -4.5 36.333 -13.5 49s-23.5 23.834 -43.5 33.501
s-48.333 19.834 -85 30.501c-52 15.333 -90 34.5 -114 57.5s-36 51.833 -36 86.5c0 37.333 14.5 67.333 43.5 90s67.833 34 116.5 34c26.667 0 53.167 -3.33301 79.5 -10s48.833 -15.667 67.5 -27l-5 -35c-19.333 12 -41.666 21.333 -66.999 28s-50.333 10 -75 10
c-38.667 0 -68.834 -7.83301 -90.501 -23.5s-32.5 -37.167 -32.5 -64.5c0 -26 9.5 -47.5 28.5 -64.5s49.833 -31.5 92.5 -43.5c64 -18.667 108.667 -39 134 -61s38 -51.333 38 -88c0 -40.667 -16.333 -73 -49 -97s-76.334 -36 -131.001 -36zM291 772.998h44l-140 -183h-40z
" />
    <glyph glyph-name="Scedilla" unicode="&#x15e;" horiz-adv-x="649" 
d="M305 -16c-43.333 0 -84.834 5.49805 -124.501 16.498s-73.5 26.167 -101.5 45.5l7 38c28.667 -20 62.167 -35.667 100.5 -47s77.5 -17 117.5 -17c66.667 0 119.167 14.667 157.5 44s57.5 69.666 57.5 120.999c0 34 -7 61.5 -21 82.5s-37.5 40 -70.5 57
s-80.833 36.167 -143.5 57.5c-65.333 22 -113.166 49.333 -143.499 82s-45.5 73.334 -45.5 122.001c0 58 20.5 104.167 61.5 138.5s96.5 51.5 166.5 51.5c72 0 139.333 -15.667 202 -47l-9 -35c-62 30.667 -126.333 46 -193 46c-58.667 0 -104.834 -13.333 -138.501 -40
s-50.5 -63.667 -50.5 -111c0 -30.667 6 -56 18 -76s31 -37.667 57 -53s61.333 -30.666 106 -45.999c64.667 -22 114.334 -43.667 149.001 -65s59.167 -44.666 73.5 -69.999s21.5 -55.666 21.5 -90.999c0 -62.667 -22.833 -112.334 -68.5 -149.001s-107.5 -55 -185.5 -55z
M300.999 -255.002c-30.667 0 -58.668 6.66699 -84.001 20l7 28c9.33301 -5.33301 21.333 -9.66602 36 -12.999s28.334 -5 41.001 -5c22.667 0 41 5.66699 55 17s21 26.333 21 45c0 18 -6.16699 32.167 -18.5 42.5s-28.833 15.5 -49.5 15.5c-18 0 -32.667 -1.33301 -44 -4
l31 119h28l-21 -86h9c29.333 0 53 -7.83301 71 -23.5s27 -35.834 27 -60.501c0 -28.667 -10 -51.667 -30 -69s-46.333 -26 -79 -26z" />
    <glyph glyph-name="scedilla" unicode="&#x15f;" horiz-adv-x="458" 
d="M218 -16c-29.333 0 -58.666 4.16504 -87.999 12.498s-54.333 19.833 -75 34.5l5 37c20.667 -15.333 45.5 -27.5 74.5 -36.5s56.833 -13.5 83.5 -13.5c44 0 78.667 8.66699 104 26s38 41 38 71c0 20 -4.5 36.333 -13.5 49s-23.5 23.834 -43.5 33.501
s-48.333 19.834 -85 30.501c-52 15.333 -90 34.5 -114 57.5s-36 51.833 -36 86.5c0 37.333 14.5 67.333 43.5 90s67.833 34 116.5 34c26.667 0 53.167 -3.33301 79.5 -10s48.833 -15.667 67.5 -27l-5 -35c-19.333 12 -41.666 21.333 -66.999 28s-50.333 10 -75 10
c-38.667 0 -68.834 -7.83301 -90.501 -23.5s-32.5 -37.167 -32.5 -64.5c0 -26 9.5 -47.5 28.5 -64.5s49.833 -31.5 92.5 -43.5c64 -18.667 108.667 -39 134 -61s38 -51.333 38 -88c0 -40.667 -16.333 -73 -49 -97s-76.334 -36 -131.001 -36zM209 -255.002
c-30.667 0 -58.667 6.66699 -84 20l7 28c9.33301 -5.33301 21.333 -9.66602 36 -12.999s28.334 -5 41.001 -5c22.667 0 41.167 5.66699 55.5 17s21.5 26.333 21.5 45c0 18 -6.33301 32.167 -19 42.5s-29.334 15.5 -50.001 15.5c-18 0 -32.667 -1.33301 -44 -4l31 119h28
l-21 -86h9c29.333 0 53 -7.83301 71 -23.5s27 -35.834 27 -60.501c0 -28.667 -10 -51.667 -30 -69s-46.333 -26 -79 -26z" />
    <glyph glyph-name="Scaron" unicode="&#x160;" horiz-adv-x="649" 
d="M305 -16c-43.333 0 -84.834 5.49805 -124.501 16.498s-73.5 26.167 -101.5 45.5l7 38c28.667 -20 62.167 -35.667 100.5 -47s77.5 -17 117.5 -17c66.667 0 119.167 14.667 157.5 44s57.5 69.666 57.5 120.999c0 34 -7 61.5 -21 82.5s-37.5 40 -70.5 57
s-80.833 36.167 -143.5 57.5c-65.333 22 -113.166 49.333 -143.499 82s-45.5 73.334 -45.5 122.001c0 58 20.5 104.167 61.5 138.5s96.5 51.5 166.5 51.5c72 0 139.333 -15.667 202 -47l-9 -35c-62 30.667 -126.333 46 -193 46c-58.667 0 -104.834 -13.333 -138.501 -40
s-50.5 -63.667 -50.5 -111c0 -30.667 6 -56 18 -76s31 -37.667 57 -53s61.333 -30.666 106 -45.999c64.667 -22 114.334 -43.667 149.001 -65s59.167 -44.666 73.5 -69.999s21.5 -55.666 21.5 -90.999c0 -62.667 -22.833 -112.334 -68.5 -149.001s-107.5 -55 -185.5 -55z
M156.999 976.998h44l119 -116l118 116h44l-146 -142h-34z" />
    <glyph glyph-name="scaron" unicode="&#x161;" horiz-adv-x="458" 
d="M218 -16c-29.333 0 -58.666 4.16504 -87.999 12.498s-54.333 19.833 -75 34.5l5 37c20.667 -15.333 45.5 -27.5 74.5 -36.5s56.833 -13.5 83.5 -13.5c44 0 78.667 8.66699 104 26s38 41 38 71c0 20 -4.5 36.333 -13.5 49s-23.5 23.834 -43.5 33.501
s-48.333 19.834 -85 30.501c-52 15.333 -90 34.5 -114 57.5s-36 51.833 -36 86.5c0 37.333 14.5 67.333 43.5 90s67.833 34 116.5 34c26.667 0 53.167 -3.33301 79.5 -10s48.833 -15.667 67.5 -27l-5 -35c-19.333 12 -41.666 21.333 -66.999 28s-50.333 10 -75 10
c-38.667 0 -68.834 -7.83301 -90.501 -23.5s-32.5 -37.167 -32.5 -64.5c0 -26 9.5 -47.5 28.5 -64.5s49.833 -31.5 92.5 -43.5c64 -18.667 108.667 -39 134 -61s38 -51.333 38 -88c0 -40.667 -16.333 -73 -49 -97s-76.334 -36 -131.001 -36zM62 772.998h42l124 -152l121 152
h40l-147 -183h-29z" />
    <glyph glyph-name="uni0162" unicode="&#x162;" horiz-adv-x="666" 
d="M313 723h-260v37h560v-37h-260v-723h-40v723zM327 -255c-30.667 0 -58.668 6.66699 -84.001 20l7 28c9.33301 -5.33301 21.333 -9.66602 36 -12.999s28.334 -5 41.001 -5c22.667 0 41 5.66699 55 17s21 26.333 21 45c0 18 -6.16699 32.167 -18.5 42.5
s-28.833 15.5 -49.5 15.5c-18 0 -32.667 -1.33301 -44 -4l31 119h28l-21 -86h9c29.333 0 53 -7.83301 71 -23.5s27 -35.834 27 -60.501c0 -28.667 -10 -51.667 -30 -69s-46.333 -26 -79 -26z" />
    <glyph glyph-name="uni0163" unicode="&#x163;" horiz-adv-x="418" 
d="M277 -16c-49.333 0 -85.499 13.668 -108.499 41.001s-34.5 70.666 -34.5 129.999v292h-114v33h114v164h38v-164h184v-33h-184v-275c0 -56.667 8.16699 -96.5 24.5 -119.5s44.5 -34.5 84.5 -34.5c15.333 0 32.333 2.66699 51 8s34.667 12 48 20l7 -33
c-13.333 -8.66699 -30.333 -15.667 -51 -21s-40.334 -8 -59.001 -8zM249.001 -254.999c-30.667 0 -58.667 6.66699 -84 20l7 28c9.33301 -5.33301 21.333 -9.66602 36 -12.999s28.334 -5 41.001 -5c22.667 0 41.167 5.66699 55.5 17s21.5 26.333 21.5 45
c0 18 -6.33301 32.167 -19 42.5s-29.334 15.5 -50.001 15.5c-18 0 -32.667 -1.33301 -44 -4l31 119h28l-21 -86h9c29.333 0 53 -7.83301 71 -23.5s27 -35.834 27 -60.501c0 -28.667 -10 -51.667 -30 -69s-46.333 -26 -79 -26z" />
    <glyph glyph-name="Tcaron" unicode="&#x164;" horiz-adv-x="666" 
d="M313 723h-260v37h560v-37h-260v-723h-40v723zM170 977h44l119 -116l118 116h44l-146 -142h-34z" />
    <glyph glyph-name="tcaron" unicode="&#x165;" horiz-adv-x="418" 
d="M277 -16c-49.333 0 -85.499 13.668 -108.499 41.001s-34.5 70.666 -34.5 129.999v292h-114v33h114v164h38v-164h184v-33h-184v-275c0 -56.667 8.16699 -96.5 24.5 -119.5s44.5 -34.5 84.5 -34.5c15.333 0 32.333 2.66699 51 8s34.667 12 48 20l7 -33
c-13.333 -8.66699 -30.333 -15.667 -51 -21s-40.334 -8 -59.001 -8zM256.001 810.001h33l-19 -205h-27z" />
    <glyph glyph-name="Utilde" unicode="&#x168;" horiz-adv-x="836" 
d="M418 -16c-97.333 0 -172.168 26.833 -224.501 80.5s-78.5 130.834 -78.5 231.501v464h40v-456c0 -187.333 87.667 -281 263 -281s263 93.667 263 281v456h40v-464c0 -100.667 -26.167 -177.834 -78.5 -231.501s-127.166 -80.5 -224.499 -80.5zM487.998 834
c-16 0.666992 -30.166 5.16699 -42.499 13.5s-23.666 18 -33.999 29s-20.5 20.667 -30.5 29s-20.667 12.833 -32 13.5c-36.667 0 -55 -28 -55 -84h-31c0 38 7.16699 66.833 21.5 86.5s35.166 29.5 62.499 29.5c16 -0.666992 30.167 -5.16699 42.5 -13.5
s23.666 -18 33.999 -29s20.5 -20.667 30.5 -29s20.667 -12.833 32 -13.5c37.333 0 56 28 56 84h31c0 -36.667 -7.33301 -65.167 -22 -85.5s-35.667 -30.5 -63 -30.5z" />
    <glyph glyph-name="utilde" unicode="&#x169;" horiz-adv-x="594" 
d="M278 -16c-57.333 0 -101.998 18.167 -133.998 54.5s-48 86.833 -48 151.5v290h38v-285c0 -58 12.667 -102 38 -132s62.666 -45 111.999 -45c51.333 0 92.833 18.667 124.5 56s47.5 86.333 47.5 147v259h38v-480h-36l-1 93c-16.667 -35.333 -40.334 -62.333 -71.001 -81
s-66.667 -28 -108 -28zM365.002 621c-16 0.666992 -30.166 5.16699 -42.499 13.5s-23.666 18 -33.999 29s-20.5 20.667 -30.5 29s-20.667 12.833 -32 13.5c-36.667 0 -55 -28 -55 -84h-31c0 38 7.16699 66.833 21.5 86.5s35.166 29.5 62.499 29.5
c16 -0.666992 30.167 -5.16699 42.5 -13.5s23.666 -18 33.999 -29s20.5 -20.667 30.5 -29s20.667 -12.833 32 -13.5c37.333 0 56 28 56 84h31c0 -36.667 -7.33301 -65.167 -22 -85.5s-35.667 -30.5 -63 -30.5z" />
    <glyph glyph-name="Umacron" unicode="&#x16a;" horiz-adv-x="836" 
d="M418 -16c-97.333 0 -172.168 26.833 -224.501 80.5s-78.5 130.834 -78.5 231.501v464h40v-456c0 -187.333 87.667 -281 263 -281s263 93.667 263 281v456h40v-464c0 -100.667 -26.167 -177.834 -78.5 -231.501s-127.166 -80.5 -224.499 -80.5zM274.998 908h286v-34h-286
v34z" />
    <glyph glyph-name="umacron" unicode="&#x16b;" horiz-adv-x="594" 
d="M278 -16c-57.333 0 -101.998 18.167 -133.998 54.5s-48 86.833 -48 151.5v290h38v-285c0 -58 12.667 -102 38 -132s62.666 -45 111.999 -45c51.333 0 92.833 18.667 124.5 56s47.5 86.333 47.5 147v259h38v-480h-36l-1 93c-16.667 -35.333 -40.334 -62.333 -71.001 -81
s-66.667 -28 -108 -28zM152.002 692h286v-34h-286v34z" />
    <glyph glyph-name="Uring" unicode="&#x16e;" horiz-adv-x="836" 
d="M418 -16c-97.333 0 -172.168 26.833 -224.501 80.5s-78.5 130.834 -78.5 231.501v464h40v-456c0 -187.333 87.667 -281 263 -281s263 93.667 263 281v456h40v-464c0 -100.667 -26.167 -177.834 -78.5 -231.501s-127.166 -80.5 -224.499 -80.5zM417.998 818
c-35.333 0 -64.667 11.167 -88 33.5s-35 50.833 -35 85.5s11.5 63.167 34.5 85.5s52.5 33.5 88.5 33.5s65.667 -11.167 89 -33.5s35 -50.833 35 -85.5s-11.667 -63.167 -35 -85.5s-53 -33.5 -89 -33.5zM417.997 846c27.333 0 49.833 8.5 67.5 25.5s26.5 38.833 26.5 65.5
s-8.83301 48.5 -26.5 65.5s-40.167 25.5 -67.5 25.5s-49.666 -8.5 -66.999 -25.5s-26 -38.833 -26 -65.5s8.66699 -48.5 26 -65.5s39.666 -25.5 66.999 -25.5z" />
    <glyph glyph-name="uring" unicode="&#x16f;" horiz-adv-x="594" 
d="M278 -16c-57.333 0 -101.998 18.167 -133.998 54.5s-48 86.833 -48 151.5v290h38v-285c0 -58 12.667 -102 38 -132s62.666 -45 111.999 -45c51.333 0 92.833 18.667 124.5 56s47.5 86.333 47.5 147v259h38v-480h-36l-1 93c-16.667 -35.333 -40.334 -62.333 -71.001 -81
s-66.667 -28 -108 -28zM295.002 588c-35.333 0 -64.667 11.167 -88 33.5s-35 50.833 -35 85.5s11.5 63.167 34.5 85.5s52.5 33.5 88.5 33.5s65.667 -11.167 89 -33.5s35 -50.833 35 -85.5s-11.667 -63.167 -35 -85.5s-53 -33.5 -89 -33.5zM295.001 616
c27.333 0 49.833 8.5 67.5 25.5s26.5 38.833 26.5 65.5s-8.83301 48.5 -26.5 65.5s-40.167 25.5 -67.5 25.5s-49.666 -8.5 -66.999 -25.5s-26 -38.833 -26 -65.5s8.66699 -48.5 26 -65.5s39.666 -25.5 66.999 -25.5z" />
    <glyph glyph-name="Uhungarumlaut" unicode="&#x170;" horiz-adv-x="836" 
d="M418 -16c-97.333 0 -172.168 26.833 -224.501 80.5s-78.5 130.834 -78.5 231.501v464h40v-456c0 -187.333 87.667 -281 263 -281s263 93.667 263 281v456h40v-464c0 -100.667 -26.167 -177.834 -78.5 -231.501s-127.166 -80.5 -224.499 -80.5zM432.998 964h45l-130 -129
h-39zM565.998 964h46l-130 -129h-40z" />
    <glyph glyph-name="uhungarumlaut" unicode="&#x171;" horiz-adv-x="594" 
d="M278 -16c-57.333 0 -101.998 18.167 -133.998 54.5s-48 86.833 -48 151.5v290h38v-285c0 -58 12.667 -102 38 -132s62.666 -45 111.999 -45c51.333 0 92.833 18.667 124.5 56s47.5 86.333 47.5 147v259h38v-480h-36l-1 93c-16.667 -35.333 -40.334 -62.333 -71.001 -81
s-66.667 -28 -108 -28zM305.002 773h43l-142 -186h-39zM448.002 773h43l-142 -186h-39z" />
    <glyph glyph-name="Uogonek" unicode="&#x172;" horiz-adv-x="836" 
d="M418 -16c-97.333 0 -172.168 26.833 -224.501 80.5s-78.5 130.834 -78.5 231.501v464h40v-456c0 -187.333 87.667 -281 263 -281s263 93.667 263 281v456h40v-464c0 -100.667 -26.167 -177.834 -78.5 -231.501s-127.166 -80.5 -224.499 -80.5zM489.998 -252
c-28 0 -50.667 8.33105 -68 24.998s-26 38.334 -26 65.001c0 31.333 12.833 63 38.5 95s60.834 60.333 105.501 85l36 -1c-49.333 -31.333 -85.833 -61.166 -109.5 -89.499s-35.5 -56.5 -35.5 -84.5c0 -43.333 21.333 -65 64 -65c23.333 0 45.333 6.66699 66 20l6 -28
c-9.33301 -6 -21.333 -11.167 -36 -15.5s-28.334 -6.5 -41.001 -6.5z" />
    <glyph glyph-name="uogonek" unicode="&#x173;" horiz-adv-x="594" 
d="M278 -16c-57.333 0 -101.998 18.167 -133.998 54.5s-48 86.833 -48 151.5v290h38v-285c0 -58 12.667 -102 38 -132s62.666 -45 111.999 -45c51.333 0 92.833 18.667 124.5 56s47.5 86.333 47.5 147v259h38v-480h-36l-1 93c-16.667 -35.333 -40.334 -62.333 -71.001 -81
s-66.667 -28 -108 -28zM432.002 -252c-26.667 0 -48.832 8.5 -66.499 25.5s-26.5 38.5 -26.5 64.5c0 28.667 10.833 57.5 32.5 86.5s55.167 59.167 100.5 90.5l22 -15c-80.667 -54 -121 -106.333 -121 -157c0 -20.667 5.5 -36.667 16.5 -48s26.833 -17 47.5 -17
c23.333 0 45.333 6.66699 66 20l6 -28c-9.33301 -6.66699 -21.333 -12 -36 -16s-28.334 -6 -41.001 -6z" />
    <glyph glyph-name="Wcircumflex" unicode="&#x174;" horiz-adv-x="1093" 
d="M42 760h45l216 -707l222 697h43l222 -697l217 707h44l-238 -760h-43l-225 691l-221 -691h-44zM533 977h34l145 -142h-44l-119 115l-118 -115h-44z" />
    <glyph glyph-name="wcircumflex" unicode="&#x175;" horiz-adv-x="790" 
d="M35 480h39l159 -436l145 426h34l145 -425l161 435h37l-178 -480h-38l-145 424l-144 -424h-39zM374 773h29l151 -183h-42l-123 151l-122 -151h-40z" />
    <glyph glyph-name="Ycircumflex" unicode="&#x176;" horiz-adv-x="704" 
d="M331 343l-291 417h48l265 -382l266 382h45l-293 -417v-343h-40v343zM335 977h34l145 -142h-44l-119 115l-118 -115h-44z" />
    <glyph glyph-name="ycircumflex" unicode="&#x177;" horiz-adv-x="515" 
d="M70 -255c-10 0 -20.502 1.33301 -31.502 4s-19.833 6 -26.5 10l5 37c15.333 -10 32.666 -15 51.999 -15c24.667 0 45.334 5.83301 62.001 17.5s32.834 31 48.501 58s33.834 64.833 54.501 113.5l14 33l-218 477h41l196 -435l177 435h41l-215 -515
c-24.667 -59.333 -47 -104.5 -67 -135.5s-40.333 -52.833 -61 -65.5s-44.667 -19 -72 -19zM243.998 773h29l151 -183h-42l-123 151l-122 -151h-40z" />
    <glyph glyph-name="Ydieresis" unicode="&#x178;" horiz-adv-x="704" 
d="M331 343l-291 417h48l265 -382l266 382h45l-293 -417v-343h-40v343zM260 858c-8.66699 0 -16 3 -22 9s-9 13.333 -9 22c0 9.33301 2.83301 16.833 8.5 22.5s13.167 8.5 22.5 8.5c8.66699 0 16 -3 22 -9s9 -13.333 9 -22s-3 -16 -9 -22s-13.333 -9 -22 -9zM442 858
c-8.66699 0 -16 3 -22 9s-9 13.333 -9 22c0 9.33301 2.83301 16.833 8.5 22.5s13.167 8.5 22.5 8.5s16.833 -2.83301 22.5 -8.5s8.5 -13.167 8.5 -22.5c0 -8.66699 -3 -16 -9 -22s-13.333 -9 -22 -9z" />
    <glyph glyph-name="Zacute" unicode="&#x179;" horiz-adv-x="701" 
d="M70 36l495 687h-470v37h518v-36l-495 -687h503v-37h-551v36zM444 964h53l-161 -129h-47z" />
    <glyph glyph-name="zacute" unicode="&#x17a;" horiz-adv-x="495" 
d="M58 30l321 417h-309v33h355v-30l-322 -417h329v-33h-374v30zM310 773h44l-140 -183h-40z" />
    <glyph glyph-name="Zdotaccent" unicode="&#x17b;" horiz-adv-x="701" 
d="M70 36l495 687h-470v37h518v-36l-495 -687h503v-37h-551v36zM352 858c-10 0 -17.833 2.83301 -23.5 8.5s-8.5 13.5 -8.5 23.5s2.83301 17.833 8.5 23.5s13.5 8.5 23.5 8.5s17.833 -2.83301 23.5 -8.5s8.5 -13.5 8.5 -23.5c0 -9.33301 -2.83301 -17 -8.5 -23
s-13.5 -9 -23.5 -9z" />
    <glyph glyph-name="zdotaccent" unicode="&#x17c;" horiz-adv-x="495" 
d="M58 30l321 417h-309v33h355v-30l-322 -417h329v-33h-374v30zM245 642c-10 0 -17.833 2.83301 -23.5 8.5s-8.5 13.5 -8.5 23.5s2.83301 17.833 8.5 23.5s13.5 8.5 23.5 8.5s17.833 -2.83301 23.5 -8.5s8.5 -13.5 8.5 -23.5c0 -9.33301 -2.83301 -17 -8.5 -23
s-13.5 -9 -23.5 -9z" />
    <glyph glyph-name="Zcaron" unicode="&#x17d;" horiz-adv-x="701" 
d="M70 36l495 687h-470v37h518v-36l-495 -687h503v-37h-551v36zM189 977h44l119 -116l118 116h44l-146 -142h-34z" />
    <glyph glyph-name="zcaron" unicode="&#x17e;" horiz-adv-x="495" 
d="M58 30l321 417h-309v33h355v-30l-322 -417h329v-33h-374v30zM81 773h42l124 -152l121 152h40l-147 -183h-29z" />
    <glyph glyph-name="florin" unicode="&#x192;" horiz-adv-x="384" 
d="M39 -255c-33.333 0 -65.334 7.66699 -96.001 23l4 33c28.667 -14.667 60.667 -22 96 -22s60.833 10 76.5 30s23.5 53 23.5 99v539h-103v33h103v103c0 76 15.333 133.667 46 173s75.334 59 134.001 59c36.667 0 67.667 -6.66699 93 -20l-6 -33
c-27.333 12.667 -56.333 19 -87 19c-48 0 -83.667 -16.667 -107 -50s-35 -84.333 -35 -153v-98h172v-33h-172v-539c0 -55.333 -11.5 -96.333 -34.5 -123s-58.833 -40 -107.5 -40z" />
    <glyph glyph-name="uni0218" unicode="&#x218;" horiz-adv-x="649" 
d="M305 -16c-43.333 0 -84.834 5.49805 -124.501 16.498s-73.5 26.167 -101.5 45.5l7 38c28.667 -20 62.167 -35.667 100.5 -47s77.5 -17 117.5 -17c66.667 0 119.167 14.667 157.5 44s57.5 69.666 57.5 120.999c0 34 -7 61.5 -21 82.5s-37.5 40 -70.5 57
s-80.833 36.167 -143.5 57.5c-65.333 22 -113.166 49.333 -143.499 82s-45.5 73.334 -45.5 122.001c0 58 20.5 104.167 61.5 138.5s96.5 51.5 166.5 51.5c72 0 139.333 -15.667 202 -47l-9 -35c-62 30.667 -126.333 46 -193 46c-58.667 0 -104.834 -13.333 -138.501 -40
s-50.5 -63.667 -50.5 -111c0 -30.667 6 -56 18 -76s31 -37.667 57 -53s61.333 -30.666 106 -45.999c64.667 -22 114.334 -43.667 149.001 -65s59.167 -44.666 73.5 -69.999s21.5 -55.666 21.5 -90.999c0 -62.667 -22.833 -112.334 -68.5 -149.001s-107.5 -55 -185.5 -55z
M255.999 -245.002c28.667 56 44.998 115.999 48.998 179.999h34c-3.33301 -33.333 -9.66602 -66.166 -18.999 -98.499s-20.666 -59.5 -33.999 -81.5h-30z" />
    <glyph glyph-name="uni0219" unicode="&#x219;" horiz-adv-x="458" 
d="M218 -16c-29.333 0 -58.666 4.16504 -87.999 12.498s-54.333 19.833 -75 34.5l5 37c20.667 -15.333 45.5 -27.5 74.5 -36.5s56.833 -13.5 83.5 -13.5c44 0 78.667 8.66699 104 26s38 41 38 71c0 20 -4.5 36.333 -13.5 49s-23.5 23.834 -43.5 33.501
s-48.333 19.834 -85 30.501c-52 15.333 -90 34.5 -114 57.5s-36 51.833 -36 86.5c0 37.333 14.5 67.333 43.5 90s67.833 34 116.5 34c26.667 0 53.167 -3.33301 79.5 -10s48.833 -15.667 67.5 -27l-5 -35c-19.333 12 -41.666 21.333 -66.999 28s-50.333 10 -75 10
c-38.667 0 -68.834 -7.83301 -90.501 -23.5s-32.5 -37.167 -32.5 -64.5c0 -26 9.5 -47.5 28.5 -64.5s49.833 -31.5 92.5 -43.5c64 -18.667 108.667 -39 134 -61s38 -51.333 38 -88c0 -40.667 -16.333 -73 -49 -97s-76.334 -36 -131.001 -36zM156 -245.002
c28.667 56 45 115.999 49 179.999h34c-2.66699 -32 -9 -64.167 -19 -96.5s-21.667 -60.166 -35 -83.499h-29z" />
    <glyph glyph-name="uni021A" unicode="&#x21a;" horiz-adv-x="666" 
d="M313 723h-260v37h560v-37h-260v-723h-40v723zM269 -245c28.667 56 44.998 115.999 48.998 179.999h34c-3.33301 -33.333 -9.66602 -66.166 -18.999 -98.499s-20.666 -59.5 -33.999 -81.5h-30z" />
    <glyph glyph-name="uni021B" unicode="&#x21b;" horiz-adv-x="418" 
d="M277 -16c-49.333 0 -85.499 13.668 -108.499 41.001s-34.5 70.666 -34.5 129.999v292h-114v33h114v164h38v-164h184v-33h-184v-275c0 -56.667 8.16699 -96.5 24.5 -119.5s44.5 -34.5 84.5 -34.5c15.333 0 32.333 2.66699 51 8s34.667 12 48 20l7 -33
c-13.333 -8.66699 -30.333 -15.667 -51 -21s-40.334 -8 -59.001 -8zM187.001 -244.999c28.667 56 45 115.999 49 179.999h34c-2.66699 -32 -9 -64.167 -19 -96.5s-21.667 -60.166 -35 -83.499h-29z" />
    <glyph glyph-name="uni0237" unicode="&#x237;" horiz-adv-x="238" 
d="M-4 -255c-33.333 0 -65.333 7.66699 -96 23l4 33c28.667 -14.667 60.667 -22 96 -22s60.833 10 76.5 30s23.5 53 23.5 99v572h38v-572c0 -55.333 -11.5 -96.333 -34.5 -123s-58.833 -40 -107.5 -40z" />
    <glyph glyph-name="circumflex" unicode="&#x2c6;" horiz-adv-x="500" 
d="M233 773h29l151 -183h-42l-123 151l-122 -151h-40z" />
    <glyph glyph-name="caron" unicode="&#x2c7;" horiz-adv-x="500" 
d="M86 773h42l124 -152l121 152h40l-147 -183h-29z" />
    <glyph glyph-name="uni02C9" unicode="&#x2c9;" horiz-adv-x="500" 
d="M107 692h286v-34h-286v34z" />
    <glyph glyph-name="uni02CB" unicode="&#x2cb;" horiz-adv-x="500" 
d="M160 773h44l136 -183h-40z" />
    <glyph glyph-name="breve" unicode="&#x2d8;" horiz-adv-x="500" 
d="M250 600c-42 0 -75.667 12.167 -101 36.5s-38 56.5 -38 96.5c0 7.33301 0.333008 12.333 1 15h30c0 -79.333 36 -119 108 -119s108 39.667 108 119h30c0.666992 -2.66699 1 -7.66699 1 -15c0 -40 -12.667 -72.167 -38 -96.5s-59 -36.5 -101 -36.5z" />
    <glyph glyph-name="dotaccent" unicode="&#x2d9;" horiz-adv-x="500" 
d="M250 642c-10 0 -17.833 2.83301 -23.5 8.5s-8.5 13.5 -8.5 23.5s2.83301 17.833 8.5 23.5s13.5 8.5 23.5 8.5s17.833 -2.83301 23.5 -8.5s8.5 -13.5 8.5 -23.5c0 -9.33301 -2.83301 -17 -8.5 -23s-13.5 -9 -23.5 -9z" />
    <glyph glyph-name="ring" unicode="&#x2da;" horiz-adv-x="500" 
d="M250 588c-35.333 0 -64.667 11.167 -88 33.5s-35 50.833 -35 85.5s11.5 63.167 34.5 85.5s52.5 33.5 88.5 33.5s65.667 -11.167 89 -33.5s35 -50.833 35 -85.5s-11.667 -63.167 -35 -85.5s-53 -33.5 -89 -33.5zM249.999 616c27.333 0 49.833 8.5 67.5 25.5
s26.5 38.833 26.5 65.5s-8.83301 48.5 -26.5 65.5s-40.167 25.5 -67.5 25.5s-49.666 -8.5 -66.999 -25.5s-26 -38.833 -26 -65.5s8.66699 -48.5 26 -65.5s39.666 -25.5 66.999 -25.5z" />
    <glyph glyph-name="ogonek" unicode="&#x2db;" horiz-adv-x="500" 
d="M273 -252c-26.667 0 -48.832 8.5 -66.499 25.5s-26.5 38.5 -26.5 64.5c0 28.667 10.833 57.5 32.5 86.5s55.167 59.167 100.5 90.5l22 -15c-80.667 -54 -121 -106.333 -121 -157c0 -20.667 5.5 -36.667 16.5 -48s26.833 -17 47.5 -17c23.333 0 45.333 6.66699 66 20
l6 -28c-9.33301 -6.66699 -21.333 -12 -36 -16s-28.334 -6 -41.001 -6z" />
    <glyph glyph-name="tilde" unicode="&#x2dc;" horiz-adv-x="500" 
d="M320 621c-16 0.666992 -30.166 5.16699 -42.499 13.5s-23.666 18 -33.999 29s-20.5 20.667 -30.5 29s-20.667 12.833 -32 13.5c-36.667 0 -55 -28 -55 -84h-31c0 38 7.16699 66.833 21.5 86.5s35.166 29.5 62.499 29.5c16 -0.666992 30.167 -5.16699 42.5 -13.5
s23.666 -18 33.999 -29s20.5 -20.667 30.5 -29s20.667 -12.833 32 -13.5c37.333 0 56 28 56 84h31c0 -36.667 -7.33301 -65.167 -22 -85.5s-35.667 -30.5 -63 -30.5z" />
    <glyph glyph-name="hungarumlaut" unicode="&#x2dd;" horiz-adv-x="500" 
d="M240 773h43l-142 -186h-39zM383 773h43l-142 -186h-39z" />
    <glyph glyph-name="gravecomb" unicode="&#x300;" horiz-adv-x="0" 
d="M-107 773h44l136 -183h-40z" />
    <glyph glyph-name="acutecomb" unicode="&#x301;" horiz-adv-x="0" 
d="M65 773h44l-140 -183h-40z" />
    <glyph glyph-name="uni0302" unicode="&#x302;" horiz-adv-x="0" 
d="M-17 773h29l151 -183h-42l-123 151l-122 -151h-40z" />
    <glyph glyph-name="tildecomb" unicode="&#x303;" horiz-adv-x="0" 
d="M70 621c-16 0.666992 -30.166 5.16699 -42.499 13.5s-23.666 18 -33.999 29s-20.5 20.667 -30.5 29s-20.667 12.833 -32 13.5c-36.667 0 -55 -28 -55 -84h-31c0 38 7.16699 66.833 21.5 86.5s35.166 29.5 62.499 29.5c16 -0.666992 30.167 -5.16699 42.5 -13.5
s23.666 -18 33.999 -29s20.5 -20.667 30.5 -29s20.667 -12.833 32 -13.5c37.333 0 56 28 56 84h31c0 -36.667 -7.33301 -65.167 -22 -85.5s-35.667 -30.5 -63 -30.5z" />
    <glyph glyph-name="uni0304" unicode="&#x304;" horiz-adv-x="0" 
d="M-143 692h286v-34h-286v34z" />
    <glyph glyph-name="uni0306" unicode="&#x306;" horiz-adv-x="0" 
d="M0 600c-42 0 -75.667 12.167 -101 36.5s-38 56.5 -38 96.5c0 7.33301 0.333008 12.333 1 15h30c0 -79.333 36 -119 108 -119s108 39.667 108 119h30c0.666992 -2.66699 1 -7.66699 1 -15c0 -40 -12.667 -72.167 -38 -96.5s-59 -36.5 -101 -36.5z" />
    <glyph glyph-name="uni0307" unicode="&#x307;" horiz-adv-x="0" 
d="M0 642c-10 0 -17.833 2.83301 -23.5 8.5s-8.5 13.5 -8.5 23.5s2.83301 17.833 8.5 23.5s13.5 8.5 23.5 8.5s17.833 -2.83301 23.5 -8.5s8.5 -13.5 8.5 -23.5c0 -9.33301 -2.83301 -17 -8.5 -23s-13.5 -9 -23.5 -9z" />
    <glyph glyph-name="uni0308" unicode="&#x308;" horiz-adv-x="0" 
d="M-85 643c-8.66699 0 -16 3 -22 9s-9 13.333 -9 22c0 9.33301 2.83301 16.833 8.5 22.5s13.167 8.5 22.5 8.5c8.66699 0 16 -3 22 -9s9 -13.333 9 -22s-3 -16 -9 -22s-13.333 -9 -22 -9zM85 643c-8.66699 0 -16 3 -22 9s-9 13.333 -9 22
c0 9.33301 2.83301 16.833 8.5 22.5s13.167 8.5 22.5 8.5s16.833 -2.83301 22.5 -8.5s8.5 -13.167 8.5 -22.5c0 -8.66699 -3 -16 -9 -22s-13.333 -9 -22 -9z" />
    <glyph glyph-name="uni030A" unicode="&#x30a;" horiz-adv-x="0" 
d="M0 588c-35.333 0 -64.667 11.167 -88 33.5s-35 50.833 -35 85.5s11.5 63.167 34.5 85.5s52.5 33.5 88.5 33.5s65.667 -11.167 89 -33.5s35 -50.833 35 -85.5s-11.667 -63.167 -35 -85.5s-53 -33.5 -89 -33.5zM-0.000976562 616c27.333 0 49.833 8.5 67.5 25.5
s26.5 38.833 26.5 65.5s-8.83301 48.5 -26.5 65.5s-40.167 25.5 -67.5 25.5s-49.666 -8.5 -66.999 -25.5s-26 -38.833 -26 -65.5s8.66699 -48.5 26 -65.5s39.666 -25.5 66.999 -25.5z" />
    <glyph glyph-name="uni030B" unicode="&#x30b;" horiz-adv-x="0" 
d="M10 773h43l-142 -186h-39zM153 773h43l-142 -186h-39z" />
    <glyph glyph-name="uni030C" unicode="&#x30c;" horiz-adv-x="0" 
d="M-164 773h42l124 -152l121 152h40l-147 -183h-29z" />
    <glyph glyph-name="uni0312" unicode="&#x312;" horiz-adv-x="0" 
d="M-21 610c2 29.333 7.49902 58.667 16.499 88s20.167 54.333 33.5 75h30c-27.333 -48 -42.666 -102.333 -45.999 -163h-34z" />
    <glyph glyph-name="uni0315" unicode="&#x315;" horiz-adv-x="0" 
d="M-10 810h33l-21 -230h-26z" />
    <glyph glyph-name="uni0326" unicode="&#x326;" horiz-adv-x="0" 
d="M-62 -245c28.667 56 45 115.999 49 179.999h34c-2.66699 -32 -9 -64.167 -19 -96.5s-21.667 -60.166 -35 -83.499h-29z" />
    <glyph glyph-name="uni0327" unicode="&#x327;" horiz-adv-x="0" 
d="M-9 -255c-30.667 0 -58.667 6.66699 -84 20l7 28c9.33301 -5.33301 21.333 -9.66602 36 -12.999s28.334 -5 41.001 -5c22.667 0 41.167 5.66699 55.5 17s21.5 26.333 21.5 45c0 18 -6.33301 32.167 -19 42.5s-29.334 15.5 -50.001 15.5c-18 0 -32.667 -1.33301 -44 -4
l31 119h28l-21 -86h9c29.333 0 53 -7.83301 71 -23.5s27 -35.834 27 -60.501c0 -28.667 -10 -51.667 -30 -69s-46.333 -26 -79 -26z" />
    <glyph glyph-name="uni0328" unicode="&#x328;" horiz-adv-x="0" 
d="M-24 -252c-26.667 0 -48.832 8.5 -66.499 25.5s-26.5 38.5 -26.5 64.5c0 28.667 10.833 57.5 32.5 86.5s55.167 59.167 100.5 90.5l22 -15c-80.667 -54 -121 -106.333 -121 -157c0 -20.667 5.5 -36.667 16.5 -48s26.833 -17 47.5 -17c23.333 0 45.333 6.66699 66 20
l6 -28c-9.33301 -6.66699 -21.333 -12 -36 -16s-28.334 -6 -41.001 -6z" />
    <glyph glyph-name="pi" unicode="&#x3c0;" horiz-adv-x="634" 
d="M535 -5c-27.333 0 -46.834 8.49902 -58.501 25.499s-17.5 44.833 -17.5 83.5v343h-278v-447h-38v447h-83v33h521v-33h-84v-343c0 -29.333 3 -49.166 9 -59.499s17.333 -15.5 34 -15.5c12.667 0 25.334 2.66699 38.001 8l6 -31c-5.33301 -3.33301 -12.833 -6 -22.5 -8
s-18.5 -3 -26.5 -3z" />
    <glyph glyph-name="Wgrave" unicode="&#x1e80;" horiz-adv-x="1093" 
d="M42 760h45l216 -707l222 697h43l222 -697l217 707h44l-238 -760h-43l-225 691l-221 -691h-44zM404 964h53l155 -129h-47z" />
    <glyph glyph-name="wgrave" unicode="&#x1e81;" horiz-adv-x="790" 
d="M35 480h39l159 -436l145 426h34l145 -425l161 435h37l-178 -480h-38l-145 424l-144 -424h-39zM284 773h44l136 -183h-40z" />
    <glyph glyph-name="Wacute" unicode="&#x1e82;" horiz-adv-x="1093" 
d="M42 760h45l216 -707l222 697h43l222 -697l217 707h44l-238 -760h-43l-225 691l-221 -691h-44zM641 964h53l-161 -129h-47z" />
    <glyph glyph-name="wacute" unicode="&#x1e83;" horiz-adv-x="790" 
d="M35 480h39l159 -436l145 426h34l145 -425l161 435h37l-178 -480h-38l-145 424l-144 -424h-39zM456 773h44l-140 -183h-40z" />
    <glyph glyph-name="Wdieresis" unicode="&#x1e84;" horiz-adv-x="1093" 
d="M42 760h45l216 -707l222 697h43l222 -697l217 707h44l-238 -760h-43l-225 691l-221 -691h-44zM458 858c-8.66699 0 -16 3 -22 9s-9 13.333 -9 22c0 9.33301 2.83301 16.833 8.5 22.5s13.167 8.5 22.5 8.5c8.66699 0 16 -3 22 -9s9 -13.333 9 -22s-3 -16 -9 -22
s-13.333 -9 -22 -9zM640 858c-8.66699 0 -16 3 -22 9s-9 13.333 -9 22c0 9.33301 2.83301 16.833 8.5 22.5s13.167 8.5 22.5 8.5s16.833 -2.83301 22.5 -8.5s8.5 -13.167 8.5 -22.5c0 -8.66699 -3 -16 -9 -22s-13.333 -9 -22 -9z" />
    <glyph glyph-name="wdieresis" unicode="&#x1e85;" horiz-adv-x="790" 
d="M35 480h39l159 -436l145 426h34l145 -425l161 435h37l-178 -480h-38l-145 424l-144 -424h-39zM306 643c-8.66699 0 -16 3 -22 9s-9 13.333 -9 22c0 9.33301 2.83301 16.833 8.5 22.5s13.167 8.5 22.5 8.5c8.66699 0 16 -3 22 -9s9 -13.333 9 -22s-3 -16 -9 -22
s-13.333 -9 -22 -9zM476 643c-8.66699 0 -16 3 -22 9s-9 13.333 -9 22c0 9.33301 2.83301 16.833 8.5 22.5s13.167 8.5 22.5 8.5s16.833 -2.83301 22.5 -8.5s8.5 -13.167 8.5 -22.5c0 -8.66699 -3 -16 -9 -22s-13.333 -9 -22 -9z" />
    <glyph glyph-name="uni1E9E" unicode="&#x1e9e;" horiz-adv-x="795" 
d="M475 -16c-29.333 0 -57.833 3.66895 -85.5 11.002s-51.167 17.666 -70.5 30.999l5 37c24.667 -15.333 49 -26.5 73 -33.5s49.667 -10.5 77 -10.5c38.667 0 73.5 7.83301 104.5 23.5s55.667 38 74 67s27.5 62.5 27.5 100.5c0 53.333 -17.167 96.5 -51.5 129.5
s-79.166 49.5 -134.499 49.5c-20.667 0 -40.334 -3.66699 -59.001 -11l-7 28l200 250c-28.667 26.667 -62 47.167 -100 61.5s-76.667 21.5 -116 21.5c-163.333 0 -245 -105 -245 -315v-424h-40v429c0 112 24.5 197.833 73.5 257.5s119.5 89.5 211.5 89.5
c47.333 0 93 -9 137 -27s81.333 -43.333 112 -76l1 -29l-179 -222c2 0.666992 5.66699 1 11 1c42.667 0 81 -8.66699 115 -26s60.833 -42.333 80.5 -75s29.5 -70.334 29.5 -113.001c0 -41.333 -10 -79 -30 -113s-48.667 -61.167 -86 -81.5s-80 -30.5 -128 -30.5z" />
    <glyph glyph-name="Ygrave" unicode="&#x1ef2;" horiz-adv-x="704" 
d="M331 343l-291 417h48l265 -382l266 382h45l-293 -417v-343h-40v343zM206 964h53l155 -129h-47z" />
    <glyph glyph-name="ygrave" unicode="&#x1ef3;" horiz-adv-x="515" 
d="M70 -255c-10 0 -20.502 1.33301 -31.502 4s-19.833 6 -26.5 10l5 37c15.333 -10 32.666 -15 51.999 -15c24.667 0 45.334 5.83301 62.001 17.5s32.834 31 48.501 58s33.834 64.833 54.501 113.5l14 33l-218 477h41l196 -435l177 435h41l-215 -515
c-24.667 -59.333 -47 -104.5 -67 -135.5s-40.333 -52.833 -61 -65.5s-44.667 -19 -72 -19zM153.998 773h44l136 -183h-40z" />
    <glyph glyph-name="uni2000" unicode="&#x2000;" horiz-adv-x="500" 
 />
    <glyph glyph-name="uni2001" unicode="&#x2001;" horiz-adv-x="1000" 
 />
    <glyph glyph-name="uni2002" unicode="&#x2002;" horiz-adv-x="500" 
 />
    <glyph glyph-name="uni2003" unicode="&#x2003;" horiz-adv-x="1000" 
 />
    <glyph glyph-name="uni2004" unicode="&#x2004;" horiz-adv-x="333" 
 />
    <glyph glyph-name="uni2005" unicode="&#x2005;" horiz-adv-x="250" 
 />
    <glyph glyph-name="uni2006" unicode="&#x2006;" horiz-adv-x="166" 
 />
    <glyph glyph-name="uni2007" unicode="&#x2007;" horiz-adv-x="620" 
 />
    <glyph glyph-name="uni2008" unicode="&#x2008;" horiz-adv-x="290" 
 />
    <glyph glyph-name="uni2009" unicode="&#x2009;" horiz-adv-x="200" 
 />
    <glyph glyph-name="uni200A" unicode="&#x200a;" horiz-adv-x="55" 
 />
    <glyph glyph-name="uni200B" unicode="&#x200b;" horiz-adv-x="0" 
 />
    <glyph glyph-name="uni2010" unicode="&#x2010;" horiz-adv-x="439" 
d="M80 301h279v-36h-279v36z" />
    <glyph glyph-name="figuredash" unicode="&#x2012;" horiz-adv-x="500" 
d="M0 309h500v-37h-500v37z" />
    <glyph glyph-name="endash" unicode="&#x2013;" horiz-adv-x="500" 
d="M0 309h500v-37h-500v37z" />
    <glyph glyph-name="emdash" unicode="&#x2014;" horiz-adv-x="1000" 
d="M0 309h1000v-37h-1000v37z" />
    <glyph glyph-name="uni2015" unicode="&#x2015;" horiz-adv-x="1000" 
d="M0 309h1000v-37h-1000v37z" />
    <glyph glyph-name="quoteleft" unicode="&#x2018;" horiz-adv-x="183" 
d="M55 530c2.66699 41.333 9.33203 82.668 19.999 124.001s23.667 76.666 39 105.999h29c-29.333 -65.333 -46.666 -142 -51.999 -230h-36z" />
    <glyph glyph-name="quoteright" unicode="&#x2019;" horiz-adv-x="183" 
d="M40 530c29.333 65.333 46.668 141.998 52.001 229.998h36c-2.66699 -41.333 -9.33398 -82.666 -20.001 -123.999s-23.667 -76.666 -39 -105.999h-29z" />
    <glyph glyph-name="quotesinglbase" unicode="&#x201a;" horiz-adv-x="183" 
d="M40 -112c29.333 65.333 46.668 141.998 52.001 229.998h36c-2.66699 -41.333 -9.33398 -82.666 -20.001 -123.999s-23.667 -76.666 -39 -105.999h-29z" />
    <glyph glyph-name="quotedblleft" unicode="&#x201c;" horiz-adv-x="310" 
d="M55 530c2.66699 41.333 9.33203 82.668 19.999 124.001s23.667 76.666 39 105.999h29c-29.333 -65.333 -46.666 -142 -51.999 -230h-36zM181.998 530.002c2.66699 41.333 9.33203 82.668 19.999 124.001s23.667 76.666 39 105.999h29
c-29.333 -65.333 -46.666 -142 -51.999 -230h-36z" />
    <glyph glyph-name="quotedblright" unicode="&#x201d;" horiz-adv-x="310" 
d="M40 530c29.333 65.333 46.668 141.998 52.001 229.998h36c-2.66699 -41.333 -9.33398 -82.666 -20.001 -123.999s-23.667 -76.666 -39 -105.999h-29zM167.002 529.998c29.333 65.333 46.668 141.998 52.001 229.998h36
c-2.66699 -41.333 -9.33398 -82.666 -20.001 -123.999s-23.667 -76.666 -39 -105.999h-29z" />
    <glyph glyph-name="quotedblbase" unicode="&#x201e;" horiz-adv-x="310" 
d="M40 -112c29.333 65.333 46.668 141.998 52.001 229.998h36c-2.66699 -41.333 -9.33398 -82.666 -20.001 -123.999s-23.667 -76.666 -39 -105.999h-29zM167.002 -112.002c29.333 65.333 46.668 141.998 52.001 229.998h36
c-2.66699 -41.333 -9.33398 -82.666 -20.001 -123.999s-23.667 -76.666 -39 -105.999h-29z" />
    <glyph glyph-name="dagger" unicode="&#x2020;" horiz-adv-x="489" 
d="M226 463h-176v35h176v262h36v-262h177v-35h-177v-593h-36v593z" />
    <glyph glyph-name="daggerdbl" unicode="&#x2021;" horiz-adv-x="489" 
d="M226 123h-176v35h176v315h-176v35h176v252h36v-252h177v-35h-177v-315h177v-35h-177v-253h-36v253z" />
    <glyph glyph-name="bullet" unicode="&#x2022;" horiz-adv-x="334" 
d="M167 172c-28 0 -52 10 -72 30s-30 44 -30 72c0 28.667 10 52.834 30 72.501s44 29.5 72 29.5c28.667 0 52.834 -9.83301 72.501 -29.5s29.5 -43.834 29.5 -72.501c0 -28 -9.83301 -52 -29.5 -72s-43.834 -30 -72.501 -30z" />
    <glyph glyph-name="ellipsis" unicode="&#x2026;" horiz-adv-x="1000" 
d="M167 -9c-9.33301 0 -17.166 3 -23.499 9s-9.5 14 -9.5 24s3.16699 18 9.5 24s14.166 9 23.499 9s17.166 -3 23.499 -9s9.5 -14 9.5 -24s-3.16699 -18 -9.5 -24s-14.166 -9 -23.499 -9zM500 -9c-9.33301 0 -17.166 3 -23.499 9s-9.5 14 -9.5 24s3.16699 18 9.5 24
s14.166 9 23.499 9s17.166 -3 23.499 -9s9.5 -14 9.5 -24s-3.16699 -18 -9.5 -24s-14.166 -9 -23.499 -9zM833 -9c-9.33301 0 -17.166 3 -23.499 9s-9.5 14 -9.5 24s3.16699 18 9.5 24s14.166 9 23.499 9s17.166 -3 23.499 -9s9.5 -14 9.5 -24s-3.16699 -18 -9.5 -24
s-14.166 -9 -23.499 -9z" />
    <glyph glyph-name="perthousand" unicode="&#x2030;" horiz-adv-x="1279" 
d="M215 462c36 0 66.167 12.668 90.5 38.001s36.5 56.666 36.5 93.999s-12 68.666 -36 93.999s-54.333 38 -91 38s-67.334 -12.5 -92.001 -37.5s-37 -56.5 -37 -94.5c0 -37.333 12.333 -68.666 37 -93.999s55.334 -38 92.001 -38zM215 428.001
c-29.333 0 -56.499 7 -81.499 21s-45.167 33.833 -60.5 59.5s-23 54.167 -23 85.5c0 30 7 57.5 21 82.5s33.667 45.167 59 60.5s53.666 23 84.999 23c29.333 0 56.333 -7 81 -21s44.5 -33.667 59.5 -59s22.5 -54 22.5 -86c0 -29.333 -6.83301 -56.5 -20.5 -81.5
s-33 -45.333 -58 -61s-53.167 -23.5 -84.5 -23.5zM706.001 744.001h44l-590 -744h-44zM657.001 24.001c36 0 66.167 12.668 90.5 38.001s36.5 56.666 36.5 93.999s-12 68.666 -36 93.999s-54.333 38 -91 38s-67.334 -12.5 -92.001 -37.5s-37 -56.5 -37 -94.5
c0 -37.333 12.333 -68.666 37 -93.999s55.334 -38 92.001 -38zM657.001 -9.99805c-29.333 0 -56.499 7 -81.499 21s-45.167 33.833 -60.5 59.5s-23 54.167 -23 85.5c0 30 7 57.5 21 82.5s33.667 45.167 59 60.5s53.666 23 84.999 23c29.333 0 56.333 -7 81 -21
s44.5 -33.667 59.5 -59s22.5 -54 22.5 -86c0 -29.333 -6.83301 -56.5 -20.5 -81.5s-33 -45.333 -58 -61s-53.167 -23.5 -84.5 -23.5zM1066 24.002c36 0 66.167 12.668 90.5 38.001s36.5 56.666 36.5 93.999s-12 68.666 -36 93.999s-54.333 38 -91 38
s-67.334 -12.5 -92.001 -37.5s-37 -56.5 -37 -94.5c0 -37.333 12.333 -68.666 37 -93.999s55.334 -38 92.001 -38zM1066 -9.99707c-29.333 0 -56.499 7 -81.499 21s-45.167 33.833 -60.5 59.5s-23 54.167 -23 85.5c0 30 7 57.5 21 82.5s33.667 45.167 59 60.5
s53.666 23 84.999 23c29.333 0 56.333 -7 81 -21s44.5 -33.667 59.5 -59s22.5 -54 22.5 -86c0 -29.333 -6.83301 -56.5 -20.5 -81.5s-33 -45.333 -58 -61s-53.167 -23.5 -84.5 -23.5z" />
    <glyph glyph-name="minute" unicode="&#x2032;" horiz-adv-x="244" 
d="M129 760h40l-63 -291h-31z" />
    <glyph glyph-name="second" unicode="&#x2033;" horiz-adv-x="376" 
d="M129 760h40l-63 -291h-31zM261 760h40l-63 -291h-31z" />
    <glyph glyph-name="guilsinglleft" unicode="&#x2039;" horiz-adv-x="260" 
d="M35 257l138 204h42l-138 -204l138 -204h-42z" />
    <glyph glyph-name="guilsinglright" unicode="&#x203a;" horiz-adv-x="260" 
d="M183 257l-138 204h42l138 -204l-138 -204h-42z" />
    <glyph glyph-name="fraction" unicode="&#x2044;" horiz-adv-x="159" 
d="M352 744h44l-590 -744h-44z" />
    <glyph glyph-name="uni2070" unicode="&#x2070;" 
d="M193 446c-28.667 0 -54.667 8.66699 -78 26s-41.833 42.333 -55.5 75s-20.5 70 -20.5 112c0 64 14.333 115.833 43 155.5s65.667 59.5 111 59.5s82.333 -19.833 111 -59.5s43 -91.5 43 -155.5c0 -62 -14.5 -113 -43.5 -153s-65.833 -60 -110.5 -60zM193 476
c22.667 0 42.998 7.5 60.998 22.5s32.333 36.5 43 64.5s16 60 16 96c0 54.667 -11.167 99.167 -33.5 133.5s-51.166 51.5 -86.499 51.5s-64.166 -17.167 -86.499 -51.5s-33.5 -78.833 -33.5 -133.5c0 -34 4.83301 -64.833 14.5 -92.5s23.667 -49.667 42 -66
s39.5 -24.5 63.5 -24.5z" />
    <glyph glyph-name="uni2074" unicode="&#x2074;" 
d="M250 567h-204v30l200 267h35v-269h58v-28h-58v-111h-31v111zM250 595v226l-170 -226h170z" />
    <glyph glyph-name="uni2075" unicode="&#x2075;" 
d="M184 446c-20 0 -40.168 2.66797 -60.501 8.00098s-37.166 12.666 -50.499 21.999l4 31c18 -10.667 35.333 -18.5 52 -23.5s34.667 -7.5 54 -7.5c34.667 0 61.334 9.16699 80.001 27.5s28 44.166 28 77.499c0 29.333 -10.5 52.5 -31.5 69.5s-49.167 25.5 -84.5 25.5
s-63.333 -5.66699 -84 -17l7 205h202v-33h-174l-4 -133c17.333 5.33301 36 8 56 8c44 0 79.5 -11.5 106.5 -34.5s40.5 -53.167 40.5 -90.5c0 -41.333 -12.833 -74.166 -38.5 -98.499s-59.834 -36.5 -102.501 -36.5z" />
    <glyph glyph-name="uni2076" unicode="&#x2076;" 
d="M192 446c-38 0 -69.667 12.832 -95 38.499s-38 57.834 -38 96.501c0 49.333 15.5 100.5 46.5 153.5s71.5 97.167 121.5 132.5l42 -4c-37.333 -24.667 -71 -55 -101 -91s-52 -72.333 -66 -109c26 28 59 42 99 42c37.333 0 68.5 -12 93.5 -36s37.5 -54 37.5 -90
c0 -38.667 -13.167 -70.5 -39.5 -95.5s-59.833 -37.5 -100.5 -37.5zM195 474.999c30.667 0 55.833 9.33301 75.5 28s29.5 42.667 29.5 72c0 32 -9.33301 56.833 -28 74.5s-44.334 26.5 -77.001 26.5c-30 0 -55 -9.16699 -75 -27.5s-30 -41.5 -30 -69.5
c0 -30.667 9.83301 -55.667 29.5 -75s44.834 -29 75.501 -29z" />
    <glyph glyph-name="uni2077" unicode="&#x2077;" 
d="M112 456l173 374h-219v34h255v-30l-176 -380z" />
    <glyph glyph-name="uni2078" unicode="&#x2078;" 
d="M195 446c-39.333 0 -72.3311 11.168 -98.998 33.501s-40 50.166 -40 83.499c0 24 7.66699 45.5 23 64.5s36.333 32.5 63 40.5c-22.667 8 -40.667 21.333 -54 40s-20 39.667 -20 63c0 30 12 54.667 36 74s54.333 29 91 29c35.333 0 64.666 -9.83301 87.999 -29.5
s35 -44.167 35 -73.5c0 -23.333 -6.33301 -44.166 -19 -62.499s-30 -31.833 -52 -40.5c25.333 -8 45.5 -21.5 60.5 -40.5s22.5 -40.5 22.5 -64.5c0 -21.333 -5.5 -40.833 -16.5 -58.5s-26.833 -31.834 -47.5 -42.501s-44.334 -16 -71.001 -16zM195.002 474.001
c30.667 0 55.332 8.33301 73.999 25s28 38.334 28 65.001c0 26 -9.66699 47.5 -29 64.5s-43.666 25.5 -72.999 25.5c-30.667 0 -56 -8.5 -76 -25.5s-30 -38.5 -30 -64.5c0 -26.667 9.83301 -48.334 29.5 -65.001s45.167 -25 76.5 -25zM195 681.001
c26.667 0 48.5 8.33301 65.5 25s25.5 38 25.5 64c0 22.667 -8.5 41.167 -25.5 55.5s-38.833 21.5 -65.5 21.5c-28.667 0 -51.667 -7 -69 -21s-26 -32.667 -26 -56c0 -25.333 9 -46.5 27 -63.5s40.667 -25.5 68 -25.5z" />
    <glyph glyph-name="uni2079" unicode="&#x2079;" 
d="M120 457c37.333 24.667 71 55.001 101 91.001s52 72 66 108c-12.667 -13.333 -27.667 -23.5 -45 -30.5s-35.333 -10.5 -54 -10.5c-37.333 0 -68.5 12 -93.5 36s-37.5 54 -37.5 90c0 38.667 13.167 70.5 39.5 95.5s59.833 37.5 100.5 37.5c38 0 69.667 -12.833 95 -38.5
s38 -57.834 38 -96.501c0 -49.333 -15.5 -100.5 -46.5 -153.5s-71.5 -97.167 -121.5 -132.5zM194 644.001c30 0 55.001 9.16699 75.001 27.5s30 41.5 30 69.5c0 30.667 -9.83301 55.667 -29.5 75s-44.834 29 -75.501 29s-55.834 -9.33301 -75.501 -28
s-29.5 -42.667 -29.5 -72c0 -32 9.33301 -56.833 28 -74.5s44.334 -26.5 77.001 -26.5z" />
    <glyph glyph-name="uni2080" unicode="&#x2080;" 
d="M193 -135c-28.667 0 -54.667 8.66699 -78 26s-41.833 42.333 -55.5 75s-20.5 70 -20.5 112c0 64 14.333 115.833 43 155.5s65.667 59.5 111 59.5s82.333 -19.833 111 -59.5s43 -91.5 43 -155.5c0 -62 -14.5 -113 -43.5 -153s-65.833 -60 -110.5 -60zM193 -105
c22.667 0 42.998 7.5 60.998 22.5s32.333 36.5 43 64.5s16 60 16 96c0 54.667 -11.167 99.167 -33.5 133.5s-51.166 51.5 -86.499 51.5s-64.166 -17.167 -86.499 -51.5s-33.5 -78.833 -33.5 -133.5c0 -34 4.83301 -64.833 14.5 -92.5s23.667 -49.667 42 -66
s39.5 -24.5 63.5 -24.5z" />
    <glyph glyph-name="uni2081" unicode="&#x2081;" 
d="M213 247l-131 -60l-6 30l140 66h30v-408h-33v372z" />
    <glyph glyph-name="uni2082" unicode="&#x2082;" 
d="M66 -125l-0.000976562 30c28.667 24.667 52 45.5 70 62.5s36 35.167 54 54.5c30.667 31.333 52.5 58.833 65.5 82.5s19.5 47.167 19.5 70.5c0 26 -8.33301 46.833 -25 62.5s-39.334 23.5 -68.001 23.5c-44 0 -81 -16.667 -111 -50l-10 30
c13.333 15.333 31.333 27.833 54 37.5s45.334 14.5 68.001 14.5c37.333 0 67.5 -10.5 90.5 -31.5s34.5 -48.167 34.5 -81.5c0 -28.667 -7 -56.167 -21 -82.5s-38 -57.833 -72 -94.5c-21.333 -23.333 -55.666 -55.333 -102.999 -96h212v-32h-258z" />
    <glyph glyph-name="uni2083" unicode="&#x2083;" 
d="M172 -135c-20 0 -40.1689 2.66699 -60.502 8s-37.166 12.666 -50.499 21.999l4 30c16.667 -10.667 33.334 -18.5 50.001 -23.5s35.334 -7.5 56.001 -7.5c34.667 0 61.5 8.83301 80.5 26.5s28.5 42.5 28.5 74.5c0 28.667 -9.5 50.834 -28.5 66.501s-45.5 23.5 -79.5 23.5
c-16 0 -29.667 -2.33301 -41 -7l-9 21l142 154h-192v30h230v-29l-131 -142c2 0.666992 4 1 6 1h5c38.667 0 70.167 -11 94.5 -33s36.5 -50.333 36.5 -85c0 -40 -12.833 -71.667 -38.5 -95s-59.834 -35 -102.501 -35z" />
    <glyph glyph-name="uni2084" unicode="&#x2084;" 
d="M250 -14h-204v30l200 267h35v-269h58v-28h-58v-111h-31v111zM250 14v226l-170 -226h170z" />
    <glyph glyph-name="uni2085" unicode="&#x2085;" 
d="M184 -135c-20 0 -40.168 2.66797 -60.501 8.00098s-37.166 12.666 -50.499 21.999l4 31c18 -10.667 35.333 -18.5 52 -23.5s34.667 -7.5 54 -7.5c34.667 0 61.334 9.16699 80.001 27.5s28 44.166 28 77.499c0 29.333 -10.5 52.5 -31.5 69.5s-49.167 25.5 -84.5 25.5
s-63.333 -5.66699 -84 -17l7 205h202v-33h-174l-4 -133c17.333 5.33301 36 8 56 8c44 0 79.5 -11.5 106.5 -34.5s40.5 -53.167 40.5 -90.5c0 -41.333 -12.833 -74.166 -38.5 -98.499s-59.834 -36.5 -102.501 -36.5z" />
    <glyph glyph-name="uni2086" unicode="&#x2086;" 
d="M192 -135c-38 0 -69.667 12.832 -95 38.499s-38 57.834 -38 96.501c0 49.333 15.5 100.5 46.5 153.5s71.5 97.167 121.5 132.5l42 -4c-37.333 -24.667 -71 -55 -101 -91s-52 -72.333 -66 -109c26 28 59 42 99 42c37.333 0 68.5 -12 93.5 -36s37.5 -54 37.5 -90
c0 -38.667 -13.167 -70.5 -39.5 -95.5s-59.833 -37.5 -100.5 -37.5zM195 -106.001c30.667 0 55.833 9.33301 75.5 28s29.5 42.667 29.5 72c0 32 -9.33301 56.833 -28 74.5s-44.334 26.5 -77.001 26.5c-30 0 -55 -9.16699 -75 -27.5s-30 -41.5 -30 -69.5
c0 -30.667 9.83301 -55.667 29.5 -75s44.834 -29 75.501 -29z" />
    <glyph glyph-name="uni2087" unicode="&#x2087;" 
d="M112 -125l173 374h-219v34h255v-30l-176 -380z" />
    <glyph glyph-name="uni2088" unicode="&#x2088;" 
d="M195 -135c-39.333 0 -72.3311 11.168 -98.998 33.501s-40 50.166 -40 83.499c0 24 7.66699 45.5 23 64.5s36.333 32.5 63 40.5c-22.667 8 -40.667 21.333 -54 40s-20 39.667 -20 63c0 30 12 54.667 36 74s54.333 29 91 29c35.333 0 64.666 -9.83301 87.999 -29.5
s35 -44.167 35 -73.5c0 -23.333 -6.33301 -44.166 -19 -62.499s-30 -31.833 -52 -40.5c25.333 -8 45.5 -21.5 60.5 -40.5s22.5 -40.5 22.5 -64.5c0 -21.333 -5.5 -40.833 -16.5 -58.5s-26.833 -31.834 -47.5 -42.501s-44.334 -16 -71.001 -16zM195.002 -106.999
c30.667 0 55.332 8.33301 73.999 25s28 38.334 28 65.001c0 26 -9.66699 47.5 -29 64.5s-43.666 25.5 -72.999 25.5c-30.667 0 -56 -8.5 -76 -25.5s-30 -38.5 -30 -64.5c0 -26.667 9.83301 -48.334 29.5 -65.001s45.167 -25 76.5 -25zM195 100.001
c26.667 0 48.5 8.33301 65.5 25s25.5 38 25.5 64c0 22.667 -8.5 41.167 -25.5 55.5s-38.833 21.5 -65.5 21.5c-28.667 0 -51.667 -7 -69 -21s-26 -32.667 -26 -56c0 -25.333 9 -46.5 27 -63.5s40.667 -25.5 68 -25.5z" />
    <glyph glyph-name="uni2089" unicode="&#x2089;" 
d="M120 -124c37.333 24.667 71 55.001 101 91.001s52 72 66 108c-12.667 -13.333 -27.667 -23.5 -45 -30.5s-35.333 -10.5 -54 -10.5c-37.333 0 -68.5 12 -93.5 36s-37.5 54 -37.5 90c0 38.667 13.167 70.5 39.5 95.5s59.833 37.5 100.5 37.5c38 0 69.667 -12.833 95 -38.5
s38 -57.834 38 -96.501c0 -49.333 -15.5 -100.5 -46.5 -153.5s-71.5 -97.167 -121.5 -132.5zM194 63.001c30 0 55.001 9.16699 75.001 27.5s30 41.5 30 69.5c0 30.667 -9.83301 55.667 -29.5 75s-44.834 29 -75.501 29s-55.834 -9.33301 -75.501 -28
s-29.5 -42.667 -29.5 -72c0 -32 9.33301 -56.833 28 -74.5s44.334 -26.5 77.001 -26.5z" />
    <glyph glyph-name="Euro" unicode="&#x20ac;" horiz-adv-x="620" 
d="M446 -11c-73.333 0 -135.166 24.835 -185.499 74.502s-83.166 118.167 -98.499 205.5h-112v32h107c-2.66699 21.333 -4 48.666 -4 81.999c0 10 0.333008 20 1 30l2 30h-106v32h110c14.667 90 47.167 160 97.5 210s113.166 75 188.499 75c48.667 0 93.667 -12 135 -36
l-8 -35c-38.667 23.333 -81.667 35 -129 35c-64 0 -117.667 -21.833 -161 -65.5s-72 -104.834 -86 -183.501h289v-32h-293l-2 -29c-0.666992 -10 -1 -19.667 -1 -29c0 -31.333 1.66699 -59.333 5 -84h291v-32h-286c14.667 -76.667 43.5 -136.5 86.5 -179.5
s96.167 -64.5 159.5 -64.5c45.333 0 89.666 11.667 132.999 35l5 -36c-41.333 -23.333 -87.333 -35 -138 -35z" />
    <glyph glyph-name="uni20BA" unicode="&#x20ba;" horiz-adv-x="620" 
d="M234 -10c-26.667 0 -52.666 3.33105 -77.999 9.99805v299l-106 -49v33l106 49v134l-106 -49v33l106 49v245h38v-228l237 111v-33l-237 -111v-134l237 111v-33l-237 -111v-285c10.667 -2.66699 26.334 -4 47.001 -4c50.667 0 96 11.333 136 34s72 55.334 96 98.001
s37.667 93 41 151l37 -6c-2.66699 -61.333 -17.334 -115.666 -44.001 -162.999s-63.334 -84.333 -110.001 -111s-101 -40 -163 -40z" />
    <glyph glyph-name="trademark" unicode="&#x2122;" horiz-adv-x="845" 
d="M406 760h41l132 -274l130 274h41l18 -370h-34l-15 323l-122 -259h-37l-124 256l-14 -320h-34zM157 729h-122v31h278v-31h-122v-339h-34v339z" />
    <glyph glyph-name="Omega" unicode="&#x2126;" horiz-adv-x="932" 
d="M105 35h219.997c-69.333 38.667 -123.166 90.5 -161.499 155.5s-57.5 137.167 -57.5 216.5c0 68 14.833 129.833 44.5 185.5s71.834 100.167 126.501 133.5s117 50 187 50c66.667 0 127.334 -15.167 182.001 -45.5s98.167 -73.666 130.5 -129.999
s48.5 -120.833 48.5 -193.5c0 -78.667 -19.167 -150.834 -57.5 -216.501s-91.833 -117.5 -160.5 -155.5h219v-35h-291v28c78 36.667 139.167 88.167 183.5 154.5s66.5 139.833 66.5 220.5c0 63.333 -13.167 120.333 -39.5 171s-63.833 90.667 -112.5 120s-105 44 -169 44
c-59.333 0 -113 -13.833 -161 -41.5s-86.167 -67 -114.5 -118s-42.5 -109.5 -42.5 -175.5c0 -80.667 22.167 -154.167 66.5 -220.5s105.5 -117.833 183.5 -154.5v-28h-291v35z" />
    <glyph glyph-name="uni2150" unicode="&#x2150;" horiz-adv-x="931" 
d="M719 744h44l-590 -744h-44zM657 0l173 374h-219v34h255v-30l-176 -380zM213 708l-131 -60l-6 30l140 66h30v-408h-33v372z" />
    <glyph glyph-name="uni2151" unicode="&#x2151;" horiz-adv-x="931" 
d="M726 744h44l-590 -744h-44zM665 1c37.333 24.667 71 55.001 101 91.001s52 72 66 108c-12.667 -13.333 -27.667 -23.5 -45 -30.5s-35.333 -10.5 -54 -10.5c-37.333 0 -68.5 12 -93.5 36s-37.5 54 -37.5 90c0 38.667 13.167 70.5 39.5 95.5s59.833 37.5 100.5 37.5
c38 0 69.667 -12.833 95 -38.5s38 -57.834 38 -96.501c0 -49.333 -15.5 -100.5 -46.5 -153.5s-71.5 -97.167 -121.5 -132.5zM739 188.001c30 0 55.001 9.16699 75.001 27.5s30 41.5 30 69.5c0 30.667 -9.83301 55.667 -29.5 75s-44.834 29 -75.501 29
s-55.834 -9.33301 -75.501 -28s-29.5 -42.667 -29.5 -72c0 -32 9.33301 -56.833 28 -74.5s44.334 -26.5 77.001 -26.5zM213.001 708.001l-131 -60l-6 30l140 66h30v-408h-33v372z" />
    <glyph glyph-name="onethird" unicode="&#x2153;" horiz-adv-x="931" 
d="M721 744h44l-590 -744h-44zM717 -10c-20 0 -40.1689 2.66699 -60.502 8s-37.166 12.666 -50.499 21.999l4 30c16.667 -10.667 33.334 -18.5 50.001 -23.5s35.334 -7.5 56.001 -7.5c34.667 0 61.5 8.83301 80.5 26.5s28.5 42.5 28.5 74.5
c0 28.667 -9.5 50.834 -28.5 66.501s-45.5 23.5 -79.5 23.5c-16 0 -29.667 -2.33301 -41 -7l-9 21l142 154h-192v30h230v-29l-131 -142c2 0.666992 4 1 6 1h5c38.667 0 70.167 -11 94.5 -33s36.5 -50.333 36.5 -85c0 -40 -12.833 -71.667 -38.5 -95
s-59.834 -35 -102.501 -35zM212.998 708l-131 -60l-6 30l140 66h30v-408h-33v372z" />
    <glyph glyph-name="twothirds" unicode="&#x2154;" horiz-adv-x="931" 
d="M731 744h44l-590 -744h-44zM717 -10c-20 0 -40.1689 2.66699 -60.502 8s-37.166 12.666 -50.499 21.999l4 30c16.667 -10.667 33.334 -18.5 50.001 -23.5s35.334 -7.5 56.001 -7.5c34.667 0 61.5 8.83301 80.5 26.5s28.5 42.5 28.5 74.5
c0 28.667 -9.5 50.834 -28.5 66.501s-45.5 23.5 -79.5 23.5c-16 0 -29.667 -2.33301 -41 -7l-9 21l142 154h-192v30h230v-29l-131 -142c2 0.666992 4 1 6 1h5c38.667 0 70.167 -11 94.5 -33s36.5 -50.333 36.5 -85c0 -40 -12.833 -71.667 -38.5 -95
s-59.834 -35 -102.501 -35zM65.998 336l-0.000976562 30c28.667 24.667 52 45.5 70 62.5s36 35.167 54 54.5c30.667 31.333 52.5 58.833 65.5 82.5s19.5 47.167 19.5 70.5c0 26 -8.33301 46.833 -25 62.5s-39.334 23.5 -68.001 23.5c-44 0 -81 -16.667 -111 -50l-10 30
c13.333 15.333 31.333 27.833 54 37.5s45.334 14.5 68.001 14.5c37.333 0 67.5 -10.5 90.5 -31.5s34.5 -48.167 34.5 -81.5c0 -28.667 -7 -56.167 -21 -82.5s-38 -57.833 -72 -94.5c-21.333 -23.333 -55.666 -55.333 -102.999 -96h212v-32h-258z" />
    <glyph glyph-name="uni2155" unicode="&#x2155;" horiz-adv-x="931" 
d="M731 744h44l-590 -744h-44zM729 -10c-20 0 -40.168 2.66797 -60.501 8.00098s-37.166 12.666 -50.499 21.999l4 31c18 -10.667 35.333 -18.5 52 -23.5s34.667 -7.5 54 -7.5c34.667 0 61.334 9.16699 80.001 27.5s28 44.166 28 77.499c0 29.333 -10.5 52.5 -31.5 69.5
s-49.167 25.5 -84.5 25.5s-63.333 -5.66699 -84 -17l7 205h202v-33h-174l-4 -133c17.333 5.33301 36 8 56 8c44 0 79.5 -11.5 106.5 -34.5s40.5 -53.167 40.5 -90.5c0 -41.333 -12.833 -74.166 -38.5 -98.499s-59.834 -36.5 -102.501 -36.5zM212.999 708.001l-131 -60l-6 30
l140 66h30v-408h-33v372z" />
    <glyph glyph-name="uni2156" unicode="&#x2156;" horiz-adv-x="931" 
d="M752 744h44l-590 -744h-44zM729 -10c-20 0 -40.168 2.66797 -60.501 8.00098s-37.166 12.666 -50.499 21.999l4 31c18 -10.667 35.333 -18.5 52 -23.5s34.667 -7.5 54 -7.5c34.667 0 61.334 9.16699 80.001 27.5s28 44.166 28 77.499c0 29.333 -10.5 52.5 -31.5 69.5
s-49.167 25.5 -84.5 25.5s-63.333 -5.66699 -84 -17l7 205h202v-33h-174l-4 -133c17.333 5.33301 36 8 56 8c44 0 79.5 -11.5 106.5 -34.5s40.5 -53.167 40.5 -90.5c0 -41.333 -12.833 -74.166 -38.5 -98.499s-59.834 -36.5 -102.501 -36.5zM65.999 336.001l-0.000976562 30
c28.667 24.667 52 45.5 70 62.5s36 35.167 54 54.5c30.667 31.333 52.5 58.833 65.5 82.5s19.5 47.167 19.5 70.5c0 26 -8.33301 46.833 -25 62.5s-39.334 23.5 -68.001 23.5c-44 0 -81 -16.667 -111 -50l-10 30c13.333 15.333 31.333 27.833 54 37.5
s45.334 14.5 68.001 14.5c37.333 0 67.5 -10.5 90.5 -31.5s34.5 -48.167 34.5 -81.5c0 -28.667 -7 -56.167 -21 -82.5s-38 -57.833 -72 -94.5c-21.333 -23.333 -55.666 -55.333 -102.999 -96h212v-32h-258z" />
    <glyph glyph-name="uni2157" unicode="&#x2157;" horiz-adv-x="931" 
d="M726 744h44l-590 -744h-44zM729 -10c-20 0 -40.168 2.66797 -60.501 8.00098s-37.166 12.666 -50.499 21.999l4 31c18 -10.667 35.333 -18.5 52 -23.5s34.667 -7.5 54 -7.5c34.667 0 61.334 9.16699 80.001 27.5s28 44.166 28 77.499c0 29.333 -10.5 52.5 -31.5 69.5
s-49.167 25.5 -84.5 25.5s-63.333 -5.66699 -84 -17l7 205h202v-33h-174l-4 -133c17.333 5.33301 36 8 56 8c44 0 79.5 -11.5 106.5 -34.5s40.5 -53.167 40.5 -90.5c0 -41.333 -12.833 -74.166 -38.5 -98.499s-59.834 -36.5 -102.501 -36.5zM171.999 326.001
c-20 0 -40.1689 2.66699 -60.502 8s-37.166 12.666 -50.499 21.999l4 30c16.667 -10.667 33.334 -18.5 50.001 -23.5s35.334 -7.5 56.001 -7.5c34.667 0 61.5 8.83301 80.5 26.5s28.5 42.5 28.5 74.5c0 28.667 -9.5 50.834 -28.5 66.501s-45.5 23.5 -79.5 23.5
c-16 0 -29.667 -2.33301 -41 -7l-9 21l142 154h-192v30h230v-29l-131 -142c2 0.666992 4 1 6 1h5c38.667 0 70.167 -11 94.5 -33s36.5 -50.333 36.5 -85c0 -40 -12.833 -71.667 -38.5 -95s-59.834 -35 -102.501 -35z" />
    <glyph glyph-name="uni2158" unicode="&#x2158;" horiz-adv-x="931" 
d="M741 744h44l-590 -744h-44zM729 -10c-20 0 -40.168 2.66797 -60.501 8.00098s-37.166 12.666 -50.499 21.999l4 31c18 -10.667 35.333 -18.5 52 -23.5s34.667 -7.5 54 -7.5c34.667 0 61.334 9.16699 80.001 27.5s28 44.166 28 77.499c0 29.333 -10.5 52.5 -31.5 69.5
s-49.167 25.5 -84.5 25.5s-63.333 -5.66699 -84 -17l7 205h202v-33h-174l-4 -133c17.333 5.33301 36 8 56 8c44 0 79.5 -11.5 106.5 -34.5s40.5 -53.167 40.5 -90.5c0 -41.333 -12.833 -74.166 -38.5 -98.499s-59.834 -36.5 -102.501 -36.5zM249.999 447.001h-204v30
l200 267h35v-269h58v-28h-58v-111h-31v111zM249.999 475.001v226l-170 -226h170z" />
    <glyph glyph-name="uni2159" unicode="&#x2159;" horiz-adv-x="931" 
d="M747 744h44l-590 -744h-44zM737 -10c-38 0 -69.667 12.832 -95 38.499s-38 57.834 -38 96.501c0 49.333 15.5 100.5 46.5 153.5s71.5 97.167 121.5 132.5l42 -4c-37.333 -24.667 -71 -55 -101 -91s-52 -72.333 -66 -109c26 28 59 42 99 42c37.333 0 68.5 -12 93.5 -36
s37.5 -54 37.5 -90c0 -38.667 -13.167 -70.5 -39.5 -95.5s-59.833 -37.5 -100.5 -37.5zM740 18.999c30.667 0 55.833 9.33301 75.5 28s29.5 42.667 29.5 72c0 32 -9.33301 56.833 -28 74.5s-44.334 26.5 -77.001 26.5c-30 0 -55 -9.16699 -75 -27.5s-30 -41.5 -30 -69.5
c0 -30.667 9.83301 -55.667 29.5 -75s44.834 -29 75.501 -29zM212.999 707.999l-131 -60l-6 30l140 66h30v-408h-33v372z" />
    <glyph glyph-name="uni215A" unicode="&#x215a;" horiz-adv-x="931" 
d="M761 744h44l-590 -744h-44zM737 -10c-38 0 -69.667 12.832 -95 38.499s-38 57.834 -38 96.501c0 49.333 15.5 100.5 46.5 153.5s71.5 97.167 121.5 132.5l42 -4c-37.333 -24.667 -71 -55 -101 -91s-52 -72.333 -66 -109c26 28 59 42 99 42c37.333 0 68.5 -12 93.5 -36
s37.5 -54 37.5 -90c0 -38.667 -13.167 -70.5 -39.5 -95.5s-59.833 -37.5 -100.5 -37.5zM740 18.999c30.667 0 55.833 9.33301 75.5 28s29.5 42.667 29.5 72c0 32 -9.33301 56.833 -28 74.5s-44.334 26.5 -77.001 26.5c-30 0 -55 -9.16699 -75 -27.5s-30 -41.5 -30 -69.5
c0 -30.667 9.83301 -55.667 29.5 -75s44.834 -29 75.501 -29zM183.999 325.999c-20 0 -40.168 2.66797 -60.501 8.00098s-37.166 12.666 -50.499 21.999l4 31c18 -10.667 35.333 -18.5 52 -23.5s34.667 -7.5 54 -7.5c34.667 0 61.334 9.16699 80.001 27.5
s28 44.166 28 77.499c0 29.333 -10.5 52.5 -31.5 69.5s-49.167 25.5 -84.5 25.5s-63.333 -5.66699 -84 -17l7 205h202v-33h-174l-4 -133c17.333 5.33301 36 8 56 8c44 0 79.5 -11.5 106.5 -34.5s40.5 -53.167 40.5 -90.5c0 -41.333 -12.833 -74.166 -38.5 -98.499
s-59.834 -36.5 -102.501 -36.5z" />
    <glyph glyph-name="oneeighth" unicode="&#x215b;" horiz-adv-x="931" 
d="M721 744h44l-590 -744h-44zM740 -10c-39.333 0 -72.3311 11.168 -98.998 33.501s-40 50.166 -40 83.499c0 24 7.66699 45.5 23 64.5s36.333 32.5 63 40.5c-22.667 8 -40.667 21.333 -54 40s-20 39.667 -20 63c0 30 12 54.667 36 74s54.333 29 91 29
c35.333 0 64.666 -9.83301 87.999 -29.5s35 -44.167 35 -73.5c0 -23.333 -6.33301 -44.166 -19 -62.499s-30 -31.833 -52 -40.5c25.333 -8 45.5 -21.5 60.5 -40.5s22.5 -40.5 22.5 -64.5c0 -21.333 -5.5 -40.833 -16.5 -58.5s-26.833 -31.834 -47.5 -42.501
s-44.334 -16 -71.001 -16zM740.002 18.001c30.667 0 55.332 8.33301 73.999 25s28 38.334 28 65.001c0 26 -9.66699 47.5 -29 64.5s-43.666 25.5 -72.999 25.5c-30.667 0 -56 -8.5 -76 -25.5s-30 -38.5 -30 -64.5c0 -26.667 9.83301 -48.334 29.5 -65.001
s45.167 -25 76.5 -25zM740 225.001c26.667 0 48.5 8.33301 65.5 25s25.5 38 25.5 64c0 22.667 -8.5 41.167 -25.5 55.5s-38.833 21.5 -65.5 21.5c-28.667 0 -51.667 -7 -69 -21s-26 -32.667 -26 -56c0 -25.333 9 -46.5 27 -63.5s40.667 -25.5 68 -25.5zM213 708.001
l-131 -60l-6 30l140 66h30v-408h-33v372z" />
    <glyph glyph-name="threeeighths" unicode="&#x215c;" horiz-adv-x="931" 
d="M725 744h44l-590 -744h-44zM740 -10c-39.333 0 -72.3311 11.168 -98.998 33.501s-40 50.166 -40 83.499c0 24 7.66699 45.5 23 64.5s36.333 32.5 63 40.5c-22.667 8 -40.667 21.333 -54 40s-20 39.667 -20 63c0 30 12 54.667 36 74s54.333 29 91 29
c35.333 0 64.666 -9.83301 87.999 -29.5s35 -44.167 35 -73.5c0 -23.333 -6.33301 -44.166 -19 -62.499s-30 -31.833 -52 -40.5c25.333 -8 45.5 -21.5 60.5 -40.5s22.5 -40.5 22.5 -64.5c0 -21.333 -5.5 -40.833 -16.5 -58.5s-26.833 -31.834 -47.5 -42.501
s-44.334 -16 -71.001 -16zM740.002 18.001c30.667 0 55.332 8.33301 73.999 25s28 38.334 28 65.001c0 26 -9.66699 47.5 -29 64.5s-43.666 25.5 -72.999 25.5c-30.667 0 -56 -8.5 -76 -25.5s-30 -38.5 -30 -64.5c0 -26.667 9.83301 -48.334 29.5 -65.001
s45.167 -25 76.5 -25zM740 225.001c26.667 0 48.5 8.33301 65.5 25s25.5 38 25.5 64c0 22.667 -8.5 41.167 -25.5 55.5s-38.833 21.5 -65.5 21.5c-28.667 0 -51.667 -7 -69 -21s-26 -32.667 -26 -56c0 -25.333 9 -46.5 27 -63.5s40.667 -25.5 68 -25.5zM172 326.001
c-20 0 -40.1689 2.66699 -60.502 8s-37.166 12.666 -50.499 21.999l4 30c16.667 -10.667 33.334 -18.5 50.001 -23.5s35.334 -7.5 56.001 -7.5c34.667 0 61.5 8.83301 80.5 26.5s28.5 42.5 28.5 74.5c0 28.667 -9.5 50.834 -28.5 66.501s-45.5 23.5 -79.5 23.5
c-16 0 -29.667 -2.33301 -41 -7l-9 21l142 154h-192v30h230v-29l-131 -142c2 0.666992 4 1 6 1h5c38.667 0 70.167 -11 94.5 -33s36.5 -50.333 36.5 -85c0 -40 -12.833 -71.667 -38.5 -95s-59.834 -35 -102.501 -35z" />
    <glyph glyph-name="fiveeighths" unicode="&#x215d;" horiz-adv-x="931" 
d="M735 744h44l-590 -744h-44zM740 -10c-39.333 0 -72.3311 11.168 -98.998 33.501s-40 50.166 -40 83.499c0 24 7.66699 45.5 23 64.5s36.333 32.5 63 40.5c-22.667 8 -40.667 21.333 -54 40s-20 39.667 -20 63c0 30 12 54.667 36 74s54.333 29 91 29
c35.333 0 64.666 -9.83301 87.999 -29.5s35 -44.167 35 -73.5c0 -23.333 -6.33301 -44.166 -19 -62.499s-30 -31.833 -52 -40.5c25.333 -8 45.5 -21.5 60.5 -40.5s22.5 -40.5 22.5 -64.5c0 -21.333 -5.5 -40.833 -16.5 -58.5s-26.833 -31.834 -47.5 -42.501
s-44.334 -16 -71.001 -16zM740.002 18.001c30.667 0 55.332 8.33301 73.999 25s28 38.334 28 65.001c0 26 -9.66699 47.5 -29 64.5s-43.666 25.5 -72.999 25.5c-30.667 0 -56 -8.5 -76 -25.5s-30 -38.5 -30 -64.5c0 -26.667 9.83301 -48.334 29.5 -65.001
s45.167 -25 76.5 -25zM740 225.001c26.667 0 48.5 8.33301 65.5 25s25.5 38 25.5 64c0 22.667 -8.5 41.167 -25.5 55.5s-38.833 21.5 -65.5 21.5c-28.667 0 -51.667 -7 -69 -21s-26 -32.667 -26 -56c0 -25.333 9 -46.5 27 -63.5s40.667 -25.5 68 -25.5zM184 326.001
c-20 0 -40.168 2.66797 -60.501 8.00098s-37.166 12.666 -50.499 21.999l4 31c18 -10.667 35.333 -18.5 52 -23.5s34.667 -7.5 54 -7.5c34.667 0 61.334 9.16699 80.001 27.5s28 44.166 28 77.499c0 29.333 -10.5 52.5 -31.5 69.5s-49.167 25.5 -84.5 25.5
s-63.333 -5.66699 -84 -17l7 205h202v-33h-174l-4 -133c17.333 5.33301 36 8 56 8c44 0 79.5 -11.5 106.5 -34.5s40.5 -53.167 40.5 -90.5c0 -41.333 -12.833 -74.166 -38.5 -98.499s-59.834 -36.5 -102.501 -36.5z" />
    <glyph glyph-name="seveneighths" unicode="&#x215e;" horiz-adv-x="931" 
d="M681 744h44l-590 -744h-44zM740 -10c-39.333 0 -72.3311 11.168 -98.998 33.501s-40 50.166 -40 83.499c0 24 7.66699 45.5 23 64.5s36.333 32.5 63 40.5c-22.667 8 -40.667 21.333 -54 40s-20 39.667 -20 63c0 30 12 54.667 36 74s54.333 29 91 29
c35.333 0 64.666 -9.83301 87.999 -29.5s35 -44.167 35 -73.5c0 -23.333 -6.33301 -44.166 -19 -62.499s-30 -31.833 -52 -40.5c25.333 -8 45.5 -21.5 60.5 -40.5s22.5 -40.5 22.5 -64.5c0 -21.333 -5.5 -40.833 -16.5 -58.5s-26.833 -31.834 -47.5 -42.501
s-44.334 -16 -71.001 -16zM740.002 18.001c30.667 0 55.332 8.33301 73.999 25s28 38.334 28 65.001c0 26 -9.66699 47.5 -29 64.5s-43.666 25.5 -72.999 25.5c-30.667 0 -56 -8.5 -76 -25.5s-30 -38.5 -30 -64.5c0 -26.667 9.83301 -48.334 29.5 -65.001
s45.167 -25 76.5 -25zM740 225.001c26.667 0 48.5 8.33301 65.5 25s25.5 38 25.5 64c0 22.667 -8.5 41.167 -25.5 55.5s-38.833 21.5 -65.5 21.5c-28.667 0 -51.667 -7 -69 -21s-26 -32.667 -26 -56c0 -25.333 9 -46.5 27 -63.5s40.667 -25.5 68 -25.5zM112 336.001l173 374
h-219v34h255v-30l-176 -380z" />
    <glyph glyph-name="partialdiff" unicode="&#x2202;" horiz-adv-x="608" 
d="M251 -16c-40 0 -75.833 8.99902 -107.5 26.999s-56.667 43.333 -75 76s-27.5 70.667 -27.5 114c0 44.667 10.333 85.834 31 123.501s49.834 68 87.501 91s80.167 34.5 127.5 34.5c52 0 95.667 -13.167 131 -39.5s58.666 -63.166 69.999 -110.499
c4.66699 28.667 7 68 7 118c0 101.333 -18.5 178 -55.5 230s-91.167 78 -162.5 78c-26.667 0 -53.5 -6 -80.5 -18s-50.167 -28.333 -69.5 -49l-6 36c21.333 20 46.5 35.833 75.5 47.5s57.833 17.5 86.5 17.5c78.667 0 139.667 -29.5 183 -88.5s65 -141.833 65 -248.5
c0 -90 -11 -167.833 -33 -233.5s-54 -116.334 -96 -152.001s-92.333 -53.5 -151 -53.5zM252 17.999c35.333 0 69.1641 10 101.497 30s59 47.5 80 82.5s31.5 72.5 31.5 112.5c0 33.333 -7.16699 63 -21.5 89s-35.166 46.5 -62.499 61.5s-58.666 22.5 -93.999 22.5
c-36.667 0 -70.667 -9 -102 -27s-56.666 -43.667 -75.999 -77s-29 -70.333 -29 -111c0 -54 15.833 -98 47.5 -132s73.167 -51 124.5 -51z" />
    <glyph glyph-name="Delta" unicode="&#x2206;" horiz-adv-x="738" 
d="M346 760h45l314 -760h-672zM646 34l-278 686l-280 -686h558z" />
    <glyph glyph-name="product" unicode="&#x220f;" horiz-adv-x="742" 
d="M135 760h472v-840h-40v802h-392v-802h-40v840z" />
    <glyph glyph-name="summation" unicode="&#x2211;" horiz-adv-x="561" 
d="M45 -44l277 395l-260 373v36h438v-36h-391l258 -371l-278 -396h417v-36h-461v35z" />
    <glyph glyph-name="minus" unicode="&#x2212;" horiz-adv-x="620" 
d="M92 354h435v-34h-435v34z" />
    <glyph glyph-name="uni2215" unicode="&#x2215;" horiz-adv-x="159" 
d="M352 744h44l-590 -744h-44z" />
    <glyph glyph-name="uni2219" unicode="&#x2219;" horiz-adv-x="290" 
d="M145 348c-9.33301 0 -17.166 3 -23.499 9s-9.5 14 -9.5 24s3.16699 18 9.5 24s14.166 9 23.499 9s17.166 -3 23.499 -9s9.5 -14 9.5 -24s-3.16699 -18 -9.5 -24s-14.166 -9 -23.499 -9z" />
    <glyph glyph-name="radical" unicode="&#x221a;" horiz-adv-x="646" 
d="M139 409h-99v37h123l167 -410l299 774h38l-316 -810h-42z" />
    <glyph glyph-name="infinity" unicode="&#x221e;" horiz-adv-x="724" 
d="M202 187c-44 0 -80.333 15 -109 45s-43 68.333 -43 115s14.333 85 43 115s65 45 109 45c35.333 0 67 -9.66699 95 -29s49.667 -47 65 -83c16.667 36.667 38.667 64.5 66 83.5s58.666 28.5 93.999 28.5c44 0 80.333 -15 109 -45s43 -68.333 43 -115s-14.333 -85 -43 -115
s-65 -45 -109 -45c-36 0 -67.5 9.5 -94.5 28.5s-49.167 46.833 -66.5 83.5c-16 -36 -37.667 -63.667 -65 -83s-58.666 -29 -93.999 -29zM520 220c35.333 0 63.834 11.668 85.501 35.001s32.5 54 32.5 92s-10.833 68.667 -32.5 92s-50.167 35 -85.5 35
c-32.667 0 -61.5 -11 -86.5 -33s-43.5 -52.667 -55.5 -92c12.667 -42.667 31.167 -74.834 55.5 -96.501s53.166 -32.5 86.499 -32.5zM204.001 220.001c32.667 0 61.499 11 86.499 33s43.5 52.667 55.5 92c-12.667 42 -31.167 74 -55.5 96s-53.166 33 -86.499 33
c-35.333 0 -63.833 -11.667 -85.5 -35s-32.5 -54 -32.5 -92s10.833 -68.667 32.5 -92s50.167 -35 85.5 -35z" />
    <glyph glyph-name="integral" unicode="&#x222b;" horiz-adv-x="354" 
d="M53 -254c-33.333 0 -62.666 6.00098 -87.999 18.001l7 36c11.333 -5.33301 24.833 -9.5 40.5 -12.5s30.167 -4.5 43.5 -4.5c32 0 55.667 11.5 71 34.5s23 58.167 23 105.5c0 16 -0.333008 28 -1 36l-46 652c-0.666992 7.33301 -1 19 -1 35
c0 57.333 11.5 100.833 34.5 130.5s56.833 44.5 101.5 44.5c33.333 0 62.666 -6 87.999 -18l-7 -36c-11.333 5.33301 -24.833 9.5 -40.5 12.5s-30.167 4.5 -43.5 4.5c-32 0 -55.667 -11.5 -71 -34.5s-23 -58.167 -23 -105.5c0 -15.333 0.333008 -27.333 1 -36l46 -652
c0.666992 -8.66699 1 -20.334 1 -35.001c0 -57.333 -11.5 -100.833 -34.5 -130.5s-56.833 -44.5 -101.5 -44.5z" />
    <glyph glyph-name="approxequal" unicode="&#x2248;" horiz-adv-x="620" 
d="M428 141c-18 0 -35.502 4.16992 -52.502 12.5029s-39.833 24.166 -68.5 47.499c-30.667 25.333 -53.5 42.166 -68.5 50.499s-30.167 12.5 -45.5 12.5c-25.333 0 -44 -10 -56 -30s-18 -51 -18 -93h-33v14c0 45.333 9.33301 80.666 28 105.999s44.334 38 77.001 38
c18.667 0 37.334 -4.5 56.001 -13.5s40.667 -24.167 66 -45.5c28.667 -24.667 51 -41.5 67 -50.5s32 -13.5 48 -13.5c24.667 0 43 9.83301 55 29.5s18 50.834 18 93.501h33v-14c0 -44.667 -9.33301 -79.834 -28 -105.501s-44.667 -38.5 -78 -38.5zM427.998 396.003
c-18 0 -35.502 4.16992 -52.502 12.5029s-39.833 24.166 -68.5 47.499c-30.667 25.333 -53.5 42.166 -68.5 50.499s-30.167 12.5 -45.5 12.5c-25.333 0 -44 -10 -56 -30s-18 -51 -18 -93h-33v14c0 45.333 9.33301 80.666 28 105.999s44.334 38 77.001 38
c18.667 0 37.334 -4.5 56.001 -13.5s40.667 -24.167 66 -45.5c28.667 -24.667 51 -41.5 67 -50.5s32 -13.5 48 -13.5c24.667 0 43 9.83301 55 29.5s18 50.834 18 93.501h33v-14c0 -44.667 -9.33301 -79.834 -28 -105.501s-44.667 -38.5 -78 -38.5z" />
    <glyph glyph-name="notequal" unicode="&#x2260;" horiz-adv-x="620" 
d="M221 207h-114v34h133l108 191h-241v34h260l78 138h38l-78 -138h108v-34h-127l-108 -191h235v-34h-254l-80 -143h-38z" />
    <glyph glyph-name="lessequal" unicode="&#x2264;" horiz-adv-x="620" 
d="M93 35h435v-34h-435v34zM111 320v33l398 199v-38l-354 -176l354 -176v-40z" />
    <glyph glyph-name="greaterequal" unicode="&#x2265;" horiz-adv-x="620" 
d="M93 35h435v-34h-435v34zM111 161l354 176l-354 176v40l398 -198v-33l-398 -199v38z" />
    <glyph glyph-name="lozenge" unicode="&#x25ca;" horiz-adv-x="592" 
d="M45 405l231 406h42l229 -406l-229 -405h-42zM507 405l-212 372l-208 -372l208 -370z" />
    <glyph glyph-name="uniF507" unicode="&#xf507;" horiz-adv-x="931" 
d="M739 744h44l-590 -744h-44zM657 0l173 374h-219v34h255v-30l-176 -380zM66 336l-0.000976562 30c28.667 24.667 52 45.5 70 62.5s36 35.167 54 54.5c30.667 31.333 52.5 58.833 65.5 82.5s19.5 47.167 19.5 70.5c0 26 -8.33301 46.833 -25 62.5
s-39.334 23.5 -68.001 23.5c-44 0 -81 -16.667 -111 -50l-10 30c13.333 15.333 31.333 27.833 54 37.5s45.334 14.5 68.001 14.5c37.333 0 67.5 -10.5 90.5 -31.5s34.5 -48.167 34.5 -81.5c0 -28.667 -7 -56.167 -21 -82.5s-38 -57.833 -72 -94.5
c-21.333 -23.333 -55.666 -55.333 -102.999 -96h212v-32h-258z" />
    <glyph glyph-name="uniF508" unicode="&#xf508;" horiz-adv-x="931" 
d="M711 744h44l-590 -744h-44zM657 0l173 374h-219v34h255v-30l-176 -380zM172 326c-20 0 -40.1689 2.66699 -60.502 8s-37.166 12.666 -50.499 21.999l4 30c16.667 -10.667 33.334 -18.5 50.001 -23.5s35.334 -7.5 56.001 -7.5c34.667 0 61.5 8.83301 80.5 26.5
s28.5 42.5 28.5 74.5c0 28.667 -9.5 50.834 -28.5 66.501s-45.5 23.5 -79.5 23.5c-16 0 -29.667 -2.33301 -41 -7l-9 21l142 154h-192v30h230v-29l-131 -142c2 0.666992 4 1 6 1h5c38.667 0 70.167 -11 94.5 -33s36.5 -50.333 36.5 -85c0 -40 -12.833 -71.667 -38.5 -95
s-59.834 -35 -102.501 -35z" />
    <glyph glyph-name="uniF509" unicode="&#xf509;" horiz-adv-x="931" 
d="M713 744h44l-590 -744h-44zM657 0l173 374h-219v34h255v-30l-176 -380zM250 447h-204v30l200 267h35v-269h58v-28h-58v-111h-31v111zM250 475v226l-170 -226h170z" />
    <glyph glyph-name="uniF50A" unicode="&#xf50a;" horiz-adv-x="931" 
d="M714 744h44l-590 -744h-44zM657 0l173 374h-219v34h255v-30l-176 -380zM184 326c-20 0 -40.168 2.66797 -60.501 8.00098s-37.166 12.666 -50.499 21.999l4 31c18 -10.667 35.333 -18.5 52 -23.5s34.667 -7.5 54 -7.5c34.667 0 61.334 9.16699 80.001 27.5
s28 44.166 28 77.499c0 29.333 -10.5 52.5 -31.5 69.5s-49.167 25.5 -84.5 25.5s-63.333 -5.66699 -84 -17l7 205h202v-33h-174l-4 -133c17.333 5.33301 36 8 56 8c44 0 79.5 -11.5 106.5 -34.5s40.5 -53.167 40.5 -90.5c0 -41.333 -12.833 -74.166 -38.5 -98.499
s-59.834 -36.5 -102.501 -36.5z" />
    <glyph glyph-name="uniF50B" unicode="&#xf50b;" horiz-adv-x="931" 
d="M717 744h44l-590 -744h-44zM657 0l173 374h-219v34h255v-30l-176 -380zM192 326c-38 0 -69.667 12.832 -95 38.499s-38 57.834 -38 96.501c0 49.333 15.5 100.5 46.5 153.5s71.5 97.167 121.5 132.5l42 -4c-37.333 -24.667 -71 -55 -101 -91s-52 -72.333 -66 -109
c26 28 59 42 99 42c37.333 0 68.5 -12 93.5 -36s37.5 -54 37.5 -90c0 -38.667 -13.167 -70.5 -39.5 -95.5s-59.833 -37.5 -100.5 -37.5zM195 354.999c30.667 0 55.833 9.33301 75.5 28s29.5 42.667 29.5 72c0 32 -9.33301 56.833 -28 74.5s-44.334 26.5 -77.001 26.5
c-30 0 -55 -9.16699 -75 -27.5s-30 -41.5 -30 -69.5c0 -30.667 9.83301 -55.667 29.5 -75s44.834 -29 75.501 -29z" />
    <glyph glyph-name="uniF50D" unicode="&#xf50d;" horiz-adv-x="931" 
d="M756 744h44l-590 -744h-44zM665 1c37.333 24.667 71 55.001 101 91.001s52 72 66 108c-12.667 -13.333 -27.667 -23.5 -45 -30.5s-35.333 -10.5 -54 -10.5c-37.333 0 -68.5 12 -93.5 36s-37.5 54 -37.5 90c0 38.667 13.167 70.5 39.5 95.5s59.833 37.5 100.5 37.5
c38 0 69.667 -12.833 95 -38.5s38 -57.834 38 -96.501c0 -49.333 -15.5 -100.5 -46.5 -153.5s-71.5 -97.167 -121.5 -132.5zM739 188.001c30 0 55.001 9.16699 75.001 27.5s30 41.5 30 69.5c0 30.667 -9.83301 55.667 -29.5 75s-44.834 29 -75.501 29
s-55.834 -9.33301 -75.501 -28s-29.5 -42.667 -29.5 -72c0 -32 9.33301 -56.833 28 -74.5s44.334 -26.5 77.001 -26.5zM66.001 336.001l-0.000976562 30c28.667 24.667 52 45.5 70 62.5s36 35.167 54 54.5c30.667 31.333 52.5 58.833 65.5 82.5s19.5 47.167 19.5 70.5
c0 26 -8.33301 46.833 -25 62.5s-39.334 23.5 -68.001 23.5c-44 0 -81 -16.667 -111 -50l-10 30c13.333 15.333 31.333 27.833 54 37.5s45.334 14.5 68.001 14.5c37.333 0 67.5 -10.5 90.5 -31.5s34.5 -48.167 34.5 -81.5c0 -28.667 -7 -56.167 -21 -82.5
s-38 -57.833 -72 -94.5c-21.333 -23.333 -55.666 -55.333 -102.999 -96h212v-32h-258z" />
    <glyph glyph-name="uniF50E" unicode="&#xf50e;" horiz-adv-x="931" 
d="M751 744h44l-590 -744h-44zM665 1c37.333 24.667 71 55.001 101 91.001s52 72 66 108c-12.667 -13.333 -27.667 -23.5 -45 -30.5s-35.333 -10.5 -54 -10.5c-37.333 0 -68.5 12 -93.5 36s-37.5 54 -37.5 90c0 38.667 13.167 70.5 39.5 95.5s59.833 37.5 100.5 37.5
c38 0 69.667 -12.833 95 -38.5s38 -57.834 38 -96.501c0 -49.333 -15.5 -100.5 -46.5 -153.5s-71.5 -97.167 -121.5 -132.5zM739 188.001c30 0 55.001 9.16699 75.001 27.5s30 41.5 30 69.5c0 30.667 -9.83301 55.667 -29.5 75s-44.834 29 -75.501 29
s-55.834 -9.33301 -75.501 -28s-29.5 -42.667 -29.5 -72c0 -32 9.33301 -56.833 28 -74.5s44.334 -26.5 77.001 -26.5zM250.001 447.001h-204v30l200 267h35v-269h58v-28h-58v-111h-31v111zM250.001 475.001v226l-170 -226h170z" />
    <glyph glyph-name="uniF50F" unicode="&#xf50f;" horiz-adv-x="931" 
d="M740 744h44l-590 -744h-44zM665 1c37.333 24.667 71 55.001 101 91.001s52 72 66 108c-12.667 -13.333 -27.667 -23.5 -45 -30.5s-35.333 -10.5 -54 -10.5c-37.333 0 -68.5 12 -93.5 36s-37.5 54 -37.5 90c0 38.667 13.167 70.5 39.5 95.5s59.833 37.5 100.5 37.5
c38 0 69.667 -12.833 95 -38.5s38 -57.834 38 -96.501c0 -49.333 -15.5 -100.5 -46.5 -153.5s-71.5 -97.167 -121.5 -132.5zM739 188.001c30 0 55.001 9.16699 75.001 27.5s30 41.5 30 69.5c0 30.667 -9.83301 55.667 -29.5 75s-44.834 29 -75.501 29
s-55.834 -9.33301 -75.501 -28s-29.5 -42.667 -29.5 -72c0 -32 9.33301 -56.833 28 -74.5s44.334 -26.5 77.001 -26.5zM184.001 326.001c-20 0 -40.168 2.66797 -60.501 8.00098s-37.166 12.666 -50.499 21.999l4 31c18 -10.667 35.333 -18.5 52 -23.5s34.667 -7.5 54 -7.5
c34.667 0 61.334 9.16699 80.001 27.5s28 44.166 28 77.499c0 29.333 -10.5 52.5 -31.5 69.5s-49.167 25.5 -84.5 25.5s-63.333 -5.66699 -84 -17l7 205h202v-33h-174l-4 -133c17.333 5.33301 36 8 56 8c44 0 79.5 -11.5 106.5 -34.5s40.5 -53.167 40.5 -90.5
c0 -41.333 -12.833 -74.166 -38.5 -98.499s-59.834 -36.5 -102.501 -36.5z" />
    <glyph glyph-name="uniF510" unicode="&#xf510;" horiz-adv-x="931" 
d="M691 744h44l-590 -744h-44zM665 1c37.333 24.667 71 55.001 101 91.001s52 72 66 108c-12.667 -13.333 -27.667 -23.5 -45 -30.5s-35.333 -10.5 -54 -10.5c-37.333 0 -68.5 12 -93.5 36s-37.5 54 -37.5 90c0 38.667 13.167 70.5 39.5 95.5s59.833 37.5 100.5 37.5
c38 0 69.667 -12.833 95 -38.5s38 -57.834 38 -96.501c0 -49.333 -15.5 -100.5 -46.5 -153.5s-71.5 -97.167 -121.5 -132.5zM739 188.001c30 0 55.001 9.16699 75.001 27.5s30 41.5 30 69.5c0 30.667 -9.83301 55.667 -29.5 75s-44.834 29 -75.501 29
s-55.834 -9.33301 -75.501 -28s-29.5 -42.667 -29.5 -72c0 -32 9.33301 -56.833 28 -74.5s44.334 -26.5 77.001 -26.5zM112.001 336.001l173 374h-219v34h255v-30l-176 -380z" />
    <glyph glyph-name="uniF511" unicode="&#xf511;" horiz-adv-x="931" 
d="M741 744h44l-590 -744h-44zM665 1c37.333 24.667 71 55.001 101 91.001s52 72 66 108c-12.667 -13.333 -27.667 -23.5 -45 -30.5s-35.333 -10.5 -54 -10.5c-37.333 0 -68.5 12 -93.5 36s-37.5 54 -37.5 90c0 38.667 13.167 70.5 39.5 95.5s59.833 37.5 100.5 37.5
c38 0 69.667 -12.833 95 -38.5s38 -57.834 38 -96.501c0 -49.333 -15.5 -100.5 -46.5 -153.5s-71.5 -97.167 -121.5 -132.5zM739 188.001c30 0 55.001 9.16699 75.001 27.5s30 41.5 30 69.5c0 30.667 -9.83301 55.667 -29.5 75s-44.834 29 -75.501 29
s-55.834 -9.33301 -75.501 -28s-29.5 -42.667 -29.5 -72c0 -32 9.33301 -56.833 28 -74.5s44.334 -26.5 77.001 -26.5zM195.001 326.001c-39.333 0 -72.3311 11.168 -98.998 33.501s-40 50.166 -40 83.499c0 24 7.66699 45.5 23 64.5s36.333 32.5 63 40.5
c-22.667 8 -40.667 21.333 -54 40s-20 39.667 -20 63c0 30 12 54.667 36 74s54.333 29 91 29c35.333 0 64.666 -9.83301 87.999 -29.5s35 -44.167 35 -73.5c0 -23.333 -6.33301 -44.166 -19 -62.499s-30 -31.833 -52 -40.5c25.333 -8 45.5 -21.5 60.5 -40.5
s22.5 -40.5 22.5 -64.5c0 -21.333 -5.5 -40.833 -16.5 -58.5s-26.833 -31.834 -47.5 -42.501s-44.334 -16 -71.001 -16zM195.003 354.002c30.667 0 55.332 8.33301 73.999 25s28 38.334 28 65.001c0 26 -9.66699 47.5 -29 64.5s-43.666 25.5 -72.999 25.5
c-30.667 0 -56 -8.5 -76 -25.5s-30 -38.5 -30 -64.5c0 -26.667 9.83301 -48.334 29.5 -65.001s45.167 -25 76.5 -25zM195.001 561.002c26.667 0 48.5 8.33301 65.5 25s25.5 38 25.5 64c0 22.667 -8.5 41.167 -25.5 55.5s-38.833 21.5 -65.5 21.5
c-28.667 0 -51.667 -7 -69 -21s-26 -32.667 -26 -56c0 -25.333 9 -46.5 27 -63.5s40.667 -25.5 68 -25.5z" />
    <glyph glyph-name="uniFB01" unicode="&#xfb01;" horiz-adv-x="652" 
d="M141 447h-102.999v33h103v103c0 76 14.5 133.667 43.5 173s71.167 59 126.5 59c30 0 57 -5.66699 81 -17l-6 -33c-24.667 10.667 -49.667 16 -75 16c-44.667 0 -77.834 -16.5 -99.501 -49.5s-32.5 -84.167 -32.5 -153.5v-98h156v-33h-156v-447h-38v447zM514.001 480h38
v-480h-38v480zM533.001 642c-10 0 -17.833 2.83301 -23.5 8.5s-8.5 13.5 -8.5 23.5s3 17.833 9 23.5s13.667 8.5 23 8.5c10 0 17.833 -2.83301 23.5 -8.5s8.5 -13.5 8.5 -23.5c0 -9.33301 -2.83301 -17 -8.5 -23s-13.5 -9 -23.5 -9z" />
    <glyph glyph-name="uniFB02" unicode="&#xfb02;" horiz-adv-x="652" 
d="M141 447h-102.999v33h103v103c0 76 14.5 133.667 43.5 173s71.167 59 126.5 59c30 0 57 -5.66699 81 -17l-6 -33c-24.667 10.667 -49.667 16 -75 16c-44.667 0 -77.834 -16.5 -99.501 -49.5s-32.5 -84.167 -32.5 -153.5v-98h156v-33h-156v-447h-38v447zM514.001 810h38
v-810h-38v810z" />
    <glyph glyph-name="uniFEFF" unicode="&#xfeff;" horiz-adv-x="0" 
 />
    <glyph glyph-name=".null" horiz-adv-x="0" 
 />
    <glyph glyph-name="nonmarkingreturn" horiz-adv-x="333" 
 />
    </font>
</defs>
</svg>
