<?xml version="1.0" encoding="utf-8"?>
<!-- Generator: Adobe Illustrator 21.1.0, SVG Export Plug-In . SVG Version: 6.00 Build 0)  -->
<svg version="1.1" id="Layer_1" xmlns="http://www.w3.org/2000/svg" xmlns:xlink="http://www.w3.org/1999/xlink" x="0px" y="0px"
	 viewBox="0 0 170.6 279.4" style="enable-background:new 0 0 170.6 279.4;" xml:space="preserve">
<style type="text/css">
	.st0{clip-path:url(#SVGID_2_);fill:#FFFFFF;}
</style>
<g>
	<defs>
		<rect id="SVGID_1_" width="170.6" height="279.4"/>
	</defs>
	<clipPath id="SVGID_2_">
		<use xlink:href="#SVGID_1_"  style="overflow:visible;"/>
	</clipPath>
	<path class="st0" d="M163.6,159.3c0.3-0.4,0.6-0.8,0.8-1.1c0.3-0.4,0.6-0.8,0.9-1.3c0.3-0.4,0.6-0.9,0.8-1.4
		c0.2-0.4,0.5-0.8,0.7-1.2c0.3-0.5,0.5-0.9,0.7-1.4c0.2-0.4,0.4-0.9,0.6-1.3c0.2-0.5,0.3-0.9,0.5-1.4c0.2-0.5,0.4-0.9,0.5-1.4
		c0.1-0.5,0.2-0.9,0.4-1.4c0.1-0.5,0.3-1,0.4-1.5c0.1-0.5,0.2-1.1,0.3-1.6c0.1-0.4,0.1-0.9,0.2-1.3c0.2-2,0.2-4,0-6.1
		c0-0.5-0.1-0.9-0.2-1.4c-0.1-0.5-0.1-1.1-0.2-1.6c-0.1-0.5-0.2-1-0.4-1.6c-0.1-0.5-0.2-0.9-0.3-1.4c-0.2-0.5-0.3-1-0.5-1.5
		c-0.2-0.4-0.3-0.9-0.5-1.3c-0.2-0.5-0.4-0.9-0.6-1.4c-0.2-0.5-0.4-0.9-0.6-1.3c-0.2-0.4-0.5-0.9-0.8-1.3c-0.3-0.4-0.5-0.9-0.8-1.3
		c-0.3-0.5-0.7-0.9-1-1.4c-0.3-0.3-0.5-0.7-0.8-1c-0.7-0.8-1.4-1.6-2.2-2.4c0,0-0.1-0.1-0.1-0.2L52.5,9C40.5-3,21-3,9,9
		C-3,21-3,40.5,9,52.5l85.8,87.2L9.3,227c-12,12-12,31.5,0,43.5c6,6,13.9,9,21.7,9c7.9,0,15.7-3,21.7-9l108.8-108.8
		c0,0,0-0.1,0.1-0.1C162.4,160.8,163,160.1,163.6,159.3"/>
</g>
</svg>
