<svg width="12" height="5" viewBox="0 0 12 5" fill="none" xmlns="http://www.w3.org/2000/svg">
<path d="M11.9305 2.33126L9.26388 0.0523901C9.18979 -0.00402932 9.1088 -0.0148845 9.02082 0.0198475C8.93294 0.054625 8.88882 0.117521 8.88882 0.208718V1.66719H0.222217C0.157371 1.66719 0.104103 1.68668 0.0624863 1.72575C0.0208936 1.76479 0 1.81473 0 1.87549V3.12556C0 3.18629 0.0207963 3.23623 0.062462 3.27523C0.104176 3.31427 0.157444 3.33377 0.222192 3.33377H8.88887V4.79221C8.88887 4.87915 8.93306 4.94204 9.02089 4.98099C9.10894 5.01586 9.18994 5.00268 9.26403 4.94204L11.9306 2.63699C11.9769 2.59361 12 2.54162 12 2.4808C12 2.42451 11.9768 2.37466 11.9305 2.33126Z" fill="#87AD16"/>
</svg>
