<svg xmlns="http://www.w3.org/2000/svg" width="16.051" height="16" viewBox="0 0 16.051 16">
  <path id="Path" d="M15.691,12.655l-2.479-2.477a1.293,1.293,0,0,0-1.822.034L10.141,11.46l-.246-.137a12.428,12.428,0,0,1-3-2.171A12.486,12.486,0,0,1,4.714,6.146c-.046-.084-.091-.164-.134-.241l.838-.836.412-.412a1.289,1.289,0,0,0,.033-1.821L3.384.359A1.292,1.292,0,0,0,1.562.394l-.7.7.019.019A4.035,4.035,0,0,0,.307,2.129,4.2,4.2,0,0,0,.051,3.158c-.327,2.711.913,5.189,4.278,8.551,4.652,4.647,8.4,4.3,8.562,4.279a4.192,4.192,0,0,0,1.033-.259,4.027,4.027,0,0,0,1.012-.573l.015.014.708-.692A1.292,1.292,0,0,0,15.691,12.655Z" fill="#e1442e"/>
</svg>
