<svg width="27" height="32" viewBox="0 0 27 32" fill="none" xmlns="http://www.w3.org/2000/svg">
<path fill-rule="evenodd" clip-rule="evenodd" d="M13.1562 0C20.3933 0 26.281 5.88794 26.281 13.125C26.281 18.3503 23.2114 22.8716 18.7812 24.9819V28.125C18.7812 28.4702 18.5012 28.75 18.1562 28.75H17.5312V31.375C17.5312 31.7202 17.2512 32 16.9062 32C16.561 32 16.2812 31.7202 16.2812 31.375V28.75H10.0312V31.375C10.0312 31.7202 9.75146 32 9.40625 32C9.06104 32 8.78125 31.7202 8.78125 31.375V28.75H8.15625C7.81104 28.75 7.53125 28.4702 7.53125 28.125V24.9817C3.10083 22.8716 0.03125 18.3501 0.03125 13.125C0.03125 10.6572 0.720703 8.2522 2.0249 6.16943C2.20825 5.87671 2.59399 5.78809 2.88647 5.97144C3.17896 6.15454 3.26758 6.54028 3.08423 6.83276C1.90479 8.71655 1.28125 10.8921 1.28125 13.125C1.28125 19.6729 6.60815 25 13.1562 25C19.7041 25 25.031 19.6729 25.031 13.125C25.031 6.57715 19.7041 1.25 13.1562 1.25C10.9236 1.25 8.7478 1.87354 6.86377 3.05347C6.57104 3.23682 6.18555 3.14795 6.0022 2.85547C5.81909 2.56274 5.90771 2.177 6.2002 1.9939C8.28345 0.689453 10.6887 0 13.1562 0ZM8.78125 25.4993V27.5H17.5312V25.4993C16.1621 25.9846 14.6897 26.25 13.1562 26.25C11.6228 26.25 10.1504 25.9846 8.78125 25.4993Z" fill="#87AD16"/>
<path d="M16.1443 23.323C18.3042 22.6912 20.248 21.3518 21.6174 19.5518C23.033 17.6912 23.781 15.4688 23.781 13.125C23.781 7.26636 19.0146 2.5 13.1562 2.5C7.29761 2.5 2.53125 7.26636 2.53125 13.125C2.53125 15.4688 3.27954 17.6912 4.69507 19.5518C6.0647 21.3521 8.00854 22.6914 10.1685 23.3232C10.2271 23.3403 10.2861 23.3486 10.3442 23.3486C10.6147 23.3486 10.864 23.1716 10.9438 22.8989C11.0408 22.5676 10.8508 22.2205 10.5195 22.1235C8.37109 21.4951 6.57397 20.1218 5.37744 18.3379L6.43237 17.7288C6.7312 17.5562 6.83374 17.1738 6.66113 16.8748C6.48853 16.5759 6.1062 16.4734 5.80737 16.6462L4.75098 17.2561C4.21704 16.176 3.88647 14.988 3.80273 13.75H5.03125C5.37646 13.75 5.65625 13.4702 5.65625 13.125C5.65625 12.7798 5.37646 12.5 5.03125 12.5H3.80249C3.8855 11.2473 4.21533 10.061 4.74414 8.98975L5.80737 9.60376C5.90576 9.66064 6.01318 9.6875 6.11914 9.6875C6.33521 9.6875 6.54541 9.57544 6.66113 9.375C6.83374 9.07593 6.7312 8.69385 6.43237 8.52124L5.37061 7.9082C6.052 6.89453 6.92578 6.02075 7.93945 5.33936L8.55249 6.40112C8.66821 6.60156 8.87842 6.71362 9.09424 6.71362C9.2002 6.71362 9.30786 6.68677 9.40625 6.62988C9.70508 6.45728 9.80762 6.07495 9.63501 5.77612L9.02124 4.71289C10.0925 4.18408 11.2786 3.85425 12.5312 3.77124V5C12.5312 5.34521 12.811 5.625 13.1562 5.625C13.5015 5.625 13.7812 5.34521 13.7812 5V3.77124C15.0339 3.85425 16.22 4.18408 17.2913 4.71289L16.6775 5.77612C16.5049 6.07495 16.6072 6.45728 16.9062 6.62988C17.0046 6.68677 17.1121 6.71362 17.218 6.71362C17.4341 6.71362 17.644 6.60156 17.76 6.40112L18.3728 5.33911C19.3865 6.02075 20.2605 6.89453 20.9419 7.9082L19.8801 8.52124C19.5811 8.6936 19.4788 9.07593 19.6514 9.375C19.7671 9.57544 19.9771 9.6875 20.1931 9.6875C20.2991 9.6875 20.4067 9.6604 20.5051 9.60376L21.5684 8.98975C22.0972 10.061 22.427 11.2473 22.5098 12.5H21.2812C20.936 12.5 20.6562 12.7798 20.6562 13.125C20.6562 13.47 20.936 13.75 21.2812 13.75H22.5098C22.4258 14.988 22.0952 16.176 21.5615 17.2561L20.5051 16.646C20.2063 16.4734 19.824 16.5759 19.6514 16.8748C19.4788 17.1738 19.5811 17.5559 19.8801 17.7285L20.9351 18.3376C19.7385 20.1216 17.9414 21.4949 15.7935 22.1233C15.4622 22.2202 15.2722 22.5674 15.3691 22.8987C15.4661 23.23 15.813 23.4199 16.1443 23.323Z" fill="#87AD16"/>
<path fill-rule="evenodd" clip-rule="evenodd" d="M15.6562 18.75C15.6562 18.1177 15.4197 17.5398 15.0312 17.0989V8.75C15.0312 7.71606 14.1899 6.875 13.1562 6.875C12.1223 6.875 11.2812 7.71606 11.2812 8.75V17.0989C10.8926 17.5398 10.6562 18.1177 10.6562 18.75C10.6562 20.1284 11.7776 21.25 13.1562 21.25C14.5347 21.25 15.6562 20.1284 15.6562 18.75ZM13.1562 8.125C13.5007 8.125 13.7812 8.40527 13.7812 8.75V16.3291C13.5813 16.2773 13.3718 16.2498 13.1562 16.2498C12.9404 16.2498 12.731 16.2773 12.5312 16.3291V8.75C12.5312 8.40527 12.8115 8.125 13.1562 8.125ZM11.9062 18.75C11.9062 19.4392 12.467 20 13.1562 20C13.8455 20 14.4062 19.4392 14.4062 18.75C14.4062 18.0608 13.8455 17.5 13.1562 17.5C12.467 17.5 11.9062 18.0608 11.9062 18.75Z" fill="#87AD16"/>
<path d="M13.156 22.5C12.8108 22.5 12.5312 22.7798 12.5312 23.125C12.5312 23.4702 12.8113 23.75 13.1562 23.75C13.5015 23.75 13.7812 23.4702 13.7812 23.125C13.7812 22.7798 13.5015 22.5 13.1562 22.5H13.156Z" fill="#87AD16"/>
<path d="M4.31738 4.91138C4.47754 4.91138 4.63745 4.8501 4.75952 4.72803C5.00366 4.48413 5.00366 4.08838 4.75952 3.84424C4.51562 3.6001 4.11987 3.6001 3.87573 3.84424L3.87549 3.84448C3.63135 4.08862 3.63135 4.48413 3.87549 4.72827C3.99756 4.85034 4.15747 4.91138 4.31738 4.91138Z" fill="#87AD16"/>
</svg>
