<svg width="32" height="32" viewBox="0 0 32 32" fill="none" xmlns="http://www.w3.org/2000/svg">
<path d="M15.0765 23.6176C14.8358 23.441 14.4972 23.4925 14.3203 23.7334L14.2535 23.8243C14.0768 24.0649 14.1282 24.4031 14.3686 24.5802C14.4652 24.6514 14.5777 24.6857 14.6891 24.6857C14.8549 24.6857 15.0186 24.6097 15.1246 24.4661L15.1924 24.3739C15.3692 24.1331 15.3173 23.7945 15.0765 23.6176Z" fill="#ffffff"/>
<path d="M15.218 28.7653L13.8266 26.2352L15.1257 24.4658C15.3027 24.225 15.2507 23.8864 15.0098 23.7095C14.769 23.5326 14.4304 23.5845 14.2536 23.8254L12.75 25.8733C12.6253 26.043 12.6105 26.2696 12.712 26.4542L14.27 29.2868V29.2867C14.3685 29.4658 14.5536 29.5671 14.7445 29.5671C14.8327 29.567 14.9221 29.5454 15.0048 29.5C15.2665 29.3561 15.362 29.0271 15.218 28.7653Z" fill="#ffffff"/>
<path d="M19.2504 25.8726L17.7529 23.8331C17.6287 23.664 17.4183 23.5819 17.2124 23.6226C17.0066 23.663 16.8428 23.8189 16.7919 24.0224C16.7529 24.1786 16.7854 24.344 16.8807 24.4738L18.1735 26.2345L16.7915 28.7475C16.7477 28.8273 16.7246 28.9173 16.7246 29.0085C16.7246 29.2554 16.8919 29.471 17.131 29.5325C17.1759 29.544 17.221 29.5496 17.2657 29.5496C17.4594 29.5496 17.6429 29.4451 17.7397 29.2693L19.2884 26.4537C19.3899 26.269 19.375 26.0424 19.2504 25.8726Z" fill="#ffffff"/>
<path fill-rule="evenodd" clip-rule="evenodd" d="M19.5488 17.4041C19.7143 17.29 19.9295 17.2772 20.1074 17.3707C20.2854 17.4642 20.3968 17.6485 20.3968 17.8497V19.7841C20.3968 19.9507 20.32 20.108 20.1887 20.2105C20.1743 20.2218 20.1593 20.2323 20.1439 20.242L16.3167 22.7995L16.3103 22.8037L16.3048 22.8074C16.2892 22.818 16.2729 22.8279 16.256 22.837C16.1757 22.8799 16.0878 22.9012 15.9999 22.9012C15.8955 22.9012 15.7914 22.871 15.7011 22.8113L15.691 22.8045L15.6892 22.8032L11.8528 20.2397C11.8366 20.2294 11.8208 20.2181 11.8057 20.2059C11.6777 20.1032 11.603 19.948 11.603 19.7839V17.9279C11.603 17.7278 11.7135 17.544 11.8902 17.4502C12.0668 17.3562 12.281 17.3675 12.4467 17.4795C12.6186 17.5955 12.7907 17.7212 12.9586 17.853C14.0562 18.715 15.0937 19.2408 15.6691 19.226C15.7019 19.225 15.7351 19.2274 15.7677 19.2325C15.8219 19.2402 17.2052 19.4184 18.6612 18.1021C18.9283 17.8607 19.227 17.6258 19.5488 17.4041ZM15.9998 21.7095L19.3147 19.4945H19.3148V18.969C17.6357 20.442 15.9786 20.3443 15.6537 20.3084H15.6473C14.6795 20.3084 13.4922 19.589 12.6851 19.0024V19.4945L15.9998 21.7095Z" fill="#ffffff"/>
<path d="M16.5336 22.2714C16.4979 22.0568 16.3371 21.8845 16.1255 21.834C15.9138 21.7838 15.6926 21.8648 15.5639 22.0401L14.3203 23.7339C14.1434 23.9748 14.1953 24.3134 14.4363 24.4903C14.5327 24.5611 14.6448 24.5953 14.756 24.5953C14.9224 24.5953 15.0865 24.5187 15.1926 24.3743L16.4297 22.6894C16.5001 22.5974 16.5411 22.4829 16.5411 22.3605C16.541 22.3308 16.5385 22.3008 16.5336 22.2714Z" fill="#ffffff"/>
<path fill-rule="evenodd" clip-rule="evenodd" d="M22.2568 2.19449C23.9786 2.91605 24.232 4.74518 24.2428 4.82993C24.2457 4.85262 24.2471 4.87543 24.2471 4.89824V8.77668C24.2471 9.22668 24.1189 9.67012 23.8765 10.0591C23.1799 11.1763 22.9639 12.5717 22.9618 12.5857C22.9216 12.8521 22.6925 13.0466 22.4271 13.0466C22.4136 13.0466 22.4001 13.0461 22.3863 13.0451C22.104 13.024 21.8857 12.7891 21.8857 12.5059V8.04731C21.8578 7.87393 21.6335 6.7703 20.3763 6.30655L17.8617 5.4238C17.5132 5.3013 17.131 5.30612 16.7859 5.4373C16.27 5.63324 15.5615 5.89687 15.1148 6.04012C14.8552 6.12337 14.5835 6.16555 14.3072 6.16555H11.9583C11.7427 6.20549 10.4889 6.50118 10.1215 8.02049V11.7355C10.1215 12.0283 9.88853 12.2681 9.59578 12.2763C9.30159 12.2844 9.05684 12.0585 9.04034 11.7661C8.99803 11.0172 8.71753 10.5219 8.48978 10.2383C8.03041 9.66631 7.77734 8.94237 7.77734 8.19999V5.35055C7.77734 2.4018 10.1763 0.00292969 13.1249 0.00292969H20.3866C20.4213 0.00292969 20.4558 0.00624219 20.4898 0.0128672C21.2826 0.166992 21.8235 0.518805 22.0977 1.05868C22.3016 1.46037 22.3068 1.87324 22.2568 2.19449ZM22.9677 9.47106C23.0968 9.25787 23.165 9.01812 23.165 8.77643H23.1649V4.93918C23.1283 4.72549 22.8473 3.40443 21.47 3.07287C21.3118 3.0348 21.1792 2.92768 21.1088 2.78112C21.0385 2.63455 21.0377 2.46412 21.1069 2.31693C21.1071 2.31655 21.299 1.8693 21.1305 1.54449C20.993 1.27912 20.6303 1.14868 20.332 1.08512H13.1248C10.7728 1.08512 8.85928 2.99868 8.85928 5.35068V8.20005C8.85928 8.50249 8.92166 8.79987 9.03947 9.07212V7.95862C9.03947 7.91899 9.04384 7.87949 9.05247 7.84081C9.59553 5.40674 11.7535 5.09987 11.845 5.08799C11.8681 5.08505 11.8913 5.08355 11.9145 5.08355H14.3071C14.4711 5.08355 14.6317 5.05868 14.7843 5.00974C15.12 4.90212 15.6793 4.70018 16.4016 4.4258C16.7039 4.3108 17.023 4.25324 17.3422 4.25324C17.6391 4.25324 17.9362 4.30299 18.2201 4.40268L20.7385 5.2868L20.7458 5.28943C22.7324 6.01918 22.956 7.8733 22.9645 7.95187C22.9666 7.9713 22.9677 7.99074 22.9677 8.0103V9.47106Z" fill="#ffffff"/>
<path fill-rule="evenodd" clip-rule="evenodd" d="M20.7455 5.28908C22.7321 6.01883 22.9556 7.87296 22.9641 7.95152C22.9662 7.97102 22.9673 7.99046 22.9674 8.00996V12.5053C22.9674 12.5215 22.9666 12.5376 22.9652 12.5536C22.6454 16.1245 21.1224 17.6485 20.2431 18.2391C20.2294 18.2483 20.2162 18.2576 20.2031 18.267L20.1626 18.2953C19.8798 18.4901 19.6188 18.6953 19.3868 18.905C18.004 20.155 16.6235 20.3245 15.9764 20.3245C15.8263 20.3245 15.7156 20.3154 15.6536 20.3086H15.6473C14.5056 20.3086 13.0582 19.3073 12.2903 18.7042C12.1426 18.5883 11.9917 18.4781 11.8414 18.3766C11.8296 18.3687 11.8182 18.3607 11.8069 18.3527L11.7933 18.3431C9.15706 16.5981 9.04275 12.7827 9.03919 12.6211L9.03906 12.6091V7.95814C9.03906 7.91852 9.04344 7.87902 9.05206 7.84033C9.59513 5.40627 11.7531 5.09939 11.8446 5.08752C11.8677 5.08458 11.8909 5.08308 11.9141 5.08308H14.3067C14.4707 5.08308 14.6312 5.05827 14.7839 5.00933C15.1196 4.90164 15.6789 4.69971 16.4012 4.42533C16.9846 4.20371 17.6304 4.19546 18.2198 4.40233L20.7382 5.28646L20.7455 5.28908ZM19.6397 17.3408C20.2173 16.9528 21.5904 15.7035 21.8852 12.4809H21.8853V8.04689C21.8574 7.87352 21.6331 6.76989 20.3759 6.30614L17.8613 5.42339C17.5127 5.30089 17.1306 5.30571 16.7855 5.43689C16.2697 5.63283 15.5611 5.89646 15.1144 6.03971C14.8547 6.12296 14.5831 6.16514 14.3068 6.16514H11.957C11.7514 6.20289 10.4898 6.49521 10.1211 8.02008V12.6013C10.1258 12.7388 10.265 16.0339 12.3924 17.442C12.4076 17.4521 12.4206 17.4613 12.4336 17.4705L12.4469 17.4799C12.6185 17.5957 12.7906 17.7213 12.9585 17.8532C14.0561 18.7152 15.0936 19.241 15.669 19.2263C15.7008 19.2254 15.7327 19.2274 15.7641 19.2321C15.8317 19.2416 17.2106 19.4136 18.6611 18.1022C18.9283 17.8608 19.2269 17.6259 19.5487 17.4042L19.5787 17.3831L19.5787 17.3831C19.599 17.3688 19.6192 17.3546 19.6397 17.3408Z" fill="#ffffff"/>
<path d="M16.4841 22.1184C16.3998 21.9498 16.2338 21.8372 16.046 21.8212C15.8585 21.8057 15.6756 21.8881 15.564 22.0401L14.268 23.8053C14.0914 24.046 14.143 24.3844 14.3835 24.5613C14.48 24.6323 14.5924 24.6666 14.7037 24.6666C14.8697 24.6666 15.0335 24.5904 15.1396 24.4465L16.4357 22.6879C16.5042 22.5949 16.5412 22.476 16.5412 22.3605C16.5413 22.2766 16.5216 22.1936 16.4841 22.1184Z" fill="#ffffff"/>
<path d="M16.5186 30.8302C16.3153 30.6177 15.9795 30.6063 15.7625 30.8049L15.6388 30.918C15.4536 31.0873 15.4092 31.3618 15.5316 31.581L15.5354 31.5878C15.618 31.7358 15.7654 31.8366 15.9333 31.8599C15.9582 31.8633 15.9831 31.865 16.0078 31.865C16.1503 31.865 16.2882 31.8087 16.3904 31.7065L16.5102 31.5866C16.7181 31.3787 16.7219 31.0427 16.5186 30.8302Z" fill="#ffffff"/>
<path d="M16.3614 30.918L16.2377 30.8049C16.0207 30.6064 15.6849 30.6177 15.4816 30.8302C15.2783 31.0428 15.282 31.3789 15.49 31.5867L15.61 31.7067C15.7122 31.8089 15.8501 31.8651 15.9925 31.8651C16.018 31.8651 16.0435 31.8634 16.0691 31.8597C16.2376 31.8356 16.385 31.7335 16.4669 31.5843L16.4707 31.5775C16.5906 31.3587 16.5455 31.0863 16.3614 30.918Z" fill="#ffffff"/>
<path d="M16.3702 30.9258L16.3695 30.9252C16.2859 30.8471 16.1779 30.7956 16.0588 30.7825C15.8994 30.7651 15.7441 30.8191 15.6311 30.9243L15.6295 30.9258C15.5201 31.0256 15.4564 31.1659 15.4533 31.3139C15.4501 31.462 15.5077 31.6048 15.6126 31.7092L15.6183 31.7149C15.7239 31.8198 15.8618 31.8723 15.9998 31.8723C16.1383 31.8723 16.2768 31.8194 16.3823 31.7139L16.388 31.7082C16.4925 31.6036 16.5498 31.4609 16.5463 31.3132C16.5431 31.1654 16.4794 31.0254 16.3702 30.9258Z" fill="#ffffff"/>
<path d="M16.1753 21.837C15.9512 21.7653 15.7053 21.8485 15.5689 22.0404C15.4163 22.2552 15.4414 22.548 15.6274 22.7349C15.732 22.84 15.8709 22.8939 16.0108 22.8939C16.1195 22.8939 16.2288 22.8614 16.323 22.795C16.467 22.6937 16.5527 22.5287 16.5527 22.3525V22.3512C16.5527 22.1158 16.3996 21.9086 16.1753 21.837Z" fill="#ffffff"/>
<path d="M16.4397 22.0352L16.435 22.029C16.2962 21.8411 16.0525 21.7637 15.8307 21.8368C15.6089 21.9098 15.459 22.1171 15.459 22.3506V22.3598C15.459 22.559 15.5708 22.7406 15.7463 22.8348C15.8258 22.8775 15.9135 22.8986 16.0012 22.8986C16.1069 22.8986 16.2124 22.868 16.3032 22.8078C16.4269 22.726 16.5115 22.5968 16.5374 22.4508C16.5632 22.3048 16.5279 22.1545 16.4397 22.0352Z" fill="#ffffff"/>
<path fill-rule="evenodd" clip-rule="evenodd" d="M22.1128 20.0186C22.2619 20.072 22.3801 20.1881 22.4362 20.3363C22.4923 20.4844 22.4806 20.6497 22.4042 20.7886L19.2881 26.4541C19.1991 26.616 19.0337 26.7212 18.8494 26.7333C18.8375 26.7341 18.8257 26.7345 18.814 26.7345C18.6425 26.7345 18.4802 26.653 18.378 26.5137L15.5639 22.6811C15.5137 22.6127 15.4803 22.5334 15.4664 22.4498C15.4542 22.3766 15.4571 22.3014 15.4751 22.2294C15.5079 22.0983 15.5886 21.984 15.7014 21.9094L16.0099 22.3536L15.7081 21.9049L15.7113 21.9027L19.5549 19.3344C19.6818 19.2495 19.8387 19.2223 19.9867 19.2594C20.0041 19.2636 20.0215 19.269 20.0384 19.275L22.1128 20.0186ZM16.7707 22.4962L18.7485 25.19L21.1504 20.8231L19.9295 20.3854L16.7707 22.4962Z" fill="#ffffff"/>
<path fill-rule="evenodd" clip-rule="evenodd" d="M16.3015 21.9112C16.424 21.9934 16.5076 22.122 16.533 22.2672C16.5584 22.4125 16.5234 22.5617 16.4362 22.6806L15.1292 24.4607L15.1257 24.4656L13.622 26.5134C13.5196 26.6529 13.3574 26.7344 13.1859 26.7344C13.1742 26.7344 13.1623 26.734 13.1506 26.7332C12.9663 26.7211 12.8008 26.6159 12.7118 26.4541L9.59578 20.7886C9.51941 20.6497 9.50778 20.4844 9.56385 20.3362C9.61991 20.1881 9.7381 20.072 9.88722 20.0186L11.9617 19.2749C11.983 19.2673 12.0047 19.2609 12.0268 19.2561C12.171 19.2241 12.3223 19.2522 12.4451 19.3343L16.3015 21.9112ZM14.2497 23.8302L14.2535 23.825L15.2292 22.4962L12.0703 20.3854L10.8495 20.823L13.2513 25.1899L14.2497 23.8302Z" fill="#ffffff"/>
<path fill-rule="evenodd" clip-rule="evenodd" d="M31.2754 25.3572L31.9734 29.5718C32.0685 30.1458 31.9072 30.7297 31.5308 31.1735C31.1545 31.6174 30.6049 31.872 30.0228 31.872H16.0121C15.8144 31.872 15.6324 31.764 15.5374 31.5906L15.5332 31.5829C15.4179 31.3722 15.4554 31.1107 15.6252 30.9408L15.7451 30.8209C15.7508 30.8152 15.7566 30.8097 15.7626 30.8043L21.569 25.4926L21.0016 24.4093C20.9145 24.2429 20.9199 24.0432 21.0159 23.8817C21.1118 23.7202 21.2847 23.6202 21.4726 23.6173L22.8559 23.596L21.4461 20.7689C21.3474 20.5708 21.3792 20.3327 21.5263 20.1675C21.6734 20.0024 21.9061 19.9434 22.1143 20.0186L28.8664 22.4615C30.1324 22.9194 31.0555 24.029 31.2754 25.3572ZM30.0229 30.79C30.2863 30.79 30.5352 30.6747 30.7057 30.4737C30.8761 30.2727 30.9491 30.0085 30.9061 29.7485V29.7485L30.2082 25.5339C30.0521 24.5914 29.3971 23.8039 28.4986 23.4789L23.0182 21.4962L24.2081 23.8822C24.291 24.0486 24.2827 24.2459 24.1861 24.4048C24.0894 24.5636 23.9181 24.6618 23.7322 24.6646L22.3681 24.6856L22.7211 25.3595C22.8351 25.5771 22.7882 25.844 22.6069 26.0097L17.3812 30.79H30.0229Z" fill="#ffffff"/>
<path d="M16.375 30.9308L16.3687 30.9251C16.1546 30.7312 15.8257 30.7398 15.622 30.9447L15.6163 30.9504C15.4623 31.1054 15.4166 31.3379 15.5005 31.5396C15.5844 31.7414 15.7815 31.8729 16 31.8729H16.0119C16.2356 31.8729 16.4363 31.7351 16.5166 31.5264C16.5972 31.3176 16.5409 31.0809 16.375 30.9308Z" fill="#ffffff"/>
<path d="M16.3579 30.9143C16.2351 30.8037 16.0685 30.7553 15.9054 30.7831C15.7425 30.8106 15.6011 30.9113 15.5216 31.0562L15.5179 31.063C15.4038 31.271 15.4385 31.529 15.6034 31.6995L15.6054 31.7015C15.7114 31.811 15.8526 31.8663 15.9942 31.8663C16.1245 31.8663 16.2552 31.8194 16.3587 31.7248L16.3644 31.7197C16.4135 31.675 16.454 31.6213 16.4838 31.5618C16.5927 31.3441 16.5389 31.077 16.3579 30.9143Z" fill="#ffffff"/>
<path fill-rule="evenodd" clip-rule="evenodd" d="M16.3791 30.9451L16.3814 30.9474C16.5368 31.1019 16.5836 31.3349 16.5001 31.5374C16.4166 31.7399 16.2191 31.8721 16 31.8721H1.97739C1.39551 31.8721 0.845825 31.6175 0.469388 31.1737C0.0930125 30.7299 -0.0683625 30.1461 0.0267 29.5719L0.724638 25.3573C0.944575 24.0291 1.8677 22.9194 3.1337 22.4616L9.88576 20.0187C10.0937 19.9433 10.3267 20.0024 10.4738 20.1676C10.6208 20.3327 10.6527 20.5709 10.554 20.7689L9.1442 23.5961L10.5276 23.6174C10.7155 23.6203 10.8883 23.7204 10.9843 23.8818C11.0803 24.0433 11.0857 24.243 10.9985 24.4094L10.4311 25.4927L16.2375 30.8044C16.2434 30.8097 16.2492 30.8152 16.2548 30.8209L16.3748 30.9408L16.3791 30.9451ZM1.2947 30.4738C1.46508 30.6748 1.71395 30.7901 1.97745 30.7901H14.6191L9.39345 26.0097C9.21233 25.8441 9.16545 25.5771 9.27939 25.3596L9.63239 24.6856L8.26826 24.6646C8.08232 24.6617 7.91089 24.5636 7.81433 24.4047C7.71764 24.2458 7.70939 24.0486 7.79239 23.8821L8.98214 21.4962L3.50183 23.4789C2.60339 23.8039 1.94833 24.5913 1.79226 25.534L1.09432 29.7486C1.05132 30.0086 1.12433 30.2729 1.2947 30.4738Z" fill="#ffffff"/>
<path fill-rule="evenodd" clip-rule="evenodd" d="M17.7526 23.8334C17.8479 23.9632 17.8805 24.1286 17.8414 24.2849C17.8255 24.3486 17.798 24.4092 17.7606 24.4633L17.2161 25.2451L17.7998 28.9238C17.8042 28.9519 17.8065 28.9802 17.8065 29.0086V29.0089C17.8065 29.1001 17.7834 29.1897 17.7395 29.2696L16.474 31.5704C16.379 31.7433 16.1973 31.8507 16 31.8507C15.8027 31.8507 15.621 31.7433 15.5259 31.5704L14.2698 29.2866C14.2119 29.1812 14.1907 29.0597 14.2095 28.9411L14.7959 25.245L14.2454 24.4546C14.1323 24.292 14.117 24.0806 14.2055 23.9034C14.2195 23.8756 14.2359 23.8487 14.2544 23.8237L15.547 22.0699C15.6127 21.9684 15.7115 21.8891 15.8315 21.8497C16.0536 21.7769 16.2976 21.8518 16.436 22.0403L17.7526 23.8334ZM15.3072 28.9275L16 30.1871L16.702 28.9105L16.1132 25.1994C16.0914 25.0613 16.1237 24.9201 16.2036 24.8055L16.6515 24.1622L16.0015 23.277L15.3549 24.1544L15.8083 24.8055C15.8882 24.9202 15.9206 25.0613 15.8987 25.1994L15.3072 28.9275Z" fill="#ffffff"/>
</svg>
