<svg width="32" height="30" viewBox="0 0 32 30" fill="none" xmlns="http://www.w3.org/2000/svg">
<path d="M19.5173 7.69637C19.6392 7.8182 19.7988 7.87908 19.9584 7.87908C20.118 7.87908 20.2777 7.8182 20.3995 7.69637C20.6431 7.45279 20.6431 7.05781 20.3995 6.81416L20.3911 6.80574C20.1475 6.56215 19.7525 6.56215 19.5089 6.80574C19.2653 7.04932 19.2653 7.4443 19.5089 7.68795L19.5173 7.69637Z" fill="#DA5029"/>
<path fill-rule="evenodd" clip-rule="evenodd" d="M29.5807 13.5984L31.7549 11.4242C31.9333 11.2458 31.9867 10.9775 31.8901 10.7445C31.7935 10.5113 31.5661 10.3594 31.3138 10.3594H26.8069C26.2178 7.94785 24.9814 5.75046 23.2139 3.98291C20.6456 1.41449 17.2307 0 13.5984 0C9.96616 0 6.55127 1.41449 3.98291 3.98291C1.41449 6.55133 0 9.96616 0 13.5984C0 17.2307 1.41449 20.6456 3.98291 23.214C4.74667 23.9777 5.58572 24.6386 6.48265 25.1914L4.60338 28.5114C4.4941 28.7046 4.49559 28.9412 4.60738 29.1329C4.7191 29.3246 4.92426 29.4425 5.1462 29.4425H8.35867C8.58342 29.4425 8.79083 29.3216 8.90155 29.126L10.2303 26.7784C11.3179 27.0543 12.4472 27.1969 13.5984 27.1969C14.7497 27.1969 15.879 27.0543 16.9665 26.7784L18.2953 29.126C18.4061 29.3216 18.6135 29.4425 18.8382 29.4425H22.0507C22.2726 29.4425 22.4778 29.3246 22.5896 29.1329C22.7013 28.9412 22.7028 28.7046 22.5936 28.5115L20.7143 25.1914C21.6112 24.6386 22.4503 23.9778 23.214 23.214C24.9808 21.4472 26.2179 19.2489 26.8069 16.8376H31.3138C31.5661 16.8376 31.7936 16.6855 31.8902 16.4525C31.9867 16.2194 31.9333 15.9511 31.755 15.7727L29.5807 13.5984ZM28.4401 12.9747H24.0868L25.4545 11.607H29.8079L28.4401 12.9747ZM6.21605 28.1949H7.99495L9.00753 26.4061C8.51811 26.231 8.03973 26.027 7.57377 25.7963L6.21605 28.1949ZM20.9808 28.1949H19.2019L18.1893 26.4061C18.6788 26.231 19.1571 26.027 19.6231 25.7963L20.9808 28.1949ZM19.5968 24.4004C20.5875 23.8484 21.5078 23.1558 22.3318 22.3318C23.864 20.7996 24.9577 18.9107 25.519 16.8376H25.1962C25.0307 16.8376 24.872 16.7718 24.7551 16.6548L23.1018 15.0015C22.8007 17.0554 21.8654 18.9169 20.391 20.3911C18.5767 22.2054 16.1644 23.2047 13.5984 23.2047C11.0325 23.2047 8.62016 22.2054 6.80577 20.391C4.99144 18.5767 3.9922 16.1644 3.9922 13.5984C3.9922 11.0325 4.99144 8.62023 6.80583 6.80583C8.30859 5.30302 10.2136 4.35974 12.3148 4.07791C14.3482 3.80507 16.4521 4.19824 18.2389 5.18475C18.5405 5.3513 18.65 5.73074 18.4835 6.03234C18.317 6.33394 17.9375 6.44335 17.6359 6.27693C14.3975 4.48898 10.3067 5.06922 7.68798 7.68798C6.10919 9.26671 5.23977 11.3657 5.23977 13.5984C5.23977 15.8311 6.10919 17.9302 7.68798 19.5089C9.26671 21.0877 11.3658 21.9571 13.5984 21.9571C15.8311 21.9571 17.9302 21.0877 19.5089 19.5089C20.9533 18.0645 21.7761 16.1722 21.9249 14.2222H19.1772C19.0383 15.4858 18.48 16.6563 17.5681 17.5682C16.5078 18.6285 15.098 19.2125 13.5984 19.2125C12.0989 19.2125 10.6891 18.6285 9.62869 17.5681C8.56839 16.5078 7.98441 15.098 7.98441 13.5984C7.98441 12.0989 8.56839 10.6891 9.62876 9.62869C10.6891 8.56839 12.0989 7.98441 13.5984 7.98441C15.098 7.98441 16.5078 8.56839 17.5682 9.62882C18.48 10.5407 19.0384 11.7112 19.1772 12.9747H21.9276C21.843 11.7996 21.5122 10.6335 20.92 9.56101C20.7535 9.25941 20.863 8.87991 21.1646 8.71342C21.4662 8.54699 21.8457 8.65641 22.0122 8.958C22.5659 9.96086 22.9325 11.0636 23.0996 12.1977L24.7551 10.5421C24.8721 10.4251 25.0308 10.3594 25.1962 10.3594H25.5192C24.9579 8.28613 23.8646 6.39788 22.3318 4.86506C19.9991 2.5323 16.8975 1.24756 13.5984 1.24756C10.2994 1.24756 7.19782 2.5323 4.86506 4.86506C2.5323 7.19782 1.24756 10.2994 1.24756 13.5984C1.24756 16.8975 2.5323 19.9991 4.86512 22.3318C5.68914 23.1559 6.60947 23.8484 7.60016 24.4005L7.60776 24.4041C7.61746 24.4088 7.62717 24.4134 7.63671 24.4188C7.64139 24.4215 7.6458 24.4244 7.65022 24.4273L7.65842 24.4326C8.41831 24.8507 9.21912 25.1863 10.05 25.4342C10.0827 25.4407 10.1151 25.4503 10.147 25.4623C11.2545 25.7827 12.4136 25.9493 13.5984 25.9493C14.7833 25.9493 15.9424 25.7827 17.0499 25.4622C17.0818 25.4502 17.1141 25.4406 17.1468 25.4341C17.9777 25.1862 18.7785 24.8506 19.5385 24.4325L19.5467 24.4272L19.5467 24.4272C19.5511 24.4243 19.5555 24.4214 19.5602 24.4187C19.5696 24.4134 19.5792 24.4088 19.5888 24.4042L19.5888 24.4042L19.5968 24.4004ZM15.6357 12.4222C15.4635 12.1238 15.082 12.0216 14.7836 12.1939L13.2865 13.0582C13.0936 13.1697 12.9747 13.3756 12.9747 13.5984C12.9747 13.8213 13.0936 14.0272 13.2865 14.1386L14.7836 15.0029C14.8819 15.0596 14.9891 15.0866 15.095 15.0866C15.3105 15.0866 15.5202 14.9748 15.6357 14.7746C15.737 14.5994 15.7428 14.3956 15.6703 14.2222H17.9204C17.7883 15.1518 17.3618 16.0102 16.686 16.686C15.8613 17.5107 14.7648 17.9649 13.5984 17.9649C12.4321 17.9649 11.3356 17.5107 10.5108 16.686C9.68614 15.8613 9.23197 14.7648 9.23197 13.5984C9.23197 12.4321 9.68614 11.3356 10.5109 10.5108C11.3356 9.68614 12.4321 9.23197 13.5984 9.23197C14.7648 9.23197 15.8613 9.68614 16.686 10.5109C17.3618 11.1867 17.7883 12.045 17.9205 12.9747H15.6704C15.7428 12.8012 15.737 12.5975 15.6357 12.4222ZM24.0868 14.2222L25.4545 15.5899H29.8079L28.4401 14.2222H24.0868Z" fill="#ffffff"/>
</svg>
