<svg width="32" height="32" viewBox="0 0 32 32" fill="none" xmlns="http://www.w3.org/2000/svg">
<path fill-rule="evenodd" clip-rule="evenodd" d="M12.7998 3.2C12.7998 1.43267 14.2325 0 15.9998 0C17.7671 0 19.1998 1.43267 19.1998 3.2C19.1981 4.9666 17.7664 6.39827 15.9998 6.4C14.2325 6.4 12.7998 4.96733 12.7998 3.2ZM13.8665 3.2C13.8665 4.3782 14.8216 5.33333 15.9998 5.33333C17.178 5.33333 18.1331 4.3782 18.1331 3.2C18.1331 2.0218 17.178 1.06667 15.9998 1.06667C14.8216 1.06667 13.8665 2.0218 13.8665 3.2Z" fill="#87AD16"/>
<path fill-rule="evenodd" clip-rule="evenodd" d="M18.0077 6.93359H18.1335C19.6055 6.93533 20.7985 8.12826 20.8002 9.60026V12.8003C20.8002 13.6839 20.0839 14.4003 19.2002 14.4003H12.8002C11.9165 14.4003 11.2002 13.6839 11.2002 12.8003V9.60026C11.2019 8.12826 12.3949 6.93533 13.8669 6.93359H13.9927L14.1053 6.98959C15.2987 7.58379 16.7017 7.58379 17.8951 6.98959L18.0077 6.93359ZM19.2002 13.3336C19.4947 13.3336 19.7335 13.0948 19.7335 12.8003V9.60026C19.7334 8.76079 19.0845 8.06413 18.2471 8.00453C16.8222 8.66586 15.1783 8.66586 13.7533 8.00453C12.9159 8.06413 12.267 8.76079 12.2669 9.60026V12.8003C12.2669 13.0948 12.5057 13.3336 12.8002 13.3336H19.2002Z" fill="#87AD16"/>
<path fill-rule="evenodd" clip-rule="evenodd" d="M24 20.7996C24 19.0323 25.4327 17.5996 27.2 17.5996C28.9666 17.6013 30.3983 19.033 30.4 20.7996C30.4 22.5669 28.9673 23.9996 27.2 23.9996C25.4327 23.9996 24 22.5669 24 20.7996ZM25.0667 20.7996C25.0667 21.9778 26.0218 22.9329 27.2 22.9329C28.3782 22.9329 29.3333 21.9778 29.3333 20.7996C29.3333 19.6214 28.3782 18.6663 27.2 18.6663C26.0218 18.6663 25.0667 19.6214 25.0667 20.7996Z" fill="#87AD16"/>
<path fill-rule="evenodd" clip-rule="evenodd" d="M29.2074 24.5332H29.3332C30.8052 24.5349 31.9982 25.7279 31.9999 27.1999V30.3999C31.9999 31.2835 31.2836 31.9999 30.3999 31.9999H23.9999C23.1162 31.9999 22.3999 31.2835 22.3999 30.3999V27.1999C22.4016 25.7279 23.5946 24.5349 25.0666 24.5332H25.1924L25.305 24.5865C26.4984 25.1807 27.9014 25.1807 29.0948 24.5865L29.2074 24.5332ZM30.3999 30.9332C30.6944 30.9332 30.9332 30.6944 30.9332 30.3999V27.1999C30.9331 26.3604 30.2842 25.6637 29.4468 25.6041C28.0218 26.2655 26.378 26.2655 24.953 25.6041C24.1156 25.6637 23.4667 26.3604 23.4666 27.1999V30.3999C23.4666 30.6944 23.7054 30.9332 23.9999 30.9332H30.3999Z" fill="#87AD16"/>
<path fill-rule="evenodd" clip-rule="evenodd" d="M1.6001 20.7996C1.6001 19.0323 3.03276 17.5996 4.8001 17.5996C6.5667 17.6013 7.99836 19.033 8.0001 20.7996C8.0001 22.5669 6.56743 23.9996 4.8001 23.9996C3.03276 23.9996 1.6001 22.5669 1.6001 20.7996ZM2.66676 20.7996C2.66676 21.9778 3.6219 22.9329 4.8001 22.9329C5.9783 22.9329 6.93343 21.9778 6.93343 20.7996C6.93343 19.6214 5.9783 18.6663 4.8001 18.6663C3.6219 18.6663 2.66676 19.6214 2.66676 20.7996Z" fill="#87AD16"/>
<path fill-rule="evenodd" clip-rule="evenodd" d="M6.80747 24.5332H6.93333C8.40533 24.5349 9.59827 25.7279 9.6 27.1999V30.3999C9.6 31.2835 8.88367 31.9999 8 31.9999H1.6C0.716333 31.9999 0 31.2835 0 30.3999V27.1999C0.00173333 25.7279 1.19467 24.5349 2.66667 24.5332H2.79253L2.90507 24.5865C4.09847 25.1807 5.50153 25.1807 6.69493 24.5865L6.80747 24.5332ZM8 30.9332C8.29453 30.9332 8.53333 30.6944 8.53333 30.3999V27.1999C8.5332 26.3604 7.88433 25.6637 7.04693 25.6041C5.62193 26.2655 3.97807 26.2655 2.55307 25.6041C1.71567 25.6637 1.0668 26.3604 1.06667 27.1999V30.3999C1.06667 30.6944 1.30547 30.9332 1.6 30.9332H8Z" fill="#87AD16"/>
<path d="M21.2915 27.0848C21.2912 27.0842 21.2909 27.0836 21.2907 27.083C21.1752 26.812 20.8619 26.6859 20.591 26.8014C18.1827 27.8107 15.508 27.9948 12.9841 27.3251L13.4833 27.1784C13.7661 27.0956 13.9282 26.7994 13.8454 26.5166C13.7626 26.2338 13.4663 26.0716 13.1835 26.1544L11.0502 26.78C11.0422 26.78 11.0363 26.7891 11.0289 26.7918C10.9795 26.8102 10.9331 26.8359 10.8913 26.868C10.8727 26.878 10.8549 26.8892 10.8379 26.9016C10.7817 26.9518 10.7371 27.0137 10.7073 27.083C10.6783 27.1527 10.6645 27.2278 10.6667 27.3032C10.6797 27.3754 10.6975 27.4467 10.7201 27.5166C10.7233 27.524 10.7201 27.5326 10.7259 27.54L11.7926 29.5811C11.929 29.8424 12.2513 29.9436 12.5126 29.8072C12.7739 29.6708 12.8751 29.3485 12.7387 29.0872L12.3046 28.2574C15.1722 29.1194 18.2509 28.9518 21.0081 27.7838C21.2793 27.669 21.4062 27.3561 21.2915 27.0848Z" fill="#87AD16"/>
<path d="M30.2438 14.023C30.0356 13.8148 29.698 13.8148 29.4897 14.023L28.735 14.7776C28.2934 10.1063 25.3276 6.05256 21.0092 4.21763C20.7382 4.10216 20.4249 4.22823 20.3094 4.49923C20.194 4.77023 20.32 5.0835 20.591 5.19896C24.465 6.84543 27.158 10.4436 27.6454 14.6246L27.0438 14.023C26.832 13.8183 26.4944 13.8242 26.2897 14.036C26.0901 14.2427 26.0901 14.5704 26.2897 14.7771L27.8897 16.3771C28.0977 16.5856 28.4354 16.5861 28.644 16.378C28.6443 16.3777 28.6446 16.3774 28.6449 16.3771L30.2449 14.7771C30.4528 14.5686 30.4524 14.231 30.2438 14.023Z" fill="#87AD16"/>
<path d="M11.7181 4.61815C11.7163 4.58702 11.7117 4.55615 11.7042 4.52589C11.7042 4.52109 11.6983 4.51789 11.6962 4.51255C11.6941 4.50722 11.6962 4.50349 11.6962 4.49922C11.6817 4.47329 11.6649 4.44862 11.6461 4.42562C11.6288 4.39435 11.6084 4.36489 11.5853 4.33762C11.5537 4.30969 11.5188 4.28589 11.4813 4.26669C11.4625 4.25075 11.4425 4.23629 11.4215 4.22349L9.2882 3.24909C9.01573 3.13722 8.70413 3.26742 8.59226 3.53989C8.48646 3.79755 8.5968 4.09329 8.84553 4.21869L9.95006 4.72375C5.79186 6.94915 3.1972 11.2838 3.2002 16C3.2002 16.2946 3.439 16.5334 3.73353 16.5334C4.02806 16.5334 4.26686 16.2946 4.26686 16C4.2642 11.8472 6.46026 8.00322 10.0391 5.89655L9.65353 6.70242C9.5264 6.96755 9.6378 7.28555 9.9026 7.41335C9.97453 7.44849 10.0535 7.46675 10.1335 7.46669C10.3383 7.46642 10.5249 7.34889 10.6135 7.16429L11.6802 4.93869C11.6802 4.93335 11.6802 4.92749 11.6845 4.92215C11.6983 4.88569 11.708 4.84775 11.7133 4.80909C11.7224 4.78035 11.7292 4.75095 11.7335 4.72109C11.7317 4.68635 11.7266 4.65189 11.7181 4.61815Z" fill="#87AD16"/>
</svg>
