<svg width="23" height="32" viewBox="0 0 23 32" fill="none" xmlns="http://www.w3.org/2000/svg">
<path d="M5.07114 6.47096H17.7819C18.0219 6.47096 18.2162 6.2757 18.2162 6.03574C18.2162 5.79486 18.0219 5.59961 17.7819 5.59961H5.07114C4.83027 5.59961 4.63501 5.79486 4.63501 6.03574C4.63501 6.2757 4.83027 6.47096 5.07114 6.47096Z" fill="white"/>
<path fill-rule="evenodd" clip-rule="evenodd" d="M0.0639648 30.5282V4.3503C0.0648772 3.59574 0.676191 2.98534 1.42984 2.98442H8.06944C8.25283 1.4315 9.47729 0.206139 11.0302 0.023657C12.8842 -0.195321 14.564 1.13041 14.7829 2.98442H21.4216C22.1762 2.98534 22.7866 3.59574 22.7875 4.3503V30.5282C22.7866 31.2819 22.1762 31.8923 21.4216 31.8941H1.42984C0.677104 31.8923 0.0667019 31.2819 0.0639648 30.5282ZM21.4198 31.0218C21.6926 31.0218 21.9134 30.801 21.9134 30.5282L21.9171 8.56928H0.936227V30.5282C0.936227 30.801 1.15703 31.0218 1.42984 31.0218H21.4198ZM11.4262 0.863073C12.6616 0.864898 13.7099 1.76453 13.9025 2.98442H8.96177C9.15247 1.7691 10.1954 0.870372 11.4262 0.863073ZM21.9171 4.3503C21.9171 4.07749 21.6954 3.85486 21.4216 3.85486H1.42984C1.15703 3.85486 0.936227 4.07749 0.936227 4.3503V7.69701H21.9171V4.3503Z" fill="white"/>
<path d="M8.86857 13.3714H19.1733C19.4133 13.3714 19.6085 13.1761 19.6085 12.9361C19.6085 12.6943 19.4133 12.5 19.1733 12.5H8.86857C8.62769 12.5 8.43335 12.6943 8.43335 12.9361C8.43335 13.1761 8.62769 13.3714 8.86857 13.3714Z" fill="white"/>
<path d="M8.86857 17.9211H19.1733C19.4133 17.9211 19.6085 17.7258 19.6085 17.485C19.6085 17.2441 19.4133 17.0488 19.1733 17.0488H8.86857C8.62769 17.0488 8.43335 17.2441 8.43335 17.485C8.43335 17.7258 8.62769 17.9211 8.86857 17.9211Z" fill="white"/>
<path d="M8.86857 22.466H19.1733C19.4133 22.466 19.6085 22.2698 19.6085 22.0299C19.6085 21.789 19.4133 21.5938 19.1733 21.5938H8.86857C8.62769 21.5938 8.43335 21.789 8.43335 22.0299C8.43335 22.2698 8.62769 22.466 8.86857 22.466Z" fill="white"/>
<path d="M8.86857 27.0091H19.1733C19.4133 27.0091 19.6085 26.8148 19.6085 26.573C19.6085 26.333 19.4133 26.1387 19.1733 26.1387H8.86857C8.62769 26.1387 8.43335 26.333 8.43335 26.573C8.43335 26.8148 8.62769 27.0091 8.86857 27.0091Z" fill="white"/>
<path d="M4.52186 13.6166C4.59029 13.7142 4.69522 13.779 4.81201 13.7972H4.87679C4.97259 13.7972 5.06657 13.7644 5.14412 13.7042L7.92058 11.5345C8.12953 11.4131 8.20069 11.1467 8.08026 10.9387C7.95982 10.7297 7.69339 10.6586 7.48537 10.7799C7.44887 10.8 7.41602 10.8264 7.38682 10.8566L4.97168 12.7462L4.55015 12.1449C4.41237 11.9478 4.14047 11.8985 3.94339 12.0372C3.74631 12.175 3.69704 12.4469 3.83573 12.644L4.52186 13.6166Z" fill="white"/>
<path d="M4.52182 18.0962C4.59025 18.1938 4.69518 18.2595 4.81196 18.2778H4.87674C4.97255 18.2768 5.06653 18.244 5.14408 18.1838L7.92054 16.0132C8.1158 15.8708 8.15685 15.598 8.01361 15.4037C7.87127 15.2102 7.59846 15.1683 7.40412 15.3124C7.39773 15.317 7.39043 15.3225 7.38404 15.3279L4.97163 17.2194L4.5501 16.6181C4.44244 16.4028 4.18058 16.3152 3.96616 16.4219C3.75083 16.5296 3.66324 16.7914 3.77091 17.0077C3.78824 17.0414 3.80923 17.0743 3.83569 17.1026L4.52182 18.0962Z" fill="white"/>
<path d="M4.52201 22.5894C4.59044 22.6861 4.69537 22.7509 4.81215 22.7691H4.87694C4.97274 22.7691 5.06672 22.7363 5.14427 22.676L7.92073 20.5054C8.11599 20.3622 8.15704 20.0894 8.0138 19.8959C7.87146 19.7016 7.59865 19.6614 7.40431 19.8038C7.39792 19.8092 7.39062 19.8138 7.38423 19.8193L4.96909 21.7052L4.54847 21.104C4.40978 20.9069 4.13788 20.8585 3.9408 20.9963C3.74281 21.135 3.69537 21.4069 3.83314 21.604L4.52201 22.5894Z" fill="white"/>
<path d="M4.52186 27.1345C4.59029 27.2312 4.69522 27.2969 4.81201 27.3151H4.87679C4.97259 27.3133 5.06657 27.2804 5.14412 27.2221L7.92058 25.0505C8.12496 24.9228 8.18609 24.6527 8.05836 24.4492C7.9288 24.2449 7.65964 24.1856 7.45617 24.3133C7.43153 24.3288 7.40781 24.3471 7.38682 24.368L4.97168 26.2567L4.55015 25.6554C4.41237 25.4575 4.14047 25.41 3.94339 25.5478C3.74631 25.6856 3.69704 25.9575 3.83573 26.1545L4.52186 27.1345Z" fill="white"/>
</svg>
