<svg width="26" height="32" viewBox="0 0 26 32" fill="none" xmlns="http://www.w3.org/2000/svg">
<path fill-rule="evenodd" clip-rule="evenodd" d="M0 0H17.2875L25.0667 7.7792V32H0V0ZM6.73333 24.4165L9.4 22.2832C9.62987 22.0992 9.6672 21.7637 9.48213 21.5333C9.29867 21.3035 8.96213 21.2661 8.7328 21.4501L6.43893 23.2853L5.70987 22.5563C5.50133 22.3477 5.16427 22.3477 4.95573 22.5563C4.7472 22.7648 4.7472 23.1019 4.95573 23.3104L6.0224 24.3771C6.12587 24.4805 6.26293 24.5333 6.4 24.5333C6.51733 24.5333 6.6352 24.4949 6.73333 24.4165ZM9.4 16.4165L6.73333 18.5499C6.6352 18.6283 6.51733 18.6667 6.4 18.6667C6.26293 18.6667 6.12587 18.6139 6.0224 18.5104L4.95573 17.4437C4.7472 17.2352 4.7472 16.8981 4.95573 16.6896C5.16427 16.4811 5.50133 16.4811 5.70987 16.6896L6.43893 17.4187L8.7328 15.5835C8.96213 15.3995 9.29867 15.4368 9.48213 15.6667C9.6672 15.8971 9.62987 16.2325 9.4 16.4165ZM6.73333 12.6832L9.4 10.5499C9.62987 10.3659 9.6672 10.0304 9.48213 9.8C9.29867 9.57013 8.96213 9.5328 8.7328 9.7168L6.43893 11.552L5.70987 10.8229C5.50133 10.6144 5.16427 10.6144 4.95573 10.8229C4.7472 11.0315 4.7472 11.3685 4.95573 11.5771L6.0224 12.6437C6.12587 12.7472 6.26293 12.8 6.4 12.8C6.51733 12.8 6.6352 12.7616 6.73333 12.6832ZM19.2 24H10.6667C10.3723 24 10.1333 23.7616 10.1333 23.4667C10.1333 23.1717 10.3723 22.9333 10.6667 22.9333H19.2C19.4944 22.9333 19.7333 23.1717 19.7333 23.4667C19.7333 23.7616 19.4944 24 19.2 24ZM10.6667 18.1333H19.2C19.4944 18.1333 19.7333 17.8949 19.7333 17.6C19.7333 17.3051 19.4944 17.0667 19.2 17.0667H10.6667C10.3723 17.0667 10.1333 17.3051 10.1333 17.6C10.1333 17.8949 10.3723 18.1333 10.6667 18.1333ZM19.2 12.2667H10.6667C10.3723 12.2667 10.1333 12.0283 10.1333 11.7333C10.1333 11.4384 10.3723 11.2 10.6667 11.2H19.2C19.4944 11.2 19.7333 11.4384 19.7333 11.7333C19.7333 12.0283 19.4944 12.2667 19.2 12.2667ZM16.5333 1.06667V8.53333H24L16.5333 1.06667Z" fill="white"/>
</svg>
