<svg width="32" height="32" viewBox="0 0 32 32" fill="none" xmlns="http://www.w3.org/2000/svg">
<path d="M1.14287 22.2862V1.71484H0.571437C0.256 1.71522 0.0004375 1.97084 0 2.28622V23.4291C0.0004375 23.7445 0.256 24.0001 0.571437 24.0005H19.4286V22.8577H1.71431C1.39869 22.8577 1.14287 22.6018 1.14287 22.2862Z" fill="white"/>
<path d="M13.7143 19.7817V1.14287C13.7136 0.511937 13.2023 0.000625 12.5714 0H9.14283V9.14287C9.14296 9.29444 9.08277 9.43988 8.97558 9.54706C8.86839 9.65425 8.72296 9.71444 8.57139 9.71431C8.39777 9.71438 8.23358 9.63544 8.12527 9.49975L6.28571 7.20038L4.44614 9.49975C4.29464 9.68937 4.03983 9.76256 3.81077 9.68219C3.58171 9.60187 3.42846 9.38556 3.42852 9.14287V0H2.85708C2.54164 0.0004375 2.28608 0.256 2.28564 0.571437V19.4286H12.517C12.9414 19.4312 13.3564 19.5536 13.7143 19.7817Z" fill="white"/>
<path d="M6.28566 5.71431C6.45929 5.71431 6.62341 5.79325 6.73179 5.92887L7.99997 7.51394V0H4.57141V7.51394L5.83954 5.92881C5.94791 5.79325 6.1121 5.71431 6.28566 5.71431Z" fill="white"/>
<path d="M28.5715 12.0343V2.28628C28.571 1.97084 28.3155 1.71528 28 1.71484H27.4286V12.0006H28C28.191 12.0013 28.3818 12.0125 28.5715 12.0343Z" fill="white"/>
<path d="M12.517 20.5723H2.28564V21.7151H13.7008C13.6566 21.0875 13.1458 20.5943 12.517 20.5723Z" fill="white"/>
<path d="M20.5714 28.0005C20.5739 30.2087 22.3633 31.998 24.5714 32.0005H28C30.2081 31.998 31.9975 30.2087 32 28.0005V21.7148H20.5714V28.0005Z" fill="white"/>
<path d="M14.8706 21.7151H19.4285V20.5723H16.0572C15.4275 20.5936 14.9155 21.0867 14.8706 21.7151Z" fill="white"/>
<path d="M28.0001 13.1426H26.8572V20.5711H32.0001V17.1426C31.9976 14.9345 30.2082 13.145 28.0001 13.1426Z" fill="white"/>
<path d="M20.5714 17.1426V20.5711H25.7143V13.1426H24.5714C22.3633 13.145 20.5739 14.9345 20.5714 17.1426Z" fill="white"/>
<path d="M24.5715 12H26.2858V0.571437C26.2854 0.256 26.0298 0.0004375 25.7144 0H16.0001C15.3691 0.000625 14.8578 0.511937 14.8572 1.14287V19.7826C15.2159 19.5539 15.6319 19.4312 16.0572 19.4286H19.4286V17.1429C19.4319 14.3039 21.7326 12.0033 24.5715 12Z" fill="white"/>
</svg>
