<svg width="21" height="32" viewBox="0 0 21 32" fill="none" xmlns="http://www.w3.org/2000/svg">
<path d="M8.4375 15.3932C9.03056 15.1676 9.65013 15 10.3125 15C10.6353 15 10.9423 15.0649 11.25 15.1246V9.375H8.4375V15.3932Z" fill="white"/>
<path d="M3.75 15.9375C3.75 14.3842 2.49081 13.125 0.9375 13.125H0V21.5625C0 27.2488 4.62619 32 10.3125 32C15.9988 32 20.625 27.2488 20.625 21.5625C20.625 21.2494 20.625 12.61 20.625 13.125H17.8125V15H15.9375V11.25H13.125V15.8217C14.7811 16.7536 15.9813 18.1105 17.0672 19.6875C15.4797 22.0205 13.0977 24.375 10.3125 24.375C7.52506 24.375 5.15212 22.0306 3.55775 19.6875C4.33181 18.5594 5.15819 17.4695 6.5625 16.4226V11.25H3.75V15.9375Z" fill="white"/>
<path fill-rule="evenodd" clip-rule="evenodd" d="M10.3126 22.5C8.38262 22.5 6.623 20.6268 5.86218 19.6875C6.623 18.7482 8.38262 16.875 10.3126 16.875C12.2425 16.875 14.0021 18.7482 14.7629 19.6875C14.0021 20.6268 12.2425 22.5 10.3126 22.5ZM11.2501 18.75H9.37506V20.625H11.2501V18.75Z" fill="white"/>
<path d="M5.15625 3.75C4.37963 3.75 3.75 4.37956 3.75 5.15625V9.375H6.5625V5.15625C6.5625 4.37956 5.93287 3.75 5.15625 3.75Z" fill="white"/>
<path d="M11.25 1.40625C11.25 0.629562 10.6204 0 9.84375 0C9.06713 0 8.4375 0.629562 8.4375 1.40625V7.5H11.25V1.40625Z" fill="white"/>
<path d="M15.9375 5.15625C15.9375 4.37956 15.3079 3.75 14.5312 3.75C13.7546 3.75 13.125 4.37956 13.125 5.15625V9.375H15.9375V5.15625Z" fill="white"/>
<path d="M20.625 8.90625C20.625 8.12956 19.9954 7.5 19.2188 7.5C18.4421 7.5 17.8125 8.12956 17.8125 8.90625V11.25H20.625V8.90625Z" fill="white"/>
</svg>
