<svg width="32" height="32" viewBox="0 0 32 32" fill="none" xmlns="http://www.w3.org/2000/svg">
<path fill-rule="evenodd" clip-rule="evenodd" d="M31.4327 13.4128H24.9577C24.0598 10.3447 21.6572 7.94761 18.5872 7.05665V0.577128C18.5872 0.27633 18.3468 0 18.046 0H13.7553C13.4721 0.00744681 13.2388 0.225798 13.2133 0.508245L12.9263 3.47926C11.6622 3.79335 10.4548 4.30213 9.34707 4.98723L7.06729 3.09867C6.8508 2.91968 6.53351 2.93457 6.33484 3.13351L3.13883 6.32394C2.93936 6.52261 2.92447 6.84069 3.10426 7.05718L4.99601 9.3391C4.31755 10.4473 3.80904 11.6508 3.4867 12.9096L0.503723 13.1971C0.22234 13.2229 0.00505319 13.4564 0 13.7391V18.2609C0.00531915 18.5436 0.22234 18.7771 0.503723 18.8029L3.47926 19.0902C3.79495 20.3524 4.30479 21.5577 4.99069 22.6636L3.10266 24.9426C2.92314 25.1593 2.9383 25.4771 3.13777 25.6758L6.33457 28.8654C6.53324 29.0641 6.8508 29.079 7.06702 28.8995L9.35053 27.0064C10.4601 27.6851 11.6654 28.1934 12.9261 28.5133L13.2133 31.492C13.2391 31.7742 13.4721 31.9926 13.7553 32H18.2835C18.567 31.9926 18.8 31.7742 18.8258 31.4918L19.1128 28.521C20.3769 28.2069 21.5843 27.6981 22.692 27.013L24.9718 28.9013C25.1883 29.0803 25.5056 29.0654 25.7043 28.8665L28.9005 25.6761C29.1 25.4774 29.1149 25.1593 28.9351 24.9428L27.0434 22.6609C27.7218 21.5527 28.2306 20.3489 28.5527 19.0899L31.4973 18.8029C31.7785 18.7766 31.9949 18.5431 32 18.2609V13.9574C31.9894 13.6524 31.738 13.4112 31.4327 13.4128ZM24.2356 16C24.2356 20.5322 20.5426 24.2191 16.0032 24.2191C11.4641 24.2191 7.77101 20.5322 7.77101 16C7.77101 11.4678 11.4641 7.78085 16.0032 7.78085C20.5426 7.78085 24.2356 11.4678 24.2356 16ZM28.0715 18.0436L30.9106 17.7668V14.5021H25.2037C25.2843 14.9973 25.3247 15.4981 25.3247 16C25.3247 21.1327 21.1428 25.3085 16.0027 25.3085C10.8628 25.3085 6.68058 21.1327 6.68058 16C6.68058 10.8673 10.8617 6.69149 16.0016 6.69149C16.5027 6.69096 17.0032 6.73138 17.4979 6.81223V1.08936H14.2503L13.9726 3.96569C13.9508 4.20532 13.779 4.40479 13.5449 4.4617C12.1399 4.76277 10.8037 5.32447 9.60559 6.11808C9.40558 6.25053 9.14229 6.23644 8.95745 6.08324L6.75319 4.25558L4.25878 6.74441L6.08511 8.94787C6.23697 9.13165 6.25133 9.39308 6.12074 9.59282C5.33218 10.7949 4.76702 12.1295 4.45213 13.5324C4.3984 13.7633 4.20319 13.934 3.96729 13.9564L1.08936 14.2338V17.7662L3.96729 18.0436C4.20559 18.0657 4.40293 18.2372 4.45824 18.4697C4.76197 19.8731 5.3258 21.2074 6.12074 22.4032C6.25426 22.6032 6.24043 22.8673 6.0867 23.0524L4.25984 25.2558L6.75372 27.7452L8.95798 25.9189C9.14096 25.7681 9.4008 25.7529 9.6 25.8819C10.8665 26.6957 12.1934 27.2582 13.5441 27.546C13.7777 27.5992 13.9505 27.796 13.9731 28.0343L14.2503 30.9106H17.7891L18.0662 28.0343C18.0883 27.7947 18.2601 27.5952 18.4941 27.5383C19.8992 27.2372 21.2354 26.6755 22.4332 25.8819C22.6335 25.7495 22.8968 25.7636 23.0816 25.9168L25.2859 27.7447L27.7803 25.2556L25.9543 23.0521C25.8024 22.8684 25.788 22.6069 25.9186 22.4072C26.7072 21.2051 27.2723 19.8705 27.5872 18.4676C27.641 18.237 27.8359 18.0662 28.0715 18.0436Z" fill="white"/>
<path d="M15.0469 12.572V16.5718C15.0469 16.8726 15.3216 17.0896 15.6224 17.0896H18.67C18.9708 17.0896 19.2147 16.8457 19.2147 16.5449C19.2147 16.2441 18.9708 16.0002 18.67 16.0002H16.1362V12.572C16.1362 12.2712 15.8924 12.0273 15.5916 12.0273C15.2908 12.0273 15.0469 12.2712 15.0469 12.572H15.0469Z" fill="white"/>
</svg>
