<svg width="32" height="37" viewBox="0 0 32 37" fill="none" xmlns="http://www.w3.org/2000/svg">
<path d="M5.65253 13.7143C5.67744 13.7143 5.70263 13.7124 5.72782 13.7091L11.8801 12.849C12.0578 12.8243 12.2111 12.7134 12.2894 12.5534C13.058 10.9842 13.3193 8.97993 13.0251 6.90983C12.7433 4.9281 11.9808 3.12695 10.8776 1.83791C9.71593 0.480533 8.31045 -0.160009 6.92101 0.0340195C6.65641 0.0710688 6.39541 0.138855 6.14465 0.235733C5.86731 0.34249 5.73003 0.652057 5.83798 0.927046C5.94592 1.20176 6.25813 1.33788 6.53546 1.23085C6.70872 1.16416 6.88891 1.11723 7.07131 1.09171C8.08183 0.950373 9.14189 1.46083 10.0561 2.52922C11.0293 3.66595 11.7046 5.27472 11.9581 7.05912C12.2031 8.78178 12.0132 10.5025 11.4378 11.8325L5.86925 12.6108C4.94564 11.4902 4.28331 9.8886 4.03836 8.16594C3.73334 6.02065 4.10091 3.91487 5.02148 2.53334C5.18533 2.28717 5.11724 1.95592 4.86897 1.79345C4.6207 1.63071 4.28663 1.6985 4.1225 1.94467C3.06132 3.53752 2.63093 5.9191 2.97165 8.31496C3.26586 10.3851 4.07572 12.2397 5.25176 13.5373C5.355 13.6506 5.50086 13.7143 5.65253 13.7143Z" fill="white"/>
<path d="M1.31199 9.44367C1.08344 8.55744 0.966806 7.66961 0.965813 6.80506C0.965317 6.51768 0.749424 6.28516 0.482907 6.28516C0.482659 6.28516 0.482411 6.28516 0.482163 6.28516C0.215646 6.28542 -0.000495422 6.51875 8.52902e-07 6.8064C0.0012416 7.76487 0.129537 8.74609 0.381661 9.72275C0.62088 10.6507 0.958617 11.522 1.38544 12.3121C1.47502 12.4783 1.63682 12.5709 1.80308 12.5709C1.88572 12.5709 1.96935 12.5481 2.04578 12.5C2.27631 12.3555 2.35423 12.0365 2.21998 11.7882C1.83485 11.0748 1.52937 10.286 1.31199 9.44367Z" fill="white"/>
<path d="M14.4236 4.58608C14.105 4.65356 13.9055 4.94927 13.9779 5.2464C14.1952 6.13977 14.281 7.08644 14.2323 8.06034C14.1861 8.98546 14.0207 9.87799 13.7414 10.713C13.6441 11.0038 13.818 11.3132 14.1299 11.4042C14.1886 11.4212 14.2478 11.4294 14.3062 11.4294C14.5582 11.4294 14.7917 11.278 14.8708 11.0418C15.1806 10.1167 15.3633 9.13091 15.414 8.11165C15.4679 7.03853 15.3727 5.99234 15.1316 5.002C15.0593 4.70487 14.7422 4.5186 14.4236 4.58608Z" fill="white"/>
<path d="M17.6161 21.1412C17.6307 21.1426 17.6453 21.1431 17.6596 21.1431C17.9252 21.1431 18.151 20.933 18.1735 20.6553C18.2414 19.8152 18.4221 18.9623 18.7105 18.1203C19.014 17.2341 19.4168 16.4175 19.907 15.6933C20.0702 15.4525 20.0129 15.121 19.7789 14.9529C19.5452 14.7851 19.2234 14.8442 19.0602 15.0849C18.5166 15.8876 18.0714 16.7897 17.7368 17.7664C17.4193 18.6942 17.2197 19.6365 17.1447 20.567C17.1208 20.8597 17.332 21.1169 17.6161 21.1412Z" fill="white"/>
<path d="M31.58 20.0103C31.298 19.9518 31.0254 20.1476 30.9704 20.4473C30.8051 21.3483 30.5136 22.2484 30.104 23.1226C29.7147 23.9534 29.2423 24.7091 28.7 25.3689C28.511 25.5987 28.5332 25.9479 28.7492 26.1491C28.8477 26.2408 28.9694 26.2857 29.0909 26.2857C29.2357 26.2857 29.3796 26.2218 29.4821 26.0968C30.0829 25.3657 30.6049 24.5313 31.0337 23.6161C31.4855 22.6527 31.8072 21.6577 31.9904 20.659C32.0454 20.3592 31.8617 20.0689 31.58 20.0103Z" fill="white"/>
<path fill-rule="evenodd" clip-rule="evenodd" d="M12.3581 14.2906C12.6615 14.2486 12.9415 14.456 12.9845 14.7538L13.6751 19.5684C13.8221 20.5932 13.552 21.6155 12.9147 22.4472C12.2774 23.2789 11.3521 23.8166 10.3094 23.9611C10.1228 23.9868 9.93759 23.9994 9.75441 23.9994C7.81912 23.9994 6.12372 22.5987 5.84082 20.6646L5.84068 20.6641C5.84045 20.6632 5.84025 20.6625 5.84025 20.6615C5.83997 20.6607 5.83997 20.6601 5.83997 20.6593L5.83883 20.654L5.14825 15.8391C5.12773 15.6961 5.16591 15.5508 5.25423 15.4355C5.34283 15.3201 5.47416 15.244 5.61974 15.2239L12.3581 14.2906ZM6.65533 18.5399L6.85846 19.9547L12.4874 19.0948L12.288 17.7049L6.65533 18.5399ZM11.9638 15.4453L12.1333 16.626L6.50064 17.4611L6.32343 16.2266L11.9638 15.4453ZM10.1544 22.882C10.904 22.7784 11.5697 22.3912 12.029 21.7919C12.3925 21.3174 12.5894 20.7578 12.6036 20.1795L7.06558 21.0254C7.50147 22.2653 8.78463 23.072 10.1544 22.882Z" fill="white"/>
<path d="M29.7096 18.2834C29.7001 17.9795 29.4574 17.7427 29.1621 17.7512C28.8693 17.7611 28.6394 18.0154 28.6489 18.3193C28.6882 19.5694 28.4485 20.9214 27.9555 22.2284C27.3257 23.899 26.3233 25.3491 25.1808 26.2552L20.0219 24.1601C19.7754 22.6902 19.9881 20.9191 20.618 19.2486C21.2702 17.5186 22.2867 16.0642 23.4802 15.1533C24.6014 14.2974 25.7346 14.0354 26.671 14.4159C27.3423 14.6884 27.8803 15.2835 28.2263 16.1369C28.34 16.4173 28.6511 16.5489 28.9211 16.4309C29.1913 16.3129 29.3181 15.99 29.2044 15.7096C28.7444 14.5758 28.0022 13.7739 27.0576 13.3902C25.7701 12.8673 24.2764 13.1786 22.8514 14.2663C21.4984 15.2988 20.3543 16.9258 19.6295 18.8473C18.8726 20.8544 18.6635 22.9267 19.04 24.6825C19.0785 24.8616 19.2001 25.009 19.3645 25.0758L25.0647 27.3904C25.1271 27.4158 25.1928 27.4283 25.258 27.4283C25.3646 27.4283 25.4701 27.3952 25.5601 27.3304C26.9851 26.3061 28.1868 24.6369 28.9437 22.6296C29.4888 21.1846 29.7535 19.6818 29.7096 18.2834Z" fill="white"/>
<path fill-rule="evenodd" clip-rule="evenodd" d="M18.6936 26.3231L24.8031 28.7851C24.9352 28.8385 25.0412 28.9435 25.0981 29.0773C25.1549 29.2108 25.1577 29.3624 25.1061 29.4985L24.304 31.6089L24.3019 31.6157C24.3009 31.6191 24.2998 31.6225 24.2985 31.6259C24.2978 31.6279 24.2969 31.6297 24.296 31.6315L24.2939 31.6361L23.3677 34.0738C22.9974 35.0474 22.2783 35.8159 21.3425 36.2374C20.8498 36.4594 20.329 36.5709 19.8085 36.5709C19.3405 36.5709 18.8724 36.4809 18.425 36.3005C17.4793 35.9194 16.733 35.1789 16.3238 34.2149C15.9142 33.2512 15.8925 32.1842 16.2625 31.2103L18.0012 26.635C18.1086 26.3522 18.4189 26.2125 18.6936 26.3231ZM23.9159 29.6096L18.8018 27.549L18.3849 28.6459L23.4973 30.7111L23.9159 29.6096ZM22.606 33.0569L17.4845 31.0157L17.9954 29.671L23.1078 31.7362L22.606 33.0569ZM17.1294 32.055C16.8547 33.3839 17.5463 34.7642 18.8145 35.2754C20.0892 35.7888 21.5156 35.2505 22.1852 34.0698L17.1294 32.055Z" fill="white"/>
</svg>
