<svg width="32" height="23" viewBox="0 0 32 23" fill="none" xmlns="http://www.w3.org/2000/svg">
<path fill-rule="evenodd" clip-rule="evenodd" d="M26.6123 14.1205C28.2822 14.0817 29.9512 14.2297 31.5883 14.5616C31.74 14.5968 31.8685 14.6971 31.9397 14.8356C32.0114 14.9732 32.0195 15.1352 31.9621 15.2793C29.6443 21.0817 25.126 22.4192 21.4556 22.4192C19.6005 22.4068 17.7591 22.1009 15.9997 21.5126C14.2404 22.1 12.3992 22.4053 10.5444 22.417C6.8735 22.417 2.35571 21.0801 0.0378845 15.2772C-0.0195453 15.1331 -0.011368 14.9711 0.0602841 14.8335C0.13159 14.6955 0.259871 14.5957 0.411211 14.5605C2.04824 14.2286 3.71723 14.0807 5.38712 14.1195C4.42927 11.6899 4.22928 8.7618 4.80793 5.38945C4.83321 5.24368 4.91792 5.11497 5.0418 5.03407C5.16568 4.95318 5.31761 4.92738 5.46125 4.96284C7.41321 5.51505 9.26352 6.37789 10.9412 7.51823C11.7155 5.03643 13.2968 2.56476 15.6621 0.159222C15.8515 -0.033127 16.1546 -0.0537344 16.3683 0.111228C18.6683 1.99721 20.4214 4.46454 21.4455 7.25693C23.0197 6.24381 24.7361 5.47098 26.5382 4.96391C26.6819 4.92845 26.8338 4.95425 26.9577 5.03514C27.0815 5.11603 27.1663 5.24475 27.1915 5.39052C27.7702 8.76287 27.5723 11.6915 26.6123 14.1205ZM19.8333 15.7246C21.5707 14.825 23.477 14.2982 25.43 14.1781C26.4171 11.9918 26.6923 9.30199 26.2369 6.16535C24.537 6.71939 22.9263 7.51634 21.4546 8.53143C18.8333 10.3754 17.188 12.6807 16.548 15.3881C16.7517 16.352 16.8428 17.3362 16.8195 18.321C17.5658 17.3227 18.5073 16.4865 19.5869 15.8632C19.6547 15.7953 19.74 15.7474 19.8333 15.7246ZM16.0792 1.25614C17.0184 2.0875 19.5143 4.54477 20.5298 7.89365C18.5039 9.31864 16.9313 11.2967 15.9997 13.5915C15.1357 11.4454 13.7021 9.57579 11.8537 8.18428C12.4985 5.87045 13.9123 3.5433 16.0792 1.25614ZM10.923 8.80179C9.35411 7.65455 7.61301 6.76358 5.76472 6.16215V6.16375C5.30712 9.30146 5.58232 11.9918 6.56897 14.1755C9.58545 14.4176 13.0195 15.4169 15.18 18.3178C15.1566 17.333 15.2479 16.3487 15.452 15.3849C14.7839 12.717 13.1759 10.3796 10.923 8.80179ZM9.80998 21.3537C5.81698 21.1372 2.95143 19.1609 1.28266 15.4793C3.70022 15.0676 12.419 14.0885 15.2941 20.6242C13.5218 21.1818 11.6665 21.4292 9.80998 21.3553V21.3537ZM16.7053 20.6226C18.4778 21.1796 20.333 21.4269 22.1895 21.3537V21.3553C26.1825 21.1372 29.048 19.1609 30.7195 15.4793C28.2982 15.0682 19.5799 14.0891 16.7053 20.6226Z" fill="white"/>
<rect x="15.3293" y="3.83203" width="1.1497" height="1.1497" fill="white"/>
<rect x="15.3293" y="5.93945" width="1.1497" height="1.1497" fill="white"/>
<rect x="15.3293" y="8.04883" width="1.1497" height="1.1497" fill="white"/>
<path d="M6.32324 8.04936C6.35051 9.46839 6.76169 10.8557 7.51575 12.0728L8.43103 11.4816C7.80026 10.4385 7.45352 9.25726 7.42334 8.04883L6.32324 8.04936Z" fill="white"/>
<path d="M25.6766 8.04883H24.5765C24.5484 9.25756 24.2015 10.4393 23.5688 11.4816L24.4841 12.0728C25.2382 10.8555 25.6494 9.46804 25.6766 8.04883Z" fill="white"/>
</svg>
