<svg width="35" height="32" viewBox="0 0 35 32" fill="none" xmlns="http://www.w3.org/2000/svg">
<path d="M6.96927 12.5033C7.10096 12.6198 7.28303 12.6618 7.45793 12.6263C7.63092 12.592 7.78141 12.4723 7.85988 12.3131C7.88924 12.2534 8.20998 11.6927 9.27907 11.7909C10.6529 11.9157 11.5482 12.5346 11.5571 12.5402C11.6561 12.61 11.7709 12.6447 11.8852 12.6447C12.0234 12.6447 12.1606 12.5942 12.2692 12.4955L15.6754 9.37322C15.862 9.20161 15.9127 8.92744 15.7996 8.70038L14.3716 5.8453C15.8568 3.33114 18.8402 3.13016 19.7422 3.13016C19.8607 3.13016 19.9306 3.13407 19.9794 3.13576L20.689 3.13016C20.9224 3.12847 21.1309 2.98357 21.2145 2.76559C21.299 2.54751 21.2401 2.30133 21.0677 2.14334C19.5763 0.778215 17.7209 0.0859375 15.551 0.0859375C11.2245 0.0859375 6.74505 2.94936 5.8367 4.88034C4.7619 7.16427 3.40787 8.53911 3.39371 8.55326C3.28367 8.66405 3.22347 8.81602 3.22843 8.97233C3.23382 9.12895 3.3031 9.27649 3.42117 9.38041L6.96927 12.5033Z" fill="white"/>
<path d="M4.13676 16.1963C4.24015 16.2838 4.37069 16.3314 4.5046 16.3314C4.52129 16.3314 4.53808 16.3309 4.55456 16.3292C4.70663 16.316 4.84646 16.2423 4.94289 16.1246L6.92984 13.7119C7.12469 13.4757 7.09724 13.1284 6.86795 12.9258L3.17792 9.6615C3.06545 9.56138 2.9196 9.51375 2.76689 9.52009C2.61576 9.52981 2.47582 9.59824 2.37623 9.71135L0.24744 12.1243C0.146476 12.2379 0.0957833 12.3883 0.107084 12.5399C0.117962 12.6921 0.18946 12.8328 0.305315 12.9315L4.13676 16.1963Z" fill="white"/>
<path fill-rule="evenodd" clip-rule="evenodd" d="M34.6149 26.3719C34.6698 26.4251 34.7129 26.4871 34.743 26.557C35.1576 27.5178 34.5629 29.0356 33.2637 30.3347C32.2753 31.3227 31.0924 31.937 30.1764 31.937C29.8615 31.937 29.5815 31.8682 29.3442 31.7308C29.2966 31.7029 29.2523 31.6674 29.214 31.6276L16.1484 17.6595L15.7986 17.9828L17.2026 19.4032C17.4222 19.6249 17.421 19.9824 17.2004 20.2038L5.75483 31.6402C5.72019 31.6751 5.68058 31.7058 5.63781 31.73C5.40061 31.8671 5.12053 31.937 4.8057 31.937C3.88922 31.937 2.70627 31.3226 1.7186 30.3342C0.419592 29.0356 -0.17489 27.5178 0.239737 26.557C0.273532 26.4783 0.325915 26.4079 0.391077 26.3507L12.7943 15.6914C13.0196 15.4982 13.3592 15.5112 13.5674 15.7229L15.0016 17.1745L15.3738 16.8301L12.4291 13.6829C12.3235 13.5703 12.2687 13.4201 12.2765 13.266C12.2844 13.113 12.3543 12.9685 12.4708 12.8671L16.3738 9.46087C16.5954 9.26718 16.9317 9.27637 17.1429 9.48252L20.1486 12.4159L28.2982 4.88244L27.8763 4.46063C27.7621 4.34646 27.7018 4.18868 27.7112 4.02742C27.7199 3.86625 27.797 3.71639 27.9229 3.61511L31.445 0.797739C31.6534 0.631402 31.949 0.633092 32.1563 0.799429L33.2679 1.69585C33.3864 1.79185 33.4619 1.93157 33.4763 2.08429C33.4912 2.23584 33.4436 2.38749 33.345 2.50451L30.3435 6.05757C30.2408 6.17902 30.0923 6.25189 29.9337 6.25854C29.9259 6.25907 29.9175 6.25907 29.9099 6.25907C29.7596 6.25907 29.615 6.1994 29.5083 6.09274L29.1015 5.68571L20.9625 13.2094L24.913 17.0647L34.6149 26.3719ZM1.87786 27.4495C1.93405 27.5139 2.01283 27.5477 2.09236 27.5477C2.15847 27.5477 2.22416 27.5249 2.27813 27.4782L12.696 18.4539C12.8147 18.3513 12.8277 18.1723 12.7248 18.0538C12.6222 17.9351 12.4425 17.9224 12.3245 18.0248L1.90691 27.0494C1.78799 27.1524 1.775 27.3309 1.87786 27.4495ZM3.58273 29.038C3.50902 29.038 3.4352 29.0092 3.37954 28.9519C3.27065 28.84 3.27277 28.6598 3.38535 28.5506L13.2139 18.9819C13.3256 18.873 13.5048 18.8752 13.615 18.9874C13.7242 19.0993 13.7217 19.28 13.6095 19.3887L3.78086 28.9574C3.72573 29.0114 3.65423 29.038 3.58273 29.038ZM5.27388 30.0896L14.9958 20.3074C15.1065 20.1959 15.1052 20.0162 14.9947 19.9059C14.884 19.7956 14.7042 19.7956 14.5933 19.907L4.87139 29.6893C4.76124 29.8002 4.76188 29.9804 4.87245 30.0906C4.92821 30.1454 5.00024 30.1732 5.0729 30.1732C5.14556 30.1732 5.21822 30.1461 5.27388 30.0896Z" fill="white"/>
</svg>
