<svg id="noun_safe_payment_1353908" data-name="noun_safe payment_1353908" xmlns="http://www.w3.org/2000/svg" width="36" height="44" viewBox="0 0 36 44">
  <path id="Shape" d="M18,44A72.439,72.439,0,0,1,4.412,42.684l-1.5-.272A3.651,3.651,0,0,1,0,38.784V21.456a3.649,3.649,0,0,1,2.911-3.629l.22-.046c.838-.181,1.7-.321,2.459-.445l.026,0,.03,0V12.474A12.558,12.558,0,0,1,9.2,3.651,11.954,11.954,0,0,1,17.824,0h.4A12.321,12.321,0,0,1,30.353,12.474v4.854l.047.007c.673.109,1.594.259,2.469.446l.221.046A3.621,3.621,0,0,1,36,21.41V38.784a3.651,3.651,0,0,1-2.911,3.629l-1.5.272A72.439,72.439,0,0,1,18,44Zm.039-25.391A76.011,76.011,0,0,0,3.574,20l-.221.045a1.389,1.389,0,0,0-1.1,1.361V38.784a1.389,1.389,0,0,0,1.1,1.361l1.5.272a69.617,69.617,0,0,0,13.169,1.259,69.617,69.617,0,0,0,13.169-1.259l1.5-.272a1.389,1.389,0,0,0,1.1-1.361V21.41a1.389,1.389,0,0,0-1.1-1.361L32.47,20A75.5,75.5,0,0,0,18.039,18.609ZM17.779,5.125h.4A7.073,7.073,0,0,1,23.26,7.268a7.381,7.381,0,0,1,2.107,5.206v4.219l.055,0h.009l.022,0c.834.082,1.779.175,2.695.309V12.474A10.1,10.1,0,0,0,18.176,2.268h-.4A10.081,10.081,0,0,0,7.852,12.474V17.01c.95-.139,1.954-.237,2.761-.315l.019,0V12.474A7.258,7.258,0,0,1,17.779,5.125ZM18,16.341c1.707,0,3.443.057,5.162.17V12.474a5.039,5.039,0,0,0-4.985-5.081h-.4a5.018,5.018,0,0,0-4.941,5.081v4.037C14.553,16.4,16.29,16.341,18,16.341Z"/>
  <circle id="Oval" cx="1.5" cy="1.5" r="1.5" transform="translate(25 29)"/>
  <circle id="Oval-2" data-name="Oval" cx="1.5" cy="1.5" r="1.5" transform="translate(8 29)"/>
  <path id="Path" d="M10,13.142A5.352,5.352,0,0,1,6.92,14a5.291,5.291,0,0,1-4.152-1.852A6.5,6.5,0,0,1,1.295,8.581H0V7.542H1.161V7.226a6.746,6.746,0,0,1,.045-.948H0V5.239H1.339a6.681,6.681,0,0,1,1.7-3.523A5.38,5.38,0,0,1,7.1,0,5.71,5.71,0,0,1,9.821.677l-.4,1.355A4.618,4.618,0,0,0,7.1,1.445,3.679,3.679,0,0,0,4.375,2.574a4.954,4.954,0,0,0-1.25,2.619H8.839V6.232H2.991c0,.271-.045.587-.045.858v.361H8.884V8.49H3.08A5.219,5.219,0,0,0,4.2,11.2a3.886,3.886,0,0,0,2.9,1.219,5.22,5.22,0,0,0,2.5-.677Z" transform="translate(13 23)"/>
</svg>
