<svg width="16" height="10" viewBox="0 0 16 10" fill="none" xmlns="http://www.w3.org/2000/svg">
<path d="M11.6251 0.133789C9.2128 0.133789 7.25013 2.22739 7.25013 4.80046C7.25013 6.49139 5.96053 7.86712 4.3752 7.86712C2.78987 7.86712 1.5 6.49139 1.5 4.80046C1.5 3.10952 2.7896 1.73379 4.37493 1.73379C4.9472 1.73379 5.49973 1.91246 5.9728 2.25059C6.13093 2.36392 6.27867 2.49352 6.41147 2.63592C6.6944 2.93886 7.18853 2.93992 7.472 2.63832C7.76507 2.32712 7.76613 1.81966 7.4744 1.50686C7.27173 1.29006 7.04747 1.09299 6.808 0.921789C6.08693 0.406322 5.24587 0.134056 4.37493 0.134056C1.96267 0.133789 0 2.22739 0 4.80046C0 7.37352 1.96267 9.46712 4.37493 9.46712C6.7872 9.46712 8.74987 7.37352 8.74987 4.80046C8.74987 3.10952 10.0395 1.73379 11.6248 1.73379C13.2101 1.73379 14.5 3.10952 14.5 4.80046C14.5 6.49139 13.2104 7.86712 11.6251 7.86712C10.8573 7.86712 10.1355 7.54846 9.59253 6.96952C9.30933 6.66739 8.8152 6.66739 8.53173 6.96952C8.39013 7.12072 8.31227 7.32152 8.31227 7.53512C8.31227 7.74899 8.3904 7.95006 8.532 8.10072C9.35813 8.98206 10.4568 9.46712 11.6251 9.46712C14.0373 9.46712 16 7.37352 16 4.80046C16 2.22739 14.0373 0.133789 11.6251 0.133789Z" fill="white"/>
</svg>
