<svg width="11" height="10" viewBox="0 0 11 10" fill="none" xmlns="http://www.w3.org/2000/svg">
<path d="M9.80705 7.90952L8.25777 6.3615C7.94918 6.05444 7.43816 6.06377 7.11882 6.38293L6.33829 7.16256C6.28897 7.13541 6.23793 7.10705 6.18427 7.07696C5.69137 6.8041 5.01675 6.43012 4.30686 5.72037C3.59487 5.00912 3.22019 4.33409 2.94625 3.84133C2.91734 3.78913 2.88964 3.73879 2.86229 3.69099L3.38614 3.1684L3.64369 2.91078C3.96352 2.59116 3.97234 2.08075 3.66447 1.7728L2.11519 0.224608C1.80732 -0.0829161 1.29607 -0.0735867 0.976238 0.246031L0.539599 0.684772L0.551531 0.696606C0.405119 0.883251 0.282774 1.09852 0.191728 1.33066C0.107801 1.55163 0.0555483 1.76249 0.0316556 1.97378C-0.172917 3.66816 0.602083 5.21669 2.70533 7.31802C5.61266 10.2225 7.95558 10.003 8.05666 9.99233C8.2768 9.96604 8.48777 9.91349 8.70217 9.83031C8.9325 9.74041 9.14783 9.61835 9.33453 9.47239L9.34407 9.48086L9.78642 9.04811C10.1056 8.72855 10.1148 8.21796 9.80705 7.90952Z" fill="#87AD16"/>
</svg>
