<svg width="34" height="34" viewBox="0 0 34 34" fill="none" xmlns="http://www.w3.org/2000/svg">
<path opacity="0.6" fill-rule="evenodd" clip-rule="evenodd" d="M17 33C25.8366 33 33 25.8366 33 17C33 8.16344 25.8366 1 17 1C8.16344 1 1 8.16344 1 17C1 25.8366 8.16344 33 17 33Z" stroke="white"/>
<path d="M24.5035 13.7364L16.078 22.1613C15.454 22.7854 14.442 22.7854 13.8174 22.1613L9.46812 17.8117C8.84396 17.1876 8.84396 16.1754 9.46812 15.5513C10.0924 14.927 11.1044 14.927 11.7284 15.551L14.948 18.7707L22.2429 11.4758C22.8671 10.8516 23.8792 10.852 24.5033 11.4758C25.1273 12.1 25.1273 13.1119 24.5035 13.7364Z" fill="white"/>
</svg>
