<svg width="22" height="18" viewBox="0 0 22 18" fill="none" xmlns="http://www.w3.org/2000/svg">
<path fill-rule="evenodd" clip-rule="evenodd" d="M14.5935 5.92703C14.4683 4.71918 13.7806 3.67862 12.7999 3.06371C12.8258 1.36826 14.2062 0.000529412 15.908 0C17.6262 0 19.0189 1.39262 19.0189 3.11082C19.0189 4.82876 17.6262 6.22138 15.908 6.22138C15.4374 6.22138 14.9935 6.11391 14.5935 5.92703ZM13.8727 6.32224C13.8727 8.04018 12.4801 9.43306 10.7619 9.43306C9.04394 9.43306 7.65053 8.04044 7.65053 6.3225C7.65053 4.60456 9.04394 3.21168 10.7619 3.21168C12.4798 3.21168 13.8727 4.60429 13.8727 6.32224ZM12.0814 9.64509H9.44179C7.24553 9.64509 5.45876 11.4321 5.45876 13.6284V16.8565L5.46697 16.907L5.68932 16.9766C7.78526 17.6315 9.60618 17.8499 11.1049 17.8499C14.0323 17.8499 15.7291 17.0153 15.8336 16.9621L16.0414 16.857H16.0637V13.6284C16.0645 11.4321 14.2777 9.64509 12.0814 9.64509ZM14.6089 6.43368H17.2281C19.4241 6.43368 21.2109 8.22044 21.2109 10.4164V13.6456H21.1886L20.9809 13.7509C20.8826 13.8002 19.3924 14.5331 16.8062 14.6279V13.6331C16.8062 11.4949 15.3778 9.68453 13.4256 9.10403C14.1332 8.42532 14.5805 7.48165 14.6089 6.43368ZM5.30338 6.22191C5.91194 6.22191 6.47815 6.04429 6.95779 5.74173C7.11026 4.74724 7.64338 3.87821 8.40494 3.28632C8.4059 3.26882 8.40707 3.25137 8.40823 3.23392C8.41096 3.19331 8.41368 3.15272 8.41368 3.11162C8.41368 1.39341 7.02079 0.000794118 5.30338 0.000794118C3.58491 0.000794118 2.19256 1.39341 2.19256 3.11162C2.19256 4.82903 3.58491 6.22191 5.30338 6.22191ZM6.91465 6.4485C6.94721 7.49012 7.39297 8.42876 8.09709 9.10403C6.14435 9.68506 4.71653 11.4949 4.716 13.6331V14.6081C3.41259 14.5318 1.91197 14.2899 0.230559 13.765L0.00820588 13.6948L0 13.6451V10.4164C0 8.22044 1.78676 6.43368 3.98303 6.43368H6.62241C6.71433 6.43368 6.80374 6.44029 6.89381 6.44696C6.90075 6.44747 6.9077 6.44799 6.91465 6.4485Z" fill="#FFFFFF"/>
</svg>
