<svg width="18" height="18" viewBox="0 0 18 18" fill="none" xmlns="http://www.w3.org/2000/svg">
<path d="M0.642867 12.5353V0.963867H0.321434C0.144 0.964078 0.000246094 1.10787 0 1.28527V13.1781C0.000246094 13.3556 0.144 13.4993 0.321434 13.4996H10.9286V12.8567H0.964301C0.786762 12.8567 0.642867 12.7128 0.642867 12.5353Z" fill="#FFFFFF"/>
<path d="M7.71431 11.1272V0.642867C7.71396 0.287965 7.42634 0.000351563 7.07144 0H5.14287V5.14287C5.14294 5.22812 5.10909 5.30993 5.0488 5.37022C4.9885 5.43052 4.90669 5.46437 4.82144 5.4643C4.72378 5.46434 4.63142 5.41993 4.57049 5.34361L3.53574 4.05021L2.50099 5.34361C2.41577 5.45027 2.27244 5.49144 2.14359 5.44623C2.01474 5.40105 1.92854 5.27938 1.92857 5.14287V0H1.60714C1.42971 0.000246094 1.28595 0.144 1.28571 0.321434V10.9286H7.04082C7.27956 10.93 7.513 10.9989 7.71431 11.1272Z" fill="#FFFFFF"/>
<path d="M3.53571 3.2143C3.63337 3.2143 3.72569 3.2587 3.78665 3.33499L4.50001 4.22659V0H2.57144V4.22659L3.28476 3.33496C3.34572 3.2587 3.43808 3.2143 3.53571 3.2143Z" fill="#FFFFFF"/>
<path d="M16.0714 6.76855V1.2853C16.0712 1.10787 15.9274 0.964113 15.75 0.963867H15.4286V6.7496H15.75C15.8574 6.74999 15.9647 6.75632 16.0714 6.76855Z" fill="#FFFFFF"/>
<path d="M7.04082 11.5713H1.28571V12.2142H7.70671C7.68189 11.8611 7.39456 11.5837 7.04082 11.5713Z" fill="#FFFFFF"/>
<path d="M11.5714 15.7496C11.5728 16.9916 12.5794 17.9982 13.8214 17.9996H15.75C16.9921 17.9982 17.9986 16.9916 18 15.7496V12.2139H11.5714V15.7496Z" fill="#FFFFFF"/>
<path d="M8.36472 12.2142H10.9286V11.5713H9.03216C8.67799 11.5833 8.38999 11.8607 8.36472 12.2142Z" fill="#FFFFFF"/>
<path d="M15.75 7.39258H15.1071V11.5711H18V9.64258C17.9986 8.40051 16.9921 7.39395 15.75 7.39258Z" fill="#FFFFFF"/>
<path d="M11.5714 9.64258V11.5711H14.4643V7.39258H13.8214C12.5794 7.39395 11.5728 8.40051 11.5714 9.64258Z" fill="#FFFFFF"/>
<path d="M13.8214 6.75H14.7857V0.321434C14.7855 0.144 14.6417 0.000246094 14.4643 0H9.00001C8.64511 0.000351563 8.3575 0.287965 8.35715 0.642867V11.1277C8.55891 10.9991 8.79291 10.93 9.03218 10.9286H10.9286V9.64287C10.9304 8.04593 12.2245 6.75186 13.8214 6.75Z" fill="#FFFFFF"/>
</svg>
