<svg width="22" height="22" viewBox="0 0 22 22" fill="none" xmlns="http://www.w3.org/2000/svg">
<path d="M22 14.8888C22 12.1587 20.4338 9.72227 18.0882 8.53711C18.0153 13.7716 13.7715 18.0154 8.53702 18.0883C9.72218 20.4339 12.1586 22.0001 14.8887 22.0001C16.1687 22.0001 17.4134 21.6592 18.5071 21.0115L21.9689 21.969L21.0114 18.5072C21.6591 17.4135 22 16.1688 22 14.8888Z" fill="#87AD16"/>
<path fill-rule="evenodd" clip-rule="evenodd" d="M16.8008 8.40039C16.8008 3.76833 13.0325 0 8.40039 0C3.76833 0 0 3.76833 0 8.40039C0 9.91 0.401825 11.3798 1.16486 12.6702L0.0308838 16.7697L4.13054 15.6359C5.42094 16.399 6.89078 16.8008 8.40039 16.8008C13.0325 16.8008 16.8008 13.0325 16.8008 8.40039ZM7.11133 6.44531H5.82227C5.82227 5.02365 6.97873 3.86719 8.40039 3.86719C9.82205 3.86719 10.9785 5.02365 10.9785 6.44531C10.9785 7.16689 10.673 7.86043 10.1401 8.34785L9.04492 9.35023V10.3555H7.75586V8.78258L9.26984 7.39684C9.54041 7.14926 9.68945 6.81139 9.68945 6.44531C9.68945 5.73448 9.11122 5.15625 8.40039 5.15625C7.68956 5.15625 7.11133 5.73448 7.11133 6.44531ZM9.04492 12.9336V11.6445H7.75586V12.9336H9.04492Z" fill="#87AD16"/>
</svg>
