<svg width="19" height="18" viewBox="0 0 19 18" fill="none" xmlns="http://www.w3.org/2000/svg">
<path d="M17.6527 14.2371L14.864 11.4507C14.3085 10.898 13.3887 10.9148 12.8139 11.4893L11.4089 12.8926C11.3202 12.8437 11.2283 12.7927 11.1317 12.7385C10.2445 12.2474 9.03016 11.5742 7.75235 10.2967C6.47076 9.01641 5.79634 7.80136 5.30324 6.91439C5.25121 6.82043 5.20136 6.72983 5.15212 6.64379L6.09506 5.70313L6.55864 5.23941C7.13433 4.66409 7.1502 3.74536 6.59604 3.19103L3.80734 0.404295C3.25318 -0.149249 2.33292 -0.132456 1.75723 0.442856L0.971277 1.23259L0.992755 1.25389C0.729215 1.58985 0.508993 1.97733 0.34511 2.39519C0.194042 2.79293 0.0999869 3.17248 0.0569801 3.55281C-0.31125 6.60269 1.08375 9.39005 4.8696 13.1724C10.1028 18.4004 14.3201 18.0055 14.502 17.9862C14.8982 17.9389 15.278 17.8443 15.6639 17.6946C16.0785 17.5327 16.4661 17.313 16.8022 17.0503L16.8193 17.0655L17.6155 16.2866C18.19 15.7114 18.2066 14.7923 17.6527 14.2371Z" fill="#FFFFFF"/>
</svg>
