<svg width="19" height="18" viewBox="0 0 19 18" fill="none" xmlns="http://www.w3.org/2000/svg">
<path fill-rule="evenodd" clip-rule="evenodd" d="M1.58767 7.51467C1.42014 7.21856 1.28767 6.90298 1.19222 6.57571L0.436394 6.48803C0.187044 6.4588 3.05176e-05 6.24841 3.05176e-05 5.99906V4.83608C3.05176e-05 4.58673 0.187044 4.37634 0.436394 4.34712L1.15328 4.2653C1.24289 3.90686 1.37925 3.56205 1.55847 3.23867L1.11042 2.67179C0.954576 2.47504 0.97016 2.19452 1.14743 2.01725L1.96951 1.19517C2.14678 1.01984 2.4273 1.00231 2.62406 1.15815L3.15977 1.58283C3.50263 1.37828 3.87081 1.22244 4.25652 1.11919L4.33445 0.451012C4.36367 0.201661 4.57406 0.0146484 4.82341 0.0146484H5.98639C6.23574 0.0146484 6.44613 0.201661 6.47536 0.451012L6.55328 1.11919C6.92923 1.22049 7.28769 1.37049 7.62276 1.56725L8.13899 1.15815C8.33574 1.00231 8.61626 1.0179 8.79354 1.19517L9.61367 2.0153C9.78899 2.19257 9.80652 2.47309 9.65068 2.66984L9.2299 3.20166C9.4091 3.52114 9.54934 3.86205 9.64287 4.21854L10.3266 4.29841C10.576 4.32764 10.763 4.53803 10.763 4.78738V5.95036C10.763 6.19971 10.576 6.4101 10.3266 6.43932L9.63313 6.51919C9.53573 6.87958 9.38962 7.22437 9.20261 7.54777L9.65261 8.11854C9.80845 8.3153 9.79287 8.59582 9.6156 8.77309L8.79352 9.59517C8.61624 9.77049 8.33573 9.78802 8.13897 9.63218L7.5604 9.17439C7.23118 9.35945 6.88053 9.50166 6.5143 9.59712L6.42858 10.3393C6.39936 10.5887 6.18897 10.7757 5.93962 10.7757H4.77663C4.52728 10.7757 4.31689 10.5887 4.28767 10.3393L4.19806 9.56984C3.85715 9.47244 3.52988 9.33415 3.22209 9.15686L2.62404 9.63023C2.42728 9.78608 2.14676 9.77051 1.96949 9.59324L1.14741 8.77116C0.972089 8.59389 0.954557 8.31337 1.1104 8.11662L1.58767 7.51467ZM7.32858 5.35233C7.32858 4.29259 6.4656 3.4296 5.40586 3.4296C4.34611 3.4296 3.48313 4.29259 3.48313 5.35233C3.48313 6.41207 4.34613 7.27506 5.40586 7.27506C6.4656 7.27506 7.32858 6.41207 7.32858 5.35233Z" fill="#FFFFFF"/>
<path fill-rule="evenodd" clip-rule="evenodd" d="M16.2896 6.34317L16.9032 6.86135C17.0922 7.02109 17.1312 7.29771 16.9909 7.50417L16.724 7.90547C16.8935 8.15484 17.0299 8.42365 17.1312 8.70806L17.6201 8.72365C17.8675 8.73144 18.0682 8.9243 18.0896 9.16975L18.1578 9.9704C18.1773 10.2159 18.0097 10.4399 17.7682 10.4886L17.2812 10.588C17.2267 10.888 17.1312 11.1802 17.0006 11.4568L17.3572 11.8347C17.5266 12.0139 17.5344 12.2925 17.3747 12.4815L16.8565 13.0951C16.6968 13.2841 16.4221 13.323 16.2156 13.1867L15.7734 12.8944C15.5182 13.0678 15.2416 13.2081 14.9494 13.3113L14.9318 13.849C14.924 14.0964 14.7312 14.297 14.4857 14.3185L13.6851 14.3867C13.4396 14.4061 13.2156 14.2386 13.1669 13.997L13.0558 13.4477C12.7714 13.3931 12.4948 13.3016 12.2318 13.1789L11.8305 13.5548C11.6513 13.7243 11.3727 13.7321 11.1838 13.5724L10.5701 13.0542C10.3812 12.8944 10.3422 12.6198 10.4786 12.4133L10.7844 11.9516C10.6266 11.7198 10.4961 11.4724 10.3968 11.2113L9.84935 11.1938C9.60195 11.186 9.4013 10.9932 9.37987 10.7477L9.31169 9.94706C9.29221 9.70159 9.45974 9.47756 9.7013 9.42886L10.2078 9.32562C10.2584 9.02758 10.3461 8.7373 10.4688 8.46068L10.1143 8.08278C9.94481 7.90356 9.93701 7.62499 10.0968 7.43602L10.615 6.81849C10.7747 6.62953 11.0493 6.59057 11.2559 6.72693L11.661 6.99577C11.926 6.80486 12.2162 6.65291 12.524 6.54187L12.5396 6.06654C12.5474 5.81914 12.7403 5.61849 12.9857 5.59706L13.7864 5.52888C14.0319 5.5094 14.2559 5.67693 14.3046 5.91849L14.4 6.38602C14.7137 6.44252 15.0176 6.53992 15.3039 6.67823L15.6429 6.3607C15.8221 6.19122 16.1006 6.18343 16.2896 6.34317ZM12.1851 10.0542C12.2571 10.9191 13.0208 11.5639 13.8857 11.4899C14.7506 11.4178 15.3955 10.6542 15.3214 9.78925C15.2494 8.92434 14.4857 8.27951 13.6208 8.35354C12.7559 8.42562 12.111 9.18927 12.1851 10.0542Z" fill="#FFFFFF"/>
<path fill-rule="evenodd" clip-rule="evenodd" d="M3.55714 14.1243C3.55909 13.8769 3.74805 13.6704 3.99351 13.6451L4.3344 13.61C4.39673 13.3704 4.49219 13.1425 4.61297 12.9282L4.40453 12.6594C4.25258 12.4626 4.27206 12.186 4.44933 12.0126L4.80388 11.6659C4.98115 11.4925 5.25779 11.4808 5.45065 11.6366L5.69416 11.8353C5.92403 11.7029 6.17143 11.6016 6.42855 11.5354L6.46751 11.2314C6.4987 10.986 6.70909 10.8029 6.95649 10.8068L7.44935 10.8126C7.69677 10.8146 7.90325 11.0035 7.92857 11.249L7.95976 11.5548C8.20909 11.6249 8.44677 11.7282 8.66883 11.8626L8.90456 11.6814C9.1013 11.5295 9.37796 11.5489 9.55134 11.7262L9.89612 12.0788C10.0695 12.2561 10.0812 12.5327 9.92534 12.7256L9.72859 12.9672C9.84547 13.1814 9.93506 13.4113 9.99545 13.649L10.3111 13.6899C10.5565 13.721 10.7396 13.9315 10.7357 14.1788L10.7299 14.6717C10.7279 14.9191 10.539 15.1256 10.2935 15.1509L9.97015 15.1841C9.90197 15.4237 9.8026 15.6516 9.67403 15.8659L9.88251 16.1367C10.0344 16.3334 10.015 16.6101 9.83768 16.7834L9.48508 17.1282C9.30781 17.3016 9.03117 17.3133 8.83831 17.1574L8.56558 16.9373C8.34353 17.0581 8.10976 17.1496 7.86428 17.21L7.81948 17.5646C7.78831 17.81 7.5779 17.9932 7.33052 17.9893L6.83764 17.9834C6.59024 17.9815 6.38375 17.7925 6.35842 17.5471L6.31946 17.173C6.09351 17.1068 5.87725 17.0113 5.67271 16.8906L5.38247 17.1146C5.18571 17.2665 4.90909 17.2471 4.73571 17.0698L4.39091 16.7172C4.21753 16.5399 4.20584 16.2633 4.36169 16.0704L4.59545 15.7821C4.48442 15.5834 4.3987 15.373 4.33831 15.1529L3.97597 15.1062C3.73052 15.075 3.5474 14.8646 3.5513 14.6172L3.55714 14.1243ZM8.44091 14.3854C8.44868 13.6782 7.88182 13.0957 7.17467 13.0879C6.46753 13.0802 5.88506 13.647 5.87725 14.3542C5.86948 15.0613 6.43634 15.6438 7.14349 15.6516C7.85063 15.6594 8.43312 15.0925 8.44091 14.3854Z" fill="#FFFFFF"/>
</svg>
