<svg width="20" height="18" viewBox="0 0 20 18" fill="none" xmlns="http://www.w3.org/2000/svg">
<path d="M1.14063 5.28406L2.77618 3.64851L4.41165 5.28406C4.53453 5.40687 4.69553 5.46831 4.8566 5.46831C5.01767 5.46831 5.17868 5.40687 5.30156 5.28406C5.54731 5.0383 5.54731 4.63984 5.30156 4.39408L3.66615 2.75861L5.30162 1.12313C5.54738 0.877376 5.54738 0.478919 5.30162 0.233162C5.0558 -0.012528 4.65747 -0.012528 4.41165 0.233162L2.77618 1.86864L1.14063 0.233096C0.89481 -0.0125944 0.496485 -0.0125944 0.250663 0.233096C0.0049061 0.478852 0.0049061 0.87731 0.250663 1.12307L1.88614 2.75854L0.250729 4.39408C0.00497252 4.63984 0.00497252 5.0383 0.250729 5.28406C0.373607 5.40687 0.534611 5.46831 0.695681 5.46831C0.856751 5.46831 1.01775 5.40687 1.14063 5.28406Z" fill="#FFFFFF"/>
<path d="M13.6236 12.7155C13.3777 12.4698 12.9794 12.4698 12.7336 12.7155L11.0981 14.351L9.46256 12.7155C9.21674 12.4698 8.81842 12.4698 8.57259 12.7155C8.32684 12.9613 8.32684 13.3597 8.57259 13.6055L10.2081 15.241L8.57259 16.8765C8.32684 17.1223 8.32684 17.5207 8.57259 17.7665C8.69547 17.8893 8.85647 17.9507 9.01754 17.9507C9.17861 17.9507 9.33962 17.8893 9.4625 17.7665L11.098 16.1309L12.7335 17.7664C12.8564 17.8892 13.0174 17.9507 13.1785 17.9507C13.3395 17.9507 13.5005 17.8892 13.6234 17.7664C13.8692 17.5206 13.8692 17.1222 13.6234 16.8764L11.9879 15.241L13.6234 13.6055C13.8693 13.3597 13.8693 12.9612 13.6236 12.7155Z" fill="#FFFFFF"/>
<path d="M13.6726 3.89165L11.1348 1.68562C10.8725 1.45753 10.4751 1.48549 10.2471 1.74772C10.0191 2.01001 10.0469 2.40741 10.3092 2.63543L11.655 3.80537C7.6828 4.32491 5.33085 6.40069 4.02335 8.15525C2.81543 9.77619 2.28606 11.371 2.09543 12.0741C2.22103 12.0574 2.34882 12.0479 2.47887 12.0479C2.79079 12.0479 3.09107 12.0981 3.37283 12.1898C3.58285 11.4973 4.07417 10.1799 5.06277 8.86682C6.69931 6.69314 8.97276 5.41301 11.8328 5.04896L10.5787 6.49155C10.3507 6.75385 10.3786 7.15124 10.6408 7.37926C10.76 7.48288 10.9071 7.53362 11.0534 7.53362C11.2293 7.53362 11.4042 7.4603 11.5286 7.31716L13.7346 4.77936C13.9627 4.51706 13.9348 4.11967 13.6726 3.89165Z" fill="#FFFFFF"/>
<path d="M2.47895 13.085C1.45368 13.085 0.619507 13.9191 0.619507 14.9444C0.619507 15.9697 1.45362 16.8039 2.47895 16.8039C3.50429 16.8039 4.33847 15.9697 4.33847 14.9444C4.33847 13.9191 3.50429 13.085 2.47895 13.085V13.085Z" fill="#FFFFFF"/>
<path d="M17.9339 2.38477C16.9086 2.38477 16.0744 3.21888 16.0744 4.24421C16.0744 5.26955 16.9085 6.10372 17.9339 6.10372C18.9592 6.10372 19.7934 5.26961 19.7934 4.24421C19.7934 3.21894 18.9593 2.38477 17.9339 2.38477Z" fill="#FFFFFF"/>
</svg>
