<svg width="12" height="12" viewBox="0 0 12 12" fill="none" xmlns="http://www.w3.org/2000/svg">
<path fill-rule="evenodd" clip-rule="evenodd" d="M5.9985 0H6.0015C9.30975 0 12 2.69175 12 6C12 9.30825 9.30975 12 6.0015 12C4.78125 12 3.6495 11.637 2.70075 11.0085L0.3945 11.7458L1.14225 9.51675C0.423 8.529 0 7.3125 0 6C0 2.691 2.69025 0 5.9985 0ZM8.31525 9.3195C8.7735 9.2205 9.348 8.8815 9.49275 8.47275C9.6375 8.06325 9.6375 7.7145 9.5955 7.64025C9.56158 7.58134 9.48139 7.54273 9.36167 7.48509C9.33051 7.47008 9.29666 7.45378 9.26025 7.4355C9.084 7.34775 8.22675 6.924 8.06475 6.86775C7.90575 6.80775 7.75425 6.82875 7.63425 6.99825C7.61143 7.0302 7.58866 7.06222 7.56602 7.09407C7.42124 7.29768 7.28159 7.49408 7.1655 7.61925C7.05975 7.73175 6.88725 7.746 6.7425 7.686C6.72672 7.67942 6.70864 7.67212 6.68837 7.66393C6.45919 7.57137 5.95084 7.36606 5.3355 6.81825C4.8165 6.35625 4.464 5.781 4.362 5.6085C4.26185 5.43545 4.34824 5.33398 4.42807 5.2402C4.42955 5.23847 4.43103 5.23673 4.4325 5.235C4.48397 5.17131 4.53392 5.11828 4.58412 5.06499C4.62023 5.02665 4.65647 4.98817 4.6935 4.9455C4.699 4.93916 4.70435 4.93301 4.70955 4.92703C4.78818 4.83663 4.83499 4.78279 4.88775 4.67025C4.94775 4.554 4.905 4.434 4.86225 4.3455C4.83284 4.28352 4.65114 3.84268 4.49516 3.46423C4.42842 3.30228 4.36638 3.15176 4.323 3.04725C4.20675 2.769 4.11825 2.7585 3.942 2.751C3.9366 2.75073 3.93115 2.75045 3.92564 2.75018C3.86992 2.74736 3.80857 2.74425 3.741 2.74425C3.5115 2.74425 3.27225 2.81175 3.1275 2.9595C3.12244 2.96467 3.11717 2.97003 3.1117 2.97559C2.92651 3.16393 2.514 3.58346 2.514 4.41975C2.514 5.25766 3.10853 6.06858 3.21853 6.21862C3.22156 6.22275 3.22423 6.22638 3.2265 6.2295C3.23312 6.23819 3.24559 6.25626 3.26375 6.28255C3.48836 6.60782 4.58237 8.19213 6.21375 8.868C7.59225 9.4395 8.00175 9.38625 8.31525 9.3195Z" fill="#87AD16"/>
</svg>
