<?xml version="1.0" standalone="no"?>
<!DOCTYPE svg PUBLIC "-//W3C//DTD SVG 1.1//EN" "http://www.w3.org/Graphics/SVG/1.1/DTD/svg11.dtd" >
<svg>
<metadata>
Created by FontForge 20090914 at Tue Mar  3 08:10:43 2020
 By www-data
Copyright 2015 Dalton Maag Ltd. Modification of this file requires prior written permission from Dalton Maag Ltd.
</metadata>
<defs>
<font id="ObjektivMk3W03-Bold" horiz-adv-x="386" >
  <font-face 
    font-family="ObjektivMk3W03-Bold"
    font-weight="700"
    font-stretch="normal"
    units-per-em="1000"
    panose-1="2 11 7 2 2 2 4 2 2 3"
    ascent="800"
    descent="-200"
    x-height="508.999"
    cap-height="760"
    bbox="-244 -290 1362.01 1083"
    underline-thickness="50"
    underline-position="-125"
    unicode-range="U+0008-U+FEFF"
  />
<missing-glyph horiz-adv-x="500" 
d="M50 750h400v-750h-400v750zM400 50v650h-300v-650h300z" />
    <glyph glyph-name=".notdef" horiz-adv-x="500" 
d="M50 750h400v-750h-400v750zM400 50v650h-300v-650h300z" />
    <glyph glyph-name="uni0008" horiz-adv-x="0" 
 />
    <glyph glyph-name="uni0008" horiz-adv-x="0" 
 />
    <glyph glyph-name="uni0008" horiz-adv-x="0" 
 />
    <glyph glyph-name="uni0009" unicode="&#x9;" horiz-adv-x="220" 
 />
    <glyph glyph-name="uni0009" unicode="&#xd;" horiz-adv-x="220" 
 />
    <glyph glyph-name="space" unicode=" " horiz-adv-x="220" 
 />
    <glyph glyph-name="exclam" unicode="!" horiz-adv-x="351" 
d="M100 790h150l-12 -536h-125zM175 -6c-24.667 0 -45 7.83398 -61 23.501s-24 35.5 -24 59.5c0 23.333 8 42.666 24 57.999s36.333 23 61 23s45.167 -7.5 61.5 -22.5s24.5 -34.5 24.5 -58.5s-8 -43.833 -24 -59.5s-36.667 -23.5 -62 -23.5z" />
    <glyph glyph-name="quotedbl" unicode="&#x22;" horiz-adv-x="426" 
d="M44 760h136l-14 -305h-109zM246 760h136l-14 -305h-109z" />
    <glyph glyph-name="numbersign" unicode="#" horiz-adv-x="689" 
d="M132 160h-91v93h111l37 171h-107v93h127l36 160h106l-34 -160h132l36 160h106l-35 -160h93v-93h-113l-38 -171h109v-93h-128l-36 -160h-110l36 160h-131l-34 -160h-107zM390 253l39 171h-133l-38 -171h132z" />
    <glyph glyph-name="dollar" unicode="$" horiz-adv-x="620" 
d="M268 -132l0.00195312 120c-87.333 3.33301 -157.666 22 -210.999 56l15 120c61.333 -39.333 126.666 -61 195.999 -65v227c-72.667 26.667 -125.667 58 -159 94s-50 80 -50 132c0 54.667 18.833 100.5 56.5 137.5s88.5 59.167 152.5 66.5v122h75v-120
c32.667 -2.66699 64.667 -8.5 96 -17.5s58.666 -20.5 81.999 -34.5l-20 -113c-46.667 27.333 -99.334 44 -158.001 50v-207c74.667 -26.667 129.5 -59.167 164.5 -97.5s52.5 -84.833 52.5 -139.5c0 -55.333 -19.667 -102 -59 -140s-92 -61 -158 -69v-122h-75zM343.002 104
c27.333 6.66699 48.5 18.167 63.5 34.5s22.5 35.5 22.5 57.5c0 23.333 -6.5 43 -19.5 59s-35.167 30.667 -66.5 44v-195zM268.002 642c-26 -4.66699 -46.333 -14.333 -61 -29s-22 -33 -22 -55c0 -23.333 6.33301 -42.333 19 -57s34 -28 64 -40v181z" />
    <glyph glyph-name="percent" unicode="%" horiz-adv-x="978" 
d="M251 475c25.333 0 45.833 8.5 61.5 25.5s23.5 39.5 23.5 67.5c0 27.333 -7.83301 49.666 -23.5 66.999s-36.167 26 -61.5 26s-45.833 -8.66699 -61.5 -26s-23.5 -39.666 -23.5 -66.999c0 -28 7.83301 -50.5 23.5 -67.5s36.167 -25.5 61.5 -25.5zM251 376
c-36 0 -68.8301 8.00195 -98.4971 24.002s-53.334 38.667 -71.001 68s-26.5 62.666 -26.5 99.999c0 34.667 8.16699 66.5 24.5 95.5s39.666 52.333 69.999 70s64.166 26.5 101.499 26.5c35.333 0 68 -8 98 -24s53.833 -38.833 71.5 -68.5s26.5 -62.834 26.5 -99.501
c0 -35.333 -8.16699 -67.5 -24.5 -96.5s-39.5 -52.167 -69.5 -69.5s-64 -26 -102 -26zM691.003 744.002h123l-530 -744h-123zM727.003 87.002c25.333 0 45.833 8.5 61.5 25.5s23.5 39.5 23.5 67.5c0 27.333 -7.83301 49.666 -23.5 66.999s-36.167 26 -61.5 26
s-45.833 -8.66699 -61.5 -26s-23.5 -39.666 -23.5 -66.999c0 -28 7.83301 -50.5 23.5 -67.5s36.167 -25.5 61.5 -25.5zM727.003 -11.998c-36 0 -68.8301 8.00195 -98.4971 24.002s-53.334 38.667 -71.001 68s-26.5 62.666 -26.5 99.999c0 34.667 8.16699 66.5 24.5 95.5
s39.666 52.333 69.999 70s64.166 26.5 101.499 26.5c35.333 0 68 -8 98 -24s53.833 -38.833 71.5 -68.5s26.5 -62.834 26.5 -99.501c0 -35.333 -8.16699 -67.5 -24.5 -96.5s-39.5 -52.167 -69.5 -69.5s-64 -26 -102 -26z" />
    <glyph glyph-name="ampersand" unicode="&#x26;" horiz-adv-x="757" 
d="M313 -16c-52 0 -97.833 8.66895 -137.5 26.002s-70.834 42.166 -93.501 74.499s-34 70.166 -34 113.499c0 89.333 51.667 161.666 155 216.999c-28.667 34.667 -49 66 -61 94s-18 57.667 -18 89c0 52.667 19.5 95.834 58.5 129.501s89.167 50.5 150.5 50.5
c60.667 0 110.5 -16.5 149.5 -49.5s58.5 -75.167 58.5 -126.5c0 -86 -51.333 -156 -154 -210l143 -164c24.667 46 38.667 101.333 42 166l122 -13c-5.33301 -96 -33 -178 -83 -246l119 -135h-168l-41 47c-61.333 -42 -130.666 -63 -207.999 -63zM323 101.002
c46.667 0 87.334 11 122.001 33l-170 197c-58 -34 -87 -75.333 -87 -124c0 -31.333 12.667 -56.833 38 -76.5s57.666 -29.5 96.999 -29.5zM315 475.002c33.333 18.667 57.333 37.832 72 57.499s22 41.834 22 66.501c0 23.333 -7 42 -21 56s-32.333 21 -55 21
c-23.333 0 -42 -7 -56 -21s-21 -32.667 -21 -56c0 -19.333 4.5 -38.333 13.5 -57s24.167 -41 45.5 -67z" />
    <glyph glyph-name="quotesingle" unicode="'" horiz-adv-x="224" 
d="M44 760h136l-14 -305h-109z" />
    <glyph glyph-name="parenleft" unicode="(" horiz-adv-x="427" 
d="M266 -133c-56.667 52 -102 121.333 -136 208s-51 176 -51 268c0 60 7.5 119.833 22.5 179.5s36.667 115.5 65 167.5s61.5 95.333 99.5 130h152c-66.667 -60.667 -118 -132 -154 -214s-54 -169.667 -54 -263s17.833 -181 53.5 -263s87.167 -153 154.5 -213h-152z" />
    <glyph glyph-name="parenright" unicode=")" horiz-adv-x="427" 
d="M9 -133c66.667 60.667 118 132 154 214s54 169.667 54 263s-17.833 181 -53.5 263s-87.167 153 -154.5 213h152c56.667 -52 102 -121.333 136 -208s51 -176 51 -268c0 -60 -7.5 -119.833 -22.5 -179.5s-36.667 -115.5 -65 -167.5s-61.5 -95.333 -99.5 -130h-152z" />
    <glyph glyph-name="asterisk" unicode="*" horiz-adv-x="474" 
d="M70 424l97 111l-138 36l40 107l125 -60l-15 142h116l-16 -142l126 60l39 -107l-137 -36l99 -111l-93 -64l-76 124l-74 -124z" />
    <glyph glyph-name="plus" unicode="+" horiz-adv-x="620" 
d="M248 277h-172v116h172v185h124v-185h173v-116h-173v-185h-124v185z" />
    <glyph glyph-name="comma" unicode="," horiz-adv-x="299" 
d="M0 -174c28 44.667 49.833 95.166 65.5 151.499s23.834 113.5 24.501 171.5h135c0 -38 -4.66699 -77.333 -14 -118s-22.833 -79.167 -40.5 -115.5s-37.834 -66.166 -60.501 -89.499h-110z" />
    <glyph glyph-name="hyphen" unicode="-" horiz-adv-x="429" 
d="M61 348h307v-121h-307v121z" />
    <glyph glyph-name="period" unicode="." horiz-adv-x="299" 
d="M150 -6c-25.333 0 -46 7.83203 -62 23.499s-24 35.5 -24 59.5s8.16699 43.5 24.5 58.5s36.833 22.5 61.5 22.5s45 -7.66699 61 -23s24 -34.666 24 -57.999c0 -24 -8 -43.833 -24 -59.5s-36.333 -23.5 -61 -23.5z" />
    <glyph glyph-name="slash" unicode="/" horiz-adv-x="550" 
d="M405 810h133l-393 -943h-134z" />
    <glyph glyph-name="zero" unicode="0" horiz-adv-x="620" 
d="M310 111c81.333 0 122 87 122 261s-40.667 261 -122 261c-80.667 0 -121 -87 -121 -261s40.333 -261 121 -261zM310 -16c-86 0 -153 34.167 -201 102.5s-72 163.5 -72 285.5s24 217.167 72 285.5s115 102.5 201 102.5s153.167 -34.333 201.5 -103
s72.5 -163.667 72.5 -285s-24.167 -216.333 -72.5 -285s-115.5 -103 -201.5 -103z" />
    <glyph glyph-name="one" unicode="1" horiz-adv-x="620" 
d="M288 599l-193 -86l-23 123l245 108h112v-744h-141v599z" />
    <glyph glyph-name="two" unicode="2" horiz-adv-x="620" 
d="M62 0v110c80.667 72.667 145 136.667 193 192s81 99.5 99 132.5s27 65.5 27 97.5c0 32.667 -10 58.5 -30 77.5s-46.667 28.5 -80 28.5c-32 0 -63.333 -7.5 -94 -22.5s-58.667 -36.167 -84 -63.5l-25 121c27.333 27.333 61 48.666 101 63.999s81.667 23 125 23
c71.333 0 128.166 -19 170.499 -57s63.5 -89 63.5 -153c0 -48 -12.167 -96.5 -36.5 -145.5s-63.166 -103.5 -116.499 -163.5c-22.667 -25.333 -61 -63.666 -115 -114.999h290v-126h-488z" />
    <glyph glyph-name="three" unicode="3" horiz-adv-x="620" 
d="M267 -16c-41.333 0 -79.999 4.33203 -115.999 12.999s-66 20.667 -90 36l12 120c58 -32.667 120.333 -49 187 -49c46 0 81.833 10.667 107.5 32s38.5 50.666 38.5 87.999c0 36.667 -12.333 65.334 -37 86.001s-59.334 31 -104.001 31c-18 0 -40.333 -2.66699 -67 -8
l-35 80l194 208h-283v123h454v-106l-185 -199c42.667 -3.33301 79.667 -14.166 111 -32.499s55.5 -43 72.5 -74s25.5 -67.167 25.5 -108.5c0 -74 -25.5 -132.5 -76.5 -175.5s-120.5 -64.5 -208.5 -64.5z" />
    <glyph glyph-name="four" unicode="4" horiz-adv-x="620" 
d="M364 167h-335v114l325 463h145v-461h91v-116h-91v-167h-135v167zM364 283v284l-200 -284h200z" />
    <glyph glyph-name="five" unicode="5" horiz-adv-x="620" 
d="M267 -16c-38.667 0 -77.5029 4.33203 -116.503 12.999s-69.833 19.667 -92.5 33l12 122c26.667 -15.333 56.334 -27.166 89.001 -35.499s64.334 -12.5 95.001 -12.5c48.667 0 86.834 11.333 114.501 34s41.5 54.334 41.5 95.001c0 37.333 -15.5 67.333 -46.5 90
s-72.167 34 -123.5 34c-20.667 0 -45 -1.83301 -73 -5.5s-54 -8.16699 -78 -13.5l16 406h403v-124h-280l-6 -155c22 4 43.667 6 65 6c82 0 147.167 -21.333 195.5 -64s72.5 -99.667 72.5 -171c0 -76.667 -26 -137.834 -78 -183.501s-122 -68.5 -210 -68.5z" />
    <glyph glyph-name="six" unicode="6" horiz-adv-x="620" 
d="M314 -16c-81.333 0 -146.002 23.665 -194.002 70.998s-72 111 -72 191c0 80.667 25.167 166.334 75.5 257.001s117.5 171.667 201.5 243l172 -5c-126 -103.333 -214.333 -207 -265 -311c29.333 23.333 69.333 35 120 35c41.333 0 79.333 -9.66699 114 -29
s62.334 -46.666 83.001 -81.999s31 -75.666 31 -120.999c0 -46.667 -10.833 -88.834 -32.5 -126.501s-52.667 -67.5 -93 -89.5s-87.166 -33 -140.499 -33zM313.998 100.998c36 0 65.832 11.833 89.499 35.5s35.5 54.167 35.5 91.5c0 38 -11.5 68.833 -34.5 92.5
s-53.167 35.5 -90.5 35.5c-36 0 -66 -12 -90 -36s-36 -54.667 -36 -92c0 -36.667 11.833 -67 35.5 -91s53.834 -36 90.501 -36z" />
    <glyph glyph-name="seven" unicode="7" horiz-adv-x="620" 
d="M136 3l270 609h-347v132h500v-118l-274 -628z" />
    <glyph glyph-name="eight" unicode="8" horiz-adv-x="620" 
d="M310 -16c-53.333 0 -100.501 8.83203 -141.501 26.499s-73 43 -96 76s-34.5 71.833 -34.5 116.5c0 42.667 10.833 80.667 32.5 114s50.834 57.333 87.501 72c-32.667 15.333 -57.667 37.5 -75 66.5s-26 62.5 -26 100.5c0 39.333 10.333 74.333 31 105
s50.167 54.834 88.5 72.501s82.833 26.5 133.5 26.5c48 0 91.167 -8.33301 129.5 -25s68.5 -40.5 90.5 -71.5s33 -66.833 33 -107.5c0 -38 -8.83301 -71.5 -26.5 -100.5s-42.834 -51.167 -75.501 -66.5c37.333 -14.667 66.833 -38.5 88.5 -71.5s32.5 -71.167 32.5 -114.5
s-10.833 -81.5 -32.5 -114.5s-53.167 -58.667 -94.5 -77s-89.666 -27.5 -144.999 -27.5zM309.999 100.999c39.333 0 70.5 10.167 93.5 30.5s34.5 47.833 34.5 82.5s-11.667 62.334 -35 83.001s-54.333 31 -93 31s-69.667 -10.333 -93 -31s-35 -48.334 -35 -83.001
s11.5 -62.167 34.5 -82.5s54.167 -30.5 93.5 -30.5zM309.999 440.999c36 0 64.498 9.33301 85.498 28s31.5 43.667 31.5 75s-10.667 56.5 -32 75.5s-49.666 28.5 -84.999 28.5s-63.666 -9.5 -84.999 -28.5s-32 -44.167 -32 -75.5s10.5 -56.333 31.5 -75s49.5 -28 85.5 -28z
" />
    <glyph glyph-name="nine" unicode="9" horiz-adv-x="620" 
d="M123 3c126.667 104.667 214.669 208.002 264.002 310.002c-29.333 -22.667 -69 -34 -119 -34c-41.333 0 -79.333 9.66699 -114 29s-62.334 46.666 -83.001 81.999s-31 75.666 -31 120.999c0 46.667 10.833 88.834 32.5 126.501s52.667 67.5 93 89.5s87.166 33 140.499 33
c81.333 0 146 -23.667 194 -71s72 -111 72 -191c0 -80.667 -25.167 -166.334 -75.5 -257.001s-117.5 -171.667 -201.5 -243zM306.002 388.002c36 0 66.001 12 90.001 36s36 54.667 36 92c0 36.667 -11.833 67 -35.5 91s-53.834 36 -90.501 36
c-36 0 -65.833 -11.833 -89.5 -35.5s-35.5 -54.167 -35.5 -91.5c0 -38 11.5 -68.833 34.5 -92.5s53.167 -35.5 90.5 -35.5z" />
    <glyph glyph-name="colon" unicode=":" horiz-adv-x="299" 
d="M150 -6c-25.333 0 -46 7.83203 -62 23.499s-24 35.5 -24 59.5s8.16699 43.5 24.5 58.5s36.833 22.5 61.5 22.5s45 -7.66699 61 -23s24 -34.666 24 -57.999c0 -24 -8 -43.833 -24 -59.5s-36.333 -23.5 -61 -23.5zM150 349.999c-25.333 0 -46 7.83203 -62 23.499
s-24 35.5 -24 59.5s8.16699 43.5 24.5 58.5s36.833 22.5 61.5 22.5s45 -7.66699 61 -23s24 -34.666 24 -57.999c0 -24 -8 -43.833 -24 -59.5s-36.333 -23.5 -61 -23.5z" />
    <glyph glyph-name="semicolon" unicode=";" horiz-adv-x="299" 
d="M0 -174c28 44.667 49.833 95.166 65.5 151.499s23.834 113.5 24.501 171.5h135c0 -38 -4.66699 -77.333 -14 -118s-22.833 -79.167 -40.5 -115.5s-37.834 -66.166 -60.501 -89.499h-110zM150 349.999c-25.333 0 -46 7.83203 -62 23.499s-24 35.5 -24 59.5
s8.16699 43.5 24.5 58.5s36.833 22.5 61.5 22.5s45 -7.66699 61 -23s24 -34.666 24 -57.999c0 -24 -8 -43.833 -24 -59.5s-36.333 -23.5 -61 -23.5z" />
    <glyph glyph-name="less" unicode="&#x3c;" horiz-adv-x="620" 
d="M85 275v128l450 183v-128l-301 -117l301 -118v-130z" />
    <glyph glyph-name="equal" unicode="=" horiz-adv-x="620" 
d="M94 508h433v-114h-433v114zM94 271h433v-114h-433v114z" />
    <glyph glyph-name="greater" unicode="&#x3e;" horiz-adv-x="620" 
d="M85 221l301 117l-301 118v130l450 -182v-128l-450 -183v128z" />
    <glyph glyph-name="question" unicode="?" horiz-adv-x="510" 
d="M165 254c-2 9.33301 -3 19.665 -3 30.998c0 30 4.16699 56.167 12.5 78.5s18.833 41.833 31.5 58.5s26.167 31.834 40.5 45.501l40.5 39.5c12.667 12.667 23.167 25.834 31.5 39.501s12.5 29.167 12.5 46.5c0 26 -9.16699 46.5 -27.5 61.5s-43.833 22.5 -76.5 22.5
c-30.667 0 -61.667 -7.66699 -93 -23s-58.666 -36.666 -81.999 -63.999l-33 115c24.667 29.333 57.667 52.333 99 69s85.666 25 132.999 25c44 0 83 -8 117 -24s60.833 -38.833 80.5 -68.5s29.5 -64.167 29.5 -103.5c0 -28.667 -4.5 -53.667 -13.5 -75
s-20.667 -40.333 -35 -57s-29.5 -32.5 -45.5 -47.5s-31.167 -30.5 -45.5 -46.5s-26 -33.833 -35 -53.5s-13.5 -42.834 -13.5 -69.501h-125zM227 -6.00098c-25.333 0 -46 7.83203 -62 23.499s-24 35.5 -24 59.5s8.16699 43.5 24.5 58.5s36.833 22.5 61.5 22.5
s45 -7.66699 61 -23s24 -34.666 24 -57.999c0 -24 -8 -43.833 -24 -59.5s-36.333 -23.5 -61 -23.5z" />
    <glyph glyph-name="at" unicode="@" horiz-adv-x="1025" 
d="M501 -230c-87.333 0 -165.163 16.834 -233.496 50.501s-122 82.334 -161 146.001s-58.5 138.167 -58.5 223.5c0 88.667 21.667 170 65 244s104.333 133.5 183 178.5s167.334 67.5 266.001 67.5c80 0 151.5 -15.5 214.5 -46.5s112.667 -75.5 149 -133.5
s54.5 -125.333 54.5 -202c0 -56.667 -10 -107.834 -30 -153.501s-48.833 -82 -86.5 -109s-80.5 -40.5 -128.5 -40.5c-33.333 0 -61.666 5.83301 -84.999 17.5s-40 28.167 -50 49.5c-14.667 -20.667 -34.834 -36.834 -60.501 -48.501s-53.834 -17.5 -84.501 -17.5
c-52.667 0 -95.167 18.5 -127.5 55.5s-48.5 85.5 -48.5 145.5c0 44.667 9.16699 86 27.5 124s44.166 68.667 77.499 92s70.333 35 111 35c28.667 0 54.667 -5.83301 78 -17.5s41.666 -28.167 54.999 -49.5l12 52h111l-43 -257c-2 -12 -3 -23.333 -3 -34
c0 -36 15.667 -54 47 -54c21.333 0 41 8.66699 59 26s32.667 41.666 44 72.999s17 66.333 17 105c0 89.333 -28.333 160 -85 212s-133.667 78 -231 78c-74 0 -141.333 -16.167 -202 -48.5s-108.834 -78.166 -144.501 -137.499s-53.5 -127.333 -53.5 -204
c0 -64.667 13.833 -121.167 41.5 -169.5s67.667 -86 120 -113s114.833 -40.5 187.5 -40.5c80.667 0 157 16 229 48l9 -99c-78.667 -32 -159.334 -48 -242.001 -48zM492.003 102.001c33.333 0 60.499 12.668 81.499 38.001s31.5 57.666 31.5 96.999c0 33.333 -8 59 -24 77
s-38.667 27 -68 27c-33.333 0 -60.666 -12.333 -81.999 -37s-32 -56.667 -32 -96c0 -34 8 -60.167 24 -78.5s39 -27.5 69 -27.5z" />
    <glyph glyph-name="A" unicode="A" horiz-adv-x="812" 
d="M325 760h162l302 -760h-162l-72 200h-306l-73 -200h-153zM513 318l-112 306l-111 -306h223z" />
    <glyph glyph-name="B" unicode="B" horiz-adv-x="715" 
d="M91 760l282.999 -0.000976562c80 0 141.5 -16.833 184.5 -50.5s64.5 -81.5 64.5 -143.5c0 -34.667 -8.5 -66.334 -25.5 -95.001s-40.167 -50.667 -69.5 -66c41.333 -11.333 74 -33.666 98 -66.999s36 -72.666 36 -117.999c0 -71.333 -23.167 -125.833 -69.5 -163.5
s-113.166 -56.5 -200.499 -56.5h-301v760zM235.999 118.999h145c40.667 0 72 9.5 94 28.5s33 45.833 33 80.5c0 69.333 -45 104 -135 104h-137v-213zM235.999 448.999h116c41.333 0 72.333 8 93 24s31 40.667 31 74c0 30.667 -10.167 54 -30.5 70s-50.833 24 -91.5 24h-118
v-192z" />
    <glyph glyph-name="C" unicode="C" horiz-adv-x="762" 
d="M454 -11c-78.667 0 -148.333 15.498 -209 46.498s-108.334 75.833 -143.001 134.5s-52 127.334 -52 206.001c0 74.667 16.833 141.834 50.5 201.501s81.834 106.834 144.501 141.501s135 52 217 52c41.333 0 83.5 -5.5 126.5 -16.5s79.833 -25.833 110.5 -44.5l-25 -129
c-72.667 36 -142.667 54 -210 54c-49.333 0 -93.333 -10.333 -132 -31s-69 -50.334 -91 -89.001s-33 -84 -33 -136c0 -78 23.333 -139.833 70 -185.5s109.667 -68.5 189 -68.5c34.667 0 71.667 5 111 15s76.333 24 111 42l16 -132c-34 -19.333 -73 -34.333 -117 -45
s-88.667 -16 -134 -16z" />
    <glyph glyph-name="D" unicode="D" horiz-adv-x="849" 
d="M91 760l291 0.000976562c132 0 234.5 -33.167 307.5 -99.5s109.5 -159.5 109.5 -279.5c0 -120.667 -37.5 -214.334 -112.5 -281.001s-180.167 -100 -315.5 -100h-280v760zM243 123.001h125c182 0 273 85.667 273 257s-90.667 257 -272 257h-126v-514z" />
    <glyph glyph-name="E" unicode="E" horiz-adv-x="672" 
d="M91 760h502v-128h-354v-182h313v-127h-313v-195h368v-128h-516v760z" />
    <glyph glyph-name="F" unicode="F" horiz-adv-x="626" 
d="M91 760h489v-128h-338v-203h292v-127h-292v-302h-151v760z" />
    <glyph glyph-name="G" unicode="G" horiz-adv-x="824" 
d="M464 -11c-81.333 0 -153.168 15.3311 -215.501 45.998s-111 75 -146 133s-52.5 126 -52.5 204s17.333 147 52 207s84.5 107 149.5 141s140.833 51 227.5 51c46 0 91.667 -5.16699 137 -15.5s86.333 -25.166 123 -44.499l-25 -132c-35.333 18 -73.833 31.833 -115.5 41.5
s-83.5 14.5 -125.5 14.5c-52 0 -98.167 -10.333 -138.5 -31s-71.833 -50.5 -94.5 -89.5s-34 -84.5 -34 -136.5c0 -79.333 23.833 -141.666 71.5 -186.999s112.834 -68 195.501 -68c43.333 0 90 6.33301 140 19v162h-152v122h294v-381c-86.667 -37.333 -183.667 -56 -291 -56
z" />
    <glyph glyph-name="H" unicode="H" horiz-adv-x="853" 
d="M91 760h153v-305h365v305h153v-760h-153v329h-365v-329h-153v760z" />
    <glyph glyph-name="I" unicode="I" horiz-adv-x="335" 
d="M91 760h153v-760h-153v760z" />
    <glyph glyph-name="J" unicode="J" horiz-adv-x="566" 
d="M218 -16c-34 0 -67.668 3.83301 -101.001 11.5s-60.666 18.167 -81.999 31.5l15 124c43.333 -25.333 91.333 -38 144 -38c47.333 0 81.333 12.667 102 38s31 67.333 31 126v483h153v-495c0 -94.667 -21.5 -165.167 -64.5 -211.5s-108.833 -69.5 -197.5 -69.5z" />
    <glyph glyph-name="K" unicode="K" horiz-adv-x="780" 
d="M91 760h152v-321l306 321h190l-356 -362l390 -398h-206l-324 339v-339h-152v760z" />
    <glyph glyph-name="L" unicode="L" horiz-adv-x="623" 
d="M91 760h153v-634h344v-126h-497v760z" />
    <glyph glyph-name="M" unicode="M" horiz-adv-x="1020" 
d="M116 760h141l256 -484l249 484h141l42 -760h-147l-20 526l-209 -399h-118l-209 388l-20 -515h-147z" />
    <glyph glyph-name="N" unicode="N" horiz-adv-x="861" 
d="M91 760h136l398 -528v528h145v-760h-136l-398 526v-526h-145v760z" />
    <glyph glyph-name="O" unicode="O" horiz-adv-x="903" 
d="M451 120c45.333 0 86.501 10.667 123.501 32s66.333 52 88 92s32.5 85.333 32.5 136c0 48 -10 91.667 -30 131s-48.667 70.666 -86 93.999s-80 35 -128 35c-45.333 0 -86.333 -10.667 -123 -32s-65.834 -51.833 -87.501 -91.5s-32.5 -85.167 -32.5 -136.5
c0 -48 10 -91.667 30 -131s48.5 -70.666 85.5 -93.999s79.5 -35 127.5 -35zM451.001 -16c-73.333 0 -140.331 16.5 -200.998 49.5s-109.167 79.667 -145.5 140s-54.5 129.166 -54.5 206.499c0 71.333 16.833 137 50.5 197s81.167 108.167 142.5 144.5
s130.666 54.5 207.999 54.5c74 0 141.333 -16.5 202 -49.5s109.167 -79.667 145.5 -140s54.5 -129.166 54.5 -206.499c0 -71.333 -16.833 -137 -50.5 -197s-81.334 -108.167 -143.001 -144.5s-131.167 -54.5 -208.5 -54.5z" />
    <glyph glyph-name="P" unicode="P" horiz-adv-x="655" 
d="M91 760l248 0.000976562c55.333 0 104 -10 146 -30s74.833 -48.667 98.5 -86s35.5 -81.333 35.5 -132c0 -76.667 -25.5 -137.834 -76.5 -183.501s-119.167 -68.5 -204.5 -68.5h-99v-260h-148v760zM239 383.001l79 0.000976562c50 0 88.167 11 114.5 33
s39.5 53.667 39.5 95s-13 72.666 -39 93.999s-64.333 32 -115 32h-79v-254z" />
    <glyph glyph-name="Q" unicode="Q" horiz-adv-x="903" 
d="M626 -182l-140.999 168.001c-21.333 -1.33301 -33.666 -2 -36.999 -2c-54 0 -104.833 9.16699 -152.5 27.5s-89.834 44.833 -126.501 79.5s-65.667 76.667 -87 126s-32 103.666 -32 162.999c0 71.333 16.833 137 50.5 197s81.167 108.167 142.5 144.5
s130.666 54.5 207.999 54.5c74 0 141.333 -16.5 202 -49.5s109.167 -79.667 145.5 -140s54.5 -129.166 54.5 -206.499c0 -78 -20 -148.833 -60 -212.5s-94.667 -111.834 -164 -144.501l185 -205h-188zM451.001 120.001c45.333 0 86.501 10.667 123.501 32s66.333 52 88 92
s32.5 85.333 32.5 136c0 48 -10 91.667 -30 131s-48.667 70.666 -86 93.999s-80 35 -128 35c-45.333 0 -86.333 -10.667 -123 -32s-65.834 -51.833 -87.501 -91.5s-32.5 -85.167 -32.5 -136.5c0 -48 10 -91.667 30 -131s48.5 -70.666 85.5 -93.999s79.5 -35 127.5 -35z" />
    <glyph glyph-name="R" unicode="R" horiz-adv-x="720" 
d="M91 760l247.001 0.000976562c87.333 0 156 -21.5 206 -64.5s75 -102.167 75 -177.5c0 -44.667 -11 -84.834 -33 -120.501s-53.333 -64.5 -94 -86.5l203 -311h-172l-163 273c-11.333 -0.666992 -20.833 -1.16699 -28.5 -1.5s-14.834 -0.5 -21.501 -0.5h-73v-271h-146v760z
M237.001 394.001l75 0.000976562c104.667 0 157 41 157 123c0 39.333 -12.833 69.166 -38.5 89.499s-63.5 30.5 -113.5 30.5h-80v-243z" />
    <glyph glyph-name="S" unicode="S" horiz-adv-x="662" 
d="M312 -16c-47.333 0 -94.999 5.83008 -142.999 17.4971s-85.667 26.834 -113 45.501l15 131c32 -20.667 69.333 -37 112 -49s83.667 -18 123 -18c46 0 81.5 8.5 106.5 25.5s37.5 40.833 37.5 71.5c0 26 -10.5 47 -31.5 63s-60.833 33.333 -119.5 52
c-82.667 26 -141.667 57 -177 93s-53 83.667 -53 143c0 42.667 10.833 80.334 32.5 113.001s53.167 58.167 94.5 76.5s89.666 27.5 144.999 27.5c39.333 0 79.333 -5 120 -15s76.334 -23.667 107.001 -41l-21 -127c-28.667 16.667 -61.167 30.167 -97.5 40.5
s-70.833 15.5 -103.5 15.5c-42.667 0 -74.834 -7.66699 -96.501 -23s-32.5 -37.333 -32.5 -66c0 -18 4.16699 -32.833 12.5 -44.5s22 -22.167 41 -31.5s46.167 -19.666 81.5 -30.999c90.667 -28.667 155 -61.5 193 -98.5s57 -85.167 57 -144.5
c0 -70 -25.833 -125.167 -77.5 -165.5s-122.5 -60.5 -212.5 -60.5z" />
    <glyph glyph-name="T" unicode="T" horiz-adv-x="711" 
d="M279 634h-244v126h641v-126h-244v-634h-153v634z" />
    <glyph glyph-name="U" unicode="U" horiz-adv-x="845" 
d="M421 -16c-106 0 -188.333 29.333 -247 88s-88 141.667 -88 249v439h153v-427c0 -142 61 -213 183 -213c122.667 0 184 71 184 213v427h153v-439c0 -107.333 -29.333 -190.333 -88 -249s-142 -88 -250 -88z" />
    <glyph glyph-name="V" unicode="V" horiz-adv-x="778" 
d="M20 760h169l203 -594l202 594h164l-289 -760h-161z" />
    <glyph glyph-name="W" unicode="W" horiz-adv-x="1124" 
d="M23 760h161l146 -567l166 557h133l166 -550l145 560h161l-229 -760h-145l-167 546l-164 -546h-146z" />
    <glyph glyph-name="X" unicode="X" horiz-adv-x="760" 
d="M291 395l-253 365h178l171 -261l166 261h175l-256 -367l273 -393h-181l-188 289l-186 -289h-175z" />
    <glyph glyph-name="Y" unicode="Y" horiz-adv-x="733" 
d="M290 317l-279 443h170l188 -324l189 324h164l-280 -443v-317h-152v317z" />
    <glyph glyph-name="Z" unicode="Z" horiz-adv-x="731" 
d="M53 110l419 525h-395v125h586v-110l-419 -525h426v-125h-617v110z" />
    <glyph glyph-name="bracketleft" unicode="[" horiz-adv-x="424" 
d="M106 820h279v-114h-150v-725h150v-114h-279v953z" />
    <glyph glyph-name="backslash" unicode="\" horiz-adv-x="550" 
d="M11 810h133l394 -943h-134z" />
    <glyph glyph-name="bracketright" unicode="]" horiz-adv-x="424" 
d="M39 -19h150v725h-150v114h279v-953h-279v114z" />
    <glyph glyph-name="asciicircum" unicode="^" horiz-adv-x="620" 
d="M250 705h118l206 -398h-137l-129 263l-129 -263h-133z" />
    <glyph glyph-name="underscore" unicode="_" horiz-adv-x="500" 
d="M0 -38h500v-108h-500v108z" />
    <glyph glyph-name="grave" unicode="`" horiz-adv-x="500" 
d="M120 777h154l106 -167h-119z" />
    <glyph glyph-name="a" unicode="a" horiz-adv-x="572" 
d="M224 -16c-55.333 0 -99.1689 14.334 -131.502 43.001s-48.5 67.667 -48.5 117c0 52 18.833 94 56.5 126s86.834 48 147.501 48c21.333 0 43.5 -2.16699 66.5 -6.5s43.167 -9.83301 60.5 -16.5c0 78 -43.333 117 -130 117c-56.667 0 -109.667 -18 -159 -54l-11 112
c22 16.667 50.333 30 85 40s69.334 15 104.001 15c78 0 137.833 -19.833 179.5 -59.5s62.5 -96.834 62.5 -171.501v-294h-125l-2 50c-36 -44 -87.667 -66 -155 -66zM254.997 83.001c36 0 64.5 10.667 85.5 32s32.5 51.333 34.5 90c-31.333 12.667 -65.333 19 -102 19
c-30.667 0 -54.5 -6.16699 -71.5 -18.5s-25.5 -29.833 -25.5 -52.5c0 -22 7 -39.167 21 -51.5s33.333 -18.5 58 -18.5z" />
    <glyph glyph-name="b" unicode="b" horiz-adv-x="659" 
d="M371 -16c-35.333 0 -67.1699 7.16699 -95.5029 21.5s-50.5 34.5 -66.5 60.5l-2 -66h-133v810h139v-361c36.667 50.667 91.667 76 165 76c44.667 0 84.834 -11 120.501 -33s63.834 -53.5 84.501 -94.5s31 -88.167 31 -141.5c0 -49.333 -10.167 -94.5 -30.5 -135.5
s-49.166 -74 -86.499 -99s-79.333 -37.5 -126 -37.5zM339.996 108c40 0 72.498 13.667 97.498 41s37.5 62.333 37.5 105c0 43.333 -12.667 78.666 -38 105.999s-57.666 41 -96.999 41s-71.666 -13.667 -96.999 -41s-38 -62.666 -38 -105.999
c0 -42.667 12.5 -77.667 37.5 -105s57.5 -41 97.5 -41z" />
    <glyph glyph-name="c" unicode="c" horiz-adv-x="541" 
d="M325 -13c-55.333 0 -104.166 10.667 -146.499 32s-75.166 52 -98.499 92s-35 87 -35 141c0 52 11.333 98.333 34 139s55.167 72.667 97.5 96s91.5 35 147.5 35c30 0 59.833 -3.33301 89.5 -10s54.5 -15.667 74.5 -27l-17 -118c-44.667 21.333 -89.334 32 -134.001 32
c-46.667 0 -83.834 -13 -111.501 -39s-41.5 -61 -41.5 -105c0 -45.333 14 -80.833 42 -106.5s66.333 -38.5 115 -38.5c42.667 0 89 10.333 139 31l14 -114c-21.333 -12.667 -47 -22.5 -77 -29.5s-60.667 -10.5 -92 -10.5z" />
    <glyph glyph-name="d" unicode="d" horiz-adv-x="659" 
d="M281 -16c-44.667 0 -84.832 11.001 -120.499 33.001s-63.834 53.5 -84.501 94.5s-31 88.167 -31 141.5c0 49.333 10.167 94.5 30.5 135.5s49.166 74 86.499 99s79.333 37.5 126 37.5c33.333 0 63.833 -6.66699 91.5 -20s49.834 -32 66.501 -56v361h139v-810h-133l-2 65
c-17.333 -26.667 -40.333 -46.834 -69 -60.501s-62 -20.5 -100 -20.5zM319.002 108.001c39.333 0 71.668 13.667 97.001 41s38 62.666 38 105.999c0 42.667 -12.5 77.667 -37.5 105s-57.5 41 -97.5 41s-72.5 -13.667 -97.5 -41s-37.5 -62.333 -37.5 -105
c0 -43.333 12.667 -78.666 38 -105.999s57.666 -41 96.999 -41z" />
    <glyph glyph-name="e" unicode="e" horiz-adv-x="599" 
d="M341 -16c-59.333 0 -111.165 10.666 -155.498 31.999s-78.833 52.5 -103.5 93.5s-37 89.167 -37 144.5c0 51.333 10.667 97.5 32 138.5s51.666 73.333 90.999 97s85 35.5 137 35.5c48 0 90.167 -10.167 126.5 -30.5s64.666 -49.5 84.999 -87.5s30.5 -83 30.5 -135
c0 -22 -1.66699 -42 -5 -60h-359c17.333 -76 75 -114 173 -114c30.667 0 60.5 3.16699 89.5 9.5s55.167 15.5 78.5 27.5l14 -109c-24 -13.333 -53.333 -23.666 -88 -30.999s-71 -11 -109 -11zM414.001 308.999c-3.33301 35.333 -14.832 62.5 -34.499 81.5
s-45.834 28.5 -78.501 28.5c-32 0 -58.333 -9.5 -79 -28.5s-34 -46.167 -40 -81.5h232z" />
    <glyph glyph-name="f" unicode="f" horiz-adv-x="428" 
d="M118 394l-92.001 0.000976562v115h92v63c0 77.333 18.667 137.166 56 179.499s90.333 63.5 159 63.5c20 0 40.833 -2 62.5 -6s39.834 -9.33301 54.501 -16l-15 -114c-28 10 -55 15 -81 15c-33.333 0 -57.833 -10.833 -73.5 -32.5s-23.5 -55.5 -23.5 -101.5v-51h137v-115
h-137v-394h-139v394z" />
    <glyph glyph-name="g" unicode="g" horiz-adv-x="592" 
d="M273 -254c-78 0 -138.666 12.8311 -181.999 38.498s-65 61.834 -65 108.501c0 29.333 7.33301 54.833 22 76.5s35.667 38.167 63 49.5c-17.333 8 -31 19.333 -41 34s-15 31.334 -15 50.001c0 42 24.333 76.333 73 103c-48 32.667 -72 79 -72 139
c0 54 20.667 97.5 62 130.5s95.666 49.5 162.999 49.5c42.667 0 80.334 -7 113.001 -21l179 12v-104l-84 6c15.333 -24.667 23 -51.334 23 -80.001c0 -33.333 -9 -63.166 -27 -89.499s-43.833 -47 -77.5 -62s-73.167 -22.5 -118.5 -22.5c-30 0 -54.667 2.33301 -74 7
c-12.667 -6.66699 -21.834 -13.5 -27.501 -20.5s-8.5 -15.167 -8.5 -24.5c0 -12 6.66699 -20.5 20 -25.5s36 -7.5 68 -7.5h40c82 0 142.833 -13.5 182.5 -40.5s59.5 -68.833 59.5 -125.5c0 -58 -24 -102.667 -72 -134s-116 -47 -204 -47zM287.001 -145.002
c40.667 0 71.667 5.5 93 16.5s32 27.167 32 48.5c0 20.667 -9 35.5 -27 44.5s-47.667 13.5 -89 13.5h-23c-39.333 0 -68 -5 -86 -15s-27 -25.667 -27 -47c0 -19.333 11 -34.333 33 -45s53.333 -16 94 -16zM284.001 263.998c30 0 53.667 7.16895 71 21.502
s26 34.166 26 59.499c0 24.667 -8.83301 44.167 -26.5 58.5s-41.167 21.5 -70.5 21.5s-52.666 -7.16699 -69.999 -21.5s-26 -33.833 -26 -58.5s8.66699 -44.334 26 -59.001s40.666 -22 69.999 -22z" />
    <glyph glyph-name="h" unicode="h" horiz-adv-x="619" 
d="M74 810l138.998 0.000976562v-357c14.667 23.333 34.834 41.166 60.501 53.499s55.5 18.5 89.5 18.5c60 0 105.833 -18.5 137.5 -55.5s47.5 -90.5 47.5 -160.5v-309h-139v283c0 79.333 -30.333 119 -91 119c-33.333 0 -59.166 -11.167 -77.499 -33.5
s-27.5 -53.833 -27.5 -94.5v-274h-139v810z" />
    <glyph glyph-name="i" unicode="i" horiz-adv-x="287" 
d="M74 509h139v-509h-139v509zM143 613c-24 0 -43.833 7.83105 -59.5 23.498s-23.5 34.834 -23.5 57.501s7.83301 41.667 23.5 57s35.5 23 59.5 23s43.833 -7.66699 59.5 -23s23.5 -34.333 23.5 -57c0 -23.333 -7.83301 -42.666 -23.5 -57.999s-35.5 -23 -59.5 -23z" />
    <glyph glyph-name="j" unicode="j" horiz-adv-x="287" 
d="M11 -254c-25.333 0 -48.667 2.16797 -70 6.50098s-38 10.166 -50 17.499l14 116c24 -12 51.667 -18 83 -18c29.333 0 51 8.33301 65 25s21 43 21 79v537h139v-544c0 -72 -17 -126.5 -51 -163.5s-84.333 -55.5 -151 -55.5zM142.999 613.001
c-24 0 -43.833 7.83105 -59.5 23.498s-23.5 34.834 -23.5 57.501s7.83301 41.667 23.5 57s35.5 23 59.5 23s43.833 -7.66699 59.5 -23s23.5 -34.333 23.5 -57c0 -23.333 -7.83301 -42.666 -23.5 -57.999s-35.5 -23 -59.5 -23z" />
    <glyph glyph-name="k" unicode="k" horiz-adv-x="609" 
d="M74 810h139v-491l183 190h172l-229 -228l266 -281h-179l-213 232v-232h-139v810z" />
    <glyph glyph-name="l" unicode="l" horiz-adv-x="287" 
d="M74 810h139v-810h-139v810z" />
    <glyph glyph-name="m" unicode="m" horiz-adv-x="941" 
d="M74 509l134.003 0.000976562l1 -63c15.333 26 36.166 45.667 62.499 59s57.166 20 92.499 20c74 0 126 -30.333 156 -91c14 27.333 35.833 49.333 65.5 66s62.167 25 97.5 25c60.667 0 107 -18.333 139 -55s48 -90.334 48 -161.001v-309h-139v283
c0 40.667 -7.33301 70.667 -22 90s-37.334 29 -68.001 29s-54.834 -11.333 -72.501 -34s-26.5 -54 -26.5 -94v-274h-139v283c0 40.667 -7.16699 70.667 -21.5 90s-37.166 29 -68.499 29s-55.833 -11.333 -73.5 -34s-26.5 -53.667 -26.5 -93v-275h-139v509z" />
    <glyph glyph-name="n" unicode="n" horiz-adv-x="619" 
d="M74 509h134l1 -63c14.667 25.333 35.167 44.833 61.5 58.5s57.166 20.5 92.499 20.5c60 0 105.833 -18.5 137.5 -55.5s47.5 -90.5 47.5 -160.5v-309h-139v283c0 79.333 -30.333 119 -91 119c-33.333 0 -59.166 -11.167 -77.499 -33.5s-27.5 -53.833 -27.5 -94.5v-274
h-139v509z" />
    <glyph glyph-name="o" unicode="o" horiz-adv-x="638" 
d="M319 -16c-50 0 -95.833 11.332 -137.5 33.999s-74.834 54.667 -99.501 96s-37 88.333 -37 141c0 48.667 11.5 93.5 34.5 134.5s55.5 73.833 97.5 98.5s89.333 37 142 37c50 0 95.833 -11.167 137.5 -33.5s74.834 -54.166 99.501 -95.499s37 -88.333 37 -141
c0 -49.333 -11.5 -94.5 -34.5 -135.5s-55.5 -73.833 -97.5 -98.5s-89.333 -37 -142 -37zM319 107.999c39.333 0 71.668 13.667 97.001 41s38 62.666 38 105.999c0 42.667 -12.5 77.667 -37.5 105s-57.5 41 -97.5 41s-72.5 -13.667 -97.5 -41s-37.5 -62.333 -37.5 -105
c0 -43.333 12.667 -78.666 38 -105.999s57.666 -41 96.999 -41z" />
    <glyph glyph-name="p" unicode="p" horiz-adv-x="659" 
d="M74 509h132.997l2 -66c34.667 54.667 91 82 169 82c44.667 0 84.834 -11 120.501 -33s63.834 -53.5 84.501 -94.5s31 -88.167 31 -141.5c0 -49.333 -10.167 -94.5 -30.5 -135.5s-49.166 -74 -86.499 -99s-79.333 -37.5 -126 -37.5c-34 0 -64.667 6.5 -92 19.5
s-49.333 31.5 -66 55.5v-304h-139v754zM339.997 108c40 0 72.498 13.667 97.498 41s37.5 62.333 37.5 105c0 43.333 -12.667 78.666 -38 105.999s-57.666 41 -96.999 41s-71.666 -13.667 -96.999 -41s-38 -62.666 -38 -105.999c0 -42.667 12.5 -77.667 37.5 -105
s57.5 -41 97.5 -41z" />
    <glyph glyph-name="q" unicode="q" horiz-adv-x="659" 
d="M446 -245l0.00292969 305c-35.333 -50.667 -90.333 -76 -165 -76c-44.667 0 -84.834 11 -120.501 33s-63.834 53.5 -84.501 94.5s-31 88.167 -31 141.5c0 49.333 10.167 94.5 30.5 135.5s49.166 74 86.499 99s79.333 37.5 126 37.5c34.667 0 66.167 -7.16699 94.5 -21.5
s50.833 -34.5 67.5 -60.5l2 66h133v-754h-139zM319.003 108c39.333 0 71.668 13.667 97.001 41s38 62.666 38 105.999c0 42.667 -12.5 77.667 -37.5 105s-57.5 41 -97.5 41s-72.5 -13.667 -97.5 -41s-37.5 -62.333 -37.5 -105c0 -43.333 12.667 -78.666 38 -105.999
s57.666 -41 96.999 -41z" />
    <glyph glyph-name="r" unicode="r" horiz-adv-x="435" 
d="M74 509l134.001 -0.000976562l1 -84c14 30 32.833 53 56.5 69s51.167 24 82.5 24c21.333 0 41 -3.66699 59 -11l-12 -131c-20.667 8 -41.334 12 -62.001 12c-38 0 -67.5 -13.667 -88.5 -41s-31.5 -65.666 -31.5 -114.999v-232h-139v509z" />
    <glyph glyph-name="s" unicode="s" horiz-adv-x="493" 
d="M231 -16c-38.667 0 -75.332 4.49805 -109.999 13.498s-61.334 20.833 -80.001 35.5l17 113c22.667 -15.333 49.167 -27.666 79.5 -36.999s59.5 -14 87.5 -14c56.667 0 85 14.333 85 43c0 15.333 -6 27 -18 35s-37 17.333 -75 28
c-60 16.667 -102.833 37.834 -128.5 63.501s-38.5 60.167 -38.5 103.5c0 48.667 18.333 87 55 115s87 42 151 42c31.333 0 62.666 -3.66699 93.999 -11s57 -17 77 -29l-16 -110c-20.667 12 -44.5 21.5 -71.5 28.5s-52.833 10.5 -77.5 10.5c-48.667 0 -73 -13 -73 -39
c0 -14.667 5.83301 -26.167 17.5 -34.5s34.834 -17.5 69.501 -27.5c64 -18.667 109.167 -40.667 135.5 -66s39.5 -60.333 39.5 -105c0 -49.333 -19.5 -88 -58.5 -116s-92.833 -42 -161.5 -42z" />
    <glyph glyph-name="t" unicode="t" horiz-adv-x="461" 
d="M298 -16c-63.333 0 -110.334 16.166 -141.001 48.499s-46 81.833 -46 148.5v213h-99v115h99v138h139v-138h159v-115h-159v-188c0 -35.333 6 -60.666 18 -75.999s32.333 -23 61 -23c32.667 0 62.667 7.33301 90 22l15 -116c-15.333 -8.66699 -35.166 -15.667 -59.499 -21
s-49.833 -8 -76.5 -8z" />
    <glyph glyph-name="u" unicode="u" horiz-adv-x="618" 
d="M256 -16c-60 0 -105.833 18.499 -137.5 55.499s-47.5 90.5 -47.5 160.5v309h139v-283c0 -79.333 30.333 -119 91 -119c33.333 0 59 11.167 77 33.5s27 53.833 27 94.5v274h139v-509h-134l-1 62c-14.667 -25.333 -35.167 -44.666 -61.5 -57.999s-56.833 -20 -91.5 -20z
" />
    <glyph glyph-name="v" unicode="v" horiz-adv-x="570" 
d="M16 509h153l118 -363l122 363h145l-197 -509h-144z" />
    <glyph glyph-name="w" unicode="w" horiz-adv-x="855" 
d="M21 509h145l93 -349l108 349h117l113 -350l94 350h143l-169 -509h-126l-115 336l-110 -336h-124z" />
    <glyph glyph-name="x" unicode="x" horiz-adv-x="590" 
d="M215 263l-181 246h159l105 -156l101 156h153l-179 -248l193 -261h-159l-117 174l-113 -174h-153z" />
    <glyph glyph-name="y" unicode="y" horiz-adv-x="592" 
d="M115 -254c-20 0 -39.167 1.99902 -57.5 5.99902s-32.5 9.33301 -42.5 16l18 119c20 -10 42 -15 66 -15c25.333 0 45.833 7.83301 61.5 23.5s32.5 45.167 50.5 88.5l18 43l-213 482h151l135 -343l125 343h149l-223 -536c-24.667 -59.333 -48.5 -105.166 -71.5 -137.499
s-47.5 -55.333 -73.5 -69s-57 -20.5 -93 -20.5z" />
    <glyph glyph-name="z" unicode="z" horiz-adv-x="542" 
d="M44 99l260 295h-249v115h431v-99l-261 -295h268v-115h-449v99z" />
    <glyph glyph-name="braceleft" unicode="{" horiz-adv-x="443" 
d="M335 -144c-69.333 0 -120.335 13.167 -153.002 39.5s-49 66.833 -49 121.5c0 19.333 2.16699 39.333 6.5 60l13 62.5c4.33301 21 6.5 42.5 6.5 64.5c0 29.333 -6.33301 49.5 -19 60.5s-35.334 16.5 -68.001 16.5h-26v115h26c32.667 0 55.334 5.5 68.001 16.5
s19 31.167 19 60.5c0 22 -2.16699 43.5 -6.5 64.5l-13 62.5c-4.33301 20.667 -6.5 40.667 -6.5 60c0 54.667 16.333 95.167 49 121.5s83.667 39.5 153 39.5c6.66699 0 15.5 -0.166992 26.5 -0.5s23.167 -0.833008 36.5 -1.5v-112c-3.33301 0.666992 -18.666 1 -45.999 1
c-31.333 0 -54.166 -5.83301 -68.499 -17.5s-21.5 -29.834 -21.5 -54.501c0 -15.333 2.16699 -33 6.5 -53s8.5 -40.833 12.5 -62.5s6 -43.5 6 -65.5c0 -27.333 -6.5 -51.333 -19.5 -72s-30.5 -35.667 -52.5 -45c22.667 -9.33301 40.334 -24.166 53.001 -44.499
s19 -44.166 19 -71.499c0 -22 -2 -43.833 -6 -65.5s-8.16699 -42.5 -12.5 -62.5s-6.5 -37.667 -6.5 -53c0 -24.667 7.16699 -42.834 21.5 -54.501s37.166 -17.5 68.499 -17.5c26.667 0 42 0.333008 46 1v-112c-13.333 -0.666992 -25.5 -1.16699 -36.5 -1.5
s-19.833 -0.5 -26.5 -0.5z" />
    <glyph glyph-name="bar" unicode="|" horiz-adv-x="329" 
d="M101 866h128v-1093h-128v1093z" />
    <glyph glyph-name="braceright" unicode="}" horiz-adv-x="443" 
d="M108 -144c-6.66699 0 -15.498 0.164062 -26.498 0.49707s-23.167 0.833008 -36.5 1.5v112c3.33301 -0.666992 18.666 -1 45.999 -1c31.333 0 54.166 5.83301 68.499 17.5s21.5 29.834 21.5 54.501c0 15.333 -2 33 -6 53l-12.5 62.5c-4.33301 21.667 -6.5 43.5 -6.5 65.5
c0 27.333 6.5 51.333 19.5 72s30.5 35.667 52.5 45c-22.667 8.66699 -40.334 23.334 -53.001 44.001s-19 44.667 -19 72c0 22 2.16699 43.833 6.5 65.5l12.5 62.5c4 20 6 37.667 6 53c0 24.667 -7.16699 42.834 -21.5 54.501s-37.166 17.5 -68.499 17.5
c-26.667 0 -42 -0.333008 -46 -1v112c13.333 0.666992 25.5 1.16699 36.5 1.5s19.833 0.5 26.5 0.5c69.333 0 120.333 -13.167 153 -39.5s49 -66.833 49 -121.5c0 -19.333 -2.16699 -39.333 -6.5 -60l-13 -62.5c-4.33301 -21 -6.5 -42.5 -6.5 -64.5
c0 -29.333 6.33301 -49.5 19 -60.5s35.334 -16.5 68.001 -16.5h26v-115h-26c-32.667 0 -55.334 -5.5 -68.001 -16.5s-19 -31.167 -19 -60.5c0 -22 2.16699 -43.5 6.5 -64.5l13 -62.5c4.33301 -20.667 6.5 -40.667 6.5 -60c0 -54.667 -16.333 -95.167 -49 -121.5
s-83.667 -39.5 -153 -39.5z" />
    <glyph glyph-name="asciitilde" unicode="~" horiz-adv-x="620" 
d="M421 232c-44.667 0 -86 15 -124 45c-27.333 21.333 -46 34.833 -56 40.5s-19.667 8.5 -29 8.5c-35.333 0 -53 -31 -53 -93h-115v15c0 64.667 13.5 114.667 40.5 150s65.167 53 114.5 53c44.667 0 86 -15 124 -45c27.333 -21.333 46 -34.833 56 -40.5s19.667 -8.5 29 -8.5
c35.333 0 53 31 53 93h115v-15c0 -64.667 -13.5 -114.667 -40.5 -150s-65.167 -53 -114.5 -53z" />
    <glyph glyph-name="uni00A0" unicode="&#xa0;" horiz-adv-x="220" 
 />
    <glyph glyph-name="exclamdown" unicode="&#xa1;" horiz-adv-x="351" 
d="M113 255h125l13 -536h-150zM176 515c24.667 0 45 -7.83398 61 -23.501s24 -35.5 24 -59.5c0 -23.333 -8 -42.666 -24 -57.999s-36.333 -23 -61 -23s-45.167 7.5 -61.5 22.5s-24.5 34.5 -24.5 58.5s8 43.833 24 59.5s36.667 23.5 62 23.5z" />
    <glyph glyph-name="cent" unicode="&#xa2;" horiz-adv-x="620" 
d="M307 -132l0.000976562 123.998c-44.667 6 -83.667 20.333 -117 43s-59.333 52.334 -78 89.001s-28 78.667 -28 126c0 70.667 20.333 130.334 61 179.001s94.667 78 162 88v125h75v-122c52 -2.66699 98 -15 138 -37l-18 -113c-37.333 19.333 -77.333 30 -120 32v-295h8
c36 0.666992 76.333 11 121 31l14 -110c-38.667 -23.333 -86.334 -36 -143.001 -38v-122h-75zM307.001 392.998c-30 -9.33301 -53 -25.833 -69 -49.5s-24 -53.167 -24 -88.5s8 -65 24 -89s39 -40.667 69 -50v277z" />
    <glyph glyph-name="sterling" unicode="&#xa3;" horiz-adv-x="620" 
d="M56 118h96.001v193h-91v110h91v47c0 93.333 23.167 165.333 69.5 216s112.166 76 197.499 76c59.333 0 112.333 -11.667 159 -35l-21 -117c-44.667 21.333 -88 32 -130 32c-46 0 -80.667 -15 -104 -45s-35 -74.333 -35 -133v-41h199v-110h-199v-193h295v-118h-527v118z
" />
    <glyph glyph-name="currency" unicode="&#xa4;" horiz-adv-x="620" 
d="M27 215l85.999 91.999c-18 31.333 -27 68 -27 110c0 40.667 9 77.334 27 110.001l-86 92l86 77l79 -89c18 11.333 37.333 20.166 58 26.499s40.667 9.5 60 9.5s39.333 -3.16699 60 -9.5s40 -15.166 58 -26.499l80 89l86 -77l-87 -92c18 -32 27 -68.667 27 -110
c0 -42 -9 -78.667 -27 -110l87 -92l-86 -77l-80 88c-36.667 -23.333 -76 -35 -118 -35c-41.333 0 -80.666 11.667 -117.999 35l-79 -88zM309.999 292.999c34 0 61.5 11.5 82.5 34.5s31.5 52.833 31.5 89.5s-10.5 66.5 -31.5 89.5s-48.5 34.5 -82.5 34.5
s-61.5 -11.5 -82.5 -34.5s-31.5 -52.833 -31.5 -89.5s10.5 -66.5 31.5 -89.5s48.5 -34.5 82.5 -34.5z" />
    <glyph glyph-name="yen" unicode="&#xa5;" horiz-adv-x="620" 
d="M244 142h-199v90h199v78h-199v90h151l-191 344h156l152 -309l151 309h152l-193 -344h150v-90h-193v-78h193v-90h-193v-142h-136v142z" />
    <glyph glyph-name="brokenbar" unicode="&#xa6;" horiz-adv-x="329" 
d="M101 218h128v-445h-128v445zM101 866h128v-445h-128v445z" />
    <glyph glyph-name="section" unicode="&#xa7;" horiz-adv-x="533" 
d="M248 -122c-38 0 -75.333 4.83594 -112 14.5029s-65.667 22.167 -87 37.5l16 107c57.333 -36.667 117.666 -55 180.999 -55c27.333 0 48.833 5.5 64.5 16.5s23.5 26.167 23.5 45.5c0 17.333 -7.5 31.666 -22.5 42.999s-41.167 22.333 -78.5 33
c-65.333 18.667 -112.5 41.834 -141.5 69.501s-43.5 63.834 -43.5 108.501c0 36.667 9.16699 69 27.5 97s43.833 48.667 76.5 62c-28 15.333 -48.833 34 -62.5 56s-20.5 48.333 -20.5 79c0 48.667 18.5 87 55.5 115s87.167 42 150.5 42c31.333 0 62.666 -3.5 93.999 -10.5
s59.333 -16.833 84 -29.5l-17 -103c-24 12 -49.667 21.5 -77 28.5s-53.666 10.5 -78.999 10.5c-26 0 -45.833 -4.33301 -59.5 -13s-20.5 -21 -20.5 -37c0 -15.333 7.33301 -28.333 22 -39s42.334 -22.334 83.001 -35.001c63.333 -20.667 109 -45.334 137 -74.001
s42 -65.334 42 -110.001c0 -35.333 -8.5 -66.333 -25.5 -93s-40.833 -47.334 -71.5 -62.001c28 -16 48.667 -34.667 62 -56s20 -46.333 20 -75c0 -53.333 -19.667 -95.5 -59 -126.5s-93.333 -46.5 -162 -46.5zM267 231.003c26.667 0 48.668 8.66699 66.001 26
s26 39.333 26 66c0 25.333 -8.83301 46 -26.5 62s-40.167 24 -67.5 24c-26.667 0 -48.5 -8.66699 -65.5 -26s-25.5 -39.333 -25.5 -66c0 -25.333 8.66699 -46 26 -62s39.666 -24 66.999 -24z" />
    <glyph glyph-name="dieresis" unicode="&#xa8;" horiz-adv-x="500" 
d="M141 616c-22 0 -39.501 6.5 -52.501 19.5s-19.5 29.833 -19.5 50.5c0 20 6.83301 36.5 20.5 49.5s30.834 19.5 51.501 19.5c21.333 0 38.666 -6.5 51.999 -19.5s20 -29.5 20 -49.5c0 -20.667 -6.66699 -37.5 -20 -50.5s-30.666 -19.5 -51.999 -19.5zM358.999 616
c-22 0 -39.501 6.5 -52.501 19.5s-19.5 29.833 -19.5 50.5c0 20 6.83301 36.5 20.5 49.5s30.834 19.5 51.501 19.5c21.333 0 38.666 -6.5 51.999 -19.5s20 -29.5 20 -49.5c0 -20.667 -6.66699 -37.5 -20 -50.5s-30.666 -19.5 -51.999 -19.5z" />
    <glyph glyph-name="copyright" unicode="&#xa9;" horiz-adv-x="795" 
d="M414 194c-60.667 0 -108.832 16.668 -144.499 50.001s-53.5 78.666 -53.5 135.999s18.5 103.833 55.5 139.5s85.167 53.5 144.5 53.5c20 0 40.5 -2.5 61.5 -7.5s37.833 -11.167 50.5 -18.5l-14 -94c-14 6 -29.333 11 -46 15s-31.667 6 -45 6
c-28 0 -50.833 -8.33301 -68.5 -25s-26.5 -38.667 -26.5 -66c0 -28.667 9.16699 -51 27.5 -67s43.166 -24 74.499 -24c24.667 0 55 7 91 21l14 -93c-36.667 -17.333 -77 -26 -121 -26zM398.002 25.001c-66.667 0 -127.333 14.8311 -182 44.498s-98.334 71.667 -131.001 126
s-49 115.833 -49 184.5c0 65.333 15.167 124.833 45.5 178.5s73 96.5 128 128.5s117.833 48 188.5 48c66 0 126.333 -14.667 181 -44s98.334 -71.166 131.001 -125.499s49 -116.166 49 -185.499c0 -65.333 -15 -124.833 -45 -178.5s-72.667 -96.5 -128 -128.5
s-118 -48 -188 -48zM398.003 103.999c52 0 98.833 11.333 140.5 34s74.667 55 99 97s36.5 90.333 36.5 145c0 52 -11.333 98.833 -34 140.5s-55 74.667 -97 99s-90.333 36.5 -145 36.5c-52 0 -98.833 -11.333 -140.5 -34s-74.667 -55 -99 -97s-36.5 -90.333 -36.5 -145
c0 -52 11.333 -98.833 34 -140.5s55 -74.667 97 -99s90.333 -36.5 145 -36.5z" />
    <glyph glyph-name="ordfeminine" unicode="&#xaa;" horiz-adv-x="469" 
d="M209 388c-30 0 -57.5 7.83008 -82.5 23.4971s-45 37.834 -60 66.501s-22.5 61.334 -22.5 98.001c0 32 7 61.833 21 89.5s33.667 50.334 59 68.001s53.666 26.5 84.999 26.5c22 0 42.333 -4.33301 61 -13s34.334 -21 47.001 -37l1 40h101v-350h-100l-2 41
c-11.333 -16.667 -26.5 -29.667 -45.5 -39s-39.833 -14 -62.5 -14zM63 319.997h356v-94h-356v94zM234 484.997c24.667 0 44.5 8.33301 59.5 25s22.5 38.334 22.5 65.001s-7.5 48.167 -22.5 64.5s-34.5 24.5 -58.5 24.5c-24.667 0 -44.5 -8.16699 -59.5 -24.5
s-22.5 -37.833 -22.5 -64.5s7.5 -48.334 22.5 -65.001s34.5 -25 58.5 -25z" />
    <glyph glyph-name="guillemotleft" unicode="&#xab;" horiz-adv-x="604" 
d="M28 257l148 219h152l-153 -219l153 -219h-152zM269 257l148 219h152l-153 -219l153 -219h-152z" />
    <glyph glyph-name="logicalnot" unicode="&#xac;" horiz-adv-x="620" 
d="M411 307h-329v119h455v-268h-126v149z" />
    <glyph glyph-name="uni00AD" unicode="&#xad;" horiz-adv-x="429" 
d="M61 348h307v-121h-307v121z" />
    <glyph glyph-name="registered" unicode="&#xae;" horiz-adv-x="509" 
d="M254 386c-40 0 -76.833 9.33301 -110.5 28s-60.834 44.834 -81.501 78.501s-31 71.5 -31 113.5c0 40 9.33301 76.5 28 109.5s45.167 59.667 79.5 80s72.833 30.5 115.5 30.5c40.667 0 77.834 -9.16699 111.501 -27.5s60.667 -44.333 81 -78s30.5 -71.834 30.5 -114.501
c0 -40 -9.33301 -76.667 -28 -110s-45 -60 -79 -80s-72.667 -30 -116 -30zM254 442c47.333 0 86.166 15.335 116.499 46.002s45.5 70 45.5 118s-15.167 87.333 -45.5 118s-69.166 46 -116.499 46c-30 0 -57.167 -6.83301 -81.5 -20.5s-43.666 -33 -57.999 -58
s-21.5 -53.5 -21.5 -85.5c0 -30.667 6.66699 -58.334 20 -83.001s32.166 -44.334 56.499 -59.001s52.5 -22 84.5 -22zM170 715.002h83c28.667 0 51 -6.33301 67 -19s24 -30.334 24 -53.001c0 -27.333 -10.667 -47.666 -32 -60.999l43 -76h-67l-30 59h-28v-59h-60v209z
M230 616.002h19.001c11.333 0 19.666 2 24.999 6s8 10.333 8 19c0 16 -11 24 -33 24h-19v-49z" />
    <glyph glyph-name="macron" unicode="&#xaf;" horiz-adv-x="500" 
d="M88 731h324v-99h-324v99z" />
    <glyph glyph-name="degree" unicode="&#xb0;" horiz-adv-x="491" 
d="M246 416c-33.333 0 -64 7.50098 -92 22.501s-50.333 36.167 -67 63.5s-25 58.333 -25 93c0 32.667 7.66699 62.5 23 89.5s37.166 48.833 65.499 65.5s60.166 25 95.499 25c33.333 0 63.833 -7.5 91.5 -22.5s49.834 -36.333 66.501 -64s25 -58.834 25 -93.501
c0 -32 -7.66699 -61.5 -23 -88.5s-37.166 -48.833 -65.499 -65.5s-59.833 -25 -94.5 -25zM246 511.001c24 0 43.5 7.83301 58.5 23.5s22.5 35.834 22.5 60.501c0 25.333 -7.5 46 -22.5 62s-34.5 24 -58.5 24c-23.333 0 -42.5 -8 -57.5 -24s-22.5 -36.667 -22.5 -62
c0 -24.667 7.5 -44.834 22.5 -60.501s34.167 -23.5 57.5 -23.5z" />
    <glyph glyph-name="plusminus" unicode="&#xb1;" horiz-adv-x="620" 
d="M76 119h469v-118h-469v118zM248 363h-172v116h172v185h124v-185h173v-116h-173v-185h-124v185z" />
    <glyph glyph-name="uni00B2" unicode="&#xb2;" 
d="M41 456v86.002c40.667 30 79 61.333 115 94c24.667 22.667 42.167 42 52.5 58s15.5 32 15.5 48c0 13.333 -5.33301 24.166 -16 32.499s-24.667 12.5 -42 12.5c-36.667 0 -71.667 -16.333 -105 -49l-18 83c14.667 16 34.834 28.833 60.501 38.5s52.5 14.5 80.5 14.5
c43.333 0 78.166 -11 104.499 -33s39.5 -51.333 39.5 -88c0 -54 -33.667 -110.667 -101 -170c-12 -10.667 -21.667 -18.834 -29 -24.501s-13.333 -10.5 -18 -14.5h162v-88h-301z" />
    <glyph glyph-name="uni00B3" unicode="&#xb3;" 
d="M163 446c-24.667 0 -47.833 2.33301 -69.5 7s-39.5 11.334 -53.5 20.001l9 89c14.667 -8.66699 31.667 -15.334 51 -20.001s39 -7 59 -7c24 0 42.667 4.5 56 13.5s20 21.5 20 37.5c0 15.333 -6.33301 27.333 -19 36s-30 13 -52 13c-14 0 -27.667 -2 -41 -6l-22 52l104 98
h-155v85h273v-79l-91 -83c32.667 -4.66699 58.5 -17.667 77.5 -39s28.5 -48 28.5 -80c0 -41.333 -15.833 -74.5 -47.5 -99.5s-74.167 -37.5 -127.5 -37.5z" />
    <glyph glyph-name="acute" unicode="&#xb4;" horiz-adv-x="500" 
d="M246 777h154l-140 -167h-119z" />
    <glyph glyph-name="mu" unicode="&#xb5;" horiz-adv-x="619" 
d="M73 509l138.999 -0.000976562v-286c0 -40.667 7.16699 -70.167 21.5 -88.5s37.5 -27.5 69.5 -27.5c32.667 0 58.167 11.333 76.5 34s27.5 54 27.5 94v274h139v-509h-134l-1 56c-12.667 -21.333 -30.667 -38.666 -54 -51.999s-47.666 -20 -72.999 -20
c-32.667 0 -56.667 8 -72 24v-253h-139v754z" />
    <glyph glyph-name="paragraph" unicode="&#xb6;" horiz-adv-x="641" 
d="M234 -130v465c-65.333 7.33301 -116 29.333 -152 66s-54 84.667 -54 144c0 68 22.833 120.833 68.5 158.5s109.167 56.5 190.5 56.5h277v-890h-121v779h-88v-779h-121z" />
    <glyph glyph-name="periodcentered" unicode="&#xb7;" horiz-adv-x="299" 
d="M150 296c-25.333 0 -46 7.83203 -62 23.499s-24 35.5 -24 59.5s8.16699 43.5 24.5 58.5s36.833 22.5 61.5 22.5s45 -7.66699 61 -23s24 -34.666 24 -57.999c0 -24 -8 -43.833 -24 -59.5s-36.333 -23.5 -61 -23.5z" />
    <glyph glyph-name="cedilla" unicode="&#xb8;" horiz-adv-x="500" 
d="M230 -262c-17.333 0 -35.8311 1.83496 -55.498 5.50195s-33.834 8.16699 -42.501 13.5l16 73c18.667 -9.33301 41.667 -14 69 -14c36.667 0 55 12 55 36c0 22 -19.333 33 -58 33c-14 0 -25.667 -0.666992 -35 -2l35 127h80l-20 -66
c31.333 -2.66699 56.166 -12.834 74.499 -30.501s27.5 -39.834 27.5 -66.501c0 -33.333 -13.167 -59.833 -39.5 -79.5s-61.833 -29.5 -106.5 -29.5z" />
    <glyph glyph-name="uni00B9" unicode="&#xb9;" 
d="M173 757l-106 -48l-15 94l133 61h94v-408h-106v301z" />
    <glyph glyph-name="ordmasculine" unicode="&#xba;" horiz-adv-x="469" 
d="M234 389c-35.333 0 -67.333 7.66602 -96 22.999s-51.5 37.166 -68.5 65.499s-25.5 60.833 -25.5 97.5c0 34 7.83301 65 23.5 93s38 50.333 67 67s62.167 25 99.5 25c35.333 0 67.333 -7.66699 96 -23s51.667 -37.166 69 -65.499s26 -60.5 26 -96.5
c0 -53.333 -18.167 -97.666 -54.5 -132.999s-81.833 -53 -136.5 -53zM234 484.999c24.667 0 44.5 8.33301 59.5 25s22.5 38.334 22.5 65.001s-7.5 48.167 -22.5 64.5s-34.5 24.5 -58.5 24.5c-24.667 0 -44.5 -8.16699 -59.5 -24.5s-22.5 -37.833 -22.5 -64.5
s7.5 -48.334 22.5 -65.001s34.5 -25 58.5 -25zM56 319.999h356v-94h-356v94z" />
    <glyph glyph-name="guillemotright" unicode="&#xbb;" horiz-adv-x="604" 
d="M188 257l-153 219h152l148 -219l-148 -219h-152zM429 257l-153 219h152l148 -219l-148 -219h-152z" />
    <glyph glyph-name="onequarter" unicode="&#xbc;" horiz-adv-x="937" 
d="M697 744h123l-530 -744h-123zM766 83h-193v82l181 243h107v-245h48v-80h-48v-83h-95v83zM766 163v130l-98 -130h98zM173 637l-106 -48l-15 94l133 61h94v-408h-106v301z" />
    <glyph glyph-name="onehalf" unicode="&#xbd;" horiz-adv-x="937" 
d="M654 744h123l-530 -744h-123zM592 0v86.002c40.667 30 79 61.333 115 94c24.667 22.667 42.167 42 52.5 58s15.5 32 15.5 48c0 13.333 -5.33301 24.166 -16 32.499s-24.667 12.5 -42 12.5c-36.667 0 -71.667 -16.333 -105 -49l-18 83
c14.667 16 34.834 28.833 60.501 38.5s52.5 14.5 80.5 14.5c43.333 0 78.166 -11 104.499 -33s39.5 -51.333 39.5 -88c0 -54 -33.667 -110.667 -101 -170c-12 -10.667 -21.667 -18.834 -29 -24.501s-13.333 -10.5 -18 -14.5h162v-88h-301zM173 637.002l-106 -48l-15 94
l133 61h94v-408h-106v301z" />
    <glyph glyph-name="threequarters" unicode="&#xbe;" horiz-adv-x="937" 
d="M696 744h123l-530 -744h-123zM766 83h-193v82l181 243h107v-245h48v-80h-48v-83h-95v83zM766 163v130l-98 -130h98zM163 326c-24.667 0 -47.833 2.33301 -69.5 7s-39.5 11.334 -53.5 20.001l9 89c14.667 -8.66699 31.667 -15.334 51 -20.001s39 -7 59 -7
c24 0 42.667 4.5 56 13.5s20 21.5 20 37.5c0 15.333 -6.33301 27.333 -19 36s-30 13 -52 13c-14 0 -27.667 -2 -41 -6l-22 52l104 98h-155v85h273v-79l-91 -83c32.667 -4.66699 58.5 -17.667 77.5 -39s28.5 -48 28.5 -80c0 -41.333 -15.833 -74.5 -47.5 -99.5
s-74.167 -37.5 -127.5 -37.5z" />
    <glyph glyph-name="questiondown" unicode="&#xbf;" horiz-adv-x="510" 
d="M259 -290c-44 0 -83 8.00195 -117 24.002s-60.833 38.833 -80.5 68.5s-29.5 64.167 -29.5 103.5c0 28.667 4.5 53.667 13.5 75s20.667 40.333 35 57s29.5 32.5 45.5 47.5s31.167 30.5 45.5 46.5s26 33.833 35 53.5s13.5 42.834 13.5 69.501h125c2 -8.66699 3 -19 3 -31
c0 -30 -4.16699 -56.167 -12.5 -78.5s-18.833 -41.833 -31.5 -58.5s-26.167 -31.834 -40.5 -45.501l-40.5 -39.5c-12.667 -12.667 -23.167 -25.834 -31.5 -39.501s-12.5 -29.167 -12.5 -46.5c0 -26 9.16699 -46.5 27.5 -61.5s43.833 -22.5 76.5 -22.5
c30.667 0 61.667 7.66699 93 23s58.666 36.666 81.999 63.999l33 -115c-24.667 -29.333 -57.667 -52.333 -99 -69s-85.666 -25 -132.999 -25zM283 515.002c25.333 0 46 -7.83203 62 -23.499s24 -35.5 24 -59.5s-8.16699 -43.5 -24.5 -58.5s-36.833 -22.5 -61.5 -22.5
s-45 7.66699 -61 23s-24 34.666 -24 57.999c0 24 8 43.833 24 59.5s36.333 23.5 61 23.5z" />
    <glyph glyph-name="Agrave" unicode="&#xc0;" horiz-adv-x="812" 
d="M325 760h162l302 -760h-162l-72 200h-306l-73 -200h-153zM513 318l-112 306l-111 -306h223zM223 978h168l115 -143h-131z" />
    <glyph glyph-name="Aacute" unicode="&#xc1;" horiz-adv-x="812" 
d="M325 760h162l302 -760h-162l-72 200h-306l-73 -200h-153zM513 318l-112 306l-111 -306h223zM418 978h168l-150 -143h-132z" />
    <glyph glyph-name="Acircumflex" unicode="&#xc2;" horiz-adv-x="812" 
d="M325 760h162l302 -760h-162l-72 200h-306l-73 -200h-153zM513 318l-112 306l-111 -306h223zM338 986h136l142 -151h-139l-71 76l-71 -76h-139z" />
    <glyph glyph-name="Atilde" unicode="&#xc3;" horiz-adv-x="812" 
d="M325 760h162l302 -760h-162l-72 200h-306l-73 -200h-153zM513 318l-112 306l-111 -306h223zM483 832c-18 0 -33.668 3 -47.001 9s-25 12.667 -35 20l-28.5 20c-9 6 -18.167 9 -27.5 9c-10.667 0 -18.5 -4.5 -23.5 -13.5s-7.5 -23.167 -7.5 -42.5h-95v7
c1.33301 99.333 38.333 149 111 149c18 0 33.667 -3 47 -9s25 -12.667 35 -20l28.5 -20c9 -6 18.167 -9 27.5 -9c10.667 0 18.334 4.33301 23.001 13s7 23 7 43h96v-7c-0.666992 -48.667 -10.5 -85.667 -29.5 -111s-46.167 -38 -81.5 -38z" />
    <glyph glyph-name="Adieresis" unicode="&#xc4;" horiz-adv-x="812" 
d="M325 760h162l302 -760h-162l-72 200h-306l-73 -200h-153zM513 318l-112 306l-111 -306h223zM295 833c-22 0 -39.667 6.5 -53 19.5s-20 29.833 -20 50.5s6.66699 37.667 20 51s31 20 53 20s39.833 -6.5 53.5 -19.5s20.5 -30.167 20.5 -51.5c0 -20.667 -7 -37.5 -21 -50.5
s-31.667 -19.5 -53 -19.5zM516 833c-21.333 0 -38.833 6.5 -52.5 19.5s-20.5 29.833 -20.5 50.5s6.83301 37.667 20.5 51s31.167 20 52.5 20c22 0 39.833 -6.5 53.5 -19.5s20.5 -30.167 20.5 -51.5c0 -20.667 -7 -37.5 -21 -50.5s-31.667 -19.5 -53 -19.5z" />
    <glyph glyph-name="Aring" unicode="&#xc5;" horiz-adv-x="812" 
d="M325 760h162l302 -760h-162l-72 200h-306l-73 -200h-153zM513 318l-112 306l-111 -306h223zM406 817c-40.667 0 -74.334 12.667 -101.001 38s-40 57 -40 95s13.333 69.667 40 95s60.334 38 101.001 38s74.334 -12.667 101.001 -38s40 -57 40 -95s-13.333 -69.667 -40 -95
s-60.334 -38 -101.001 -38zM406 892c18 0 32.167 5.33301 42.5 16s15.5 24.667 15.5 42c0 18 -5.16699 32.167 -15.5 42.5s-24.5 15.5 -42.5 15.5s-32.167 -5.16699 -42.5 -15.5s-15.5 -24.5 -15.5 -42.5c0 -17.333 5.16699 -31.333 15.5 -42s24.5 -16 42.5 -16z" />
    <glyph glyph-name="AE" unicode="&#xc6;" horiz-adv-x="1110" 
d="M529 318v315l-182 -315h182zM468 760h563v-128h-354v-182h313v-127h-313v-195h368v-128h-516v200h-247l-114 -200h-160z" />
    <glyph glyph-name="Ccedilla" unicode="&#xc7;" horiz-adv-x="762" 
d="M454 -11c-78.667 0 -148.333 15.498 -209 46.498s-108.334 75.833 -143.001 134.5s-52 127.334 -52 206.001c0 74.667 16.833 141.834 50.5 201.501s81.834 106.834 144.501 141.501s135 52 217 52c41.333 0 83.5 -5.5 126.5 -16.5s79.833 -25.833 110.5 -44.5l-25 -129
c-72.667 36 -142.667 54 -210 54c-49.333 0 -93.333 -10.333 -132 -31s-69 -50.334 -91 -89.001s-33 -84 -33 -136c0 -78 23.333 -139.833 70 -185.5s109.667 -68.5 189 -68.5c34.667 0 71.667 5 111 15s76.333 24 111 42l16 -132c-34 -19.333 -73 -34.333 -117 -45
s-88.667 -16 -134 -16zM387.001 -262.002c-15.333 0 -32.168 1.83496 -50.501 5.50195s-32.5 8.16699 -42.5 13.5l16 76c18.667 -9.33301 40.667 -14 66 -14c36 0 54 11 54 33c0 20.667 -18.333 31 -55 31c-17.333 0 -29.333 -1 -36 -3l36 130h84l-20 -65
c30.667 -2.66699 55.334 -12.834 74.001 -30.501s28 -39.834 28 -66.501c0 -35.333 -13.333 -62.5 -40 -81.5s-64.667 -28.5 -114 -28.5z" />
    <glyph glyph-name="Egrave" unicode="&#xc8;" horiz-adv-x="672" 
d="M91 760h502v-128h-354v-182h313v-127h-313v-195h368v-128h-516v760zM166 978h168l115 -143h-131z" />
    <glyph glyph-name="Eacute" unicode="&#xc9;" horiz-adv-x="672" 
d="M91 760h502v-128h-354v-182h313v-127h-313v-195h368v-128h-516v760zM361 978h168l-150 -143h-132z" />
    <glyph glyph-name="Ecircumflex" unicode="&#xca;" horiz-adv-x="672" 
d="M91 760h502v-128h-354v-182h313v-127h-313v-195h368v-128h-516v760zM281 986h136l142 -151h-139l-71 76l-71 -76h-139z" />
    <glyph glyph-name="Edieresis" unicode="&#xcb;" horiz-adv-x="672" 
d="M91 760h502v-128h-354v-182h313v-127h-313v-195h368v-128h-516v760zM238 833c-22 0 -39.667 6.5 -53 19.5s-20 29.833 -20 50.5s6.66699 37.667 20 51s31 20 53 20s39.833 -6.5 53.5 -19.5s20.5 -30.167 20.5 -51.5c0 -20.667 -7 -37.5 -21 -50.5
s-31.667 -19.5 -53 -19.5zM459 833c-21.333 0 -38.833 6.5 -52.5 19.5s-20.5 29.833 -20.5 50.5s6.83301 37.667 20.5 51s31.167 20 52.5 20c22 0 39.833 -6.5 53.5 -19.5s20.5 -30.167 20.5 -51.5c0 -20.667 -7 -37.5 -21 -50.5s-31.667 -19.5 -53 -19.5z" />
    <glyph glyph-name="Igrave" unicode="&#xcc;" horiz-adv-x="335" 
d="M91 760h153v-760h-153v760zM-15 978h168l115 -143h-131z" />
    <glyph glyph-name="Iacute" unicode="&#xcd;" horiz-adv-x="335" 
d="M91 760h153v-760h-153v760zM180 978h168l-150 -143h-132z" />
    <glyph glyph-name="Icircumflex" unicode="&#xce;" horiz-adv-x="335" 
d="M91 760h153v-760h-153v760zM100 986h136l142 -151h-139l-71 76l-71 -76h-139z" />
    <glyph glyph-name="Idieresis" unicode="&#xcf;" horiz-adv-x="335" 
d="M91 760h153v-760h-153v760zM57 833c-22 0 -39.667 6.5 -53 19.5s-20 29.833 -20 50.5s6.66699 37.667 20 51s31 20 53 20s39.833 -6.5 53.5 -19.5s20.5 -30.167 20.5 -51.5c0 -20.667 -7 -37.5 -21 -50.5s-31.667 -19.5 -53 -19.5zM278 833
c-21.333 0 -38.833 6.5 -52.5 19.5s-20.5 29.833 -20.5 50.5s6.83301 37.667 20.5 51s31.167 20 52.5 20c22 0 39.833 -6.5 53.5 -19.5s20.5 -30.167 20.5 -51.5c0 -20.667 -7 -37.5 -21 -50.5s-31.667 -19.5 -53 -19.5z" />
    <glyph glyph-name="Eth" unicode="&#xd0;" horiz-adv-x="859" 
d="M101 329l-91 0.000976562v107h91v324h291c132 0 234.5 -33.167 307.5 -99.5s109.5 -159.5 109.5 -279.5c0 -120.667 -37.5 -214.334 -112.5 -281.001s-180.167 -100 -315.5 -100h-280v329zM253 123.001h125c182 0 273 85.667 273 257s-90.667 257 -272 257h-126v-201h163
v-107h-163v-206z" />
    <glyph glyph-name="Ntilde" unicode="&#xd1;" horiz-adv-x="861" 
d="M91 760h136l398 -528v528h145v-760h-136l-398 526v-526h-145v760zM499 832c-18 0 -33.668 3 -47.001 9s-25 12.667 -35 20l-28.5 20c-9 6 -18.167 9 -27.5 9c-10.667 0 -18.5 -4.5 -23.5 -13.5s-7.5 -23.167 -7.5 -42.5h-95v7c1.33301 99.333 38.333 149 111 149
c18 0 33.667 -3 47 -9s25 -12.667 35 -20l28.5 -20c9 -6 18.167 -9 27.5 -9c10.667 0 18.334 4.33301 23.001 13s7 23 7 43h96v-7c-0.666992 -48.667 -10.5 -85.667 -29.5 -111s-46.167 -38 -81.5 -38z" />
    <glyph glyph-name="Ograve" unicode="&#xd2;" horiz-adv-x="903" 
d="M451 120c45.333 0 86.501 10.667 123.501 32s66.333 52 88 92s32.5 85.333 32.5 136c0 48 -10 91.667 -30 131s-48.667 70.666 -86 93.999s-80 35 -128 35c-45.333 0 -86.333 -10.667 -123 -32s-65.834 -51.833 -87.501 -91.5s-32.5 -85.167 -32.5 -136.5
c0 -48 10 -91.667 30 -131s48.5 -70.666 85.5 -93.999s79.5 -35 127.5 -35zM451.001 -16c-73.333 0 -140.331 16.5 -200.998 49.5s-109.167 79.667 -145.5 140s-54.5 129.166 -54.5 206.499c0 71.333 16.833 137 50.5 197s81.167 108.167 142.5 144.5
s130.666 54.5 207.999 54.5c74 0 141.333 -16.5 202 -49.5s109.167 -79.667 145.5 -140s54.5 -129.166 54.5 -206.499c0 -71.333 -16.833 -137 -50.5 -197s-81.334 -108.167 -143.001 -144.5s-131.167 -54.5 -208.5 -54.5zM268.003 978h168l115 -143h-131z" />
    <glyph glyph-name="Oacute" unicode="&#xd3;" horiz-adv-x="903" 
d="M451 120c45.333 0 86.501 10.667 123.501 32s66.333 52 88 92s32.5 85.333 32.5 136c0 48 -10 91.667 -30 131s-48.667 70.666 -86 93.999s-80 35 -128 35c-45.333 0 -86.333 -10.667 -123 -32s-65.834 -51.833 -87.501 -91.5s-32.5 -85.167 -32.5 -136.5
c0 -48 10 -91.667 30 -131s48.5 -70.666 85.5 -93.999s79.5 -35 127.5 -35zM451.001 -16c-73.333 0 -140.331 16.5 -200.998 49.5s-109.167 79.667 -145.5 140s-54.5 129.166 -54.5 206.499c0 71.333 16.833 137 50.5 197s81.167 108.167 142.5 144.5
s130.666 54.5 207.999 54.5c74 0 141.333 -16.5 202 -49.5s109.167 -79.667 145.5 -140s54.5 -129.166 54.5 -206.499c0 -71.333 -16.833 -137 -50.5 -197s-81.334 -108.167 -143.001 -144.5s-131.167 -54.5 -208.5 -54.5zM463.003 978h168l-150 -143h-132z" />
    <glyph glyph-name="Ocircumflex" unicode="&#xd4;" horiz-adv-x="903" 
d="M451 120c45.333 0 86.501 10.667 123.501 32s66.333 52 88 92s32.5 85.333 32.5 136c0 48 -10 91.667 -30 131s-48.667 70.666 -86 93.999s-80 35 -128 35c-45.333 0 -86.333 -10.667 -123 -32s-65.834 -51.833 -87.501 -91.5s-32.5 -85.167 -32.5 -136.5
c0 -48 10 -91.667 30 -131s48.5 -70.666 85.5 -93.999s79.5 -35 127.5 -35zM451.001 -16c-73.333 0 -140.331 16.5 -200.998 49.5s-109.167 79.667 -145.5 140s-54.5 129.166 -54.5 206.499c0 71.333 16.833 137 50.5 197s81.167 108.167 142.5 144.5
s130.666 54.5 207.999 54.5c74 0 141.333 -16.5 202 -49.5s109.167 -79.667 145.5 -140s54.5 -129.166 54.5 -206.499c0 -71.333 -16.833 -137 -50.5 -197s-81.334 -108.167 -143.001 -144.5s-131.167 -54.5 -208.5 -54.5zM383.003 986h136l142 -151h-139l-71 76l-71 -76
h-139z" />
    <glyph glyph-name="Otilde" unicode="&#xd5;" horiz-adv-x="903" 
d="M451 120c45.333 0 86.501 10.667 123.501 32s66.333 52 88 92s32.5 85.333 32.5 136c0 48 -10 91.667 -30 131s-48.667 70.666 -86 93.999s-80 35 -128 35c-45.333 0 -86.333 -10.667 -123 -32s-65.834 -51.833 -87.501 -91.5s-32.5 -85.167 -32.5 -136.5
c0 -48 10 -91.667 30 -131s48.5 -70.666 85.5 -93.999s79.5 -35 127.5 -35zM451.001 -16c-73.333 0 -140.331 16.5 -200.998 49.5s-109.167 79.667 -145.5 140s-54.5 129.166 -54.5 206.499c0 71.333 16.833 137 50.5 197s81.167 108.167 142.5 144.5
s130.666 54.5 207.999 54.5c74 0 141.333 -16.5 202 -49.5s109.167 -79.667 145.5 -140s54.5 -129.166 54.5 -206.499c0 -71.333 -16.833 -137 -50.5 -197s-81.334 -108.167 -143.001 -144.5s-131.167 -54.5 -208.5 -54.5zM528.003 832c-18 0 -33.668 3 -47.001 9
s-25 12.667 -35 20l-28.5 20c-9 6 -18.167 9 -27.5 9c-10.667 0 -18.5 -4.5 -23.5 -13.5s-7.5 -23.167 -7.5 -42.5h-95v7c1.33301 99.333 38.333 149 111 149c18 0 33.667 -3 47 -9s25 -12.667 35 -20l28.5 -20c9 -6 18.167 -9 27.5 -9c10.667 0 18.334 4.33301 23.001 13
s7 23 7 43h96v-7c-0.666992 -48.667 -10.5 -85.667 -29.5 -111s-46.167 -38 -81.5 -38z" />
    <glyph glyph-name="Odieresis" unicode="&#xd6;" horiz-adv-x="903" 
d="M451 120c45.333 0 86.501 10.667 123.501 32s66.333 52 88 92s32.5 85.333 32.5 136c0 48 -10 91.667 -30 131s-48.667 70.666 -86 93.999s-80 35 -128 35c-45.333 0 -86.333 -10.667 -123 -32s-65.834 -51.833 -87.501 -91.5s-32.5 -85.167 -32.5 -136.5
c0 -48 10 -91.667 30 -131s48.5 -70.666 85.5 -93.999s79.5 -35 127.5 -35zM451.001 -16c-73.333 0 -140.331 16.5 -200.998 49.5s-109.167 79.667 -145.5 140s-54.5 129.166 -54.5 206.499c0 71.333 16.833 137 50.5 197s81.167 108.167 142.5 144.5
s130.666 54.5 207.999 54.5c74 0 141.333 -16.5 202 -49.5s109.167 -79.667 145.5 -140s54.5 -129.166 54.5 -206.499c0 -71.333 -16.833 -137 -50.5 -197s-81.334 -108.167 -143.001 -144.5s-131.167 -54.5 -208.5 -54.5zM340.003 833c-22 0 -39.667 6.5 -53 19.5
s-20 29.833 -20 50.5s6.66699 37.667 20 51s31 20 53 20s39.833 -6.5 53.5 -19.5s20.5 -30.167 20.5 -51.5c0 -20.667 -7 -37.5 -21 -50.5s-31.667 -19.5 -53 -19.5zM561.003 833c-21.333 0 -38.833 6.5 -52.5 19.5s-20.5 29.833 -20.5 50.5s6.83301 37.667 20.5 51
s31.167 20 52.5 20c22 0 39.833 -6.5 53.5 -19.5s20.5 -30.167 20.5 -51.5c0 -20.667 -7 -37.5 -21 -50.5s-31.667 -19.5 -53 -19.5z" />
    <glyph glyph-name="multiply" unicode="&#xd7;" horiz-adv-x="620" 
d="M89 198l139 139l-139 139l83 82l139 -139l138 139l80 -79l-139 -139l140 -139l-83 -83l-140 139l-138 -138z" />
    <glyph glyph-name="Oslash" unicode="&#xd8;" horiz-adv-x="903" 
d="M451 -16c-46 0 -90.165 6.83301 -132.498 20.5s-81.166 33.5 -116.499 59.5l-86 -86l-70 70l85 85c-26.667 34 -46.834 72 -60.501 114s-20.5 86.333 -20.5 133c0 71.333 16.833 137 50.5 197s81.167 108.167 142.5 144.5s130.666 54.5 207.999 54.5
c46 0 90.167 -6.83301 132.5 -20.5s80.833 -33.167 115.5 -58.5l87 86l70 -69l-86 -86c26.667 -34 47.167 -72.167 61.5 -114.5s21.5 -86.833 21.5 -133.5c0 -71.333 -16.833 -137 -50.5 -197s-81.334 -108.167 -143.001 -144.5s-131.167 -54.5 -208.5 -54.5zM451.002 120
c45.333 0 86.499 10.668 123.499 32.001s66.333 52 88 92s32.5 85.333 32.5 136c0 51.333 -11.667 97.666 -35 138.999l-355 -353c40.667 -30.667 89.334 -46 146.001 -46zM208.001 380.001c0 -52.667 11.001 -98.667 33.001 -138l355 352c-42 30.667 -90.333 46 -145 46
c-45.333 0 -86.333 -10.667 -123 -32s-65.834 -51.833 -87.501 -91.5s-32.5 -85.167 -32.5 -136.5z" />
    <glyph glyph-name="Ugrave" unicode="&#xd9;" horiz-adv-x="845" 
d="M421 -16c-106 0 -188.333 29.333 -247 88s-88 141.667 -88 249v439h153v-427c0 -142 61 -213 183 -213c122.667 0 184 71 184 213v427h153v-439c0 -107.333 -29.333 -190.333 -88 -249s-142 -88 -250 -88zM239 978h168l115 -143h-131z" />
    <glyph glyph-name="Uacute" unicode="&#xda;" horiz-adv-x="845" 
d="M421 -16c-106 0 -188.333 29.333 -247 88s-88 141.667 -88 249v439h153v-427c0 -142 61 -213 183 -213c122.667 0 184 71 184 213v427h153v-439c0 -107.333 -29.333 -190.333 -88 -249s-142 -88 -250 -88zM434 978h168l-150 -143h-132z" />
    <glyph glyph-name="Ucircumflex" unicode="&#xdb;" horiz-adv-x="845" 
d="M421 -16c-106 0 -188.333 29.333 -247 88s-88 141.667 -88 249v439h153v-427c0 -142 61 -213 183 -213c122.667 0 184 71 184 213v427h153v-439c0 -107.333 -29.333 -190.333 -88 -249s-142 -88 -250 -88zM354 986h136l142 -151h-139l-71 76l-71 -76h-139z" />
    <glyph glyph-name="Udieresis" unicode="&#xdc;" horiz-adv-x="845" 
d="M421 -16c-106 0 -188.333 29.333 -247 88s-88 141.667 -88 249v439h153v-427c0 -142 61 -213 183 -213c122.667 0 184 71 184 213v427h153v-439c0 -107.333 -29.333 -190.333 -88 -249s-142 -88 -250 -88zM311 833c-22 0 -39.667 6.5 -53 19.5s-20 29.833 -20 50.5
s6.66699 37.667 20 51s31 20 53 20s39.833 -6.5 53.5 -19.5s20.5 -30.167 20.5 -51.5c0 -20.667 -7 -37.5 -21 -50.5s-31.667 -19.5 -53 -19.5zM532 833c-21.333 0 -38.833 6.5 -52.5 19.5s-20.5 29.833 -20.5 50.5s6.83301 37.667 20.5 51s31.167 20 52.5 20
c22 0 39.833 -6.5 53.5 -19.5s20.5 -30.167 20.5 -51.5c0 -20.667 -7 -37.5 -21 -50.5s-31.667 -19.5 -53 -19.5z" />
    <glyph glyph-name="Yacute" unicode="&#xdd;" horiz-adv-x="733" 
d="M290 317l-279 443h170l188 -324l189 324h164l-280 -443v-317h-152v317zM378 978h168l-150 -143h-132z" />
    <glyph glyph-name="Thorn" unicode="&#xde;" horiz-adv-x="655" 
d="M91 760l144 0.000976562v-120h104c55.333 0 104 -10 146 -30s74.833 -48.667 98.5 -86s35.5 -81.333 35.5 -132c0 -76.667 -25.5 -137.834 -76.5 -183.501s-119.167 -68.5 -204.5 -68.5h-99v-140h-148v760zM239 263.001l79 0.000976562c50 0 88.167 11 114.5 33
s39.5 53.667 39.5 95s-13 72.666 -39 93.999s-64.333 32 -115 32h-79v-254z" />
    <glyph glyph-name="germandbls" unicode="&#xdf;" horiz-adv-x="672" 
d="M388 -16c-51.333 0 -95.001 9.99902 -131.001 29.999l15 113c12.667 -7.33301 28 -13.333 46 -18s35.333 -7 52 -7c36.667 0 66.167 11.667 88.5 35s33.5 54 33.5 92c0 39.333 -13.167 70.5 -39.5 93.5s-62.166 34.5 -107.499 34.5h-44v112h27c36 0 64.333 10.667 85 32
s31 50.333 31 87c0 33.333 -9.83301 59.833 -29.5 79.5s-46.5 29.5 -80.5 29.5c-38.667 0 -68.5 -14.167 -89.5 -42.5s-31.5 -68.833 -31.5 -121.5v-533h-139v541c0 86 23 153.167 69 201.5s110 72.5 192 72.5c48 0 90.667 -8.5 128 -25.5s66.5 -41.5 87.5 -73.5
s31.5 -69.667 31.5 -113c0 -38.667 -9.5 -73.667 -28.5 -105s-44.5 -53.666 -76.5 -66.999c47.333 -12 85.333 -37.333 114 -76s43 -83.667 43 -135c0 -46 -9.83301 -86.833 -29.5 -122.5s-48.167 -63.5 -85.5 -83.5s-81 -30 -131 -30z" />
    <glyph glyph-name="agrave" unicode="&#xe0;" horiz-adv-x="572" 
d="M224 -16c-55.333 0 -99.1689 14.334 -131.502 43.001s-48.5 67.667 -48.5 117c0 52 18.833 94 56.5 126s86.834 48 147.501 48c21.333 0 43.5 -2.16699 66.5 -6.5s43.167 -9.83301 60.5 -16.5c0 78 -43.333 117 -130 117c-56.667 0 -109.667 -18 -159 -54l-11 112
c22 16.667 50.333 30 85 40s69.334 15 104.001 15c78 0 137.833 -19.833 179.5 -59.5s62.5 -96.834 62.5 -171.501v-294h-125l-2 50c-36 -44 -87.667 -66 -155 -66zM254.997 83.001c36 0 64.5 10.667 85.5 32s32.5 51.333 34.5 90c-31.333 12.667 -65.333 19 -102 19
c-30.667 0 -54.5 -6.16699 -71.5 -18.5s-25.5 -29.833 -25.5 -52.5c0 -22 7 -39.167 21 -51.5s33.333 -18.5 58 -18.5zM104.997 777.001h154l106 -167h-119z" />
    <glyph glyph-name="aacute" unicode="&#xe1;" horiz-adv-x="572" 
d="M224 -16c-55.333 0 -99.1689 14.334 -131.502 43.001s-48.5 67.667 -48.5 117c0 52 18.833 94 56.5 126s86.834 48 147.501 48c21.333 0 43.5 -2.16699 66.5 -6.5s43.167 -9.83301 60.5 -16.5c0 78 -43.333 117 -130 117c-56.667 0 -109.667 -18 -159 -54l-11 112
c22 16.667 50.333 30 85 40s69.334 15 104.001 15c78 0 137.833 -19.833 179.5 -59.5s62.5 -96.834 62.5 -171.501v-294h-125l-2 50c-36 -44 -87.667 -66 -155 -66zM254.997 83.001c36 0 64.5 10.667 85.5 32s32.5 51.333 34.5 90c-31.333 12.667 -65.333 19 -102 19
c-30.667 0 -54.5 -6.16699 -71.5 -18.5s-25.5 -29.833 -25.5 -52.5c0 -22 7 -39.167 21 -51.5s33.333 -18.5 58 -18.5zM284.997 777.001h154l-140 -167h-119z" />
    <glyph glyph-name="acircumflex" unicode="&#xe2;" horiz-adv-x="572" 
d="M224 -16c-55.333 0 -99.1689 14.334 -131.502 43.001s-48.5 67.667 -48.5 117c0 52 18.833 94 56.5 126s86.834 48 147.501 48c21.333 0 43.5 -2.16699 66.5 -6.5s43.167 -9.83301 60.5 -16.5c0 78 -43.333 117 -130 117c-56.667 0 -109.667 -18 -159 -54l-11 112
c22 16.667 50.333 30 85 40s69.334 15 104.001 15c78 0 137.833 -19.833 179.5 -59.5s62.5 -96.834 62.5 -171.501v-294h-125l-2 50c-36 -44 -87.667 -66 -155 -66zM254.997 83.001c36 0 64.5 10.667 85.5 32s32.5 51.333 34.5 90c-31.333 12.667 -65.333 19 -102 19
c-30.667 0 -54.5 -6.16699 -71.5 -18.5s-25.5 -29.833 -25.5 -52.5c0 -22 7 -39.167 21 -51.5s33.333 -18.5 58 -18.5zM211.997 777.001h120l138 -167h-124l-74 89l-74 -89h-124z" />
    <glyph glyph-name="atilde" unicode="&#xe3;" horiz-adv-x="572" 
d="M224 -16c-55.333 0 -99.1689 14.334 -131.502 43.001s-48.5 67.667 -48.5 117c0 52 18.833 94 56.5 126s86.834 48 147.501 48c21.333 0 43.5 -2.16699 66.5 -6.5s43.167 -9.83301 60.5 -16.5c0 78 -43.333 117 -130 117c-56.667 0 -109.667 -18 -159 -54l-11 112
c22 16.667 50.333 30 85 40s69.334 15 104.001 15c78 0 137.833 -19.833 179.5 -59.5s62.5 -96.834 62.5 -171.501v-294h-125l-2 50c-36 -44 -87.667 -66 -155 -66zM254.997 83.001c36 0 64.5 10.667 85.5 32s32.5 51.333 34.5 90c-31.333 12.667 -65.333 19 -102 19
c-30.667 0 -54.5 -6.16699 -71.5 -18.5s-25.5 -29.833 -25.5 -52.5c0 -22 7 -39.167 21 -51.5s33.333 -18.5 58 -18.5zM351.997 613.001c-19.333 0 -35.832 3 -49.499 9s-25.667 12.667 -36 20l-28.5 20c-8.66699 6 -18 9 -28 9c-11.333 0 -19.333 -4.5 -24 -13.5
s-7 -23.167 -7 -42.5h-93v10c1.33301 46 11.166 81.5 29.499 106.5s44.166 37.5 77.499 37.5c19.333 0 35.833 -3 49.5 -9s25.667 -12.667 36 -20l28.5 -20c8.66699 -6 18 -9 28 -9c11.333 0 19.333 4.5 24 13.5s7 23.167 7 42.5h92v-10
c-0.666992 -46 -10.167 -81.5 -28.5 -106.5s-44.166 -37.5 -77.499 -37.5z" />
    <glyph glyph-name="adieresis" unicode="&#xe4;" horiz-adv-x="572" 
d="M224 -16c-55.333 0 -99.1689 14.334 -131.502 43.001s-48.5 67.667 -48.5 117c0 52 18.833 94 56.5 126s86.834 48 147.501 48c21.333 0 43.5 -2.16699 66.5 -6.5s43.167 -9.83301 60.5 -16.5c0 78 -43.333 117 -130 117c-56.667 0 -109.667 -18 -159 -54l-11 112
c22 16.667 50.333 30 85 40s69.334 15 104.001 15c78 0 137.833 -19.833 179.5 -59.5s62.5 -96.834 62.5 -171.501v-294h-125l-2 50c-36 -44 -87.667 -66 -155 -66zM254.997 83.001c36 0 64.5 10.667 85.5 32s32.5 51.333 34.5 90c-31.333 12.667 -65.333 19 -102 19
c-30.667 0 -54.5 -6.16699 -71.5 -18.5s-25.5 -29.833 -25.5 -52.5c0 -22 7 -39.167 21 -51.5s33.333 -18.5 58 -18.5zM162.997 616.001c-22 0 -39.501 6.5 -52.501 19.5s-19.5 29.833 -19.5 50.5c0 20 6.83301 36.5 20.5 49.5s30.834 19.5 51.501 19.5
c21.333 0 38.666 -6.5 51.999 -19.5s20 -29.5 20 -49.5c0 -20.667 -6.66699 -37.5 -20 -50.5s-30.666 -19.5 -51.999 -19.5zM380.996 616.001c-22 0 -39.501 6.5 -52.501 19.5s-19.5 29.833 -19.5 50.5c0 20 6.83301 36.5 20.5 49.5s30.834 19.5 51.501 19.5
c21.333 0 38.666 -6.5 51.999 -19.5s20 -29.5 20 -49.5c0 -20.667 -6.66699 -37.5 -20 -50.5s-30.666 -19.5 -51.999 -19.5z" />
    <glyph glyph-name="aring" unicode="&#xe5;" horiz-adv-x="572" 
d="M224 -16c-55.333 0 -99.1689 14.334 -131.502 43.001s-48.5 67.667 -48.5 117c0 52 18.833 94 56.5 126s86.834 48 147.501 48c21.333 0 43.5 -2.16699 66.5 -6.5s43.167 -9.83301 60.5 -16.5c0 78 -43.333 117 -130 117c-56.667 0 -109.667 -18 -159 -54l-11 112
c22 16.667 50.333 30 85 40s69.334 15 104.001 15c78 0 137.833 -19.833 179.5 -59.5s62.5 -96.834 62.5 -171.501v-294h-125l-2 50c-36 -44 -87.667 -66 -155 -66zM254.997 83.001c36 0 64.5 10.667 85.5 32s32.5 51.333 34.5 90c-31.333 12.667 -65.333 19 -102 19
c-30.667 0 -54.5 -6.16699 -71.5 -18.5s-25.5 -29.833 -25.5 -52.5c0 -22 7 -39.167 21 -51.5s33.333 -18.5 58 -18.5zM271.997 579.001c-40.667 0 -74.334 12.667 -101.001 38s-40 57 -40 95s13.333 69.667 40 95s60.334 38 101.001 38s74.334 -12.667 101.001 -38
s40 -57 40 -95s-13.333 -69.667 -40 -95s-60.334 -38 -101.001 -38zM271.997 654.001c18 0 32.167 5.33301 42.5 16s15.5 24.667 15.5 42c0 18 -5.16699 32.167 -15.5 42.5s-24.5 15.5 -42.5 15.5s-32.167 -5.16699 -42.5 -15.5s-15.5 -24.5 -15.5 -42.5
c0 -17.333 5.16699 -31.333 15.5 -42s24.5 -16 42.5 -16z" />
    <glyph glyph-name="ae" unicode="&#xe6;" horiz-adv-x="922" 
d="M224 -16c-55.333 0 -99.1699 14.332 -131.503 42.999s-48.5 67.667 -48.5 117c0 52 18.833 94 56.5 126s86.834 48 147.501 48c21.333 0 43.5 -2.16699 66.5 -6.5s43.167 -9.83301 60.5 -16.5c0 78 -43.333 117 -130 117c-56.667 0 -109.667 -18 -159 -54l-11 112
c22 16.667 50.333 30 85 40s69.334 15 104.001 15c82 0 141.667 -24.333 179 -73c23.333 23.333 50.833 41.333 82.5 54s65.834 19 102.501 19c48 0 90.167 -10.167 126.5 -30.5s64.666 -49.5 84.999 -87.5s30.5 -83 30.5 -135c0 -22 -1.66699 -42 -5 -60h-359
c17.333 -76 75 -114 173 -114c30.667 0 60.5 3.16699 89.5 9.5s55.167 15.5 78.5 27.5l14 -109c-24 -13.333 -53.333 -23.666 -88 -30.999s-71 -11 -109 -11c-52.667 0 -99.5 8.33301 -140.5 25s-74.5 41 -100.5 73c-39.333 -65.333 -105.666 -98 -198.999 -98z
M254.996 82.999c36 0 64.5 10.667 85.5 32s32.5 51.333 34.5 90c-31.333 12.667 -65.333 19 -102 19c-30.667 0 -54.5 -6.16699 -71.5 -18.5s-25.5 -29.833 -25.5 -52.5c0 -22 7 -39.167 21 -51.5s33.333 -18.5 58 -18.5zM736.996 308.999
c-3.33301 35.333 -14.832 62.5 -34.499 81.5s-45.834 28.5 -78.501 28.5c-32 0 -58.333 -9.5 -79 -28.5s-34 -46.167 -40 -81.5h232z" />
    <glyph glyph-name="ccedilla" unicode="&#xe7;" horiz-adv-x="541" 
d="M325 -13c-55.333 0 -104.166 10.667 -146.499 32s-75.166 52 -98.499 92s-35 87 -35 141c0 52 11.333 98.333 34 139s55.167 72.667 97.5 96s91.5 35 147.5 35c30 0 59.833 -3.33301 89.5 -10s54.5 -15.667 74.5 -27l-17 -118c-44.667 21.333 -89.334 32 -134.001 32
c-46.667 0 -83.834 -13 -111.501 -39s-41.5 -61 -41.5 -105c0 -45.333 14 -80.833 42 -106.5s66.333 -38.5 115 -38.5c42.667 0 89 10.333 139 31l14 -114c-21.333 -12.667 -47 -22.5 -77 -29.5s-60.667 -10.5 -92 -10.5zM278 -262
c-17.333 0 -35.8311 1.83496 -55.498 5.50195s-33.834 8.16699 -42.501 13.5l16 73c18.667 -9.33301 41.667 -14 69 -14c36.667 0 55 12 55 36c0 22 -19.333 33 -58 33c-14 0 -25.667 -0.666992 -35 -2l35 127h80l-20 -66c31.333 -2.66699 56.166 -12.834 74.499 -30.501
s27.5 -39.834 27.5 -66.501c0 -33.333 -13.167 -59.833 -39.5 -79.5s-61.833 -29.5 -106.5 -29.5z" />
    <glyph glyph-name="egrave" unicode="&#xe8;" horiz-adv-x="599" 
d="M341 -16c-59.333 0 -111.165 10.666 -155.498 31.999s-78.833 52.5 -103.5 93.5s-37 89.167 -37 144.5c0 51.333 10.667 97.5 32 138.5s51.666 73.333 90.999 97s85 35.5 137 35.5c48 0 90.167 -10.167 126.5 -30.5s64.666 -49.5 84.999 -87.5s30.5 -83 30.5 -135
c0 -22 -1.66699 -42 -5 -60h-359c17.333 -76 75 -114 173 -114c30.667 0 60.5 3.16699 89.5 9.5s55.167 15.5 78.5 27.5l14 -109c-24 -13.333 -53.333 -23.666 -88 -30.999s-71 -11 -109 -11zM414.001 308.999c-3.33301 35.333 -14.832 62.5 -34.499 81.5
s-45.834 28.5 -78.501 28.5c-32 0 -58.333 -9.5 -79 -28.5s-34 -46.167 -40 -81.5h232zM133.002 776.999h154l106 -167h-119z" />
    <glyph glyph-name="eacute" unicode="&#xe9;" horiz-adv-x="599" 
d="M341 -16c-59.333 0 -111.165 10.666 -155.498 31.999s-78.833 52.5 -103.5 93.5s-37 89.167 -37 144.5c0 51.333 10.667 97.5 32 138.5s51.666 73.333 90.999 97s85 35.5 137 35.5c48 0 90.167 -10.167 126.5 -30.5s64.666 -49.5 84.999 -87.5s30.5 -83 30.5 -135
c0 -22 -1.66699 -42 -5 -60h-359c17.333 -76 75 -114 173 -114c30.667 0 60.5 3.16699 89.5 9.5s55.167 15.5 78.5 27.5l14 -109c-24 -13.333 -53.333 -23.666 -88 -30.999s-71 -11 -109 -11zM414.001 308.999c-3.33301 35.333 -14.832 62.5 -34.499 81.5
s-45.834 28.5 -78.501 28.5c-32 0 -58.333 -9.5 -79 -28.5s-34 -46.167 -40 -81.5h232zM313.002 776.999h154l-140 -167h-119z" />
    <glyph glyph-name="ecircumflex" unicode="&#xea;" horiz-adv-x="599" 
d="M341 -16c-59.333 0 -111.165 10.666 -155.498 31.999s-78.833 52.5 -103.5 93.5s-37 89.167 -37 144.5c0 51.333 10.667 97.5 32 138.5s51.666 73.333 90.999 97s85 35.5 137 35.5c48 0 90.167 -10.167 126.5 -30.5s64.666 -49.5 84.999 -87.5s30.5 -83 30.5 -135
c0 -22 -1.66699 -42 -5 -60h-359c17.333 -76 75 -114 173 -114c30.667 0 60.5 3.16699 89.5 9.5s55.167 15.5 78.5 27.5l14 -109c-24 -13.333 -53.333 -23.666 -88 -30.999s-71 -11 -109 -11zM414.001 308.999c-3.33301 35.333 -14.832 62.5 -34.499 81.5
s-45.834 28.5 -78.501 28.5c-32 0 -58.333 -9.5 -79 -28.5s-34 -46.167 -40 -81.5h232zM240.002 776.999h120l138 -167h-124l-74 89l-74 -89h-124z" />
    <glyph glyph-name="edieresis" unicode="&#xeb;" horiz-adv-x="599" 
d="M341 -16c-59.333 0 -111.165 10.666 -155.498 31.999s-78.833 52.5 -103.5 93.5s-37 89.167 -37 144.5c0 51.333 10.667 97.5 32 138.5s51.666 73.333 90.999 97s85 35.5 137 35.5c48 0 90.167 -10.167 126.5 -30.5s64.666 -49.5 84.999 -87.5s30.5 -83 30.5 -135
c0 -22 -1.66699 -42 -5 -60h-359c17.333 -76 75 -114 173 -114c30.667 0 60.5 3.16699 89.5 9.5s55.167 15.5 78.5 27.5l14 -109c-24 -13.333 -53.333 -23.666 -88 -30.999s-71 -11 -109 -11zM414.001 308.999c-3.33301 35.333 -14.832 62.5 -34.499 81.5
s-45.834 28.5 -78.501 28.5c-32 0 -58.333 -9.5 -79 -28.5s-34 -46.167 -40 -81.5h232zM191.002 615.999c-22 0 -39.501 6.5 -52.501 19.5s-19.5 29.833 -19.5 50.5c0 20 6.83301 36.5 20.5 49.5s30.834 19.5 51.501 19.5c21.333 0 38.666 -6.5 51.999 -19.5
s20 -29.5 20 -49.5c0 -20.667 -6.66699 -37.5 -20 -50.5s-30.666 -19.5 -51.999 -19.5zM409.001 615.999c-22 0 -39.501 6.5 -52.501 19.5s-19.5 29.833 -19.5 50.5c0 20 6.83301 36.5 20.5 49.5s30.834 19.5 51.501 19.5c21.333 0 38.666 -6.5 51.999 -19.5
s20 -29.5 20 -49.5c0 -20.667 -6.66699 -37.5 -20 -50.5s-30.666 -19.5 -51.999 -19.5z" />
    <glyph glyph-name="igrave" unicode="&#xec;" horiz-adv-x="287" 
d="M74 509h139v-509h-139v509zM-24 777h154l106 -167h-119z" />
    <glyph glyph-name="iacute" unicode="&#xed;" horiz-adv-x="287" 
d="M74 509h139v-509h-139v509zM156 777h154l-140 -167h-119z" />
    <glyph glyph-name="icircumflex" unicode="&#xee;" horiz-adv-x="287" 
d="M74 509h139v-509h-139v509zM83 777h120l138 -167h-124l-74 89l-74 -89h-124z" />
    <glyph glyph-name="idieresis" unicode="&#xef;" horiz-adv-x="287" 
d="M74 509h139v-509h-139v509zM34 616c-22 0 -39.501 6.5 -52.501 19.5s-19.5 29.833 -19.5 50.5c0 20 6.83301 36.5 20.5 49.5s30.834 19.5 51.501 19.5c21.333 0 38.666 -6.5 51.999 -19.5s20 -29.5 20 -49.5c0 -20.667 -6.66699 -37.5 -20 -50.5
s-30.666 -19.5 -51.999 -19.5zM251.999 616c-22 0 -39.501 6.5 -52.501 19.5s-19.5 29.833 -19.5 50.5c0 20 6.83301 36.5 20.5 49.5s30.834 19.5 51.501 19.5c21.333 0 38.666 -6.5 51.999 -19.5s20 -29.5 20 -49.5c0 -20.667 -6.66699 -37.5 -20 -50.5
s-30.666 -19.5 -51.999 -19.5z" />
    <glyph glyph-name="eth" unicode="&#xf0;" horiz-adv-x="638" 
d="M316 -16c-38 0 -73.3291 5.99805 -105.996 17.998s-61.334 29.667 -86.001 53s-44 51.666 -58 84.999s-21 70.333 -21 111c0 47.333 10.667 91.5 32 132.5s51.333 74.167 90 99.5s81.667 38 129 38c21.333 0 42.166 -3.33301 62.499 -10s37.833 -16 52.5 -28
c-20.667 47.333 -49.334 94.666 -86.001 141.999l-162 -73l-35 79l137 63c-32.667 34 -72.334 69 -119.001 105l168 10c20 -15.333 43.333 -36.666 70 -63.999l118 53l35 -79l-95 -43c48.667 -63.333 85.5 -128.166 110.5 -194.499s37.5 -132.166 37.5 -197.499
c0 -93.333 -24.5 -166.666 -73.5 -219.999s-115.833 -80 -200.5 -80zM319.004 106.998c40 0 72.667 13.5 98 40.5s38 61.833 38 104.5s-12.667 77.667 -38 105s-58 41 -98 41s-72.667 -13.667 -98 -41s-38 -62.333 -38 -105s12.667 -77.5 38 -104.5s58 -40.5 98 -40.5z" />
    <glyph glyph-name="ntilde" unicode="&#xf1;" horiz-adv-x="619" 
d="M74 509h134l1 -63c14.667 25.333 35.167 44.833 61.5 58.5s57.166 20.5 92.499 20.5c60 0 105.833 -18.5 137.5 -55.5s47.5 -90.5 47.5 -160.5v-309h-139v283c0 79.333 -30.333 119 -91 119c-33.333 0 -59.166 -11.167 -77.499 -33.5s-27.5 -53.833 -27.5 -94.5v-274
h-139v509zM392 613c-19.333 0 -35.832 3 -49.499 9s-25.667 12.667 -36 20l-28.5 20c-8.66699 6 -18 9 -28 9c-11.333 0 -19.333 -4.5 -24 -13.5s-7 -23.167 -7 -42.5h-93v10c1.33301 46 11.166 81.5 29.499 106.5s44.166 37.5 77.499 37.5c19.333 0 35.833 -3 49.5 -9
s25.667 -12.667 36 -20l28.5 -20c8.66699 -6 18 -9 28 -9c11.333 0 19.333 4.5 24 13.5s7 23.167 7 42.5h92v-10c-0.666992 -46 -10.167 -81.5 -28.5 -106.5s-44.166 -37.5 -77.499 -37.5z" />
    <glyph glyph-name="ograve" unicode="&#xf2;" horiz-adv-x="638" 
d="M319 -16c-50 0 -95.833 11.332 -137.5 33.999s-74.834 54.667 -99.501 96s-37 88.333 -37 141c0 48.667 11.5 93.5 34.5 134.5s55.5 73.833 97.5 98.5s89.333 37 142 37c50 0 95.833 -11.167 137.5 -33.5s74.834 -54.166 99.501 -95.499s37 -88.333 37 -141
c0 -49.333 -11.5 -94.5 -34.5 -135.5s-55.5 -73.833 -97.5 -98.5s-89.333 -37 -142 -37zM319 107.999c39.333 0 71.668 13.667 97.001 41s38 62.666 38 105.999c0 42.667 -12.5 77.667 -37.5 105s-57.5 41 -97.5 41s-72.5 -13.667 -97.5 -41s-37.5 -62.333 -37.5 -105
c0 -43.333 12.667 -78.666 38 -105.999s57.666 -41 96.999 -41zM152.002 776.999h154l106 -167h-119z" />
    <glyph glyph-name="oacute" unicode="&#xf3;" horiz-adv-x="638" 
d="M319 -16c-50 0 -95.833 11.332 -137.5 33.999s-74.834 54.667 -99.501 96s-37 88.333 -37 141c0 48.667 11.5 93.5 34.5 134.5s55.5 73.833 97.5 98.5s89.333 37 142 37c50 0 95.833 -11.167 137.5 -33.5s74.834 -54.166 99.501 -95.499s37 -88.333 37 -141
c0 -49.333 -11.5 -94.5 -34.5 -135.5s-55.5 -73.833 -97.5 -98.5s-89.333 -37 -142 -37zM319 107.999c39.333 0 71.668 13.667 97.001 41s38 62.666 38 105.999c0 42.667 -12.5 77.667 -37.5 105s-57.5 41 -97.5 41s-72.5 -13.667 -97.5 -41s-37.5 -62.333 -37.5 -105
c0 -43.333 12.667 -78.666 38 -105.999s57.666 -41 96.999 -41zM332.002 776.999h154l-140 -167h-119z" />
    <glyph glyph-name="ocircumflex" unicode="&#xf4;" horiz-adv-x="638" 
d="M319 -16c-50 0 -95.833 11.332 -137.5 33.999s-74.834 54.667 -99.501 96s-37 88.333 -37 141c0 48.667 11.5 93.5 34.5 134.5s55.5 73.833 97.5 98.5s89.333 37 142 37c50 0 95.833 -11.167 137.5 -33.5s74.834 -54.166 99.501 -95.499s37 -88.333 37 -141
c0 -49.333 -11.5 -94.5 -34.5 -135.5s-55.5 -73.833 -97.5 -98.5s-89.333 -37 -142 -37zM319 107.999c39.333 0 71.668 13.667 97.001 41s38 62.666 38 105.999c0 42.667 -12.5 77.667 -37.5 105s-57.5 41 -97.5 41s-72.5 -13.667 -97.5 -41s-37.5 -62.333 -37.5 -105
c0 -43.333 12.667 -78.666 38 -105.999s57.666 -41 96.999 -41zM259.002 776.999h120l138 -167h-124l-74 89l-74 -89h-124z" />
    <glyph glyph-name="otilde" unicode="&#xf5;" horiz-adv-x="638" 
d="M319 -16c-50 0 -95.833 11.332 -137.5 33.999s-74.834 54.667 -99.501 96s-37 88.333 -37 141c0 48.667 11.5 93.5 34.5 134.5s55.5 73.833 97.5 98.5s89.333 37 142 37c50 0 95.833 -11.167 137.5 -33.5s74.834 -54.166 99.501 -95.499s37 -88.333 37 -141
c0 -49.333 -11.5 -94.5 -34.5 -135.5s-55.5 -73.833 -97.5 -98.5s-89.333 -37 -142 -37zM319 107.999c39.333 0 71.668 13.667 97.001 41s38 62.666 38 105.999c0 42.667 -12.5 77.667 -37.5 105s-57.5 41 -97.5 41s-72.5 -13.667 -97.5 -41s-37.5 -62.333 -37.5 -105
c0 -43.333 12.667 -78.666 38 -105.999s57.666 -41 96.999 -41zM399.002 612.999c-19.333 0 -35.832 3 -49.499 9s-25.667 12.667 -36 20l-28.5 20c-8.66699 6 -18 9 -28 9c-11.333 0 -19.333 -4.5 -24 -13.5s-7 -23.167 -7 -42.5h-93v10
c1.33301 46 11.166 81.5 29.499 106.5s44.166 37.5 77.499 37.5c19.333 0 35.833 -3 49.5 -9s25.667 -12.667 36 -20l28.5 -20c8.66699 -6 18 -9 28 -9c11.333 0 19.333 4.5 24 13.5s7 23.167 7 42.5h92v-10c-0.666992 -46 -10.167 -81.5 -28.5 -106.5
s-44.166 -37.5 -77.499 -37.5z" />
    <glyph glyph-name="odieresis" unicode="&#xf6;" horiz-adv-x="638" 
d="M319 -16c-50 0 -95.833 11.332 -137.5 33.999s-74.834 54.667 -99.501 96s-37 88.333 -37 141c0 48.667 11.5 93.5 34.5 134.5s55.5 73.833 97.5 98.5s89.333 37 142 37c50 0 95.833 -11.167 137.5 -33.5s74.834 -54.166 99.501 -95.499s37 -88.333 37 -141
c0 -49.333 -11.5 -94.5 -34.5 -135.5s-55.5 -73.833 -97.5 -98.5s-89.333 -37 -142 -37zM319 107.999c39.333 0 71.668 13.667 97.001 41s38 62.666 38 105.999c0 42.667 -12.5 77.667 -37.5 105s-57.5 41 -97.5 41s-72.5 -13.667 -97.5 -41s-37.5 -62.333 -37.5 -105
c0 -43.333 12.667 -78.666 38 -105.999s57.666 -41 96.999 -41zM210.002 615.999c-22 0 -39.501 6.5 -52.501 19.5s-19.5 29.833 -19.5 50.5c0 20 6.83301 36.5 20.5 49.5s30.834 19.5 51.501 19.5c21.333 0 38.666 -6.5 51.999 -19.5s20 -29.5 20 -49.5
c0 -20.667 -6.66699 -37.5 -20 -50.5s-30.666 -19.5 -51.999 -19.5zM428.001 615.999c-22 0 -39.501 6.5 -52.501 19.5s-19.5 29.833 -19.5 50.5c0 20 6.83301 36.5 20.5 49.5s30.834 19.5 51.501 19.5c21.333 0 38.666 -6.5 51.999 -19.5s20 -29.5 20 -49.5
c0 -20.667 -6.66699 -37.5 -20 -50.5s-30.666 -19.5 -51.999 -19.5z" />
    <glyph glyph-name="divide" unicode="&#xf7;" horiz-adv-x="620" 
d="M76 391h469v-112h-469v112zM310 71c-22 0 -39.833 6.66699 -53.5 20s-20.5 30.333 -20.5 51c0 20 7 36.833 21 50.5s31.667 20.5 53 20.5c20.667 0 38 -6.83301 52 -20.5s21 -30.5 21 -50.5c0 -20.667 -6.83301 -37.667 -20.5 -51s-31.167 -20 -52.5 -20zM310 457
c-22 0 -39.833 6.66699 -53.5 20s-20.5 30.333 -20.5 51c0 20 7 36.833 21 50.5s31.667 20.5 53 20.5c20.667 0 38 -6.83301 52 -20.5s21 -30.5 21 -50.5c0 -20.667 -6.83301 -37.667 -20.5 -51s-31.167 -20 -52.5 -20z" />
    <glyph glyph-name="oslash" unicode="&#xf8;" horiz-adv-x="638" 
d="M319 -16c-62 0 -116 16 -162 48l-56 -56l-61 60l56 56c-34 46.667 -51 101 -51 163c0 48.667 11.5 93.5 34.5 134.5s55.5 73.833 97.5 98.5s89.333 37 142 37c60 0 114 -16.333 162 -49l56 56l61 -60l-56 -56c34 -47.333 51 -101 51 -161
c0 -49.333 -11.5 -94.5 -34.5 -135.5s-55.5 -73.833 -97.5 -98.5s-89.333 -37 -142 -37zM394 390c-21.333 13.333 -46.333 20 -75 20c-42 0 -76.333 -14.333 -103 -43s-40 -66 -40 -112c0 -28.667 4.33301 -52 13 -70zM319 99c42.667 0 77.167 14.5 103.5 43.5
s39.5 66.5 39.5 112.5c0 26.667 -4.33301 49.667 -13 69l-205 -205c21.333 -13.333 46.333 -20 75 -20z" />
    <glyph glyph-name="ugrave" unicode="&#xf9;" horiz-adv-x="618" 
d="M256 -16c-60 0 -105.833 18.499 -137.5 55.499s-47.5 90.5 -47.5 160.5v309h139v-283c0 -79.333 30.333 -119 91 -119c33.333 0 59 11.167 77 33.5s27 53.833 27 94.5v274h139v-509h-134l-1 62c-14.667 -25.333 -35.167 -44.666 -61.5 -57.999s-56.833 -20 -91.5 -20z
M138 776.999h154l106 -167h-119z" />
    <glyph glyph-name="uacute" unicode="&#xfa;" horiz-adv-x="618" 
d="M256 -16c-60 0 -105.833 18.499 -137.5 55.499s-47.5 90.5 -47.5 160.5v309h139v-283c0 -79.333 30.333 -119 91 -119c33.333 0 59 11.167 77 33.5s27 53.833 27 94.5v274h139v-509h-134l-1 62c-14.667 -25.333 -35.167 -44.666 -61.5 -57.999s-56.833 -20 -91.5 -20z
M318 776.999h154l-140 -167h-119z" />
    <glyph glyph-name="ucircumflex" unicode="&#xfb;" horiz-adv-x="618" 
d="M256 -16c-60 0 -105.833 18.499 -137.5 55.499s-47.5 90.5 -47.5 160.5v309h139v-283c0 -79.333 30.333 -119 91 -119c33.333 0 59 11.167 77 33.5s27 53.833 27 94.5v274h139v-509h-134l-1 62c-14.667 -25.333 -35.167 -44.666 -61.5 -57.999s-56.833 -20 -91.5 -20z
M245 776.999h120l138 -167h-124l-74 89l-74 -89h-124z" />
    <glyph glyph-name="udieresis" unicode="&#xfc;" horiz-adv-x="618" 
d="M256 -16c-60 0 -105.833 18.499 -137.5 55.499s-47.5 90.5 -47.5 160.5v309h139v-283c0 -79.333 30.333 -119 91 -119c33.333 0 59 11.167 77 33.5s27 53.833 27 94.5v274h139v-509h-134l-1 62c-14.667 -25.333 -35.167 -44.666 -61.5 -57.999s-56.833 -20 -91.5 -20z
M196 615.999c-22 0 -39.501 6.5 -52.501 19.5s-19.5 29.833 -19.5 50.5c0 20 6.83301 36.5 20.5 49.5s30.834 19.5 51.501 19.5c21.333 0 38.666 -6.5 51.999 -19.5s20 -29.5 20 -49.5c0 -20.667 -6.66699 -37.5 -20 -50.5s-30.666 -19.5 -51.999 -19.5zM413.999 615.999
c-22 0 -39.501 6.5 -52.501 19.5s-19.5 29.833 -19.5 50.5c0 20 6.83301 36.5 20.5 49.5s30.834 19.5 51.501 19.5c21.333 0 38.666 -6.5 51.999 -19.5s20 -29.5 20 -49.5c0 -20.667 -6.66699 -37.5 -20 -50.5s-30.666 -19.5 -51.999 -19.5z" />
    <glyph glyph-name="yacute" unicode="&#xfd;" horiz-adv-x="592" 
d="M115 -254c-20 0 -39.167 1.99902 -57.5 5.99902s-32.5 9.33301 -42.5 16l18 119c20 -10 42 -15 66 -15c25.333 0 45.833 7.83301 61.5 23.5s32.5 45.167 50.5 88.5l18 43l-213 482h151l135 -343l125 343h149l-223 -536c-24.667 -59.333 -48.5 -105.166 -71.5 -137.499
s-47.5 -55.333 -73.5 -69s-57 -20.5 -93 -20.5zM310 776.999h154l-140 -167h-119z" />
    <glyph glyph-name="thorn" unicode="&#xfe;" horiz-adv-x="659" 
d="M74 -245l-0.00292969 1055h139v-361c34.667 50.667 89.667 76 165 76c44.667 0 84.834 -11 120.501 -33s63.834 -53.5 84.501 -94.5s31 -88.167 31 -141.5c0 -49.333 -10.167 -94.5 -30.5 -135.5s-49.166 -74 -86.499 -99s-79.333 -37.5 -126 -37.5
c-34 0 -64.667 6.5 -92 19.5s-49.333 31.5 -66 55.5v-304h-139zM339.997 108c40 0 72.498 13.667 97.498 41s37.5 62.333 37.5 105c0 43.333 -12.667 78.666 -38 105.999s-57.666 41 -96.999 41s-71.666 -13.667 -96.999 -41s-38 -62.666 -38 -105.999
c0 -42.667 12.5 -77.667 37.5 -105s57.5 -41 97.5 -41z" />
    <glyph glyph-name="ydieresis" unicode="&#xff;" horiz-adv-x="592" 
d="M115 -254c-20 0 -39.167 1.99902 -57.5 5.99902s-32.5 9.33301 -42.5 16l18 119c20 -10 42 -15 66 -15c25.333 0 45.833 7.83301 61.5 23.5s32.5 45.167 50.5 88.5l18 43l-213 482h151l135 -343l125 343h149l-223 -536c-24.667 -59.333 -48.5 -105.166 -71.5 -137.499
s-47.5 -55.333 -73.5 -69s-57 -20.5 -93 -20.5zM188 615.999c-22 0 -39.501 6.5 -52.501 19.5s-19.5 29.833 -19.5 50.5c0 20 6.83301 36.5 20.5 49.5s30.834 19.5 51.501 19.5c21.333 0 38.666 -6.5 51.999 -19.5s20 -29.5 20 -49.5c0 -20.667 -6.66699 -37.5 -20 -50.5
s-30.666 -19.5 -51.999 -19.5zM405.999 615.999c-22 0 -39.501 6.5 -52.501 19.5s-19.5 29.833 -19.5 50.5c0 20 6.83301 36.5 20.5 49.5s30.834 19.5 51.501 19.5c21.333 0 38.666 -6.5 51.999 -19.5s20 -29.5 20 -49.5c0 -20.667 -6.66699 -37.5 -20 -50.5
s-30.666 -19.5 -51.999 -19.5z" />
    <glyph glyph-name="Amacron" unicode="&#x100;" horiz-adv-x="812" 
d="M325 760h162l302 -760h-162l-72 200h-306l-73 -200h-153zM513 318l-112 306l-111 -306h223zM243 947h327v-101h-327v101z" />
    <glyph glyph-name="amacron" unicode="&#x101;" horiz-adv-x="572" 
d="M224 -16c-55.333 0 -99.1689 14.334 -131.502 43.001s-48.5 67.667 -48.5 117c0 52 18.833 94 56.5 126s86.834 48 147.501 48c21.333 0 43.5 -2.16699 66.5 -6.5s43.167 -9.83301 60.5 -16.5c0 78 -43.333 117 -130 117c-56.667 0 -109.667 -18 -159 -54l-11 112
c22 16.667 50.333 30 85 40s69.334 15 104.001 15c78 0 137.833 -19.833 179.5 -59.5s62.5 -96.834 62.5 -171.501v-294h-125l-2 50c-36 -44 -87.667 -66 -155 -66zM254.997 83.001c36 0 64.5 10.667 85.5 32s32.5 51.333 34.5 90c-31.333 12.667 -65.333 19 -102 19
c-30.667 0 -54.5 -6.16699 -71.5 -18.5s-25.5 -29.833 -25.5 -52.5c0 -22 7 -39.167 21 -51.5s33.333 -18.5 58 -18.5zM109.997 731.001h324v-99h-324v99z" />
    <glyph glyph-name="Abreve" unicode="&#x102;" horiz-adv-x="812" 
d="M325 760h162l302 -760h-162l-72 200h-306l-73 -200h-153zM513 318l-112 306l-111 -306h223zM406 820c-55.333 0 -98.833 13.5 -130.5 40.5s-47.5 63.833 -47.5 110.5c0 4 0.333008 7.66699 1 11h100c0 -24 6.66699 -42.5 20 -55.5s32.333 -19.5 57 -19.5
s43.667 6.5 57 19.5s20 31.5 20 55.5h100c0.666992 -3.33301 1 -7 1 -11c0 -46.667 -15.833 -83.5 -47.5 -110.5s-75.167 -40.5 -130.5 -40.5z" />
    <glyph glyph-name="abreve" unicode="&#x103;" horiz-adv-x="572" 
d="M224 -16c-55.333 0 -99.1689 14.334 -131.502 43.001s-48.5 67.667 -48.5 117c0 52 18.833 94 56.5 126s86.834 48 147.501 48c21.333 0 43.5 -2.16699 66.5 -6.5s43.167 -9.83301 60.5 -16.5c0 78 -43.333 117 -130 117c-56.667 0 -109.667 -18 -159 -54l-11 112
c22 16.667 50.333 30 85 40s69.334 15 104.001 15c78 0 137.833 -19.833 179.5 -59.5s62.5 -96.834 62.5 -171.501v-294h-125l-2 50c-36 -44 -87.667 -66 -155 -66zM254.997 83.001c36 0 64.5 10.667 85.5 32s32.5 51.333 34.5 90c-31.333 12.667 -65.333 19 -102 19
c-30.667 0 -54.5 -6.16699 -71.5 -18.5s-25.5 -29.833 -25.5 -52.5c0 -22 7 -39.167 21 -51.5s33.333 -18.5 58 -18.5zM271.997 592.001c-53.333 0 -95.5 13.833 -126.5 41.5s-46.5 65.5 -46.5 113.5c0 4.66699 0.333008 9 1 13h95c0 -55.333 25.667 -83 77 -83
s77 27.667 77 83h95c0.666992 -4 1 -8.33301 1 -13c0 -48 -15.5 -85.833 -46.5 -113.5s-73.167 -41.5 -126.5 -41.5z" />
    <glyph glyph-name="Aogonek" unicode="&#x104;" horiz-adv-x="812" 
d="M325 760h162l302 -760h-162l-72 200h-306l-73 -200h-153zM513 318l-112 306l-111 -306h223zM710 -259c-39.333 0 -69.999 9.16699 -91.999 27.5s-33 43.833 -33 76.5c0 34.667 13.167 68.667 39.5 102s63.5 63 111.5 89l53 -36c-60.667 -45.333 -91 -86 -91 -122
c0 -22.667 13.667 -34 41 -34c16 0 32 4 48 12l9 -95c-9.33301 -6 -21.833 -10.833 -37.5 -14.5s-31.834 -5.5 -48.501 -5.5z" />
    <glyph glyph-name="aogonek" unicode="&#x105;" horiz-adv-x="572" 
d="M224 -16c-55.333 0 -99.1689 14.334 -131.502 43.001s-48.5 67.667 -48.5 117c0 52 18.833 94 56.5 126s86.834 48 147.501 48c21.333 0 43.5 -2.16699 66.5 -6.5s43.167 -9.83301 60.5 -16.5c0 78 -43.333 117 -130 117c-56.667 0 -109.667 -18 -159 -54l-11 112
c22 16.667 50.333 30 85 40s69.334 15 104.001 15c78 0 137.833 -19.833 179.5 -59.5s62.5 -96.834 62.5 -171.501v-294h-125l-2 50c-36 -44 -87.667 -66 -155 -66zM254.997 83.001c36 0 64.5 10.667 85.5 32s32.5 51.333 34.5 90c-31.333 12.667 -65.333 19 -102 19
c-30.667 0 -54.5 -6.16699 -71.5 -18.5s-25.5 -29.833 -25.5 -52.5c0 -22 7 -39.167 21 -51.5s33.333 -18.5 58 -18.5zM426.997 -258.999c-38.667 0 -68.999 9.16504 -90.999 27.498s-33 43.833 -33 76.5c0 34.667 13.333 68.834 40 102.501s63.667 63.167 111 88.5l52 -36
c-62.667 -45.333 -94 -86 -94 -122c0 -11.333 3.66699 -20.166 11 -26.499s17.666 -9.5 30.999 -9.5c20 0 37 3.66699 51 11l9 -92c-9.33301 -6 -22 -10.833 -38 -14.5s-32.333 -5.5 -49 -5.5z" />
    <glyph glyph-name="Cacute" unicode="&#x106;" horiz-adv-x="762" 
d="M454 -11c-78.667 0 -148.333 15.498 -209 46.498s-108.334 75.833 -143.001 134.5s-52 127.334 -52 206.001c0 74.667 16.833 141.834 50.5 201.501s81.834 106.834 144.501 141.501s135 52 217 52c41.333 0 83.5 -5.5 126.5 -16.5s79.833 -25.833 110.5 -44.5l-25 -129
c-72.667 36 -142.667 54 -210 54c-49.333 0 -93.333 -10.333 -132 -31s-69 -50.334 -91 -89.001s-33 -84 -33 -136c0 -78 23.333 -139.833 70 -185.5s109.667 -68.5 189 -68.5c34.667 0 71.667 5 111 15s76.333 24 111 42l16 -132c-34 -19.333 -73 -34.333 -117 -45
s-88.667 -16 -134 -16zM433.001 977.998h168l-150 -143h-132z" />
    <glyph glyph-name="cacute" unicode="&#x107;" horiz-adv-x="541" 
d="M325 -13c-55.333 0 -104.166 10.667 -146.499 32s-75.166 52 -98.499 92s-35 87 -35 141c0 52 11.333 98.333 34 139s55.167 72.667 97.5 96s91.5 35 147.5 35c30 0 59.833 -3.33301 89.5 -10s54.5 -15.667 74.5 -27l-17 -118c-44.667 21.333 -89.334 32 -134.001 32
c-46.667 0 -83.834 -13 -111.501 -39s-41.5 -61 -41.5 -105c0 -45.333 14 -80.833 42 -106.5s66.333 -38.5 115 -38.5c42.667 0 89 10.333 139 31l14 -114c-21.333 -12.667 -47 -22.5 -77 -29.5s-60.667 -10.5 -92 -10.5zM309 777h154l-140 -167h-119z" />
    <glyph glyph-name="Cdotaccent" unicode="&#x10a;" horiz-adv-x="762" 
d="M454 -11c-78.667 0 -148.333 15.498 -209 46.498s-108.334 75.833 -143.001 134.5s-52 127.334 -52 206.001c0 74.667 16.833 141.834 50.5 201.501s81.834 106.834 144.501 141.501s135 52 217 52c41.333 0 83.5 -5.5 126.5 -16.5s79.833 -25.833 110.5 -44.5l-25 -129
c-72.667 36 -142.667 54 -210 54c-49.333 0 -93.333 -10.333 -132 -31s-69 -50.334 -91 -89.001s-33 -84 -33 -136c0 -78 23.333 -139.833 70 -185.5s109.667 -68.5 189 -68.5c34.667 0 71.667 5 111 15s76.333 24 111 42l16 -132c-34 -19.333 -73 -34.333 -117 -45
s-88.667 -16 -134 -16zM421.001 828.998c-24.667 0 -44.5 7.33301 -59.5 22s-22.5 33.667 -22.5 57s7.66699 42.333 23 57s35 22 59 22c24.667 0 44.5 -7.33301 59.5 -22s22.5 -33.667 22.5 -57s-7.66699 -42.333 -23 -57s-35 -22 -59 -22z" />
    <glyph glyph-name="cdotaccent" unicode="&#x10b;" horiz-adv-x="541" 
d="M325 -13c-55.333 0 -104.166 10.667 -146.499 32s-75.166 52 -98.499 92s-35 87 -35 141c0 52 11.333 98.333 34 139s55.167 72.667 97.5 96s91.5 35 147.5 35c30 0 59.833 -3.33301 89.5 -10s54.5 -15.667 74.5 -27l-17 -118c-44.667 21.333 -89.334 32 -134.001 32
c-46.667 0 -83.834 -13 -111.501 -39s-41.5 -61 -41.5 -105c0 -45.333 14 -80.833 42 -106.5s66.333 -38.5 115 -38.5c42.667 0 89 10.333 139 31l14 -114c-21.333 -12.667 -47 -22.5 -77 -29.5s-60.667 -10.5 -92 -10.5zM296 613c-23.333 0 -42.166 7 -56.499 21
s-21.5 32.333 -21.5 55s7.16699 41 21.5 55s33.166 21 56.499 21s42.333 -7 57 -21s22 -32.333 22 -55s-7.33301 -41 -22 -55s-33.667 -21 -57 -21z" />
    <glyph glyph-name="Ccaron" unicode="&#x10c;" horiz-adv-x="762" 
d="M454 -11c-78.667 0 -148.333 15.498 -209 46.498s-108.334 75.833 -143.001 134.5s-52 127.334 -52 206.001c0 74.667 16.833 141.834 50.5 201.501s81.834 106.834 144.501 141.501s135 52 217 52c41.333 0 83.5 -5.5 126.5 -16.5s79.833 -25.833 110.5 -44.5l-25 -129
c-72.667 36 -142.667 54 -210 54c-49.333 0 -93.333 -10.333 -132 -31s-69 -50.334 -91 -89.001s-33 -84 -33 -136c0 -78 23.333 -139.833 70 -185.5s109.667 -68.5 189 -68.5c34.667 0 71.667 5 111 15s76.333 24 111 42l16 -132c-34 -19.333 -73 -34.333 -117 -45
s-88.667 -16 -134 -16zM211.001 985.998h139l71 -78l71 78h139l-142 -151h-136z" />
    <glyph glyph-name="ccaron" unicode="&#x10d;" horiz-adv-x="541" 
d="M325 -13c-55.333 0 -104.166 10.667 -146.499 32s-75.166 52 -98.499 92s-35 87 -35 141c0 52 11.333 98.333 34 139s55.167 72.667 97.5 96s91.5 35 147.5 35c30 0 59.833 -3.33301 89.5 -10s54.5 -15.667 74.5 -27l-17 -118c-44.667 21.333 -89.334 32 -134.001 32
c-46.667 0 -83.834 -13 -111.501 -39s-41.5 -61 -41.5 -105c0 -45.333 14 -80.833 42 -106.5s66.333 -38.5 115 -38.5c42.667 0 89 10.333 139 31l14 -114c-21.333 -12.667 -47 -22.5 -77 -29.5s-60.667 -10.5 -92 -10.5zM98 777h124l74 -90l74 90h124l-138 -167h-120z" />
    <glyph glyph-name="Dcaron" unicode="&#x10e;" horiz-adv-x="849" 
d="M91 760l291 0.000976562c132 0 234.5 -33.167 307.5 -99.5s109.5 -159.5 109.5 -279.5c0 -120.667 -37.5 -214.334 -112.5 -281.001s-180.167 -100 -315.5 -100h-280v760zM243 123.001h125c182 0 273 85.667 273 257s-90.667 257 -272 257h-126v-514zM186 986.001h139
l71 -78l71 78h139l-142 -151h-136z" />
    <glyph glyph-name="dcaron" unicode="&#x10f;" horiz-adv-x="659" 
d="M281 -16c-44.667 0 -84.832 11.001 -120.499 33.001s-63.834 53.5 -84.501 94.5s-31 88.167 -31 141.5c0 49.333 10.167 94.5 30.5 135.5s49.166 74 86.499 99s79.333 37.5 126 37.5c33.333 0 63.833 -6.66699 91.5 -20s49.834 -32 66.501 -56v361h139v-810h-133l-2 65
c-17.333 -26.667 -40.333 -46.834 -69 -60.501s-62 -20.5 -100 -20.5zM319.002 108.001c39.333 0 71.668 13.667 97.001 41s38 62.666 38 105.999c0 42.667 -12.5 77.667 -37.5 105s-57.5 41 -97.5 41s-72.5 -13.667 -97.5 -41s-37.5 -62.333 -37.5 -105
c0 -43.333 12.667 -78.666 38 -105.999s57.666 -41 96.999 -41zM662.004 810.001h133l-54 -239h-91z" />
    <glyph glyph-name="Dcroat" unicode="&#x110;" horiz-adv-x="859" 
d="M101 329l-91 0.000976562v107h91v324h291c132 0 234.5 -33.167 307.5 -99.5s109.5 -159.5 109.5 -279.5c0 -120.667 -37.5 -214.334 -112.5 -281.001s-180.167 -100 -315.5 -100h-280v329zM253 123.001h125c182 0 273 85.667 273 257s-90.667 257 -272 257h-126v-201h163
v-107h-163v-206z" />
    <glyph glyph-name="dcroat" unicode="&#x111;" horiz-adv-x="659" 
d="M281 -16c-44.667 0 -84.832 11.001 -120.499 33.001s-63.834 53.5 -84.501 94.5s-31 88.167 -31 141.5c0 49.333 10.167 94.5 30.5 135.5s49.166 74 86.499 99s79.333 37.5 126 37.5c33.333 0 63.833 -6.66699 91.5 -20s49.834 -32 66.501 -56v160h-150v90h150v111h139
v-111h79v-90h-79v-609h-133l-2 65c-17.333 -26.667 -40.333 -46.834 -69 -60.501s-62 -20.5 -100 -20.5zM319.002 108.001c39.333 0 71.668 13.667 97.001 41s38 62.666 38 105.999c0 42.667 -12.5 77.667 -37.5 105s-57.5 41 -97.5 41s-72.5 -13.667 -97.5 -41
s-37.5 -62.333 -37.5 -105c0 -43.333 12.667 -78.666 38 -105.999s57.666 -41 96.999 -41z" />
    <glyph glyph-name="Emacron" unicode="&#x112;" horiz-adv-x="672" 
d="M91 760h502v-128h-354v-182h313v-127h-313v-195h368v-128h-516v760zM186 947h327v-101h-327v101z" />
    <glyph glyph-name="emacron" unicode="&#x113;" horiz-adv-x="599" 
d="M341 -16c-59.333 0 -111.165 10.666 -155.498 31.999s-78.833 52.5 -103.5 93.5s-37 89.167 -37 144.5c0 51.333 10.667 97.5 32 138.5s51.666 73.333 90.999 97s85 35.5 137 35.5c48 0 90.167 -10.167 126.5 -30.5s64.666 -49.5 84.999 -87.5s30.5 -83 30.5 -135
c0 -22 -1.66699 -42 -5 -60h-359c17.333 -76 75 -114 173 -114c30.667 0 60.5 3.16699 89.5 9.5s55.167 15.5 78.5 27.5l14 -109c-24 -13.333 -53.333 -23.666 -88 -30.999s-71 -11 -109 -11zM414.001 308.999c-3.33301 35.333 -14.832 62.5 -34.499 81.5
s-45.834 28.5 -78.501 28.5c-32 0 -58.333 -9.5 -79 -28.5s-34 -46.167 -40 -81.5h232zM138.002 730.999h324v-99h-324v99z" />
    <glyph glyph-name="Edotaccent" unicode="&#x116;" horiz-adv-x="672" 
d="M91 760h502v-128h-354v-182h313v-127h-313v-195h368v-128h-516v760zM349 829c-24.667 0 -44.5 7.33301 -59.5 22s-22.5 33.667 -22.5 57s7.66699 42.333 23 57s35 22 59 22c24.667 0 44.5 -7.33301 59.5 -22s22.5 -33.667 22.5 -57s-7.66699 -42.333 -23 -57
s-35 -22 -59 -22z" />
    <glyph glyph-name="edotaccent" unicode="&#x117;" horiz-adv-x="599" 
d="M341 -16c-59.333 0 -111.165 10.666 -155.498 31.999s-78.833 52.5 -103.5 93.5s-37 89.167 -37 144.5c0 51.333 10.667 97.5 32 138.5s51.666 73.333 90.999 97s85 35.5 137 35.5c48 0 90.167 -10.167 126.5 -30.5s64.666 -49.5 84.999 -87.5s30.5 -83 30.5 -135
c0 -22 -1.66699 -42 -5 -60h-359c17.333 -76 75 -114 173 -114c30.667 0 60.5 3.16699 89.5 9.5s55.167 15.5 78.5 27.5l14 -109c-24 -13.333 -53.333 -23.666 -88 -30.999s-71 -11 -109 -11zM414.001 308.999c-3.33301 35.333 -14.832 62.5 -34.499 81.5
s-45.834 28.5 -78.501 28.5c-32 0 -58.333 -9.5 -79 -28.5s-34 -46.167 -40 -81.5h232zM300.002 612.999c-23.333 0 -42.166 7 -56.499 21s-21.5 32.333 -21.5 55s7.16699 41 21.5 55s33.166 21 56.499 21s42.333 -7 57 -21s22 -32.333 22 -55s-7.33301 -41 -22 -55
s-33.667 -21 -57 -21z" />
    <glyph glyph-name="Eogonek" unicode="&#x118;" horiz-adv-x="672" 
d="M91 760h502v-128h-354v-182h313v-127h-313v-195h368v-128h-516v760zM528 -259c-39.333 0 -69.999 9.16699 -91.999 27.5s-33 43.833 -33 76.5c0 34.667 13.167 68.667 39.5 102s63.5 63 111.5 89l53 -36c-60.667 -45.333 -91 -86 -91 -122c0 -22.667 13.667 -34 41 -34
c16 0 32 4 48 12l9 -95c-9.33301 -6 -21.833 -10.833 -37.5 -14.5s-31.834 -5.5 -48.501 -5.5z" />
    <glyph glyph-name="eogonek" unicode="&#x119;" horiz-adv-x="599" 
d="M341 -16c-59.333 0 -111.165 10.666 -155.498 31.999s-78.833 52.5 -103.5 93.5s-37 89.167 -37 144.5c0 51.333 10.667 97.5 32 138.5s51.666 73.333 90.999 97s85 35.5 137 35.5c48 0 90.167 -10.167 126.5 -30.5s64.666 -49.5 84.999 -87.5s30.5 -83 30.5 -135
c0 -22 -1.66699 -42 -5 -60h-359c17.333 -76 75 -114 173 -114c30.667 0 60.5 3.16699 89.5 9.5s55.167 15.5 78.5 27.5l14 -109c-24 -13.333 -53.333 -23.666 -88 -30.999s-71 -11 -109 -11zM414.001 308.999c-3.33301 35.333 -14.832 62.5 -34.499 81.5
s-45.834 28.5 -78.501 28.5c-32 0 -58.333 -9.5 -79 -28.5s-34 -46.167 -40 -81.5h232zM434.002 -259.001c-39.333 0 -70.001 9.00098 -92.001 27.001s-33 43.333 -33 76c0 37.333 14.167 73.166 42.5 107.499s66.5 61.5 114.5 81.5l72 -7
c-80 -54.667 -120 -103.667 -120 -147c0 -24.667 14.333 -37 43 -37c20.667 0 37.334 4 50.001 12l10 -93c-24.667 -13.333 -53.667 -20 -87 -20z" />
    <glyph glyph-name="Ecaron" unicode="&#x11a;" horiz-adv-x="672" 
d="M91 760h502v-128h-354v-182h313v-127h-313v-195h368v-128h-516v760zM139 986h139l71 -78l71 78h139l-142 -151h-136z" />
    <glyph glyph-name="ecaron" unicode="&#x11b;" horiz-adv-x="599" 
d="M341 -16c-59.333 0 -111.165 10.666 -155.498 31.999s-78.833 52.5 -103.5 93.5s-37 89.167 -37 144.5c0 51.333 10.667 97.5 32 138.5s51.666 73.333 90.999 97s85 35.5 137 35.5c48 0 90.167 -10.167 126.5 -30.5s64.666 -49.5 84.999 -87.5s30.5 -83 30.5 -135
c0 -22 -1.66699 -42 -5 -60h-359c17.333 -76 75 -114 173 -114c30.667 0 60.5 3.16699 89.5 9.5s55.167 15.5 78.5 27.5l14 -109c-24 -13.333 -53.333 -23.666 -88 -30.999s-71 -11 -109 -11zM414.001 308.999c-3.33301 35.333 -14.832 62.5 -34.499 81.5
s-45.834 28.5 -78.501 28.5c-32 0 -58.333 -9.5 -79 -28.5s-34 -46.167 -40 -81.5h232zM102.002 776.999h124l74 -90l74 90h124l-138 -167h-120z" />
    <glyph glyph-name="Gbreve" unicode="&#x11e;" horiz-adv-x="824" 
d="M464 -11c-81.333 0 -153.168 15.3311 -215.501 45.998s-111 75 -146 133s-52.5 126 -52.5 204s17.333 147 52 207s84.5 107 149.5 141s140.833 51 227.5 51c46 0 91.667 -5.16699 137 -15.5s86.333 -25.166 123 -44.499l-25 -132c-35.333 18 -73.833 31.833 -115.5 41.5
s-83.5 14.5 -125.5 14.5c-52 0 -98.167 -10.333 -138.5 -31s-71.833 -50.5 -94.5 -89.5s-34 -84.5 -34 -136.5c0 -79.333 23.833 -141.666 71.5 -186.999s112.834 -68 195.501 -68c43.333 0 90 6.33301 140 19v162h-152v122h294v-381c-86.667 -37.333 -183.667 -56 -291 -56
zM429.998 819.998c-55.333 0 -98.833 13.5 -130.5 40.5s-47.5 63.833 -47.5 110.5c0 4 0.333008 7.66699 1 11h100c0 -24 6.66699 -42.5 20 -55.5s32.333 -19.5 57 -19.5s43.667 6.5 57 19.5s20 31.5 20 55.5h100c0.666992 -3.33301 1 -7 1 -11
c0 -46.667 -15.833 -83.5 -47.5 -110.5s-75.167 -40.5 -130.5 -40.5z" />
    <glyph glyph-name="gbreve" unicode="&#x11f;" horiz-adv-x="592" 
d="M273 -254c-78 0 -138.666 12.8311 -181.999 38.498s-65 61.834 -65 108.501c0 29.333 7.33301 54.833 22 76.5s35.667 38.167 63 49.5c-17.333 8 -31 19.333 -41 34s-15 31.334 -15 50.001c0 42 24.333 76.333 73 103c-48 32.667 -72 79 -72 139
c0 54 20.667 97.5 62 130.5s95.666 49.5 162.999 49.5c42.667 0 80.334 -7 113.001 -21l179 12v-104l-84 6c15.333 -24.667 23 -51.334 23 -80.001c0 -33.333 -9 -63.166 -27 -89.499s-43.833 -47 -77.5 -62s-73.167 -22.5 -118.5 -22.5c-30 0 -54.667 2.33301 -74 7
c-12.667 -6.66699 -21.834 -13.5 -27.501 -20.5s-8.5 -15.167 -8.5 -24.5c0 -12 6.66699 -20.5 20 -25.5s36 -7.5 68 -7.5h40c82 0 142.833 -13.5 182.5 -40.5s59.5 -68.833 59.5 -125.5c0 -58 -24 -102.667 -72 -134s-116 -47 -204 -47zM287.001 -145.002
c40.667 0 71.667 5.5 93 16.5s32 27.167 32 48.5c0 20.667 -9 35.5 -27 44.5s-47.667 13.5 -89 13.5h-23c-39.333 0 -68 -5 -86 -15s-27 -25.667 -27 -47c0 -19.333 11 -34.333 33 -45s53.333 -16 94 -16zM284.001 263.998c30 0 53.667 7.16895 71 21.502
s26 34.166 26 59.499c0 24.667 -8.83301 44.167 -26.5 58.5s-41.167 21.5 -70.5 21.5s-52.666 -7.16699 -69.999 -21.5s-26 -33.833 -26 -58.5s8.66699 -44.334 26 -59.001s40.666 -22 69.999 -22zM300.001 592c-53.333 0 -95.5 13.833 -126.5 41.5s-46.5 65.5 -46.5 113.5
c0 4.66699 0.333008 9 1 13h95c0 -55.333 25.667 -83 77 -83s77 27.667 77 83h95c0.666992 -4 1 -8.33301 1 -13c0 -48 -15.5 -85.833 -46.5 -113.5s-73.167 -41.5 -126.5 -41.5z" />
    <glyph glyph-name="Gdotaccent" unicode="&#x120;" horiz-adv-x="824" 
d="M464 -11c-81.333 0 -153.168 15.3311 -215.501 45.998s-111 75 -146 133s-52.5 126 -52.5 204s17.333 147 52 207s84.5 107 149.5 141s140.833 51 227.5 51c46 0 91.667 -5.16699 137 -15.5s86.333 -25.166 123 -44.499l-25 -132c-35.333 18 -73.833 31.833 -115.5 41.5
s-83.5 14.5 -125.5 14.5c-52 0 -98.167 -10.333 -138.5 -31s-71.833 -50.5 -94.5 -89.5s-34 -84.5 -34 -136.5c0 -79.333 23.833 -141.666 71.5 -186.999s112.834 -68 195.501 -68c43.333 0 90 6.33301 140 19v162h-152v122h294v-381c-86.667 -37.333 -183.667 -56 -291 -56
zM429.998 828.998c-24.667 0 -44.5 7.33301 -59.5 22s-22.5 33.667 -22.5 57s7.66699 42.333 23 57s35 22 59 22c24.667 0 44.5 -7.33301 59.5 -22s22.5 -33.667 22.5 -57s-7.66699 -42.333 -23 -57s-35 -22 -59 -22z" />
    <glyph glyph-name="gdotaccent" unicode="&#x121;" horiz-adv-x="592" 
d="M273 -254c-78 0 -138.666 12.8311 -181.999 38.498s-65 61.834 -65 108.501c0 29.333 7.33301 54.833 22 76.5s35.667 38.167 63 49.5c-17.333 8 -31 19.333 -41 34s-15 31.334 -15 50.001c0 42 24.333 76.333 73 103c-48 32.667 -72 79 -72 139
c0 54 20.667 97.5 62 130.5s95.666 49.5 162.999 49.5c42.667 0 80.334 -7 113.001 -21l179 12v-104l-84 6c15.333 -24.667 23 -51.334 23 -80.001c0 -33.333 -9 -63.166 -27 -89.499s-43.833 -47 -77.5 -62s-73.167 -22.5 -118.5 -22.5c-30 0 -54.667 2.33301 -74 7
c-12.667 -6.66699 -21.834 -13.5 -27.501 -20.5s-8.5 -15.167 -8.5 -24.5c0 -12 6.66699 -20.5 20 -25.5s36 -7.5 68 -7.5h40c82 0 142.833 -13.5 182.5 -40.5s59.5 -68.833 59.5 -125.5c0 -58 -24 -102.667 -72 -134s-116 -47 -204 -47zM287.001 -145.002
c40.667 0 71.667 5.5 93 16.5s32 27.167 32 48.5c0 20.667 -9 35.5 -27 44.5s-47.667 13.5 -89 13.5h-23c-39.333 0 -68 -5 -86 -15s-27 -25.667 -27 -47c0 -19.333 11 -34.333 33 -45s53.333 -16 94 -16zM284.001 263.998c30 0 53.667 7.16895 71 21.502
s26 34.166 26 59.499c0 24.667 -8.83301 44.167 -26.5 58.5s-41.167 21.5 -70.5 21.5s-52.666 -7.16699 -69.999 -21.5s-26 -33.833 -26 -58.5s8.66699 -44.334 26 -59.001s40.666 -22 69.999 -22zM300.001 613c-23.333 0 -42.166 7 -56.499 21s-21.5 32.333 -21.5 55
s7.16699 41 21.5 55s33.166 21 56.499 21s42.333 -7 57 -21s22 -32.333 22 -55s-7.33301 -41 -22 -55s-33.667 -21 -57 -21z" />
    <glyph glyph-name="uni0122" unicode="&#x122;" horiz-adv-x="824" 
d="M464 -11c-81.333 0 -153.168 15.3311 -215.501 45.998s-111 75 -146 133s-52.5 126 -52.5 204s17.333 147 52 207s84.5 107 149.5 141s140.833 51 227.5 51c46 0 91.667 -5.16699 137 -15.5s86.333 -25.166 123 -44.499l-25 -132c-35.333 18 -73.833 31.833 -115.5 41.5
s-83.5 14.5 -125.5 14.5c-52 0 -98.167 -10.333 -138.5 -31s-71.833 -50.5 -94.5 -89.5s-34 -84.5 -34 -136.5c0 -79.333 23.833 -141.666 71.5 -186.999s112.834 -68 195.501 -68c43.333 0 90 6.33301 140 19v162h-152v122h294v-381c-86.667 -37.333 -183.667 -56 -291 -56
zM325.998 -247.002c12.667 24.667 22.833 53.499 30.5 86.499s11.5 65.5 11.5 97.5h130c-0.666992 -30.667 -7.5 -63.667 -20.5 -99s-28.833 -63.666 -47.5 -84.999h-104z" />
    <glyph glyph-name="uni0123" unicode="&#x123;" horiz-adv-x="592" 
d="M273 -254c-78 0 -138.666 12.8311 -181.999 38.498s-65 61.834 -65 108.501c0 29.333 7.33301 54.833 22 76.5s35.667 38.167 63 49.5c-17.333 8 -31 19.333 -41 34s-15 31.334 -15 50.001c0 42 24.333 76.333 73 103c-48 32.667 -72 79 -72 139
c0 54 20.667 97.5 62 130.5s95.666 49.5 162.999 49.5c42.667 0 80.334 -7 113.001 -21l179 12v-104l-84 6c15.333 -24.667 23 -51.334 23 -80.001c0 -33.333 -9 -63.166 -27 -89.499s-43.833 -47 -77.5 -62s-73.167 -22.5 -118.5 -22.5c-30 0 -54.667 2.33301 -74 7
c-12.667 -6.66699 -21.834 -13.5 -27.501 -20.5s-8.5 -15.167 -8.5 -24.5c0 -12 6.66699 -20.5 20 -25.5s36 -7.5 68 -7.5h40c82 0 142.833 -13.5 182.5 -40.5s59.5 -68.833 59.5 -125.5c0 -58 -24 -102.667 -72 -134s-116 -47 -204 -47zM287.001 -145.002
c40.667 0 71.667 5.5 93 16.5s32 27.167 32 48.5c0 20.667 -9 35.5 -27 44.5s-47.667 13.5 -89 13.5h-23c-39.333 0 -68 -5 -86 -15s-27 -25.667 -27 -47c0 -19.333 11 -34.333 33 -45s53.333 -16 94 -16zM284.001 263.998c30 0 53.667 7.16895 71 21.502
s26 34.166 26 59.499c0 24.667 -8.83301 44.167 -26.5 58.5s-41.167 21.5 -70.5 21.5s-52.666 -7.16699 -69.999 -21.5s-26 -33.833 -26 -58.5s8.66699 -44.334 26 -59.001s40.666 -22 69.999 -22zM224.001 610c0.666992 30.667 7.33301 61.833 20 93.5s28.667 58.5 48 80.5
h99c-26 -50.667 -39.333 -108.667 -40 -174h-127z" />
    <glyph glyph-name="Hbar" unicode="&#x126;" horiz-adv-x="887" 
d="M108 545h-91v101h91v114h153v-114h365v114h153v-114h91v-101h-91v-545h-153v318h-365v-318h-153v545zM626 444v101h-365v-101h365z" />
    <glyph glyph-name="hbar" unicode="&#x127;" horiz-adv-x="619" 
d="M74 609l-79.002 0.000976562v90h79v111h139v-111h150v-90h-150v-150c16 21.333 36.833 37.666 62.5 48.999s54.834 17 87.501 17c60 0 105.833 -18.5 137.5 -55.5s47.5 -90.5 47.5 -160.5v-309h-139v283c0 79.333 -30.333 119 -91 119
c-33.333 0 -59.166 -11.167 -77.499 -33.5s-27.5 -53.833 -27.5 -94.5v-274h-139v609z" />
    <glyph glyph-name="Itilde" unicode="&#x128;" horiz-adv-x="335" 
d="M91 760h153v-760h-153v760zM245 832c-18 0 -33.668 3 -47.001 9s-25 12.667 -35 20l-28.5 20c-9 6 -18.167 9 -27.5 9c-10.667 0 -18.5 -4.5 -23.5 -13.5s-7.5 -23.167 -7.5 -42.5h-95v7c1.33301 99.333 38.333 149 111 149c18 0 33.667 -3 47 -9s25 -12.667 35 -20
l28.5 -20c9 -6 18.167 -9 27.5 -9c10.667 0 18.334 4.33301 23.001 13s7 23 7 43h96v-7c-0.666992 -48.667 -10.5 -85.667 -29.5 -111s-46.167 -38 -81.5 -38z" />
    <glyph glyph-name="itilde" unicode="&#x129;" horiz-adv-x="287" 
d="M74 509h139v-509h-139v509zM223 613c-19.333 0 -35.832 3 -49.499 9s-25.667 12.667 -36 20l-28.5 20c-8.66699 6 -18 9 -28 9c-11.333 0 -19.333 -4.5 -24 -13.5s-7 -23.167 -7 -42.5h-93v10c1.33301 46 11.166 81.5 29.499 106.5s44.166 37.5 77.499 37.5
c19.333 0 35.833 -3 49.5 -9s25.667 -12.667 36 -20l28.5 -20c8.66699 -6 18 -9 28 -9c11.333 0 19.333 4.5 24 13.5s7 23.167 7 42.5h92v-10c-0.666992 -46 -10.167 -81.5 -28.5 -106.5s-44.166 -37.5 -77.499 -37.5z" />
    <glyph glyph-name="Imacron" unicode="&#x12a;" horiz-adv-x="335" 
d="M91 760h153v-760h-153v760zM5 947h327v-101h-327v101z" />
    <glyph glyph-name="imacron" unicode="&#x12b;" horiz-adv-x="287" 
d="M74 509h139v-509h-139v509zM-19 731h324v-99h-324v99z" />
    <glyph glyph-name="Iogonek" unicode="&#x12e;" horiz-adv-x="335" 
d="M91 760h153v-760h-153v760zM165 -259c-39.333 0 -69.999 9.16699 -91.999 27.5s-33 43.833 -33 76.5c0 34.667 13.167 68.667 39.5 102s63.5 63 111.5 89l53 -36c-60.667 -45.333 -91 -86 -91 -122c0 -22.667 13.667 -34 41 -34c16 0 32 4 48 12l9 -95
c-9.33301 -6 -21.833 -10.833 -37.5 -14.5s-31.834 -5.5 -48.501 -5.5z" />
    <glyph glyph-name="iogonek" unicode="&#x12f;" horiz-adv-x="287" 
d="M74 509h139v-509h-139v509zM143 613c-24 0 -43.833 7.83105 -59.5 23.498s-23.5 34.834 -23.5 57.501s7.83301 41.667 23.5 57s35.5 23 59.5 23s43.833 -7.66699 59.5 -23s23.5 -34.333 23.5 -57c0 -23.333 -7.83301 -42.666 -23.5 -57.999s-35.5 -23 -59.5 -23z
M134 -259.002c-38.667 0 -68.999 9.16504 -90.999 27.498s-33 43.833 -33 76.5c0 34.667 13.333 68.834 40 102.501s63.667 63.167 111 88.5l52 -36c-62.667 -45.333 -94 -86 -94 -122c0 -11.333 3.66699 -20.166 11 -26.499s17.666 -9.5 30.999 -9.5c20 0 37 3.66699 51 11
l9 -92c-9.33301 -6 -22 -10.833 -38 -14.5s-32.333 -5.5 -49 -5.5z" />
    <glyph glyph-name="Idotaccent" unicode="&#x130;" horiz-adv-x="335" 
d="M91 760h153v-760h-153v760zM168 829c-24.667 0 -44.5 7.33301 -59.5 22s-22.5 33.667 -22.5 57s7.66699 42.333 23 57s35 22 59 22c24.667 0 44.5 -7.33301 59.5 -22s22.5 -33.667 22.5 -57s-7.66699 -42.333 -23 -57s-35 -22 -59 -22z" />
    <glyph glyph-name="dotlessi" unicode="&#x131;" horiz-adv-x="287" 
d="M74 509h139v-509h-139v509z" />
    <glyph glyph-name="IJ" unicode="&#x132;" horiz-adv-x="901" 
d="M91 760h153v-760h-153v760zM553 -16c-34 0 -67.668 3.83301 -101.001 11.5s-60.666 18.167 -81.999 31.5l15 124c43.333 -25.333 91.333 -38 144 -38c47.333 0 81.333 12.667 102 38s31 67.333 31 126v483h153v-495c0 -94.667 -21.5 -165.167 -64.5 -211.5
s-108.833 -69.5 -197.5 -69.5z" />
    <glyph glyph-name="ij" unicode="&#x133;" horiz-adv-x="573" 
d="M74 509h139v-509h-139v509zM143 613c-24 0 -43.833 7.83105 -59.5 23.498s-23.5 34.834 -23.5 57.501s7.83301 41.667 23.5 57s35.5 23 59.5 23s43.833 -7.66699 59.5 -23s23.5 -34.333 23.5 -57c0 -23.333 -7.83301 -42.666 -23.5 -57.999s-35.5 -23 -59.5 -23z
M297 -254.002c-25.333 0 -48.667 2.16797 -70 6.50098s-38 10.166 -50 17.499l14 116c24 -12 51.667 -18 83 -18c29.333 0 51 8.33301 65 25s21 43 21 79v537h139v-544c0 -72 -17 -126.5 -51 -163.5s-84.333 -55.5 -151 -55.5zM428.999 612.999
c-24 0 -43.833 7.83105 -59.5 23.498s-23.5 34.834 -23.5 57.501s7.83301 41.667 23.5 57s35.5 23 59.5 23s43.833 -7.66699 59.5 -23s23.5 -34.333 23.5 -57c0 -23.333 -7.83301 -42.666 -23.5 -57.999s-35.5 -23 -59.5 -23z" />
    <glyph glyph-name="uni0136" unicode="&#x136;" horiz-adv-x="780" 
d="M91 760h152v-321l306 321h190l-356 -362l390 -398h-206l-324 339v-339h-152v760zM307 -247c12.667 24.667 22.833 53.499 30.5 86.499s11.5 65.5 11.5 97.5h130c-0.666992 -30.667 -7.5 -63.667 -20.5 -99s-28.833 -63.666 -47.5 -84.999h-104z" />
    <glyph glyph-name="uni0137" unicode="&#x137;" horiz-adv-x="609" 
d="M74 810h139v-491l183 190h172l-229 -228l266 -281h-179l-213 232v-232h-139v810zM204 -247c12.667 24.667 22.832 53.667 30.499 87s11.834 65.666 12.501 96.999h127c-0.666992 -30.667 -7.5 -63.667 -20.5 -99s-28.833 -63.666 -47.5 -84.999h-102z" />
    <glyph glyph-name="kgreenlandic" unicode="&#x138;" horiz-adv-x="610" 
d="M74 509h139v-201l186 201h169l-231 -237l269 -272h-184l-209 218v-218h-139v509z" />
    <glyph glyph-name="Lacute" unicode="&#x139;" horiz-adv-x="623" 
d="M91 760h153v-634h344v-126h-497v760zM180 978h168l-150 -143h-132z" />
    <glyph glyph-name="lacute" unicode="&#x13a;" horiz-adv-x="287" 
d="M74 810h139v-810h-139v810zM155 993h168l-150 -143h-132z" />
    <glyph glyph-name="uni013B" unicode="&#x13b;" horiz-adv-x="623" 
d="M91 760h153v-634h344v-126h-497v760zM235 -247c12.667 24.667 22.833 53.499 30.5 86.499s11.5 65.5 11.5 97.5h130c-0.666992 -30.667 -7.5 -63.667 -20.5 -99s-28.833 -63.666 -47.5 -84.999h-104z" />
    <glyph glyph-name="uni013C" unicode="&#x13c;" horiz-adv-x="287" 
d="M74 810h139v-810h-139v810zM43 -247c12.667 24.667 22.832 53.667 30.499 87s11.834 65.666 12.501 96.999h127c-0.666992 -30.667 -7.5 -63.667 -20.5 -99s-28.833 -63.666 -47.5 -84.999h-102z" />
    <glyph glyph-name="Lcaron" unicode="&#x13d;" horiz-adv-x="623" 
d="M91 760h153v-634h344v-126h-497v760zM345 810h133l-54 -239h-91z" />
    <glyph glyph-name="lcaron" unicode="&#x13e;" horiz-adv-x="287" 
d="M74 810h139v-810h-139v810zM290 810h133l-54 -239h-91z" />
    <glyph glyph-name="Lslash" unicode="&#x141;" horiz-adv-x="652" 
d="M120 240l-91 -56l-4 123l95 59v394h153v-300l190 118l4 -124l-194 -120v-208h344v-126h-497v240z" />
    <glyph glyph-name="lslash" unicode="&#x142;" horiz-adv-x="347" 
d="M104 295l-86 -42l-3 111l89 44v402h139v-333l86 42l3 -111l-89 -44v-364h-139v295z" />
    <glyph glyph-name="Nacute" unicode="&#x143;" horiz-adv-x="861" 
d="M91 760h136l398 -528v528h145v-760h-136l-398 526v-526h-145v760zM434 978h168l-150 -143h-132z" />
    <glyph glyph-name="nacute" unicode="&#x144;" horiz-adv-x="619" 
d="M74 509h134l1 -63c14.667 25.333 35.167 44.833 61.5 58.5s57.166 20.5 92.499 20.5c60 0 105.833 -18.5 137.5 -55.5s47.5 -90.5 47.5 -160.5v-309h-139v283c0 79.333 -30.333 119 -91 119c-33.333 0 -59.166 -11.167 -77.499 -33.5s-27.5 -53.833 -27.5 -94.5v-274
h-139v509zM325 777h154l-140 -167h-119z" />
    <glyph glyph-name="uni0145" unicode="&#x145;" horiz-adv-x="861" 
d="M91 760h136l398 -528v528h145v-760h-136l-398 526v-526h-145v760zM326 -247c12.667 24.667 22.833 53.499 30.5 86.499s11.5 65.5 11.5 97.5h130c-0.666992 -30.667 -7.5 -63.667 -20.5 -99s-28.833 -63.666 -47.5 -84.999h-104z" />
    <glyph glyph-name="uni0146" unicode="&#x146;" horiz-adv-x="619" 
d="M74 509h134l1 -63c14.667 25.333 35.167 44.833 61.5 58.5s57.166 20.5 92.499 20.5c60 0 105.833 -18.5 137.5 -55.5s47.5 -90.5 47.5 -160.5v-309h-139v283c0 79.333 -30.333 119 -91 119c-33.333 0 -59.166 -11.167 -77.499 -33.5s-27.5 -53.833 -27.5 -94.5v-274
h-139v509zM199 -247c12.667 24.667 22.832 53.667 30.499 87s11.834 65.666 12.501 96.999h127c-0.666992 -30.667 -7.5 -63.667 -20.5 -99s-28.833 -63.666 -47.5 -84.999h-102z" />
    <glyph glyph-name="Ncaron" unicode="&#x147;" horiz-adv-x="861" 
d="M91 760h136l398 -528v528h145v-760h-136l-398 526v-526h-145v760zM212 986h139l71 -78l71 78h139l-142 -151h-136z" />
    <glyph glyph-name="ncaron" unicode="&#x148;" horiz-adv-x="619" 
d="M74 509h134l1 -63c14.667 25.333 35.167 44.833 61.5 58.5s57.166 20.5 92.499 20.5c60 0 105.833 -18.5 137.5 -55.5s47.5 -90.5 47.5 -160.5v-309h-139v283c0 79.333 -30.333 119 -91 119c-33.333 0 -59.166 -11.167 -77.499 -33.5s-27.5 -53.833 -27.5 -94.5v-274
h-139v509zM114 777h124l74 -90l74 90h124l-138 -167h-120z" />
    <glyph glyph-name="Omacron" unicode="&#x14c;" horiz-adv-x="903" 
d="M451 120c45.333 0 86.501 10.667 123.501 32s66.333 52 88 92s32.5 85.333 32.5 136c0 48 -10 91.667 -30 131s-48.667 70.666 -86 93.999s-80 35 -128 35c-45.333 0 -86.333 -10.667 -123 -32s-65.834 -51.833 -87.501 -91.5s-32.5 -85.167 -32.5 -136.5
c0 -48 10 -91.667 30 -131s48.5 -70.666 85.5 -93.999s79.5 -35 127.5 -35zM451.001 -16c-73.333 0 -140.331 16.5 -200.998 49.5s-109.167 79.667 -145.5 140s-54.5 129.166 -54.5 206.499c0 71.333 16.833 137 50.5 197s81.167 108.167 142.5 144.5
s130.666 54.5 207.999 54.5c74 0 141.333 -16.5 202 -49.5s109.167 -79.667 145.5 -140s54.5 -129.166 54.5 -206.499c0 -71.333 -16.833 -137 -50.5 -197s-81.334 -108.167 -143.001 -144.5s-131.167 -54.5 -208.5 -54.5zM288.003 947h327v-101h-327v101z" />
    <glyph glyph-name="omacron" unicode="&#x14d;" horiz-adv-x="638" 
d="M319 -16c-50 0 -95.833 11.332 -137.5 33.999s-74.834 54.667 -99.501 96s-37 88.333 -37 141c0 48.667 11.5 93.5 34.5 134.5s55.5 73.833 97.5 98.5s89.333 37 142 37c50 0 95.833 -11.167 137.5 -33.5s74.834 -54.166 99.501 -95.499s37 -88.333 37 -141
c0 -49.333 -11.5 -94.5 -34.5 -135.5s-55.5 -73.833 -97.5 -98.5s-89.333 -37 -142 -37zM319 107.999c39.333 0 71.668 13.667 97.001 41s38 62.666 38 105.999c0 42.667 -12.5 77.667 -37.5 105s-57.5 41 -97.5 41s-72.5 -13.667 -97.5 -41s-37.5 -62.333 -37.5 -105
c0 -43.333 12.667 -78.666 38 -105.999s57.666 -41 96.999 -41zM157.002 730.999h324v-99h-324v99z" />
    <glyph glyph-name="Ohungarumlaut" unicode="&#x150;" horiz-adv-x="903" 
d="M451 120c45.333 0 86.501 10.667 123.501 32s66.333 52 88 92s32.5 85.333 32.5 136c0 48 -10 91.667 -30 131s-48.667 70.666 -86 93.999s-80 35 -128 35c-45.333 0 -86.333 -10.667 -123 -32s-65.834 -51.833 -87.501 -91.5s-32.5 -85.167 -32.5 -136.5
c0 -48 10 -91.667 30 -131s48.5 -70.666 85.5 -93.999s79.5 -35 127.5 -35zM451.001 -16c-73.333 0 -140.331 16.5 -200.998 49.5s-109.167 79.667 -145.5 140s-54.5 129.166 -54.5 206.499c0 71.333 16.833 137 50.5 197s81.167 108.167 142.5 144.5
s130.666 54.5 207.999 54.5c74 0 141.333 -16.5 202 -49.5s109.167 -79.667 145.5 -140s54.5 -129.166 54.5 -206.499c0 -71.333 -16.833 -137 -50.5 -197s-81.334 -108.167 -143.001 -144.5s-131.167 -54.5 -208.5 -54.5zM349.003 977h155l-114 -142h-127zM562.003 977h155
l-113 -142h-129z" />
    <glyph glyph-name="ohungarumlaut" unicode="&#x151;" horiz-adv-x="638" 
d="M319 -16c-50 0 -95.833 11.332 -137.5 33.999s-74.834 54.667 -99.501 96s-37 88.333 -37 141c0 48.667 11.5 93.5 34.5 134.5s55.5 73.833 97.5 98.5s89.333 37 142 37c50 0 95.833 -11.167 137.5 -33.5s74.834 -54.166 99.501 -95.499s37 -88.333 37 -141
c0 -49.333 -11.5 -94.5 -34.5 -135.5s-55.5 -73.833 -97.5 -98.5s-89.333 -37 -142 -37zM319 107.999c39.333 0 71.668 13.667 97.001 41s38 62.666 38 105.999c0 42.667 -12.5 77.667 -37.5 105s-57.5 41 -97.5 41s-72.5 -13.667 -97.5 -41s-37.5 -62.333 -37.5 -105
c0 -43.333 12.667 -78.666 38 -105.999s57.666 -41 96.999 -41zM238.002 776.999h139l-114 -167h-111zM430.002 776.999h138l-114 -167h-111z" />
    <glyph glyph-name="OE" unicode="&#x152;" horiz-adv-x="1264" 
d="M435 -16c-70 0 -134.165 16.498 -192.498 49.498s-105 79.833 -140 140.5s-52.5 129.334 -52.5 206.001c0 71.333 16.167 137 48.5 197s78.166 108.167 137.499 144.5s126 54.5 200 54.5c53.333 0 101.166 -9.16699 143.499 -27.5s76.833 -44.166 103.5 -77.499v89h502
v-128h-354v-182h313v-127h-313v-195h368v-128h-516v87c-28 -33.333 -63.167 -58.833 -105.5 -76.5s-89.833 -26.5 -142.5 -26.5zM452.002 119.998c45.333 0 86.501 10.667 123.501 32s66.333 52 88 92s32.5 85.333 32.5 136c0 48 -10 91.667 -30 131
s-48.667 70.666 -86 93.999s-80 35 -128 35c-45.333 0 -86.333 -10.667 -123 -32s-65.834 -51.833 -87.501 -91.5s-32.5 -85.167 -32.5 -136.5c0 -48 10 -91.667 30 -131s48.5 -70.666 85.5 -93.999s79.5 -35 127.5 -35z" />
    <glyph glyph-name="oe" unicode="&#x153;" horiz-adv-x="1007" 
d="M319 108c39.333 0 71.668 13.667 97.001 41s38 62.666 38 105.999c0 42.667 -12.5 77.667 -37.5 105s-57.5 41 -97.5 41s-72.5 -13.667 -97.5 -41s-37.5 -62.333 -37.5 -105c0 -43.333 12.667 -78.666 38 -105.999s57.666 -41 96.999 -41zM319.002 -16
c-50 0 -95.8291 11.332 -137.496 33.999s-74.834 54.667 -99.501 96s-37 88.333 -37 141c0 48.667 11.5 93.5 34.5 134.5s55.5 73.833 97.5 98.5s89.333 37 142 37c41.333 0 79.5 -8.66699 114.5 -26s64.167 -42.333 87.5 -75c21.333 32.667 48.666 57.667 81.999 75
s70 26 110 26c48 0 90.167 -10.167 126.5 -30.5s64.666 -49.5 84.999 -87.5s30.5 -83 30.5 -135c0 -22 -1.66699 -42 -5 -60h-359c17.333 -76 75 -114 173 -114c30.667 0 60.5 3.16699 89.5 9.5s55.167 15.5 78.5 27.5l14 -109c-24 -13.333 -53.333 -23.666 -88 -30.999
s-71 -11 -109 -11c-50.667 0 -95.334 8.83301 -134.001 26.5s-70 43.167 -94 76.5c-23.333 -32.667 -52.5 -58 -87.5 -76s-73.167 -27 -114.5 -27zM822.006 308.999c-3.33301 35.333 -14.832 62.5 -34.499 81.5s-45.834 28.5 -78.501 28.5c-32 0 -58.333 -9.5 -79 -28.5
s-34 -46.167 -40 -81.5h232z" />
    <glyph glyph-name="Racute" unicode="&#x154;" horiz-adv-x="720" 
d="M91 760l247.001 0.000976562c87.333 0 156 -21.5 206 -64.5s75 -102.167 75 -177.5c0 -44.667 -11 -84.834 -33 -120.501s-53.333 -64.5 -94 -86.5l203 -311h-172l-163 273c-11.333 -0.666992 -20.833 -1.16699 -28.5 -1.5s-14.834 -0.5 -21.501 -0.5h-73v-271h-146v760z
M237.001 394.001l75 0.000976562c104.667 0 157 41 157 123c0 39.333 -12.833 69.166 -38.5 89.499s-63.5 30.5 -113.5 30.5h-80v-243zM344.001 978.002h168l-150 -143h-132z" />
    <glyph glyph-name="racute" unicode="&#x155;" horiz-adv-x="435" 
d="M74 509l134.001 -0.000976562l1 -84c14 30 32.833 53 56.5 69s51.167 24 82.5 24c21.333 0 41 -3.66699 59 -11l-12 -131c-20.667 8 -41.334 12 -62.001 12c-38 0 -67.5 -13.667 -88.5 -41s-31.5 -65.666 -31.5 -114.999v-232h-139v509zM244.001 776.999h154l-140 -167
h-119z" />
    <glyph glyph-name="Rcaron" unicode="&#x158;" horiz-adv-x="720" 
d="M91 760l247.001 0.000976562c87.333 0 156 -21.5 206 -64.5s75 -102.167 75 -177.5c0 -44.667 -11 -84.834 -33 -120.501s-53.333 -64.5 -94 -86.5l203 -311h-172l-163 273c-11.333 -0.666992 -20.833 -1.16699 -28.5 -1.5s-14.834 -0.5 -21.501 -0.5h-73v-271h-146v760z
M237.001 394.001l75 0.000976562c104.667 0 157 41 157 123c0 39.333 -12.833 69.166 -38.5 89.499s-63.5 30.5 -113.5 30.5h-80v-243zM122.001 986.002h139l71 -78l71 78h139l-142 -151h-136z" />
    <glyph glyph-name="rcaron" unicode="&#x159;" horiz-adv-x="435" 
d="M74 509l134.001 -0.000976562l1 -84c14 30 32.833 53 56.5 69s51.167 24 82.5 24c21.333 0 41 -3.66699 59 -11l-12 -131c-20.667 8 -41.334 12 -62.001 12c-38 0 -67.5 -13.667 -88.5 -41s-31.5 -65.666 -31.5 -114.999v-232h-139v509zM33.001 776.999h124l74 -90l74 90
h124l-138 -167h-120z" />
    <glyph glyph-name="Sacute" unicode="&#x15a;" horiz-adv-x="662" 
d="M312 -16c-47.333 0 -94.999 5.83008 -142.999 17.4971s-85.667 26.834 -113 45.501l15 131c32 -20.667 69.333 -37 112 -49s83.667 -18 123 -18c46 0 81.5 8.5 106.5 25.5s37.5 40.833 37.5 71.5c0 26 -10.5 47 -31.5 63s-60.833 33.333 -119.5 52
c-82.667 26 -141.667 57 -177 93s-53 83.667 -53 143c0 42.667 10.833 80.334 32.5 113.001s53.167 58.167 94.5 76.5s89.666 27.5 144.999 27.5c39.333 0 79.333 -5 120 -15s76.334 -23.667 107.001 -41l-21 -127c-28.667 16.667 -61.167 30.167 -97.5 40.5
s-70.833 15.5 -103.5 15.5c-42.667 0 -74.834 -7.66699 -96.501 -23s-32.5 -37.333 -32.5 -66c0 -18 4.16699 -32.833 12.5 -44.5s22 -22.167 41 -31.5s46.167 -19.666 81.5 -30.999c90.667 -28.667 155 -61.5 193 -98.5s57 -85.167 57 -144.5
c0 -70 -25.833 -125.167 -77.5 -165.5s-122.5 -60.5 -212.5 -60.5zM341.001 977.997h168l-150 -143h-132z" />
    <glyph glyph-name="sacute" unicode="&#x15b;" horiz-adv-x="493" 
d="M231 -16c-38.667 0 -75.332 4.49805 -109.999 13.498s-61.334 20.833 -80.001 35.5l17 113c22.667 -15.333 49.167 -27.666 79.5 -36.999s59.5 -14 87.5 -14c56.667 0 85 14.333 85 43c0 15.333 -6 27 -18 35s-37 17.333 -75 28
c-60 16.667 -102.833 37.834 -128.5 63.501s-38.5 60.167 -38.5 103.5c0 48.667 18.333 87 55 115s87 42 151 42c31.333 0 62.666 -3.66699 93.999 -11s57 -17 77 -29l-16 -110c-20.667 12 -44.5 21.5 -71.5 28.5s-52.833 10.5 -77.5 10.5c-48.667 0 -73 -13 -73 -39
c0 -14.667 5.83301 -26.167 17.5 -34.5s34.834 -17.5 69.501 -27.5c64 -18.667 109.167 -40.667 135.5 -66s39.5 -60.333 39.5 -105c0 -49.333 -19.5 -88 -58.5 -116s-92.833 -42 -161.5 -42zM266.002 776.998h154l-140 -167h-119z" />
    <glyph glyph-name="Scedilla" unicode="&#x15e;" horiz-adv-x="662" 
d="M312 -16c-47.333 0 -94.999 5.83008 -142.999 17.4971s-85.667 26.834 -113 45.501l15 131c32 -20.667 69.333 -37 112 -49s83.667 -18 123 -18c46 0 81.5 8.5 106.5 25.5s37.5 40.833 37.5 71.5c0 26 -10.5 47 -31.5 63s-60.833 33.333 -119.5 52
c-82.667 26 -141.667 57 -177 93s-53 83.667 -53 143c0 42.667 10.833 80.334 32.5 113.001s53.167 58.167 94.5 76.5s89.666 27.5 144.999 27.5c39.333 0 79.333 -5 120 -15s76.334 -23.667 107.001 -41l-21 -127c-28.667 16.667 -61.167 30.167 -97.5 40.5
s-70.833 15.5 -103.5 15.5c-42.667 0 -74.834 -7.66699 -96.501 -23s-32.5 -37.333 -32.5 -66c0 -18 4.16699 -32.833 12.5 -44.5s22 -22.167 41 -31.5s46.167 -19.666 81.5 -30.999c90.667 -28.667 155 -61.5 193 -98.5s57 -85.167 57 -144.5
c0 -70 -25.833 -125.167 -77.5 -165.5s-122.5 -60.5 -212.5 -60.5zM294.001 -262.003c-15.333 0 -32.168 1.83496 -50.501 5.50195s-32.5 8.16699 -42.5 13.5l16 76c18.667 -9.33301 40.667 -14 66 -14c36 0 54 11 54 33c0 20.667 -18.333 31 -55 31
c-17.333 0 -29.333 -1 -36 -3l36 130h84l-20 -65c30.667 -2.66699 55.334 -12.834 74.001 -30.501s28 -39.834 28 -66.501c0 -35.333 -13.333 -62.5 -40 -81.5s-64.667 -28.5 -114 -28.5z" />
    <glyph glyph-name="scedilla" unicode="&#x15f;" horiz-adv-x="493" 
d="M231 -16c-38.667 0 -75.332 4.49805 -109.999 13.498s-61.334 20.833 -80.001 35.5l17 113c22.667 -15.333 49.167 -27.666 79.5 -36.999s59.5 -14 87.5 -14c56.667 0 85 14.333 85 43c0 15.333 -6 27 -18 35s-37 17.333 -75 28
c-60 16.667 -102.833 37.834 -128.5 63.501s-38.5 60.167 -38.5 103.5c0 48.667 18.333 87 55 115s87 42 151 42c31.333 0 62.666 -3.66699 93.999 -11s57 -17 77 -29l-16 -110c-20.667 12 -44.5 21.5 -71.5 28.5s-52.833 10.5 -77.5 10.5c-48.667 0 -73 -13 -73 -39
c0 -14.667 5.83301 -26.167 17.5 -34.5s34.834 -17.5 69.501 -27.5c64 -18.667 109.167 -40.667 135.5 -66s39.5 -60.333 39.5 -105c0 -49.333 -19.5 -88 -58.5 -116s-92.833 -42 -161.5 -42zM218.002 -262.002c-17.333 0 -35.8311 1.83496 -55.498 5.50195
s-33.834 8.16699 -42.501 13.5l16 73c18.667 -9.33301 41.667 -14 69 -14c36.667 0 55 12 55 36c0 22 -19.333 33 -58 33c-14 0 -25.667 -0.666992 -35 -2l35 127h80l-20 -66c31.333 -2.66699 56.166 -12.834 74.499 -30.501s27.5 -39.834 27.5 -66.501
c0 -33.333 -13.167 -59.833 -39.5 -79.5s-61.833 -29.5 -106.5 -29.5z" />
    <glyph glyph-name="Scaron" unicode="&#x160;" horiz-adv-x="662" 
d="M312 -16c-47.333 0 -94.999 5.83008 -142.999 17.4971s-85.667 26.834 -113 45.501l15 131c32 -20.667 69.333 -37 112 -49s83.667 -18 123 -18c46 0 81.5 8.5 106.5 25.5s37.5 40.833 37.5 71.5c0 26 -10.5 47 -31.5 63s-60.833 33.333 -119.5 52
c-82.667 26 -141.667 57 -177 93s-53 83.667 -53 143c0 42.667 10.833 80.334 32.5 113.001s53.167 58.167 94.5 76.5s89.666 27.5 144.999 27.5c39.333 0 79.333 -5 120 -15s76.334 -23.667 107.001 -41l-21 -127c-28.667 16.667 -61.167 30.167 -97.5 40.5
s-70.833 15.5 -103.5 15.5c-42.667 0 -74.834 -7.66699 -96.501 -23s-32.5 -37.333 -32.5 -66c0 -18 4.16699 -32.833 12.5 -44.5s22 -22.167 41 -31.5s46.167 -19.666 81.5 -30.999c90.667 -28.667 155 -61.5 193 -98.5s57 -85.167 57 -144.5
c0 -70 -25.833 -125.167 -77.5 -165.5s-122.5 -60.5 -212.5 -60.5zM119.001 985.997h139l71 -78l71 78h139l-142 -151h-136z" />
    <glyph glyph-name="scaron" unicode="&#x161;" horiz-adv-x="493" 
d="M231 -16c-38.667 0 -75.332 4.49805 -109.999 13.498s-61.334 20.833 -80.001 35.5l17 113c22.667 -15.333 49.167 -27.666 79.5 -36.999s59.5 -14 87.5 -14c56.667 0 85 14.333 85 43c0 15.333 -6 27 -18 35s-37 17.333 -75 28
c-60 16.667 -102.833 37.834 -128.5 63.501s-38.5 60.167 -38.5 103.5c0 48.667 18.333 87 55 115s87 42 151 42c31.333 0 62.666 -3.66699 93.999 -11s57 -17 77 -29l-16 -110c-20.667 12 -44.5 21.5 -71.5 28.5s-52.833 10.5 -77.5 10.5c-48.667 0 -73 -13 -73 -39
c0 -14.667 5.83301 -26.167 17.5 -34.5s34.834 -17.5 69.501 -27.5c64 -18.667 109.167 -40.667 135.5 -66s39.5 -60.333 39.5 -105c0 -49.333 -19.5 -88 -58.5 -116s-92.833 -42 -161.5 -42zM55.002 776.998h124l74 -90l74 90h124l-138 -167h-120z" />
    <glyph glyph-name="uni0162" unicode="&#x162;" horiz-adv-x="711" 
d="M279 634h-244v126h641v-126h-244v-634h-153v634zM327 -262c-15.333 0 -32.168 1.83496 -50.501 5.50195s-32.5 8.16699 -42.5 13.5l16 76c18.667 -9.33301 40.667 -14 66 -14c36 0 54 11 54 33c0 20.667 -18.333 31 -55 31c-17.333 0 -29.333 -1 -36 -3l36 130h84
l-20 -65c30.667 -2.66699 55.334 -12.834 74.001 -30.501s28 -39.834 28 -66.501c0 -35.333 -13.333 -62.5 -40 -81.5s-64.667 -28.5 -114 -28.5z" />
    <glyph glyph-name="uni0163" unicode="&#x163;" horiz-adv-x="461" 
d="M298 -16c-63.333 0 -110.334 16.166 -141.001 48.499s-46 81.833 -46 148.5v213h-99v115h99v138h139v-138h159v-115h-159v-188c0 -35.333 6 -60.666 18 -75.999s32.333 -23 61 -23c32.667 0 62.667 7.33301 90 22l15 -116c-15.333 -8.66699 -35.166 -15.667 -59.499 -21
s-49.833 -8 -76.5 -8zM236.999 -262.001c-17.333 0 -35.8311 1.83496 -55.498 5.50195s-33.834 8.16699 -42.501 13.5l16 73c18.667 -9.33301 41.667 -14 69 -14c36.667 0 55 12 55 36c0 22 -19.333 33 -58 33c-14 0 -25.667 -0.666992 -35 -2l35 127h80l-20 -66
c31.333 -2.66699 56.166 -12.834 74.499 -30.501s27.5 -39.834 27.5 -66.501c0 -33.333 -13.167 -59.833 -39.5 -79.5s-61.833 -29.5 -106.5 -29.5z" />
    <glyph glyph-name="Tcaron" unicode="&#x164;" horiz-adv-x="711" 
d="M279 634h-244v126h641v-126h-244v-634h-153v634zM146 986h139l71 -78l71 78h139l-142 -151h-136z" />
    <glyph glyph-name="tcaron" unicode="&#x165;" horiz-adv-x="461" 
d="M298 -16c-63.333 0 -110.334 16.166 -141.001 48.499s-46 81.833 -46 148.5v213h-99v115h99v138h139v-138h159v-115h-159v-188c0 -35.333 6 -60.666 18 -75.999s32.333 -23 61 -23c32.667 0 62.667 7.33301 90 22l15 -116c-15.333 -8.66699 -35.166 -15.667 -59.499 -21
s-49.833 -8 -76.5 -8zM328.999 809.999h128l-51 -215h-89z" />
    <glyph glyph-name="Utilde" unicode="&#x168;" horiz-adv-x="845" 
d="M421 -16c-106 0 -188.333 29.333 -247 88s-88 141.667 -88 249v439h153v-427c0 -142 61 -213 183 -213c122.667 0 184 71 184 213v427h153v-439c0 -107.333 -29.333 -190.333 -88 -249s-142 -88 -250 -88zM499 832c-18 0 -33.668 3 -47.001 9s-25 12.667 -35 20l-28.5 20
c-9 6 -18.167 9 -27.5 9c-10.667 0 -18.5 -4.5 -23.5 -13.5s-7.5 -23.167 -7.5 -42.5h-95v7c1.33301 99.333 38.333 149 111 149c18 0 33.667 -3 47 -9s25 -12.667 35 -20l28.5 -20c9 -6 18.167 -9 27.5 -9c10.667 0 18.334 4.33301 23.001 13s7 23 7 43h96v-7
c-0.666992 -48.667 -10.5 -85.667 -29.5 -111s-46.167 -38 -81.5 -38z" />
    <glyph glyph-name="utilde" unicode="&#x169;" horiz-adv-x="618" 
d="M256 -16c-60 0 -105.833 18.499 -137.5 55.499s-47.5 90.5 -47.5 160.5v309h139v-283c0 -79.333 30.333 -119 91 -119c33.333 0 59 11.167 77 33.5s27 53.833 27 94.5v274h139v-509h-134l-1 62c-14.667 -25.333 -35.167 -44.666 -61.5 -57.999s-56.833 -20 -91.5 -20z
M385 612.999c-19.333 0 -35.832 3 -49.499 9s-25.667 12.667 -36 20l-28.5 20c-8.66699 6 -18 9 -28 9c-11.333 0 -19.333 -4.5 -24 -13.5s-7 -23.167 -7 -42.5h-93v10c1.33301 46 11.166 81.5 29.499 106.5s44.166 37.5 77.499 37.5c19.333 0 35.833 -3 49.5 -9
s25.667 -12.667 36 -20l28.5 -20c8.66699 -6 18 -9 28 -9c11.333 0 19.333 4.5 24 13.5s7 23.167 7 42.5h92v-10c-0.666992 -46 -10.167 -81.5 -28.5 -106.5s-44.166 -37.5 -77.499 -37.5z" />
    <glyph glyph-name="Umacron" unicode="&#x16a;" horiz-adv-x="845" 
d="M421 -16c-106 0 -188.333 29.333 -247 88s-88 141.667 -88 249v439h153v-427c0 -142 61 -213 183 -213c122.667 0 184 71 184 213v427h153v-439c0 -107.333 -29.333 -190.333 -88 -249s-142 -88 -250 -88zM259 947h327v-101h-327v101z" />
    <glyph glyph-name="umacron" unicode="&#x16b;" horiz-adv-x="618" 
d="M256 -16c-60 0 -105.833 18.499 -137.5 55.499s-47.5 90.5 -47.5 160.5v309h139v-283c0 -79.333 30.333 -119 91 -119c33.333 0 59 11.167 77 33.5s27 53.833 27 94.5v274h139v-509h-134l-1 62c-14.667 -25.333 -35.167 -44.666 -61.5 -57.999s-56.833 -20 -91.5 -20z
M143 730.999h324v-99h-324v99z" />
    <glyph glyph-name="Uring" unicode="&#x16e;" horiz-adv-x="845" 
d="M421 -16c-106 0 -188.333 29.333 -247 88s-88 141.667 -88 249v439h153v-427c0 -142 61 -213 183 -213c122.667 0 184 71 184 213v427h153v-439c0 -107.333 -29.333 -190.333 -88 -249s-142 -88 -250 -88zM422 817c-40.667 0 -74.334 12.667 -101.001 38s-40 57 -40 95
s13.333 69.667 40 95s60.334 38 101.001 38s74.334 -12.667 101.001 -38s40 -57 40 -95s-13.333 -69.667 -40 -95s-60.334 -38 -101.001 -38zM422 892c18 0 32.167 5.33301 42.5 16s15.5 24.667 15.5 42c0 18 -5.16699 32.167 -15.5 42.5s-24.5 15.5 -42.5 15.5
s-32.167 -5.16699 -42.5 -15.5s-15.5 -24.5 -15.5 -42.5c0 -17.333 5.16699 -31.333 15.5 -42s24.5 -16 42.5 -16z" />
    <glyph glyph-name="uring" unicode="&#x16f;" horiz-adv-x="618" 
d="M256 -16c-60 0 -105.833 18.499 -137.5 55.499s-47.5 90.5 -47.5 160.5v309h139v-283c0 -79.333 30.333 -119 91 -119c33.333 0 59 11.167 77 33.5s27 53.833 27 94.5v274h139v-509h-134l-1 62c-14.667 -25.333 -35.167 -44.666 -61.5 -57.999s-56.833 -20 -91.5 -20z
M305 578.999c-40.667 0 -74.334 12.667 -101.001 38s-40 57 -40 95s13.333 69.667 40 95s60.334 38 101.001 38s74.334 -12.667 101.001 -38s40 -57 40 -95s-13.333 -69.667 -40 -95s-60.334 -38 -101.001 -38zM305 653.999c18 0 32.167 5.33301 42.5 16
s15.5 24.667 15.5 42c0 18 -5.16699 32.167 -15.5 42.5s-24.5 15.5 -42.5 15.5s-32.167 -5.16699 -42.5 -15.5s-15.5 -24.5 -15.5 -42.5c0 -17.333 5.16699 -31.333 15.5 -42s24.5 -16 42.5 -16z" />
    <glyph glyph-name="Uhungarumlaut" unicode="&#x170;" horiz-adv-x="845" 
d="M421 -16c-106 0 -188.333 29.333 -247 88s-88 141.667 -88 249v439h153v-427c0 -142 61 -213 183 -213c122.667 0 184 71 184 213v427h153v-439c0 -107.333 -29.333 -190.333 -88 -249s-142 -88 -250 -88zM320 977h155l-114 -142h-127zM533 977h155l-113 -142h-129z" />
    <glyph glyph-name="uhungarumlaut" unicode="&#x171;" horiz-adv-x="618" 
d="M256 -16c-60 0 -105.833 18.499 -137.5 55.499s-47.5 90.5 -47.5 160.5v309h139v-283c0 -79.333 30.333 -119 91 -119c33.333 0 59 11.167 77 33.5s27 53.833 27 94.5v274h139v-509h-134l-1 62c-14.667 -25.333 -35.167 -44.666 -61.5 -57.999s-56.833 -20 -91.5 -20z
M224 776.999h139l-114 -167h-111zM416 776.999h138l-114 -167h-111z" />
    <glyph glyph-name="Uogonek" unicode="&#x172;" horiz-adv-x="845" 
d="M421 -16c-106 0 -188.333 29.333 -247 88s-88 141.667 -88 249v439h153v-427c0 -142 61 -213 183 -213c122.667 0 184 71 184 213v427h153v-439c0 -107.333 -29.333 -190.333 -88 -249s-142 -88 -250 -88zM517 -259c-38.667 0 -69.333 9.16895 -92 27.502
s-34 43.166 -34 74.499c0 38 15.333 75.667 46 113s70.667 67 120 89l65 -11c-37.333 -25.333 -66.333 -51.333 -87 -78s-31 -51.334 -31 -74.001c0 -25.333 14.667 -38 44 -38c18 0 35.667 4.33301 53 13l10 -95c-8.66699 -6 -22 -11 -40 -15s-36 -6 -54 -6z" />
    <glyph glyph-name="uogonek" unicode="&#x173;" horiz-adv-x="618" 
d="M256 -16c-60 0 -105.833 18.499 -137.5 55.499s-47.5 90.5 -47.5 160.5v309h139v-283c0 -79.333 30.333 -119 91 -119c33.333 0 59 11.167 77 33.5s27 53.833 27 94.5v274h139v-509h-134l-1 62c-14.667 -25.333 -35.167 -44.666 -61.5 -57.999s-56.833 -20 -91.5 -20z
M465 -259.001c-38.667 0 -68.999 9.16504 -90.999 27.498s-33 43.833 -33 76.5c0 34.667 13.333 68.834 40 102.501s63.667 63.167 111 88.5l52 -36c-62.667 -45.333 -94 -86 -94 -122c0 -11.333 3.66699 -20.166 11 -26.499s17.666 -9.5 30.999 -9.5c20 0 37 3.66699 51 11
l9 -92c-9.33301 -6 -22 -10.833 -38 -14.5s-32.333 -5.5 -49 -5.5z" />
    <glyph glyph-name="Wcircumflex" unicode="&#x174;" horiz-adv-x="1124" 
d="M23 760h161l146 -567l166 557h133l166 -550l145 560h161l-229 -760h-145l-167 546l-164 -546h-146zM494 986h136l142 -151h-139l-71 76l-71 -76h-139z" />
    <glyph glyph-name="wcircumflex" unicode="&#x175;" horiz-adv-x="855" 
d="M21 509h145l93 -349l108 349h117l113 -350l94 350h143l-169 -509h-126l-115 336l-110 -336h-124zM367 777h120l138 -167h-124l-74 89l-74 -89h-124z" />
    <glyph glyph-name="Ycircumflex" unicode="&#x176;" horiz-adv-x="733" 
d="M290 317l-279 443h170l188 -324l189 324h164l-280 -443v-317h-152v317zM298 986h136l142 -151h-139l-71 76l-71 -76h-139z" />
    <glyph glyph-name="ycircumflex" unicode="&#x177;" horiz-adv-x="592" 
d="M115 -254c-20 0 -39.167 1.99902 -57.5 5.99902s-32.5 9.33301 -42.5 16l18 119c20 -10 42 -15 66 -15c25.333 0 45.833 7.83301 61.5 23.5s32.5 45.167 50.5 88.5l18 43l-213 482h151l135 -343l125 343h149l-223 -536c-24.667 -59.333 -48.5 -105.166 -71.5 -137.499
s-47.5 -55.333 -73.5 -69s-57 -20.5 -93 -20.5zM237 776.999h120l138 -167h-124l-74 89l-74 -89h-124z" />
    <glyph glyph-name="Ydieresis" unicode="&#x178;" horiz-adv-x="733" 
d="M290 317l-279 443h170l188 -324l189 324h164l-280 -443v-317h-152v317zM255 833c-22 0 -39.667 6.5 -53 19.5s-20 29.833 -20 50.5s6.66699 37.667 20 51s31 20 53 20s39.833 -6.5 53.5 -19.5s20.5 -30.167 20.5 -51.5c0 -20.667 -7 -37.5 -21 -50.5
s-31.667 -19.5 -53 -19.5zM476 833c-21.333 0 -38.833 6.5 -52.5 19.5s-20.5 29.833 -20.5 50.5s6.83301 37.667 20.5 51s31.167 20 52.5 20c22 0 39.833 -6.5 53.5 -19.5s20.5 -30.167 20.5 -51.5c0 -20.667 -7 -37.5 -21 -50.5s-31.667 -19.5 -53 -19.5z" />
    <glyph glyph-name="Zacute" unicode="&#x179;" horiz-adv-x="731" 
d="M53 110l419 525h-395v125h586v-110l-419 -525h426v-125h-617v110zM373 978h168l-150 -143h-132z" />
    <glyph glyph-name="zacute" unicode="&#x17a;" horiz-adv-x="542" 
d="M44 99l260 295h-249v115h431v-99l-261 -295h268v-115h-449v99zM280 777h154l-140 -167h-119z" />
    <glyph glyph-name="Zdotaccent" unicode="&#x17b;" horiz-adv-x="731" 
d="M53 110l419 525h-395v125h586v-110l-419 -525h426v-125h-617v110zM361 829c-24.667 0 -44.5 7.33301 -59.5 22s-22.5 33.667 -22.5 57s7.66699 42.333 23 57s35 22 59 22c24.667 0 44.5 -7.33301 59.5 -22s22.5 -33.667 22.5 -57s-7.66699 -42.333 -23 -57
s-35 -22 -59 -22z" />
    <glyph glyph-name="zdotaccent" unicode="&#x17c;" horiz-adv-x="542" 
d="M44 99l260 295h-249v115h431v-99l-261 -295h268v-115h-449v99zM267 613c-23.333 0 -42.166 7 -56.499 21s-21.5 32.333 -21.5 55s7.16699 41 21.5 55s33.166 21 56.499 21s42.333 -7 57 -21s22 -32.333 22 -55s-7.33301 -41 -22 -55s-33.667 -21 -57 -21z" />
    <glyph glyph-name="Zcaron" unicode="&#x17d;" horiz-adv-x="731" 
d="M53 110l419 525h-395v125h586v-110l-419 -525h426v-125h-617v110zM151 986h139l71 -78l71 78h139l-142 -151h-136z" />
    <glyph glyph-name="zcaron" unicode="&#x17e;" horiz-adv-x="542" 
d="M44 99l260 295h-249v115h431v-99l-261 -295h268v-115h-449v99zM69 777h124l74 -90l74 90h124l-138 -167h-120z" />
    <glyph glyph-name="florin" unicode="&#x192;" horiz-adv-x="428" 
d="M55 -254c-25.333 0 -48.834 2.16895 -70.501 6.50195s-38.167 10.166 -49.5 17.499l14 116c24 -12 51.667 -18 83 -18c29.333 0 51 8.33301 65 25s21 43 21 79v422h-92v115h92v63c0 77.333 18.667 137.166 56 179.499s90.333 63.5 159 63.5c20 0 40.833 -2 62.5 -6
s39.834 -9.33301 54.501 -16l-15 -114c-28 10 -55 15 -81 15c-33.333 0 -57.833 -10.833 -73.5 -32.5s-23.5 -55.5 -23.5 -101.5v-51h137v-115h-137v-429c0 -72 -17 -126.5 -51 -163.5s-84.333 -55.5 -151 -55.5z" />
    <glyph glyph-name="uni0218" unicode="&#x218;" horiz-adv-x="662" 
d="M312 -16c-47.333 0 -94.999 5.83008 -142.999 17.4971s-85.667 26.834 -113 45.501l15 131c32 -20.667 69.333 -37 112 -49s83.667 -18 123 -18c46 0 81.5 8.5 106.5 25.5s37.5 40.833 37.5 71.5c0 26 -10.5 47 -31.5 63s-60.833 33.333 -119.5 52
c-82.667 26 -141.667 57 -177 93s-53 83.667 -53 143c0 42.667 10.833 80.334 32.5 113.001s53.167 58.167 94.5 76.5s89.666 27.5 144.999 27.5c39.333 0 79.333 -5 120 -15s76.334 -23.667 107.001 -41l-21 -127c-28.667 16.667 -61.167 30.167 -97.5 40.5
s-70.833 15.5 -103.5 15.5c-42.667 0 -74.834 -7.66699 -96.501 -23s-32.5 -37.333 -32.5 -66c0 -18 4.16699 -32.833 12.5 -44.5s22 -22.167 41 -31.5s46.167 -19.666 81.5 -30.999c90.667 -28.667 155 -61.5 193 -98.5s57 -85.167 57 -144.5
c0 -70 -25.833 -125.167 -77.5 -165.5s-122.5 -60.5 -212.5 -60.5zM218.001 -247.003c12.667 24.667 22.833 53.499 30.5 86.499s11.5 65.5 11.5 97.5h130c-0.666992 -30.667 -7.5 -63.667 -20.5 -99s-28.833 -63.666 -47.5 -84.999h-104z" />
    <glyph glyph-name="uni0219" unicode="&#x219;" horiz-adv-x="493" 
d="M231 -16c-38.667 0 -75.332 4.49805 -109.999 13.498s-61.334 20.833 -80.001 35.5l17 113c22.667 -15.333 49.167 -27.666 79.5 -36.999s59.5 -14 87.5 -14c56.667 0 85 14.333 85 43c0 15.333 -6 27 -18 35s-37 17.333 -75 28
c-60 16.667 -102.833 37.834 -128.5 63.501s-38.5 60.167 -38.5 103.5c0 48.667 18.333 87 55 115s87 42 151 42c31.333 0 62.666 -3.66699 93.999 -11s57 -17 77 -29l-16 -110c-20.667 12 -44.5 21.5 -71.5 28.5s-52.833 10.5 -77.5 10.5c-48.667 0 -73 -13 -73 -39
c0 -14.667 5.83301 -26.167 17.5 -34.5s34.834 -17.5 69.501 -27.5c64 -18.667 109.167 -40.667 135.5 -66s39.5 -60.333 39.5 -105c0 -49.333 -19.5 -88 -58.5 -116s-92.833 -42 -161.5 -42zM140.002 -247.002c12.667 24.667 22.832 53.667 30.499 87
s11.834 65.666 12.501 96.999h127c-0.666992 -30.667 -7.5 -63.667 -20.5 -99s-28.833 -63.666 -47.5 -84.999h-102z" />
    <glyph glyph-name="uni021A" unicode="&#x21a;" horiz-adv-x="711" 
d="M279 634h-244v126h641v-126h-244v-634h-153v634zM250 -247c12.667 24.667 22.833 53.499 30.5 86.499s11.5 65.5 11.5 97.5h130c-0.666992 -30.667 -7.5 -63.667 -20.5 -99s-28.833 -63.666 -47.5 -84.999h-104z" />
    <glyph glyph-name="uni021B" unicode="&#x21b;" horiz-adv-x="461" 
d="M298 -16c-63.333 0 -110.334 16.166 -141.001 48.499s-46 81.833 -46 148.5v213h-99v115h99v138h139v-138h159v-115h-159v-188c0 -35.333 6 -60.666 18 -75.999s32.333 -23 61 -23c32.667 0 62.667 7.33301 90 22l15 -116c-15.333 -8.66699 -35.166 -15.667 -59.499 -21
s-49.833 -8 -76.5 -8zM154.999 -247.001c12.667 24.667 22.832 53.667 30.499 87s11.834 65.666 12.501 96.999h127c-0.666992 -30.667 -7.5 -63.667 -20.5 -99s-28.833 -63.666 -47.5 -84.999h-102z" />
    <glyph glyph-name="uni0237" unicode="&#x237;" horiz-adv-x="287" 
d="M11 -254c-25.333 0 -48.667 2.16797 -70 6.50098s-38 10.166 -50 17.499l14 116c24 -12 51.667 -18 83 -18c29.333 0 51 8.33301 65 25s21 43 21 79v537h139v-544c0 -72 -17 -126.5 -51 -163.5s-84.333 -55.5 -151 -55.5z" />
    <glyph glyph-name="circumflex" unicode="&#x2c6;" horiz-adv-x="500" 
d="M190 777h120l138 -167h-124l-74 89l-74 -89h-124z" />
    <glyph glyph-name="caron" unicode="&#x2c7;" horiz-adv-x="500" 
d="M52 777h124l74 -90l74 90h124l-138 -167h-120z" />
    <glyph glyph-name="uni02C9" unicode="&#x2c9;" horiz-adv-x="500" 
d="M88 731h324v-99h-324v99z" />
    <glyph glyph-name="uni02CB" unicode="&#x2cb;" horiz-adv-x="500" 
d="M120 777h154l106 -167h-119z" />
    <glyph glyph-name="breve" unicode="&#x2d8;" horiz-adv-x="500" 
d="M250 592c-53.333 0 -95.5 13.833 -126.5 41.5s-46.5 65.5 -46.5 113.5c0 4.66699 0.333008 9 1 13h95c0 -55.333 25.667 -83 77 -83s77 27.667 77 83h95c0.666992 -4 1 -8.33301 1 -13c0 -48 -15.5 -85.833 -46.5 -113.5s-73.167 -41.5 -126.5 -41.5z" />
    <glyph glyph-name="dotaccent" unicode="&#x2d9;" horiz-adv-x="500" 
d="M249 613c-23.333 0 -42.166 7 -56.499 21s-21.5 32.333 -21.5 55s7.16699 41 21.5 55s33.166 21 56.499 21s42.333 -7 57 -21s22 -32.333 22 -55s-7.33301 -41 -22 -55s-33.667 -21 -57 -21z" />
    <glyph glyph-name="ring" unicode="&#x2da;" horiz-adv-x="500" 
d="M250 579c-40.667 0 -74.334 12.667 -101.001 38s-40 57 -40 95s13.333 69.667 40 95s60.334 38 101.001 38s74.334 -12.667 101.001 -38s40 -57 40 -95s-13.333 -69.667 -40 -95s-60.334 -38 -101.001 -38zM250 654c18 0 32.167 5.33301 42.5 16s15.5 24.667 15.5 42
c0 18 -5.16699 32.167 -15.5 42.5s-24.5 15.5 -42.5 15.5s-32.167 -5.16699 -42.5 -15.5s-15.5 -24.5 -15.5 -42.5c0 -17.333 5.16699 -31.333 15.5 -42s24.5 -16 42.5 -16z" />
    <glyph glyph-name="ogonek" unicode="&#x2db;" horiz-adv-x="500" 
d="M288 -259c-38.667 0 -68.999 9.16504 -90.999 27.498s-33 43.833 -33 76.5c0 34.667 13.333 68.834 40 102.501s63.667 63.167 111 88.5l52 -36c-62.667 -45.333 -94 -86 -94 -122c0 -11.333 3.66699 -20.166 11 -26.499s17.666 -9.5 30.999 -9.5c20 0 37 3.66699 51 11
l9 -92c-9.33301 -6 -22 -10.833 -38 -14.5s-32.333 -5.5 -49 -5.5z" />
    <glyph glyph-name="tilde" unicode="&#x2dc;" horiz-adv-x="500" 
d="M330 613c-19.333 0 -35.832 3 -49.499 9s-25.667 12.667 -36 20l-28.5 20c-8.66699 6 -18 9 -28 9c-11.333 0 -19.333 -4.5 -24 -13.5s-7 -23.167 -7 -42.5h-93v10c1.33301 46 11.166 81.5 29.499 106.5s44.166 37.5 77.499 37.5c19.333 0 35.833 -3 49.5 -9
s25.667 -12.667 36 -20l28.5 -20c8.66699 -6 18 -9 28 -9c11.333 0 19.333 4.5 24 13.5s7 23.167 7 42.5h92v-10c-0.666992 -46 -10.167 -81.5 -28.5 -106.5s-44.166 -37.5 -77.499 -37.5z" />
    <glyph glyph-name="hungarumlaut" unicode="&#x2dd;" horiz-adv-x="500" 
d="M144 777h139l-114 -167h-111zM336 777h138l-114 -167h-111z" />
    <glyph glyph-name="gravecomb" unicode="&#x300;" horiz-adv-x="0" 
d="M-167 777h154l106 -167h-119z" />
    <glyph glyph-name="acutecomb" unicode="&#x301;" horiz-adv-x="0" 
d="M13 777h154l-140 -167h-119z" />
    <glyph glyph-name="uni0302" unicode="&#x302;" horiz-adv-x="0" 
d="M-60 777h120l138 -167h-124l-74 89l-74 -89h-124z" />
    <glyph glyph-name="tildecomb" unicode="&#x303;" horiz-adv-x="0" 
d="M80 613c-19.333 0 -35.832 3 -49.499 9s-25.667 12.667 -36 20l-28.5 20c-8.66699 6 -18 9 -28 9c-11.333 0 -19.333 -4.5 -24 -13.5s-7 -23.167 -7 -42.5h-93v10c1.33301 46 11.166 81.5 29.499 106.5s44.166 37.5 77.499 37.5c19.333 0 35.833 -3 49.5 -9
s25.667 -12.667 36 -20l28.5 -20c8.66699 -6 18 -9 28 -9c11.333 0 19.333 4.5 24 13.5s7 23.167 7 42.5h92v-10c-0.666992 -46 -10.167 -81.5 -28.5 -106.5s-44.166 -37.5 -77.499 -37.5z" />
    <glyph glyph-name="uni0304" unicode="&#x304;" horiz-adv-x="0" 
d="M-162 731h324v-99h-324v99z" />
    <glyph glyph-name="uni0306" unicode="&#x306;" horiz-adv-x="0" 
d="M0 592c-53.333 0 -95.5 13.833 -126.5 41.5s-46.5 65.5 -46.5 113.5c0 4.66699 0.333008 9 1 13h95c0 -55.333 25.667 -83 77 -83s77 27.667 77 83h95c0.666992 -4 1 -8.33301 1 -13c0 -48 -15.5 -85.833 -46.5 -113.5s-73.167 -41.5 -126.5 -41.5z" />
    <glyph glyph-name="uni0307" unicode="&#x307;" horiz-adv-x="0" 
d="M0 613c-23.333 0 -42.166 7 -56.499 21s-21.5 32.333 -21.5 55s7.16699 41 21.5 55s33.166 21 56.499 21s42.333 -7 57 -21s22 -32.333 22 -55s-7.33301 -41 -22 -55s-33.667 -21 -57 -21z" />
    <glyph glyph-name="uni0308" unicode="&#x308;" horiz-adv-x="0" 
d="M-109 616c-22 0 -39.501 6.5 -52.501 19.5s-19.5 29.833 -19.5 50.5c0 20 6.83301 36.5 20.5 49.5s30.834 19.5 51.501 19.5c21.333 0 38.666 -6.5 51.999 -19.5s20 -29.5 20 -49.5c0 -20.667 -6.66699 -37.5 -20 -50.5s-30.666 -19.5 -51.999 -19.5zM108.999 616
c-22 0 -39.501 6.5 -52.501 19.5s-19.5 29.833 -19.5 50.5c0 20 6.83301 36.5 20.5 49.5s30.834 19.5 51.501 19.5c21.333 0 38.666 -6.5 51.999 -19.5s20 -29.5 20 -49.5c0 -20.667 -6.66699 -37.5 -20 -50.5s-30.666 -19.5 -51.999 -19.5z" />
    <glyph glyph-name="uni030A" unicode="&#x30a;" horiz-adv-x="0" 
d="M0 579c-40.667 0 -74.334 12.667 -101.001 38s-40 57 -40 95s13.333 69.667 40 95s60.334 38 101.001 38s74.334 -12.667 101.001 -38s40 -57 40 -95s-13.333 -69.667 -40 -95s-60.334 -38 -101.001 -38zM0 654c18 0 32.167 5.33301 42.5 16s15.5 24.667 15.5 42
c0 18 -5.16699 32.167 -15.5 42.5s-24.5 15.5 -42.5 15.5s-32.167 -5.16699 -42.5 -15.5s-15.5 -24.5 -15.5 -42.5c0 -17.333 5.16699 -31.333 15.5 -42s24.5 -16 42.5 -16z" />
    <glyph glyph-name="uni030B" unicode="&#x30b;" horiz-adv-x="0" 
d="M-81 777h139l-114 -167h-111zM111 777h138l-114 -167h-111z" />
    <glyph glyph-name="uni030C" unicode="&#x30c;" horiz-adv-x="0" 
d="M-198 777h124l74 -90l74 90h124l-138 -167h-120z" />
    <glyph glyph-name="uni0312" unicode="&#x312;" horiz-adv-x="0" 
d="M-76 610c0.666992 30.667 7.33301 61.833 20 93.5s28.667 58.5 48 80.5h99c-26 -50.667 -39.333 -108.667 -40 -174h-127z" />
    <glyph glyph-name="uni0315" unicode="&#x315;" horiz-adv-x="0" 
d="M-55 810h133l-54 -239h-91z" />
    <glyph glyph-name="uni0326" unicode="&#x326;" horiz-adv-x="0" 
d="M-100 -247c12.667 24.667 22.832 53.667 30.499 87s11.834 65.666 12.501 96.999h127c-0.666992 -30.667 -7.5 -63.667 -20.5 -99s-28.833 -63.666 -47.5 -84.999h-102z" />
    <glyph glyph-name="uni0327" unicode="&#x327;" horiz-adv-x="0" 
d="M-27 -262c-17.333 0 -35.8311 1.83496 -55.498 5.50195s-33.834 8.16699 -42.501 13.5l16 73c18.667 -9.33301 41.667 -14 69 -14c36.667 0 55 12 55 36c0 22 -19.333 33 -58 33c-14 0 -25.667 -0.666992 -35 -2l35 127h80l-20 -66
c31.333 -2.66699 56.166 -12.834 74.499 -30.501s27.5 -39.834 27.5 -66.501c0 -33.333 -13.167 -59.833 -39.5 -79.5s-61.833 -29.5 -106.5 -29.5z" />
    <glyph glyph-name="uni0328" unicode="&#x328;" horiz-adv-x="0" 
d="M-9 -259c-38.667 0 -68.999 9.16504 -90.999 27.498s-33 43.833 -33 76.5c0 34.667 13.333 68.834 40 102.501s63.667 63.167 111 88.5l52 -36c-62.667 -45.333 -94 -86 -94 -122c0 -11.333 3.66699 -20.166 11 -26.499s17.666 -9.5 30.999 -9.5c20 0 37 3.66699 51 11
l9 -92c-9.33301 -6 -22 -10.833 -38 -14.5s-32.333 -5.5 -49 -5.5z" />
    <glyph glyph-name="pi" unicode="&#x3c0;" horiz-adv-x="693" 
d="M560 -10c-36 0 -63.667 5.16797 -83 15.501s-33 26.666 -41 48.999s-12 52.5 -12 90.5v250h-167v-395h-137v395h-82v114h607v-114h-87v-230c0 -21.333 3 -35.833 9 -43.5s17.667 -11.5 35 -11.5c10.667 0 21.667 1.66699 33 5l5 -113c-25.333 -8 -52 -12 -80 -12z" />
    <glyph glyph-name="Wgrave" unicode="&#x1e80;" horiz-adv-x="1124" 
d="M23 760h161l146 -567l166 557h133l166 -550l145 560h161l-229 -760h-145l-167 546l-164 -546h-146zM379 978h168l115 -143h-131z" />
    <glyph glyph-name="wgrave" unicode="&#x1e81;" horiz-adv-x="855" 
d="M21 509h145l93 -349l108 349h117l113 -350l94 350h143l-169 -509h-126l-115 336l-110 -336h-124zM260 777h154l106 -167h-119z" />
    <glyph glyph-name="Wacute" unicode="&#x1e82;" horiz-adv-x="1124" 
d="M23 760h161l146 -567l166 557h133l166 -550l145 560h161l-229 -760h-145l-167 546l-164 -546h-146zM574 978h168l-150 -143h-132z" />
    <glyph glyph-name="wacute" unicode="&#x1e83;" horiz-adv-x="855" 
d="M21 509h145l93 -349l108 349h117l113 -350l94 350h143l-169 -509h-126l-115 336l-110 -336h-124zM440 777h154l-140 -167h-119z" />
    <glyph glyph-name="Wdieresis" unicode="&#x1e84;" horiz-adv-x="1124" 
d="M23 760h161l146 -567l166 557h133l166 -550l145 560h161l-229 -760h-145l-167 546l-164 -546h-146zM451 833c-22 0 -39.667 6.5 -53 19.5s-20 29.833 -20 50.5s6.66699 37.667 20 51s31 20 53 20s39.833 -6.5 53.5 -19.5s20.5 -30.167 20.5 -51.5
c0 -20.667 -7 -37.5 -21 -50.5s-31.667 -19.5 -53 -19.5zM672 833c-21.333 0 -38.833 6.5 -52.5 19.5s-20.5 29.833 -20.5 50.5s6.83301 37.667 20.5 51s31.167 20 52.5 20c22 0 39.833 -6.5 53.5 -19.5s20.5 -30.167 20.5 -51.5c0 -20.667 -7 -37.5 -21 -50.5
s-31.667 -19.5 -53 -19.5z" />
    <glyph glyph-name="wdieresis" unicode="&#x1e85;" horiz-adv-x="855" 
d="M21 509h145l93 -349l108 349h117l113 -350l94 350h143l-169 -509h-126l-115 336l-110 -336h-124zM318 616c-22 0 -39.501 6.5 -52.501 19.5s-19.5 29.833 -19.5 50.5c0 20 6.83301 36.5 20.5 49.5s30.834 19.5 51.501 19.5c21.333 0 38.666 -6.5 51.999 -19.5
s20 -29.5 20 -49.5c0 -20.667 -6.66699 -37.5 -20 -50.5s-30.666 -19.5 -51.999 -19.5zM535.999 616c-22 0 -39.501 6.5 -52.501 19.5s-19.5 29.833 -19.5 50.5c0 20 6.83301 36.5 20.5 49.5s30.834 19.5 51.501 19.5c21.333 0 38.666 -6.5 51.999 -19.5s20 -29.5 20 -49.5
c0 -20.667 -6.66699 -37.5 -20 -50.5s-30.666 -19.5 -51.999 -19.5z" />
    <glyph glyph-name="uni1E9E" unicode="&#x1e9e;" horiz-adv-x="798" 
d="M489 -16c-30.667 0 -61.499 3.83203 -92.499 11.499s-57.167 18.167 -78.5 31.5l14 121c40 -26.667 87.333 -40 142 -40c40 0 71.167 10.5 93.5 31.5s33.5 50.833 33.5 89.5c0 35.333 -11.167 63.166 -33.5 83.499s-52.833 30.5 -91.5 30.5
c-11.333 0 -26 -1.66699 -44 -5l-30 78l148 190c-39.333 24.667 -82.666 37 -129.999 37c-58.667 0 -103.667 -19.5 -135 -58.5s-47 -95.167 -47 -168.5v-416h-152v430c0 108.667 29.167 193.5 87.5 254.5s139.833 91.5 244.5 91.5c50 0 99.667 -9.16699 149 -27.5
s90.666 -43.166 123.999 -74.499v-90l-116 -145c56 -13.333 99.167 -39.166 129.5 -77.499s45.5 -85.833 45.5 -142.5c0 -70.667 -23.833 -127.5 -71.5 -170.5s-110.834 -64.5 -189.501 -64.5z" />
    <glyph glyph-name="Ygrave" unicode="&#x1ef2;" horiz-adv-x="733" 
d="M290 317l-279 443h170l188 -324l189 324h164l-280 -443v-317h-152v317zM183 978h168l115 -143h-131z" />
    <glyph glyph-name="ygrave" unicode="&#x1ef3;" horiz-adv-x="592" 
d="M115 -254c-20 0 -39.167 1.99902 -57.5 5.99902s-32.5 9.33301 -42.5 16l18 119c20 -10 42 -15 66 -15c25.333 0 45.833 7.83301 61.5 23.5s32.5 45.167 50.5 88.5l18 43l-213 482h151l135 -343l125 343h149l-223 -536c-24.667 -59.333 -48.5 -105.166 -71.5 -137.499
s-47.5 -55.333 -73.5 -69s-57 -20.5 -93 -20.5zM130 776.999h154l106 -167h-119z" />
    <glyph glyph-name="uni2000" unicode="&#x2000;" horiz-adv-x="500" 
 />
    <glyph glyph-name="uni2001" unicode="&#x2001;" horiz-adv-x="1000" 
 />
    <glyph glyph-name="uni2002" unicode="&#x2002;" horiz-adv-x="500" 
 />
    <glyph glyph-name="uni2003" unicode="&#x2003;" horiz-adv-x="1000" 
 />
    <glyph glyph-name="uni2004" unicode="&#x2004;" horiz-adv-x="333" 
 />
    <glyph glyph-name="uni2005" unicode="&#x2005;" horiz-adv-x="250" 
 />
    <glyph glyph-name="uni2006" unicode="&#x2006;" horiz-adv-x="166" 
 />
    <glyph glyph-name="uni2007" unicode="&#x2007;" horiz-adv-x="620" 
 />
    <glyph glyph-name="uni2008" unicode="&#x2008;" horiz-adv-x="299" 
 />
    <glyph glyph-name="uni2009" unicode="&#x2009;" horiz-adv-x="200" 
 />
    <glyph glyph-name="uni200A" unicode="&#x200a;" horiz-adv-x="55" 
 />
    <glyph glyph-name="uni200B" unicode="&#x200b;" horiz-adv-x="0" 
 />
    <glyph glyph-name="uni2010" unicode="&#x2010;" horiz-adv-x="429" 
d="M61 348h307v-121h-307v121z" />
    <glyph glyph-name="figuredash" unicode="&#x2012;" horiz-adv-x="500" 
d="M0 342h500v-108h-500v108z" />
    <glyph glyph-name="endash" unicode="&#x2013;" horiz-adv-x="500" 
d="M0 342h500v-108h-500v108z" />
    <glyph glyph-name="emdash" unicode="&#x2014;" horiz-adv-x="1000" 
d="M0 342h1000v-108h-1000v108z" />
    <glyph glyph-name="uni2015" unicode="&#x2015;" horiz-adv-x="1000" 
d="M0 342h1000v-108h-1000v108z" />
    <glyph glyph-name="quoteleft" unicode="&#x2018;" horiz-adv-x="226" 
d="M35 512c0.666992 42.667 7.16699 86 19.5 130s28.5 83.333 48.5 118h103c-27.333 -78 -41 -160.667 -41 -248h-130z" />
    <glyph glyph-name="quoteright" unicode="&#x2019;" horiz-adv-x="226" 
d="M20 512c27.333 78 41 160.667 41 248h130c-0.666992 -42.667 -7.16699 -86 -19.5 -130s-28.5 -83.333 -48.5 -118h-103z" />
    <glyph glyph-name="quotesinglbase" unicode="&#x201a;" horiz-adv-x="226" 
d="M20 -126c27.333 78 41 160.667 41 248h130c-0.666992 -42.667 -7.16699 -86 -19.5 -130s-28.5 -83.333 -48.5 -118h-103z" />
    <glyph glyph-name="quotedblleft" unicode="&#x201c;" horiz-adv-x="424" 
d="M35 512c0.666992 42.667 7.16699 86 19.5 130s28.5 83.333 48.5 118h103c-27.333 -78 -41 -160.667 -41 -248h-130zM233 512c0.666992 42.667 7.16699 86 19.5 130s28.5 83.333 48.5 118h103c-27.333 -78 -41 -160.667 -41 -248h-130z" />
    <glyph glyph-name="quotedblright" unicode="&#x201d;" horiz-adv-x="424" 
d="M20 512c27.333 78 41 160.667 41 248h130c-0.666992 -42.667 -7.16699 -86 -19.5 -130s-28.5 -83.333 -48.5 -118h-103zM218 512c27.333 78 41 160.667 41 248h130c-0.666992 -42.667 -7.16699 -86 -19.5 -130s-28.5 -83.333 -48.5 -118h-103z" />
    <glyph glyph-name="quotedblbase" unicode="&#x201e;" horiz-adv-x="424" 
d="M20 -126c27.333 78 41 160.667 41 248h130c-0.666992 -42.667 -7.16699 -86 -19.5 -130s-28.5 -83.333 -48.5 -118h-103zM218 -126c27.333 78 41 160.667 41 248h130c-0.666992 -42.667 -7.16699 -86 -19.5 -130s-28.5 -83.333 -48.5 -118h-103z" />
    <glyph glyph-name="dagger" unicode="&#x2020;" horiz-adv-x="525" 
d="M193 427h-157v112h157v221h139v-221h156v-112h-156v-557h-139v557z" />
    <glyph glyph-name="daggerdbl" unicode="&#x2021;" horiz-adv-x="525" 
d="M193 79h-157v112h157v247h-157v111h157v211h139v-211h156v-111h-156v-247h156v-112h-156v-209h-139v209z" />
    <glyph glyph-name="bullet" unicode="&#x2022;" horiz-adv-x="357" 
d="M178 142c-36 0 -66.667 12.833 -92 38.5s-38 56.5 -38 92.5c0 23.333 5.5 44.833 16.5 64.5s26.5 35.5 46.5 47.5s42.333 18 67 18c36.667 0 67.667 -12.667 93 -38s38 -56 38 -92c0 -22.667 -5.5 -44 -16.5 -64s-26.667 -36.167 -47 -48.5s-42.833 -18.5 -67.5 -18.5z
" />
    <glyph glyph-name="ellipsis" unicode="&#x2026;" horiz-adv-x="1000" 
d="M167 -6c-25.333 0 -46 7.83203 -62 23.499s-24 35.5 -24 59.5s8.16699 43.5 24.5 58.5s36.833 22.5 61.5 22.5s45 -7.66699 61 -23s24 -34.666 24 -57.999c0 -24 -8 -43.833 -24 -59.5s-36.333 -23.5 -61 -23.5zM499 -6.00098c-25.333 0 -46 7.83203 -62 23.499
s-24 35.5 -24 59.5s8.16699 43.5 24.5 58.5s36.833 22.5 61.5 22.5s45 -7.66699 61 -23s24 -34.666 24 -57.999c0 -24 -8 -43.833 -24 -59.5s-36.333 -23.5 -61 -23.5zM833 -6.00195c-25.333 0 -46 7.83203 -62 23.499s-24 35.5 -24 59.5s8.16699 43.5 24.5 58.5
s36.833 22.5 61.5 22.5s45 -7.66699 61 -23s24 -34.666 24 -57.999c0 -24 -8 -43.833 -24 -59.5s-36.333 -23.5 -61 -23.5z" />
    <glyph glyph-name="perthousand" unicode="&#x2030;" horiz-adv-x="1417" 
d="M251 475c25.333 0 45.833 8.5 61.5 25.5s23.5 39.5 23.5 67.5c0 27.333 -7.83301 49.666 -23.5 66.999s-36.167 26 -61.5 26s-45.833 -8.66699 -61.5 -26s-23.5 -39.666 -23.5 -66.999c0 -28 7.83301 -50.5 23.5 -67.5s36.167 -25.5 61.5 -25.5zM251 376
c-36 0 -68.8301 8.00195 -98.4971 24.002s-53.334 38.667 -71.001 68s-26.5 62.666 -26.5 99.999c0 34.667 8.16699 66.5 24.5 95.5s39.666 52.333 69.999 70s64.166 26.5 101.499 26.5c35.333 0 68 -8 98 -24s53.833 -38.833 71.5 -68.5s26.5 -62.834 26.5 -99.501
c0 -35.333 -8.16699 -67.5 -24.5 -96.5s-39.5 -52.167 -69.5 -69.5s-64 -26 -102 -26zM691.003 744.002h123l-530 -744h-123zM727.003 87.002c25.333 0 45.833 8.5 61.5 25.5s23.5 39.5 23.5 67.5c0 27.333 -7.83301 49.666 -23.5 66.999s-36.167 26 -61.5 26
s-45.833 -8.66699 -61.5 -26s-23.5 -39.666 -23.5 -66.999c0 -28 7.83301 -50.5 23.5 -67.5s36.167 -25.5 61.5 -25.5zM727.003 -11.998c-36 0 -68.8301 8.00195 -98.4971 24.002s-53.334 38.667 -71.001 68s-26.5 62.666 -26.5 99.999c0 34.667 8.16699 66.5 24.5 95.5
s39.666 52.333 69.999 70s64.166 26.5 101.499 26.5c35.333 0 68 -8 98 -24s53.833 -38.833 71.5 -68.5s26.5 -62.834 26.5 -99.501c0 -35.333 -8.16699 -67.5 -24.5 -96.5s-39.5 -52.167 -69.5 -69.5s-64 -26 -102 -26zM1166.01 87.0039c25.333 0 45.833 8.5 61.5 25.5
s23.5 39.5 23.5 67.5c0 27.333 -7.83301 49.666 -23.5 66.999s-36.167 26 -61.5 26s-45.833 -8.66699 -61.5 -26s-23.5 -39.666 -23.5 -66.999c0 -28 7.83301 -50.5 23.5 -67.5s36.167 -25.5 61.5 -25.5zM1166.01 -11.9961c-36 0 -68.8301 8.00195 -98.4971 24.002
s-53.334 38.667 -71.001 68s-26.5 62.666 -26.5 99.999c0 34.667 8.16699 66.5 24.5 95.5s39.666 52.333 69.999 70s64.166 26.5 101.499 26.5c35.333 0 68 -8 98 -24s53.833 -38.833 71.5 -68.5s26.5 -62.834 26.5 -99.501c0 -35.333 -8.16699 -67.5 -24.5 -96.5
s-39.5 -52.167 -69.5 -69.5s-64 -26 -102 -26z" />
    <glyph glyph-name="minute" unicode="&#x2032;" horiz-adv-x="274" 
d="M93 760h136l-69 -291h-110z" />
    <glyph glyph-name="second" unicode="&#x2033;" horiz-adv-x="468" 
d="M93 760h136l-69 -291h-110zM287 760h136l-69 -291h-110z" />
    <glyph glyph-name="guilsinglleft" unicode="&#x2039;" horiz-adv-x="363" 
d="M28 257l148 219h152l-153 -219l153 -219h-152z" />
    <glyph glyph-name="guilsinglright" unicode="&#x203a;" horiz-adv-x="363" 
d="M188 257l-153 219h152l148 -219l-148 -219h-152z" />
    <glyph glyph-name="fraction" unicode="&#x2044;" horiz-adv-x="165" 
d="M286 744h123l-530 -744h-123z" />
    <glyph glyph-name="uni2070" unicode="&#x2070;" 
d="M194 446c-54.667 0 -98 19.167 -130 57.5s-48 90.5 -48 156.5s16 118.167 48 156.5s75.333 57.5 130 57.5s97.834 -19.167 129.501 -57.5s47.5 -90.5 47.5 -156.5s-15.833 -118.167 -47.5 -156.5s-74.834 -57.5 -129.501 -57.5zM194 536
c22.667 0 39.834 10.5 51.501 31.5s17.5 51.833 17.5 92.5s-5.83301 71.5 -17.5 92.5s-28.834 31.5 -51.501 31.5c-23.333 0 -41 -10.5 -53 -31.5s-18 -51.833 -18 -92.5s6 -71.5 18 -92.5s29.667 -31.5 53 -31.5z" />
    <glyph glyph-name="uni2074" unicode="&#x2074;" 
d="M215 539h-193v82l181 243h107v-245h48v-80h-48v-83h-95v83zM215 619v130l-98 -130h98z" />
    <glyph glyph-name="uni2075" unicode="&#x2075;" 
d="M171 446c-24.667 0 -48.8291 2.66699 -72.4961 8s-40.834 12 -51.501 20l9 89c23.333 -18.667 58.666 -28 105.999 -28c25.333 0 45 4.33301 59 13s21 21.334 21 38.001c0 32.667 -26.333 49 -79 49c-38.667 0 -71.667 -3.33301 -99 -10l9 239h247v-85h-160l-3 -60
c7.33301 0.666992 13.666 1.16699 18.999 1.5s9.66602 0.5 12.999 0.5c50 0 88.667 -11.833 116 -35.5s41 -56.834 41 -99.501c0 -43.333 -15.5 -77.5 -46.5 -102.5s-73.833 -37.5 -128.5 -37.5z" />
    <glyph glyph-name="uni2076" unicode="&#x2076;" 
d="M193 446c-48 0 -87.166 14.166 -117.499 42.499s-45.5 64.833 -45.5 109.5c0 43.333 14 89 42 137s66 91.333 114 130l125 -3c-28.667 -20.667 -56.334 -44.667 -83.001 -72s-48.334 -54.333 -65.001 -81c14 10 33.333 15 58 15c38.667 0 70.834 -12.667 96.501 -38
s38.5 -56.666 38.5 -93.999c0 -42.667 -15.167 -77.667 -45.5 -105s-69.5 -41 -117.5 -41zM193.001 527.999c18.667 0 34 5.66797 46 17.001s18 25.666 18 42.999c0 18 -6 32.833 -18 44.5s-27.333 17.5 -46 17.5c-19.333 0 -35 -5.83301 -47 -17.5s-18 -26.5 -18 -44.5
s6 -32.5 18 -43.5s27.667 -16.5 47 -16.5z" />
    <glyph glyph-name="uni2077" unicode="&#x2077;" 
d="M74 458l157 313h-188v93h301v-84l-157 -325z" />
    <glyph glyph-name="uni2078" unicode="&#x2078;" 
d="M193 446c-51.333 0 -91.668 11.1641 -121.001 33.4971s-44 53.166 -44 92.499c0 21.333 5.33301 40.833 16 58.5s25.334 30.834 44.001 39.501c-32 18 -48 47 -48 87c0 34.667 14.167 62.834 42.5 84.501s65.166 32.5 110.499 32.5s82 -10.833 110 -32.5
s42 -49.834 42 -84.501c0 -40 -16 -69 -48 -87c19.333 -9.33301 34.333 -22.666 45 -39.999s16 -36.666 16 -57.999c0 -39.333 -14.667 -70.166 -44 -92.499s-69.666 -33.5 -120.999 -33.5zM192.998 525.997c17.333 0 31.666 4.83105 42.999 14.498s17 22.167 17 37.5
c0 14.667 -5.66699 26.834 -17 36.501s-25.666 14.5 -42.999 14.5c-18 0 -32.5 -4.66699 -43.5 -14s-16.5 -21.666 -16.5 -36.999s5.5 -27.833 16.5 -37.5s25.5 -14.5 43.5 -14.5zM192.998 702.995c15.333 0 27.833 4.33301 37.5 13s14.5 19.667 14.5 33
c0 14 -4.83301 25.167 -14.5 33.5s-22.167 12.5 -37.5 12.5c-16 0 -28.833 -4.16699 -38.5 -12.5s-14.5 -19.5 -14.5 -33.5c0 -13.333 5 -24.333 15 -33s22.667 -13 38 -13z" />
    <glyph glyph-name="uni2079" unicode="&#x2079;" 
d="M75 458c29.333 21.333 57.334 45.668 84.001 73.001s48 53.666 64 78.999c-14 -9.33301 -33.333 -14 -58 -14c-38.667 0 -70.834 12.5 -96.501 37.5s-38.5 56.5 -38.5 94.5c0 42.667 15.167 77.667 45.5 105s69.5 41 117.5 41s87.167 -14.167 117.5 -42.5
s45.5 -64.833 45.5 -109.5c0 -43.333 -14 -89 -42 -137s-66 -91.333 -114 -130zM193.001 670.002c19.333 0 35 5.83203 47 17.499s18 26.5 18 44.5s-6 32.5 -18 43.5s-27.667 16.5 -47 16.5c-18.667 0 -34.167 -5.66699 -46.5 -17s-18.5 -25.666 -18.5 -42.999
c0 -18 6.16699 -32.833 18.5 -44.5s27.833 -17.5 46.5 -17.5z" />
    <glyph glyph-name="uni2080" unicode="&#x2080;" 
d="M194 -135c-54.667 0 -98 19.167 -130 57.5s-48 90.5 -48 156.5s16 118.167 48 156.5s75.333 57.5 130 57.5s97.834 -19.167 129.501 -57.5s47.5 -90.5 47.5 -156.5s-15.833 -118.167 -47.5 -156.5s-74.834 -57.5 -129.501 -57.5zM194 -45
c22.667 0 39.834 10.5 51.501 31.5s17.5 51.833 17.5 92.5s-5.83301 71.5 -17.5 92.5s-28.834 31.5 -51.501 31.5c-23.333 0 -41 -10.5 -53 -31.5s-18 -51.833 -18 -92.5s6 -71.5 18 -92.5s29.667 -31.5 53 -31.5z" />
    <glyph glyph-name="uni2081" unicode="&#x2081;" 
d="M173 176l-106 -48l-15 94l133 61h94v-408h-106v301z" />
    <glyph glyph-name="uni2082" unicode="&#x2082;" 
d="M41 -125v86.002c40.667 30 79 61.333 115 94c24.667 22.667 42.167 42 52.5 58s15.5 32 15.5 48c0 13.333 -5.33301 24.166 -16 32.499s-24.667 12.5 -42 12.5c-36.667 0 -71.667 -16.333 -105 -49l-18 83c14.667 16 34.834 28.833 60.501 38.5s52.5 14.5 80.5 14.5
c43.333 0 78.166 -11 104.499 -33s39.5 -51.333 39.5 -88c0 -54 -33.667 -110.667 -101 -170c-12 -10.667 -21.667 -18.834 -29 -24.501s-13.333 -10.5 -18 -14.5h162v-88h-301z" />
    <glyph glyph-name="uni2083" unicode="&#x2083;" 
d="M163 -135c-24.667 0 -47.833 2.33301 -69.5 7s-39.5 11.334 -53.5 20.001l9 89c14.667 -8.66699 31.667 -15.334 51 -20.001s39 -7 59 -7c24 0 42.667 4.5 56 13.5s20 21.5 20 37.5c0 15.333 -6.33301 27.333 -19 36s-30 13 -52 13c-14 0 -27.667 -2 -41 -6l-22 52
l104 98h-155v85h273v-79l-91 -83c32.667 -4.66699 58.5 -17.667 77.5 -39s28.5 -48 28.5 -80c0 -41.333 -15.833 -74.5 -47.5 -99.5s-74.167 -37.5 -127.5 -37.5z" />
    <glyph glyph-name="uni2084" unicode="&#x2084;" 
d="M215 -42h-193v82l181 243h107v-245h48v-80h-48v-83h-95v83zM215 38v130l-98 -130h98z" />
    <glyph glyph-name="uni2085" unicode="&#x2085;" 
d="M171 -135c-24.667 0 -48.8291 2.66699 -72.4961 8s-40.834 12 -51.501 20l9 89c23.333 -18.667 58.666 -28 105.999 -28c25.333 0 45 4.33301 59 13s21 21.334 21 38.001c0 32.667 -26.333 49 -79 49c-38.667 0 -71.667 -3.33301 -99 -10l9 239h247v-85h-160l-3 -60
c7.33301 0.666992 13.666 1.16699 18.999 1.5s9.66602 0.5 12.999 0.5c50 0 88.667 -11.833 116 -35.5s41 -56.834 41 -99.501c0 -43.333 -15.5 -77.5 -46.5 -102.5s-73.833 -37.5 -128.5 -37.5z" />
    <glyph glyph-name="uni2086" unicode="&#x2086;" 
d="M193 -135c-48 0 -87.166 14.166 -117.499 42.499s-45.5 64.833 -45.5 109.5c0 43.333 14 89 42 137s66 91.333 114 130l125 -3c-28.667 -20.667 -56.334 -44.667 -83.001 -72s-48.334 -54.333 -65.001 -81c14 10 33.333 15 58 15c38.667 0 70.834 -12.667 96.501 -38
s38.5 -56.666 38.5 -93.999c0 -42.667 -15.167 -77.667 -45.5 -105s-69.5 -41 -117.5 -41zM193.001 -53.001c18.667 0 34 5.66797 46 17.001s18 25.666 18 42.999c0 18 -6 32.833 -18 44.5s-27.333 17.5 -46 17.5c-19.333 0 -35 -5.83301 -47 -17.5s-18 -26.5 -18 -44.5
s6 -32.5 18 -43.5s27.667 -16.5 47 -16.5z" />
    <glyph glyph-name="uni2087" unicode="&#x2087;" 
d="M74 -123l157 313h-188v93h301v-84l-157 -325z" />
    <glyph glyph-name="uni2088" unicode="&#x2088;" 
d="M193 -135c-51.333 0 -91.668 11.1641 -121.001 33.4971s-44 53.166 -44 92.499c0 21.333 5.33301 40.833 16 58.5s25.334 30.834 44.001 39.501c-32 18 -48 47 -48 87c0 34.667 14.167 62.834 42.5 84.501s65.166 32.5 110.499 32.5s82 -10.833 110 -32.5
s42 -49.834 42 -84.501c0 -40 -16 -69 -48 -87c19.333 -9.33301 34.333 -22.666 45 -39.999s16 -36.666 16 -57.999c0 -39.333 -14.667 -70.166 -44 -92.499s-69.666 -33.5 -120.999 -33.5zM192.998 -55.0029c17.333 0 31.666 4.83105 42.999 14.498s17 22.167 17 37.5
c0 14.667 -5.66699 26.834 -17 36.501s-25.666 14.5 -42.999 14.5c-18 0 -32.5 -4.66699 -43.5 -14s-16.5 -21.666 -16.5 -36.999s5.5 -27.833 16.5 -37.5s25.5 -14.5 43.5 -14.5zM192.998 121.995c15.333 0 27.833 4.33301 37.5 13s14.5 19.667 14.5 33
c0 14 -4.83301 25.167 -14.5 33.5s-22.167 12.5 -37.5 12.5c-16 0 -28.833 -4.16699 -38.5 -12.5s-14.5 -19.5 -14.5 -33.5c0 -13.333 5 -24.333 15 -33s22.667 -13 38 -13z" />
    <glyph glyph-name="uni2089" unicode="&#x2089;" 
d="M75 -123c29.333 21.333 57.334 45.668 84.001 73.001s48 53.666 64 78.999c-14 -9.33301 -33.333 -14 -58 -14c-38.667 0 -70.834 12.5 -96.501 37.5s-38.5 56.5 -38.5 94.5c0 42.667 15.167 77.667 45.5 105s69.5 41 117.5 41s87.167 -14.167 117.5 -42.5
s45.5 -64.833 45.5 -109.5c0 -43.333 -14 -89 -42 -137s-66 -91.333 -114 -130zM193.001 89.002c19.333 0 35 5.83203 47 17.499s18 26.5 18 44.5s-6 32.5 -18 43.5s-27.667 16.5 -47 16.5c-18.667 0 -34.167 -5.66699 -46.5 -17s-18.5 -25.666 -18.5 -42.999
c0 -18 6.16699 -32.833 18.5 -44.5s27.833 -17.5 46.5 -17.5z" />
    <glyph glyph-name="Euro" unicode="&#x20ac;" horiz-adv-x="620" 
d="M447 -16c-84.667 0 -153.834 22.166 -207.501 66.499s-89.167 108.166 -106.5 191.499h-104v90h94c-0.666992 2.66699 -1 14.334 -1 35.001c0 24.667 0.333008 39.667 1 45h-94v90h107c18.667 80.667 55.334 143.834 110.001 189.501s121.334 68.5 200.001 68.5
c64.667 0 120.667 -12.333 168 -37l-20 -112c-40.667 21.333 -87.334 32 -140.001 32c-43.333 0 -80.333 -12.167 -111 -36.5s-53 -59.166 -67 -104.499h247v-90h-262c-0.666992 -4.66699 -1 -18.667 -1 -42c0 -20.667 0.333008 -33.334 1 -38.001h262v-90h-246
c14 -46 36.833 -81 68.5 -105s71.167 -36 118.5 -36c23.333 0 47.5 3 72.5 9s47.833 14 68.5 24l16 -112c-49.333 -25.333 -107.333 -38 -174 -38z" />
    <glyph glyph-name="uni20BA" unicode="&#x20ba;" horiz-adv-x="620" 
d="M216 -16c-40 0 -74 3.00098 -102 9.00098v266l-87 -38v91l87 38v80l-87 -38v91l87 38v223h135v-162l177 78v-91l-177 -78v-80l177 78v-91l-177 -78v-211c60.667 0 109.834 19.667 147.501 59s60.5 94.333 68.5 165l124 -7
c-4.66699 -74.667 -21.834 -137.334 -51.501 -188.001s-71.5 -89 -125.5 -115s-119.333 -39 -196 -39z" />
    <glyph glyph-name="trademark" unicode="&#x2122;" horiz-adv-x="855" 
d="M398 760h105l92 -199l94 199h104l23 -370h-95l-12 229l-77 -166h-74l-78 164l-10 -227h-95zM117 676h-106v84h315v-84h-106v-286h-103v286z" />
    <glyph glyph-name="Omega" unicode="&#x2126;" horiz-adv-x="927" 
d="M76 126l138.998 0.00195312c-46 32 -81.167 72.833 -105.5 122.5s-36.5 105.5 -36.5 167.5c0 66 16.333 126.167 49 180.5s78.834 97.833 138.501 130.5s127.5 49 203.5 49c72.667 0 138.5 -14.833 197.5 -44.5s105.833 -72 140.5 -127s52 -117.833 52 -188.5
c0 -62 -12 -117.667 -36 -167s-59.333 -90.333 -106 -123h140v-126h-325v120c52 27.333 92.333 65.333 121 114s43 103.667 43 165c0 46.667 -9.16699 88.167 -27.5 124.5s-44.666 64.833 -78.999 85.5s-74.5 31 -120.5 31c-44 0 -83.167 -9.66699 -117.5 -29
s-61.333 -47.333 -81 -84s-29.5 -79.334 -29.5 -128.001c0 -60.667 14.333 -115.334 43 -164.001s69 -87 121 -115v-120h-324v126z" />
    <glyph glyph-name="uni2150" unicode="&#x2150;" horiz-adv-x="937" 
d="M639 744h123l-530 -744h-123zM625 2l157 313h-188v93h301v-84l-157 -325zM173 637l-106 -48l-15 94l133 61h94v-408h-106v301z" />
    <glyph glyph-name="uni2151" unicode="&#x2151;" horiz-adv-x="937" 
d="M663 744h123l-530 -744h-123zM626 2c29.333 21.333 57.334 45.668 84.001 73.001s48 53.666 64 78.999c-14 -9.33301 -33.333 -14 -58 -14c-38.667 0 -70.834 12.5 -96.501 37.5s-38.5 56.5 -38.5 94.5c0 42.667 15.167 77.667 45.5 105s69.5 41 117.5 41
s87.167 -14.167 117.5 -42.5s45.5 -64.833 45.5 -109.5c0 -43.333 -14 -89 -42 -137s-66 -91.333 -114 -130zM744.001 214.002c19.333 0 35 5.83203 47 17.499s18 26.5 18 44.5s-6 32.5 -18 43.5s-27.667 16.5 -47 16.5c-18.667 0 -34.167 -5.66699 -46.5 -17
s-18.5 -25.666 -18.5 -42.999c0 -18 6.16699 -32.833 18.5 -44.5s27.833 -17.5 46.5 -17.5zM173.001 637.001l-106 -48l-15 94l133 61h94v-408h-106v301z" />
    <glyph glyph-name="onethird" unicode="&#x2153;" horiz-adv-x="937" 
d="M648 744h123l-530 -744h-123zM714 -10c-24.667 0 -47.833 2.33301 -69.5 7s-39.5 11.334 -53.5 20.001l9 89c14.667 -8.66699 31.667 -15.334 51 -20.001s39 -7 59 -7c24 0 42.667 4.5 56 13.5s20 21.5 20 37.5c0 15.333 -6.33301 27.333 -19 36s-30 13 -52 13
c-14 0 -27.667 -2 -41 -6l-22 52l104 98h-155v85h273v-79l-91 -83c32.667 -4.66699 58.5 -17.667 77.5 -39s28.5 -48 28.5 -80c0 -41.333 -15.833 -74.5 -47.5 -99.5s-74.167 -37.5 -127.5 -37.5zM173.001 637l-106 -48l-15 94l133 61h94v-408h-106v301z" />
    <glyph glyph-name="twothirds" unicode="&#x2154;" horiz-adv-x="937" 
d="M675 744h123l-530 -744h-123zM714 -10c-24.667 0 -47.833 2.33301 -69.5 7s-39.5 11.334 -53.5 20.001l9 89c14.667 -8.66699 31.667 -15.334 51 -20.001s39 -7 59 -7c24 0 42.667 4.5 56 13.5s20 21.5 20 37.5c0 15.333 -6.33301 27.333 -19 36s-30 13 -52 13
c-14 0 -27.667 -2 -41 -6l-22 52l104 98h-155v85h273v-79l-91 -83c32.667 -4.66699 58.5 -17.667 77.5 -39s28.5 -48 28.5 -80c0 -41.333 -15.833 -74.5 -47.5 -99.5s-74.167 -37.5 -127.5 -37.5zM41.001 336v86.002c40.667 30 79 61.333 115 94
c24.667 22.667 42.167 42 52.5 58s15.5 32 15.5 48c0 13.333 -5.33301 24.166 -16 32.499s-24.667 12.5 -42 12.5c-36.667 0 -71.667 -16.333 -105 -49l-18 83c14.667 16 34.834 28.833 60.501 38.5s52.5 14.5 80.5 14.5c43.333 0 78.166 -11 104.499 -33
s39.5 -51.333 39.5 -88c0 -54 -33.667 -110.667 -101 -170c-12 -10.667 -21.667 -18.834 -29 -24.501s-13.333 -10.5 -18 -14.5h162v-88h-301z" />
    <glyph glyph-name="uni2155" unicode="&#x2155;" horiz-adv-x="937" 
d="M661 744h123l-530 -744h-123zM722 -10c-24.667 0 -48.8291 2.66699 -72.4961 8s-40.834 12 -51.501 20l9 89c23.333 -18.667 58.666 -28 105.999 -28c25.333 0 45 4.33301 59 13s21 21.334 21 38.001c0 32.667 -26.333 49 -79 49c-38.667 0 -71.667 -3.33301 -99 -10
l9 239h247v-85h-160l-3 -60c7.33301 0.666992 13.666 1.16699 18.999 1.5s9.66602 0.5 12.999 0.5c50 0 88.667 -11.833 116 -35.5s41 -56.834 41 -99.501c0 -43.333 -15.5 -77.5 -46.5 -102.5s-73.833 -37.5 -128.5 -37.5zM173.005 637l-106 -48l-15 94l133 61h94v-408
h-106v301z" />
    <glyph glyph-name="uni2156" unicode="&#x2156;" horiz-adv-x="937" 
d="M685 744h123l-530 -744h-123zM722 -10c-24.667 0 -48.8291 2.66699 -72.4961 8s-40.834 12 -51.501 20l9 89c23.333 -18.667 58.666 -28 105.999 -28c25.333 0 45 4.33301 59 13s21 21.334 21 38.001c0 32.667 -26.333 49 -79 49c-38.667 0 -71.667 -3.33301 -99 -10
l9 239h247v-85h-160l-3 -60c7.33301 0.666992 13.666 1.16699 18.999 1.5s9.66602 0.5 12.999 0.5c50 0 88.667 -11.833 116 -35.5s41 -56.834 41 -99.501c0 -43.333 -15.5 -77.5 -46.5 -102.5s-73.833 -37.5 -128.5 -37.5zM41.0049 336v86.002c40.667 30 79 61.333 115 94
c24.667 22.667 42.167 42 52.5 58s15.5 32 15.5 48c0 13.333 -5.33301 24.166 -16 32.499s-24.667 12.5 -42 12.5c-36.667 0 -71.667 -16.333 -105 -49l-18 83c14.667 16 34.834 28.833 60.501 38.5s52.5 14.5 80.5 14.5c43.333 0 78.166 -11 104.499 -33
s39.5 -51.333 39.5 -88c0 -54 -33.667 -110.667 -101 -170c-12 -10.667 -21.667 -18.834 -29 -24.501s-13.333 -10.5 -18 -14.5h162v-88h-301z" />
    <glyph glyph-name="uni2157" unicode="&#x2157;" horiz-adv-x="937" 
d="M659 744h123l-530 -744h-123zM722 -10c-24.667 0 -48.8291 2.66699 -72.4961 8s-40.834 12 -51.501 20l9 89c23.333 -18.667 58.666 -28 105.999 -28c25.333 0 45 4.33301 59 13s21 21.334 21 38.001c0 32.667 -26.333 49 -79 49c-38.667 0 -71.667 -3.33301 -99 -10
l9 239h247v-85h-160l-3 -60c7.33301 0.666992 13.666 1.16699 18.999 1.5s9.66602 0.5 12.999 0.5c50 0 88.667 -11.833 116 -35.5s41 -56.834 41 -99.501c0 -43.333 -15.5 -77.5 -46.5 -102.5s-73.833 -37.5 -128.5 -37.5zM163.005 326c-24.667 0 -47.833 2.33301 -69.5 7
s-39.5 11.334 -53.5 20.001l9 89c14.667 -8.66699 31.667 -15.334 51 -20.001s39 -7 59 -7c24 0 42.667 4.5 56 13.5s20 21.5 20 37.5c0 15.333 -6.33301 27.333 -19 36s-30 13 -52 13c-14 0 -27.667 -2 -41 -6l-22 52l104 98h-155v85h273v-79l-91 -83
c32.667 -4.66699 58.5 -17.667 77.5 -39s28.5 -48 28.5 -80c0 -41.333 -15.833 -74.5 -47.5 -99.5s-74.167 -37.5 -127.5 -37.5z" />
    <glyph glyph-name="uni2158" unicode="&#x2158;" horiz-adv-x="937" 
d="M671 744h123l-530 -744h-123zM722 -10c-24.667 0 -48.8291 2.66699 -72.4961 8s-40.834 12 -51.501 20l9 89c23.333 -18.667 58.666 -28 105.999 -28c25.333 0 45 4.33301 59 13s21 21.334 21 38.001c0 32.667 -26.333 49 -79 49c-38.667 0 -71.667 -3.33301 -99 -10
l9 239h247v-85h-160l-3 -60c7.33301 0.666992 13.666 1.16699 18.999 1.5s9.66602 0.5 12.999 0.5c50 0 88.667 -11.833 116 -35.5s41 -56.834 41 -99.501c0 -43.333 -15.5 -77.5 -46.5 -102.5s-73.833 -37.5 -128.5 -37.5zM215.005 419h-193v82l181 243h107v-245h48v-80
h-48v-83h-95v83zM215.005 499v130l-98 -130h98z" />
    <glyph glyph-name="uni2159" unicode="&#x2159;" horiz-adv-x="937" 
d="M686 744h123l-530 -744h-123zM744 -10c-48 0 -87.166 14.166 -117.499 42.499s-45.5 64.833 -45.5 109.5c0 43.333 14 89 42 137s66 91.333 114 130l125 -3c-28.667 -20.667 -56.334 -44.667 -83.001 -72s-48.334 -54.333 -65.001 -81c14 10 33.333 15 58 15
c38.667 0 70.834 -12.667 96.501 -38s38.5 -56.666 38.5 -93.999c0 -42.667 -15.167 -77.667 -45.5 -105s-69.5 -41 -117.5 -41zM744.001 71.999c18.667 0 34 5.66797 46 17.001s18 25.666 18 42.999c0 18 -6 32.833 -18 44.5s-27.333 17.5 -46 17.5
c-19.333 0 -35 -5.83301 -47 -17.5s-18 -26.5 -18 -44.5s6 -32.5 18 -43.5s27.667 -16.5 47 -16.5zM173.001 637l-106 -48l-15 94l133 61h94v-408h-106v301z" />
    <glyph glyph-name="uni215A" unicode="&#x215a;" horiz-adv-x="937" 
d="M694 744h123l-530 -744h-123zM744 -10c-48 0 -87.166 14.166 -117.499 42.499s-45.5 64.833 -45.5 109.5c0 43.333 14 89 42 137s66 91.333 114 130l125 -3c-28.667 -20.667 -56.334 -44.667 -83.001 -72s-48.334 -54.333 -65.001 -81c14 10 33.333 15 58 15
c38.667 0 70.834 -12.667 96.501 -38s38.5 -56.666 38.5 -93.999c0 -42.667 -15.167 -77.667 -45.5 -105s-69.5 -41 -117.5 -41zM744.001 71.999c18.667 0 34 5.66797 46 17.001s18 25.666 18 42.999c0 18 -6 32.833 -18 44.5s-27.333 17.5 -46 17.5
c-19.333 0 -35 -5.83301 -47 -17.5s-18 -26.5 -18 -44.5s6 -32.5 18 -43.5s27.667 -16.5 47 -16.5zM171.001 326c-24.667 0 -48.8291 2.66699 -72.4961 8s-40.834 12 -51.501 20l9 89c23.333 -18.667 58.666 -28 105.999 -28c25.333 0 45 4.33301 59 13s21 21.334 21 38.001
c0 32.667 -26.333 49 -79 49c-38.667 0 -71.667 -3.33301 -99 -10l9 239h247v-85h-160l-3 -60c7.33301 0.666992 13.666 1.16699 18.999 1.5s9.66602 0.5 12.999 0.5c50 0 88.667 -11.833 116 -35.5s41 -56.834 41 -99.501c0 -43.333 -15.5 -77.5 -46.5 -102.5
s-73.833 -37.5 -128.5 -37.5z" />
    <glyph glyph-name="oneeighth" unicode="&#x215b;" horiz-adv-x="937" 
d="M657 744h123l-530 -744h-123zM744 -10c-51.333 0 -91.668 11.1641 -121.001 33.4971s-44 53.166 -44 92.499c0 21.333 5.33301 40.833 16 58.5s25.334 30.834 44.001 39.501c-32 18 -48 47 -48 87c0 34.667 14.167 62.834 42.5 84.501s65.166 32.5 110.499 32.5
s82 -10.833 110 -32.5s42 -49.834 42 -84.501c0 -40 -16 -69 -48 -87c19.333 -9.33301 34.333 -22.666 45 -39.999s16 -36.666 16 -57.999c0 -39.333 -14.667 -70.166 -44 -92.499s-69.666 -33.5 -120.999 -33.5zM743.998 69.9971c17.333 0 31.666 4.83105 42.999 14.498
s17 22.167 17 37.5c0 14.667 -5.66699 26.834 -17 36.501s-25.666 14.5 -42.999 14.5c-18 0 -32.5 -4.66699 -43.5 -14s-16.5 -21.666 -16.5 -36.999s5.5 -27.833 16.5 -37.5s25.5 -14.5 43.5 -14.5zM743.998 246.995c15.333 0 27.833 4.33301 37.5 13s14.5 19.667 14.5 33
c0 14 -4.83301 25.167 -14.5 33.5s-22.167 12.5 -37.5 12.5c-16 0 -28.833 -4.16699 -38.5 -12.5s-14.5 -19.5 -14.5 -33.5c0 -13.333 5 -24.333 15 -33s22.667 -13 38 -13zM172.998 636.995l-106 -48l-15 94l133 61h94v-408h-106v301z" />
    <glyph glyph-name="threeeighths" unicode="&#x215c;" horiz-adv-x="937" 
d="M660 744h123l-530 -744h-123zM744 -10c-51.333 0 -91.668 11.1641 -121.001 33.4971s-44 53.166 -44 92.499c0 21.333 5.33301 40.833 16 58.5s25.334 30.834 44.001 39.501c-32 18 -48 47 -48 87c0 34.667 14.167 62.834 42.5 84.501s65.166 32.5 110.499 32.5
s82 -10.833 110 -32.5s42 -49.834 42 -84.501c0 -40 -16 -69 -48 -87c19.333 -9.33301 34.333 -22.666 45 -39.999s16 -36.666 16 -57.999c0 -39.333 -14.667 -70.166 -44 -92.499s-69.666 -33.5 -120.999 -33.5zM743.998 69.9971c17.333 0 31.666 4.83105 42.999 14.498
s17 22.167 17 37.5c0 14.667 -5.66699 26.834 -17 36.501s-25.666 14.5 -42.999 14.5c-18 0 -32.5 -4.66699 -43.5 -14s-16.5 -21.666 -16.5 -36.999s5.5 -27.833 16.5 -37.5s25.5 -14.5 43.5 -14.5zM743.998 246.995c15.333 0 27.833 4.33301 37.5 13s14.5 19.667 14.5 33
c0 14 -4.83301 25.167 -14.5 33.5s-22.167 12.5 -37.5 12.5c-16 0 -28.833 -4.16699 -38.5 -12.5s-14.5 -19.5 -14.5 -33.5c0 -13.333 5 -24.333 15 -33s22.667 -13 38 -13zM162.998 325.995c-24.667 0 -47.833 2.33301 -69.5 7s-39.5 11.334 -53.5 20.001l9 89
c14.667 -8.66699 31.667 -15.334 51 -20.001s39 -7 59 -7c24 0 42.667 4.5 56 13.5s20 21.5 20 37.5c0 15.333 -6.33301 27.333 -19 36s-30 13 -52 13c-14 0 -27.667 -2 -41 -6l-22 52l104 98h-155v85h273v-79l-91 -83c32.667 -4.66699 58.5 -17.667 77.5 -39
s28.5 -48 28.5 -80c0 -41.333 -15.833 -74.5 -47.5 -99.5s-74.167 -37.5 -127.5 -37.5z" />
    <glyph glyph-name="fiveeighths" unicode="&#x215d;" horiz-adv-x="937" 
d="M667 744h123l-530 -744h-123zM744 -10c-51.333 0 -91.668 11.1641 -121.001 33.4971s-44 53.166 -44 92.499c0 21.333 5.33301 40.833 16 58.5s25.334 30.834 44.001 39.501c-32 18 -48 47 -48 87c0 34.667 14.167 62.834 42.5 84.501s65.166 32.5 110.499 32.5
s82 -10.833 110 -32.5s42 -49.834 42 -84.501c0 -40 -16 -69 -48 -87c19.333 -9.33301 34.333 -22.666 45 -39.999s16 -36.666 16 -57.999c0 -39.333 -14.667 -70.166 -44 -92.499s-69.666 -33.5 -120.999 -33.5zM743.998 69.9971c17.333 0 31.666 4.83105 42.999 14.498
s17 22.167 17 37.5c0 14.667 -5.66699 26.834 -17 36.501s-25.666 14.5 -42.999 14.5c-18 0 -32.5 -4.66699 -43.5 -14s-16.5 -21.666 -16.5 -36.999s5.5 -27.833 16.5 -37.5s25.5 -14.5 43.5 -14.5zM743.998 246.995c15.333 0 27.833 4.33301 37.5 13s14.5 19.667 14.5 33
c0 14 -4.83301 25.167 -14.5 33.5s-22.167 12.5 -37.5 12.5c-16 0 -28.833 -4.16699 -38.5 -12.5s-14.5 -19.5 -14.5 -33.5c0 -13.333 5 -24.333 15 -33s22.667 -13 38 -13zM170.998 325.995c-24.667 0 -48.8291 2.66699 -72.4961 8s-40.834 12 -51.501 20l9 89
c23.333 -18.667 58.666 -28 105.999 -28c25.333 0 45 4.33301 59 13s21 21.334 21 38.001c0 32.667 -26.333 49 -79 49c-38.667 0 -71.667 -3.33301 -99 -10l9 239h247v-85h-160l-3 -60c7.33301 0.666992 13.666 1.16699 18.999 1.5s9.66602 0.5 12.999 0.5
c50 0 88.667 -11.833 116 -35.5s41 -56.834 41 -99.501c0 -43.333 -15.5 -77.5 -46.5 -102.5s-73.833 -37.5 -128.5 -37.5z" />
    <glyph glyph-name="seveneighths" unicode="&#x215e;" horiz-adv-x="937" 
d="M620 744h123l-530 -744h-123zM744 -10c-51.333 0 -91.668 11.1641 -121.001 33.4971s-44 53.166 -44 92.499c0 21.333 5.33301 40.833 16 58.5s25.334 30.834 44.001 39.501c-32 18 -48 47 -48 87c0 34.667 14.167 62.834 42.5 84.501s65.166 32.5 110.499 32.5
s82 -10.833 110 -32.5s42 -49.834 42 -84.501c0 -40 -16 -69 -48 -87c19.333 -9.33301 34.333 -22.666 45 -39.999s16 -36.666 16 -57.999c0 -39.333 -14.667 -70.166 -44 -92.499s-69.666 -33.5 -120.999 -33.5zM743.998 69.9971c17.333 0 31.666 4.83105 42.999 14.498
s17 22.167 17 37.5c0 14.667 -5.66699 26.834 -17 36.501s-25.666 14.5 -42.999 14.5c-18 0 -32.5 -4.66699 -43.5 -14s-16.5 -21.666 -16.5 -36.999s5.5 -27.833 16.5 -37.5s25.5 -14.5 43.5 -14.5zM743.998 246.995c15.333 0 27.833 4.33301 37.5 13s14.5 19.667 14.5 33
c0 14 -4.83301 25.167 -14.5 33.5s-22.167 12.5 -37.5 12.5c-16 0 -28.833 -4.16699 -38.5 -12.5s-14.5 -19.5 -14.5 -33.5c0 -13.333 5 -24.333 15 -33s22.667 -13 38 -13zM73.998 337.995l157 313h-188v93h301v-84l-157 -325z" />
    <glyph glyph-name="partialdiff" unicode="&#x2202;" horiz-adv-x="620" 
d="M259 -16c-46 0 -86.834 9.00195 -122.501 27.002s-63.667 44 -84 78s-30.5 73.667 -30.5 119c0 46 10.5 88.5 31.5 127.5s50.667 70.5 89 94.5s81.5 36 129.5 36c38 0 71 -6.5 99 -19.5s49.333 -31.167 64 -54.5c0.666992 7.33301 1 19.666 1 36.999
c0 68.667 -14 120.834 -42 156.501s-68.333 53.5 -121 53.5c-28 0 -55.667 -5.16699 -83 -15.5s-50.666 -24.5 -69.999 -42.5l-16 116c21.333 19.333 48.833 34.666 82.5 45.999s69.167 17 106.5 17c90 0 159.833 -29.833 209.5 -89.5s74.5 -143.5 74.5 -251.5
c0 -85.333 -12.833 -160.833 -38.5 -226.5s-62.5 -116.834 -110.5 -153.501s-104.333 -55 -169 -55zM271.999 104.002c37.333 0 69.501 13.5 96.501 40.5s40.5 59.5 40.5 97.5c0 33.333 -10.5 59.833 -31.5 79.5s-48.833 29.5 -83.5 29.5c-38.667 0 -70.834 -13 -96.501 -39
s-38.5 -58.333 -38.5 -97c0 -34 10 -61 30 -81s47.667 -30 83 -30z" />
    <glyph glyph-name="Delta" unicode="&#x2206;" horiz-adv-x="812" 
d="M326 760h160l303 -760h-766zM585 118l-184 505l-185 -505h369z" />
    <glyph glyph-name="product" unicode="&#x220f;" horiz-adv-x="756" 
d="M91 760h574v-840h-152v714h-270v-714h-152v840z" />
    <glyph glyph-name="summation" unicode="&#x2211;" horiz-adv-x="618" 
d="M35 27l216 321l-206 306v106h522v-125h-339l188 -281l-207 -308h363v-125h-537v106z" />
    <glyph glyph-name="minus" unicode="&#x2212;" horiz-adv-x="620" 
d="M76 394h469v-118h-469v118z" />
    <glyph glyph-name="uni2215" unicode="&#x2215;" horiz-adv-x="165" 
d="M286 744h123l-530 -744h-123z" />
    <glyph glyph-name="uni2219" unicode="&#x2219;" horiz-adv-x="299" 
d="M150 296c-25.333 0 -46 7.83203 -62 23.499s-24 35.5 -24 59.5s8.16699 43.5 24.5 58.5s36.833 22.5 61.5 22.5s45 -7.66699 61 -23s24 -34.666 24 -57.999c0 -24 -8 -43.833 -24 -59.5s-36.333 -23.5 -61 -23.5z" />
    <glyph glyph-name="radical" unicode="&#x221a;" horiz-adv-x="720" 
d="M151 352h-118v114h223l114 -311l252 667h136l-325 -822h-135z" />
    <glyph glyph-name="infinity" unicode="&#x221e;" horiz-adv-x="728" 
d="M209 160c-53.333 0 -96.168 17.002 -128.501 51.002s-48.5 79.333 -48.5 136s16.167 102.167 48.5 136.5s75.166 51.5 128.499 51.5c32.667 0 62.334 -7.33301 89.001 -22s48.667 -35.334 66 -62.001c16.667 27.333 38.334 48.166 65.001 62.499s56.334 21.5 89.001 21.5
c53.333 0 96.166 -17.167 128.499 -51.5s48.5 -79.833 48.5 -136.5s-16.167 -102 -48.5 -136s-75.166 -51 -128.499 -51c-33.333 0 -63.333 7 -90 21s-48 34.333 -64 61c-17.333 -26.667 -39.333 -47 -66 -61s-56.334 -21 -89.001 -21zM509.998 268.002
c22.667 0 40.334 7 53.001 21s19 33.333 19 58s-6.33301 44 -19 58s-30.334 21 -53.001 21c-38.667 0 -69 -26.333 -91 -79c10 -25.333 22.833 -44.833 38.5 -58.5s33.167 -20.5 52.5 -20.5zM217.998 268.002c19.333 0 36.834 6.83203 52.501 20.499
s28.167 32.834 37.5 57.501c-10 26 -22.833 45.833 -38.5 59.5s-32.834 20.5 -51.501 20.5c-22.667 0 -40.334 -7 -53.001 -21s-19 -33.333 -19 -58s6.33301 -44 19 -58s30.334 -21 53.001 -21z" />
    <glyph glyph-name="integral" unicode="&#x222b;" horiz-adv-x="442" 
d="M81 -254c-19.333 0 -39.168 2 -59.501 6s-36.5 9.33301 -48.5 16l13 114c8.66699 -4.66699 20.334 -8.5 35.001 -11.5s28 -4.5 40 -4.5c28.667 0 49.5 9 62.5 27s19.5 47 19.5 87c0 21.333 -0.333008 35.666 -1 42.999l-33 523c-0.666992 8 -1 24.333 -1 49
c0 72.667 17 128.5 51 167.5s82.667 58.5 146 58.5c19.333 0 39.333 -2 60 -6s36.667 -9.33301 48 -16l-13 -114c-9.33301 4.66699 -21.333 8.5 -36 11.5s-27.667 4.5 -39 4.5c-28.667 0 -49.5 -9.16699 -62.5 -27.5s-19.5 -47.166 -19.5 -86.499
c0 -20 0.333008 -34.333 1 -43l33 -523c0.666992 -6 1 -22.333 1 -49c0 -73.333 -16.833 -129.333 -50.5 -168s-82.5 -58 -146.5 -58z" />
    <glyph glyph-name="approxequal" unicode="&#x2248;" horiz-adv-x="620" 
d="M421 102c-44.667 0 -86 15 -124 45c-27.333 21.333 -46 34.833 -56 40.5s-19.667 8.5 -29 8.5c-35.333 0 -53 -31 -53 -93h-115v15c0 64.667 13.5 114.667 40.5 150s65.167 53 114.5 53c44.667 0 86 -15 124 -45c27.333 -21.333 46 -34.833 56 -40.5s19.667 -8.5 29 -8.5
c35.333 0 53 31 53 93h115v-15c0 -64.667 -13.5 -114.667 -40.5 -150s-65.167 -53 -114.5 -53zM421 370c-44.667 0 -86 15 -124 45c-27.333 21.333 -46 34.833 -56 40.5s-19.667 8.5 -29 8.5c-35.333 0 -53 -31 -53 -93h-115v15c0 64.667 13.5 114.667 40.5 150
s65.167 53 114.5 53c44.667 0 86 -15 124 -45c27.333 -21.333 46 -34.833 56 -40.5s19.667 -8.5 29 -8.5c35.333 0 53 31 53 93h115v-15c0 -64.667 -13.5 -114.667 -40.5 -150s-65.167 -53 -114.5 -53z" />
    <glyph glyph-name="notequal" unicode="&#x2260;" horiz-adv-x="620" 
d="M180 157h-86v114h139l58 123h-197v114h250l54 114h95l-54 -114h88v-114h-140l-59 -123h199v-114h-252l-53 -114h-95z" />
    <glyph glyph-name="lessequal" unicode="&#x2264;" horiz-adv-x="620" 
d="M76 119h469v-118h-469v118zM85 340v128l450 183v-128l-301 -117l301 -118v-130z" />
    <glyph glyph-name="greaterequal" unicode="&#x2265;" horiz-adv-x="620" 
d="M76 119h469v-118h-469v118zM85 286l301 117l-301 118v130l450 -182v-128l-450 -183v128z" />
    <glyph glyph-name="lozenge" unicode="&#x25ca;" horiz-adv-x="668" 
d="M43 405l231 406h121l230 -406l-230 -405h-121zM481 405l-148 268l-146 -268l146 -266z" />
    <glyph glyph-name="uniF507" unicode="&#xf507;" horiz-adv-x="937" 
d="M670 744h123l-530 -744h-123zM625 2l157 313h-188v93h301v-84l-157 -325zM41 336v86.002c40.667 30 79 61.333 115 94c24.667 22.667 42.167 42 52.5 58s15.5 32 15.5 48c0 13.333 -5.33301 24.166 -16 32.499s-24.667 12.5 -42 12.5c-36.667 0 -71.667 -16.333 -105 -49
l-18 83c14.667 16 34.834 28.833 60.501 38.5s52.5 14.5 80.5 14.5c43.333 0 78.166 -11 104.499 -33s39.5 -51.333 39.5 -88c0 -54 -33.667 -110.667 -101 -170c-12 -10.667 -21.667 -18.834 -29 -24.501s-13.333 -10.5 -18 -14.5h162v-88h-301z" />
    <glyph glyph-name="uniF508" unicode="&#xf508;" horiz-adv-x="937" 
d="M645 744h123l-530 -744h-123zM625 2l157 313h-188v93h301v-84l-157 -325zM163 326c-24.667 0 -47.833 2.33301 -69.5 7s-39.5 11.334 -53.5 20.001l9 89c14.667 -8.66699 31.667 -15.334 51 -20.001s39 -7 59 -7c24 0 42.667 4.5 56 13.5s20 21.5 20 37.5
c0 15.333 -6.33301 27.333 -19 36s-30 13 -52 13c-14 0 -27.667 -2 -41 -6l-22 52l104 98h-155v85h273v-79l-91 -83c32.667 -4.66699 58.5 -17.667 77.5 -39s28.5 -48 28.5 -80c0 -41.333 -15.833 -74.5 -47.5 -99.5s-74.167 -37.5 -127.5 -37.5z" />
    <glyph glyph-name="uniF509" unicode="&#xf509;" horiz-adv-x="937" 
d="M655 744h123l-530 -744h-123zM625 2l157 313h-188v93h301v-84l-157 -325zM215 419h-193v82l181 243h107v-245h48v-80h-48v-83h-95v83zM215 499v130l-98 -130h98z" />
    <glyph glyph-name="uniF50A" unicode="&#xf50a;" horiz-adv-x="937" 
d="M652 744h123l-530 -744h-123zM625 2l157 313h-188v93h301v-84l-157 -325zM171 326c-24.667 0 -48.8291 2.66699 -72.4961 8s-40.834 12 -51.501 20l9 89c23.333 -18.667 58.666 -28 105.999 -28c25.333 0 45 4.33301 59 13s21 21.334 21 38.001
c0 32.667 -26.333 49 -79 49c-38.667 0 -71.667 -3.33301 -99 -10l9 239h247v-85h-160l-3 -60c7.33301 0.666992 13.666 1.16699 18.999 1.5s9.66602 0.5 12.999 0.5c50 0 88.667 -11.833 116 -35.5s41 -56.834 41 -99.501c0 -43.333 -15.5 -77.5 -46.5 -102.5
s-73.833 -37.5 -128.5 -37.5z" />
    <glyph glyph-name="uniF50B" unicode="&#xf50b;" horiz-adv-x="937" 
d="M648 744h123l-530 -744h-123zM625 2l157 313h-188v93h301v-84l-157 -325zM193 326c-48 0 -87.166 14.166 -117.499 42.499s-45.5 64.833 -45.5 109.5c0 43.333 14 89 42 137s66 91.333 114 130l125 -3c-28.667 -20.667 -56.334 -44.667 -83.001 -72
s-48.334 -54.333 -65.001 -81c14 10 33.333 15 58 15c38.667 0 70.834 -12.667 96.501 -38s38.5 -56.666 38.5 -93.999c0 -42.667 -15.167 -77.667 -45.5 -105s-69.5 -41 -117.5 -41zM193.001 407.999c18.667 0 34 5.66797 46 17.001s18 25.666 18 42.999
c0 18 -6 32.833 -18 44.5s-27.333 17.5 -46 17.5c-19.333 0 -35 -5.83301 -47 -17.5s-18 -26.5 -18 -44.5s6 -32.5 18 -43.5s27.667 -16.5 47 -16.5z" />
    <glyph glyph-name="uniF50D" unicode="&#xf50d;" horiz-adv-x="937" 
d="M685 744h123l-530 -744h-123zM626 2c29.333 21.333 57.334 45.668 84.001 73.001s48 53.666 64 78.999c-14 -9.33301 -33.333 -14 -58 -14c-38.667 0 -70.834 12.5 -96.501 37.5s-38.5 56.5 -38.5 94.5c0 42.667 15.167 77.667 45.5 105s69.5 41 117.5 41
s87.167 -14.167 117.5 -42.5s45.5 -64.833 45.5 -109.5c0 -43.333 -14 -89 -42 -137s-66 -91.333 -114 -130zM744.001 214.002c19.333 0 35 5.83203 47 17.499s18 26.5 18 44.5s-6 32.5 -18 43.5s-27.667 16.5 -47 16.5c-18.667 0 -34.167 -5.66699 -46.5 -17
s-18.5 -25.666 -18.5 -42.999c0 -18 6.16699 -32.833 18.5 -44.5s27.833 -17.5 46.5 -17.5zM41.001 336.001v86.002c40.667 30 79 61.333 115 94c24.667 22.667 42.167 42 52.5 58s15.5 32 15.5 48c0 13.333 -5.33301 24.166 -16 32.499s-24.667 12.5 -42 12.5
c-36.667 0 -71.667 -16.333 -105 -49l-18 83c14.667 16 34.834 28.833 60.501 38.5s52.5 14.5 80.5 14.5c43.333 0 78.166 -11 104.499 -33s39.5 -51.333 39.5 -88c0 -54 -33.667 -110.667 -101 -170c-12 -10.667 -21.667 -18.834 -29 -24.501s-13.333 -10.5 -18 -14.5h162
v-88h-301z" />
    <glyph glyph-name="uniF50E" unicode="&#xf50e;" horiz-adv-x="937" 
d="M680 744h123l-530 -744h-123zM626 2c29.333 21.333 57.334 45.668 84.001 73.001s48 53.666 64 78.999c-14 -9.33301 -33.333 -14 -58 -14c-38.667 0 -70.834 12.5 -96.501 37.5s-38.5 56.5 -38.5 94.5c0 42.667 15.167 77.667 45.5 105s69.5 41 117.5 41
s87.167 -14.167 117.5 -42.5s45.5 -64.833 45.5 -109.5c0 -43.333 -14 -89 -42 -137s-66 -91.333 -114 -130zM744.001 214.002c19.333 0 35 5.83203 47 17.499s18 26.5 18 44.5s-6 32.5 -18 43.5s-27.667 16.5 -47 16.5c-18.667 0 -34.167 -5.66699 -46.5 -17
s-18.5 -25.666 -18.5 -42.999c0 -18 6.16699 -32.833 18.5 -44.5s27.833 -17.5 46.5 -17.5zM215.001 419.001h-193v82l181 243h107v-245h48v-80h-48v-83h-95v83zM215.001 499.001v130l-98 -130h98z" />
    <glyph glyph-name="uniF50F" unicode="&#xf50f;" horiz-adv-x="937" 
d="M667 744h123l-530 -744h-123zM626 2c29.333 21.333 57.334 45.668 84.001 73.001s48 53.666 64 78.999c-14 -9.33301 -33.333 -14 -58 -14c-38.667 0 -70.834 12.5 -96.501 37.5s-38.5 56.5 -38.5 94.5c0 42.667 15.167 77.667 45.5 105s69.5 41 117.5 41
s87.167 -14.167 117.5 -42.5s45.5 -64.833 45.5 -109.5c0 -43.333 -14 -89 -42 -137s-66 -91.333 -114 -130zM744.001 214.002c19.333 0 35 5.83203 47 17.499s18 26.5 18 44.5s-6 32.5 -18 43.5s-27.667 16.5 -47 16.5c-18.667 0 -34.167 -5.66699 -46.5 -17
s-18.5 -25.666 -18.5 -42.999c0 -18 6.16699 -32.833 18.5 -44.5s27.833 -17.5 46.5 -17.5zM171.001 326.001c-24.667 0 -48.8291 2.66699 -72.4961 8s-40.834 12 -51.501 20l9 89c23.333 -18.667 58.666 -28 105.999 -28c25.333 0 45 4.33301 59 13s21 21.334 21 38.001
c0 32.667 -26.333 49 -79 49c-38.667 0 -71.667 -3.33301 -99 -10l9 239h247v-85h-160l-3 -60c7.33301 0.666992 13.666 1.16699 18.999 1.5s9.66602 0.5 12.999 0.5c50 0 88.667 -11.833 116 -35.5s41 -56.834 41 -99.501c0 -43.333 -15.5 -77.5 -46.5 -102.5
s-73.833 -37.5 -128.5 -37.5z" />
    <glyph glyph-name="uniF510" unicode="&#xf510;" horiz-adv-x="937" 
d="M620 744h123l-530 -744h-123zM626 2c29.333 21.333 57.334 45.668 84.001 73.001s48 53.666 64 78.999c-14 -9.33301 -33.333 -14 -58 -14c-38.667 0 -70.834 12.5 -96.501 37.5s-38.5 56.5 -38.5 94.5c0 42.667 15.167 77.667 45.5 105s69.5 41 117.5 41
s87.167 -14.167 117.5 -42.5s45.5 -64.833 45.5 -109.5c0 -43.333 -14 -89 -42 -137s-66 -91.333 -114 -130zM744.001 214.002c19.333 0 35 5.83203 47 17.499s18 26.5 18 44.5s-6 32.5 -18 43.5s-27.667 16.5 -47 16.5c-18.667 0 -34.167 -5.66699 -46.5 -17
s-18.5 -25.666 -18.5 -42.999c0 -18 6.16699 -32.833 18.5 -44.5s27.833 -17.5 46.5 -17.5zM74.001 338.001l157 313h-188v93h301v-84l-157 -325z" />
    <glyph glyph-name="uniF511" unicode="&#xf511;" horiz-adv-x="937" 
d="M676 744h123l-530 -744h-123zM626 2c29.333 21.333 57.334 45.668 84.001 73.001s48 53.666 64 78.999c-14 -9.33301 -33.333 -14 -58 -14c-38.667 0 -70.834 12.5 -96.501 37.5s-38.5 56.5 -38.5 94.5c0 42.667 15.167 77.667 45.5 105s69.5 41 117.5 41
s87.167 -14.167 117.5 -42.5s45.5 -64.833 45.5 -109.5c0 -43.333 -14 -89 -42 -137s-66 -91.333 -114 -130zM744.001 214.002c19.333 0 35 5.83203 47 17.499s18 26.5 18 44.5s-6 32.5 -18 43.5s-27.667 16.5 -47 16.5c-18.667 0 -34.167 -5.66699 -46.5 -17
s-18.5 -25.666 -18.5 -42.999c0 -18 6.16699 -32.833 18.5 -44.5s27.833 -17.5 46.5 -17.5zM193.001 326.001c-51.333 0 -91.668 11.1641 -121.001 33.4971s-44 53.166 -44 92.499c0 21.333 5.33301 40.833 16 58.5s25.334 30.834 44.001 39.501c-32 18 -48 47 -48 87
c0 34.667 14.167 62.834 42.5 84.501s65.166 32.5 110.499 32.5s82 -10.833 110 -32.5s42 -49.834 42 -84.501c0 -40 -16 -69 -48 -87c19.333 -9.33301 34.333 -22.666 45 -39.999s16 -36.666 16 -57.999c0 -39.333 -14.667 -70.166 -44 -92.499
s-69.666 -33.5 -120.999 -33.5zM192.999 405.998c17.333 0 31.666 4.83105 42.999 14.498s17 22.167 17 37.5c0 14.667 -5.66699 26.834 -17 36.501s-25.666 14.5 -42.999 14.5c-18 0 -32.5 -4.66699 -43.5 -14s-16.5 -21.666 -16.5 -36.999s5.5 -27.833 16.5 -37.5
s25.5 -14.5 43.5 -14.5zM192.999 582.996c15.333 0 27.833 4.33301 37.5 13s14.5 19.667 14.5 33c0 14 -4.83301 25.167 -14.5 33.5s-22.167 12.5 -37.5 12.5c-16 0 -28.833 -4.16699 -38.5 -12.5s-14.5 -19.5 -14.5 -33.5c0 -13.333 5 -24.333 15 -33s22.667 -13 38 -13z
" />
    <glyph glyph-name="uniFB01" unicode="&#xfb01;" horiz-adv-x="707" 
d="M118 394h-92v115h92v63c0 78 18.167 138 54.5 180s88.5 63 156.5 63c35.333 0 68 -5.33301 98 -16l-9 -117c-18 8 -39 12 -63 12c-34.667 0 -59.667 -10.5 -75 -31.5s-23 -54.833 -23 -101.5v-52h137v-115h-137v-394h-139v394zM494 509h139v-509h-139v509zM563 613
c-24 0 -43.833 7.83105 -59.5 23.498s-23.5 34.834 -23.5 57.501s7.83301 41.667 23.5 57s35.5 23 59.5 23s43.833 -7.66699 59.5 -23s23.5 -34.333 23.5 -57c0 -23.333 -7.83301 -42.666 -23.5 -57.999s-35.5 -23 -59.5 -23z" />
    <glyph glyph-name="uniFB02" unicode="&#xfb02;" horiz-adv-x="707" 
d="M118 394h-92v115h92v63c0 78 18.167 138 54.5 180s88.5 63 156.5 63c35.333 0 68 -5.33301 98 -16l-9 -117c-18 8 -39 12 -63 12c-34.667 0 -59.667 -10.5 -75 -31.5s-23 -54.833 -23 -101.5v-52h137v-115h-137v-394h-139v394zM494 810h139v-810h-139v810z" />
    <glyph glyph-name="uniFEFF" unicode="&#xfeff;" horiz-adv-x="0" 
 />
    <glyph glyph-name=".null" horiz-adv-x="0" 
 />
    <glyph glyph-name="nonmarkingreturn" horiz-adv-x="333" 
 />
    <glyph glyph-name="zero.pnum" horiz-adv-x="645" 
d="M322 111c43.333 0 76.166 22 98.499 66s33.5 109 33.5 195s-11.167 151 -33.5 195s-55.166 66 -98.499 66c-87.333 0 -131 -87 -131 -261s43.667 -261 131 -261zM322 -16c-88.667 0 -158 34.167 -208 102.5s-75 163.5 -75 285.5s25 217.167 75 285.5
s119.333 102.5 208 102.5s158.167 -34.333 208.5 -103s75.5 -163.667 75.5 -285s-25.167 -216.333 -75.5 -285s-119.833 -103 -208.5 -103z" />
    <glyph glyph-name="one.pnum" horiz-adv-x="510" 
d="M253 599l-193 -86l-23 123l245 108h112v-744h-141v599z" />
    <glyph glyph-name="two.pnum" horiz-adv-x="620" 
d="M61 0v110c80.667 72.667 145 136.667 193 192s81 99.5 99 132.5s27 65.5 27 97.5c0 32.667 -10 58.5 -30 77.5s-46.667 28.5 -80 28.5c-32 0 -63.333 -7.5 -94 -22.5s-58.667 -36.167 -84 -63.5l-25 121c27.333 27.333 61 48.666 101 63.999s81.667 23 125 23
c71.333 0 128.166 -19 170.499 -57s63.5 -89 63.5 -153c0 -48 -12.167 -96.5 -36.5 -145.5s-63.166 -103.5 -116.499 -163.5c-22.667 -25.333 -61 -63.666 -115 -114.999h290v-126h-488z" />
    <glyph glyph-name="three.pnum" horiz-adv-x="600" 
d="M251 -16c-41.333 0 -79.999 4.33203 -115.999 12.999s-66 20.667 -90 36l12 120c58 -32.667 120.333 -49 187 -49c46 0 81.833 10.667 107.5 32s38.5 50.666 38.5 87.999c0 36.667 -12.333 65.334 -37 86.001s-59.334 31 -104.001 31c-18 0 -40.333 -2.66699 -67 -8
l-35 80l194 208h-283v123h454v-106l-185 -199c42.667 -3.33301 79.667 -14.166 111 -32.499s55.5 -43 72.5 -74s25.5 -67.167 25.5 -108.5c0 -74 -25.5 -132.5 -76.5 -175.5s-120.5 -64.5 -208.5 -64.5z" />
    <glyph glyph-name="four.pnum" horiz-adv-x="643" 
d="M372 167h-335v114l325 463h145v-461h91v-116h-91v-167h-135v167zM372 283v284l-200 -284h200z" />
    <glyph glyph-name="five.pnum" horiz-adv-x="606" 
d="M262 -16c-38.667 0 -77.5029 4.33203 -116.503 12.999s-69.833 19.667 -92.5 33l12 122c26.667 -15.333 56.334 -27.166 89.001 -35.499s64.334 -12.5 95.001 -12.5c48.667 0 86.834 11.333 114.501 34s41.5 54.334 41.5 95.001c0 37.333 -15.5 67.333 -46.5 90
s-72.167 34 -123.5 34c-20.667 0 -45 -1.83301 -73 -5.5s-54 -8.16699 -78 -13.5l16 406h403v-124h-280l-6 -155c22 4 43.667 6 65 6c82 0 147.167 -21.333 195.5 -64s72.5 -99.667 72.5 -171c0 -76.667 -26 -137.834 -78 -183.501s-122 -68.5 -210 -68.5z" />
    <glyph glyph-name="six.pnum" horiz-adv-x="629" 
d="M318 -16c-81.333 0 -146.002 23.665 -194.002 70.998s-72 111 -72 191c0 80.667 25.167 166.334 75.5 257.001s117.5 171.667 201.5 243l172 -5c-126 -103.333 -214.333 -207 -265 -311c29.333 23.333 69.333 35 120 35c41.333 0 79.333 -9.66699 114 -29
s62.334 -46.666 83.001 -81.999s31 -75.666 31 -120.999c0 -46.667 -10.833 -88.834 -32.5 -126.501s-52.667 -67.5 -93 -89.5s-87.166 -33 -140.499 -33zM317.998 100.998c36 0 65.832 11.833 89.499 35.5s35.5 54.167 35.5 91.5c0 38 -11.5 68.833 -34.5 92.5
s-53.167 35.5 -90.5 35.5c-36 0 -66 -12 -90 -36s-36 -54.667 -36 -92c0 -36.667 11.833 -67 35.5 -91s53.834 -36 90.501 -36z" />
    <glyph glyph-name="seven.pnum" horiz-adv-x="588" 
d="M124 3l270 609h-347v132h500v-118l-274 -628z" />
    <glyph glyph-name="eight.pnum" horiz-adv-x="636" 
d="M318 -16c-53.333 0 -100.501 8.83203 -141.501 26.499s-73 43 -96 76s-34.5 71.833 -34.5 116.5c0 42.667 10.833 80.667 32.5 114s50.834 57.333 87.501 72c-32.667 15.333 -57.667 37.5 -75 66.5s-26 62.5 -26 100.5c0 39.333 10.333 74.333 31 105
s50.167 54.834 88.5 72.501s82.833 26.5 133.5 26.5c48 0 91.167 -8.33301 129.5 -25s68.5 -40.5 90.5 -71.5s33 -66.833 33 -107.5c0 -38 -8.83301 -71.5 -26.5 -100.5s-42.834 -51.167 -75.501 -66.5c37.333 -14.667 66.833 -38.5 88.5 -71.5s32.5 -71.167 32.5 -114.5
s-10.833 -81.5 -32.5 -114.5s-53.167 -58.667 -94.5 -77s-89.666 -27.5 -144.999 -27.5zM317.999 100.999c39.333 0 70.5 10.167 93.5 30.5s34.5 47.833 34.5 82.5s-11.667 62.334 -35 83.001s-54.333 31 -93 31s-69.667 -10.333 -93 -31s-35 -48.334 -35 -83.001
s11.5 -62.167 34.5 -82.5s54.167 -30.5 93.5 -30.5zM317.999 440.999c36 0 64.498 9.33301 85.498 28s31.5 43.667 31.5 75s-10.667 56.5 -32 75.5s-49.666 28.5 -84.999 28.5s-63.666 -9.5 -84.999 -28.5s-32 -44.167 -32 -75.5s10.5 -56.333 31.5 -75s49.5 -28 85.5 -28z
" />
    <glyph glyph-name="nine.pnum" horiz-adv-x="629" 
d="M128 3c126.667 104.667 214.669 208.002 264.002 310.002c-29.333 -22.667 -69 -34 -119 -34c-41.333 0 -79.333 9.66699 -114 29s-62.334 46.666 -83.001 81.999s-31 75.666 -31 120.999c0 46.667 10.833 88.834 32.5 126.501s52.667 67.5 93 89.5s87.166 33 140.499 33
c81.333 0 146 -23.667 194 -71s72 -111 72 -191c0 -80.667 -25.167 -166.334 -75.5 -257.001s-117.5 -171.667 -201.5 -243zM311.002 388.002c36 0 66.001 12 90.001 36s36 54.667 36 92c0 36.667 -11.833 67 -35.5 91s-53.834 36 -90.501 36
c-36 0 -65.833 -11.833 -89.5 -35.5s-35.5 -54.167 -35.5 -91.5c0 -38 11.5 -68.833 34.5 -92.5s53.167 -35.5 90.5 -35.5z" />
    <glyph glyph-name="zero.dnom" 
d="M194 -10c-54.667 0 -98 19.167 -130 57.5s-48 90.5 -48 156.5s16 118.167 48 156.5s75.333 57.5 130 57.5s97.834 -19.167 129.501 -57.5s47.5 -90.5 47.5 -156.5s-15.833 -118.167 -47.5 -156.5s-74.834 -57.5 -129.501 -57.5zM194 80c22.667 0 39.834 10.5 51.501 31.5
s17.5 51.833 17.5 92.5s-5.83301 71.5 -17.5 92.5s-28.834 31.5 -51.501 31.5c-23.333 0 -41 -10.5 -53 -31.5s-18 -51.833 -18 -92.5s6 -71.5 18 -92.5s29.667 -31.5 53 -31.5z" />
    <glyph glyph-name="one.dnom" 
d="M173 301l-106 -48l-15 94l133 61h94v-408h-106v301z" />
    </font>
</defs>
</svg>
