<?xml version="1.0" encoding="UTF-8"?>
<svg width="19px" height="17px" viewBox="0 0 19 17" version="1.1" xmlns="http://www.w3.org/2000/svg" xmlns:xlink="http://www.w3.org/1999/xlink">
    <!-- Generator: sketchtool 52.2 (67145) - http://www.bohemiancoding.com/sketch -->
    <title>147E222A-A1DD-4ECD-8DC5-AD5E6478CB89</title>
    <desc>Created with sketchtool.</desc>
    <g id="Symbols" stroke="none" stroke-width="1" fill="none" fill-rule="evenodd">
        <g id="featured-slider-arrow" transform="translate(-23.000000, -24.000000)" fill="#CF045F">
            <g id="noun_698570" transform="translate(32.500000, 32.500000) scale(-1, 1) translate(-32.500000, -32.500000) translate(23.000000, 24.000000)">
                <path d="M19,8.49998024 C19,8.29293844 18.8733731,8.01803096 18.7448959,7.88462589 L11.5068795,0.279257736 C11.1689482,-0.0662443811 10.6214725,-0.106283795 10.2275089,0.244363052 C9.87528235,0.557833638 9.86650609,1.16920641 10.1922229,1.50960854 L16.0024053,7.60506578 L0.904769014,7.60506578 C0.405065087,7.60506578 0,8.00563887 0,8.49980129 C0,8.99396372 0.405065087,9.39458154 0.904769014,9.39458154 L16.0024053,9.39458154 L10.1922229,15.4900567 C9.86655133,15.8304141 9.88966818,16.4267553 10.2275089,16.7552574 C10.584196,17.1020569 11.1741054,17.0711885 11.5068795,16.7203627 L18.7448959,9.11502143 C18.9575663,8.90874016 18.9964262,8.71006414 19,8.49998024 Z" id="Path"></path>
            </g>
        </g>
    </g>
</svg>