<svg width="26" height="18" viewBox="0 0 26 18" fill="none" xmlns="http://www.w3.org/2000/svg">
<path fill-rule="evenodd" clip-rule="evenodd" d="M23 1C23 0.448 22.552 0 22 0H4C3.448 0 3 0.448 3 1V8H23V1ZM11 7H7C6.448 7 6 6.552 6 6C6 5.448 6.448 5 7 5H11C11.552 5 12 5.448 12 6C12 6.552 11.552 7 11 7ZM15 7H19C19.552 7 20 6.552 20 6C20 5.448 19.552 5 19 5H15C14.448 5 14 5.448 14 6C14 6.552 14.448 7 15 7Z" fill="white"/>
<path fill-rule="evenodd" clip-rule="evenodd" d="M0 10V15C0 15.552 0.448 16 1 16H2V17C2 17.552 2.448 18 3 18C3.552 18 4 17.552 4 17V16H22V17C22 17.552 22.448 18 23 18C23.552 18 24 17.552 24 17V16H25C25.552 16 26 15.552 26 15V10H0Z" fill="white"/>
</svg>
