<svg width="17" height="21" viewBox="0 0 17 21" fill="none" xmlns="http://www.w3.org/2000/svg">
<path fill-rule="evenodd" clip-rule="evenodd" d="M4.01221 7.31842C4.35329 6.39029 5.71761 6.39029 6.60442 5.72734C6.87728 5.52845 7.15014 5.26327 7.15014 4.8655C7.01371 3.5396 6.5362 1.35186 6.05869 0.490026C5.92226 0.224846 5.71761 0.0259608 5.30831 0.0259608C4.08043 -0.172924 1.89752 0.821501 1.55644 1.28557C-3.83262 7.64989 5.85404 22.6989 14.1082 20.8426C14.6539 20.71 16.5639 19.1852 16.9732 18.0582C17.0415 17.7267 16.9732 17.3953 16.8368 17.1964C16.2229 16.4008 14.381 15.0086 13.2214 14.3457C12.8803 14.1468 12.5392 14.2794 12.1981 14.412C11.1749 14.9423 10.6292 16.1357 9.60592 16.0031C7.69587 15.7379 3.39827 9.10838 4.01221 7.31842Z" fill="#CF045F"/>
</svg>
