<svg width="22" height="12" viewBox="0 0 22 12" fill="none" xmlns="http://www.w3.org/2000/svg">
<path fill-rule="evenodd" clip-rule="evenodd" d="M6.41667 7.2V5.14286H12.4758C12.5151 5.35696 12.5501 5.57106 12.567 5.81944C12.5738 5.91909 12.5776 6.02425 12.5776 6.13714C12.5776 9.56571 10.12 12 6.41667 12C2.86917 12 0 9.31714 0 6C0 2.68286 2.86917 0 6.41667 0C8.14917 0 9.5975 0.591429 10.7158 1.56857L8.97417 3.13714C8.4975 2.70857 7.66333 2.21143 6.41667 2.21143C4.22583 2.21143 2.43833 3.90857 2.43833 6C2.43833 8.09229 4.22583 9.78857 6.41667 9.78857C8.95583 9.78857 9.90917 8.082 10.0558 7.2H6.41667ZM19.25 6.85714H22V5.14286H19.25V2.57143H17.4167V5.14286H14.6667V6.05042V6.85714H17.4167V9.42857H19.25V6.85714Z" fill="white"/>
</svg>
