<svg width="48" height="56" viewBox="0 0 48 56" fill="none" xmlns="http://www.w3.org/2000/svg">
<path fill-rule="evenodd" clip-rule="evenodd" d="M28.3219 49.4559C28.3219 51.5147 26.7425 53.1324 24.8884 53.1324H21.1116C19.1888 53.1324 17.6781 51.4412 17.6781 49.4559V46.4412C16.7854 46.3676 15.824 46.2206 15 46.0735V49.4559C15 53.0588 17.7468 56 21.1116 56H24.8884C28.2532 56 31 53.0588 31 49.4559V46C30.1073 46.1471 29.2146 46.2941 28.3219 46.3676V49.4559Z" fill="white"/>
<path fill-rule="evenodd" clip-rule="evenodd" d="M22.5 15C18.3645 15 15 11.6355 15 7.5C15 3.36449 18.3645 0 22.5 0C26.6355 0 30 3.36449 30 7.5C30 11.6355 26.6355 15 22.5 15ZM27.2664 7.5C27.2664 4.83645 25.0935 2.73364 22.5 2.73364C19.9065 2.73364 17.8037 4.83645 17.7336 7.5C17.7336 10.1636 19.9065 12.2664 22.5 12.2664C25.1636 12.2664 27.2664 10.0935 27.2664 7.5Z" fill="white"/>
<path fill-rule="evenodd" clip-rule="evenodd" d="M47.9716 39.6651C47.5604 37.4764 46.8066 35.2877 45.7101 33.0307C45.5045 32.6203 45.2304 32.1415 44.9563 31.6627C44.8877 31.5259 44.7507 31.4575 44.6136 31.4575C44.4765 31.4575 44.3395 31.4575 44.2709 31.5943C42.4891 33.2358 40.4332 34.8774 38.1717 36.5189C37.5182 36.9847 36.8329 37.4506 36.1159 37.9381C35.7801 38.1663 35.4375 38.3992 35.0878 38.6392C34.9507 38.7759 34.8822 38.9127 34.8822 39.1179C34.9507 39.3231 35.0878 39.4599 35.2934 39.4599C35.5333 39.4941 35.7902 39.5112 36.0472 39.5283C36.3042 39.5454 36.5612 39.5625 36.8011 39.5967C37.0752 39.6309 37.3321 39.648 37.5891 39.6651L37.5892 39.6651L37.5893 39.6651C37.8462 39.6822 38.1032 39.6993 38.3773 39.7335C38.1032 39.8703 37.829 40.0071 37.4864 40.0755C37.2415 40.1569 36.9967 40.2444 36.75 40.3326L36.7499 40.3327C36.1682 40.5406 35.5763 40.7521 34.9507 40.8962C33.7172 41.2382 32.4151 41.5118 31.0445 41.717V38.9811C32.4836 37.8184 33.3745 36.0401 33.3745 34.1934V22.0873C33.3745 18.7358 30.6333 16 27.2753 16H18.7775C15.4194 16 12.6782 18.7358 12.6782 22.0873V26.875C5.00275 28.3797 0 31.5943 0 35.4929C0 36.1085 0.137062 36.7241 0.411185 37.3396C2.39858 41.8538 11.3761 45 22.8208 45C31.8669 45 39.4053 43.0165 43.1059 39.9387C43.858 39.9728 44.5929 40.0069 45.3279 40.041L45.3332 40.0413L45.3385 40.0415C46.0734 40.0756 46.8084 40.1098 47.5604 40.1439H47.629C47.6975 40.1439 47.8346 40.0755 47.9031 40.0071C47.9716 39.9387 48.0401 39.8019 47.9716 39.6651ZM14.9397 41.7854C12.4041 41.375 10.074 40.8278 8.08664 40.0755C5.41394 39.0495 3.63214 37.8184 2.94683 36.5873C2.91256 36.5189 2.8783 36.4334 2.84403 36.3479C2.80977 36.2624 2.7755 36.1769 2.74124 36.1085C2.6727 35.9033 2.6727 35.7665 2.6727 35.5613C2.6727 33.9882 4.72863 32.2783 8.08664 30.9788C9.45726 30.4316 10.9649 30.0212 12.6097 29.6792V34.1934C12.6097 36.0401 13.5006 37.8184 14.9397 38.9811V41.7854ZM28.92 37.1344C30.0165 36.5189 30.4962 35.3561 30.4962 34.1934V22.0873C30.4962 20.2406 28.9886 18.6675 27.0697 18.6675H18.6404C16.7901 18.6675 15.2139 20.1722 15.2139 22.0873V34.125C15.2139 35.2877 15.8992 36.4505 16.9271 37.066C17.3383 37.3396 17.6124 37.75 17.6124 38.2288V42.1274C19.2572 42.3325 20.9704 42.4009 22.7523 42.4009C24.6026 42.4009 26.4529 42.3325 28.2347 42.1274V38.2972C28.2347 37.8184 28.5088 37.408 28.92 37.1344Z" fill="white"/>
</svg>
