<svg width="54" height="54" viewBox="0 0 54 54" fill="none" xmlns="http://www.w3.org/2000/svg">
<path fill-rule="evenodd" clip-rule="evenodd" d="M0.774754 54H53.2204C53.6478 54 53.9949 53.6549 53.9956 53.2286V18.7297C54.0019 18.6723 54.0013 18.6144 53.9949 18.5577C53.9918 18.5332 53.9873 18.5086 53.9823 18.4841C53.9241 18.1667 53.6699 17.9167 53.3488 17.8638L45.3653 14.6275V0.771429C45.3653 0.345096 45.0188 0 44.5907 0H9.62697C9.19894 0 8.85246 0.345096 8.85246 0.771429V14.6225L0.507941 17.9003C0.461787 17.9173 0.418161 17.9381 0.377064 17.9626C0.278432 18.0212 0.196239 18.0993 0.134278 18.1906C0.0723168 18.2813 0.0286912 18.3858 0.0103557 18.4985C0.00276865 18.5464 -0.00102489 18.5943 0.000239626 18.6428V53.2286C0.000239626 53.6549 0.346716 54 0.774754 54ZM52.4459 52.4571H1.54927V19.9847L26.6612 37.7484C26.9299 37.9385 27.2897 37.9385 27.5584 37.7484L52.4459 20.1434V52.4571ZM10.4009 24.3538L27.1095 36.1734L43.815 24.3557V24.3545V1.54286H10.4002V15.1301V15.1653V24.3538H10.4009ZM45.3646 23.26V16.2932L51.6259 18.831L45.3646 23.26ZM2.5103 18.7725L8.85183 23.2587V16.2812L2.5103 18.7725ZM3.71032 42.0721C3.71032 46.678 6.97908 50.0213 11.4826 50.0213C13.2466 50.0213 14.6262 49.7102 15.9559 49.0106C16.334 48.8116 16.4787 48.345 16.2796 47.9684C16.0804 47.5918 15.6113 47.4476 15.2332 47.6459C14.1388 48.2209 12.9824 48.4772 11.4833 48.4772C8.39091 48.4772 5.25998 46.2769 5.25998 42.0715C5.25998 38.0651 7.88953 34.0096 12.9153 34.0096C16.4168 34.0096 18.8617 36.4259 18.8617 39.8863C18.8617 42.9746 17.1837 44.5898 15.5253 44.5898C15.2212 44.5898 14.9443 44.4828 14.766 44.2964C14.575 44.0967 14.484 43.802 14.4953 43.4204L15.5917 37.2842C15.6284 37.0802 15.5809 36.8699 15.4595 36.7011C15.3381 36.5323 15.1542 36.419 14.9487 36.3869C14.8519 36.3718 13.987 36.2395 13.4458 36.2395C10.0006 36.2395 7.19785 39.0318 7.19785 42.4632C7.19785 44.8726 8.84234 46.1333 10.4666 46.1333C11.8196 46.1333 12.7642 45.6138 13.3921 45.0483C13.4743 45.1704 13.5609 45.2737 13.6437 45.3606C14.1135 45.8518 14.7995 46.1333 15.5253 46.1333C17.9532 46.1333 20.4107 43.9878 20.4107 39.8869C20.4107 35.5185 17.3285 32.4674 12.9153 32.4674C7.66761 32.4674 3.71032 36.5966 3.71032 42.0721ZM13.4458 37.783C10.5431 37.783 8.74687 40.2125 8.74687 42.4638C8.74687 43.7164 9.45374 44.5905 10.4666 44.5905C12.1326 44.5905 12.8344 43.3921 12.9779 43.1055L13.9238 37.8126C13.7468 37.7956 13.5754 37.783 13.4458 37.783ZM16.9289 22.9224H39.0579C39.4853 22.9224 39.8324 22.5774 39.8324 22.151C39.8324 21.7247 39.4859 21.3796 39.0579 21.3796H16.9289C16.5009 21.3796 16.1544 21.7247 16.1544 22.151C16.1544 22.5774 16.5009 22.9224 16.9289 22.9224ZM39.0579 16.0898H16.9289C16.5009 16.0898 16.1544 15.7447 16.1544 15.3184C16.1544 14.892 16.5009 14.5469 16.9289 14.5469H39.0579C39.4859 14.5469 39.8324 14.892 39.8324 15.3184C39.8324 15.7447 39.4853 16.0898 39.0579 16.0898ZM16.9289 9.03673H39.0579C39.4853 9.03673 39.8324 8.69164 39.8324 8.26531C39.8324 7.83897 39.4859 7.49388 39.0579 7.49388H16.9289C16.5009 7.49388 16.1544 7.83897 16.1544 8.26531C16.1544 8.69164 16.5009 9.03673 16.9289 9.03673Z" fill="white"/>
</svg>
