<svg width="55" height="55" viewBox="0 0 55 55" fill="none" xmlns="http://www.w3.org/2000/svg">
<path fill-rule="evenodd" clip-rule="evenodd" d="M11.524 20.896C10.8253 21.5988 10.8253 22.7701 11.524 23.4729C11.8733 23.8243 12.339 24 12.8048 24C13.2705 24 13.7363 23.8243 14.0856 23.4729C21.7705 15.7423 34.2877 15.7423 41.9144 23.4729C42.613 24.1757 43.7774 24.1757 44.476 23.4729C45.1747 22.7701 45.1747 21.5988 44.476 20.896C35.3938 11.7013 20.6062 11.7013 11.524 20.896Z" fill="white"/>
<path fill-rule="evenodd" clip-rule="evenodd" d="M15.5167 25.8881C14.8278 26.5927 14.8278 27.767 15.5167 28.4716C15.8612 28.8239 16.3206 29 16.7799 29C17.2392 29 17.6986 28.8239 18.0431 28.4716C22.9809 23.422 31.0191 23.422 35.9569 28.4716C36.6459 29.1761 37.7943 29.1761 38.4833 28.4716C39.1722 27.767 39.1722 26.5927 38.4833 25.8881C32.1675 19.3706 21.8325 19.3706 15.5167 25.8881Z" fill="white"/>
<path fill-rule="evenodd" clip-rule="evenodd" d="M20.5357 30.8747C19.8214 31.5823 19.8214 32.7617 20.5357 33.4693C20.8929 33.8231 21.369 34 21.8452 34C22.3214 34 22.7976 33.8231 23.1548 33.4693C25.5357 31.1106 29.4643 31.0516 31.8452 33.4693C32.5595 34.1769 33.75 34.1769 34.4643 33.4693C35.1786 32.7617 35.1786 31.5823 34.4643 30.8747C30.6548 27.0418 24.3452 27.0418 20.5357 30.8747Z" fill="white"/>
<path fill-rule="evenodd" clip-rule="evenodd" d="M27.4742 35C26.0825 35 25 36.134 25 37.4742C25 38.866 26.134 40 27.4742 40C28.866 40 30 38.866 30 37.4742C30 36.0825 28.866 35 27.4742 35Z" fill="white"/>
<path fill-rule="evenodd" clip-rule="evenodd" d="M12.7813 0H42.1609C49.2166 0 54.9422 5.72555 55 12.7813V42.2187C55 49.2744 49.2744 55 42.2187 55H12.7813C5.72555 55 0 49.2744 0 42.2187V12.7813C0 5.72555 5.72555 0 12.7813 0ZM42.1609 51.2986C47.1924 51.2986 51.2986 47.1924 51.2986 42.1609H51.3565V12.7813C51.3565 7.74974 47.2503 3.64353 42.2187 3.64353H12.7813C7.74974 3.64353 3.64353 7.74974 3.64353 12.7813V42.1609C3.64353 47.1924 7.74974 51.2986 12.7813 51.2986H42.1609Z" fill="white"/>
</svg>
