<svg width="14" height="14" viewBox="0 0 14 14" fill="none" xmlns="http://www.w3.org/2000/svg">
<path fill-rule="evenodd" clip-rule="evenodd" d="M0 6.99998C0 6.82948 0.0933037 6.60308 0.187971 6.49322L5.52125 0.229977C5.77025 -0.0545542 6.17365 -0.0875278 6.46394 0.20124C6.72348 0.459392 6.72994 0.962876 6.48994 1.24321L2.20875 6.263H13.3333C13.7015 6.263 14 6.59288 14 6.99984C14 7.40679 13.7015 7.73671 13.3333 7.73671H2.20875L6.48994 12.7565C6.72991 13.0368 6.71288 13.5279 6.46394 13.7984C6.20112 14.084 5.76645 14.0586 5.52125 13.7697L0.187971 7.50649C0.0312662 7.33661 0.00263309 7.17299 0 6.99998Z" fill="white"/>
</svg>
