<svg width="14" height="14" viewBox="0 0 14 14" fill="none" xmlns="http://www.w3.org/2000/svg">
<path fill-rule="evenodd" clip-rule="evenodd" d="M14 6.99998C14 6.82948 13.9067 6.60308 13.812 6.49322L8.47875 0.229977C8.22975 -0.0545542 7.82635 -0.0875278 7.53606 0.20124C7.27652 0.459392 7.27006 0.962876 7.51006 1.24321L11.7912 6.263H0.666672C0.298469 6.263 0 6.59288 0 6.99984C0 7.40679 0.298469 7.73671 0.666672 7.73671H11.7912L7.51006 12.7565C7.27009 13.0368 7.28712 13.5279 7.53606 13.7984C7.79888 14.084 8.23355 14.0586 8.47875 13.7697L13.812 7.50649C13.9687 7.33661 13.9974 7.17299 14 6.99998Z" fill="white"/>
</svg>
