<svg width="17" height="10" viewBox="0 0 17 10" fill="none" xmlns="http://www.w3.org/2000/svg">
<path fill-rule="evenodd" clip-rule="evenodd" d="M5 5.99929C5 6.55115 4.55134 7 4.00099 7C3.44719 7 3 6.55115 3 5.99929C3 5.44671 3.44719 5 4.00099 5C4.55137 5 5 5.44674 5 5.99929Z" fill="white"/>
<path fill-rule="evenodd" clip-rule="evenodd" d="M14 5.99929C14 6.55115 13.5536 7 13.0005 7C12.4465 7 12 6.55115 12 5.99929C12 5.44671 12.4465 5 13.0005 5C13.5536 5 14 5.44674 14 5.99929Z" fill="white"/>
<path fill-rule="evenodd" clip-rule="evenodd" d="M16.9962 1.56503C16.9962 1.56503 16.3598 2.40955 16.159 3.25459C16.3948 3.56971 16.5922 3.92148 16.736 4.30809C17.5494 6.49224 16.4196 8.92757 14.2176 9.73645C13.151 10.1277 11.9939 10.0819 10.9604 9.60851C10.3385 9.32376 9.80863 8.90372 9.39826 8.38485L8.48377 9.74248L7.57804 8.39582C6.79721 9.36143 5.60123 9.98106 4.25985 9.98106C1.91166 9.98106 0.00243866 8.08643 0.00243866 5.75703C0.00243866 4.82201 0.313587 3.95962 0.833331 3.25887C0.628629 2.4192 0 1.58531 0 1.58531L2.66524 1.58262C4.24919 0.555487 6.25805 0 8.48182 0C10.6272 0 12.5627 0.541469 14.156 1.56337L16.9962 1.56503ZM11.2681 1.80753C11.7095 1.64585 12.1608 1.56503 12.6071 1.55153C11.3891 1.01053 10.0099 0.736657 8.48182 0.736675C6.96399 0.736675 5.56378 1.01828 4.34497 1.53537C6.54779 1.57878 8.34274 3.29052 8.50025 5.44917C8.53916 4.95586 8.6607 4.46731 8.87515 4.00404C9.35106 2.97876 10.2004 2.19845 11.2681 1.80753ZM4.25984 9.12812C2.38616 9.12812 0.861995 7.61496 0.861995 5.75705C0.861995 3.89688 2.38616 2.38375 4.25984 2.38375C6.13258 2.38375 7.65675 3.89688 7.65675 5.75705C7.65677 7.61496 6.1326 9.12812 4.25984 9.12812ZM11.3196 8.83421C12.1452 9.21201 13.0689 9.24832 13.9196 8.9366C15.6767 8.29108 16.5791 6.34704 15.9295 4.60417C15.281 2.85912 13.3231 1.96417 11.5651 2.60817C10.7143 2.91991 10.0357 3.54265 9.65592 4.36096C9.27726 5.17891 9.2407 6.09502 9.55583 6.93999L9.55625 6.94055C9.86934 7.78457 10.4961 8.45704 11.3196 8.83421Z" fill="white"/>
<path fill-rule="evenodd" clip-rule="evenodd" d="M2 5.99943C2 4.89716 2.89849 4 4.00231 4C5.10383 4 6 4.89716 6 5.99943C6 7.10243 5.10383 8 4.00231 8C2.89849 8 2 7.10243 2 5.99943ZM2.68891 5.99943C2.68891 6.72258 3.27737 7.31104 4.00231 7.31104C4.72404 7.31104 5.31115 6.72258 5.31115 5.99943C5.31115 5.27648 4.72404 4.68875 4.00231 4.68875C3.27735 4.68875 2.68891 5.2765 2.68891 5.99943Z" fill="white"/>
<path fill-rule="evenodd" clip-rule="evenodd" d="M11 5.99943C11 4.89716 11.8976 4 13.001 4C14.1029 4 15 4.89716 15 5.99943C15 7.10243 14.1029 8 13.001 8C11.8976 8 11 7.10243 11 5.99943ZM11.689 5.99943C11.689 6.72258 12.2774 7.31104 13.001 7.31104C13.7231 7.31104 14.3111 6.72258 14.3111 5.99943C14.3111 5.27648 13.7231 4.68875 13.001 4.68875C12.2774 4.68875 11.689 5.2765 11.689 5.99943Z" fill="white"/>
</svg>
