<svg width="17" height="14" viewBox="0 0 17 14" fill="none" xmlns="http://www.w3.org/2000/svg">
<path fill-rule="evenodd" clip-rule="evenodd" d="M5.52699 13.5C11.6591 13.5 15.0131 8.49812 15.0131 4.16052C15.0131 4.01845 15.0131 3.87702 15.0033 3.73623C15.6558 3.27156 16.2191 2.69622 16.6667 2.03715C16.0582 2.3026 15.4127 2.47669 14.7518 2.55359C15.4478 2.14337 15.9687 1.49816 16.2175 0.738043C15.5631 1.12039 14.8471 1.38984 14.1005 1.53479C13.067 0.452876 11.4249 0.188075 10.0949 0.888867C8.76488 1.58966 8.07777 3.08176 8.41884 4.52849C5.73817 4.39618 3.2406 3.1496 1.54769 1.09898C0.662792 2.5988 1.11478 4.51752 2.57989 5.48074C2.04932 5.46526 1.53032 5.32434 1.06669 5.06989C1.06669 5.08333 1.06669 5.09741 1.06669 5.11149C1.06712 6.67399 2.18583 8.01978 3.74144 8.32917C3.2506 8.46097 2.73561 8.48023 2.23604 8.38549C2.6728 9.72262 3.92446 10.6386 5.35084 10.665C4.17026 11.5785 2.71188 12.0744 1.21034 12.0729C0.945074 12.0724 0.68007 12.0566 0.416687 12.0255C1.94135 12.9889 3.71538 13.4998 5.52699 13.4974" fill="white"/>
</svg>
