<svg width="18" height="20" viewBox="0 0 18 20" fill="none" xmlns="http://www.w3.org/2000/svg">
<path fill-rule="evenodd" clip-rule="evenodd" d="M2.3868 0H3.6828L4.572 3.08503L5.3964 0H6.705L5.2065 4.58755V7.71841H3.9186V4.58755L2.3868 0ZM8.3214 1.97752C7.3143 1.97752 6.6465 2.59419 6.6465 3.5067V6.29757C6.6465 7.30091 7.2126 7.82341 8.3214 7.82341C9.2412 7.82341 9.9648 7.25424 9.9648 6.29757V3.5067C9.9648 2.61586 9.2475 1.97752 8.3214 1.97752ZM8.3205 6.7884C8.6283 6.7884 8.7993 6.56007 8.7993 6.25006V3.60087C8.7993 3.28253 8.649 3.05837 8.298 3.05837C7.9767 3.05837 7.8219 3.2892 7.8219 3.60087V6.25006C7.8219 6.54923 8.0046 6.7884 8.3205 6.7884ZM13.0554 2.02502V6.34673C12.9159 6.5084 12.6054 6.7734 12.3831 6.7734C12.1392 6.7734 12.0789 6.6184 12.0789 6.39007V2.02502H10.9359V6.7834C10.9359 7.34591 11.1213 7.80008 11.7342 7.80008C12.0798 7.80008 12.5604 7.63341 13.0554 7.08924V7.71758H14.1984V2.02502H13.0554ZM14.5512 14.2093C14.5512 13.836 14.6349 13.5735 15.0381 13.5735C15.4305 13.5735 15.5142 13.8418 15.5133 14.2085V14.7585H14.5512V14.2093ZM10.8054 13.6068C10.7298 13.6426 10.6551 13.6976 10.5804 13.7718V17.151C10.6695 17.2393 10.755 17.3027 10.8387 17.3418C11.016 17.4252 11.2752 17.431 11.3958 17.286C11.4588 17.2093 11.4903 17.0852 11.4903 16.9118V14.1126C11.4903 13.9293 11.4516 13.791 11.3742 13.696C11.2419 13.5351 10.9962 13.5176 10.8054 13.6068ZM2.8503 9.2776C5.1903 9.13009 12.8061 9.13009 15.1497 9.2776C17.685 9.4376 17.9811 10.8609 18 14.5835C17.9811 18.3119 17.6823 19.7294 15.1497 19.8894C12.8061 20.0369 5.1903 20.0369 2.8503 19.8894C0.315 19.7294 0.0189 18.306 0 14.5835C0.0189 10.8543 0.3177 9.4376 2.8503 9.2776ZM4.0572 18.1827H2.8314V11.8993H1.5624V10.8326H5.3262V11.8993H4.0572V18.1827ZM7.3305 18.1827H8.4186V12.761H7.3296V16.8768C7.1973 17.0302 6.9021 17.2827 6.6897 17.2827C6.4566 17.2827 6.3999 17.136 6.3999 16.9177V12.761H5.3118V17.2927C5.3118 18.3927 6.1173 18.4002 6.7041 18.0885C6.921 17.9735 7.1298 17.8052 7.3305 17.5844V18.1827ZM12.6108 17.0593C12.6108 17.7302 12.3399 18.2519 11.6154 18.2519C11.2167 18.2519 10.8846 18.1169 10.5813 17.766V18.1827H9.4824V10.8326H10.5813V13.1993C10.827 12.9218 11.1609 12.6926 11.5497 12.6926C12.3471 12.6926 12.6117 13.3168 12.6117 14.0518V17.0593H12.6108ZM14.5521 15.5993H16.6338V14.2193C16.6338 13.2393 16.1298 12.6243 15.0849 12.6243C14.103 12.6243 13.4316 13.2785 13.4316 14.2193V16.6535C13.4316 17.6294 13.9635 18.331 15.003 18.331C16.1505 18.331 16.6347 17.6977 16.6347 16.6535V16.246H15.5142V16.6227C15.5142 17.0943 15.4872 17.381 15.0273 17.381C14.5899 17.381 14.5521 17.0293 14.5521 16.6227V15.5993Z" fill="white"/>
</svg>
