<svg id="Layer_1" data-name="Layer 1" xmlns="http://www.w3.org/2000/svg" viewBox="0 0 409.6 406.95"><defs><style>.cls-1{fill:#fff;}</style></defs><title>dialogue</title><path class="cls-1" d="M355.67,69H138.06a6.4,6.4,0,0,1,0-12.8H355.67a6.4,6.4,0,0,1,0,12.8Zm0,0" transform="translate(-3.67 -5)"/><path class="cls-1" d="M355.67,145.8h-12.8a6.4,6.4,0,1,1,0-12.8h12.8a6.4,6.4,0,0,1,0,12.8Zm0,0" transform="translate(-3.67 -5)"/><path class="cls-1" d="M355.67,184.2a6.4,6.4,0,1,1,4.52-1.88,6.45,6.45,0,0,1-4.52,1.88Zm0,0" transform="translate(-3.67 -5)"/><path class="cls-1" d="M355.67,107.4H240.47a6.4,6.4,0,1,1,0-12.8h115.2a6.4,6.4,0,0,1,0,12.8Zm0,0" transform="translate(-3.67 -5)"/><path class="cls-1" d="M214.87,107.4H138.06a6.4,6.4,0,0,1,0-12.8h76.81a6.4,6.4,0,0,1,0,12.8Zm0,0" transform="translate(-3.67 -5)"/><path class="cls-1" d="M368.45,284a12.76,12.76,0,0,1-9-3.75l-8.28-8.28a6.4,6.4,0,1,1,9.05-9.05l8.27,8.28V228.42a6.4,6.4,0,0,1,5.33-6.31,32.32,32.32,0,0,0,26.67-31.51V49.8a32,32,0,0,0-32-32H125.27a32,32,0,0,0-32,32v64a6.4,6.4,0,0,1-12.8,0v-64A44.85,44.85,0,0,1,125.27,5h243.2a44.85,44.85,0,0,1,44.8,44.8V190.6a44.66,44.66,0,0,1-32,42.89v37.66a12.75,12.75,0,0,1-7.9,11.82,12.89,12.89,0,0,1-4.92,1Zm0,0" transform="translate(-3.67 -5)"/><path class="cls-1" d="M278.87,197H61.27a6.4,6.4,0,0,1,0-12.8h217.6a6.4,6.4,0,0,1,0,12.8Zm0,0" transform="translate(-3.67 -5)"/><path class="cls-1" d="M278.87,273.8h-83.2a6.4,6.4,0,1,1,0-12.8h83.2a6.4,6.4,0,0,1,0,12.8Zm0,0" transform="translate(-3.67 -5)"/><path class="cls-1" d="M170.06,273.8H61.27a6.4,6.4,0,0,1,0-12.8H170.06a6.4,6.4,0,1,1,0,12.8Zm0,0" transform="translate(-3.67 -5)"/><path class="cls-1" d="M278.87,312.2H61.27a6.4,6.4,0,1,1,0-12.8h217.6a6.4,6.4,0,0,1,0,12.8Zm0,0" transform="translate(-3.67 -5)"/><path class="cls-1" d="M99.67,235.4H61.27a6.4,6.4,0,1,1,0-12.8h38.4a6.4,6.4,0,0,1,0,12.8Zm0,0" transform="translate(-3.67 -5)"/><path class="cls-1" d="M278.87,235.4H125.27a6.4,6.4,0,1,1,0-12.8h153.6a6.4,6.4,0,0,1,0,12.8Zm0,0" transform="translate(-3.67 -5)"/><path class="cls-1" d="M48.48,412a12.81,12.81,0,0,1-12.81-12.8V361.49a44.65,44.65,0,0,1-32-42.89V177.8A44.85,44.85,0,0,1,48.47,133h243.2a44.85,44.85,0,0,1,44.8,44.8V318.6a44.85,44.85,0,0,1-44.8,44.8H102.32l-44.8,44.8a12.8,12.8,0,0,1-9,3.75Zm0-266.15a32,32,0,0,0-32,32V318.6a32.31,32.31,0,0,0,26.67,31.51,6.41,6.41,0,0,1,5.33,6.31v42.72l46.67-46.67a6.4,6.4,0,0,1,4.53-1.87h192a32,32,0,0,0,32-32V177.8a32,32,0,0,0-32-32Zm0,0" transform="translate(-3.67 -5)"/></svg>