<?xml version="1.0" encoding="utf-8"?>
<!-- Generator: Adobe Illustrator 21.1.0, SVG Export Plug-In . SVG Version: 6.00 Build 0)  -->
<svg version="1.1" id="Layer_1" xmlns="http://www.w3.org/2000/svg" xmlns:xlink="http://www.w3.org/1999/xlink" x="0px" y="0px" width="200px"
	 viewBox="0 0 319.4 168.8" style="enable-background:new 0 0 319.4 168.8;" xml:space="preserve">
<style type="text/css">
	.st0{clip-path:url(#SVGID_2_);}
	.st1{fill:#FFFFFF;}
	.st2{clip-path:url(#SVGID_4_);fill:none;stroke:#000000;stroke-width:3;}
	.st3{clip-path:url(#SVGID_6_);fill:none;stroke:#000000;stroke-width:3;}
	.st4{clip-path:url(#SVGID_8_);fill:none;stroke:#000000;stroke-width:3;}
	.st5{fill:none;stroke:#000000;stroke-width:3;}
	.st6{clip-path:url(#SVGID_10_);fill:none;stroke:#000000;stroke-width:3;stroke-miterlimit:2;}
	.st7{clip-path:url(#SVGID_10_);}
	.st8{clip-path:url(#SVGID_10_);fill:#FFFFFF;}
	.st9{clip-path:url(#SVGID_10_);fill:none;stroke:#000000;stroke-width:3;}
</style>
<g>
	<defs>
		<rect id="SVGID_1_" width="319.4" height="168.8"/>
	</defs>
	<clipPath id="SVGID_2_">
		<use xlink:href="#SVGID_1_"  style="overflow:visible;"/>
	</clipPath>
	<path class="st0" d="M293.6,116.2h2.4c3.7,0,5,2.1,4.1,6.2c-1,4.7-4.1,6.1-6.5,6.1H291L293.6,116.2z M264.7,167.5h26.9
		c11.1,0,19.7-5.7,22.5-18.5c2.7-13-5-14.8-8.6-15.1l0.1-0.2c4.2-0.9,11.2-4.4,13.3-14.5c2.3-10.6-3.3-15.9-14.6-15.9h-25.9
		L264.7,167.5z M288.5,139.9h3.2c4.1,0,5,3.4,4.1,7.7c-0.9,4.2-3.2,6.9-7.2,6.9h-3.1L288.5,139.9z M219,135.4
		c-4.4,20.5-7.1,33.4,16,33.4s25.8-12.9,30.2-33.4c4.2-19.9,7.1-33.4-16-33.4C226.1,102,223.2,115.5,219,135.4 M246.7,135.4
		c-4.1,18.8-5.3,21.5-9.2,21.5c-3.9,0-4.1-2.7,0-21.5c4-18.8,5.3-21.5,9.2-21.5S250.6,116.6,246.7,135.4 M198.6,127h17.5l1-4.7
		c2.1-10,2.1-20.3-17.1-20.3c-23.1,0-26,13.5-30.2,33.4c-4.4,20.5-7.1,33.4,16,33.4c15.8,0,23.6-8.6,26.8-23.7l0.8-4h-17.5l-1,4.9
		c-1.7,8-3.5,10.9-6.4,10.9c-4.4,0-4.3-2.7-0.3-21.5c3.9-18.3,4.8-21.5,9.4-21.5c3.7,0,2.6,5.1,2,7.9L198.6,127z M143.3,143.7h-8.2
		l9.8-26.4h0.2L143.3,143.7z M142.2,167.5h18.5l-1.4-64.3h-22.6l-28.9,64.3h18.5l3.9-9.8h12.1L142.2,167.5z M90.3,148.7
		c-1.2,5.7-2.3,8.2-5.3,8.2c-2.7,0-3.2-2.2-2.4-5.5l1-4.8H67.1l-0.9,4.4c-0.9,4.1-3.8,17.7,16.2,17.7c13.2,0,22.7-5.1,25.7-19.3
		l9.8-46.3h-18L90.3,148.7z"/>
	<path class="st0" d="M270,70c-2.9,2.1-6.4,3.1-10.7,3.1c-6.9,0-10.5-2.9-10.5-7.3c0-4.2,2.2-7.7,7.6-10.6L270,70z M299,84.3
		l-13.1-14.9c3.1-4.8,5.6-10.6,7.8-17.3l-11.2-3.6c-1.7,4.6-3.3,8.3-4.8,11.5l-19.1-21.8c-2.2-2.6-3.7-4.6-3.7-7.5
		c0-2.9,2.5-4.6,6.5-4.6c5,0,9.9,1.5,14.5,5l6.6-10c-6.6-4.7-12.2-7.2-20.7-7.2c-11.7,0-20.6,5.8-20.6,17.1c0,5.5,2.4,10,6,14.1
		l1.8,2c-8.8,4.4-14.2,10.2-14.2,19.9c0,12.5,8.6,18.4,22.8,18.4c8.1,0,14.8-2.3,20.2-6.7l5.2,5.6H299z"/>
</g>
<polygon class="st1" points="19.2,53.2 19.2,95.7 1.5,95.7 1.5,2.1 19.2,2.1 19.2,19.8 32.7,2.1 54.2,2.1 35.3,29.9 59,95.7 
	40,95.7 22.7,49 "/>
<g>
	<defs>
		<rect id="SVGID_3_" width="319.4" height="168.8"/>
	</defs>
	<clipPath id="SVGID_4_">
		<use xlink:href="#SVGID_3_"  style="overflow:visible;"/>
	</clipPath>
	<polygon class="st2" points="19.2,53.2 19.2,95.7 1.5,95.7 1.5,2.1 19.2,2.1 19.2,19.8 32.7,2.1 54.2,2.1 35.3,29.9 59,95.7 
		40,95.7 22.7,49 	"/>
</g>
<polygon class="st1" points="64.9,2.1 64.9,95.7 93.2,95.7 93.2,78.4 82.6,78.4 82.6,2.1 "/>
<g>
	<defs>
		<rect id="SVGID_5_" width="319.4" height="168.8"/>
	</defs>
	<clipPath id="SVGID_6_">
		<use xlink:href="#SVGID_5_"  style="overflow:visible;"/>
	</clipPath>
	<polygon class="st3" points="64.9,2.1 64.9,95.7 93.2,95.7 93.2,78.4 82.6,78.4 82.6,2.1 	"/>
</g>
<polygon class="st1" points="101.8,95.7 101.8,2.1 134.2,2.1 134.2,19.8 119.5,19.8 119.5,28.2 134.2,28.2 134.2,45.3 119.5,45.3 
	119.5,78.4 134.2,78.4 134.2,95.7 "/>
<g>
	<defs>
		<rect id="SVGID_7_" width="319.4" height="168.8"/>
	</defs>
	<clipPath id="SVGID_8_">
		<use xlink:href="#SVGID_7_"  style="overflow:visible;"/>
	</clipPath>
	<polygon class="st4" points="101.8,95.7 101.8,2.1 134.2,2.1 134.2,19.8 119.5,19.8 119.5,28.2 134.2,28.2 134.2,45.3 119.5,45.3 
		119.5,78.4 134.2,78.4 134.2,95.7 	"/>
</g>
<rect x="143.3" y="28.5" class="st1" width="17" height="67.2"/>
<rect x="143.3" y="28.5" class="st5" width="17" height="67.2"/>
<polygon class="st1" points="169.1,95.7 169.1,2.4 200.1,18.2 200.1,2.4 217.4,2.4 217.4,95.7 200.1,95.7 200.1,39.4 186.5,31.8 
	186.5,95.7 "/>
<g>
	<defs>
		<rect id="SVGID_9_" width="319.4" height="168.8"/>
	</defs>
	<clipPath id="SVGID_10_">
		<use xlink:href="#SVGID_9_"  style="overflow:visible;"/>
	</clipPath>
	<polygon class="st6" points="169.1,95.7 169.1,2.4 200.1,18.2 200.1,2.4 217.4,2.4 217.4,95.7 200.1,95.7 200.1,39.4 186.5,31.8 
		186.5,95.7 	"/>
	<path class="st7" d="M2.6,110.4c0,1.4,1.1,2,2.4,2c0.8,0,2.1-0.2,2.1-1.3c0-0.9-0.8-1.2-2.9-1.7c-1.9-0.4-3.5-1.1-3.5-3.1
		c0-2.2,2.1-3.2,4-3.2c2.2,0,4.3,1,4.3,3.4H6.7c-0.1-1.3-1-1.6-2.1-1.6c-0.7,0-1.6,0.3-1.6,1.2c0,0.8,0.3,0.9,3.4,1.7
		c1.8,0.4,3,1.3,3,3.1c0,2-1.5,3.4-4.5,3.4c-2.4,0-4.6-1.2-4.6-3.8H2.6z"/>
	<path class="st7" d="M12.3,110.6c0.1,1.3,0.7,2,1.9,2c0.9,0,1.5-0.5,1.7-1h1.9c-0.6,1.8-1.9,2.6-3.6,2.6c-2.4,0-4-1.7-4-4.1
		c0-2.3,1.6-4.1,4-4.1c2.5,0,3.8,2.1,3.8,3.9v0.7H12.3z M15.8,109.3c-0.2-1.1-0.7-1.6-1.7-1.6c-1.4,0-1.7,1-1.8,1.6H15.8z"/>
	<path class="st7" d="M19.2,103.3h2.1v1.8h-2.1V103.3z M19.2,106.2h2.1v7.8h-2.1V106.2z"/>
	<path class="st7" d="M23.6,107.7h-1.3v-1.4h1.3v-2.3h2.1v2.3h1.6v1.4h-1.6v3.8c0,0.7,0.2,0.9,0.9,0.9c0.2,0,0.4,0,0.7-0.1v1.7
		c-0.4,0.1-0.8,0.1-1.2,0.1c-1.3,0-2.4-0.3-2.4-1.8V107.7z"/>
	<path class="st7" d="M37.2,114H35v-6.8h-2.6v-1.6c1.5,0,2.8-0.5,3.1-2.1h1.7V114z"/>
	<path class="st7" d="M43.8,103.3c2.6,0,3.5,1.8,3.5,2.8c0,1-0.5,1.9-1.5,2.2v0v0v0c1.2,0.3,2,1.2,2,2.6c0,2.2-2,3.3-3.9,3.3
		c-2,0-4-1-4-3.3c0-1.3,0.8-2.3,2-2.6v0c-1-0.3-1.5-1.1-1.5-2.2C40.3,104.3,42.1,103.3,43.8,103.3 M43.8,112.6c1,0,1.8-0.7,1.8-1.8
		c0-1-0.8-1.7-1.8-1.7c-1,0-1.9,0.6-1.9,1.7S42.8,112.6,43.8,112.6 M43.8,107.7c0.9,0,1.6-0.5,1.6-1.4c0-0.5-0.3-1.5-1.6-1.5
		c-0.9,0-1.6,0.5-1.6,1.5C42.2,107.3,43,107.7,43.8,107.7"/>
	<path class="st7" d="M55.5,105.3h-4.3l-0.4,2.4l0,0c0.6-0.6,1.2-0.8,2.1-0.8c2.1,0,3.2,1.6,3.2,3.6c0,2.2-1.8,3.8-3.9,3.8
		c-2,0-3.9-1.1-3.9-3.3h2.1c0.1,0.9,0.8,1.6,1.7,1.6c1.1,0,1.8-1,1.8-2c0-1.1-0.7-2-1.8-2c-0.8,0-1.2,0.3-1.6,0.8h-1.9l1-5.8h5.9
		V105.3z"/>
	<path class="st7" d="M60.5,103.3c2.1,0,3.9,1.3,3.9,5.4c0,4.2-1.8,5.5-3.9,5.5c-2.1,0-3.8-1.3-3.8-5.5
		C56.6,104.6,58.4,103.3,60.5,103.3 M60.5,112.5c1.7,0,1.7-2.6,1.7-3.8c0-1.1,0-3.7-1.7-3.7c-1.7,0-1.7,2.6-1.7,3.7
		C58.7,109.9,58.7,112.5,60.5,112.5"/>
	<rect x="143.3" y="2.1" class="st8" width="17" height="16.9"/>
	<rect x="143.3" y="2.1" class="st9" width="17" height="16.9"/>
</g>
</svg>
