<svg id="Layer_1" data-name="Layer 1" xmlns="http://www.w3.org/2000/svg" xmlns:xlink="http://www.w3.org/1999/xlink" viewBox="0 0 409.6 332.79"><defs><style>.cls-1{fill:none;}.cls-2{clip-path:url(#clip-path);}.cls-3{fill:#fff;}</style><clipPath id="clip-path" transform="translate(-3 -0.8)"><rect class="cls-1" x="3" width="410" height="335"/></clipPath></defs><title>plane</title><g class="cls-2"><path class="cls-3" d="M412.59,7.52V7.37a.86.86,0,0,0,0-.16V6.89c0-.08,0-.17,0-.26v0s0-.11,0-.16a.88.88,0,0,0,0-.16,1.84,1.84,0,0,0,0-.25c0-.11,0-.23-.07-.34v0c0-.08-.05-.16-.07-.24l-.11-.33a1.42,1.42,0,0,0-.05-.16l-.06-.14h0c0-.09-.07-.18-.12-.27s-.09-.19-.14-.29-.05-.1-.08-.14a.75.75,0,0,0-.07-.12,2.59,2.59,0,0,0-.25-.39l-.08-.13h0s0,0,0,0l-.25-.31-.17-.2-.07-.08-.13-.12a3.31,3.31,0,0,0-.27-.26v0l-.12-.09-.06-.05-.07-.07-.06,0L410,2l-.18-.13a3.87,3.87,0,0,0-.34-.21l-.26-.14a1.91,1.91,0,0,0-.28-.15l-.13-.06-.07,0-.12-.06-.25-.09c-.09,0-.18-.06-.27-.09l-.16,0L407.75,1l-.36-.07-.2-.05h-.05l-.34,0-.28,0h-.63l-.25,0h-.17l-.19,0-.26,0-.31.06h0l-.26.08-.32.1-.16.05,0,0L7.09,154.83a6.4,6.4,0,0,0,0,11.94l118.3,45.5,37.91,116.9s0,0,0,.05l0,.1a5,5,0,0,0,.33.75,1.09,1.09,0,0,0,.08.15,6.21,6.21,0,0,0,.39.65l.06.08,0,0,0,.05.15.18c.07.08.12.16.19.23l.15.16.07.07.11.11.12.12.12.1c.12.11.25.21.38.31l0,0s0,0,0,0l.12.08c.21.14.43.27.65.39l.11.06,0,0a6.58,6.58,0,0,0,.66.29l.14,0,.19.06a6.65,6.65,0,0,0,.83.2h.12a7,7,0,0,0,.92.07h.07a5.25,5.25,0,0,0,.79-.06h.11l.17,0c.21,0,.4-.08.61-.14l.19,0h0l.08,0,.29-.11.36-.15.06,0h0l.18-.1.36-.2.23-.15h0l.06,0,.31-.23.18-.15.18-.16.14-.13a6.53,6.53,0,0,0,.56-.61l0-.05.05-.08s0,0,.05-.05l46.76-63.19A6.4,6.4,0,0,0,211,260.19L190.7,287.65l16.15-44.08,152.86,58a6.39,6.39,0,0,0,8.6-5L412.53,8.17v0c0-.11,0-.21,0-.32s0-.19,0-.29Zm-49.95,23.4L179.84,163.69a6.4,6.4,0,0,0,3.76,11.57,6.32,6.32,0,0,0,3.76-1.22L362,47.22,198.55,230.73a6.34,6.34,0,0,0-1.48,2.28,4,4,0,0,0-.15.45l-27.15,74.13L136.64,205.42a6.37,6.37,0,0,0-3.79-4l0,0L27.18,160.78Zm-5.79,255.89L214,232.6,396.6,27.6Zm0,0" transform="translate(-3 -0.8)"/></g><path class="cls-3" d="M151.41,198.65a6.33,6.33,0,0,0,3.75-1.22l12.44-9A6.4,6.4,0,0,0,160.08,178l-12.44,9a6.4,6.4,0,0,0,3.77,11.58Zm0,0" transform="translate(-3 -0.8)"/></svg>