<?xml version="1.0" encoding="utf-8"?>
<!-- Generator: Adobe Illustrator 21.1.0, SVG Export Plug-In . SVG Version: 6.00 Build 0)  -->
<svg version="1.1" id="Layer_1" xmlns="http://www.w3.org/2000/svg" xmlns:xlink="http://www.w3.org/1999/xlink" x="0px" y="0px" width="28px"
	 viewBox="0 0 392 392" style="enable-background:new 0 0 392 392;" xml:space="preserve">
<style type="text/css">
	.st0{clip-path:url(#SVGID_2_);}
</style>
<g>
	<g>
		<defs>
			<rect id="SVGID_1_" x="-1" y="-1" width="392" height="392"/>
		</defs>
		<clipPath id="SVGID_2_">
			<use xlink:href="#SVGID_1_"  style="overflow:visible;"/>
		</clipPath>
		<path class="st0" d="M386.2,363.2L292,268.9c23.4-28.5,37.4-65,37.4-104.7C329.4,73,255.4-1,164.2-1C72.9-1-1,73-1,164.2
			s73.9,165.2,165.2,165.2c39.8,0,76.2-14,104.6-37.4l94.2,94.2c6.4,6.4,16.7,6.4,23.1,0C392.6,379.9,392.6,369.5,386.2,363.2
			L386.2,363.2z M164.2,296.5c-73,0-132.4-59.4-132.4-132.3S91.2,31.8,164.2,31.8c73,0,132.4,59.4,132.4,132.4
			S237.2,296.5,164.2,296.5L164.2,296.5z M164.2,296.5"/>
	</g>
</g>
</svg>
