<?xml version="1.0" standalone="no"?>
<!DOCTYPE svg PUBLIC "-//W3C//DTD SVG 1.1//EN" "http://www.w3.org/Graphics/SVG/1.1/DTD/svg11.dtd" >
<svg>
<metadata>
Created by FontForge 20090914 at Fri Oct  4 09:26:22 2019
 By www-data
Copyright &#194;&#169; 1989, 1995, 2002 Adobe Systems Incorporated.  All Rights Reserved. &#194;&#169; 1981, 1995, 2002 Heidelberger Druckmaschinen AG. All rights reserved.
</metadata>
<defs>
<font id="AvenirLTStd-Roman" horiz-adv-x="556" >
  <font-face 
    font-family="Avenir LT Std 55 Roman"
    font-weight="400"
    font-stretch="normal"
    units-per-em="1000"
    panose-1="2 11 5 3 2 2 3 2 2 4"
    ascent="756"
    descent="-244"
    x-height="468"
    cap-height="708"
    bbox="-166 -250 1000 927.999"
    underline-thickness="50"
    underline-position="-50"
    unicode-range="U+0020-U+FB02"
  />
<missing-glyph horiz-adv-x="500" 
d="M0 0v700h500v-700h-500zM250 395l170 255h-340zM280 350l170 -255v510zM80 50h340l-170 255zM50 605v-510l170 255z" />
    <glyph glyph-name="fi" unicode="fi" horiz-adv-x="537" 
d="M306 468l0.000976562 -66h-114v-402h-78v402h-102v66h102v105c0 130 55.333 195 166 195c25.333 0 45.333 -4 60 -12l-11 -70c-18.667 6.66699 -36.334 10 -53.001 10c-19.333 0 -35 -3.16699 -47 -9.5s-20.5 -16.833 -25.5 -31.5s-8.16699 -28.667 -9.5 -42
s-2 -32.333 -2 -57v-88h114zM378.001 0v468h78v-468h-78zM360.001 651c0 15.333 5.50195 28.666 16.502 39.999s24.5 17 40.5 17s29.5 -5.66699 40.5 -17s16.5 -24.666 16.5 -39.999c0 -16.667 -5.33301 -30.334 -16 -41.001s-24.334 -16 -41.001 -16
s-30.334 5.33301 -41.001 16s-16 24.334 -16 41.001z" />
    <glyph glyph-name="fl" unicode="fl" horiz-adv-x="537" 
d="M114 0l0.000976562 402h-102v66h102v105c0 130 55.333 195 166 195c25.333 0 45.333 -4 60 -12l-11 -70c-18.667 6.66699 -36.334 10 -53.001 10c-19.333 0 -35 -3.16699 -47 -9.5s-20.5 -16.833 -25.5 -31.5s-8.16699 -28.667 -9.5 -42s-2 -32.333 -2 -57v-88h114v-66
h-114v-402h-78zM378.001 0v756h78v-756h-78z" />
    <glyph glyph-name=".notdef" horiz-adv-x="500" 
d="M0 0v700h500v-700h-500zM250 395l170 255h-340zM280 350l170 -255v510zM80 50h340l-170 255zM50 605v-510l170 255z" />
    <glyph glyph-name="space" unicode=" " horiz-adv-x="278" 
 />
    <glyph glyph-name="exclam" unicode="!" horiz-adv-x="278" 
d="M181 708v-510h-84v510h84zM139 114c16.667 0 30.832 -5.83301 42.499 -17.5s17.5 -25.834 17.5 -42.501c0 -16 -6 -30 -18 -42s-26 -18 -42 -18s-30 6 -42 18s-18 26 -18 42c0 16.667 5.83301 30.834 17.5 42.501s25.834 17.5 42.501 17.5z" />
    <glyph glyph-name="quotedbl" unicode="&#x22;" horiz-adv-x="519" 
d="M150 468v240h72v-240h-72zM297 468v240h72v-240h-72z" />
    <glyph glyph-name="numbersign" unicode="#" 
d="M98 0l30 213h-98v66h108l20 152h-98v66h108l30 211h67l-30 -211h126l30 211h67l-30 -211h98v-66h-107l-21 -152h98v-66h-108l-30 -213h-67l30 213h-126l-30 -213h-67zM331 279l21 152h-126l-21 -152h126z" />
    <glyph glyph-name="dollar" unicode="$" 
d="M256 -83l-0.00292969 70.998c-96.667 0 -168 31 -214 93l70 61c14 -22 34.333 -39.833 61 -53.5s54.334 -21.167 83.001 -22.5v254c-132 35.333 -198 103 -198 203c0 54 19.333 99.167 58 135.5s85.334 56.833 140.001 61.5v66h48v-66c37.333 0 73.333 -7 108 -21
s63.334 -34 86.001 -60l-66 -60c-31.333 42 -74 63 -128 63v-249c26.667 -8 48.167 -15.167 64.5 -21.5s34.833 -15.166 55.5 -26.499s36.667 -23.5 48 -36.5s21.166 -29.667 29.499 -50s12.5 -43.166 12.5 -68.499c0 -57.333 -20.167 -104.5 -60.5 -141.5
s-90.166 -57.167 -149.499 -60.5v-71h-48zM255.997 405.998v236c-32.667 -6 -58.834 -19.667 -78.501 -41s-29.5 -47.666 -29.5 -78.999s8.83301 -54.833 26.5 -70.5s44.834 -30.834 81.501 -45.501zM303.997 306.998v-240.999c34.667 4 63.334 17.167 86.001 39.5
s34 49.166 34 80.499c0 33.333 -10.833 59 -32.5 77s-50.834 32.667 -87.501 44z" />
    <glyph glyph-name="percent" unicode="%" horiz-adv-x="833" 
d="M38 545c0 48.667 17 90 51 124s75.333 51 124 51s90 -17 124 -51s51 -75.333 51 -124s-17 -90 -51 -124s-75.333 -51 -124 -51s-90 17 -124 51s-51 75.333 -51 124zM110 545c0 -28 10.333 -52.167 31 -72.5s44.667 -30.5 72 -30.5s51.333 10.167 72 30.5s31 44.5 31 72.5
s-10.333 52.167 -31 72.5s-44.667 30.5 -72 30.5s-51.333 -10.167 -72 -30.5s-31 -44.5 -31 -72.5zM445 163c0 48.667 16.833 90 50.5 124s75.167 51 124.5 51s90.833 -17 124.5 -51s50.5 -75.333 50.5 -124s-16.833 -90 -50.5 -124s-75.167 -51 -124.5 -51
s-90.833 17 -124.5 51s-50.5 75.333 -50.5 124zM517 163c0 -28 10.333 -52.167 31 -72.5s44.667 -30.5 72 -30.5s51.333 10.167 72 30.5s31 44.5 31 72.5s-10.333 52.167 -31 72.5s-44.667 30.5 -72 30.5s-51.333 -10.167 -72 -30.5s-31 -44.5 -31 -72.5zM170 0l444 740
l55 -32l-444 -740z" />
    <glyph glyph-name="ampersand" unicode="&#x26;" horiz-adv-x="722" 
d="M593 0l-95.999 101.999c-30 -38 -61.667 -66.5 -95 -85.5s-72.333 -28.5 -117 -28.5c-62.667 0 -115.834 18.333 -159.501 55s-65.5 85.667 -65.5 147c0 88.667 52.333 157 157 205c-27.333 28 -48.333 54.5 -63 79.5s-22 53.167 -22 84.5
c0 50.667 17.667 90.334 53 119.001s78.666 43 129.999 43c50.667 0 92.834 -13.667 126.501 -41s50.5 -66 50.5 -116c0 -68 -50 -128 -150 -180l150 -159l95 159h95l-136 -218l162 -166h-115zM265.001 460.999l24.999 -26c20.667 11.333 34.834 19.333 42.501 24
s19.167 13 34.5 25s26 24.5 32 37.5s9 27.833 9 44.5c0 25.333 -8.66699 45.5 -26 60.5s-38.666 22.5 -63.999 22.5c-28.667 0 -52.834 -8.83301 -72.501 -26.5s-29.5 -40.5 -29.5 -68.5s16.333 -59 49 -93zM446 157.999l-177 186
c-38.667 -21.333 -69.167 -43.333 -91.5 -66s-33.5 -51 -33.5 -85c0 -37.333 13.667 -68.833 41 -94.5s59.666 -38.5 96.999 -38.5c32.667 0 61.334 8.33301 86.001 25s50.667 41 78 73z" />
    <glyph glyph-name="quotesingle" unicode="'" horiz-adv-x="278" 
d="M103 468v240h72v-240h-72z" />
    <glyph glyph-name="parenleft" unicode="(" horiz-adv-x="278" 
d="M255 -118l-54 -38.001c-47.333 65.333 -83.5 136.333 -108.5 213s-37.5 153.667 -37.5 231c0 164 48.667 312 146 444l54 -40c-85.333 -117.333 -128 -252 -128 -404c0 -77.333 10.167 -146.666 30.5 -207.999s52.833 -127.333 97.5 -198z" />
    <glyph glyph-name="parenright" unicode=")" horiz-adv-x="278" 
d="M23 694l54 38.001c47.333 -65.333 83.5 -136.333 108.5 -213s37.5 -153.667 37.5 -231c0 -164 -48.667 -312 -146 -444l-54 40c85.333 117.333 128 252 128 404c0 77.333 -10.167 146.666 -30.5 207.999s-52.833 127.333 -97.5 198z" />
    <glyph glyph-name="asterisk" unicode="*" horiz-adv-x="444" 
d="M252 708v-149l142 48l19 -58l-141 -48l89 -119l-49 -38l-90 123l-87 -123l-50 38l87 119l-141 48l19 58l142 -48v149h60z" />
    <glyph glyph-name="plus" unicode="+" horiz-adv-x="666" 
d="M72 270v66h228v228h66v-228h228v-66h-228v-228h-66v228h-228z" />
    <glyph glyph-name="comma" unicode="," horiz-adv-x="278" 
d="M211 102l-82 -240h-77l68 240h91z" />
    <glyph glyph-name="hyphen" unicode="-" horiz-adv-x="333" 
d="M44 204v72h245v-72h-245z" />
    <glyph glyph-name="period" unicode="." horiz-adv-x="278" 
d="M139 114c16.667 0 30.832 -5.83301 42.499 -17.5s17.5 -25.834 17.5 -42.501c0 -16 -6 -30 -18 -42s-26 -18 -42 -18s-30 6 -42 18s-18 26 -18 42c0 16.667 5.83301 30.834 17.5 42.501s25.834 17.5 42.501 17.5z" />
    <glyph glyph-name="slash" unicode="/" horiz-adv-x="370" 
d="M367 726l-301 -769l-63 25l301 768z" />
    <glyph glyph-name="zero" unicode="0" 
d="M38 354c0 34.667 2 68 6 100s11.5 64.667 22.5 98s25.167 62 42.5 86s40.5 43.667 69.5 59s62.167 23 99.5 23s70.5 -7.66699 99.5 -23s52.167 -35 69.5 -59s31.5 -52.667 42.5 -86s18.5 -66 22.5 -98s6 -65.333 6 -100s-2 -68 -6 -100s-11.5 -64.667 -22.5 -98
s-25.167 -62 -42.5 -86s-40.5 -43.667 -69.5 -59s-62.167 -23 -99.5 -23s-70.5 7.66699 -99.5 23s-52.167 35 -69.5 59s-31.5 52.667 -42.5 86s-18.5 66 -22.5 98s-6 65.333 -6 100zM122 354c0 -24.667 0.833008 -48.334 2.5 -71.001s5.66699 -48.334 12 -77.001
s14.833 -53.167 25.5 -73.5s26 -37.5 46 -51.5s43.333 -21 70 -21s50 7 70 21s35.333 31.167 46 51.5s19.167 44.833 25.5 73.5s10.333 54.334 12 77.001s2.5 46.334 2.5 71.001s-0.833008 48.334 -2.5 71.001s-5.66699 48.334 -12 77.001s-14.833 53.167 -25.5 73.5
s-26 37.5 -46 51.5s-43.333 21 -70 21s-50 -7 -70 -21s-35.333 -31.167 -46 -51.5s-19.167 -44.833 -25.5 -73.5s-10.333 -54.334 -12 -77.001s-2.5 -46.334 -2.5 -71.001z" />
    <glyph glyph-name="one" unicode="1" 
d="M360 708v-708h-84v600h-2l-127 -107l-50 61l190 154h73z" />
    <glyph glyph-name="two" unicode="2" 
d="M50 0l0.00390625 96l267 260c37.333 36 63.333 65.667 78 89s22 51 22 83c0 36 -12.333 65 -37 87s-55.334 33 -92.001 33c-35.333 0 -64.833 -10.167 -88.5 -30.5s-38.834 -47.833 -45.501 -82.5l-91 8c9.33301 56.667 34 100.334 74 131.001s89.333 46 148 46
c61.333 0 112.666 -16.833 153.999 -50.5s62 -80.834 62 -141.501c0 -26.667 -3.33301 -51.5 -10 -74.5s-17.834 -45 -33.501 -66s-29.5 -37.833 -41.5 -50.5s-29.667 -30 -53 -52l-218 -205v-2h361v-78h-456z" />
    <glyph glyph-name="three" unicode="3" 
d="M204 336l-0.00292969 72h26c107.333 0 161 41 161 123c0 35.333 -11.167 63.666 -33.5 84.999s-51.5 32 -87.5 32c-61.333 0 -104.666 -26.333 -129.999 -79l-81 31c16.667 38.667 43.334 68.334 80.001 89.001s78.334 31 125.001 31c60 0 110.167 -16.167 150.5 -48.5
s60.5 -77.833 60.5 -136.5c0 -36.667 -11.333 -70 -34 -100s-51.667 -50.667 -87 -62v-2c44 -7.33301 79.167 -27.5 105.5 -60.5s39.5 -72.167 39.5 -117.5c0 -64.667 -22.333 -115 -67 -151s-100.334 -54 -167.001 -54c-118 0 -194 49.667 -228 149l85 28
c12 -38 29 -65 51 -81s52.667 -24 92 -24c40.667 0 74.834 13 102.501 39s41.5 59.333 41.5 100c0 48 -17.333 82.833 -52 104.5s-77 32.5 -127 32.5h-26z" />
    <glyph glyph-name="four" unicode="4" 
d="M419 708v-468h102v-78h-102v-162h-84v162h-300v93l281 453h103zM335 240v370h-2l-226 -370h228z" />
    <glyph glyph-name="five" unicode="5" 
d="M474 708l0.00195312 -78h-289l-3 -191c23.333 11.333 53.666 17 90.999 17c67.333 0 121.833 -22 163.5 -66s62.5 -99.667 62.5 -167c0 -69.333 -23 -125.833 -69 -169.5s-104 -65.5 -174 -65.5c-97.333 0 -167 43 -209 129l84 32c12 -27.333 29.667 -49 53 -65
s49.666 -24 78.999 -24c43.333 0 79.5 15.167 108.5 45.5s43.5 69.5 43.5 117.5c0 50.667 -16.333 90.167 -49 118.5s-74.667 42.5 -126 42.5c-46.667 0 -94.667 -14.667 -144 -44l7 368h371z" />
    <glyph glyph-name="six" unicode="6" 
d="M394 708l-189.998 -295.001l2 -2c24 14 55.667 21 95 21c62 0 113.167 -20.667 153.5 -62s60.5 -94.666 60.5 -159.999c0 -67.333 -22.333 -121.166 -67 -161.499s-101.334 -60.5 -170.001 -60.5s-125.334 20.167 -170.001 60.5s-67 94.166 -67 161.499
c0 37.333 5.5 70.833 16.5 100.5s27.833 62.5 50.5 98.5l188 299h98zM278.002 359.999c-43.333 0 -79.666 -13.667 -108.999 -41s-44 -63.666 -44 -108.999s14.667 -81.666 44 -108.999s65.666 -41 108.999 -41s79.666 13.667 108.999 41s44 63.666 44 108.999
s-14.667 81.666 -44 108.999s-65.666 41 -108.999 41z" />
    <glyph glyph-name="seven" unicode="7" 
d="M480 708v-78l-283 -630h-95l288 630h-342v78h432z" />
    <glyph glyph-name="eight" unicode="8" 
d="M76 535c0 54.667 19.167 99.167 57.5 133.5s86.5 51.5 144.5 51.5s106.167 -17.167 144.5 -51.5s57.5 -78.833 57.5 -133.5c0 -34.667 -10.667 -67 -32 -97s-49.333 -49.667 -84 -59v-2c42 -8.66699 75.833 -30 101.5 -64s38.5 -73.333 38.5 -118
c0 -62.667 -21.5 -112.834 -64.5 -150.501s-96.833 -56.5 -161.5 -56.5s-118.5 18.833 -161.5 56.5s-64.5 87.834 -64.5 150.501c0 44.667 12.833 84 38.5 118s59.5 55.333 101.5 64v2c-34.667 9.33301 -62.667 29 -84 59s-32 62.333 -32 97zM160 531c0 -34 11 -62 33 -84
s50.333 -33 85 -33s63 11 85 33s33 50 33 84s-11 62 -33 84s-50.333 33 -85 33s-63 -11 -85 -33s-33 -50 -33 -84zM136 201c0 -40.667 13.667 -74.334 41 -101.001s61 -40 101 -40s73.667 13.333 101 40s41 60.334 41 101.001s-13.667 74.334 -41 101.001s-61 40 -101 40
s-73.667 -13.333 -101 -40s-41 -60.334 -41 -101.001z" />
    <glyph glyph-name="nine" unicode="9" 
d="M162 0l189.998 295.001l-2 2c-24 -14 -55.667 -21 -95 -21c-62 0 -113.167 20.667 -153.5 62s-60.5 94.666 -60.5 159.999c0 67.333 22.333 121.166 67 161.499s101.334 60.5 170.001 60.5s125.334 -20.167 170.001 -60.5s67 -94.166 67 -161.499
c0 -37.333 -5.5 -70.833 -16.5 -100.5s-27.833 -62.5 -50.5 -98.5l-188 -299h-98zM277.998 348.001c43.333 0 79.666 13.667 108.999 41s44 63.666 44 108.999s-14.667 81.666 -44 108.999s-65.666 41 -108.999 41s-79.666 -13.667 -108.999 -41s-44 -63.666 -44 -108.999
s14.667 -81.666 44 -108.999s65.666 -41 108.999 -41z" />
    <glyph glyph-name="colon" unicode=":" horiz-adv-x="278" 
d="M139 480c16.667 0 30.832 -5.83301 42.499 -17.5s17.5 -25.834 17.5 -42.501c0 -16 -6 -30 -18 -42s-26 -18 -42 -18s-30 6 -42 18s-18 26 -18 42c0 16.667 5.83301 30.834 17.5 42.501s25.834 17.5 42.501 17.5zM138.998 114c16.667 0 30.832 -5.83301 42.499 -17.5
s17.5 -25.834 17.5 -42.501c0 -16 -6 -30 -18 -42s-26 -18 -42 -18s-30 6 -42 18s-18 26 -18 42c0 16.667 5.83301 30.834 17.5 42.501s25.834 17.5 42.501 17.5z" />
    <glyph glyph-name="semicolon" unicode=";" horiz-adv-x="278" 
d="M211 102l-82 -240h-77l68 240h91zM139 480c16.667 0 30.832 -5.83301 42.499 -17.5s17.5 -25.834 17.5 -42.501c0 -16 -6 -30 -18 -42s-26 -18 -42 -18s-30 6 -42 18s-18 26 -18 42c0 16.667 5.83301 30.834 17.5 42.501s25.834 17.5 42.501 17.5z" />
    <glyph glyph-name="less" unicode="&#x3c;" horiz-adv-x="666" 
d="M594 564v-66l-441 -195l441 -195v-66l-522 232v58z" />
    <glyph glyph-name="equal" unicode="=" horiz-adv-x="666" 
d="M72 348v66h522v-66h-522zM72 192v66h522v-66h-522z" />
    <glyph glyph-name="greater" unicode="&#x3e;" horiz-adv-x="666" 
d="M72 42v66l441 195l-441 195v66l522 -232v-58z" />
    <glyph glyph-name="question" unicode="?" horiz-adv-x="482" 
d="M189 198l0.00195312 62.999c0 34.667 4.16699 59.5 12.5 74.5s27.166 37.167 56.499 66.5l17.5 17.5c9 9 15 15.167 18 18.5l15.5 17.5c7.33301 8.33301 12.333 15.166 15 20.499l10.5 20c4.33301 8 7.16602 16 8.49902 24s2 16.333 2 25c0 32.667 -9.5 59 -28.5 79
s-44.833 30 -77.5 30s-59.834 -9.83301 -81.501 -29.5s-35.167 -46.167 -40.5 -79.5l-90 10c8.66699 53.333 32.5 95.166 71.5 125.499s86.167 45.5 141.5 45.5c56.667 0 103.334 -15.667 140.001 -47s55 -75 55 -131c0 -21.333 -2.66699 -40.666 -8 -57.999
s-14.666 -34.666 -27.999 -51.999s-24.5 -30.666 -33.5 -39.999s-23.833 -23.666 -44.5 -42.999c-20.667 -20 -33.834 -36.333 -39.501 -49s-8.5 -33.334 -8.5 -62.001v-46h-84zM231.002 113.999c16.667 0 30.832 -5.83301 42.499 -17.5s17.5 -25.834 17.5 -42.501
c0 -16 -6 -30 -18 -42s-26 -18 -42 -18s-30 6 -42 18s-18 26 -18 42c0 16.667 5.83301 30.834 17.5 42.501s25.834 17.5 42.501 17.5z" />
    <glyph glyph-name="at" unicode="@" horiz-adv-x="800" 
d="M262 293c0 -27.333 8.33105 -50.167 24.998 -68.5s37.334 -27.5 62.001 -27.5c40.667 0 76.667 24 108 72s47 94.667 47 140c0 25.333 -8.16699 47.333 -24.5 66s-35.166 28 -56.499 28c-44 0 -81.833 -23 -113.5 -69s-47.5 -93 -47.5 -141zM618.998 549.999
l-84.001 -282.997c-6 -19.333 -9 -36 -9 -50c0 -13.333 8 -20 24 -20c32.667 0 64.167 22.833 94.5 68.5s45.5 95.5 45.5 149.5c0 75.333 -27.167 137 -81.5 185s-117.833 72 -190.5 72c-86 0 -158.833 -31.333 -218.5 -94s-89.5 -137.334 -89.5 -224.001
c0 -88.667 30.5 -163.834 91.5 -225.501s133.167 -92.5 216.5 -92.5c49.333 0 96.833 11 142.5 33s82.167 51.333 109.5 88h63c-32 -54 -76.167 -96.667 -132.5 -128s-117.166 -47 -182.499 -47c-104.667 0 -193.167 36 -265.5 108s-108.5 160 -108.5 264
c0 103.333 36.5 191.166 109.5 263.499s161.167 108.5 264.5 108.5c93.333 0 173 -29 239 -87s99 -131 99 -219c0 -41.333 -7.83301 -80.5 -23.5 -117.5s-35.167 -67.667 -58.5 -92s-48.5 -43.666 -75.5 -57.999s-52.5 -21.5 -76.5 -21.5c-18 0 -33 5.66699 -45 17
s-18.333 27.666 -19 48.999h-2c-38 -44 -79.667 -66 -125 -66c-42 0 -76 14.833 -102 44.5s-39 66.5 -39 110.5c0 73.333 22 138.833 66 196.5s99.667 86.5 167 86.5c54 0 91 -27.333 111 -82h2l18 63h65z" />
    <glyph glyph-name="A" unicode="A" horiz-adv-x="704" 
d="M6 0l312 708h79l301 -708h-98l-72 174h-354l-73 -174h-95zM496 252l-140 348h-2l-147 -348h289z" />
    <glyph glyph-name="B" unicode="B" horiz-adv-x="630" 
d="M88 0l0.000976562 708h216c66 0 121.667 -14 167 -42s68 -72 68 -132c0 -40 -11 -73.667 -33 -101s-52.333 -47 -91 -59v-2c46 -4 84.167 -22.5 114.5 -55.5s45.5 -72.5 45.5 -118.5c0 -37.333 -8 -69.5 -24 -96.5s-37.833 -47.5 -65.5 -61.5
s-56.834 -24.167 -87.501 -30.5s-63.667 -9.5 -99 -9.5h-211zM172.001 630l0.000976562 -222h116c22 0 41.667 1.5 59 4.5s34.166 8.33301 50.499 16s29 19.5 38 35.5s13.5 35.667 13.5 59c0 71.333 -50.667 107 -152 107h-125zM172.002 330l-0.000976562 -251.999h142
c46.667 0 86.834 10.167 120.501 30.5s50.5 51.166 50.5 92.499c0 46 -16 79 -48 99s-72.333 30 -121 30h-144z" />
    <glyph glyph-name="C" unicode="C" horiz-adv-x="704" 
d="M657 615l-73.002 -53.002c-20.667 28 -46.667 49.333 -78 64s-64.333 22 -99 22c-77.333 0 -141.666 -29.167 -192.999 -87.5s-77 -127.166 -77 -206.499c0 -83.333 25.333 -153.166 76 -209.499s115.334 -84.5 194.001 -84.5c85.333 0 153.666 33 204.999 99l63 -53
c-61.333 -82.667 -150.666 -124 -267.999 -124c-102 0 -187.5 35.333 -256.5 106s-103.5 159.334 -103.5 266.001c0 105.333 34 193.666 102 264.999s154 107 258 107c110 0 193.333 -37 250 -111z" />
    <glyph glyph-name="D" unicode="D" horiz-adv-x="741" 
d="M75 0v708h272c37.333 0 75.166 -6.5 113.499 -19.5s75.5 -32.667 111.5 -59s65.333 -63.333 88 -111s34 -102.5 34 -164.5s-11.333 -116.833 -34 -164.5s-52 -84.667 -88 -111s-73.167 -46 -111.5 -59s-76.166 -19.5 -113.499 -19.5h-272zM159 630v-552.002h160
c86 0 155 22.833 207 68.5s78 114.834 78 207.501s-26 161.834 -78 207.501s-121 68.5 -207 68.5h-160z" />
    <glyph glyph-name="E" unicode="E" horiz-adv-x="593" 
d="M88 0v708h445v-78h-361v-222h337v-78h-337v-252h379v-78h-463z" />
    <glyph glyph-name="F" unicode="F" 
d="M88 0v708h439v-78h-355v-234h330v-78h-330v-318h-84z" />
    <glyph glyph-name="G" unicode="G" horiz-adv-x="778" 
d="M690 396l-0.000976562 -348.002c-79.333 -44 -167.666 -66 -264.999 -66c-110.667 0 -201.334 34.333 -272.001 103s-106 158.334 -106 269.001c0 109.333 36.5 198.666 109.5 267.999s163.5 104 271.5 104c105.333 0 188.666 -31 249.999 -93l-63 -66
c-50 54 -114.333 81 -193 81c-81.333 0 -149.166 -27.667 -203.499 -83s-81.5 -125.666 -81.5 -210.999s27.167 -155.666 81.5 -210.999s124.833 -83 211.5 -83c62.667 0 121.334 13.667 176.001 41v217h-163v78h247z" />
    <glyph glyph-name="H" unicode="H" horiz-adv-x="722" 
d="M88 0v708h84v-300h378v300h84v-708h-84v330h-378v-330h-84z" />
    <glyph glyph-name="I" unicode="I" horiz-adv-x="260" 
d="M88 0v708h84v-708h-84z" />
    <glyph glyph-name="J" unicode="J" horiz-adv-x="482" 
d="M394 708v-524.999c0 -54.667 -16.333 -101.834 -49 -141.501s-83.667 -59.5 -153 -59.5c-50.667 0 -92.667 13 -126 39s-54.333 63.667 -63 113l84 17c12 -60.667 47.333 -91 106 -91c78 0 117 50.667 117 152v496h84z" />
    <glyph glyph-name="K" unicode="K" horiz-adv-x="630" 
d="M88 0v708h84v-306h12l322 306h121l-350 -323l367 -385h-123l-337 360h-12v-360h-84z" />
    <glyph glyph-name="L" unicode="L" horiz-adv-x="500" 
d="M88 0v708h84v-630h324v-78h-408z" />
    <glyph glyph-name="M" unicode="M" horiz-adv-x="907" 
d="M88 0v708h125l240 -555h2l242 555h122v-708h-84v594h-2l-254 -594h-51l-254 594h-2v-594h-84z" />
    <glyph glyph-name="N" unicode="N" horiz-adv-x="778" 
d="M88 0v708h106l410 -588h2v588h84v-708h-106l-410 588h-2v-588h-84z" />
    <glyph glyph-name="O" unicode="O" horiz-adv-x="834" 
d="M417 -18c-107.333 0 -195.833 35.167 -265.5 105.5s-104.5 159.166 -104.5 266.499s34.833 196.166 104.5 266.499s158.167 105.5 265.5 105.5s195.833 -35.167 265.5 -105.5s104.5 -159.166 104.5 -266.499s-34.833 -196.166 -104.5 -266.499
s-158.167 -105.5 -265.5 -105.5zM417 60c82 0 149.167 28.333 201.5 85s78.5 126.334 78.5 209.001s-26.167 152.334 -78.5 209.001s-119.5 85 -201.5 85s-149.167 -28.333 -201.5 -85s-78.5 -126.334 -78.5 -209.001s26.167 -152.334 78.5 -209.001s119.5 -85 201.5 -85z
" />
    <glyph glyph-name="P" unicode="P" horiz-adv-x="593" 
d="M88 0l-0.000976562 708h210c72.667 0 132.167 -15.167 178.5 -45.5s69.5 -79.833 69.5 -148.5c0 -36.667 -7.16699 -68.5 -21.5 -95.5s-33.5 -47.333 -57.5 -61s-48.667 -23.667 -74 -30s-51.666 -9.5 -78.999 -9.5h-142v-318h-84zM171.999 630v-234.002h142
c43.333 0 77.833 9.83301 103.5 29.5s38.5 48.834 38.5 87.501s-12.833 67.834 -38.5 87.501s-60.167 29.5 -103.5 29.5h-142z" />
    <glyph glyph-name="Q" unicode="Q" horiz-adv-x="834" 
d="M822 72v-72.001h-411c-103.333 0 -189.833 34.833 -259.5 104.5s-104.5 155.834 -104.5 258.501s34.833 188.834 104.5 258.501s156.167 104.5 259.5 104.5s189.833 -34.833 259.5 -104.5s104.5 -155.834 104.5 -258.501c0 -61.333 -15.667 -119.333 -47 -174
s-73 -93 -125 -115v-2h219zM137 362.999c0 -80 26.167 -147.5 78.5 -202.5s117.5 -82.5 195.5 -82.5s143.167 27.5 195.5 82.5s78.5 122.5 78.5 202.5s-26 147.5 -78 202.5s-117.333 82.5 -196 82.5s-144 -27.5 -196 -82.5s-78 -122.5 -78 -202.5z" />
    <glyph glyph-name="R" unicode="R" horiz-adv-x="611" 
d="M88 0l-0.000976562 708h181c31.333 0 58.833 -1.16699 82.5 -3.5s48.667 -7.33301 75 -15s48 -18.334 65 -32.001s31.167 -32.667 42.5 -57s17 -53.5 17 -87.5c0 -51.333 -15.667 -93.166 -47 -125.499s-74.666 -52.833 -129.999 -61.5l201 -326h-103l-192 318h-108v-318
h-84zM171.999 630l0.00292969 -234.002h75c21.333 0 37.666 0.166992 48.999 0.5s27 1.5 47 3.5s35.667 5.5 47 10.5s23.166 11.667 35.499 20s21.333 19.5 27 33.5s8.5 30.333 8.5 49c0 24 -4.83301 44.333 -14.5 61s-23.334 28.834 -41.001 36.501
s-35.5 12.834 -53.5 15.501s-38.667 4 -62 4h-118z" />
    <glyph glyph-name="S" unicode="S" 
d="M493 643l-68.999 -60.001c-26.667 43.333 -69.667 65 -129 65c-41.333 0 -76.833 -10 -106.5 -30s-44.5 -49.667 -44.5 -89c0 -32 10.5 -57.167 31.5 -75.5s60.167 -36.5 117.5 -54.5c34.667 -11.333 61.667 -21 81 -29s40.666 -20 63.999 -36s40.333 -35.833 51 -59.5
s16 -52.167 16 -85.5c0 -66.667 -24.167 -117.834 -72.5 -153.501s-107.166 -53.5 -176.499 -53.5c-44.667 0 -86.5 8 -125.5 24s-69.833 40.667 -92.5 74l72 59c14.667 -25.333 35.667 -44.833 63 -58.5s56.666 -20.5 87.999 -20.5c39.333 0 74.833 11 106.5 33
s47.5 52 47.5 90c0 20 -2.83301 36.667 -8.5 50s-17.167 25.5 -34.5 36.5s-33.333 19.333 -48 25s-40 14.5 -76 26.5l-18 6c-57.333 18.667 -101 42.334 -131 71.001s-45 70 -45 124c0 64.667 23.5 114.834 70.5 150.501s103.833 53.5 170.5 53.5
c84.667 0 150.667 -27.667 198 -83z" />
    <glyph glyph-name="T" unicode="T" horiz-adv-x="574" 
d="M563 708v-78h-234v-630h-84v630h-234v78h552z" />
    <glyph glyph-name="U" unicode="U" horiz-adv-x="704" 
d="M619 708l-0.00195312 -438c0 -84.667 -21.667 -153.834 -65 -207.501s-110.666 -80.5 -201.999 -80.5s-158.666 26.833 -201.999 80.5s-65 122.834 -65 207.501v438h84v-426c0 -30 3 -57.667 9 -83s15.667 -48.833 29 -70.5s32.333 -38.5 57 -50.5s54 -18 88 -18
s63.333 6 88 18s43.667 28.833 57 50.5s23 45.167 29 70.5s9 53 9 83v426h84z" />
    <glyph glyph-name="V" unicode="V" horiz-adv-x="611" 
d="M262 0l-271 708h95l218 -582h2l225 582h89l-277 -708h-81z" />
    <glyph glyph-name="W" unicode="W" horiz-adv-x="963" 
d="M213 0l-207 708h93l161 -588h2l174 588h94l173 -588h2l164 588h88l-208 -708h-91l-175 600h-2l-176 -600h-92z" />
    <glyph glyph-name="X" unicode="X" horiz-adv-x="630" 
d="M-3 0l258 373l-238 335h108l191 -277l189 277h105l-238 -335l261 -373h-111l-210 314l-211 -314h-104z" />
    <glyph glyph-name="Y" unicode="Y" horiz-adv-x="594" 
d="M255 0v305l-264 403h107l199 -320l205 320h101l-264 -403v-305h-84z" />
    <glyph glyph-name="Z" unicode="Z" horiz-adv-x="574" 
d="M29 0v75l409 555h-403v78h505v-72l-409 -558h414v-78h-516z" />
    <glyph glyph-name="bracketleft" unicode="[" horiz-adv-x="259" 
d="M193 732v-60h-93v-768h93v-60h-165v888h165z" />
    <glyph glyph-name="backslash" unicode="\" horiz-adv-x="370" 
d="M304 -43l-301 769l63 24l301 -768z" />
    <glyph glyph-name="bracketright" unicode="]" horiz-adv-x="259" 
d="M66 672v60h165v-888h-165v60h93v768h-93z" />
    <glyph glyph-name="asciicircum" unicode="^" horiz-adv-x="666" 
d="M80 275l223 433h60l223 -433h-74l-179 349l-179 -349h-74z" />
    <glyph glyph-name="underscore" unicode="_" horiz-adv-x="500" 
d="M0 -125v50h500v-50h-500z" />
    <glyph glyph-name="grave" unicode="`" horiz-adv-x="240" 
d="M85 708l104 -144h-71l-143 144h110z" />
    <glyph glyph-name="a" unicode="a" horiz-adv-x="519" 
d="M117 357l-49.001 51.002c47.333 48 109.333 72 186 72c68 0 117.667 -16.333 149 -49s47 -82.334 47 -149.001v-201c0 -26 2.33301 -53 7 -81h-75c-3.33301 14 -5 37.333 -5 70h-2c-35.333 -54.667 -86.666 -82 -153.999 -82c-50 0 -91.5 12.167 -124.5 36.5
s-49.5 58.5 -49.5 102.5c0 24.667 4.33301 46.5 13 65.5s21.5 34.333 38.5 46s34.5 21.167 52.5 28.5s39.333 12.666 64 15.999s46.167 5.5 64.5 6.5s39.166 1.5 62.499 1.5h30v14c0 33.333 -10.167 58.833 -30.5 76.5s-48.833 26.5 -85.5 26.5
c-55.333 0 -101.666 -17 -138.999 -51zM371.999 225.002h-78c-108.667 0 -163 -30 -163 -90c0 -54 34.333 -81 103 -81c42.667 0 76 13.5 100 40.5s36.667 60.5 38 100.5v30z" />
    <glyph glyph-name="b" unicode="b" horiz-adv-x="611" 
d="M70 0l-0.000976562 755.999h78v-356h2c46 53.333 102 80 168 80c72.667 0 131.834 -23.167 177.501 -69.5s68.5 -105.166 68.5 -176.499c0 -70 -22.5 -128.5 -67.5 -175.5s-100.5 -70.5 -166.5 -70.5c-40.667 0 -77 9 -109 27s-55.667 40.667 -71 68h-2v-83h-78z
M147.999 233.999c0 -50 15.333 -91.5 46 -124.5s70.667 -49.5 120 -49.5s89.333 16.5 120 49.5s46 74.5 46 124.5s-15.333 91.5 -46 124.5s-70.667 49.5 -120 49.5s-89.333 -16.5 -120 -49.5s-46 -74.5 -46 -124.5z" />
    <glyph glyph-name="c" unicode="c" horiz-adv-x="482" 
d="M469 406l-62.001 -55c-31.333 38 -70.666 57 -117.999 57c-50.667 0 -89.667 -16.333 -117 -49s-41 -74.334 -41 -125.001c0 -49.333 14.667 -90.666 44 -123.999s67.333 -50 114 -50c51.333 0 91 19.333 119 58l58 -55c-43.333 -50 -102.333 -75 -177 -75
c-72 0 -130.333 22.833 -175 68.5s-67 104.834 -67 177.501c0 71.333 22.5 130.166 67.5 176.499s103.167 69.5 174.5 69.5c74.667 0 134.667 -24.667 180 -74z" />
    <glyph glyph-name="d" unicode="d" horiz-adv-x="611" 
d="M463 0l-0.000976562 83.001h-2c-15.333 -27.333 -39 -50 -71 -68s-68.333 -27 -109 -27c-66 0 -121.5 23.5 -166.5 70.5s-67.5 105.5 -67.5 175.5c0 71.333 22.833 130.166 68.5 176.499s104.834 69.5 177.501 69.5c66 0 122 -26.667 168 -80h2v356h78v-756h-78z
M462.999 234.001c0 50 -15.333 91.5 -46 124.5s-70.667 49.5 -120 49.5s-89.333 -16.5 -120 -49.5s-46 -74.5 -46 -124.5s15.333 -91.5 46 -124.5s70.667 -49.5 120 -49.5s89.333 16.5 120 49.5s46 74.5 46 124.5z" />
    <glyph glyph-name="e" unicode="e" 
d="M433 131l59.001 -46.001c-50 -64.667 -119.333 -97 -208 -97c-71.333 0 -128.666 23.5 -171.999 70.5s-65 105.5 -65 175.5c0 72 22.667 131 68 177s102.666 69 171.999 69c67.333 0 121.166 -21.667 161.499 -65s60.5 -103.333 60.5 -180v-25h-378
c3.33301 -41.333 19.333 -76.666 48 -105.999s63.667 -44 105 -44c62 0 111.667 23.667 149 71zM131.001 275.999h294c-1.33301 40 -14.5 72 -39.5 96s-58.833 36 -101.5 36s-77.5 -12 -104.5 -36s-43.167 -56 -48.5 -96z" />
    <glyph glyph-name="f" unicode="f" horiz-adv-x="315" 
d="M114 0l0.000976562 402h-102v66h102v105c0 130 55.333 195 166 195c25.333 0 45.333 -4 60 -12l-11 -70c-18.667 6.66699 -36.334 10 -53.001 10c-19.333 0 -35 -3.16699 -47 -9.5s-20.5 -16.833 -25.5 -31.5s-8.16699 -28.667 -9.5 -42s-2 -32.333 -2 -57v-88h114v-66
h-114v-402h-78z" />
    <glyph glyph-name="g" unicode="g" horiz-adv-x="611" 
d="M541 468l0.000976562 -446.997c0 -84.667 -22 -149.334 -66 -194.001s-107 -67 -189 -67c-93.333 0 -170 29.667 -230 89l56 64c50 -54 108 -81 174 -81c118 0 177 63 177 189v60h-2c-18 -28.667 -41.833 -50.334 -71.5 -65.001s-60.834 -22 -93.501 -22
c-73.333 0 -133.166 22.667 -179.499 68s-69.5 102.666 -69.5 171.999c0 76 22.667 136 68 180s105.666 66 180.999 66c33.333 0 65.5 -8 96.5 -24s53.833 -38.667 68.5 -68h2v80h78zM131.001 234.003c0 -47.333 16.001 -87.168 48.001 -119.501s71 -48.5 117 -48.5
c51.333 0 92 16.5 122 49.5s45 73.167 45 120.5c0 50.667 -15.5 92 -46.5 124s-71.167 48 -120.5 48c-48.667 0 -88.334 -16.667 -119.001 -50s-46 -74.666 -46 -123.999z" />
    <glyph glyph-name="h" unicode="h" 
d="M74 0l0.000976562 756h78v-353h2c11.333 20.667 30.666 38.667 57.999 54s58 23 92 23c59.333 0 103.833 -17.167 133.5 -51.5s44.5 -80.833 44.5 -139.5v-289h-78v281c0 40 -9 71.167 -27 93.5s-44.667 33.5 -80 33.5c-48.667 0 -85 -16 -109 -48s-36 -76 -36 -132v-228
h-78z" />
    <glyph glyph-name="i" unicode="i" horiz-adv-x="240" 
d="M81 0v468h78v-468h-78zM63 651c0 15.333 5.50195 28.666 16.502 39.999s24.5 17 40.5 17s29.5 -5.66699 40.5 -17s16.5 -24.666 16.5 -39.999c0 -16.667 -5.33301 -30.334 -16 -41.001s-24.334 -16 -41.001 -16s-30.334 5.33301 -41.001 16s-16 24.334 -16 41.001z" />
    <glyph glyph-name="j" unicode="j" horiz-adv-x="240" 
d="M159 468v-573c0 -14 -2 -28 -6 -42s-10.5 -28.333 -19.5 -43s-23.333 -26.667 -43 -36s-43.167 -14 -70.5 -14c-22 0 -40 3.33301 -54 10l9 68c13.333 -4 26 -6 38 -6c26.667 0 44.667 8.5 54 25.5s14 41.5 14 73.5v537h78zM63 651
c0 15.333 5.50195 28.666 16.502 39.999s24.5 17 40.5 17s29.5 -5.66699 40.5 -17s16.5 -24.666 16.5 -39.999c0 -16.667 -5.33301 -30.334 -16 -41.001s-24.334 -16 -41.001 -16s-30.334 5.33301 -41.001 16s-16 24.334 -16 41.001z" />
    <glyph glyph-name="k" unicode="k" horiz-adv-x="500" 
d="M74 0v756h78v-494l213 206h111l-226 -213l249 -255h-115l-232 246v-246h-78z" />
    <glyph glyph-name="l" unicode="l" horiz-adv-x="240" 
d="M81 0v756h78v-756h-78z" />
    <glyph glyph-name="m" unicode="m" horiz-adv-x="852" 
d="M74 0v356.999c0 15.333 -0.666992 35.333 -2 60s-2 41.667 -2 51h74c0 -8 0.333008 -20.667 1 -38s1 -30.333 1 -39h2c11.333 24.667 31 45.667 59 63s60.333 26 97 26c70.667 0 120 -29.667 148 -89c36.667 59.333 86 89 148 89c64 0 109.667 -16.667 137 -50
s41 -82 41 -146v-284h-78v280c0 85.333 -38 128 -114 128c-34 0 -62.667 -12.667 -86 -38s-35 -58.666 -35 -99.999v-270h-78v265c0 51.333 -7 88 -21 110s-37 33 -69 33c-48.667 0 -85 -16 -109 -48s-36 -76 -36 -132v-228h-78z" />
    <glyph glyph-name="n" unicode="n" 
d="M74 0v357c0 15.333 -0.666992 35.333 -2 60s-2 41.667 -2 51h74c0 -8 0.333008 -20.667 1 -38s1 -30.333 1 -39h2c11.333 24.667 31 45.667 59 63s60.333 26 97 26c59.333 0 103.833 -17.167 133.5 -51.5s44.5 -80.833 44.5 -139.5v-289h-78v281c0 40 -9 71.167 -27 93.5
s-44.667 33.5 -80 33.5c-48.667 0 -85 -16 -109 -48s-36 -76 -36 -132v-228h-78z" />
    <glyph glyph-name="o" unicode="o" horiz-adv-x="594" 
d="M47 234c0 72.667 23.5 131.834 70.5 177.501s106.833 68.5 179.5 68.5s132.5 -22.833 179.5 -68.5s70.5 -104.834 70.5 -177.501s-23.5 -131.834 -70.5 -177.501s-106.833 -68.5 -179.5 -68.5s-132.5 22.833 -179.5 68.5s-70.5 104.834 -70.5 177.501zM131 234
c0 -50 15.333 -91.5 46 -124.5s70.667 -49.5 120 -49.5s89.333 16.5 120 49.5s46 74.5 46 124.5s-15.333 91.5 -46 124.5s-70.667 49.5 -120 49.5s-89.333 -16.5 -120 -49.5s-46 -74.5 -46 -124.5z" />
    <glyph glyph-name="p" unicode="p" horiz-adv-x="611" 
d="M70 -228l-0.000976562 695.999h78v-68h2c46 53.333 102 80 168 80c72.667 0 131.834 -23.167 177.501 -69.5s68.5 -105.166 68.5 -176.499c0 -70 -22.5 -128.5 -67.5 -175.5s-100.5 -70.5 -166.5 -70.5c-40.667 0 -77 9 -109 27s-55.667 40.667 -71 68h-2v-311h-78z
M147.999 233.999c0 -50 15.333 -91.5 46 -124.5s70.667 -49.5 120 -49.5s89.333 16.5 120 49.5s46 74.5 46 124.5s-15.333 91.5 -46 124.5s-70.667 49.5 -120 49.5s-89.333 -16.5 -120 -49.5s-46 -74.5 -46 -124.5z" />
    <glyph glyph-name="q" unicode="q" horiz-adv-x="611" 
d="M541 468l0.000976562 -695.999h-78v296h-2c-46 -53.333 -102 -80 -168 -80c-72.667 0 -131.834 23.167 -177.501 69.5s-68.5 105.166 -68.5 176.499c0 70 22.5 128.5 67.5 175.5s100.5 70.5 166.5 70.5c40.667 0 77 -9 109 -27s55.667 -40.667 71 -68h2v83h78z
M463.001 234.001c0 50 -15.333 91.5 -46 124.5s-70.667 49.5 -120 49.5s-89.333 -16.5 -120 -49.5s-46 -74.5 -46 -124.5s15.333 -91.5 46 -124.5s70.667 -49.5 120 -49.5s89.333 16.5 120 49.5s46 74.5 46 124.5z" />
    <glyph glyph-name="r" unicode="r" horiz-adv-x="352" 
d="M74 0v357c0 15.333 -0.666992 35.333 -2 60s-2 41.667 -2 51h74c0 -8 0.333008 -20.667 1 -38s1 -30.333 1 -39h2c11.333 24.667 31 45.667 59 63s60.333 26 97 26c12 0 22.667 -1.66699 32 -5l-5 -79c-12.667 4 -26.667 6 -42 6c-91.333 0 -137 -58 -137 -174v-228h-78z
" />
    <glyph glyph-name="s" unicode="s" horiz-adv-x="426" 
d="M22 75l62 47.9961c34 -42 74 -63 120 -63c27.333 0 51.333 6 72 18s31 30 31 54c0 12 -2.66699 22.333 -8 31s-13.333 15.667 -24 21s-20.834 9.5 -30.501 12.5s-22.167 6.16699 -37.5 9.5c-28 6.66699 -49.5 12.334 -64.5 17.001s-31.5 11.834 -49.5 21.501
s-31 22.5 -39 38.5s-12 35.667 -12 59c0 43.333 17.333 77.166 52 101.499s75.667 36.5 123 36.5c76 0 129 -28.333 159 -85l-65 -43c-22.667 37.333 -55.667 56 -99 56c-24 0 -45.333 -5.66699 -64 -17s-28 -27.333 -28 -48c0 -30 39.333 -52.667 118 -68
c48.667 -9.33301 86.334 -24.166 113.001 -44.499s40 -52.166 40 -95.499c0 -49.333 -18.167 -86.166 -54.5 -110.499s-80.5 -36.5 -132.5 -36.5c-41.333 0 -76.5 6.5 -105.5 19.5s-54.5 35.5 -76.5 67.5z" />
    <glyph glyph-name="t" unicode="t" horiz-adv-x="352" 
d="M330 468v-66h-138v-234c0 -15.333 0.166992 -27 0.5 -35s1.66602 -17.5 3.99902 -28.5s6 -19.167 11 -24.5s12 -10 21 -14s20.167 -6 33.5 -6c25.333 0 48.333 5.33301 69 16l3 -71c-25.333 -11.333 -55.666 -17 -90.999 -17c-52 0 -86.5 12.667 -103.5 38
s-25.5 65 -25.5 119v257h-102v66h102v133h78v-133h138z" />
    <glyph glyph-name="u" unicode="u" 
d="M482 468v-357c0 -15.333 0.666992 -35.333 2 -60s2 -41.667 2 -51h-74c0 8 -0.333008 20.667 -1 38s-1 30.333 -1 39h-2c-11.333 -24.667 -31 -45.667 -59 -63s-60.333 -26 -97 -26c-59.333 0 -103.833 17.167 -133.5 51.5s-44.5 80.833 -44.5 139.5v289h78v-281
c0 -40 9 -71.167 27 -93.5s44.667 -33.5 80 -33.5c48.667 0 85 16 109 48s36 76 36 132v228h78z" />
    <glyph glyph-name="v" unicode="v" horiz-adv-x="482" 
d="M472 468l-185 -468h-86l-191 468h91l146 -367h2l139 367h84z" />
    <glyph glyph-name="w" unicode="w" horiz-adv-x="741" 
d="M727 468l-151 -468h-77l-133 360h-2l-118 -360h-80l-152 468h86l107 -360h2l121 360h82l123 -360h2l106 360h84z" />
    <glyph glyph-name="x" unicode="x" horiz-adv-x="500" 
d="M3 0l192 252l-168 216h102l124 -168l117 168h95l-161 -216l193 -252h-103l-148 202l-146 -202h-97z" />
    <glyph glyph-name="y" unicode="y" horiz-adv-x="482" 
d="M472 468l-226.001 -575c-18 -46 -37.667 -79.667 -59 -101s-53.666 -32 -96.999 -32c-30 0 -53.333 4 -70 12l10 68c14 -5.33301 32.333 -8 55 -8c23.333 0 41.333 6.33301 54 19s23.667 32 33 58l32 88l-194 471h91l145 -367h2l139 367h85z" />
    <glyph glyph-name="z" unicode="z" horiz-adv-x="444" 
d="M30 0v61l275 341h-263v66h365v-60l-275 -342h282v-66h-384z" />
    <glyph glyph-name="braceleft" unicode="{" horiz-adv-x="333" 
d="M294 732l-0.000976562 -59.999h-54c-32.667 0 -49 -26.333 -49 -79v-176c0 -39.333 -9.66699 -69.333 -29 -90s-38.333 -33.334 -57 -38.001v-2c18.667 -2.66699 37.667 -14 57 -34s29 -51.667 29 -95v-175c0 -52.667 16.333 -79 49 -79h54v-60h-70
c-27.333 0 -51.666 11.333 -72.999 34s-32 53 -32 91v175c0 34 -8.66699 61.5 -26 82.5s-37.333 31.5 -60 31.5v60c22 0 41.833 10.667 59.5 32s26.5 48.333 26.5 81v176c0 38 11 68.333 33 91s46 34 72 34h70z" />
    <glyph glyph-name="bar" unicode="|" horiz-adv-x="222" 
d="M78 750h66v-1000h-66v1000z" />
    <glyph glyph-name="braceright" unicode="}" horiz-adv-x="333" 
d="M39 672l-0.000976562 59.999h70c26 0 50 -11.333 72 -34s33 -53 33 -91v-176c0 -32.667 8.83301 -59.667 26.5 -81s37.5 -32 59.5 -32v-60c-22.667 0 -42.667 -10.5 -60 -31.5s-26 -48.5 -26 -82.5v-175c0 -38 -10.667 -68.333 -32 -91s-45.666 -34 -72.999 -34h-70v60
h54c32.667 0 49 26.333 49 79v175c0 43.333 9.66699 75 29 95s38.333 31.333 57 34v2c-18.667 4.66699 -37.667 17.334 -57 38.001s-29 50.667 -29 90v176c0 52.667 -16.333 79 -49 79h-54z" />
    <glyph glyph-name="asciitilde" unicode="~" horiz-adv-x="666" 
d="M530 372l33.001 -48.002c-14 -19.333 -25.167 -33.666 -33.5 -42.999s-21 -19.166 -38 -29.499s-35.167 -15.5 -54.5 -15.5c-24 0 -58 10 -102 30c-3.33301 1.33301 -12.166 5.5 -26.499 12.5s-24.5 11.667 -30.5 14s-14.667 4.83301 -26 7.5s-22 4 -32 4
c-34.667 0 -62.667 -23.333 -84 -70l-33 48c13.333 18.667 24.166 33 32.499 43s21 20 38 30s35.167 15 54.5 15c24 0 58 -10 102 -30c3.33301 -1.33301 12.166 -5.5 26.499 -12.5s24.5 -11.667 30.5 -14s14.667 -4.83301 26 -7.5s22 -4 32 -4c34 0 62.333 23.333 85 70z
" />
    <glyph glyph-name="uni00A0" unicode="&#xa0;" horiz-adv-x="278" 
 />
    <glyph glyph-name="exclamdown" unicode="&#xa1;" horiz-adv-x="278" 
d="M97 -222v510h84v-510h-84zM139 372c-16.667 0 -30.832 5.83301 -42.499 17.5s-17.5 25.834 -17.5 42.501c0 16 6 30 18 42s26 18 42 18s30 -6 42 -18s18 -26 18 -42c0 -16.667 -5.83301 -30.834 -17.5 -42.501s-25.834 -17.5 -42.501 -17.5z" />
    <glyph glyph-name="cent" unicode="&#xa2;" 
d="M277 61l0.000976562 345c-40.667 -8 -71.834 -27.667 -93.501 -59s-32.5 -69 -32.5 -113c0 -42.667 11.5 -80 34.5 -112s53.5 -52.333 91.5 -61zM277.001 -78l-0.000976562 65.999c-63.333 8 -114.166 34.333 -152.499 79s-57.5 100.334 -57.5 167.001
c0 66 19.333 121.5 58 166.5s89.334 70.5 152.001 76.5v69h48v-66c67.333 -3.33301 122 -28 164 -74l-62 -55c-28 34 -62 53 -102 57v-348c42.667 2.66699 77 22 103 58l58 -55c-38.667 -45.333 -92.334 -70.333 -161.001 -75v-66h-48z" />
    <glyph glyph-name="sterling" unicode="&#xa3;" 
d="M57 0v78h108v252h-96v66h96v80c0 82.667 19.5 144 58.5 184s90.833 60 155.5 60c66 0 119.667 -20.667 161 -62l-55 -59c-34 32.667 -70 49 -108 49c-46.667 0 -79.667 -15 -99 -45s-29 -73 -29 -129v-78h162v-66h-162v-252h246v-78h-438z" />
    <glyph glyph-name="currency" unicode="&#xa4;" 
d="M106 354c0 -46.667 17 -88 51 -124s74.333 -54 121 -54s87 18 121 54s51 77.333 51 124c0 48.667 -17 90.5 -51 125.5s-74.333 52.5 -121 52.5s-87 -17.5 -121 -52.5s-51 -76.833 -51 -125.5zM28 148l54 55c-36 45.333 -54 95.666 -54 150.999c0 58 18 108.667 54 152
l-54 54l44 44l54 -53c46 35.333 96.667 53 152 53s106 -17.667 152 -53l54 53l44 -44l-54 -54c36 -43.333 54 -94 54 -152c0 -55.333 -18 -105.666 -54 -150.999l54 -55l-44 -44l-54 55c-47.333 -36.667 -98 -55 -152 -55s-104.667 18.333 -152 55l-54 -55z" />
    <glyph glyph-name="yen" unicode="&#xa5;" 
d="M236 0v174h-159v60h159v71l-9 16h-150v60h114l-191 327h100l178 -327l178 327h100l-191 -327h114v-60h-150l-9 -16v-71h159v-60h-159v-174h-84z" />
    <glyph glyph-name="brokenbar" unicode="&#xa6;" horiz-adv-x="222" 
d="M78 675h66v-350h-66v350zM78 175h66v-350h-66v350z" />
    <glyph glyph-name="section" unicode="&#xa7;" 
d="M463 632l-75.002 -41.0049c-7.33301 20.667 -20.5 36.334 -39.5 47.001s-40.167 16 -63.5 16c-28.667 0 -53.334 -7.33301 -74.001 -22s-31 -36 -31 -64c0 -32.667 14.667 -56.667 44 -72l98 -49c22.667 -10.667 40.834 -20 54.501 -28s29.167 -18.833 46.5 -32.5
s30.166 -29.167 38.499 -46.5s12.5 -36.666 12.5 -57.999c0 -56.667 -28.667 -101 -86 -133c46 -30 69 -71 69 -123c0 -54 -20.167 -95.833 -60.5 -125.5s-88.166 -44.5 -143.499 -44.5c-45.333 0 -85.5 10.333 -120.5 31s-60.5 51.334 -76.5 92.001l77 36
c17.333 -58 59.333 -87 126 -87c30.667 0 56.334 7.66699 77.001 23s31 38.333 31 69c0 5.33301 -0.666992 10.666 -2 15.999s-2.66602 10 -3.99902 14s-4 8.33301 -8 13s-7 8.33398 -9 11.001s-5.83301 6 -11.5 10s-9.5 6.83301 -11.5 8.5s-6.66699 4.33398 -14 8.00098
l-13 6.5l-14 7c-8 4 -12.333 6 -13 6l-122 64c-48.667 25.333 -73 66 -73 122c0 60.667 33.667 107.334 101 140.001c-51.333 29.333 -77 68.666 -77 117.999c0 50.667 19 90.334 57 119.001s83 43 135 43c38 0 73 -7.83301 105 -23.5s55.333 -39.167 70 -70.5z
M235.998 225.995l89.001 -42.999c17.333 7.33301 32.5 19.166 45.5 35.499s19.5 33.5 19.5 51.5c0 13.333 -2.83301 25.5 -8.5 36.5s-14 21 -25 30s-20.833 16.167 -29.5 21.5s-20 11.333 -34 18l-58 29c-13.333 -5.33301 -23.5 -9.83301 -30.5 -13.5s-15.5 -9 -25.5 -16
s-17.333 -15.167 -22 -24.5s-7 -20 -7 -32s2.33301 -23 7 -33s12 -18.833 22 -26.5s18.667 -13.5 26 -17.5s17.666 -9.33301 30.999 -16z" />
    <glyph glyph-name="dieresis" unicode="&#xa8;" horiz-adv-x="240" 
d="M21 684c14.667 0 27.3301 -5.33301 37.9971 -16s16 -23.334 16 -38.001s-5.16699 -27.334 -15.5 -38.001s-23.166 -16 -38.499 -16s-28.166 5.33301 -38.499 16s-15.5 23.334 -15.5 38.001s5.33301 27.334 16 38.001s23.334 16 38.001 16zM218.996 684
c14.667 0 27.3301 -5.33301 37.9971 -16s16 -23.334 16 -38.001s-5.16699 -27.334 -15.5 -38.001s-23.166 -16 -38.499 -16s-28.166 5.33301 -38.499 16s-15.5 23.334 -15.5 38.001s5.33301 27.334 16 38.001s23.334 16 38.001 16z" />
    <glyph glyph-name="copyright" unicode="&#xa9;" horiz-adv-x="800" 
d="M538 282l62.0029 0.000976562c-10.667 -48 -32.667 -86 -66 -114s-73 -42 -119 -42c-66.667 0 -120.334 21.5 -161.001 64.5s-61 97.5 -61 163.5c0 67.333 19.667 122 59 164s92.666 63 159.999 63c48.667 0 90.167 -13.167 124.5 -39.5s55.166 -63.5 62.499 -111.5h-61
c-5.33301 28 -19.5 51.167 -42.5 69.5s-50.5 27.5 -82.5 27.5c-48 0 -85.667 -16.167 -113 -48.5s-41 -73.833 -41 -124.5c0 -48 14.5 -89 43.5 -123s66.5 -51 112.5 -51c32.667 0 60.167 9.66699 82.5 29s35.833 43.666 40.5 72.999zM28.0029 354.001
c0 104.667 36.333 192.834 109 264.501s160.334 107.5 263.001 107.5c102 0 189.5 -35.833 262.5 -107.5s109.5 -159.834 109.5 -264.501s-36.5 -192.834 -109.5 -264.501s-160.5 -107.5 -262.5 -107.5c-102.667 0 -190.334 35.833 -263.001 107.5
s-109 159.834 -109 264.501zM94.0029 354.001c0 -90 29.5 -165.498 88.5 -226.498s131.5 -91.5 217.5 -91.5c85.333 0 157.666 30.667 216.999 92s89 136.666 89 225.999s-29.667 164.666 -89 225.999s-131.666 92 -216.999 92c-86 0 -158.5 -30.5 -217.5 -91.5
s-88.5 -136.5 -88.5 -226.5z" />
    <glyph glyph-name="ordfeminine" unicode="&#xaa;" horiz-adv-x="337" 
d="M300 601l0.00195312 -127.999c0 -8.66699 1.33301 -23 4 -43h-61c-2 16 -3 31 -3 45h-2c-16.667 -34 -50 -51 -100 -51c-32 0 -57.5 7.5 -76.5 22.5s-28.5 36.833 -28.5 65.5c0 18 4.5 33.167 13.5 45.5s19.333 21.666 31 27.999s27.167 11.166 46.5 14.499
s35.166 5.33301 47.499 6s27.5 1 45.5 1h23v14c0 10.667 -6.5 20.834 -19.5 30.501s-30.833 14.5 -53.5 14.5c-18.667 0 -36.334 -3.16699 -53.001 -9.5s-28.667 -13.5 -36 -21.5l-31 42c30.667 28.667 70.667 43 120 43c46.667 0 80.5 -9.83301 101.5 -29.5
s31.5 -49.5 31.5 -89.5zM240.002 559.001h-48c-62 0 -93 -15.333 -93 -46c0 -10.667 5.33301 -19.167 16 -25.5s24.334 -9.5 41.001 -9.5c25.333 0 45.666 6.66699 60.999 20s23 28 23 44v17z" />
    <glyph glyph-name="guillemotleft" unicode="&#xab;" horiz-adv-x="500" 
d="M256 418l-117 -178l117 -178l-55 -36l-143 214l143 214zM442 418l-117 -178l117 -178l-55 -36l-143 214l143 214z" />
    <glyph glyph-name="logicalnot" unicode="&#xac;" horiz-adv-x="666" 
d="M72 348v66h522v-278h-66v212h-456z" />
    <glyph glyph-name="uni00AD" unicode="&#xad;" horiz-adv-x="333" 
d="M44 204v72h245v-72h-245z" />
    <glyph glyph-name="registered" unicode="&#xae;" horiz-adv-x="800" 
d="M258 137v435h164c101.333 0 152 -41.333 152 -124c0 -71.333 -38.333 -111 -115 -119l125 -192h-71l-118 187h-71v-187h-66zM324 518l-0.000976562 -139.999h68c18.667 0 33.334 0.666992 44.001 2s22.334 4.16602 35.001 8.49902s22 11.666 28 21.999s9 23.833 9 40.5
c0 18.667 -5.33301 33.334 -16 44.001s-22.334 17.167 -35.001 19.5s-28 3.5 -46 3.5h-87zM27.999 354.001c0 104.667 36.333 192.834 109 264.501s160.334 107.5 263.001 107.5c102 0 189.5 -35.833 262.5 -107.5s109.5 -159.834 109.5 -264.501
s-36.5 -192.834 -109.5 -264.501s-160.5 -107.5 -262.5 -107.5c-102.667 0 -190.334 35.833 -263.001 107.5s-109 159.834 -109 264.501zM93.999 354.001c0 -90 29.5 -165.498 88.5 -226.498s131.5 -91.5 217.5 -91.5c85.333 0 157.666 30.667 216.999 92
s89 136.666 89 225.999s-29.667 164.666 -89 225.999s-131.666 92 -216.999 92c-86 0 -158.5 -30.5 -217.5 -91.5s-88.5 -136.5 -88.5 -226.5z" />
    <glyph glyph-name="macron" unicode="&#xaf;" horiz-adv-x="240" 
d="M258 660v-60h-276v60h276z" />
    <glyph glyph-name="degree" unicode="&#xb0;" horiz-adv-x="400" 
d="M57 577c0 40 13.833 73.833 41.5 101.5s61.5 41.5 101.5 41.5s73.833 -13.833 101.5 -41.5s41.5 -61.5 41.5 -101.5s-13.833 -73.833 -41.5 -101.5s-61.5 -41.5 -101.5 -41.5s-73.833 13.833 -101.5 41.5s-41.5 61.5 -41.5 101.5zM111 577c0 -22 8.5 -42.333 25.5 -61
s38.167 -28 63.5 -28s46.5 9.33301 63.5 28s25.5 39 25.5 61s-8.5 42.333 -25.5 61s-38.167 28 -63.5 28s-46.5 -9.33301 -63.5 -28s-25.5 -39 -25.5 -61z" />
    <glyph glyph-name="plusminus" unicode="&#xb1;" horiz-adv-x="666" 
d="M72 330v66h228v168h66v-168h228v-66h-228v-168h-66v168h-228zM72 42v66h522v-66h-522z" />
    <glyph glyph-name="twosuperior" unicode="&#xb2;" horiz-adv-x="361" 
d="M32 289l-0.000976562 57.999l168 151c21.333 19.333 36.5 35.5 45.5 48.5s13.5 29.167 13.5 48.5c0 21.333 -7 38.5 -21 51.5s-31 19.5 -51 19.5c-21.333 0 -39.5 -6 -54.5 -18s-24.5 -28.333 -28.5 -49l-63 5c6 38.667 21.833 67.667 47.5 87s57.834 29 96.501 29
c40.667 0 74.167 -10.667 100.5 -32s39.5 -52.333 39.5 -93c0 -21.333 -4.83301 -41.5 -14.5 -60.5s-19.5 -33.667 -29.5 -44s-25 -24.166 -45 -41.499l-120 -104v-2h213v-54h-297z" />
    <glyph glyph-name="threesuperior" unicode="&#xb3;" horiz-adv-x="361" 
d="M140 484l0.000976562 54.001h17c14 0 27 1.33301 39 4s23.833 9.5 35.5 20.5s17.5 25.833 17.5 44.5c0 39.333 -23.667 59 -71 59c-40 0 -67 -14 -81 -42l-55 25c23.333 47.333 68.666 71 135.999 71c38.667 0 71.167 -9.83301 97.5 -29.5s39.5 -46.834 39.5 -81.501
c0 -22 -7.33301 -42 -22 -60s-33.667 -30.333 -57 -37v-2c28.667 -4 51.5 -15.833 68.5 -35.5s25.5 -43.167 25.5 -70.5c0 -38 -14.5 -67.667 -43.5 -89s-65.167 -32 -108.5 -32c-78 0 -127 30.667 -147 92l54 23c15.333 -40.667 46.333 -61 93 -61
c24 0 44.333 6.16699 61 18.5s25 29.5 25 51.5c0 51.333 -36 77 -108 77h-16z" />
    <glyph glyph-name="acute" unicode="&#xb4;" horiz-adv-x="240" 
d="M51 564l104 144h110l-143 -144h-71z" />
    <glyph glyph-name="mu" unicode="&#xb5;" 
d="M482 468v-357c0 -15.333 0.666992 -35.333 2 -60s2 -41.667 2 -51h-74c0 8 -0.333008 20.667 -1 38s-1 30.333 -1 39h-2c-11.333 -24.667 -31 -45.667 -59 -63s-60.333 -26 -97 -26c-38 0 -71.333 8.33301 -100 25v-241h-78v696h78v-281c0 -40 9 -71.167 27 -93.5
s44.667 -33.5 80 -33.5c48.667 0 85 16 109 48s36 76 36 132v228h78z" />
    <glyph glyph-name="paragraph" unicode="&#xb6;" horiz-adv-x="600" 
d="M292 -126l-0.000976562 441.999c-60.667 0 -110.667 17.833 -150 53.5s-59 79.834 -59 132.501c0 64.667 20.333 115.167 61 151.5s96.334 54.5 167.001 54.5h243v-834h-72v768h-118v-768h-72z" />
    <glyph glyph-name="periodcentered" unicode="&#xb7;" horiz-adv-x="278" 
d="M139 369c16.667 0 30.832 -5.83301 42.499 -17.5s17.5 -25.834 17.5 -42.501c0 -16 -6 -30 -18 -42s-26 -18 -42 -18s-30 6 -42 18s-18 26 -18 42c0 16.667 5.83301 30.834 17.5 42.501s25.834 17.5 42.501 17.5z" />
    <glyph glyph-name="cedilla" unicode="&#xb8;" horiz-adv-x="240" 
d="M158 0l-45.001 -64c2 0 5 0.5 9 1.5s8.16699 1.66699 12.5 2s8.83301 0.5 13.5 0.5c20 0 38.333 -6 55 -18s25 -29 25 -51c0 -29.333 -11.667 -51.333 -35 -66s-50.666 -22 -81.999 -22c-36 0 -69 7 -99 21l17 37c23.333 -10.667 47.333 -16 72 -16
c16 0 30.167 3.16699 42.5 9.5s18.5 16.833 18.5 31.5c0 12.667 -5.33301 22.167 -16 28.5s-22.667 9.5 -36 9.5c-10 0 -23 -2.66699 -39 -8l-20 19l62 85h45z" />
    <glyph glyph-name="onesuperior" unicode="&#xb9;" horiz-adv-x="361" 
d="M173 289v352h-2l-81 -66l-33 46l124 93h58v-425h-66z" />
    <glyph glyph-name="ordmasculine" unicode="&#xba;" horiz-adv-x="386" 
d="M30 573c0 43.333 15.333 78.666 46 105.999s69.667 41 117 41s86.333 -13.667 117 -41s46 -62.666 46 -105.999c0 -44.667 -15.333 -80.667 -46 -108s-69.667 -41 -117 -41s-86.333 13.667 -117 41s-46 63.333 -46 108zM96 573c0 -26 9 -48.333 27 -67s41.333 -28 70 -28
s52 9.33301 70 28s27 41 27 67c0 24.667 -9 46.334 -27 65.001s-41.333 28 -70 28s-52 -9.33301 -70 -28s-27 -40.334 -27 -65.001z" />
    <glyph glyph-name="guillemotright" unicode="&#xbb;" horiz-adv-x="500" 
d="M58 62l117 178l-117 178l55 36l143 -214l-143 -214zM244 62l117 178l-117 178l55 36l143 -214l-143 -214z" />
    <glyph glyph-name="onequarter" unicode="&#xbc;" horiz-adv-x="834" 
d="M739 425v-281h56v-54h-56v-90h-66v90h-195v63l183 272h78zM149 0l444 740l55 -32l-444 -740zM673 144v203h-2l-133 -203h135zM155 289v353h-2l-81 -67l-33 46l124 93h58v-425h-66z" />
    <glyph glyph-name="onehalf" unicode="&#xbd;" horiz-adv-x="834" 
d="M132 0l444 740l55 -32l-444 -740zM149 289v353h-2l-81 -67l-33 46l124 93h58v-425h-66zM504 0l-0.000976562 57.999l168 151c21.333 19.333 36.5 35.5 45.5 48.5s13.5 29.167 13.5 48.5c0 21.333 -7 38.5 -21 51.5s-31 19.5 -51 19.5c-21.333 0 -39.5 -6 -54.5 -18
s-24.5 -28.333 -28.5 -49l-63 5c6 38.667 21.833 67.667 47.5 87s57.834 29 96.501 29c40.667 0 74.167 -10.667 100.5 -32s39.5 -52.333 39.5 -93c0 -21.333 -4.83301 -41.5 -14.5 -60.5s-19.5 -33.667 -29.5 -44s-25 -24.166 -45 -41.499l-120 -104v-2h213v-54h-297z" />
    <glyph glyph-name="threequarters" unicode="&#xbe;" horiz-adv-x="834" 
d="M753 425v-281h56v-54h-56v-90h-66v90h-195v63l183 272h78zM188 0l444 740l55 -32l-444 -740zM687 144v203h-2l-133 -201v-2h135zM135 484l0.000976562 54.001h16c62 0 93 23 93 69c0 39.333 -23.667 59 -71 59c-40 0 -67 -14 -81 -42l-55 25
c23.333 47.333 68.666 71 135.999 71c38.667 0 71.167 -9.83301 97.5 -29.5s39.5 -46.834 39.5 -81.501c0 -22 -7.33301 -42 -22 -60s-33.667 -30.333 -57 -37v-2c28.667 -4 51.5 -15.833 68.5 -35.5s25.5 -43.167 25.5 -70.5c0 -38 -14.5 -67.667 -43.5 -89
s-65.167 -32 -108.5 -32c-78 0 -127.333 30.667 -148 92l55 23c15.333 -40.667 46.333 -61 93 -61c24 0 44.333 6.16699 61 18.5s25 29.5 25 51.5c0 51.333 -36 77 -108 77h-16z" />
    <glyph glyph-name="questiondown" unicode="&#xbf;" horiz-adv-x="482" 
d="M365 -59l89.998 -9.99902c-8.66699 -53.333 -32.5 -95.166 -71.5 -125.499s-86.167 -45.5 -141.5 -45.5c-56.667 0 -103.334 15.667 -140.001 47s-55 75 -55 131c0 21.333 2.66699 40.666 8 57.999s14.666 34.666 27.999 51.999s24.5 30.666 33.5 39.999
s23.833 23.666 44.5 42.999c20.667 20 33.834 36.333 39.501 49s8.5 33.334 8.5 62.001v46h84v-63c0 -34.667 -4.16699 -59.5 -12.5 -74.5s-27.166 -37.167 -56.499 -66.5l-17.5 -17.5c-9 -9 -15 -15.167 -18 -18.5l-15.5 -17.5
c-7.33301 -8.33301 -12.333 -15.166 -15 -20.499l-10.5 -20c-4.33301 -8 -7.16602 -16 -8.49902 -24s-2 -16.333 -2 -25c0 -32.667 9.5 -59 28.5 -79s44.833 -30 77.5 -30s59.834 9.83301 81.501 29.5s35.167 46.167 40.5 79.5zM250.998 372.001
c-16.667 0 -30.832 5.83301 -42.499 17.5s-17.5 25.834 -17.5 42.501c0 16 6 30 18 42s26 18 42 18s30 -6 42 -18s18 -26 18 -42c0 -16.667 -5.83301 -30.834 -17.5 -42.501s-25.834 -17.5 -42.501 -17.5z" />
    <glyph glyph-name="Agrave" unicode="&#xc0;" horiz-adv-x="704" 
d="M6 0l312 708h79l301 -708h-98l-72 174h-354l-73 -174h-95zM496 252l-140 348h-2l-147 -348h289zM317 902l104 -144h-71l-143 144h110z" />
    <glyph glyph-name="Aacute" unicode="&#xc1;" horiz-adv-x="704" 
d="M6 0l312 708h79l301 -708h-98l-72 174h-354l-73 -174h-95zM496 252l-140 348h-2l-147 -348h289zM283 758l104 144h110l-143 -144h-71z" />
    <glyph glyph-name="Acircumflex" unicode="&#xc2;" horiz-adv-x="704" 
d="M6 0l312 708h79l301 -708h-98l-72 174h-354l-73 -174h-95zM496 252l-140 348h-2l-147 -348h289zM195 758l111 144h91l112 -144h-81l-79 102l-78 -102h-76z" />
    <glyph glyph-name="Atilde" unicode="&#xc3;" horiz-adv-x="704" 
d="M6 0l312 708h79l301 -708h-98l-72 174h-354l-73 -174h-95zM496 252l-140 348h-2l-147 -348h289zM233 770h-47.999c4.66699 28.667 15.667 53.167 33 73.5s39.666 30.5 66.999 30.5c18.667 0 46.667 -7.66699 84 -23c28 -11.333 46 -17 54 -17
c23.333 0 39.333 14.667 48 44h48c-4.66699 -29.333 -14.5 -54 -29.5 -74s-36.167 -30 -63.5 -30c-18.667 0 -45.667 7 -81 21c-31.333 12.667 -53.333 19 -66 19c-22.667 0 -38 -14.667 -46 -44z" />
    <glyph glyph-name="Adieresis" unicode="&#xc4;" horiz-adv-x="704" 
d="M6 0l312 708h79l301 -708h-98l-72 174h-354l-73 -174h-95zM496 252l-140 348h-2l-147 -348h289zM253 878c14.667 0 27.3301 -5.33301 37.9971 -16s16 -23.334 16 -38.001s-5.16699 -27.334 -15.5 -38.001s-23.166 -16 -38.499 -16s-28.166 5.33301 -38.499 16
s-15.5 23.334 -15.5 38.001s5.33301 27.334 16 38.001s23.334 16 38.001 16zM450.996 878c14.667 0 27.3301 -5.33301 37.9971 -16s16 -23.334 16 -38.001s-5.16699 -27.334 -15.5 -38.001s-23.166 -16 -38.499 -16s-28.166 5.33301 -38.499 16s-15.5 23.334 -15.5 38.001
s5.33301 27.334 16 38.001s23.334 16 38.001 16z" />
    <glyph glyph-name="Aring" unicode="&#xc5;" horiz-adv-x="704" 
d="M6 0l312 708h79l301 -708h-98l-72 174h-354l-73 -174h-95zM496 252l-140 348h-2l-147 -348h289zM253 829c0 26.667 9.49902 49.832 28.499 69.499s42.5 29.5 70.5 29.5c28.667 0 52.334 -9.66699 71.001 -29s28 -42.666 28 -69.999s-9.5 -50.666 -28.5 -69.999
s-42.5 -29 -70.5 -29s-51.5 9.66699 -70.5 29s-28.5 42.666 -28.5 69.999zM294.999 828.998c0 -16 5.83301 -29.5 17.5 -40.5s24.834 -16.5 39.501 -16.5s27.834 5.5 39.501 16.5s17.5 24.5 17.5 40.5c0 15.333 -5.83301 28.666 -17.5 39.999s-24.834 17 -39.501 17
s-27.834 -5.66699 -39.501 -17s-17.5 -24.666 -17.5 -39.999z" />
    <glyph glyph-name="AE" unicode="&#xc6;" horiz-adv-x="944" 
d="M-10 0l460 708h435v-78h-294v-222h276v-78h-276v-252h306v-78h-390v192h-293l-123 -192h-101zM507 270v360h-12l-231 -360h243z" />
    <glyph glyph-name="Ccedilla" unicode="&#xc7;" horiz-adv-x="704" 
d="M657 615l-73.0029 -53.001c-20.667 28 -46.667 49.333 -78 64s-64.333 22 -99 22c-77.333 0 -141.666 -29.167 -192.999 -87.5s-77 -127.166 -77 -206.499c0 -83.333 25.333 -153.166 76 -209.499s115.334 -84.5 194.001 -84.5c85.333 0 153.666 33 204.999 99l63 -53
c-61.333 -82.667 -150.666 -124 -267.999 -124l-32 -46c2 0 5 0.5 9 1.5s8.16699 1.66699 12.5 2s8.83301 0.5 13.5 0.5c20 0 38.333 -6 55 -18s25 -29 25 -51c0 -29.333 -11.667 -51.333 -35 -66s-50.666 -22 -81.999 -22c-36 0 -69 7 -99 21l17 37
c23.333 -10.667 47.333 -16 72 -16c16 0 30.167 3.16699 42.5 9.5s18.5 16.833 18.5 31.5c0 12.667 -5.33301 22.167 -16 28.5s-22.667 9.5 -36 9.5c-10 0 -23 -2.66699 -39 -8l-20 19l51 70c-91.333 9.33301 -167 48.333 -227 117s-90 152.667 -90 252
c0 105.333 34 193.666 102 264.999s154 107 258 107c110 0 193.333 -37 250 -111z" />
    <glyph glyph-name="Egrave" unicode="&#xc8;" horiz-adv-x="593" 
d="M88 0v708h445v-78h-361v-222h337v-78h-337v-252h379v-78h-463zM262 902l104 -144h-71l-143 144h110z" />
    <glyph glyph-name="Eacute" unicode="&#xc9;" horiz-adv-x="593" 
d="M88 0v708h445v-78h-361v-222h337v-78h-337v-252h379v-78h-463zM228 758l104 144h110l-143 -144h-71z" />
    <glyph glyph-name="Ecircumflex" unicode="&#xca;" horiz-adv-x="593" 
d="M88 0v708h445v-78h-361v-222h337v-78h-337v-252h379v-78h-463zM140 758l111 144h91l112 -144h-81l-79 102l-78 -102h-76z" />
    <glyph glyph-name="Edieresis" unicode="&#xcb;" horiz-adv-x="593" 
d="M88 0v708h445v-78h-361v-222h337v-78h-337v-252h379v-78h-463zM198 878c14.667 0 27.334 -5.33301 38.001 -16s16 -23.334 16 -38.001s-5.33301 -27.334 -16 -38.001s-23.334 -16 -38.001 -16s-27.334 5.33301 -38.001 16s-16 23.334 -16 38.001
s5.33301 27.334 16 38.001s23.334 16 38.001 16zM396 878c14.667 0 27.334 -5.33301 38.001 -16s16 -23.334 16 -38.001s-5.33301 -27.334 -16 -38.001s-23.334 -16 -38.001 -16s-27.334 5.33301 -38.001 16s-16 23.334 -16 38.001s5.33301 27.334 16 38.001
s23.334 16 38.001 16z" />
    <glyph glyph-name="Igrave" unicode="&#xcc;" horiz-adv-x="260" 
d="M88 0v708h84v-708h-84zM95 902l104 -144h-71l-143 144h110z" />
    <glyph glyph-name="Iacute" unicode="&#xcd;" horiz-adv-x="260" 
d="M88 0v708h84v-708h-84zM61 758l104 144h110l-143 -144h-71z" />
    <glyph glyph-name="Icircumflex" unicode="&#xce;" horiz-adv-x="260" 
d="M88 0v708h84v-708h-84zM-27 758l111 144h91l112 -144h-81l-79 102l-78 -102h-76z" />
    <glyph glyph-name="Idieresis" unicode="&#xcf;" horiz-adv-x="260" 
d="M88 0v708h84v-708h-84zM31 878c14.667 0 27.3301 -5.33301 37.9971 -16s16 -23.334 16 -38.001s-5.16699 -27.334 -15.5 -38.001s-23.166 -16 -38.499 -16s-28.166 5.33301 -38.499 16s-15.5 23.334 -15.5 38.001s5.33301 27.334 16 38.001s23.334 16 38.001 16z
M228.996 878c14.667 0 27.3301 -5.33301 37.9971 -16s16 -23.334 16 -38.001s-5.16699 -27.334 -15.5 -38.001s-23.166 -16 -38.499 -16s-28.166 5.33301 -38.499 16s-15.5 23.334 -15.5 38.001s5.33301 27.334 16 38.001s23.334 16 38.001 16z" />
    <glyph glyph-name="Eth" unicode="&#xd0;" horiz-adv-x="741" 
d="M75 402v306h272c37.333 0 75.166 -6.5 113.499 -19.5s75.5 -32.667 111.5 -59s65.333 -63.333 88 -111s34 -102.5 34 -164.5s-11.333 -116.833 -34 -164.5s-52 -84.667 -88 -111s-73.167 -46 -111.5 -59s-76.166 -19.5 -113.499 -19.5h-272v336h-72v66h72zM159 630
v-228.002h252v-66h-252v-258h160c86 0 155 22.833 207 68.5s78 114.834 78 207.501s-26 161.834 -78 207.501s-121 68.5 -207 68.5h-160z" />
    <glyph glyph-name="Ntilde" unicode="&#xd1;" horiz-adv-x="778" 
d="M88 0v708h106l410 -588h2v588h84v-708h-106l-410 588h-2v-588h-84zM270 770h-47.999c4.66699 28.667 15.667 53.167 33 73.5s39.666 30.5 66.999 30.5c18.667 0 46.667 -7.66699 84 -23c3.33301 -1.33301 7.83301 -3.33301 13.5 -6s10.167 -4.66699 13.5 -6
s7.5 -2.5 12.5 -3.5s9.83301 -1.5 14.5 -1.5c23.333 0 39.333 14.667 48 44h48c-4.66699 -29.333 -14.5 -54 -29.5 -74s-36.167 -30 -63.5 -30c-19.333 0 -46.333 7 -81 21c-32 12.667 -54 19 -66 19c-22.667 0 -38 -14.667 -46 -44z" />
    <glyph glyph-name="Ograve" unicode="&#xd2;" horiz-adv-x="834" 
d="M417 -18c-107.333 0 -195.833 35.167 -265.5 105.5s-104.5 159.166 -104.5 266.499s34.833 196.166 104.5 266.499s158.167 105.5 265.5 105.5s195.833 -35.167 265.5 -105.5s104.5 -159.166 104.5 -266.499s-34.833 -196.166 -104.5 -266.499
s-158.167 -105.5 -265.5 -105.5zM417 60c82 0 149.167 28.333 201.5 85s78.5 126.334 78.5 209.001s-26.167 152.334 -78.5 209.001s-119.5 85 -201.5 85s-149.167 -28.333 -201.5 -85s-78.5 -126.334 -78.5 -209.001s26.167 -152.334 78.5 -209.001s119.5 -85 201.5 -85z
M382 902l104 -144h-71l-143 144h110z" />
    <glyph glyph-name="Oacute" unicode="&#xd3;" horiz-adv-x="834" 
d="M417 -18c-107.333 0 -195.833 35.167 -265.5 105.5s-104.5 159.166 -104.5 266.499s34.833 196.166 104.5 266.499s158.167 105.5 265.5 105.5s195.833 -35.167 265.5 -105.5s104.5 -159.166 104.5 -266.499s-34.833 -196.166 -104.5 -266.499
s-158.167 -105.5 -265.5 -105.5zM417 60c82 0 149.167 28.333 201.5 85s78.5 126.334 78.5 209.001s-26.167 152.334 -78.5 209.001s-119.5 85 -201.5 85s-149.167 -28.333 -201.5 -85s-78.5 -126.334 -78.5 -209.001s26.167 -152.334 78.5 -209.001s119.5 -85 201.5 -85z
M348 758l104 144h110l-143 -144h-71z" />
    <glyph glyph-name="Ocircumflex" unicode="&#xd4;" horiz-adv-x="834" 
d="M417 -18c-107.333 0 -195.833 35.167 -265.5 105.5s-104.5 159.166 -104.5 266.499s34.833 196.166 104.5 266.499s158.167 105.5 265.5 105.5s195.833 -35.167 265.5 -105.5s104.5 -159.166 104.5 -266.499s-34.833 -196.166 -104.5 -266.499
s-158.167 -105.5 -265.5 -105.5zM417 60c82 0 149.167 28.333 201.5 85s78.5 126.334 78.5 209.001s-26.167 152.334 -78.5 209.001s-119.5 85 -201.5 85s-149.167 -28.333 -201.5 -85s-78.5 -126.334 -78.5 -209.001s26.167 -152.334 78.5 -209.001s119.5 -85 201.5 -85z
M260 758l111 144h91l112 -144h-81l-79 102l-78 -102h-76z" />
    <glyph glyph-name="Otilde" unicode="&#xd5;" horiz-adv-x="834" 
d="M417 -18c-107.333 0 -195.833 35.167 -265.5 105.5s-104.5 159.166 -104.5 266.499s34.833 196.166 104.5 266.499s158.167 105.5 265.5 105.5s195.833 -35.167 265.5 -105.5s104.5 -159.166 104.5 -266.499s-34.833 -196.166 -104.5 -266.499
s-158.167 -105.5 -265.5 -105.5zM417 60c82 0 149.167 28.333 201.5 85s78.5 126.334 78.5 209.001s-26.167 152.334 -78.5 209.001s-119.5 85 -201.5 85s-149.167 -28.333 -201.5 -85s-78.5 -126.334 -78.5 -209.001s26.167 -152.334 78.5 -209.001s119.5 -85 201.5 -85z
M298 770h-47.999c4.66699 28.667 15.667 53.167 33 73.5s39.666 30.5 66.999 30.5c18.667 0 46.667 -7.66699 84 -23c28 -11.333 46 -17 54 -17c23.333 0 39.333 14.667 48 44h48c-4.66699 -29.333 -14.5 -54 -29.5 -74s-36.167 -30 -63.5 -30c-19.333 0 -46.333 7 -81 21
c-32 12.667 -54 19 -66 19c-22.667 0 -38 -14.667 -46 -44z" />
    <glyph glyph-name="Odieresis" unicode="&#xd6;" horiz-adv-x="834" 
d="M417 -18c-107.333 0 -195.833 35.167 -265.5 105.5s-104.5 159.166 -104.5 266.499s34.833 196.166 104.5 266.499s158.167 105.5 265.5 105.5s195.833 -35.167 265.5 -105.5s104.5 -159.166 104.5 -266.499s-34.833 -196.166 -104.5 -266.499
s-158.167 -105.5 -265.5 -105.5zM417 60c82 0 149.167 28.333 201.5 85s78.5 126.334 78.5 209.001s-26.167 152.334 -78.5 209.001s-119.5 85 -201.5 85s-149.167 -28.333 -201.5 -85s-78.5 -126.334 -78.5 -209.001s26.167 -152.334 78.5 -209.001s119.5 -85 201.5 -85z
M318 878c14.667 0 27.334 -5.33301 38.001 -16s16 -23.334 16 -38.001s-5.33301 -27.334 -16 -38.001s-23.334 -16 -38.001 -16s-27.334 5.33301 -38.001 16s-16 23.334 -16 38.001s5.33301 27.334 16 38.001s23.334 16 38.001 16zM516 878
c14.667 0 27.334 -5.33301 38.001 -16s16 -23.334 16 -38.001s-5.33301 -27.334 -16 -38.001s-23.334 -16 -38.001 -16s-27.334 5.33301 -38.001 16s-16 23.334 -16 38.001s5.33301 27.334 16 38.001s23.334 16 38.001 16z" />
    <glyph glyph-name="multiply" unicode="&#xd7;" horiz-adv-x="666" 
d="M141 544l192 -193l193 193l48 -47l-194 -194l194 -192l-48 -49l-193 194l-193 -194l-48 47l193 194l-193 192z" />
    <glyph glyph-name="Oslash" unicode="&#xd8;" horiz-adv-x="834" 
d="M630 550l-390.999 -426.001c49.333 -42.667 108.666 -64 177.999 -64c82 0 149.167 28.333 201.5 85s78.5 126.334 78.5 209.001c0 76.667 -22.333 142 -67 196zM200.001 163.999l390.001 425.001c-48.667 39.333 -106.334 59 -173.001 59
c-82 0 -149.167 -28.333 -201.5 -85s-78.5 -126.334 -78.5 -209.001c0 -74 21 -137.333 63 -190zM60.002 11l81 88c-62.667 68.667 -94 153.667 -94 255c0 107.333 34.833 196.166 104.5 266.499s158.167 105.5 265.5 105.5c88 0 164.667 -25 230 -75l79 87l42 -38l-79 -86
c65.333 -69.333 98 -156 98 -260c0 -107.333 -34.833 -196.166 -104.5 -266.499s-158.167 -105.5 -265.5 -105.5c-92 0 -170.667 26.333 -236 79l-81 -88z" />
    <glyph glyph-name="Ugrave" unicode="&#xd9;" horiz-adv-x="704" 
d="M619 708l-0.00195312 -438c0 -84.667 -21.667 -153.834 -65 -207.501s-110.666 -80.5 -201.999 -80.5s-158.666 26.833 -201.999 80.5s-65 122.834 -65 207.501v438h84v-426c0 -30 3 -57.667 9 -83s15.667 -48.833 29 -70.5s32.333 -38.5 57 -50.5s54 -18 88 -18
s63.333 6 88 18s43.667 28.833 57 50.5s23 45.167 29 70.5s9 53 9 83v426h84zM316.998 902l104 -144h-71l-143 144h110z" />
    <glyph glyph-name="Uacute" unicode="&#xda;" horiz-adv-x="704" 
d="M619 708l-0.00195312 -438c0 -84.667 -21.667 -153.834 -65 -207.501s-110.666 -80.5 -201.999 -80.5s-158.666 26.833 -201.999 80.5s-65 122.834 -65 207.501v438h84v-426c0 -30 3 -57.667 9 -83s15.667 -48.833 29 -70.5s32.333 -38.5 57 -50.5s54 -18 88 -18
s63.333 6 88 18s43.667 28.833 57 50.5s23 45.167 29 70.5s9 53 9 83v426h84zM282.998 758l104 144h110l-143 -144h-71z" />
    <glyph glyph-name="Ucircumflex" unicode="&#xdb;" horiz-adv-x="704" 
d="M619 708l-0.00195312 -438c0 -84.667 -21.667 -153.834 -65 -207.501s-110.666 -80.5 -201.999 -80.5s-158.666 26.833 -201.999 80.5s-65 122.834 -65 207.501v438h84v-426c0 -30 3 -57.667 9 -83s15.667 -48.833 29 -70.5s32.333 -38.5 57 -50.5s54 -18 88 -18
s63.333 6 88 18s43.667 28.833 57 50.5s23 45.167 29 70.5s9 53 9 83v426h84zM194.998 758l111 144h91l112 -144h-81l-79 102l-78 -102h-76z" />
    <glyph glyph-name="Udieresis" unicode="&#xdc;" horiz-adv-x="704" 
d="M619 708l-0.00195312 -438c0 -84.667 -21.667 -153.834 -65 -207.501s-110.666 -80.5 -201.999 -80.5s-158.666 26.833 -201.999 80.5s-65 122.834 -65 207.501v438h84v-426c0 -30 3 -57.667 9 -83s15.667 -48.833 29 -70.5s32.333 -38.5 57 -50.5s54 -18 88 -18
s63.333 6 88 18s43.667 28.833 57 50.5s23 45.167 29 70.5s9 53 9 83v426h84zM252.998 878c14.667 0 27.3301 -5.33301 37.9971 -16s16 -23.334 16 -38.001s-5.16699 -27.334 -15.5 -38.001s-23.166 -16 -38.499 -16s-28.166 5.33301 -38.499 16s-15.5 23.334 -15.5 38.001
s5.33301 27.334 16 38.001s23.334 16 38.001 16zM450.994 878c14.667 0 27.3301 -5.33301 37.9971 -16s16 -23.334 16 -38.001s-5.16699 -27.334 -15.5 -38.001s-23.166 -16 -38.499 -16s-28.166 5.33301 -38.499 16s-15.5 23.334 -15.5 38.001s5.33301 27.334 16 38.001
s23.334 16 38.001 16z" />
    <glyph glyph-name="Yacute" unicode="&#xdd;" horiz-adv-x="594" 
d="M255 0v305l-264 403h107l199 -320l205 320h101l-264 -403v-305h-84zM228 758l104 144h110l-143 -144h-71z" />
    <glyph glyph-name="Thorn" unicode="&#xde;" horiz-adv-x="593" 
d="M88 0l-0.000976562 708h84v-125h126c72.667 0 132.167 -15.167 178.5 -45.5s69.5 -79.833 69.5 -148.5c0 -36.667 -7.16699 -68.5 -21.5 -95.5s-33.5 -47.333 -57.5 -61s-48.667 -23.667 -74 -30s-51.666 -9.5 -78.999 -9.5h-142v-193h-84zM171.999 505v-234.002h142
c43.333 0 77.833 9.83301 103.5 29.5s38.5 48.834 38.5 87.501s-12.833 67.834 -38.5 87.501s-60.167 29.5 -103.5 29.5h-142z" />
    <glyph glyph-name="germandbls" unicode="&#xdf;" horiz-adv-x="593" 
d="M74 0l0.00195312 539.999c0 66.667 18 121.334 54 164.001s91 64 165 64c56.667 0 103.5 -15.833 140.5 -47.5s55.5 -75.167 55.5 -130.5c0 -38 -9.5 -70.667 -28.5 -98s-46.167 -47.333 -81.5 -60v-2c53.333 -5.33301 95 -28 125 -68s45 -88 45 -144
c0 -69.333 -22.5 -125 -67.5 -167s-102.167 -63 -171.5 -63c-24 0 -44.667 3 -62 9v71c15.333 -5.33301 32.666 -8 51.999 -8c50 0 90 15.167 120 45.5s45 70.166 45 119.499c0 52.667 -16.333 94.167 -49 124.5s-75.334 45.5 -128.001 45.5h-23v66h22
c36.667 0 66.5 10.833 89.5 32.5s34.5 50.834 34.5 87.501c0 35.333 -11.5 63.333 -34.5 84s-52.167 31 -87.5 31c-91.333 0 -137 -54.333 -137 -163v-533h-78z" />
    <glyph glyph-name="agrave" unicode="&#xe0;" horiz-adv-x="519" 
d="M117 357l-49.001 51.002c47.333 48 109.333 72 186 72c68 0 117.667 -16.333 149 -49s47 -82.334 47 -149.001v-201c0 -26 2.33301 -53 7 -81h-75c-3.33301 14 -5 37.333 -5 70h-2c-35.333 -54.667 -86.666 -82 -153.999 -82c-50 0 -91.5 12.167 -124.5 36.5
s-49.5 58.5 -49.5 102.5c0 24.667 4.33301 46.5 13 65.5s21.5 34.333 38.5 46s34.5 21.167 52.5 28.5s39.333 12.666 64 15.999s46.167 5.5 64.5 6.5s39.166 1.5 62.499 1.5h30v14c0 33.333 -10.167 58.833 -30.5 76.5s-48.833 26.5 -85.5 26.5
c-55.333 0 -101.666 -17 -138.999 -51zM371.999 225.002h-78c-108.667 0 -163 -30 -163 -90c0 -54 34.333 -81 103 -81c42.667 0 76 13.5 100 40.5s36.667 60.5 38 100.5v30zM224.999 724.002l104 -144h-71l-143 144h110z" />
    <glyph glyph-name="aacute" unicode="&#xe1;" horiz-adv-x="519" 
d="M117 357l-49.001 51.002c47.333 48 109.333 72 186 72c68 0 117.667 -16.333 149 -49s47 -82.334 47 -149.001v-201c0 -26 2.33301 -53 7 -81h-75c-3.33301 14 -5 37.333 -5 70h-2c-35.333 -54.667 -86.666 -82 -153.999 -82c-50 0 -91.5 12.167 -124.5 36.5
s-49.5 58.5 -49.5 102.5c0 24.667 4.33301 46.5 13 65.5s21.5 34.333 38.5 46s34.5 21.167 52.5 28.5s39.333 12.666 64 15.999s46.167 5.5 64.5 6.5s39.166 1.5 62.499 1.5h30v14c0 33.333 -10.167 58.833 -30.5 76.5s-48.833 26.5 -85.5 26.5
c-55.333 0 -101.666 -17 -138.999 -51zM371.999 225.002h-78c-108.667 0 -163 -30 -163 -90c0 -54 34.333 -81 103 -81c42.667 0 76 13.5 100 40.5s36.667 60.5 38 100.5v30zM190.999 580.002l104 144h110l-143 -144h-71z" />
    <glyph glyph-name="acircumflex" unicode="&#xe2;" horiz-adv-x="519" 
d="M117 357l-49.001 51.002c47.333 48 109.333 72 186 72c68 0 117.667 -16.333 149 -49s47 -82.334 47 -149.001v-201c0 -26 2.33301 -53 7 -81h-75c-3.33301 14 -5 37.333 -5 70h-2c-35.333 -54.667 -86.666 -82 -153.999 -82c-50 0 -91.5 12.167 -124.5 36.5
s-49.5 58.5 -49.5 102.5c0 24.667 4.33301 46.5 13 65.5s21.5 34.333 38.5 46s34.5 21.167 52.5 28.5s39.333 12.666 64 15.999s46.167 5.5 64.5 6.5s39.166 1.5 62.499 1.5h30v14c0 33.333 -10.167 58.833 -30.5 76.5s-48.833 26.5 -85.5 26.5
c-55.333 0 -101.666 -17 -138.999 -51zM371.999 225.002h-78c-108.667 0 -163 -30 -163 -90c0 -54 34.333 -81 103 -81c42.667 0 76 13.5 100 40.5s36.667 60.5 38 100.5v30zM102.999 580.002l111 144h91l112 -144h-81l-79 102l-78 -102h-76z" />
    <glyph glyph-name="atilde" unicode="&#xe3;" horiz-adv-x="519" 
d="M117 357l-49.001 51.002c47.333 48 109.333 72 186 72c68 0 117.667 -16.333 149 -49s47 -82.334 47 -149.001v-201c0 -26 2.33301 -53 7 -81h-75c-3.33301 14 -5 37.333 -5 70h-2c-35.333 -54.667 -86.666 -82 -153.999 -82c-50 0 -91.5 12.167 -124.5 36.5
s-49.5 58.5 -49.5 102.5c0 24.667 4.33301 46.5 13 65.5s21.5 34.333 38.5 46s34.5 21.167 52.5 28.5s39.333 12.666 64 15.999s46.167 5.5 64.5 6.5s39.166 1.5 62.499 1.5h30v14c0 33.333 -10.167 58.833 -30.5 76.5s-48.833 26.5 -85.5 26.5
c-55.333 0 -101.666 -17 -138.999 -51zM371.999 225.002h-78c-108.667 0 -163 -30 -163 -90c0 -54 34.333 -81 103 -81c42.667 0 76 13.5 100 40.5s36.667 60.5 38 100.5v30zM140.999 592.002h-47.999c4.66699 28.667 15.667 53.167 33 73.5s39.666 30.5 66.999 30.5
c18.667 0 46.667 -7.66699 84 -23c28 -11.333 46 -17 54 -17c23.333 0 39.333 14.667 48 44h48c-4.66699 -29.333 -14.5 -54 -29.5 -74s-36.167 -30 -63.5 -30c-18.667 0 -45.667 7 -81 21c-31.333 12.667 -53.333 19 -66 19c-22.667 0 -38 -14.667 -46 -44z" />
    <glyph glyph-name="adieresis" unicode="&#xe4;" horiz-adv-x="519" 
d="M117 357l-49.001 51.002c47.333 48 109.333 72 186 72c68 0 117.667 -16.333 149 -49s47 -82.334 47 -149.001v-201c0 -26 2.33301 -53 7 -81h-75c-3.33301 14 -5 37.333 -5 70h-2c-35.333 -54.667 -86.666 -82 -153.999 -82c-50 0 -91.5 12.167 -124.5 36.5
s-49.5 58.5 -49.5 102.5c0 24.667 4.33301 46.5 13 65.5s21.5 34.333 38.5 46s34.5 21.167 52.5 28.5s39.333 12.666 64 15.999s46.167 5.5 64.5 6.5s39.166 1.5 62.499 1.5h30v14c0 33.333 -10.167 58.833 -30.5 76.5s-48.833 26.5 -85.5 26.5
c-55.333 0 -101.666 -17 -138.999 -51zM371.999 225.002h-78c-108.667 0 -163 -30 -163 -90c0 -54 34.333 -81 103 -81c42.667 0 76 13.5 100 40.5s36.667 60.5 38 100.5v30zM160.999 700.002c14.667 0 27.3301 -5.33301 37.9971 -16s16 -23.334 16 -38.001
s-5.16699 -27.334 -15.5 -38.001s-23.166 -16 -38.499 -16s-28.166 5.33301 -38.499 16s-15.5 23.334 -15.5 38.001s5.33301 27.334 16 38.001s23.334 16 38.001 16zM358.995 700.002c14.667 0 27.3301 -5.33301 37.9971 -16s16 -23.334 16 -38.001
s-5.16699 -27.334 -15.5 -38.001s-23.166 -16 -38.499 -16s-28.166 5.33301 -38.499 16s-15.5 23.334 -15.5 38.001s5.33301 27.334 16 38.001s23.334 16 38.001 16z" />
    <glyph glyph-name="aring" unicode="&#xe5;" horiz-adv-x="519" 
d="M117 357l-49.001 51.002c47.333 48 109.333 72 186 72c68 0 117.667 -16.333 149 -49s47 -82.334 47 -149.001v-201c0 -26 2.33301 -53 7 -81h-75c-3.33301 14 -5 37.333 -5 70h-2c-35.333 -54.667 -86.666 -82 -153.999 -82c-50 0 -91.5 12.167 -124.5 36.5
s-49.5 58.5 -49.5 102.5c0 24.667 4.33301 46.5 13 65.5s21.5 34.333 38.5 46s34.5 21.167 52.5 28.5s39.333 12.666 64 15.999s46.167 5.5 64.5 6.5s39.166 1.5 62.499 1.5h30v14c0 33.333 -10.167 58.833 -30.5 76.5s-48.833 26.5 -85.5 26.5
c-55.333 0 -101.666 -17 -138.999 -51zM371.999 225.002h-78c-108.667 0 -163 -30 -163 -90c0 -54 34.333 -81 103 -81c42.667 0 76 13.5 100 40.5s36.667 60.5 38 100.5v30zM160.999 661.002c0 26.667 9.49902 49.832 28.499 69.499s42.5 29.5 70.5 29.5
c28.667 0 52.334 -9.66699 71.001 -29s28 -42.666 28 -69.999s-9.5 -50.666 -28.5 -69.999s-42.5 -29 -70.5 -29s-51.5 9.66699 -70.5 29s-28.5 42.666 -28.5 69.999zM202.998 661c0 -16 5.83301 -29.5 17.5 -40.5s24.834 -16.5 39.501 -16.5s27.834 5.5 39.501 16.5
s17.5 24.5 17.5 40.5c0 15.333 -5.83301 28.666 -17.5 39.999s-24.834 17 -39.501 17s-27.834 -5.66699 -39.501 -17s-17.5 -24.666 -17.5 -39.999z" />
    <glyph glyph-name="ae" unicode="&#xe6;" horiz-adv-x="852" 
d="M734 131l59 -46.001c-50 -64.667 -119.333 -97 -208 -97c-42 0 -78.667 10 -110 30s-54 43.667 -68 71c-34 -67.333 -96.333 -101 -187 -101c-46 0 -86.333 11.833 -121 35.5s-52 58.834 -52 105.501c0 98 78 147 234 147h96v12c0 35.333 -10 64.166 -30 86.499
s-49 33.5 -87 33.5c-50 0 -95.667 -15.333 -137 -46l-50 52c51.333 44 113.666 66 186.999 66c76 0 130 -26.333 162 -79c50 52.667 105.333 79 166 79c67.333 0 121.166 -21.667 161.499 -65s60.5 -103.333 60.5 -180v-25h-361
c0.666992 -41.333 13.834 -76.666 39.501 -105.999s57.834 -44 96.501 -44c62 0 111.667 23.667 149 71zM377 209.999h-117c-15.333 0 -30 -1.16699 -44 -3.5s-27.667 -6.16602 -41 -11.499s-24 -13.5 -32 -24.5s-12 -23.833 -12 -38.5c0 -24.667 10.667 -42.834 32 -54.501
s47 -17.5 77 -17.5c40.667 0 73.667 12.667 99 38s38 58.333 38 99v13zM449 275.999h277c-1.33301 40 -14.5 72 -39.5 96s-58.833 36 -101.5 36c-37.333 0 -69 -13.5 -95 -40.5s-39.667 -57.5 -41 -91.5z" />
    <glyph glyph-name="ccedilla" unicode="&#xe7;" horiz-adv-x="482" 
d="M469 406l-62.002 -55c-31.333 38 -70.666 57 -117.999 57c-50.667 0 -89.667 -16.333 -117 -49s-41 -74.334 -41 -125.001c0 -49.333 14.667 -90.666 44 -123.999s67.333 -50 114 -50c51.333 0 91 19.333 119 58l58 -55c-40.667 -46.667 -93.667 -71 -159 -73l-38 -54
c2 0 5 0.5 9 1.5s8.16699 1.66699 12.5 2s8.83301 0.5 13.5 0.5c20 0 38.333 -6 55 -18s25 -29 25 -51c0 -29.333 -11.667 -51.333 -35 -66s-50.666 -22 -81.999 -22c-36 0 -69 7 -99 21l17 37c23.333 -10.667 47.333 -16 72 -16c16 0 30.167 3.16699 42.5 9.5
s18.5 16.833 18.5 31.5c0 12.667 -5.33301 22.167 -16 28.5s-22.667 9.5 -36 9.5c-10 0 -23 -2.66699 -39 -8l-20 19l55 76c-64.667 4.66699 -116.667 29.334 -156 74.001s-59 101 -59 169c0 71.333 22.5 130.166 67.5 176.499s103.167 69.5 174.5 69.5
c74.667 0 134.667 -24.667 180 -74z" />
    <glyph glyph-name="egrave" unicode="&#xe8;" 
d="M433 131l59.001 -46.001c-50 -64.667 -119.333 -97 -208 -97c-71.333 0 -128.666 23.5 -171.999 70.5s-65 105.5 -65 175.5c0 72 22.667 131 68 177s102.666 69 171.999 69c67.333 0 121.166 -21.667 161.499 -65s60.5 -103.333 60.5 -180v-25h-378
c3.33301 -41.333 19.333 -76.666 48 -105.999s63.667 -44 105 -44c62 0 111.667 23.667 149 71zM131.001 275.999h294c-1.33301 40 -14.5 72 -39.5 96s-58.833 36 -101.5 36s-77.5 -12 -104.5 -36s-43.167 -56 -48.5 -96zM243.001 723.999l104 -144h-71l-143 144h110z" />
    <glyph glyph-name="eacute" unicode="&#xe9;" 
d="M433 131l59.001 -46.001c-50 -64.667 -119.333 -97 -208 -97c-71.333 0 -128.666 23.5 -171.999 70.5s-65 105.5 -65 175.5c0 72 22.667 131 68 177s102.666 69 171.999 69c67.333 0 121.166 -21.667 161.499 -65s60.5 -103.333 60.5 -180v-25h-378
c3.33301 -41.333 19.333 -76.666 48 -105.999s63.667 -44 105 -44c62 0 111.667 23.667 149 71zM131.001 275.999h294c-1.33301 40 -14.5 72 -39.5 96s-58.833 36 -101.5 36s-77.5 -12 -104.5 -36s-43.167 -56 -48.5 -96zM209.001 579.999l104 144h110l-143 -144h-71z" />
    <glyph glyph-name="ecircumflex" unicode="&#xea;" 
d="M433 131l59.001 -46.001c-50 -64.667 -119.333 -97 -208 -97c-71.333 0 -128.666 23.5 -171.999 70.5s-65 105.5 -65 175.5c0 72 22.667 131 68 177s102.666 69 171.999 69c67.333 0 121.166 -21.667 161.499 -65s60.5 -103.333 60.5 -180v-25h-378
c3.33301 -41.333 19.333 -76.666 48 -105.999s63.667 -44 105 -44c62 0 111.667 23.667 149 71zM131.001 275.999h294c-1.33301 40 -14.5 72 -39.5 96s-58.833 36 -101.5 36s-77.5 -12 -104.5 -36s-43.167 -56 -48.5 -96zM121.001 579.999l111 144h91l112 -144h-81l-79 102
l-78 -102h-76z" />
    <glyph glyph-name="edieresis" unicode="&#xeb;" 
d="M433 131l59.001 -46.001c-50 -64.667 -119.333 -97 -208 -97c-71.333 0 -128.666 23.5 -171.999 70.5s-65 105.5 -65 175.5c0 72 22.667 131 68 177s102.666 69 171.999 69c67.333 0 121.166 -21.667 161.499 -65s60.5 -103.333 60.5 -180v-25h-378
c3.33301 -41.333 19.333 -76.666 48 -105.999s63.667 -44 105 -44c62 0 111.667 23.667 149 71zM131.001 275.999h294c-1.33301 40 -14.5 72 -39.5 96s-58.833 36 -101.5 36s-77.5 -12 -104.5 -36s-43.167 -56 -48.5 -96zM179.001 699.999
c14.667 0 27.3301 -5.33301 37.9971 -16s16 -23.334 16 -38.001s-5.16699 -27.334 -15.5 -38.001s-23.166 -16 -38.499 -16s-28.166 5.33301 -38.499 16s-15.5 23.334 -15.5 38.001s5.33301 27.334 16 38.001s23.334 16 38.001 16zM376.997 699.999
c14.667 0 27.3301 -5.33301 37.9971 -16s16 -23.334 16 -38.001s-5.16699 -27.334 -15.5 -38.001s-23.166 -16 -38.499 -16s-28.166 5.33301 -38.499 16s-15.5 23.334 -15.5 38.001s5.33301 27.334 16 38.001s23.334 16 38.001 16z" />
    <glyph glyph-name="igrave" unicode="&#xec;" horiz-adv-x="240" 
d="M81 0v468h78v-468h-78zM85 724l104 -144h-71l-143 144h110z" />
    <glyph glyph-name="iacute" unicode="&#xed;" horiz-adv-x="240" 
d="M81 0v468h78v-468h-78zM51 580l104 144h110l-143 -144h-71z" />
    <glyph glyph-name="icircumflex" unicode="&#xee;" horiz-adv-x="240" 
d="M81 0v468h78v-468h-78zM-37 580l111 144h91l112 -144h-81l-79 102l-78 -102h-76z" />
    <glyph glyph-name="idieresis" unicode="&#xef;" horiz-adv-x="240" 
d="M81 0v468h78v-468h-78zM21 700c14.667 0 27.3301 -5.33301 37.9971 -16s16 -23.334 16 -38.001s-5.16699 -27.334 -15.5 -38.001s-23.166 -16 -38.499 -16s-28.166 5.33301 -38.499 16s-15.5 23.334 -15.5 38.001s5.33301 27.334 16 38.001s23.334 16 38.001 16z
M218.996 700c14.667 0 27.3301 -5.33301 37.9971 -16s16 -23.334 16 -38.001s-5.16699 -27.334 -15.5 -38.001s-23.166 -16 -38.499 -16s-28.166 5.33301 -38.499 16s-15.5 23.334 -15.5 38.001s5.33301 27.334 16 38.001s23.334 16 38.001 16z" />
    <glyph glyph-name="eth" unicode="&#xf0;" horiz-adv-x="594" 
d="M128 610l106.001 52.999c-24.667 23.333 -54 48.666 -88 75.999l69 40c37.333 -31.333 67.666 -58 90.999 -80l107 54l46 -39l-111 -56c62.667 -59.333 111.5 -119.5 146.5 -180.5s52.5 -131.833 52.5 -212.5c0 -84 -21.333 -151.167 -64 -201.5
s-104.667 -75.5 -186 -75.5c-72.667 0 -132.5 22.833 -179.5 68.5s-70.5 104.834 -70.5 177.501s23.5 131.834 70.5 177.501s106.833 68.5 179.5 68.5c54 0 97.333 -16.333 130 -49l1 2c-30 56 -80.333 119.333 -151 190l-107 -54zM131.001 233.999
c0 -50 15.333 -91.5 46 -124.5s70.667 -49.5 120 -49.5s89.333 16.5 120 49.5s46 74.5 46 124.5s-15.333 91.5 -46 124.5s-70.667 49.5 -120 49.5s-89.333 -16.5 -120 -49.5s-46 -74.5 -46 -124.5z" />
    <glyph glyph-name="ntilde" unicode="&#xf1;" 
d="M74 0v357c0 15.333 -0.666992 35.333 -2 60s-2 41.667 -2 51h74c0 -8 0.333008 -20.667 1 -38s1 -30.333 1 -39h2c11.333 24.667 31 45.667 59 63s60.333 26 97 26c59.333 0 103.833 -17.167 133.5 -51.5s44.5 -80.833 44.5 -139.5v-289h-78v281c0 40 -9 71.167 -27 93.5
s-44.667 33.5 -80 33.5c-48.667 0 -85 -16 -109 -48s-36 -76 -36 -132v-228h-78zM159 592h-47.999c4.66699 28.667 15.667 53.167 33 73.5s39.666 30.5 66.999 30.5c18.667 0 46.667 -7.66699 84 -23c3.33301 -1.33301 7.83301 -3.33301 13.5 -6s10.167 -4.66699 13.5 -6
s7.5 -2.5 12.5 -3.5s9.83301 -1.5 14.5 -1.5c23.333 0 39.333 14.667 48 44h48c-4.66699 -29.333 -14.5 -54 -29.5 -74s-36.167 -30 -63.5 -30c-19.333 0 -46.333 7 -81 21c-31.333 12.667 -53.333 19 -66 19c-22.667 0 -38 -14.667 -46 -44z" />
    <glyph glyph-name="ograve" unicode="&#xf2;" horiz-adv-x="594" 
d="M47 234c0 72.667 23.5 131.834 70.5 177.501s106.833 68.5 179.5 68.5s132.5 -22.833 179.5 -68.5s70.5 -104.834 70.5 -177.501s-23.5 -131.834 -70.5 -177.501s-106.833 -68.5 -179.5 -68.5s-132.5 22.833 -179.5 68.5s-70.5 104.834 -70.5 177.501zM131 234
c0 -50 15.333 -91.5 46 -124.5s70.667 -49.5 120 -49.5s89.333 16.5 120 49.5s46 74.5 46 124.5s-15.333 91.5 -46 124.5s-70.667 49.5 -120 49.5s-89.333 -16.5 -120 -49.5s-46 -74.5 -46 -124.5zM262 724l104 -144h-71l-143 144h110z" />
    <glyph glyph-name="oacute" unicode="&#xf3;" horiz-adv-x="594" 
d="M47 234c0 72.667 23.5 131.834 70.5 177.501s106.833 68.5 179.5 68.5s132.5 -22.833 179.5 -68.5s70.5 -104.834 70.5 -177.501s-23.5 -131.834 -70.5 -177.501s-106.833 -68.5 -179.5 -68.5s-132.5 22.833 -179.5 68.5s-70.5 104.834 -70.5 177.501zM131 234
c0 -50 15.333 -91.5 46 -124.5s70.667 -49.5 120 -49.5s89.333 16.5 120 49.5s46 74.5 46 124.5s-15.333 91.5 -46 124.5s-70.667 49.5 -120 49.5s-89.333 -16.5 -120 -49.5s-46 -74.5 -46 -124.5zM228 580l104 144h110l-143 -144h-71z" />
    <glyph glyph-name="ocircumflex" unicode="&#xf4;" horiz-adv-x="594" 
d="M47 234c0 72.667 23.5 131.834 70.5 177.501s106.833 68.5 179.5 68.5s132.5 -22.833 179.5 -68.5s70.5 -104.834 70.5 -177.501s-23.5 -131.834 -70.5 -177.501s-106.833 -68.5 -179.5 -68.5s-132.5 22.833 -179.5 68.5s-70.5 104.834 -70.5 177.501zM131 234
c0 -50 15.333 -91.5 46 -124.5s70.667 -49.5 120 -49.5s89.333 16.5 120 49.5s46 74.5 46 124.5s-15.333 91.5 -46 124.5s-70.667 49.5 -120 49.5s-89.333 -16.5 -120 -49.5s-46 -74.5 -46 -124.5zM140 580l111 144h91l112 -144h-81l-79 102l-78 -102h-76z" />
    <glyph glyph-name="otilde" unicode="&#xf5;" horiz-adv-x="594" 
d="M47 234c0 72.667 23.5 131.834 70.5 177.501s106.833 68.5 179.5 68.5s132.5 -22.833 179.5 -68.5s70.5 -104.834 70.5 -177.501s-23.5 -131.834 -70.5 -177.501s-106.833 -68.5 -179.5 -68.5s-132.5 22.833 -179.5 68.5s-70.5 104.834 -70.5 177.501zM131 234
c0 -50 15.333 -91.5 46 -124.5s70.667 -49.5 120 -49.5s89.333 16.5 120 49.5s46 74.5 46 124.5s-15.333 91.5 -46 124.5s-70.667 49.5 -120 49.5s-89.333 -16.5 -120 -49.5s-46 -74.5 -46 -124.5zM178 592h-47.999c4.66699 28.667 15.667 53.167 33 73.5
s39.666 30.5 66.999 30.5c18.667 0 46.667 -7.66699 84 -23c28 -11.333 46 -17 54 -17c23.333 0 39.333 14.667 48 44h48c-4.66699 -29.333 -14.5 -54 -29.5 -74s-36.167 -30 -63.5 -30c-19.333 0 -46.333 7 -81 21c-32 12.667 -54 19 -66 19c-22.667 0 -38 -14.667 -46 -44
z" />
    <glyph glyph-name="odieresis" unicode="&#xf6;" horiz-adv-x="594" 
d="M47 234c0 72.667 23.5 131.834 70.5 177.501s106.833 68.5 179.5 68.5s132.5 -22.833 179.5 -68.5s70.5 -104.834 70.5 -177.501s-23.5 -131.834 -70.5 -177.501s-106.833 -68.5 -179.5 -68.5s-132.5 22.833 -179.5 68.5s-70.5 104.834 -70.5 177.501zM131 234
c0 -50 15.333 -91.5 46 -124.5s70.667 -49.5 120 -49.5s89.333 16.5 120 49.5s46 74.5 46 124.5s-15.333 91.5 -46 124.5s-70.667 49.5 -120 49.5s-89.333 -16.5 -120 -49.5s-46 -74.5 -46 -124.5zM198 700c14.667 0 27.334 -5.33301 38.001 -16s16 -23.334 16 -38.001
s-5.33301 -27.334 -16 -38.001s-23.334 -16 -38.001 -16s-27.334 5.33301 -38.001 16s-16 23.334 -16 38.001s5.33301 27.334 16 38.001s23.334 16 38.001 16zM396 700c14.667 0 27.334 -5.33301 38.001 -16s16 -23.334 16 -38.001s-5.33301 -27.334 -16 -38.001
s-23.334 -16 -38.001 -16s-27.334 5.33301 -38.001 16s-16 23.334 -16 38.001s5.33301 27.334 16 38.001s23.334 16 38.001 16z" />
    <glyph glyph-name="divide" unicode="&#xf7;" horiz-adv-x="666" 
d="M72 270v66h522v-66h-522zM276 468c0 16 5.66699 29.5 17 40.5s24.666 16.5 39.999 16.5s28.666 -5.66699 39.999 -17s17 -24.666 17 -39.999c0 -16 -5.66699 -29.5 -17 -40.5s-24.666 -16.5 -39.999 -16.5s-28.666 5.66699 -39.999 17s-17 24.666 -17 39.999zM276 138
c0 16 5.66699 29.5 17 40.5s24.666 16.5 39.999 16.5s28.666 -5.66699 39.999 -17s17 -24.666 17 -39.999c0 -16 -5.66699 -29.5 -17 -40.5s-24.666 -16.5 -39.999 -16.5s-28.666 5.66699 -39.999 17s-17 24.666 -17 39.999z" />
    <glyph glyph-name="oslash" unicode="&#xf8;" horiz-adv-x="594" 
d="M162 130l239.001 243.001c-28.667 23.333 -63.334 35 -104.001 35c-49.333 0 -89.333 -16.5 -120 -49.5s-46 -74.5 -46 -124.5c0 -40.667 10.333 -75.334 31 -104.001zM432.001 338.001l-239 -243.001c27.333 -23.333 62 -35 104 -35c49.333 0 89.333 16.5 120 49.5
s46 74.5 46 124.5c0 40.667 -10.333 75.334 -31 104.001zM37.001 2l68 70c-38.667 42.667 -58 96.667 -58 162c0 72.667 23.5 131.834 70.5 177.501s106.833 68.5 179.5 68.5c61.333 0 114.333 -17 159 -51l67 69l34 -32l-67 -69c38 -44.667 57 -99 57 -163
c0 -72.667 -23.5 -131.834 -70.5 -177.501s-106.833 -68.5 -179.5 -68.5c-62 0 -114.667 17.333 -158 52l-68 -70z" />
    <glyph glyph-name="ugrave" unicode="&#xf9;" 
d="M482 468v-357c0 -15.333 0.666992 -35.333 2 -60s2 -41.667 2 -51h-74c0 8 -0.333008 20.667 -1 38s-1 30.333 -1 39h-2c-11.333 -24.667 -31 -45.667 -59 -63s-60.333 -26 -97 -26c-59.333 0 -103.833 17.167 -133.5 51.5s-44.5 80.833 -44.5 139.5v289h78v-281
c0 -40 9 -71.167 27 -93.5s44.667 -33.5 80 -33.5c48.667 0 85 16 109 48s36 76 36 132v228h78zM243 724l104 -144h-71l-143 144h110z" />
    <glyph glyph-name="uacute" unicode="&#xfa;" 
d="M482 468v-357c0 -15.333 0.666992 -35.333 2 -60s2 -41.667 2 -51h-74c0 8 -0.333008 20.667 -1 38s-1 30.333 -1 39h-2c-11.333 -24.667 -31 -45.667 -59 -63s-60.333 -26 -97 -26c-59.333 0 -103.833 17.167 -133.5 51.5s-44.5 80.833 -44.5 139.5v289h78v-281
c0 -40 9 -71.167 27 -93.5s44.667 -33.5 80 -33.5c48.667 0 85 16 109 48s36 76 36 132v228h78zM209 580l104 144h110l-143 -144h-71z" />
    <glyph glyph-name="ucircumflex" unicode="&#xfb;" 
d="M482 468v-357c0 -15.333 0.666992 -35.333 2 -60s2 -41.667 2 -51h-74c0 8 -0.333008 20.667 -1 38s-1 30.333 -1 39h-2c-11.333 -24.667 -31 -45.667 -59 -63s-60.333 -26 -97 -26c-59.333 0 -103.833 17.167 -133.5 51.5s-44.5 80.833 -44.5 139.5v289h78v-281
c0 -40 9 -71.167 27 -93.5s44.667 -33.5 80 -33.5c48.667 0 85 16 109 48s36 76 36 132v228h78zM121 580l111 144h91l112 -144h-81l-79 102l-78 -102h-76z" />
    <glyph glyph-name="udieresis" unicode="&#xfc;" 
d="M482 468v-357c0 -15.333 0.666992 -35.333 2 -60s2 -41.667 2 -51h-74c0 8 -0.333008 20.667 -1 38s-1 30.333 -1 39h-2c-11.333 -24.667 -31 -45.667 -59 -63s-60.333 -26 -97 -26c-59.333 0 -103.833 17.167 -133.5 51.5s-44.5 80.833 -44.5 139.5v289h78v-281
c0 -40 9 -71.167 27 -93.5s44.667 -33.5 80 -33.5c48.667 0 85 16 109 48s36 76 36 132v228h78zM179 700c14.667 0 27.3301 -5.33301 37.9971 -16s16 -23.334 16 -38.001s-5.16699 -27.334 -15.5 -38.001s-23.166 -16 -38.499 -16s-28.166 5.33301 -38.499 16
s-15.5 23.334 -15.5 38.001s5.33301 27.334 16 38.001s23.334 16 38.001 16zM376.996 700c14.667 0 27.3301 -5.33301 37.9971 -16s16 -23.334 16 -38.001s-5.16699 -27.334 -15.5 -38.001s-23.166 -16 -38.499 -16s-28.166 5.33301 -38.499 16s-15.5 23.334 -15.5 38.001
s5.33301 27.334 16 38.001s23.334 16 38.001 16z" />
    <glyph glyph-name="yacute" unicode="&#xfd;" horiz-adv-x="482" 
d="M472 468l-226.001 -575c-18 -46 -37.667 -79.667 -59 -101s-53.666 -32 -96.999 -32c-30 0 -53.333 4 -70 12l10 68c14 -5.33301 32.333 -8 55 -8c23.333 0 41.333 6.33301 54 19s23.667 32 33 58l32 88l-194 471h91l145 -367h2l139 367h85zM171.999 580l104 144h110
l-143 -144h-71z" />
    <glyph glyph-name="thorn" unicode="&#xfe;" horiz-adv-x="611" 
d="M70 -228l-0.000976562 983.999h78v-356h2c46 53.333 102 80 168 80c72.667 0 131.834 -23.167 177.501 -69.5s68.5 -105.166 68.5 -176.499c0 -70 -22.5 -128.5 -67.5 -175.5s-100.5 -70.5 -166.5 -70.5c-40.667 0 -77 9 -109 27s-55.667 40.667 -71 68h-2v-311h-78z
M147.999 233.999c0 -50 15.333 -91.5 46 -124.5s70.667 -49.5 120 -49.5s89.333 16.5 120 49.5s46 74.5 46 124.5s-15.333 91.5 -46 124.5s-70.667 49.5 -120 49.5s-89.333 -16.5 -120 -49.5s-46 -74.5 -46 -124.5z" />
    <glyph glyph-name="ydieresis" unicode="&#xff;" horiz-adv-x="482" 
d="M472 468l-226.001 -575c-18 -46 -37.667 -79.667 -59 -101s-53.666 -32 -96.999 -32c-30 0 -53.333 4 -70 12l10 68c14 -5.33301 32.333 -8 55 -8c23.333 0 41.333 6.33301 54 19s23.667 32 33 58l32 88l-194 471h91l145 -367h2l139 367h85zM141.999 700
c14.667 0 27.334 -5.33301 38.001 -16s16 -23.334 16 -38.001s-5.33301 -27.334 -16 -38.001s-23.334 -16 -38.001 -16s-27.334 5.33301 -38.001 16s-16 23.334 -16 38.001s5.33301 27.334 16 38.001s23.334 16 38.001 16zM339.999 700c14.667 0 27.334 -5.33301 38.001 -16
s16 -23.334 16 -38.001s-5.33301 -27.334 -16 -38.001s-23.334 -16 -38.001 -16s-27.334 5.33301 -38.001 16s-16 23.334 -16 38.001s5.33301 27.334 16 38.001s23.334 16 38.001 16z" />
    <glyph glyph-name="dotlessi" unicode="&#x131;" horiz-adv-x="240" 
d="M81 0v468h78v-468h-78z" />
    <glyph glyph-name="Lslash" unicode="&#x141;" horiz-adv-x="500" 
d="M88 0v221l-78 -67v79l78 67v408h84v-336l216 186v-79l-216 -186v-215h324v-78h-408z" />
    <glyph glyph-name="lslash" unicode="&#x142;" horiz-adv-x="240" 
d="M81 0v308l-81 -81v82l81 81v366h78v-288l81 81v-81l-81 -81v-387h-78z" />
    <glyph glyph-name="OE" unicode="&#x152;" horiz-adv-x="963" 
d="M602 630v-222h282v-78h-282v-252h306v-78h-460c-62.667 -0 -119.5 9.83301 -170.5 29.5s-92.333 46 -124 79s-56 70.5 -73 112.5s-25.5 86.333 -25.5 133s8.5 91 25.5 133s41.333 79.5 73 112.5s73 59.333 124 79s107.833 29.5 170.5 29.5h454v-78h-300zM518 78v552.002
h-66c-99.333 0 -175.333 -27.333 -228 -82s-79 -119.334 -79 -194.001s26.333 -139.334 79 -194.001s128.667 -82 228 -82h66z" />
    <glyph glyph-name="oe" unicode="&#x153;" horiz-adv-x="907" 
d="M871 210l-361.001 -0.00195312c0.666992 -41.333 13.834 -76.666 39.501 -105.999s57.834 -44 96.501 -44c62 0 111.667 23.667 149 71l59 -46c-50 -64.667 -119.333 -97 -208 -97c-77.333 0 -135.333 32 -174 96c-48 -64 -112 -96 -192 -96
c-74 0 -133.167 22.5 -177.5 67.5s-66.5 104.5 -66.5 178.5c0 70.667 22.5 129.334 67.5 176.001s102.833 70 173.5 70c81.333 0 146.333 -31.333 195 -94c48.667 62.667 107.667 94 177 94c67.333 0 121.166 -21.667 161.499 -65s60.5 -103.333 60.5 -180v-25z
M119.999 233.998c0 -48 13.6689 -89.001 41.002 -123.001s65.666 -51 114.999 -51c51.333 0 91.166 16.5 119.499 49.5s42.5 74.5 42.5 124.5c0 48.667 -13.833 89.834 -41.5 123.501s-66.5 50.5 -116.5 50.5c-50.667 0 -90 -16.5 -118 -49.5s-42 -74.5 -42 -124.5z
M510.001 275.997h277c-1.33301 40 -14.5 72 -39.5 96s-58.833 36 -101.5 36c-37.333 0 -69 -13.5 -95 -40.5s-39.667 -57.5 -41 -91.5z" />
    <glyph glyph-name="Scaron" unicode="&#x160;" 
d="M493 643l-68.999 -60.001c-26.667 43.333 -69.667 65 -129 65c-41.333 0 -76.833 -10 -106.5 -30s-44.5 -49.667 -44.5 -89c0 -32 10.5 -57.167 31.5 -75.5s60.167 -36.5 117.5 -54.5c34.667 -11.333 61.667 -21 81 -29s40.666 -20 63.999 -36s40.333 -35.833 51 -59.5
s16 -52.167 16 -85.5c0 -66.667 -24.167 -117.834 -72.5 -153.501s-107.166 -53.5 -176.499 -53.5c-44.667 0 -86.5 8 -125.5 24s-69.833 40.667 -92.5 74l72 59c14.667 -25.333 35.667 -44.833 63 -58.5s56.666 -20.5 87.999 -20.5c39.333 0 74.833 11 106.5 33
s47.5 52 47.5 90c0 20 -2.83301 36.667 -8.5 50s-17.167 25.5 -34.5 36.5s-33.333 19.333 -48 25s-40 14.5 -76 26.5l-18 6c-57.333 18.667 -101 42.334 -131 71.001s-45 70 -45 124c0 64.667 23.5 114.834 70.5 150.501s103.833 53.5 170.5 53.5
c84.667 0 150.667 -27.667 198 -83zM434.001 901.999l-110 -144h-91l-111 144h81l78 -102l77 102h76z" />
    <glyph glyph-name="scaron" unicode="&#x161;" horiz-adv-x="426" 
d="M22 75l62 47.9961c34 -42 74 -63 120 -63c27.333 0 51.333 6 72 18s31 30 31 54c0 12 -2.66699 22.333 -8 31s-13.333 15.667 -24 21s-20.834 9.5 -30.501 12.5s-22.167 6.16699 -37.5 9.5c-28 6.66699 -49.5 12.334 -64.5 17.001s-31.5 11.834 -49.5 21.501
s-31 22.5 -39 38.5s-12 35.667 -12 59c0 43.333 17.333 77.166 52 101.499s75.667 36.5 123 36.5c76 0 129 -28.333 159 -85l-65 -43c-22.667 37.333 -55.667 56 -99 56c-24 0 -45.333 -5.66699 -64 -17s-28 -27.333 -28 -48c0 -30 39.333 -52.667 118 -68
c48.667 -9.33301 86.334 -24.166 113.001 -44.499s40 -52.166 40 -95.499c0 -49.333 -18.167 -86.166 -54.5 -110.499s-80.5 -36.5 -132.5 -36.5c-41.333 0 -76.5 6.5 -105.5 19.5s-54.5 35.5 -76.5 67.5zM369 723.996l-110 -144h-91l-111 144h81l78 -102l77 102h76z" />
    <glyph glyph-name="Ydieresis" unicode="&#x178;" horiz-adv-x="594" 
d="M255 0v305l-264 403h107l199 -320l205 320h101l-264 -403v-305h-84zM198 878c14.667 0 27.334 -5.33301 38.001 -16s16 -23.334 16 -38.001s-5.33301 -27.334 -16 -38.001s-23.334 -16 -38.001 -16s-27.334 5.33301 -38.001 16s-16 23.334 -16 38.001
s5.33301 27.334 16 38.001s23.334 16 38.001 16zM396 878c14.667 0 27.334 -5.33301 38.001 -16s16 -23.334 16 -38.001s-5.33301 -27.334 -16 -38.001s-23.334 -16 -38.001 -16s-27.334 5.33301 -38.001 16s-16 23.334 -16 38.001s5.33301 27.334 16 38.001
s23.334 16 38.001 16z" />
    <glyph glyph-name="Zcaron" unicode="&#x17d;" horiz-adv-x="574" 
d="M29 0v75l409 555h-403v78h505v-72l-409 -558h414v-78h-516zM443 902l-110 -144h-91l-111 144h81l78 -102l77 102h76z" />
    <glyph glyph-name="zcaron" unicode="&#x17e;" horiz-adv-x="444" 
d="M30 0v61l275 341h-263v66h365v-60l-275 -342h282v-66h-384zM378 724l-110 -144h-91l-111 144h81l78 -102l77 102h76z" />
    <glyph glyph-name="florin" unicode="&#x192;" 
d="M431 425l0.00488281 -66h-126l-65 -344c-10 -51.333 -27.333 -90.666 -52 -117.999s-62 -41 -112 -41c-32 0 -60.667 8 -86 24l36 63c15.333 -10 32.666 -15 51.999 -15c15.333 0 28.166 3 38.499 9s18.5 15.167 24.5 27.5s10.167 23 12.5 32
s5.16602 21.833 8.49902 38.5l60 324h-108v66h121l21 110c5.33301 27.333 11.166 50.666 17.499 69.999s15.5 38.5 27.5 57.5s28 33.333 48 43s43.667 14.5 71 14.5c35.333 0 68.666 -9.33301 99.999 -28l-37 -62c-20.667 12 -39.667 18 -57 18
c-15.333 0 -28.5 -3.16699 -39.5 -9.5s-19.667 -16 -26 -29s-10.833 -24.333 -13.5 -34s-5.66699 -23.167 -9 -40.5l-21 -110h114z" />
    <glyph glyph-name="circumflex" unicode="&#x2c6;" horiz-adv-x="240" 
d="M-37 564l111 144h91l112 -144h-81l-79 102l-78 -102h-76z" />
    <glyph glyph-name="caron" unicode="&#x2c7;" horiz-adv-x="240" 
d="M276 708l-110 -144h-91l-111 144h81l78 -102l77 102h76z" />
    <glyph glyph-name="uni02C9" unicode="&#x2c9;" horiz-adv-x="240" 
d="M258 660v-60h-276v60h276z" />
    <glyph glyph-name="breve" unicode="&#x2d8;" horiz-adv-x="240" 
d="M-33 702h48.998c4.66699 -25.333 16.334 -44.666 35.001 -57.999s41.334 -20 68.001 -20c30 0 53.5 6 70.5 18s28.833 32 35.5 60h48c-4.66699 -42.667 -20.667 -75.334 -48 -98.001s-62.666 -34 -105.999 -34s-78.833 11.5 -106.5 34.5s-42.834 55.5 -45.501 97.5z" />
    <glyph glyph-name="dotaccent" unicode="&#x2d9;" horiz-adv-x="240" 
d="M120 684c14.667 0 27.332 -5.33105 37.999 -15.998s16 -23.334 16 -38.001s-5.33301 -27.334 -16 -38.001s-23.334 -16 -38.001 -16c-15.333 0 -28.166 5.16699 -38.499 15.5s-15.5 23.166 -15.5 38.499c0 14.667 5.33301 27.334 16 38.001s23.334 16 38.001 16z" />
    <glyph glyph-name="ring" unicode="&#x2da;" horiz-adv-x="240" 
d="M21 645c0 26.667 9.49902 49.832 28.499 69.499s42.5 29.5 70.5 29.5c28.667 0 52.334 -9.66699 71.001 -29s28 -42.666 28 -69.999s-9.5 -50.666 -28.5 -69.999s-42.5 -29 -70.5 -29s-51.5 9.66699 -70.5 29s-28.5 42.666 -28.5 69.999zM62.999 644.998
c0 -16 5.83301 -29.5 17.5 -40.5s24.834 -16.5 39.501 -16.5s27.834 5.5 39.501 16.5s17.5 24.5 17.5 40.5c0 15.333 -5.83301 28.666 -17.5 39.999s-24.834 17 -39.501 17s-27.834 -5.66699 -39.501 -17s-17.5 -24.666 -17.5 -39.999z" />
    <glyph glyph-name="ogonek" unicode="&#x2db;" horiz-adv-x="240" 
d="M182 -141l21 -41c-27.333 -26 -58 -39 -92 -39c-25.333 0 -47.166 8 -65.499 24s-27.5 36.333 -27.5 61c0 26 9.16699 51.333 27.5 76s39.5 44.667 63.5 60h51c-18.667 -13.333 -36 -30.5 -52 -51.5s-24 -42.167 -24 -63.5c0 -14 4.16699 -25.333 12.5 -34
s20.166 -12.667 35.499 -12c20 0 36.667 6.66699 50 20z" />
    <glyph glyph-name="tilde" unicode="&#x2dc;" horiz-adv-x="240" 
d="M1 576h-47.999c4.66699 28.667 15.667 53.167 33 73.5s39.666 30.5 66.999 30.5c18.667 0 46.667 -7.66699 84 -23c28 -11.333 46 -17 54 -17c23.333 0 39.333 14.667 48 44h48c-4.66699 -29.333 -14.5 -54 -29.5 -74s-36.167 -30 -63.5 -30c-19.333 0 -46.333 7 -81 21
c-31.333 12.667 -53.333 19 -66 19c-22.667 0 -38 -14.667 -46 -44z" />
    <glyph glyph-name="hungarumlaut" unicode="&#x2dd;" horiz-adv-x="240" 
d="M174 708l-129 -144h-67l100 144h96zM345 708l-143 -144h-68l109 144h102z" />
    <glyph glyph-name="uni03A9" unicode="&#x3a9;" horiz-adv-x="720" 
d="M198 62l-0.00195312 3c-39.333 35.333 -71.666 80 -96.999 134s-38 114 -38 180c0 98.667 28.5 179.5 85.5 242.5s128.5 94.5 214.5 94.5c86.667 0 157 -32.667 211 -98s81 -143.333 81 -234c0 -68.667 -13.167 -131 -39.5 -187s-58.833 -100 -97.5 -132v-3h151v-62h-240
v46c42 28.667 77.5 71 106.5 127s43.5 121.667 43.5 197c0 72.667 -19.5 138 -58.5 196s-91.833 87 -158.5 87s-120.5 -27.333 -161.5 -82s-61.5 -122.667 -61.5 -204c0 -70.667 14.833 -135.167 44.5 -193.5s64.834 -100.833 105.501 -127.5v-46h-240v62h149z" />
    <glyph glyph-name="uni03BC" unicode="&#x3bc;" 
d="M482 468v-357c0 -15.333 0.666992 -35.333 2 -60s2 -41.667 2 -51h-74c0 8 -0.333008 20.667 -1 38s-1 30.333 -1 39h-2c-11.333 -24.667 -31 -45.667 -59 -63s-60.333 -26 -97 -26c-38 0 -71.333 8.33301 -100 25v-241h-78v696h78v-281c0 -40 9 -71.167 27 -93.5
s44.667 -33.5 80 -33.5c48.667 0 85 16 109 48s36 76 36 132v228h78z" />
    <glyph glyph-name="pi" unicode="&#x3c0;" horiz-adv-x="571" 
d="M544 460l-80 0.000976562v-312c0 -62.667 4.66699 -112 14 -148h-73c-11.333 21.333 -17 68.666 -17 141.999v318h-181c-3.33301 -73.333 -12 -157.166 -26 -251.499s-29.667 -163.833 -47 -208.5h-74c18 52.667 34 124.667 48 216s22 172.666 24 243.999
c-51.333 0 -88.333 -4.33301 -111 -13l-12 51c30 18 78 27 144 27h398z" />
    <glyph glyph-name="endash" unicode="&#x2013;" horiz-adv-x="500" 
d="M500 276v-72h-500v72h500z" />
    <glyph glyph-name="emdash" unicode="&#x2014;" horiz-adv-x="1000" 
d="M0 204v72h1000v-72h-1000z" />
    <glyph glyph-name="quoteleft" unicode="&#x2018;" horiz-adv-x="278" 
d="M60 468l82 240h76l-67 -240h-91z" />
    <glyph glyph-name="quoteright" unicode="&#x2019;" horiz-adv-x="278" 
d="M218 708l-82 -240h-76l67 240h91z" />
    <glyph glyph-name="quotesinglbase" unicode="&#x201a;" horiz-adv-x="278" 
d="M218 102l-82 -240h-76l67 240h91z" />
    <glyph glyph-name="quotedblleft" unicode="&#x201c;" horiz-adv-x="519" 
d="M87 468l82 240h76l-67 -240h-91zM274 468l82 240h76l-67 -240h-91z" />
    <glyph glyph-name="quotedblright" unicode="&#x201d;" horiz-adv-x="519" 
d="M245 708l-82 -240h-76l67 240h91zM432 708l-82 -240h-76l67 240h91z" />
    <glyph glyph-name="quotedblbase" unicode="&#x201e;" horiz-adv-x="519" 
d="M245 102l-82 -240h-76l67 240h91zM432 102l-82 -240h-76l67 240h91z" />
    <glyph glyph-name="dagger" unicode="&#x2020;" 
d="M317 708v-203h204v-66h-204v-565h-78v565h-204v66h204v203h78z" />
    <glyph glyph-name="daggerdbl" unicode="&#x2021;" 
d="M317 708v-192h198v-66h-198v-318h198v-66h-198v-192h-78v192h-198v66h198v318h-198v66h198v192h78z" />
    <glyph glyph-name="bullet" unicode="&#x2022;" horiz-adv-x="500" 
d="M73 354c0 49.333 17.167 91.166 51.5 125.499s76.166 51.5 125.499 51.5s91.166 -17.167 125.499 -51.5s51.5 -76.166 51.5 -125.499s-17.167 -91.166 -51.5 -125.499s-76.166 -51.5 -125.499 -51.5s-91.166 17.167 -125.499 51.5s-51.5 76.166 -51.5 125.499z" />
    <glyph glyph-name="ellipsis" unicode="&#x2026;" horiz-adv-x="1000" 
d="M167 114c16.667 0 30.832 -5.83301 42.499 -17.5s17.5 -25.834 17.5 -42.501c0 -16 -6 -30 -18 -42s-26 -18 -42 -18s-30 6 -42 18s-18 26 -18 42c0 16.667 5.83301 30.834 17.5 42.501s25.834 17.5 42.501 17.5zM499.998 114c16.667 0 30.832 -5.83301 42.499 -17.5
s17.5 -25.834 17.5 -42.501c0 -16 -6 -30 -18 -42s-26 -18 -42 -18s-30 6 -42 18s-18 26 -18 42c0 16.667 5.83301 30.834 17.5 42.501s25.834 17.5 42.501 17.5zM832.996 114c16.667 0 30.832 -5.83301 42.499 -17.5s17.5 -25.834 17.5 -42.501c0 -16 -6 -30 -18 -42
s-26 -18 -42 -18s-30 6 -42 18s-18 26 -18 42c0 16.667 5.83301 30.834 17.5 42.501s25.834 17.5 42.501 17.5z" />
    <glyph glyph-name="perthousand" unicode="&#x2030;" horiz-adv-x="1018" 
d="M326 145c0 42.667 15.5 79.5 46.5 110.5s67.833 46.5 110.5 46.5s79.5 -15.5 110.5 -46.5s46.5 -67.833 46.5 -110.5c0 -43.333 -15.333 -80.333 -46 -111s-67.667 -46 -111 -46s-80.333 15.333 -111 46s-46 67.667 -46 111zM392 145c0 -24 9.16699 -45.167 27.5 -63.5
s39.5 -27.5 63.5 -27.5s45.167 9.16699 63.5 27.5s27.5 39.5 27.5 63.5s-9.16699 45.167 -27.5 63.5s-39.5 27.5 -63.5 27.5s-45.167 -9.16699 -63.5 -27.5s-27.5 -39.5 -27.5 -63.5zM686 145c0 42.667 15.5 79.5 46.5 110.5s67.833 46.5 110.5 46.5s79.5 -15.5 110.5 -46.5
s46.5 -67.833 46.5 -110.5c0 -43.333 -15.333 -80.333 -46 -111s-67.667 -46 -111 -46s-80.333 15.333 -111 46s-46 67.667 -46 111zM752 144c0 -24 9.16699 -45.167 27.5 -63.5s39.5 -27.5 63.5 -27.5s45.167 9.16699 63.5 27.5s27.5 39.5 27.5 63.5
s-9.16699 45.167 -27.5 63.5s-39.5 27.5 -63.5 27.5s-45.167 -9.16699 -63.5 -27.5s-27.5 -39.5 -27.5 -63.5zM18 563c0 42.667 15.5 79.5 46.5 110.5s67.833 46.5 110.5 46.5s79.5 -15.5 110.5 -46.5s46.5 -67.833 46.5 -110.5c0 -43.333 -15.333 -80.333 -46 -111
s-67.667 -46 -111 -46s-80.333 15.333 -111 46s-46 67.667 -46 111zM84 563c0 -24 9.16699 -45.167 27.5 -63.5s39.5 -27.5 63.5 -27.5s45.167 9.16699 63.5 27.5s27.5 39.5 27.5 63.5s-9.16699 45.167 -27.5 63.5s-39.5 27.5 -63.5 27.5s-45.167 -9.16699 -63.5 -27.5
s-27.5 -39.5 -27.5 -63.5zM81 0l444 740l55 -32l-444 -740z" />
    <glyph glyph-name="guilsinglleft" unicode="&#x2039;" horiz-adv-x="314" 
d="M256 418l-117 -178l117 -178l-55 -36l-143 214l143 214z" />
    <glyph glyph-name="guilsinglright" unicode="&#x203a;" horiz-adv-x="314" 
d="M58 62l117 178l-117 178l55 36l143 -214l-143 -214z" />
    <glyph glyph-name="fraction" unicode="&#x2044;" horiz-adv-x="167" 
d="M-166 0l444 740l55 -32l-444 -740z" />
    <glyph glyph-name="Euro" unicode="&#x20ac;" 
d="M525 684l-21 -69.9971c-33.333 24.667 -76 37 -128 37c-45.333 0 -84.333 -14.667 -117 -44s-56 -72 -70 -128h277l-15 -59h-273c-3.33301 -26.667 -5 -52.334 -5 -77.001c0 -12.667 0.666992 -31 2 -55h242l-16 -57h-219c20 -117.333 76.333 -176 169 -176
c50 0 92 20.667 126 62l46 -45c-18 -24.667 -42.833 -44.834 -74.5 -60.501s-66.167 -23.5 -103.5 -23.5c-67.333 0 -122.333 20.667 -165 62s-70.667 101.666 -84 180.999h-73l18 57h48c-1.33301 25.333 -2 44.666 -2 57.999c0 28.667 1.33301 53.334 4 74.001h-66l19 59
h58c18 77.333 51.5 136.833 100.5 178.5s107.167 62.5 174.5 62.5c27.333 0 55 -3.5 83 -10.5s49.667 -15.5 65 -25.5z" />
    <glyph glyph-name="afii61289" unicode="&#x2113;" horiz-adv-x="485" 
d="M426 151l35.9971 -32.001c-44 -84 -106 -126 -186 -126c-54 0 -94.667 17.5 -122 52.5s-42 79.833 -44 134.5v13l-27 -22.5c-13.333 -11 -23.666 -19.167 -30.999 -24.5l-23 44c42.667 35.333 69.334 58.333 80.001 69v277c0 84 14.833 145.333 44.5 184
s66.167 58 109.5 58c40.667 0 71.5 -15.333 92.5 -46s31.5 -70 31.5 -118c0 -111.333 -68.667 -234.666 -206 -369.999v-34c0.666992 -52.667 11.334 -92 32.001 -118s46.667 -39 78 -39c28.667 0 54.667 9.66699 78 29s42.333 42.333 57 69zM180.997 540.999v-222
c102.667 113.333 154 211.333 154 294c0 72 -24 108 -72 108c-22 0 -41.167 -14.5 -57.5 -43.5s-24.5 -74.5 -24.5 -136.5z" />
    <glyph glyph-name="trademark" unicode="&#x2122;" horiz-adv-x="990" 
d="M194 296v346h-130v66h326v-66h-130v-346h-66zM473 296v412h105l123 -313l123 313h102v-412h-66v346h-2l-136 -346h-45l-136 346h-2v-346h-66z" />
    <glyph glyph-name="Omega" unicode="&#x2126;" horiz-adv-x="720" 
d="M198 62l-0.00195312 3c-39.333 35.333 -71.666 80 -96.999 134s-38 114 -38 180c0 98.667 28.5 179.5 85.5 242.5s128.5 94.5 214.5 94.5c86.667 0 157 -32.667 211 -98s81 -143.333 81 -234c0 -68.667 -13.167 -131 -39.5 -187s-58.833 -100 -97.5 -132v-3h151v-62h-240
v46c42 28.667 77.5 71 106.5 127s43.5 121.667 43.5 197c0 72.667 -19.5 138 -58.5 196s-91.833 87 -158.5 87s-120.5 -27.333 -161.5 -82s-61.5 -122.667 -61.5 -204c0 -70.667 14.833 -135.167 44.5 -193.5s64.834 -100.833 105.501 -127.5v-46h-240v62h149z" />
    <glyph glyph-name="estimated" unicode="&#x212e;" horiz-adv-x="883" 
d="M847 344l-657.999 -0.00292969c-3.33301 0 -5 -1.66699 -5 -5v-199c0 -8 2.66699 -15.667 8 -23c70 -72 153 -108 249 -108c51.333 0 99.666 10.833 144.999 32.5s84.333 51.167 117 88.5h59c-37.333 -43.333 -84.333 -77.666 -141 -102.999s-117 -38 -181 -38
c-112 0 -207.667 35.667 -287 107s-119 157.333 -119 258s39.667 186.834 119 258.501s175 107.5 287 107.5c112.667 0 208.667 -35.667 288 -107s119 -157.666 119 -258.999v-10zM698.001 369.997v199.999c0 9.33301 -3.33301 17.333 -10 24
c-70.667 69.333 -153 104 -247 104c-95.333 0 -178 -35.667 -248 -107c-6 -7.33301 -9 -15.666 -9 -24.999v-196c0 -4.66699 1.66699 -7 5 -7h505c2.66699 0 4 2.33301 4 7z" />
    <glyph glyph-name="partialdiff" unicode="&#x2202;" horiz-adv-x="547" 
d="M102 680l-26.0049 54.999c46.667 38 102.334 57 167.001 57c70 0 129.667 -33 179 -99s74 -160.333 74 -283c0 -123.333 -22.667 -223.833 -68 -301.5s-109.666 -116.5 -192.999 -116.5c-61.333 0 -108.666 23.167 -141.999 69.5s-50 100.833 -50 163.5
c0 76.667 20.833 138.834 62.5 186.501s91.834 71.5 150.501 71.5c40.667 0 75.334 -10.5 104.001 -31.5s48.667 -42.5 60 -64.5h1c1.33301 8 2 22.667 2 44c0 87.333 -18.333 158.833 -55 214.5s-81 83.5 -133 83.5c-48.667 0 -93 -16.333 -133 -49zM240.995 54.999
h0.999023c45.333 0 83.333 25 114 75s49.334 110.667 56.001 182c-8.66699 26.667 -26.167 51.667 -52.5 75s-57.166 35 -92.499 35c-40.667 0 -75.667 -19.333 -105 -58s-44 -84.667 -44 -138c0 -50 11.167 -91 33.5 -123s52.166 -48 89.499 -48z" />
    <glyph glyph-name="Delta" unicode="&#x2206;" horiz-adv-x="648" 
d="M31 0v52l251 672h87l247 -672v-52h-585zM108 62h427.001l-145 386c-5.33301 16 -16.5 47.167 -33.5 93.5s-27.833 77.833 -32.5 94.5h-4c-3.33301 -14 -12.833 -42.5 -28.5 -85.5s-25.834 -71.833 -30.501 -86.5z" />
    <glyph glyph-name="product" unicode="&#x220f;" horiz-adv-x="700" 
d="M673 636h-110v-733h-74v733h-280v-733h-74v733h-109v69h647v-69z" />
    <glyph glyph-name="summation" unicode="&#x2211;" horiz-adv-x="553" 
d="M531 -97h-508v50l269 350l-257 349v53h480v-65h-376v-4l239 -322l-259 -337v-3h412v-71z" />
    <glyph glyph-name="minus" unicode="&#x2212;" horiz-adv-x="666" 
d="M72 336h522v-66h-522v66z" />
    <glyph glyph-name="uni2215" unicode="&#x2215;" horiz-adv-x="167" 
d="M-166 0l444 740l55 -32l-444 -740z" />
    <glyph glyph-name="uni2219" unicode="&#x2219;" horiz-adv-x="278" 
d="M139 369c16.667 0 30.832 -5.83301 42.499 -17.5s17.5 -25.834 17.5 -42.501c0 -16 -6 -30 -18 -42s-26 -18 -42 -18s-30 6 -42 18s-18 26 -18 42c0 16.667 5.83301 30.834 17.5 42.501s25.834 17.5 42.501 17.5z" />
    <glyph glyph-name="radical" unicode="&#x221a;" horiz-adv-x="573" 
d="M573 838l-222.999 -989h-66l-160 469l-75 -29l-15 46l137 54l128 -376c8 -32 13.667 -56.333 17 -73h1c0.666992 6 2.66699 17.5 6 34.5s5.66602 29.833 6.99902 38.5l187 825h56z" />
    <glyph glyph-name="infinity" unicode="&#x221e;" horiz-adv-x="780" 
d="M728 293l-0.00292969 -1c0 -46.667 -15.167 -84.834 -45.5 -114.501s-66.166 -44.5 -107.499 -44.5c-30 0 -59 9.33301 -87 28s-60.333 49 -97 91c-22 -25.333 -40.5 -45.166 -55.5 -59.499s-34.833 -27.833 -59.5 -40.5s-49.667 -19 -75 -19
c-41.333 0 -76.666 15 -105.999 45s-44 67 -44 111c0 45.333 15 83.166 45 113.499s67.333 45.5 112 45.5c34.667 0 66.334 -10.5 95.001 -31.5s59 -50.5 91 -88.5l41.5 45c8.33301 8.66699 21.333 20.334 39 35.001s35 25 52 31s35.5 9 55.5 9
c43.333 0 78.5 -14.333 105.5 -43s40.5 -66 40.5 -112zM207.997 180l0.99707 -0.000976562c10 0 20.333 1.83301 31 5.5s19.834 7.5 27.501 11.5s17 10.833 28 20.5s18.833 16.834 23.5 21.501s12.667 13.167 24 25.5s18.333 19.833 21 22.5l-36 43
c-6 7.33301 -17 18.333 -33 33s-31.167 24.834 -45.5 30.501s-30.166 8.5 -47.499 8.5c-30.667 0 -55.167 -11 -73.5 -33s-27.5 -49 -27.5 -81c0.666992 -30.667 10.834 -56.334 30.501 -77.001s45.167 -31 76.5 -31zM576.994 401.999h-1c-16 0 -32.5 -4.66699 -49.5 -14
s-30.167 -18 -39.5 -26s-22.5 -21.167 -39.5 -39.5s-26.5 -28.5 -28.5 -30.5c38 -42 67.833 -71.167 89.5 -87.5s45.167 -24.5 70.5 -24.5c30 0 54 11 72 33s27 47.333 27 76c0 34.667 -9.5 62.167 -28.5 82.5s-43.167 30.5 -72.5 30.5z" />
    <glyph glyph-name="integral" unicode="&#x222b;" horiz-adv-x="358" 
d="M342 848l-12.999 -53c-10 7.33301 -22 11 -36 11c-22 0 -39 -8 -51 -24c-22.667 -28 -34 -88.333 -34 -181c0 -52 2.33301 -135.833 7 -251.5s7 -201.167 7 -256.5c0 -91.333 -14.333 -159.333 -43 -204c-22 -34.667 -55.333 -52 -100 -52c-25.333 0 -47 5.66699 -65 17
l13 55c18 -8 33 -12 45 -12c19.333 0 35 7.66699 47 23c22.667 31.333 34 89.333 34 174c0 56 -2.33301 142.5 -7 259.5s-7 201.833 -7 254.5c0 104.667 18 176 54 214c24.667 26.667 56 40 94 40c19.333 0 37.666 -4.66699 54.999 -14z" />
    <glyph glyph-name="approxequal" unicode="&#x2248;" horiz-adv-x="564" 
d="M486 434l30.998 -26.999c-32 -63.333 -75 -95 -129 -95c-18.667 0 -35.834 3 -51.501 9s-37.5 17 -65.5 33c-39.333 22.667 -70.666 34 -93.999 34c-21.333 0 -39.333 -6.5 -54 -19.5s-29.667 -31.5 -45 -55.5l-32 27c33.333 64 79.333 96 138 96
c11.333 0 23 -1.66699 35 -5s21.167 -6.5 27.5 -9.5s15.833 -8.16699 28.5 -15.5s19.667 -11.333 21 -12c2.66699 -1.33301 7.33398 -3.83301 14.001 -7.5s11.334 -6.16699 14.001 -7.5l12.5 -6.5c5.66699 -3 10.167 -5 13.5 -6s7.5 -2.16699 12.5 -3.5
s9.66699 -2.33301 14 -3s9.16602 -1 14.499 -1c19.333 0 36.333 6.16699 51 18.5s29.334 31.166 44.001 56.499zM485.998 263.001l31.0029 -27.002c-32.667 -63.333 -75.667 -95 -129 -95c-18.667 0 -35.834 3 -51.501 9s-37.5 17 -65.5 33
c-41.333 23.333 -72.666 35 -93.999 35s-39.5 -6.66699 -54.5 -20s-29.833 -32 -44.5 -56l-32 27c15.333 30 35 53.5 59 70.5s50 25.5 78 25.5c12 0 24.167 -1.66699 36.5 -5s21.333 -6.33301 27 -9s15.167 -7.83398 28.5 -15.501s20.333 -11.5 21 -11.5
c2 -1.33301 7.16699 -4.16602 15.5 -8.49902s13.666 -7.16602 15.999 -8.49902s7 -3.66602 14 -6.99902s12.5 -5.5 16.5 -6.5s9 -2 15 -3s12 -1.5 18 -1.5c19.333 0 36.166 5.83301 50.499 17.5s29.166 30.5 44.499 56.5z" />
    <glyph glyph-name="notequal" unicode="&#x2260;" horiz-adv-x="564" 
d="M400 508l-45 -99h157v-49h-176l-68 -147h244v-48h-264l-54 -119l-39 18l46 101h-150v48h171l67 147h-238v49h257l53 116z" />
    <glyph glyph-name="lessequal" unicode="&#x2264;" horiz-adv-x="564" 
d="M510 98l-453 226v52l452 226v-59l-400 -191v-2l401 -194v-58zM512 6h-461v50h461v-50z" />
    <glyph glyph-name="greaterequal" unicode="&#x2265;" horiz-adv-x="564" 
d="M58 602l452 -226v-52l-452 -226v58l399 193v2l-399 192v59zM512 6h-460v50h460v-50z" />
    <glyph glyph-name="lozenge" unicode="&#x25ca;" horiz-adv-x="573" 
d="M518 352l-202 -398h-61l-200 398l202 398h61zM449 350l-142.999 282.999c-8.66699 20.667 -15 38.334 -19 53.001h-2c-6.66699 -21.333 -13.334 -39 -20.001 -53l-142 -279l144 -285c8 -18 14 -35.333 18 -52h3c7.33301 24 13.333 41 18 51z" />
    <glyph glyph-name=".null" horiz-adv-x="0" 
 />
    <glyph glyph-name="nonmarkingreturn" horiz-adv-x="333" 
 />
    </font>
</defs>
</svg>
