<svg xmlns="http://www.w3.org/2000/svg" width="46.998" height="44" viewBox="0 0 46.998 44">
  <g id="noun_money_back_174031" data-name="noun_money back_174031" transform="translate(-0.002)">
    <path id="Shape" d="M25.293,44a21.487,21.487,0,0,1-14.864-5.959A21.933,21.933,0,0,1,3.641,23.521l-1.87,1.893a1,1,0,0,1-.737.344A1.1,1.1,0,0,1,.3,25.413a1.162,1.162,0,0,1,0-1.549l3.627-3.671a1.186,1.186,0,0,1,.787-.3,1.031,1.031,0,0,1,.743.3l3.628,3.671a1.162,1.162,0,0,1,0,1.549,1,1,0,0,1-.737.344,1.1,1.1,0,0,1-.737-.344L5.852,23.635a19.729,19.729,0,0,0,19.5,18.185,19.793,19.793,0,0,0,0-39.583,1.024,1.024,0,0,1-.907-.459.971.971,0,0,1-.17-.573.973.973,0,0,1,.17-.574V.573L24.5.517A.2.2,0,0,1,24.556.4c0-.036.022-.049.052-.068a.316.316,0,0,0,.061-.046l.057-.058a.055.055,0,0,1,.057-.058.074.074,0,0,0,.057-.029A.073.073,0,0,1,24.9.114c.057-.057.057-.057.113-.057C25.066,0,25.066,0,25.123,0h.227A21.381,21.381,0,0,1,40.6,6.368,21.986,21.986,0,0,1,47,22.028,21.865,21.865,0,0,1,25.293,44ZM5.285,18.07a1.1,1.1,0,0,1-.736-.344,1.155,1.155,0,0,1-.34-.746.927.927,0,0,1,.34-.745,1.262,1.262,0,0,1,.736-.345.911.911,0,0,1,.737.345,1.287,1.287,0,0,1,.34.745.928.928,0,0,1-.34.746A1.266,1.266,0,0,1,5.285,18.07Zm1.588-4.36a1.741,1.741,0,0,1-.454-.115.922.922,0,0,1-.528-.554,1.092,1.092,0,0,1,.075-.88,1.02,1.02,0,0,1,.933-.584,1.095,1.095,0,0,1,1,.721,1.055,1.055,0,0,1-.067.839A1.1,1.1,0,0,1,6.872,13.711ZM9.366,9.867A1.586,1.586,0,0,1,8.69,9.64l0,0a1.114,1.114,0,0,1-.17-1.549,1.185,1.185,0,0,1,.88-.418.965.965,0,0,1,.65.246,1.114,1.114,0,0,1,.17,1.549A1.088,1.088,0,0,1,9.366,9.867ZM12.6,6.6a1.085,1.085,0,0,1-.85-.4,1.141,1.141,0,0,1-.233-.848,1.045,1.045,0,0,1,.4-.7,1.115,1.115,0,0,1,.692-.246,1.046,1.046,0,0,1,.839.418,1.14,1.14,0,0,1,.233.848,1.05,1.05,0,0,1-.4.7A1.085,1.085,0,0,1,12.6,6.6Zm3.911-2.409a1.04,1.04,0,0,1-.963-.631,1.127,1.127,0,0,1,.51-1.435,1.02,1.02,0,0,1,.426-.089,1.078,1.078,0,0,1,.991.606,1.127,1.127,0,0,1-.51,1.435l-.089.031-.014,0A.968.968,0,0,1,16.507,4.188ZM21.041,2.7h-.226a1.1,1.1,0,0,1-1.077-.8,1.062,1.062,0,0,1,.116-.846,1.207,1.207,0,0,1,.968-.514,1.04,1.04,0,0,1,1.013.844,1.062,1.062,0,0,1-.116.846,1.042,1.042,0,0,1-.678.473Z"/>
    <path id="Path" d="M13,16.9A7.013,7.013,0,0,1,9,18a6.911,6.911,0,0,1-5.4-2.381,8.311,8.311,0,0,1-1.915-4.587H0V9.7H1.509V9.29a8.58,8.58,0,0,1,.058-1.219H0V6.735H1.741A8.553,8.553,0,0,1,3.946,2.206,7.031,7.031,0,0,1,9.228,0a7.487,7.487,0,0,1,3.54.871l-.522,1.742a6.055,6.055,0,0,0-3.018-.755A4.809,4.809,0,0,0,5.688,3.31,6.342,6.342,0,0,0,4.063,6.677h7.429V8.013H3.946c0,.348-.058.755-.058,1.1v.465h7.719v1.335H4.063A6.672,6.672,0,0,0,5.513,14.4a5.08,5.08,0,0,0,3.772,1.568,6.843,6.843,0,0,0,3.25-.871Z" transform="translate(17 12)"/>
  </g>
</svg>
