<svg id="noun_delivery_1838952" xmlns="http://www.w3.org/2000/svg" width="64" height="31" viewBox="0 0 64 31">
  <path id="Shape" d="M59.26,31H11.289A6.087,6.087,0,0,1,5.3,26.021H0V14.407L7.825,3.52H22.578V25.978H17.284a6.053,6.053,0,0,1-1.32,2.8h22.79a6.063,6.063,0,0,1-1.32-2.8h-12.7V0H56.044V7.432H58.9V9.61H56.044V14.6H64v2.178H56.044V20.94H61.8v2.177H56.044v2.9H49.415a6.027,6.027,0,0,1-1.319,2.8H59.26V31ZM43.2,21.379a3.741,3.741,0,1,0,3.233,1.87A3.741,3.741,0,0,0,43.2,21.379Zm-32,0a3.741,3.741,0,0,0,0,7.483,3.741,3.741,0,0,0,0-7.483Zm31.722-2.727h.865l.433.078.217.05.332.086.216.072.311.114.217.094.3.143.2.108.289.172.18.115.289.215.145.114c.118.1.258.22.4.359s.248.263.361.394l.115.144c.064.081.14.179.217.287l.116.179.144.28.108.2.145.294.094.215c.011.027.025.054.039.081a.552.552,0,0,1,.077.228l.073.222a.993.993,0,0,1,.032.143.491.491,0,0,0,.055.186.345.345,0,0,1,.05.216v.071h4.4V16.573H34.674V14.421H53.333V9.484H38.285V7.332H53.333V2.138H26.667V23.51h10.4v-.036a5.908,5.908,0,0,1,.2-.76l.065-.172a5.839,5.839,0,0,1,.289-.667l.036-.079a6.05,6.05,0,0,1,.426-.674l.116-.151a6.117,6.117,0,0,1,.534-.616A5.973,5.973,0,0,1,42.923,18.653ZM10.43,18.581h1.554l.385.059.218.05.335.087.225.073.312.116.218.094.3.146.2.109.283.175.189.123.291.218.145.095c.139.115.268.232.385.349l.058.073c.115.118.227.242.342.378l.123.152.009.011c.065.084.138.179.2.272l.123.189.175.283.109.212.139.291.094.218c.011.025.023.05.036.076l.006.013,0,.005a.509.509,0,0,1,.071.212l.072.226a1.062,1.062,0,0,1,.032.136l0,.01a.543.543,0,0,0,.054.188.379.379,0,0,1,.051.226v.072h3.1V5.345H15V15.521H2.133v8h3.1v-.072a.171.171,0,0,0,.035-.106.54.54,0,0,1,.016-.105c.009-.038.021-.074.034-.112l0-.009a.7.7,0,0,0,.05-.22l.072-.219c.005-.013.01-.027.014-.04l.015-.041c.026-.072.055-.153.087-.231l.095-.218c.047-.106.1-.207.146-.3l.109-.2.175-.283.123-.189c.074-.1.141-.193.218-.292l.116-.152a4.714,4.714,0,0,1,.342-.378l.05-.051c.128-.123.258-.24.385-.348l.152-.117.291-.218.189-.123.284-.175.2-.109.3-.146.218-.094.312-.116.225-.073.335-.087.218-.05.385-.058ZM8.87,6.413,3.2,13.9h9.6V6.413Z" fill="#333"/>
</svg>
