<svg id="noun_Shop_2331752_1_" data-name="noun_Shop_2331752(1)" xmlns="http://www.w3.org/2000/svg" width="31" height="38" viewBox="0 0 31 38">
  <path id="Shape" d="M30.049,38H.939a.9.9,0,0,1-.7-.275A1.1,1.1,0,0,1,0,37.039L1.878,11.4a.957.957,0,0,1,.939-.87H7.982v-3.2A7.429,7.429,0,0,1,15.494,0a7.429,7.429,0,0,1,7.512,7.325v3.2h5.164a.955.955,0,0,1,.939.87l1.878,25.638a.785.785,0,0,1-.235.687A.972.972,0,0,1,30.049,38ZM3.662,12.362h0L1.925,36.168H29.016L27.279,12.362H23.007v5.952a.939.939,0,0,1-1.878,0V12.362H9.859v5.952a.939.939,0,0,1-1.877,0V12.362H3.662ZM15.494,1.832A5.572,5.572,0,0,0,9.859,7.325v3.2H21.128v-3.2A5.571,5.571,0,0,0,15.494,1.832Z"/>
</svg>
