<svg id="noun_Phone_1979772_000000" xmlns="http://www.w3.org/2000/svg" width="9" height="11" viewBox="0 0 9 11">
  <path id="Path" d="M2.124,3.833C2.3,3.347,3.027,3.347,3.5,3a.572.572,0,0,0,.289-.451A7.956,7.956,0,0,0,3.208.257a.407.407,0,0,0-.4-.243A3.105,3.105,0,0,0,.824.673C-2.029,4.007,3.1,11.89,7.469,10.918A3.508,3.508,0,0,0,8.986,9.459a.609.609,0,0,0-.072-.451A8.467,8.467,0,0,0,7,7.514a.6.6,0,0,0-.542.035c-.542.278-.831.9-1.372.833C4.074,8.244,1.8,4.771,2.124,3.833Z" fill="#fcc623"/>
</svg>
