<svg xmlns="http://www.w3.org/2000/svg" width="25.093" height="22" viewBox="0 0 25.093 22">
  <g id="noun_1793298" transform="translate(-0.001)">
    <path id="Shape" d="M21.958,22H3.11a.621.621,0,0,1-.628-.611V8.553L.968,9.659a.639.639,0,0,1-.846-.153.6.6,0,0,1,.1-.831L12.164.118a.641.641,0,0,1,.741,0L24.842,8.675a.6.6,0,0,1,.131.85.632.632,0,0,1-.5.25.639.639,0,0,1-.371-.134L22.586,8.553V21.389A.621.621,0,0,1,21.958,22ZM9.392,12.22h6.283a.621.621,0,0,1,.628.611v7.946H21.33V7.673l-8.8-6.308-8.8,6.308v13.1H8.764V12.831A.621.621,0,0,1,9.392,12.22Zm.628,1.222v7.335h5.027V13.442Z" fill="#404040"/>
  </g>
</svg>
