<svg width="17" height="17" viewBox="0 0 17 17" fill="none" xmlns="http://www.w3.org/2000/svg">
<g id="noun_228208">
<path id="Path" fill-rule="evenodd" clip-rule="evenodd" d="M0.497512 7C0.199005 7 0 6.75352 0 6.45775V0.50939C0 0.197183 0.165837 0 0.464345 0H9.45274C9.75124 0 10 0.197183 10 0.50939V2.38263C10 2.6784 9.71808 2.92488 9.40298 2.92488C9.10448 2.92488 8.80597 2.6784 8.80597 2.38263V0.969484H0.978441V6.44131C0.978441 6.75352 0.79602 7 0.497512 7Z" fill="white"/>
<path id="Path_2" fill-rule="evenodd" clip-rule="evenodd" d="M9.40594 17H0.462046C0.165017 17 0 16.8087 0 16.5057V10.5262C0 10.2392 0.181518 10 0.49505 10C0.808581 10 0.990099 10.2392 0.990099 10.5262V16.0433H8.81188V13.7312C8.81188 13.4442 9.09241 13.205 9.40594 13.205C9.70297 13.205 10 13.4442 10 13.7312V16.5057C9.967 16.8087 9.71947 17 9.40594 17Z" fill="white"/>
<path id="Path_3" fill-rule="evenodd" clip-rule="evenodd" d="M9 12C8.47222 12 8 11.7507 8 11.4515V6.54848C8 6.24931 8.47222 6 9 6C9.5 6 10 6.24931 10 6.54848V11.4515C10 11.7507 9.52778 12 9 12Z" fill="white"/>
<path id="Path_4" fill-rule="evenodd" clip-rule="evenodd" d="M16.9346 17H8.61518C8.32378 17 8 16.8052 8 16.4968V13.6721C8 13.3799 8.27521 13.1364 8.5828 13.1364C8.8742 13.1364 9.1656 13.3799 9.1656 13.6721V16.026H15.4954V8.1526H9.1656V10.4091C9.1656 10.7175 8.89039 10.9448 8.5828 10.9448C8.2914 10.9448 8 10.7013 8 10.4091V7.58442C8 7.29221 8.30759 7 8.61518 7H15.9811C16.2725 7 16.4344 7.29221 16.4344 7.58442V16.4968C16.4506 16.8052 17.226 17 16.9346 17Z" fill="white"/>
</g>
</svg>
