<svg xmlns="http://www.w3.org/2000/svg" width="23.086" height="22" viewBox="0 0 23.086 22">
  <g id="noun_893224" transform="translate(0)">
    <path id="Path" d="M22.454,11.21H2.116V4.863C2.116,2.7,3.321.948,4.8.948h.134A2.007,2.007,0,0,1,6.52,1.91a2.924,2.924,0,0,0-2.1,2.646h5.9A2.932,2.932,0,0,0,7.577,1.8,3.077,3.077,0,0,0,4.935,0H4.8C2.79,0,1.154,2.181,1.154,4.863V11.21H.633a.623.623,0,1,0-.01,1.247H.6v3.449a4.439,4.439,0,0,0,4.42,4.407l-.953.77A.579.579,0,0,0,4.546,22a.592.592,0,0,0,.479-.243l1.441-1.443H16.922l1.441,1.443a.592.592,0,0,0,.479.243.58.58,0,0,0,.479-.917l-.974-.8a4.432,4.432,0,0,0,3.96-4.378V12.457h.148a.624.624,0,1,0,0-1.248Z" fill="#404040"/>
  </g>
</svg>
