<svg xmlns="http://www.w3.org/2000/svg" width="27.896" height="27.896" viewBox="0 0 27.896 27.896">
  <g id="linkedin" transform="translate(-0.055 -0.043)">
    <path id="Shape" d="M25.835,27.9H2.062A2.04,2.04,0,0,1,0,25.883V2.013A2.04,2.04,0,0,1,2.062,0H25.835A2.08,2.08,0,0,1,27.32.612,1.952,1.952,0,0,1,27.9,2.007V25.883A2.04,2.04,0,0,1,25.835,27.9ZM17.49,13.762c2.146,0,2.146,2.042,2.146,3.533v6.472h4.143v-7.3c0-3.295-.6-6.344-4.966-6.344A4.374,4.374,0,0,0,14.9,12.273h-.055V10.456H10.87v13.31h4.136V17.178C15.007,15.489,15.3,13.762,17.49,13.762ZM4.142,10.456v13.31H8.278V10.456ZM6.21,3.843a2.4,2.4,0,1,0,2.4,2.4A2.4,2.4,0,0,0,6.21,3.843Z" transform="translate(0.055 0.043)" fill="#d9d9d9"/>
  </g>
</svg>
