<svg id="Logo" xmlns="http://www.w3.org/2000/svg" xmlns:xlink="http://www.w3.org/1999/xlink" width="216" height="88" viewBox="0 0 216 88">
  <defs>
    <clipPath id="clip-path">
      <path id="Clip_2" data-name="Clip 2" d="M0,0H42.624V41.454H0Z" transform="translate(0.312 0.232)" fill="none"/>
    </clipPath>
    <clipPath id="clip-path-2">
      <path id="Clip_9" data-name="Clip 9" d="M0,0H43.8V40.644H0Z" transform="translate(0.072 0.232)" fill="none"/>
    </clipPath>
    <clipPath id="clip-path-3">
      <path id="Clip_18" data-name="Clip 18" d="M0,0H28.844V33.64H0Z" transform="translate(0 0.239)" fill="none"/>
    </clipPath>
  </defs>
  <g id="Group_3" data-name="Group 3" transform="translate(118)">
    <path id="Clip_2-2" data-name="Clip 2" d="M0,0H42.624V41.454H0Z" transform="translate(0.312 0.232)" fill="none"/>
    <g id="Group_3-2" data-name="Group 3" clip-path="url(#clip-path)">
      <path id="Fill_1" data-name="Fill 1" d="M21.243,41.454a21.776,21.776,0,0,1-11.208-2.988A20.168,20.168,0,0,1,.6,25.871a21.6,21.6,0,0,1-.425-7.837,19.817,19.817,0,0,1,2.506-7.461,20.326,20.326,0,0,1,6.268-6.8A21.368,21.368,0,0,1,17.7.286,23.9,23.9,0,0,1,21.381,0,21.8,21.8,0,0,1,32.162,2.744,20.166,20.166,0,0,1,41.938,15.26a20.92,20.92,0,0,1-2,15.63,21.03,21.03,0,0,1-13.7,10.026A23.42,23.42,0,0,1,21.243,41.454Zm.011-29.634h0A7.959,7.959,0,0,0,18.8,12.2a8.1,8.1,0,0,0-5,4.94,9.86,9.86,0,0,0,1.884,10.073,7.691,7.691,0,0,0,5.58,2.419c.141,0,.284,0,.425-.012a7.9,7.9,0,0,0,6.69-4.322,9.767,9.767,0,0,0-1.986-11.589,7.715,7.715,0,0,0-5.14-1.89Z" transform="translate(0.312 0.231)" fill="#1e1e1e"/>
    </g>
  </g>
  <path id="Fill_4" data-name="Fill 4" d="M0,0Q6.819,0,13.633,0,17.823,7.188,22,14.384,26.181,7.2,30.35.01C34.9-.009,39.449.006,44,0Q44,20.5,44,41q-6.51.006-13.024,0c-.008-6.761,0-13.521-.008-20.282-3.048,4.881-5.994,9.825-9.092,14.676-3.056-4.873-6.036-9.8-9.072-14.679Q12.8,30.854,12.8,41q-6.4,0-12.8,0Z" transform="translate(19)" fill="#1e1e1e"/>
  <path id="Fill_6" data-name="Fill 6" d="M0,0Q6.5,0,13,0V41H0Z" fill="#1e1e1e"/>
  <g id="Group_10" data-name="Group 10" transform="translate(68)">
    <path id="Clip_9-2" data-name="Clip 9" d="M0,0H43.8V40.644H0Z" transform="translate(0.072 0.232)" fill="none"/>
    <g id="Group_10-2" data-name="Group 10" clip-path="url(#clip-path-2)">
      <path id="Fill_8" data-name="Fill 8" d="M0,40.642Q0,20.325,0,0,6.786.006,13.572,0q4.171,7.123,8.33,14.257Q26.072,7.132,30.232,0,37.014,0,43.8,0q-.006,20.323,0,40.638-6.486,0-12.969,0,0-10.058,0-20.112c-3.027,4.842-5.978,9.732-9.039,14.551-3.069-4.816-6.012-9.706-9.043-14.544-.011,6.7,0,13.4-.008,20.1Z" transform="translate(0.072 0.232)" fill="#1e1e1e"/>
    </g>
  </g>
  <path id="Fill_11" data-name="Fill 11" d="M.012.009C6.009-.009,12,.006,18,0c0,2.331,0,4.661,0,6.992Q9,7,.012,6.99-.012,3.5.012.009" transform="translate(197 8)" fill="#1e1e1e"/>
  <path id="Fill_13" data-name="Fill 13" d="M9.528,1.771A20.154,20.154,0,0,1,30.974,4.918Q27.992,8.582,25,12.246a11.057,11.057,0,0,0-7.056-2.818,6.974,6.974,0,0,0-6.6,4.528c-1.348,3.563-.414,8.3,3.227,10.269a9,9,0,0,0,7.417.238c.015-1.156.015-2.313.019-3.469H16.55q-.006-3.436,0-6.873,7.72-.011,15.448,0,0,7.528,0,15.05a21.915,21.915,0,0,1-13.656,4.824c-5.508.166-11.179-2.016-14.616-6.229A17.313,17.313,0,0,1,.8,11.707,16.39,16.39,0,0,1,9.528,1.771" transform="translate(93 54)" fill="#1e1e1e"/>
  <path id="Fill_15" data-name="Fill 15" d="M13.977.274A17.637,17.637,0,0,1,26.458,2.6a16.614,16.614,0,0,1,5.314,5.858c-2.961,1.756-5.93,3.5-8.888,5.255a8.51,8.51,0,0,0-3.091-3.339,5.941,5.941,0,0,0-6.581.882,8.531,8.531,0,0,0-1.9,8.287A6.124,6.124,0,0,0,15.419,24a6.573,6.573,0,0,0,4.373-.358,9.417,9.417,0,0,0,3.32-3.5Q27.554,22.67,32,25.21a16.456,16.456,0,0,1-8.028,7.42A18.219,18.219,0,0,1,8,31.614,16.508,16.508,0,0,1,.4,20.975,17.935,17.935,0,0,1,2.489,7.953,16.749,16.749,0,0,1,13.977.274" transform="translate(145 54)" fill="#1e1e1e"/>
  <g id="Group_19" data-name="Group 19" transform="translate(0 54)">
    <path id="Clip_18-2" data-name="Clip 18" d="M0,0H28.844V33.64H0Z" transform="translate(0 0.239)" fill="none"/>
    <g id="Group_19-2" data-name="Group 19" clip-path="url(#clip-path-3)">
      <path id="Fill_17" data-name="Fill 17" d="M9.763,33.64H0C0,22.425,0,11.025,0,0H17.487C20.806.014,23.3.739,25.1,2.219A7.736,7.736,0,0,1,27.86,8.481,7.529,7.529,0,0,1,25.006,14.5a12.439,12.439,0,0,1-2.572,1.48l-.023.011c3.173,1.12,5.166,2.779,5.923,4.928a10.713,10.713,0,0,1,.416,4.689,8.452,8.452,0,0,1-1.816,4.285c-2.6,3.094-6.779,3.744-9.827,3.744h-.022C14.945,33.638,12.619,33.64,9.763,33.64Zm1.184-8.431c.441,0,.884.006,1.275.011h.092c.392.006.877.013,1.337.013a24.4,24.4,0,0,0,2.56-.111,2.452,2.452,0,0,0,2.306-2.354,2.411,2.411,0,0,0-2.183-2.481,23.4,23.4,0,0,0-2.583-.118c-.449,0-.9.007-1.328.014l-.107,0h-.063c-.4.006-.907.014-1.385.014-.306,0-.585,0-.851-.01V25.22C10.319,25.212,10.624,25.209,10.947,25.209Zm-.008-12.155c.424,0,.862.012,1.247.022h.041c.374.01.838.023,1.28.023a10.8,10.8,0,0,0,2.947-.338,1.939,1.939,0,0,0,1.268-1.988,1.9,1.9,0,0,0-1.366-1.894,10.849,10.849,0,0,0-2.8-.306c-.43,0-.868.013-1.291.025H12.2c-.411.012-.876.027-1.328.027-.32,0-.6-.006-.854-.02v4.469C10.3,13.062,10.6,13.055,10.939,13.055Z" transform="translate(0 0.239)" fill="#1e1e1e"/>
    </g>
  </g>
  <path id="Fill_20" data-name="Fill 20" d="M0,0Q13.388,0,26.781,0q-.006,4.628,0,9.26-8.224.006-16.448,0v3.573c5.109,0,10.217,0,15.33,0,0,2.708,0,5.415,0,8.127q-7.663.006-15.326,0v3.758c5.557.008,11.114,0,16.671.008q0,4.628,0,9.26H0Q0,17,0,0" transform="translate(34 54)" fill="#1e1e1e"/>
  <path id="Fill_22" data-name="Fill 22" d="M0,0Q5.2-.007,10.4,0V24.354c4.865.008,9.731,0,14.6,0V34Q12.5,34,0,34,0,17,0,0" transform="translate(66 54)" fill="#1e1e1e"/>
  <path id="Fill_24" data-name="Fill 24" d="M0,34H11V0H0Z" transform="translate(130 54)" fill="#1e1e1e"/>
  <path id="Fill_26" data-name="Fill 26" d="M5.479,34C3.27,34,1.581,34,0,34c1.8-4.73,3.623-9.536,5.392-14.19l.077-.2C7.91,13.181,10.434,6.542,12.911.007,14.4,0,15.86,0,17.226,0h2.926l2.933,0c2.922,7.676,5.888,15.484,8.755,23.036l.018.049.1.261Q33.979,28.667,36,33.988H30.429c-2.245,0-3.963,0-5.569,0-.36-1.017-.73-2.046-1.088-3.04l0-.012q-.259-.72-.517-1.439H16.9c-1.628,0-2.995,0-4.377,0-.381,1.107-.775,2.231-1.155,3.318l0,.006L10.958,34H5.479ZM17.915,13.241c-.693,2-1.388,4.039-2.059,6.01l-.02.059L15.122,21.4c.817,0,1.7,0,2.79,0l2.793,0L19.87,18.96l0-.012c-.638-1.871-1.3-3.806-1.951-5.707Z" transform="translate(180 54)" fill="#1e1e1e"/>
  <path id="Fill_45" data-name="Fill 45" d="M0,0C6,.008,12-.011,17.994.011c0,2.325.016,4.654-.008,6.979C11.993,7.009,6,6.994,0,7Z" transform="translate(177 19)" fill="#fcc623"/>
  <path id="Fill_46" data-name="Fill 46" d="M.016,6.993C-.011,4.665,0,2.336,0,.008,6-.007,12,0,18,0q-.006,3.5,0,7c-6,0-11.992.011-17.984,0" transform="translate(197 19)" fill="#fcc623"/>
  <path id="Fill_47" data-name="Fill 47" d="M0,0C6,0,11.995-.007,17.99.008c.02,2.325,0,4.654.008,6.98C12,7.01,6,6.995,0,7Q0,3.5,0,0" transform="translate(177 8)" fill="#db1918"/>
  <path id="Fill_48" data-name="Fill 48" d="M0,0C6,.006,12-.009,17.991.009c.016,2.325.008,4.654,0,6.983C12,7.007,6,7,0,7Q0,3.5,0,0" transform="translate(177 30)" fill="#db1918"/>
  <path id="Fill_49" data-name="Fill 49" d="M.011.005C6.007-.006,12,.005,18,0V7C12,7,6,7.007.007,6.992,0,4.663-.005,2.334.011.005" transform="translate(197 30)" fill="#db1918"/>
</svg>
