<svg width="14" height="17" viewBox="0 0 14 17" fill="none" xmlns="http://www.w3.org/2000/svg">
<g id="pdf">
<path id="Shape" fill-rule="evenodd" clip-rule="evenodd" d="M13.8177 4.32589C13.6962 4.02232 13.5503 3.78199 13.3802 3.60491L10.5365 0.645089C10.3663 0.468006 10.1354 0.31622 9.84375 0.189732C9.55208 0.0632441 9.28472 0 9.04167 0H0.875C0.631944 0 0.425347 0.0885417 0.255208 0.265625C0.0850694 0.442708 0 0.657738 0 0.910714V16.0893C0 16.3423 0.0850694 16.5573 0.255208 16.7344C0.425347 16.9115 0.631944 17 0.875 17H13.125C13.3681 17 13.5747 16.9115 13.7448 16.7344C13.9149 16.5573 14 16.3423 14 16.0893V5.16071C14 4.90774 13.9392 4.62946 13.8177 4.32589ZM9.33333 4.85714V1.29018C9.50955 1.35342 9.63411 1.42299 9.70703 1.49888L12.5599 4.46819C12.6328 4.54408 12.6997 4.67374 12.7604 4.85714H9.33333ZM12.8333 15.7857V6.07143H9.04167C8.79861 6.07143 8.59201 5.98289 8.42188 5.8058C8.25174 5.62872 8.16667 5.41369 8.16667 5.16071V1.21429H1.16667V15.7857H12.8333ZM8.91406 10.6914C8.60417 10.5017 8.34896 10.3246 8.14844 10.1602C7.59549 9.69215 7.15191 8.93955 6.81771 7.90234C6.89062 7.46596 6.93316 6.85882 6.94531 6.08092V5.79632C6.94531 5.7647 6.94227 5.7394 6.9362 5.72042C6.94835 5.70778 6.9605 5.68248 6.97266 5.64453C7.02734 5.34728 7 5.13225 6.89062 4.99944C6.81771 4.90458 6.71137 4.85714 6.57161 4.85714H6.37109C6.18273 4.85714 6.05512 4.98363 5.98828 5.23661C5.90929 5.55283 5.88954 5.95601 5.92904 6.44615C5.96853 6.93629 6.0612 7.44066 6.20703 7.95926C5.98828 8.75614 5.67231 9.58464 5.25911 10.4448C4.92491 11.1531 4.59983 11.776 4.28385 12.3136C4.28385 12.301 4.27778 12.2883 4.26562 12.2757C4.21094 12.1808 4.14106 12.1618 4.05599 12.2188C3.5395 12.5033 3.13845 12.8085 2.85286 13.1342C2.56727 13.4599 2.39714 13.7493 2.34245 14.0022C2.31814 14.1667 2.33637 14.2805 2.39714 14.3438C2.42752 14.369 2.44575 14.3849 2.45182 14.3912L2.67057 14.505C2.74957 14.5493 2.83464 14.5714 2.92578 14.5714C3.46658 14.5714 4.20182 13.7429 5.13151 12.0859C6.17057 11.7128 7.36155 11.4503 8.70443 11.2985C9.08724 11.5073 9.4822 11.6749 9.88932 11.8013C10.2964 11.9278 10.6458 11.9911 10.9375 11.9911C11.3325 11.9911 11.5482 11.8709 11.5846 11.6306V11.6211L11.6029 11.6021C11.6089 11.5958 11.612 11.5895 11.612 11.5831C11.697 11.3934 11.691 11.229 11.5938 11.0898C11.4115 10.7799 10.8737 10.625 9.98047 10.625C9.62804 10.625 9.27257 10.6471 8.91406 10.6914ZM2.89844 14.0592C3.21441 13.9074 3.63064 13.4077 4.14714 12.5603C3.83724 12.8132 3.5714 13.0789 3.34961 13.3571C3.12782 13.6354 2.97743 13.8694 2.89844 14.0592ZM6.50781 6.5837C6.42882 6.01451 6.4349 5.5971 6.52604 5.33147V5.3125C6.53212 5.30618 6.53516 5.29985 6.53516 5.29353C6.60807 5.38207 6.64757 5.49591 6.65365 5.63504C6.65365 5.64137 6.65516 5.64611 6.6582 5.64927C6.66124 5.65244 6.66276 5.65718 6.66276 5.6635C6.66276 5.66983 6.6658 5.67615 6.67188 5.68248C6.65365 5.70778 6.64149 5.73307 6.63542 5.75837C6.59288 6.01135 6.57161 6.14732 6.57161 6.16629C6.53516 6.4003 6.51389 6.53943 6.50781 6.5837ZM7.98438 10.8337C7.97222 10.8274 7.93273 10.7973 7.86589 10.7436C7.79905 10.6898 7.75043 10.6471 7.72005 10.6155C7.25825 10.1918 6.8724 9.63523 6.5625 8.94587C6.39844 9.48977 6.14627 10.1127 5.80599 10.8147C5.6237 11.1689 5.48698 11.4314 5.39583 11.6021C6.21615 11.2606 7.07899 11.0045 7.98438 10.8337ZM10.0078 11.2227C10.7127 11.2227 11.138 11.2985 11.2839 11.4503C11.296 11.463 11.3021 11.4725 11.3021 11.4788C11.2778 11.4851 11.2231 11.4883 11.138 11.4883C10.8464 11.4883 10.4696 11.3997 10.0078 11.2227Z" fill="white"/>
</g>
</svg>
