<svg width="26" height="22" viewBox="0 0 26 22" fill="none" xmlns="http://www.w3.org/2000/svg">
<g id="noun_1793298">
<path id="Shape" fill-rule="evenodd" clip-rule="evenodd" d="M24.8416 8.67504L12.9045 0.117722C12.6837 -0.0392407 12.3839 -0.0392407 12.1631 0.117722L0.226069 8.67504C-0.0288175 8.8817 -0.0745874 9.24556 0.121553 9.50592C0.317693 9.76628 0.688119 9.83337 0.967424 9.65913L2.48155 8.55279V21.3888C2.48155 21.7263 2.76283 22 3.10982 22H21.9578C22.3048 22 22.5861 21.7263 22.5861 21.3888V8.55279L24.1002 9.64079C24.2057 9.72328 24.3357 9.77044 24.4709 9.77526C24.6698 9.77383 24.8562 9.68088 24.9735 9.52466C25.1761 9.25408 25.1173 8.87532 24.8416 8.67504ZM10.0208 20.7775V13.4427H15.0469V20.7775H10.0208ZM16.3034 20.7775H21.3296V7.67261L12.5338 1.36465L3.73808 7.67261V20.7775H8.76422V12.8314C8.76422 12.4939 9.04551 12.2202 9.39249 12.2202H15.6752C16.0221 12.2202 16.3034 12.4939 16.3034 12.8314V20.7775Z" fill="#404040"/>
</g>
</svg>
