<svg width="24" height="22" viewBox="0 0 24 22" fill="none" xmlns="http://www.w3.org/2000/svg">
<g id="noun_893224">
<path id="Path" fill-rule="evenodd" clip-rule="evenodd" d="M22.8559 11.2096H2.51857V4.86257C2.51857 2.70427 3.72301 0.948231 5.20354 0.948231H5.33718C5.93402 0.948231 6.50249 1.31193 6.9227 1.91004C5.75271 2.25826 4.89024 3.30319 4.82741 4.55564H10.7272C10.6531 3.08046 9.46879 1.89565 7.97971 1.79596C7.3859 0.68666 6.41514 0 5.33718 0H5.20354C3.19257 0 1.55663 2.18139 1.55663 4.86257V11.2096H1.03528C0.68561 11.2096 0.402344 11.4888 0.402344 11.8335C0.402344 12.1746 0.68065 12.4511 1.02536 12.4563H1.00249V15.9056C1.00249 18.3233 2.97681 20.2842 5.4226 20.3124L4.46947 21.0827C4.19089 21.4665 4.4692 22 4.9481 22C5.13796 22 5.31624 21.9096 5.42674 21.7574L6.86759 20.3149H17.3239L18.7648 21.7574C18.8753 21.9096 19.0535 22 19.2434 22C19.722 22 20.0003 21.4665 19.722 21.0827L18.748 20.2836C20.9761 20.0321 22.7076 18.169 22.7076 15.9054V12.4574H22.8559C23.2055 12.4574 23.4888 12.1782 23.4888 11.8335C23.4888 11.4888 23.2053 11.2096 22.8559 11.2096Z" fill="#404040"/>
</g>
</svg>
