<svg width="21" height="18" viewBox="0 0 21 18" fill="none" xmlns="http://www.w3.org/2000/svg">
<path id="Path" fill-rule="evenodd" clip-rule="evenodd" d="M18.8035 4.45392C18.8094 4.64784 18.8154 4.84176 18.8154 5.03568C18.8154 11.0097 14.4908 17.897 6.58509 17.897C4.15806 17.897 1.8976 17.1463 0 15.864C0.33907 15.9078 0.678139 15.9265 1.02316 15.9265C3.03378 15.9265 4.88974 15.2071 6.35904 13.9936C4.47929 13.956 2.89101 12.6486 2.34374 10.8533C2.60548 10.9033 2.87317 10.9346 3.15275 10.9346C3.54536 10.9346 3.92607 10.8783 4.28298 10.7782C2.314 10.3654 0.832802 8.53877 0.832802 6.34934C0.832802 6.33057 0.832802 6.31181 0.832802 6.29304C1.40982 6.63084 2.07606 6.83727 2.77799 6.85604C1.62396 6.04282 0.868494 4.66035 0.868494 3.09648C0.868494 2.27075 1.08264 1.48881 1.45146 0.825727C3.56915 3.55938 6.73975 5.36097 10.3089 5.54863C10.2375 5.21709 10.1959 4.87304 10.1959 4.51648C10.1959 2.02053 12.1173 0 14.4908 0C15.7281 0 16.8464 0.550485 17.6257 1.42626C18.6072 1.22608 19.5233 0.844493 20.3561 0.331542C20.0348 1.38872 19.3567 2.27075 18.4644 2.83374C19.3329 2.7274 20.1598 2.48344 20.9331 2.12062C20.368 3.02141 19.6422 3.81586 18.8035 4.45392Z" fill="white"/>
</svg>
