<svg width="19" height="13" viewBox="0 0 19 13" fill="none" xmlns="http://www.w3.org/2000/svg">
<path id="&#237;&#175;&#128;" fill-rule="evenodd" clip-rule="evenodd" d="M11.0273 12.7812C12.8633 12.7812 13.9414 11.7188 13.9414 9.89844V8.92969L16.6914 11.2578C17.0039 11.5156 17.3477 11.6953 17.668 11.6953C18.3164 11.6953 18.7617 11.2109 18.7617 10.5078V2.84375C18.7617 2.14062 18.3164 1.65625 17.668 1.65625C17.3477 1.65625 17.0039 1.83594 16.6914 2.09375L13.9414 4.42188V3.4375C13.9414 1.61719 12.8633 0.5625 11.0273 0.5625H3.31641C1.55859 0.5625 0.394531 1.61719 0.394531 3.4375V9.91406C0.394531 11.7344 1.48047 12.7812 3.31641 12.7812H11.0273ZM10.8086 11.5938H3.53516C2.34766 11.5938 1.66797 10.9688 1.66797 9.71094V3.625C1.66797 2.36719 2.34766 1.74219 3.53516 1.74219H10.8086C11.9961 1.74219 12.6758 2.36719 12.6758 3.625V9.71094C12.6758 10.9688 11.9961 11.5938 10.8086 11.5938ZM17.2746 10.199C17.33 10.2368 17.3721 10.2656 17.4258 10.2656C17.5117 10.2656 17.5508 10.1953 17.5508 10.0938V3.25781C17.5508 3.15625 17.5117 3.08594 17.4258 3.08594C17.3633 3.08594 17.3164 3.11719 17.2461 3.17188L13.9414 5.89062V7.46094L17.2461 10.1797C17.256 10.1863 17.2655 10.1928 17.2746 10.199Z" fill="white"/>
</svg>
