<svg id="noun_bin_1412942_000000" xmlns="http://www.w3.org/2000/svg" width="17" height="21" viewBox="0 0 17 21">
  <path id="Path" d="M13.47.734,12.9,15.991a.515.515,0,0,1-.5.484H2.6a.516.516,0,0,1-.5-.484L1.53.734A.765.765,0,0,0,0,.791L.568,16.047A2.044,2.044,0,0,0,2.6,18h9.8a2.043,2.043,0,0,0,2.035-1.953L15,.791A.765.765,0,0,0,13.47.734Z" transform="translate(1 3)" fill="#616161"/>
  <path id="Path-2" data-name="Path" d="M0,.579v9.842A.544.544,0,0,0,.5,11a.544.544,0,0,0,.5-.579V.579A.544.544,0,0,0,.5,0,.544.544,0,0,0,0,.579Z" transform="translate(8 6)" fill="#616161"/>
  <path id="Path-3" data-name="Path" d="M0,.6l.4,9.842c.013.32.382.571.823.562s.789-.276.776-.6L1.6.562C1.587.242,1.218-.009.776,0S-.013.276,0,.6Z" transform="translate(4 6)" fill="#616161"/>
  <path id="Path-4" data-name="Path" d="M.4.562,0,10.4c-.013.32.334.586.776.6s.81-.242.823-.562L2,.6C2.013.276,1.665.01,1.224,0S.413.242.4.562Z" transform="translate(11 6)" fill="#616161"/>
  <path id="Path-5" data-name="Path" d="M.773,2H16.227A.909.909,0,0,0,17,1a.909.909,0,0,0-.773-1H.773A.909.909,0,0,0,0,1,.909.909,0,0,0,.773,2Z" transform="translate(0 3)" fill="#616161"/>
  <path id="Path-6" data-name="Path" d="M1.357,3,1.65,1.927a.688.688,0,0,1,.578-.454H4.772a.688.688,0,0,1,.578.454L5.643,3,7,2.6,6.706,1.522A2.1,2.1,0,0,0,4.772,0H2.228A2.1,2.1,0,0,0,.294,1.522L0,2.6Z" transform="translate(5)" fill="#616161"/>
</svg>
