<svg id="noun_location_marker_654004_000000" data-name="noun_location marker_654004_000000" xmlns="http://www.w3.org/2000/svg" width="11" height="16" viewBox="0 0 11 16">
  <path id="Shape" d="M5.5,16h0A39.345,39.345,0,0,1,2.75,12.111C1.5,10.083,0,7.185,0,4.889,0,2.193,2.467,0,5.5,0S11,2.193,11,4.889c0,2.181-1.5,5.086-2.75,7.139A43.34,43.34,0,0,1,5.5,16Zm0-13.334A2.376,2.376,0,0,0,3,4.889,2.376,2.376,0,0,0,5.5,7.111,2.376,2.376,0,0,0,8,4.889,2.376,2.376,0,0,0,5.5,2.667Z" fill="#dc5858"/>
</svg>
