<svg id="noun_delivery_1838952" xmlns="http://www.w3.org/2000/svg" width="48" height="23" viewBox="0 0 48 23">
  <path id="Shape" d="M44.445,23H8.466a4.555,4.555,0,0,1-4.49-3.694H0V10.689L5.869,2.612H16.934V19.274H12.963a4.461,4.461,0,0,1-.99,2.079H29.065a4.461,4.461,0,0,1-.99-2.079H18.553V0h23.48V5.514h2.138V7.13H42.033v3.7H48v1.616H42.033v3.091h4.321v1.615H42.033v2.155H37.061a4.471,4.471,0,0,1-.99,2.079h8.374V23ZM32.4,15.863a2.776,2.776,0,1,0,2.425,4.163,2.762,2.762,0,0,0,0-2.776A2.81,2.81,0,0,0,32.4,15.863Zm-24,0a2.794,2.794,0,0,0-1.975.807A2.75,2.75,0,0,0,5.811,19.7,2.8,2.8,0,1,0,8.4,15.863Zm23.792-2.024h.647l.325.059.163.038.249.064.162.053.233.085.163.069.221.106.152.08.217.128.135.085.217.159.108.085c.12.1.212.181.3.266.1.1.19.2.271.292l.086.106c.053.068.108.139.163.213l.086.133.108.207.081.149.109.218.07.16c.009.019.019.039.029.06a.406.406,0,0,1,.058.169l.055.165a.739.739,0,0,1,.024.106.364.364,0,0,0,.041.138.255.255,0,0,1,.038.16v.053H40V12.3H26.006V10.7H40V7.037H28.714V5.44H40V1.586H20V17.443h7.8v-.027a4.391,4.391,0,0,1,.152-.563L28,16.725a4.334,4.334,0,0,1,.217-.5l.027-.059a4.291,4.291,0,0,1,.319-.5l.086-.112a4.353,4.353,0,0,1,3.544-1.72Zm-24.37-.053H8.988l.289.043.164.038.25.065.169.054.234.086.164.07.223.108.153.08.212.13.141.092.218.162.109.07c.092.074.186.159.289.258l.044.054c.087.091.173.186.256.281l.093.113c.059.074.11.143.158.21l.093.14.13.211.082.157.1.215.07.162c.009.021.02.041.031.062l0,.005,0,0a.367.367,0,0,1,.052.154l.055.167a.779.779,0,0,1,.022.1l0,.01a.4.4,0,0,0,.041.141.277.277,0,0,1,.039.167v.054H15.2V3.965H11.25v7.55H1.6v5.933H3.927v-.054a.124.124,0,0,0,.026-.079.355.355,0,0,1,.012-.077c.007-.026.015-.051.022-.073l.005-.017a.506.506,0,0,0,.038-.163l.054-.162.01-.026c0-.01.006-.019.01-.029l0-.008.005-.014,0-.013c.017-.048.035-.1.055-.143l.071-.162c.028-.065.062-.133.109-.22l.082-.151.131-.211.093-.14c.051-.07.1-.137.164-.215l.087-.113a3.451,3.451,0,0,1,.256-.281l.039-.038c.1-.094.193-.178.288-.258l.115-.086.218-.162.141-.092.212-.13.153-.08.223-.108.164-.07.234-.086.169-.054.25-.065.164-.038.289-.043ZM6.653,4.758,2.4,10.31H9.6V4.758Z" fill="#333"/>
</svg>
