<svg xmlns="http://www.w3.org/2000/svg" width="31.865" height="42.486" viewBox="0 0 31.865 42.486">
  <g id="bag-black-fashion-model" transform="translate(-60.651)">
    <path id="Path_28" data-name="Path 28" d="M87.2,14.6C87.2,6.55,82.441,0,76.583,0S65.962,6.55,65.962,14.6H60.651V42.486H92.516V14.6ZM67.289,19.915a1.328,1.328,0,1,1,1.328-1.328A1.327,1.327,0,0,1,67.289,19.915Zm9.294-17.26c4.393,0,7.966,5.36,7.966,11.949H68.617C68.617,8.016,72.191,2.655,76.583,2.655Zm9.294,17.26A1.328,1.328,0,1,1,87.2,18.588,1.327,1.327,0,0,1,85.877,19.915Z" fill="#fff"/>
  </g>
</svg>
