<svg xmlns="http://www.w3.org/2000/svg" width="231" height="164.484" viewBox="0 0 231 164.484">
  <g id="Group_5" data-name="Group 5" transform="translate(-510 21)">
    <g id="Logo_RightBrains_FC" data-name="Logo RightBrains FC" transform="translate(510 -21)">
      <g id="Group_2" data-name="Group 2" transform="translate(0 67.642)">
        <path id="Path_3" data-name="Path 3" d="M353.393,316.677V293.043a2.752,2.752,0,0,1,2.762-2.764h10.054q4.3,0,6.369,1.842a8.321,8.321,0,0,1,1.073,9.67,5.236,5.236,0,0,1-2.915,2.225,4.28,4.28,0,0,1,2.456,1.842,9.107,9.107,0,0,1,.844,3.915l.155,3.145v1a6.2,6.2,0,0,0,.075,1,2.324,2.324,0,0,0,.922,1.764H369.2a4.435,4.435,0,0,1-.459-1.611,16.2,16.2,0,0,1-.155-1.687l-.077-2.841a6.2,6.2,0,0,0-.92-3.3,4.182,4.182,0,0,0-2.993-.845h-5.755v10.283Zm5.449-14.886h6.369a4.673,4.673,0,0,0,3.07-.845,3.908,3.908,0,0,0,0-5.218,3.754,3.754,0,0,0-2.763-.92h-6.675Z" transform="translate(-353.393 -290.279)" fill="#fff"/>
        <path id="Path_4" data-name="Path 4" d="M370.839,290.279H373.6a2.619,2.619,0,0,1,2.609,2.609V294.5h-5.372Zm0,5.986H373.6a2.619,2.619,0,0,1,2.609,2.609v17.8h-5.372Z" transform="translate(-345.153 -290.279)" fill="#fff"/>
        <path id="Path_5" data-name="Path 5" d="M390.435,313.677v-1.3a5.874,5.874,0,0,1-3.723,2.687,7.622,7.622,0,0,1-4.642-.384,8.593,8.593,0,0,1-3.952-3.416,11.69,11.69,0,0,1-1.65-6.561,12.637,12.637,0,0,1,2.188-7.712q2.186-2.953,7.021-2.955a12.521,12.521,0,0,1,6.83,1.995q3.145,2,3.146,7.367v10.82q0,5.371-3.146,7.331a12.721,12.721,0,0,1-6.83,1.955q-7.063,0-8.748-6.6h5.6a4.284,4.284,0,0,0,4.412,1.958,4.172,4.172,0,0,0,2.3-1.5A6.236,6.236,0,0,0,390.435,313.677Zm-8.75-8.825q0,5.3,3.07,5.871t4.527-1.421a5.709,5.709,0,0,0,1-2.647,11.121,11.121,0,0,0,.038-3.567,7.15,7.15,0,0,0-1.266-3.148,3.372,3.372,0,0,0-2.915-1.381,3.539,3.539,0,0,0-3.531,1.918A9.994,9.994,0,0,0,381.685,304.852Z" transform="translate(-342.495 -288.506)" fill="#fff"/>
        <path id="Path_6" data-name="Path 6" d="M404.54,302.021a3.664,3.664,0,0,0-3.148-1.612,3.878,3.878,0,0,0-3.3,1.536,6.9,6.9,0,0,0-1.15,4.22v10.514h-5.219v-26.4h2.609a2.622,2.622,0,0,1,2.61,2.609v6.063a6.085,6.085,0,0,1,3.913-2.915,7.778,7.778,0,0,1,4.834.306,8.63,8.63,0,0,1,3.607,2.915,9.221,9.221,0,0,1,1.459,5.527v11.893h-5.143V306.089a10.885,10.885,0,0,0-.191-2.111A5.3,5.3,0,0,0,404.54,302.021Z" transform="translate(-335.289 -290.279)" fill="#fff"/>
        <path id="Path_7" data-name="Path 7" d="M415.2,316.677a39.517,39.517,0,0,1-5.486-.077q-2.957-.23-2.955-3.76V290.279h2.762a2.438,2.438,0,0,1,1.765.767,2.517,2.517,0,0,1,.767,1.842v3.454H415.2v1.075a2.48,2.48,0,0,1-.767,1.88,2.583,2.583,0,0,1-1.842.729h-.537v11.357q0,1.305,1.536,1.3H415.2Z" transform="translate(-328.188 -290.279)" fill="#fff"/>
        <path id="Path_8" data-name="Path 8" d="M415.476,316.677V293.043a2.752,2.752,0,0,1,2.762-2.764h9.67a9.9,9.9,0,0,1,6.216,1.689,6.241,6.241,0,0,1,2.15,4.988,6.344,6.344,0,0,1-.847,3.376,5.9,5.9,0,0,1-2.378,2.073,6.923,6.923,0,0,1,3.068,2.379,6.678,6.678,0,0,1,1,3.835,7.536,7.536,0,0,1-2.456,5.988q-2.533,2.069-7.138,2.07Zm5.218-16.192h6.216a4.9,4.9,0,0,0,2.917-.69,2.967,2.967,0,0,0,0-4.3,5.109,5.109,0,0,0-2.995-.614h-6.138Zm0,11.435h6.446a5.514,5.514,0,0,0,3.3-.845,2.982,2.982,0,0,0,1.073-2.607,3.207,3.207,0,0,0-1.073-2.686,5.661,5.661,0,0,0-3.377-.769h-6.369Z" transform="translate(-324.072 -290.279)" fill="#fff"/>
        <path id="Path_9" data-name="Path 9" d="M431.972,314.757v-9.9a12.652,12.652,0,0,1,.882-5.026,8.346,8.346,0,0,1,2.418-3.263,9.519,9.519,0,0,1,3.414-1.689,15.24,15.24,0,0,1,4.03-.536h.767v5.448h-1.765a4.494,4.494,0,0,0-3.3,1.075,4.61,4.61,0,0,0-1.075,3.376v10.514Z" transform="translate(-316.281 -288.359)" fill="#fff"/>
        <path id="Path_10" data-name="Path 10" d="M453.883,314.063a9.48,9.48,0,0,1-3.417,1.035,30.881,30.881,0,0,1-3.185.193,8.037,8.037,0,0,1-4.834-1.5q-2.072-1.5-2.072-4.948,0-3.222,1.879-4.6a10.845,10.845,0,0,1,4.8-1.843,4.426,4.426,0,0,0,.922-.115c.356-.077.769-.14,1.228-.191q3.375-.459,3.376-1.995a1.454,1.454,0,0,0-1.19-1.5,7.912,7.912,0,0,0-2.186-.345,5.637,5.637,0,0,0-1.92.306,2.1,2.1,0,0,0-1.228,1.151h-5.141a5.913,5.913,0,0,1,2.15-3.913,8.863,8.863,0,0,1,5.91-1.765q4.3,0,6.446,1.459a4.922,4.922,0,0,1,2.225,4.3v6.985a8.816,8.816,0,0,1-1.112,4.794A6.807,6.807,0,0,1,453.883,314.063Zm-1.228-9.44a14.522,14.522,0,0,1-2.993,1L447.9,306a4.532,4.532,0,0,0-1.994,1,3.115,3.115,0,0,0-.537,1.687,2.489,2.489,0,0,0,.689,1.842,2.9,2.9,0,0,0,2,.614,4.248,4.248,0,0,0,4.605-4.605Z" transform="translate(-312.311 -288.506)" fill="#fff"/>
        <path id="Path_11" data-name="Path 11" d="M454.538,290.279H457.3a2.617,2.617,0,0,1,2.607,2.609V294.5h-5.371Zm0,5.986H457.3a2.617,2.617,0,0,1,2.607,2.609v17.8h-5.371Z" transform="translate(-305.623 -290.279)" fill="#fff"/>
        <path id="Path_12" data-name="Path 12" d="M478.282,314.9H475.6a2.495,2.495,0,0,1-2.609-2.607V301.86a3.162,3.162,0,0,0-1.113-2.687,4.029,4.029,0,0,0-2.5-.844,3.871,3.871,0,0,0-2.456.844,3.212,3.212,0,0,0-1.073,2.687V314.9h-5.372V302.933q0-5.216,2.725-6.983a11.9,11.9,0,0,1,6.025-1.918,11.56,11.56,0,0,1,6.216,1.765q2.838,1.767,2.839,7.136Z" transform="translate(-302.817 -288.506)" fill="#fff"/>
        <path id="Path_13" data-name="Path 13" d="M474.434,308.153h5.216a2.822,2.822,0,0,0,1.153,2.3,5.448,5.448,0,0,0,3.07.767,4.953,4.953,0,0,0,2.378-.536,1.632,1.632,0,0,0,.922-1.458q0-1.383-3.224-2.073a14.94,14.94,0,0,1-2.071-.459q-4.068-1-5.449-2.379a4.715,4.715,0,0,1-1.534-3.684,6.108,6.108,0,0,1,2.226-4.835,9.566,9.566,0,0,1,5.985-1.765,10.451,10.451,0,0,1,6.369,1.765,6.761,6.761,0,0,1,2.381,4.988h-3.3a2.435,2.435,0,0,1-2.225-1.3q-.309-.307-.614-.614a4.137,4.137,0,0,0-2.534-.69,4.574,4.574,0,0,0-2.3.459,1.553,1.553,0,0,0-.689,1.383q0,1.228,3.99,2.071a7.757,7.757,0,0,0,.807.23,2.965,2.965,0,0,0,.651.077,14.214,14.214,0,0,1,5.449,2.3,4.84,4.84,0,0,1,1.458,3.684,6.136,6.136,0,0,1-2.456,5.218q-2.3,1.69-6.907,1.69-4.375,0-6.522-1.765a6.166,6.166,0,0,1-2.225-5.143Z" transform="translate(-296.226 -288.506)" fill="#fff"/>
      </g>
      <path id="Path_14" data-name="Path 14" d="M454.946,257.844a4.453,4.453,0,1,1-4.451-4.451A4.452,4.452,0,0,1,454.946,257.844Z" transform="translate(-309.636 -240.058)" fill="#482177"/>
      <path id="Path_15" data-name="Path 15" d="M475.912,279a7.185,7.185,0,1,1-7.186-7.186A7.183,7.183,0,0,1,475.912,279Z" transform="translate(-302.315 -231.357)" fill="#8abb2a"/>
      <path id="Path_16" data-name="Path 16" d="M439.093,273.76a7.182,7.182,0,1,1-7.177-7.183A7.179,7.179,0,0,1,439.093,273.76Z" transform="translate(-319.701 -233.832)" fill="#8abb2a"/>
      <path id="Path_17" data-name="Path 17" d="M411.056,318.918a4.452,4.452,0,1,1-4.452-4.451A4.452,4.452,0,0,1,411.056,318.918Z" transform="translate(-330.364 -211.213)" fill="#482177"/>
      <path id="Path_18" data-name="Path 18" d="M425.354,248.787a4.453,4.453,0,1,1-4.452-4.451A4.452,4.452,0,0,1,425.354,248.787Z" transform="translate(-323.612 -244.336)" fill="#482177"/>
      <path id="Path_19" data-name="Path 19" d="M377.219,279.6a4.452,4.452,0,1,1-4.451-4.452A4.449,4.449,0,0,1,377.219,279.6Z" transform="translate(-346.345 -229.782)" fill="#482177"/>
      <path id="Path_20" data-name="Path 20" d="M472.908,324.2a4.452,4.452,0,1,1-4.451-4.451A4.452,4.452,0,0,1,472.908,324.2Z" transform="translate(-301.152 -208.717)" fill="#482177"/>
      <path id="Path_21" data-name="Path 21" d="M494.656,305.022a11.51,11.51,0,1,1,11.51,11.509A11.506,11.506,0,0,1,494.656,305.022Z" transform="translate(-286.675 -221.11)" fill="#8abb2a"/>
      <path id="Path_22" data-name="Path 22" d="M446.607,344.585a4.452,4.452,0,1,1,4.455,4.452A4.452,4.452,0,0,1,446.607,344.585Z" transform="translate(-309.369 -199.092)" fill="#482177"/>
      <path id="Path_23" data-name="Path 23" d="M381.251,325.145a7.186,7.186,0,1,1-7.185-7.186A7.185,7.185,0,0,1,381.251,325.145Z" transform="translate(-347.023 -209.564)" fill="#8abb2a"/>
      <path id="Path_24" data-name="Path 24" d="M399.663,258.33a7.185,7.185,0,1,1-7.183-7.185A7.18,7.18,0,0,1,399.663,258.33Z" transform="translate(-338.327 -241.12)" fill="#8abb2a"/>
      <path id="Path_25" data-name="Path 25" d="M441.092,332.443a7.184,7.184,0,1,1-7.185-7.183A7.185,7.185,0,0,1,441.092,332.443Z" transform="translate(-318.759 -206.116)" fill="#8abb2a"/>
      <path id="Path_26" data-name="Path 26" d="M413.7,353.478a7.185,7.185,0,1,1-7.185-7.183A7.184,7.184,0,0,1,413.7,353.478Z" transform="translate(-331.698 -196.181)" fill="#8abb2a"/>
    </g>
  </g>
</svg>
