<?xml version="1.0" encoding="utf-8"?>
<!-- Generator: Adobe Illustrator 22.0.1, SVG Export Plug-In . SVG Version: 6.00 Build 0)  -->
<svg version="1.1" id="Layer_1" xmlns="http://www.w3.org/2000/svg" xmlns:xlink="http://www.w3.org/1999/xlink" x="0px" y="0px"
	 viewBox="0 0 48 22" style="enable-background:new 0 0 48 22;" xml:space="preserve">
<style type="text/css">
	.st0{fill:#757575;}
</style>
<g id="surface1">
	<path class="st0" d="M37,0c-0.4,0-0.8,0.2-0.9,0.6C35.9,1,36,1.4,36.3,1.7l8,8.3H1c-0.4,0-0.7,0.2-0.9,0.5c-0.2,0.3-0.2,0.7,0,1
		C0.3,11.8,0.7,12,1,12h43.3l-8,8.3c-0.4,0.4-0.4,1,0,1.4s1,0.4,1.4,0L48,11L37.7,0.3C37.6,0.1,37.3,0,37,0z"/>
</g>
</svg>
