<?xml version="1.0" encoding="utf-8"?>
<!-- Generator: Adobe Illustrator 22.0.1, SVG Export Plug-In . SVG Version: 6.00 Build 0)  -->
<svg version="1.1" id="Layer_1" xmlns="http://www.w3.org/2000/svg" xmlns:xlink="http://www.w3.org/1999/xlink" x="0px" y="0px"
	 viewBox="0 0 48 22" style="enable-background:new 0 0 48 22;" xml:space="preserve">
<style type="text/css">
	.st0{fill:#757575;}
</style>
<g id="surface1">
	<path class="st0" d="M10.2,0.3L0,11l10.3,10.7c0.4,0.4,1,0.4,1.4,0s0.4-1,0-1.4l-8-8.3H47c0.3,0,0.7-0.2,0.9-0.5
		c0.2-0.3,0.2-0.7,0-1C47.7,10.2,47.3,10,47,10H3.7l8-8.3C11.9,1.4,12,1,11.9,0.6C11.7,0.2,11.4,0,10.9,0C10.7,0,10.4,0.1,10.2,0.3z
		"/>
</g>
</svg>
