<?xml version="1.0" encoding="utf-8"?>
<!-- Generator: Adobe Illustrator 22.0.1, SVG Export Plug-In . SVG Version: 6.00 Build 0)  -->
<svg version="1.1" id="Layer_1" xmlns="http://www.w3.org/2000/svg" xmlns:xlink="http://www.w3.org/1999/xlink" x="0px" y="0px" width="24px"
	 viewBox="0 0 24 24" style="enable-background:new 0 0 24 24;" xml:space="preserve">
<style type="text/css">
	.st0{fill:#3F51B5;}
	.st1{fill:#FFFFFF;}
</style>
<g>
	<path class="st0" d="M24,20.7c0,1.8-1.5,3.3-3.3,3.3H3.3C1.5,24,0,22.5,0,20.7V3.3C0,1.5,1.5,0,3.3,0h17.3C22.5,0,24,1.5,24,3.3
		V20.7z"/>
	<path class="st1" d="M17.9,12.7h-2.2v8.7h-3.3v-8.7h-2V10h2V8.4c0-2.3,1-3.7,3.7-3.7h2.3v2.7h-1.5c-1.1,0-1.1,0.4-1.1,1.1V10h2.7
		L17.9,12.7z"/>
</g>
</svg>
