<?xml version="1.0" encoding="utf-8"?>
<!-- Generator: Adobe Illustrator 22.0.1, SVG Export Plug-In . SVG Version: 6.00 Build 0)  -->
<svg version="1.1" id="Layer_1" xmlns="http://www.w3.org/2000/svg" xmlns:xlink="http://www.w3.org/1999/xlink" x="0px" y="0px" width="24px"
	 viewBox="0 0 24 24" style="enable-background:new 0 0 24 24;" xml:space="preserve">
<style type="text/css">
	.st0{fill:#F4511E;}
	.st1{fill:#FFFFFF;}
</style>
<g>
	<path class="st0" d="M24,20.7c0,1.8-1.5,3.3-3.3,3.3H3.3C1.5,24,0,22.5,0,20.7V3.3C0,1.5,1.5,0,3.3,0h17.3C22.5,0,24,1.5,24,3.3
		V20.7z"/>
	<g>
		<rect x="18.7" y="8.7" class="st1" width="1.3" height="5.3"/>
		<rect x="16.7" y="10.7" class="st1" width="5.3" height="1.3"/>
		<path class="st1" d="M14.5,10.8l0-0.1H8.7v2h3.9c-0.3,1.9-2,3.3-3.9,3.3c-2.2,0-4-1.8-4-4s1.8-4,4-4c1,0,1.9,0.4,2.6,1l1.4-1.4
			c-1.1-1-2.5-1.6-4-1.6c-3.3,0-6,2.7-6,6s2.7,6,6,6s6-2.7,6-6C14.7,11.6,14.6,11.2,14.5,10.8z"/>
	</g>
</g>
</svg>
