<?xml version="1.0" encoding="utf-8"?>
<!-- Generator: Adobe Illustrator 22.0.1, SVG Export Plug-In . SVG Version: 6.00 Build 0)  -->
<svg version="1.1" id="Layer_1" xmlns="http://www.w3.org/2000/svg" xmlns:xlink="http://www.w3.org/1999/xlink" x="0px" y="0px" width="32px"
	 viewBox="0 0 32 32" style="enable-background:new 0 0 32 32;" xml:space="preserve">
<style type="text/css">
	.st0{fill:#9E9E9E;}
</style>
<g>
	<path class="st0" d="M25.4,16h-1c0-4.8-2.2-9.3-6.1-12.2L18.9,3C23.1,6.1,25.4,10.8,25.4,16z"/>
	<path class="st0" d="M21,16h-1c0-3.6-1.8-6.9-4.8-8.9l0.6-0.9C19,8.4,21,12,21,16z"/>
	<path class="st0" d="M16.5,16h-1c0-2.4-1.4-4.6-3.6-5.6l0.4-0.9C14.8,10.6,16.5,13.2,16.5,16z"/>
	<path class="st0" d="M0,0v32h32V0H0z M11,16c0,1-0.8,1.7-1.7,1.7c-1,0-1.7-0.8-1.7-1.7v0c0-1,0.8-1.7,1.7-1.7
		C10.2,14.3,11,15,11,16L11,16z M31,16h-5.5c0,5.2-2.4,9.9-6.5,13l-0.6-0.8c3.9-2.9,6.1-7.3,6.1-12.2H21c0,4-2,7.6-5.3,9.8l-0.6-0.9
		c3-2,4.8-5.3,4.8-8.9h-3.5c0,2.8-1.6,5.4-4.2,6.5l-0.4-0.9c2.2-1,3.6-3.2,3.6-5.6H12v0c0-1.5-1.2-2.8-2.8-2.8
		c-1.5,0-2.8,1.2-2.8,2.8v0H1V1h30V16z"/>
</g>
</svg>
