<?xml version="1.0" encoding="utf-8"?>
<!-- Generator: Adobe Illustrator 22.0.1, SVG Export Plug-In . SVG Version: 6.00 Build 0)  -->
<svg version="1.1" id="Layer_1" xmlns="http://www.w3.org/2000/svg" xmlns:xlink="http://www.w3.org/1999/xlink" x="0px" y="0px" width="32px"
	 viewBox="0 0 32 32" style="enable-background:new 0 0 32 32;" xml:space="preserve">
<style type="text/css">
	.st0{fill:#9E9E9E;}
</style>
<g>
	<polygon class="st0" points="16,4.9 13.1,7.8 14.5,7.8 14.5,13.6 17.5,13.6 17.5,7.8 18.9,7.8 	"/>
	<polygon class="st0" points="23.9,4.9 21,7.8 22.4,7.8 22.4,13.6 25.3,13.6 25.3,7.8 26.8,7.8 	"/>
	<polygon class="st0" points="8.1,4.9 5.2,7.8 6.7,7.8 6.7,13.6 9.6,13.6 9.6,7.8 11,7.8 	"/>
	<path class="st0" d="M0,0v32h32V0H0z M6.2,27.4h21.9v1.7H6.2c-1.7,0-3.1-1.4-3.1-3.1c0-1.7,1.4-3.1,3.1-3.1h19.7
		c0.8,0,1.4-0.6,1.4-1.4c0-0.8-0.6-1.4-1.4-1.4H3.9v-1.7h21.9c1.7,0,3.1,1.4,3.1,3.1c0,1.7-1.4,3.1-3.1,3.1H6.2
		c-0.8,0-1.4,0.6-1.4,1.4C4.8,26.7,5.4,27.4,6.2,27.4z M31,16H1V1h30V16z"/>
</g>
</svg>
