<?xml version="1.0" encoding="utf-8"?>
<!-- Generator: Adobe Illustrator 22.0.1, SVG Export Plug-In . SVG Version: 6.00 Build 0)  -->
<svg version="1.1" id="Layer_1" xmlns="http://www.w3.org/2000/svg" xmlns:xlink="http://www.w3.org/1999/xlink" x="0px" y="0px" width="32px"
	 viewBox="0 0 32 32" style="enable-background:new 0 0 32 32;" xml:space="preserve">
<style type="text/css">
	.st0{fill:#9E9E9E;}
</style>
<g>
	<path class="st0" d="M16,13.7c-1.5,0-2.8-1.2-2.8-2.8s1.2-2.8,2.8-2.8s2.8,1.2,2.8,2.8S17.5,13.7,16,13.7z M16,9.3
		c-1,0-1.7,0.8-1.7,1.7c0,1,0.8,1.7,1.7,1.7s1.7-0.8,1.7-1.7C17.7,10,16.9,9.3,16,9.3z"/>
	<g>
		<path class="st0" d="M16,17.2c1.3,0,2.6-0.4,3.7-1.2h-7.3C13.4,16.8,14.6,17.2,16,17.2z"/>
		<path class="st0" d="M0,0v32h32V0H0z M16,27.2c-5.2,0-9.9-2.4-13-6.5L3.8,20c2.9,3.9,7.3,6.1,12.2,6.1c4.8,0,9.3-2.2,12.2-6.1
			l0.8,0.6C25.9,24.8,21.1,27.2,16,27.2z M6.2,17.4L7,16.9c2,3,5.3,4.8,8.9,4.8c3.6,0,6.9-1.8,8.9-4.8l0.9,0.6
			c-2.2,3.3-5.8,5.3-9.8,5.3C12,22.7,8.3,20.7,6.2,17.4z M31,16h-9.8c-1.3,1.4-3.2,2.2-5.2,2.2c-2,0-3.9-0.8-5.2-2.2H1V1h30V16z"/>
	</g>
</g>
</svg>
