<?xml version="1.0" encoding="utf-8"?>
<!-- Generator: Adobe Illustrator 22.0.1, SVG Export Plug-In . SVG Version: 6.00 Build 0)  -->
<svg version="1.1" id="Layer_1" xmlns="http://www.w3.org/2000/svg" xmlns:xlink="http://www.w3.org/1999/xlink" x="0px" y="0px" width="24px"
	 viewBox="0 0 24 24" style="enable-background:new 0 0 24 24;" xml:space="preserve">
<style type="text/css">
	.st0{fill:#0288D1;}
	.st1{fill:#FFFFFF;}
</style>
<g>
	<path class="st0" d="M24,20.7c0,1.8-1.5,3.3-3.3,3.3H3.3C1.5,24,0,22.5,0,20.7V3.3C0,1.5,1.5,0,3.3,0h17.3C22.5,0,24,1.5,24,3.3
		V20.7z"/>
	<g>
		<rect x="4" y="8.7" class="st1" width="3.3" height="11.3"/>
		<path class="st1" d="M5.7,7.3L5.7,7.3C4.6,7.3,4,6.6,4,5.7C4,4.7,4.7,4,5.7,4c1,0,1.6,0.7,1.7,1.7C7.3,6.6,6.7,7.3,5.7,7.3z"/>
		<path class="st1" d="M20,20h-3.3v-6.1c0-1.5-0.8-2.5-2.1-2.5c-1,0-1.5,0.7-1.8,1.3c-0.1,0.2-0.1,0.9-0.1,1.2v6H9.3V8.7h3.3v1.7
			c0.5-0.7,1.2-1.7,3.2-1.7c2.4,0,4.2,1.5,4.2,4.8L20,20L20,20z"/>
	</g>
</g>
</svg>
