<?xml version="1.0" encoding="utf-8"?>
<!-- Generator: Adobe Illustrator 21.1.0, SVG Export Plug-In . SVG Version: 6.00 Build 0)  -->
<svg version="1.1" id="Layer_1" xmlns="http://www.w3.org/2000/svg" xmlns:xlink="http://www.w3.org/1999/xlink" x="0px" y="0px"
	 viewBox="0 0 265 60" style="enable-background:new 0 0 265 60;" xml:space="preserve">
<style type="text/css">
	.st0{fill:#00AA66;}
	.st1{fill-rule:evenodd;clip-rule:evenodd;fill:#00AA66;}
	.st2{fill:#231F20;}
	.st3{fill-rule:evenodd;clip-rule:evenodd;fill:#231F20;}
</style>
<g>
	<path class="st0" d="M236.3,13.3c0,1.8-0.8,3.8-1.5,5.3L228.1,33c-0.9,1.9-1.9,3.7-3.4,5.2l14,0c-0.2-2,0.7-4,1.5-5.8l4-8.5
		c1.8-3.9,3.5-4.8,8.8-4.8c3.4,0,4.3,0.3,5.3,1l3.4-7.2h-5.5c-4.1,0-5.8,1.2-8.5,4.3h-1.2l1.6-4.3h-11.7
		C236.3,13,236.3,13.2,236.3,13.3L236.3,13.3z M223.3,41.7l-1.5-2.4c2.6-2.5,3.5-3.3,5.2-6.9l6.7-14.3c1.3-2.8,1.6-3.7,1.3-6.4
		l14.6,0l0.8,1.3c1.5-0.9,3.3-1.3,5.7-1.3l7.3,0l1.5,2.3l-4.8,10.2c-2.2-1.8-2.7-1.6-5.7-1.6c-5,0-6.2,0.8-7.8,4.2l-4,8.5
		c-1.3,2.8-1.6,3.7-1.3,6.4H223.3L223.3,41.7z"/>
	<path class="st0" d="M184.8,12.9h-20.5c-5.6,0-8.3,2.3-10.8,7.7l-4.9,10.5c-2.5,5.4-2,7.2,3.3,7.2h20.5c5.6,0,8.3-2.3,10.8-7.7
		l4.9-10.5C190.6,14.7,190.1,12.9,184.8,12.9L184.8,12.9z M190.2,13.6L190.2,13.6l1.4,2.2c1,1.5,0.5,3.9-1,7.1l-4.9,10.5
		c-2.7,5.7-5.7,8.3-11.9,8.3h-20.5c-3,0-4.7-0.7-5.5-1.9l-1.5-2.3c-0.9-1.5-0.4-3.8,1.1-6.9l4.9-10.5c2.7-5.7,5.7-8.3,11.9-8.3h20.5
		C187.7,11.8,189.4,12.4,190.2,13.6L190.2,13.6z M169.3,16.9h5.5c2.2,0,2.3,1.3,1.5,3l-5.6,11.8c-0.8,1.7-1.7,2.5-3.5,2.5h-5.5
		c-3.9,0-1-3.9,4.2-14.8C166.6,17.8,167.5,16.9,169.3,16.9L169.3,16.9z M170.8,20.4c-1.2,0-1.7,0.4-2.4,1.8l-5.1,10.8h3.9
		c1.3,0,1.9-0.4,2.5-1.8l5.1-10.8H170.8L170.8,20.4z"/>
	<path class="st0" d="M33.9,37.8c0-1.8,0.8-3.8,1.5-5.3l9.2-19.6H31.5c0.2,2-0.7,4-1.5,5.8l-6.1,13c-0.8,1.8-1.9,2.5-3.7,2.5h-4.8
		c-2.1,0-2.6-1.1-1.7-3l8.6-18.3H9.2c0.2,2-0.7,4-1.5,5.8L2.6,29.4c-2.7,5.8-1.8,8.8,3.7,8.8H17c1.9,0,3.3-1.5,4.5-2.8h1.1l-0.9,2.8
		h12.2C33.9,38.1,33.9,38,33.9,37.8L33.9,37.8z M21.1,41c-0.8,0.5-1.6,0.8-2.6,0.8H7.8c-2.9,0-4.8-0.8-5.7-2.2l-1.5-2.3
		c-1.2-1.9-0.7-4.8,0.9-8.2l5.1-10.8c1.3-2.8,1.6-3.7,1.3-6.4l16.2,0l1.5,2.4l-8.9,18.9h3.5c1.4,0,2-0.4,2.7-1.9l6.1-13
		c1.3-2.8,1.6-3.7,1.3-6.4l16.2,0l1.5,2.4l-10,21.2c-1.3,2.8-1.6,3.7-1.3,6.4h-15L21.1,41L21.1,41z"/>
	<path class="st1" d="M80,37c-0.4,0.5-0.7,0.9-1.1,1.2l14,0c-0.2-2,0.7-4,1.5-5.8l9.2-19.6H90.6c0.2,2-0.7,4-1.5,5.8L82.4,33
		C81.5,34.8,80.8,36.1,80,37L80,37z M77.6,41.7l-1.5-2.3c1-1,2.1-2,3-3.1c0.7-0.9,1.4-2,2.2-3.8l6.7-14.3c1.3-2.8,1.6-3.7,1.3-6.4
		l16.2,0l1.5,2.3L97,35.3c-1.3,2.8-1.6,3.7-1.3,6.4L77.6,41.7L77.6,41.7z"/>
	<path class="st1" d="M101.3,1.2c-4.2,0-7.6,1.9-8,3.7c-0.4,1.6,1.8,3.5,6.2,3.5c4.2,0,7.6-1.9,8-3.7C107.8,3,105.7,1.2,101.3,1.2
		L101.3,1.2z M108.3,2.8l1.4,2.1l0,0.1c0.4,0.6,0.6,1.4,0.4,2.2c-0.6,2.7-4.9,4.6-9.1,4.6c-3,0-5.8-1-6.9-2.7l0,0l-1.4-2.2
		c0,0-0.1-0.1-0.1-0.2c-0.4-0.6-0.5-1.3-0.3-2.1c0.6-2.7,4.9-4.6,9.1-4.6C104.4,0,107.3,1,108.3,2.8L108.3,2.8z M92.6,6.9l-0.1-0.2
		C92.6,6.8,92.6,6.8,92.6,6.9L92.6,6.9z"/>
	<path class="st1" d="M127,37c-0.4,0.5-0.7,0.9-1.1,1.2l14,0c-0.2-2,0.7-4,1.5-5.8l13.7-29.2h-13.1c0.2,2-0.7,4-1.5,5.8L129.3,33
		C128.5,34.8,127.7,36.1,127,37L127,37z M157,2.2l1.5,2.4L144,35.3c-1.3,2.8-1.6,3.7-1.3,6.4h-18.2c-1.5-2.3-1.5-2.3-1.5-2.3
		c1-1,2.1-2,3-3.1c0.7-0.9,1.4-2,2.2-3.8l11.2-23.9c1.3-2.8,1.6-3.7,1.3-6.4H157L157,2.2z"/>
	<path class="st0" d="M224.6,12.9h-20.5c-5.6,0-8.3,2.3-10.8,7.7l-4.9,10.5c-2.5,5.4-2,7.2,3.3,7.2h20.5c5.6,0,8.3-2.3,10.8-7.7
		l4.9-10.5C230.4,14.7,229.9,12.9,224.6,12.9L224.6,12.9z M230,13.6L230,13.6l1.4,2.2c1,1.5,0.5,3.9-1,7.1l-4.9,10.5
		c-2.7,5.7-5.7,8.3-11.9,8.3h-20.5c-3,0-4.7-0.7-5.5-1.9l-1.5-2.3c-0.9-1.5-0.4-3.8,1.1-6.9l4.9-10.5c2.7-5.7,5.7-8.3,11.9-8.3h20.5
		C227.6,11.8,229.3,12.4,230,13.6L230,13.6z M209.1,16.9h5.5c2.2,0,2.3,1.3,1.5,3l-5.6,11.8c-0.8,1.7-1.7,2.5-3.5,2.5h-5.5
		c-3.9,0-1-3.9,4.2-14.8C206.5,17.8,207.4,16.9,209.1,16.9L209.1,16.9z M210.6,20.4c-1.2,0-1.7,0.4-2.4,1.8l-5.1,10.8h3.9
		c1.3,0,1.9-0.4,2.5-1.8l5.1-10.8H210.6L210.6,20.4z"/>
	<path class="st0" d="M50,13.3c0,1.8-0.8,3.8-1.5,5.3L41.7,33c-0.9,1.9-1.9,3.7-3.4,5.2l14,0c-0.2-2,0.7-4,1.5-5.8l6.1-13
		c0.8-1.8,1.9-2.5,3.7-2.5h4.8c2.1,0,2.6,1.1,1.7,3L64,33c-0.9,1.9-1.9,3.7-3.4,5.2l14,0c-0.2-2,0.7-4,1.5-5.8l5.1-10.8
		c2.7-5.8,1.8-8.8-3.7-8.8H66.9c-1.9,0-3.3,1.5-4.5,2.8h-1.1l0.9-2.8H50C50,13,50,13.2,50,13.3L50,13.3z M83.2,14l1.4,2.2
		c1.3,1.9,0.8,4.8-0.8,8.4l-5.1,10.8c-1.3,2.8-1.6,3.7-1.3,6.4H59.3l-1.5-2.4c2.6-2.5,3.5-3.3,5.2-6.9l5.7-12h-3.5
		c-1.4,0-2,0.4-2.7,1.9l-6.1,13c-1.3,2.8-1.6,3.7-1.3,6.4H36.9l-1.5-2.3c2.6-2.5,3.5-3.3,5.2-6.9l6.7-14.3c1.3-2.8,1.6-3.7,1.3-6.4
		l15,0l0.5,0.8c0.8-0.5,1.6-0.8,2.6-0.8h10.7C80.5,11.8,82.3,12.6,83.2,14L83.2,14z"/>
	<path class="st0" d="M130.9,16.9l1.9-4h-10.5c1.2-2.6,1.8-5.5,5.1-5.5h4.9c1.9,0,2.7,0.1,4,0.7l1.6-4.7h-16
		c-5.1,0-8.6,3.2-10.2,6.8L101,33c-0.9,1.9-1.9,3.7-3.4,5.2l14,0c-0.2-2,0.7-4,1.5-5.8l7.3-15.5H130.9L130.9,16.9z M96.2,41.7
		l-1.5-2.3c2.6-2.5,3.5-3.3,5.2-6.9l10.8-22.9c1.8-3.9,5.6-7.4,11.3-7.4h17.5l1.5,2.4l-2.5,7.6c-2-1.1-2.3-1.2-4.6-1.2H129
		c-1.1,0-1.7,0.3-2.2,0.9l7.8,0l1.5,2.3l-3,6.3h-10.5l-7,14.9c-1.3,2.8-1.6,3.7-1.3,6.4H96.2L96.2,41.7z"/>
	<path class="st2" d="M83.7,49.6h-1.3l-3.6,6.5c-1,1.8-2.5,2.8-4.2,2.8c-1.8,0-2.2-1-1.2-2.8l3.6-6.5h-1.3l-3.6,6.5
		c-1.5,2.7-0.7,3.9,1.9,3.9c2.5,0,4.7-1.4,6.2-3.9L83.7,49.6L83.7,49.6z"/>
	<polygon class="st2" points="80.1,59.8 81.4,59.8 86,51.6 86,51.6 86.7,59.8 88.2,59.8 93.9,49.6 92.6,49.6 88,57.8 87.9,57.8 
		87.3,49.6 85.8,49.6 80.1,59.8 	"/>
	<path class="st3" d="M90.3,59.8h3.5c3.4,0,5.9-1.9,7.8-5.3c1.8-3.3,1-4.8-2.1-4.8h-3.5L90.3,59.8L90.3,59.8z M96.8,50.7H99
		c2.5,0,2.5,1.5,1.2,3.9c-2.1,3.8-4.7,4-5.6,4h-2.2L96.8,50.7L96.8,50.7z"/>
	<polygon class="st2" points="100.3,59.8 107.3,59.8 107.9,58.6 102.3,58.6 104.3,55.1 109.5,55.1 110.1,54 104.9,54 106.7,50.7 
		112.3,50.7 113,49.6 106,49.6 100.3,59.8 	"/>
	<path class="st3" d="M113.4,54.3l2-3.6h3.3c1.3,0,1.4,0.7,0.8,1.7c-0.8,1.5-2.1,1.8-3.3,1.8H113.4L113.4,54.3z M108.9,59.8h1.3
		l2.4-4.3h3.3c1.3,0,1.1,0.8,0.7,1.8c-0.4,1-1.2,2.1-1,2.5h1.5c-0.2-0.7,0.5-1.8,1-2.8c0.5-1,0.7-1.9-0.3-2.1l0,0
		c1.4-0.3,2.5-1.4,3.2-2.6c0.9-1.6,0.3-2.7-1.6-2.7h-4.7L108.9,59.8L108.9,59.8z"/>
	<polygon class="st2" points="118.6,59.8 125.3,59.8 125.9,58.6 120.6,58.6 125.7,49.6 124.3,49.6 118.6,59.8 	"/>
	<path class="st3" d="M125.3,59.8h1.4l2.8-3.1h4.3l-0.6,3.1h1.5l1.8-10.2h-1.5L125.3,59.8L125.3,59.8z M134.9,50.8L134.9,50.8
		l-1,4.7h-3.4L134.9,50.8L134.9,50.8z"/>
	<polygon class="st2" points="148.3,49.6 146.8,49.6 141.1,54.4 140.8,49.6 139.2,49.6 139.8,55.6 137.4,59.8 138.8,59.8 
		141.1,55.6 148.3,49.6 	"/>
	<path class="st2" d="M158.8,52.6c1.2-2.2,0.2-3.2-1.9-3.2c-1.8,0-4.2,0.9-5.3,3c-1,1.9,0.3,2.3,1.7,2.7c1.4,0.4,2.9,0.6,2.1,2
		c-0.8,1.5-2.4,1.9-3.6,1.9c-1.5,0-2.5-0.7-1.6-2.5H149c-1.4,2.5-0.1,3.6,2.2,3.6c1.8,0,4.4-0.9,5.6-3c1.1-2-0.2-2.6-1.6-2.9
		c-1.4-0.4-2.9-0.6-2.2-1.8c0.7-1.3,2.1-1.7,3.2-1.7c1.4,0,2,0.6,1.3,2.1H158.8L158.8,52.6z"/>
	<polygon class="st2" points="170.6,49.6 169.1,49.6 163.4,54.4 163.1,49.6 161.5,49.6 162,55.6 159.7,59.8 161,59.8 163.4,55.6 
		170.6,49.6 	"/>
	<path class="st2" d="M177.2,52.6c1.2-2.2,0.2-3.2-1.9-3.2c-1.8,0-4.2,0.9-5.3,3c-1,1.9,0.3,2.3,1.7,2.7c1.4,0.4,2.9,0.6,2.1,2
		c-0.8,1.5-2.4,1.9-3.6,1.9c-1.5,0-2.5-0.7-1.6-2.5h-1.3c-1.4,2.5-0.1,3.6,2.2,3.6c1.8,0,4.4-0.9,5.6-3c1.1-2-0.2-2.6-1.6-2.9
		c-1.4-0.4-2.9-0.6-2.2-1.8c0.7-1.3,2.1-1.7,3.2-1.7c1.4,0,2,0.6,1.3,2.1H177.2L177.2,52.6z"/>
	<polygon class="st2" points="177.5,59.8 178.8,59.8 183.9,50.7 187.2,50.7 187.9,49.6 179.8,49.6 179.2,50.7 182.5,50.7 
		177.5,59.8 	"/>
	<polygon class="st2" points="183.3,59.8 190.3,59.8 190.9,58.6 185.3,58.6 187.2,55.1 192.5,55.1 193.1,54 187.9,54 189.7,50.7 
		195.3,50.7 196,49.6 189,49.6 183.3,59.8 	"/>
	<polygon class="st2" points="192,59.8 193.2,59.8 198,51.3 198,51.3 196.4,59.8 197.6,59.8 205.4,51.3 205.5,51.3 200.7,59.8 
		202,59.8 207.7,49.6 205.9,49.6 197.9,58.1 199.5,49.6 197.7,49.6 192,59.8 	"/>
	<path class="st2" d="M215.4,52.6c1.2-2.2,0.2-3.2-1.9-3.2c-1.8,0-4.2,0.9-5.3,3c-1,1.9,0.3,2.3,1.7,2.7c1.4,0.4,2.9,0.6,2.1,2
		c-0.8,1.5-2.4,1.9-3.6,1.9c-1.5,0-2.5-0.7-1.6-2.5h-1.3c-1.4,2.5-0.1,3.6,2.2,3.6c1.8,0,4.4-0.9,5.6-3c1.1-2-0.2-2.6-1.6-2.9
		c-1.4-0.4-2.9-0.6-2.2-1.8c0.7-1.3,2.1-1.7,3.2-1.7c1.4,0,2,0.6,1.3,2.1H215.4L215.4,52.6z"/>
	<path class="st3" d="M221.3,55.1h3.1c1.1,0,2,0.4,1.2,1.7c-0.6,1.1-1.8,1.8-2.9,1.8h-3.4L221.3,55.1L221.3,55.1z M217.3,59.8h4.9
		c2,0,3.9-1.4,4.7-2.9c0.7-1.3,0.6-2.2-0.5-2.5l0,0c1.1-0.4,2.2-1.2,2.8-2.3c0.6-1,0.4-1.7,0-2.1c-0.4-0.4-1.6-0.4-2.5-0.4H223
		L217.3,59.8L217.3,59.8z M223.7,50.7h2.7c1.2,0,2,0.2,1.2,1.6c-0.6,1.1-1.5,1.6-3.1,1.6h-2.7L223.7,50.7L223.7,50.7z"/>
	<polygon class="st2" points="240.3,49.6 238.9,49.6 231,58.4 231,58.4 233.1,49.6 231.6,49.6 229.5,59.8 231,59.8 240.3,49.6 	"/>
</g>
</svg>
