<?xml version="1.0" encoding="utf-8"?>
<!-- Generator: Adobe Illustrator 21.1.0, SVG Export Plug-In . SVG Version: 6.00 Build 0)  -->
<svg version="1.1" id="Layer_1" xmlns="http://www.w3.org/2000/svg" xmlns:xlink="http://www.w3.org/1999/xlink" x="0px" y="0px"
	 viewBox="0 0 16 12" style="enable-background:new 0 0 16 12;" xml:space="preserve">
<style type="text/css">
	.st0{fill:#BBBBBB;}
</style>
<path class="st0" d="M0,0v0.3V12h16V0H0z M0.6,0.7h14.7v0.8c-0.1,0.1-5.8,5.3-6.3,5.7C8.7,7.6,8.2,7.7,8,7.7c-0.2,0-0.7-0.1-1.1-0.5
	C6.5,6.8,0.8,1.6,0.6,1.5V0.7z M0.6,2.4c0.8,0.7,5.4,4.9,5.9,5.3C7.1,8.2,7.6,8.3,8,8.3c0.4,0,0.9-0.1,1.5-0.6
	c0.4-0.4,5.1-4.6,5.9-5.3v8.9H0.6V2.4z"/>
</svg>
