<?xml version="1.0" encoding="utf-8"?>
<!-- Generator: Adobe Illustrator 21.1.0, SVG Export Plug-In . SVG Version: 6.00 Build 0)  -->
<svg version="1.1" id="Layer_1" xmlns="http://www.w3.org/2000/svg" xmlns:xlink="http://www.w3.org/1999/xlink" x="0px" y="0px"
	 viewBox="0 0 16 16" style="enable-background:new 0 0 16 16;" xml:space="preserve">
<style type="text/css">
	.st0{fill:#BBBBBB;}
</style>
<g id="surface1">
	<path class="st0" d="M3.2,0C2.9,0,2.6,0.1,2.3,0.3C2.1,0.4,1.5,0.9,1,1.4C0.8,1.6,0.5,1.9,0.4,2.1C0.2,2.4,0,2.6,0,2.9
		c0,0.3,0,1.2,0.7,2.5C1.3,6.8,2.5,8.6,4.9,11c2.4,2.4,4.3,3.6,5.6,4.3c1.4,0.6,2.2,0.7,2.5,0.7c0.3,0,0.6-0.2,0.8-0.3
		c0.2-0.2,0.5-0.4,0.7-0.7c0.5-0.5,0.9-1.1,1.1-1.3c0.4-0.6,0.3-1.2-0.1-1.6c-0.3-0.2-2.9-1.9-3.3-2.2C12,9.7,11.5,9.8,11.1,10
		c-0.3,0.2-1.2,0.7-1.4,0.8c-0.2-0.1-0.9-0.6-2.4-2.1c-1.5-1.5-2-2.2-2.1-2.4C5.3,6.1,5.8,5.2,6,4.9C6.2,4.5,6.3,4,6.1,3.6
		C6,3.4,5.5,2.7,5,2C4.5,1.2,4,0.5,3.9,0.4v0C3.7,0.1,3.5,0,3.2,0z M3.2,0.7c0.1,0,0.2,0.1,0.2,0.1c0.1,0.1,0.6,0.8,1.1,1.6
		c0.5,0.7,1,1.5,1.1,1.6c0,0,0,0.3-0.1,0.5v0C5.2,4.8,4.4,6.2,4.4,6.2L4.3,6.3l0.1,0.2c0,0,0.6,0.9,2.3,2.7c1.8,1.8,2.7,2.3,2.7,2.3
		l0.2,0.1l0.2-0.1c0,0,1.3-0.7,1.6-0.9c0.3-0.1,0.5-0.1,0.5-0.1c0.3,0.2,3,2,3.2,2.1c0,0,0.2,0.2-0.1,0.5h0c-0.1,0.2-0.6,0.7-1,1.2
		c-0.2,0.2-0.5,0.5-0.7,0.6s-0.4,0.2-0.3,0.2c-0.3,0-1,0-2.2-0.6c-1.3-0.6-3-1.8-5.4-4.1C3.1,8.2,1.9,6.4,1.3,5.1
		C0.8,3.9,0.7,3.2,0.7,2.9c0,0,0-0.2,0.2-0.3c0.1-0.2,0.4-0.4,0.6-0.7c0.5-0.5,1-0.9,1.2-1v0C2.9,0.7,3.1,0.7,3.2,0.7z"/>
</g>
</svg>
