<?xml version="1.0" encoding="utf-8"?>
<!-- Generator: Adobe Illustrator 22.0.1, SVG Export Plug-In . SVG Version: 6.00 Build 0)  -->
<svg version="1.1" id="Layer_1" xmlns="http://www.w3.org/2000/svg" xmlns:xlink="http://www.w3.org/1999/xlink" x="0px" y="0px" width="24px"
	 viewBox="0 0 24 24" style="enable-background:new 0 0 24 24;" xml:space="preserve">
<style type="text/css">
	.st0{fill:#FFFFFF;}
	.st1{fill:#CFD8DC;}
	.st2{fill:#40C351;}
</style>
<path class="st0" d="M0.6,23.5l1.6-5.9c-1-1.7-1.5-3.7-1.5-5.7C0.7,5.6,5.8,0.5,12,0.5c3,0,5.9,1.2,8,3.3c2.1,2.1,3.3,5,3.3,8
	c0,6.3-5.1,11.4-11.4,11.4c0,0,0,0,0,0h0c-1.9,0-3.8-0.5-5.4-1.4L0.6,23.5z"/>
<g>
	<path class="st0" d="M0.6,23.8c-0.1,0-0.2,0-0.2-0.1c-0.1-0.1-0.1-0.2-0.1-0.3l1.6-5.8c-1-1.7-1.5-3.7-1.5-5.7
		C0.4,5.5,5.6,0.2,12,0.2c3.1,0,6,1.2,8.2,3.4c2.2,2.2,3.4,5.1,3.4,8.2c0,6.4-5.2,11.6-11.7,11.6c-1.9,0-3.8-0.5-5.5-1.4L0.6,23.8
		C0.6,23.7,0.6,23.8,0.6,23.8z"/>
	<path class="st1" d="M12,0.5c3,0,5.9,1.2,8,3.3c2.1,2.1,3.3,5,3.3,8c0,6.3-5.1,11.4-11.4,11.4h0c-1.9,0-3.8-0.5-5.4-1.4l-6,1.6
		l1.6-5.9c-1-1.7-1.5-3.7-1.5-5.7C0.7,5.6,5.8,0.5,12,0.5 M12,23.3L12,23.3L12,23.3 M12,23.3L12,23.3L12,23.3 M12-0.1L12-0.1
		c-6.6,0-11.9,5.4-12,11.9c0,2,0.5,4,1.5,5.8L0,23.3c-0.1,0.2,0,0.4,0.2,0.6c0.1,0.1,0.3,0.2,0.4,0.2c0.1,0,0.1,0,0.2,0l5.8-1.5
		c1.7,0.9,3.6,1.3,5.5,1.3c6.6,0,12-5.4,12-11.9c0-3.2-1.2-6.2-3.5-8.5C18.2,1.2,15.2,0,12-0.1L12-0.1z"/>
</g>
<path class="st2" d="M18.7,5.3c-1.8-1.8-4.2-2.8-6.7-2.8c-5.2,0-9.4,4.2-9.4,9.4c0,1.8,0.5,3.5,1.4,5l0.2,0.4l-1,3.5l3.6-0.9
	l0.3,0.2c1.4,0.9,3.1,1.3,4.8,1.3h0c5.2,0,9.4-4.2,9.4-9.4C21.4,9.5,20.5,7.1,18.7,5.3z"/>
<path class="st0" d="M9.2,7.2C9,6.7,8.7,6.7,8.5,6.7c-0.2,0-0.4,0-0.5,0C7.8,6.7,7.5,6.7,7.2,7c-0.3,0.3-1,1-1,2.4s1,2.7,1.2,2.9
	c0.1,0.2,2,3.1,4.8,4.3c2.4,0.9,2.9,0.8,3.4,0.7c0.5,0,1.7-0.7,1.9-1.3c0.2-0.7,0.2-1.2,0.2-1.3c-0.1-0.1-0.3-0.2-0.5-0.3
	c-0.3-0.1-1.7-0.8-1.9-0.9c-0.3-0.1-0.4-0.1-0.6,0.1c-0.2,0.3-0.7,0.9-0.9,1.1c-0.2,0.2-0.3,0.2-0.6,0.1c-0.3-0.1-1.2-0.4-2.3-1.4
	c-0.8-0.8-1.4-1.7-1.6-2c-0.2-0.3,0-0.4,0.1-0.6c0.1-0.1,0.3-0.3,0.4-0.5c0.1-0.2,0.2-0.3,0.3-0.5c0.1-0.2,0-0.4,0-0.5
	C10,9.1,9.4,7.7,9.2,7.2z"/>
</svg>
