<?xml version="1.0" encoding="utf-8"?>
<!-- Generator: Adobe Illustrator 22.0.1, SVG Export Plug-In . SVG Version: 6.00 Build 0)  -->
<svg version="1.1" id="Layer_1" xmlns="http://www.w3.org/2000/svg" xmlns:xlink="http://www.w3.org/1999/xlink" x="0px" y="0px" width="27px"
	 viewBox="0 0 27 24" style="enable-background:new 0 0 27 24;" xml:space="preserve">
<style type="text/css">
	.st0{fill:#FF3D00;}
	.st1{fill:#FFFFFF;}
</style>
<g>
	<path class="st0" d="M26.4,18.7c-0.3,1.4-1.4,2.5-2.8,2.7c-2.2,0.3-5.9,0.7-10.1,0.7c-4.1,0-7.8-0.4-10.1-0.7
		c-1.4-0.2-2.6-1.3-2.8-2.7C0.3,17.1,0,14.8,0,12s0.3-5.1,0.5-6.7C0.8,3.9,2,2.8,3.4,2.6c2.2-0.3,5.9-0.7,10.1-0.7s7.8,0.4,10.1,0.7
		c1.4,0.2,2.6,1.3,2.8,2.7C26.7,6.9,27,9.2,27,12C26.9,14.8,26.7,17.1,26.4,18.7z"/>
	<polygon class="st1" points="10.8,16.7 10.8,7.3 18.9,12 	"/>
</g>
</svg>
