<?xml version="1.0" standalone="no"?>
<!DOCTYPE svg PUBLIC "-//W3C//DTD SVG 1.1//EN" "http://www.w3.org/Graphics/SVG/1.1/DTD/svg11.dtd" >
<svg>
<metadata>
Created by FontForge 20090914 at Wed Jan  2 07:41:17 2019
 By www-data
Copyright (c) 2016 by Typetype. Designers Ivan Gladkikh &#38; Olexa Volochay. All rights reserved.
</metadata>
<defs>
<font id="TTCorals-ExtraBold" horiz-adv-x="520" >
  <font-face 
    font-family="TTCorals-ExtraBold"
    font-weight="400"
    font-stretch="normal"
    units-per-em="1000"
    panose-1="2 0 5 6 4 0 0 2 0 4"
    ascent="839"
    descent="-161"
    x-height="490"
    cap-height="700"
    bbox="-34 -300.004 1130 945"
    underline-thickness="50"
    underline-position="-50"
    unicode-range="U+000D-U+F6D4"
  />
<missing-glyph horiz-adv-x="0" 
 />
    <glyph glyph-name=".notdef" horiz-adv-x="0" 
 />
    <glyph glyph-name=".null" horiz-adv-x="0" 
 />
    <glyph glyph-name=".null" horiz-adv-x="0" 
 />
    <glyph glyph-name="nonmarkingreturn" unicode="&#xd;" horiz-adv-x="0" 
 />
    <glyph glyph-name="space" unicode=" " horiz-adv-x="200" 
 />
    <glyph glyph-name="exclam" unicode="!" horiz-adv-x="300" 
d="M210 220h-120l-20 270v210h160v-210zM75 150h150v-150h-150v150z" />
    <glyph glyph-name="quotedbl" unicode="&#x22;" horiz-adv-x="440" 
d="M50 710h150l-25 -250h-100zM240 710h150l-25 -250h-100z" />
    <glyph glyph-name="numbersign" unicode="#" horiz-adv-x="650" 
d="M530 520h80v-120h-110l-20 -100h80v-120h-110l-40 -180h-120l40 180h-90l-40 -180h-120l40 180h-80v120h110l20 100h-80v120h110l40 180h120l-40 -180h90l40 180h120zM270 300h90l20 100h-90z" />
    <glyph glyph-name="dollar" unicode="$" horiz-adv-x="590" 
d="M210 480c0 -20 8.66992 -34.5 26.0029 -43.5s39 -16.5 65 -22.5s54 -12 84 -18s58 -16 84 -30s47.667 -34 65 -60s26 -61.333 26 -106c0 -55.333 -17.667 -100.833 -53 -136.5s-84.333 -58.5 -147 -68.5v-125h-140v125c-32.667 6 -61.334 15.667 -86.001 29
s-45.667 26.666 -63 39.999c-20 16 -37 33 -51 51l105 105c9.33301 -17.333 22.333 -32.333 39 -45c13.333 -11.333 31.166 -21.666 53.499 -30.999s49.833 -14 82.5 -14s56.667 6.16699 72 18.5s23 26.166 23 41.499c0 20 -8.66699 34.5 -26 43.5s-39 16.5 -65 22.5
s-54 12 -84 18s-58 16 -84 30s-47.667 33.833 -65 59.5s-26 61.167 -26 106.5c0 50 16 91.833 48 125.5s74.333 56.834 127 69.501v125h140v-126c26 -6 49.5 -14.833 70.5 -26.5s38.833 -23.167 53.5 -34.5c17.333 -13.333 32.666 -27.666 45.999 -42.999l-100 -105
c-10 13.333 -22 25.666 -36 36.999c-12 9.33301 -27.5 18 -46.5 26s-41.5 12 -67.5 12c-22.667 0 -40 -5.16699 -52 -15.5s-18 -21.833 -18 -34.5z" />
    <glyph glyph-name="percent" unicode="%" horiz-adv-x="750" 
d="M515 700h115l-395 -700h-115zM20 545c0 24 4.16699 46 12.5 66s19.666 37.333 33.999 52s31.166 26.167 50.499 34.5s40.333 12.5 63 12.5s43.667 -4.16699 63 -12.5s36.166 -19.833 50.499 -34.5s25.666 -32 33.999 -52s12.5 -42 12.5 -66s-4.16699 -46 -12.5 -66
s-19.666 -37.333 -33.999 -52s-31.166 -26.167 -50.499 -34.5s-40.333 -12.5 -63 -12.5s-43.667 4.16699 -63 12.5s-36.166 19.833 -50.499 34.5s-25.666 32 -33.999 52s-12.5 42 -12.5 66zM135 545c0 -25.333 5 -43.333 15 -54s20 -16 30 -16s20 5.33301 30 16
s15 28.667 15 54s-5 43.333 -15 54s-20 16 -30 16s-20 -5.33301 -30 -16s-15 -28.667 -15 -54zM730 155c0 -24 -4.16699 -46 -12.5 -66s-19.666 -37.333 -33.999 -52s-31.166 -26.167 -50.499 -34.5s-40.333 -12.5 -63 -12.5s-43.667 4.16699 -63 12.5
s-36.166 19.833 -50.499 34.5s-25.666 32 -33.999 52s-12.5 42 -12.5 66s4.16699 46 12.5 66s19.666 37.333 33.999 52s31.166 26.167 50.499 34.5s40.333 12.5 63 12.5s43.667 -4.16699 63 -12.5s36.166 -19.833 50.499 -34.5s25.666 -32 33.999 -52s12.5 -42 12.5 -66z
M615 155c0 25.333 -5 43.333 -15 54s-20 16 -30 16s-20 -5.33301 -30 -16s-15 -28.667 -15 -54s5 -43.333 15 -54s20 -16 30 -16s20 5.33301 30 16s15 28.667 15 54z" />
    <glyph glyph-name="ampersand" unicode="&#x26;" horiz-adv-x="640" 
d="M275 670c27.333 0 52.667 -4.66504 76 -13.998s43.5 -21.833 60.5 -37.5s30.167 -33.667 39.5 -54s14 -41.833 14 -64.5c0 -29.333 -6 -54.333 -18 -75s-25.333 -37.667 -40 -51c-17.333 -16 -36.333 -29 -57 -39v-10l65 -75h10l7 25c2 8 3.83301 17.833 5.5 29.5
s2.5 25.167 2.5 40.5h155c0 -32.667 -3.66699 -62 -11 -88s-15.333 -48 -24 -66c-10.667 -21.333 -22.334 -40 -35.001 -56v-10l115 -125h-190l-30 35h-10c-12 -8.66699 -25.667 -16.334 -41 -23.001c-13.333 -5.33301 -29.166 -10.333 -47.499 -15s-38.833 -7 -61.5 -7
c-37.333 0 -70.333 4.66699 -99 14s-52.667 22.5 -72 39.5s-34 37.167 -44 60.5s-15 48.666 -15 75.999c0 30 5.66699 55.833 17 77.5s24 39.834 38 54.501c16 17.333 34.333 31.666 55 42.999v10c-10.667 9.33301 -20 20.666 -28 33.999
c-7.33301 11.333 -13.666 25.333 -18.999 42s-8 36.334 -8 59.001s4.66699 44.167 14 64.5s22.5 38.333 39.5 54s37.167 28.167 60.5 37.5s48.666 14 75.999 14zM230.001 250.002l-10 -0.00195312c-6.66699 -5.33301 -12.667 -11.666 -18 -18.999
c-4.66699 -6.66699 -8.66699 -14.5 -12 -23.5s-5 -19.833 -5 -32.5c0 -15.333 6.16699 -28.333 18.5 -39s31.166 -16 56.499 -16c18.667 0 34.334 2.33301 47.001 7c6.66699 2.66699 12.667 5.33398 18 8.00098v10zM240.001 505c0 -9.33301 1.16797 -18 3.50098 -26
s5.16602 -15.333 8.49902 -22c3.33301 -7.33301 7.66602 -14.666 12.999 -21.999h10c6 7.33301 11.667 14.666 17 21.999c4.66699 6.66699 8.83398 14 12.501 22s5.5 16.667 5.5 26c0 12.667 -3.33301 22.5 -10 29.5s-15 10.5 -25 10.5s-18.333 -3.5 -25 -10.5
s-10 -16.833 -10 -29.5z" />
    <glyph glyph-name="quotesingle" unicode="'" horiz-adv-x="250" 
d="M50 710h150l-25 -250h-100z" />
    <glyph glyph-name="parenleft" unicode="(" horiz-adv-x="325" 
d="M295 650c-11.333 0 -22.333 -3.66895 -33 -11.002s-20.334 -21.833 -29.001 -43.5s-15.5 -52 -20.5 -91s-7.5 -90.5 -7.5 -154.5s2.5 -115.5 7.5 -154.5s11.833 -69.333 20.5 -91s18.334 -36.167 29.001 -43.5s21.667 -11 33 -11v-130
c-32.667 0 -63.834 7.66699 -93.501 23s-55.667 40 -78 74s-40.166 78.333 -53.499 133s-20 121.334 -20 200.001s6.66699 145.334 20 200.001s31.166 99 53.499 133s48.333 58.667 78 74s60.834 23 93.501 23v-130z" />
    <glyph glyph-name="parenright" unicode=")" horiz-adv-x="325" 
d="M30 780c32.667 0 63.667 -7.66504 93 -22.998s55.333 -40 78 -74s40.667 -78.333 54 -133s20 -121.334 20 -200.001s-6.66699 -145.334 -20 -200.001s-31.333 -99 -54 -133s-48.667 -58.667 -78 -74s-60.333 -23 -93 -23v130c11.333 0 22.333 3.66699 33 11
s20.334 21.833 29.001 43.5s15.5 52 20.5 91s7.5 90.5 7.5 154.5s-2.5 115.5 -7.5 154.5s-11.833 69.333 -20.5 91s-18.334 36.167 -29.001 43.5s-21.667 11 -33 11v130z" />
    <glyph glyph-name="asterisk" unicode="*" horiz-adv-x="470" 
d="M190 570l-20 140h130l-20 -140l128 63l42 -123l-140 -30l100 -95l-100 -85l-75 130l-75 -130l-100 85l100 95l-140 30l42 123z" />
    <glyph glyph-name="plus" unicode="+" horiz-adv-x="420" 
d="M30 360h110v125h140v-125h110v-130h-110v-125h-140v125h-110v130z" />
    <glyph glyph-name="comma" unicode="," horiz-adv-x="230" 
d="M40 0l0.000976562 149.999h150v-115c0 -32.667 -7 -59 -21 -79s-29.667 -35.667 -47 -47c-20 -13.333 -42.333 -23 -67 -29l-15 50c12 2.66699 23 7.33398 33 14.001c8.66699 5.33301 16.667 12.5 24 21.5s11.666 20.5 12.999 34.5h-70z" />
    <glyph glyph-name="hyphen" unicode="-" horiz-adv-x="350" 
d="M40 360h270v-130h-270v130z" />
    <glyph glyph-name="period" unicode="." horiz-adv-x="230" 
d="M40 150h150v-150h-150v150z" />
    <glyph glyph-name="slash" unicode="/" horiz-adv-x="420" 
d="M180 -130h-150l210 840h150z" />
    <glyph glyph-name="zero" unicode="0" horiz-adv-x="590" 
d="M40 330c0 58.667 6.16699 109.334 18.5 152.001s29.833 78 52.5 106s49.667 48.667 81 62s65.666 20 102.999 20s71.666 -6.66699 102.999 -20s58.166 -34 80.499 -62s39.833 -63.333 52.5 -106s19 -93.334 19 -152.001s-6.33301 -109.334 -19 -152.001
s-30.167 -78 -52.5 -106s-49.166 -48.667 -80.499 -62s-65.666 -20 -102.999 -20s-71.666 6.66699 -102.999 20s-58.333 34 -81 62s-40.167 63.333 -52.5 106s-18.5 93.334 -18.5 152.001zM205 330c0 -38.667 2.5 -70.834 7.5 -96.501s11.833 -46.167 20.5 -61.5
s18.334 -26.166 29.001 -32.499s21.667 -9.5 33 -9.5s22.333 3.16699 33 9.5s20.334 17.166 29.001 32.499s15.5 35.833 20.5 61.5s7.5 57.834 7.5 96.501s-2.5 70.834 -7.5 96.501s-11.833 46.167 -20.5 61.5s-18.334 26.166 -29.001 32.499s-21.667 9.5 -33 9.5
s-22.333 -3.16699 -33 -9.5s-20.334 -17.166 -29.001 -32.499s-15.5 -35.833 -20.5 -61.5s-7.5 -57.834 -7.5 -96.501z" />
    <glyph glyph-name="one" unicode="1" horiz-adv-x="375" 
d="M135 475c-6 -5.33301 -14.002 -9.66797 -24.002 -13.001c-9.33301 -3.33301 -21.166 -6.16602 -35.499 -8.49902s-32.833 -3.5 -55.5 -3.5v110c22 -0.666992 43.333 2.33301 64 9c17.333 5.33301 35.333 14.833 54 28.5s34.334 34.5 47.001 62.5h120v-660h-160v475h-10v0
z" />
    <glyph glyph-name="two" unicode="2" horiz-adv-x="560" 
d="M520 450c0 -20.667 -3.33496 -40.8359 -10.002 -60.5029s-15.334 -38.5 -26.001 -56.5s-23 -35 -37 -51s-28 -30.667 -42 -44c-34 -32 -72.333 -61.333 -115 -88v-10h215v-140h-445v130c54.667 36 103.667 72.667 147 110c18.667 16 36.834 32.833 54.501 50.5
s33.5 35.834 47.5 54.501s25.167 37.334 33.5 56.001s12.5 36.667 12.5 54c0 25.333 -7.5 45.833 -22.5 61.5s-32.5 23.5 -52.5 23.5s-37.5 -7.83301 -52.5 -23.5s-22.5 -36.167 -22.5 -61.5c0 -14 2 -25.667 6 -35s8.66699 -17 14 -23c6 -7.33301 12.667 -13 20 -17
l-100 -100c-20 6.66699 -37.667 17.334 -53 32.001c-13.333 12.667 -25.333 30 -36 52s-16 50.667 -16 86c0 32.667 5.5 62.5 16.5 89.5s26.833 50.167 47.5 69.5s45.834 34.333 75.501 45s63.167 16 100.5 16s70.833 -5.33301 100.5 -16s54.834 -25.667 75.501 -45
s36.5 -42.5 47.5 -69.5s16.5 -56.833 16.5 -89.5z" />
    <glyph glyph-name="three" unicode="3" horiz-adv-x="540" 
d="M220 410l34.999 0.00195312c15.333 0 28.333 5.83301 39 17.5s16 27.5 16 47.5s-5.33301 35.833 -16 47.5s-23.667 17.5 -39 17.5s-28.333 -5.83301 -39 -17.5s-16 -27.5 -16 -47.5c0 -6.66699 0.666992 -12.667 2 -18c0.666992 -2.66699 1.66699 -5 3 -7l-145 -35
c-4 6.66699 -7.33301 13.667 -10 21c-2.66699 6.66699 -5 14.5 -7 23.5s-3 19.167 -3 30.5c0 24.667 4.83301 48 14.5 70s23.834 41.167 42.501 57.5s41.167 29.166 67.5 38.499s56.5 14 90.5 14s64.167 -4.66699 90.5 -14s48.833 -22.166 67.5 -38.499
s32.834 -35.5 42.501 -57.5s14.5 -45.333 14.5 -70c0 -22.667 -4 -41.834 -12 -57.501s-16.667 -28.5 -26 -38.5c-11.333 -12 -23.666 -21.667 -36.999 -29v-10c19.333 -8.66699 36.666 -20 51.999 -34c13.333 -12 25.5 -28 36.5 -48s16.5 -44.333 16.5 -73
c0 -31.333 -5.33301 -59.833 -16 -85.5s-26.167 -47.834 -46.5 -66.501s-45.833 -33 -76.5 -43s-66 -15 -106 -15c-26 0 -49.167 2 -69.5 6s-38.333 9.33301 -54 16s-29.334 14.167 -41.001 22.5s-21.5 16.833 -29.5 25.5c-19.333 20.667 -33 44 -41 70l145 60
c2 -13.333 6.66699 -25 14 -35c6 -9.33301 14.5 -17.5 25.5 -24.5s26.167 -10.5 45.5 -10.5c25.333 0 45.833 7.83301 61.5 23.5s23.5 36.167 23.5 61.5s-7.66699 45.833 -23 61.5s-34.333 23.5 -57 23.5h-35v120z" />
    <glyph glyph-name="four" unicode="4" horiz-adv-x="550" 
d="M290 660h160v-380h80v-140h-80v-140h-160v140h-270v140zM185 280h105v145h-10l-95 -135v-10z" />
    <glyph glyph-name="five" unicode="5" horiz-adv-x="550" 
d="M210 430c6.66699 4 14.0039 7.33301 22.0039 10c7.33301 2.66699 16.166 5 26.499 7s22.5 3 36.5 3c34 0 64.833 -5.5 92.5 -16.5s51.334 -26.5 71.001 -46.5s34.834 -44.167 45.501 -72.5s16 -59.833 16 -94.5c0 -70 -21.833 -125.833 -65.5 -167.5
s-106.834 -62.5 -189.501 -62.5c-26 0 -49.167 2 -69.5 6s-38.333 9.33301 -54 16s-29.334 14.167 -41.001 22.5s-21.5 16.833 -29.5 25.5c-19.333 20.667 -33 44 -41 70l145 60c4 -13.333 9.66699 -25 17 -35c6.66699 -9.33301 15.667 -17.5 27 -24.5
s26.666 -10.5 45.999 -10.5c25.333 0 46.666 9.16699 63.999 27.5s26 42.5 26 72.5s-8.66699 54.167 -26 72.5s-38.666 27.5 -63.999 27.5c-16.667 0 -30.334 -2.83301 -41.001 -8.5s-19.334 -12.167 -26.001 -19.5c-7.33301 -8 -13.333 -17 -18 -27l-130 40l30 355h390
v-140h-260l-10 -90h10z" />
    <glyph glyph-name="six" unicode="6" horiz-adv-x="570" 
d="M290 -10c-36 0 -69.334 6.66895 -100.001 20.002s-57.167 32.833 -79.5 58.5s-39.666 57.167 -51.999 94.5s-18.5 79.666 -18.5 126.999v40c0 58.667 6.16699 109.334 18.5 152.001s29.833 78 52.5 106s49.667 48.667 81 62s65.666 20 102.999 20
c40 0 73.5 -6.83301 100.5 -20.5s49.167 -28.5 66.5 -44.5c20 -19.333 36 -41 48 -65l-135 -65c-5.33301 12 -11.666 22.667 -18.999 32c-6.66699 8 -15.167 15.5 -25.5 22.5s-22.166 10.5 -35.499 10.5c-20 0 -36 -7.83301 -48 -23.5s-21 -32.834 -27 -51.501
c-7.33301 -22 -12.333 -47 -15 -75h10c8 9.33301 17.667 17.666 29 24.999c9.33301 6 21.166 11.667 35.499 17s31.166 8 50.499 8c28.667 0 55.834 -5.66699 81.501 -17s48 -27 67 -47s34 -43.667 45 -71s16.5 -57.333 16.5 -90s-5.83301 -62.667 -17.5 -90
s-28.167 -51 -49.5 -71s-47.5 -35.667 -78.5 -47s-65.833 -17 -104.5 -17zM294.999 120.002c22.667 0 42.5 8.83496 59.5 26.502s25.5 40.5 25.5 68.5s-8.5 50.833 -25.5 68.5s-36.833 26.5 -59.5 26.5c-10 0 -19.833 -2.33301 -29.5 -7s-18.167 -11.334 -25.5 -20.001
s-13.333 -18.667 -18 -30s-7 -24 -7 -38s2.33301 -26.667 7 -38s10.667 -21.333 18 -30s15.833 -15.334 25.5 -20.001s19.5 -7 29.5 -7z" />
    <glyph glyph-name="seven" unicode="7" horiz-adv-x="490" 
d="M480 520c-34 -42.667 -64.9971 -90.667 -92.9971 -144c-24 -46 -47.167 -100.667 -69.5 -164s-36.5 -134 -42.5 -212h-180c6.66699 38.667 15.167 75.667 25.5 111s21.666 68.5 33.999 99.5s25.166 60 38.499 87s26.666 51.5 39.999 73.5c30.667 52 63 98.333 97 139v10
h-150v-90h-150v230h450v-140z" />
    <glyph glyph-name="eight" unicode="8" horiz-adv-x="550" 
d="M60 490c0 24.667 4.83105 48 14.498 70s23.834 41.167 42.501 57.5s41.167 29.166 67.5 38.499s56.5 14 90.5 14s64.167 -4.66699 90.5 -14s48.833 -22.166 67.5 -38.499s32.834 -35.5 42.501 -57.5s14.5 -45.333 14.5 -70c0 -22.667 -4 -41.834 -12 -57.501
s-16.667 -28.5 -26 -38.5c-11.333 -12 -23.666 -21.667 -36.999 -29v-10c19.333 -8 36.666 -19 51.999 -33c13.333 -12 25.5 -27.833 36.5 -47.5s16.5 -44.5 16.5 -74.5c0 -31.333 -5.33301 -59.833 -16 -85.5s-26.167 -47.834 -46.5 -66.501s-45.833 -33 -76.5 -43
s-66 -15 -106 -15s-75.333 5 -106 15s-56.167 24.333 -76.5 43s-35.833 40.834 -46.5 66.501s-16 54.167 -16 85.5c0 30 5.33301 54.833 16 74.5s22.667 35.5 36 47.5c15.333 14 33 25 53 33v10c-14 7.33301 -26.667 17 -38 29c-9.33301 10 -17.833 22.833 -25.5 38.5
s-11.5 34.834 -11.5 57.501zM194.998 205c0 -25.333 7.66699 -45.833 23 -61.5s34.333 -23.5 57 -23.5s41.667 7.83301 57 23.5s23 36.167 23 61.5s-7.66699 45.833 -23 61.5s-34.333 23.5 -57 23.5s-41.667 -7.83301 -57 -23.5s-23 -36.167 -23 -61.5zM219.998 475
c0 -20 5.33301 -35.833 16 -47.5s23.667 -17.5 39 -17.5s28.333 5.83301 39 17.5s16 27.5 16 47.5s-5.33301 35.833 -16 47.5s-23.667 17.5 -39 17.5s-28.333 -5.83301 -39 -17.5s-16 -27.5 -16 -47.5z" />
    <glyph glyph-name="nine" unicode="9" horiz-adv-x="570" 
d="M280 670c36 0 69.333 -6.66797 100 -20.001s57.167 -32.833 79.5 -58.5s39.666 -57.167 51.999 -94.5s18.5 -79.666 18.5 -126.999v-40c0 -58.667 -6.33301 -109.334 -19 -152.001s-30.167 -78 -52.5 -106s-49.166 -48.667 -80.499 -62s-65.666 -20 -102.999 -20
c-40 0 -73.667 6.66699 -101 20s-49.666 28.333 -66.999 45c-20 18.667 -35.667 40.334 -47 65.001l135 65c5.33301 -12.667 11.666 -23.667 18.999 -33c6.66699 -8 15 -15.333 25 -22s22 -10 36 -10c20 0 35.833 7.66699 47.5 23s20.834 32.666 27.501 51.999
c7.33301 22 12.333 47 15 75h-10c-8 -9.33301 -17.667 -17.666 -29 -24.999c-9.33301 -6.66699 -21.333 -12.5 -36 -17.5s-31.334 -7.5 -50.001 -7.5c-28.667 0 -55.834 5.66699 -81.501 17s-48 27 -67 47s-34 43.667 -45 71s-16.5 57.333 -16.5 90s5.83301 62.667 17.5 90
s28.167 51 49.5 71s47.5 35.667 78.5 47s65.833 17 104.5 17zM275 539.999c-22.667 0 -42.5 -8.83496 -59.5 -26.502s-25.5 -40.5 -25.5 -68.5s8.5 -50.833 25.5 -68.5s36.833 -26.5 59.5 -26.5c10 0 19.833 2.33301 29.5 7s18.167 11.334 25.5 20.001s13.333 18.667 18 30
s7 24 7 38s-2.33301 26.667 -7 38s-10.667 21.333 -18 30s-15.833 15.334 -25.5 20.001s-19.5 7 -29.5 7z" />
    <glyph glyph-name="colon" unicode=":" horiz-adv-x="230" 
d="M40 150h150v-150h-150v150zM40 490h150v-150h-150v150z" />
    <glyph glyph-name="semicolon" unicode=";" horiz-adv-x="230" 
d="M40 0l0.000976562 149.999h150v-115c0 -32.667 -7 -59 -21 -79s-29.667 -35.667 -47 -47c-20 -13.333 -42.333 -23 -67 -29l-15 50c12 2.66699 23 7.33398 33 14.001c8.66699 5.33301 16.667 12.5 24 21.5s11.666 20.5 12.999 34.5h-70zM40.001 489.999h150v-150h-150
v150z" />
    <glyph glyph-name="less" unicode="&#x3c;" horiz-adv-x="410" 
d="M370 60l-330 160v120l330 160v-140l-180 -75v-10l180 -75v-140z" />
    <glyph glyph-name="equal" unicode="=" horiz-adv-x="420" 
d="M30 470h360v-130h-360v130zM30 260h360v-130h-360v130z" />
    <glyph glyph-name="greater" unicode="&#x3e;" horiz-adv-x="410" 
d="M40 200l180 75v10l-180 75v140l330 -160v-120l-330 -160v140z" />
    <glyph glyph-name="question" unicode="?" horiz-adv-x="540" 
d="M160 420c7.33301 -2 15.334 -3.66699 24.001 -5c16.667 -3.33301 37 -5 61 -5c32.667 0 57.5 7.83301 74.5 23.5s25.5 36.167 25.5 61.5s-7.66699 45.833 -23 61.5s-34.333 23.5 -57 23.5s-41.667 -7.83301 -57 -23.5s-23 -36.167 -23 -61.5h-165
c0 31.333 5.5 60.166 16.5 86.499s27 49 48 68s46.667 33.833 77 44.5s64.833 16 103.5 16s73.167 -5.33301 103.5 -16s56 -25.5 77 -44.5s37 -41.667 48 -68s16.5 -55.166 16.5 -86.499c0 -21.333 -3 -40.333 -9 -57s-14 -31.167 -24 -43.5s-21.333 -23.166 -34 -32.499
s-25.334 -17 -38.001 -23c-31.333 -14.667 -66.333 -24.334 -105 -29.001l-5 -90h-120zM160.001 150h150v-150h-150v150z" />
    <glyph glyph-name="at" unicode="@" horiz-adv-x="760" 
d="M455 200c-6 -6.66699 -13.6641 -12.665 -22.9971 -17.998c-8 -4.66699 -18 -8.66699 -30 -12s-26 -5 -42 -5c-18.667 0 -36.5 4 -53.5 12s-31.833 19.833 -44.5 35.5s-22.834 35 -30.501 58s-11.5 49.5 -11.5 79.5s3.66699 56.5 11 79.5s17.166 42.333 29.499 58
s26.333 27.5 42 35.5s31.5 12 47.5 12c13.333 0 25.333 -1.83301 36 -5.5s19.667 -7.83398 27 -12.501c8 -5.33301 15.333 -11 22 -17h10v30h90v-270h15c15.333 0 29.166 8.33301 41.499 25s18.5 45 18.5 85c0 36 -5.66699 68.833 -17 98.5s-26.833 55 -46.5 76
s-42.834 37.167 -69.501 48.5s-55.667 17 -87 17c-34 0 -65.5 -6.33301 -94.5 -19s-54.333 -30.334 -76 -53.001s-38.667 -50 -51 -82s-18.5 -67.333 -18.5 -106s6.16699 -74 18.5 -106s29.333 -59.333 51 -82s47 -40.334 76 -53.001s60.5 -19 94.5 -19
c22.667 0 42.667 2.33301 60 7s32 9.66699 44 15c14 6.66699 26 14.334 36 23.001l50 -85c-15.333 -11.333 -32.666 -21.333 -51.999 -30c-16.667 -7.33301 -36.667 -14.166 -60 -20.499s-49.333 -9.5 -78 -9.5c-46 0 -89.667 9.16699 -131 27.5s-77.5 43.5 -108.5 75.5
s-55.5 70 -73.5 114s-27 91.667 -27 143s9 99 27 143s42.5 82 73.5 114s67.167 57.167 108.5 75.5s85 27.5 131 27.5c44 0 85.333 -8.5 124 -25.5s72.5 -40.667 101.5 -71s52 -66.333 69 -108s25.5 -86.834 25.5 -135.501c0 -32.667 -4.33301 -61.667 -13 -87
s-20.167 -46.833 -34.5 -64.5s-30.833 -31 -49.5 -40s-38 -13.5 -58 -13.5c-16.667 0 -30.5 1.66699 -41.5 5s-20.167 7.33301 -27.5 12c-8 5.33301 -15 11.333 -21 18h-10zM390.003 440.002c-15.333 0 -29.166 -7.5 -41.499 -22.5s-18.5 -37.5 -18.5 -67.5
s6.16699 -52.5 18.5 -67.5s26.166 -22.5 41.499 -22.5c7.33301 0 13.833 1 19.5 3s10.5 4.33301 14.5 7s7.66699 6 11 10v140c-3.33301 4 -7 7.33301 -11 10s-8.83301 5 -14.5 7s-12.167 3 -19.5 3z" />
    <glyph glyph-name="A" unicode="A" horiz-adv-x="640" 
d="M630 0h-165l-40 130h-210l-40 -130h-165l240 700h140zM250 260h140l-65 210h-10z" />
    <glyph glyph-name="B" unicode="B" horiz-adv-x="655" 
d="M625 220c0 -31.333 -5.83008 -60.3291 -17.4971 -86.9961s-28.834 -49.834 -51.501 -69.501s-50.334 -35.167 -83.001 -46.5s-70.334 -17 -113.001 -17h-290v685c18 4.66699 39.667 8.66699 65 12c21.333 3.33301 47.5 6.33301 78.5 9s66.5 4 106.5 4
c47.333 0 88.333 -5 123 -15s63.167 -24 85.5 -42s39 -39.167 50 -63.5s16.5 -50.833 16.5 -79.5c0 -24 -4.16699 -44.333 -12.5 -61s-17.5 -30.667 -27.5 -42c-12 -12.667 -25.333 -23.334 -40 -32.001v-10c20 -6.66699 38.333 -16.334 55 -29.001
c13.333 -11.333 25.833 -26.333 37.5 -45s17.5 -42.334 17.5 -71.001zM460.003 220.004c0 25.333 -7.5 45 -22.5 59s-37.5 21 -67.5 21h-140v-160h140c30 0 52.5 7 67.5 21s22.5 33.667 22.5 59zM430.003 505.004c0 20 -8.33301 36.667 -25 50s-45 20 -85 20
c-12.667 0 -24.5 -0.5 -35.5 -1.5s-20.5 -2.16699 -28.5 -3.5c-9.33301 -2 -18 -3.66699 -26 -5v-125h120c28 0 48.333 5.83301 61 17.5s19 27.5 19 47.5z" />
    <glyph glyph-name="C" unicode="C" horiz-adv-x="665" 
d="M645 115c-20 -24 -43.333 -44.998 -70 -62.998c-23.333 -15.333 -52 -29.5 -86 -42.5s-73.667 -19.5 -119 -19.5s-88 8.83301 -128 26.5s-75 42.5 -105 74.5s-53.667 70 -71 114s-26 92.333 -26 145s8.66699 101 26 145s41 82 71 114s65 56.833 105 74.5
s82.667 26.5 128 26.5c42.667 0 80.167 -5.83301 112.5 -17.5s59.5 -24.167 81.5 -37.5c26 -16.667 48 -35 66 -55l-100 -105c-10.667 13.333 -23.334 25.666 -38.001 36.999c-12.667 9.33301 -28.167 18 -46.5 26s-40.166 12 -65.499 12c-24 0 -46.5 -4.83301 -67.5 -14.5
s-39.5 -24 -55.5 -43s-28.667 -42.167 -38 -69.5s-14 -58.333 -14 -93c0 -35.333 4.66699 -66.5 14 -93.5s22 -50 38 -69s34.5 -33.333 55.5 -43s43.5 -14.5 67.5 -14.5c28 0 51.833 4.66699 71.5 14s36.167 19.666 49.5 30.999c15.333 12.667 28.333 27.667 39 45z" />
    <glyph glyph-name="D" unicode="D" horiz-adv-x="670" 
d="M70 685c17.333 4.66699 37 8.66797 59 12.001c19.333 3.33301 42.5 6.33301 69.5 9s57.5 4 91.5 4c47.333 0 91.666 -8.83301 132.999 -26.5s77.333 -42.5 108 -74.5s54.834 -70 72.501 -114s26.5 -92.333 26.5 -145s-8.5 -100.5 -25.5 -143.5
s-40.333 -79.833 -70 -110.5s-64.667 -54.334 -105 -71.001s-83.5 -25 -129.5 -25h-230v685zM465 350.001c0 34.667 -4.66504 65.667 -13.998 93s-22 50.5 -38 69.5s-34.5 33.333 -55.5 43s-43.5 14.5 -67.5 14.5c-11.333 0 -20.833 -0.5 -28.5 -1.5
s-13.834 -2.16699 -18.501 -3.5l-13 -5v-430h70c21.333 0 41.833 4.83301 61.5 14.5s37.167 24 52.5 43s27.666 42 36.999 69s14 58.167 14 93.5z" />
    <glyph glyph-name="E" unicode="E" horiz-adv-x="580" 
d="M70 700h460v-140h-300v-90h240v-140h-240v-190h320v-140h-480v700z" />
    <glyph glyph-name="F" unicode="F" horiz-adv-x="530" 
d="M70 700h440v-140h-280v-90h210v-140h-210v-330h-160v700z" />
    <glyph glyph-name="G" unicode="G" horiz-adv-x="700" 
d="M640 0l-144.996 0.000976562v40h-10c-10 -9.33301 -21.333 -17.666 -34 -24.999c-11.333 -6.66699 -25.333 -12.5 -42 -17.5s-36.334 -7.5 -59.001 -7.5c-40 0 -78.667 8.83301 -116 26.5s-70.333 42.5 -99 74.5s-51.667 70 -69 114s-26 92.333 -26 145
s8.66699 101 26 145s41 82 71 114s65 56.833 105 74.5s82.667 26.5 128 26.5c42.667 0 80.167 -5.83301 112.5 -17.5s59.5 -24.167 81.5 -37.5c26 -16.667 48 -35 66 -55l-100 -105c-10.667 13.333 -23.334 25.666 -38.001 36.999c-12.667 9.33301 -28.334 18 -47.001 26
s-40.334 12 -65.001 12c-24 0 -46.5 -4.83301 -67.5 -14.5s-39.5 -24 -55.5 -43s-28.667 -42.167 -38 -69.5s-14 -58.333 -14 -93c0 -35.333 4.66699 -66.5 14 -93.5s21.666 -50 36.999 -69s32.833 -33.333 52.5 -43s40.167 -14.5 61.5 -14.5c17.333 0 33.333 2.66699 48 8
s27.334 11.666 38.001 18.999c12 8 23.333 17.333 34 28v95h-150v125h300v-405z" />
    <glyph glyph-name="H" unicode="H" horiz-adv-x="680" 
d="M230 470h220v230h160v-700h-160v330h-220v-330h-160v700h160v-230z" />
    <glyph glyph-name="I" unicode="I" horiz-adv-x="300" 
d="M230 0h-160v700h160v-700z" />
    <glyph glyph-name="J" unicode="J" horiz-adv-x="355" 
d="M20 150l70.002 -0.000976562c15.333 0 26.666 4.33301 33.999 13s11 24.334 11 47.001v490h160v-540c0 -24 -3.83301 -45.833 -11.5 -65.5s-18.334 -36.5 -32.001 -50.5s-30 -24.833 -49 -32.5s-39.833 -11.5 -62.5 -11.5h-120v150z" />
    <glyph glyph-name="K" unicode="K" horiz-adv-x="650" 
d="M285 325l-55 -55v-270h-160v700h160v-230h10l200 230h190l-235 -265l255 -435h-180z" />
    <glyph glyph-name="L" unicode="L" horiz-adv-x="490" 
d="M70 700h160v-560h240v-140h-400v700z" />
    <glyph glyph-name="M" unicode="M" horiz-adv-x="750" 
d="M680 0h-160v395h-10l-80 -145h-110l-80 145h-10v-395h-160v700h145l155 -270h10l155 270h145v-700z" />
    <glyph glyph-name="N" unicode="N" horiz-adv-x="720" 
d="M240 400h-10v-400h-160v700h145l265 -400h10v400h160v-700h-145z" />
    <glyph glyph-name="O" unicode="O" horiz-adv-x="740" 
d="M40 350c0 52.667 8.66699 101 26 145s41 82 71 114s65 56.833 105 74.5s82.667 26.5 128 26.5c44.667 0 87 -8.83301 127 -26.5s75 -42.5 105 -74.5s53.833 -70 71.5 -114s26.5 -92.333 26.5 -145s-8.83301 -101 -26.5 -145s-41.5 -82 -71.5 -114s-65 -56.833 -105 -74.5
s-82.333 -26.5 -127 -26.5c-45.333 0 -88 8.83301 -128 26.5s-75 42.5 -105 74.5s-53.667 70 -71 114s-26 92.333 -26 145zM205 350c0 -35.333 4.66699 -66.5 14 -93.5s21.666 -50 36.999 -69s32.833 -33.333 52.5 -43s40.167 -14.5 61.5 -14.5s41.833 4.83301 61.5 14.5
s37.167 24 52.5 43s27.666 42 36.999 69s14 58.167 14 93.5c0 34.667 -4.66699 65.667 -14 93s-21.666 50.5 -36.999 69.5s-32.833 33.333 -52.5 43s-40.167 14.5 -61.5 14.5s-41.833 -4.83301 -61.5 -14.5s-37.167 -24 -52.5 -43s-27.666 -42.167 -36.999 -69.5
s-14 -58.333 -14 -93z" />
    <glyph glyph-name="P" unicode="P" horiz-adv-x="655" 
d="M70 685c18 4.66699 38.334 8.66699 61.001 12c19.333 3.33301 43.166 6.33301 71.499 9s60.833 4 97.5 4c51.333 0 97.166 -7 137.499 -21s74.333 -33.167 102 -57.5s48.834 -53 63.501 -86s22 -68.167 22 -105.5s-7.33301 -72.5 -22 -105.5s-35.5 -61.667 -62.5 -86
s-60 -43.5 -99 -57.5s-82.833 -21 -131.5 -21h-80v-170h-160v685zM460.001 440c0 18.667 -3.66699 36.168 -11 52.501s-17.833 30.666 -31.5 42.999s-30.5 22 -50.5 29s-42.333 10.5 -67 10.5c-11.333 0 -21.333 -0.5 -30 -1.5s-16 -2.16699 -22 -3.5l-18 -5v-265h80
c22.667 0 43.167 3.5 61.5 10.5s34 16.833 47 29.5s23.167 27.5 30.5 44.5s11 35.5 11 55.5z" />
    <glyph glyph-name="Q" unicode="Q" horiz-adv-x="740" 
d="M40 350c0 52.667 8.66699 101.002 26 145.002s41 82 71 114s65 56.833 105 74.5s82.667 26.5 128 26.5c44.667 0 87 -8.83301 127 -26.5s75 -42.5 105 -74.5s53.833 -70 71.5 -114s26.5 -92.333 26.5 -145c0 -44 -5.5 -82.5 -16.5 -115.5s-23.167 -60.5 -36.5 -82.5
c-15.333 -26 -32.666 -48.333 -51.999 -67c1.33301 -2.66699 3.33301 -5.33398 6 -8.00098c6 -4.66699 15.667 -7 29 -7h50l-20 -140h-50c-24 0 -44.333 3.83301 -61 11.5s-30.667 16.167 -42 25.5c-12.667 11.333 -23.334 24 -32.001 38
c-8 -2.66699 -17.333 -5.33398 -28 -8.00098c-9.33301 -2 -20.5 -3.66699 -33.5 -5s-27.5 -2 -43.5 -2c-45.333 0 -88 8.83301 -128 26.5s-75 42.5 -105 74.5s-53.667 70 -71 114s-26 92.333 -26 145zM205 350.002c0 -35.333 4.66504 -66.501 13.998 -93.501
s21.666 -50 36.999 -69s32.833 -33.333 52.5 -43s40.167 -14.5 61.5 -14.5c18.667 0 33.667 1.66699 45 5c6 1.33301 11 3 15 5c-2.66699 4 -5.66699 7.33301 -9 10s-7.5 5 -12.5 7s-11.167 3 -18.5 3h-40l20 140h40c18.667 0 34.834 -2.5 48.501 -7.5
s25.167 -10.167 34.5 -15.5c10.667 -6.66699 19.667 -14 27 -22c2 6 4.33301 13.667 7 23c2 8 3.83301 17.833 5.5 29.5s2.5 25.834 2.5 42.501c0 34.667 -4.66699 65.667 -14 93s-21.666 50.5 -36.999 69.5s-32.833 33.333 -52.5 43s-40.167 14.5 -61.5 14.5
s-41.833 -4.83301 -61.5 -14.5s-37.167 -24 -52.5 -43s-27.666 -42.167 -36.999 -69.5s-14 -58.333 -14 -93z" />
    <glyph glyph-name="R" unicode="R" horiz-adv-x="685" 
d="M370 190h-139.999v-190h-160v685c18 4.66699 39.667 8.66699 65 12c21.333 3.33301 47.5 6.33301 78.5 9s66.5 4 106.5 4c52.667 0 99.167 -6.66699 139.5 -20s74.166 -31.833 101.499 -55.5s48.166 -51.334 62.499 -83.001s21.5 -65.5 21.5 -101.5
c0 -39.333 -6.66699 -72.166 -20 -98.499s-27.666 -47.833 -42.999 -64.5c-18 -19.333 -38.667 -35 -62 -47v-10l125 -230h-175zM480.001 450c0 35.333 -13.502 65 -40.502 89s-66.833 36 -119.5 36c-15.333 0 -28.666 -0.5 -39.999 -1.5s-20.666 -2.16699 -27.999 -3.5
l-22 -5v-245h110c42.667 0 76.667 12.167 102 36.5s38 55.5 38 93.5z" />
    <glyph glyph-name="S" unicode="S" horiz-adv-x="630" 
d="M210 510c0 -16 5.66602 -28.8311 16.999 -38.498s26 -17.667 44 -24s38.667 -11.666 62 -15.999s47.333 -9.5 72 -15.5s48.667 -13.5 72 -22.5s44 -21.333 62 -37s32.667 -35.334 44 -59.001s17 -52.834 17 -87.501c0 -31.333 -6 -60.333 -18 -87
s-30 -49.834 -54 -69.501s-54.167 -35.167 -90.5 -46.5s-78.833 -17 -127.5 -17c-49.333 0 -92 6.5 -128 19.5s-66 27.167 -90 42.5c-28 18 -52 39 -72 63l105 105c10.667 -17.333 25 -32.333 43 -45c15.333 -11.333 35.333 -21.666 60 -30.999s55.334 -14 92.001 -14
c40 0 69.167 7.33301 87.5 22s27.5 30.667 27.5 48c0 16 -5.66699 28.833 -17 38.5s-26 17.667 -44 24s-38.667 11.666 -62 15.999s-47.333 9.5 -72 15.5s-48.667 13.5 -72 22.5s-44 21.333 -62 37s-32.667 35.167 -44 58.5s-17 52.666 -17 87.999
c0 28.667 5.83301 55.834 17.5 81.501s28.667 48 51 67s50 34 83 45s70.833 16.5 113.5 16.5s80.167 -5.83301 112.5 -17.5s59.5 -24.167 81.5 -37.5c26 -16.667 48 -35 66 -55l-100 -105c-10.667 13.333 -24 25.666 -40 36.999c-14 9.33301 -31.667 18 -53 26
s-47 12 -77 12s-52.5 -6.16699 -67.5 -18.5s-22.5 -26.166 -22.5 -41.499z" />
    <glyph glyph-name="T" unicode="T" 
d="M340 0h-160v560h-150v140h460v-140h-150v-560z" />
    <glyph glyph-name="U" unicode="U" horiz-adv-x="680" 
d="M455 700h159.998v-480c0 -32.667 -6.16699 -63 -18.5 -91s-30.166 -52.333 -53.499 -73s-52 -36.834 -86 -48.501s-73 -17.5 -117 -17.5s-83 5.83301 -117 17.5s-62.667 27.834 -86 48.501s-41.166 45 -53.499 73s-18.5 58.333 -18.5 91v480h160v-480
c0 -28 10.333 -51.667 31 -71s48.667 -29 84 -29s63.333 9.66699 84 29s31 43 31 71v480z" />
    <glyph glyph-name="V" unicode="V" horiz-adv-x="600" 
d="M10 700h165l120 -440h10l120 440h165l-220 -700h-140z" />
    <glyph glyph-name="W" unicode="W" horiz-adv-x="920" 
d="M10 700h165l120 -395h10l80 225l-55 170h165l120 -395h10l120 395h165l-220 -700h-130l-95 290h-10l-95 -290h-130z" />
    <glyph glyph-name="X" unicode="X" horiz-adv-x="580" 
d="M295 215h-10l-110 -215h-165l195 370l-175 330h165l90 -180h10l90 180h165l-175 -330l195 -370h-165z" />
    <glyph glyph-name="Y" unicode="Y" horiz-adv-x="560" 
d="M395 700h165l-200 -385v-315h-160v315l-200 385h165l110 -230h10z" />
    <glyph glyph-name="Z" unicode="Z" horiz-adv-x="550" 
d="M20 140l295 410v10h-265v140h470v-140l-295 -410v-10h295v-140h-500v140z" />
    <glyph glyph-name="bracketleft" unicode="[" horiz-adv-x="400" 
d="M80 780h280v-130h-130v-600h130v-130h-280v860z" />
    <glyph glyph-name="backslash" unicode="\" horiz-adv-x="420" 
d="M30 710h150l210 -840h-150z" />
    <glyph glyph-name="bracketright" unicode="]" horiz-adv-x="400" 
d="M320 -80h-280v130h130v600h-130v130h280v-860z" />
    <glyph glyph-name="asciicircum" unicode="^" horiz-adv-x="510" 
d="M480 370h-150l-75 205l-75 -205h-150l150 330h150z" />
    <glyph glyph-name="underscore" unicode="_" horiz-adv-x="410" 
d="M0 -80h410v-130h-410v130z" />
    <glyph glyph-name="grave" unicode="`" horiz-adv-x="280" 
d="M250 590h-110l-110 140h160z" />
    <glyph glyph-name="a" unicode="a" 
d="M320 35c-8 -8.66699 -17.333 -16.3359 -28 -23.0029c-9.33301 -5.33301 -20.5 -10.333 -33.5 -15s-27.5 -7 -43.5 -7c-24 0 -47 5.5 -69 16.5s-41.667 27.333 -59 49s-31.166 48.334 -41.499 80.001s-15.5 68.167 -15.5 109.5s5.16699 77.833 15.5 109.5
s23.666 58.334 39.999 80.001s35 38 56 49s42.167 16.5 63.5 16.5c16 0 30.5 -2.5 43.5 -7.5s24.167 -10.167 33.5 -15.5c10.667 -6.66699 20 -14 28 -22h10v35h150v-320c0 -20 1 -40.167 3 -60.5s4.33301 -38.5 7 -54.5c2.66699 -19.333 6 -37.666 10 -54.999h-150l-10 35
h-10zM265 119.998c10 0 18.333 1.50098 25 4.50098s12.334 6.5 17.001 10.5c5.33301 4 9.66602 9 12.999 15v190c-3.33301 5.33301 -7.66602 10.333 -12.999 15c-4.66699 3.33301 -10.334 6.66602 -17.001 9.99902s-15 5 -25 5c-20 0 -38.333 -10.167 -55 -30.5
s-25 -51.833 -25 -94.5s8.33301 -74.167 25 -94.5s35 -30.5 55 -30.5z" />
    <glyph glyph-name="b" unicode="b" horiz-adv-x="530" 
d="M210 455l10.001 0.000976562c8 8 17.333 15.333 28 22c9.33301 5.33301 20.333 10.5 33 15.5s27.334 7.5 44.001 7.5c21.333 0 42.5 -5.5 63.5 -16.5s39.667 -27.333 56 -49s29.666 -48.334 39.999 -80.001s15.5 -68.167 15.5 -109.5c0 -36 -6.5 -69.667 -19.5 -101
s-30.5 -58.333 -52.5 -81s-47.833 -40.5 -77.5 -53.5s-61.5 -19.5 -95.5 -19.5c-32 0 -59.833 2 -83.5 6s-43.834 8.66699 -60.501 14c-19.333 6 -36.333 12.667 -51 20v670h150v-245zM210.001 130.001c2.66699 -2 6.33398 -3.66797 11.001 -5.00098
c8 -3.33301 19.333 -5 34 -5c25.333 0 46.666 10.167 63.999 30.5s26 51.833 26 94.5s-8.33301 74.167 -25 94.5s-35 30.5 -55 30.5c-10 0 -18.5 -1.66699 -25.5 -5s-12.833 -6.66602 -17.5 -9.99902c-5.33301 -4.66699 -9.33301 -9.66699 -12 -15v-210z" />
    <glyph glyph-name="c" unicode="c" horiz-adv-x="480" 
d="M465 100c-12 -20.667 -27.334 -38.999 -46.001 -54.999c-16 -14 -36.667 -26.667 -62 -38s-56 -17 -92 -17c-31.333 0 -61.166 6.5 -89.499 19.5s-53.333 30.833 -75 53.5s-38.834 49.667 -51.501 81s-19 65 -19 101s6.33301 69.667 19 101s29.834 58.333 51.501 81
s46.667 40.5 75 53.5s58.166 19.5 89.499 19.5c34 0 63.167 -5.16699 87.5 -15.5s44.5 -21.833 60.5 -34.5c18.667 -14.667 34.334 -31.334 47.001 -50.001l-105 -85c-5.33301 10 -11.666 19 -18.999 27c-6.66699 7.33301 -15.167 13.833 -25.5 19.5
s-22.166 8.5 -35.499 8.5c-25.333 0 -46.666 -10.167 -63.999 -30.5s-26 -51.833 -26 -94.5s8.66699 -74.167 26 -94.5s38.666 -30.5 63.999 -30.5c15.333 0 28.166 3.33301 38.499 10s19.166 14 26.499 22c8 9.33301 14.667 20.333 20 33z" />
    <glyph glyph-name="d" unicode="d" horiz-adv-x="530" 
d="M320 700l150 -0.000976562v-700h-150v35h-10c-8 -8.66699 -17.333 -16.334 -28 -23.001c-9.33301 -5.33301 -20.5 -10.333 -33.5 -15s-27.5 -7 -43.5 -7c-21.333 0 -42.5 5.5 -63.5 16.5s-39.667 27.333 -56 49s-29.666 48.334 -39.999 80.001s-15.5 68.167 -15.5 109.5
s5.16699 77.833 15.5 109.5s23.666 58.334 39.999 80.001s35 38 56 49s42.167 16.5 63.5 16.5c16 0 30.5 -2.5 43.5 -7.5s24.167 -10.167 33.5 -15.5c10.667 -6.66699 20 -14 28 -22h10v245zM265 119.999c10 0 18.333 1.50098 25 4.50098s12.334 6.5 17.001 10.5
c5.33301 4 9.66602 9 12.999 15v190c-3.33301 5.33301 -7.66602 10.333 -12.999 15c-4.66699 3.33301 -10.334 6.66602 -17.001 9.99902s-15 5 -25 5c-20 0 -38.333 -10.167 -55 -30.5s-25 -51.833 -25 -94.5s8.33301 -74.167 25 -94.5s35 -30.5 55 -30.5z" />
    <glyph glyph-name="e" unicode="e" 
d="M175 210c2 -17.333 6.66699 -32.3359 14 -45.0029c6.66699 -11.333 16.667 -21.666 30 -30.999s32 -14 56 -14c15.333 0 27.833 2.5 37.5 7.5s17.834 10.833 24.501 17.5c7.33301 7.33301 13.333 15.666 18 24.999l110 -60c-13.333 -22.667 -29.666 -42.667 -48.999 -60
c-16.667 -15.333 -37.5 -29.166 -62.5 -41.499s-54.5 -18.5 -88.5 -18.5c-31.333 0 -61.166 6.5 -89.499 19.5s-53.333 30.833 -75 53.5s-38.834 49.667 -51.501 81s-19 65 -19 101s6.33301 69.667 19 101s29.834 58.333 51.501 81s46.667 40.5 75 53.5
s58.166 19.5 89.499 19.5c30 0 58.667 -6.33301 86 -19s51.166 -30.167 71.499 -52.5s36.666 -49.166 48.999 -80.499s18.5 -65.666 18.5 -102.999v-35h-315zM260 369.997c-15.333 0 -28.166 -3.16699 -38.499 -9.5s-18.5 -13.166 -24.5 -20.499
c-7.33301 -8.66699 -13 -18.667 -17 -30h160c-4.66699 11.333 -10.667 21.333 -18 30c-6.66699 7.33301 -14.834 14.166 -24.501 20.499s-22.167 9.5 -37.5 9.5z" />
    <glyph glyph-name="f" unicode="f" horiz-adv-x="340" 
d="M30 490l60 0.000976562v60c0 45.333 13.5 81.666 40.5 108.999s61.833 41 104.5 41h75v-125h-15c-17.333 0 -30.833 -5.33301 -40.5 -16s-14.5 -28.667 -14.5 -54v-15h70v-110h-70v-380h-150v380h-60v110z" />
    <glyph glyph-name="g" unicode="g" horiz-adv-x="525" 
d="M320 490l149.997 0.000976562v-385c0 -35.333 -6.16699 -67.833 -18.5 -97.5s-29.166 -55.5 -50.499 -77.5s-46.166 -39.167 -74.499 -51.5s-58.833 -18.5 -91.5 -18.5c-24 0 -45.5 1.16699 -64.5 3.5s-35.167 5.16602 -48.5 8.49902c-16 3.33301 -30 7.66602 -42 12.999
l30 125c8.66699 -4 18.334 -7.33301 29.001 -10c8.66699 -2.66699 18.667 -5 30 -7s23.333 -3 36 -3c38 0 66.667 8.83301 86 26.5s29 40.5 29 68.5h-10c-8 -8.66699 -17.333 -16.334 -28 -23.001c-9.33301 -5.33301 -20.5 -10.333 -33.5 -15s-27.5 -7 -43.5 -7
c-22.667 0 -44.5 5.16699 -65.5 15.5s-39.667 25.333 -56 45s-29.333 43.834 -39 72.501s-14.5 61 -14.5 97s4.83301 68.333 14.5 97s22.667 52.834 39 72.501s35 34.667 56 45s42.833 15.5 65.5 15.5c16 0 30.5 -2.5 43.5 -7.5s24.167 -10.167 33.5 -15.5
c10.667 -6.66699 20 -14 28 -22h10v35zM264.997 170.001c10 0 18.333 1.50098 25 4.50098s12.334 6.5 17.001 10.5c5.33301 4 9.66602 9 12.999 15v140c-3.33301 5.33301 -7.66602 10.333 -12.999 15c-4.66699 3.33301 -10.334 6.66602 -17.001 9.99902s-15 5 -25 5
c-22.667 0 -41.667 -8.5 -57 -25.5s-23 -41.833 -23 -74.5s7.66699 -57.5 23 -74.5s34.333 -25.5 57 -25.5z" />
    <glyph glyph-name="h" unicode="h" 
d="M315 305c0 43.333 -18.334 64.998 -55.001 64.998c-10 0 -18.5 -1.66699 -25.5 -5s-12.833 -6.66602 -17.5 -9.99902c-5.33301 -4.66699 -9.33301 -9.66699 -12 -15v-340h-150v700h150v-245h10c8 8 17.333 15.333 28 22c9.33301 5.33301 20.333 10.5 33 15.5
s27.334 7.5 44.001 7.5c42.667 0 77.5 -13.667 104.5 -41s40.5 -63.666 40.5 -108.999v-350h-150v305z" />
    <glyph glyph-name="i" unicode="i" horiz-adv-x="260" 
d="M55 490h150v-490h-150v490zM55 730h150v-140h-150v140z" />
    <glyph glyph-name="j" unicode="j" horiz-adv-x="265" 
d="M60 730h150v-140h-150v140zM60 490l150 -0.000976562v-470c0 -45.333 -13.5 -81.666 -40.5 -108.999s-61.833 -41 -104.5 -41h-55l-20 125h15c17.333 0 30.833 5.33301 40.5 16s14.5 28.667 14.5 54v425z" />
    <glyph glyph-name="k" unicode="k" horiz-adv-x="510" 
d="M255 200l-45 -50v-150h-150v700h150v-350h10l100 140h170l-130 -170l150 -320h-170z" />
    <glyph glyph-name="l" unicode="l" horiz-adv-x="290" 
d="M210 195c0 -25.333 4.83301 -43.332 14.5 -53.999s23.167 -16 40.5 -16h15l-20 -125h-55c-42.667 0 -77.5 13.667 -104.5 41s-40.5 63.666 -40.5 108.999v550h150v-505z" />
    <glyph glyph-name="m" unicode="m" horiz-adv-x="780" 
d="M575 305c0 43.333 -18.3311 64.9971 -54.998 64.9971c-10 0 -18.5 -1.66699 -25.5 -5s-12.833 -6.66602 -17.5 -9.99902c-5.33301 -4.66699 -9.33301 -9.66699 -12 -15v-340h-150v305c0 43.333 -18.333 65 -55 65c-10 0 -18.5 -1.66699 -25.5 -5
s-12.833 -6.66602 -17.5 -9.99902c-5.33301 -4.66699 -9.33301 -9.66699 -12 -15v-340h-150v490h150v-35h10c8 8 17.333 15.333 28 22c9.33301 5.33301 20.333 10.5 33 15.5s27.334 7.5 44.001 7.5c21.333 0 39.666 -3.16699 54.999 -9.5s27.666 -13.166 36.999 -20.499
c11.333 -8.66699 20.666 -18.667 27.999 -30h10c7.33301 11.333 17 21.333 29 30c10.667 7.33301 24.167 14.166 40.5 20.499s36.5 9.5 60.5 9.5c42.667 0 77.5 -13.667 104.5 -41s40.5 -63.666 40.5 -108.999v-350h-150v305z" />
    <glyph glyph-name="n" unicode="n" 
d="M315 305c0 43.333 -18.334 64.998 -55.001 64.998c-10 0 -18.5 -1.66699 -25.5 -5s-12.833 -6.66602 -17.5 -9.99902c-5.33301 -4.66699 -9.33301 -9.66699 -12 -15v-340h-150v490h150v-35h10c8 8 17.333 15.333 28 22c9.33301 5.33301 20.333 10.5 33 15.5
s27.334 7.5 44.001 7.5c42.667 0 77.5 -13.667 104.5 -41s40.5 -63.666 40.5 -108.999v-350h-150v305z" />
    <glyph glyph-name="o" unicode="o" horiz-adv-x="530" 
d="M30 245c0 36 6.33301 69.667 19 101s29.834 58.333 51.501 81s46.667 40.5 75 53.5s58.166 19.5 89.499 19.5s61.166 -6.5 89.499 -19.5s53.333 -30.833 75 -53.5s38.834 -49.667 51.501 -81s19 -65 19 -101s-6.33301 -69.667 -19 -101s-29.834 -58.333 -51.501 -81
s-46.667 -40.5 -75 -53.5s-58.166 -19.5 -89.499 -19.5s-61.166 6.5 -89.499 19.5s-53.333 30.833 -75 53.5s-38.834 49.667 -51.501 81s-19 65 -19 101zM185 245c0 -42.667 8.33301 -74.167 25 -94.5s35 -30.5 55 -30.5s38.333 10.167 55 30.5s25 51.833 25 94.5
s-8.33301 74.167 -25 94.5s-35 30.5 -55 30.5s-38.333 -10.167 -55 -30.5s-25 -51.833 -25 -94.5z" />
    <glyph glyph-name="p" unicode="p" horiz-adv-x="525" 
d="M205 455l10 0.000976562c8 8 17.333 15.333 28 22c9.33301 5.33301 20.333 10.5 33 15.5s27.334 7.5 44.001 7.5c21.333 0 42.5 -5.5 63.5 -16.5s39.667 -27.333 56 -49s29.666 -48.334 39.999 -80.001s15.5 -68.167 15.5 -109.5s-5.16699 -77.833 -15.5 -109.5
s-23.666 -58.334 -39.999 -80.001s-35 -38 -56 -49s-42.167 -16.5 -63.5 -16.5c-16.667 0 -31.334 2.33301 -44.001 7s-23.667 9.66699 -33 15c-10.667 6.66699 -20 14.334 -28 23.001h-10v-165h-150v620h150v-35zM205 150.001c2.66699 -6 6.66699 -11.001 12 -15.001
c4.66699 -4 10.5 -7.5 17.5 -10.5s15.5 -4.5 25.5 -4.5c20 0 38.333 10.167 55 30.5s25 51.833 25 94.5s-8.33301 74.167 -25 94.5s-35 30.5 -55 30.5c-10 0 -18.5 -1.66699 -25.5 -5s-12.833 -6.66602 -17.5 -9.99902c-5.33301 -4.66699 -9.33301 -9.66699 -12 -15v-190z
" />
    <glyph glyph-name="q" unicode="q" horiz-adv-x="525" 
d="M320 490l150 -0.000976562v-620h-150v165h-10c-8 -8.66699 -17.333 -16.334 -28 -23.001c-9.33301 -5.33301 -20.5 -10.333 -33.5 -15s-27.5 -7 -43.5 -7c-21.333 0 -42.5 5.5 -63.5 16.5s-39.667 27.333 -56 49s-29.666 48.334 -39.999 80.001s-15.5 68.167 -15.5 109.5
s5.16699 77.833 15.5 109.5s23.666 58.334 39.999 80.001s35 38 56 49s42.167 16.5 63.5 16.5c16 0 30.5 -2.5 43.5 -7.5s24.167 -10.167 33.5 -15.5c10.667 -6.66699 20 -14 28 -22h10v35zM265 119.999c10 0 18.333 1.50098 25 4.50098s12.334 6.5 17.001 10.5
c5.33301 4 9.66602 9 12.999 15v190c-3.33301 5.33301 -7.66602 10.333 -12.999 15c-4.66699 3.33301 -10.334 6.66602 -17.001 9.99902s-15 5 -25 5c-20 0 -38.333 -10.167 -55 -30.5s-25 -51.833 -25 -94.5s8.33301 -74.167 25 -94.5s35 -30.5 55 -30.5z" />
    <glyph glyph-name="r" unicode="r" horiz-adv-x="355" 
d="M300 350c-3.33301 2 -7 4.33594 -11 7.00293c-3.33301 2 -7.5 3.83301 -12.5 5.5s-10.5 2.5 -16.5 2.5c-10 0 -18.5 -1.83301 -25.5 -5.5s-12.833 -7.83398 -17.5 -12.501c-5.33301 -5.33301 -9.33301 -11 -12 -17v-330h-150v490h150v-35h10c8 8 17.333 15.333 28 22
c9.33301 5.33301 20.333 10.5 33 15.5s27.334 7.5 44.001 7.5c6 0 11.167 -0.333008 15.5 -1s8.16602 -1.33398 11.499 -2.00098s6 -1.33398 8 -2.00098z" />
    <glyph glyph-name="s" unicode="s" horiz-adv-x="445" 
d="M115 175c5.33301 -12.667 12.666 -23.6641 21.999 -32.9971c8 -8 18.833 -15.333 32.5 -22s30.5 -10 50.5 -10c15.333 0 26.666 3.33301 33.999 10s11 15 11 25c0 10.667 -5.5 19 -16.5 25s-24.833 11.5 -41.5 16.5l-54.5 17
c-19.667 6.33301 -37.834 15.166 -54.501 26.499s-30.5 26 -41.5 44s-16.5 41.667 -16.5 71c0 21.333 4.16699 41.333 12.5 60s20.333 35 36 49s34.667 25.167 57 33.5s47.166 12.5 74.499 12.5c31.333 0 58.5 -5.16699 81.5 -15.5s42.167 -21.833 57.5 -34.5
c18 -14.667 33.333 -31.334 46 -50.001l-95 -75c-7.33301 10 -15.333 19 -24 27c-7.33301 7.33301 -16.166 13.833 -26.499 19.5s-21.833 8.5 -34.5 8.5c-20 0 -30 -8.33301 -30 -25c0 -9.33301 5.5 -16.666 16.5 -21.999s24.833 -10.5 41.5 -15.5
s34.834 -10.833 54.501 -17.5s37.834 -15.834 54.501 -27.501s30.5 -26.834 41.5 -45.501s16.5 -42.667 16.5 -72c0 -22.667 -4.5 -44 -13.5 -64s-21.833 -37.5 -38.5 -52.5s-36.667 -26.833 -60 -35.5s-49.333 -13 -78 -13c-39.333 0 -72.166 5.66699 -98.499 17
s-47.833 24 -64.5 38c-19.333 16 -35 34.333 -47 55z" />
    <glyph glyph-name="t" unicode="t" horiz-adv-x="340" 
d="M20 490l60 0.000976562v70l130 110h20v-180h70v-110h-70v-185c0 -25.333 4.83301 -43.333 14.5 -54s23.167 -16 40.5 -16h15l-20 -125h-55c-42.667 0 -77.5 13.667 -104.5 41s-40.5 63.666 -40.5 108.999v230h-60v110z" />
    <glyph glyph-name="u" unicode="u" 
d="M205 185c0 -25.333 4.83301 -43.3311 14.5 -53.998s23.167 -16 40.5 -16c10 0 18.333 1.66699 25 5s12.334 7.33301 17.001 12c5.33301 5.33301 9.66602 11.333 12.999 18v340h150v-490h-150v35h-10c-8 -8.66699 -17.333 -16.334 -28 -23.001
c-9.33301 -5.33301 -20.5 -10.333 -33.5 -15s-27.5 -7 -43.5 -7c-42.667 0 -77.5 13.667 -104.5 41s-40.5 63.666 -40.5 108.999v350h150v-305z" />
    <glyph glyph-name="v" unicode="v" horiz-adv-x="450" 
d="M220 230h10l65 260h155l-160 -490h-130l-160 490h155z" />
    <glyph glyph-name="w" unicode="w" horiz-adv-x="680" 
d="M150 0l-150 490h150l70 -270h10l35 150l-30 120h150l65 -270h10l70 270h150l-150 -490h-150l-35 140h-10l-35 -140h-150z" />
    <glyph glyph-name="x" unicode="x" horiz-adv-x="470" 
d="M-10 0l155 255l-135 235h160l60 -115h10l60 115h160l-135 -235l155 -255h-170l-70 135h-10l-70 -135h-170z" />
    <glyph glyph-name="y" unicode="y" horiz-adv-x="470" 
d="M235 245l10 0.000976562l65 245h160l-145 -430c-12 -35.333 -24.167 -65 -36.5 -89s-25.833 -43.5 -40.5 -58.5s-31.167 -25.833 -49.5 -32.5s-39.5 -10 -63.5 -10h-60v125h35c10 0 17.833 2.5 23.5 7.5s10.167 10.833 13.5 17.5c3.33301 7.33301 6 15.666 8 24.999v10
l-155 435h155z" />
    <glyph glyph-name="z" unicode="z" horiz-adv-x="415" 
d="M35 490h360v-100l-195 -270v-10h195v-110h-380v100l195 270v10h-175v110z" />
    <glyph glyph-name="braceleft" unicode="{" horiz-adv-x="370" 
d="M260 115c0 -25.333 4.83301 -43.3311 14.5 -53.998s23.167 -16 40.5 -16h15v-125h-75c-42.667 0 -77.5 13.667 -104.5 41s-40.5 63.666 -40.5 108.999v150c0 25.333 -4.83301 43.333 -14.5 54s-23.167 16 -40.5 16h-15v120h15c17.333 0 30.833 5.33301 40.5 16
s14.5 28.667 14.5 54v150c0 45.333 13.5 81.666 40.5 108.999s61.833 41 104.5 41h75v-125h-15c-17.333 0 -30.833 -5.33301 -40.5 -16s-14.5 -28.667 -14.5 -54v-105c0 -28 -4.16699 -50.167 -12.5 -66.5s-17.5 -28.833 -27.5 -37.5c-12 -10.667 -25.333 -17.667 -40 -21
v-10c14.667 -4 28 -11 40 -21c10 -9.33301 19.167 -22 27.5 -38s12.5 -38 12.5 -66v-105z" />
    <glyph glyph-name="bar" unicode="|" horiz-adv-x="310" 
d="M80 710h150v-840h-150v840z" />
    <glyph glyph-name="braceright" unicode="}" horiz-adv-x="370" 
d="M110 220c0 28 4.16699 49.998 12.5 65.998s17.5 28.667 27.5 38c12 10 25.333 17 40 21v10c-14.667 3.33301 -28 10.333 -40 21c-10 8.66699 -19.167 21.167 -27.5 37.5s-12.5 38.5 -12.5 66.5v105c0 25.333 -4.83301 43.333 -14.5 54s-23.167 16 -40.5 16h-15v125h75
c42.667 0 77.5 -13.667 104.5 -41s40.5 -63.666 40.5 -108.999v-150c0 -25.333 4.83301 -43.333 14.5 -54s23.167 -16 40.5 -16h15v-120h-15c-17.333 0 -30.833 -5.33301 -40.5 -16s-14.5 -28.667 -14.5 -54v-150c0 -45.333 -13.5 -81.666 -40.5 -108.999
s-61.833 -41 -104.5 -41h-75v125h15c17.333 0 30.833 5.33301 40.5 16s14.5 28.667 14.5 54v105z" />
    <glyph glyph-name="asciitilde" unicode="~" 
d="M180 350c17.333 0 33.665 -2.66699 48.998 -8s29.5 -11 42.5 -17l36.5 -17c11.333 -5.33301 22 -8 32 -8s19.167 2 27.5 6s15.833 8.66699 22.5 14c7.33301 6 14 12.667 20 20l80 -55c-10.667 -20.667 -23.334 -39 -38.001 -55c-12.667 -14 -28.167 -26.667 -46.5 -38
s-40.166 -17 -65.499 -17c-17.333 0 -33.666 2.66699 -48.999 8s-29.5 11 -42.5 17l-36.5 17c-11.333 5.33301 -22 8 -32 8s-19.333 -2 -28 -6s-16 -8.66699 -22 -14c-7.33301 -6 -14 -12.667 -20 -20l-80 55c10 20 22.333 38.333 37 55
c12.667 13.333 28.334 25.833 47.001 37.5s40.667 17.5 66 17.5z" />
    <glyph glyph-name="nonbreakingspace" unicode="&#xa0;" horiz-adv-x="0" 
 />
    <glyph glyph-name="exclamdown" unicode="&#xa1;" horiz-adv-x="300" 
d="M230 30v-210h-160v210l20 240h120zM75 490h150v-150h-150v150z" />
    <glyph glyph-name="cent" unicode="&#xa2;" horiz-adv-x="480" 
d="M325 495c22.667 -6.66699 42.3311 -15.168 58.998 -25.501s30.667 -20.833 42 -31.5c12.667 -12 24 -24.667 34 -38l-105 -85c-5.33301 10 -11.666 19 -18.999 27c-6.66699 7.33301 -15.167 13.833 -25.5 19.5s-22.166 8.5 -35.499 8.5
c-25.333 0 -46.666 -10.167 -63.999 -30.5s-26 -51.833 -26 -94.5s8.66699 -74.167 26 -94.5s38.666 -30.5 63.999 -30.5c15.333 0 28.166 3.33301 38.499 10s19.166 14 26.499 22c8 9.33301 14.667 20.333 20 33l105 -85c-9.33301 -15.333 -20.333 -29.666 -33 -42.999
c-11.333 -11.333 -25.666 -23 -42.999 -35s-38.666 -21 -63.999 -27v-125h-120v130c-32.667 10 -62 25.667 -88 47c-22 18 -42 43 -60 75s-27 73 -27 123s9 90.833 27 122.5s38 56.5 60 74.5c26 21.333 55.333 37.333 88 48v130h120v-125z" />
    <glyph glyph-name="sterling" unicode="&#xa3;" horiz-adv-x="540" 
d="M530 140l-0.00195312 -139.999h-500v140h30c6 2.66699 11.667 7.33398 17 14.001c4.66699 5.33301 8.83398 12.5 12.501 21.5s5.5 20.5 5.5 34.5v90h-65v110h65v35c0 32.667 5.66699 62.667 17 90s27 51 47 71s43.667 35.667 71 47s57.333 17 90 17s61 -5 85 -15
s43.667 -21 59 -33c18 -14 33.333 -29.667 46 -47l-115 -90c-4 8 -9.33301 15.333 -16 22c-5.33301 5.33301 -12 10.5 -20 15.5s-17.667 7.5 -29 7.5c-20 0 -36.667 -7.16699 -50 -21.5s-20 -35.5 -20 -63.5v-35h130v-110h-130v-90c0 -12.667 -1.66699 -22.834 -5 -30.501
s-6.66602 -13.834 -9.99902 -18.501c-4.66699 -5.33301 -9.66699 -9 -15 -11v-10h300z" />
    <glyph glyph-name="currency" unicode="&#xa4;" horiz-adv-x="645" 
d="M20 160l60.001 0.00195312v40h-60v100h60v345c18 4.66699 38.333 8.66699 61 12c19.333 3.33301 43.166 6.33301 71.499 9s60.833 4 97.5 4c48.667 0 92 -6.5 130 -19.5s70 -30.667 96 -53s45.667 -48.833 59 -79.5s20 -63.334 20 -98.001c0 -31.333 -6 -60.333 -18 -87
s-30.167 -49.834 -54.5 -69.501s-55 -35.167 -92 -46.5s-80.5 -17 -130.5 -17h-80v-40h220v-100h-220v-60h-160v60h-60v100zM450.001 420.002c0 32.667 -12 60.001 -36 82.001s-58.667 33 -104 33c-11.333 0 -21.333 -0.5 -30 -1.5s-16 -2.16699 -22 -3.5l-18 -5v-225h80
c40 0 71.667 11.167 95 33.5s35 51.166 35 86.499z" />
    <glyph glyph-name="yen" unicode="&#xa5;" horiz-adv-x="560" 
d="M275 430h10l110 230h165l-190 -360h90v-100h-100v-40h100v-100h-100v-60h-160v60h-100v100h100v40h-100v100h90l-190 360h165z" />
    <glyph glyph-name="brokenbar" unicode="&#xa6;" horiz-adv-x="310" 
d="M80 710h150v-360h-150v360zM80 230h150v-360h-150v360z" />
    <glyph glyph-name="section" unicode="&#xa7;" horiz-adv-x="500" 
d="M200 365c0 -9.33301 4.33203 -17.833 12.999 -25.5s18.334 -14.5 29.001 -20.5c12 -7.33301 26.333 -13.666 43 -18.999c2 3.33301 4.33301 6.66602 7 9.99902c2 3.33301 3.83301 7 5.5 11s2.5 8.66699 2.5 14c0 8.66699 -4.5 17 -13.5 25s-18.833 15 -29.5 21
c-12 7.33301 -26 13.666 -42 18.999l-8 -10c-4.66699 -7.33301 -7 -15.666 -7 -24.999zM239.999 -10c-32.667 0 -60.999 5.16895 -84.999 15.502s-43.667 21.833 -59 34.5c-18 14.667 -33.333 31.334 -46 50.001l95 75c7.33301 -10.667 15.333 -20 24 -28
c7.33301 -7.33301 16.166 -13.666 26.499 -18.999s21.833 -8 34.5 -8c15.333 0 26.666 3.33301 33.999 10s11 15 11 25c0 10.667 -5.5 19.5 -16.5 26.5s-24.833 13.667 -41.5 20l-54.5 20c-19.667 7 -37.834 16.167 -54.501 27.5s-30.5 25.333 -41.5 42s-16.5 38 -16.5 64
c0 17.333 3.33301 32.333 10 45s14.167 23.167 22.5 31.5s15.833 14.5 22.5 18.5l10 6v9c-8.66699 6 -16.334 13.333 -23.001 22c-5.33301 7.33301 -10.333 16.666 -15 27.999s-7 24.666 -7 39.999c0 22.667 4.5 44 13.5 64s21.833 37.5 38.5 52.5s36.667 26.833 60 35.5
s49.333 13 78 13c32.667 0 61 -5.16699 85 -15.5s43.667 -21.833 59 -34.5c18 -14.667 33.333 -31.334 46 -50.001l-95 -75c-7.33301 10 -15.333 19 -24 27c-7.33301 7.33301 -16.166 13.833 -26.499 19.5s-21.833 8.5 -34.5 8.5c-15.333 0 -26.666 -3.33301 -33.999 -10
s-11 -15 -11 -25c0 -10.667 5.5 -19.5 16.5 -26.5s24.833 -13.667 41.5 -20l54.5 -20c19.667 -7 37.834 -16.167 54.501 -27.5s30.5 -25.333 41.5 -42s16.5 -38 16.5 -64c0 -17.333 -3.33301 -32.333 -10 -45s-14.167 -23.167 -22.5 -31.5s-15.833 -14.5 -22.5 -18.5l-10 -6
v-9c8 -6.66699 15.333 -14.334 22 -23.001c5.33301 -7.33301 10.5 -16.5 15.5 -27.5s7.5 -24.167 7.5 -39.5c0 -22.667 -4.5 -44 -13.5 -64s-21.833 -37.5 -38.5 -52.5s-36.667 -26.833 -60 -35.5s-49.333 -13 -78 -13z" />
    <glyph glyph-name="dieresis" unicode="&#xa8;" horiz-adv-x="380" 
d="M30 730h130v-140h-130v140zM220 730h130v-140h-130v140z" />
    <glyph glyph-name="copyright" unicode="&#xa9;" horiz-adv-x="780" 
d="M50 350c0 51.333 9 99 27 143s42.5 82 73.5 114s67.167 57.167 108.5 75.5s85 27.5 131 27.5s89.667 -9.16699 131 -27.5s77.5 -43.5 108.5 -75.5s55.5 -70 73.5 -114s27 -91.667 27 -143s-9 -99 -27 -143s-42.5 -82 -73.5 -114s-67.167 -57.167 -108.5 -75.5
s-85 -27.5 -131 -27.5s-89.667 9.16699 -131 27.5s-77.5 43.5 -108.5 75.5s-55.5 70 -73.5 114s-27 91.667 -27 143zM150 350c0 -38.667 6.16699 -74 18.5 -106s29.333 -59.333 51 -82s47 -40.334 76 -53.001s60.5 -19 94.5 -19s65.5 6.33301 94.5 19
s54.333 30.334 76 53.001s38.667 50 51 82s18.5 67.333 18.5 106s-6.16699 74 -18.5 106s-29.333 59.333 -51 82s-47 40.334 -76 53.001s-60.5 19 -94.5 19s-65.5 -6.33301 -94.5 -19s-54.333 -30.334 -76 -53.001s-38.667 -50 -51 -82s-18.5 -67.333 -18.5 -106zM540 245
c-8.66699 -14.667 -19.667 -28.001 -33 -40.001c-11.333 -10 -26.333 -19.167 -45 -27.5s-41 -12.5 -67 -12.5c-22.667 0 -44.167 4.66699 -64.5 14s-38.333 22.333 -54 39s-28.167 36.334 -37.5 59.001s-14 47 -14 73s4.66699 50.333 14 73s21.833 42.334 37.5 59.001
s33.667 29.667 54 39s41.833 14 64.5 14c23.333 0 44 -3.66699 62 -11s32.667 -15.333 44 -24c13.333 -10.667 24.666 -22.334 33.999 -35.001l-75 -65c-4 7.33301 -9 14 -15 20c-5.33301 5.33301 -11.666 10 -18.999 14s-16 6 -26 6c-17.333 0 -32.5 -7.5 -45.5 -22.5
s-19.5 -37.5 -19.5 -67.5c0 -30.667 6.33301 -53.334 19 -68.001s28 -22 46 -22c11.333 0 21 2.33301 29 7s14.667 9.66699 20 15c6.66699 6.66699 12 14.334 16 23.001z" />
    <glyph glyph-name="ordfeminine" unicode="&#xaa;" horiz-adv-x="420" 
d="M255 370c-6 -6 -12.666 -11.002 -19.999 -15.002c-6.66699 -4 -14.5 -7.5 -23.5 -10.5s-19.5 -4.5 -31.5 -4.5c-18.667 0 -36.5 4 -53.5 12s-31.833 19.833 -44.5 35.5s-22.834 35 -30.501 58s-11.5 49.5 -11.5 79.5s3.66699 56.5 11 79.5s17.166 42.333 29.499 58
s26.333 27.5 42 35.5s31.5 12 47.5 12c11.333 0 21.5 -1.83301 30.5 -5.5s16.833 -7.83398 23.5 -12.501c7.33301 -5.33301 14.333 -11 21 -17h10v25h110v-230c0 -15.333 0.666992 -30.166 2 -44.499s3 -27.166 5 -38.499c2.66699 -13.333 5.33398 -25.666 8.00098 -36.999
h-110l-5 20h-10zM215.001 434.998c6 0 11.5 1 16.5 3s9.16699 4.33301 12.5 7c4 2.66699 7.66699 6 11 10v140c-3.33301 4 -7 7.33301 -11 10c-3.33301 2.66699 -7.5 5 -12.5 7s-10.5 3 -16.5 3c-15.333 0 -29.166 -7.5 -41.499 -22.5s-18.5 -37.5 -18.5 -67.5
s6.16699 -52.5 18.5 -67.5s26.166 -22.5 41.499 -22.5z" />
    <glyph glyph-name="guillemotleft" unicode="&#xab;" horiz-adv-x="560" 
d="M280 420l-130 -165v-10l130 -165l-60 -60l-190 165v130l190 165zM530 420l-130 -165v-10l130 -165l-60 -60l-190 165v130l190 165z" />
    <glyph glyph-name="logicalnot" unicode="&#xac;" horiz-adv-x="420" 
d="M40 360h340v-260h-140v130h-200v130z" />
    <glyph glyph-name="uni00AD" unicode="&#xad;" horiz-adv-x="330" 
d="M40 370h250v-130h-250v130z" />
    <glyph glyph-name="registered" unicode="&#xae;" horiz-adv-x="780" 
d="M50 350c0 51.333 9 99 27 143s42.5 82 73.5 114s67.167 57.167 108.5 75.5s85 27.5 131 27.5s89.667 -9.16699 131 -27.5s77.5 -43.5 108.5 -75.5s55.5 -70 73.5 -114s27 -91.667 27 -143s-9 -99 -27 -143s-42.5 -82 -73.5 -114s-67.167 -57.167 -108.5 -75.5
s-85 -27.5 -131 -27.5s-89.667 9.16699 -131 27.5s-77.5 43.5 -108.5 75.5s-55.5 70 -73.5 114s-27 91.667 -27 143zM150 350c0 -38.667 6.16699 -74 18.5 -106s29.333 -59.333 51 -82s47 -40.334 76 -53.001s60.5 -19 94.5 -19s65.5 6.33301 94.5 19
s54.333 30.334 76 53.001s38.667 50 51 82s18.5 67.333 18.5 106s-6.16699 74 -18.5 106s-29.333 59.333 -51 82s-47 40.334 -76 53.001s-60.5 19 -94.5 19s-65.5 -6.33301 -94.5 -19s-54.333 -30.334 -76 -53.001s-38.667 -50 -51 -82s-18.5 -67.333 -18.5 -106zM390 445
c-6.66699 0 -12.001 -0.331055 -16.001 -0.998047s-7.66699 -1.33398 -11 -2.00098s-6 -1.33398 -8 -2.00098v-65h45c10 0 18.333 3.33301 25 10s10 15 10 25s-3.66699 18.333 -11 25s-18.666 10 -33.999 10zM354.999 170.002l-109.998 -0.00195312v345
c12 4 25.667 7.33301 41 10c13.333 2.66699 28.666 5 45.999 7s36.666 3 57.999 3c52.667 0 92.5 -12 119.5 -36s40.5 -53.667 40.5 -89c0 -19.333 -3.5 -35.166 -10.5 -47.499s-14.5 -22.5 -22.5 -30.5c-9.33301 -9.33301 -20 -16.666 -32 -21.999v-5l70 -135h-120l-55 125
h-25v-125z" />
    <glyph glyph-name="macron" unicode="&#xaf;" horiz-adv-x="370" 
d="M30 710h310v-100h-310v100z" />
    <glyph glyph-name="degree" unicode="&#xb0;" horiz-adv-x="370" 
d="M330 560c0 -21.333 -3.83301 -41.166 -11.5 -59.499s-18 -34.166 -31 -47.499s-28.333 -23.833 -46 -31.5s-36.5 -11.5 -56.5 -11.5s-38.833 3.83301 -56.5 11.5s-33 18.167 -46 31.5s-23.333 29.166 -31 47.499s-11.5 38.166 -11.5 59.499s3.83301 41.166 11.5 59.499
s18 34.166 31 47.499s28.333 23.833 46 31.5s36.5 11.5 56.5 11.5s38.833 -3.83301 56.5 -11.5s33 -18.167 46 -31.5s23.333 -29.166 31 -47.499s11.5 -38.166 11.5 -59.499zM250 560c0 20 -6.5 36.667 -19.5 50s-28.167 20 -45.5 20s-32.5 -6.66699 -45.5 -20
s-19.5 -30 -19.5 -50s6.5 -36.667 19.5 -50s28.167 -20 45.5 -20s32.5 6.66699 45.5 20s19.5 30 19.5 50z" />
    <glyph glyph-name="plusminus" unicode="&#xb1;" horiz-adv-x="440" 
d="M40 140h110v95h-110v130h110v125h140v-125h110v-130h-110v-95h110v-130h-360v130z" />
    <glyph glyph-name="twosuperior" unicode="&#xb2;" horiz-adv-x="330" 
d="M310 595c0 -22.667 -6.66992 -43 -20.0029 -61s-27.666 -33.667 -42.999 -47c-18 -15.333 -38.667 -29.333 -62 -42v-10h115v-85h-250v80c28 17.333 53 35.333 75 54c18.667 16 35.834 33.667 51.501 53s23.5 38.666 23.5 57.999c0 10 -3.16699 18.333 -9.5 25
s-13.166 10 -20.499 10s-14.166 -3.33301 -20.499 -10s-9.5 -15 -9.5 -25c0 -6.66699 1 -12 3 -16s4.33301 -7.66699 7 -11s6 -6 10 -8l-70 -60c-11.333 6 -21.333 13.667 -30 23c-7.33301 8 -14.166 17.833 -20.499 29.5s-9.5 25.834 -9.5 42.501
c0 14.667 3.33301 29 10 43s16 26.333 28 37s26.667 19.167 44 25.5s36.666 9.5 57.999 9.5s40.666 -3.16699 57.999 -9.5s32 -14.833 44 -25.5s21.333 -23 28 -37s10 -28.333 10 -43z" />
    <glyph glyph-name="threesuperior" unicode="&#xb3;" horiz-adv-x="320" 
d="M135 575l19.9971 -0.000976562c5.33301 0 10 2.5 14 7.5s6 12.5 6 22.5s-2 17.5 -6 22.5s-8.66699 7.5 -14 7.5s-10 -2.33301 -14 -7s-6 -10.667 -6 -18c0 -3.33301 0.666992 -7 2 -11c0.666992 -2 1.66699 -3.33301 3 -4l-100 -25c-2 3.33301 -3.66699 7.33301 -5 12
c-3.33301 8 -5 17.333 -5 28c0 12.667 3 25 9 37s14.5 22.667 25.5 32s24.167 16.833 39.5 22.5s32.333 8.5 51 8.5s35.667 -2.83301 51 -8.5s28.5 -13.167 39.5 -22.5s19.5 -20 25.5 -32s9 -24.333 9 -37c0 -10 -2.5 -19.167 -7.5 -27.5s-10.167 -15.166 -15.5 -20.499
c-6.66699 -6.66699 -14 -12.334 -22 -17.001v-5c10 -5.33301 19 -12 27 -20c7.33301 -7.33301 13.833 -16.166 19.5 -26.499s8.5 -23.166 8.5 -38.499s-3.33301 -29.833 -10 -43.5s-16 -25.834 -28 -36.501s-26.667 -19.167 -44 -25.5s-36.666 -9.5 -57.999 -9.5
c-24 0 -44.167 3.5 -60.5 10.5s-29.833 15.167 -40.5 24.5c-12 10 -21.667 21.667 -29 35l90 40c1.33301 -6 3.33301 -11 6 -15s6.33398 -7.5 11.001 -10.5s10.667 -4.5 18 -4.5c10 0 18.333 3.5 25 10.5s10 16.833 10 29.5s-3.16699 22.5 -9.5 29.5
s-13.166 10.5 -20.499 10.5h-15v75z" />
    <glyph glyph-name="acute" unicode="&#xb4;" horiz-adv-x="280" 
d="M90 730h160l-110 -140h-110z" />
    <glyph glyph-name="mu" unicode="&#xb5;" 
d="M205 185c0 -25.333 4.83301 -43.332 14.5 -53.999s23.167 -16 40.5 -16c10 0 18.333 1.66699 25 5s12.334 7.33301 17.001 12c5.33301 5.33301 9.66602 11.333 12.999 18v340h150v-490h-150v35h-10c-8.66699 -8.66699 -18 -16.334 -28 -23.001
c-9.33301 -5.33301 -19.833 -10.333 -31.5 -15s-25.167 -7 -40.5 -7v-120h-150v620h150v-305z" />
    <glyph glyph-name="paragraph" unicode="&#xb6;" horiz-adv-x="705" 
d="M465 580h-80v-710h-130v360c-28.667 0 -56 5.83301 -82 17.5s-48.833 28 -68.5 49s-35.334 45.833 -47.001 74.5s-17.5 60 -17.5 94s5.83301 65.333 17.5 94s27.334 53.5 47.001 74.5s42.5 37.333 68.5 49s53.333 17.5 82 17.5h430v-120h-90v-710h-130v710z" />
    <glyph glyph-name="periodcentered" unicode="&#xb7;" horiz-adv-x="200" 
d="M26 365h150v-150h-150v150z" />
    <glyph glyph-name="cedilla" unicode="&#xb8;" horiz-adv-x="305" 
d="M190 0l-0.00195312 -54.9971c25.333 0 45.833 -7.66699 61.5 -23s23.5 -34.333 23.5 -57c0 -30 -11.167 -55 -33.5 -75s-56.166 -30 -101.499 -30c-17.333 0 -32.833 1.5 -46.5 4.5s-25.167 6.5 -34.5 10.5c-11.333 4 -21 9 -29 15l25 55
c4.66699 -2.66699 10.334 -5.33398 17.001 -8.00098c12.667 -4.66699 28.667 -7 48 -7c17.333 0 30 3.16699 38 9.5s12 13.166 12 20.499s-3.5 14.166 -10.5 20.499s-16.833 9.5 -29.5 9.5h-30v110h90z" />
    <glyph glyph-name="onesuperior" unicode="&#xb9;" horiz-adv-x="220" 
d="M75 585c-4.66699 -4 -9.99902 -7.33301 -15.999 -10c-5.33301 -2.66699 -11.333 -5 -18 -7s-13.667 -3 -21 -3v75c11.333 1.33301 22.333 4.33301 33 9c9.33301 4 18.666 10 27.999 18s17.333 19 24 33h75v-350h-100v235h-5v0z" />
    <glyph glyph-name="ordmasculine" unicode="&#xba;" horiz-adv-x="410" 
d="M30 525c0 26 4.66699 50.333 14 73s22 42.334 38 59.001s34.5 29.667 55.5 39s43.5 14 67.5 14s46.5 -4.66699 67.5 -14s39.5 -22.333 55.5 -39s28.667 -36.334 38 -59.001s14 -47 14 -73s-4.66699 -50.333 -14 -73s-22 -42.334 -38 -59.001s-34.5 -29.667 -55.5 -39
s-43.5 -14 -67.5 -14s-46.667 4.66699 -68 14s-39.833 22.333 -55.5 39s-28.167 36.334 -37.5 59.001s-14 47 -14 73zM145 525c0 -30 6.16699 -52.5 18.5 -67.5s26.166 -22.5 41.499 -22.5s29.166 7.5 41.499 22.5s18.5 37.5 18.5 67.5s-6.16699 52.5 -18.5 67.5
s-26.166 22.5 -41.499 22.5s-29.166 -7.5 -41.499 -22.5s-18.5 -37.5 -18.5 -67.5z" />
    <glyph glyph-name="guillemotright" unicode="&#xbb;" horiz-adv-x="560" 
d="M340 480l190 -165v-130l-190 -165l-60 60l130 165v10l-130 165zM90 480l190 -165v-130l-190 -165l-60 60l130 165v10l-130 165z" />
    <glyph glyph-name="onequarter" unicode="&#xbc;" horiz-adv-x="680" 
d="M460 700h115l-395 -700h-115zM105 585c-4.66699 -4 -9.99902 -7.33301 -15.999 -10c-5.33301 -2.66699 -11.333 -5 -18 -7s-13.667 -3 -21 -3v75c11.333 1.33301 22.333 4.33301 33 9c9.33301 4 18.666 10 27.999 18s17.333 19 24 33h75v-350h-100v235h-5v0zM585.001 71
v-70h-100v70h-145v90l150 190h95v-195h45v-85h-45zM495.001 231h-10l-50 -65v-10h60v75z" />
    <glyph glyph-name="onehalf" unicode="&#xbd;" horiz-adv-x="725" 
d="M460 700h115l-395 -700h-115zM105 585c-4.66699 -4 -9.99902 -7.33301 -15.999 -10c-5.33301 -2.66699 -11.333 -5 -18 -7s-13.667 -3 -21 -3v75c11.333 1.33301 22.333 4.33301 33 9c9.33301 4 18.666 10 27.999 18s17.333 19 24 33h75v-350h-100v235h-5v0zM675.001 246
c0 -22.667 -6.66992 -43 -20.0029 -61s-27.666 -33.667 -42.999 -47c-18 -15.333 -38.667 -29.333 -62 -42v-10h115v-85h-250v80c28 17.333 53 35.333 75 54c18.667 16 35.834 33.667 51.501 53s23.5 38.666 23.5 57.999c0 10 -3.16699 18.333 -9.5 25
s-13.166 10 -20.499 10s-14.166 -3.33301 -20.499 -10s-9.5 -15 -9.5 -25c0 -6.66699 1 -12 3 -16s4.33301 -7.66699 7 -11s6 -6 10 -8l-70 -60c-11.333 6 -21.333 13.667 -30 23c-7.33301 8 -14.166 17.833 -20.499 29.5s-9.5 25.834 -9.5 42.501
c0 14.667 3.33301 29 10 43s16 26.333 28 37s26.667 19.167 44 25.5s36.666 9.5 57.999 9.5s40.666 -3.16699 57.999 -9.5s32 -14.833 44 -25.5s21.333 -23 28 -37s10 -28.333 10 -43z" />
    <glyph glyph-name="threequarters" unicode="&#xbe;" horiz-adv-x="750" 
d="M530 700h115l-395 -700h-115zM155 575l19.9971 -0.000976562c5.33301 0 10 2.5 14 7.5s6 12.5 6 22.5s-2 17.5 -6 22.5s-8.66699 7.5 -14 7.5s-10 -2.33301 -14 -7s-6 -10.667 -6 -18c0 -3.33301 0.666992 -7 2 -11c0.666992 -2 1.66699 -3.33301 3 -4l-100 -25
c-2 3.33301 -3.66699 7.33301 -5 12c-3.33301 8 -5 17.333 -5 28c0 12.667 3 25 9 37s14.5 22.667 25.5 32s24.167 16.833 39.5 22.5s32.333 8.5 51 8.5s35.667 -2.83301 51 -8.5s28.5 -13.167 39.5 -22.5s19.5 -20 25.5 -32s9 -24.333 9 -37c0 -10 -2.5 -19.167 -7.5 -27.5
s-10.167 -15.166 -15.5 -20.499c-6.66699 -6.66699 -14 -12.334 -22 -17.001v-5c10 -5.33301 19 -12 27 -20c7.33301 -7.33301 13.833 -16.166 19.5 -26.499s8.5 -23.166 8.5 -38.499s-3.33301 -29.833 -10 -43.5s-16 -25.834 -28 -36.501s-26.667 -19.167 -44 -25.5
s-36.666 -9.5 -57.999 -9.5c-24 0 -44.167 3.5 -60.5 10.5s-29.833 15.167 -40.5 24.5c-12 10 -21.667 21.667 -29 35l90 40c1.33301 -6 3.33301 -11 6 -15s6.33398 -7.5 11.001 -10.5s10.667 -4.5 18 -4.5c10 0 18.333 3.5 25 10.5s10 16.833 10 29.5
s-3.16699 22.5 -9.5 29.5s-13.166 10.5 -20.499 10.5h-15v75zM654.997 70.999v-70h-100v70h-145v90l150 190h95v-195h45v-85h-45zM564.997 230.999h-10l-50 -65v-10h60v75z" />
    <glyph glyph-name="questiondown" unicode="&#xbf;" horiz-adv-x="490" 
d="M350 100c-7.33301 1.33301 -15.335 3 -24.002 5c-7.33301 1.33301 -16.166 2.5 -26.499 3.5s-21.833 1.5 -34.5 1.5c-32.667 0 -57.5 -7.83301 -74.5 -23.5s-25.5 -36.167 -25.5 -61.5s7.66699 -45.833 23 -61.5s34.333 -23.5 57 -23.5s41.667 7.83301 57 23.5
s23 36.167 23 61.5h165c0 -31.333 -5.5 -60.166 -16.5 -86.499s-27 -49 -48 -68s-46.667 -33.833 -77 -44.5s-64.833 -16 -103.5 -16s-73.167 5.33301 -103.5 16s-56 25.5 -77 44.5s-37 41.667 -48 68s-16.5 55.166 -16.5 86.499c0 21.333 3 40.333 9 57
s13.833 31.167 23.5 43.5s20.834 23.166 33.501 32.499s25.667 17 39 23c30.667 14.667 65.667 24.334 105 29.001l5 60h120zM349.998 340h-150v150h150v-150z" />
    <glyph glyph-name="Agrave" unicode="&#xc0;" horiz-adv-x="640" 
d="M630 0h-165l-40 130h-210l-40 -130h-165l240 700h140zM250 260h140l-65 210h-10zM375 780h-110l-110 130h160z" />
    <glyph glyph-name="Aacute" unicode="&#xc1;" horiz-adv-x="640" 
d="M630 0h-165l-40 130h-210l-40 -130h-165l240 700h140zM250 260h140l-65 210h-10zM325 910h160l-110 -130h-110z" />
    <glyph glyph-name="Acircumflex" unicode="&#xc2;" horiz-adv-x="640" 
d="M630 0h-165l-40 130h-210l-40 -130h-165l240 700h140zM250 260h140l-65 210h-10zM480 780h-130l-25 55h-10l-25 -55h-130l90 130h140z" />
    <glyph glyph-name="Atilde" unicode="&#xc3;" horiz-adv-x="640" 
d="M630 0h-165l-40 130h-210l-40 -130h-165l240 700h140zM250 260h140l-65 210h-10zM480 910c-7.33301 -47.333 -19.667 -80.833 -37 -100.5s-38.333 -29.5 -63 -29.5c-12.667 0 -23.5 1.5 -32.5 4.5s-17.333 6.5 -25 10.5s-14.834 7.5 -21.501 10.5s-13.667 4.5 -21 4.5
s-13.5 -1.83301 -18.5 -5.5s-8.83301 -11.834 -11.5 -24.501h-90c7.33301 47.333 19.5 80.833 36.5 100.5s38.167 29.5 63.5 29.5c12.667 0 23.5 -1.5 32.5 -4.5s17.333 -6.5 25 -10.5s14.834 -7.5 21.501 -10.5s13.667 -4.5 21 -4.5s13.5 1.83301 18.5 5.5
s8.83301 11.834 11.5 24.501h90z" />
    <glyph glyph-name="Adieresis" unicode="&#xc4;" horiz-adv-x="640" 
d="M630 0h-165l-40 130h-210l-40 -130h-165l240 700h140zM250 260h140l-65 210h-10zM160 910h130v-130h-130v130zM350 910h130v-130h-130v130z" />
    <glyph glyph-name="Aring" unicode="&#xc5;" horiz-adv-x="640" 
d="M630 0h-165l-40 130h-210l-40 -130h-165l240 700h140zM250 260h140l-65 210h-10zM290 845c0 -8.66699 2.83301 -15.834 8.5 -21.501s12.834 -8.5 21.501 -8.5s15.834 2.83301 21.501 8.5s8.5 12.834 8.5 21.501s-2.83301 15.834 -8.5 21.501s-12.834 8.5 -21.501 8.5
s-15.834 -2.83301 -21.501 -8.5s-8.5 -12.834 -8.5 -21.501zM210 845c0 28 10.167 51.667 30.5 71s46.833 29 79.5 29s59.167 -9.66699 79.5 -29s30.5 -43 30.5 -71s-10.167 -51.667 -30.5 -71s-46.833 -29 -79.5 -29s-59.167 9.66699 -79.5 29s-30.5 43 -30.5 71z" />
    <glyph glyph-name="AE" unicode="&#xc6;" horiz-adv-x="880" 
d="M400 130h-185l-40 -130h-165l240 700h580v-140h-270v-90h210v-140h-210v-190h290v-140h-450v130zM250 260h150v300h-50z" />
    <glyph glyph-name="Ccedilla" unicode="&#xc7;" horiz-adv-x="665" 
d="M645 115c-16.667 -19.333 -36.3359 -36.9941 -59.0029 -52.9941c-19.333 -14 -43.166 -27.333 -71.499 -40s-61.5 -21.667 -99.5 -27v-50c25.333 0 45.833 -7.66699 61.5 -23s23.5 -34.333 23.5 -57c0 -30 -11.167 -55 -33.5 -75s-56.166 -30 -101.499 -30
c-17.333 0 -32.833 1.5 -46.5 4.5s-25.167 6.5 -34.5 10.5c-11.333 4 -21 9 -29 15l25 55c4.66699 -2.66699 10.334 -5.33398 17.001 -8.00098c12.667 -4.66699 28.667 -7 48 -7c17.333 0 30 3.16699 38 9.5s12 13.166 12 20.499s-3.5 14.166 -10.5 20.499
s-16.833 9.5 -29.5 9.5h-30v105c-54 9.33301 -101.667 28.333 -143 57c-18 12 -35.5 26.833 -52.5 44.5s-32.167 38.667 -45.5 63s-24 52.166 -32 83.499s-12 67 -12 107c0 52.667 8.66699 101 26 145s41 82 71 114s65 56.833 105 74.5s82.667 26.5 128 26.5
c42.667 0 80.167 -5.83301 112.5 -17.5s59.5 -24.167 81.5 -37.5c26 -16.667 48 -35 66 -55l-100 -105c-10.667 13.333 -23.334 25.666 -38.001 36.999c-12.667 9.33301 -28.167 18 -46.5 26s-40.166 12 -65.499 12c-24 0 -46.5 -4.83301 -67.5 -14.5s-39.5 -24 -55.5 -43
s-28.667 -42.167 -38 -69.5s-14 -58.333 -14 -93c0 -35.333 4.66699 -66.5 14 -93.5s22 -50 38 -69s34.5 -33.333 55.5 -43s43.5 -14.5 67.5 -14.5c28 0 51.833 4.66699 71.5 14s36.167 19.666 49.5 30.999c15.333 12.667 28.333 27.667 39 45z" />
    <glyph glyph-name="Egrave" unicode="&#xc8;" horiz-adv-x="580" 
d="M70 700h460v-140h-300v-90h240v-140h-240v-190h320v-140h-480v700zM355 780h-110l-110 130h160z" />
    <glyph glyph-name="Eacute" unicode="&#xc9;" horiz-adv-x="580" 
d="M70 700h460v-140h-300v-90h240v-140h-240v-190h320v-140h-480v700zM305 910h160l-110 -130h-110z" />
    <glyph glyph-name="Ecircumflex" unicode="&#xca;" horiz-adv-x="580" 
d="M70 700h460v-140h-300v-90h240v-140h-240v-190h320v-140h-480v700zM470 780h-130l-25 55h-10l-25 -55h-130l90 130h140z" />
    <glyph glyph-name="Edieresis" unicode="&#xcb;" horiz-adv-x="580" 
d="M70 700h460v-140h-300v-90h240v-140h-240v-190h320v-140h-480v700zM150 910h130v-130h-130v130zM340 910h130v-130h-130v130z" />
    <glyph glyph-name="Igrave" unicode="&#xcc;" horiz-adv-x="300" 
d="M230 0h-160v700h160v-700zM206 780h-110l-110 130h160z" />
    <glyph glyph-name="Iacute" unicode="&#xcd;" horiz-adv-x="300" 
d="M230 0h-160v700h160v-700zM155 910h160l-110 -130h-110z" />
    <glyph glyph-name="Icircumflex" unicode="&#xce;" horiz-adv-x="300" 
d="M230 0h-160v700h160v-700zM311 780h-130l-25 55h-10l-25 -55h-130l90 130h140z" />
    <glyph glyph-name="Idieresis" unicode="&#xcf;" horiz-adv-x="300" 
d="M230 0h-160v700h160v-700zM-9 910h130v-130h-130v130zM181 910h130v-130h-130v130z" />
    <glyph glyph-name="Eth" unicode="&#xd0;" horiz-adv-x="690" 
d="M30 470l60 0.000976562v215c17.333 4.66699 37 8.66699 59 12c19.333 3.33301 42.5 6.33301 69.5 9s57.5 4 91.5 4c47.333 0 91.666 -8.83301 132.999 -26.5s77.333 -42.5 108 -74.5s54.834 -70 72.501 -114s26.5 -92.333 26.5 -145s-8.5 -100.5 -25.5 -143.5
s-40.333 -79.833 -70 -110.5s-64.667 -54.334 -105 -71.001s-83.5 -25 -129.5 -25h-230v330h-60v140zM485 350.001c0 34.667 -4.66504 65.667 -13.998 93s-22 50.5 -38 69.5s-34.5 33.333 -55.5 43s-43.5 14.5 -67.5 14.5c-11.333 0 -20.833 -0.5 -28.5 -1.5
s-13.834 -2.16699 -18.501 -3.5l-13 -5v-90h110v-140h-110v-200h70c21.333 0 41.833 4.83301 61.5 14.5s37.167 24 52.5 43s27.666 42 36.999 69s14 58.167 14 93.5z" />
    <glyph glyph-name="Ntilde" unicode="&#xd1;" horiz-adv-x="720" 
d="M240 400h-10v-400h-160v700h145l265 -400h10v400h160v-700h-145zM520 910c-7.33301 -47.333 -19.667 -80.833 -37 -100.5s-38.333 -29.5 -63 -29.5c-12.667 0 -23.5 1.5 -32.5 4.5s-17.333 6.5 -25 10.5s-14.834 7.5 -21.501 10.5s-13.667 4.5 -21 4.5
s-13.5 -1.83301 -18.5 -5.5s-8.83301 -11.834 -11.5 -24.501h-90c7.33301 47.333 19.5 80.833 36.5 100.5s38.167 29.5 63.5 29.5c12.667 0 23.5 -1.5 32.5 -4.5s17.333 -6.5 25 -10.5s14.834 -7.5 21.501 -10.5s13.667 -4.5 21 -4.5s13.5 1.83301 18.5 5.5
s8.83301 11.834 11.5 24.501h90z" />
    <glyph glyph-name="Ograve" unicode="&#xd2;" horiz-adv-x="740" 
d="M40 350c0 52.667 8.66699 101 26 145s41 82 71 114s65 56.833 105 74.5s82.667 26.5 128 26.5c44.667 0 87 -8.83301 127 -26.5s75 -42.5 105 -74.5s53.833 -70 71.5 -114s26.5 -92.333 26.5 -145s-8.83301 -101 -26.5 -145s-41.5 -82 -71.5 -114s-65 -56.833 -105 -74.5
s-82.333 -26.5 -127 -26.5c-45.333 0 -88 8.83301 -128 26.5s-75 42.5 -105 74.5s-53.667 70 -71 114s-26 92.333 -26 145zM205 350c0 -35.333 4.66699 -66.5 14 -93.5s21.666 -50 36.999 -69s32.833 -33.333 52.5 -43s40.167 -14.5 61.5 -14.5s41.833 4.83301 61.5 14.5
s37.167 24 52.5 43s27.666 42 36.999 69s14 58.167 14 93.5c0 34.667 -4.66699 65.667 -14 93s-21.666 50.5 -36.999 69.5s-32.833 33.333 -52.5 43s-40.167 14.5 -61.5 14.5s-41.833 -4.83301 -61.5 -14.5s-37.167 -24 -52.5 -43s-27.666 -42.167 -36.999 -69.5
s-14 -58.333 -14 -93zM425 780h-110l-110 130h160z" />
    <glyph glyph-name="Oacute" unicode="&#xd3;" horiz-adv-x="740" 
d="M40 350c0 52.667 8.66699 101 26 145s41 82 71 114s65 56.833 105 74.5s82.667 26.5 128 26.5c44.667 0 87 -8.83301 127 -26.5s75 -42.5 105 -74.5s53.833 -70 71.5 -114s26.5 -92.333 26.5 -145s-8.83301 -101 -26.5 -145s-41.5 -82 -71.5 -114s-65 -56.833 -105 -74.5
s-82.333 -26.5 -127 -26.5c-45.333 0 -88 8.83301 -128 26.5s-75 42.5 -105 74.5s-53.667 70 -71 114s-26 92.333 -26 145zM205 350c0 -35.333 4.66699 -66.5 14 -93.5s21.666 -50 36.999 -69s32.833 -33.333 52.5 -43s40.167 -14.5 61.5 -14.5s41.833 4.83301 61.5 14.5
s37.167 24 52.5 43s27.666 42 36.999 69s14 58.167 14 93.5c0 34.667 -4.66699 65.667 -14 93s-21.666 50.5 -36.999 69.5s-32.833 33.333 -52.5 43s-40.167 14.5 -61.5 14.5s-41.833 -4.83301 -61.5 -14.5s-37.167 -24 -52.5 -43s-27.666 -42.167 -36.999 -69.5
s-14 -58.333 -14 -93zM375 910h160l-110 -130h-110z" />
    <glyph glyph-name="Ocircumflex" unicode="&#xd4;" horiz-adv-x="740" 
d="M40 350c0 52.667 8.66699 101 26 145s41 82 71 114s65 56.833 105 74.5s82.667 26.5 128 26.5c44.667 0 87 -8.83301 127 -26.5s75 -42.5 105 -74.5s53.833 -70 71.5 -114s26.5 -92.333 26.5 -145s-8.83301 -101 -26.5 -145s-41.5 -82 -71.5 -114s-65 -56.833 -105 -74.5
s-82.333 -26.5 -127 -26.5c-45.333 0 -88 8.83301 -128 26.5s-75 42.5 -105 74.5s-53.667 70 -71 114s-26 92.333 -26 145zM205 350c0 -35.333 4.66699 -66.5 14 -93.5s21.666 -50 36.999 -69s32.833 -33.333 52.5 -43s40.167 -14.5 61.5 -14.5s41.833 4.83301 61.5 14.5
s37.167 24 52.5 43s27.666 42 36.999 69s14 58.167 14 93.5c0 34.667 -4.66699 65.667 -14 93s-21.666 50.5 -36.999 69.5s-32.833 33.333 -52.5 43s-40.167 14.5 -61.5 14.5s-41.833 -4.83301 -61.5 -14.5s-37.167 -24 -52.5 -43s-27.666 -42.167 -36.999 -69.5
s-14 -58.333 -14 -93zM530 780h-130l-25 55h-10l-25 -55h-130l90 130h140z" />
    <glyph glyph-name="Otilde" unicode="&#xd5;" horiz-adv-x="740" 
d="M40 350c0 52.667 8.66699 101 26 145s41 82 71 114s65 56.833 105 74.5s82.667 26.5 128 26.5c44.667 0 87 -8.83301 127 -26.5s75 -42.5 105 -74.5s53.833 -70 71.5 -114s26.5 -92.333 26.5 -145s-8.83301 -101 -26.5 -145s-41.5 -82 -71.5 -114s-65 -56.833 -105 -74.5
s-82.333 -26.5 -127 -26.5c-45.333 0 -88 8.83301 -128 26.5s-75 42.5 -105 74.5s-53.667 70 -71 114s-26 92.333 -26 145zM205 350c0 -35.333 4.66699 -66.5 14 -93.5s21.666 -50 36.999 -69s32.833 -33.333 52.5 -43s40.167 -14.5 61.5 -14.5s41.833 4.83301 61.5 14.5
s37.167 24 52.5 43s27.666 42 36.999 69s14 58.167 14 93.5c0 34.667 -4.66699 65.667 -14 93s-21.666 50.5 -36.999 69.5s-32.833 33.333 -52.5 43s-40.167 14.5 -61.5 14.5s-41.833 -4.83301 -61.5 -14.5s-37.167 -24 -52.5 -43s-27.666 -42.167 -36.999 -69.5
s-14 -58.333 -14 -93zM530 910c-7.33301 -47.333 -19.667 -80.833 -37 -100.5s-38.333 -29.5 -63 -29.5c-12.667 0 -23.5 1.5 -32.5 4.5s-17.333 6.5 -25 10.5s-14.834 7.5 -21.501 10.5s-13.667 4.5 -21 4.5s-13.5 -1.83301 -18.5 -5.5s-8.83301 -11.834 -11.5 -24.501h-90
c7.33301 47.333 19.5 80.833 36.5 100.5s38.167 29.5 63.5 29.5c12.667 0 23.5 -1.5 32.5 -4.5s17.333 -6.5 25 -10.5s14.834 -7.5 21.501 -10.5s13.667 -4.5 21 -4.5s13.5 1.83301 18.5 5.5s8.83301 11.834 11.5 24.501h90z" />
    <glyph glyph-name="Odieresis" unicode="&#xd6;" horiz-adv-x="740" 
d="M40 350c0 52.667 8.66699 101 26 145s41 82 71 114s65 56.833 105 74.5s82.667 26.5 128 26.5c44.667 0 87 -8.83301 127 -26.5s75 -42.5 105 -74.5s53.833 -70 71.5 -114s26.5 -92.333 26.5 -145s-8.83301 -101 -26.5 -145s-41.5 -82 -71.5 -114s-65 -56.833 -105 -74.5
s-82.333 -26.5 -127 -26.5c-45.333 0 -88 8.83301 -128 26.5s-75 42.5 -105 74.5s-53.667 70 -71 114s-26 92.333 -26 145zM205 350c0 -35.333 4.66699 -66.5 14 -93.5s21.666 -50 36.999 -69s32.833 -33.333 52.5 -43s40.167 -14.5 61.5 -14.5s41.833 4.83301 61.5 14.5
s37.167 24 52.5 43s27.666 42 36.999 69s14 58.167 14 93.5c0 34.667 -4.66699 65.667 -14 93s-21.666 50.5 -36.999 69.5s-32.833 33.333 -52.5 43s-40.167 14.5 -61.5 14.5s-41.833 -4.83301 -61.5 -14.5s-37.167 -24 -52.5 -43s-27.666 -42.167 -36.999 -69.5
s-14 -58.333 -14 -93zM210 910h130v-130h-130v130zM400 910h130v-130h-130v130z" />
    <glyph glyph-name="multiply" unicode="&#xd7;" horiz-adv-x="460" 
d="M40 385l100 100l90 -90l90 90l100 -100l-90 -90l90 -90l-100 -100l-90 90l-90 -90l-100 100l90 90z" />
    <glyph glyph-name="Oslash" unicode="&#xd8;" horiz-adv-x="740" 
d="M40 350c0 52.667 8.66602 101 25.999 145s41 82 71 114s65 56.833 105 74.5s82.667 26.5 128 26.5c23.333 0 44.333 -2 63 -6s34.667 -8.66699 48 -14c15.333 -6 28.333 -12.667 39 -20l20 30h140l-70 -100c16.667 -17.333 31.667 -38.333 45 -63
c11.333 -21.333 21.666 -47.5 30.999 -78.5s14 -67.167 14 -108.5c0 -52.667 -8.83301 -101 -26.5 -145s-41.5 -82 -71.5 -114s-65 -56.833 -105 -74.5s-82.333 -26.5 -127 -26.5c-24 0 -45.167 2 -63.5 6s-34.166 8.66699 -47.499 14c-15.333 6 -28.333 12.667 -39 20
l-20 -30h-140l70 100c-17.333 17.333 -32.333 38.333 -45 63c-11.333 21.333 -21.666 47.333 -30.999 78s-14 67 -14 109zM534.999 350c0 17.333 -0.999023 32.833 -2.99902 46.5s-4.33301 25.167 -7 34.5c-2.66699 11.333 -6 21 -10 29l-215 -310
c4.66699 -4 10.667 -7.33301 18 -10c6 -2.66699 13.333 -5 22 -7s18.667 -3 30 -3c21.333 0 41.833 4.83301 61.5 14.5s37.167 24 52.5 43s27.666 42 36.999 69s14 58.167 14 93.5zM205 350c0 -17.333 0.999023 -32.833 2.99902 -46.5s4.33301 -25.167 7 -34.5
c2.66699 -11.333 6 -21 10 -29l215 310c-4.66699 4 -10.667 7.33301 -18 10c-6 2.66699 -13.333 5 -22 7s-18.667 3 -30 3c-21.333 0 -41.833 -4.83301 -61.5 -14.5s-37.167 -24 -52.5 -43s-27.666 -42.167 -36.999 -69.5s-14 -58.333 -14 -93z" />
    <glyph glyph-name="Ugrave" unicode="&#xd9;" horiz-adv-x="680" 
d="M455 700h159.998v-480c0 -32.667 -6.16699 -63 -18.5 -91s-30.166 -52.333 -53.499 -73s-52 -36.834 -86 -48.501s-73 -17.5 -117 -17.5s-83 5.83301 -117 17.5s-62.667 27.834 -86 48.501s-41.166 45 -53.499 73s-18.5 58.333 -18.5 91v480h160v-480
c0 -28 10.333 -51.667 31 -71s48.667 -29 84 -29s63.333 9.66699 84 29s31 43 31 71v480zM394.998 780h-110l-110 130h160z" />
    <glyph glyph-name="Uacute" unicode="&#xda;" horiz-adv-x="680" 
d="M455 700h159.998v-480c0 -32.667 -6.16699 -63 -18.5 -91s-30.166 -52.333 -53.499 -73s-52 -36.834 -86 -48.501s-73 -17.5 -117 -17.5s-83 5.83301 -117 17.5s-62.667 27.834 -86 48.501s-41.166 45 -53.499 73s-18.5 58.333 -18.5 91v480h160v-480
c0 -28 10.333 -51.667 31 -71s48.667 -29 84 -29s63.333 9.66699 84 29s31 43 31 71v480zM344.998 910h160l-110 -130h-110z" />
    <glyph glyph-name="Ucircumflex" unicode="&#xdb;" horiz-adv-x="680" 
d="M455 700h159.998v-480c0 -32.667 -6.16699 -63 -18.5 -91s-30.166 -52.333 -53.499 -73s-52 -36.834 -86 -48.501s-73 -17.5 -117 -17.5s-83 5.83301 -117 17.5s-62.667 27.834 -86 48.501s-41.166 45 -53.499 73s-18.5 58.333 -18.5 91v480h160v-480
c0 -28 10.333 -51.667 31 -71s48.667 -29 84 -29s63.333 9.66699 84 29s31 43 31 71v480zM499.998 780h-130l-25 55h-10l-25 -55h-130l90 130h140z" />
    <glyph glyph-name="Udieresis" unicode="&#xdc;" horiz-adv-x="680" 
d="M455 700h159.998v-480c0 -32.667 -6.16699 -63 -18.5 -91s-30.166 -52.333 -53.499 -73s-52 -36.834 -86 -48.501s-73 -17.5 -117 -17.5s-83 5.83301 -117 17.5s-62.667 27.834 -86 48.501s-41.166 45 -53.499 73s-18.5 58.333 -18.5 91v480h160v-480
c0 -28 10.333 -51.667 31 -71s48.667 -29 84 -29s63.333 9.66699 84 29s31 43 31 71v480zM179.998 910h130v-130h-130v130zM369.998 910h130v-130h-130v130z" />
    <glyph glyph-name="Yacute" unicode="&#xdd;" horiz-adv-x="560" 
d="M395 700h165l-200 -385v-315h-160v315l-200 385h165l110 -230h10zM285 910h160l-110 -130h-110z" />
    <glyph glyph-name="Thorn" unicode="&#xde;" horiz-adv-x="675" 
d="M70 700l160.004 0.00195312v-75l22 5c7.33301 1.33301 16.666 2.5 27.999 3.5s24.666 1.5 39.999 1.5c52.667 0 99.167 -6.66699 139.5 -20s74.166 -31.833 101.499 -55.5s48.166 -51.334 62.499 -83.001s21.5 -65.5 21.5 -101.5s-7 -69.833 -21 -101.5
s-34.167 -59.334 -60.5 -83.001s-58.333 -42.167 -96 -55.5s-80.167 -20 -127.5 -20h-110v-115h-160v700zM480.004 375.002c0 35.333 -13.502 65 -40.502 89s-66.833 36 -119.5 36c-15.333 0 -28.666 -0.5 -39.999 -1.5s-20.666 -2.16699 -27.999 -3.5l-22 -5v-245h110
c42.667 0 76.667 12.167 102 36.5s38 55.5 38 93.5z" />
    <glyph glyph-name="germandbls" unicode="&#xdf;" horiz-adv-x="555" 
d="M255 480c16 1.33301 28.999 7.00391 38.999 17.0039s17.667 20.667 23 32c6.66699 13.333 11 28.666 13 45.999h-30c-25.333 0 -46.666 -10.167 -63.999 -30.5s-26 -51.833 -26 -94.5v-450h-150v445c0 37.333 6.16699 71.666 18.5 102.999s29.333 58.166 51 80.499
s47 39.833 76 52.5s60.5 19 94.5 19h190c0 -46.667 -5.5 -85.167 -16.5 -115.5s-23.167 -54.833 -36.5 -73.5c-15.333 -22 -32.666 -39 -51.999 -51v-10c26 -7.33301 49.333 -19.666 70 -36.999c8.66699 -7.33301 17.167 -16.333 25.5 -27s15.833 -23.334 22.5 -38.001
s12 -31.334 16 -50.001s6 -39.667 6 -63c0 -35.333 -6.16699 -67.833 -18.5 -97.5s-29.5 -55.5 -51.5 -77.5s-48 -39.167 -78 -51.5s-62.333 -18.5 -97 -18.5c-14.667 0 -26 1.66699 -34 5c-4.66699 1.33301 -8.33398 3 -11.001 5v130
c2.66699 -2 6.33398 -3.66699 11.001 -5c8 -3.33301 19.333 -5 34 -5c25.333 0 46.666 9.66699 63.999 29s26 48 26 86s-8.33301 66.667 -25 86s-35 29 -55 29h-35v130z" />
    <glyph glyph-name="agrave" unicode="&#xe0;" 
d="M320 35c-8 -8.66699 -17.333 -16.3359 -28 -23.0029c-9.33301 -5.33301 -20.5 -10.333 -33.5 -15s-27.5 -7 -43.5 -7c-24 0 -47 5.5 -69 16.5s-41.667 27.333 -59 49s-31.166 48.334 -41.499 80.001s-15.5 68.167 -15.5 109.5s5.16699 77.833 15.5 109.5
s23.666 58.334 39.999 80.001s35 38 56 49s42.167 16.5 63.5 16.5c16 0 30.5 -2.5 43.5 -7.5s24.167 -10.167 33.5 -15.5c10.667 -6.66699 20 -14 28 -22h10v35h150v-320c0 -20 1 -40.167 3 -60.5s4.33301 -38.5 7 -54.5c2.66699 -19.333 6 -37.666 10 -54.999h-150l-10 35
h-10zM265 119.998c10 0 18.333 1.50098 25 4.50098s12.334 6.5 17.001 10.5c5.33301 4 9.66602 9 12.999 15v190c-3.33301 5.33301 -7.66602 10.333 -12.999 15c-4.66699 3.33301 -10.334 6.66602 -17.001 9.99902s-15 5 -25 5c-20 0 -38.333 -10.167 -55 -30.5
s-25 -51.833 -25 -94.5s8.33301 -74.167 25 -94.5s35 -30.5 55 -30.5zM315 589.999h-110l-110 140h160z" />
    <glyph glyph-name="aacute" unicode="&#xe1;" 
d="M320 35c-8 -8.66699 -17.333 -16.3359 -28 -23.0029c-9.33301 -5.33301 -20.5 -10.333 -33.5 -15s-27.5 -7 -43.5 -7c-24 0 -47 5.5 -69 16.5s-41.667 27.333 -59 49s-31.166 48.334 -41.499 80.001s-15.5 68.167 -15.5 109.5s5.16699 77.833 15.5 109.5
s23.666 58.334 39.999 80.001s35 38 56 49s42.167 16.5 63.5 16.5c16 0 30.5 -2.5 43.5 -7.5s24.167 -10.167 33.5 -15.5c10.667 -6.66699 20 -14 28 -22h10v35h150v-320c0 -20 1 -40.167 3 -60.5s4.33301 -38.5 7 -54.5c2.66699 -19.333 6 -37.666 10 -54.999h-150l-10 35
h-10zM265 119.998c10 0 18.333 1.50098 25 4.50098s12.334 6.5 17.001 10.5c5.33301 4 9.66602 9 12.999 15v190c-3.33301 5.33301 -7.66602 10.333 -12.999 15c-4.66699 3.33301 -10.334 6.66602 -17.001 9.99902s-15 5 -25 5c-20 0 -38.333 -10.167 -55 -30.5
s-25 -51.833 -25 -94.5s8.33301 -74.167 25 -94.5s35 -30.5 55 -30.5zM265 729.999h160l-110 -140h-110z" />
    <glyph glyph-name="acircumflex" unicode="&#xe2;" 
d="M320 35c-8 -8.66699 -17.333 -16.3359 -28 -23.0029c-9.33301 -5.33301 -20.5 -10.333 -33.5 -15s-27.5 -7 -43.5 -7c-24 0 -47 5.5 -69 16.5s-41.667 27.333 -59 49s-31.166 48.334 -41.499 80.001s-15.5 68.167 -15.5 109.5s5.16699 77.833 15.5 109.5
s23.666 58.334 39.999 80.001s35 38 56 49s42.167 16.5 63.5 16.5c16 0 30.5 -2.5 43.5 -7.5s24.167 -10.167 33.5 -15.5c10.667 -6.66699 20 -14 28 -22h10v35h150v-320c0 -20 1 -40.167 3 -60.5s4.33301 -38.5 7 -54.5c2.66699 -19.333 6 -37.666 10 -54.999h-150l-10 35
h-10zM265 119.998c10 0 18.333 1.50098 25 4.50098s12.334 6.5 17.001 10.5c5.33301 4 9.66602 9 12.999 15v190c-3.33301 5.33301 -7.66602 10.333 -12.999 15c-4.66699 3.33301 -10.334 6.66602 -17.001 9.99902s-15 5 -25 5c-20 0 -38.333 -10.167 -55 -30.5
s-25 -51.833 -25 -94.5s8.33301 -74.167 25 -94.5s35 -30.5 55 -30.5zM420 589.999h-130l-25 65h-10l-25 -65h-130l90 140h140z" />
    <glyph glyph-name="atilde" unicode="&#xe3;" 
d="M320 35c-8 -8.66699 -17.333 -16.3359 -28 -23.0029c-9.33301 -5.33301 -20.5 -10.333 -33.5 -15s-27.5 -7 -43.5 -7c-24 0 -47 5.5 -69 16.5s-41.667 27.333 -59 49s-31.166 48.334 -41.499 80.001s-15.5 68.167 -15.5 109.5s5.16699 77.833 15.5 109.5
s23.666 58.334 39.999 80.001s35 38 56 49s42.167 16.5 63.5 16.5c16 0 30.5 -2.5 43.5 -7.5s24.167 -10.167 33.5 -15.5c10.667 -6.66699 20 -14 28 -22h10v35h150v-320c0 -20 1 -40.167 3 -60.5s4.33301 -38.5 7 -54.5c2.66699 -19.333 6 -37.666 10 -54.999h-150l-10 35
h-10zM265 119.998c10 0 18.333 1.50098 25 4.50098s12.334 6.5 17.001 10.5c5.33301 4 9.66602 9 12.999 15v190c-3.33301 5.33301 -7.66602 10.333 -12.999 15c-4.66699 3.33301 -10.334 6.66602 -17.001 9.99902s-15 5 -25 5c-20 0 -38.333 -10.167 -55 -30.5
s-25 -51.833 -25 -94.5s8.33301 -74.167 25 -94.5s35 -30.5 55 -30.5zM420 729.999c-7.33301 -52.667 -19.5 -89.167 -36.5 -109.5s-38.167 -30.5 -63.5 -30.5c-12.667 0 -23.5 1.5 -32.5 4.5s-17.333 6.5 -25 10.5s-14.834 7.5 -21.501 10.5s-13.667 4.5 -21 4.5
s-13.5 -1.83301 -18.5 -5.5s-8.83301 -11.834 -11.5 -24.501h-90c7.33301 52.667 19.5 89.167 36.5 109.5s38.167 30.5 63.5 30.5c12.667 0 23.5 -1.5 32.5 -4.5s17.333 -6.5 25 -10.5s14.834 -7.5 21.501 -10.5s13.667 -4.5 21 -4.5s13.5 1.83301 18.5 5.5
s8.83301 11.834 11.5 24.501h90z" />
    <glyph glyph-name="adieresis" unicode="&#xe4;" 
d="M320 35c-8 -8.66699 -17.333 -16.3359 -28 -23.0029c-9.33301 -5.33301 -20.5 -10.333 -33.5 -15s-27.5 -7 -43.5 -7c-24 0 -47 5.5 -69 16.5s-41.667 27.333 -59 49s-31.166 48.334 -41.499 80.001s-15.5 68.167 -15.5 109.5s5.16699 77.833 15.5 109.5
s23.666 58.334 39.999 80.001s35 38 56 49s42.167 16.5 63.5 16.5c16 0 30.5 -2.5 43.5 -7.5s24.167 -10.167 33.5 -15.5c10.667 -6.66699 20 -14 28 -22h10v35h150v-320c0 -20 1 -40.167 3 -60.5s4.33301 -38.5 7 -54.5c2.66699 -19.333 6 -37.666 10 -54.999h-150l-10 35
h-10zM265 119.998c10 0 18.333 1.50098 25 4.50098s12.334 6.5 17.001 10.5c5.33301 4 9.66602 9 12.999 15v190c-3.33301 5.33301 -7.66602 10.333 -12.999 15c-4.66699 3.33301 -10.334 6.66602 -17.001 9.99902s-15 5 -25 5c-20 0 -38.333 -10.167 -55 -30.5
s-25 -51.833 -25 -94.5s8.33301 -74.167 25 -94.5s35 -30.5 55 -30.5zM100 729.999h130v-140h-130v140zM290 729.999h130v-140h-130v140z" />
    <glyph glyph-name="aring" unicode="&#xe5;" 
d="M320 35c-8 -8.66699 -17.333 -16.3359 -28 -23.0029c-9.33301 -5.33301 -20.5 -10.333 -33.5 -15s-27.5 -7 -43.5 -7c-24 0 -47 5.5 -69 16.5s-41.667 27.333 -59 49s-31.166 48.334 -41.499 80.001s-15.5 68.167 -15.5 109.5s5.16699 77.833 15.5 109.5
s23.666 58.334 39.999 80.001s35 38 56 49s42.167 16.5 63.5 16.5c16 0 30.5 -2.5 43.5 -7.5s24.167 -10.167 33.5 -15.5c10.667 -6.66699 20 -14 28 -22h10v35h150v-320c0 -20 1 -40.167 3 -60.5s4.33301 -38.5 7 -54.5c2.66699 -19.333 6 -37.666 10 -54.999h-150l-10 35
h-10zM265 119.998c10 0 18.333 1.50098 25 4.50098s12.334 6.5 17.001 10.5c5.33301 4 9.66602 9 12.999 15v190c-3.33301 5.33301 -7.66602 10.333 -12.999 15c-4.66699 3.33301 -10.334 6.66602 -17.001 9.99902s-15 5 -25 5c-20 0 -38.333 -10.167 -55 -30.5
s-25 -51.833 -25 -94.5s8.33301 -74.167 25 -94.5s35 -30.5 55 -30.5zM220 669.999c0 -26.667 13.333 -40 40 -40s40 13.333 40 40s-13.333 40 -40 40s-40 -13.333 -40 -40zM150 669.999c0 14.667 2.83301 28.667 8.5 42s13.5 25 23.5 35s21.667 18 35 24s27.666 9 42.999 9
c14.667 0 28.667 -3 42 -9s25 -14 35 -24s18 -21.667 24 -35s9 -27.333 9 -42c0 -15.333 -3 -29.666 -9 -42.999s-14 -25 -24 -35s-21.667 -17.833 -35 -23.5s-27.333 -8.5 -42 -8.5c-15.333 0 -29.666 2.83301 -42.999 8.5s-25 13.5 -35 23.5s-17.833 21.667 -23.5 35
s-8.5 27.666 -8.5 42.999z" />
    <glyph glyph-name="ae" unicode="&#xe6;" horiz-adv-x="780" 
d="M535 -10c-22.667 0 -42.8369 3.83691 -60.5039 11.5039s-32.834 16.167 -45.501 25.5c-14.667 11.333 -27.667 24 -39 38h-10c-11.333 -14 -24.666 -26.667 -39.999 -38c-13.333 -9.33301 -29.5 -17.833 -48.5 -25.5s-41.167 -11.5 -66.5 -11.5
c-31.333 0 -59.166 4.16699 -83.499 12.5s-44.666 19.666 -60.999 33.999s-28.833 31.166 -37.5 50.499s-13 40.333 -13 63s4.16699 43.667 12.5 63s20.5 36.166 36.5 50.499s35.5 25.666 58.5 33.999s48.833 12.5 77.5 12.5h95c-4.66699 11.333 -10.667 21.333 -18 30
c-6.66699 7.33301 -15.5 14.166 -26.5 20.499s-24.5 9.5 -40.5 9.5c-14 0 -25.5 -2.66699 -34.5 -8s-16.167 -11 -21.5 -17c-6.66699 -7.33301 -11.334 -15.666 -14.001 -24.999l-110 60c11.333 22.667 26 42.667 44 60c15.333 15.333 35 29.166 59 41.499s53 18.5 87 18.5
c22.667 0 42.834 -4 60.501 -12s32.834 -16.667 45.501 -26c14.667 -11.333 27.667 -23.666 39 -36.999h10c11.333 13.333 24.333 25.666 39 36.999c12.667 9.33301 27.834 18 45.501 26s37.834 12 60.501 12c28.667 0 56 -6.5 82 -19.5s48.833 -30.833 68.5 -53.5
s35.334 -49.667 47.001 -81s17.5 -65 17.5 -101v-35h-295c1.33301 -17.333 5.66602 -32.333 12.999 -45c6 -11.333 15 -21.666 27 -30.999s28.667 -14 50 -14c13.333 0 24.666 2.5 33.999 7.5s16.666 10.833 21.999 17.5c6.66699 7.33301 11.334 15.666 14.001 24.999
l110 -60c-11.333 -22.667 -26 -42.667 -44 -60c-15.333 -15.333 -35 -29.166 -59 -41.499s-53 -18.5 -87 -18.5zM229.997 210.004c-12.667 0 -23.335 -4.50098 -32.002 -13.501s-13 -21.167 -13 -36.5s4.33301 -27.5 13 -36.5s19.334 -13.5 32.001 -13.5
c18.667 0 33.334 5.16699 44.001 15.5s18.667 21.833 24 34.5c6.66699 14.667 10.667 31.334 12 50.001h-80zM529.996 370.003c-14 0 -25.5 -3.16699 -34.5 -9.5s-16.167 -13.166 -21.5 -20.499c-6.66699 -8.66699 -11.334 -18.667 -14.001 -30h140
c-2.66699 11.333 -7.33398 21.333 -14.001 30c-5.33301 7.33301 -12.666 14.166 -21.999 20.499s-20.666 9.5 -33.999 9.5z" />
    <glyph glyph-name="ccedilla" unicode="&#xe7;" horiz-adv-x="480" 
d="M465 100c-9.33301 -16 -21.3359 -30.9971 -36.0029 -44.9971c-12.667 -12 -28.667 -23.667 -48 -35s-43 -19.666 -71 -24.999v-50c25.333 0 45.833 -7.66699 61.5 -23s23.5 -34.333 23.5 -57c0 -30 -11.167 -55 -33.5 -75s-56.166 -30 -101.499 -30
c-17.333 0 -32.833 1.5 -46.5 4.5s-25.167 6.5 -34.5 10.5c-11.333 4 -21 9 -29 15l25 55c4.66699 -2.66699 10.334 -5.33398 17.001 -8.00098c12.667 -4.66699 28.667 -7 48 -7c17.333 0 30 3.16699 38 9.5s12 13.166 12 20.499s-3.5 14.166 -10.5 20.499
s-16.833 9.5 -29.5 9.5h-30v105c-36 10 -67.667 26 -95 48c-12 9.33301 -23.667 20.166 -35 32.499s-21.5 26.833 -30.5 43.5s-16.167 35.334 -21.5 56.001s-8 44 -8 70c0 36 6.33301 69.667 19 101s29.834 58.333 51.501 81s46.667 40.5 75 53.5s58.166 19.5 89.499 19.5
c34 0 63.167 -5.16699 87.5 -15.5s44.5 -21.833 60.5 -34.5c18.667 -14.667 34.334 -31.334 47.001 -50.001l-105 -85c-5.33301 10 -11.666 19 -18.999 27c-6.66699 7.33301 -15.167 13.833 -25.5 19.5s-22.166 8.5 -35.499 8.5c-25.333 0 -46.666 -10.167 -63.999 -30.5
s-26 -51.833 -26 -94.5s8.66699 -74.167 26 -94.5s38.666 -30.5 63.999 -30.5c15.333 0 28.166 3.33301 38.499 10s19.166 14 26.499 22c8 9.33301 14.667 20.333 20 33z" />
    <glyph glyph-name="egrave" unicode="&#xe8;" 
d="M175 210c2 -17.333 6.66699 -32.3359 14 -45.0029c6.66699 -11.333 16.667 -21.666 30 -30.999s32 -14 56 -14c15.333 0 27.833 2.5 37.5 7.5s17.834 10.833 24.501 17.5c7.33301 7.33301 13.333 15.666 18 24.999l110 -60c-13.333 -22.667 -29.666 -42.667 -48.999 -60
c-16.667 -15.333 -37.5 -29.166 -62.5 -41.499s-54.5 -18.5 -88.5 -18.5c-31.333 0 -61.166 6.5 -89.499 19.5s-53.333 30.833 -75 53.5s-38.834 49.667 -51.501 81s-19 65 -19 101s6.33301 69.667 19 101s29.834 58.333 51.501 81s46.667 40.5 75 53.5
s58.166 19.5 89.499 19.5c30 0 58.667 -6.33301 86 -19s51.166 -30.167 71.499 -52.5s36.666 -49.166 48.999 -80.499s18.5 -65.666 18.5 -102.999v-35h-315zM260 369.997c-15.333 0 -28.166 -3.16699 -38.499 -9.5s-18.5 -13.166 -24.5 -20.499
c-7.33301 -8.66699 -13 -18.667 -17 -30h160c-4.66699 11.333 -10.667 21.333 -18 30c-6.66699 7.33301 -14.834 14.166 -24.501 20.499s-22.167 9.5 -37.5 9.5zM315 589.997h-110l-110 140h160z" />
    <glyph glyph-name="eacute" unicode="&#xe9;" 
d="M175 210c2 -17.333 6.66699 -32.3359 14 -45.0029c6.66699 -11.333 16.667 -21.666 30 -30.999s32 -14 56 -14c15.333 0 27.833 2.5 37.5 7.5s17.834 10.833 24.501 17.5c7.33301 7.33301 13.333 15.666 18 24.999l110 -60c-13.333 -22.667 -29.666 -42.667 -48.999 -60
c-16.667 -15.333 -37.5 -29.166 -62.5 -41.499s-54.5 -18.5 -88.5 -18.5c-31.333 0 -61.166 6.5 -89.499 19.5s-53.333 30.833 -75 53.5s-38.834 49.667 -51.501 81s-19 65 -19 101s6.33301 69.667 19 101s29.834 58.333 51.501 81s46.667 40.5 75 53.5
s58.166 19.5 89.499 19.5c30 0 58.667 -6.33301 86 -19s51.166 -30.167 71.499 -52.5s36.666 -49.166 48.999 -80.499s18.5 -65.666 18.5 -102.999v-35h-315zM260 369.997c-15.333 0 -28.166 -3.16699 -38.499 -9.5s-18.5 -13.166 -24.5 -20.499
c-7.33301 -8.66699 -13 -18.667 -17 -30h160c-4.66699 11.333 -10.667 21.333 -18 30c-6.66699 7.33301 -14.834 14.166 -24.501 20.499s-22.167 9.5 -37.5 9.5zM265 729.997h160l-110 -140h-110z" />
    <glyph glyph-name="ecircumflex" unicode="&#xea;" 
d="M175 210c2 -17.333 6.66699 -32.3359 14 -45.0029c6.66699 -11.333 16.667 -21.666 30 -30.999s32 -14 56 -14c15.333 0 27.833 2.5 37.5 7.5s17.834 10.833 24.501 17.5c7.33301 7.33301 13.333 15.666 18 24.999l110 -60c-13.333 -22.667 -29.666 -42.667 -48.999 -60
c-16.667 -15.333 -37.5 -29.166 -62.5 -41.499s-54.5 -18.5 -88.5 -18.5c-31.333 0 -61.166 6.5 -89.499 19.5s-53.333 30.833 -75 53.5s-38.834 49.667 -51.501 81s-19 65 -19 101s6.33301 69.667 19 101s29.834 58.333 51.501 81s46.667 40.5 75 53.5
s58.166 19.5 89.499 19.5c30 0 58.667 -6.33301 86 -19s51.166 -30.167 71.499 -52.5s36.666 -49.166 48.999 -80.499s18.5 -65.666 18.5 -102.999v-35h-315zM260 369.997c-15.333 0 -28.166 -3.16699 -38.499 -9.5s-18.5 -13.166 -24.5 -20.499
c-7.33301 -8.66699 -13 -18.667 -17 -30h160c-4.66699 11.333 -10.667 21.333 -18 30c-6.66699 7.33301 -14.834 14.166 -24.501 20.499s-22.167 9.5 -37.5 9.5zM420 589.997h-130l-25 65h-10l-25 -65h-130l90 140h140z" />
    <glyph glyph-name="edieresis" unicode="&#xeb;" 
d="M175 210c2 -17.333 6.66699 -32.3359 14 -45.0029c6.66699 -11.333 16.667 -21.666 30 -30.999s32 -14 56 -14c15.333 0 27.833 2.5 37.5 7.5s17.834 10.833 24.501 17.5c7.33301 7.33301 13.333 15.666 18 24.999l110 -60c-13.333 -22.667 -29.666 -42.667 -48.999 -60
c-16.667 -15.333 -37.5 -29.166 -62.5 -41.499s-54.5 -18.5 -88.5 -18.5c-31.333 0 -61.166 6.5 -89.499 19.5s-53.333 30.833 -75 53.5s-38.834 49.667 -51.501 81s-19 65 -19 101s6.33301 69.667 19 101s29.834 58.333 51.501 81s46.667 40.5 75 53.5
s58.166 19.5 89.499 19.5c30 0 58.667 -6.33301 86 -19s51.166 -30.167 71.499 -52.5s36.666 -49.166 48.999 -80.499s18.5 -65.666 18.5 -102.999v-35h-315zM260 369.997c-15.333 0 -28.166 -3.16699 -38.499 -9.5s-18.5 -13.166 -24.5 -20.499
c-7.33301 -8.66699 -13 -18.667 -17 -30h160c-4.66699 11.333 -10.667 21.333 -18 30c-6.66699 7.33301 -14.834 14.166 -24.501 20.499s-22.167 9.5 -37.5 9.5zM100 729.997h130v-140h-130v140zM290 729.997h130v-140h-130v140z" />
    <glyph glyph-name="igrave" unicode="&#xec;" horiz-adv-x="260" 
d="M55 490h150v-490h-150v490zM186 590h-110l-110 140h160z" />
    <glyph glyph-name="iacute" unicode="&#xed;" horiz-adv-x="260" 
d="M55 490h150v-490h-150v490zM135 730h160l-110 -140h-110z" />
    <glyph glyph-name="icircumflex" unicode="&#xee;" horiz-adv-x="260" 
d="M55 490h150v-490h-150v490zM291 590h-130l-25 65h-10l-25 -65h-130l90 140h140z" />
    <glyph glyph-name="idieresis" unicode="&#xef;" horiz-adv-x="260" 
d="M55 490h150v-490h-150v490zM-29 730h130v-140h-130v140zM161 730h130v-140h-130v140z" />
    <glyph glyph-name="eth" unicode="&#xf0;" horiz-adv-x="530" 
d="M395 590c19.333 -21.333 36.665 -47.3311 51.998 -77.998c13.333 -26.667 25.5 -59.834 36.5 -99.501s16.5 -87.167 16.5 -142.5v-35c0 -35.333 -6.16699 -67.833 -18.5 -97.5s-29.166 -55.5 -50.499 -77.5s-46.166 -39.167 -74.499 -51.5s-58.833 -18.5 -91.5 -18.5
s-63.167 6.16699 -91.5 18.5s-53.166 29.5 -74.499 51.5s-38.166 47.833 -50.499 77.5s-18.5 62.167 -18.5 97.5c0 34.667 6 67 18 97s28 56 48 78s43 39.167 69 51.5s52.667 18.5 80 18.5c22.667 0 41.667 -3.66699 57 -11s27.666 -15.333 36.999 -24
c11.333 -10.667 20 -22.334 26 -35.001h10c-7.33301 23.333 -15.5 44 -24.5 62s-17.167 32.667 -24.5 44c-8.66699 13.333 -17.334 24.666 -26.001 33.999l-125 -60l-30 70l100 50c-16.667 15.333 -32.667 28.5 -48 39.5s-29 20.167 -41 27.5
c-14 8.66699 -27.667 16.334 -41 23.001h149l26 -16c7.33301 -4.66699 15 -10 23 -16s15.333 -12 22 -18l110 50l30 -70zM344.999 235.002c0 40 -7.66699 69.167 -23 87.5s-34.333 27.5 -57 27.5s-41.667 -9.16699 -57 -27.5s-23 -47.5 -23 -87.5s7.66699 -69.167 23 -87.5
s34.333 -27.5 57 -27.5s41.667 9.16699 57 27.5s23 47.5 23 87.5z" />
    <glyph glyph-name="ntilde" unicode="&#xf1;" 
d="M315 305c0 43.333 -18.334 64.998 -55.001 64.998c-10 0 -18.5 -1.66699 -25.5 -5s-12.833 -6.66602 -17.5 -9.99902c-5.33301 -4.66699 -9.33301 -9.66699 -12 -15v-340h-150v490h150v-35h10c8 8 17.333 15.333 28 22c9.33301 5.33301 20.333 10.5 33 15.5
s27.334 7.5 44.001 7.5c42.667 0 77.5 -13.667 104.5 -41s40.5 -63.666 40.5 -108.999v-350h-150v305zM419.999 729.998c-7.33301 -52.667 -19.5 -89.167 -36.5 -109.5s-38.167 -30.5 -63.5 -30.5c-12.667 0 -23.5 1.5 -32.5 4.5s-17.333 6.5 -25 10.5
s-14.834 7.5 -21.501 10.5s-13.667 4.5 -21 4.5s-13.5 -1.83301 -18.5 -5.5s-8.83301 -11.834 -11.5 -24.501h-90c7.33301 52.667 19.5 89.167 36.5 109.5s38.167 30.5 63.5 30.5c12.667 0 23.5 -1.5 32.5 -4.5s17.333 -6.5 25 -10.5s14.834 -7.5 21.501 -10.5
s13.667 -4.5 21 -4.5s13.5 1.83301 18.5 5.5s8.83301 11.834 11.5 24.501h90z" />
    <glyph glyph-name="ograve" unicode="&#xf2;" horiz-adv-x="530" 
d="M30 245c0 36 6.33301 69.667 19 101s29.834 58.333 51.501 81s46.667 40.5 75 53.5s58.166 19.5 89.499 19.5s61.166 -6.5 89.499 -19.5s53.333 -30.833 75 -53.5s38.834 -49.667 51.501 -81s19 -65 19 -101s-6.33301 -69.667 -19 -101s-29.834 -58.333 -51.501 -81
s-46.667 -40.5 -75 -53.5s-58.166 -19.5 -89.499 -19.5s-61.166 6.5 -89.499 19.5s-53.333 30.833 -75 53.5s-38.834 49.667 -51.501 81s-19 65 -19 101zM185 245c0 -42.667 8.33301 -74.167 25 -94.5s35 -30.5 55 -30.5s38.333 10.167 55 30.5s25 51.833 25 94.5
s-8.33301 74.167 -25 94.5s-35 30.5 -55 30.5s-38.333 -10.167 -55 -30.5s-25 -51.833 -25 -94.5zM320 590h-110l-110 140h160z" />
    <glyph glyph-name="oacute" unicode="&#xf3;" horiz-adv-x="530" 
d="M30 245c0 36 6.33301 69.667 19 101s29.834 58.333 51.501 81s46.667 40.5 75 53.5s58.166 19.5 89.499 19.5s61.166 -6.5 89.499 -19.5s53.333 -30.833 75 -53.5s38.834 -49.667 51.501 -81s19 -65 19 -101s-6.33301 -69.667 -19 -101s-29.834 -58.333 -51.501 -81
s-46.667 -40.5 -75 -53.5s-58.166 -19.5 -89.499 -19.5s-61.166 6.5 -89.499 19.5s-53.333 30.833 -75 53.5s-38.834 49.667 -51.501 81s-19 65 -19 101zM185 245c0 -42.667 8.33301 -74.167 25 -94.5s35 -30.5 55 -30.5s38.333 10.167 55 30.5s25 51.833 25 94.5
s-8.33301 74.167 -25 94.5s-35 30.5 -55 30.5s-38.333 -10.167 -55 -30.5s-25 -51.833 -25 -94.5zM270 730h160l-110 -140h-110z" />
    <glyph glyph-name="ocircumflex" unicode="&#xf4;" horiz-adv-x="530" 
d="M30 245c0 36 6.33301 69.667 19 101s29.834 58.333 51.501 81s46.667 40.5 75 53.5s58.166 19.5 89.499 19.5s61.166 -6.5 89.499 -19.5s53.333 -30.833 75 -53.5s38.834 -49.667 51.501 -81s19 -65 19 -101s-6.33301 -69.667 -19 -101s-29.834 -58.333 -51.501 -81
s-46.667 -40.5 -75 -53.5s-58.166 -19.5 -89.499 -19.5s-61.166 6.5 -89.499 19.5s-53.333 30.833 -75 53.5s-38.834 49.667 -51.501 81s-19 65 -19 101zM185 245c0 -42.667 8.33301 -74.167 25 -94.5s35 -30.5 55 -30.5s38.333 10.167 55 30.5s25 51.833 25 94.5
s-8.33301 74.167 -25 94.5s-35 30.5 -55 30.5s-38.333 -10.167 -55 -30.5s-25 -51.833 -25 -94.5zM425 590h-130l-25 65h-10l-25 -65h-130l90 140h140z" />
    <glyph glyph-name="otilde" unicode="&#xf5;" horiz-adv-x="530" 
d="M30 245c0 36 6.33301 69.667 19 101s29.834 58.333 51.501 81s46.667 40.5 75 53.5s58.166 19.5 89.499 19.5s61.166 -6.5 89.499 -19.5s53.333 -30.833 75 -53.5s38.834 -49.667 51.501 -81s19 -65 19 -101s-6.33301 -69.667 -19 -101s-29.834 -58.333 -51.501 -81
s-46.667 -40.5 -75 -53.5s-58.166 -19.5 -89.499 -19.5s-61.166 6.5 -89.499 19.5s-53.333 30.833 -75 53.5s-38.834 49.667 -51.501 81s-19 65 -19 101zM185 245c0 -42.667 8.33301 -74.167 25 -94.5s35 -30.5 55 -30.5s38.333 10.167 55 30.5s25 51.833 25 94.5
s-8.33301 74.167 -25 94.5s-35 30.5 -55 30.5s-38.333 -10.167 -55 -30.5s-25 -51.833 -25 -94.5zM425 730c-7.33301 -52.667 -19.5 -89.167 -36.5 -109.5s-38.167 -30.5 -63.5 -30.5c-12.667 0 -23.5 1.5 -32.5 4.5s-17.333 6.5 -25 10.5s-14.834 7.5 -21.501 10.5
s-13.667 4.5 -21 4.5s-13.5 -1.83301 -18.5 -5.5s-8.83301 -11.834 -11.5 -24.501h-90c7.33301 52.667 19.5 89.167 36.5 109.5s38.167 30.5 63.5 30.5c12.667 0 23.5 -1.5 32.5 -4.5s17.333 -6.5 25 -10.5s14.834 -7.5 21.501 -10.5s13.667 -4.5 21 -4.5
s13.5 1.83301 18.5 5.5s8.83301 11.834 11.5 24.501h90z" />
    <glyph glyph-name="odieresis" unicode="&#xf6;" horiz-adv-x="530" 
d="M30 245c0 36 6.33301 69.667 19 101s29.834 58.333 51.501 81s46.667 40.5 75 53.5s58.166 19.5 89.499 19.5s61.166 -6.5 89.499 -19.5s53.333 -30.833 75 -53.5s38.834 -49.667 51.501 -81s19 -65 19 -101s-6.33301 -69.667 -19 -101s-29.834 -58.333 -51.501 -81
s-46.667 -40.5 -75 -53.5s-58.166 -19.5 -89.499 -19.5s-61.166 6.5 -89.499 19.5s-53.333 30.833 -75 53.5s-38.834 49.667 -51.501 81s-19 65 -19 101zM185 245c0 -42.667 8.33301 -74.167 25 -94.5s35 -30.5 55 -30.5s38.333 10.167 55 30.5s25 51.833 25 94.5
s-8.33301 74.167 -25 94.5s-35 30.5 -55 30.5s-38.333 -10.167 -55 -30.5s-25 -51.833 -25 -94.5zM105 730h130v-140h-130v140zM295 730h130v-140h-130v140z" />
    <glyph glyph-name="divide" unicode="&#xf7;" horiz-adv-x="440" 
d="M40 360h360v-130h-360v130zM155 200h130v-130h-130v130zM155 520h130v-130h-130v130z" />
    <glyph glyph-name="oslash" unicode="&#xf8;" horiz-adv-x="530" 
d="M30 245c0 36 6.33301 69.667 19 101s29.834 58.333 51.501 81s46.667 40.5 75 53.5s58.166 19.5 89.499 19.5c15.333 0 29.333 -1.33301 42 -4s23.667 -5.66699 33 -9c11.333 -3.33301 21.333 -7.33301 30 -12l10 15h115l-55 -75
c11.333 -13.333 21.333 -28.666 30 -45.999c7.33301 -14.667 14.166 -32.5 20.499 -53.5s9.5 -44.5 9.5 -70.5c0 -36 -6.33301 -69.667 -19 -101s-29.834 -58.333 -51.501 -81s-46.667 -40.5 -75 -53.5s-58.166 -19.5 -89.499 -19.5c-15.333 0 -29.333 1.16699 -42 3.5
s-23.667 5.16602 -33 8.49902c-11.333 3.33301 -21.333 7.66602 -30 12.999l-10 -15h-115l55 75c-11.333 13.333 -21.333 28.666 -30 45.999c-7.33301 14.667 -14.166 32.334 -20.499 53.001s-9.5 44.334 -9.5 71.001zM185 220l4.99902 -0.00195312l100 145
c-2 0.666992 -4.33301 1.33398 -7 2.00098c-2 0.666992 -4.66699 1.33398 -8 2.00098s-6.66602 1 -9.99902 1c-20 0 -38.333 -10.167 -55 -30.5s-25 -51.833 -25 -94.5v-25zM344.999 269.998h-5l-100 -145c2 -1.33301 4.33301 -2.33301 7 -3
c5.33301 -1.33301 11.333 -2 18 -2c20 0 38.333 10.167 55 30.5s25 51.833 25 94.5v25z" />
    <glyph glyph-name="ugrave" unicode="&#xf9;" 
d="M205 185c0 -25.333 4.83301 -43.3311 14.5 -53.998s23.167 -16 40.5 -16c10 0 18.333 1.66699 25 5s12.334 7.33301 17.001 12c5.33301 5.33301 9.66602 11.333 12.999 18v340h150v-490h-150v35h-10c-8 -8.66699 -17.333 -16.334 -28 -23.001
c-9.33301 -5.33301 -20.5 -10.333 -33.5 -15s-27.5 -7 -43.5 -7c-42.667 0 -77.5 13.667 -104.5 41s-40.5 63.666 -40.5 108.999v350h150v-305zM315 590.002h-110l-110 140h160z" />
    <glyph glyph-name="uacute" unicode="&#xfa;" 
d="M205 185c0 -25.333 4.83301 -43.3311 14.5 -53.998s23.167 -16 40.5 -16c10 0 18.333 1.66699 25 5s12.334 7.33301 17.001 12c5.33301 5.33301 9.66602 11.333 12.999 18v340h150v-490h-150v35h-10c-8 -8.66699 -17.333 -16.334 -28 -23.001
c-9.33301 -5.33301 -20.5 -10.333 -33.5 -15s-27.5 -7 -43.5 -7c-42.667 0 -77.5 13.667 -104.5 41s-40.5 63.666 -40.5 108.999v350h150v-305zM265 730.002h160l-110 -140h-110z" />
    <glyph glyph-name="ucircumflex" unicode="&#xfb;" 
d="M205 185c0 -25.333 4.83301 -43.3311 14.5 -53.998s23.167 -16 40.5 -16c10 0 18.333 1.66699 25 5s12.334 7.33301 17.001 12c5.33301 5.33301 9.66602 11.333 12.999 18v340h150v-490h-150v35h-10c-8 -8.66699 -17.333 -16.334 -28 -23.001
c-9.33301 -5.33301 -20.5 -10.333 -33.5 -15s-27.5 -7 -43.5 -7c-42.667 0 -77.5 13.667 -104.5 41s-40.5 63.666 -40.5 108.999v350h150v-305zM420 590.002h-130l-25 65h-10l-25 -65h-130l90 140h140z" />
    <glyph glyph-name="udieresis" unicode="&#xfc;" 
d="M205 185c0 -25.333 4.83301 -43.3311 14.5 -53.998s23.167 -16 40.5 -16c10 0 18.333 1.66699 25 5s12.334 7.33301 17.001 12c5.33301 5.33301 9.66602 11.333 12.999 18v340h150v-490h-150v35h-10c-8 -8.66699 -17.333 -16.334 -28 -23.001
c-9.33301 -5.33301 -20.5 -10.333 -33.5 -15s-27.5 -7 -43.5 -7c-42.667 0 -77.5 13.667 -104.5 41s-40.5 63.666 -40.5 108.999v350h150v-305zM100 730.002h130v-140h-130v140zM290 730.002h130v-140h-130v140z" />
    <glyph glyph-name="yacute" unicode="&#xfd;" horiz-adv-x="470" 
d="M235 245l10 0.000976562l65 245h160l-145 -430c-12 -35.333 -24.167 -65 -36.5 -89s-25.833 -43.5 -40.5 -58.5s-31.167 -25.833 -49.5 -32.5s-39.5 -10 -63.5 -10h-60v125h35c10 0 17.833 2.5 23.5 7.5s10.167 10.833 13.5 17.5c3.33301 7.33301 6 15.666 8 24.999v10
l-155 435h155zM240 730.001h160l-110 -140h-110z" />
    <glyph glyph-name="thorn" unicode="&#xfe;" horiz-adv-x="530" 
d="M210 455l10 0.000976562c8 8 17.333 15.333 28 22c9.33301 5.33301 20.333 10.5 33 15.5s27.334 7.5 44.001 7.5c21.333 0 42.5 -5.5 63.5 -16.5s39.667 -27.333 56 -49s29.666 -48.334 39.999 -80.001s15.5 -68.167 15.5 -109.5s-5.16699 -77.833 -15.5 -109.5
s-23.666 -58.334 -39.999 -80.001s-35 -38 -56 -49s-42.167 -16.5 -63.5 -16.5c-16.667 0 -31.334 2.33301 -44.001 7s-23.667 9.66699 -33 15c-10.667 6.66699 -20 14.334 -28 23.001h-10v-165h-150v830h150v-245zM210 150.001c2.66699 -6 6.66699 -11.001 12 -15.001
c4.66699 -4 10.5 -7.5 17.5 -10.5s15.5 -4.5 25.5 -4.5c20 0 38.333 10.167 55 30.5s25 51.833 25 94.5s-8.33301 74.167 -25 94.5s-35 30.5 -55 30.5c-10 0 -18.5 -1.66699 -25.5 -5s-12.833 -6.66602 -17.5 -9.99902c-5.33301 -4.66699 -9.33301 -9.66699 -12 -15v-190z
" />
    <glyph glyph-name="ydieresis" unicode="&#xff;" horiz-adv-x="470" 
d="M235 245l10 0.000976562l65 245h160l-145 -430c-12 -35.333 -24.167 -65 -36.5 -89s-25.833 -43.5 -40.5 -58.5s-31.167 -25.833 -49.5 -32.5s-39.5 -10 -63.5 -10h-60v125h35c10 0 17.833 2.5 23.5 7.5s10.167 10.833 13.5 17.5c3.33301 7.33301 6 15.666 8 24.999v10
l-155 435h155zM75 730.001h130v-140h-130v140zM265 730.001h130v-140h-130v140z" />
    <glyph glyph-name="Amacron" unicode="&#x100;" horiz-adv-x="640" 
d="M630 0h-165l-40 130h-210l-40 -130h-165l240 700h140zM250 260h140l-65 210h-10zM165 900h310v-100h-310v100z" />
    <glyph glyph-name="amacron" unicode="&#x101;" 
d="M320 35c-8 -8.66699 -17.333 -16.3359 -28 -23.0029c-9.33301 -5.33301 -20.5 -10.333 -33.5 -15s-27.5 -7 -43.5 -7c-24 0 -47 5.5 -69 16.5s-41.667 27.333 -59 49s-31.166 48.334 -41.499 80.001s-15.5 68.167 -15.5 109.5s5.16699 77.833 15.5 109.5
s23.666 58.334 39.999 80.001s35 38 56 49s42.167 16.5 63.5 16.5c16 0 30.5 -2.5 43.5 -7.5s24.167 -10.167 33.5 -15.5c10.667 -6.66699 20 -14 28 -22h10v35h150v-320c0 -20 1 -40.167 3 -60.5s4.33301 -38.5 7 -54.5c2.66699 -19.333 6 -37.666 10 -54.999h-150l-10 35
h-10zM265 119.998c10 0 18.333 1.50098 25 4.50098s12.334 6.5 17.001 10.5c5.33301 4 9.66602 9 12.999 15v190c-3.33301 5.33301 -7.66602 10.333 -12.999 15c-4.66699 3.33301 -10.334 6.66602 -17.001 9.99902s-15 5 -25 5c-20 0 -38.333 -10.167 -55 -30.5
s-25 -51.833 -25 -94.5s8.33301 -74.167 25 -94.5s35 -30.5 55 -30.5zM105 709.999h310v-100h-310v100z" />
    <glyph glyph-name="Abreve" unicode="&#x102;" horiz-adv-x="640" 
d="M630 0h-165l-40 130h-210l-40 -130h-165l240 700h140zM250 260h140l-65 210h-10zM320 780c-45.333 0 -80.3311 11.667 -104.998 35s-39.667 55 -45 95h95c2.66699 -12.667 8.66699 -23.334 18 -32.001s21.666 -13 36.999 -13s27.666 4.33301 36.999 13
s15.333 19.334 18 32.001h95c-5.33301 -40 -20.333 -71.667 -45 -95s-59.667 -35 -105 -35z" />
    <glyph glyph-name="abreve" unicode="&#x103;" 
d="M320 35c-8 -8.66699 -17.333 -16.3359 -28 -23.0029c-9.33301 -5.33301 -20.5 -10.333 -33.5 -15s-27.5 -7 -43.5 -7c-24 0 -47 5.5 -69 16.5s-41.667 27.333 -59 49s-31.166 48.334 -41.499 80.001s-15.5 68.167 -15.5 109.5s5.16699 77.833 15.5 109.5
s23.666 58.334 39.999 80.001s35 38 56 49s42.167 16.5 63.5 16.5c16 0 30.5 -2.5 43.5 -7.5s24.167 -10.167 33.5 -15.5c10.667 -6.66699 20 -14 28 -22h10v35h150v-320c0 -20 1 -40.167 3 -60.5s4.33301 -38.5 7 -54.5c2.66699 -19.333 6 -37.666 10 -54.999h-150l-10 35
h-10zM265 119.998c10 0 18.333 1.50098 25 4.50098s12.334 6.5 17.001 10.5c5.33301 4 9.66602 9 12.999 15v190c-3.33301 5.33301 -7.66602 10.333 -12.999 15c-4.66699 3.33301 -10.334 6.66602 -17.001 9.99902s-15 5 -25 5c-20 0 -38.333 -10.167 -55 -30.5
s-25 -51.833 -25 -94.5s8.33301 -74.167 25 -94.5s35 -30.5 55 -30.5zM260 589.999c-45.333 0 -80.3311 12 -104.998 36s-39.667 58.667 -45 104h95c5.33301 -36.667 23.666 -55 54.999 -55s49.666 18.333 54.999 55h95c-5.33301 -45.333 -20.333 -80 -45 -104
s-59.667 -36 -105 -36z" />
    <glyph glyph-name="Aogonek" unicode="&#x104;" horiz-adv-x="640" 
d="M665 -205c-8 -6 -17.6689 -11.0029 -29.002 -15.0029c-9.33301 -4 -20.833 -7.5 -34.5 -10.5s-29.167 -4.5 -46.5 -4.5c-40 0 -69.167 8.33301 -87.5 25s-27.5 40 -27.5 70c0 20 5.66699 38.5 17 55.5s24 31.833 38 44.5c16 14.667 34.333 28 55 40h-85l-40 130h-210
l-40 -130h-165l240 700h140l240 -700c-17.333 -14 -32.333 -28.667 -45 -44c-11.333 -13.333 -21.666 -27.666 -30.999 -42.999s-14 -29.666 -14 -42.999c0 -10 3.33301 -18.333 10 -25s15 -10 25 -10c18.667 0 34.334 2.33301 47.001 7
c6.66699 2.66699 12.667 5.33398 18 8.00098zM249.998 259.997h140l-65 210h-10z" />
    <glyph glyph-name="aogonek" unicode="&#x105;" horiz-adv-x="525" 
d="M525 -205c-8 -6 -17.6689 -11.0049 -29.002 -15.0049c-9.33301 -4 -20.833 -7.5 -34.5 -10.5s-29.167 -4.5 -46.5 -4.5c-40 0 -69.167 8.33301 -87.5 25s-27.5 40 -27.5 70c0 20 5.66699 38.5 17 55.5s24 31.833 38 44.5c16 14.667 34.333 28 55 40h-70l-10 35h-10
c-8 -8.66699 -17.333 -16.334 -28 -23.001c-9.33301 -5.33301 -20.5 -10.333 -33.5 -15s-27.5 -7 -43.5 -7c-24 0 -47 5.5 -69 16.5s-41.667 27.333 -59 49s-31.166 48.334 -41.499 80.001s-15.5 68.167 -15.5 109.5s5.16699 77.833 15.5 109.5s23.666 58.334 39.999 80.001
s35 38 56 49s42.167 16.5 63.5 16.5c16 0 30.5 -2.5 43.5 -7.5s24.167 -10.167 33.5 -15.5c10.667 -6.66699 20 -14 28 -22h10v35h150v-320c0 -20 1 -40.167 3 -60.5s4.33301 -38.5 7 -54.5c2.66699 -19.333 6 -37.666 10 -54.999c-17.333 -14 -32.333 -28.667 -45 -44
c-11.333 -13.333 -21.666 -27.666 -30.999 -42.999s-14 -29.666 -14 -42.999c0 -10 3.33301 -18.333 10 -25s15 -10 25 -10c18.667 0 34.334 2.33301 47.001 7c6.66699 2.66699 12.667 5.33398 18 8.00098zM264.998 119.995c10 0 18.333 1.50098 25 4.50098
s12.334 6.5 17.001 10.5c5.33301 4 9.66602 9 12.999 15v190c-3.33301 5.33301 -7.66602 10.333 -12.999 15c-4.66699 3.33301 -10.334 6.66602 -17.001 9.99902s-15 5 -25 5c-20 0 -38.333 -10.167 -55 -30.5s-25 -51.833 -25 -94.5s8.33301 -74.167 25 -94.5
s35 -30.5 55 -30.5z" />
    <glyph glyph-name="Cacute" unicode="&#x106;" horiz-adv-x="665" 
d="M645 115c-20 -24 -43.333 -44.998 -70 -62.998c-23.333 -15.333 -52 -29.5 -86 -42.5s-73.667 -19.5 -119 -19.5s-88 8.83301 -128 26.5s-75 42.5 -105 74.5s-53.667 70 -71 114s-26 92.333 -26 145s8.66699 101 26 145s41 82 71 114s65 56.833 105 74.5
s82.667 26.5 128 26.5c42.667 0 80.167 -5.83301 112.5 -17.5s59.5 -24.167 81.5 -37.5c26 -16.667 48 -35 66 -55l-100 -105c-10.667 13.333 -23.334 25.666 -38.001 36.999c-12.667 9.33301 -28.167 18 -46.5 26s-40.166 12 -65.499 12c-24 0 -46.5 -4.83301 -67.5 -14.5
s-39.5 -24 -55.5 -43s-28.667 -42.167 -38 -69.5s-14 -58.333 -14 -93c0 -35.333 4.66699 -66.5 14 -93.5s22 -50 38 -69s34.5 -33.333 55.5 -43s43.5 -14.5 67.5 -14.5c28 0 51.833 4.66699 71.5 14s36.167 19.666 49.5 30.999c15.333 12.667 28.333 27.667 39 45z
M375 910.002h160l-110 -130h-110z" />
    <glyph glyph-name="cacute" unicode="&#x107;" horiz-adv-x="480" 
d="M465 100c-12 -20.667 -27.334 -38.999 -46.001 -54.999c-16 -14 -36.667 -26.667 -62 -38s-56 -17 -92 -17c-31.333 0 -61.166 6.5 -89.499 19.5s-53.333 30.833 -75 53.5s-38.834 49.667 -51.501 81s-19 65 -19 101s6.33301 69.667 19 101s29.834 58.333 51.501 81
s46.667 40.5 75 53.5s58.166 19.5 89.499 19.5c34 0 63.167 -5.16699 87.5 -15.5s44.5 -21.833 60.5 -34.5c18.667 -14.667 34.334 -31.334 47.001 -50.001l-105 -85c-5.33301 10 -11.666 19 -18.999 27c-6.66699 7.33301 -15.167 13.833 -25.5 19.5
s-22.166 8.5 -35.499 8.5c-25.333 0 -46.666 -10.167 -63.999 -30.5s-26 -51.833 -26 -94.5s8.66699 -74.167 26 -94.5s38.666 -30.5 63.999 -30.5c15.333 0 28.166 3.33301 38.499 10s19.166 14 26.499 22c8 9.33301 14.667 20.333 20 33zM269.999 730.001h160l-110 -140
h-110z" />
    <glyph glyph-name="Ccircumflex" unicode="&#x108;" horiz-adv-x="665" 
d="M645 115c-20 -24 -43.333 -44.998 -70 -62.998c-23.333 -15.333 -52 -29.5 -86 -42.5s-73.667 -19.5 -119 -19.5s-88 8.83301 -128 26.5s-75 42.5 -105 74.5s-53.667 70 -71 114s-26 92.333 -26 145s8.66699 101 26 145s41 82 71 114s65 56.833 105 74.5
s82.667 26.5 128 26.5c42.667 0 80.167 -5.83301 112.5 -17.5s59.5 -24.167 81.5 -37.5c26 -16.667 48 -35 66 -55l-100 -105c-10.667 13.333 -23.334 25.666 -38.001 36.999c-12.667 9.33301 -28.167 18 -46.5 26s-40.166 12 -65.499 12c-24 0 -46.5 -4.83301 -67.5 -14.5
s-39.5 -24 -55.5 -43s-28.667 -42.167 -38 -69.5s-14 -58.333 -14 -93c0 -35.333 4.66699 -66.5 14 -93.5s22 -50 38 -69s34.5 -33.333 55.5 -43s43.5 -14.5 67.5 -14.5c28 0 51.833 4.66699 71.5 14s36.167 19.666 49.5 30.999c15.333 12.667 28.333 27.667 39 45z
M530 780.002h-130l-25 55h-10l-25 -55h-130l90 130h140z" />
    <glyph glyph-name="ccircumflex" unicode="&#x109;" horiz-adv-x="480" 
d="M465 100c-12 -20.667 -27.334 -38.999 -46.001 -54.999c-16 -14 -36.667 -26.667 -62 -38s-56 -17 -92 -17c-31.333 0 -61.166 6.5 -89.499 19.5s-53.333 30.833 -75 53.5s-38.834 49.667 -51.501 81s-19 65 -19 101s6.33301 69.667 19 101s29.834 58.333 51.501 81
s46.667 40.5 75 53.5s58.166 19.5 89.499 19.5c34 0 63.167 -5.16699 87.5 -15.5s44.5 -21.833 60.5 -34.5c18.667 -14.667 34.334 -31.334 47.001 -50.001l-105 -85c-5.33301 10 -11.666 19 -18.999 27c-6.66699 7.33301 -15.167 13.833 -25.5 19.5
s-22.166 8.5 -35.499 8.5c-25.333 0 -46.666 -10.167 -63.999 -30.5s-26 -51.833 -26 -94.5s8.66699 -74.167 26 -94.5s38.666 -30.5 63.999 -30.5c15.333 0 28.166 3.33301 38.499 10s19.166 14 26.499 22c8 9.33301 14.667 20.333 20 33zM429.999 590.001h-130l-25 65h-10
l-25 -65h-130l90 140h140z" />
    <glyph glyph-name="Ccaron" unicode="&#x10c;" horiz-adv-x="665" 
d="M645 115c-20 -24 -43.333 -44.998 -70 -62.998c-23.333 -15.333 -52 -29.5 -86 -42.5s-73.667 -19.5 -119 -19.5s-88 8.83301 -128 26.5s-75 42.5 -105 74.5s-53.667 70 -71 114s-26 92.333 -26 145s8.66699 101 26 145s41 82 71 114s65 56.833 105 74.5
s82.667 26.5 128 26.5c42.667 0 80.167 -5.83301 112.5 -17.5s59.5 -24.167 81.5 -37.5c26 -16.667 48 -35 66 -55l-100 -105c-10.667 13.333 -23.334 25.666 -38.001 36.999c-12.667 9.33301 -28.167 18 -46.5 26s-40.166 12 -65.499 12c-24 0 -46.5 -4.83301 -67.5 -14.5
s-39.5 -24 -55.5 -43s-28.667 -42.167 -38 -69.5s-14 -58.333 -14 -93c0 -35.333 4.66699 -66.5 14 -93.5s22 -50 38 -69s34.5 -33.333 55.5 -43s43.5 -14.5 67.5 -14.5c28 0 51.833 4.66699 71.5 14s36.167 19.666 49.5 30.999c15.333 12.667 28.333 27.667 39 45z
M210 910.002h130l25 -55h10l25 55h130l-90 -130h-140z" />
    <glyph glyph-name="ccaron" unicode="&#x10d;" horiz-adv-x="480" 
d="M465 100c-12 -20.667 -27.334 -38.999 -46.001 -54.999c-16 -14 -36.667 -26.667 -62 -38s-56 -17 -92 -17c-31.333 0 -61.166 6.5 -89.499 19.5s-53.333 30.833 -75 53.5s-38.834 49.667 -51.501 81s-19 65 -19 101s6.33301 69.667 19 101s29.834 58.333 51.501 81
s46.667 40.5 75 53.5s58.166 19.5 89.499 19.5c34 0 63.167 -5.16699 87.5 -15.5s44.5 -21.833 60.5 -34.5c18.667 -14.667 34.334 -31.334 47.001 -50.001l-105 -85c-5.33301 10 -11.666 19 -18.999 27c-6.66699 7.33301 -15.167 13.833 -25.5 19.5
s-22.166 8.5 -35.499 8.5c-25.333 0 -46.666 -10.167 -63.999 -30.5s-26 -51.833 -26 -94.5s8.66699 -74.167 26 -94.5s38.666 -30.5 63.999 -30.5c15.333 0 28.166 3.33301 38.499 10s19.166 14 26.499 22c8 9.33301 14.667 20.333 20 33zM109.999 730.001h130l25 -65h10
l25 65h130l-90 -140h-140z" />
    <glyph glyph-name="Dcaron" unicode="&#x10e;" horiz-adv-x="670" 
d="M70 685c17.333 4.66699 37 8.66797 59 12.001c19.333 3.33301 42.5 6.33301 69.5 9s57.5 4 91.5 4c47.333 0 91.666 -8.83301 132.999 -26.5s77.333 -42.5 108 -74.5s54.834 -70 72.501 -114s26.5 -92.333 26.5 -145s-8.5 -100.5 -25.5 -143.5
s-40.333 -79.833 -70 -110.5s-64.667 -54.334 -105 -71.001s-83.5 -25 -129.5 -25h-230v685zM465 350.001c0 34.667 -4.66504 65.667 -13.998 93s-22 50.5 -38 69.5s-34.5 33.333 -55.5 43s-43.5 14.5 -67.5 14.5c-11.333 0 -20.833 -0.5 -28.5 -1.5
s-13.834 -2.16699 -18.501 -3.5l-13 -5v-430h70c21.333 0 41.833 4.83301 61.5 14.5s37.167 24 52.5 43s27.666 42 36.999 69s14 58.167 14 93.5zM125.002 910.001h130l25 -55h10l25 55h130l-90 -130h-140z" />
    <glyph glyph-name="dcaron" unicode="&#x10f;" horiz-adv-x="645" 
d="M320 700l150 -0.000976562v-700h-150v35h-10c-8 -8.66699 -17.333 -16.334 -28 -23.001c-9.33301 -5.33301 -20.5 -10.333 -33.5 -15s-27.5 -7 -43.5 -7c-21.333 0 -42.5 5.5 -63.5 16.5s-39.667 27.333 -56 49s-29.666 48.334 -39.999 80.001s-15.5 68.167 -15.5 109.5
s5.16699 77.833 15.5 109.5s23.666 58.334 39.999 80.001s35 38 56 49s42.167 16.5 63.5 16.5c16 0 30.5 -2.5 43.5 -7.5s24.167 -10.167 33.5 -15.5c10.667 -6.66699 20 -14 28 -22h10v245zM265 119.999c10 0 18.333 1.50098 25 4.50098s12.334 6.5 17.001 10.5
c5.33301 4 9.66602 9 12.999 15v190c-3.33301 5.33301 -7.66602 10.333 -12.999 15c-4.66699 3.33301 -10.334 6.66602 -17.001 9.99902s-15 5 -25 5c-20 0 -38.333 -10.167 -55 -30.5s-25 -51.833 -25 -94.5s8.33301 -74.167 25 -94.5s35 -30.5 55 -30.5zM535 570v129.998
h150v-95c0 -30 -6.66699 -54.5 -20 -73.5s-27.666 -33.833 -42.999 -44.5c-18 -12 -38.667 -21 -62 -27l-15 50c9.33301 2 18 5.66699 26 11c7.33301 4.66699 14.166 10.834 20.499 18.501s10.833 17.834 13.5 30.501h-70z" />
    <glyph glyph-name="Dcroat" unicode="&#x110;" horiz-adv-x="690" 
d="M30 470l60 0.000976562v215c17.333 4.66699 37 8.66699 59 12c19.333 3.33301 42.5 6.33301 69.5 9s57.5 4 91.5 4c47.333 0 91.666 -8.83301 132.999 -26.5s77.333 -42.5 108 -74.5s54.834 -70 72.501 -114s26.5 -92.333 26.5 -145s-8.5 -100.5 -25.5 -143.5
s-40.333 -79.833 -70 -110.5s-64.667 -54.334 -105 -71.001s-83.5 -25 -129.5 -25h-230v330h-60v140zM485 350.001c0 34.667 -4.66504 65.667 -13.998 93s-22 50.5 -38 69.5s-34.5 33.333 -55.5 43s-43.5 14.5 -67.5 14.5c-11.333 0 -20.833 -0.5 -28.5 -1.5
s-13.834 -2.16699 -18.501 -3.5l-13 -5v-90h110v-140h-110v-200h70c21.333 0 41.833 4.83301 61.5 14.5s37.167 24 52.5 43s27.666 42 36.999 69s14 58.167 14 93.5z" />
    <glyph glyph-name="dcroat" unicode="&#x111;" horiz-adv-x="530" 
d="M530 510l-60 -0.000976562v-510h-150v35h-10c-8 -8.66699 -17.333 -16.334 -28 -23.001c-9.33301 -5.33301 -20.5 -10.333 -33.5 -15s-27.5 -7 -43.5 -7c-22.667 0 -44.5 5.16699 -65.5 15.5s-39.667 25.333 -56 45s-29.333 43.834 -39 72.501s-14.5 61 -14.5 97
s4.83301 68.333 14.5 97s22.667 52.834 39 72.501s35 34.667 56 45s42.833 15.5 65.5 15.5c16 0 30.5 -2.5 43.5 -7.5s24.167 -10.167 33.5 -15.5c10.667 -6.66699 20 -14 28 -22h10v105h-110v110h110v80h150v-80h60v-110zM265 119.999c10 0 18.333 1.50098 25 4.50098
s12.334 6.5 17.001 10.5c5.33301 4 9.66602 9 12.999 15v140c-3.33301 5.33301 -7.66602 10.333 -12.999 15c-4.66699 3.33301 -10.334 6.66602 -17.001 9.99902s-15 5 -25 5c-22.667 0 -41.667 -8.5 -57 -25.5s-23 -41.833 -23 -74.5s7.66699 -57.5 23 -74.5
s34.333 -25.5 57 -25.5z" />
    <glyph glyph-name="Emacron" unicode="&#x112;" horiz-adv-x="580" 
d="M70 700h460v-140h-300v-90h240v-140h-240v-190h320v-140h-480v700zM145 900h310v-100h-310v100z" />
    <glyph glyph-name="emacron" unicode="&#x113;" 
d="M175 210c2 -17.333 6.66699 -32.3359 14 -45.0029c6.66699 -11.333 16.667 -21.666 30 -30.999s32 -14 56 -14c15.333 0 27.833 2.5 37.5 7.5s17.834 10.833 24.501 17.5c7.33301 7.33301 13.333 15.666 18 24.999l110 -60c-13.333 -22.667 -29.666 -42.667 -48.999 -60
c-16.667 -15.333 -37.5 -29.166 -62.5 -41.499s-54.5 -18.5 -88.5 -18.5c-31.333 0 -61.166 6.5 -89.499 19.5s-53.333 30.833 -75 53.5s-38.834 49.667 -51.501 81s-19 65 -19 101s6.33301 69.667 19 101s29.834 58.333 51.501 81s46.667 40.5 75 53.5
s58.166 19.5 89.499 19.5c30 0 58.667 -6.33301 86 -19s51.166 -30.167 71.499 -52.5s36.666 -49.166 48.999 -80.499s18.5 -65.666 18.5 -102.999v-35h-315zM260 369.997c-15.333 0 -28.166 -3.16699 -38.499 -9.5s-18.5 -13.166 -24.5 -20.499
c-7.33301 -8.66699 -13 -18.667 -17 -30h160c-4.66699 11.333 -10.667 21.333 -18 30c-6.66699 7.33301 -14.834 14.166 -24.501 20.499s-22.167 9.5 -37.5 9.5zM110 709.997h310v-100h-310v100z" />
    <glyph glyph-name="Edotaccent" unicode="&#x116;" horiz-adv-x="580" 
d="M70 700h460v-140h-300v-90h240v-140h-240v-190h320v-140h-480v700zM225 910h150v-130h-150v130z" />
    <glyph glyph-name="edotaccent" unicode="&#x117;" 
d="M175 210c2 -17.333 6.66699 -32.3359 14 -45.0029c6.66699 -11.333 16.667 -21.666 30 -30.999s32 -14 56 -14c15.333 0 27.833 2.5 37.5 7.5s17.834 10.833 24.501 17.5c7.33301 7.33301 13.333 15.666 18 24.999l110 -60c-13.333 -22.667 -29.666 -42.667 -48.999 -60
c-16.667 -15.333 -37.5 -29.166 -62.5 -41.499s-54.5 -18.5 -88.5 -18.5c-31.333 0 -61.166 6.5 -89.499 19.5s-53.333 30.833 -75 53.5s-38.834 49.667 -51.501 81s-19 65 -19 101s6.33301 69.667 19 101s29.834 58.333 51.501 81s46.667 40.5 75 53.5
s58.166 19.5 89.499 19.5c30 0 58.667 -6.33301 86 -19s51.166 -30.167 71.499 -52.5s36.666 -49.166 48.999 -80.499s18.5 -65.666 18.5 -102.999v-35h-315zM260 369.997c-15.333 0 -28.166 -3.16699 -38.499 -9.5s-18.5 -13.166 -24.5 -20.499
c-7.33301 -8.66699 -13 -18.667 -17 -30h160c-4.66699 11.333 -10.667 21.333 -18 30c-6.66699 7.33301 -14.834 14.166 -24.501 20.499s-22.167 9.5 -37.5 9.5zM190 729.997h150v-140h-150v140z" />
    <glyph glyph-name="Eogonek" unicode="&#x118;" horiz-adv-x="580" 
d="M70 700l459.998 -0.00292969v-140h-300v-90h240v-140h-240v-190h320v-140c-17.333 -14 -32.333 -28.667 -45 -44c-11.333 -13.333 -21.666 -27.666 -30.999 -42.999s-14 -29.666 -14 -42.999c0 -10 3.33301 -18.333 10 -25s15 -10 25 -10
c18.667 0 34.334 2.33301 47.001 7c6.66699 2.66699 12.667 5.33398 18 8.00098l25 -55c-8 -6 -17.667 -11 -29 -15c-9.33301 -4 -20.833 -7.5 -34.5 -10.5s-29.167 -4.5 -46.5 -4.5c-40 0 -69.167 8.33301 -87.5 25s-27.5 40 -27.5 70c0 20 5.66699 38.5 17 55.5
s24 31.833 38 44.5c16 14.667 34.333 28 55 40h-400v700z" />
    <glyph glyph-name="eogonek" unicode="&#x119;" 
d="M365 -205c-8 -6 -17.668 -11.002 -29.001 -15.002c-9.33301 -4 -20.833 -7.5 -34.5 -10.5s-29.167 -4.5 -46.5 -4.5c-40 0 -69.167 8.33301 -87.5 25s-27.5 40 -27.5 70c0 18.667 4.83301 36 14.5 52s20.5 29.667 32.5 41c14 13.333 30 25.666 48 36.999
c-38.667 9.33301 -73 25 -103 47c-12.667 9.33301 -25.167 20.333 -37.5 33s-23.166 27.5 -32.499 44.5s-17 36.167 -23 57.5s-9 45.666 -9 72.999c0 36 6.33301 69.667 19 101s29.834 58.333 51.501 81s46.667 40.5 75 53.5s58.166 19.5 89.499 19.5
c30 0 58.667 -6.33301 86 -19s51.166 -30.167 71.499 -52.5s36.666 -49.166 48.999 -80.499s18.5 -65.666 18.5 -102.999v-35h-315c2 -17.333 6.66699 -32.333 14 -45c6.66699 -11.333 16.667 -21.666 30 -30.999s32 -14 56 -14c15.333 0 27.833 2.5 37.5 7.5
s17.834 10.833 24.501 17.5c7.33301 7.33301 13.333 15.666 18 24.999l110 -60c-10 -15.333 -21.333 -30 -34 -44c-11.333 -12 -25.333 -24.167 -42 -36.5s-36.334 -22.166 -59.001 -29.499c-17.333 -14.667 -32.333 -29.667 -45 -45
c-11.333 -13.333 -21.666 -27.5 -30.999 -42.5s-14 -29.167 -14 -42.5c0 -10 3.33301 -18.333 10 -25s15 -10 25 -10c18.667 0 34.334 2.33301 47.001 7c6.66699 2.66699 12.667 5.33398 18 8.00098zM259.999 369.998c-15.333 0 -28.166 -3.16699 -38.499 -9.5
s-18.5 -13.166 -24.5 -20.499c-7.33301 -8.66699 -13 -18.667 -17 -30h160c-4.66699 11.333 -10.667 21.333 -18 30c-6.66699 7.33301 -14.834 14.166 -24.501 20.499s-22.167 9.5 -37.5 9.5z" />
    <glyph glyph-name="Ecaron" unicode="&#x11a;" horiz-adv-x="580" 
d="M70 700h460v-140h-300v-90h240v-140h-240v-190h320v-140h-480v700zM140 910h130l25 -55h10l25 55h130l-90 -130h-140z" />
    <glyph glyph-name="ecaron" unicode="&#x11b;" 
d="M175 210c2 -17.333 6.66699 -32.3359 14 -45.0029c6.66699 -11.333 16.667 -21.666 30 -30.999s32 -14 56 -14c15.333 0 27.833 2.5 37.5 7.5s17.834 10.833 24.501 17.5c7.33301 7.33301 13.333 15.666 18 24.999l110 -60c-13.333 -22.667 -29.666 -42.667 -48.999 -60
c-16.667 -15.333 -37.5 -29.166 -62.5 -41.499s-54.5 -18.5 -88.5 -18.5c-31.333 0 -61.166 6.5 -89.499 19.5s-53.333 30.833 -75 53.5s-38.834 49.667 -51.501 81s-19 65 -19 101s6.33301 69.667 19 101s29.834 58.333 51.501 81s46.667 40.5 75 53.5
s58.166 19.5 89.499 19.5c30 0 58.667 -6.33301 86 -19s51.166 -30.167 71.499 -52.5s36.666 -49.166 48.999 -80.499s18.5 -65.666 18.5 -102.999v-35h-315zM260 369.997c-15.333 0 -28.166 -3.16699 -38.499 -9.5s-18.5 -13.166 -24.5 -20.499
c-7.33301 -8.66699 -13 -18.667 -17 -30h160c-4.66699 11.333 -10.667 21.333 -18 30c-6.66699 7.33301 -14.834 14.166 -24.501 20.499s-22.167 9.5 -37.5 9.5zM105 729.997h130l25 -65h10l25 65h130l-90 -140h-140z" />
    <glyph glyph-name="Gbreve" unicode="&#x11e;" horiz-adv-x="700" 
d="M640 0l-144.996 0.000976562v40h-10c-10 -9.33301 -21.333 -17.666 -34 -24.999c-11.333 -6.66699 -25.333 -12.5 -42 -17.5s-36.334 -7.5 -59.001 -7.5c-40 0 -78.667 8.83301 -116 26.5s-70.333 42.5 -99 74.5s-51.667 70 -69 114s-26 92.333 -26 145
s8.66699 101 26 145s41 82 71 114s65 56.833 105 74.5s82.667 26.5 128 26.5c42.667 0 80.167 -5.83301 112.5 -17.5s59.5 -24.167 81.5 -37.5c26 -16.667 48 -35 66 -55l-100 -105c-10.667 13.333 -23.334 25.666 -38.001 36.999c-12.667 9.33301 -28.334 18 -47.001 26
s-40.334 12 -65.001 12c-24 0 -46.5 -4.83301 -67.5 -14.5s-39.5 -24 -55.5 -43s-28.667 -42.167 -38 -69.5s-14 -58.333 -14 -93c0 -35.333 4.66699 -66.5 14 -93.5s21.666 -50 36.999 -69s32.833 -33.333 52.5 -43s40.167 -14.5 61.5 -14.5c17.333 0 33.333 2.66699 48 8
s27.334 11.666 38.001 18.999c12 8 23.333 17.333 34 28v95h-150v125h300v-405zM370.004 780.001c-45.333 0 -80.3311 11.667 -104.998 35s-39.667 55 -45 95h95c2.66699 -12.667 8.66699 -23.334 18 -32.001s21.666 -13 36.999 -13s27.666 4.33301 36.999 13
s15.333 19.334 18 32.001h95c-5.33301 -40 -20.333 -71.667 -45 -95s-59.667 -35 -105 -35z" />
    <glyph glyph-name="gbreve" unicode="&#x11f;" horiz-adv-x="525" 
d="M320 490l149.997 0.000976562v-385c0 -35.333 -6.16699 -67.833 -18.5 -97.5s-29.166 -55.5 -50.499 -77.5s-46.166 -39.167 -74.499 -51.5s-58.833 -18.5 -91.5 -18.5c-24 0 -45.5 1.16699 -64.5 3.5s-35.167 5.16602 -48.5 8.49902c-16 3.33301 -30 7.66602 -42 12.999
l30 125c8.66699 -4 18.334 -7.33301 29.001 -10c8.66699 -2.66699 18.667 -5 30 -7s23.333 -3 36 -3c38 0 66.667 8.83301 86 26.5s29 40.5 29 68.5h-10c-8 -8.66699 -17.333 -16.334 -28 -23.001c-9.33301 -5.33301 -20.5 -10.333 -33.5 -15s-27.5 -7 -43.5 -7
c-22.667 0 -44.5 5.16699 -65.5 15.5s-39.667 25.333 -56 45s-29.333 43.834 -39 72.501s-14.5 61 -14.5 97s4.83301 68.333 14.5 97s22.667 52.834 39 72.501s35 34.667 56 45s42.833 15.5 65.5 15.5c16 0 30.5 -2.5 43.5 -7.5s24.167 -10.167 33.5 -15.5
c10.667 -6.66699 20 -14 28 -22h10v35zM264.997 170.001c10 0 18.333 1.50098 25 4.50098s12.334 6.5 17.001 10.5c5.33301 4 9.66602 9 12.999 15v140c-3.33301 5.33301 -7.66602 10.333 -12.999 15c-4.66699 3.33301 -10.334 6.66602 -17.001 9.99902s-15 5 -25 5
c-22.667 0 -41.667 -8.5 -57 -25.5s-23 -41.833 -23 -74.5s7.66699 -57.5 23 -74.5s34.333 -25.5 57 -25.5zM249.997 590.002c-45.333 0 -80.3311 12 -104.998 36s-39.667 58.667 -45 104h95c5.33301 -36.667 23.666 -55 54.999 -55s49.666 18.333 54.999 55h95
c-5.33301 -45.333 -20.333 -80 -45 -104s-59.667 -36 -105 -36z" />
    <glyph glyph-name="Gcommaaccent" unicode="&#x122;" horiz-adv-x="700" 
d="M640 0l-144.996 0.000976562v40h-10c-10 -9.33301 -21.333 -17.666 -34 -24.999c-11.333 -6.66699 -25.333 -12.5 -42 -17.5s-36.334 -7.5 -59.001 -7.5c-40 0 -78.667 8.83301 -116 26.5s-70.333 42.5 -99 74.5s-51.667 70 -69 114s-26 92.333 -26 145
s8.66699 101 26 145s41 82 71 114s65 56.833 105 74.5s82.667 26.5 128 26.5c42.667 0 80.167 -5.83301 112.5 -17.5s59.5 -24.167 81.5 -37.5c26 -16.667 48 -35 66 -55l-100 -105c-10.667 13.333 -23.334 25.666 -38.001 36.999c-12.667 9.33301 -28.334 18 -47.001 26
s-40.334 12 -65.001 12c-24 0 -46.5 -4.83301 -67.5 -14.5s-39.5 -24 -55.5 -43s-28.667 -42.167 -38 -69.5s-14 -58.333 -14 -93c0 -35.333 4.66699 -66.5 14 -93.5s21.666 -50 36.999 -69s32.833 -33.333 52.5 -43s40.167 -14.5 61.5 -14.5c17.333 0 33.333 2.66699 48 8
s27.334 11.666 38.001 18.999c12 8 23.333 17.333 34 28v95h-150v125h300v-405zM270.004 -189.999v129.998h150v-95c0 -30 -6.66699 -54.5 -20 -73.5s-27.666 -33.833 -42.999 -44.5c-18 -12 -38.667 -21 -62 -27l-15 50c9.33301 2 18 5.66699 26 11
c7.33301 4.66699 14.166 10.834 20.499 18.501s10.833 17.834 13.5 30.501h-70z" />
    <glyph glyph-name="gcommaaccent" unicode="&#x123;" horiz-adv-x="525" 
d="M325 700l-0.000976562 -129.999h-150v95c0 30 6.5 54.333 19.5 73s27.167 33.334 42.5 44.001c18 12 39 21.333 63 28l15 -50c-9.33301 -2 -18 -5.66699 -26 -11c-7.33301 -4.66699 -14.166 -10.834 -20.499 -18.501s-10.833 -17.834 -13.5 -30.501h70zM319.999 490.001
l149.997 0.000976562v-385c0 -35.333 -6.16699 -67.833 -18.5 -97.5s-29.166 -55.5 -50.499 -77.5s-46.166 -39.167 -74.499 -51.5s-58.833 -18.5 -91.5 -18.5c-24 0 -45.5 1.16699 -64.5 3.5s-35.167 5.16602 -48.5 8.49902c-16 3.33301 -30 7.66602 -42 12.999l30 125
c8.66699 -4 18.334 -7.33301 29.001 -10c8.66699 -2.66699 18.667 -5 30 -7s23.333 -3 36 -3c38 0 66.667 8.83301 86 26.5s29 40.5 29 68.5h-10c-8 -8.66699 -17.333 -16.334 -28 -23.001c-9.33301 -5.33301 -20.5 -10.333 -33.5 -15s-27.5 -7 -43.5 -7
c-22.667 0 -44.5 5.16699 -65.5 15.5s-39.667 25.333 -56 45s-29.333 43.834 -39 72.501s-14.5 61 -14.5 97s4.83301 68.333 14.5 97s22.667 52.834 39 72.501s35 34.667 56 45s42.833 15.5 65.5 15.5c16 0 30.5 -2.5 43.5 -7.5s24.167 -10.167 33.5 -15.5
c10.667 -6.66699 20 -14 28 -22h10v35zM264.996 170.002c10 0 18.333 1.50098 25 4.50098s12.334 6.5 17.001 10.5c5.33301 4 9.66602 9 12.999 15v140c-3.33301 5.33301 -7.66602 10.333 -12.999 15c-4.66699 3.33301 -10.334 6.66602 -17.001 9.99902s-15 5 -25 5
c-22.667 0 -41.667 -8.5 -57 -25.5s-23 -41.833 -23 -74.5s7.66699 -57.5 23 -74.5s34.333 -25.5 57 -25.5z" />
    <glyph glyph-name="Imacron" unicode="&#x12a;" horiz-adv-x="300" 
d="M230 0h-160v700h160v-700zM-4 900h310v-100h-310v100z" />
    <glyph glyph-name="imacron" unicode="&#x12b;" horiz-adv-x="260" 
d="M55 490h150v-490h-150v490zM-24 710h310v-100h-310v100z" />
    <glyph glyph-name="Iogonek" unicode="&#x12e;" horiz-adv-x="300" 
d="M265 -205c-8 -6 -17.6689 -11.0029 -29.002 -15.0029c-9.33301 -4 -20.833 -7.5 -34.5 -10.5s-29.167 -4.5 -46.5 -4.5c-40 0 -69.167 8.33301 -87.5 25s-27.5 40 -27.5 70c0 20 5.66699 38.5 17 55.5s24 31.833 38 44.5c16 14.667 34.333 28 55 40h-80v700h160v-700
c-17.333 -14 -32.333 -28.667 -45 -44c-11.333 -13.333 -21.666 -27.666 -30.999 -42.999s-14 -29.666 -14 -42.999c0 -10 3.33301 -18.333 10 -25s15 -10 25 -10c18.667 0 34.334 2.33301 47.001 7c6.66699 2.66699 12.667 5.33398 18 8.00098z" />
    <glyph glyph-name="iogonek" unicode="&#x12f;" horiz-adv-x="260" 
d="M55 490l149.998 -0.00292969v-490c-17.333 -14 -32.333 -28.667 -45 -44c-11.333 -13.333 -21.666 -27.666 -30.999 -42.999s-14 -29.666 -14 -42.999c0 -10 3.33301 -18.333 10 -25s15 -10 25 -10c18.667 0 34.334 2.33301 47.001 7
c6.66699 2.66699 12.667 5.33398 18 8.00098l25 -55c-8 -6 -17.667 -11 -29 -15c-9.33301 -4 -20.833 -7.5 -34.5 -10.5s-29.167 -4.5 -46.5 -4.5c-40 0 -69.167 8.33301 -87.5 25s-27.5 40 -27.5 70c0 20 5.66699 38.5 17 55.5s24 31.833 38 44.5
c16 14.667 34.333 28 55 40h-70v490zM54.998 729.997h150v-140h-150v140z" />
    <glyph glyph-name="Idotaccent" unicode="&#x130;" horiz-adv-x="300" 
d="M230 0h-160v700h160v-700zM75 910h150v-130h-150v130z" />
    <glyph glyph-name="dotlessi" unicode="&#x131;" horiz-adv-x="260" 
d="M55 490h150v-490h-150v490z" />
    <glyph glyph-name="Kcommaaccent" unicode="&#x136;" horiz-adv-x="650" 
d="M285 325l-55 -55v-270h-160v700h160v-230h10l200 230h190l-235 -265l255 -435h-180zM275 -190v129.998h150v-95c0 -30 -6.66699 -54.5 -20 -73.5s-27.666 -33.833 -42.999 -44.5c-18 -12 -38.667 -21 -62 -27l-15 50c9.33301 2 18 5.66699 26 11
c7.33301 4.66699 14.166 10.834 20.499 18.501s10.833 17.834 13.5 30.501h-70z" />
    <glyph glyph-name="kcommaaccent" unicode="&#x137;" horiz-adv-x="510" 
d="M255 200l-45 -50v-150h-150v700h150v-350h10l100 140h170l-130 -170l150 -320h-170zM195 -190v129.998h150v-95c0 -30 -6.66699 -54.5 -20 -73.5s-27.666 -33.833 -42.999 -44.5c-18 -12 -38.667 -21 -62 -27l-15 50c9.33301 2 18 5.66699 26 11
c7.33301 4.66699 14.166 10.834 20.499 18.501s10.833 17.834 13.5 30.501h-70z" />
    <glyph glyph-name="Lacute" unicode="&#x139;" horiz-adv-x="490" 
d="M70 700h160v-560h240v-140h-400v700zM155 910h160l-110 -130h-110z" />
    <glyph glyph-name="lacute" unicode="&#x13a;" horiz-adv-x="290" 
d="M210 195c0 -25.333 4.83301 -43.332 14.5 -53.999s23.167 -16 40.5 -16h15l-20 -125h-55c-42.667 0 -77.5 13.667 -104.5 41s-40.5 63.666 -40.5 108.999v550h150v-505zM140 910.001h160l-110 -130h-110z" />
    <glyph glyph-name="Lcommaaccent" unicode="&#x13b;" horiz-adv-x="490" 
d="M70 700h160v-560h240v-140h-400v700zM195 -190v129.998h150v-95c0 -30 -6.66699 -54.5 -20 -73.5s-27.666 -33.833 -42.999 -44.5c-18 -12 -38.667 -21 -62 -27l-15 50c9.33301 2 18 5.66699 26 11c7.33301 4.66699 14.166 10.834 20.499 18.501
s10.833 17.834 13.5 30.501h-70z" />
    <glyph glyph-name="lcommaaccent" unicode="&#x13c;" horiz-adv-x="290" 
d="M210 195c0 -25.333 4.83301 -43.332 14.5 -53.999s23.167 -16 40.5 -16h15l-20 -125h-55c-42.667 0 -77.5 13.667 -104.5 41s-40.5 63.666 -40.5 108.999v550h150v-505zM90 -189.999v129.998h150v-95c0 -30 -6.66699 -54.5 -20 -73.5s-27.666 -33.833 -42.999 -44.5
c-18 -12 -38.667 -21 -62 -27l-15 50c9.33301 2 18 5.66699 26 11c7.33301 4.66699 14.166 10.834 20.499 18.501s10.833 17.834 13.5 30.501h-70z" />
    <glyph glyph-name="Lcaron" unicode="&#x13d;" horiz-adv-x="490" 
d="M70 700h160v-560h240v-140h-400v700zM290 570v129.998h150v-95c0 -30 -6.66699 -54.5 -20 -73.5s-27.666 -33.833 -42.999 -44.5c-18 -12 -38.667 -21 -62 -27l-15 50c9.33301 2 18 5.66699 26 11c7.33301 4.66699 14.166 10.834 20.499 18.501
s10.833 17.834 13.5 30.501h-70z" />
    <glyph glyph-name="lcaron" unicode="&#x13e;" horiz-adv-x="385" 
d="M210 195c0 -25.333 4.83301 -43.332 14.5 -53.999s23.167 -16 40.5 -16h15l-20 -125h-55c-42.667 0 -77.5 13.667 -104.5 41s-40.5 63.666 -40.5 108.999v550h150v-505zM275 570.001v129.998h150v-95c0 -30 -6.66699 -54.5 -20 -73.5s-27.666 -33.833 -42.999 -44.5
c-18 -12 -38.667 -21 -62 -27l-15 50c9.33301 2 18 5.66699 26 11c7.33301 4.66699 14.166 10.834 20.499 18.501s10.833 17.834 13.5 30.501h-70z" />
    <glyph glyph-name="Lslash" unicode="&#x141;" horiz-adv-x="505" 
d="M85 220l-55 -40v140l55 40v340h160v-230l95 70v-140l-95 -70v-190h240v-140h-400v220z" />
    <glyph glyph-name="lslash" unicode="&#x142;" horiz-adv-x="330" 
d="M230 445l85 55.001v-120l-85 -55v-130c0 -25.333 4.83301 -43.333 14.5 -54s23.167 -16 40.5 -16h15l-20 -125h-55c-42.667 0 -77.5 13.667 -104.5 41s-40.5 63.666 -40.5 108.999v80l-65 -40v120l65 40v350h150v-255z" />
    <glyph glyph-name="Nacute" unicode="&#x143;" horiz-adv-x="720" 
d="M240 400h-10v-400h-160v700h145l265 -400h10v400h160v-700h-145zM365 910h160l-110 -130h-110z" />
    <glyph glyph-name="nacute" unicode="&#x144;" 
d="M315 305c0 43.333 -18.334 64.998 -55.001 64.998c-10 0 -18.5 -1.66699 -25.5 -5s-12.833 -6.66602 -17.5 -9.99902c-5.33301 -4.66699 -9.33301 -9.66699 -12 -15v-340h-150v490h150v-35h10c8 8 17.333 15.333 28 22c9.33301 5.33301 20.333 10.5 33 15.5
s27.334 7.5 44.001 7.5c42.667 0 77.5 -13.667 104.5 -41s40.5 -63.666 40.5 -108.999v-350h-150v305zM254.999 729.998h160l-110 -140h-110z" />
    <glyph glyph-name="Ncommaaccent" unicode="&#x145;" horiz-adv-x="720" 
d="M240 400h-10v-400h-160v700h145l265 -400h10v400h160v-700h-145zM295 -190v129.998h150v-95c0 -30 -6.66699 -54.5 -20 -73.5s-27.666 -33.833 -42.999 -44.5c-18 -12 -38.667 -21 -62 -27l-15 50c9.33301 2 18 5.66699 26 11
c7.33301 4.66699 14.166 10.834 20.499 18.501s10.833 17.834 13.5 30.501h-70z" />
    <glyph glyph-name="ncommaaccent" unicode="&#x146;" 
d="M315 305c0 43.333 -18.334 64.998 -55.001 64.998c-10 0 -18.5 -1.66699 -25.5 -5s-12.833 -6.66602 -17.5 -9.99902c-5.33301 -4.66699 -9.33301 -9.66699 -12 -15v-340h-150v490h150v-35h10c8 8 17.333 15.333 28 22c9.33301 5.33301 20.333 10.5 33 15.5
s27.334 7.5 44.001 7.5c42.667 0 77.5 -13.667 104.5 -41s40.5 -63.666 40.5 -108.999v-350h-150v305zM184.999 -190.002v129.998h150v-95c0 -30 -6.66699 -54.5 -20 -73.5s-27.666 -33.833 -42.999 -44.5c-18 -12 -38.667 -21 -62 -27l-15 50c9.33301 2 18 5.66699 26 11
c7.33301 4.66699 14.166 10.834 20.499 18.501s10.833 17.834 13.5 30.501h-70z" />
    <glyph glyph-name="Ncaron" unicode="&#x147;" horiz-adv-x="720" 
d="M240 400h-10v-400h-160v700h145l265 -400h10v400h160v-700h-145zM200 910h130l25 -55h10l25 55h130l-90 -130h-140z" />
    <glyph glyph-name="ncaron" unicode="&#x148;" 
d="M315 305c0 43.333 -18.334 64.998 -55.001 64.998c-10 0 -18.5 -1.66699 -25.5 -5s-12.833 -6.66602 -17.5 -9.99902c-5.33301 -4.66699 -9.33301 -9.66699 -12 -15v-340h-150v490h150v-35h10c8 8 17.333 15.333 28 22c9.33301 5.33301 20.333 10.5 33 15.5
s27.334 7.5 44.001 7.5c42.667 0 77.5 -13.667 104.5 -41s40.5 -63.666 40.5 -108.999v-350h-150v305zM99.999 729.998h130l25 -65h10l25 65h130l-90 -140h-140z" />
    <glyph glyph-name="Omacron" unicode="&#x14c;" horiz-adv-x="740" 
d="M40 350c0 52.667 8.66699 101 26 145s41 82 71 114s65 56.833 105 74.5s82.667 26.5 128 26.5c44.667 0 87 -8.83301 127 -26.5s75 -42.5 105 -74.5s53.833 -70 71.5 -114s26.5 -92.333 26.5 -145s-8.83301 -101 -26.5 -145s-41.5 -82 -71.5 -114s-65 -56.833 -105 -74.5
s-82.333 -26.5 -127 -26.5c-45.333 0 -88 8.83301 -128 26.5s-75 42.5 -105 74.5s-53.667 70 -71 114s-26 92.333 -26 145zM205 350c0 -35.333 4.66699 -66.5 14 -93.5s21.666 -50 36.999 -69s32.833 -33.333 52.5 -43s40.167 -14.5 61.5 -14.5s41.833 4.83301 61.5 14.5
s37.167 24 52.5 43s27.666 42 36.999 69s14 58.167 14 93.5c0 34.667 -4.66699 65.667 -14 93s-21.666 50.5 -36.999 69.5s-32.833 33.333 -52.5 43s-40.167 14.5 -61.5 14.5s-41.833 -4.83301 -61.5 -14.5s-37.167 -24 -52.5 -43s-27.666 -42.167 -36.999 -69.5
s-14 -58.333 -14 -93zM215 900h310v-100h-310v100z" />
    <glyph glyph-name="omacron" unicode="&#x14d;" horiz-adv-x="530" 
d="M30 245c0 36 6.33301 69.667 19 101s29.834 58.333 51.501 81s46.667 40.5 75 53.5s58.166 19.5 89.499 19.5s61.166 -6.5 89.499 -19.5s53.333 -30.833 75 -53.5s38.834 -49.667 51.501 -81s19 -65 19 -101s-6.33301 -69.667 -19 -101s-29.834 -58.333 -51.501 -81
s-46.667 -40.5 -75 -53.5s-58.166 -19.5 -89.499 -19.5s-61.166 6.5 -89.499 19.5s-53.333 30.833 -75 53.5s-38.834 49.667 -51.501 81s-19 65 -19 101zM185 245c0 -42.667 8.33301 -74.167 25 -94.5s35 -30.5 55 -30.5s38.333 10.167 55 30.5s25 51.833 25 94.5
s-8.33301 74.167 -25 94.5s-35 30.5 -55 30.5s-38.333 -10.167 -55 -30.5s-25 -51.833 -25 -94.5zM110 710h310v-100h-310v100z" />
    <glyph glyph-name="Ohungarumlaut" unicode="&#x150;" horiz-adv-x="740" 
d="M40 350c0 52.667 8.66699 101 26 145s41 82 71 114s65 56.833 105 74.5s82.667 26.5 128 26.5c44.667 0 87 -8.83301 127 -26.5s75 -42.5 105 -74.5s53.833 -70 71.5 -114s26.5 -92.333 26.5 -145s-8.83301 -101 -26.5 -145s-41.5 -82 -71.5 -114s-65 -56.833 -105 -74.5
s-82.333 -26.5 -127 -26.5c-45.333 0 -88 8.83301 -128 26.5s-75 42.5 -105 74.5s-53.667 70 -71 114s-26 92.333 -26 145zM205 350c0 -35.333 4.66699 -66.5 14 -93.5s21.666 -50 36.999 -69s32.833 -33.333 52.5 -43s40.167 -14.5 61.5 -14.5s41.833 4.83301 61.5 14.5
s37.167 24 52.5 43s27.666 42 36.999 69s14 58.167 14 93.5c0 34.667 -4.66699 65.667 -14 93s-21.666 50.5 -36.999 69.5s-32.833 33.333 -52.5 43s-40.167 14.5 -61.5 14.5s-41.833 -4.83301 -61.5 -14.5s-37.167 -24 -52.5 -43s-27.666 -42.167 -36.999 -69.5
s-14 -58.333 -14 -93zM465 910h160l-100 -130h-110zM265 910h160l-100 -130h-110z" />
    <glyph glyph-name="ohungarumlaut" unicode="&#x151;" horiz-adv-x="530" 
d="M30 245c0 36 6.33301 69.667 19 101s29.834 58.333 51.501 81s46.667 40.5 75 53.5s58.166 19.5 89.499 19.5s61.166 -6.5 89.499 -19.5s53.333 -30.833 75 -53.5s38.834 -49.667 51.501 -81s19 -65 19 -101s-6.33301 -69.667 -19 -101s-29.834 -58.333 -51.501 -81
s-46.667 -40.5 -75 -53.5s-58.166 -19.5 -89.499 -19.5s-61.166 6.5 -89.499 19.5s-53.333 30.833 -75 53.5s-38.834 49.667 -51.501 81s-19 65 -19 101zM185 245c0 -42.667 8.33301 -74.167 25 -94.5s35 -30.5 55 -30.5s38.333 10.167 55 30.5s25 51.833 25 94.5
s-8.33301 74.167 -25 94.5s-35 30.5 -55 30.5s-38.333 -10.167 -55 -30.5s-25 -51.833 -25 -94.5zM360 730h160l-100 -140h-110zM160 730h160l-100 -140h-110z" />
    <glyph glyph-name="OE" unicode="&#x152;" horiz-adv-x="890" 
d="M370 0c-46 0 -89.167 8.33105 -129.5 24.998s-75.333 40.334 -105 71.001s-53 67.5 -70 110.5s-25.5 90.833 -25.5 143.5s8.5 100.5 25.5 143.5s40.333 79.833 70 110.5s64.667 54.334 105 71.001s83.5 25 129.5 25h470v-140h-270v-90h210v-140h-210v-190h290v-140h-490z
M370 569.998c-21.333 0 -41.833 -4.83301 -61.5 -14.5s-37.167 -24 -52.5 -43s-27.666 -42.167 -36.999 -69.5s-14 -58.333 -14 -93c0 -35.333 4.66699 -66.5 14 -93.5s21.666 -50 36.999 -69s32.833 -33.333 52.5 -43s40.167 -14.5 61.5 -14.5h40v440h-40z" />
    <glyph glyph-name="oe" unicode="&#x153;" horiz-adv-x="800" 
d="M475 210c1.33301 -17.333 5.66895 -32.3311 13.002 -44.998c6 -11.333 15 -21.666 27 -30.999s28.667 -14 50 -14c13.333 0 24.666 2.5 33.999 7.5s16.666 10.833 21.999 17.5c6.66699 7.33301 11.334 15.666 14.001 24.999l110 -60c-11.333 -22.667 -26 -42.667 -44 -60
c-15.333 -15.333 -35 -29.166 -59 -41.499s-53 -18.5 -87 -18.5c-22.667 0 -42.834 3.83301 -60.501 11.5s-32.834 16.167 -45.501 25.5c-14.667 11.333 -27.667 24 -39 38h-10c-11.333 -14 -24.333 -26.667 -39 -38c-12.667 -9.33301 -27.834 -17.833 -45.501 -25.5
s-37.834 -11.5 -60.501 -11.5c-30 0 -58.667 6.16699 -86 18.5s-51.166 29.833 -71.499 52.5s-36.666 49.667 -48.999 81s-18.5 65.666 -18.5 102.999s6.16699 71.666 18.5 102.999s28.666 58.166 48.999 80.499s44.166 39.833 71.499 52.5s56 19 86 19
c22.667 0 42.834 -4 60.501 -12s32.834 -16.667 45.501 -26c14.667 -11.333 27.667 -23.666 39 -36.999h10c10.667 13.333 23 25.666 37 36.999c12 9.33301 27 18 45 26s39 12 63 12c28.667 0 56 -6.5 82 -19.5s48.833 -30.833 68.5 -53.5s35.334 -49.667 47.001 -81
s17.5 -65 17.5 -101v-35h-295zM185.003 245.002c0 -22.667 2 -41.834 6 -57.501s9.33301 -28.5 16 -38.5s14.167 -17.333 22.5 -22s16.833 -7 25.5 -7s17.167 2.33301 25.5 7s15.833 12 22.5 22s12 22.833 16 38.5s6 34.834 6 57.501s-2 41.834 -6 57.501
s-9.33301 28.5 -16 38.5s-14.167 17.333 -22.5 22s-16.833 7 -25.5 7s-17.167 -2.33301 -25.5 -7s-15.833 -12 -22.5 -22s-12 -22.833 -16 -38.5s-6 -34.834 -6 -57.501zM550.003 370.002c-14 0 -25.5 -3.16699 -34.5 -9.5s-16.167 -13.166 -21.5 -20.499
c-6.66699 -8.66699 -11.334 -18.667 -14.001 -30h140c-2.66699 11.333 -7.33398 21.333 -14.001 30c-5.33301 7.33301 -12.666 14.166 -21.999 20.499s-20.666 9.5 -33.999 9.5z" />
    <glyph glyph-name="Racute" unicode="&#x154;" horiz-adv-x="685" 
d="M370 190h-139.999v-190h-160v685c18 4.66699 39.667 8.66699 65 12c21.333 3.33301 47.5 6.33301 78.5 9s66.5 4 106.5 4c52.667 0 99.167 -6.66699 139.5 -20s74.166 -31.833 101.499 -55.5s48.166 -51.334 62.499 -83.001s21.5 -65.5 21.5 -101.5
c0 -39.333 -6.66699 -72.166 -20 -98.499s-27.666 -47.833 -42.999 -64.5c-18 -19.333 -38.667 -35 -62 -47v-10l125 -230h-175zM480.001 450c0 35.333 -13.502 65 -40.502 89s-66.833 36 -119.5 36c-15.333 0 -28.666 -0.5 -39.999 -1.5s-20.666 -2.16699 -27.999 -3.5
l-22 -5v-245h110c42.667 0 76.667 12.167 102 36.5s38 55.5 38 93.5zM314.999 910h160l-110 -130h-110z" />
    <glyph glyph-name="racute" unicode="&#x155;" horiz-adv-x="355" 
d="M300 350c-3.33301 2 -7 4.33594 -11 7.00293c-3.33301 2 -7.5 3.83301 -12.5 5.5s-10.5 2.5 -16.5 2.5c-10 0 -18.5 -1.83301 -25.5 -5.5s-12.833 -7.83398 -17.5 -12.501c-5.33301 -5.33301 -9.33301 -11 -12 -17v-330h-150v490h150v-35h10c8 8 17.333 15.333 28 22
c9.33301 5.33301 20.333 10.5 33 15.5s27.334 7.5 44.001 7.5c6 0 11.167 -0.333008 15.5 -1s8.16602 -1.33398 11.499 -2.00098s6 -1.33398 8 -2.00098zM210 730.003h160l-110 -140h-110z" />
    <glyph glyph-name="Rcommaaccent" unicode="&#x156;" horiz-adv-x="685" 
d="M370 190h-139.999v-190h-160v685c18 4.66699 39.667 8.66699 65 12c21.333 3.33301 47.5 6.33301 78.5 9s66.5 4 106.5 4c52.667 0 99.167 -6.66699 139.5 -20s74.166 -31.833 101.499 -55.5s48.166 -51.334 62.499 -83.001s21.5 -65.5 21.5 -101.5
c0 -39.333 -6.66699 -72.166 -20 -98.499s-27.666 -47.833 -42.999 -64.5c-18 -19.333 -38.667 -35 -62 -47v-10l125 -230h-175zM480.001 450c0 35.333 -13.502 65 -40.502 89s-66.833 36 -119.5 36c-15.333 0 -28.666 -0.5 -39.999 -1.5s-20.666 -2.16699 -27.999 -3.5
l-22 -5v-245h110c42.667 0 76.667 12.167 102 36.5s38 55.5 38 93.5zM274.999 -190v129.998h150v-95c0 -30 -6.66699 -54.5 -20 -73.5s-27.666 -33.833 -42.999 -44.5c-18 -12 -38.667 -21 -62 -27l-15 50c9.33301 2 18 5.66699 26 11
c7.33301 4.66699 14.166 10.834 20.499 18.501s10.833 17.834 13.5 30.501h-70z" />
    <glyph glyph-name="rcommaaccent" unicode="&#x157;" horiz-adv-x="355" 
d="M300 350c-3.33301 2 -7 4.33594 -11 7.00293c-3.33301 2 -7.5 3.83301 -12.5 5.5s-10.5 2.5 -16.5 2.5c-10 0 -18.5 -1.83301 -25.5 -5.5s-12.833 -7.83398 -17.5 -12.501c-5.33301 -5.33301 -9.33301 -11 -12 -17v-330h-150v490h150v-35h10c8 8 17.333 15.333 28 22
c9.33301 5.33301 20.333 10.5 33 15.5s27.334 7.5 44.001 7.5c6 0 11.167 -0.333008 15.5 -1s8.16602 -1.33398 11.499 -2.00098s6 -1.33398 8 -2.00098zM55 -189.997v129.998h150v-95c0 -30 -6.66699 -54.5 -20 -73.5s-27.666 -33.833 -42.999 -44.5
c-18 -12 -38.667 -21 -62 -27l-15 50c9.33301 2 18 5.66699 26 11c7.33301 4.66699 14.166 10.834 20.499 18.501s10.833 17.834 13.5 30.501h-70z" />
    <glyph glyph-name="Rcaron" unicode="&#x158;" horiz-adv-x="685" 
d="M370 190h-139.999v-190h-160v685c18 4.66699 39.667 8.66699 65 12c21.333 3.33301 47.5 6.33301 78.5 9s66.5 4 106.5 4c52.667 0 99.167 -6.66699 139.5 -20s74.166 -31.833 101.499 -55.5s48.166 -51.334 62.499 -83.001s21.5 -65.5 21.5 -101.5
c0 -39.333 -6.66699 -72.166 -20 -98.499s-27.666 -47.833 -42.999 -64.5c-18 -19.333 -38.667 -35 -62 -47v-10l125 -230h-175zM480.001 450c0 35.333 -13.502 65 -40.502 89s-66.833 36 -119.5 36c-15.333 0 -28.666 -0.5 -39.999 -1.5s-20.666 -2.16699 -27.999 -3.5
l-22 -5v-245h110c42.667 0 76.667 12.167 102 36.5s38 55.5 38 93.5zM159.999 910h130l25 -55h10l25 55h130l-90 -130h-140z" />
    <glyph glyph-name="rcaron" unicode="&#x159;" horiz-adv-x="355" 
d="M300 350c-3.33301 2 -7 4.33594 -11 7.00293c-3.33301 2 -7.5 3.83301 -12.5 5.5s-10.5 2.5 -16.5 2.5c-10 0 -18.5 -1.83301 -25.5 -5.5s-12.833 -7.83398 -17.5 -12.501c-5.33301 -5.33301 -9.33301 -11 -12 -17v-330h-150v490h150v-35h10c8 8 17.333 15.333 28 22
c9.33301 5.33301 20.333 10.5 33 15.5s27.334 7.5 44.001 7.5c6 0 11.167 -0.333008 15.5 -1s8.16602 -1.33398 11.499 -2.00098s6 -1.33398 8 -2.00098zM45 730.003h130l25 -65h10l25 65h130l-90 -140h-140z" />
    <glyph glyph-name="Sacute" unicode="&#x15a;" horiz-adv-x="630" 
d="M210 510c0 -16 5.66602 -28.8311 16.999 -38.498s26 -17.667 44 -24s38.667 -11.666 62 -15.999s47.333 -9.5 72 -15.5s48.667 -13.5 72 -22.5s44 -21.333 62 -37s32.667 -35.334 44 -59.001s17 -52.834 17 -87.501c0 -31.333 -6 -60.333 -18 -87
s-30 -49.834 -54 -69.501s-54.167 -35.167 -90.5 -46.5s-78.833 -17 -127.5 -17c-49.333 0 -92 6.5 -128 19.5s-66 27.167 -90 42.5c-28 18 -52 39 -72 63l105 105c10.667 -17.333 25 -32.333 43 -45c15.333 -11.333 35.333 -21.666 60 -30.999s55.334 -14 92.001 -14
c40 0 69.167 7.33301 87.5 22s27.5 30.667 27.5 48c0 16 -5.66699 28.833 -17 38.5s-26 17.667 -44 24s-38.667 11.666 -62 15.999s-47.333 9.5 -72 15.5s-48.667 13.5 -72 22.5s-44 21.333 -62 37s-32.667 35.167 -44 58.5s-17 52.666 -17 87.999
c0 28.667 5.83301 55.834 17.5 81.501s28.667 48 51 67s50 34 83 45s70.833 16.5 113.5 16.5s80.167 -5.83301 112.5 -17.5s59.5 -24.167 81.5 -37.5c26 -16.667 48 -35 66 -55l-100 -105c-10.667 13.333 -24 25.666 -40 36.999c-14 9.33301 -31.667 18 -53 26
s-47 12 -77 12s-52.5 -6.16699 -67.5 -18.5s-22.5 -26.166 -22.5 -41.499zM314.999 910.002h160l-110 -130h-110z" />
    <glyph glyph-name="sacute" unicode="&#x15b;" horiz-adv-x="445" 
d="M115 175c5.33301 -12.667 12.666 -23.6641 21.999 -32.9971c8 -8 18.833 -15.333 32.5 -22s30.5 -10 50.5 -10c15.333 0 26.666 3.33301 33.999 10s11 15 11 25c0 10.667 -5.5 19 -16.5 25s-24.833 11.5 -41.5 16.5l-54.5 17
c-19.667 6.33301 -37.834 15.166 -54.501 26.499s-30.5 26 -41.5 44s-16.5 41.667 -16.5 71c0 21.333 4.16699 41.333 12.5 60s20.333 35 36 49s34.667 25.167 57 33.5s47.166 12.5 74.499 12.5c31.333 0 58.5 -5.16699 81.5 -15.5s42.167 -21.833 57.5 -34.5
c18 -14.667 33.333 -31.334 46 -50.001l-95 -75c-7.33301 10 -15.333 19 -24 27c-7.33301 7.33301 -16.166 13.833 -26.499 19.5s-21.833 8.5 -34.5 8.5c-20 0 -30 -8.33301 -30 -25c0 -9.33301 5.5 -16.666 16.5 -21.999s24.833 -10.5 41.5 -15.5
s34.834 -10.833 54.501 -17.5s37.834 -15.834 54.501 -27.501s30.5 -26.834 41.5 -45.501s16.5 -42.667 16.5 -72c0 -22.667 -4.5 -44 -13.5 -64s-21.833 -37.5 -38.5 -52.5s-36.667 -26.833 -60 -35.5s-49.333 -13 -78 -13c-39.333 0 -72.166 5.66699 -98.499 17
s-47.833 24 -64.5 38c-19.333 16 -35 34.333 -47 55zM225 730.003h160l-110 -140h-110z" />
    <glyph glyph-name="Scedilla" unicode="&#x15e;" horiz-adv-x="630" 
d="M210 510c0 -16 5.66504 -28.8271 16.998 -38.4941s26 -17.667 44 -24s38.667 -11.666 62 -15.999s47.333 -9.5 72 -15.5s48.667 -13.5 72 -22.5s44 -21.333 62 -37s32.667 -35.334 44 -59.001s17 -52.834 17 -87.501c0 -26 -3.5 -49.167 -10.5 -69.5s-16.333 -38 -28 -53
s-24.834 -27.667 -39.501 -38s-29.667 -18.833 -45 -25.5c-36 -16.667 -76.667 -26.334 -122 -29.001v-50c25.333 0 45.833 -7.66699 61.5 -23s23.5 -34.333 23.5 -57c0 -30 -11.167 -55 -33.5 -75s-56.166 -30 -101.499 -30c-17.333 0 -32.833 1.5 -46.5 4.5
s-25.167 6.5 -34.5 10.5c-11.333 4 -21 9 -29 15l25 55c4.66699 -2.66699 10.334 -5.33398 17.001 -8.00098c12.667 -4.66699 28.667 -7 48 -7c17.333 0 30 3.16699 38 9.5s12 13.166 12 20.499s-3.5 14.166 -10.5 20.499s-16.833 9.5 -29.5 9.5h-30v105
c-42 3.33301 -78 11.666 -108 24.999s-55.333 27 -76 41c-24 16.667 -44.333 34.667 -61 54l105 105c10.667 -17.333 25 -32.333 43 -45c15.333 -11.333 35.333 -21.666 60 -30.999s55.334 -14 92.001 -14c40 0 69.167 7.33301 87.5 22s27.5 30.667 27.5 48
c0 16 -5.66699 28.833 -17 38.5s-26 17.667 -44 24s-38.667 11.666 -62 15.999s-47.333 9.5 -72 15.5s-48.667 13.5 -72 22.5s-44 21.333 -62 37s-32.667 35.167 -44 58.5s-17 52.666 -17 87.999c0 28.667 5.83301 55.834 17.5 81.501s28.667 48 51 67s50 34 83 45
s70.833 16.5 113.5 16.5s80.167 -5.83301 112.5 -17.5s59.5 -24.167 81.5 -37.5c26 -16.667 48 -35 66 -55l-100 -105c-10.667 13.333 -24 25.666 -40 36.999c-14 9.33301 -31.667 18 -53 26s-47 12 -77 12s-52.5 -6.16699 -67.5 -18.5s-22.5 -26.166 -22.5 -41.499z" />
    <glyph glyph-name="scedilla" unicode="&#x15f;" horiz-adv-x="445" 
d="M115 175c5.33301 -12.667 12.6641 -23.6611 21.9971 -32.9941c8 -8 18.833 -15.333 32.5 -22s30.5 -10 50.5 -10c15.333 0 26.666 3.33301 33.999 10s11 15 11 25c0 10.667 -5.5 19 -16.5 25s-24.833 11.5 -41.5 16.5l-54.5 17
c-19.667 6.33301 -37.834 15.166 -54.501 26.499s-30.5 26 -41.5 44s-16.5 41.667 -16.5 71c0 21.333 4.16699 41.333 12.5 60s20.333 35 36 49s34.667 25.167 57 33.5s47.166 12.5 74.499 12.5c31.333 0 58.5 -5.16699 81.5 -15.5s42.167 -21.833 57.5 -34.5
c18 -14.667 33.333 -31.334 46 -50.001l-95 -75c-7.33301 10 -15.333 19 -24 27c-7.33301 7.33301 -16.166 13.833 -26.499 19.5s-21.833 8.5 -34.5 8.5c-20 0 -30 -8.33301 -30 -25c0 -9.33301 5.5 -16.666 16.5 -21.999s24.833 -10.5 41.5 -15.5
s34.834 -10.833 54.501 -17.5s37.834 -15.834 54.501 -27.501s30.5 -26.834 41.5 -45.501s16.5 -42.667 16.5 -72c0 -34 -7.66699 -61.5 -23 -82.5s-32 -37.167 -50 -48.5c-21.333 -13.333 -45.333 -23 -72 -29v-50c25.333 0 45.833 -7.66699 61.5 -23
s23.5 -34.333 23.5 -57c0 -30 -11.167 -55 -33.5 -75s-56.166 -30 -101.499 -30c-17.333 0 -32.833 1.5 -46.5 4.5s-25.167 6.5 -34.5 10.5c-11.333 4 -21 9 -29 15l25 55c4.66699 -2.66699 10.334 -5.33398 17.001 -8.00098c12.667 -4.66699 28.667 -7 48 -7
c17.333 0 30 3.16699 38 9.5s12 13.166 12 20.499s-3.5 14.166 -10.5 20.499s-16.833 9.5 -29.5 9.5h-30v105c-30 3.33301 -55.5 10.833 -76.5 22.5s-38.167 23.5 -51.5 35.5c-15.333 14 -27.666 29.667 -36.999 47z" />
    <glyph glyph-name="Scaron" unicode="&#x160;" horiz-adv-x="630" 
d="M210 510c0 -16 5.66602 -28.8311 16.999 -38.498s26 -17.667 44 -24s38.667 -11.666 62 -15.999s47.333 -9.5 72 -15.5s48.667 -13.5 72 -22.5s44 -21.333 62 -37s32.667 -35.334 44 -59.001s17 -52.834 17 -87.501c0 -31.333 -6 -60.333 -18 -87
s-30 -49.834 -54 -69.501s-54.167 -35.167 -90.5 -46.5s-78.833 -17 -127.5 -17c-49.333 0 -92 6.5 -128 19.5s-66 27.167 -90 42.5c-28 18 -52 39 -72 63l105 105c10.667 -17.333 25 -32.333 43 -45c15.333 -11.333 35.333 -21.666 60 -30.999s55.334 -14 92.001 -14
c40 0 69.167 7.33301 87.5 22s27.5 30.667 27.5 48c0 16 -5.66699 28.833 -17 38.5s-26 17.667 -44 24s-38.667 11.666 -62 15.999s-47.333 9.5 -72 15.5s-48.667 13.5 -72 22.5s-44 21.333 -62 37s-32.667 35.167 -44 58.5s-17 52.666 -17 87.999
c0 28.667 5.83301 55.834 17.5 81.501s28.667 48 51 67s50 34 83 45s70.833 16.5 113.5 16.5s80.167 -5.83301 112.5 -17.5s59.5 -24.167 81.5 -37.5c26 -16.667 48 -35 66 -55l-100 -105c-10.667 13.333 -24 25.666 -40 36.999c-14 9.33301 -31.667 18 -53 26
s-47 12 -77 12s-52.5 -6.16699 -67.5 -18.5s-22.5 -26.166 -22.5 -41.499zM149.999 910.002h130l25 -55h10l25 55h130l-90 -130h-140z" />
    <glyph glyph-name="scaron" unicode="&#x161;" horiz-adv-x="445" 
d="M115 175c5.33301 -12.667 12.666 -23.6641 21.999 -32.9971c8 -8 18.833 -15.333 32.5 -22s30.5 -10 50.5 -10c15.333 0 26.666 3.33301 33.999 10s11 15 11 25c0 10.667 -5.5 19 -16.5 25s-24.833 11.5 -41.5 16.5l-54.5 17
c-19.667 6.33301 -37.834 15.166 -54.501 26.499s-30.5 26 -41.5 44s-16.5 41.667 -16.5 71c0 21.333 4.16699 41.333 12.5 60s20.333 35 36 49s34.667 25.167 57 33.5s47.166 12.5 74.499 12.5c31.333 0 58.5 -5.16699 81.5 -15.5s42.167 -21.833 57.5 -34.5
c18 -14.667 33.333 -31.334 46 -50.001l-95 -75c-7.33301 10 -15.333 19 -24 27c-7.33301 7.33301 -16.166 13.833 -26.499 19.5s-21.833 8.5 -34.5 8.5c-20 0 -30 -8.33301 -30 -25c0 -9.33301 5.5 -16.666 16.5 -21.999s24.833 -10.5 41.5 -15.5
s34.834 -10.833 54.501 -17.5s37.834 -15.834 54.501 -27.501s30.5 -26.834 41.5 -45.501s16.5 -42.667 16.5 -72c0 -22.667 -4.5 -44 -13.5 -64s-21.833 -37.5 -38.5 -52.5s-36.667 -26.833 -60 -35.5s-49.333 -13 -78 -13c-39.333 0 -72.166 5.66699 -98.499 17
s-47.833 24 -64.5 38c-19.333 16 -35 34.333 -47 55zM60 730.003h130l25 -65h10l25 65h130l-90 -140h-140z" />
    <glyph glyph-name="Tcommaaccent" unicode="&#x162;" 
d="M340 0h-160v560h-150v140h460v-140h-150v-560zM185 -190v129.998h150v-95c0 -30 -6.66699 -54.5 -20 -73.5s-27.666 -33.833 -42.999 -44.5c-18 -12 -38.667 -21 -62 -27l-15 50c9.33301 2 18 5.66699 26 11c7.33301 4.66699 14.166 10.834 20.499 18.501
s10.833 17.834 13.5 30.501h-70z" />
    <glyph glyph-name="tcommaaccent" unicode="&#x163;" horiz-adv-x="340" 
d="M20 490l60 0.000976562v70l130 110h20v-180h70v-110h-70v-185c0 -25.333 4.83301 -43.333 14.5 -54s23.167 -16 40.5 -16h15l-20 -125h-55c-42.667 0 -77.5 13.667 -104.5 41s-40.5 63.666 -40.5 108.999v230h-60v110zM115 -189.999v129.998h150v-95
c0 -30 -6.66699 -54.5 -20 -73.5s-27.666 -33.833 -42.999 -44.5c-18 -12 -38.667 -21 -62 -27l-15 50c9.33301 2 18 5.66699 26 11c7.33301 4.66699 14.166 10.834 20.499 18.501s10.833 17.834 13.5 30.501h-70z" />
    <glyph glyph-name="Tcaron" unicode="&#x164;" 
d="M340 0h-160v560h-150v140h460v-140h-150v-560zM100 910h130l25 -55h10l25 55h130l-90 -130h-140z" />
    <glyph glyph-name="tcaron" unicode="&#x165;" horiz-adv-x="425" 
d="M20 490l60 0.000976562v70l130 110h20v-180h70v-110h-70v-185c0 -25.333 4.83301 -43.333 14.5 -54s23.167 -16 40.5 -16h15l-20 -125h-55c-42.667 0 -77.5 13.667 -104.5 41s-40.5 63.666 -40.5 108.999v230h-60v110zM315 570.001v129.998h150v-95
c0 -30 -6.66699 -54.5 -20 -73.5s-27.666 -33.833 -42.999 -44.5c-18 -12 -38.667 -21 -62 -27l-15 50c9.33301 2 18 5.66699 26 11c7.33301 4.66699 14.166 10.834 20.499 18.501s10.833 17.834 13.5 30.501h-70z" />
    <glyph glyph-name="Umacron" unicode="&#x16a;" horiz-adv-x="680" 
d="M455 700h159.998v-480c0 -32.667 -6.16699 -63 -18.5 -91s-30.166 -52.333 -53.499 -73s-52 -36.834 -86 -48.501s-73 -17.5 -117 -17.5s-83 5.83301 -117 17.5s-62.667 27.834 -86 48.501s-41.166 45 -53.499 73s-18.5 58.333 -18.5 91v480h160v-480
c0 -28 10.333 -51.667 31 -71s48.667 -29 84 -29s63.333 9.66699 84 29s31 43 31 71v480zM184.998 900h310v-100h-310v100z" />
    <glyph glyph-name="umacron" unicode="&#x16b;" 
d="M205 185c0 -25.333 4.83301 -43.3311 14.5 -53.998s23.167 -16 40.5 -16c10 0 18.333 1.66699 25 5s12.334 7.33301 17.001 12c5.33301 5.33301 9.66602 11.333 12.999 18v340h150v-490h-150v35h-10c-8 -8.66699 -17.333 -16.334 -28 -23.001
c-9.33301 -5.33301 -20.5 -10.333 -33.5 -15s-27.5 -7 -43.5 -7c-42.667 0 -77.5 13.667 -104.5 41s-40.5 63.666 -40.5 108.999v350h150v-305zM105 710.002h310v-100h-310v100z" />
    <glyph glyph-name="Uring" unicode="&#x16e;" horiz-adv-x="680" 
d="M455 700h159.998v-480c0 -32.667 -6.16699 -63 -18.5 -91s-30.166 -52.333 -53.499 -73s-52 -36.834 -86 -48.501s-73 -17.5 -117 -17.5s-83 5.83301 -117 17.5s-62.667 27.834 -86 48.501s-41.166 45 -53.499 73s-18.5 58.333 -18.5 91v480h160v-480
c0 -28 10.333 -51.667 31 -71s48.667 -29 84 -29s63.333 9.66699 84 29s31 43 31 71v480zM309.998 845c0 -8.66699 2.83301 -15.834 8.5 -21.501s12.834 -8.5 21.501 -8.5s15.834 2.83301 21.501 8.5s8.5 12.834 8.5 21.501s-2.83301 15.834 -8.5 21.501
s-12.834 8.5 -21.501 8.5s-15.834 -2.83301 -21.501 -8.5s-8.5 -12.834 -8.5 -21.501zM229.998 845c0 28 10.167 51.667 30.5 71s46.833 29 79.5 29s59.167 -9.66699 79.5 -29s30.5 -43 30.5 -71s-10.167 -51.667 -30.5 -71s-46.833 -29 -79.5 -29s-59.167 9.66699 -79.5 29
s-30.5 43 -30.5 71z" />
    <glyph glyph-name="uring" unicode="&#x16f;" 
d="M205 185c0 -25.333 4.83301 -43.3311 14.5 -53.998s23.167 -16 40.5 -16c10 0 18.333 1.66699 25 5s12.334 7.33301 17.001 12c5.33301 5.33301 9.66602 11.333 12.999 18v340h150v-490h-150v35h-10c-8 -8.66699 -17.333 -16.334 -28 -23.001
c-9.33301 -5.33301 -20.5 -10.333 -33.5 -15s-27.5 -7 -43.5 -7c-42.667 0 -77.5 13.667 -104.5 41s-40.5 63.666 -40.5 108.999v350h150v-305zM220 670.002c0 -26.667 13.333 -40 40 -40s40 13.333 40 40s-13.333 40 -40 40s-40 -13.333 -40 -40zM150 670.002
c0 14.667 2.83301 28.667 8.5 42s13.5 25 23.5 35s21.667 18 35 24s27.666 9 42.999 9c14.667 0 28.667 -3 42 -9s25 -14 35 -24s18 -21.667 24 -35s9 -27.333 9 -42c0 -15.333 -3 -29.666 -9 -42.999s-14 -25 -24 -35s-21.667 -17.833 -35 -23.5s-27.333 -8.5 -42 -8.5
c-15.333 0 -29.666 2.83301 -42.999 8.5s-25 13.5 -35 23.5s-17.833 21.667 -23.5 35s-8.5 27.666 -8.5 42.999z" />
    <glyph glyph-name="Uhungarumlaut" unicode="&#x170;" horiz-adv-x="680" 
d="M455 700h159.998v-480c0 -32.667 -6.16699 -63 -18.5 -91s-30.166 -52.333 -53.499 -73s-52 -36.834 -86 -48.501s-73 -17.5 -117 -17.5s-83 5.83301 -117 17.5s-62.667 27.834 -86 48.501s-41.166 45 -53.499 73s-18.5 58.333 -18.5 91v480h160v-480
c0 -28 10.333 -51.667 31 -71s48.667 -29 84 -29s63.333 9.66699 84 29s31 43 31 71v480zM434.998 910h160l-100 -130h-110zM234.998 910h160l-100 -130h-110z" />
    <glyph glyph-name="uhungarumlaut" unicode="&#x171;" 
d="M205 185c0 -25.333 4.83301 -43.3311 14.5 -53.998s23.167 -16 40.5 -16c10 0 18.333 1.66699 25 5s12.334 7.33301 17.001 12c5.33301 5.33301 9.66602 11.333 12.999 18v340h150v-490h-150v35h-10c-8 -8.66699 -17.333 -16.334 -28 -23.001
c-9.33301 -5.33301 -20.5 -10.333 -33.5 -15s-27.5 -7 -43.5 -7c-42.667 0 -77.5 13.667 -104.5 41s-40.5 63.666 -40.5 108.999v350h150v-305zM365 730.002h160l-100 -140h-110zM165 730.002h160l-100 -140h-110z" />
    <glyph glyph-name="Uogonek" unicode="&#x172;" horiz-adv-x="680" 
d="M445 -205c-8 -6 -17.665 -10.998 -28.998 -14.998c-9.33301 -4 -20.833 -7.5 -34.5 -10.5s-29.167 -4.5 -46.5 -4.5c-40 0 -69.167 8.33301 -87.5 25s-27.5 40 -27.5 70c0 18.667 4.83301 36 14.5 52s20.5 29.667 32.5 41c14 13.333 30 25.666 48 36.999
c-46.667 4 -88.334 14.667 -125.001 32c-16 7.33301 -31.5 16.666 -46.5 27.999s-28.333 25 -40 41s-21 34.667 -28 56s-10.5 45.666 -10.5 72.999v480h160v-480c0 -28 10.333 -51.667 31 -71s48.667 -29 84 -29s63.333 9.66699 84 29s31 43 31 71v480h160v-480
c0 -25.333 -3 -47.833 -9 -67.5s-14 -37.167 -24 -52.5s-21.333 -28.5 -34 -39.5s-25.334 -20.5 -38.001 -28.5c-31.333 -18 -66.333 -30.333 -105 -37c-16.667 -14 -31 -28 -43 -42c-10.667 -12 -20.334 -25.5 -29.001 -40.5s-13 -29.167 -13 -42.5
c0 -10 3.33301 -18.333 10 -25s15 -10 25 -10c18.667 0 34.334 2.33301 47.001 7c6.66699 2.66699 12.667 5.33398 18 8.00098z" />
    <glyph glyph-name="uogonek" unicode="&#x173;" 
d="M500 -205c-8 -6 -17.6689 -11.001 -29.002 -15.001c-9.33301 -4 -20.833 -7.5 -34.5 -10.5s-29.167 -4.5 -46.5 -4.5c-40 0 -69.167 8.33301 -87.5 25s-27.5 40 -27.5 70c0 20 5.66699 38.5 17 55.5s24 31.833 38 44.5c16 14.667 34.333 28 55 40h-70v35h-10
c-8 -8.66699 -17.333 -16.334 -28 -23.001c-9.33301 -5.33301 -20.5 -10.333 -33.5 -15s-27.5 -7 -43.5 -7c-42.667 0 -77.5 13.667 -104.5 41s-40.5 63.666 -40.5 108.999v350h150v-305c0 -25.333 4.83301 -43.333 14.5 -54s23.167 -16 40.5 -16c10 0 18.333 1.66699 25 5
s12.334 7.33301 17.001 12c5.33301 5.33301 9.66602 11.333 12.999 18v340h150v-490c-17.333 -14 -32.333 -28.667 -45 -44c-11.333 -13.333 -21.666 -27.666 -30.999 -42.999s-14 -29.666 -14 -42.999c0 -10 3.33301 -18.333 10 -25s15 -10 25 -10
c18.667 0 34.334 2.33301 47.001 7c6.66699 2.66699 12.667 5.33398 18 8.00098z" />
    <glyph glyph-name="Ydieresis" unicode="&#x178;" horiz-adv-x="560" 
d="M395 700h165l-200 -385v-315h-160v315l-200 385h165l110 -230h10zM120 910h130v-130h-130v130zM310 910h130v-130h-130v130z" />
    <glyph glyph-name="Zacute" unicode="&#x179;" horiz-adv-x="550" 
d="M20 140l295 410v10h-265v140h470v-140l-295 -410v-10h295v-140h-500v140zM285 910h160l-110 -130h-110z" />
    <glyph glyph-name="zacute" unicode="&#x17a;" horiz-adv-x="415" 
d="M35 490h360v-100l-195 -270v-10h195v-110h-380v100l195 270v10h-175v110zM220 730h160l-110 -140h-110z" />
    <glyph glyph-name="Zdotaccent" unicode="&#x17b;" horiz-adv-x="550" 
d="M20 140l295 410v10h-265v140h470v-140l-295 -410v-10h295v-140h-500v140zM210 910h150v-130h-150v130z" />
    <glyph glyph-name="zdotaccent" unicode="&#x17c;" horiz-adv-x="415" 
d="M35 490h360v-100l-195 -270v-10h195v-110h-380v100l195 270v10h-175v110zM140 730h150v-140h-150v140z" />
    <glyph glyph-name="Zcaron" unicode="&#x17d;" horiz-adv-x="550" 
d="M20 140l295 410v10h-265v140h470v-140l-295 -410v-10h295v-140h-500v140zM125 910h130l25 -55h10l25 55h130l-90 -130h-140z" />
    <glyph glyph-name="zcaron" unicode="&#x17e;" horiz-adv-x="415" 
d="M35 490h360v-100l-195 -270v-10h195v-110h-380v100l195 270v10h-175v110zM55 730h130l25 -65h10l25 65h130l-90 -140h-140z" />
    <glyph glyph-name="florin" unicode="&#x192;" horiz-adv-x="350" 
d="M100 340h-60v110h60v60c0 45.333 13.5 81.666 40.5 108.999s61.833 41 104.5 41h75v-125h-15c-17.333 0 -30.833 -5.33301 -40.5 -16s-14.5 -28.667 -14.5 -54v-15h70v-110h-70v-320c0 -45.333 -13.5 -81.666 -40.5 -108.999s-61.833 -41 -104.5 -41h-55l-20 125h15
c17.333 0 30.833 5.33301 40.5 16s14.5 28.667 14.5 54v275z" />
    <glyph glyph-name="Scommaaccent" unicode="&#x218;" horiz-adv-x="630" 
d="M210 510c0 -16 5.66602 -28.8311 16.999 -38.498s26 -17.667 44 -24s38.667 -11.666 62 -15.999s47.333 -9.5 72 -15.5s48.667 -13.5 72 -22.5s44 -21.333 62 -37s32.667 -35.334 44 -59.001s17 -52.834 17 -87.501c0 -31.333 -6 -60.333 -18 -87
s-30 -49.834 -54 -69.501s-54.167 -35.167 -90.5 -46.5s-78.833 -17 -127.5 -17c-49.333 0 -92 6.5 -128 19.5s-66 27.167 -90 42.5c-28 18 -52 39 -72 63l105 105c10.667 -17.333 25 -32.333 43 -45c15.333 -11.333 35.333 -21.666 60 -30.999s55.334 -14 92.001 -14
c40 0 69.167 7.33301 87.5 22s27.5 30.667 27.5 48c0 16 -5.66699 28.833 -17 38.5s-26 17.667 -44 24s-38.667 11.666 -62 15.999s-47.333 9.5 -72 15.5s-48.667 13.5 -72 22.5s-44 21.333 -62 37s-32.667 35.167 -44 58.5s-17 52.666 -17 87.999
c0 28.667 5.83301 55.834 17.5 81.501s28.667 48 51 67s50 34 83 45s70.833 16.5 113.5 16.5s80.167 -5.83301 112.5 -17.5s59.5 -24.167 81.5 -37.5c26 -16.667 48 -35 66 -55l-100 -105c-10.667 13.333 -24 25.666 -40 36.999c-14 9.33301 -31.667 18 -53 26
s-47 12 -77 12s-52.5 -6.16699 -67.5 -18.5s-22.5 -26.166 -22.5 -41.499zM229.999 -189.998v129.998h150v-95c0 -30 -6.66699 -54.5 -20 -73.5s-27.666 -33.833 -42.999 -44.5c-18 -12 -38.667 -21 -62 -27l-15 50c9.33301 2 18 5.66699 26 11
c7.33301 4.66699 14.166 10.834 20.499 18.501s10.833 17.834 13.5 30.501h-70z" />
    <glyph glyph-name="scommaaccent" unicode="&#x219;" horiz-adv-x="445" 
d="M115 175c5.33301 -12.667 12.666 -23.6641 21.999 -32.9971c8 -8 18.833 -15.333 32.5 -22s30.5 -10 50.5 -10c15.333 0 26.666 3.33301 33.999 10s11 15 11 25c0 10.667 -5.5 19 -16.5 25s-24.833 11.5 -41.5 16.5l-54.5 17
c-19.667 6.33301 -37.834 15.166 -54.501 26.499s-30.5 26 -41.5 44s-16.5 41.667 -16.5 71c0 21.333 4.16699 41.333 12.5 60s20.333 35 36 49s34.667 25.167 57 33.5s47.166 12.5 74.499 12.5c31.333 0 58.5 -5.16699 81.5 -15.5s42.167 -21.833 57.5 -34.5
c18 -14.667 33.333 -31.334 46 -50.001l-95 -75c-7.33301 10 -15.333 19 -24 27c-7.33301 7.33301 -16.166 13.833 -26.499 19.5s-21.833 8.5 -34.5 8.5c-20 0 -30 -8.33301 -30 -25c0 -9.33301 5.5 -16.666 16.5 -21.999s24.833 -10.5 41.5 -15.5
s34.834 -10.833 54.501 -17.5s37.834 -15.834 54.501 -27.501s30.5 -26.834 41.5 -45.501s16.5 -42.667 16.5 -72c0 -22.667 -4.5 -44 -13.5 -64s-21.833 -37.5 -38.5 -52.5s-36.667 -26.833 -60 -35.5s-49.333 -13 -78 -13c-39.333 0 -72.166 5.66699 -98.499 17
s-47.833 24 -64.5 38c-19.333 16 -35 34.333 -47 55zM155 -189.997v129.998h150v-95c0 -30 -6.66699 -54.5 -20 -73.5s-27.666 -33.833 -42.999 -44.5c-18 -12 -38.667 -21 -62 -27l-15 50c9.33301 2 18 5.66699 26 11c7.33301 4.66699 14.166 10.834 20.499 18.501
s10.833 17.834 13.5 30.501h-70z" />
    <glyph glyph-name="afii57929" unicode="&#x2bc;" horiz-adv-x="210" 
d="M30 570v129.998h150v-95c0 -30 -6.66699 -54.5 -20 -73.5s-27.666 -33.833 -42.999 -44.5c-18 -12 -38.667 -21 -62 -27l-15 50c9.33301 2 18 5.66699 26 11c7.33301 4.66699 14.166 10.834 20.499 18.501s10.833 17.834 13.5 30.501h-70z" />
    <glyph glyph-name="circumflex" unicode="&#x2c6;" horiz-adv-x="380" 
d="M350 590h-130l-25 65h-10l-25 -65h-130l90 140h140z" />
    <glyph glyph-name="caron" unicode="&#x2c7;" horiz-adv-x="380" 
d="M30 730h130l25 -65h10l25 65h130l-90 -140h-140z" />
    <glyph glyph-name="breve" unicode="&#x2d8;" horiz-adv-x="360" 
d="M180 590c-45.333 0 -80.3311 12 -104.998 36s-39.667 58.667 -45 104h95c5.33301 -36.667 23.666 -55 54.999 -55s49.666 18.333 54.999 55h95c-5.33301 -45.333 -20.333 -80 -45 -104s-59.667 -36 -105 -36z" />
    <glyph glyph-name="dotaccent" unicode="&#x2d9;" horiz-adv-x="210" 
d="M30 730h150v-140h-150v140z" />
    <glyph glyph-name="ring" unicode="&#x2da;" horiz-adv-x="280" 
d="M100 670c0 -26.667 13.333 -40 40 -40s40 13.333 40 40s-13.333 40 -40 40s-40 -13.333 -40 -40zM30 670c0 14.667 2.83301 28.667 8.5 42s13.5 25 23.5 35s21.667 18 35 24s27.666 9 42.999 9c14.667 0 28.667 -3 42 -9s25 -14 35 -24s18 -21.667 24 -35
s9 -27.333 9 -42c0 -15.333 -3 -29.666 -9 -42.999s-14 -25 -24 -35s-21.667 -17.833 -35 -23.5s-27.333 -8.5 -42 -8.5c-15.333 0 -29.666 2.83301 -42.999 8.5s-25 13.5 -35 23.5s-17.833 21.667 -23.5 35s-8.5 27.666 -8.5 42.999z" />
    <glyph glyph-name="ogonek" unicode="&#x2db;" horiz-adv-x="285" 
d="M255 -205c-8 -6 -17.6689 -11.0029 -29.002 -15.0029c-9.33301 -4 -20.833 -7.5 -34.5 -10.5s-29.167 -4.5 -46.5 -4.5c-40 0 -69.167 8.33301 -87.5 25s-27.5 40 -27.5 70c0 20 5.66699 38.5 17 55.5s24 31.833 38 44.5c16 14.667 34.333 28 55 40h80
c-17.333 -14 -32.333 -28.667 -45 -44c-11.333 -13.333 -21.666 -27.666 -30.999 -42.999s-14 -29.666 -14 -42.999c0 -10 3.33301 -18.333 10 -25s15 -10 25 -10c18.667 0 34.334 2.33301 47.001 7c6.66699 2.66699 12.667 5.33398 18 8.00098z" />
    <glyph glyph-name="tilde" unicode="&#x2dc;" horiz-adv-x="380" 
d="M350 730c-7.33301 -52.667 -19.5 -89.167 -36.5 -109.5s-38.167 -30.5 -63.5 -30.5c-12.667 0 -23.5 1.5 -32.5 4.5s-17.333 6.5 -25 10.5s-14.834 7.5 -21.501 10.5s-13.667 4.5 -21 4.5s-13.5 -1.83301 -18.5 -5.5s-8.83301 -11.834 -11.5 -24.501h-90
c7.33301 52.667 19.5 89.167 36.5 109.5s38.167 30.5 63.5 30.5c12.667 0 23.5 -1.5 32.5 -4.5s17.333 -6.5 25 -10.5s14.834 -7.5 21.501 -10.5s13.667 -4.5 21 -4.5s13.5 1.83301 18.5 5.5s8.83301 11.834 11.5 24.501h90z" />
    <glyph glyph-name="hungarumlaut" unicode="&#x2dd;" horiz-adv-x="470" 
d="M280 730h160l-100 -140h-110zM80 730h160l-100 -140h-110z" />
    <glyph glyph-name="afii10023" unicode="&#x401;" horiz-adv-x="580" 
d="M70 700h460v-140h-300v-90h240v-140h-240v-190h320v-140h-480v700zM150 910h130v-130h-130v130zM340 910h130v-130h-130v130z" />
    <glyph glyph-name="afii10051" unicode="&#x402;" horiz-adv-x="715" 
d="M290 0h-159.999v560h-130v140h440v-140h-150v-90l22 5c7.33301 1.33301 16.666 2.5 27.999 3.5s24.666 1.5 39.999 1.5c50 0 94 -6.16699 132 -18.5s69.833 -29.333 95.5 -51s45 -47 58 -76s19.5 -60.5 19.5 -94.5s-6.33301 -65.5 -19 -94.5s-31.334 -54.333 -56.001 -76
s-54.667 -38.667 -90 -51s-75.333 -18.5 -120 -18.5v130c38 0 67.5 10.167 88.5 30.5s31.5 46.833 31.5 79.5c0 30 -11.333 55 -34 75s-58 30 -106 30c-15.333 0 -28.666 -0.5 -39.999 -1.5s-20.666 -2.16699 -27.999 -3.5l-22 -5v-335z" />
    <glyph glyph-name="afii10052" unicode="&#x403;" horiz-adv-x="490" 
d="M70 700h410v-140h-250v-560h-160v700zM270 910h160l-110 -130h-110z" />
    <glyph glyph-name="afii10053" unicode="&#x404;" horiz-adv-x="665" 
d="M645 115c-20 -24 -43.334 -44.998 -70.001 -62.998c-23.333 -15.333 -52 -29.5 -86 -42.5s-73.667 -19.5 -119 -19.5s-88 8.83301 -128 26.5s-75 42.5 -105 74.5s-53.667 70 -71 114s-26 92.333 -26 145s8.66699 101 26 145s41 82 71 114s65 56.833 105 74.5
s82.667 26.5 128 26.5c42.667 0 80.167 -5.83301 112.5 -17.5s59.5 -24.167 81.5 -37.5c26 -16.667 48 -35 66 -55l-100 -105c-10.667 13.333 -23.334 25.666 -38.001 36.999c-12.667 9.33301 -28.167 18 -46.5 26s-40.166 12 -65.499 12
c-32.667 0 -59.334 -6.83301 -80.001 -20.5s-37 -28.5 -49 -44.5c-14 -19.333 -24.333 -41 -31 -65h215v-140h-225c5.33301 -32 15 -60.333 29 -85c6 -10.667 13.167 -21.167 21.5 -31.5s18.333 -19.5 30 -27.5s24.834 -14.333 39.501 -19s31.334 -7 50.001 -7
c28 0 51.833 4.66699 71.5 14s36.167 19.666 49.5 30.999c15.333 12.667 28.333 27.667 39 45z" />
    <glyph glyph-name="afii10054" unicode="&#x405;" horiz-adv-x="630" 
d="M210 510c0 -16 5.66602 -28.8311 16.999 -38.498s26 -17.667 44 -24s38.667 -11.666 62 -15.999s47.333 -9.5 72 -15.5s48.667 -13.5 72 -22.5s44 -21.333 62 -37s32.667 -35.334 44 -59.001s17 -52.834 17 -87.501c0 -31.333 -6 -60.333 -18 -87
s-30 -49.834 -54 -69.501s-54.167 -35.167 -90.5 -46.5s-78.833 -17 -127.5 -17c-49.333 0 -92 6.5 -128 19.5s-66 27.167 -90 42.5c-28 18 -52 39 -72 63l105 105c10.667 -17.333 25 -32.333 43 -45c15.333 -11.333 35.333 -21.666 60 -30.999s55.334 -14 92.001 -14
c40 0 69.167 7.33301 87.5 22s27.5 30.667 27.5 48c0 16 -5.66699 28.833 -17 38.5s-26 17.667 -44 24s-38.667 11.666 -62 15.999s-47.333 9.5 -72 15.5s-48.667 13.5 -72 22.5s-44 21.333 -62 37s-32.667 35.167 -44 58.5s-17 52.666 -17 87.999
c0 28.667 5.83301 55.834 17.5 81.501s28.667 48 51 67s50 34 83 45s70.833 16.5 113.5 16.5s80.167 -5.83301 112.5 -17.5s59.5 -24.167 81.5 -37.5c26 -16.667 48 -35 66 -55l-100 -105c-10.667 13.333 -24 25.666 -40 36.999c-14 9.33301 -31.667 18 -53 26
s-47 12 -77 12s-52.5 -6.16699 -67.5 -18.5s-22.5 -26.166 -22.5 -41.499z" />
    <glyph glyph-name="afii10055" unicode="&#x406;" horiz-adv-x="300" 
d="M230 0h-160v700h160v-700z" />
    <glyph glyph-name="afii10056" unicode="&#x407;" horiz-adv-x="320" 
d="M240 0h-160v700h160v-700zM1 910h130v-130h-130v130zM191 910h130v-130h-130v130z" />
    <glyph glyph-name="afii10057" unicode="&#x408;" horiz-adv-x="355" 
d="M20 150l70.002 -0.000976562c15.333 0 26.666 4.33301 33.999 13s11 24.334 11 47.001v490h160v-540c0 -24 -3.83301 -45.833 -11.5 -65.5s-18.334 -36.5 -32.001 -50.5s-30 -24.833 -49 -32.5s-39.833 -11.5 -62.5 -11.5h-120v150z" />
    <glyph glyph-name="afii10058" unicode="&#x409;" horiz-adv-x="1005" 
d="M10 140l35.0039 -0.00292969c15.333 0 27 4.33301 35 13s13 24.334 15 47.001l41 500h434v-190l22 5c7.33301 1.33301 16.666 2.5 27.999 3.5s24.666 1.5 39.999 1.5c51.333 0 96.666 -6.5 135.999 -19.5s72.166 -31 98.499 -54s46.333 -50.5 60 -82.5
s20.5 -66.667 20.5 -104s-6.66699 -72 -20 -104s-32.666 -59.5 -57.999 -82.5s-56.333 -41 -93 -54s-78 -19.5 -124 -19.5h-270v560h-126l-34 -410c-2 -22.667 -7.83301 -43.667 -17.5 -63s-22 -36.166 -37 -50.499s-32.333 -25.666 -52 -33.999
s-40.834 -12.5 -63.501 -12.5h-70v150zM570.004 129.997h109.998c40 0 71.667 11.667 95 35s35 55 35 95c0 38 -12.5 68.333 -37.5 91s-62.5 34 -112.5 34c-15.333 0 -28.666 -0.5 -39.999 -1.5s-20.666 -2.16699 -27.999 -3.5l-22 -5v-245z" />
    <glyph glyph-name="afii10059" unicode="&#x40a;" horiz-adv-x="1015" 
d="M230 490h210v210h160v-210h105c44 0 83.333 -6.16699 118 -18.5s64 -29.5 88 -51.5s42.333 -48 55 -78s19 -62.333 19 -97c0 -35.333 -6.33301 -67.833 -19 -97.5s-31 -55.5 -55 -77.5s-53.333 -39.167 -88 -51.5s-74 -18.5 -118 -18.5h-265v360h-210v-360h-160v700h160
v-210zM820 245c0 35.333 -10.333 63.333 -31 84s-48.667 31 -84 31h-105v-230h105c35.333 0 63.333 10.333 84 31s31 48.667 31 84z" />
    <glyph glyph-name="afii10060" unicode="&#x40b;" horiz-adv-x="705" 
d="M490 270c0 22.667 -8.33203 40.834 -24.999 54.501s-45 20.5 -85 20.5c-15.333 0 -28.666 -0.5 -39.999 -1.5s-20.666 -2.16699 -27.999 -3.5l-22 -5v-335h-160v560h-130v140h440v-140h-150v-90l22 5c7.33301 1.33301 16.666 2.5 27.999 3.5s24.666 1.5 39.999 1.5
c44.667 0 84.167 -5.5 118.5 -16.5s63.166 -26 86.499 -45s40.833 -41.333 52.5 -67s17.5 -52.834 17.5 -81.501v-270h-165v270v0z" />
    <glyph glyph-name="afii10061" unicode="&#x40c;" horiz-adv-x="630" 
d="M295 325h-65v-325h-160v700h160v-230h60l140 230h180l-180 -290l200 -410h-180zM340 910h160l-110 -130h-110z" />
    <glyph glyph-name="afii10062" unicode="&#x40e;" horiz-adv-x="560" 
d="M125 150h40.002c15.333 0 26.166 2.83301 32.499 8.5s12.166 16.167 17.499 31.5l-215 510h165l120 -310h10l100 310h165l-190 -540c-19.333 -55.333 -42.5 -95.833 -69.5 -121.5s-60.5 -38.5 -100.5 -38.5h-75v150zM280.002 770c-45.333 0 -81.002 12.167 -107.002 36.5
s-40.333 55.5 -43 93.5h100c2.66699 -12.667 7.83398 -22.5 15.501 -29.5s19.167 -10.5 34.5 -10.5s26.833 3.5 34.5 10.5s12.834 16.833 15.501 29.5h100c-2.66699 -38 -17 -69.167 -43 -93.5s-61.667 -36.5 -107 -36.5z" />
    <glyph glyph-name="afii10145" unicode="&#x40f;" horiz-adv-x="680" 
d="M230 140h220v560h160v-700h-190v-130h-160v130h-190v700h160v-560z" />
    <glyph glyph-name="afii10017" unicode="&#x410;" horiz-adv-x="640" 
d="M630 0h-165l-40 130h-210l-40 -130h-165l240 700h140zM250 260h140l-65 210h-10z" />
    <glyph glyph-name="afii10018" unicode="&#x411;" horiz-adv-x="655" 
d="M70 700h480.003v-140h-320v-90l22 5c7.33301 1.33301 16.666 2.5 27.999 3.5s24.666 1.5 39.999 1.5c50 0 94 -6.16699 132 -18.5s69.833 -29.333 95.5 -51s45 -47 58 -76s19.5 -60.5 19.5 -94.5s-6.33301 -65.5 -19 -94.5s-31.334 -54.333 -56.001 -76
s-54.667 -38.667 -90 -51s-75.333 -18.5 -120 -18.5h-270v700zM230.003 130h109.998c38 0 67.5 10.167 88.5 30.5s31.5 46.833 31.5 79.5c0 30 -11.333 55 -34 75s-58 30 -106 30c-15.333 0 -28.666 -0.5 -39.999 -1.5s-20.666 -2.16699 -27.999 -3.5l-22 -5v-205z" />
    <glyph glyph-name="afii10019" unicode="&#x412;" horiz-adv-x="655" 
d="M625 220c0 -31.333 -5.83008 -60.3291 -17.4971 -86.9961s-28.834 -49.834 -51.501 -69.501s-50.334 -35.167 -83.001 -46.5s-70.334 -17 -113.001 -17h-290v685c18 4.66699 39.667 8.66699 65 12c21.333 3.33301 47.5 6.33301 78.5 9s66.5 4 106.5 4
c47.333 0 88.333 -5 123 -15s63.167 -24 85.5 -42s39 -39.167 50 -63.5s16.5 -50.833 16.5 -79.5c0 -24 -4.16699 -44.333 -12.5 -61s-17.5 -30.667 -27.5 -42c-12 -12.667 -25.333 -23.334 -40 -32.001v-10c20 -6.66699 38.333 -16.334 55 -29.001
c13.333 -11.333 25.833 -26.333 37.5 -45s17.5 -42.334 17.5 -71.001zM460.003 220.004c0 25.333 -7.5 45 -22.5 59s-37.5 21 -67.5 21h-140v-160h140c30 0 52.5 7 67.5 21s22.5 33.667 22.5 59zM430.003 505.004c0 20 -8.33301 36.667 -25 50s-45 20 -85 20
c-12.667 0 -24.5 -0.5 -35.5 -1.5s-20.5 -2.16699 -28.5 -3.5c-9.33301 -2 -18 -3.66699 -26 -5v-125h120c28 0 48.333 5.83301 61 17.5s19 27.5 19 47.5z" />
    <glyph glyph-name="afii10020" unicode="&#x413;" horiz-adv-x="490" 
d="M70 700h410v-140h-250v-560h-160v700z" />
    <glyph glyph-name="afii10021" unicode="&#x414;" horiz-adv-x="660" 
d="M480 0h-320v-130h-160v270h45c6 2 11.333 6 16 12c4 5.33301 7.83301 12.5 11.5 21.5s6.16699 21.167 7.5 36.5l40 490h440v-560h80v-270h-160v130zM400 140l-0.00195312 420.002h-130l-30 -350c-1.33301 -12.667 -3.66602 -22.834 -6.99902 -30.501
s-6.66602 -13.834 -9.99902 -18.501c-4 -5.33301 -8.33301 -9 -13 -11v-10h190z" />
    <glyph glyph-name="afii10022" unicode="&#x415;" horiz-adv-x="580" 
d="M70 700h460v-140h-300v-90h240v-140h-240v-190h320v-140h-480v700z" />
    <glyph glyph-name="afii10024" unicode="&#x416;" horiz-adv-x="880" 
d="M555 325h-35v-325h-160v325h-35l-145 -325h-180l190 410l-170 290h180l130 -230h30v230h160v-230h30l130 230h180l-170 -290l190 -410h-180z" />
    <glyph glyph-name="afii10025" unicode="&#x417;" horiz-adv-x="610" 
d="M380 505c0 17.333 -7.66504 32.4971 -22.998 45.4971s-39.333 19.5 -72 19.5c-25.333 0 -47.333 -4 -66 -12s-34.334 -16.667 -47.001 -26c-14.667 -11.333 -27 -23.666 -37 -36.999l-100 105c18 20 40 38.333 66 55c22 13.333 49.167 25.833 81.5 37.5
s69.833 17.5 112.5 17.5c41.333 0 77.5 -5.33301 108.5 -16s57 -25.167 78 -43.5s36.833 -40 47.5 -65s16 -51.833 16 -80.5c0 -21.333 -3.5 -40 -10.5 -56s-14.5 -29.667 -22.5 -41c-9.33301 -12.667 -20 -23.667 -32 -33v-10c17.333 -7.33301 33 -17.333 47 -30
c12 -11.333 23 -26.666 33 -45.999s15 -44 15 -74c0 -32.667 -5.83301 -62.667 -17.5 -90s-29.334 -51 -53.001 -71s-53 -35.667 -88 -47s-75.5 -17 -121.5 -17c-45.333 0 -85 6.5 -119 19.5s-62.667 27.167 -86 42.5c-26.667 18 -50 39 -70 63l105 105
c10 -17.333 23.333 -32.333 40 -45c13.333 -11.333 30.833 -21.666 52.5 -30.999s47.5 -14 77.5 -14c38 0 66.667 8.5 86 25.5s29 36.833 29 59.5c0 25.333 -8.5 45.833 -25.5 61.5s-41.833 23.5 -74.5 23.5h-80v140h70c28 0 48.333 5.83301 61 17.5s19 27.5 19 47.5z" />
    <glyph glyph-name="afii10026" unicode="&#x418;" horiz-adv-x="700" 
d="M470 400h-10l-245 -400h-145v700h160v-390h10l245 390h145v-700h-160v400z" />
    <glyph glyph-name="afii10027" unicode="&#x419;" horiz-adv-x="700" 
d="M470 400h-10l-245 -400h-145v700h160v-390h10l245 390h145v-700h-160v400zM350 770c-45.333 0 -81.002 12.167 -107.002 36.5s-40.333 55.5 -43 93.5h100c2.66699 -12.667 7.83398 -22.5 15.501 -29.5s19.167 -10.5 34.5 -10.5s26.833 3.5 34.5 10.5
s12.834 16.833 15.501 29.5h100c-2.66699 -38 -17 -69.167 -43 -93.5s-61.667 -36.5 -107 -36.5z" />
    <glyph glyph-name="afii10028" unicode="&#x41a;" horiz-adv-x="630" 
d="M295 325h-65v-325h-160v700h160v-230h60l140 230h180l-180 -290l200 -410h-180z" />
    <glyph glyph-name="afii10029" unicode="&#x41b;" horiz-adv-x="650" 
d="M10 140l35.001 -0.00292969c15.333 0 27 4.33301 35 13s13 24.334 15 47.001l40 500h445v-700h-160v560h-135l-35 -410c-2 -22.667 -7.83301 -43.667 -17.5 -63s-22 -36.166 -37 -50.499s-32.333 -25.666 -52 -33.999s-40.834 -12.5 -63.501 -12.5h-70v150z" />
    <glyph glyph-name="afii10030" unicode="&#x41c;" horiz-adv-x="750" 
d="M680 0h-160v395h-10l-80 -145h-110l-80 145h-10v-395h-160v700h145l155 -270h10l155 270h145v-700z" />
    <glyph glyph-name="afii10031" unicode="&#x41d;" horiz-adv-x="680" 
d="M230 470h220v230h160v-700h-160v330h-220v-330h-160v700h160v-230z" />
    <glyph glyph-name="afii10032" unicode="&#x41e;" horiz-adv-x="740" 
d="M40 350c0 52.667 8.66699 101 26 145s41 82 71 114s65 56.833 105 74.5s82.667 26.5 128 26.5c44.667 0 87 -8.83301 127 -26.5s75 -42.5 105 -74.5s53.833 -70 71.5 -114s26.5 -92.333 26.5 -145s-8.83301 -101 -26.5 -145s-41.5 -82 -71.5 -114s-65 -56.833 -105 -74.5
s-82.333 -26.5 -127 -26.5c-45.333 0 -88 8.83301 -128 26.5s-75 42.5 -105 74.5s-53.667 70 -71 114s-26 92.333 -26 145zM205 350c0 -35.333 4.66699 -66.5 14 -93.5s21.666 -50 36.999 -69s32.833 -33.333 52.5 -43s40.167 -14.5 61.5 -14.5s41.833 4.83301 61.5 14.5
s37.167 24 52.5 43s27.666 42 36.999 69s14 58.167 14 93.5c0 34.667 -4.66699 65.667 -14 93s-21.666 50.5 -36.999 69.5s-32.833 33.333 -52.5 43s-40.167 14.5 -61.5 14.5s-41.833 -4.83301 -61.5 -14.5s-37.167 -24 -52.5 -43s-27.666 -42.167 -36.999 -69.5
s-14 -58.333 -14 -93z" />
    <glyph glyph-name="afii10033" unicode="&#x41f;" horiz-adv-x="680" 
d="M610 0h-160v560h-220v-560h-160v700h540v-700z" />
    <glyph glyph-name="afii10034" unicode="&#x420;" horiz-adv-x="655" 
d="M70 685c18 4.66699 38.334 8.66699 61.001 12c19.333 3.33301 43.166 6.33301 71.499 9s60.833 4 97.5 4c51.333 0 97.166 -7 137.499 -21s74.333 -33.167 102 -57.5s48.834 -53 63.501 -86s22 -68.167 22 -105.5s-7.33301 -72.5 -22 -105.5s-35.5 -61.667 -62.5 -86
s-60 -43.5 -99 -57.5s-82.833 -21 -131.5 -21h-80v-170h-160v685zM460.001 440c0 18.667 -3.66699 36.168 -11 52.501s-17.833 30.666 -31.5 42.999s-30.5 22 -50.5 29s-42.333 10.5 -67 10.5c-11.333 0 -21.333 -0.5 -30 -1.5s-16 -2.16699 -22 -3.5l-18 -5v-265h80
c22.667 0 43.167 3.5 61.5 10.5s34 16.833 47 29.5s23.167 27.5 30.5 44.5s11 35.5 11 55.5z" />
    <glyph glyph-name="afii10035" unicode="&#x421;" horiz-adv-x="665" 
d="M645 115c-20 -24 -43.333 -44.998 -70 -62.998c-23.333 -15.333 -52 -29.5 -86 -42.5s-73.667 -19.5 -119 -19.5s-88 8.83301 -128 26.5s-75 42.5 -105 74.5s-53.667 70 -71 114s-26 92.333 -26 145s8.66699 101 26 145s41 82 71 114s65 56.833 105 74.5
s82.667 26.5 128 26.5c42.667 0 80.167 -5.83301 112.5 -17.5s59.5 -24.167 81.5 -37.5c26 -16.667 48 -35 66 -55l-100 -105c-10.667 13.333 -23.334 25.666 -38.001 36.999c-12.667 9.33301 -28.167 18 -46.5 26s-40.166 12 -65.499 12c-24 0 -46.5 -4.83301 -67.5 -14.5
s-39.5 -24 -55.5 -43s-28.667 -42.167 -38 -69.5s-14 -58.333 -14 -93c0 -35.333 4.66699 -66.5 14 -93.5s22 -50 38 -69s34.5 -33.333 55.5 -43s43.5 -14.5 67.5 -14.5c28 0 51.833 4.66699 71.5 14s36.167 19.666 49.5 30.999c15.333 12.667 28.333 27.667 39 45z" />
    <glyph glyph-name="afii10036" unicode="&#x422;" 
d="M340 0h-160v560h-150v140h460v-140h-150v-560z" />
    <glyph glyph-name="afii10037" unicode="&#x423;" horiz-adv-x="560" 
d="M125 150h40.002c15.333 0 26.166 2.83301 32.499 8.5s12.166 16.167 17.499 31.5l-215 510h165l120 -310h10l100 310h165l-190 -540c-19.333 -55.333 -42.5 -95.833 -69.5 -121.5s-60.5 -38.5 -100.5 -38.5h-75v150z" />
    <glyph glyph-name="afii10038" unicode="&#x424;" horiz-adv-x="810" 
d="M780 355c0 -36 -6.66699 -69.667 -20 -101s-32.666 -58.333 -57.999 -81s-56.333 -40.5 -93 -53.5s-78 -19.5 -124 -19.5v-100h-160v100c-46 0 -87.333 6.5 -124 19.5s-67.667 30.833 -93 53.5s-44.666 49.667 -57.999 81s-20 65 -20 101s6.66699 69.667 20 101
s32.666 58.333 57.999 81s56.333 40.5 93 53.5s78 19.5 124 19.5v90h160v-90c46 0 87.333 -6.5 124 -19.5s67.667 -30.833 93 -53.5s44.666 -49.667 57.999 -81s20 -65 20 -101zM195 355c0 -38 11.667 -68.333 35 -91s55 -34 95 -34v250c-40 0 -71.667 -11.333 -95 -34
s-35 -53 -35 -91zM615 355c0 38 -11.667 68.333 -35 91s-55 34 -95 34v-250c40 0 71.667 11.333 95 34s35 53 35 91z" />
    <glyph glyph-name="afii10039" unicode="&#x425;" horiz-adv-x="580" 
d="M295 215h-10l-110 -215h-165l195 370l-175 330h165l90 -180h10l90 180h165l-175 -330l195 -370h-165z" />
    <glyph glyph-name="afii10040" unicode="&#x426;" horiz-adv-x="710" 
d="M230 140h220v560h160v-560h80v-270h-160v130h-460v700h160v-560z" />
    <glyph glyph-name="afii10041" unicode="&#x427;" horiz-adv-x="655" 
d="M225 430c0 -22.667 8.33301 -40.834 25 -54.501s45 -20.5 85 -20.5c15.333 0 28.5 0.5 39.5 1.5s20.167 2.16699 27.5 3.5c8.66699 1.33301 16.334 3 23.001 5v335h160v-700h-160v230c-6.66699 -2 -14.334 -3.66699 -23.001 -5c-7.33301 -1.33301 -16.5 -2.5 -27.5 -3.5
s-24.167 -1.5 -39.5 -1.5c-45.333 0 -85 5.5 -119 16.5s-62.667 26 -86 45s-40.833 41.333 -52.5 67s-17.5 52.834 -17.5 81.501v270h165v-270v0z" />
    <glyph glyph-name="afii10042" unicode="&#x428;" horiz-adv-x="920" 
d="M70 700h160v-560h150v560h160v-560h150v560h160v-700h-780v700z" />
    <glyph glyph-name="afii10043" unicode="&#x429;" horiz-adv-x="950" 
d="M70 700h160v-560h150v560h160v-560h150v560h160v-560h80v-270h-160v130h-700v700z" />
    <glyph glyph-name="afii10044" unicode="&#x42a;" horiz-adv-x="735" 
d="M10 700h290.003v-190l22 5c7.33301 1.33301 16.666 2.5 27.999 3.5s24.666 1.5 39.999 1.5c51.333 0 96.666 -6.5 135.999 -19.5s72.166 -31 98.499 -54s46.333 -50.5 60 -82.5s20.5 -66.667 20.5 -104s-6.66699 -72 -20 -104s-32.666 -59.5 -57.999 -82.5
s-56.333 -41 -93 -54s-78 -19.5 -124 -19.5h-270v560h-130v140zM300.003 130h109.998c40 0 71.667 11.667 95 35s35 55 35 95c0 38 -12.5 68.333 -37.5 91s-62.5 34 -112.5 34c-15.333 0 -28.666 -0.5 -39.999 -1.5s-20.666 -2.16699 -27.999 -3.5l-22 -5v-245z" />
    <glyph glyph-name="afii10045" unicode="&#x42b;" horiz-adv-x="940" 
d="M70 700h160.003v-190l22 5c7.33301 1.33301 16.666 2.5 27.999 3.5s24.666 1.5 39.999 1.5c51.333 0 96.666 -6.5 135.999 -19.5s72.166 -31 98.499 -54s46.333 -50.5 60 -82.5s20.5 -66.667 20.5 -104s-6.66699 -72 -20 -104s-32.666 -59.5 -57.999 -82.5
s-56.333 -41 -93 -54s-78 -19.5 -124 -19.5h-270v700zM710.003 700h160v-700h-160v700zM230.003 130h109.998c40 0 71.667 11.667 95 35s35 55 35 95c0 38 -12.5 68.333 -37.5 91s-62.5 34 -112.5 34c-15.333 0 -28.666 -0.5 -39.999 -1.5s-20.666 -2.16699 -27.999 -3.5
l-22 -5v-245z" />
    <glyph glyph-name="afii10046" unicode="&#x42c;" horiz-adv-x="675" 
d="M70 700l160.004 0.00195312v-190l22 5c7.33301 1.33301 16.666 2.5 27.999 3.5s24.666 1.5 39.999 1.5c52.667 0 99.167 -6.66699 139.5 -20s74.166 -31.833 101.499 -55.5s48.166 -51.334 62.499 -83.001s21.5 -65.5 21.5 -101.5s-7 -69.833 -21 -101.5
s-34.167 -59.334 -60.5 -83.001s-58.333 -42.167 -96 -55.5s-80.167 -20 -127.5 -20h-270v700zM230.004 130.002h109.998c42.667 0 76.667 12.167 102 36.5s38 55.5 38 93.5c0 35.333 -13.5 65 -40.5 89s-66.833 36 -119.5 36c-15.333 0 -28.666 -0.5 -39.999 -1.5
s-20.666 -2.16699 -27.999 -3.5l-22 -5v-245z" />
    <glyph glyph-name="afii10047" unicode="&#x42d;" horiz-adv-x="665" 
d="M125 220c10.667 -17.333 23.666 -32.335 38.999 -45.002c13.333 -11.333 29.833 -21.666 49.5 -30.999s43.5 -14 71.5 -14c18.667 0 35.334 2.33301 50.001 7s27.834 11 39.501 19s21.667 17.167 30 27.5s15.5 20.833 21.5 31.5c14 24.667 23.667 53 29 85h-225v140h215
c-8 24 -19 45.667 -33 65c-12 16 -28.333 30.833 -49 44.5s-46.667 20.5 -78 20.5c-25.333 0 -47.333 -4 -66 -12s-34.334 -16.667 -47.001 -26c-14.667 -11.333 -27 -23.666 -37 -36.999l-100 105c18 20 40 38.333 66 55c22 13.333 49.167 25.833 81.5 37.5
s69.833 17.5 112.5 17.5c44.667 0 87 -8.83301 127 -26.5s75 -42.5 105 -74.5s53.833 -70 71.5 -114s26.5 -92.333 26.5 -145s-8.83301 -101 -26.5 -145s-41.5 -82 -71.5 -114s-65 -56.833 -105 -74.5s-82.333 -26.5 -127 -26.5c-45.333 0 -85 6.5 -119 19.5
s-62.667 27.167 -86 42.5c-26.667 18 -50 39 -70 63z" />
    <glyph glyph-name="afii10048" unicode="&#x42e;" horiz-adv-x="960" 
d="M230 440l89.998 -0.00292969c9.33301 50 26 95 50 135c10 16.667 22.333 33.167 37 49.5s32 30.833 52 43.5s42.833 22.834 68.5 30.501s54.834 11.5 87.501 11.5c42.667 0 82.5 -8.16699 119.5 -24.5s69.167 -40 96.5 -71s49 -68.833 65 -113.5s24 -95 24 -151
s-8 -106.333 -24 -151s-37.667 -82.5 -65 -113.5s-59.5 -54.667 -96.5 -71s-76.833 -24.5 -119.5 -24.5c-35.333 0 -66.666 4.33301 -93.999 13s-51.5 20.334 -72.5 35.001s-39 31.334 -54 50.001s-27.5 37.667 -37.5 57c-24 45.333 -39.667 97 -47 155h-80v-300h-160v700
h160v-260zM474.998 349.997c0 -38.667 3.83301 -71.834 11.5 -99.501s17.834 -50.5 30.501 -68.5s27.5 -31.167 44.5 -39.5s34.833 -12.5 53.5 -12.5s36.5 4.16699 53.5 12.5s31.833 21.5 44.5 39.5s22.834 40.833 30.501 68.5s11.5 60.834 11.5 99.501
s-3.83301 71.834 -11.5 99.501s-17.834 50.5 -30.501 68.5s-27.5 31.167 -44.5 39.5s-34.833 12.5 -53.5 12.5s-36.5 -4.16699 -53.5 -12.5s-31.833 -21.5 -44.5 -39.5s-22.834 -40.833 -30.501 -68.5s-11.5 -60.834 -11.5 -99.501z" />
    <glyph glyph-name="afii10049" unicode="&#x42f;" horiz-adv-x="675" 
d="M605 0h-160.001v200h-115l-105 -200h-175l125 225v10c-25.333 12 -48 28 -68 48c-17.333 17.333 -32.833 39.833 -46.5 67.5s-20.5 62.5 -20.5 104.5c0 36 6.83301 69.667 20.5 101s34 58.333 61 81s60.333 40.5 100 53.5s85.834 19.5 138.501 19.5
c40 0 75.167 -1.33301 105.5 -4s55.833 -5.66699 76.5 -9c24 -3.33301 45 -7.33301 63 -12v-685zM204.999 455c0 -38 11.8301 -68.334 35.4971 -91.001s56.834 -34 99.501 -34h105v235l-20 5c-7.33301 1.33301 -16.166 2.5 -26.499 3.5s-23.166 1.5 -38.499 1.5
c-52.667 0 -91.667 -11.167 -117 -33.5s-38 -51.166 -38 -86.499z" />
    <glyph glyph-name="afii10065" unicode="&#x430;" 
d="M320 35c-8 -8.66699 -17.333 -16.3359 -28 -23.0029c-9.33301 -5.33301 -20.5 -10.333 -33.5 -15s-27.5 -7 -43.5 -7c-24 0 -47 5.5 -69 16.5s-41.667 27.333 -59 49s-31.166 48.334 -41.499 80.001s-15.5 68.167 -15.5 109.5s5.16699 77.833 15.5 109.5
s23.666 58.334 39.999 80.001s35 38 56 49s42.167 16.5 63.5 16.5c16 0 30.5 -2.5 43.5 -7.5s24.167 -10.167 33.5 -15.5c10.667 -6.66699 20 -14 28 -22h10v35h150v-320c0 -20 1 -40.167 3 -60.5s4.33301 -38.5 7 -54.5c2.66699 -19.333 6 -37.666 10 -54.999h-150l-10 35
h-10zM265 119.998c10 0 18.333 1.50098 25 4.50098s12.334 6.5 17.001 10.5c5.33301 4 9.66602 9 12.999 15v190c-3.33301 5.33301 -7.66602 10.333 -12.999 15c-4.66699 3.33301 -10.334 6.66602 -17.001 9.99902s-15 5 -25 5c-20 0 -38.333 -10.167 -55 -30.5
s-25 -51.833 -25 -94.5s8.33301 -74.167 25 -94.5s35 -30.5 55 -30.5z" />
    <glyph glyph-name="afii10066" unicode="&#x431;" horiz-adv-x="530" 
d="M185 235c0 -40 7.66699 -69.167 23 -87.5s34.333 -27.5 57 -27.5s41.667 9.16699 57 27.5s23 47.5 23 87.5s-7.66699 69.167 -23 87.5s-34.333 27.5 -57 27.5s-41.667 -9.16699 -57 -27.5s-23 -47.5 -23 -87.5zM155 400c7.33301 14.667 16.9951 28.001 28.9951 40.001
c10.667 10 24.167 19.167 40.5 27.5s36.5 12.5 60.5 12.5c27.333 0 54 -6.16699 80 -18.5s49 -29.5 69 -51.5s36 -48 48 -78s18 -62.333 18 -97c0 -35.333 -6.16699 -67.833 -18.5 -97.5s-29.166 -55.5 -50.499 -77.5s-46.166 -39.167 -74.499 -51.5
s-58.833 -18.5 -91.5 -18.5s-63.167 6.16699 -91.5 18.5s-53.166 29.833 -74.499 52.5s-38.166 49.667 -50.499 81s-18.5 65.666 -18.5 102.999v60c0 67.333 5.33301 123.833 16 169.5s27.334 83 50.001 112s51.334 51.167 86.001 66.5s75.667 26 123 32l155 20v-135
l-155 -20c-26 -3.33301 -48.167 -8.83301 -66.5 -16.5s-33.5 -17.667 -45.5 -30s-21.833 -27 -29.5 -44s-13.834 -36.833 -18.501 -59.5h10z" />
    <glyph glyph-name="afii10067" unicode="&#x432;" horiz-adv-x="480" 
d="M55 470c13.333 5.33301 28.668 10.333 46.001 15c15.333 3.33301 33.666 6.66602 54.999 9.99902s46 5 74 5c34 0 63.5 -3.83301 88.5 -11.5s45.667 -18 62 -31s28.666 -28.333 36.999 -46s12.5 -36.5 12.5 -56.5c0 -14 -2.66699 -26 -8 -36s-11 -18.333 -17 -25
c-7.33301 -7.33301 -15.666 -13.666 -24.999 -18.999v-10c14.667 -5.33301 28 -13 40 -23c10 -8.66699 19.167 -20 27.5 -34s12.5 -31.667 12.5 -53c0 -20 -4.5 -39.333 -13.5 -58s-21.833 -35.167 -38.5 -49.5s-36.667 -25.833 -60 -34.5s-49.333 -13 -78 -13h-215v470z
M260.002 120c12.667 0 23.334 4.33105 32.001 12.998s13 19.334 13 32.001s-4.33301 23.334 -13 32.001s-19.334 13 -32.001 13h-55v-90h55zM275.002 344.998c0 10 -3.49902 18.335 -10.499 25.002s-16.833 10 -29.5 10c-5.33301 0 -9.83301 -0.333008 -13.5 -1
s-6.83398 -1.33398 -9.50098 -2.00098s-5 -1.33398 -7 -2.00098v-65h35c10 0 18.333 3.33301 25 10s10 15 10 25z" />
    <glyph glyph-name="afii10068" unicode="&#x433;" horiz-adv-x="375" 
d="M55 490h310v-130h-160v-360h-150v490z" />
    <glyph glyph-name="afii10069" unicode="&#x434;" horiz-adv-x="540" 
d="M100 490h365v-360h65v-240h-140v110h-250v-110h-140v240h40c6 2.66699 11.333 6.66699 16 12c4 4.66699 7.83301 11.167 11.5 19.5s6.16699 19.5 7.5 33.5zM200 130l114.998 -0.000976562v230h-75l-15 -165c-1.33301 -14 -3.16602 -24.667 -5.49902 -32
s-5.16602 -12.666 -8.49902 -15.999c-3.33301 -4 -7 -6.33301 -11 -7v-10z" />
    <glyph glyph-name="afii10070" unicode="&#x435;" 
d="M175 210c2 -17.333 6.66699 -32.3359 14 -45.0029c6.66699 -11.333 16.667 -21.666 30 -30.999s32 -14 56 -14c15.333 0 27.833 2.5 37.5 7.5s17.834 10.833 24.501 17.5c7.33301 7.33301 13.333 15.666 18 24.999l110 -60c-13.333 -22.667 -29.666 -42.667 -48.999 -60
c-16.667 -15.333 -37.5 -29.166 -62.5 -41.499s-54.5 -18.5 -88.5 -18.5c-31.333 0 -61.166 6.5 -89.499 19.5s-53.333 30.833 -75 53.5s-38.834 49.667 -51.501 81s-19 65 -19 101s6.33301 69.667 19 101s29.834 58.333 51.501 81s46.667 40.5 75 53.5
s58.166 19.5 89.499 19.5c30 0 58.667 -6.33301 86 -19s51.166 -30.167 71.499 -52.5s36.666 -49.166 48.999 -80.499s18.5 -65.666 18.5 -102.999v-35h-315zM260 369.997c-15.333 0 -28.166 -3.16699 -38.499 -9.5s-18.5 -13.166 -24.5 -20.499
c-7.33301 -8.66699 -13 -18.667 -17 -30h160c-4.66699 11.333 -10.667 21.333 -18 30c-6.66699 7.33301 -14.834 14.166 -24.501 20.499s-22.167 9.5 -37.5 9.5z" />
    <glyph glyph-name="afii10072" unicode="&#x436;" horiz-adv-x="680" 
d="M435 220h-20v-220h-150v220h-20l-80 -220h-165l120 290l-100 200h160l60 -140h25v140h150v-140h25l60 140h160l-100 -200l120 -290h-165z" />
    <glyph glyph-name="afii10073" unicode="&#x437;" horiz-adv-x="460" 
d="M265 345c0 10 -3.50195 18.334 -10.502 25.001s-16.833 10 -29.5 10c-15.333 0 -28.833 -2.83301 -40.5 -8.5s-21.5 -12.167 -29.5 -19.5c-9.33301 -8 -17.666 -17 -24.999 -27l-95 75c12.667 18.667 28 35.334 46 50.001c15.333 12.667 35 24.167 59 34.5
s52.333 15.5 85 15.5s61.167 -3.83301 85.5 -11.5s44.666 -18 60.999 -31s28.5 -28.333 36.5 -46s12 -36.5 12 -56.5c0 -16.667 -3.16699 -30.334 -9.5 -41.001s-13.166 -19.334 -20.499 -26.001c-8.66699 -7.33301 -18.667 -13.333 -30 -18v-10
c12.667 -6.66699 24.334 -15 35.001 -25c8.66699 -9.33301 16.667 -20.833 24 -34.5s11 -30.5 11 -50.5c0 -21.333 -4.5 -41.666 -13.5 -60.999s-22.167 -36.333 -39.5 -51s-38.333 -26.334 -63 -35.001s-52.667 -13 -84 -13c-39.333 0 -72.166 5.66699 -98.499 17
s-47.833 24 -64.5 38c-19.333 16 -35 34.333 -47 55l95 75c5.33301 -12.667 12.666 -23.667 21.999 -33c8 -8 18.833 -15.333 32.5 -22s30.5 -10 50.5 -10c17.333 0 30.833 4.5 40.5 13.5s14.5 21.167 14.5 36.5s-4.83301 27.5 -14.5 36.5s-23.167 13.5 -40.5 13.5h-45v100
h55c10 0 18.333 3.33301 25 10s10 15 10 25z" />
    <glyph glyph-name="afii10074" unicode="&#x438;" horiz-adv-x="530" 
d="M55 0v490h150v-220h10l110 220h150v-490h-150v220h-10l-110 -220h-150z" />
    <glyph glyph-name="afii10075" unicode="&#x439;" horiz-adv-x="530" 
d="M55 0v490h150v-220h10l110 220h150v-490h-150v220h-10l-110 -220h-150zM265 575c-42.667 0 -76.8301 12.833 -102.497 38.5s-39.834 61.167 -42.501 106.5h95c2.66699 -20 8.5 -35 17.5 -45s19.833 -15 32.5 -15s23.5 5 32.5 15s14.833 25 17.5 45h95
c-2.66699 -45.333 -16.834 -80.833 -42.501 -106.5s-59.834 -38.5 -102.501 -38.5z" />
    <glyph glyph-name="afii10076" unicode="&#x43a;" horiz-adv-x="500" 
d="M235 220h-30v-220h-150v490h150v-140h35l80 140h160l-120 -200l140 -290h-165z" />
    <glyph glyph-name="afii10077" unicode="&#x43b;" horiz-adv-x="530" 
d="M110 490l364.999 -0.000976562v-490h-150v360h-75l-20 -220c-4 -45.333 -20.333 -81.666 -49 -108.999s-65.667 -41 -111 -41h-60v125h15c20 0 34.333 4.83301 43 14.5s14.334 28.167 17.001 55.5z" />
    <glyph glyph-name="afii10078" unicode="&#x43c;" horiz-adv-x="600" 
d="M545 0h-150v250h-10l-55 -90h-60l-55 90h-10v-250h-150v490h140l100 -160h10l100 160h140v-490z" />
    <glyph glyph-name="afii10079" unicode="&#x43d;" 
d="M465 0h-150v220h-110v-220h-150v490h150v-140h110v140h150v-490z" />
    <glyph glyph-name="afii10080" unicode="&#x43e;" horiz-adv-x="530" 
d="M30 245c0 36 6.33301 69.667 19 101s29.834 58.333 51.501 81s46.667 40.5 75 53.5s58.166 19.5 89.499 19.5s61.166 -6.5 89.499 -19.5s53.333 -30.833 75 -53.5s38.834 -49.667 51.501 -81s19 -65 19 -101s-6.33301 -69.667 -19 -101s-29.834 -58.333 -51.501 -81
s-46.667 -40.5 -75 -53.5s-58.166 -19.5 -89.499 -19.5s-61.166 6.5 -89.499 19.5s-53.333 30.833 -75 53.5s-38.834 49.667 -51.501 81s-19 65 -19 101zM185 245c0 -42.667 8.33301 -74.167 25 -94.5s35 -30.5 55 -30.5s38.333 10.167 55 30.5s25 51.833 25 94.5
s-8.33301 74.167 -25 94.5s-35 30.5 -55 30.5s-38.333 -10.167 -55 -30.5s-25 -51.833 -25 -94.5z" />
    <glyph glyph-name="afii10081" unicode="&#x43f;" 
d="M465 0h-150v360h-110v-360h-150v490h410v-490z" />
    <glyph glyph-name="afii10082" unicode="&#x440;" horiz-adv-x="525" 
d="M205 455l10 0.000976562c8 8 17.333 15.333 28 22c9.33301 5.33301 20.333 10.5 33 15.5s27.334 7.5 44.001 7.5c21.333 0 42.5 -5.5 63.5 -16.5s39.667 -27.333 56 -49s29.666 -48.334 39.999 -80.001s15.5 -68.167 15.5 -109.5s-5.16699 -77.833 -15.5 -109.5
s-23.666 -58.334 -39.999 -80.001s-35 -38 -56 -49s-42.167 -16.5 -63.5 -16.5c-16.667 0 -31.334 2.33301 -44.001 7s-23.667 9.66699 -33 15c-10.667 6.66699 -20 14.334 -28 23.001h-10v-165h-150v620h150v-35zM205 150.001c2.66699 -6 6.66699 -11.001 12 -15.001
c4.66699 -4 10.5 -7.5 17.5 -10.5s15.5 -4.5 25.5 -4.5c20 0 38.333 10.167 55 30.5s25 51.833 25 94.5s-8.33301 74.167 -25 94.5s-35 30.5 -55 30.5c-10 0 -18.5 -1.66699 -25.5 -5s-12.833 -6.66602 -17.5 -9.99902c-5.33301 -4.66699 -9.33301 -9.66699 -12 -15v-190z
" />
    <glyph glyph-name="afii10083" unicode="&#x441;" horiz-adv-x="480" 
d="M465 100c-12 -20.667 -27.334 -38.999 -46.001 -54.999c-16 -14 -36.667 -26.667 -62 -38s-56 -17 -92 -17c-31.333 0 -61.166 6.5 -89.499 19.5s-53.333 30.833 -75 53.5s-38.834 49.667 -51.501 81s-19 65 -19 101s6.33301 69.667 19 101s29.834 58.333 51.501 81
s46.667 40.5 75 53.5s58.166 19.5 89.499 19.5c34 0 63.167 -5.16699 87.5 -15.5s44.5 -21.833 60.5 -34.5c18.667 -14.667 34.334 -31.334 47.001 -50.001l-105 -85c-5.33301 10 -11.666 19 -18.999 27c-6.66699 7.33301 -15.167 13.833 -25.5 19.5
s-22.166 8.5 -35.499 8.5c-25.333 0 -46.666 -10.167 -63.999 -30.5s-26 -51.833 -26 -94.5s8.66699 -74.167 26 -94.5s38.666 -30.5 63.999 -30.5c15.333 0 28.166 3.33301 38.499 10s19.166 14 26.499 22c8 9.33301 14.667 20.333 20 33z" />
    <glyph glyph-name="afii10084" unicode="&#x442;" horiz-adv-x="430" 
d="M10 490h410v-130h-130v-360h-150v360h-130v130z" />
    <glyph glyph-name="afii10085" unicode="&#x443;" horiz-adv-x="470" 
d="M235 245l10 0.000976562l65 245h160l-145 -430c-12 -35.333 -24.167 -65 -36.5 -89s-25.833 -43.5 -40.5 -58.5s-31.167 -25.833 -49.5 -32.5s-39.5 -10 -63.5 -10h-60v125h35c10 0 17.833 2.5 23.5 7.5s10.167 10.833 13.5 17.5c3.33301 7.33301 6 15.666 8 24.999v10
l-155 435h155z" />
    <glyph glyph-name="afii10086" unicode="&#x444;" horiz-adv-x="700" 
d="M425 -130h-150v130c-34 0 -65.833 6.5 -95.5 19.5s-55.5 30.5 -77.5 52.5s-39.5 47.833 -52.5 77.5s-19.5 61.5 -19.5 95.5s6.5 65.833 19.5 95.5s30.5 55.5 52.5 77.5s47.833 39.5 77.5 52.5s61.5 19.5 95.5 19.5v120h150v-120c34 0 65.833 -6.5 95.5 -19.5
s55.5 -30.5 77.5 -52.5s39.5 -47.833 52.5 -77.5s19.5 -61.5 19.5 -95.5s-6.5 -65.833 -19.5 -95.5s-30.5 -55.5 -52.5 -77.5s-47.833 -39.5 -77.5 -52.5s-61.5 -19.5 -95.5 -19.5v-130zM515 245c0 38 -8.66699 66.667 -26 86s-38.666 29 -63.999 29v-230
c25.333 0 46.666 9.66699 63.999 29s26 48 26 86zM275 360c-25.333 0 -46.666 -9.66699 -63.999 -29s-26 -48 -26 -86s8.66699 -66.667 26 -86s38.666 -29 63.999 -29v230z" />
    <glyph glyph-name="afii10087" unicode="&#x445;" horiz-adv-x="470" 
d="M-10 0l155 255l-135 235h160l60 -115h10l60 115h160l-135 -235l155 -255h-170l-70 135h-10l-70 -135h-170z" />
    <glyph glyph-name="afii10088" unicode="&#x446;" horiz-adv-x="540" 
d="M55 490h150v-360h110v360h150v-360h65v-240h-140v110h-335v490z" />
    <glyph glyph-name="afii10089" unicode="&#x447;" horiz-adv-x="500" 
d="M195 320c0 -17.333 5.66797 -31.667 17.001 -43s25.666 -17 42.999 -17c6 0 11.5 0.166992 16.5 0.5s9.16699 0.833008 12.5 1.5c4 0.666992 7.66699 1.66699 11 3v225h150v-490h-150v150h-10c-8 -4 -17.333 -7.33301 -28 -10c-9.33301 -2.66699 -20.5 -5 -33.5 -7
s-27.5 -3 -43.5 -3c-40 0 -72.5 12.667 -97.5 38s-37.5 59.333 -37.5 102v220h150v-170z" />
    <glyph glyph-name="afii10090" unicode="&#x448;" horiz-adv-x="720" 
d="M55 490h150v-360h80v360h150v-360h80v360h150v-490h-610v490z" />
    <glyph glyph-name="afii10091" unicode="&#x449;" horiz-adv-x="740" 
d="M55 490h150v-360h80v360h150v-360h80v360h150v-360h65v-240h-140v110h-535v490z" />
    <glyph glyph-name="afii10092" unicode="&#x44a;" horiz-adv-x="530" 
d="M10 490l245 -0.00390625v-135c4 0.666992 8.66699 1.33398 14 2.00098c4.66699 0.666992 10 1.33398 16 2.00098s12.667 1 20 1c31.333 0 59.666 -4.66699 84.999 -14s46.833 -22.166 64.5 -38.499s31.334 -35.5 41.001 -57.5s14.5 -45.333 14.5 -70
c0 -25.333 -4.83301 -48.833 -14.5 -70.5s-23.334 -40.667 -41.001 -57s-39.167 -29.166 -64.5 -38.499s-53.666 -14 -84.999 -14h-200v360h-95v130zM295 239.996c-6.66699 0 -12.333 -0.329102 -17 -0.996094s-8.66699 -1.33398 -12 -2.00098
c-4 -0.666992 -7.66699 -1.33398 -11 -2.00098v-115h40c17.333 0 31.666 5.66699 42.999 17s17 25.666 17 42.999s-5.66699 31.666 -17 42.999s-25.666 17 -42.999 17z" />
    <glyph glyph-name="afii10093" unicode="&#x44b;" horiz-adv-x="720" 
d="M55 490l150 -0.00390625v-135c4 0.666992 8.66699 1.33398 14 2.00098c4.66699 0.666992 10 1.33398 16 2.00098s12.667 1 20 1c31.333 0 59.666 -4.66699 84.999 -14s46.833 -22.166 64.5 -38.499s31.334 -35.5 41.001 -57.5s14.5 -45.333 14.5 -70
c0 -25.333 -4.83301 -48.833 -14.5 -70.5s-23.334 -40.667 -41.001 -57s-39.167 -29.166 -64.5 -38.499s-53.666 -14 -84.999 -14h-200v490zM665 -0.00390625h-150v490h150v-490zM245 239.996c-6.66699 0 -12.333 -0.329102 -17 -0.996094s-8.66699 -1.33398 -12 -2.00098
c-4 -0.666992 -7.66699 -1.33398 -11 -2.00098v-115h40c17.333 0 31.666 5.66699 42.999 17s17 25.666 17 42.999s-5.66699 31.666 -17 42.999s-25.666 17 -42.999 17z" />
    <glyph glyph-name="afii10094" unicode="&#x44c;" horiz-adv-x="480" 
d="M55 490l150 -0.00390625v-135c4 0.666992 8.66699 1.33398 14 2.00098c4.66699 0.666992 10 1.33398 16 2.00098s12.667 1 20 1c31.333 0 59.666 -4.66699 84.999 -14s46.833 -22.166 64.5 -38.499s31.334 -35.5 41.001 -57.5s14.5 -45.333 14.5 -70
c0 -25.333 -4.83301 -48.833 -14.5 -70.5s-23.334 -40.667 -41.001 -57s-39.167 -29.166 -64.5 -38.499s-53.666 -14 -84.999 -14h-200v490zM305 179.996c0 17.333 -5.66602 31.6699 -16.999 43.0029s-25.666 17 -42.999 17c-6.66699 0 -12.334 -0.333008 -17.001 -1
s-8.66699 -1.33398 -12 -2.00098c-4 -0.666992 -7.66699 -1.33398 -11 -2.00098v-115h40c17.333 0 31.666 5.66699 42.999 17s17 25.666 17 42.999z" />
    <glyph glyph-name="afii10095" unicode="&#x44d;" horiz-adv-x="485" 
d="M125 185c5.33301 -12.667 12.001 -23.667 20.001 -33c7.33301 -8 16.166 -15.333 26.499 -22s23.166 -10 38.499 -10c17.333 0 31.666 3.5 42.999 10.5s20.666 15.167 27.999 24.5c8 10 14.333 21.667 19 35h-125v120h125c-6 11.333 -13 21.333 -21 30
c-7.33301 7.33301 -16.666 14.166 -27.999 20.499s-25 9.5 -41 9.5c-14 0 -26 -2.83301 -36 -8.5s-18.333 -12.167 -25 -19.5c-7.33301 -8 -13.666 -17 -18.999 -27l-105 85c12.667 18.667 28.334 35.334 47.001 50.001c16 12.667 36.167 24.167 60.5 34.5
s53.5 15.5 87.5 15.5c31.333 0 61.166 -6.5 89.499 -19.5s53.333 -30.833 75 -53.5s38.834 -49.667 51.501 -81s19 -65 19 -101s-6.33301 -69.667 -19 -101s-29.834 -58.333 -51.501 -81s-46.667 -40.5 -75 -53.5s-58.166 -19.5 -89.499 -19.5
c-36.667 0 -67.5 5.66699 -92.5 17s-45.5 24 -61.5 38c-18.667 16 -34 34.333 -46 55z" />
    <glyph glyph-name="afii10096" unicode="&#x44e;" horiz-adv-x="735" 
d="M205 320l60.001 -0.00292969c10 33.333 24.667 63.333 44 90c8 11.333 17.5 22.333 28.5 33s23.5 20.334 37.5 29.001s29.667 15.5 47 20.5s36.666 7.5 57.999 7.5c30 0 58.667 -6.33301 86 -19s51.166 -30.167 71.499 -52.5s36.666 -49.166 48.999 -80.499
s18.5 -65.666 18.5 -102.999s-6.16699 -71.666 -18.5 -102.999s-28.666 -58.333 -48.999 -81s-44.166 -40.167 -71.499 -52.5s-56 -18.5 -86 -18.5c-22.667 0 -43.167 2.83301 -61.5 8.5s-34.833 13.167 -49.5 22.5s-27.5 20 -38.5 32s-20.5 24.333 -28.5 37
c-19.333 29.333 -33.333 62.666 -42 99.999h-55v-190h-150v490h150v-170zM410.001 244.997c0 -22.667 2 -41.834 6 -57.501s9.33301 -28.5 16 -38.5s14.167 -17.333 22.5 -22s16.833 -7 25.5 -7s17.167 2.33301 25.5 7s15.833 12 22.5 22s12 22.833 16 38.5
s6 34.834 6 57.501s-2 41.834 -6 57.501s-9.33301 28.5 -16 38.5s-14.167 17.333 -22.5 22s-16.833 7 -25.5 7s-17.167 -2.33301 -25.5 -7s-15.833 -12 -22.5 -22s-12 -22.833 -16 -38.5s-6 -34.834 -6 -57.501z" />
    <glyph glyph-name="afii10097" unicode="&#x44f;" horiz-adv-x="505" 
d="M120 185l0.000976562 9.99902c-16.667 6.66699 -31 16 -43 28c-10.667 10.667 -20.334 24.5 -29.001 41.5s-13 38.833 -13 65.5c0 24 4.5 46.333 13.5 67s22.333 38.667 40 54s39.167 27.333 64.5 36s54.333 13 87 13s62 -1.66699 88 -5s48 -6.66602 66 -9.99902
c21.333 -4.66699 40 -9.66699 56 -15v-470h-150v170h-35l-75 -170h-170zM300.001 374.999c-3.33301 0.666992 -7.33301 1.33203 -12 1.99902c-4 0.666992 -9.16699 1.33398 -15.5 2.00098s-13.833 1 -22.5 1c-20 0 -35 -4.5 -45 -13.5s-15 -21.167 -15 -36.5
s4.5 -27.5 13.5 -36.5s21.167 -13.5 36.5 -13.5h60v95z" />
    <glyph glyph-name="afii10071" unicode="&#x451;" 
d="M175 210c2 -17.333 6.66699 -32.3359 14 -45.0029c6.66699 -11.333 16.667 -21.666 30 -30.999s32 -14 56 -14c15.333 0 27.833 2.5 37.5 7.5s17.834 10.833 24.501 17.5c7.33301 7.33301 13.333 15.666 18 24.999l110 -60c-13.333 -22.667 -29.666 -42.667 -48.999 -60
c-16.667 -15.333 -37.5 -29.166 -62.5 -41.499s-54.5 -18.5 -88.5 -18.5c-31.333 0 -61.166 6.5 -89.499 19.5s-53.333 30.833 -75 53.5s-38.834 49.667 -51.501 81s-19 65 -19 101s6.33301 69.667 19 101s29.834 58.333 51.501 81s46.667 40.5 75 53.5
s58.166 19.5 89.499 19.5c30 0 58.667 -6.33301 86 -19s51.166 -30.167 71.499 -52.5s36.666 -49.166 48.999 -80.499s18.5 -65.666 18.5 -102.999v-35h-315zM260 369.997c-15.333 0 -28.166 -3.16699 -38.499 -9.5s-18.5 -13.166 -24.5 -20.499
c-7.33301 -8.66699 -13 -18.667 -17 -30h160c-4.66699 11.333 -10.667 21.333 -18 30c-6.66699 7.33301 -14.834 14.166 -24.501 20.499s-22.167 9.5 -37.5 9.5zM100 729.997h130v-140h-130v140zM290 729.997h130v-140h-130v140z" />
    <glyph glyph-name="afii10099" unicode="&#x452;" horiz-adv-x="530" 
d="M10 620l59.999 -0.00292969v80h150v-80h110v-110h-110v-95h10c8 8 17.333 15.333 28 22c9.33301 5.33301 20.333 10.5 33 15.5s27.334 7.5 44.001 7.5c42.667 0 77.5 -13.667 104.5 -41s40.5 -63.666 40.5 -108.999v-290c0 -45.333 -13.5 -81.666 -40.5 -108.999
s-61.833 -41 -104.5 -41h-60v125c17.333 0 30.833 5.33301 40.5 16s14.5 28.667 14.5 54v200c0 43.333 -18.333 65 -55 65c-10 0 -18.5 -1.66699 -25.5 -5s-12.833 -6.66602 -17.5 -9.99902c-5.33301 -4.66699 -9.33301 -9.66699 -12 -15v-300h-150v510h-60v110z" />
    <glyph glyph-name="afii10100" unicode="&#x453;" horiz-adv-x="375" 
d="M55 490h310v-130h-160v-360h-150v490zM205 730h160l-110 -140h-110z" />
    </font>
</defs>
</svg>
