<?xml version="1.0" standalone="no"?>
<!DOCTYPE svg PUBLIC "-//W3C//DTD SVG 1.1//EN" "http://www.w3.org/Graphics/SVG/1.1/DTD/svg11.dtd" >
<svg>
<metadata>
Created by FontForge 20090914 at Thu Sep  5 07:06:25 2019
 By www-data
Copyright &#195;&#130;&#194;&#169; 2014 by Ren&#195;&#131;&#194;&#169; Bieder. All rights reserved.
</metadata>
<defs>
<font id="Campton-Medium" horiz-adv-x="600" >
  <font-face 
    font-family="Campton Med"
    font-weight="500"
    font-stretch="normal"
    units-per-em="1000"
    panose-1="0 0 0 0 0 0 0 0 0 0"
    ascent="762"
    descent="-238"
    x-height="473"
    cap-height="680"
    bbox="-44 -248 1461 973.001"
    underline-thickness="50"
    underline-position="-100"
    unicode-range="U+0020-U+FB02"
  />
<missing-glyph horiz-adv-x="870" 
d="M770 680v-680h-670v680h670zM700 610h-481l481 -481v481zM170 70h477l-477 477v-477z" />
    <glyph glyph-name=".notdef" horiz-adv-x="870" 
d="M770 680v-680h-670v680h670zM700 610h-481l481 -481v481zM170 70h477l-477 477v-477z" />
    <glyph glyph-name="space" unicode=" " horiz-adv-x="263" 
 />
    <glyph glyph-name="exclam" unicode="!" horiz-adv-x="279" 
d="M191 210h-103l-9 470h121zM139 -9c-19.333 0 -36 6.66699 -50 20s-21 29.666 -21 48.999s7 35.666 21 48.999s30.667 20 50 20c20 0 37 -6.66699 51 -20s21 -29.666 21 -48.999s-7 -35.666 -21 -48.999s-31 -20 -51 -20z" />
    <glyph glyph-name="quotedbl" unicode="&#x22;" horiz-adv-x="331" 
d="M138 680v-276h-98v276h98zM291 680v-276h-98v276h98z" />
    <glyph glyph-name="numbersign" unicode="#" horiz-adv-x="761" 
d="M559 276h115v-104h-148l-54 -172h-119l54 172h-156l-54 -172h-119l54 172h-99v104h131l35 112h-111v104h144l59 189h119l-59 -189h156l59 189h119l-59 -189h103v-104h-135zM319 388l-35 -112h155l35 112h-155z" />
    <glyph glyph-name="dollar" unicode="$" horiz-adv-x="668" 
d="M317 402l86.001 -17c69.333 -14 120.666 -35.833 153.999 -65.5s50 -70.167 50 -121.5c0 -56 -19 -102.667 -57 -140s-89 -60.333 -153 -69v-109h-104v109c-70 8.66699 -126.333 33.334 -169 74.001s-66.667 93.667 -72 159h119c6 -40 25 -71.667 57 -95s73 -35 123 -35
c41.333 0 73.833 8.16699 97.5 24.5s35.5 38.833 35.5 67.5c0 43.333 -33.333 71.333 -100 84l-112 22c-128 25.333 -192 89.666 -192 192.999c0 57.333 19.167 104.833 57.5 142.5s90.166 60.167 155.499 67.5v110h104v-113c60 -8.66699 109 -30.667 147 -66
s60 -83.666 66 -144.999h-119c-12 75.333 -61.667 113 -149 113c-41.333 0 -74.333 -8.83301 -99 -26.5s-37 -41.834 -37 -72.501c0 -24.667 8.83301 -44 26.5 -58s45.834 -25 84.501 -33z" />
    <glyph glyph-name="percent" unicode="%" horiz-adv-x="1086" 
d="M474 502c0 -57.333 -18.667 -104.667 -56 -142c-37.333 -36 -84 -54 -140 -54c-57.333 0 -104.333 18 -141 54c-37.333 36 -56 83.333 -56 142c0 56.667 18.667 103 56 139c38 36 85 54 141 54s102.667 -18 140 -54s56 -82.333 56 -139zM346 -0.000976562h-81l462 680h81
zM278 388.999c30.667 0 56.5 10.5 77.5 31.5s31.5 48.167 31.5 81.5c0 32 -10.5 58.333 -31.5 79s-46.833 31 -77.5 31s-56.667 -10.5 -78 -31.5s-32 -47.167 -32 -78.5c0 -33.333 10.333 -60.5 31 -81.5s47 -31.5 79 -31.5zM1004 179.999c0 -58 -18.667 -105 -56 -141
s-84.333 -54 -141 -54s-103.334 18 -140.001 54c-37.333 37.333 -56 84.333 -56 141s18.667 103 56 139c36.667 36.667 83.334 55 140.001 55c55.333 0 102 -18.333 140 -55s57 -83 57 -139zM807 67.999c31.333 0 57.5 10.5 78.5 31.5s31.5 47.833 31.5 80.5
c0 32 -10.5 58.5 -31.5 79.5s-47.167 31.5 -78.5 31.5c-30.667 0 -56.5 -10.5 -77.5 -31.5s-31.5 -47.5 -31.5 -79.5s10.5 -58.667 31.5 -80s46.833 -32 77.5 -32z" />
    <glyph glyph-name="ampersand" unicode="&#x26;" horiz-adv-x="723" 
d="M553 0l-64.999 59.998c-57.333 -49.333 -124.333 -74 -201 -74c-76 0 -136.667 19.333 -182 58c-46 39.333 -69 90 -69 152c0 40 10.667 75.833 32 107.5s51 56.834 89 75.501c-33.333 42.667 -50 84.334 -50 125.001c0 56 20 101.667 60 137
c40.667 36 91.334 54 152.001 54c57.333 0 104.666 -17.5 141.999 -52.5s59.666 -82.833 66.999 -143.5h-116c-4 29.333 -14.333 52.166 -31 68.499s-37.667 24.5 -63 24.5c-26 0 -47.667 -8.33301 -65 -25s-26 -38 -26 -64s9.66699 -51.333 29 -76
c17.333 -21.333 55 -58.666 113 -111.999l113 -106l90 139h121l-128 -198l-8 -12l148 -138h-152zM287.001 87.998c42.667 0 84.333 14.335 125 43.002l-145 135l-40 38c-52.667 -24.667 -79 -60.334 -79 -107.001c0 -30.667 13.333 -56.334 40 -77.001
c27.333 -21.333 60.333 -32 99 -32z" />
    <glyph glyph-name="quotesingle" unicode="'" horiz-adv-x="178" 
d="M138 680v-276h-98v276h98z" />
    <glyph glyph-name="parenleft" unicode="(" horiz-adv-x="363" 
d="M264 736l75.001 -75c-56.667 -58 -98.334 -114 -125.001 -168c-26.667 -53.333 -40 -117 -40 -191s13.333 -138 40 -192c26 -52.667 67.667 -108.334 125 -167.001l-75 -75c-138.667 118.667 -208 263.334 -208 434.001c0 169.333 69.333 314 208 434z" />
    <glyph glyph-name="parenright" unicode=")" horiz-adv-x="363" 
d="M24 661l74.999 74.999c138.667 -118.667 208 -263.334 208 -434.001c0 -171.333 -69.333 -316 -208 -434l-75 75c56 56.667 97.333 112.334 124 167.001c27.333 56 41 120 41 192c0 72.667 -13.667 136.334 -41 191.001c-27.333 56 -68.666 112 -123.999 168z" />
    <glyph glyph-name="asterisk" unicode="*" horiz-adv-x="407" 
d="M364 467l-32 -57l-95 58v-101h-67v101l-95 -58l-32 57l98 59l-98 59l32 58l95 -58v100h67v-100l95 58l32 -58l-98 -59z" />
    <glyph glyph-name="plus" unicode="+" horiz-adv-x="685" 
d="M398 277v-177h-110v177h-184v106h184v177h110v-177h184v-106h-184z" />
    <glyph glyph-name="comma" unicode="," horiz-adv-x="212" 
d="M33 -115l48 109c-28.667 12 -43 31.333 -43 58c0 18.667 6.83301 34.5 20.5 47.5s30.167 19.5 49.5 19.5c20 0 36.833 -6.5 50.5 -19.5s20.5 -28.833 20.5 -47.5c0 -14 -7.66699 -35.667 -23 -65l-54 -102h-69z" />
    <glyph glyph-name="hyphen" unicode="-" horiz-adv-x="553" 
d="M448 320v-115h-344v115h344z" />
    <glyph glyph-name="period" unicode="." horiz-adv-x="209" 
d="M33 52c0 19.333 6.83301 35.5 20.5 48.5s30.5 19.5 50.5 19.5s37 -6.5 51 -19.5s21 -29.167 21 -48.5c0 -20 -7 -36.5 -21 -49.5s-31 -19.5 -51 -19.5s-36.833 6.5 -50.5 19.5s-20.5 29.5 -20.5 49.5z" />
    <glyph glyph-name="slash" unicode="/" horiz-adv-x="405" 
d="M157 -160h-111l254 890h111z" />
    <glyph glyph-name="zero" unicode="0" horiz-adv-x="719" 
d="M360 695c93.333 0 167 -33 221 -99s81 -151.333 81 -256s-27 -190 -81 -256s-127.667 -99 -221 -99s-167.666 33 -222.999 99c-54 66 -81 151.333 -81 256s27 190 81 256c55.333 66 129.666 99 222.999 99zM224 162c32 -46 77.333 -69 136 -69s103.667 23 135 69
c31.333 46.667 47 106 47 178s-15.667 131.333 -47 178c-31.333 46 -76.333 69 -135 69s-104 -23 -136 -69c-31.333 -46.667 -47 -106 -47 -178s15.667 -131.333 47 -178z" />
    <glyph glyph-name="one" unicode="1" horiz-adv-x="516" 
d="M509 98v-98h-467v98h179v454l-170 -54v102l222 80h68v-582h168z" />
    <glyph glyph-name="two" unicode="2" horiz-adv-x="560" 
d="M510 98v-97.998h-456v62l211 249c14 16.667 23 27 27 31l26 30c18.667 20.667 31.667 37.667 39 51c16.667 28.667 25 52 25 70c0 28 -9.5 51.5 -28.5 70.5s-45.833 28.5 -80.5 28.5c-34 0 -61.5 -10.167 -82.5 -30.5s-33.167 -47.833 -36.5 -82.5h-119
c2 65.333 23.667 117.666 65 156.999s97.333 59 168 59c71.333 0 128.333 -19.667 171 -59c42 -38.667 63 -86.667 63 -144c0 -34.667 -12.333 -70.334 -37 -107.001c-17.333 -26 -30.333 -44 -39 -54l-60 -70l-140 -163h284z" />
    <glyph glyph-name="three" unicode="3" horiz-adv-x="561" 
d="M427 343c64.667 -30.667 97.0029 -82 97.0029 -154c0 -58 -22 -106.667 -66 -146c-42.667 -38 -99.334 -57 -170.001 -57c-71.333 0 -128 17 -170 51s-67.667 82.333 -77 145h117c14.667 -62.667 58 -94 130 -94c36.667 0 66.5 9.5 89.5 28.5s34.5 43.167 34.5 72.5
c0 30.667 -12.333 55.167 -37 73.5s-57 27.5 -97 27.5h-53v97h53c33.333 0 60.166 9.33301 80.499 28s30.5 43 30.5 73c0 30.667 -9.66699 55.167 -29 73.5s-45 27.5 -77 27.5c-30 0 -55 -8.5 -75 -25.5s-31.333 -39.5 -34 -67.5h-117c4.66699 58.667 27.667 106 69 142
s93.666 54 156.999 54c65.333 0 118 -19 158 -57s60 -86.667 60 -146c0 -64 -24.667 -112.667 -74 -146z" />
    <glyph glyph-name="four" unicode="4" horiz-adv-x="639" 
d="M598 138h-94v-138h-116v138h-352v74l195 468h121l-178 -440h214v203h116v-203h94v-102z" />
    <glyph glyph-name="five" unicode="5" horiz-adv-x="590" 
d="M201 433l100 -0.000976562c69.333 0 126 -20.333 170 -61c44 -41.333 66 -93 66 -155c0 -66.667 -22.667 -122 -68 -166c-44.667 -44 -103.334 -66 -176.001 -66c-70.667 0 -128.167 17.833 -172.5 53.5s-71.5 84.834 -81.5 147.501h117
c18.667 -66 64.334 -99 137.001 -99c38 0 69.5 12 94.5 36s37.5 54 37.5 90c0 34.667 -12.667 63 -38 85s-59 33 -101 33h-195v349h416v-107h-305z" />
    <glyph glyph-name="six" unicode="6" horiz-adv-x="617" 
d="M296 463h13.001c76 0 138.333 -22.333 187 -67s73 -101 73 -169c0 -69.333 -24.667 -127 -74 -173c-48.667 -46 -110.667 -69 -186 -69c-76.667 0 -139.334 23 -188.001 69s-73 102.667 -73 170c0 49.333 20.333 105.333 61 168l188 288h139zM309.001 81
c41.333 0 75.667 13.666 103 40.999s41 60 41 98s-13.667 70.667 -41 98c-26.667 26.667 -61 40 -103 40c-40 0 -73.667 -10.667 -101 -32l-1 -1c-29.333 -41.333 -44 -76.666 -44 -105.999c0 -38 13.667 -70.667 41 -98c27.333 -26.667 62.333 -40 105 -40z" />
    <glyph glyph-name="seven" unicode="7" horiz-adv-x="504" 
d="M484 680v-72l-285 -608h-132l267 568h-323v112h473z" />
    <glyph glyph-name="eight" unicode="8" horiz-adv-x="626" 
d="M465 358c75.333 -35.333 113 -91 113 -167c0 -61.333 -24 -111 -72 -149s-112.667 -57 -194 -57c-80.667 0 -145 19 -193 57c-47.333 38 -71 87.667 -71 149c0 76.667 37.667 132.667 113 168c-57.333 32 -86 80 -86 144c0 56 22 102 66 138c44.667 36 101.667 54 171 54
c70 0 127 -18 171 -54c44.667 -36 67 -82 67 -138c0 -64 -28.333 -112.333 -85 -145zM399 571c-23.333 20 -52.333 30 -87 30s-63.667 -10 -87 -30c-22 -20 -33 -45 -33 -75s11 -55 33 -75c23.333 -20 52.333 -30 87 -30s63.667 10 87 30c22.667 20 34 45 34 75
s-11.333 55 -34 75zM447 199c0 31.333 -12.667 57.5 -38 78.5s-57.666 31.5 -96.999 31.5s-71.333 -10.333 -96 -31s-37 -47 -37 -79c0 -32.667 12.333 -60 37 -82s56.667 -33 96 -33s71.666 11 96.999 33s38 49.333 38 82z" />
    <glyph glyph-name="nine" unicode="9" horiz-adv-x="617" 
d="M308 695c76 0 138.333 -23 187 -69c49.333 -46 74 -102.667 74 -170c0 -49.333 -20.333 -105.333 -61 -168l-188 -288h-139l140 217h-13c-76 0 -138.333 22.333 -187 67s-73 101 -73 169c0 69.333 24.333 127 73 173s111 69 187 69zM409 354l0.998047 1.00195
c29.333 41.333 44 76.666 44 105.999c0 38 -14 70.333 -42 97c-27.333 27.333 -62 41 -104 41c-41.333 0 -75.666 -13.667 -102.999 -41s-41 -60 -41 -98c0 -38.667 13.333 -71.334 40 -98.001s61.334 -40 104.001 -40c40 0 73.667 10.667 101 32z" />
    <glyph glyph-name="colon" unicode=":" horiz-adv-x="209" 
d="M33 419c0 19.333 6.83301 35.5 20.5 48.5s30.5 19.5 50.5 19.5s37 -6.5 51 -19.5s21 -29.167 21 -48.5c0 -20 -7 -36.5 -21 -49.5s-31 -19.5 -51 -19.5s-36.833 6.5 -50.5 19.5s-20.5 29.5 -20.5 49.5zM33 52c0 19.333 6.83301 35.5 20.5 48.5s30.5 19.5 50.5 19.5
s37 -6.5 51 -19.5s21 -29.167 21 -48.5c0 -20 -7 -36.5 -21 -49.5s-31 -19.5 -51 -19.5s-36.833 6.5 -50.5 19.5s-20.5 29.5 -20.5 49.5z" />
    <glyph glyph-name="semicolon" unicode=";" horiz-adv-x="210" 
d="M30 -115l48 109.001c-28.667 12 -43 31.333 -43 58c0 18.667 7 34.5 21 47.5s30.667 19.5 50 19.5s36 -6.5 50 -19.5s21 -28.833 21 -47.5c0 -12.667 -8 -34.334 -24 -65.001l-54 -102h-69zM34 419.001c0 19.333 6.83301 35.5 20.5 48.5s30.5 19.5 50.5 19.5
s37 -6.5 51 -19.5s21 -29.167 21 -48.5c0 -20 -7 -36.5 -21 -49.5s-31 -19.5 -51 -19.5s-36.833 6.5 -50.5 19.5s-20.5 29.5 -20.5 49.5z" />
    <glyph glyph-name="less" unicode="&#x3c;" horiz-adv-x="545" 
d="M473 555v-115l-294 -135l294 -135v-116l-422 193v115z" />
    <glyph glyph-name="equal" unicode="=" horiz-adv-x="691" 
d="M586 369h-482v107h482v-107zM586 171h-482v106h482v-106z" />
    <glyph glyph-name="greater" unicode="&#x3e;" horiz-adv-x="545" 
d="M493 247l-422 -193v116l294 135l-294 135v115l422 -193v-115z" />
    <glyph glyph-name="question" unicode="?" horiz-adv-x="534" 
d="M192 207l-9 155h65c36 0 65.667 10.5 89 31.5s35 48.5 35 82.5c0 33.333 -10.5 60.5 -31.5 81.5s-48.5 31.5 -82.5 31.5c-30 0 -55.5 -8.33301 -76.5 -25s-33.5 -39 -37.5 -67h-116c5.33301 60 27.833 107.5 67.5 142.5s92.167 52.5 157.5 52.5c66 0 121 -20 165 -60
s66 -91.667 66 -155c0 -54 -17.667 -98.333 -53 -133s-83.333 -55 -144 -61l-5 -76h-90zM234 -9c-19.333 0 -36 6.66699 -50 20s-21 29.666 -21 48.999s7 35.666 21 48.999s30.667 20 50 20c20 0 37 -6.66699 51 -20s21 -29.666 21 -48.999s-7 -35.666 -21 -48.999
s-31 -20 -51 -20z" />
    <glyph glyph-name="at" unicode="@" horiz-adv-x="997" 
d="M701 433l0.00390625 -227c0 -60.667 21 -91 63 -91c56.667 0 85 43.667 85 131c0 97.333 -32.667 177.666 -98 240.999c-64.667 64 -146.667 96 -246 96s-183.333 -33.333 -252 -100c-68.667 -66 -103 -147 -103 -243s34 -177 102 -243
c69.333 -66 151.666 -99 246.999 -99c83.333 0 156.666 25 219.999 75l47 -71c-76.667 -56.667 -165.334 -85 -266.001 -85c-121.333 0 -224.333 40.333 -309 121s-127 181.334 -127 302.001c0 120 42.667 220.667 128 302s189.666 122 312.999 122
s225.333 -39.333 306 -118c81.333 -78 122 -177.333 122 -298c0 -68 -14.167 -121.5 -42.5 -160.5s-70.5 -58.5 -126.5 -58.5c-66.667 0 -113 22 -139 66c-36.667 -44 -86.667 -66 -150 -66c-56.667 0 -104.667 20 -144 60c-38 40 -57 89 -57 147c0 58.667 19 108 57 148
c39.333 40 87.333 60 144 60c46 0 87.333 -13.667 124 -41v30h102zM492.004 121c45.333 0 81.6689 20.668 109.002 62.001c-1.33301 13.333 -2 28.666 -2 45.999v63c-27.333 41.333 -63 62 -107 62c-30.667 0 -57.334 -11 -80.001 -33c-22.667 -20.667 -34 -48.667 -34 -84
c0 -34 11.167 -61.833 33.5 -83.5s49.166 -32.5 80.499 -32.5z" />
    <glyph glyph-name="A" unicode="A" horiz-adv-x="750" 
d="M538 151h-325l-63 -151h-129l299 684h112l297 -684h-127zM492 262l-117 276l-115 -276h232z" />
    <glyph glyph-name="B" unicode="B" horiz-adv-x="700" 
d="M519 352c42.667 -8 75.5 -26.9971 98.5 -56.9971s34.5 -66.333 34.5 -109c0 -56 -22.333 -101 -67 -135c-44 -34 -103.667 -51 -179 -51h-330v680h318c70 0 125.167 -15.833 165.5 -47.5s60.5 -74.834 60.5 -129.501c0 -34.667 -9.16699 -65.834 -27.5 -93.501
s-42.833 -46.834 -73.5 -57.501zM196 574.003v-181h181c41.333 0 73.333 8.33301 96 25s34 40 34 70c0 27.333 -10.833 48.5 -32.5 63.5s-53.167 22.5 -94.5 22.5h-184zM196 106.003h205c41.333 0 73.833 8.83301 97.5 26.5s35.5 40.167 35.5 67.5s-11.167 48.333 -33.5 63
s-53.833 22 -94.5 22h-210v-179z" />
    <glyph glyph-name="C" unicode="C" horiz-adv-x="797" 
d="M410 101c53.333 0 97.832 14.166 133.499 42.499s60.167 68.5 73.5 120.5h124c-16 -84 -54 -151.667 -114 -203c-59.333 -50 -131.666 -75 -216.999 -75c-98.667 0 -182.667 33.667 -252 101c-68 67.333 -102 151.666 -102 252.999s34 185.666 102 252.999
c69.333 67.333 153.333 101 252 101c84.667 0 157 -25.333 217 -76c60 -51.333 98 -118.666 114 -201.999h-124c-13.333 52 -37.833 92.167 -73.5 120.5s-80.167 42.5 -133.5 42.5c-66.667 0 -122 -22.333 -166 -67c-44 -45.333 -66 -102.666 -66 -171.999
s22 -126.666 66 -171.999c44 -44.667 99.333 -67 166 -67z" />
    <glyph glyph-name="D" unicode="D" horiz-adv-x="741" 
d="M76 680h255c104.667 0 191.334 -32 260.001 -96c68.667 -62.667 103 -143 103 -241c0 -99.333 -34.333 -181.333 -103 -246s-155.334 -97 -260.001 -97h-255v680zM196 111l135 -0.000976562c68.667 0 125.667 22.333 171 67c46 45.333 69 100.333 69 165
s-23 118.334 -69 161.001c-46.667 43.333 -103.667 65 -171 65h-135v-458z" />
    <glyph glyph-name="E" unicode="E" horiz-adv-x="617" 
d="M196 569v-178h334v-111h-334v-169h374v-111h-494v680h494v-111h-374z" />
    <glyph glyph-name="F" unicode="F" horiz-adv-x="587" 
d="M196 569v-196h322v-111h-322v-262h-120v680h486v-111h-366z" />
    <glyph glyph-name="G" unicode="G" horiz-adv-x="820" 
d="M750 340l-0.000976562 -340.001h-94l-8 108c-52 -81.333 -131.667 -122 -239 -122c-100.667 0 -184.667 33.667 -252 101c-67.333 68.667 -101 150 -101 244c0 105.333 34.333 192 103 260c68.667 68.667 153.667 103 255 103c78 0 147.333 -21.333 208 -64
c62 -43.333 102.333 -104.666 121 -183.999h-128c-15.333 44.667 -41 78 -77 100s-76.667 33 -122 33c-68.667 0 -125.667 -22.667 -171 -68c-44.667 -44.667 -67 -104.667 -67 -180c0 -63.333 21.333 -117.333 64 -162s98.334 -67 167.001 -67c53.333 0 98 14.333 134 43
s61 67.667 75 117h-218v111h350v-33z" />
    <glyph glyph-name="H" unicode="H" horiz-adv-x="731" 
d="M654 680v-680h-119v278h-339v-278h-120v680h120v-291h339v291h119z" />
    <glyph glyph-name="I" unicode="I" horiz-adv-x="273" 
d="M196 680v-680h-120v680h120z" />
    <glyph glyph-name="J" unicode="J" horiz-adv-x="596" 
d="M529 680l-0.000976562 -427.001c0 -84.667 -23.333 -150.5 -70 -197.5s-111 -70.5 -193 -70.5c-70.667 0 -129.667 20.667 -177 62c-45.333 40.667 -70.666 97.334 -75.999 170.001h121c2.66699 -38 16.667 -67.5 42 -88.5s58 -31.5 98 -31.5s72.333 14.333 97 43
s37 67.667 37 117v423h121z" />
    <glyph glyph-name="K" unicode="K" horiz-adv-x="710" 
d="M312 288l-116 -129v-159h-120v680h120v-357l326 357h144l-273 -302l303 -378h-150z" />
    <glyph glyph-name="L" unicode="L" horiz-adv-x="579" 
d="M554 108v-108h-478v680h120v-572h358z" />
    <glyph glyph-name="M" unicode="M" horiz-adv-x="848" 
d="M772 680v-680h-121v414l-190 -305h-73l-193 309l2 -418h-121v680h86l262 -423l262 423h86z" />
    <glyph glyph-name="N" unicode="N" horiz-adv-x="754" 
d="M677 680v-680h-94l-387 458v-458h-120v680h91l391 -469v469h119z" />
    <glyph glyph-name="O" unicode="O" horiz-adv-x="820" 
d="M159 590c69.333 69.333 153.002 103.998 251.002 103.998c97.333 0 180.666 -34.667 249.999 -104s104 -152.666 104 -249.999c0 -98 -34.667 -181.667 -104 -251c-68.667 -68.667 -152 -103 -250 -103c-98.667 0 -182.334 34.333 -251.001 103
s-103 152.334 -103 251.001c0 98 34.333 181.333 103 250zM410.002 97.998c66 0 121.332 23.333 165.999 70s67 104 67 172c0 67.333 -22.333 124.333 -67 171c-45.333 47.333 -100.666 71 -165.999 71c-64.667 0 -119.667 -23.667 -165 -71
c-44.667 -46.667 -67 -103.667 -67 -171c0 -68 22.333 -125.333 67 -172s99.667 -70 165 -70z" />
    <glyph glyph-name="P" unicode="P" horiz-adv-x="627" 
d="M76 680l256 0.000976562c80.667 0 145.667 -21.667 195 -65s74 -100 74 -170c0 -74.667 -26.333 -134.334 -79 -179.001c-51.333 -44.667 -120.333 -67 -207 -67h-119v-199h-120v680zM196 309.001h132c46 0 83.167 12.5 111.5 37.5s42.5 57.833 42.5 98.5
c0 37.333 -14.167 67.333 -42.5 90s-65.5 34 -111.5 34h-132v-260z" />
    <glyph glyph-name="Q" unicode="Q" horiz-adv-x="820" 
d="M764 340c0 -53.333 -10.998 -103.502 -32.998 -150.502s-53.333 -87.5 -94 -121.5l115 -138l-89 -81l-132 158c-38 -14 -78.333 -21 -121 -21c-98.667 0 -182.334 34.333 -251.001 103s-103 152.334 -103 251.001c0 98 34.333 181.333 103 250
c69.333 69.333 153 104 251 104c97.333 0 180.666 -34.667 249.999 -104s104 -152.666 104 -249.999zM411.002 97.998c65.333 0 120.332 23.333 164.999 70s67 104 67 172c0 67.333 -22.333 124.333 -67 171c-45.333 47.333 -100.333 71 -165 71
c-65.333 0 -120.666 -23.667 -165.999 -71c-44.667 -46.667 -67 -103.667 -67 -171c0 -68 22.333 -125.333 67 -172s100 -70 166 -70z" />
    <glyph glyph-name="R" unicode="R" horiz-adv-x="684" 
d="M330 224h-133.999v-224h-120v680h279c78 0 141.333 -21 190 -63c49.333 -42 74 -97 74 -165c0 -50 -13.833 -93.667 -41.5 -131s-65.834 -64 -114.501 -80l197 -241h-146zM196.001 335l155 0.00195312c44 0 80 10.667 108 32s42 49.666 42 84.999s-14 63.666 -42 84.999
s-64 32 -108 32h-155v-234z" />
    <glyph glyph-name="S" unicode="S" horiz-adv-x="668" 
d="M334 695c32 0 62.666 -3.66504 91.999 -10.998s57.5 -19 84.5 -35s49.333 -38.5 67 -67.5s28.5 -63.167 32.5 -102.5h-119c-12 75.333 -61.667 113 -149 113c-41.333 0 -74.166 -8.83301 -98.499 -26.5s-36.5 -41.834 -36.5 -72.501c0 -24.667 8.83301 -44 26.5 -58
s45.5 -25 83.5 -33l86 -17c69.333 -14 120.666 -35.833 153.999 -65.5s50 -70.167 50 -121.5c0 -64 -24.333 -115.333 -73 -154c-47.333 -38.667 -110.666 -58 -189.999 -58c-84.667 0 -153 21 -205 63s-81 99.667 -87 173h119c6 -40 25 -71.667 57 -95s73 -35 123 -35
c41.333 0 73.833 8.16699 97.5 24.5s35.5 38.833 35.5 67.5c0 43.333 -33.333 71.333 -100 84l-112 22c-128 25.333 -192 89.666 -192 192.999c0 63.333 23 114.333 69 153c47.333 39.333 109 59 185 59z" />
    <glyph glyph-name="T" unicode="T" horiz-adv-x="648" 
d="M620 569h-236v-569h-120v569h-237v111h593v-111z" />
    <glyph glyph-name="U" unicode="U" horiz-adv-x="734" 
d="M668 680v-378c0 -96.667 -27.667 -173.667 -83 -231s-128 -86 -218 -86c-90.667 0 -163.667 28.667 -219 86c-54.667 56.667 -82 133.667 -82 231v378h120v-378c0 -60 16.667 -109.333 50 -148c33.333 -38 77 -57 131 -57s97.667 19 131 57c33.333 38.667 50 88 50 148
v378h120z" />
    <glyph glyph-name="V" unicode="V" horiz-adv-x="770" 
d="M748 680l-307 -684h-111l-309 684h132l232 -522l232 522h131z" />
    <glyph glyph-name="W" unicode="W" horiz-adv-x="1077" 
d="M1044 680l-226 -684h-118l-162 467l-161 -467h-118l-226 684h126l160 -496l169 496h101l169 -496l160 496h126z" />
    <glyph glyph-name="X" unicode="X" horiz-adv-x="671" 
d="M516 0l-180 246l-181 -246h-140l239 336l-234 344h147l168 -248l168 248h147l-234 -344l240 -336h-140z" />
    <glyph glyph-name="Y" unicode="Y" horiz-adv-x="689" 
d="M678 680l-272 -451v-229h-122v229l-273 451h133l200 -333l201 333h133z" />
    <glyph glyph-name="Z" unicode="Z" horiz-adv-x="653" 
d="M605 109v-109h-559v57l380 514h-366v109h541v-57l-367 -514h371z" />
    <glyph glyph-name="bracketleft" unicode="[" horiz-adv-x="356" 
d="M177 -25h145v-111h-260v866h260v-111h-145v-644z" />
    <glyph glyph-name="backslash" unicode="\" horiz-adv-x="405" 
d="M131 730l254 -890h-111l-254 890h111z" />
    <glyph glyph-name="bracketright" unicode="]" horiz-adv-x="356" 
d="M31 619v111h260v-866h-260v111h144v644h-144z" />
    <glyph glyph-name="asciicircum" unicode="^" horiz-adv-x="413" 
d="M390 441h-106l-77 153l-78 -153h-106l132 239h103z" />
    <glyph glyph-name="underscore" unicode="_" horiz-adv-x="634" 
d="M33 -100h568v-101h-568v101z" />
    <glyph glyph-name="grave" unicode="`" 
d="M394 557h-105l-98 149h128z" />
    <glyph glyph-name="a" unicode="a" horiz-adv-x="611" 
d="M543 473v-473h-115v33c-41.333 -29.333 -89.666 -44 -144.999 -44c-66 0 -122.333 24 -169 72c-46 48 -69 106.333 -69 175s23 127 69 175c46.667 48.667 103 73 169 73c55.333 0 103.666 -14.667 144.999 -44v33h115zM300 89c55.333 0 97.999 22.335 127.999 67.002v161
c-30 44.667 -72.667 67 -128 67c-39.333 0 -72.666 -14.667 -99.999 -44c-26.667 -28.667 -40 -63.334 -40 -104.001s13.333 -75.334 40 -104.001s60 -43 100 -43z" />
    <glyph glyph-name="b" unicode="b" horiz-adv-x="611" 
d="M328 484c66 0 122 -24 168 -72c46.667 -47.333 70 -105.666 70 -174.999c0 -68.667 -23.333 -127.334 -70 -176.001c-46 -48 -102 -72 -168 -72c-55.333 0 -103.333 14.667 -144 44v-33h-116v710h116v-270c40.667 29.333 88.667 44 144 44zM311 89
c40 0 73.3311 14.333 99.998 43s40 63.667 40 105c0 40 -13.333 74.333 -40 103c-27.333 29.333 -60.666 44 -99.999 44c-53.333 0 -95.666 -21.667 -126.999 -65v-164c30 -44 72.333 -66 127 -66z" />
    <glyph glyph-name="c" unicode="c" horiz-adv-x="573" 
d="M296 93c29.333 0 54.3311 7.66602 74.998 22.999s33.667 35.666 39 60.999h118c-7.33301 -55.333 -32.666 -100.666 -75.999 -135.999c-42.667 -34.667 -94.667 -52 -156 -52c-70.667 0 -130.334 23.667 -179.001 71c-48 46.667 -72 105.334 -72 176.001
s24 129.667 72 177c48.667 47.333 108.334 71 179.001 71c60 0 111.667 -17.667 155 -53c44.667 -35.333 70.334 -80.333 77.001 -135h-118c-5.33301 25.333 -18.333 45.5 -39 60.5s-45.667 22.5 -75 22.5c-39.333 0 -71.833 -13.667 -97.5 -41s-38.5 -61.333 -38.5 -102
s12.833 -74.667 38.5 -102s58.167 -41 97.5 -41z" />
    <glyph glyph-name="d" unicode="d" horiz-adv-x="611" 
d="M543 710l0.000976562 -710h-115v34c-40.667 -30 -89 -45 -145 -45c-66.667 0 -123 24 -169 72s-69 106.667 -69 176c0 68.667 23 127 69 175c46.667 48 103 72 169 72c55.333 0 103.666 -14.667 144.999 -44v270h115zM300.001 89c55.333 0 98 22.334 128 67.001v162
c-30 44 -72.667 66 -128 66c-39.333 0 -72.666 -14.667 -99.999 -44c-26.667 -28.667 -40 -63 -40 -103c0 -40.667 13.333 -75.334 40 -104.001c27.333 -29.333 60.666 -44 99.999 -44z" />
    <glyph glyph-name="e" unicode="e" horiz-adv-x="572" 
d="M527 244c0 -23.333 -1 -40.999 -3 -52.999h-1h-362c8 -32.667 23.667 -58.167 47 -76.5s53.666 -27.5 90.999 -27.5c46.667 0 78.667 14.667 96 44h123c-13.333 -43.333 -40.166 -77.833 -80.499 -103.5s-87.5 -38.5 -141.5 -38.5c-74.667 0 -135.334 23.333 -182.001 70
c-46 47.333 -69 106.333 -69 177s23 129.667 69 177c47.333 47.333 108 71 182 71c66.667 0 121.334 -22.333 164.001 -67c44 -44.667 66.333 -102.334 67 -173.001zM290 386.001c-34.667 0 -63.3311 -9.83301 -85.998 -29.5s-37.334 -46.167 -44.001 -79.5h250
c-4.66699 34 -17.334 60.667 -38.001 80s-48 29 -82 29z" />
    <glyph glyph-name="f" unicode="f" horiz-adv-x="439" 
d="M253 473l184.999 -0.000976562v-97h-185v-376h-116v376h-132v97h132v84c0 60 17.667 108.667 53 146s81.666 56 138.999 56c36.667 0 73.334 -5 110.001 -15l-17 -100c-29.333 6 -52.666 9 -69.999 9c-30 0 -54 -8.66699 -72 -26s-27 -40.666 -27 -69.999v-84z" />
    <glyph glyph-name="g" unicode="g" horiz-adv-x="616" 
d="M546 473l0.000976562 -473c0 -72 -22.333 -129.333 -67 -172s-102.334 -64 -173.001 -64c-67.333 0 -123.333 18.333 -168 55c-46 37.333 -71.333 84.333 -76 141h117c4 -28 17.333 -50.167 40 -66.5s51.667 -24.5 87 -24.5c38 0 68.333 11.667 91 35s34 55.333 34 96v59
c-41.333 -29.333 -90 -44 -146 -44c-65.333 0 -121.333 23.333 -168 70c-46 47.333 -69 102 -69 164c0 70 22.667 127.667 68 173c46 46 102.333 69 169 69c56 0 104.667 -14.667 146 -44v26h115zM302.001 115c56 0 99 22.333 129 67v142c-31.333 45.333 -74.333 68 -129 68
c-40.667 0 -74 -13.667 -100 -41s-39 -61.333 -39 -102c0 -34.667 13.333 -65.667 40 -93c27.333 -27.333 60.333 -41 99 -41z" />
    <glyph glyph-name="h" unicode="h" horiz-adv-x="595" 
d="M330 488c62 0 111.999 -20.666 149.999 -61.999s57 -96.333 57 -165v-261h-115v254c0 41.333 -10.333 73.166 -31 95.499s-49 33.5 -85 33.5c-44 0 -84.667 -22.667 -122 -68v-315h-116v710h116v-276c42.667 36 91.334 54 146.001 54z" />
    <glyph glyph-name="i" unicode="i" horiz-adv-x="266" 
d="M61 644c0 20 7 36.833 21 50.5s31 20.5 51 20.5s37 -6.83301 51 -20.5s21 -30.5 21 -50.5c0 -19.333 -7 -35.666 -21 -48.999s-31 -20 -51 -20s-37 6.66699 -51 20s-21 29.666 -21 48.999zM191 473v-473h-115v473h115z" />
    <glyph glyph-name="j" unicode="j" horiz-adv-x="260" 
d="M55 644c0 20 7 36.833 21 50.5s31 20.5 51 20.5s37 -6.83301 51 -20.5s21 -30.5 21 -50.5c0 -19.333 -7 -35.666 -21 -48.999s-31 -20 -51 -20s-37 6.66699 -51 20s-21 29.666 -21 48.999zM185 473v-445c0 -73.333 -15 -127.333 -45 -162
c-28.667 -34.667 -82 -52.667 -160 -54l-9 101c38 2.66699 64 11 78 25s21 39 21 75v460h115z" />
    <glyph glyph-name="k" unicode="k" horiz-adv-x="575" 
d="M270 194l-85 -88v-106h-115v710h115v-452l208 215h147l-190 -196l217 -277h-150z" />
    <glyph glyph-name="l" unicode="l" horiz-adv-x="252" 
d="M184 710v-710h-116v710h116z" />
    <glyph glyph-name="m" unicode="m" horiz-adv-x="910" 
d="M643 488c59.333 0 108.334 -20.9971 147.001 -62.9971c39.333 -42.667 59 -97.334 59 -164.001v-261h-116v254c0 41.333 -9.83301 73.166 -29.5 95.499s-47.834 33.5 -84.501 33.5c-42.667 0 -79 -21.667 -109 -65c4 -18 6 -37 6 -57v-261h-115v254
c0 41.333 -10 73.166 -30 95.499s-48 33.5 -84 33.5c-38 0 -72.333 -21 -103 -63v-320h-116v473h116v-33c34 32 76.333 48 127 48c64 0 115.333 -24 154 -72c50 48 109.333 72 178 72z" />
    <glyph glyph-name="n" unicode="n" horiz-adv-x="595" 
d="M330 488c62 0 111.999 -20.666 149.999 -61.999s57 -96.333 57 -165v-261h-115v254c0 41.333 -10.333 73.166 -31 95.499s-49 33.5 -85 33.5c-44 0 -84.667 -22.667 -122 -68v-315h-116v473h116v-39c42.667 36 91.334 54 146.001 54z" />
    <glyph glyph-name="o" unicode="o" horiz-adv-x="593" 
d="M548 236c0 -72 -23.999 -132 -71.999 -180c-48.667 -47.333 -108.334 -71 -179.001 -71c-71.333 0 -131.333 23.667 -180 71c-48 48 -72 108 -72 180c0 70.667 24 129.667 72 177c48.667 47.333 108.667 71 180 71c72 0 131.667 -23.667 179 -71
c48 -47.333 72 -106.333 72 -177zM433.001 236c0 40.667 -12.834 74.667 -38.501 102s-58.167 41 -97.5 41c-40 0 -72.833 -13.667 -98.5 -41s-38.5 -61.333 -38.5 -102s12.667 -75.334 38 -104.001c26 -28 59 -42 99 -42c40.667 0 73.334 14 98.001 42
c25.333 28.667 38 63.334 38 104.001z" />
    <glyph glyph-name="p" unicode="p" horiz-adv-x="611" 
d="M328 484c65.333 0 121.333 -24.334 168 -73.001s70 -107 70 -175c0 -69.333 -23.333 -127.666 -70 -174.999c-46 -48 -102 -72 -168 -72c-55.333 0 -103.333 14.667 -144 44v-270h-116v710h116v-33c40.667 29.333 88.667 44 144 44zM311 88.999
c40 0 73.332 14.3311 99.999 42.998s40 63.334 40 104.001s-13.333 75.334 -40 104.001c-27.333 29.333 -60.666 44 -99.999 44c-54.667 0 -97 -22 -127 -66v-163c30 -44 72.333 -66 127 -66z" />
    <glyph glyph-name="q" unicode="q" horiz-adv-x="611" 
d="M543 473v-710h-115v270c-41.333 -29.333 -89.666 -44 -144.999 -44c-66 0 -122.333 24 -169 72c-46 48 -69 106.333 -69 175s23 127 69 175c46.667 48.667 103 73 169 73c55.333 0 103.666 -14.667 144.999 -44v33h115zM300 89c55.333 0 97.999 22.335 127.999 67.002
v161c-30 44.667 -72.667 67 -128 67c-39.333 0 -72.666 -14.667 -99.999 -44c-26.667 -28.667 -40 -63.334 -40 -104.001s13.333 -75.334 40 -104.001s60 -43 100 -43z" />
    <glyph glyph-name="r" unicode="r" horiz-adv-x="385" 
d="M184 473v-60c44.667 46 102 69 172 69v-109c-74 -2.66699 -131.333 -29 -172 -79v-294h-116v473h116z" />
    <glyph glyph-name="s" unicode="s" horiz-adv-x="510" 
d="M36 160l106 -0.998047c9.33301 -53.333 48 -80 116 -80c28 0 50.833 4.66699 68.5 14s26.5 22 26.5 38c0 27.333 -19 44 -57 50l-103 17c-93.333 15.333 -140 60.666 -140 135.999c0 46.667 18.167 83.667 54.5 111s84.5 41 144.5 41c46 0 89.333 -10 130 -30
c47.333 -23.333 73.666 -65.666 78.999 -126.999l-107 -1c-2 22 -12.167 39 -30.5 51s-42.166 18 -71.499 18c-26 0 -46.667 -4.83301 -62 -14.5s-23 -21.834 -23 -36.501c0 -29.333 22.333 -47.333 67 -54l88 -14c94 -15.333 141 -61 141 -137
c0 -48.667 -19 -86.834 -57 -114.501s-88.333 -41.5 -151 -41.5s-113.5 14.5 -152.5 43.5s-61.167 72.833 -66.5 131.5z" />
    <glyph glyph-name="t" unicode="t" horiz-adv-x="446" 
d="M398 104l16 -99c-45.333 -13.333 -84.666 -20 -117.999 -20c-56.667 0 -101.334 17.667 -134.001 53s-49 83.333 -49 144v194h-108v97h108v173h115v-173h175v-97h-175v-194c0 -60 30 -90 90 -90c24 0 50.667 4 80 12z" />
    <glyph glyph-name="u" unicode="u" horiz-adv-x="595" 
d="M527 473v-472.999h-115v40c-42.667 -36.667 -91.667 -55 -147 -55c-62 0 -112 20.667 -150 62c-38 40.667 -57 95.667 -57 165v261h115v-254c0 -40.667 10.333 -72.334 31 -95.001s49 -34 85 -34c45.333 0 86.333 23.333 123 70v313h115z" />
    <glyph glyph-name="v" unicode="v" horiz-adv-x="578" 
d="M558 473l-218 -473h-102l-218 473h123l146 -326l147 326h122z" />
    <glyph glyph-name="w" unicode="w" horiz-adv-x="792" 
d="M772 473l-177 -473h-101l-98 287l-98 -287h-101l-177 473h125l102 -289l100 289h98l99 -290l103 290h125z" />
    <glyph glyph-name="x" unicode="x" horiz-adv-x="552" 
d="M395 0l-118 158l-120 -158h-138l180 239l-179 235h141l114 -151l116 151h141l-179 -236l180 -238h-138z" />
    <glyph glyph-name="y" unicode="y" horiz-adv-x="623" 
d="M594 474l-309 -710h-122l96 220l-235 490h124l170 -354l154 354h122z" />
    <glyph glyph-name="z" unicode="z" horiz-adv-x="497" 
d="M461 411l-254 -315h254v-96h-425v54l259 323h-252v96h418v-62z" />
    <glyph glyph-name="braceleft" unicode="{" horiz-adv-x="354" 
d="M233 561v-143.001c0 -34.667 -5.16699 -60.5 -15.5 -77.5s-29.833 -30.167 -58.5 -39.5c28.667 -9.33301 48.167 -22.333 58.5 -39s15.5 -42.334 15.5 -77.001v-144c0 -21.333 7.83301 -38.5 23.5 -51.5s36.5 -19.5 62.5 -19.5v-113c-60.667 0 -109.334 17 -146.001 51
s-55 78.333 -55 133v140c0 28.667 -5.66699 47.334 -17 56.001s-34.333 13 -69 13v102c34.667 0 57.667 4.33301 69 13s17 27.334 17 56.001v140c0 54.667 18.333 99 55 133s85.334 51 146.001 51v-113c-26 0 -46.833 -6.5 -62.5 -19.5s-23.5 -30.167 -23.5 -51.5z" />
    <glyph glyph-name="bar" unicode="|" horiz-adv-x="319" 
d="M213 730v-890h-107v890h107z" />
    <glyph glyph-name="braceright" unicode="}" horiz-adv-x="367" 
d="M133 418l0.00195312 143.001c0 21.333 -7.83301 38.5 -23.5 51.5s-36.5 19.5 -62.5 19.5v113c60.667 0 109.334 -17 146.001 -51c36.667 -32.667 55 -77 55 -133v-140c0 -28.667 5.83301 -47.334 17.5 -56.001s34.5 -13 68.5 -13v-102c-34 0 -56.833 -4.33301 -68.5 -13
s-17.5 -27.334 -17.5 -56.001v-140c0 -56 -18.333 -100.333 -55 -133c-36.667 -34 -85.334 -51 -146.001 -51v113c26 0 46.833 6.5 62.5 19.5s23.5 30.167 23.5 51.5v144c0 34.667 5.16699 60.334 15.5 77.001s30.166 29.667 59.499 39
c-28.667 9.33301 -48.334 22.5 -59.001 39.5s-16 42.833 -16 77.5z" />
    <glyph glyph-name="asciitilde" unicode="~" horiz-adv-x="445" 
d="M318 404l102 -0.00390625c0 -32 -6.33301 -59.167 -19 -81.5s-28.5 -37.666 -47.5 -45.999s-39 -12.333 -60 -12s-39.833 5.83301 -56.5 16.5l-56 34c-18 10 -31.667 11.833 -41 5.5s-14 -18.166 -14 -35.499h-101c0 31.333 6.5 58.333 19.5 81
s28.833 38.334 47.5 47.001s38.5 12.834 59.5 12.501s39.833 -5.83301 56.5 -16.5l55 -35c18.667 -8.66699 32.5 -10 41.5 -4s13.5 17.333 13.5 34z" />
    <glyph glyph-name="exclamdown" unicode="&#xa1;" horiz-adv-x="279" 
d="M139 484c20 0 37 -6.66699 51 -20s21 -29.666 21 -48.999s-7 -35.666 -21 -48.999s-31 -20 -51 -20c-19.333 0 -36 6.66699 -50 20s-21 29.666 -21 48.999s7 35.666 21 48.999s30.667 20 50 20zM79 -205l9 470h103l9 -470h-121z" />
    <glyph glyph-name="cent" unicode="&#xa2;" horiz-adv-x="573" 
d="M296 93c29.333 0 54.333 7.66797 75 23.001s33.667 35.666 39 60.999h118c-6.66699 -47.333 -26 -87.333 -58 -120s-72.333 -53.667 -121 -63v-106h-104v106c-59.333 10.667 -107.333 38.667 -144 84c-37.333 45.333 -56 98 -56 158c0 60.667 18.667 113.667 56 159
c36.667 44.667 84.667 72.667 144 84v120h104v-120c48 -9.33301 88.167 -30.5 120.5 -63.5s51.833 -72.833 58.5 -119.5h-118c-5.33301 25.333 -18.333 45.5 -39 60.5s-45.667 22.5 -75 22.5c-39.333 0 -71.833 -13.667 -97.5 -41s-38.5 -61.333 -38.5 -102
s12.833 -74.667 38.5 -102s58.167 -41 97.5 -41z" />
    <glyph glyph-name="sterling" unicode="&#xa3;" horiz-adv-x="615" 
d="M212 101h362v-101h-540v101h63v175h-63v101h63v79c0 71.333 22.333 129 67 173c45.333 44 104.666 66 177.999 66c67.333 0 122.833 -18.5 166.5 -55.5s69.167 -86.833 76.5 -149.5h-117c-6 32 -20.167 57.167 -42.5 75.5s-50.166 27.5 -83.499 27.5
c-38.667 0 -70 -12.5 -94 -37.5s-36 -58.167 -36 -99.5v-79h205v-101h-205v-175z" />
    <glyph glyph-name="yen" unicode="&#xa5;" horiz-adv-x="689" 
d="M443 291h140v-84h-178v-51h178v-84h-178v-72h-121v72h-177v84h177v51h-177v84h140l-236 389h133l200 -333l201 333h133z" />
    <glyph glyph-name="brokenbar" unicode="&#xa6;" horiz-adv-x="319" 
d="M213 336h-107v394h107v-394zM213 -160h-107v394h107v-394z" />
    <glyph glyph-name="section" unicode="&#xa7;" horiz-adv-x="544" 
d="M511 228c0 -56.667 -25 -98.002 -75 -124.002c20.667 -28.667 31 -61.667 31 -99c0 -51.333 -18.667 -91.666 -56 -120.999s-84 -44 -140 -44c-59.333 0 -108.5 16.667 -147.5 50s-62.167 78.333 -69.5 135h126c2.66699 -25.333 11.667 -45.166 27 -59.499
s36.333 -21.5 63 -21.5c22.667 0 41.167 5.83301 55.5 17.5s21.5 27.5 21.5 47.5c0 31.333 -19.667 56 -59 74l-115 54c-50 24 -85.833 48.833 -107.5 74.5s-32.5 56.167 -32.5 91.5c0 56.667 25 98 75 124c-20.667 28.667 -31 61.667 -31 99c0 51.333 18.333 91.333 55 120
c37.333 29.333 84.333 44 141 44c60 0 109.333 -16.667 148 -50s61.667 -78 69 -134h-126c-2.66699 25.333 -11.667 45.166 -27 59.499s-36.333 21.5 -63 21.5c-22.667 0 -41.167 -5.83301 -55.5 -17.5s-21.5 -27.5 -21.5 -47.5c0 -31.333 19.667 -56 59 -74l115 -54
c50.667 -23.333 86.667 -48.166 108 -74.499s32 -56.833 32 -91.5zM348 170.998l3 -0.998047c13.333 3.33301 24 10.166 32 20.499s12 22.166 12 35.499c0 28 -25 53.333 -75 76l-124 58l-2 1c-30 -8 -45 -27 -45 -57c0 -28 25 -53.333 75 -76z" />
    <glyph glyph-name="dieresis" unicode="&#xa8;" 
d="M196 693c20.667 0 38 -6.66699 52 -20s21 -30 21 -50s-7 -36.667 -21 -50s-31.333 -20 -52 -20c-20 0 -37.167 6.66699 -51.5 20s-21.5 30 -21.5 50s7.16699 36.667 21.5 50s31.5 20 51.5 20zM404 693c20.667 0 38 -6.66699 52 -20s21 -30 21 -50s-7 -36.667 -21 -50
s-31.333 -20 -52 -20c-20 0 -37.167 6.66699 -51.5 20s-21.5 30 -21.5 50s7.16699 36.667 21.5 50s31.5 20 51.5 20z" />
    <glyph glyph-name="copyright" unicode="&#xa9;" horiz-adv-x="840" 
d="M163 593c71.333 68 157 102 257 102s185.667 -34 257 -102s107 -152.333 107 -253s-35.667 -185 -107 -253s-157 -102 -257 -102s-185.667 34 -257 102s-107 152.333 -107 253s35.667 185 107 253zM220 142c56 -54 122.333 -81.001 199 -81.001s143 27 199 81
c56.667 54.667 85 120.667 85 198c0 76.667 -28.333 142.334 -85 197.001s-123 82 -199 82c-76.667 0 -143 -27 -199 -81s-84 -120 -84 -198s28 -144 84 -198zM421 426.999c-25.333 0 -46.332 -8.5 -62.999 -25.5s-25 -38.167 -25 -63.5c0 -24.667 8.33301 -45.667 25 -63
s37.667 -26 63 -26c18 0 34.167 4.66699 48.5 14s24.166 21.666 29.499 36.999h90c-7.33301 -40 -26.5 -72 -57.5 -96s-67.5 -36 -109.5 -36c-50.667 0 -92.334 16 -125.001 48c-33.333 33.333 -50 74 -50 122s16.667 88.667 50 122c33.333 32.667 75 49 125 49
c42 0 78.5 -12.167 109.5 -36.5s50.167 -56.166 57.5 -95.499h-90c-5.33301 15.333 -15.166 27.5 -29.499 36.5s-30.5 13.5 -48.5 13.5z" />
    <glyph glyph-name="ordfeminine" unicode="&#xaa;" horiz-adv-x="353" 
d="M178 685c44 0 78.667 -12.332 104 -36.999s38 -58.667 38 -102v-186h-79v15c-27.333 -14.667 -56.333 -22 -87 -22c-40 0 -72 9.16699 -96 27.5s-36 43.5 -36 75.5c0 29.333 10.667 51.666 32 66.999s51 23 89 23h98c0 46.667 -21 70 -63 70
c-38 0 -58.667 -14.667 -62 -44h-80c2 37.333 17 65.333 45 84c28.667 19.333 61 29 97 29zM158 418.001c29.333 0 57 9 83 27v42h-103c-12 0 -21.5 -2.66699 -28.5 -8s-10.5 -12 -10.5 -20c0 -12 5 -21.833 15 -29.5s24.667 -11.5 44 -11.5z" />
    <glyph glyph-name="guillemotleft" unicode="&#xab;" horiz-adv-x="451" 
d="M238 405l-96 -153l96 -153h-112l-96 153l96 153h112zM421 405l-97 -153l97 -153h-112l-96 153l96 153h112z" />
    <glyph glyph-name="registered" unicode="&#xae;" horiz-adv-x="566" 
d="M533 448c0 -68 -24.667 -125.668 -74 -173.001c-48.667 -46.667 -107.334 -70 -176.001 -70c-69.333 0 -128.333 23.333 -177 70s-73 104.334 -73 173.001c0 69.333 24.333 127.333 73 174s107.667 70 177 70c68.667 0 127.334 -23.333 176.001 -70
c49.333 -47.333 74 -105.333 74 -174zM282 263.999c50.667 0 94.333 18 131 54s55 79.333 55 130c0 51.333 -18.333 95 -55 131s-80.334 54 -131.001 54c-49.333 0 -92.666 -18 -129.999 -54c-36.667 -36 -55 -79.667 -55 -131c0 -50.667 18.333 -94 55 -130s80 -54 130 -54
zM378.999 485.999c0 -31.333 -14.333 -53 -43 -65l51 -72h-59l-44 64h-34v-64h-47v213h91c25.333 0 45.833 -7 61.5 -21s23.5 -32.333 23.5 -55zM249.999 454.999h44c24 0 36 10.667 36 32c0 20 -12 30 -36 30h-44v-62z" />
    <glyph glyph-name="overscore" unicode="&#xaf;" 
d="M440 671v-95h-280v95h280z" />
    <glyph glyph-name="degree" unicode="&#xb0;" horiz-adv-x="471" 
d="M236 695c49.333 0 90.333 -16 123 -48c33.333 -32 50 -72 50 -120c0 -48.667 -16.667 -89 -50 -121c-32.667 -32 -73.667 -48 -123 -48s-90.666 16 -123.999 48c-32.667 32 -49 72.333 -49 121c0 48 16.333 88 49 120c33.333 32 74.666 48 123.999 48zM236 444
c22.667 0 42.332 8.16699 58.999 24.5s25 35.833 25 58.5s-8.16699 42 -24.5 58s-36.166 24 -59.499 24s-43.333 -8 -60 -24s-25 -35.333 -25 -58s8.33301 -42.167 25 -58.5s36.667 -24.5 60 -24.5z" />
    <glyph glyph-name="plusminus" unicode="&#xb1;" horiz-adv-x="685" 
d="M581 322h-183v-137h-110v137h-184v107h184v138h110v-138h183v-107zM581 142v-107h-477v107h477z" />
    <glyph glyph-name="twosuperior" unicode="&#xb2;" horiz-adv-x="366" 
d="M333 361l-0.00292969 -72h-293v45l144 153c22 22.667 36.833 40 44.5 52s11.5 24 11.5 36c0 14 -5 25.5 -15 34.5s-23 13.5 -39 13.5c-39.333 0 -60 -19.333 -62 -58h-86c0.666992 40.667 13.834 73.167 39.501 97.5s60.834 36.5 105.501 36.5
s79.834 -11.167 105.501 -33.5s38.5 -50.833 38.5 -85.5c0 -37.333 -23 -81.333 -69 -132l-80 -87h155z" />
    <glyph glyph-name="threesuperior" unicode="&#xb3;" horiz-adv-x="379" 
d="M287 494c36 -18.667 54 -48.001 54 -88.001c0 -36 -14 -65.5 -42 -88.5s-64 -34.5 -108 -34.5c-43.333 0 -78.5 10.833 -105.5 32.5s-43.833 51.5 -50.5 89.5h87c9.33301 -31.333 32.666 -47 69.999 -47c20 0 36 4.5 48 13.5s18 20.5 18 34.5c0 33.333 -25 50 -75 50h-32
v70h32c18 0 32.667 4.66699 44 14s17 21.333 17 36s-5 26.334 -15 35.001s-23.667 13 -41 13c-33.333 0 -51.666 -15.667 -54.999 -47h-87c3.33301 37.333 17.5 67 42.5 89s57.833 33 98.5 33c42 0 75.667 -11.5 101 -34.5s38 -52.5 38 -88.5c0 -34.667 -13 -62 -39 -82z
" />
    <glyph glyph-name="acute" unicode="&#xb4;" 
d="M437 706l-98 -149h-105l75 149h128z" />
    <glyph glyph-name="paragraph" unicode="&#xb6;" horiz-adv-x="766" 
d="M698 680v-840.001h-120v737h-98v-737h-119v372h-82c-72.667 0 -133.334 22.333 -182.001 67s-73 102.334 -73 173.001c0 67.333 24.333 122 73 164c48.667 42.667 109.334 64 182.001 64h419zM361 576.999l-82 -0.000976562c-40.667 0 -73.667 -11.667 -99 -35
s-38 -53.666 -38 -90.999c0 -38.667 12.667 -70 38 -94s58.333 -36 99 -36h82v256z" />
    <glyph glyph-name="middot" unicode="&#xb7;" horiz-adv-x="209" 
d="M104 200c-19.333 0 -36 6.66699 -50 20s-21 29.666 -21 48.999s7 35.666 21 48.999s30.667 20 50 20c20 0 37 -6.66699 51 -20s21 -29.666 21 -48.999s-7 -35.666 -21 -48.999s-31 -20 -51 -20z" />
    <glyph glyph-name="cedilla" unicode="&#xb8;" 
d="M307 -211h-99l44 156h114z" />
    <glyph glyph-name="onesuperior" unicode="&#xb9;" horiz-adv-x="333" 
d="M325 364v-72h-295v72h108v237l-103 -30v75l140 46h46v-328h104z" />
    <glyph glyph-name="ordmasculine" unicode="&#xba;" horiz-adv-x="387" 
d="M361 522c0 -48.667 -16 -89 -48 -121c-31.333 -32 -71 -48 -119 -48s-88 16 -120 48s-48 72.333 -48 121c0 48 16 87.333 48 118c32.667 31.333 72.667 47 120 47c48 0 87.667 -15.667 119 -47c32 -30.667 48 -70 48 -118zM194 426
c25.333 0 45.999 9.33203 61.999 27.999s24 41.334 24 68.001c0 26 -8 47.667 -24 65s-36.667 26 -62 26s-46.166 -8.66699 -62.499 -26s-24.5 -39 -24.5 -65c0 -28 8 -51 24 -69s37 -27 63 -27z" />
    <glyph glyph-name="guillemotright" unicode="&#xbb;" horiz-adv-x="451" 
d="M238 252l-96 -153h-112l96 153l-96 153h112zM421 252l-97 -153h-111l96 153l-96 153h111z" />
    <glyph glyph-name="onequarter" unicode="&#xbc;" horiz-adv-x="917" 
d="M736 680l-462 -680h-81l462 680h81zM30 279v72h108v237l-103 -30v75l140 46h46v-328h104v-72h-295zM884 77h-54v-77h-85v77h-214v55l117 269h90l-105 -248h112v112h85v-112h54v-76z" />
    <glyph glyph-name="onehalf" unicode="&#xbd;" horiz-adv-x="906" 
d="M741 680l-462 -680h-81l462 680h81zM30 279v72h108v237l-103 -30v75l140 46h46v-328h104v-72h-295zM873 72l-0.00292969 -72h-293v45l144 153c22 22.667 36.833 40 44.5 52s11.5 24 11.5 36c0 14 -5 25.5 -15 34.5s-23 13.5 -39 13.5c-39.333 0 -60 -19.333 -62 -58h-86
c0.666992 40.667 13.834 73.167 39.501 97.5s60.834 36.5 105.501 36.5s79.834 -11.167 105.501 -33.5s38.5 -50.833 38.5 -85.5c0 -36.667 -23 -80.667 -69 -132l-80 -87h155z" />
    <glyph glyph-name="threequarters" unicode="&#xbe;" horiz-adv-x="900" 
d="M343 397c0 -36 -14 -65.502 -42 -88.502s-64 -34.5 -108 -34.5c-43.333 0 -78.5 10.833 -105.5 32.5s-43.833 51.5 -50.5 89.5h87c9.33301 -31.333 32.666 -47 69.999 -47c20 0 36 4.5 48 13.5s18 20.5 18 34.5c0 33.333 -25 50 -75 50h-32v70h32
c18 0 32.667 4.66699 44 14s17 21.333 17 36s-5 26.334 -15 35.001s-23.667 13 -41 13c-33.333 0 -51.666 -15.667 -54.999 -47h-87c3.33301 37.333 17.5 67 42.5 89s57.833 33 98.5 33c42 0 75.667 -11.5 101 -34.5s38 -52.5 38 -88.5c0 -34.667 -13 -62 -39 -82
c36 -19.333 54 -48.666 54 -87.999zM719 679.998l-462 -680h-81l462 680h81zM867 76.998h-54v-77h-85v77h-214v55l117 269h90l-105 -248h112v112h85v-112h54v-76z" />
    <glyph glyph-name="questiondown" unicode="&#xbf;" horiz-adv-x="534" 
d="M300 550c19.333 0 36 -6.66699 50 -20s21 -29.666 21 -48.999s-7 -35.666 -21 -48.999s-30.667 -20 -50 -20c-20 0 -37 6.66699 -51 20s-21 29.666 -21 48.999s7 35.666 21 48.999s31 20 51 20zM342 334l9 -155h-65c-36 0 -65.667 -10.5 -89 -31.5s-35 -48.5 -35 -82.5
c0 -33.333 10.5 -60.5 31.5 -81.5s48.5 -31.5 82.5 -31.5c30 0 55.5 8.33301 76.5 25s33.5 39 37.5 67h116c-5.33301 -60 -27.833 -107.5 -67.5 -142.5s-92.167 -52.5 -157.5 -52.5c-66 0 -121 20 -165 60s-66 91.667 -66 155c0 54 17.667 98.333 53 133s83.333 55 144 61
l5 76h90z" />
    <glyph glyph-name="Agrave" unicode="&#xc0;" horiz-adv-x="750" 
d="M335 755l-98 149h128l75 -149h-105zM537 151h-324l-63 -151h-129l298 684h113l297 -684h-128zM491 262l-116 275l-115 -275h231z" />
    <glyph glyph-name="Aacute" unicode="&#xc1;" horiz-adv-x="750" 
d="M425 755h-105l75 149h128zM537 151h-324l-63 -151h-129l298 684h113l297 -684h-128zM491 262l-116 275l-115 -275h231z" />
    <glyph glyph-name="Acircumflex" unicode="&#xc2;" horiz-adv-x="750" 
d="M308 756h-108l119 152h110l120 -152h-109l-65 79zM537 151h-324l-63 -151h-129l298 684h113l297 -684h-128zM491 262l-116 275l-115 -275h231z" />
    <glyph glyph-name="Atilde" unicode="&#xc3;" horiz-adv-x="750" 
d="M386 776l-46.999 29c-17.333 7.33301 -30 8.5 -38 3.5s-12 -14.833 -12 -29.5h-93c0 28.667 5.83301 53 17.5 73s26 34.167 43 42.5s35.167 12.166 54.5 11.499s36.666 -6 51.999 -16l46 -29c34 -16 51 -7.33301 51 26h92c0 -28.667 -5.66699 -53 -17 -73
s-25.5 -34.167 -42.5 -42.5s-35 -12.166 -54 -11.499s-36.5 6 -52.5 16zM537.001 151h-324l-63 -151h-129l298 684h113l297 -684h-128zM491.001 262l-116 275l-115 -275h231z" />
    <glyph glyph-name="Adieresis" unicode="&#xc4;" horiz-adv-x="750" 
d="M270 754c-20 0 -37.167 6.66699 -51.5 20s-21.5 30 -21.5 50s7.16699 36.667 21.5 50s31.5 20 51.5 20c20.667 0 38 -6.66699 52 -20s21 -30 21 -50s-7 -36.667 -21 -50s-31.333 -20 -52 -20zM478 754c-20 0 -37.167 6.66699 -51.5 20s-21.5 30 -21.5 50
s7.16699 36.667 21.5 50s31.5 20 51.5 20c20.667 0 38 -6.66699 52 -20s21 -30 21 -50s-7 -36.667 -21 -50s-31.333 -20 -52 -20zM537 151h-324l-63 -151h-129l298 684h113l297 -684h-128zM491 262l-116 275l-115 -275h231z" />
    <glyph glyph-name="Aring" unicode="&#xc5;" horiz-adv-x="750" 
d="M456 792c-21.333 -19.333 -48.333 -28.999 -81 -28.999s-59.667 9.66699 -81 29c-20 19.333 -30 44.666 -30 75.999c0 32 10 57.333 30 76c21.333 19.333 48.333 29 81 29s59.667 -9.66699 81 -29c20.667 -18.667 31 -44 31 -76s-10.333 -57.333 -31 -76zM375 914.001
c-18.667 1.33301 -32 -6 -40 -22s-8 -32 0 -48s21.333 -23.333 40 -22c19.333 -1.33301 33 6 41 22s8 32 0 48s-21.667 23.333 -41 22zM537 151.001h-324l-63 -151h-129l298 684h113l297 -684h-128zM491 262.001l-116 275l-115 -275h231z" />
    <glyph glyph-name="AE" unicode="&#xc6;" horiz-adv-x="1107" 
d="M686 569v-178h334v-111h-334v-169h374v-111h-493v151h-281l-116 -151h-147l533 680h504v-111h-374zM567 262v253l-195 -253h195z" />
    <glyph glyph-name="Ccedilla" unicode="&#xc7;" horiz-adv-x="797" 
d="M410 101c53.333 0 97.833 14.165 133.5 42.498s60.167 68.5 73.5 120.5h123c-14.667 -83.333 -52.334 -150.666 -113.001 -201.999c-58.667 -50.667 -131 -76 -217 -76c-98.667 0 -182.667 33.667 -252 101c-68 67.333 -102 151.666 -102 252.999s34 185.666 102 252.999
c69.333 67.333 153.333 101 252 101c86 0 158.333 -25.333 217 -76c60.667 -51.333 98.334 -118.666 113.001 -201.999h-123c-13.333 52 -37.833 92.167 -73.5 120.5s-80.167 42.5 -133.5 42.5c-67.333 0 -123 -22.333 -167 -67c-44 -45.333 -66 -102.666 -66 -171.999
s22 -126.666 66 -171.999c44 -44.667 99.667 -67 167 -67zM354 -55.002h114l-59 -156h-99z" />
    <glyph glyph-name="Egrave" unicode="&#xc8;" horiz-adv-x="617" 
d="M279 755l-98 149h128l75 -149h-105zM196 569v-178h334v-111h-334v-169h374v-111h-494v680h494v-111h-374z" />
    <glyph glyph-name="Eacute" unicode="&#xc9;" horiz-adv-x="617" 
d="M369 755h-105l75 149h128zM196 569v-178h334v-111h-334v-169h374v-111h-494v680h494v-111h-374z" />
    <glyph glyph-name="Ecircumflex" unicode="&#xca;" horiz-adv-x="617" 
d="M253 756h-108l119 152h110l120 -152h-109l-65 79zM196 569v-178h334v-111h-334v-169h374v-111h-494v680h494v-111h-374z" />
    <glyph glyph-name="Edieresis" unicode="&#xcb;" horiz-adv-x="617" 
d="M215 754c-20 0 -37.167 6.66699 -51.5 20s-21.5 30 -21.5 50s7.16699 36.667 21.5 50s31.5 20 51.5 20c20.667 0 38 -6.66699 52 -20s21 -30 21 -50s-7 -36.667 -21 -50s-31.333 -20 -52 -20zM423 754c-20 0 -37.167 6.66699 -51.5 20s-21.5 30 -21.5 50
s7.16699 36.667 21.5 50s31.5 20 51.5 20c20.667 0 38 -6.66699 52 -20s21 -30 21 -50s-7 -36.667 -21 -50s-31.333 -20 -52 -20zM196 569v-178h334v-111h-334v-169h374v-111h-494v680h494v-111h-374z" />
    <glyph glyph-name="Igrave" unicode="&#xcc;" horiz-adv-x="273" 
d="M196 680v-680h-120v680h120zM201 755h-105l-98 149h128z" />
    <glyph glyph-name="Iacute" unicode="&#xcd;" horiz-adv-x="273" 
d="M196 680v-680h-120v680h120zM284 904l-98 -149h-105l75 149h128z" />
    <glyph glyph-name="Icircumflex" unicode="&#xce;" horiz-adv-x="273" 
d="M136 835l-67 -79h-108l119 152h110l120 -152h-109zM196 680v-680h-120v680h120z" />
    <glyph glyph-name="Idieresis" unicode="&#xcf;" horiz-adv-x="273" 
d="M31 894c20.667 0 38 -6.66699 52 -20s21 -30 21 -50s-7 -36.667 -21 -50s-31.333 -20 -52 -20c-20 0 -37.167 6.66699 -51.5 20s-21.5 30 -21.5 50s7.16699 36.667 21.5 50s31.5 20 51.5 20zM239 894c20.667 0 38 -6.66699 52 -20s21 -30 21 -50s-7 -36.667 -21 -50
s-31.333 -20 -52 -20c-20 0 -37.167 6.66699 -51.5 20s-21.5 30 -21.5 50s7.16699 36.667 21.5 50s31.5 20 51.5 20zM196 680v-680h-120v680h120z" />
    <glyph glyph-name="Eth" unicode="&#xd0;" horiz-adv-x="741" 
d="M76 680h256c104 0 190.333 -32 259 -96s103 -144.333 103 -241c0 -99.333 -34.333 -181.333 -103 -246s-155 -97 -259 -97h-256v278h-64v111h64v291zM196 111l136.001 -0.000976562c68 0 124.667 22.333 170 67c46.667 44.667 70 99.667 70 165
c0 64.667 -23.333 118.334 -70 161.001c-46.667 43.333 -103.334 65 -170.001 65h-136v-180h136v-111h-136v-167z" />
    <glyph glyph-name="Ntilde" unicode="&#xd1;" horiz-adv-x="754" 
d="M388 776l-46.999 29c-17.333 7.33301 -30 8.5 -38 3.5s-12 -14.833 -12 -29.5h-93c0 28.667 5.83301 53 17.5 73s26 34.167 43 42.5s35.167 12.166 54.5 11.499s36.666 -6 51.999 -16l46 -29c34 -16 51 -7.33301 51 26h92c0 -28.667 -5.66699 -53 -17 -73
s-25.5 -34.167 -42.5 -42.5s-35 -12.166 -54 -11.499s-36.5 6 -52.5 16zM678.001 680v-680h-95l-387 457v-457h-120v680h90l392 -469v469h120z" />
    <glyph glyph-name="Ograve" unicode="&#xd2;" horiz-adv-x="820" 
d="M475 755h-105l-98 149h128zM159 590c69.333 69.333 153.002 103.998 251.002 103.998c97.333 0 180.666 -34.667 249.999 -104s104 -152.666 104 -249.999c0 -98 -34.667 -181.667 -104 -251c-68.667 -68.667 -152 -103 -250 -103
c-98.667 0 -182.334 34.333 -251.001 103s-103 152.334 -103 251.001c0 98 34.333 181.333 103 250zM411.002 97.998c65.333 0 120.332 23.333 164.999 70s67 104 67 172c0 67.333 -22.333 124.333 -67 171c-45.333 47.333 -100.333 71 -165 71
c-65.333 0 -120.666 -23.667 -165.999 -71c-44.667 -46.667 -67 -103.667 -67 -171c0 -68 22.333 -125.333 67 -172s100 -70 166 -70z" />
    <glyph glyph-name="Oacute" unicode="&#xd3;" horiz-adv-x="820" 
d="M557 904l-98 -149h-105l75 149h128zM159 590c69.333 69.333 153.002 103.998 251.002 103.998c97.333 0 180.666 -34.667 249.999 -104s104 -152.666 104 -249.999c0 -98 -34.667 -181.667 -104 -251c-68.667 -68.667 -152 -103 -250 -103
c-98.667 0 -182.334 34.333 -251.001 103s-103 152.334 -103 251.001c0 98 34.333 181.333 103 250zM411.002 97.998c65.333 0 120.332 23.333 164.999 70s67 104 67 172c0 67.333 -22.333 124.333 -67 171c-45.333 47.333 -100.333 71 -165 71
c-65.333 0 -120.666 -23.667 -165.999 -71c-44.667 -46.667 -67 -103.667 -67 -171c0 -68 22.333 -125.333 67 -172s100 -70 166 -70z" />
    <glyph glyph-name="Ocircumflex" unicode="&#xd4;" horiz-adv-x="820" 
d="M410 835l-67 -79h-108l119 152h110l120 -152h-109zM159 590c69.333 69.333 153.002 103.998 251.002 103.998c97.333 0 180.666 -34.667 249.999 -104s104 -152.666 104 -249.999c0 -98 -34.667 -181.667 -104 -251c-68.667 -68.667 -152 -103 -250 -103
c-98.667 0 -182.334 34.333 -251.001 103s-103 152.334 -103 251.001c0 98 34.333 181.333 103 250zM411.002 97.998c65.333 0 120.332 23.333 164.999 70s67 104 67 172c0 67.333 -22.333 124.333 -67 171c-45.333 47.333 -100.333 71 -165 71
c-65.333 0 -120.666 -23.667 -165.999 -71c-44.667 -46.667 -67 -103.667 -67 -171c0 -68 22.333 -125.333 67 -172s100 -70 166 -70z" />
    <glyph glyph-name="Otilde" unicode="&#xd5;" horiz-adv-x="820" 
d="M495 887h92.001c0 -28.667 -5.66699 -53 -17 -73s-25.5 -34.167 -42.5 -42.5s-35 -12.166 -54 -11.499s-36.5 6 -52.5 16l-47 29c-17.333 7.33301 -30 8.5 -38 3.5s-12 -14.833 -12 -29.5h-93c0 28.667 5.83301 53 17.5 73s26 34.167 43 42.5s35.167 12.166 54.5 11.499
s36.666 -6 51.999 -16l46 -29c34 -16 51 -7.33301 51 26zM159.001 590c69.333 69.333 153.002 103.998 251.002 103.998c97.333 0 180.666 -34.667 249.999 -104s104 -152.666 104 -249.999c0 -98 -34.667 -181.667 -104 -251c-68.667 -68.667 -152 -103 -250 -103
c-98.667 0 -182.334 34.333 -251.001 103s-103 152.334 -103 251.001c0 98 34.333 181.333 103 250zM411.003 97.998c65.333 0 120.332 23.333 164.999 70s67 104 67 172c0 67.333 -22.333 124.333 -67 171c-45.333 47.333 -100.333 71 -165 71
c-65.333 0 -120.666 -23.667 -165.999 -71c-44.667 -46.667 -67 -103.667 -67 -171c0 -68 22.333 -125.333 67 -172s100 -70 166 -70z" />
    <glyph glyph-name="Odieresis" unicode="&#xd6;" horiz-adv-x="820" 
d="M305 894c20.667 0 38 -6.66699 52 -20s21 -30 21 -50s-7 -36.667 -21 -50s-31.333 -20 -52 -20c-20 0 -37.167 6.66699 -51.5 20s-21.5 30 -21.5 50s7.16699 36.667 21.5 50s31.5 20 51.5 20zM513 894c20.667 0 38 -6.66699 52 -20s21 -30 21 -50s-7 -36.667 -21 -50
s-31.333 -20 -52 -20c-20 0 -37.167 6.66699 -51.5 20s-21.5 30 -21.5 50s7.16699 36.667 21.5 50s31.5 20 51.5 20zM159 590c69.333 69.333 153.002 103.998 251.002 103.998c97.333 0 180.666 -34.667 249.999 -104s104 -152.666 104 -249.999
c0 -98 -34.667 -181.667 -104 -251c-68.667 -68.667 -152 -103 -250 -103c-98.667 0 -182.334 34.333 -251.001 103s-103 152.334 -103 251.001c0 98 34.333 181.333 103 250zM411.002 97.998c65.333 0 120.332 23.333 164.999 70s67 104 67 172
c0 67.333 -22.333 124.333 -67 171c-45.333 47.333 -100.333 71 -165 71c-65.333 0 -120.666 -23.667 -165.999 -71c-44.667 -46.667 -67 -103.667 -67 -171c0 -68 22.333 -125.333 67 -172s100 -70 166 -70z" />
    <glyph glyph-name="multiply" unicode="&#xd7;" horiz-adv-x="677" 
d="M560 176l-76 -76l-145 146l-146 -146l-76 76l146 146l-146 145l76 76l146 -145l145 145l76 -76l-145 -145z" />
    <glyph glyph-name="Oslash" unicode="&#xd8;" horiz-adv-x="820" 
d="M716 635l-46 -55c62.667 -67.333 94 -147.333 94 -240c0 -98 -34.667 -181.667 -104 -251c-68.667 -68.667 -152 -103 -250 -103c-68 0 -131.667 18.667 -191 56l-54 -64l-72 60l54 64c-60.667 66.667 -91 146 -91 238c0 98 34.333 181.333 103 250
c69.333 69.333 153 104 251 104c68 0 131 -18 189 -54l46 55zM178 340c0 -54.667 15.332 -103.333 45.999 -146l301 358c-36 20 -74 30 -114 30c-65.333 0 -120.666 -23.667 -165.999 -71c-44.667 -46.667 -67 -103.667 -67 -171zM410.999 98.001
c65.333 0 120.333 23.333 165 70s67 104 67 172c0 57.333 -16.333 107.333 -49 150l-301 -360c36.667 -21.333 76 -32 118 -32z" />
    <glyph glyph-name="Ugrave" unicode="&#xd9;" horiz-adv-x="734" 
d="M432 755h-105l-98 149h128zM667 680l-0.00195312 -378.001c0 -97.333 -27.333 -174.333 -82 -231c-55.333 -57.333 -128.333 -86 -219 -86c-90 0 -162.667 28.667 -218 86c-54.667 56.667 -82 133.667 -82 231v378h120v-378c0 -61.333 16.333 -110.666 49 -147.999
c32.667 -38 76.334 -57 131.001 -57s98.334 19 131.001 57c34 38 51 87.333 51 148v378h119z" />
    <glyph glyph-name="Uacute" unicode="&#xda;" horiz-adv-x="734" 
d="M515 904l-98 -149h-105l75 149h128zM667 680l-0.00195312 -378.001c0 -97.333 -27.333 -174.333 -82 -231c-55.333 -57.333 -128.333 -86 -219 -86c-90 0 -162.667 28.667 -218 86c-54.667 56.667 -82 133.667 -82 231v378h120v-378
c0 -61.333 16.333 -110.666 49 -147.999c32.667 -38 76.334 -57 131.001 -57s98.334 19 131.001 57c34 38 51 87.333 51 148v378h119z" />
    <glyph glyph-name="Ucircumflex" unicode="&#xdb;" horiz-adv-x="734" 
d="M368 835l-67 -79h-108l119 152h110l120 -152h-109zM667 680l-0.00195312 -378.001c0 -97.333 -27.333 -174.333 -82 -231c-55.333 -57.333 -128.333 -86 -219 -86c-90 0 -162.667 28.667 -218 86c-54.667 56.667 -82 133.667 -82 231v378h120v-378
c0 -61.333 16.333 -110.666 49 -147.999c32.667 -38 76.334 -57 131.001 -57s98.334 19 131.001 57c34 38 51 87.333 51 148v378h119z" />
    <glyph glyph-name="Udieresis" unicode="&#xdc;" horiz-adv-x="734" 
d="M263 894c20.667 0 38 -6.66699 52 -20s21 -30 21 -50s-7 -36.667 -21 -50s-31.333 -20 -52 -20c-20 0 -37.167 6.66699 -51.5 20s-21.5 30 -21.5 50s7.16699 36.667 21.5 50s31.5 20 51.5 20zM471 894c20.667 0 38 -6.66699 52 -20s21 -30 21 -50s-7 -36.667 -21 -50
s-31.333 -20 -52 -20c-20 0 -37.167 6.66699 -51.5 20s-21.5 30 -21.5 50s7.16699 36.667 21.5 50s31.5 20 51.5 20zM667 680l-0.00195312 -378.001c0 -97.333 -27.333 -174.333 -82 -231c-55.333 -57.333 -128.333 -86 -219 -86c-90 0 -162.667 28.667 -218 86
c-54.667 56.667 -82 133.667 -82 231v378h120v-378c0 -61.333 16.333 -110.666 49 -147.999c32.667 -38 76.334 -57 131.001 -57s98.334 19 131.001 57c34 38 51 87.333 51 148v378h119z" />
    <glyph glyph-name="Yacute" unicode="&#xdd;" horiz-adv-x="689" 
d="M394 755h-105l75 149h128zM406 230v-1h-1v-229h-121v231l-273 449h133l200 -333l201 333h133z" />
    <glyph glyph-name="Thorn" unicode="&#xde;" horiz-adv-x="627" 
d="M196 582h136c81.333 0 146.333 -21.333 195 -64c49.333 -43.333 74 -100 74 -170c0 -75.333 -26.333 -135.333 -79 -180c-51.333 -44.667 -120.333 -67 -207 -67h-119v-101h-120v680h120v-98zM196 211l132 -0.000976562c46 0 83.167 12.667 111.5 38s42.5 58.333 42.5 99
c0 36.667 -14.167 66.334 -42.5 89.001s-65.5 34 -111.5 34h-132v-260z" />
    <glyph glyph-name="germandbls" unicode="&#xdf;" horiz-adv-x="652" 
d="M584 401l-147.002 -180.002c56 -8 100.667 -29.667 134 -65s50 -79.666 50 -132.999c0 -66 -22.667 -119.667 -68 -161s-105.333 -62 -180 -62c-60 0 -116.667 9.33301 -170 28v105c52 -20.667 107 -31 165 -31c44.667 0 79.334 11 104.001 33s37 50 37 84
c0 32 -11 57.333 -33 76s-51 28 -87 28h-113v57l149 187h-243v-367h-115v545c0 60.667 18.667 110.334 56 149.001c38 38 87.667 57 149 57v-113c-27.333 0 -49.166 -8.5 -65.499 -25.5s-24.5 -39.5 -24.5 -67.5v-72h402v-72z" />
    <glyph glyph-name="agrave" unicode="&#xe0;" horiz-adv-x="611" 
d="M273 554l-98 149h128l75 -149h-105zM543 473v-473h-115v33c-41.333 -29.333 -89.666 -44 -144.999 -44c-66 0 -122.333 24 -169 72c-46 48 -69 106.333 -69 175s23 127 69 175c46.667 48.667 103 73 169 73c55.333 0 103.666 -14.667 144.999 -44v33h115zM300 89
c55.333 0 97.999 22.335 127.999 67.002v161c-30 44.667 -72.667 67 -128 67c-39.333 0 -72.666 -14.667 -99.999 -44c-26.667 -28.667 -40 -63.334 -40 -104.001s13.333 -75.334 40 -104.001s60 -43 100 -43z" />
    <glyph glyph-name="aacute" unicode="&#xe1;" horiz-adv-x="611" 
d="M363 554h-105l75 149h128zM543 473v-473h-115v33c-41.333 -29.333 -89.666 -44 -144.999 -44c-66 0 -122.333 24 -169 72c-46 48 -69 106.333 -69 175s23 127 69 175c46.667 48.667 103 73 169 73c55.333 0 103.666 -14.667 144.999 -44v33h115zM300 89
c55.333 0 97.999 22.335 127.999 67.002v161c-30 44.667 -72.667 67 -128 67c-39.333 0 -72.666 -14.667 -99.999 -44c-26.667 -28.667 -40 -63.334 -40 -104.001s13.333 -75.334 40 -104.001s60 -43 100 -43z" />
    <glyph glyph-name="acircumflex" unicode="&#xe2;" horiz-adv-x="611" 
d="M247 545h-108l119 152h110l120 -152h-109l-65 79zM543 473v-473h-115v33c-41.333 -29.333 -89.666 -44 -144.999 -44c-66 0 -122.333 24 -169 72c-46 48 -69 106.333 -69 175s23 127 69 175c46.667 48.667 103 73 169 73c55.333 0 103.666 -14.667 144.999 -44v33h115z
M300 89c55.333 0 97.999 22.335 127.999 67.002v161c-30 44.667 -72.667 67 -128 67c-39.333 0 -72.666 -14.667 -99.999 -44c-26.667 -28.667 -40 -63.334 -40 -104.001s13.333 -75.334 40 -104.001s60 -43 100 -43z" />
    <glyph glyph-name="atilde" unicode="&#xe3;" horiz-adv-x="611" 
d="M328 575l-46.999 29c-17.333 7.33301 -30 8.5 -38 3.5s-12 -14.833 -12 -29.5h-93c0 28.667 5.83301 53 17.5 73s26 34.167 43 42.5s35.167 12.166 54.5 11.499s36.666 -6 51.999 -16l46 -29c34 -16 51 -7.33301 51 26h92c0 -28.667 -5.66699 -53 -17 -73
s-25.5 -34.167 -42.5 -42.5s-35 -12.166 -54 -11.499s-36.5 6 -52.5 16zM543.001 473v-473h-115v33c-41.333 -29.333 -89.666 -44 -144.999 -44c-66 0 -122.333 24 -169 72c-46 48 -69 106.333 -69 175s23 127 69 175c46.667 48.667 103 73 169 73
c55.333 0 103.666 -14.667 144.999 -44v33h115zM300.001 89c55.333 0 97.999 22.335 127.999 67.002v161c-30 44.667 -72.667 67 -128 67c-39.333 0 -72.666 -14.667 -99.999 -44c-26.667 -28.667 -40 -63.334 -40 -104.001s13.333 -75.334 40 -104.001s60 -43 100 -43z" />
    <glyph glyph-name="adieresis" unicode="&#xe4;" horiz-adv-x="611" 
d="M210 556c-20 0 -37.167 6.66699 -51.5 20s-21.5 30 -21.5 50s7.16699 36.667 21.5 50s31.5 20 51.5 20c20.667 0 38 -6.66699 52 -20s21 -30 21 -50s-7 -36.667 -21 -50s-31.333 -20 -52 -20zM418 556c-20 0 -37.167 6.66699 -51.5 20s-21.5 30 -21.5 50
s7.16699 36.667 21.5 50s31.5 20 51.5 20c20.667 0 38 -6.66699 52 -20s21 -30 21 -50s-7 -36.667 -21 -50s-31.333 -20 -52 -20zM543 473v-473h-115v33c-41.333 -29.333 -89.666 -44 -144.999 -44c-66 0 -122.333 24 -169 72c-46 48 -69 106.333 -69 175s23 127 69 175
c46.667 48.667 103 73 169 73c55.333 0 103.666 -14.667 144.999 -44v33h115zM300 89c55.333 0 97.999 22.335 127.999 67.002v161c-30 44.667 -72.667 67 -128 67c-39.333 0 -72.666 -14.667 -99.999 -44c-26.667 -28.667 -40 -63.334 -40 -104.001
s13.333 -75.334 40 -104.001s60 -43 100 -43z" />
    <glyph glyph-name="aring" unicode="&#xe5;" horiz-adv-x="611" 
d="M394 571c-21.333 -19.333 -48.333 -28.998 -81 -28.998s-59.667 9.66699 -81 29c-20 19.333 -30 44.666 -30 75.999s10 56.666 30 75.999c21.333 19.333 48.333 29 81 29s59.667 -9.66699 81 -29c20.667 -18.667 31 -44 31 -76s-10.333 -57.333 -31 -76zM313 693.002
c-18.667 1.33301 -32 -6 -40 -22s-8 -32 0 -48s21.333 -23.333 40 -22c19.333 -1.33301 33 6 41 22s8 32 0 48s-21.667 23.333 -41 22zM543 473.002v-473h-115v33c-41.333 -29.333 -89.666 -44 -144.999 -44c-66 0 -122.333 24 -169 72c-46 48 -69 106.333 -69 175
s23 127 69 175c46.667 48.667 103 73 169 73c55.333 0 103.666 -14.667 144.999 -44v33h115zM300 89.002c55.333 0 97.999 22.335 127.999 67.002v161c-30 44.667 -72.667 67 -128 67c-39.333 0 -72.666 -14.667 -99.999 -44c-26.667 -28.667 -40 -63.334 -40 -104.001
s13.333 -75.334 40 -104.001s60 -43 100 -43z" />
    <glyph glyph-name="ae" unicode="&#xe6;" horiz-adv-x="895" 
d="M850 244c0 -23.333 -1 -40.999 -3 -52.999h-1h-362c8 -32.667 23.667 -58.167 47 -76.5s53.666 -27.5 90.999 -27.5c46.667 0 78.667 14.667 96 44h123c-13.333 -43.333 -40.166 -77.833 -80.499 -103.5s-87.5 -38.5 -141.5 -38.5c-79.333 0 -142.333 26.333 -189 79
c-62.667 -52 -128 -78 -196 -78c-60.667 0 -108.834 13.667 -144.501 41s-53.5 64.666 -53.5 111.999c0 43.333 15.833 76.5 47.5 99.5s75.834 34.5 132.501 34.5h154c0 74 -34 111 -102 111c-26.667 0 -48.667 -6 -66 -18s-27.333 -28.667 -30 -50h-116
c2.66699 54 25 95.333 67 124c40.667 28.667 89 43 145 43c74.667 0 131.667 -24 171 -72c47.333 46 107.333 69 180 69c67.333 0 122.333 -22.333 165 -67c43.333 -45.333 65.333 -103 66 -173zM614 386.001c-35.333 0 -64.3311 -9.83301 -86.998 -29.5
s-37.334 -46.167 -44.001 -79.5h250c-4.66699 34 -17.334 60.667 -38.001 80s-47.667 29 -81 29zM240.002 85.001c50.667 0 99.333 18.001 146 54.001c-6.66699 14 -11.334 31.333 -14.001 52h-163c-19.333 0 -34.666 -3.83301 -45.999 -11.5s-17 -18.167 -17 -31.5
c0 -18.667 8 -33.834 24 -45.501s39.333 -17.5 70 -17.5z" />
    <glyph glyph-name="ccedilla" unicode="&#xe7;" horiz-adv-x="573" 
d="M296 93c29.333 0 54.3311 7.66602 74.998 22.999s33.667 35.666 39 60.999h118c-7.33301 -55.333 -32.666 -100.666 -75.999 -135.999c-42.667 -34.667 -94.667 -52 -156 -52c-70.667 0 -130.334 23.667 -179.001 71c-48 46.667 -72 105.334 -72 176.001
s24 129.667 72 177c48.667 47.333 108.334 71 179.001 71c60 0 111.667 -17.667 155 -53c44.667 -35.333 70.334 -80.333 77.001 -135h-118c-5.33301 25.333 -18.333 45.5 -39 60.5s-45.667 22.5 -75 22.5c-39.333 0 -71.833 -13.667 -97.5 -41s-38.5 -61.333 -38.5 -102
s12.833 -74.667 38.5 -102s58.167 -41 97.5 -41zM237.998 -55.001h114l-59 -156h-99z" />
    <glyph glyph-name="egrave" unicode="&#xe8;" horiz-adv-x="572" 
d="M253 554l-98 149h128l75 -149h-105zM527 244c0 -23.333 -1 -40.999 -3 -52.999h-1h-362c8 -32.667 23.667 -58.167 47 -76.5s53.666 -27.5 90.999 -27.5c46.667 0 78.667 14.667 96 44h123c-13.333 -43.333 -40.166 -77.833 -80.499 -103.5s-87.5 -38.5 -141.5 -38.5
c-74.667 0 -135.334 23.333 -182.001 70c-46 47.333 -69 106.333 -69 177s23 129.667 69 177c47.333 47.333 108 71 182 71c66.667 0 121.334 -22.333 164.001 -67c44 -44.667 66.333 -102.334 67 -173.001zM290 386.001c-34.667 0 -63.3311 -9.83301 -85.998 -29.5
s-37.334 -46.167 -44.001 -79.5h250c-4.66699 34 -17.334 60.667 -38.001 80s-48 29 -82 29z" />
    <glyph glyph-name="eacute" unicode="&#xe9;" horiz-adv-x="572" 
d="M342 554h-105l75 149h128zM527 244c0 -23.333 -1 -40.999 -3 -52.999h-1h-362c8 -32.667 23.667 -58.167 47 -76.5s53.666 -27.5 90.999 -27.5c46.667 0 78.667 14.667 96 44h123c-13.333 -43.333 -40.166 -77.833 -80.499 -103.5s-87.5 -38.5 -141.5 -38.5
c-74.667 0 -135.334 23.333 -182.001 70c-46 47.333 -69 106.333 -69 177s23 129.667 69 177c47.333 47.333 108 71 182 71c66.667 0 121.334 -22.333 164.001 -67c44 -44.667 66.333 -102.334 67 -173.001zM290 386.001c-34.667 0 -63.3311 -9.83301 -85.998 -29.5
s-37.334 -46.167 -44.001 -79.5h250c-4.66699 34 -17.334 60.667 -38.001 80s-48 29 -82 29z" />
    <glyph glyph-name="ecircumflex" unicode="&#xea;" horiz-adv-x="572" 
d="M226 545h-108l119 152h110l120 -152h-109l-65 79zM527 244c0 -23.333 -1 -40.999 -3 -52.999h-1h-362c8 -32.667 23.667 -58.167 47 -76.5s53.666 -27.5 90.999 -27.5c46.667 0 78.667 14.667 96 44h123c-13.333 -43.333 -40.166 -77.833 -80.499 -103.5
s-87.5 -38.5 -141.5 -38.5c-74.667 0 -135.334 23.333 -182.001 70c-46 47.333 -69 106.333 -69 177s23 129.667 69 177c47.333 47.333 108 71 182 71c66.667 0 121.334 -22.333 164.001 -67c44 -44.667 66.333 -102.334 67 -173.001zM290 386.001
c-34.667 0 -63.3311 -9.83301 -85.998 -29.5s-37.334 -46.167 -44.001 -79.5h250c-4.66699 34 -17.334 60.667 -38.001 80s-48 29 -82 29z" />
    <glyph glyph-name="edieresis" unicode="&#xeb;" horiz-adv-x="572" 
d="M189 556c-20 0 -37.167 6.66699 -51.5 20s-21.5 30 -21.5 50s7.16699 36.667 21.5 50s31.5 20 51.5 20c20.667 0 38 -6.66699 52 -20s21 -30 21 -50s-7 -36.667 -21 -50s-31.333 -20 -52 -20zM397 556c-20 0 -37.167 6.66699 -51.5 20s-21.5 30 -21.5 50
s7.16699 36.667 21.5 50s31.5 20 51.5 20c20.667 0 38 -6.66699 52 -20s21 -30 21 -50s-7 -36.667 -21 -50s-31.333 -20 -52 -20zM527 244c0 -23.333 -1 -40.999 -3 -52.999h-1h-362c8 -32.667 23.667 -58.167 47 -76.5s53.666 -27.5 90.999 -27.5
c46.667 0 78.667 14.667 96 44h123c-13.333 -43.333 -40.166 -77.833 -80.499 -103.5s-87.5 -38.5 -141.5 -38.5c-74.667 0 -135.334 23.333 -182.001 70c-46 47.333 -69 106.333 -69 177s23 129.667 69 177c47.333 47.333 108 71 182 71
c66.667 0 121.334 -22.333 164.001 -67c44 -44.667 66.333 -102.334 67 -173.001zM290 386.001c-34.667 0 -63.3311 -9.83301 -85.998 -29.5s-37.334 -46.167 -44.001 -79.5h250c-4.66699 34 -17.334 60.667 -38.001 80s-48 29 -82 29z" />
    <glyph glyph-name="igrave" unicode="&#xec;" horiz-adv-x="266" 
d="M191 473v-473h-115v473h115zM198 554h-105l-98 149h128z" />
    <glyph glyph-name="iacute" unicode="&#xed;" horiz-adv-x="266" 
d="M191 473v-473h-115v473h115zM280 703l-98 -149h-105l75 149h128z" />
    <glyph glyph-name="icircumflex" unicode="&#xee;" horiz-adv-x="266" 
d="M133 624l-67 -79h-108l119 152h110l120 -152h-109zM191 473v-473h-115v473h115z" />
    <glyph glyph-name="idieresis" unicode="&#xef;" horiz-adv-x="266" 
d="M29 696c20.667 0 38 -6.66699 52 -20s21 -30 21 -50s-7 -36.667 -21 -50s-31.333 -20 -52 -20c-20 0 -37.167 6.66699 -51.5 20s-21.5 30 -21.5 50s7.16699 36.667 21.5 50s31.5 20 51.5 20zM237 696c20.667 0 38 -6.66699 52 -20s21 -30 21 -50s-7 -36.667 -21 -50
s-31.333 -20 -52 -20c-20 0 -37.167 6.66699 -51.5 20s-21.5 30 -21.5 50s7.16699 36.667 21.5 50s31.5 20 51.5 20zM191 473v-473h-115v473h115z" />
    <glyph glyph-name="eth" unicode="&#xf0;" horiz-adv-x="589" 
d="M453 616l-53.998 -20c99.333 -99.333 149 -219.333 149 -360c0 -72 -24 -132 -72 -180c-48.667 -47.333 -108.334 -71 -179.001 -71c-71.333 0 -131.333 23.667 -180 71c-48 48 -72 108 -72 180c0 70.667 24 129.667 72 177c48.667 47.333 108.667 71 180 71
c24.667 0 49.334 -5 74.001 -15c-19.333 29.333 -46 58.666 -80 87.999l-149 -54l-29 76l95 35c-28.667 16.667 -63.334 33.667 -104.001 51l117 50c35.333 -15.333 70.666 -34.666 105.999 -57.999l97 35zM433.002 236c0 40.667 -12.834 74.667 -38.501 102
s-58.167 41 -97.5 41c-40 0 -72.833 -13.667 -98.5 -41s-38.5 -61.333 -38.5 -102s12.667 -75.334 38 -104.001c26 -28 59 -42 99 -42c40.667 0 73.334 14 98.001 42c25.333 28.667 38 63.334 38 104.001z" />
    <glyph glyph-name="ntilde" unicode="&#xf1;" horiz-adv-x="595" 
d="M315 575l-46.999 29c-17.333 7.33301 -30 8.5 -38 3.5s-12 -14.833 -12 -29.5h-93c0 28.667 5.83301 53 17.5 73s26 34.167 43 42.5s35.167 12.166 54.5 11.499s36.666 -6 51.999 -16l46 -29c34 -16 51 -7.33301 51 26h92c0 -28.667 -5.66699 -53 -17 -73
s-25.5 -34.167 -42.5 -42.5s-35 -12.166 -54 -11.499s-36.5 6 -52.5 16zM329.001 488c62.667 0 113 -20.666 151 -61.999s57 -96.333 57 -165v-261h-116v254c0 41.333 -10.167 73.166 -30.5 95.499s-48.833 33.5 -85.5 33.5c-44 0 -84.667 -23 -122 -69v-314h-115v473h115
v-39c43.333 36 92 54 146 54z" />
    <glyph glyph-name="ograve" unicode="&#xf2;" horiz-adv-x="593" 
d="M361 554h-105l-98 149h128zM548 236c0 -72 -23.999 -132 -71.999 -180c-48.667 -47.333 -108.334 -71 -179.001 -71c-71.333 0 -131.333 23.667 -180 71c-48 48 -72 108 -72 180c0 70.667 24 129.667 72 177c48.667 47.333 108.667 71 180 71
c72 0 131.667 -23.667 179 -71c48 -47.333 72 -106.333 72 -177zM297.001 90c39.333 0 71.666 14 96.999 42c25.333 28.667 38 63.334 38 104.001s-12.667 74.667 -38 102s-57.666 41 -96.999 41c-40 0 -72.833 -13.667 -98.5 -41s-38.5 -61.333 -38.5 -102
s12.667 -75.334 38 -104.001c26 -28 59 -42 99 -42z" />
    <glyph glyph-name="oacute" unicode="&#xf3;" horiz-adv-x="593" 
d="M444 703l-98 -149h-105l75 149h128zM548 236c0 -72 -23.999 -132 -71.999 -180c-48.667 -47.333 -108.334 -71 -179.001 -71c-71.333 0 -131.333 23.667 -180 71c-48 48 -72 108 -72 180c0 70.667 24 129.667 72 177c48.667 47.333 108.667 71 180 71
c72 0 131.667 -23.667 179 -71c48 -47.333 72 -106.333 72 -177zM297.001 90c39.333 0 71.666 14 96.999 42c25.333 28.667 38 63.334 38 104.001s-12.667 74.667 -38 102s-57.666 41 -96.999 41c-40 0 -72.833 -13.667 -98.5 -41s-38.5 -61.333 -38.5 -102
s12.667 -75.334 38 -104.001c26 -28 59 -42 99 -42z" />
    <glyph glyph-name="ocircumflex" unicode="&#xf4;" horiz-adv-x="593" 
d="M297 624l-67 -79h-108l119 152h110l120 -152h-109zM548 236c0 -72 -23.999 -132 -71.999 -180c-48.667 -47.333 -108.334 -71 -179.001 -71c-71.333 0 -131.333 23.667 -180 71c-48 48 -72 108 -72 180c0 70.667 24 129.667 72 177c48.667 47.333 108.667 71 180 71
c72 0 131.667 -23.667 179 -71c48 -47.333 72 -106.333 72 -177zM297.001 90c39.333 0 71.666 14 96.999 42c25.333 28.667 38 63.334 38 104.001s-12.667 74.667 -38 102s-57.666 41 -96.999 41c-40 0 -72.833 -13.667 -98.5 -41s-38.5 -61.333 -38.5 -102
s12.667 -75.334 38 -104.001c26 -28 59 -42 99 -42z" />
    <glyph glyph-name="otilde" unicode="&#xf5;" horiz-adv-x="593" 
d="M386 686h92.001c0 -28.667 -5.66699 -53 -17 -73s-25.5 -34.167 -42.5 -42.5s-35 -12.166 -54 -11.499s-36.5 6 -52.5 16l-47 29c-17.333 7.33301 -30 8.5 -38 3.5s-12 -14.833 -12 -29.5h-93c0 28.667 5.83301 53 17.5 73s26 34.167 43 42.5s35.167 12.166 54.5 11.499
s36.666 -6 51.999 -16l46 -29c34 -16 51 -7.33301 51 26zM548.001 236c0 -72 -23.999 -132 -71.999 -180c-48.667 -47.333 -108.334 -71 -179.001 -71c-71.333 0 -131.333 23.667 -180 71c-48 48 -72 108 -72 180c0 70.667 24 129.667 72 177
c48.667 47.333 108.667 71 180 71c72 0 131.667 -23.667 179 -71c48 -47.333 72 -106.333 72 -177zM297.002 90c39.333 0 71.666 14 96.999 42c25.333 28.667 38 63.334 38 104.001s-12.667 74.667 -38 102s-57.666 41 -96.999 41c-40 0 -72.833 -13.667 -98.5 -41
s-38.5 -61.333 -38.5 -102s12.667 -75.334 38 -104.001c26 -28 59 -42 99 -42z" />
    <glyph glyph-name="odieresis" unicode="&#xf6;" horiz-adv-x="593" 
d="M193 696c20.667 0 38 -6.66699 52 -20s21 -30 21 -50s-7 -36.667 -21 -50s-31.333 -20 -52 -20c-20 0 -37.167 6.66699 -51.5 20s-21.5 30 -21.5 50s7.16699 36.667 21.5 50s31.5 20 51.5 20zM401 696c20.667 0 38 -6.66699 52 -20s21 -30 21 -50s-7 -36.667 -21 -50
s-31.333 -20 -52 -20c-20 0 -37.167 6.66699 -51.5 20s-21.5 30 -21.5 50s7.16699 36.667 21.5 50s31.5 20 51.5 20zM548 236c0 -72 -23.999 -132 -71.999 -180c-48.667 -47.333 -108.334 -71 -179.001 -71c-71.333 0 -131.333 23.667 -180 71c-48 48 -72 108 -72 180
c0 70.667 24 129.667 72 177c48.667 47.333 108.667 71 180 71c72 0 131.667 -23.667 179 -71c48 -47.333 72 -106.333 72 -177zM297.001 90c39.333 0 71.666 14 96.999 42c25.333 28.667 38 63.334 38 104.001s-12.667 74.667 -38 102s-57.666 41 -96.999 41
c-40 0 -72.833 -13.667 -98.5 -41s-38.5 -61.333 -38.5 -102s12.667 -75.334 38 -104.001c26 -28 59 -42 99 -42z" />
    <glyph glyph-name="divide" unicode="&#xf7;" horiz-adv-x="685" 
d="M342 456c-18.667 0 -34.667 6.33301 -48 19s-20 28.334 -20 47.001s6.66699 34.334 20 47.001s29.333 19 48 19c19.333 0 35.833 -6.33301 49.5 -19s20.5 -28.334 20.5 -47.001s-6.83301 -34.334 -20.5 -47.001s-30.167 -19 -49.5 -19zM104 383h477v-106h-477v106z
M342 77c-18.667 0 -34.667 6.33301 -48 19s-20 28.334 -20 47.001s6.66699 34.334 20 47.001s29.333 19 48 19c19.333 0 35.833 -6.33301 49.5 -19s20.5 -28.334 20.5 -47.001s-6.83301 -34.334 -20.5 -47.001s-30.167 -19 -49.5 -19z" />
    <glyph glyph-name="oslash" unicode="&#xf8;" horiz-adv-x="593" 
d="M512 435l-25.998 -30.999c41.333 -47.333 62 -103.333 62 -168c0 -72 -24 -132 -72 -180c-48.667 -47.333 -108.334 -71 -179.001 -71c-47.333 0 -91.333 11.667 -132 35l-28 -33l-61 50l28 33c-39.333 47.333 -59 102.666 -59 165.999c0 70.667 24 129.667 72 177
c48.667 47.333 108.667 71 180 71c47.333 0 89.666 -10.667 126.999 -32l27 33zM160.002 236.001c0 -28 6.33398 -53.333 19.001 -76l174 208c-18.667 7.33301 -37.334 11 -56.001 11c-40 0 -72.833 -13.667 -98.5 -41s-38.5 -61.333 -38.5 -102zM297.003 90.001
c39.333 0 71.667 14 97 42c25.333 28.667 38 63.334 38 104.001c0 29.333 -7 55.666 -21 78.999l-176 -211c20 -9.33301 40.667 -14 62 -14z" />
    <glyph glyph-name="ugrave" unicode="&#xf9;" horiz-adv-x="595" 
d="M256 554l-98 149h128l75 -149h-105zM527 473v-472.999h-115v40c-42.667 -36.667 -91.667 -55 -147 -55c-62 0 -112 20.667 -150 62c-38 40.667 -57 95.667 -57 165v261h115v-254c0 -40.667 10.333 -72.334 31 -95.001s49 -34 85 -34c45.333 0 86.333 23.333 123 70v313
h115z" />
    <glyph glyph-name="uacute" unicode="&#xfa;" horiz-adv-x="595" 
d="M346 554h-105l75 149h128zM527 473v-472.999h-115v40c-42.667 -36.667 -91.667 -55 -147 -55c-62 0 -112 20.667 -150 62c-38 40.667 -57 95.667 -57 165v261h115v-254c0 -40.667 10.333 -72.334 31 -95.001s49 -34 85 -34c45.333 0 86.333 23.333 123 70v313h115z" />
    <glyph glyph-name="ucircumflex" unicode="&#xfb;" horiz-adv-x="595" 
d="M230 545h-108l119 152h110l120 -152h-109l-65 79zM527 473v-472.999h-115v40c-42.667 -36.667 -91.667 -55 -147 -55c-62 0 -112 20.667 -150 62c-38 40.667 -57 95.667 -57 165v261h115v-254c0 -40.667 10.333 -72.334 31 -95.001s49 -34 85 -34
c45.333 0 86.333 23.333 123 70v313h115z" />
    <glyph glyph-name="udieresis" unicode="&#xfc;" horiz-adv-x="595" 
d="M193 556c-20 0 -37.167 6.66699 -51.5 20s-21.5 30 -21.5 50s7.16699 36.667 21.5 50s31.5 20 51.5 20c20.667 0 38 -6.66699 52 -20s21 -30 21 -50s-7 -36.667 -21 -50s-31.333 -20 -52 -20zM401 556c-20 0 -37.167 6.66699 -51.5 20s-21.5 30 -21.5 50
s7.16699 36.667 21.5 50s31.5 20 51.5 20c20.667 0 38 -6.66699 52 -20s21 -30 21 -50s-7 -36.667 -21 -50s-31.333 -20 -52 -20zM527 473v-472.999h-115v40c-42.667 -36.667 -91.667 -55 -147 -55c-62 0 -112 20.667 -150 62c-38 40.667 -57 95.667 -57 165v261h115v-254
c0 -40.667 10.333 -72.334 31 -95.001s49 -34 85 -34c45.333 0 86.333 23.333 123 70v313h115z" />
    <glyph glyph-name="yacute" unicode="&#xfd;" horiz-adv-x="623" 
d="M360 554h-105l75 149h128zM594 474l-309 -710h-122l96 220l-235 490h123l171 -355l155 355h121z" />
    <glyph glyph-name="thorn" unicode="&#xfe;" horiz-adv-x="604" 
d="M328 484c65.333 0 121.333 -24.334 168 -73.001s70 -107 70 -175c0 -69.333 -23.333 -127.666 -70 -174.999c-46 -48 -102 -72 -168 -72c-55.333 0 -103.333 14.667 -144 44v-270h-116v917h116v-240c40.667 29.333 88.667 44 144 44zM311 88.999
c40 0 73.332 14.3311 99.999 42.998s40 63.334 40 104.001s-13.333 75.334 -40 104.001c-27.333 29.333 -60.666 44 -99.999 44c-54.667 0 -97 -22 -127 -66v-163c30 -44 72.333 -66 127 -66z" />
    <glyph glyph-name="ydieresis" unicode="&#xff;" horiz-adv-x="623" 
d="M207 556c-20 0 -37.167 6.66699 -51.5 20s-21.5 30 -21.5 50s7.16699 36.667 21.5 50s31.5 20 51.5 20c20.667 0 38 -6.66699 52 -20s21 -30 21 -50s-7 -36.667 -21 -50s-31.333 -20 -52 -20zM415 556c-20 0 -37.167 6.66699 -51.5 20s-21.5 30 -21.5 50
s7.16699 36.667 21.5 50s31.5 20 51.5 20c20.667 0 38 -6.66699 52 -20s21 -30 21 -50s-7 -36.667 -21 -50s-31.333 -20 -52 -20zM594 474l-309 -710h-122l96 220l-235 490h123l171 -355l155 355h121z" />
    <glyph glyph-name="Amacron" unicode="&#x100;" horiz-adv-x="750" 
d="M515 759h-280v95h280v-95zM537 151h-324l-63 -151h-129l298 684h113l297 -684h-128zM491 262l-116 275l-115 -275h231z" />
    <glyph glyph-name="amacron" unicode="&#x101;" horiz-adv-x="611" 
d="M454 573h-280v95h280v-95zM543 473v-473h-115v33c-41.333 -29.333 -89.666 -44 -144.999 -44c-66 0 -122.333 24 -169 72c-46 48 -69 106.333 -69 175s23 127 69 175c46.667 48.667 103 73 169 73c55.333 0 103.666 -14.667 144.999 -44v33h115zM300 89
c55.333 0 97.999 22.335 127.999 67.002v161c-30 44.667 -72.667 67 -128 67c-39.333 0 -72.666 -14.667 -99.999 -44c-26.667 -28.667 -40 -63.334 -40 -104.001s13.333 -75.334 40 -104.001s60 -43 100 -43z" />
    <glyph glyph-name="Abreve" unicode="&#x102;" horiz-adv-x="750" 
d="M220 911h84c-2.66699 -32 8.5 -54.833 33.5 -68.5s50 -13.667 75 0s36.167 36.5 33.5 68.5h84c0 -48.667 -14.167 -86.5 -42.5 -113.5s-65.833 -40.5 -112.5 -40.5s-84.167 13.5 -112.5 40.5s-42.5 64.833 -42.5 113.5zM537 151h-324l-63 -151h-129l298 684h113l297 -684
h-128zM491 262l-116 275l-115 -275h231z" />
    <glyph glyph-name="abreve" unicode="&#x103;" horiz-adv-x="611" 
d="M159 694h84c-2.66699 -32 8.5 -54.833 33.5 -68.5s50 -13.667 75 0s36.167 36.5 33.5 68.5h84c0 -48.667 -14.167 -86.5 -42.5 -113.5s-65.833 -40.5 -112.5 -40.5s-84.167 13.5 -112.5 40.5s-42.5 64.833 -42.5 113.5zM543 473v-473h-115v33
c-41.333 -29.333 -89.666 -44 -144.999 -44c-66 0 -122.333 24 -169 72c-46 48 -69 106.333 -69 175s23 127 69 175c46.667 48.667 103 73 169 73c55.333 0 103.666 -14.667 144.999 -44v33h115zM300 89c55.333 0 97.999 22.335 127.999 67.002v161
c-30 44.667 -72.667 67 -128 67c-39.333 0 -72.666 -14.667 -99.999 -44c-26.667 -28.667 -40 -63.334 -40 -104.001s13.333 -75.334 40 -104.001s60 -43 100 -43z" />
    <glyph glyph-name="Aogonek" unicode="&#x104;" horiz-adv-x="750" 
d="M731 -75l11 -85c-18 -7.33301 -40.333 -11 -67 -11c-42.667 0 -77 10.333 -103 31s-39 48 -39 82c0 34.667 18.667 63 56 85l-52 124h-324l-63 -151h-129l298 684h113l297 -684h-50c-33.333 -9.33301 -50 -24.333 -50 -45c0 -23.333 20.333 -35 61 -35
c7.33301 0 21 1.66699 41 5zM491 262l-116 275l-115 -275h231z" />
    <glyph glyph-name="aogonek" unicode="&#x105;" horiz-adv-x="611" 
d="M576 -79l11 -85c-18 -7.33301 -40.333 -11 -67 -11c-42.667 0 -77 10.333 -103 31s-39 48 -39 82c0 32.667 16.667 59.667 50 81v14c-41.333 -29.333 -89.666 -44 -144.999 -44c-66 0 -122.333 24 -169 72c-46 48 -69 106.333 -69 175s23 127 69 175
c46.667 48.667 103 73 169 73c55.333 0 103.666 -14.667 144.999 -44v33h115v-473c-46 -8 -69 -24.333 -69 -49c0 -23.333 20.333 -35 61 -35c7.33301 0 21 1.66699 41 5zM300 89c55.333 0 97.999 22.335 127.999 67.002v161c-30 44.667 -72.667 67 -128 67
c-39.333 0 -72.666 -14.667 -99.999 -44c-26.667 -28.667 -40 -63.334 -40 -104.001s13.333 -75.334 40 -104.001s60 -43 100 -43z" />
    <glyph glyph-name="Cacute" unicode="&#x106;" horiz-adv-x="797" 
d="M460 755h-105l75 149h128zM410 101c53.333 0 97.833 14.165 133.5 42.498s60.167 68.5 73.5 120.5h123c-14.667 -83.333 -52.334 -150.666 -113.001 -201.999c-58.667 -50.667 -131 -76 -217 -76c-98.667 0 -182.667 33.667 -252 101
c-68 67.333 -102 151.666 -102 252.999s34 185.666 102 252.999c69.333 67.333 153.333 101 252 101c86 0 158.333 -25.333 217 -76c60.667 -51.333 98.334 -118.666 113.001 -201.999h-123c-13.333 52 -37.833 92.167 -73.5 120.5s-80.167 42.5 -133.5 42.5
c-67.333 0 -123 -22.333 -167 -67c-44 -45.333 -66 -102.666 -66 -171.999s22 -126.666 66 -171.999c44 -44.667 99.667 -67 167 -67z" />
    <glyph glyph-name="cacute" unicode="&#x107;" horiz-adv-x="573" 
d="M338 554h-105l75 149h128zM296 93c29.333 0 54.3311 7.66602 74.998 22.999s33.667 35.666 39 60.999h118c-7.33301 -55.333 -32.666 -100.666 -75.999 -135.999c-42.667 -34.667 -94.667 -52 -156 -52c-70.667 0 -130.334 23.667 -179.001 71
c-48 46.667 -72 105.334 -72 176.001s24 129.667 72 177c48.667 47.333 108.334 71 179.001 71c60 0 111.667 -17.667 155 -53c44.667 -35.333 70.334 -80.333 77.001 -135h-118c-5.33301 25.333 -18.333 45.5 -39 60.5s-45.667 22.5 -75 22.5
c-39.333 0 -71.833 -13.667 -97.5 -41s-38.5 -61.333 -38.5 -102s12.833 -74.667 38.5 -102s58.167 -41 97.5 -41z" />
    <glyph glyph-name="Cdotaccent" unicode="&#x10a;" horiz-adv-x="797" 
d="M462 774c-14 -13.333 -31.333 -20 -52 -20s-38 6.66699 -52 20s-21 30 -21 50s7 36.667 21 50s31.333 20 52 20s38 -6.66699 52 -20s21 -30 21 -50s-7 -36.667 -21 -50zM410 101c53.333 0 97.833 14.165 133.5 42.498s60.167 68.5 73.5 120.5h123
c-14.667 -83.333 -52.334 -150.666 -113.001 -201.999c-58.667 -50.667 -131 -76 -217 -76c-98.667 0 -182.667 33.667 -252 101c-68 67.333 -102 151.666 -102 252.999s34 185.666 102 252.999c69.333 67.333 153.333 101 252 101c86 0 158.333 -25.333 217 -76
c60.667 -51.333 98.334 -118.666 113.001 -201.999h-123c-13.333 52 -37.833 92.167 -73.5 120.5s-80.167 42.5 -133.5 42.5c-67.333 0 -123 -22.333 -167 -67c-44 -45.333 -66 -102.666 -66 -171.999s22 -126.666 66 -171.999c44 -44.667 99.667 -67 167 -67z" />
    <glyph glyph-name="cdotaccent" unicode="&#x10b;" horiz-adv-x="573" 
d="M296 93c29.333 0 54.3311 7.66602 74.998 22.999s33.667 35.666 39 60.999h118c-7.33301 -55.333 -32.666 -100.666 -75.999 -135.999c-42.667 -34.667 -94.667 -52 -156 -52c-70.667 0 -130.334 23.667 -179.001 71c-48 46.667 -72 105.334 -72 176.001
s24 129.667 72 177c48.667 47.333 108.334 71 179.001 71c60 0 111.667 -17.667 155 -53c44.667 -35.333 70.334 -80.333 77.001 -135h-118c-5.33301 25.333 -18.333 45.5 -39 60.5s-45.667 22.5 -75 22.5c-39.333 0 -71.833 -13.667 -97.5 -41s-38.5 -61.333 -38.5 -102
s12.833 -74.667 38.5 -102s58.167 -41 97.5 -41zM340.998 575.999c-14 -13.333 -31.333 -20 -52 -20s-38 6.66699 -52 20s-21 30 -21 50s7 36.667 21 50s31.333 20 52 20s38 -6.66699 52 -20s21 -30 21 -50s-7 -36.667 -21 -50z" />
    <glyph glyph-name="Ccaron" unicode="&#x10c;" horiz-adv-x="797" 
d="M354 747l-119 152h108l67 -79l65 79h109l-120 -152h-110zM410 101c53.333 0 97.833 14.165 133.5 42.498s60.167 68.5 73.5 120.5h123c-14.667 -83.333 -52.334 -150.666 -113.001 -201.999c-58.667 -50.667 -131 -76 -217 -76c-98.667 0 -182.667 33.667 -252 101
c-68 67.333 -102 151.666 -102 252.999s34 185.666 102 252.999c69.333 67.333 153.333 101 252 101c86 0 158.333 -25.333 217 -76c60.667 -51.333 98.334 -118.666 113.001 -201.999h-123c-13.333 52 -37.833 92.167 -73.5 120.5s-80.167 42.5 -133.5 42.5
c-67.333 0 -123 -22.333 -167 -67c-44 -45.333 -66 -102.666 -66 -171.999s22 -126.666 66 -171.999c44 -44.667 99.667 -67 167 -67z" />
    <glyph glyph-name="ccaron" unicode="&#x10d;" horiz-adv-x="573" 
d="M233 545l-119 152h108l67 -79l65 79h109l-120 -152h-110zM296 93c29.333 0 54.3311 7.66602 74.998 22.999s33.667 35.666 39 60.999h118c-7.33301 -55.333 -32.666 -100.666 -75.999 -135.999c-42.667 -34.667 -94.667 -52 -156 -52
c-70.667 0 -130.334 23.667 -179.001 71c-48 46.667 -72 105.334 -72 176.001s24 129.667 72 177c48.667 47.333 108.334 71 179.001 71c60 0 111.667 -17.667 155 -53c44.667 -35.333 70.334 -80.333 77.001 -135h-118c-5.33301 25.333 -18.333 45.5 -39 60.5
s-45.667 22.5 -75 22.5c-39.333 0 -71.833 -13.667 -97.5 -41s-38.5 -61.333 -38.5 -102s12.833 -74.667 38.5 -102s58.167 -41 97.5 -41z" />
    <glyph glyph-name="Dcaron" unicode="&#x10e;" horiz-adv-x="741" 
d="M285 747l-119 152h108l67 -79l65 79h109l-120 -152h-110zM76 680h256c104 0 190.333 -32 259 -96s103 -144.333 103 -241c0 -99.333 -34.333 -181.333 -103 -246s-155 -97 -259 -97h-256v680zM196 111l136.001 -0.000976562c68 0 124.667 22.333 170 67
c46.667 44.667 70 99.667 70 165c0 64.667 -23.333 118.334 -70 161.001c-46.667 43.333 -103.334 65 -170.001 65h-136v-458z" />
    <glyph glyph-name="dcaron" unicode="&#x10f;" horiz-adv-x="611" 
d="M428 710h115.001v-710h-115v34c-40.667 -30 -89 -45 -145 -45c-66.667 0 -123 24 -169 72s-69 106.667 -69 176c0 68.667 23 127 69 175c46.667 48 103 72 169 72c55.333 0 103.666 -14.667 144.999 -44v270zM731.001 710l-36 -199h-88l7 199h117zM300.001 89
c55.333 0 98 22.334 128 67.001v162c-30 44 -72.667 66 -128 66c-39.333 0 -72.666 -14.667 -99.999 -44c-26.667 -28.667 -40 -63 -40 -103c0 -40.667 13.333 -75.334 40 -104.001c27.333 -29.333 60.666 -44 99.999 -44z" />
    <glyph glyph-name="Dcroat" unicode="&#x110;" horiz-adv-x="741" 
d="M76 680h256c104 0 190.333 -32 259 -96s103 -144.333 103 -241c0 -99.333 -34.333 -181.333 -103 -246s-155 -97 -259 -97h-256v278h-64v111h64v291zM196 111l136.001 -0.000976562c68 0 124.667 22.333 170 67c46.667 44.667 70 99.667 70 165
c0 64.667 -23.333 118.334 -70 161.001c-46.667 43.333 -103.334 65 -170.001 65h-136v-180h136v-111h-136v-167z" />
    <glyph glyph-name="dslash" unicode="&#x111;" horiz-adv-x="611" 
d="M577 552h-33.999v-552h-115v34c-40.667 -30 -89 -45 -145 -45c-66.667 0 -123 24 -169 72s-69 106.667 -69 176c0 68.667 23 127 69 175c46.667 48 103 72 169 72c55.333 0 103.666 -14.667 144.999 -44v112h-167v95h167v63h115v-63h34v-95zM300.001 89
c55.333 0 98 22.334 128 67.001v162c-30 44 -72.667 66 -128 66c-39.333 0 -72.666 -14.667 -99.999 -44c-26.667 -28.667 -40 -63 -40 -103c0 -40.667 13.333 -75.334 40 -104.001c27.333 -29.333 60.666 -44 99.999 -44z" />
    <glyph glyph-name="Emacron" unicode="&#x112;" horiz-adv-x="617" 
d="M460 759h-280v95h280v-95zM196 569v-178h334v-111h-334v-169h374v-111h-494v680h494v-111h-374z" />
    <glyph glyph-name="emacron" unicode="&#x113;" horiz-adv-x="572" 
d="M433 573h-280v95h280v-95zM527 244c0 -23.333 -1 -40.999 -3 -52.999h-1h-362c8 -32.667 23.667 -58.167 47 -76.5s53.666 -27.5 90.999 -27.5c46.667 0 78.667 14.667 96 44h123c-13.333 -43.333 -40.166 -77.833 -80.499 -103.5s-87.5 -38.5 -141.5 -38.5
c-74.667 0 -135.334 23.333 -182.001 70c-46 47.333 -69 106.333 -69 177s23 129.667 69 177c47.333 47.333 108 71 182 71c66.667 0 121.334 -22.333 164.001 -67c44 -44.667 66.333 -102.334 67 -173.001zM290 386.001c-34.667 0 -63.3311 -9.83301 -85.998 -29.5
s-37.334 -46.167 -44.001 -79.5h250c-4.66699 34 -17.334 60.667 -38.001 80s-48 29 -82 29z" />
    <glyph glyph-name="Edotaccent" unicode="&#x116;" horiz-adv-x="617" 
d="M196 569v-178h334v-111h-334v-169h374v-111h-494v680h494v-111h-374zM372 774c-14 -13.333 -31.333 -20 -52 -20s-38 6.66699 -52 20s-21 30 -21 50s7 36.667 21 50s31.333 20 52 20s38 -6.66699 52 -20s21 -30 21 -50s-7 -36.667 -21 -50z" />
    <glyph glyph-name="edotaccent" unicode="&#x117;" horiz-adv-x="572" 
d="M527 244c0 -23.333 -1 -40.999 -3 -52.999h-1h-362c8 -32.667 23.667 -58.167 47 -76.5s53.666 -27.5 90.999 -27.5c46.667 0 78.667 14.667 96 44h123c-13.333 -43.333 -40.166 -77.833 -80.499 -103.5s-87.5 -38.5 -141.5 -38.5c-74.667 0 -135.334 23.333 -182.001 70
c-46 47.333 -69 106.333 -69 177s23 129.667 69 177c47.333 47.333 108 71 182 71c66.667 0 121.334 -22.333 164.001 -67c44 -44.667 66.333 -102.334 67 -173.001zM290 386.001c-34.667 0 -63.3311 -9.83301 -85.998 -29.5s-37.334 -46.167 -44.001 -79.5h250
c-4.66699 34 -17.334 60.667 -38.001 80s-48 29 -82 29zM345.003 576.001c-14 -13.333 -31.333 -20 -52 -20s-38 6.66699 -52 20s-21 30 -21 50s7 36.667 21 50s31.333 20 52 20s38 -6.66699 52 -20s21 -30 21 -50s-7 -36.667 -21 -50z" />
    <glyph glyph-name="Eogonek" unicode="&#x118;" horiz-adv-x="617" 
d="M602 -79l11 -85c-18 -7.33301 -40.333 -11 -67 -11c-42.667 0 -77 10.333 -103 31s-39 48 -39 82c0 22 8.66699 42.667 26 62h-354v680h494v-111h-374v-178h334v-111h-334v-169h374v-111h-1c-46 -8 -69 -24.333 -69 -49c0 -23.333 20.333 -35 61 -35
c7.33301 0 21 1.66699 41 5z" />
    <glyph glyph-name="eogonek" unicode="&#x119;" horiz-adv-x="572" 
d="M527 244c0 -23.333 -1 -40.9971 -3 -52.9971h-1h-362c8 -32.667 23.667 -58.167 47 -76.5s53.666 -27.5 90.999 -27.5c46.667 0 78.667 14.667 96 44h123c-12 -38 -32.333 -68 -61 -90c-22.667 -18 -37.667 -32.833 -45 -44.5s-11 -24.834 -11 -39.501
c0 -29.333 20 -44 60 -44c11.333 0 25 2 41 6l12 -86c-16 -6.66699 -38.667 -10 -68 -10c-42.667 0 -77 10.167 -103 30.5s-39 47.833 -39 82.5c0 18.667 4.66699 36.667 14 54l-22 -1c-72 -2.66699 -132.667 20.666 -182 69.999c-46 47.333 -69 106.333 -69 177
s23 129.667 69 177c47.333 47.333 108 71 182 71c66.667 0 121.334 -22.333 164.001 -67c44 -44.667 66.333 -102.334 67 -173.001zM290 386.003c-34.667 0 -63.3311 -9.83301 -85.998 -29.5s-37.334 -46.167 -44.001 -79.5h250c-4.66699 34 -17.334 60.667 -38.001 80
s-48 29 -82 29z" />
    <glyph glyph-name="Ecaron" unicode="&#x11a;" horiz-adv-x="617" 
d="M264 747l-119 152h108l67 -79l65 79h109l-120 -152h-110zM196 569v-178h334v-111h-334v-169h374v-111h-494v680h494v-111h-374z" />
    <glyph glyph-name="ecaron" unicode="&#x11b;" horiz-adv-x="572" 
d="M237 545l-119 152h108l67 -79l65 79h109l-120 -152h-110zM527 244c0 -23.333 -1 -40.999 -3 -52.999h-1h-362c8 -32.667 23.667 -58.167 47 -76.5s53.666 -27.5 90.999 -27.5c46.667 0 78.667 14.667 96 44h123c-13.333 -43.333 -40.166 -77.833 -80.499 -103.5
s-87.5 -38.5 -141.5 -38.5c-74.667 0 -135.334 23.333 -182.001 70c-46 47.333 -69 106.333 -69 177s23 129.667 69 177c47.333 47.333 108 71 182 71c66.667 0 121.334 -22.333 164.001 -67c44 -44.667 66.333 -102.334 67 -173.001zM290 386.001
c-34.667 0 -63.3311 -9.83301 -85.998 -29.5s-37.334 -46.167 -44.001 -79.5h250c-4.66699 34 -17.334 60.667 -38.001 80s-48 29 -82 29z" />
    <glyph glyph-name="Gbreve" unicode="&#x11e;" horiz-adv-x="820" 
d="M256 911h84c-2.66699 -32 8.5 -54.833 33.5 -68.5s50 -13.667 75 0s36.167 36.5 33.5 68.5h84c0 -48.667 -14.167 -86.5 -42.5 -113.5s-65.833 -40.5 -112.5 -40.5s-84.167 13.5 -112.5 40.5s-42.5 64.833 -42.5 113.5zM750 340l-0.00195312 -340.001h-94l-8 108
c-52 -81.333 -131.667 -122 -239 -122c-100.667 0 -184.667 33.667 -252 101c-67.333 68.667 -101 150 -101 244c0 105.333 34.333 192 103 260c68.667 68.667 153.667 103 255 103c78 0 147.333 -21.333 208 -64c62 -43.333 102.333 -104.666 121 -183.999h-129
c-15.333 44.667 -40.833 78 -76.5 100s-76.167 33 -121.5 33c-69.333 0 -126.666 -22.667 -171.999 -68c-44.667 -44.667 -67 -104.667 -67 -180c0 -62.667 21.667 -116.667 65 -162c42.667 -44.667 98.334 -67 167.001 -67c53.333 0 98 14.333 134 43s61 67.667 75 117
h-218v111h349z" />
    <glyph glyph-name="gbreve" unicode="&#x11f;" horiz-adv-x="616" 
d="M161 694h84c-2.66699 -32 8.5 -54.833 33.5 -68.5s50 -13.667 75 0s36.167 36.5 33.5 68.5h84c0 -48.667 -14.167 -86.5 -42.5 -113.5s-65.833 -40.5 -112.5 -40.5s-84.167 13.5 -112.5 40.5s-42.5 64.833 -42.5 113.5zM546 473l0.00195312 -473
c0 -72 -22.333 -129.333 -67 -172s-102.334 -64 -173.001 -64c-66.667 0 -122.334 18.333 -167.001 55c-45.333 36 -71 83 -77 141h117c4 -28 17.333 -50.167 40 -66.5s51.667 -24.5 87 -24.5c38 0 68.333 11.667 91 35s34 55.333 34 96v59
c-41.333 -29.333 -90 -44 -146 -44c-65.333 0 -121.333 23.333 -168 70c-46 47.333 -69 102 -69 164c0 70 22.667 127.667 68 173c46 46 102.333 69 169 69c56 0 104.667 -14.667 146 -44v26h115zM302.002 115c56 0 99 22.333 129 67v142c-31.333 45.333 -74.333 68 -129 68
c-40.667 0 -74 -13.667 -100 -41s-39 -61.333 -39 -102c0 -34.667 13.333 -65.667 40 -93c27.333 -27.333 60.333 -41 99 -41z" />
    <glyph glyph-name="Gdotaccent" unicode="&#x120;" horiz-adv-x="820" 
d="M463 774c-14 -13.333 -31.333 -20 -52 -20s-38 6.66699 -52 20s-21 30 -21 50s7 36.667 21 50s31.333 20 52 20s38 -6.66699 52 -20s21 -30 21 -50s-7 -36.667 -21 -50zM750 340l-0.00195312 -340.001h-94l-8 108c-52 -81.333 -131.667 -122 -239 -122
c-100.667 0 -184.667 33.667 -252 101c-67.333 68.667 -101 150 -101 244c0 105.333 34.333 192 103 260c68.667 68.667 153.667 103 255 103c78 0 147.333 -21.333 208 -64c62 -43.333 102.333 -104.666 121 -183.999h-129c-15.333 44.667 -40.833 78 -76.5 100
s-76.167 33 -121.5 33c-69.333 0 -126.666 -22.667 -171.999 -68c-44.667 -44.667 -67 -104.667 -67 -180c0 -62.667 21.667 -116.667 65 -162c42.667 -44.667 98.334 -67 167.001 -67c53.333 0 98 14.333 134 43s61 67.667 75 117h-218v111h349z" />
    <glyph glyph-name="gdotaccent" unicode="&#x121;" horiz-adv-x="616" 
d="M368 576c-14 -13.333 -31.333 -20 -52 -20s-38 6.66699 -52 20s-21 30 -21 50s7 36.667 21 50s31.333 20 52 20s38 -6.66699 52 -20s21 -30 21 -50s-7 -36.667 -21 -50zM546 473l0.00195312 -473c0 -72 -22.333 -129.333 -67 -172s-102.334 -64 -173.001 -64
c-66.667 0 -122.334 18.333 -167.001 55c-45.333 36 -71 83 -77 141h117c4 -28 17.333 -50.167 40 -66.5s51.667 -24.5 87 -24.5c38 0 68.333 11.667 91 35s34 55.333 34 96v59c-41.333 -29.333 -90 -44 -146 -44c-65.333 0 -121.333 23.333 -168 70
c-46 47.333 -69 102 -69 164c0 70 22.667 127.667 68 173c46 46 102.333 69 169 69c56 0 104.667 -14.667 146 -44v26h115zM302.002 115c56 0 99 22.333 129 67v142c-31.333 45.333 -74.333 68 -129 68c-40.667 0 -74 -13.667 -100 -41s-39 -61.333 -39 -102
c0 -34.667 13.333 -65.667 40 -93c27.333 -27.333 60.333 -41 99 -41z" />
    <glyph glyph-name="Gcommaaccent" unicode="&#x122;" horiz-adv-x="820" 
d="M750 340l-0.00195312 -340.001h-94l-8 108c-52 -81.333 -131.667 -122 -239 -122c-100.667 0 -184.667 33.667 -252 101c-67.333 68.667 -101 150 -101 244c0 105.333 34.333 192 103 260c68.667 68.667 153.667 103 255 103c78 0 147.333 -21.333 208 -64
c62 -43.333 102.333 -104.666 121 -183.999h-129c-15.333 44.667 -40.833 78 -76.5 100s-76.167 33 -121.5 33c-69.333 0 -126.666 -22.667 -171.999 -68c-44.667 -44.667 -67 -104.667 -67 -180c0 -62.667 21.667 -116.667 65 -162c42.667 -44.667 98.334 -67 167.001 -67
c53.333 0 98 14.333 134 43s61 67.667 75 117h-218v111h349zM408.998 -50.001c18 0 33.667 -6.16602 47 -18.499s20 -27.166 20 -44.499c0 -10.667 -2.66699 -22 -8 -34c-5.33301 -12.667 -24.333 -46.334 -57 -101.001h-65l37 80c-27.333 10 -41 28.333 -41 55
c0 17.333 6.5 32.166 19.5 44.499s28.833 18.5 47.5 18.5z" />
    <glyph glyph-name="gcommaaccent" unicode="&#x123;" horiz-adv-x="616" 
d="M308 556c-18.667 0 -34.5 6.16699 -47.5 18.5s-19.5 27.166 -19.5 44.499c0 12.667 3 24.667 9 36l56 99h64l-37 -80c28 -10 42 -28.333 42 -55c0 -17.333 -6.66699 -32.166 -20 -44.499s-29 -18.5 -47 -18.5zM546 473l0.00195312 -473c0 -72 -22.333 -129.333 -67 -172
s-102.334 -64 -173.001 -64c-66.667 0 -122.334 18.333 -167.001 55c-45.333 36 -71 83 -77 141h117c4 -28 17.333 -50.167 40 -66.5s51.667 -24.5 87 -24.5c38 0 68.333 11.667 91 35s34 55.333 34 96v59c-41.333 -29.333 -90 -44 -146 -44
c-65.333 0 -121.333 23.333 -168 70c-46 47.333 -69 102 -69 164c0 70 22.667 127.667 68 173c46 46 102.333 69 169 69c56 0 104.667 -14.667 146 -44v26h115zM302.002 115c56 0 99 22.333 129 67v142c-31.333 45.333 -74.333 68 -129 68c-40.667 0 -74 -13.667 -100 -41
s-39 -61.333 -39 -102c0 -34.667 13.333 -65.667 40 -93c27.333 -27.333 60.333 -41 99 -41z" />
    <glyph glyph-name="Hbar" unicode="&#x126;" horiz-adv-x="731" 
d="M698 484h-43v-484h-120v278h-339v-278h-120v484h-53v99h53v97h120v-97h339v97h120v-97h43v-99zM535 484h-339v-95h339v95z" />
    <glyph glyph-name="hbar" unicode="&#x127;" horiz-adv-x="594" 
d="M329 488c62.667 0 113 -20.666 151 -61.999s57 -96.333 57 -165v-261h-116v254c0 41.333 -10.167 73.166 -30.5 95.499s-48.833 33.5 -85.5 33.5c-44 0 -84.667 -23 -122 -69v-314h-115v579h-39v82h39v49h115v-49h144v-82h-144v-145c43.333 36 92 54 146 54z" />
    <glyph glyph-name="Imacron" unicode="&#x12a;" horiz-adv-x="273" 
d="M196 680v-680h-120v680h120zM276 854v-95h-280v95h280z" />
    <glyph glyph-name="imacron" unicode="&#x12b;" horiz-adv-x="266" 
d="M191 473v-473h-115v473h115zM273 668v-95h-280v95h280z" />
    <glyph glyph-name="Iogonek" unicode="&#x12e;" horiz-adv-x="273" 
d="M229 -79l11 -85c-18 -7.33301 -40.333 -11 -67 -11c-42.667 0 -77 10.333 -103 31s-39 48 -39 82c0 30 15 56 45 78v664h120v-680c-46 -8 -69 -24.333 -69 -49c0 -23.333 20.333 -35 61 -35c7.33301 0 21 1.66699 41 5z" />
    <glyph glyph-name="iogonek" unicode="&#x12f;" horiz-adv-x="266" 
d="M133 575c-20.667 0 -37.834 6.66699 -51.501 20s-20.5 29.666 -20.5 48.999c0 20.667 6.83301 37.667 20.5 51s30.834 20 51.501 20c20 0 37 -6.83301 51 -20.5s21 -30.5 21 -50.5c0 -19.333 -7 -35.666 -21 -48.999s-31 -20 -51 -20zM224 -79l11 -85
c-18 -7.33301 -40.333 -11 -67 -11c-42.667 0 -77 10.333 -103 31s-39 48 -39 82c0 32.667 16.667 59.667 50 81v454h115v-473c-46 -8 -69 -24.333 -69 -49c0 -23.333 20.333 -35 61 -35c7.33301 0 21 1.66699 41 5z" />
    <glyph glyph-name="Idot" unicode="&#x130;" horiz-adv-x="273" 
d="M190 778c-14.667 -14 -32.667 -21 -54 -21s-39.333 7 -54 21c-14.667 14.667 -22 32.334 -22 53.001s7.33301 38 22 52s32.667 21 54 21s39.333 -7 54 -21s22 -31.333 22 -52s-7.33301 -38.334 -22 -53.001zM196 680v-680h-120v680h120z" />
    <glyph glyph-name="dotlessi" unicode="&#x131;" horiz-adv-x="266" 
d="M191 473v-473h-115v473h115z" />
    <glyph glyph-name="IJ" unicode="&#x132;" horiz-adv-x="869" 
d="M802 680l-0.000976562 -427.001c0 -84.667 -23.333 -150.5 -70 -197.5s-111 -70.5 -193 -70.5c-70.667 0 -129.667 20.667 -177 62c-45.333 40.667 -70.666 97.334 -75.999 170.001h121c2.66699 -38 16.667 -67.5 42 -88.5s58 -31.5 98 -31.5s72.333 14.333 97 43
s37 67.667 37 117v423h121zM195.999 679.999v-680h-120v680h120z" />
    <glyph glyph-name="ij" unicode="&#x133;" horiz-adv-x="526" 
d="M133 575c-20.667 0 -37.834 6.66699 -51.501 20s-20.5 29.666 -20.5 48.999c0 20.667 6.83301 37.667 20.5 51s30.834 20 51.501 20c20 0 37 -6.83301 51 -20.5s21 -30.5 21 -50.5c0 -19.333 -7 -35.666 -21 -48.999s-31 -20 -51 -20zM321 644c0 20 7 36.833 21 50.5
s31 20.5 51 20.5s37 -6.83301 51 -20.5s21 -30.5 21 -50.5c0 -19.333 -7 -35.666 -21 -48.999s-31 -20 -51 -20s-37 6.66699 -51 20s-21 29.666 -21 48.999zM191 473v-473h-115v473h115zM451 473v-445c0 -73.333 -15 -127.333 -45 -162
c-28.667 -34.667 -82 -52.667 -160 -54l-9 101c38 2.66699 64 11 78 25s21 39 21 75v460h115z" />
    <glyph glyph-name="Kcommaaccent" unicode="&#x136;" horiz-adv-x="710" 
d="M697 0h-151l-234 288l-116 -129v-159h-120v680h120v-357l327 357h144l-273 -302zM353 -50c18 0 33.667 -6.16602 47 -18.499s20 -27.166 20 -44.499c0 -10.667 -2.66699 -22 -8 -34c-5.33301 -12.667 -24.333 -46.334 -57 -101.001h-65l37 80
c-27.333 10 -41 28.333 -41 55c0 17.333 6.5 32.166 19.5 44.499s28.833 18.5 47.5 18.5z" />
    <glyph glyph-name="kcommaaccent" unicode="&#x137;" horiz-adv-x="575" 
d="M566 0h-149l-147 194l-85 -88v-106h-115v710h115v-452l208 215h147l-191 -197zM289 -50c18 0 33.667 -6.16602 47 -18.499s20 -27.166 20 -44.499c0 -10.667 -2.66699 -22 -8 -34c-5.33301 -12.667 -24.333 -46.334 -57 -101.001h-65l37 80c-27.333 10 -41 28.333 -41 55
c0 17.333 6.5 32.166 19.5 44.499s28.833 18.5 47.5 18.5z" />
    <glyph glyph-name="Lacute" unicode="&#x139;" horiz-adv-x="579" 
d="M184 755h-105l75 149h128zM554 108v-108h-478v680h120v-572h358z" />
    <glyph glyph-name="lacute" unicode="&#x13a;" horiz-adv-x="252" 
d="M276 940l-98 -149h-105l75 149h128zM183 710v-710h-115v710h115z" />
    <glyph glyph-name="Lcommaaccent" unicode="&#x13b;" horiz-adv-x="579" 
d="M554 108v-108h-478v680h120v-572h358zM328 -50c18 0 33.667 -6.16602 47 -18.499s20 -27.166 20 -44.499c0 -10.667 -2.66699 -22 -8 -34c-5.33301 -12.667 -24.333 -46.334 -57 -101.001h-65l37 80c-27.333 10 -41 28.333 -41 55c0 17.333 6.5 32.166 19.5 44.499
s28.833 18.5 47.5 18.5z" />
    <glyph glyph-name="lcommaaccent" unicode="&#x13c;" horiz-adv-x="252" 
d="M183 710v-710h-115v710h115zM60 -248l37 80.001c-27.333 10 -41 28.333 -41 55c0 17.333 6.5 32.166 19.5 44.499s28.833 18.5 47.5 18.5c18 0 33.667 -6.16699 47 -18.5s20 -27.166 20 -44.499c0 -10.667 -2.66699 -22 -8 -34
c-5.33301 -12.667 -24.333 -46.334 -57 -101.001h-65z" />
    <glyph glyph-name="Lcaron" unicode="&#x13d;" horiz-adv-x="579" 
d="M554 108v-108h-478v680h120v-572h358zM409 481h-88l7 199h117z" />
    <glyph glyph-name="lcaron" unicode="&#x13e;" horiz-adv-x="255" 
d="M183 710v-710h-115v710h115zM350 710l-36 -199h-88l7 199h117z" />
    <glyph glyph-name="Ldot" unicode="&#x13f;" horiz-adv-x="579" 
d="M554 108v-108h-478v680h120v-572h358zM389 272c-20 0 -37.167 6.66699 -51.5 20s-21.5 30 -21.5 50s7.16699 36.833 21.5 50.5s31.5 20.5 51.5 20.5c20.667 0 38 -6.83301 52 -20.5s21 -30.5 21 -50.5s-7 -36.667 -21 -50s-31.333 -20 -52 -20z" />
    <glyph glyph-name="ldot" unicode="&#x140;" horiz-adv-x="398" 
d="M183 710v-710h-115v710h115zM284 259c-20.667 0 -38 6.66699 -52 20s-21 30 -21 50s7 36.667 21 50s31.333 20 52 20c20 0 37.167 -6.66699 51.5 -20s21.5 -30 21.5 -50s-7.16699 -36.667 -21.5 -50s-31.5 -20 -51.5 -20z" />
    <glyph glyph-name="Lslash" unicode="&#x141;" horiz-adv-x="579" 
d="M554 108v-108h-478v242l-63 -26v100l63 26v338h120v-288l161 67v-101l-161 -66v-184h358z" />
    <glyph glyph-name="lslash" unicode="&#x142;" horiz-adv-x="252" 
d="M249 365l-66 -28v-337h-115v287l-65 -28v118l65 28v305h115v-256l66 28v-117z" />
    <glyph glyph-name="Nacute" unicode="&#x143;" horiz-adv-x="754" 
d="M427 755h-105l75 149h128zM678 680v-680h-95l-387 457v-457h-120v680h90l392 -469v469h120z" />
    <glyph glyph-name="nacute" unicode="&#x144;" horiz-adv-x="595" 
d="M349 554h-105l75 149h128zM329 488c62.667 0 113 -20.666 151 -61.999s57 -96.333 57 -165v-261h-116v254c0 41.333 -10.167 73.166 -30.5 95.499s-48.833 33.5 -85.5 33.5c-44 0 -84.667 -23 -122 -69v-314h-115v473h115v-39c43.333 36 92 54 146 54z" />
    <glyph glyph-name="Ncommaaccent" unicode="&#x145;" horiz-adv-x="754" 
d="M678 680v-680h-95l-387 457v-457h-120v680h90l392 -469v469h120zM373 -50c18 0 33.667 -6.16602 47 -18.499s20 -27.166 20 -44.499c0 -10.667 -2.66699 -22 -8 -34c-5.33301 -12.667 -24.333 -46.334 -57 -101.001h-65l37 80c-27.333 10 -41 28.333 -41 55
c0 17.333 6.5 32.166 19.5 44.499s28.833 18.5 47.5 18.5z" />
    <glyph glyph-name="ncommaaccent" unicode="&#x146;" horiz-adv-x="595" 
d="M329 488c62.667 0 113 -20.666 151 -61.999s57 -96.333 57 -165v-261h-116v254c0 41.333 -10.167 73.166 -30.5 95.499s-48.833 33.5 -85.5 33.5c-44 0 -84.667 -23 -122 -69v-314h-115v473h115v-39c43.333 36 92 54 146 54zM301 -49.999
c18 0 33.667 -6.16602 47 -18.499s20 -27.166 20 -44.499c0 -10.667 -2.66699 -22 -8 -34c-5.33301 -12.667 -24.333 -46.334 -57 -101.001h-65l37 80c-27.333 10 -41 28.333 -41 55c0 17.333 6.5 32.166 19.5 44.499s28.833 18.5 47.5 18.5z" />
    <glyph glyph-name="Ncaron" unicode="&#x147;" horiz-adv-x="754" 
d="M321 747l-119 152h108l67 -79l65 79h109l-120 -152h-110zM678 680v-680h-95l-387 457v-457h-120v680h90l392 -469v469h120z" />
    <glyph glyph-name="ncaron" unicode="&#x148;" horiz-adv-x="595" 
d="M244 545l-119 152h108l67 -79l65 79h109l-120 -152h-110zM329 488c62.667 0 113 -20.666 151 -61.999s57 -96.333 57 -165v-261h-116v254c0 41.333 -10.167 73.166 -30.5 95.499s-48.833 33.5 -85.5 33.5c-44 0 -84.667 -23 -122 -69v-314h-115v473h115v-39
c43.333 36 92 54 146 54z" />
    <glyph glyph-name="Omacron" unicode="&#x14c;" horiz-adv-x="820" 
d="M550 854v-95h-280v95h280zM159 590c69.333 69.333 153.002 103.998 251.002 103.998c97.333 0 180.666 -34.667 249.999 -104s104 -152.666 104 -249.999c0 -98 -34.667 -181.667 -104 -251c-68.667 -68.667 -152 -103 -250 -103c-98.667 0 -182.334 34.333 -251.001 103
s-103 152.334 -103 251.001c0 98 34.333 181.333 103 250zM411.002 97.998c65.333 0 120.332 23.333 164.999 70s67 104 67 172c0 67.333 -22.333 124.333 -67 171c-45.333 47.333 -100.333 71 -165 71c-65.333 0 -120.666 -23.667 -165.999 -71
c-44.667 -46.667 -67 -103.667 -67 -171c0 -68 22.333 -125.333 67 -172s100 -70 166 -70z" />
    <glyph glyph-name="omacron" unicode="&#x14d;" horiz-adv-x="593" 
d="M437 668v-95h-280v95h280zM548 236c0 -72 -23.999 -132 -71.999 -180c-48.667 -47.333 -108.334 -71 -179.001 -71c-71.333 0 -131.333 23.667 -180 71c-48 48 -72 108 -72 180c0 70.667 24 129.667 72 177c48.667 47.333 108.667 71 180 71
c72 0 131.667 -23.667 179 -71c48 -47.333 72 -106.333 72 -177zM297.001 90c39.333 0 71.666 14 96.999 42c25.333 28.667 38 63.334 38 104.001s-12.667 74.667 -38 102s-57.666 41 -96.999 41c-40 0 -72.833 -13.667 -98.5 -41s-38.5 -61.333 -38.5 -102
s12.667 -75.334 38 -104.001c26 -28 59 -42 99 -42z" />
    <glyph glyph-name="Ohungarumlaut" unicode="&#x150;" horiz-adv-x="820" 
d="M461 904l-81 -149h-96l58 149h119zM607 904l-81 -149h-96l58 149h119zM159 590c69.333 69.333 153.002 103.998 251.002 103.998c97.333 0 180.666 -34.667 249.999 -104s104 -152.666 104 -249.999c0 -98 -34.667 -181.667 -104 -251
c-68.667 -68.667 -152 -103 -250 -103c-98.667 0 -182.334 34.333 -251.001 103s-103 152.334 -103 251.001c0 98 34.333 181.333 103 250zM411.002 97.998c65.333 0 120.332 23.333 164.999 70s67 104 67 172c0 67.333 -22.333 124.333 -67 171
c-45.333 47.333 -100.333 71 -165 71c-65.333 0 -120.666 -23.667 -165.999 -71c-44.667 -46.667 -67 -103.667 -67 -171c0 -68 22.333 -125.333 67 -172s100 -70 166 -70z" />
    <glyph glyph-name="ohungarumlaut" unicode="&#x151;" horiz-adv-x="593" 
d="M348 703l-81 -149h-96l58 149h119zM494 703l-81 -149h-96l58 149h119zM548 236c0 -72 -23.999 -132 -71.999 -180c-48.667 -47.333 -108.334 -71 -179.001 -71c-71.333 0 -131.333 23.667 -180 71c-48 48 -72 108 -72 180c0 70.667 24 129.667 72 177
c48.667 47.333 108.667 71 180 71c72 0 131.667 -23.667 179 -71c48 -47.333 72 -106.333 72 -177zM297.001 90c39.333 0 71.666 14 96.999 42c25.333 28.667 38 63.334 38 104.001s-12.667 74.667 -38 102s-57.666 41 -96.999 41c-40 0 -72.833 -13.667 -98.5 -41
s-38.5 -61.333 -38.5 -102s12.667 -75.334 38 -104.001c26 -28 59 -42 99 -42z" />
    <glyph glyph-name="OE" unicode="&#x152;" horiz-adv-x="990" 
d="M569 569v-178h333v-111h-333v-169h373v-111h-537c-108.667 0 -198.334 32 -269.001 96c-70.667 64.667 -106 146 -106 244s35.333 179 106 243c70.667 64.667 160.334 97 269.001 97h537v-111h-373zM449 112l0.000976562 456h-44c-76 0 -137.333 -21.333 -184 -64
c-46.667 -42 -70 -96.667 -70 -164s23.333 -122.333 70 -165c47.333 -42 108.666 -63 183.999 -63h44z" />
    <glyph glyph-name="oe" unicode="&#x153;" horiz-adv-x="960" 
d="M915 244c0 -23.333 -1.00195 -40.999 -3.00195 -52.999h-1h-361c8 -32.667 23.5 -58.167 46.5 -76.5s53.167 -27.5 90.5 -27.5c46.667 0 78.667 14.667 96 44h124c-13.333 -43.333 -40.166 -77.833 -80.499 -103.5s-87.833 -38.5 -142.5 -38.5
c-80.667 0 -145 27.667 -193 83c-49.333 -58 -114 -87 -194 -87c-71.333 0 -131.333 23.667 -180 71c-48 48 -72 108 -72 180c0 70.667 24 129.667 72 177c48.667 47.333 108.667 71 180 71c80 0 144.333 -28.333 193 -85c46.667 56.667 111.334 85 194.001 85
c67.333 0 122.333 -22.333 165 -67c44 -44.667 66 -102.334 66 -173.001zM678.998 386.001c-34.667 0 -63.332 -9.83301 -85.999 -29.5s-37.334 -46.167 -44.001 -79.5h249c-4 34 -16.5 60.667 -37.5 80s-48.167 29 -81.5 29zM297 90.001c39.333 0 71.666 14 96.999 42
c25.333 28.667 38 63.334 38 104.001s-12.667 74.667 -38 102s-57.666 41 -96.999 41c-40 0 -72.833 -13.667 -98.5 -41s-38.5 -61.333 -38.5 -102s12.667 -75.334 38 -104.001c26 -28 59 -42 99 -42z" />
    <glyph glyph-name="Racute" unicode="&#x154;" horiz-adv-x="684" 
d="M356 755h-105l75 149h128zM330 224h-134v-224h-120v680h279c78 0 141.333 -21 190 -63c49.333 -42 74 -97 74 -165c0 -50.667 -13.833 -94.5 -41.5 -131.5s-66.167 -63.5 -115.5 -79.5l197 -241h-146zM196 335l155 0.00195312c44 0 80 10.667 108 32s42 49.666 42 84.999
s-14 63.666 -42 84.999s-64 32 -108 32h-155v-234z" />
    <glyph glyph-name="racute" unicode="&#x155;" horiz-adv-x="385" 
d="M259 554h-105l75 149h128zM183 473v-61c44.667 46.667 102.334 70 173.001 70v-109c-74.667 -3.33301 -132.334 -30 -173.001 -80v-293h-115v473h115z" />
    <glyph glyph-name="Rcommaaccent" unicode="&#x156;" horiz-adv-x="684" 
d="M659 0h-146l-183 224h-134v-224h-120v680h279c78 0 141.333 -21 190 -63c49.333 -42 74 -97 74 -165c0 -50.667 -13.833 -94.5 -41.5 -131.5s-66.167 -63.5 -115.5 -79.5zM196 335l155 0.00195312c44 0 80 10.667 108 32s42 49.666 42 84.999s-14 63.666 -42 84.999
s-64 32 -108 32h-155v-234zM339 -49.998c18 0 33.667 -6.16602 47 -18.499s20 -27.166 20 -44.499c0 -10.667 -2.66699 -22 -8 -34c-5.33301 -12.667 -24.333 -46.334 -57 -101.001h-65l37 80c-27.333 10 -41 28.333 -41 55c0 17.333 6.5 32.166 19.5 44.499
s28.833 18.5 47.5 18.5z" />
    <glyph glyph-name="rcommaaccent" unicode="&#x157;" horiz-adv-x="385" 
d="M183 473v-61c44.667 46.667 102.334 70 173.001 70v-109c-74.667 -3.33301 -132.334 -30 -173.001 -80v-293h-115v473h115zM122 -50c18 0 33.667 -6.16602 47 -18.499s20 -27.166 20 -44.499c0 -10.667 -2.66699 -22 -8 -34
c-5.33301 -12.667 -24.333 -46.334 -57 -101.001h-65l37 80c-27.333 10 -41 28.333 -41 55c0 17.333 6.5 32.166 19.5 44.499s28.833 18.5 47.5 18.5z" />
    <glyph glyph-name="Rcaron" unicode="&#x158;" horiz-adv-x="684" 
d="M251 747l-119 152h108l67 -79l65 79h109l-120 -152h-110zM330 224h-134v-224h-120v680h279c78 0 141.333 -21 190 -63c49.333 -42 74 -97 74 -165c0 -50.667 -13.833 -94.5 -41.5 -131.5s-66.167 -63.5 -115.5 -79.5l197 -241h-146zM196 335l155 0.00195312
c44 0 80 10.667 108 32s42 49.666 42 84.999s-14 63.666 -42 84.999s-64 32 -108 32h-155v-234z" />
    <glyph glyph-name="rcaron" unicode="&#x159;" horiz-adv-x="385" 
d="M154 545l-119 152h108l67 -79l65 79h109l-120 -152h-110zM183 473v-61c44.667 46.667 102.334 70 173.001 70v-109c-74.667 -3.33301 -132.334 -30 -173.001 -80v-293h-115v473h115z" />
    <glyph glyph-name="Sacute" unicode="&#x15a;" horiz-adv-x="668" 
d="M481 904l-98 -149h-105l75 149h128zM334 695c32 0 62.666 -3.66504 91.999 -10.998s57.5 -19 84.5 -35s49.333 -38.5 67 -67.5s28.5 -63.167 32.5 -102.5h-119c-12 75.333 -61.667 113 -149 113c-41.333 0 -74.333 -8.83301 -99 -26.5s-37 -41.834 -37 -72.501
c0 -24.667 8.83301 -44 26.5 -58s45.834 -25 84.501 -33l86 -17c69.333 -14 120.666 -35.833 153.999 -65.5s50 -70.167 50 -121.5c0 -64 -24.333 -115.333 -73 -154c-47.333 -38.667 -110.666 -58 -189.999 -58c-84.667 0 -153 21 -205 63s-81 99.667 -87 173h119
c6 -40 25 -71.667 57 -95s73 -35 123 -35c41.333 0 73.833 8.16699 97.5 24.5s35.5 38.833 35.5 67.5c0 43.333 -33.333 71.333 -100 84l-112 22c-128 25.333 -192 89.666 -192 192.999c0 63.333 23 114.333 69 153c47.333 39.333 109 59 185 59z" />
    <glyph glyph-name="sacute" unicode="&#x15b;" horiz-adv-x="510" 
d="M402 703l-98 -149h-105l75 149h128zM36 160l107.001 -0.99707c9.33301 -53.333 47.666 -80 114.999 -80c28.667 0 51.834 4.66699 69.501 14s26.5 22 26.5 38c0 27.333 -19 44 -57 50l-104 17c-93.333 15.333 -140 60.666 -140 135.999c0 46.667 18.167 83.667 54.5 111
s84.5 41 144.5 41c46 0 89.333 -10 130 -30c47.333 -23.333 73.666 -65.666 78.999 -126.999l-107 -1c-2 22 -12.167 39 -30.5 51s-41.833 18 -70.5 18c-26 0 -46.667 -4.83301 -62 -14.5s-23 -21.834 -23 -36.501c0 -29.333 22 -47.333 66 -54l88 -14
c94.667 -14.667 142 -60.334 142 -137.001c0 -48.667 -19 -86.834 -57 -114.501s-88.667 -41.5 -152 -41.5c-62.667 0 -113.5 14.5 -152.5 43.5s-61.167 72.833 -66.5 131.5z" />
    <glyph glyph-name="Scedilla" unicode="&#x15e;" horiz-adv-x="668" 
d="M334 695c32 0 62.666 -3.66504 91.999 -10.998s57.5 -19 84.5 -35s49.333 -38.5 67 -67.5s28.5 -63.167 32.5 -102.5h-119c-12 75.333 -61.667 113 -149 113c-41.333 0 -74.333 -8.83301 -99 -26.5s-37 -41.834 -37 -72.501c0 -24.667 8.83301 -44 26.5 -58
s45.834 -25 84.501 -33l86 -17c69.333 -14 120.666 -35.833 153.999 -65.5s50 -70.167 50 -121.5c0 -64 -24.333 -115.333 -73 -154c-47.333 -38.667 -110.666 -58 -189.999 -58c-84.667 0 -153 21 -205 63s-81 99.667 -87 173h119c6 -40 25 -71.667 57 -95s73 -35 123 -35
c41.333 0 73.833 8.16699 97.5 24.5s35.5 38.833 35.5 67.5c0 43.333 -33.333 71.333 -100 84l-112 22c-128 25.333 -192 89.666 -192 192.999c0 63.333 23 114.333 69 153c47.333 39.333 109 59 185 59zM349.999 -210.998h-99l44 156h114z" />
    <glyph glyph-name="scedilla" unicode="&#x15f;" horiz-adv-x="510" 
d="M36 160l107.001 -0.99707c9.33301 -53.333 47.666 -80 114.999 -80c28.667 0 51.834 4.66699 69.501 14s26.5 22 26.5 38c0 27.333 -19 44 -57 50l-104 17c-93.333 15.333 -140 60.666 -140 135.999c0 46.667 18.167 83.667 54.5 111s84.5 41 144.5 41
c46 0 89.333 -10 130 -30c47.333 -23.333 73.666 -65.666 78.999 -126.999l-107 -1c-2 22 -12.167 39 -30.5 51s-41.833 18 -70.5 18c-26 0 -46.667 -4.83301 -62 -14.5s-23 -21.834 -23 -36.501c0 -29.333 22 -47.333 66 -54l88 -14
c94.667 -14.667 142 -60.334 142 -137.001c0 -48.667 -19 -86.834 -57 -114.501s-88.667 -41.5 -152 -41.5c-62.667 0 -113.5 14.5 -152.5 43.5s-61.167 72.833 -66.5 131.5zM258.001 -210.997h-99l44 156h114z" />
    <glyph glyph-name="Scaron" unicode="&#x160;" horiz-adv-x="668" 
d="M508 899l-120 -152h-110l-119 152h108l67 -79l65 79h109zM334 695c32 0 62.666 -3.66504 91.999 -10.998s57.5 -19 84.5 -35s49.333 -38.5 67 -67.5s28.5 -63.167 32.5 -102.5h-119c-12 75.333 -61.667 113 -149 113c-41.333 0 -74.333 -8.83301 -99 -26.5
s-37 -41.834 -37 -72.501c0 -24.667 8.83301 -44 26.5 -58s45.834 -25 84.501 -33l86 -17c69.333 -14 120.666 -35.833 153.999 -65.5s50 -70.167 50 -121.5c0 -64 -24.333 -115.333 -73 -154c-47.333 -38.667 -110.666 -58 -189.999 -58c-84.667 0 -153 21 -205 63
s-81 99.667 -87 173h119c6 -40 25 -71.667 57 -95s73 -35 123 -35c41.333 0 73.833 8.16699 97.5 24.5s35.5 38.833 35.5 67.5c0 43.333 -33.333 71.333 -100 84l-112 22c-128 25.333 -192 89.666 -192 192.999c0 63.333 23 114.333 69 153c47.333 39.333 109 59 185 59z
" />
    <glyph glyph-name="scaron" unicode="&#x161;" horiz-adv-x="510" 
d="M429 697l-120 -152h-110l-119 152h108l67 -79l65 79h109zM36 160l107.001 -0.99707c9.33301 -53.333 47.666 -80 114.999 -80c28.667 0 51.834 4.66699 69.501 14s26.5 22 26.5 38c0 27.333 -19 44 -57 50l-104 17c-93.333 15.333 -140 60.666 -140 135.999
c0 46.667 18.167 83.667 54.5 111s84.5 41 144.5 41c46 0 89.333 -10 130 -30c47.333 -23.333 73.666 -65.666 78.999 -126.999l-107 -1c-2 22 -12.167 39 -30.5 51s-41.833 18 -70.5 18c-26 0 -46.667 -4.83301 -62 -14.5s-23 -21.834 -23 -36.501
c0 -29.333 22 -47.333 66 -54l88 -14c94.667 -14.667 142 -60.334 142 -137.001c0 -48.667 -19 -86.834 -57 -114.501s-88.667 -41.5 -152 -41.5c-62.667 0 -113.5 14.5 -152.5 43.5s-61.167 72.833 -66.5 131.5z" />
    <glyph glyph-name="Tcedilla" unicode="&#x162;" horiz-adv-x="648" 
d="M620 569h-236v-569h-120v569h-237v111h593v-111zM270 -55h114l-58 -156h-100z" />
    <glyph glyph-name="tcedilla" unicode="&#x163;" horiz-adv-x="446" 
d="M398 104l16 -99c-44 -13.333 -83.333 -20 -118 -20c-56 0 -100.5 17.667 -133.5 53s-49.5 83.333 -49.5 144v194h-108v97h108v173h115v-173h175v-97h-175v-194c0 -60 30.333 -90 91 -90c26 0 52.333 4 79 12zM214 -55h114l-59 -156h-99z" />
    <glyph glyph-name="Tcaron" unicode="&#x164;" horiz-adv-x="648" 
d="M268 747l-119 152h108l67 -79l65 79h109l-120 -152h-110zM620 569h-236v-569h-120v569h-237v111h593v-111z" />
    <glyph glyph-name="tcaron" unicode="&#x165;" horiz-adv-x="446" 
d="M365 513h-88l7 199h117zM398 104l16 -99c-44 -13.333 -83.333 -20 -118 -20c-56 0 -100.5 17.667 -133.5 53s-49.5 83.333 -49.5 144v194h-108v97h108v173h115v-173h175v-97h-175v-194c0 -60 30.333 -90 91 -90c26 0 52.333 4 79 12z" />
    <glyph glyph-name="Umacron" unicode="&#x16a;" horiz-adv-x="734" 
d="M508 854v-95h-280v95h280zM667 680l-0.00195312 -378.001c0 -97.333 -27.333 -174.333 -82 -231c-55.333 -57.333 -128.333 -86 -219 -86c-90 0 -162.667 28.667 -218 86c-54.667 56.667 -82 133.667 -82 231v378h120v-378c0 -61.333 16.333 -110.666 49 -147.999
c32.667 -38 76.334 -57 131.001 -57s98.334 19 131.001 57c34 38 51 87.333 51 148v378h119z" />
    <glyph glyph-name="umacron" unicode="&#x16b;" horiz-adv-x="595" 
d="M437 573h-280v95h280v-95zM527 473v-472.999h-115v40c-42.667 -36.667 -91.667 -55 -147 -55c-62 0 -112 20.667 -150 62c-38 40.667 -57 95.667 -57 165v261h115v-254c0 -40.667 10.333 -72.334 31 -95.001s49 -34 85 -34c45.333 0 86.333 23.333 123 70v313h115z" />
    <glyph glyph-name="Uring" unicode="&#x16e;" horiz-adv-x="734" 
d="M286 944c21.333 19.333 48.333 29.001 81 29.001s59.667 -9.66699 81 -29c20.667 -18.667 31 -44 31 -76s-10.333 -57.333 -31 -76c-21.333 -19.333 -48.333 -29 -81 -29s-59.667 9.66699 -81 29c-20 19.333 -30 44.666 -30 75.999c0 32 10 57.333 30 76zM367 822.001
c19.333 -1.33301 33 6 41 22s8 32 0 48s-21.667 23.333 -41 22c-18.667 1.33301 -32 -6 -40 -22s-8 -32 0 -48s21.333 -23.333 40 -22zM667 680.001l-0.00195312 -378.001c0 -97.333 -27.333 -174.333 -82 -231c-55.333 -57.333 -128.333 -86 -219 -86
c-90 0 -162.667 28.667 -218 86c-54.667 56.667 -82 133.667 -82 231v378h120v-378c0 -61.333 16.333 -110.666 49 -147.999c32.667 -38 76.334 -57 131.001 -57s98.334 19 131.001 57c34 38 51 87.333 51 148v378h119z" />
    <glyph glyph-name="uring" unicode="&#x16f;" horiz-adv-x="595" 
d="M377 571c-21.333 -19.333 -48.333 -28.998 -81 -28.998s-59.667 9.66699 -81 29c-20 19.333 -30 44.666 -30 75.999s10 56.666 30 75.999c21.333 19.333 48.333 29 81 29s59.667 -9.66699 81 -29c20.667 -18.667 31 -44 31 -76s-10.333 -57.333 -31 -76zM296 693.002
c-18.667 1.33301 -32 -6 -40 -22s-8 -32 0 -48s21.333 -23.333 40 -22c19.333 -1.33301 33 6 41 22s8 32 0 48s-21.667 23.333 -41 22zM527 473.002v-472.999h-115v40c-42.667 -36.667 -91.667 -55 -147 -55c-62 0 -112 20.667 -150 62c-38 40.667 -57 95.667 -57 165v261
h115v-254c0 -40.667 10.333 -72.334 31 -95.001s49 -34 85 -34c45.333 0 86.333 23.333 123 70v313h115z" />
    <glyph glyph-name="Uhungarumlaut" unicode="&#x170;" horiz-adv-x="734" 
d="M419 904l-81 -149h-96l58 149h119zM565 904l-81 -149h-96l58 149h119zM667 680l-0.00195312 -378.001c0 -97.333 -27.333 -174.333 -82 -231c-55.333 -57.333 -128.333 -86 -219 -86c-90 0 -162.667 28.667 -218 86c-54.667 56.667 -82 133.667 -82 231v378h120v-378
c0 -61.333 16.333 -110.666 49 -147.999c32.667 -38 76.334 -57 131.001 -57s98.334 19 131.001 57c34 38 51 87.333 51 148v378h119z" />
    <glyph glyph-name="uhungarumlaut" unicode="&#x171;" horiz-adv-x="595" 
d="M267 554h-96l58 149h119zM317 554l58 149h119l-81 -149h-96zM527 473v-472.999h-115v40c-42.667 -36.667 -91.667 -55 -147 -55c-62 0 -112 20.667 -150 62c-38 40.667 -57 95.667 -57 165v261h115v-254c0 -40.667 10.333 -72.334 31 -95.001s49 -34 85 -34
c45.333 0 86.333 23.333 123 70v313h115z" />
    <glyph glyph-name="Uogonek" unicode="&#x172;" horiz-adv-x="734" 
d="M667 680l-0.00292969 -378.001c0 -67.333 -14 -126 -42 -176s-67 -87 -117 -111c-48 -35.333 -72 -66.333 -72 -93c0 -28 19 -42 57 -42c7.33301 0 21 1.66699 41 5l11 -96c-17.333 -5.33301 -39.666 -8 -66.999 -8c-42.667 0 -76.5 10.333 -101.5 31s-37.5 48 -37.5 82
c0 30 14.667 60.333 44 91h-17c-90 0 -162.667 28.667 -218 86c-54.667 56.667 -82 133.667 -82 231v378h120v-378c0 -61.333 16.333 -110.666 49 -147.999c32.667 -38 76.334 -57 131.001 -57s98.334 19 131.001 57c34 38 51 87.333 51 148v378h119z" />
    <glyph glyph-name="uogonek" unicode="&#x173;" horiz-adv-x="595" 
d="M559 -79l11 -84.998c-18 -7.33301 -40.333 -11 -67 -11c-42.667 0 -77 10.333 -103 31s-39 48 -39 82c0 33.333 17 60.666 51 81.999v20c-42.667 -36.667 -91.667 -55 -147 -55c-62 0 -112 20.667 -150 62c-38 40.667 -57 95.667 -57 165v261h115v-254
c0 -40.667 10.333 -72.334 31 -95.001s49 -34 85 -34c45.333 0 86.333 23.333 123 70v313h115v-473h-1c-46 -8 -69 -24.333 -69 -49c0 -23.333 20.333 -35 61 -35c7.33301 0 21 1.66699 41 5z" />
    <glyph glyph-name="Wcircumflex" unicode="&#x174;" horiz-adv-x="1077" 
d="M472 756h-108l119 152h110l120 -152h-109l-65 79zM1044 680l-226 -684h-118v2l-161 467l-162 -469h-118l-226 684h127l159 -496l169 496h102l168 -495l159 495h127z" />
    <glyph glyph-name="wcircumflex" unicode="&#x175;" horiz-adv-x="792" 
d="M329 545h-108l119 152h110l120 -152h-109l-65 79zM771 473l-177 -473h-100l-98 289l-98 -289h-101l-177 473h125l102 -289l100 289h98l99 -290l102 290h125z" />
    <glyph glyph-name="Ycircumflex" unicode="&#x176;" horiz-adv-x="689" 
d="M278 756h-108l119 152h110l120 -152h-109l-65 79zM406 230v-1h-1v-229h-121v231l-273 449h133l200 -333l201 333h133z" />
    <glyph glyph-name="ycircumflex" unicode="&#x177;" horiz-adv-x="623" 
d="M244 545h-108l119 152h110l120 -152h-109l-65 79zM594 474l-309 -710h-122l96 220l-235 490h123l171 -355l155 355h121z" />
    <glyph glyph-name="Ydieresis" unicode="&#x178;" horiz-adv-x="689" 
d="M240 754c-20 0 -37.167 6.66699 -51.5 20s-21.5 30 -21.5 50s7.16699 36.667 21.5 50s31.5 20 51.5 20c20.667 0 38 -6.66699 52 -20s21 -30 21 -50s-7 -36.667 -21 -50s-31.333 -20 -52 -20zM448 754c-20 0 -37.167 6.66699 -51.5 20s-21.5 30 -21.5 50
s7.16699 36.667 21.5 50s31.5 20 51.5 20c20.667 0 38 -6.66699 52 -20s21 -30 21 -50s-7 -36.667 -21 -50s-31.333 -20 -52 -20zM406 230v-1h-1v-229h-121v231l-273 449h133l200 -333l201 333h133z" />
    <glyph glyph-name="Zacute" unicode="&#x179;" horiz-adv-x="653" 
d="M376 755h-105l75 149h128zM605 109v-109h-559v57l380 514h-366v109h541v-57l-367 -514h371z" />
    <glyph glyph-name="zacute" unicode="&#x17a;" horiz-adv-x="497" 
d="M298 554h-105l75 149h128zM461 411l-254 -315h254v-96h-425v54l259 323h-252v96h418v-62z" />
    <glyph glyph-name="Zdotaccent" unicode="&#x17b;" horiz-adv-x="653" 
d="M605 109v-109h-559v57l380 514h-366v109h541v-57l-367 -514h371zM379 774c-14 -13.333 -31.333 -20 -52 -20s-38 6.66699 -52 20s-21 30 -21 50s7 36.667 21 50s31.333 20 52 20s38 -6.66699 52 -20s21 -30 21 -50s-7 -36.667 -21 -50z" />
    <glyph glyph-name="zdotaccent" unicode="&#x17c;" horiz-adv-x="497" 
d="M461 411l-254 -315h254v-96h-425v54l259 323h-252v96h418v-62zM300 576c-14 -13.333 -31.333 -20 -52 -20s-38 6.66699 -52 20s-21 30 -21 50s7 36.667 21 50s31.333 20 52 20s38 -6.66699 52 -20s21 -30 21 -50s-7 -36.667 -21 -50z" />
    <glyph glyph-name="Zcaron" unicode="&#x17d;" horiz-adv-x="653" 
d="M271 747l-119 152h108l67 -79l65 79h109l-120 -152h-110zM605 109v-109h-559v57l380 514h-366v109h541v-57l-367 -514h371z" />
    <glyph glyph-name="zcaron" unicode="&#x17e;" horiz-adv-x="497" 
d="M193 545l-119 152h108l67 -79l65 79h109l-120 -152h-110zM461 411l-254 -315h254v-96h-425v54l259 323h-252v96h418v-62z" />
    <glyph glyph-name="florin" unicode="&#x192;" horiz-adv-x="561" 
d="M439 578c-58 0 -91 -32 -99 -96l-14 -107h168v-98h-182l-24 -181c-8.66699 -64 -29.834 -113.833 -63.501 -149.5s-77.834 -53.5 -132.501 -53.5c-36 0 -72.333 5 -109 15l16 101c28.667 -6 52.334 -9 71.001 -9c58 0 91 32 99 96l24 181h-130v98h143l14 107
c8 63.333 28.833 113 62.5 149s78.167 54 133.5 54c36 0 72.667 -5 110 -15l-17 -101c-29.333 6 -52.666 9 -69.999 9z" />
    <glyph glyph-name="Acaron" unicode="&#x1cd;" horiz-adv-x="750" 
d="M319 747l-119 152h108l67 -79l65 79h109l-120 -152h-110zM537 151h-324l-63 -151h-129l298 684h113l297 -684h-128zM491 262l-116 275l-115 -275h231z" />
    <glyph glyph-name="acaron" unicode="&#x1ce;" horiz-adv-x="611" 
d="M258 545l-119 152h108l67 -79l65 79h109l-120 -152h-110zM543 473v-473h-115v33c-41.333 -29.333 -89.666 -44 -144.999 -44c-66 0 -122.333 24 -169 72c-46 48 -69 106.333 -69 175s23 127 69 175c46.667 48.667 103 73 169 73c55.333 0 103.666 -14.667 144.999 -44v33
h115zM300 89c55.333 0 97.999 22.335 127.999 67.002v161c-30 44.667 -72.667 67 -128 67c-39.333 0 -72.666 -14.667 -99.999 -44c-26.667 -28.667 -40 -63.334 -40 -104.001s13.333 -75.334 40 -104.001s60 -43 100 -43z" />
    <glyph glyph-name="Scommaaccent" unicode="&#x218;" horiz-adv-x="668" 
d="M334 695c32 0 62.666 -3.66504 91.999 -10.998s57.5 -19 84.5 -35s49.333 -38.5 67 -67.5s28.5 -63.167 32.5 -102.5h-119c-12 75.333 -61.667 113 -149 113c-41.333 0 -74.333 -8.83301 -99 -26.5s-37 -41.834 -37 -72.501c0 -24.667 8.83301 -44 26.5 -58
s45.834 -25 84.501 -33l86 -17c69.333 -14 120.666 -35.833 153.999 -65.5s50 -70.167 50 -121.5c0 -64 -24.333 -115.333 -73 -154c-47.333 -38.667 -110.666 -58 -189.999 -58c-84.667 0 -153 21 -205 63s-81 99.667 -87 173h119c6 -40 25 -71.667 57 -95s73 -35 123 -35
c41.333 0 73.833 8.16699 97.5 24.5s35.5 38.833 35.5 67.5c0 43.333 -33.333 71.333 -100 84l-112 22c-128 25.333 -192 89.666 -192 192.999c0 63.333 23 114.333 69 153c47.333 39.333 109 59 185 59zM287.999 -247.998l37 80c-27.333 10 -41 28.333 -41 55
c0 17.333 6.5 32.166 19.5 44.499s28.833 18.5 47.5 18.5c18 0 33.667 -6.16699 47 -18.5s20 -27.166 20 -44.499c0 -11.333 -3 -22.666 -9 -33.999c-5.33301 -12.667 -24.333 -46.334 -57 -101.001h-64z" />
    <glyph glyph-name="scommaaccent" unicode="&#x219;" horiz-adv-x="510" 
d="M36 160l107.001 -0.99707c9.33301 -53.333 47.666 -80 114.999 -80c28.667 0 51.834 4.66699 69.501 14s26.5 22 26.5 38c0 27.333 -19 44 -57 50l-104 17c-93.333 15.333 -140 60.666 -140 135.999c0 46.667 18.167 83.667 54.5 111s84.5 41 144.5 41
c46 0 89.333 -10 130 -30c47.333 -23.333 73.666 -65.666 78.999 -126.999l-107 -1c-2 22 -12.167 39 -30.5 51s-41.833 18 -70.5 18c-26 0 -46.667 -4.83301 -62 -14.5s-23 -21.834 -23 -36.501c0 -29.333 22 -47.333 66 -54l88 -14
c94.667 -14.667 142 -60.334 142 -137.001c0 -48.667 -19 -86.834 -57 -114.501s-88.667 -41.5 -152 -41.5c-62.667 0 -113.5 14.5 -152.5 43.5s-61.167 72.833 -66.5 131.5zM170.001 -247.997l37 80.001c-27.333 10 -41 28.333 -41 55c0 17.333 6.5 32.166 19.5 44.499
s28.833 18.5 47.5 18.5c18 0 33.667 -6.16699 47 -18.5s20 -27.166 20 -44.499c0 -10.667 -2.66699 -22 -8 -34c-5.33301 -12.667 -24.333 -46.334 -57 -101.001h-65z" />
    <glyph glyph-name="uni021A" unicode="&#x21a;" horiz-adv-x="648" 
d="M620 569h-236v-569h-120v569h-237v111h593v-111zM303 -50c18 0 33.667 -6.16602 47 -18.499s20 -27.166 20 -44.499c0 -10.667 -2.66699 -22 -8 -34c-5.33301 -12.667 -24.333 -46.334 -57 -101.001h-65l37 80c-27.333 10 -41 28.333 -41 55
c0 17.333 6.5 32.166 19.5 44.499s28.833 18.5 47.5 18.5z" />
    <glyph glyph-name="uni021B" unicode="&#x21b;" horiz-adv-x="446" 
d="M398 104l16 -99c-44 -13.333 -83.333 -20 -118 -20c-56 0 -100.5 17.667 -133.5 53s-49.5 83.333 -49.5 144v194h-108v97h108v173h115v-173h175v-97h-175v-194c0 -60 30.333 -90 91 -90c26 0 52.333 4 79 12zM245 -50c18 0 33.667 -6.16602 47 -18.499
s20 -27.166 20 -44.499c0 -10.667 -2.66699 -22 -8 -34c-5.33301 -12.667 -24.333 -46.334 -57 -101.001h-65l37 80c-27.333 10 -41 28.333 -41 55c0 17.333 6.5 32.166 19.5 44.499s28.833 18.5 47.5 18.5z" />
    <glyph glyph-name="circumflex" unicode="&#x2c6;" 
d="M301 628l-67 -79h-108l119 152h110l120 -152h-109z" />
    <glyph glyph-name="caron" unicode="&#x2c7;" 
d="M475 701l-120 -152h-110l-119 152h108l67 -79l65 79h109z" />
    <glyph glyph-name="breve" unicode="&#x2d8;" 
d="M371 693h84c0 -48.667 -14.167 -86.5 -42.5 -113.5s-65.833 -40.5 -112.5 -40.5s-84.167 13.5 -112.5 40.5s-42.5 64.833 -42.5 113.5h84c-2.66699 -32 8.5 -54.833 33.5 -68.5s50 -13.667 75 0s36.167 36.5 33.5 68.5z" />
    <glyph glyph-name="dotaccent" unicode="&#x2d9;" 
d="M352 573c-14 -13.333 -31.333 -20 -52 -20s-38 6.66699 -52 20s-21 30 -21 50s7 36.667 21 50s31.333 20 52 20s38 -6.66699 52 -20s21 -30 21 -50s-7 -36.667 -21 -50z" />
    <glyph glyph-name="ring" unicode="&#x2da;" 
d="M216 726c21.333 19.333 48.333 29 81 29s59.667 -9.66699 81 -29c20.667 -18.667 31 -44 31 -76s-10.333 -57.333 -31 -76c-21.333 -19.333 -48.333 -29 -81 -29s-59.667 9.66699 -81 29c-20 18.667 -30 44 -30 76s10 57.333 30 76zM297 604c19.333 -1.33301 33 6 41 22
s8 32 0 48s-21.667 23.333 -41 22c-18.667 1.33301 -32 -6 -40 -22s-8 -32 0 -48s21.333 -23.333 40 -22z" />
    <glyph glyph-name="ogonek" unicode="&#x2db;" 
d="M359 56l10 -53c-46 -6.66699 -69 -23 -69 -49c0 -23.333 20.333 -35 61 -35c7.33301 0 21 1.66699 41 5l11 -85c-18 -7.33301 -40.333 -11 -67 -11c-42.667 0 -77 10.333 -103 31s-39 48 -39 82c0 30 14 55.5 42 76.5s65.667 33.833 113 38.5z" />
    <glyph glyph-name="tilde" unicode="&#x2dc;" 
d="M386 689h92.001c0 -28.667 -5.66699 -53 -17 -73s-25.5 -34.167 -42.5 -42.5s-35 -12.166 -54 -11.499s-36.5 6 -52.5 16l-47 29c-17.333 7.33301 -30 8.5 -38 3.5s-12 -14.833 -12 -29.5h-93c0 28.667 5.83301 53 17.5 73s26 34.167 43 42.5s35.167 12.166 54.5 11.499
s36.666 -6 51.999 -16l46 -29c34 -16 51 -7.33301 51 26z" />
    <glyph glyph-name="hungarumlaut" unicode="&#x2dd;" 
d="M351 706l-81 -149h-96l58 149h119zM497 706l-81 -149h-96l58 149h119z" />
    <glyph glyph-name="uni0326" unicode="&#x326;" horiz-adv-x="0" 
d="M233 -248l37 80.001c-27.333 10 -41 28.333 -41 55c0 17.333 6.5 32.166 19.5 44.499s28.833 18.5 47.5 18.5c18 0 33.667 -6.16699 47 -18.5s20 -27.166 20 -44.499c0 -10.667 -2.66699 -22 -8 -34c-5.33301 -12.667 -24.333 -46.334 -57 -101.001h-65z" />
    <glyph glyph-name="Wgrave" unicode="&#x1e80;" horiz-adv-x="1077" 
d="M498 755l-98 149h128l75 -149h-105zM1044 680l-226 -684h-118v2l-161 467l-162 -469h-118l-226 684h127l159 -496l169 496h102l168 -495l159 495h127z" />
    <glyph glyph-name="wgrave" unicode="&#x1e81;" horiz-adv-x="792" 
d="M355 554l-98 149h128l75 -149h-105zM771 473l-177 -473h-100l-98 289l-98 -289h-101l-177 473h125l102 -289l100 289h98l99 -290l102 290h125z" />
    <glyph glyph-name="Wacute" unicode="&#x1e82;" horiz-adv-x="1077" 
d="M588 755h-105l75 149h128zM1044 680l-226 -684h-118v2l-161 467l-162 -469h-118l-226 684h127l159 -496l169 496h102l168 -495l159 495h127z" />
    <glyph glyph-name="wacute" unicode="&#x1e83;" horiz-adv-x="792" 
d="M445 554h-105l75 149h128zM771 473l-177 -473h-100l-98 289l-98 -289h-101l-177 473h125l102 -289l100 289h98l99 -290l102 290h125z" />
    <glyph glyph-name="Wdieresis" unicode="&#x1e84;" horiz-adv-x="1077" 
d="M434 754c-20 0 -37.167 6.66699 -51.5 20s-21.5 30 -21.5 50s7.16699 36.667 21.5 50s31.5 20 51.5 20c20.667 0 38 -6.66699 52 -20s21 -30 21 -50s-7 -36.667 -21 -50s-31.333 -20 -52 -20zM642 754c-20 0 -37.167 6.66699 -51.5 20s-21.5 30 -21.5 50
s7.16699 36.667 21.5 50s31.5 20 51.5 20c20.667 0 38 -6.66699 52 -20s21 -30 21 -50s-7 -36.667 -21 -50s-31.333 -20 -52 -20zM1044 680l-226 -684h-118v2l-161 467l-162 -469h-118l-226 684h127l159 -496l169 496h102l168 -495l159 495h127z" />
    <glyph glyph-name="wdieresis" unicode="&#x1e85;" horiz-adv-x="792" 
d="M292 556c-20 0 -37.167 6.66699 -51.5 20s-21.5 30 -21.5 50s7.16699 36.667 21.5 50s31.5 20 51.5 20c20.667 0 38 -6.66699 52 -20s21 -30 21 -50s-7 -36.667 -21 -50s-31.333 -20 -52 -20zM500 556c-20 0 -37.167 6.66699 -51.5 20s-21.5 30 -21.5 50
s7.16699 36.667 21.5 50s31.5 20 51.5 20c20.667 0 38 -6.66699 52 -20s21 -30 21 -50s-7 -36.667 -21 -50s-31.333 -20 -52 -20zM771 473l-177 -473h-100l-98 289l-98 -289h-101l-177 473h125l102 -289l100 289h98l99 -290l102 290h125z" />
    <glyph glyph-name="Ygrave" unicode="&#x1ef2;" horiz-adv-x="689" 
d="M304 755l-98 149h128l75 -149h-105zM406 230v-1h-1v-229h-121v231l-273 449h133l200 -333l201 333h133z" />
    <glyph glyph-name="ygrave" unicode="&#x1ef3;" horiz-adv-x="623" 
d="M270 554l-98 149h128l75 -149h-105zM594 474l-309 -710h-122l96 220l-235 490h123l171 -355l155 355h121z" />
    <glyph glyph-name="endash" unicode="&#x2013;" horiz-adv-x="706" 
d="M601 321v-115h-497v115h497z" />
    <glyph glyph-name="emdash" unicode="&#x2014;" horiz-adv-x="1026" 
d="M929 321v-115h-832v115h832z" />
    <glyph glyph-name="quoteleft" unicode="&#x2018;" horiz-adv-x="209" 
d="M177 679l-49 -109c28.667 -12 43 -31.333 43 -58c0 -18.667 -6.83301 -34.667 -20.5 -48s-30.167 -20 -49.5 -20c-20 0 -36.833 6.5 -50.5 19.5s-20.5 29.167 -20.5 48.5c0 14 7.66699 35.667 23 65l54 102h70z" />
    <glyph glyph-name="quoteright" unicode="&#x2019;" horiz-adv-x="212" 
d="M33 453l48 110c-28.667 10.667 -43 30 -43 58c0 18.667 6.83301 34.5 20.5 47.5s30.167 19.5 49.5 19.5c20 0 36.833 -6.5 50.5 -19.5s20.5 -28.833 20.5 -47.5c0 -14 -7.66699 -35.667 -23 -65l-54 -103h-69z" />
    <glyph glyph-name="quotesinglbase" unicode="&#x201a;" horiz-adv-x="212" 
d="M33 -115l48 109.001c-28.667 12 -43 31.333 -43 58c0 18.667 7 34.5 21 47.5s30.667 19.5 50 19.5s36 -6.5 50 -19.5s21 -28.833 21 -47.5c0 -12.667 -8 -34.334 -24 -65.001l-54 -102h-69z" />
    <glyph glyph-name="quotedblleft" unicode="&#x201c;" horiz-adv-x="395" 
d="M179 679l-48 -109c28.667 -12 43 -31.333 43 -58c0 -18.667 -6.83301 -34.667 -20.5 -48s-30.167 -20 -49.5 -20c-20 0 -36.833 6.5 -50.5 19.5s-20.5 29.167 -20.5 48.5c0 14 7.66699 35.667 23 65l54 102h69zM362 679l-48 -109c28.667 -12 43 -31.333 43 -58
c0 -18.667 -6.83301 -34.667 -20.5 -48s-30.167 -20 -49.5 -20c-20 0 -36.833 6.5 -50.5 19.5s-20.5 29.167 -20.5 48.5c0 14 7.66699 35.667 23 65l54 102h69z" />
    <glyph glyph-name="quotedblright" unicode="&#x201d;" horiz-adv-x="395" 
d="M33 453l48 110c-28.667 10.667 -43 30 -43 58c0 18.667 6.83301 34.5 20.5 47.5s30.167 19.5 49.5 19.5c20 0 36.833 -6.5 50.5 -19.5s20.5 -28.833 20.5 -47.5c0 -14 -7.66699 -35.667 -23 -65l-54 -103h-69zM216 453l48 110c-28.667 10.667 -43 30 -43 58
c0 18.667 6.83301 34.5 20.5 47.5s30.167 19.5 49.5 19.5c20 0 36.833 -6.5 50.5 -19.5s20.5 -28.833 20.5 -47.5c0 -14 -7.66699 -35.667 -23 -65l-54 -103h-69z" />
    <glyph glyph-name="quotedblbase" unicode="&#x201e;" horiz-adv-x="398" 
d="M33 -115l48 109.001c-28.667 12 -43 31.333 -43 58c0 18.667 7 34.5 21 47.5s30.667 19.5 50 19.5s36 -6.5 50 -19.5s21 -28.833 21 -47.5c0 -12.667 -8 -34.334 -24 -65.001l-54 -102h-69zM218 -114.999l49 109.001c-28.667 12 -43 31.333 -43 58
c0 18.667 6.83301 34.5 20.5 47.5s30.167 19.5 49.5 19.5c20 0 36.833 -6.5 50.5 -19.5s20.5 -28.833 20.5 -47.5c0 -14.667 -7.66699 -36.334 -23 -65.001l-54 -102h-70z" />
    <glyph glyph-name="dagger" unicode="&#x2020;" horiz-adv-x="407" 
d="M242 525v-216h-77v216h-118v77h118v118h77v-118h118v-77h-118z" />
    <glyph glyph-name="daggerdbl" unicode="&#x2021;" horiz-adv-x="407" 
d="M242 487h118v-77h-118v-101h-77v101h-118v77h118v60h-118v77h118v96h77v-96h118v-77h-118v-60z" />
    <glyph glyph-name="bullet" unicode="&#x2022;" horiz-adv-x="331" 
d="M257 206c-26 -26 -56.667 -39 -92 -39s-66 13 -92 39s-39 56.333 -39 91s13 65 39 91s56.667 39 92 39s66 -13 92 -39c26.667 -26 40 -56.333 40 -91s-13.333 -65 -40 -91z" />
    <glyph glyph-name="ellipsis" unicode="&#x2026;" horiz-adv-x="658" 
d="M33 52c0 19.333 6.83301 35.5 20.5 48.5s30.5 19.5 50.5 19.5s37 -6.5 51 -19.5s21 -29.167 21 -48.5c0 -20 -7 -36.5 -21 -49.5s-31 -19.5 -51 -19.5s-36.833 6.5 -50.5 19.5s-20.5 29.5 -20.5 49.5zM325 -17c-19.333 0 -36 6.66797 -50 20.001s-21 29.666 -21 48.999
s6.83301 35.5 20.5 48.5s30.5 19.5 50.5 19.5s37 -6.5 51 -19.5s21 -29.167 21 -48.5c0 -20 -7 -36.5 -21 -49.5s-31 -19.5 -51 -19.5zM482 52.001c0 19.333 6.83301 35.5 20.5 48.5s30.5 19.5 50.5 19.5s37 -6.5 51 -19.5s21 -29.167 21 -48.5c0 -20 -7 -36.5 -21 -49.5
s-31 -19.5 -51 -19.5s-36.833 6.5 -50.5 19.5s-20.5 29.5 -20.5 49.5z" />
    <glyph glyph-name="perthousand" unicode="&#x2030;" horiz-adv-x="1543" 
d="M474 502c0 -57.333 -18.667 -104.667 -56 -142c-37.333 -36 -84 -54 -140 -54c-57.333 0 -104.333 18 -141 54c-37.333 36 -56 83.333 -56 142c0 56.667 18.667 103 56 139c38 36 85 54 141 54s102.667 -18 140 -54s56 -82.333 56 -139zM346 -0.000976562h-81l462 680h81
zM278 388.999c30.667 0 56.5 10.5 77.5 31.5s31.5 48.167 31.5 81.5c0 32 -10.5 58.333 -31.5 79s-46.833 31 -77.5 31s-56.667 -10.5 -78 -31.5s-32 -47.167 -32 -78.5c0 -33.333 10.333 -60.5 31 -81.5s47 -31.5 79 -31.5zM1004 179.999c0 -58 -18.667 -105 -56 -141
s-84.333 -54 -141 -54s-103.334 18 -140.001 54c-37.333 37.333 -56 84.333 -56 141s18.667 103 56 139c36.667 36.667 83.334 55 140.001 55c55.333 0 102 -18.333 140 -55s57 -83 57 -139zM1461 179.999c0 -58 -18.668 -105 -56.001 -141
c-36.667 -36 -83.667 -54 -141 -54c-56 0 -102.667 18 -140 54c-37.333 37.333 -56 84.333 -56 141s18.667 103 56 139c36.667 36.667 83.334 55 140.001 55c55.333 0 102 -18.333 140 -55s57 -83 57 -139zM806.999 67.999c31.333 0 57.5 10.5 78.5 31.5
s31.5 47.833 31.5 80.5c0 32 -10.5 58.5 -31.5 79.5s-47.167 31.5 -78.5 31.5c-30.667 0 -56.5 -10.5 -77.5 -31.5s-31.5 -47.5 -31.5 -79.5s10.5 -58.667 31.5 -80s46.833 -32 77.5 -32zM1264 67.999c31.333 0 57.5 10.5 78.5 31.5s31.5 47.833 31.5 80.5
c0 32 -10.333 58.5 -31 79.5s-47 31.5 -79 31.5c-30.667 0 -56.5 -10.5 -77.5 -31.5s-31.5 -47.5 -31.5 -79.5s10.5 -58.667 31.5 -80s46.833 -32 77.5 -32z" />
    <glyph glyph-name="guilsinglleft" unicode="&#x2039;" horiz-adv-x="268" 
d="M238 405l-96 -153l96 -153h-112l-96 153l96 153h112z" />
    <glyph glyph-name="guilsinglright" unicode="&#x203a;" horiz-adv-x="268" 
d="M238 252l-96 -153h-112l96 153l-96 153h112z" />
    <glyph glyph-name="fraction" unicode="&#x2044;" horiz-adv-x="483" 
d="M51 0h-81l462 680h81z" />
    <glyph glyph-name="zerosuperior" unicode="&#x2070;" horiz-adv-x="448" 
d="M224 699c59.333 0 106 -19.667 140 -59c34 -38.667 51 -88.667 51 -150s-17 -111.666 -51 -150.999s-80.667 -59 -140 -59s-106 19.667 -140 59s-51 89.666 -51 150.999s17 111.333 51 150c35.333 39.333 82 59 140 59zM148 397c18 -24.667 43.333 -36.999 76 -36.999
c33.333 0 58.333 12.333 75 37c18 24.667 27 55.667 27 93c0 36 -9 66.667 -27 92c-18 24.667 -43 37 -75 37c-32.667 0 -58 -12.333 -76 -37c-17.333 -24.667 -26 -55.334 -26 -92.001s8.66699 -67.667 26 -93z" />
    <glyph glyph-name="foursuperior" unicode="&#x2074;" horiz-adv-x="414" 
d="M384 369h-54v-77h-85v77h-215v55l118 269h89l-104 -248h112v112h85v-112h54v-76z" />
    <glyph glyph-name="fivesuperior" unicode="&#x2075;" horiz-adv-x="391" 
d="M147 553l50 -0.00195312c46 0 82 -12 108 -36s39 -56 39 -96c0 -39.333 -14.333 -72.333 -43 -99c-28 -26 -64.333 -39 -109 -39c-43.333 0 -79 10.833 -107 32.5s-44.667 50.834 -50 87.501h86c11.333 -29.333 35 -44 71 -44c20 0 36.667 5.83301 50 17.5
s20 25.834 20 42.501c0 18.667 -5.83301 33.167 -17.5 43.5s-28.167 15.5 -49.5 15.5h-129v215h262v-79h-181v-61z" />
    <glyph glyph-name="sixsuperior" unicode="&#x2076;" horiz-adv-x="385" 
d="M280 693l-81.001 -124.001c44.667 -0.666992 81.667 -14.667 111 -42c28.667 -26.667 43 -59.667 43 -99c0 -41.333 -15 -76 -45 -104c-29.333 -27.333 -67.666 -41 -114.999 -41c-46 0 -84.667 14 -116 42c-30.667 28 -46 61.333 -46 100
c0 28.667 13.333 63.334 40 104.001l106 164h103zM192.999 353.999c21.333 0 39.167 6.49902 53.5 19.499s21.5 29.167 21.5 48.5c2.66699 32 -13 54.167 -47 66.5s-61.667 7.5 -83 -14.5l-1 -1c-13.333 -19.333 -20 -35.666 -20 -48.999c0 -20 7.16699 -36.667 21.5 -50
s32.5 -20 54.5 -20z" />
    <glyph glyph-name="sevensuperior" unicode="&#x2077;" horiz-adv-x="335" 
d="M315 693v-53l-167 -348h-98l154 319h-184v82h295z" />
    <glyph glyph-name="eightsuperior" unicode="&#x2078;" horiz-adv-x="409" 
d="M306 500c40.667 -22 61.001 -54.667 61.001 -98c0 -36.667 -14.833 -66.167 -44.5 -88.5s-69.167 -33.5 -118.5 -33.5s-88.833 11.333 -118.5 34s-44.5 52 -44.5 88c0 44 20.667 76.667 62 98c-30 18.667 -45 46.334 -45 83.001c0 34.667 13.5 62.667 40.5 84
s62.167 32 105.5 32s78.666 -10.667 105.999 -32s41 -49.333 41 -84c0 -36.667 -15 -64.334 -45 -83.001zM144.001 578c0 -16 5.66797 -29 17.001 -39s25.666 -15 42.999 -15s31.5 5 42.5 15s17.167 23 18.5 39c0.666992 21.333 -9.5 36.5 -30.5 45.5s-41.833 9 -62.5 0
s-30 -24.167 -28 -45.5zM271.002 409c0 16 -6.16699 29 -18.5 39s-28.5 15 -48.5 15s-36 -5 -48 -15s-18 -23 -18 -39c0 -16.667 6 -30.167 18 -40.5s28 -15.5 48 -15.5s36.167 5.16699 48.5 15.5s18.5 23.833 18.5 40.5z" />
    <glyph glyph-name="ninesuperior" unicode="&#x2079;" horiz-adv-x="385" 
d="M192 701c46.667 0 85.333 -13.998 116 -41.998s46 -61.333 46 -100c0 -28.667 -13.333 -63.334 -40 -104.001l-106 -164h-103l81 124c-46 1.33301 -83 15 -111 41c-28.667 26.667 -43 60 -43 100c0 41.333 14.667 75.666 44 102.999c30 28 68.667 42 116 42z
M246.999 510.002l0.999023 1.00098c13.333 19.333 20 35.666 20 48.999c0 20 -7.16699 36.667 -21.5 50s-32.5 20 -54.5 20c-21.333 0 -39.166 -6.5 -53.499 -19.5s-21.5 -29.167 -21.5 -48.5c-2.66699 -32 13 -54.167 47 -66.5s61.667 -7.5 83 14.5z" />
    <glyph glyph-name="zeroinferior" unicode="&#x2080;" horiz-adv-x="448" 
d="M225 230c59.333 0 106 -19.667 140 -59s51 -89.333 51 -150c0 -62 -17 -112.333 -51 -151c-34 -39.333 -80.667 -59 -140 -59s-106 19.667 -140 59c-34 38.667 -51 89 -51 151c0 60.667 17 110.667 51 150c35.333 39.333 82 59 140 59zM149 -72
c18 -24.667 43.333 -36.999 76 -36.999c33.333 0 58.333 12.333 75 37c18 25.333 27 56.333 27 93c0 36 -9 66.667 -27 92c-18 24.667 -43 37 -75 37c-32.667 0 -58 -12.333 -76 -37c-17.333 -24.667 -26 -55.334 -26 -92.001s8.66699 -67.667 26 -93z" />
    <glyph glyph-name="oneinferior" unicode="&#x2081;" horiz-adv-x="333" 
d="M325 -108v-72h-295v72h108v237l-103 -30v75l140 46h46v-328h104z" />
    <glyph glyph-name="twoinferior" unicode="&#x2082;" horiz-adv-x="366" 
d="M333 -108l-0.00292969 -72h-293v45l144 153c22 22.667 36.833 40 44.5 52s11.5 24 11.5 36c0 14 -5 25.5 -15 34.5s-23 13.5 -39 13.5c-39.333 0 -60 -19.333 -62 -58h-86c0.666992 40.667 13.834 73.167 39.501 97.5s60.834 36.5 105.501 36.5
s79.834 -11.167 105.501 -33.5s38.5 -50.833 38.5 -85.5c0 -36.667 -23 -80.667 -69 -132l-80 -87h155z" />
    <glyph glyph-name="threeinferior" unicode="&#x2083;" horiz-adv-x="379" 
d="M287 22c36 -19.333 54 -48.668 54 -88.001c0 -36 -14 -65.5 -42 -88.5s-64 -34.5 -108 -34.5c-43.333 0 -78.5 10.833 -105.5 32.5s-43.833 51.5 -50.5 89.5h87c9.33301 -31.333 32.666 -47 69.999 -47c20 0 36 4.5 48 13.5s18 20.5 18 34.5c0 33.333 -25 50 -75 50h-32
v70h32c18 0 32.667 4.66699 44 14s17 21.333 17 36s-5 26.334 -15 35.001s-23.667 13 -41 13c-33.333 0 -51.666 -15.667 -54.999 -47h-87c3.33301 37.333 17.5 67 42.5 89s57.833 33 98.5 33c42 0 75.667 -11.5 101 -34.5s38 -52.5 38 -88.5c0 -34.667 -13 -62 -39 -82z
" />
    <glyph glyph-name="fourinferior" unicode="&#x2084;" horiz-adv-x="414" 
d="M384 -103h-54v-77h-85v77h-215v55l118 269h89l-104 -248h112v112h85v-112h54v-76z" />
    <glyph glyph-name="fiveinferior" unicode="&#x2085;" horiz-adv-x="391" 
d="M147 81l50 -0.00195312c46 0 82 -12 108 -36s39 -56 39 -96c0 -39.333 -14.333 -72.333 -43 -99c-28 -26 -64.333 -39 -109 -39c-43.333 0 -79 10.833 -107 32.5s-44.667 50.834 -50 87.501h86c11.333 -29.333 35 -44 71 -44c20 0 36.667 5.83301 50 17.5
s20 25.834 20 42.501c0 18.667 -5.83301 33.167 -17.5 43.5s-28.167 15.5 -49.5 15.5h-129v215h262v-79h-181v-61z" />
    <glyph glyph-name="sixinferior" unicode="&#x2086;" horiz-adv-x="385" 
d="M280 221l-81.001 -124.001c44.667 -0.666992 81.667 -14.667 111 -42c28.667 -26.667 43 -59.667 43 -99c0 -41.333 -15 -76 -45 -104c-29.333 -27.333 -67.666 -41 -114.999 -41c-46 0 -84.667 14 -116 42c-30.667 28 -46 61.333 -46 100
c0 28.667 13.333 63.334 40 104.001l106 164h103zM192.999 -118.001c21.333 0 39.167 6.49902 53.5 19.499s21.5 29.167 21.5 48.5c2.66699 32 -13 54.167 -47 66.5s-61.667 7.5 -83 -14.5l-1 -1c-13.333 -19.333 -20 -35.666 -20 -48.999c0 -20 7.16699 -36.667 21.5 -50
s32.5 -20 54.5 -20z" />
    <glyph glyph-name="seveninferior" unicode="&#x2087;" horiz-adv-x="335" 
d="M315 221v-53l-167 -348h-98l154 319h-184v82h295z" />
    <glyph glyph-name="eightinferior" unicode="&#x2088;" horiz-adv-x="409" 
d="M306 31c40.667 -22 61.001 -54.667 61.001 -98c0 -36.667 -14.833 -66.167 -44.5 -88.5s-69.167 -33.5 -118.5 -33.5s-88.833 11.333 -118.5 34s-44.5 52 -44.5 88c0 44 20.667 76.667 62 98c-30 19.333 -45 47 -45 83c0 34.667 13.5 62.667 40.5 84s62.167 32 105.5 32
s78.666 -10.667 105.999 -32s41 -49.333 41 -84c0 -36 -15 -63.667 -45 -83zM144.001 109c0 -16 5.66797 -29 17.001 -39s25.666 -15 42.999 -15s31.5 5 42.5 15s17.167 23 18.5 39c0.666992 21.333 -9.5 36.5 -30.5 45.5s-41.833 9 -62.5 0s-30 -24.167 -28 -45.5z
M271.002 -60c0 16 -6.16699 29 -18.5 39s-28.5 15 -48.5 15s-36 -5 -48 -15s-18 -23 -18 -39c0 -16.667 6 -30.167 18 -40.5s28 -15.5 48 -15.5s36.167 5.16699 48.5 15.5s18.5 23.833 18.5 40.5z" />
    <glyph glyph-name="nineinferior" unicode="&#x2089;" horiz-adv-x="385" 
d="M192 231c46.667 0 85.333 -13.998 116 -41.998s46 -61.333 46 -100c0 -28.667 -13.333 -63.334 -40 -104.001l-106 -164h-103l81 124c-46 1.33301 -83 15 -111 41c-28.667 26.667 -43 60 -43 100c0 41.333 14.667 75.666 44 102.999c30 28 68.667 42 116 42z
M246.999 40.002l0.999023 1.00098c13.333 19.333 20 35.666 20 48.999c0 20 -7.16699 36.667 -21.5 50s-32.5 20 -54.5 20c-21.333 0 -39.166 -6.5 -53.499 -19.5s-21.5 -29.167 -21.5 -48.5c-2.66699 -32 13 -54.167 47 -66.5s61.667 -7.5 83 14.5z" />
    <glyph glyph-name="Euro" unicode="&#x20ac;" horiz-adv-x="865" 
d="M478 101c53.333 0 97.833 14.1641 133.5 42.4971s60.167 68.5 73.5 120.5h123c-14.667 -83.333 -52.334 -150.666 -113.001 -201.999c-58.667 -50.667 -131 -76 -217 -76c-76.667 0 -145 20.667 -205 62c-59.333 40.667 -101.666 96 -126.999 166h-105v82h85
c-1.33301 25.333 -2 40 -2 44l1 24h-84v82h98c22 74.667 64 134.334 126 179.001c62 46 133 69 213 69c86 0 158.333 -25.333 217 -76c60.667 -51.333 98.334 -118.666 113.001 -201.999h-123c-13.333 52 -37.833 92.167 -73.5 120.5s-80.167 42.5 -133.5 42.5
c-48 0 -90.667 -11.833 -128 -35.5s-65 -56.167 -83 -97.5h279l-21 -82h-279c-0.666992 -3.33301 -1 -11.333 -1 -24c0 -15.333 1 -30 3 -44h261l-21 -82h-211c19.333 -35.333 46.666 -63 81.999 -83s75 -30 119 -30z" />
    <glyph glyph-name="uni2116" unicode="&#x2116;" horiz-adv-x="1382" 
d="M558 680h120v-680h-95l-387 457v-457h-120v680h90l392 -469v469zM802 425c0 71.333 24 130.333 72 177c48.667 47.333 108.667 71 180 71c72 0 131.667 -23.667 179 -71c48 -46.667 72 -105.667 72 -177c0 -72 -24 -132 -72 -180c-47.333 -47.333 -107 -71 -179 -71
c-71.333 0 -131.333 23.667 -180 71c-48 48 -72 108 -72 180zM918 425c0 -40.667 12.666 -75.334 37.999 -104.001c24.667 -28 57.334 -42 98.001 -42c40 0 72.667 14 98 42c25.333 28.667 38 63.334 38 104.001s-12.833 74.667 -38.5 102s-58.167 41 -97.5 41
s-71.833 -13.667 -97.5 -41s-38.5 -61.333 -38.5 -102zM814.999 102h478v-102h-478v102z" />
    <glyph glyph-name="uni2117" unicode="&#x2117;" horiz-adv-x="840" 
d="M163 593c71.333 68 157 102 257 102s185.667 -34 257 -102s107 -152.333 107 -253s-35.667 -185 -107 -253s-157 -102 -257 -102s-185.667 34 -257 102s-107 152.333 -107 253s35.667 185 107 253zM419 619c-76.667 0 -143 -27 -199 -81s-84 -120 -84 -198
s28 -144 84 -198s122.333 -81 199 -81c77.333 0 144 27 200 81s84 120 84 198s-28 144 -84 198s-122.667 81 -200 81zM307 512h136c39.333 0 71 -10.5 95 -31.5s36 -48.833 36 -83.5s-12.167 -62 -36.5 -82s-56.833 -30 -97.5 -30h-63v-97h-70v324zM377 446
l-0.000976562 -98h65c18.667 0 33.334 4.5 44.001 13.5s16 21.167 16 36.5c0 14 -5.5 25.5 -16.5 34.5s-25.5 13.5 -43.5 13.5h-65z" />
    <glyph glyph-name="trademark" unicode="&#x2122;" horiz-adv-x="694" 
d="M291 679v-63h-98v-229h-66v229h-98v63h262zM648 679v-292h-66v159l-80 -124h-35v1l-81 124l1 -160h-65v292h48l115 -171l114 171h49z" />
    <glyph glyph-name="oneeighth" unicode="&#x215b;" horiz-adv-x="948" 
d="M741 680l-462 -680h-81l462 680h81zM30 279v72h108v237l-103 -30v75l140 46h46v-328h104v-72h-295zM846 211c40.667 -22 61.002 -54.667 61.002 -98c0 -36.667 -14.833 -66.167 -44.5 -88.5s-69.167 -33.5 -118.5 -33.5s-88.833 11.333 -118.5 34s-44.5 52 -44.5 88
c0 44 20.667 76.667 62 98c-30.667 20 -46 47.667 -46 83c0 34.667 13.667 62.667 41 84s62.666 32 105.999 32s78.666 -10.667 105.999 -32s41 -49.333 41 -84c0 -36 -15 -63.667 -45 -83zM683.002 289c0 -16 5.83203 -29 17.499 -39s26.167 -15 43.5 -15s31.833 5 43.5 15
s17.5 23 17.5 39c2 21.333 -7.66699 36.5 -29 45.5s-42.666 9 -63.999 0s-31 -24.167 -29 -45.5zM810.001 120c0 16 -6 29 -18 39s-28 15 -48 15s-36 -5 -48 -15s-18 -23 -18 -39c0 -16.667 6 -30.167 18 -40.5s28 -15.5 48 -15.5s36 5.16699 48 15.5s18 23.833 18 40.5z
" />
    <glyph glyph-name="threeeighths" unicode="&#x215c;" horiz-adv-x="926" 
d="M343 397c0 -36 -14 -65.502 -42 -88.502s-64 -34.5 -108 -34.5c-43.333 0 -78.5 10.833 -105.5 32.5s-43.833 51.5 -50.5 89.5h87c9.33301 -31.333 32.666 -47 69.999 -47c20 0 36 4.5 48 13.5s18 20.5 18 34.5c0 33.333 -25 50 -75 50h-32v70h32
c18 0 32.667 4.66699 44 14s17 21.333 17 36s-5 26.334 -15 35.001s-23.667 13 -41 13c-33.333 0 -51.666 -15.667 -54.999 -47h-87c3.33301 37.333 17.5 67 42.5 89s57.833 33 98.5 33c42 0 75.667 -11.5 101 -34.5s38 -52.5 38 -88.5c0 -34.667 -13 -62 -39 -82
c36 -19.333 54 -48.666 54 -87.999zM719 679.998l-462 -680h-81l462 680h81zM824 210.998c40.667 -22 61.002 -54.667 61.002 -98c0 -36.667 -14.833 -66.167 -44.5 -88.5s-69.167 -33.5 -118.5 -33.5s-88.833 11.333 -118.5 34s-44.5 52 -44.5 88c0 44 20.667 76.667 62 98
c-30.667 20 -46 47.667 -46 83c0 34.667 13.667 62.667 41 84s62.666 32 105.999 32s78.666 -10.667 105.999 -32s41 -49.333 41 -84c0 -36 -15 -63.667 -45 -83zM661.002 288.998c0 -16 5.83203 -29 17.499 -39s26.167 -15 43.5 -15s31.833 5 43.5 15s17.5 23 17.5 39
c2 21.333 -7.66699 36.5 -29 45.5s-42.666 9 -63.999 0s-31 -24.167 -29 -45.5zM788.001 119.998c0 16 -6 29 -18 39s-28 15 -48 15s-36 -5 -48 -15s-18 -23 -18 -39c0 -16.667 6 -30.167 18 -40.5s28 -15.5 48 -15.5s36 5.16699 48 15.5s18 23.833 18 40.5z" />
    <glyph glyph-name="fiveeighths" unicode="&#x215d;" horiz-adv-x="931" 
d="M192 270c-43.333 0 -79 10.8311 -107 32.498s-44.667 50.834 -50 87.501h86c11.333 -29.333 35 -44 71 -44c20 0 36.667 5.83301 50 17.5s20 25.834 20 42.501c0 18.667 -5.83301 33.167 -17.5 43.5s-28.167 15.5 -49.5 15.5h-129v215h262v-79h-181v-61h50
c46 0 82 -12 108 -36s39 -56 39 -96c0 -39.333 -14.333 -72.333 -43 -99c-28 -26 -64.333 -39 -109 -39zM723 679.998l-462 -680h-81l462 680h81zM828 210.998c40.667 -22 61.002 -54.667 61.002 -98c0 -36.667 -14.833 -66.167 -44.5 -88.5s-69.167 -33.5 -118.5 -33.5
s-88.833 11.333 -118.5 34s-44.5 52 -44.5 88c0 44 20.667 76.667 62 98c-30.667 20 -46 47.667 -46 83c0 34.667 13.667 62.667 41 84s62.666 32 105.999 32s78.666 -10.667 105.999 -32s41 -49.333 41 -84c0 -36 -15 -63.667 -45 -83zM666.002 288.998
c0 -16 5.66797 -29 17.001 -39s25.666 -15 42.999 -15s31.5 5 42.5 15s17.167 23 18.5 39c0.666992 21.333 -9.5 36.5 -30.5 45.5s-41.833 9 -62.5 0s-30 -24.167 -28 -45.5zM792.003 119.998c0 16 -6 29 -18 39s-28 15 -48 15s-36 -5 -48 -15s-18 -23 -18 -39
c0 -16.667 6 -30.167 18 -40.5s28 -15.5 48 -15.5s36 5.16699 48 15.5s18 23.833 18 40.5z" />
    <glyph glyph-name="seveneighths" unicode="&#x215e;" horiz-adv-x="845" 
d="M67 279l154 319h-184v82h295v-53l-167 -348h-98zM638 680l-462 -680h-82l462 680h82zM742 211c40.667 -22 61.001 -54.6689 61.001 -98.002c0 -36.667 -14.833 -66.167 -44.5 -88.5s-69.167 -33.5 -118.5 -33.5s-88.666 11.333 -117.999 34s-44 52 -44 88
c0 44.667 20.333 77.334 61 98.001c-30 20.667 -45 48.334 -45 83.001c0 35.333 13.333 63.333 40 84c27.333 21.333 62.666 32 105.999 32s78.666 -10.667 105.999 -32s41 -49.333 41 -84c0 -36 -15 -63.667 -45 -83zM580.001 288.998c0 -16 5.66797 -29 17.001 -39
s25.666 -15 42.999 -15c18 0 32.333 5 43 15s16.667 23 18 39c0.666992 21.333 -9.5 36.5 -30.5 45.5s-41.833 9 -62.5 0s-30 -24.167 -28 -45.5zM640.002 63.998c20 0 36.167 5.16699 48.5 15.5s18.5 23.833 18.5 40.5c0 16 -6.16699 29 -18.5 39s-28.5 15 -48.5 15
c-19.333 0 -35.166 -5 -47.499 -15s-18.5 -23 -18.5 -39c0 -16.667 6.16699 -30.167 18.5 -40.5s28.166 -15.5 47.499 -15.5z" />
    <glyph glyph-name="arrowleft" unicode="&#x2190;" horiz-adv-x="766" 
d="M237 287l218 -214l-76 -76l-345 344l345 345l76 -77l-217 -212h488v-110h-489z" />
    <glyph glyph-name="arrowup" unicode="&#x2191;" horiz-adv-x="779" 
d="M335 489l-213 -218l-77 76l345 345l344 -345l-76 -76l-213 217v-488h-110v489z" />
    <glyph glyph-name="arrowright" unicode="&#x2192;" horiz-adv-x="766" 
d="M40 397h488l-217 212l76 77l345 -345l-345 -344l-76 76l218 214h-489v110z" />
    <glyph glyph-name="arrowdown" unicode="&#x2193;" horiz-adv-x="779" 
d="M445 680v-488l213 217l76 -76l-344 -345l-345 345l77 76l213 -218v489h110z" />
    <glyph glyph-name="arrowupleft" unicode="&#x2196;" horiz-adv-x="798" 
d="M692 0l-494 494v-302h-108v488h488v-108h-303l495 -495z" />
    <glyph glyph-name="arrowupright" unicode="&#x2197;" horiz-adv-x="804" 
d="M529 572h-303v108h488v-488h-109l1 302l-494 -494l-78 77z" />
    <glyph glyph-name="arrowdownright" unicode="&#x2198;" horiz-adv-x="798" 
d="M106 680l494 -494v302h108v-488h-488v108h303l-494 495z" />
    <glyph glyph-name="arrowdownleft" unicode="&#x2199;" horiz-adv-x="795" 
d="M275 108h303v-108h-488v488h108v-302l494 494l78 -77z" />
    <glyph glyph-name="minus" unicode="&#x2212;" horiz-adv-x="685" 
d="M104 383h477v-106h-477v106z" />
    <glyph glyph-name="fi" unicode="&#xfb01;" horiz-adv-x="705" 
d="M630 473l0.000976562 -473.001h-116v376h-261v-376h-116v376h-132v97h132v55c0 70.667 19.333 126.667 58 168c39.333 42 90.666 63 153.999 63c24 0 42.333 -1 55 -3c26 -4 42 -6.66699 48 -8c4.66699 -1.33301 9.5 -2.5 14.5 -3.5s7.83301 -1.5 8.5 -1.5l27 -7
c12 -3.33301 21.667 -5.66602 29 -6.99902l-23 -99c-62.667 15.333 -111 23 -145 23c-34.667 0 -61.667 -11 -81 -33s-29 -52.667 -29 -92v-55h377z" />
    <glyph glyph-name="fl" unicode="&#xfb02;" horiz-adv-x="690" 
d="M137 473l0.000976562 83.998c0 60.667 17.333 109.334 52 146.001c35.333 37.333 82 56 140 56c35.333 0 71.666 -5 108.999 -15l-16 -100c-29.333 6 -53 9 -71 9c-30 0 -54 -8.66699 -72 -26s-27 -40.666 -27 -69.999v-84h166v-97h-166v-376h-115v376h-132v97h132z
M622.001 709.998v-710h-115v710h115z" />
    <glyph glyph-name=".null" horiz-adv-x="0" 
 />
    <glyph glyph-name="nonmarkingreturn" horiz-adv-x="333" 
 />
    <glyph glyph-name="NULL" horiz-adv-x="0" 
 />
    <glyph glyph-name="CR" horiz-adv-x="333" 
 />
    <glyph glyph-name="R.ss02" horiz-adv-x="685" 
d="M230 224l-34.001 -0.000976562v-224h-120v680h275c80.667 0 145.334 -21 194.001 -63c49.333 -41.333 74 -96.333 74 -165c0 -62 -20 -113.167 -60 -153.5s-94 -64.166 -162 -71.499l263 -227h-168zM195.999 334.999h150c46.667 0 84.167 10.5 112.5 31.5
s42.5 49.5 42.5 85.5s-14.167 64.5 -42.5 85.5s-65.833 31.5 -112.5 31.5h-150v-234z" />
    <glyph glyph-name="Racute.ss02" horiz-adv-x="685" 
d="M374 755h-105l75 149h128zM230 224l-34.001 -0.000976562v-224h-120v680h275c80.667 0 145.334 -21 194.001 -63c49.333 -41.333 74 -96.333 74 -165c0 -62 -20 -113.167 -60 -153.5s-94 -64.166 -162 -71.499l264 -227h-169zM195.999 334.999h150
c46.667 0 84.167 10.5 112.5 31.5s42.5 49.5 42.5 85.5s-14.167 64.5 -42.5 85.5s-65.833 31.5 -112.5 31.5h-150v-234z" />
    <glyph glyph-name="Rcaron.ss02" horiz-adv-x="685" 
d="M268 747l-119 152h108l67 -79l65 79h109l-120 -152h-110zM230 224l-34.001 -0.000976562v-224h-120v680h275c80.667 0 145.334 -21 194.001 -63c49.333 -41.333 74 -96.333 74 -165c0 -62 -20 -113.167 -60 -153.5s-94 -64.166 -162 -71.499l264 -227h-169z
M195.999 334.999h150c46.667 0 84.167 10.5 112.5 31.5s42.5 49.5 42.5 85.5s-14.167 64.5 -42.5 85.5s-65.833 31.5 -112.5 31.5h-150v-234z" />
    <glyph glyph-name="Rcommaaccent.ss02" horiz-adv-x="685" 
d="M661 0l-169.001 -0.000976562l-262 224h-34v-224h-120v680h275c80.667 0 145.334 -21 194.001 -63c49.333 -41.333 74 -96.333 74 -165c0 -62 -20 -113.167 -60 -153.5s-94 -64.166 -162 -71.499zM195.999 334.999h150c46.667 0 84.167 10.5 112.5 31.5
s42.5 49.5 42.5 85.5s-14.167 64.5 -42.5 85.5s-65.833 31.5 -112.5 31.5h-150v-234zM332.999 -50.001c18 0 33.667 -6.16602 47 -18.499s20 -27.166 20 -44.499c0 -10.667 -2.66699 -22 -8 -34c-5.33301 -12.667 -24.333 -46.334 -57 -101.001h-65l37 80
c-27.333 10 -41 28.333 -41 55c0 17.333 6.5 32.166 19.5 44.499s28.833 18.5 47.5 18.5z" />
    <glyph glyph-name="Q.ss03" horiz-adv-x="820" 
d="M159 590c69.333 69.333 153.002 103.998 251.002 103.998c97.333 0 180.666 -34.667 249.999 -104s104 -152.666 104 -249.999c0 -98 -34.667 -181.667 -104 -251c-68.667 -68.667 -152 -103 -250 -103c-98.667 0 -182.334 34.333 -251.001 103
s-103 152.334 -103 251.001c0 98 34.333 181.333 103 250zM411.002 97.998c65.333 0 120.332 23.333 164.999 70s67 104 67 172c0 67.333 -22.333 124.333 -67 171c-45.333 47.333 -100.333 71 -165 71c-65.333 0 -120.666 -23.667 -165.999 -71
c-44.667 -46.667 -67 -103.667 -67 -171c0 -68 22.333 -125.333 67 -172s100 -70 166 -70zM720.001 -107.002l-15 -114c-114 16.667 -223.333 41 -328 73l11 88z" />
    <glyph glyph-name="i.loclTRK" horiz-adv-x="266" 
d="M133 575c-20.667 0 -37.834 6.66699 -51.501 20s-20.5 29.666 -20.5 48.999c0 20.667 6.83301 37.667 20.5 51s30.834 20 51.501 20c20 0 37 -6.83301 51 -20.5s21 -30.5 21 -50.5c0 -19.333 -7 -35.666 -21 -48.999s-31 -20 -51 -20zM191 473v-473h-115v473h115z" />
    <glyph glyph-name="germandbls.case" horiz-adv-x="1309" 
d="M334 695c32 0 62.666 -3.66504 91.999 -10.998s57.5 -19 84.5 -35s49.333 -38.5 67 -67.5s28.5 -63.167 32.5 -102.5h-119c-12 75.333 -61.667 113 -149 113c-41.333 0 -74.333 -8.83301 -99 -26.5s-37 -41.834 -37 -72.501c0 -24.667 8.83301 -44 26.5 -58
s45.834 -25 84.501 -33l86 -17c69.333 -14 120.666 -35.833 153.999 -65.5s50 -70.167 50 -121.5c0 -64 -24.333 -115.333 -73 -154c-47.333 -38.667 -110.666 -58 -189.999 -58c-84.667 0 -153 21 -205 63s-81 99.667 -87 173h119c6 -40 25 -71.667 57 -95s73 -35 123 -35
c41.333 0 73.833 8.16699 97.5 24.5s35.5 38.833 35.5 67.5c0 43.333 -33.333 71.333 -100 84l-112 22c-128 25.333 -192 89.666 -192 192.999c0 63.333 23 114.333 69 153c47.333 39.333 109 59 185 59zM975.999 695.002c32 0 62.666 -3.66504 91.999 -10.998
s57.5 -19 84.5 -35s49.333 -38.5 67 -67.5s28.5 -63.167 32.5 -102.5h-119c-12 75.333 -61.667 113 -149 113c-41.333 0 -74.166 -8.83301 -98.499 -26.5s-36.5 -41.834 -36.5 -72.501c0 -24.667 8.83301 -44 26.5 -58s45.5 -25 83.5 -33l86 -17
c69.333 -14 120.666 -35.833 153.999 -65.5s50 -70.167 50 -121.5c0 -64 -24.333 -115.333 -73 -154c-47.333 -38.667 -110.666 -58 -189.999 -58c-84.667 0 -153 21 -205 63s-81 99.667 -87 173h119c6 -40 25 -71.667 57 -95s73 -35 123 -35
c41.333 0 73.833 8.16699 97.5 24.5s35.5 38.833 35.5 67.5c0 43.333 -33.333 71.333 -100 84l-112 22c-128 25.333 -192 89.666 -192 192.999c0 63.333 23 114.333 69 153c47.333 39.333 109 59 185 59z" />
    <glyph glyph-name="l.ss01" horiz-adv-x="374" 
d="M185 710v-550.999c0 -44.667 21.333 -67 64 -67c22 0 47.333 4 76 12l16 -99c-46 -13.333 -82.667 -20 -110 -20c-52 0 -91.833 14.167 -119.5 42.5s-41.5 69.166 -41.5 122.499v560h115z" />
    <glyph glyph-name="lacute.ss01" horiz-adv-x="374" 
d="M276 940l-98 -149h-105l75 149h128zM185 710l0.000976562 -550.999c0 -44.667 21.333 -67 64 -67c23.333 0 48.666 4 75.999 12l16 -99c-46 -13.333 -82.667 -20 -110 -20c-52 0 -91.833 14.167 -119.5 42.5s-41.5 69.166 -41.5 122.499v560h115z" />
    <glyph glyph-name="lcaron.ss01" horiz-adv-x="374" 
d="M185 710l0.000976562 -550.999c0 -44.667 21.333 -67 64 -67c23.333 0 48.666 4 75.999 12l16 -99c-46 -13.333 -82.667 -20 -110 -20c-52 0 -91.833 14.167 -119.5 42.5s-41.5 69.166 -41.5 122.499v560h115zM376.001 710.001l-36 -199h-88l7 199h117z" />
    <glyph glyph-name="lcommaaccent.ss01" horiz-adv-x="374" 
d="M185 710l0.000976562 -550.999c0 -44.667 21.333 -67 64 -67c23.333 0 48.666 4 75.999 12l16 -99c-46 -13.333 -82.667 -20 -110 -20c-52 0 -91.833 14.167 -119.5 42.5s-41.5 69.166 -41.5 122.499v560h115zM139.001 -247.999l37 80.001c-27.333 10 -41 28.333 -41 55
c0 17.333 6.5 32.166 19.5 44.499s28.833 18.5 47.5 18.5c18 0 33.667 -6.16699 47 -18.5s20 -27.166 20 -44.499c0 -10.667 -2.66699 -22 -8 -34c-5.33301 -12.667 -24.333 -46.334 -57 -101.001h-65z" />
    <glyph glyph-name="ldot.ss01" horiz-adv-x="407" 
d="M185 710l0.000976562 -550.999c0 -44.667 21.333 -67 64 -67c23.333 0 48.666 4 75.999 12l16 -99c-46 -13.333 -82.667 -20 -110 -20c-52 0 -91.833 14.167 -119.5 42.5s-41.5 69.166 -41.5 122.499v560h115zM310.001 259.001c-20.667 0 -38 6.66699 -52 20
s-21 30 -21 50s7 36.667 21 50s31.333 20 52 20c20 0 37.167 -6.66699 51.5 -20s21.5 -30 21.5 -50s-7.16699 -36.667 -21.5 -50s-31.5 -20 -51.5 -20z" />
    <glyph glyph-name="lslash.ss01" horiz-adv-x="374" 
d="M325 104l16.001 -98.999c-46 -13.333 -82.667 -20 -110 -20c-52 0 -91.833 14.167 -119.5 42.5s-41.5 69.166 -41.5 122.499v137l-65 -28v118l65 28v305h115v-256l66 28v-117l-66 -28v-178c0 -44.667 21.333 -67 64 -67c23.333 0 48.666 4 75.999 12z" />
    <glyph glyph-name="y.ss04" horiz-adv-x="603" 
d="M535 473l0.000976562 -476.001c0 -71.333 -22 -128 -66 -170s-101.333 -63 -172 -63c-66.667 0 -122.334 18.333 -167.001 55c-46 37.333 -71.333 84.333 -76 141h117c4 -28 17.167 -50.167 39.5 -66.5s51.166 -24.5 86.499 -24.5c36.667 0 66.334 11.5 89.001 34.5
s34 54.167 34 93.5v69c-42.667 -36.667 -91 -55 -145 -55c-63.333 0 -114 20.667 -152 62c-38 40.667 -57 95.667 -57 165v235h115v-228c0 -41.333 10.333 -73.166 31 -95.499s49.667 -33.5 87 -33.5c44 0 84.333 23 121 69v288h115z" />
    <glyph glyph-name="yacute.ss04" horiz-adv-x="603" 
d="M350 554h-105l75 149h128zM535 473l0.000976562 -476.001c0 -71.333 -22 -128 -66 -170s-101.333 -63 -172 -63c-66.667 0 -122.334 18.333 -167.001 55c-44.667 36 -70 83 -76 141h117c4 -28 17.167 -50.167 39.5 -66.5s51.166 -24.5 86.499 -24.5
c36.667 0 66.334 11.5 89.001 34.5s34 54.167 34 93.5v69c-42.667 -36.667 -91 -55 -145 -55c-63.333 0 -114 20.667 -152 62c-38 40.667 -57 95.667 -57 165v235h115v-228c0 -41.333 10.333 -73.166 31 -95.499s49.667 -33.5 87 -33.5c44 0 84.333 23 121 69v288h115z" />
    <glyph glyph-name="ycircumflex.ss04" horiz-adv-x="603" 
d="M234 545h-108l119 152h110l120 -152h-109l-65 79zM535 473l0.000976562 -476.001c0 -71.333 -22 -128 -66 -170s-101.333 -63 -172 -63c-66.667 0 -122.334 18.333 -167.001 55c-44.667 36 -70 83 -76 141h117c4 -28 17.167 -50.167 39.5 -66.5
s51.166 -24.5 86.499 -24.5c36.667 0 66.334 11.5 89.001 34.5s34 54.167 34 93.5v69c-42.667 -36.667 -91 -55 -145 -55c-63.333 0 -114 20.667 -152 62c-38 40.667 -57 95.667 -57 165v235h115v-228c0 -41.333 10.333 -73.166 31 -95.499s49.667 -33.5 87 -33.5
c44 0 84.333 23 121 69v288h115z" />
    <glyph glyph-name="ydieresis.ss04" horiz-adv-x="603" 
d="M197 556c-20 0 -37.167 6.66699 -51.5 20s-21.5 30 -21.5 50s7.16699 36.667 21.5 50s31.5 20 51.5 20c20.667 0 38 -6.66699 52 -20s21 -30 21 -50s-7 -36.667 -21 -50s-31.333 -20 -52 -20zM405 556c-20 0 -37.167 6.66699 -51.5 20s-21.5 30 -21.5 50
s7.16699 36.667 21.5 50s31.5 20 51.5 20c20.667 0 38 -6.66699 52 -20s21 -30 21 -50s-7 -36.667 -21 -50s-31.333 -20 -52 -20zM535 473l0.000976562 -476.001c0 -71.333 -22 -128 -66 -170s-101.333 -63 -172 -63c-66.667 0 -122.334 18.333 -167.001 55
c-44.667 36 -70 83 -76 141h117c4 -28 17.167 -50.167 39.5 -66.5s51.166 -24.5 86.499 -24.5c36.667 0 66.334 11.5 89.001 34.5s34 54.167 34 93.5v69c-42.667 -36.667 -91 -55 -145 -55c-63.333 0 -114 20.667 -152 62c-38 40.667 -57 95.667 -57 165v235h115v-228
c0 -41.333 10.333 -73.166 31 -95.499s49.667 -33.5 87 -33.5c44 0 84.333 23 121 69v288h115z" />
    <glyph glyph-name="ygrave.ss04" horiz-adv-x="603" 
d="M260 554l-98 149h128l75 -149h-105zM535 473l0.000976562 -476.001c0 -71.333 -22 -128 -66 -170s-101.333 -63 -172 -63c-66.667 0 -122.334 18.333 -167.001 55c-44.667 36 -70 83 -76 141h117c4 -28 17.167 -50.167 39.5 -66.5s51.166 -24.5 86.499 -24.5
c36.667 0 66.334 11.5 89.001 34.5s34 54.167 34 93.5v69c-42.667 -36.667 -91 -55 -145 -55c-63.333 0 -114 20.667 -152 62c-38 40.667 -57 95.667 -57 165v235h115v-228c0 -41.333 10.333 -73.166 31 -95.499s49.667 -33.5 87 -33.5c44 0 84.333 23 121 69v288h115z" />
    <glyph glyph-name="a.ss06" horiz-adv-x="542" 
d="M270 487c66 0 118.166 -18.667 156.499 -56s57.5 -88 57.5 -152v-279h-114v27c-45.333 -24.667 -93.666 -37 -144.999 -37c-60 0 -106.5 13.5 -139.5 40.5s-49.5 64.5 -49.5 112.5c0 43.333 16 76.833 48 100.5s76 35.5 132 35.5h154c0 33.333 -8.33301 59.833 -25 79.5
s-41.667 29.5 -75 29.5c-26.667 0 -49 -6 -67 -18s-28.333 -28.667 -31 -50h-116c4 54.667 26.667 96 68 124c41.333 28.667 90 43 146 43zM238.999 85c46 0 89.666 14 130.999 42v66h-156c-22 0 -38.833 -4.5 -50.5 -13.5s-17.5 -20.833 -17.5 -35.5
c0 -18 7.83301 -32.333 23.5 -43s38.834 -16 69.501 -16z" />
    <glyph glyph-name="aacute.ss06" horiz-adv-x="542" 
d="M323 554h-105l75 149h128zM484 279v-279h-114v27c-45.333 -24.667 -93.333 -37 -144 -37c-60 0 -106.667 13.5 -140 40.5s-50 64.5 -50 112.5c0 43.333 16 76.833 48 100.5s76 35.5 132 35.5h154c0 33.333 -8.5 59.833 -25.5 79.5s-41.833 29.5 -74.5 29.5
c-26.667 0 -49 -6 -67 -18s-28.333 -28.667 -31 -50h-116c2.66699 54 25 95.333 67 124c41.333 28.667 90.333 43 147 43c66 0 118.167 -18.667 156.5 -56s57.5 -88 57.5 -152zM240 85c45.333 0 88.667 14 130 42v66h-156c-22 0 -38.833 -4.5 -50.5 -13.5
s-17.5 -20.833 -17.5 -35.5c0 -18 7.83301 -32.333 23.5 -43s39.167 -16 70.5 -16z" />
    <glyph glyph-name="abreve.ss06" horiz-adv-x="542" 
d="M119 694h84c-2.66699 -32 8.5 -54.833 33.5 -68.5s50 -13.667 75 0s36.167 36.5 33.5 68.5h84c0 -48.667 -14.167 -86.5 -42.5 -113.5s-65.833 -40.5 -112.5 -40.5s-84.167 13.5 -112.5 40.5s-42.5 64.833 -42.5 113.5zM484 279v-279h-114v27
c-45.333 -24.667 -93.333 -37 -144 -37c-60 0 -106.667 13.5 -140 40.5s-50 64.5 -50 112.5c0 43.333 16 76.833 48 100.5s76 35.5 132 35.5h154c0 33.333 -8.5 59.833 -25.5 79.5s-41.833 29.5 -74.5 29.5c-26.667 0 -49 -6 -67 -18s-28.333 -28.667 -31 -50h-116
c2.66699 54 25 95.333 67 124c41.333 28.667 90.333 43 147 43c66 0 118.167 -18.667 156.5 -56s57.5 -88 57.5 -152zM240 85c45.333 0 88.667 14 130 42v66h-156c-22 0 -38.833 -4.5 -50.5 -13.5s-17.5 -20.833 -17.5 -35.5c0 -18 7.83301 -32.333 23.5 -43
s39.167 -16 70.5 -16z" />
    <glyph glyph-name="acaron.ss06" horiz-adv-x="542" 
d="M218 545l-119 152h108l67 -79l65 79h109l-120 -152h-110zM484 279v-279h-114v27c-45.333 -24.667 -93.333 -37 -144 -37c-60 0 -106.667 13.5 -140 40.5s-50 64.5 -50 112.5c0 43.333 16 76.833 48 100.5s76 35.5 132 35.5h154c0 33.333 -8.5 59.833 -25.5 79.5
s-41.833 29.5 -74.5 29.5c-26.667 0 -49 -6 -67 -18s-28.333 -28.667 -31 -50h-116c2.66699 54 25 95.333 67 124c41.333 28.667 90.333 43 147 43c66 0 118.167 -18.667 156.5 -56s57.5 -88 57.5 -152zM240 85c45.333 0 88.667 14 130 42v66h-156
c-22 0 -38.833 -4.5 -50.5 -13.5s-17.5 -20.833 -17.5 -35.5c0 -18 7.83301 -32.333 23.5 -43s39.167 -16 70.5 -16z" />
    <glyph glyph-name="acircumflex.ss06" horiz-adv-x="542" 
d="M207 545h-108l119 152h110l120 -152h-109l-65 79zM484 279v-279h-114v27c-45.333 -24.667 -93.333 -37 -144 -37c-60 0 -106.667 13.5 -140 40.5s-50 64.5 -50 112.5c0 43.333 16 76.833 48 100.5s76 35.5 132 35.5h154c0 33.333 -8.5 59.833 -25.5 79.5
s-41.833 29.5 -74.5 29.5c-26.667 0 -49 -6 -67 -18s-28.333 -28.667 -31 -50h-116c2.66699 54 25 95.333 67 124c41.333 28.667 90.333 43 147 43c66 0 118.167 -18.667 156.5 -56s57.5 -88 57.5 -152zM240 85c45.333 0 88.667 14 130 42v66h-156
c-22 0 -38.833 -4.5 -50.5 -13.5s-17.5 -20.833 -17.5 -35.5c0 -18 7.83301 -32.333 23.5 -43s39.167 -16 70.5 -16z" />
    <glyph glyph-name="adieresis.ss06" horiz-adv-x="542" 
d="M170 556c-20 0 -37.167 6.66699 -51.5 20s-21.5 30 -21.5 50s7.16699 36.667 21.5 50s31.5 20 51.5 20c20.667 0 38 -6.66699 52 -20s21 -30 21 -50s-7 -36.667 -21 -50s-31.333 -20 -52 -20zM378 556c-20 0 -37.167 6.66699 -51.5 20s-21.5 30 -21.5 50
s7.16699 36.667 21.5 50s31.5 20 51.5 20c20.667 0 38 -6.66699 52 -20s21 -30 21 -50s-7 -36.667 -21 -50s-31.333 -20 -52 -20zM484 279v-279h-114v27c-45.333 -24.667 -93.333 -37 -144 -37c-60 0 -106.667 13.5 -140 40.5s-50 64.5 -50 112.5
c0 43.333 16 76.833 48 100.5s76 35.5 132 35.5h154c0 33.333 -8.5 59.833 -25.5 79.5s-41.833 29.5 -74.5 29.5c-26.667 0 -49 -6 -67 -18s-28.333 -28.667 -31 -50h-116c2.66699 54 25 95.333 67 124c41.333 28.667 90.333 43 147 43c66 0 118.167 -18.667 156.5 -56
s57.5 -88 57.5 -152zM240 85c45.333 0 88.667 14 130 42v66h-156c-22 0 -38.833 -4.5 -50.5 -13.5s-17.5 -20.833 -17.5 -35.5c0 -18 7.83301 -32.333 23.5 -43s39.167 -16 70.5 -16z" />
    <glyph glyph-name="agrave.ss06" horiz-adv-x="542" 
d="M233 554l-98 149h128l75 -149h-105zM484 279v-279h-114v27c-45.333 -24.667 -93.333 -37 -144 -37c-60 0 -106.667 13.5 -140 40.5s-50 64.5 -50 112.5c0 43.333 16 76.833 48 100.5s76 35.5 132 35.5h154c0 33.333 -8.5 59.833 -25.5 79.5s-41.833 29.5 -74.5 29.5
c-26.667 0 -49 -6 -67 -18s-28.333 -28.667 -31 -50h-116c2.66699 54 25 95.333 67 124c41.333 28.667 90.333 43 147 43c66 0 118.167 -18.667 156.5 -56s57.5 -88 57.5 -152zM240 85c45.333 0 88.667 14 130 42v66h-156c-22 0 -38.833 -4.5 -50.5 -13.5
s-17.5 -20.833 -17.5 -35.5c0 -18 7.83301 -32.333 23.5 -43s39.167 -16 70.5 -16z" />
    <glyph glyph-name="amacron.ss06" horiz-adv-x="542" 
d="M414 573h-280v95h280v-95zM484 279v-279h-114v27c-45.333 -24.667 -93.333 -37 -144 -37c-60 0 -106.667 13.5 -140 40.5s-50 64.5 -50 112.5c0 43.333 16 76.833 48 100.5s76 35.5 132 35.5h154c0 33.333 -8.5 59.833 -25.5 79.5s-41.833 29.5 -74.5 29.5
c-26.667 0 -49 -6 -67 -18s-28.333 -28.667 -31 -50h-116c2.66699 54 25 95.333 67 124c41.333 28.667 90.333 43 147 43c66 0 118.167 -18.667 156.5 -56s57.5 -88 57.5 -152zM240 85c45.333 0 88.667 14 130 42v66h-156c-22 0 -38.833 -4.5 -50.5 -13.5
s-17.5 -20.833 -17.5 -35.5c0 -18 7.83301 -32.333 23.5 -43s39.167 -16 70.5 -16z" />
    <glyph glyph-name="aogonek.ss06" horiz-adv-x="542" 
d="M516 -79l11.001 -85c-18 -7.33301 -40.333 -11 -67 -11c-42.667 0 -77 10.333 -103 31s-39 48 -39 82c0 33.333 17.333 61 52 83v6c-45.333 -24.667 -93.333 -37 -144 -37c-60 0 -106.667 13.5 -140 40.5s-50 64.5 -50 112.5c0 43.333 16 76.833 48 100.5
s76 35.5 132 35.5h154c0 33.333 -8.5 59.833 -25.5 79.5s-41.833 29.5 -74.5 29.5c-26.667 0 -49 -6 -67 -18s-28.333 -28.667 -31 -50h-116c2.66699 54 25 95.333 67 124c41.333 28.667 90.333 43 147 43c65.333 0 117.166 -18.5 155.499 -55.5s57.5 -87.833 57.5 -152.5h1
v-279h-1c-46 -8 -69 -24.333 -69 -49c0 -23.333 20.333 -35 61 -35c7.33301 0 21 1.66699 41 5zM240.001 85c45.333 0 88.667 14 130 42v66h-156c-22 0 -38.833 -4.5 -50.5 -13.5s-17.5 -20.833 -17.5 -35.5c0 -18 7.83301 -32.333 23.5 -43s39.167 -16 70.5 -16z" />
    <glyph glyph-name="aring.ss06" horiz-adv-x="542" 
d="M354 571c-21.333 -19.333 -48.333 -28.998 -81 -28.998s-59.667 9.66699 -81 29c-20 19.333 -30 44.666 -30 75.999s10 56.666 30 75.999c21.333 19.333 48.333 29 81 29s59.667 -9.66699 81 -29c20.667 -18.667 31 -44 31 -76s-10.333 -57.333 -31 -76zM273 693.002
c-18.667 1.33301 -32 -6 -40 -22s-8 -32 0 -48s21.333 -23.333 40 -22c19.333 -1.33301 33 6 41 22s8 32 0 48s-21.667 23.333 -41 22zM484 279.002v-279h-114v27c-45.333 -24.667 -93.333 -37 -144 -37c-60 0 -106.667 13.5 -140 40.5s-50 64.5 -50 112.5
c0 43.333 16 76.833 48 100.5s76 35.5 132 35.5h154c0 33.333 -8.5 59.833 -25.5 79.5s-41.833 29.5 -74.5 29.5c-26.667 0 -49 -6 -67 -18s-28.333 -28.667 -31 -50h-116c2.66699 54 25 95.333 67 124c41.333 28.667 90.333 43 147 43c66 0 118.167 -18.667 156.5 -56
s57.5 -88 57.5 -152zM240 85.002c45.333 0 88.667 14 130 42v66h-156c-22 0 -38.833 -4.5 -50.5 -13.5s-17.5 -20.833 -17.5 -35.5c0 -18 7.83301 -32.333 23.5 -43s39.167 -16 70.5 -16z" />
    <glyph glyph-name="atilde.ss06" horiz-adv-x="542" 
d="M288 575l-46.999 29c-17.333 7.33301 -30 8.5 -38 3.5s-12 -14.833 -12 -29.5h-93c0 28.667 5.83301 53 17.5 73s26 34.167 43 42.5s35.167 12.166 54.5 11.499s36.666 -6 51.999 -16l46 -29c34 -16 51 -7.33301 51 26h92c0 -28.667 -5.66699 -53 -17 -73
s-25.5 -34.167 -42.5 -42.5s-35 -12.166 -54 -11.499s-36.5 6 -52.5 16zM484.001 279v-279h-114v27c-45.333 -24.667 -93.333 -37 -144 -37c-60 0 -106.667 13.5 -140 40.5s-50 64.5 -50 112.5c0 43.333 16 76.833 48 100.5s76 35.5 132 35.5h154
c0 33.333 -8.5 59.833 -25.5 79.5s-41.833 29.5 -74.5 29.5c-26.667 0 -49 -6 -67 -18s-28.333 -28.667 -31 -50h-116c2.66699 54 25 95.333 67 124c41.333 28.667 90.333 43 147 43c66 0 118.167 -18.667 156.5 -56s57.5 -88 57.5 -152zM240.001 85
c45.333 0 88.667 14 130 42v66h-156c-22 0 -38.833 -4.5 -50.5 -13.5s-17.5 -20.833 -17.5 -35.5c0 -18 7.83301 -32.333 23.5 -43s39.167 -16 70.5 -16z" />
    <glyph glyph-name="zero.osf" horiz-adv-x="652" 
d="M607 271c0 -84 -26.334 -152.333 -79.001 -205c-52 -52 -119 -78 -201 -78s-149.667 26 -203 78c-52.667 52.667 -79 121 -79 205s26.333 152.333 79 205s120.334 79 203.001 79c82 0 149 -26.333 201 -79c52.667 -52 79 -120.333 79 -205zM326.999 94
c47.333 0 86.333 16.3311 117 48.998c32 32.667 48 75.334 48 128.001s-16 95.334 -48 128.001c-31.333 33.333 -70.333 50 -117 50c-48 0 -88 -16.667 -120 -50c-31.333 -33.333 -47 -76 -47 -128s15.667 -94.667 47 -128c32 -32.667 72 -49 120 -49z" />
    <glyph glyph-name="one.osf" horiz-adv-x="516" 
d="M509 98v-98h-467v98h179v324l-170 -54v102l222 80h68v-452h168z" />
    <glyph glyph-name="two.osf" horiz-adv-x="559" 
d="M509 98l0.00195312 -98.002h-455v62l145 106c20 14.667 32 23.334 36 26.001c15.333 12 28 21 38 27c34.667 26 56 43.667 64 53c32 33.333 46.667 60.333 44 81c0 27.333 -9.33301 49.666 -28 66.999s-45.334 26 -80.001 26c-35.333 0 -63.5 -10.167 -84.5 -30.5
s-32.833 -48.166 -35.5 -83.499h-117c2 65.333 23.667 117.666 65 156.999c40.667 40 96.667 60 168 60c70.667 0 127 -19.333 169 -58c42 -39.333 63 -86.666 63 -141.999s-30 -107.666 -90 -156.999c-18.667 -14.667 -59.334 -42.667 -122.001 -84l-18 -12h238z" />
    <glyph glyph-name="three.osf" horiz-adv-x="561" 
d="M427 203c64.667 -30.667 97.0029 -82 97.0029 -154c0 -58 -22 -106.667 -66 -146c-42.667 -38 -99.334 -57 -170.001 -57c-71.333 0 -128 17 -170 51s-67.667 82.333 -77 145h117c14.667 -62.667 58 -94 130 -94c36.667 0 66.5 9.5 89.5 28.5s34.5 43.167 34.5 72.5
c0 30.667 -12.333 55.167 -37 73.5s-57 27.5 -97 27.5h-53v97h53c33.333 0 60.166 9.33301 80.499 28s30.5 43 30.5 73c0 30.667 -9.66699 55.167 -29 73.5s-45 27.5 -77 27.5c-30 0 -55 -8.5 -75 -25.5s-31.333 -39.5 -34 -67.5h-117c4.66699 58.667 27.667 106 69 142
s93.666 54 156.999 54c65.333 0 118 -19 158 -57s60 -86.667 60 -146c0 -64 -24.667 -112.667 -74 -146z" />
    <glyph glyph-name="four.osf" horiz-adv-x="639" 
d="M598 0h-94v-138h-116v138h-352v74l195 468h121l-178 -440h214v203h116v-203h94v-102z" />
    <glyph glyph-name="five.osf" horiz-adv-x="590" 
d="M201 296h100c69.333 0 126 -20.333 170 -61s66 -92.334 66 -155.001c0 -66.667 -22.667 -122 -68 -166c-44.667 -44 -103.334 -66 -176.001 -66c-70.667 0 -128.167 17.833 -172.5 53.5s-71.5 84.834 -81.5 147.501h117c18.667 -66 64.334 -99 137.001 -99
c38 0 69.5 12 94.5 36s37.5 54 37.5 90c0 34.667 -12.667 63 -38 85s-59 33 -101 33h-195v349h416v-107h-305z" />
    <glyph glyph-name="six.osf" horiz-adv-x="617" 
d="M296 463l14.001 -0.000976562c75.333 0 137.333 -22.333 186 -67s73 -101 73 -169c0 -69.333 -24.667 -127 -74 -173c-48.667 -46 -110.667 -69 -186 -69c-76.667 0 -139.334 23 -188.001 69s-73 102.667 -73 170c0 49.333 20.333 105.333 61 168l98 -67
c-28.667 -39.333 -43 -74.666 -43 -105.999c0 -38 13.667 -70.667 41 -98c26.667 -26.667 61.334 -40 104.001 -40c41.333 0 75.666 13.667 102.999 41s41 60 41 98s-13.667 70.667 -41 98c-26.667 26.667 -61 40 -103 40c-40 0 -73.333 -10.333 -100 -31l-1 -2l-99 67
l188 288h139z" />
    <glyph glyph-name="seven.osf" horiz-adv-x="504" 
d="M484 540v-72l-285 -608h-132l267 568h-323v112h473z" />
    <glyph glyph-name="eight.osf" horiz-adv-x="626" 
d="M465 359c75.333 -35.333 113 -91.333 113 -168c0 -61.333 -24 -111 -72 -149c-46.667 -38 -111 -57 -193 -57c-81.333 0 -146 19 -194 57c-47.333 38 -71 87.667 -71 149c0 76.667 37.667 132.667 113 168c-57.333 32 -86 80 -86 144c0 56 22 102 66 138
c44.667 36 101.667 54 171 54s126 -18 170 -54c44.667 -36 67 -82 67 -138c0 -64 -28 -112 -84 -144zM399 571c-23.333 20 -52.333 30 -87 30s-63.667 -10 -87 -30c-22 -20 -33 -45 -33 -75s11 -55 33 -75c23.333 -20 52.333 -30 87 -30s63.667 10 87 30
c22.667 20 34 45 34 75s-11.333 55 -34 75zM313 84c38.667 0 70.667 11 96 33s38 49.333 38 82c0 32 -12.5 58.333 -37.5 79s-57.167 31 -96.5 31s-71.5 -10.333 -96.5 -31s-37.5 -47 -37.5 -79c0 -32.667 12.5 -60 37.5 -82s57.167 -33 96.5 -33z" />
    <glyph glyph-name="nine.osf" horiz-adv-x="617" 
d="M308 556c76 0 138.333 -23 187 -69c49.333 -46 74 -102.667 74 -170c0 -49.333 -20.333 -105.333 -61 -168l-188 -288h-139l140 217h-13c-76 0 -138.333 22.333 -187 67s-73 101 -73 169c0 69.333 24.333 127 73 173s111 69 187 69zM409 215l0.998047 1.00293
c29.333 41.333 44 76.666 44 105.999c0 37.333 -14 69.666 -42 96.999c-27.333 27.333 -62 41 -104 41c-41.333 0 -75.666 -13.667 -102.999 -41s-41 -60 -41 -98c0 -38.667 13.333 -71.334 40 -98.001s61.334 -40 104.001 -40c40 0 73.667 10.667 101 32z" />
    <glyph glyph-name="zero.tf" horiz-adv-x="631" 
d="M98 596c50.667 66 122.333 99 215 99c91.333 0 162.666 -33 213.999 -99c51.333 -65.333 77 -150.666 77 -255.999c0 -104.667 -25.667 -190.334 -77 -257.001c-51.333 -65.333 -122.666 -98 -213.999 -98c-92 0 -163.667 32.667 -215 98
c-51.333 66.667 -77 152.334 -77 257.001c0 105.333 25.667 190.666 77 255.999zM184.999 161c29.333 -45.333 72 -67.998 128 -67.998s98.667 22.667 128 68c28.667 45.333 43 105 43 179s-14.333 133.333 -43 178c-29.333 46 -72 69 -128 69s-98.667 -22.667 -128 -68
c-28.667 -44.667 -43 -104.334 -43 -179.001s14.333 -134.334 43 -179.001z" />
    <glyph glyph-name="one.tf" horiz-adv-x="631" 
d="M577 98v-98h-506v98h205v454l-170 -54v102l221 80h68v-582h182z" />
    <glyph glyph-name="two.tf" horiz-adv-x="631" 
d="M540 98v-97.998h-456v62l211 249c14 16.667 23 27 27 31l26 30c18.667 20.667 31.667 37.667 39 51c16.667 28.667 25 52 25 70c0 28 -9.5 51.5 -28.5 70.5s-45.833 28.5 -80.5 28.5c-34 0 -61.5 -10.167 -82.5 -30.5s-33.167 -47.833 -36.5 -82.5h-119
c2 65.333 23.667 117.666 65 156.999s97.333 59 168 59c71.333 0 128.333 -19.667 171 -59c42 -38.667 63 -86.667 63 -144c0 -34.667 -12.333 -70.334 -37 -107.001c-17.333 -26 -30.333 -44 -39 -54l-60 -70l-140 -163h284z" />
    <glyph glyph-name="three.tf" horiz-adv-x="631" 
d="M459 343c64.667 -30.667 97.0029 -82 97.0029 -154c0 -58 -22 -106.667 -66 -146c-42.667 -38 -99.334 -57 -170.001 -57c-71.333 0 -128 17 -170 51s-67.667 82.333 -77 145h117c14.667 -62.667 58 -94 130 -94c36.667 0 66.5 9.5 89.5 28.5s34.5 43.167 34.5 72.5
c0 30.667 -12.333 55.167 -37 73.5s-57 27.5 -97 27.5h-53v97h53c33.333 0 60.166 9.33301 80.499 28s30.5 43 30.5 73c0 30.667 -9.66699 55.167 -29 73.5s-45 27.5 -77 27.5c-30 0 -55 -8.5 -75 -25.5s-31.333 -39.5 -34 -67.5h-117c4.66699 58.667 27.667 106 69 142
s93.666 54 156.999 54c65.333 0 118 -19 158 -57s60 -86.667 60 -146c0 -64 -24.667 -112.667 -74 -146z" />
    <glyph glyph-name="four.tf" horiz-adv-x="631" 
d="M580 138h-94v-138h-116v138h-352v74l195 468h121l-178 -440h214v203h116v-203h94v-102z" />
    <glyph glyph-name="five.tf" horiz-adv-x="631" 
d="M203 433l100 -0.000976562c69.333 0 126 -20.333 170 -61c44 -41.333 66 -93 66 -155c0 -66.667 -22.667 -122 -68 -166c-44.667 -44 -103.334 -66 -176.001 -66c-70.667 0 -128.167 17.833 -172.5 53.5s-71.5 84.834 -81.5 147.501h117
c18.667 -66 64.334 -99 137.001 -99c38 0 69.5 12 94.5 36s37.5 54 37.5 90c0 34.667 -12.667 63 -38 85s-59 33 -101 33h-195v349h416v-107h-305z" />
    <glyph glyph-name="six.tf" horiz-adv-x="631" 
d="M304 463h13.001c76 0 138.333 -22.333 187 -67s73 -101 73 -169c0 -69.333 -24.667 -127 -74 -173c-48.667 -46 -110.667 -69 -186 -69c-76.667 0 -139.334 23 -188.001 69s-73 102.667 -73 170c0 49.333 20.333 105.333 61 168l188 288h139zM317.001 81
c41.333 0 75.667 13.666 103 40.999s41 60 41 98s-13.667 70.667 -41 98c-26.667 26.667 -61 40 -103 40c-40 0 -73.667 -10.667 -101 -32l-1 -1c-29.333 -41.333 -44 -76.666 -44 -105.999c0 -38 13.667 -70.667 41 -98c27.333 -26.667 62.333 -40 105 -40z" />
    <glyph glyph-name="seven.tf" horiz-adv-x="631" 
d="M554 680v-72l-284 -608h-133l267 568h-322v112h472z" />
    <glyph glyph-name="eight.tf" horiz-adv-x="631" 
d="M475 359c75.333 -35.333 113 -91.333 113 -168c0 -61.333 -24 -111 -72 -149c-46.667 -38 -111 -57 -193 -57c-81.333 0 -146 19 -194 57c-47.333 38 -71 87.667 -71 149c0 76.667 37.667 132.667 113 168c-56.667 32 -85 80 -85 144c0 56 22 102 66 138s101 54 171 54
c69.333 0 126 -18 170 -54c44.667 -36 67 -82 67 -138c0 -64 -28.333 -112 -85 -144zM203 496c0 -30.667 11.167 -55.833 33.5 -75.5s51.166 -29.5 86.499 -29.5s64.166 10 86.499 30s33.5 45 33.5 75s-11.167 55 -33.5 75s-51.166 30 -86.499 30s-64.166 -10 -86.499 -30
s-33.5 -45 -33.5 -75zM323 84.001c38.667 0 70.667 11 96 33s38 49.333 38 82c0 32 -12.5 58.333 -37.5 79s-57.167 31 -96.5 31s-71.5 -10.333 -96.5 -31s-37.5 -47 -37.5 -79c0 -32.667 12.5 -60 37.5 -82s57.167 -33 96.5 -33z" />
    <glyph glyph-name="nine.tf" horiz-adv-x="597" 
d="M293 695c75.333 0 137.668 -23 187.001 -69s74 -102.667 74 -170c0 -49.333 -20.333 -105.333 -61 -168l-188 -288h-139l140 217h-13c-76 0 -138.333 22.333 -187 67s-73 101 -73 169c0 69.333 24.333 127 73 173c49.333 46 111.666 69 186.999 69zM394.002 354
l0.998047 1.00195c29.333 41.333 44 76.666 44 105.999c0 38 -14 70.333 -42 97c-27.333 27.333 -62 41 -104 41c-41.333 0 -75.666 -13.667 -102.999 -41s-41 -60 -41 -98c0 -38.667 13.333 -71.334 40 -98.001s61.334 -40 104.001 -40c40 0 73.667 10.667 101 32z" />
    <glyph glyph-name="zero.zero" horiz-adv-x="719" 
d="M360 695c93.333 0 167 -33 221 -99s81 -151.333 81 -256s-27 -190 -81 -256s-127.667 -99 -221 -99s-167.666 33 -222.999 99c-54 66 -81 151.333 -81 256s27 190 81 256c55.333 66 129.666 99 222.999 99zM360 587c-58.667 0 -104 -23 -136 -69
c-31.333 -46.667 -47 -106 -47 -178c0 -48 7.66699 -92 23 -132l244 357c-24.667 14.667 -52.667 22 -84 22zM360 93c58.667 0 103.667 23 135 69c31.333 46.667 47 106 47 178c0 51.333 -8 96 -24 134l-245 -358c25.333 -15.333 54.333 -23 87 -23z" />
    <glyph glyph-name="zero.osf.zero" horiz-adv-x="652" 
d="M125 476c52.667 52.667 120.334 79 203.001 79c82 0 149 -26.333 201 -79c52.667 -52 79 -120.333 79 -205s-26.333 -153 -79 -205c-52 -52 -119 -78 -201 -78c-82.667 0 -150.334 26 -203.001 78c-52.667 52.667 -79 121 -79 205s26.333 152.333 79 205zM328 449
c-48 0 -88.001 -16.667 -120.001 -50c-31.333 -33.333 -47 -76 -47 -128c0 -30 6 -58.333 18 -85l234 240c-25.333 15.333 -53.666 23 -84.999 23zM327.999 94c47.333 0 86.333 16.333 117 49c32 32.667 48 75.334 48 128.001c0 31.333 -6 59.666 -18 84.999l-233 -239
c25.333 -15.333 54 -23 86 -23z" />
    <glyph glyph-name="zero.dnom" horiz-adv-x="448" 
d="M224 410c59.333 0 106 -19.667 140 -59s51 -89.333 51 -150c0 -62 -17 -112.333 -51 -151c-34 -39.333 -80.667 -59 -140 -59s-106 19.667 -140 59c-34 38.667 -51 89 -51 151c0 60.667 17 110.667 51 150c35.333 39.333 82 59 140 59zM148 108
c18 -24.667 43.333 -36.999 76 -36.999c33.333 0 58.333 12.333 75 37c18 25.333 27 56.333 27 93c0 36 -9 66.667 -27 92c-18 24.667 -43 37 -75 37c-32.667 0 -58 -12.333 -76 -37c-17.333 -24.667 -26 -55.334 -26 -92.001s8.66699 -67.667 26 -93z" />
    <glyph glyph-name="one.dnom" horiz-adv-x="333" 
d="M325 72v-72h-295v72h108v237l-103 -30v75l140 46h46v-328h104z" />
    <glyph glyph-name="two.dnom" horiz-adv-x="366" 
d="M333 72l-0.00292969 -72h-293v45l144 153c22 22.667 36.833 40 44.5 52s11.5 24 11.5 36c0 14 -5 25.5 -15 34.5s-23 13.5 -39 13.5c-39.333 0 -60 -19.333 -62 -58h-86c0.666992 40.667 13.834 73.167 39.501 97.5s60.834 36.5 105.501 36.5
s79.834 -11.167 105.501 -33.5s38.5 -50.833 38.5 -85.5c0 -36.667 -23 -80.667 -69 -132l-80 -87h155z" />
    <glyph glyph-name="three.dnom" horiz-adv-x="379" 
d="M287 202c36 -18.667 54 -48.001 54 -88.001c0 -36 -14 -65.5 -42 -88.5s-64 -34.5 -108 -34.5c-43.333 0 -78.5 10.833 -105.5 32.5s-43.833 51.5 -50.5 89.5h87c9.33301 -31.333 32.666 -47 69.999 -47c20 0 36 4.5 48 13.5s18 20.5 18 34.5c0 33.333 -25 50 -75 50h-32
v70h32c18 0 32.667 4.66699 44 14s17 21.333 17 36s-5 26.334 -15 35.001s-23.667 13 -41 13c-33.333 0 -51.666 -15.667 -54.999 -47h-87c3.33301 37.333 17.5 67 42.5 89s57.833 33 98.5 33c42 0 75.667 -11.5 101 -34.5s38 -52.5 38 -88.5c0 -34.667 -13 -62 -39 -82z
" />
    <glyph glyph-name="four.dnom" horiz-adv-x="414" 
d="M381 77h-54v-77h-85v77h-215v55l118 269h89l-104 -248h112v112h85v-112h54v-76z" />
    <glyph glyph-name="five.dnom" horiz-adv-x="391" 
d="M147 261l50 -0.00195312c46 0 82 -12 108 -36s39 -56 39 -96c0 -39.333 -14.333 -72.333 -43 -99c-28 -26 -64.333 -39 -109 -39c-43.333 0 -79 10.833 -107 32.5s-44.667 50.834 -50 87.501h86c11.333 -29.333 35 -44 71 -44c20 0 36.667 5.83301 50 17.5
s20 25.834 20 42.501c0 18.667 -5.83301 33.167 -17.5 43.5s-28.167 15.5 -49.5 15.5h-129v215h262v-79h-181v-61z" />
    <glyph glyph-name="six.dnom" horiz-adv-x="385" 
d="M280 401l-81.001 -124.001c44.667 -0.666992 81.667 -14.667 111 -42c28.667 -26.667 43 -59.667 43 -99c0 -41.333 -15 -76 -45 -104c-29.333 -27.333 -67.666 -41 -114.999 -41c-46 0 -84.667 14 -116 42c-30.667 28 -46 61.333 -46 100
c0 28.667 13.333 63.334 40 104.001l106 164h103zM192.999 61.999c21.333 0 39.167 6.49902 53.5 19.499s21.5 29.167 21.5 48.5c2.66699 32 -13 54.167 -47 66.5s-61.667 7.5 -83 -14.5l-1 -1c-13.333 -19.333 -20 -35.666 -20 -48.999c0 -20 7.16699 -36.667 21.5 -50
s32.5 -20 54.5 -20z" />
    <glyph glyph-name="seven.dnom" horiz-adv-x="335" 
d="M315 401v-53l-167 -348h-98l154 319h-184v82h295z" />
    <glyph glyph-name="eight.dnom" horiz-adv-x="409" 
d="M306 211c40.667 -22 61.001 -54.667 61.001 -98c0 -36.667 -14.833 -66.167 -44.5 -88.5s-69.167 -33.5 -118.5 -33.5s-88.833 11.333 -118.5 34s-44.5 52 -44.5 88c0 44 20.667 76.667 62 98c-30 19.333 -45 47 -45 83c0 34.667 13.5 62.667 40.5 84s62.167 32 105.5 32
s78.666 -10.667 105.999 -32s41 -49.333 41 -84c0 -36 -15 -63.667 -45 -83zM144.001 289c0 -16 5.66797 -29 17.001 -39s25.666 -15 42.999 -15s31.5 5 42.5 15s17.167 23 18.5 39c0.666992 21.333 -9.5 36.5 -30.5 45.5s-41.833 9 -62.5 0s-30 -24.167 -28 -45.5z
M271.002 120c0 16 -6.16699 29 -18.5 39s-28.5 15 -48.5 15s-36 -5 -48 -15s-18 -23 -18 -39c0 -16.667 6 -30.167 18 -40.5s28 -15.5 48 -15.5s36.167 5.16699 48.5 15.5s18.5 23.833 18.5 40.5z" />
    <glyph glyph-name="nine.dnom" horiz-adv-x="385" 
d="M192 411c46.667 0 85.333 -13.998 116 -41.998s46 -61.333 46 -100c0 -28.667 -13.333 -63.334 -40 -104.001l-106 -164h-103l81 124c-46 1.33301 -83 15 -111 41c-28.667 26.667 -43 60 -43 100c0 41.333 14.667 75.666 44 102.999c30 28 68.667 42 116 42z
M246.999 220.002l0.999023 1.00098c13.333 19.333 20 35.666 20 48.999c0 20 -7.16699 36.667 -21.5 50s-32.5 20 -54.5 20c-21.333 0 -39.166 -6.5 -53.499 -19.5s-21.5 -29.167 -21.5 -48.5c-2.66699 -32 13 -54.167 47 -66.5s61.667 -7.5 83 14.5z" />
    <glyph glyph-name="zero.numr" horiz-adv-x="448" 
d="M224 689c59.333 0 106 -19.667 140 -59c34 -38.667 51 -88.667 51 -150s-17 -111.666 -51 -150.999s-80.667 -59 -140 -59s-106 19.667 -140 59s-51 89.666 -51 150.999s17 111.333 51 150c35.333 39.333 82 59 140 59zM148 387c18 -24.667 43.333 -36.999 76 -36.999
c33.333 0 58.333 12.333 75 37c18 24.667 27 55.667 27 93c0 36 -9 66.667 -27 92c-18 24.667 -43 37 -75 37c-32.667 0 -58 -12.333 -76 -37c-17.333 -24.667 -26 -55.334 -26 -92.001s8.66699 -67.667 26 -93z" />
    <glyph glyph-name="one.numr" horiz-adv-x="333" 
d="M325 351v-72h-295v72h108v237l-103 -30v75l140 46h46v-328h104z" />
    <glyph glyph-name="two.numr" horiz-adv-x="366" 
d="M333 351l-0.00292969 -72h-293v45l144 153c22 22.667 36.833 40 44.5 52s11.5 24 11.5 36c0 14 -5 25.5 -15 34.5s-23 13.5 -39 13.5c-39.333 0 -60 -19.333 -62 -58h-86c0.666992 40.667 13.834 73.167 39.501 97.5s60.834 36.5 105.501 36.5
s79.834 -11.167 105.501 -33.5s38.5 -50.833 38.5 -85.5c0 -37.333 -23 -81.333 -69 -132l-80 -87h155z" />
    <glyph glyph-name="three.numr" horiz-adv-x="379" 
d="M287 485c36 -19.333 54 -48.668 54 -88.001c0 -36 -14 -65.5 -42 -88.5s-64 -34.5 -108 -34.5c-43.333 0 -78.5 10.833 -105.5 32.5s-43.833 51.5 -50.5 89.5h87c9.33301 -31.333 32.666 -47 69.999 -47c20 0 36 4.5 48 13.5s18 20.5 18 34.5c0 33.333 -25 50 -75 50h-32
v70h32c18 0 32.667 4.66699 44 14s17 21.333 17 36s-5 26.334 -15 35.001s-23.667 13 -41 13c-33.333 0 -51.666 -15.667 -54.999 -47h-87c3.33301 37.333 17.5 67 42.5 89s57.833 33 98.5 33c42 0 75.667 -11.5 101 -34.5s38 -52.5 38 -88.5c0 -34.667 -13 -62 -39 -82z
" />
    <glyph glyph-name="four.numr" horiz-adv-x="414" 
d="M381 356h-54v-77h-85v77h-215v55l118 269h89l-104 -248h112v112h85v-112h54v-76z" />
    <glyph glyph-name="five.numr" horiz-adv-x="391" 
d="M147 540l50 -0.00195312c46 0 82 -12 108 -36s39 -56 39 -96c0 -39.333 -14.333 -72.333 -43 -99c-28 -26 -64.333 -39 -109 -39c-43.333 0 -79 10.833 -107 32.5s-44.667 50.834 -50 87.501h86c11.333 -29.333 35 -44 71 -44c20 0 36.667 5.83301 50 17.5
s20 25.834 20 42.501c0 18.667 -5.83301 33.167 -17.5 43.5s-28.167 15.5 -49.5 15.5h-129v215h262v-79h-181v-61z" />
    <glyph glyph-name="six.numr" horiz-adv-x="385" 
d="M280 680l-81.001 -124.001c44.667 -1.33301 81.667 -15.333 111 -42c28.667 -26.667 43 -59.667 43 -99c0 -41.333 -15 -76 -45 -104c-29.333 -27.333 -67.666 -41 -114.999 -41c-46 0 -84.667 14 -116 42c-30.667 28 -46 61.333 -46 100
c0 28.667 13.333 63.334 40 104.001l106 164h103zM192.999 340.999c21.333 0 39.167 6.49902 53.5 19.499s21.5 29.167 21.5 48.5c2.66699 32 -13 54.167 -47 66.5s-61.667 7.5 -83 -14.5l-1 -1c-13.333 -19.333 -20 -35.666 -20 -48.999c0 -20 7.16699 -36.667 21.5 -50
s32.5 -20 54.5 -20z" />
    <glyph glyph-name="seven.numr" horiz-adv-x="335" 
d="M315 680v-53l-167 -348h-98l154 319h-184v82h295z" />
    <glyph glyph-name="eight.numr" horiz-adv-x="409" 
d="M306 494c40.667 -22 61.001 -54.667 61.001 -98c0 -36.667 -14.833 -66.167 -44.5 -88.5s-69.167 -33.5 -118.5 -33.5s-88.833 11.333 -118.5 34s-44.5 52 -44.5 88c0 44 20.667 76.667 62 98c-30 18.667 -45 46.334 -45 83.001c0 34.667 13.5 62.667 40.5 84
s62.167 32 105.5 32s78.666 -10.667 105.999 -32s41 -49.333 41 -84c0 -36.667 -15 -64.334 -45 -83.001zM144.001 572c0 -16 5.66797 -29 17.001 -39s25.666 -15 42.999 -15s31.5 5 42.5 15s17.167 23 18.5 39c0.666992 21.333 -9.5 36.5 -30.5 45.5s-41.833 9 -62.5 0
s-30 -24.167 -28 -45.5zM271.002 403c0 16 -6.16699 29 -18.5 39s-28.5 15 -48.5 15s-36 -5 -48 -15s-18 -23 -18 -39c0 -16.667 6 -30.167 18 -40.5s28 -15.5 48 -15.5s36.167 5.16699 48.5 15.5s18.5 23.833 18.5 40.5z" />
    <glyph glyph-name="nine.numr" horiz-adv-x="385" 
d="M192 694c46.667 0 85.333 -13.998 116 -41.998s46 -61.333 46 -100c0 -28.667 -13.333 -63.334 -40 -104.001l-106 -164h-103l81 124c-46 1.33301 -83 15 -111 41c-28.667 26.667 -43 60 -43 100c0 41.333 14.667 75.666 44 102.999c30 28 68.667 42 116 42z
M246.999 503.002l0.999023 1.00098c13.333 19.333 20 35.666 20 48.999c0 20 -7.16699 36.667 -21.5 50s-32.5 20 -54.5 20c-21.333 0 -39.166 -6.5 -53.499 -19.5s-21.5 -29.167 -21.5 -48.5c-2.66699 -32 13 -54.167 47 -66.5s61.667 -7.5 83 14.5z" />
    <glyph glyph-name="backslash.case" horiz-adv-x="373" 
d="M16 730h119l222 -777h-119z" />
    <glyph glyph-name="bullet.case" horiz-adv-x="331" 
d="M257 241c-26 -26 -56.667 -39 -92 -39s-66 13 -92 39s-39 56.333 -39 91s13 65 39 91s56.667 39 92 39s66 -13 92 -39c26.667 -26 40 -56.333 40 -91s-13.333 -65 -40 -91z" />
    <glyph glyph-name="exclamdown.case" horiz-adv-x="279" 
d="M139 689c20 0 37 -6.66699 51 -20s21 -29.666 21 -48.999s-7 -35.666 -21 -48.999s-31 -20 -51 -20c-19.333 0 -36 6.66699 -50 20s-21 29.666 -21 48.999s7 35.666 21 48.999s30.667 20 50 20zM79 0l9 470h103l9 -470h-121z" />
    <glyph glyph-name="periodcentered.case" horiz-adv-x="209" 
d="M104 263c-19.333 0 -36 6.66699 -50 20s-21 29.666 -21 48.999s7 35.666 21 48.999s30.667 20 50 20c20 0 37 -6.66699 51 -20s21 -29.666 21 -48.999s-7 -35.666 -21 -48.999s-31 -20 -51 -20z" />
    <glyph glyph-name="questiondown.case" horiz-adv-x="534" 
d="M300 689c19.333 0 36 -6.66699 50 -20s21 -29.666 21 -48.999s-7 -35.666 -21 -48.999s-30.667 -20 -50 -20c-20 0 -37 6.66699 -51 20s-21 29.666 -21 48.999s7 35.666 21 48.999s31 20 51 20zM342 473l9 -155h-65c-36 0 -65.667 -10.5 -89 -31.5s-35 -48.5 -35 -82.5
c0 -33.333 10.5 -60.5 31.5 -81.5s48.5 -31.5 82.5 -31.5c30 0 55.5 8.33301 76.5 25s33.5 39 37.5 67h116c-5.33301 -60 -27.833 -107.5 -67.5 -142.5s-92.167 -52.5 -157.5 -52.5c-66 0 -121 20 -165 60s-66 91.667 -66 155c0 54 17.667 98.333 53 133s83.333 55 144 61
l5 76h90z" />
    <glyph glyph-name="slash.case" horiz-adv-x="373" 
d="M41 -47l222 777h120l-222 -777h-120z" />
    <glyph glyph-name="braceleft.case" horiz-adv-x="354" 
d="M233 561v-100.002c0 -35.333 -5.16699 -61.333 -15.5 -78s-29.833 -29.667 -58.5 -39c28.667 -9.33301 48.167 -22.333 58.5 -39s15.5 -42.667 15.5 -78v-100c0 -21.333 7.83301 -38.5 23.5 -51.5s36.5 -19.5 62.5 -19.5v-113c-60.667 0 -109.334 17 -146.001 51
s-55 78.333 -55 133v97c0 28.667 -5.66699 47.334 -17 56.001s-34.333 13 -69 13v102c34.667 0 57.667 4.33301 69 13s17 27.334 17 56.001v97c0 54.667 18.333 99 55 133s85.334 51 146.001 51v-113c-26 0 -46.833 -6.5 -62.5 -19.5s-23.5 -30.167 -23.5 -51.5z" />
    <glyph glyph-name="braceright.case" horiz-adv-x="367" 
d="M133 461v100.002c0 21.333 -7.83301 38.5 -23.5 51.5s-36.5 19.5 -62.5 19.5v113c60.667 0 109.334 -17 146.001 -51c36.667 -32.667 55 -77 55 -133v-97c0 -28.667 5.83301 -47.334 17.5 -56.001s34.5 -13 68.5 -13v-102c-34 0 -56.833 -4.33301 -68.5 -13
s-17.5 -27.334 -17.5 -56.001v-97c0 -56 -18.333 -100.333 -55 -133c-36.667 -34 -85.334 -51 -146.001 -51v113c26 0 46.833 6.5 62.5 19.5s23.5 30.167 23.5 51.5v100c0 34.667 5.16699 60.5 15.5 77.5s30.166 30.167 59.499 39.5
c-29.333 9.33301 -49.166 22.5 -59.499 39.5s-15.5 42.833 -15.5 77.5z" />
    <glyph glyph-name="bracketleft.case" horiz-adv-x="371" 
d="M192 65h144v-111h-260v776h260v-111h-144v-554z" />
    <glyph glyph-name="bracketright.case" horiz-adv-x="367" 
d="M31 619v111h260v-776h-260v111h144v554h-144z" />
    <glyph glyph-name="parenleft.case" horiz-adv-x="349" 
d="M251 736l73.999 -75c-54 -55.333 -92.333 -105.333 -115 -150c-22 -43.333 -33 -98 -33 -164c0 -65.333 10.667 -120 32 -164c21.333 -41.333 60 -90.666 116 -147.999l-74 -75c-68 60 -117.667 119.667 -149 179c-30.667 59.333 -46 128.666 -46 207.999
c0 80 15.333 149.667 46 209s80.334 119.333 149.001 180z" />
    <glyph glyph-name="parenright.case" horiz-adv-x="349" 
d="M24 661l75 75c67.333 -60 116.333 -120.333 147 -181c31.333 -60.667 47 -130 47 -208s-15.667 -147.333 -47 -208c-31.333 -59.333 -80.333 -119 -147 -179l-75 75c56.667 58 95 107.333 115 148c22 43.333 33 98 33 164s-11 120.667 -33 164
c-22.667 44.667 -61 94.667 -115 150z" />
    <glyph glyph-name="emdash.case" horiz-adv-x="1026" 
d="M929 390v-116h-832v116h832z" />
    <glyph glyph-name="endash.case" horiz-adv-x="706" 
d="M601 390v-116h-497v116h497z" />
    <glyph glyph-name="hyphen.case" horiz-adv-x="553" 
d="M448 389v-116h-344v116h344z" />
    <glyph glyph-name="guillemotleft.case" horiz-adv-x="451" 
d="M238 486l-96 -153l96 -152h-112l-96 152l96 153h112zM421 486l-97 -153l97 -152h-112l-96 152l96 153h112z" />
    <glyph glyph-name="guillemotright.case" horiz-adv-x="451" 
d="M238 333l-96 -152h-112l96 152l-96 153h112zM421 333l-97 -152h-111l96 152l-96 153h111z" />
    <glyph glyph-name="guilsinglleft.case" horiz-adv-x="268" 
d="M238 486l-96 -153l96 -152h-112l-96 152l96 153h112z" />
    <glyph glyph-name="guilsinglright.case" horiz-adv-x="268" 
d="M238 333l-96 -152h-112l96 152l-96 153h112z" />
    <glyph glyph-name="florin.tf" horiz-adv-x="631" 
d="M495 578c-57.333 0 -89.9971 -32 -97.9971 -96l-14 -107h167v-98h-181l-24 -181c-8.66699 -64 -29.834 -113.833 -63.501 -149.5s-77.834 -53.5 -132.501 -53.5c-35.333 0 -71.666 5 -108.999 15l16 101c29.333 -6 53 -9 71 -9c57.333 0 90.333 32 99 96l24 181h-130v98
h143l14 107c8 63.333 28.833 113 62.5 149s78.167 54 133.5 54c35.333 0 71.666 -5 108.999 -15l-16 -101c-28.667 6 -52.334 9 -71.001 9z" />
    <glyph glyph-name="cent.tf" horiz-adv-x="631" 
d="M314 93c29.333 0 54.333 7.66797 75 23.001s33.667 35.666 39 60.999h118c-6.66699 -47.333 -26 -87.333 -58 -120s-72.333 -53.667 -121 -63v-106h-104v106c-59.333 10.667 -107.333 38.667 -144 84c-37.333 45.333 -56 98 -56 158c0 60.667 18.667 113.667 56 159
c36.667 44.667 84.667 72.667 144 84v120h104v-120c48 -9.33301 88.167 -30.5 120.5 -63.5s51.833 -72.833 58.5 -119.5h-118c-5.33301 25.333 -18.333 45.5 -39 60.5s-45.667 22.5 -75 22.5c-39.333 0 -71.833 -13.667 -97.5 -41s-38.5 -61.333 -38.5 -102
s12.833 -74.667 38.5 -102s58.167 -41 97.5 -41z" />
    <glyph glyph-name="dollar.tf" horiz-adv-x="631" 
d="M302 402l86.001 -17c69.333 -14 120.666 -35.833 153.999 -65.5s50 -70.167 50 -121.5c0 -56 -19 -102.667 -57 -140s-89 -60.333 -153 -69v-109h-104v109c-70 8.66699 -126.333 33.334 -169 74.001s-66.667 93.667 -72 159h119c6 -40 25 -71.667 57 -95s73 -35 123 -35
c41.333 0 73.833 8.16699 97.5 24.5s35.5 38.833 35.5 67.5c0 43.333 -33.333 71.333 -100 84l-112 22c-128 25.333 -192 89.666 -192 192.999c0 57.333 19.167 104.833 57.5 142.5s90.166 60.167 155.499 67.5v110h104v-113c60 -8.66699 109 -30.667 147 -66
s60 -83.666 66 -144.999h-119c-12 75.333 -61.667 113 -149 113c-41.333 0 -74.333 -8.83301 -99 -26.5s-37 -41.834 -37 -72.501c0 -24.667 8.83301 -44 26.5 -58s45.834 -25 84.501 -33z" />
    <glyph glyph-name="Euro.tf" horiz-adv-x="631" 
d="M358 93c50.667 0 86.001 15.666 106.001 46.999h142c-20 -48.667 -51.5 -86.667 -94.5 -114s-94.167 -41 -153.5 -41c-72 0 -133.167 20.5 -183.5 61.5s-84.833 96.833 -103.5 167.5h-60v82h46c-1.33301 25.333 -2 40 -2 44l1 24h-45v82h55
c16.667 76.667 50.667 137.334 102 182.001s114.666 67 189.999 67c62 0 115.667 -15.333 161 -46s77.333 -73 96 -127h-134c-23.333 43.333 -64.333 65 -123 65c-42 0 -77.5 -12.5 -106.5 -37.5s-49.833 -59.5 -62.5 -103.5h269l-21 -82h-261l-1 -24
c0 -4 0.666992 -18.667 2 -44h244l-20 -82h-206c30.667 -80.667 85 -121 163 -121z" />
    <glyph glyph-name="sterling.tf" horiz-adv-x="631" 
d="M223 101h361v-101h-540v101h63v175h-63v101h63v79c0 71.333 22.333 129 67 173c45.333 44 104.666 66 177.999 66c66.667 0 122.334 -18.667 167.001 -56s70.334 -87 77.001 -149h-117c-6 32 -20.167 57.167 -42.5 75.5s-50.5 27.5 -84.5 27.5
c-38.667 0 -69.834 -12.5 -93.501 -37.5s-35.5 -58.167 -35.5 -99.5v-79h205v-101h-205v-175z" />
    <glyph glyph-name="yen.tf" horiz-adv-x="631" 
d="M408 291h145v-84h-177v-51h177v-84h-177v-72h-121v72h-178v84h178v51h-178v84h146l-200 389h133l159 -320l159 320h133z" />
    <glyph glyph-name="arrowdown.ss05" horiz-adv-x="700" 
d="M609 400l-258 -259l-71 71l-189 190l71 70l188 -189l188 188z" />
    <glyph glyph-name="arrowleft.ss05" horiz-adv-x="700" 
d="M538 142l-188 188l-188 -189l-71 70l189 190l71 71l258 -259z" />
    <glyph glyph-name="arrowright.ss05" horiz-adv-x="570" 
d="M247 337l189 -188l-71 -71l-189 188l-70 70l71 70l190 190l70 -71z" />
    <glyph glyph-name="arrowup.ss05" horiz-adv-x="567" 
d="M462 336l-260 -258l-70 71l188 187l-190 189l71 71l190 -189z" />
    <glyph glyph-name="at.case" horiz-adv-x="997" 
d="M701 503l0.00390625 -227c0 -60.667 21 -91 63 -91c56.667 0 85 43.667 85 131c0 97.333 -32.667 177.666 -98 240.999c-64.667 64 -146.667 96 -246 96s-183.333 -33.333 -252 -100c-68.667 -66 -103 -147 -103 -243s34 -177 102 -243
c69.333 -66 151.666 -99 246.999 -99c83.333 0 156.666 25 219.999 75l47 -71c-76.667 -56.667 -165.334 -85 -266.001 -85c-121.333 0 -224.333 40.333 -309 121s-127 181.334 -127 302.001c0 120 42.667 220.667 128 302s189.666 122 312.999 122
s225.333 -39.333 306 -118c81.333 -78 122 -177.333 122 -298c0 -68 -14.167 -121.5 -42.5 -160.5s-70.5 -58.5 -126.5 -58.5c-66.667 0 -113 22 -139 66c-36.667 -44 -86.667 -66 -150 -66c-56.667 0 -104.667 20 -144 60c-38 40 -57 89 -57 147c0 58.667 19 108 57 148
c39.333 40 87.333 60 144 60c46 0 87.333 -13.667 124 -41v30h102zM492.004 191c45.333 0 81.6689 20.668 109.002 62.001c-1.33301 13.333 -2 28.666 -2 45.999v63c-27.333 41.333 -63 62 -107 62c-30.667 0 -57.334 -11 -80.001 -33c-22.667 -20.667 -34 -48.667 -34 -84
c0 -34 11.167 -61.833 33.5 -83.5s49.166 -32.5 80.499 -32.5z" />
    <glyph glyph-name="bar.case" horiz-adv-x="319" 
d="M213 730v-777h-107v777h107z" />
    <glyph glyph-name="brokenbar.case" horiz-adv-x="319" 
d="M213 392h-107v338h107v-338zM213 -47h-107v337h107v-337z" />
    <glyph glyph-name="registered.ss07" horiz-adv-x="840" 
d="M163 593c71.333 68 157 102 257 102s185.667 -34 257 -102s107 -152.333 107 -253s-35.667 -185 -107 -253s-157 -102 -257 -102s-185.667 34 -257 102s-107 152.333 -107 253s35.667 185 107 253zM419 61c77.333 0 144 27 200 81s84 120 84 198s-28 144 -84 198
s-122.667 81 -200 81c-76.667 0 -143 -27 -199 -81s-84 -120 -84 -198s28 -144 84 -198s122.333 -81 199 -81zM566 397c0 -48.667 -22 -82 -66 -100l78 -109h-88l-67 97h-54v-97h-70v324h136c39.333 0 71 -10.5 95 -31.5s36 -48.833 36 -83.5zM369 348h64.999
c18.667 0 33.334 4.5 44.001 13.5s16 21.167 16 36.5c0 14 -5.5 25.5 -16.5 34.5s-25.5 13.5 -43.5 13.5h-65v-98z" />
    <glyph glyph-name="caron.alt" 
d="M364 680l-36 -199h-88l7 199h117z" />
    <glyph glyph-name="acute.case" 
d="M437 870l-98 -149h-105l75 149h128z" />
    <glyph glyph-name="breve.case" 
d="M371 877h84c0 -48.667 -14.167 -86.5 -42.5 -113.5s-65.833 -40.5 -112.5 -40.5s-84.167 13.5 -112.5 40.5s-42.5 64.833 -42.5 113.5h84c0 -25.333 6.5 -44.5 19.5 -57.5s30.167 -19.5 51.5 -19.5s38.5 6.5 51.5 19.5s19.5 32.167 19.5 57.5z" />
    <glyph glyph-name="caron.case" 
d="M475 866l-120 -153h-110l-119 153h108l67 -79l65 79h109z" />
    <glyph glyph-name="circumflex.case" 
d="M301 793l-67 -80h-108l119 153h110l120 -153h-109z" />
    <glyph glyph-name="dieresis.case" 
d="M196 878c20.667 0 38 -6.83301 52 -20.5s21 -30.5 21 -50.5c0 -19.333 -7 -35.833 -21 -49.5s-31.333 -20.5 -52 -20.5c-20 0 -37.167 6.83301 -51.5 20.5s-21.5 30.167 -21.5 49.5c0 20 7.16699 36.833 21.5 50.5s31.5 20.5 51.5 20.5zM404 878
c20.667 0 38 -6.83301 52 -20.5s21 -30.5 21 -50.5c0 -19.333 -7 -35.833 -21 -49.5s-31.333 -20.5 -52 -20.5c-20 0 -37.167 6.83301 -51.5 20.5s-21.5 30.167 -21.5 49.5c0 20 7.16699 36.833 21.5 50.5s31.5 20.5 51.5 20.5z" />
    <glyph glyph-name="dotaccent.case" 
d="M227 807c0 20 7 36.833 21 50.5s31.333 20.5 52 20.5s38 -6.83301 52 -20.5s21 -30.5 21 -50.5c0 -19.333 -7 -35.833 -21 -49.5s-31.333 -20.5 -52 -20.5s-38 6.83301 -52 20.5s-21 30.167 -21 49.5z" />
    <glyph glyph-name="grave.case" 
d="M394 721h-105l-98 149h128z" />
    <glyph glyph-name="hungarumlaut.case" 
d="M351 870l-81 -149h-96l58 149h119zM497 870l-81 -149h-96l58 149h119z" />
    <glyph glyph-name="macron.case" 
d="M440 835v-94h-280v94h280z" />
    <glyph glyph-name="ring.case" 
d="M216 911c21.333 19.333 48.333 29 81 29s59.667 -9.66699 81 -29c20.667 -18.667 31 -44 31 -76c0 -31.333 -10.333 -57 -31 -77c-21.333 -19.333 -48.333 -29 -81 -29c-34 0 -61 9.66699 -81 29c-20 18.667 -30 44.334 -30 77.001c0 31.333 10 56.666 30 75.999z
M297 788c14 0 25.333 4.33301 34 13s13 20 13 34c0 13.333 -4.33301 24.166 -13 32.499s-20 12.5 -34 12.5c-13.333 0 -24.333 -4.16699 -33 -12.5s-13 -19.166 -13 -32.499c0 -14 4.33301 -25.333 13 -34s19.667 -13 33 -13z" />
    <glyph glyph-name="tilde.case" 
d="M386 853l92 -0.000976562c0 -28.667 -5.66699 -53 -17 -73s-25.5 -34.167 -42.5 -42.5s-35 -12.166 -54 -11.499s-36.5 6 -52.5 16l-47 29c-17.333 7.33301 -30 8.5 -38 3.5s-12 -14.833 -12 -29.5h-93c0 28.667 5.83301 53.167 17.5 73.5s26 34.333 43 42
s35 11.167 54 10.5s36.5 -5.66699 52.5 -15l46 -28c34 -16 51 -7.66699 51 25z" />
    </font>
</defs>
</svg>
