<?xml version="1.0" standalone="no"?>
<!DOCTYPE svg PUBLIC "-//W3C//DTD SVG 1.1//EN" "http://www.w3.org/Graphics/SVG/1.1/DTD/svg11.dtd" >
<svg>
<metadata>
Created by FontForge 20120731 at Mon Dec 17 13:19:22 2018
 By Apache
Copyright \(c\) 2016 by Mostardesign Type Foundry. All rights reserved.
</metadata>
<defs>
<font id="UniviaPro-Medium" horiz-adv-x="646" >
  <font-face 
    font-family="Univia Pro Medium"
    font-weight="500"
    font-stretch="normal"
    units-per-em="1000"
    panose-1="0 0 6 0 0 0 0 0 0 0"
    ascent="800"
    descent="-200"
    x-height="553"
    cap-height="765"
    bbox="-142.324 -273.375 1328 1146.75"
    underline-thickness="0"
    underline-position="0"
    stemh="112"
    stemv="121"
    unicode-range="U+0020-1F603"
  />
<missing-glyph horiz-adv-x="445" 
d="M92 765h480c10 0 15 -5 15 -15v-735c0 -10 -5 -15 -15 -15h-480c-10 0 -15 5 -15 15v735c0 10 5 15 15 15zM321 629c-48 0 -88 -3 -120 -9c-9 -2 -13 -7 -13 -15v-45c0 -7 3 -10 10 -10h123c60 0 82 -3 87 -50v-24c0 -32 -11 -46 -36 -59l-81 -39
c-39 -23 -46 -35 -42 -68l4 -37c0 -4 2 -6 7 -6h57c5 0 7 2 7 7l1 13c1 17 8 23 35 36l67 32c53 25 71 51 71 119v37c0 51 -18 83 -54 98c-36 16 -68 20 -123 20zM288 218c-34 0 -51 -16 -51 -48c0 -31 17 -47 51 -47c33 0 50 16 50 47c0 32 -17 48 -50 48z" />
    <glyph glyph-name="f_f" unicode="ff" horiz-adv-x="753" 
d="M742 761c9 -2 14 -8 14 -18v-63c0 -10 -5 -15 -16 -15h-66c-53 0 -71 -7 -71 -47v-66h126c10 0 14 -5 12 -16l-12 -65c-2 -9 -7 -14 -16 -14h-110v-442c0 -10 -5 -15 -15 -15h-91c-10 0 -15 5 -15 15v442h-257v-442c0 -10 -5 -15 -15 -15h-91c-10 0 -15 5 -15 15v442h-68
c-11 0 -16 5 -16 15v65c0 10 5 15 16 15h68v90c0 56 19 93 54 109c36 16 62 19 107 19c29 0 62 -3 98 -9c10 -2 15 -8 15 -18v-63c0 -10 -5 -15 -16 -15h-66c-53 0 -71 -7 -71 -47v-66h257v90c0 56 19 93 54 109c36 16 63 19 108 19c28 0 61 -3 98 -9z" />
    <glyph glyph-name="fi.001" unicode="fi" horiz-adv-x="637" 
d="M512 780c45 0 72 -25 72 -69s-27 -69 -72 -69c-47 0 -73 25 -73 69s26 69 73 69zM265 770c21 0 48 -3 83 -9c9 -2 14 -8 14 -18v-63c0 -10 -5 -15 -16 -15h-50c-53 0 -71 -7 -71 -47v-66h332c10 0 15 -5 15 -15v-522c0 -10 -5 -15 -15 -15h-91c-10 0 -15 5 -15 15v442
h-226v-442c0 -10 -5 -15 -15 -15h-91c-10 0 -15 5 -15 15v442h-68c-11 0 -16 5 -16 15v65c0 10 5 15 16 15h68v90c0 56 19 93 54 109c36 16 62 19 107 19z" />
    <glyph glyph-name="fl" unicode="fl" horiz-adv-x="626" 
d="M546 758c10 -1 15 -6 15 -15v-728c0 -10 -5 -15 -15 -15h-91c-10 0 -15 5 -15 15v648l-132 2c-57 0 -83 -7 -83 -47v-66h121c10 0 14 -5 12 -16l-11 -65c-2 -9 -8 -14 -17 -14h-105v-442c0 -10 -5 -15 -15 -15h-91c-10 0 -15 5 -15 15v442h-68c-11 0 -16 5 -16 15v65
c0 10 5 15 16 15h68v90c0 56 24 93 68 109c45 16 80 19 141 19c56 0 134 -4 233 -12z" />
    <glyph glyph-name="f_f_i" unicode="ffi" horiz-adv-x="1015" 
d="M836 762c13 12 31 18 54 18s41 -6 54 -18s19 -29 19 -51s-6 -39 -19 -51s-31 -18 -54 -18s-41 6 -54 18s-19 29 -19 51s6 39 19 51zM731 761c9 -2 14 -8 14 -18v-63c0 -10 -5 -15 -16 -15h-55c-53 0 -71 -7 -71 -47v-66h332c10 0 15 -5 15 -15v-522c0 -10 -5 -15 -15 -15
h-91c-10 0 -15 5 -15 15v442h-226v-442c0 -10 -5 -15 -15 -15h-91c-10 0 -15 5 -15 15v442h-257v-442c0 -10 -5 -15 -15 -15h-91c-10 0 -15 5 -15 15v442h-68c-11 0 -16 5 -16 15v65c0 10 5 15 16 15h68v90c0 56 19 93 54 109c36 16 62 19 107 19c25 0 56 -3 92 -9
c10 -2 15 -8 15 -18v-63c0 -10 -5 -15 -16 -15h-60c-53 0 -71 -7 -71 -47v-66h257v90c0 56 19 93 54 109c54 21 86 25 195 10z" />
    <glyph glyph-name="f_f_l" unicode="ffl" horiz-adv-x="1004" 
d="M924 758c10 -1 15 -6 15 -15v-728c0 -10 -5 -15 -15 -15h-91c-10 0 -15 5 -15 15v648l-132 2c-52 1 -79 -5 -83 -47v-66h118c10 0 14 -5 12 -16l-12 -65c-2 -9 -7 -14 -16 -14h-102v-442c0 -10 -5 -15 -15 -15h-91c-10 0 -15 5 -15 15v442h-257v-442
c0 -10 -5 -15 -15 -15h-91c-10 0 -15 5 -15 15v442h-68c-11 0 -16 5 -16 15v65c0 10 5 15 16 15h68v90c0 56 19 93 54 109c36 16 62 19 107 19c36 0 72 -3 108 -9c10 -2 15 -8 15 -18v-63c0 -10 -5 -15 -16 -15h-76c-53 0 -71 -7 -71 -47v-66h257v90c0 56 24 93 68 109
c45 16 80 19 141 19c57 0 135 -4 233 -12z" />
    <glyph glyph-name="f_b" unicode="fb" horiz-adv-x="965" 
d="M689 558c92 0 153 -19 183 -57c31 -38 46 -113 46 -225c0 -113 -16 -188 -48 -225s-98 -56 -198 -56c-70 0 -141 6 -214 18c-12 2 -18 9 -18 21v629l-132 2c-52 1 -79 -5 -83 -47v-66h121c11 0 15 -5 13 -16l-12 -65c-2 -9 -8 -14 -17 -14h-105v-442
c0 -10 -5 -15 -15 -15h-91c-10 0 -15 5 -15 15v442h-68c-11 0 -16 5 -16 15v65c0 10 5 15 16 15h68v90c0 56 24 93 68 109c45 16 80 19 141 19c57 0 135 -4 233 -12c10 -1 15 -6 15 -15v-191c34 4 77 6 128 6zM674 100c54 0 88 11 102 34s21 70 21 142c0 74 -7 122 -22 144
s-50 33 -105 33h-109v-345c37 -5 75 -8 113 -8z" />
    <glyph glyph-name="f_f_b" unicode="ffb" horiz-adv-x="1347" 
d="M1071 558c92 0 153 -19 183 -57c31 -38 46 -113 46 -225c0 -113 -16 -188 -48 -225s-98 -56 -198 -56c-70 0 -141 6 -214 18c-12 2 -18 9 -18 21v629l-132 2c-57 0 -83 -7 -83 -47v-66h121c11 0 15 -5 13 -16l-12 -65c-2 -9 -8 -14 -17 -14h-105v-442
c0 -10 -5 -15 -15 -15h-91c-10 0 -15 5 -15 15v442h-260v-442c0 -10 -5 -15 -15 -15h-92c-10 0 -15 5 -15 15v442h-67c-11 0 -16 5 -16 15v65c0 10 5 15 16 15h67v90c0 56 19 93 54 109c36 16 63 19 108 19c28 0 61 -3 98 -9c10 -2 15 -8 15 -18v-63c0 -10 -5 -15 -16 -15
h-67c-53 0 -70 -7 -70 -47v-66h260v90c0 56 24 93 68 109c45 16 80 19 141 19c56 0 134 -4 233 -12c10 -1 15 -6 15 -15v-191c33 4 76 6 128 6zM1055 100c54 0 88 11 102 34c15 23 22 70 22 142c0 74 -8 122 -23 144s-49 33 -104 33h-109v-345c37 -5 75 -8 112 -8z" />
    <glyph glyph-name="f_f_j" unicode="ffj" horiz-adv-x="1000" 
d="M875 780c45 0 72 -25 72 -69s-27 -69 -72 -69c-47 0 -73 25 -73 69s26 69 73 69zM644 770c22 0 50 -3 83 -9c9 -2 14 -8 14 -18v-63c0 -10 -5 -15 -16 -15h-51c-53 0 -71 -7 -71 -47v-66h317c10 0 15 -5 15 -15v-637c0 -45 -13 -75 -38 -88s-48 -16 -87 -16
c-31 0 -53 2 -68 6c-10 2 -15 8 -15 18v67c0 9 6 14 17 14h23c41 0 47 5 47 44v512h-211v-442c0 -10 -5 -15 -15 -15h-91c-10 0 -15 5 -15 15v442h-257v-442c0 -10 -5 -15 -15 -15h-91c-10 0 -15 5 -15 15v442h-68c-11 0 -16 5 -16 15v65c0 10 5 15 16 15h68v90
c0 56 19 93 54 109c36 16 62 19 107 19c29 0 60 -3 93 -9c10 -2 15 -8 15 -18v-63c0 -10 -5 -15 -16 -15h-61c-53 0 -71 -7 -71 -47v-66h257v90c0 56 19 93 54 109c36 16 63 19 108 19z" />
    <glyph glyph-name="f_f_k" unicode="ffk" horiz-adv-x="1283" 
d="M1231 534l-170 -199l221 -308c12 -18 6 -27 -17 -27h-97c-10 0 -17 4 -22 11l-207 297v-293c0 -10 -5 -15 -15 -15h-91c-10 0 -15 5 -15 15v648l-132 2c-57 0 -83 -7 -83 -47v-66h121c10 0 14 -5 12 -16l-11 -65c-2 -9 -8 -14 -17 -14h-105v-442c0 -10 -5 -15 -15 -15
h-91c-10 0 -15 5 -15 15v442h-256v-442c0 -10 -5 -15 -15 -15h-92c-10 0 -15 5 -15 15v442h-67c-11 0 -16 5 -16 15v65c0 10 5 15 16 15h67v90c0 56 19 93 54 109c36 16 63 19 108 19c28 0 61 -3 98 -9c10 -2 15 -8 15 -18v-63c0 -10 -5 -15 -16 -15h-67
c-53 0 -70 -7 -70 -47v-66h256v90c0 56 24 93 68 109c45 16 80 19 141 19c56 0 134 -4 233 -12c10 -1 15 -6 15 -15v-383l154 183c5 7 12 10 21 10h108c17 0 20 -6 9 -19z" />
    <glyph glyph-name="f_j" unicode="fj" horiz-adv-x="621" 
d="M442 762c13 12 31 18 54 18s41 -6 54 -18s19 -29 19 -51s-6 -39 -19 -51s-31 -18 -54 -18s-41 6 -54 18s-19 29 -19 51s6 39 19 51zM265 770c24 0 52 -3 85 -9c10 -2 15 -8 15 -18v-63c0 -10 -5 -15 -16 -15h-53c-53 0 -71 -7 -71 -47v-66h316c10 0 15 -5 15 -15v-637
c0 -85 -44 -104 -124 -104c-32 0 -55 2 -68 6c-11 2 -16 8 -16 18v67c0 9 6 14 17 14h24c41 0 46 4 46 44v512h-210v-442c0 -10 -5 -15 -15 -15h-91c-10 0 -15 5 -15 15v442h-68c-11 0 -16 5 -16 15v65c0 10 5 15 16 15h68v90c0 56 19 93 54 109c36 16 62 19 107 19z" />
    <glyph glyph-name="f_k" unicode="fk" horiz-adv-x="905" 
d="M853 534l-170 -199l221 -308c12 -18 6 -27 -17 -27h-97c-10 0 -17 4 -22 11l-207 297v-293c0 -10 -5 -15 -15 -15h-91c-10 0 -15 5 -15 15v648l-132 2c-57 0 -83 -7 -83 -47v-66h121c10 0 14 -5 12 -16l-11 -65c-2 -9 -8 -14 -17 -14h-105v-442c0 -10 -5 -15 -15 -15h-91
c-10 0 -15 5 -15 15v442h-68c-11 0 -16 5 -16 15v65c0 10 5 15 16 15h68v90c0 56 24 93 68 109c45 16 80 19 141 19c56 0 134 -4 233 -12c10 -1 15 -6 15 -15v-383l154 183c5 7 12 10 21 10h108c17 0 20 -6 9 -19z" />
    <glyph glyph-name=".notdef" horiz-adv-x="445" 
d="M92 765h480c10 0 15 -5 15 -15v-735c0 -10 -5 -15 -15 -15h-480c-10 0 -15 5 -15 15v735c0 10 5 15 15 15zM321 629c-48 0 -88 -3 -120 -9c-9 -2 -13 -7 -13 -15v-45c0 -7 3 -10 10 -10h123c60 0 82 -3 87 -50v-24c0 -32 -11 -46 -36 -59l-81 -39
c-39 -23 -46 -35 -42 -68l4 -37c0 -4 2 -6 7 -6h57c5 0 7 2 7 7l1 13c1 17 8 23 35 36l67 32c53 25 71 51 71 119v37c0 51 -18 83 -54 98c-36 16 -68 20 -123 20zM288 218c-34 0 -51 -16 -51 -48c0 -31 17 -47 51 -47c33 0 50 16 50 47c0 32 -17 48 -50 48z" />
    <glyph glyph-name="NULL" horiz-adv-x="0" 
 />
    <glyph glyph-name="CR" horiz-adv-x="333" 
 />
    <glyph glyph-name="space" unicode=" " horiz-adv-x="215" 
 />
    <glyph glyph-name="exclam" unicode="!" horiz-adv-x="278" 
d="M90 765h98c10 0 15 -5 15 -15v-348l-2 -20l-23 -153c-1 -11 -6 -16 -15 -16h-49c-8 0 -13 5 -15 16l-23 153c-1 7 -1 13 -1 20v348c0 10 5 15 15 15zM140 133c45 0 72 -25 72 -69s-27 -69 -72 -69c-47 0 -74 25 -74 69s27 69 74 69z" />
    <glyph glyph-name="quotedbl" unicode="&#x22;" horiz-adv-x="452" 
d="M66 765h97c10 0 15 -5 15 -15v-107c0 -7 0 -13 -1 -20l-23 -154c-2 -10 -7 -15 -15 -15h-49c-8 0 -13 5 -15 15l-23 154c-1 7 -1 13 -1 20v107c0 10 5 15 15 15zM290 765h97c10 0 15 -5 15 -15v-107c0 -7 0 -13 -1 -20l-23 -154c-2 -10 -7 -15 -15 -15h-49
c-8 0 -13 5 -15 15l-23 154c-1 7 -1 13 -1 20v107c0 10 5 15 15 15z" />
    <glyph glyph-name="numbersign" unicode="#" horiz-adv-x="692" 
d="M631 480h-100v-197h100c10 0 15 -5 15 -15v-77c0 -10 -5 -15 -15 -15h-100v-161c0 -10 -5 -15 -15 -15h-89c-10 0 -15 5 -15 15v161h-144v-161c0 -10 -5 -15 -15 -15h-88c-10 0 -15 5 -15 15v161h-89c-10 0 -15 5 -15 15v77c0 10 5 15 15 15h89v197h-89
c-10 0 -15 5 -15 15v78c0 10 5 15 15 15h89v162c0 10 5 15 15 15h88c10 0 15 -5 15 -15v-162h144v162c0 10 5 15 15 15h89c10 0 15 -5 15 -15v-162h100c10 0 15 -5 15 -15v-78c0 -10 -5 -15 -15 -15zM268 283h144v197h-144v-197z" />
    <glyph glyph-name="dollar" unicode="$" horiz-adv-x="613" 
d="M249 468l203 -73c93 -35 126 -82 126 -170v-27c0 -116 -83 -159 -232 -166v-72c0 -11 -5 -16 -15 -16h-46c-10 0 -15 5 -15 16v71c-63 2 -135 8 -216 17c-7 1 -11 5 -11 12v74c0 7 4 10 12 10h299c65 0 95 16 95 60v15c0 41 -18 65 -74 85l-216 77
c-77 25 -106 77 -106 168v21c0 115 76 157 217 165v72c0 10 5 15 15 15h46c10 0 15 -5 15 -15v-71c43 -1 104 -6 183 -16c7 -2 11 -6 11 -11v-76c0 -7 -4 -10 -12 -10h-248c-69 0 -98 -16 -98 -63v-13c0 -39 15 -59 67 -79z" />
    <glyph glyph-name="percent" unicode="%" horiz-adv-x="931" 
d="M67 728c26 28 75 42 146 42s120 -14 145 -43c25 -28 38 -82 38 -161s-13 -133 -38 -162s-74 -43 -145 -43s-120 14 -146 43c-25 29 -38 83 -38 162s13 133 38 162zM639 765h49c9 0 11 -5 6 -15l-386 -735c-5 -10 -13 -15 -23 -15h-49c-9 0 -12 5 -7 15l386 735
c5 10 13 15 24 15zM132 566c0 -88 20 -115 81 -115s80 27 80 115s-19 114 -80 114s-81 -27 -81 -114zM572 361c26 29 75 43 146 43s120 -14 145 -43c26 -29 39 -83 39 -162s-13 -133 -39 -162c-25 -28 -74 -42 -145 -42s-120 14 -146 42c-25 29 -38 83 -38 162
s13 133 38 162zM781 290c-11 16 -32 24 -63 24s-52 -8 -63 -25c-11 -16 -17 -46 -17 -90s6 -74 17 -90s32 -24 63 -24s52 8 63 24s17 46 17 90s-6 74 -17 91z" />
    <glyph glyph-name="ampersand" unicode="&#x26;" horiz-adv-x="664" 
d="M315 770c49 0 94 -4 135 -11c13 -3 19 -9 19 -18v-70c0 -9 -5 -13 -15 -13h-130c-53 0 -90 -6 -110 -18c-19 -12 -29 -38 -29 -79v-14c0 -43 8 -72 24 -88s48 -24 96 -24h289c11 0 16 -5 16 -15v-54c0 -8 -5 -13 -16 -15l-68 -15v-186c0 -44 13 -53 62 -53h33
c11 0 16 -5 16 -14v-63c0 -9 -5 -15 -15 -18c-19 -5 -41 -7 -68 -7c-17 0 -30 0 -39 1c-19 1 -50 10 -69 29c-44 -20 -94 -30 -149 -30c-81 0 -142 14 -181 42c-39 29 -59 82 -59 159v30c0 87 30 140 91 157c-61 16 -91 69 -91 158v33c0 77 20 129 61 156s107 40 197 40z
M414 125v208h-115c-45 0 -76 -8 -91 -25c-15 -16 -22 -45 -23 -86v-13c0 -75 40 -102 127 -102c34 0 68 6 102 18z" />
    <glyph glyph-name="quotesingle" unicode="'" horiz-adv-x="229" 
d="M66 765h98c10 0 15 -5 15 -15v-107l-2 -20l-23 -154c-1 -10 -6 -15 -15 -15h-49c-8 0 -13 5 -15 15l-22 154l-2 20v107c0 10 5 15 15 15z" />
    <glyph glyph-name="parenleft" unicode="(" horiz-adv-x="341" 
d="M228 821h93c4 0 6 -2 6 -7v-11c0 -1 -1 -4 -2 -8c-41 -57 -71 -102 -92 -136c-21 -33 -36 -68 -47 -105s-17 -68 -19 -93c-1 -25 -2 -67 -2 -125s1 -100 2 -125c2 -25 8 -56 19 -93s26 -72 47 -106c21 -33 51 -78 92 -135c1 -4 2 -7 2 -8v-11c0 -5 -2 -7 -6 -7h-93
c-4 0 -9 2 -15 7c-67 87 -104 148 -128 197c-12 25 -21 53 -26 85s-8 60 -9 84c-1 25 -2 62 -2 112s1 87 2 112s4 53 9 84c19 93 55 147 154 282c5 5 10 7 15 7z" />
    <glyph glyph-name="parenright" unicode=")" horiz-adv-x="341" 
d="M20 821h93c5 0 10 -2 15 -7c67 -87 103 -147 127 -198c13 -25 21 -53 26 -84s9 -59 10 -84s2 -62 2 -112s-1 -87 -2 -112c-1 -24 -5 -52 -10 -84c-17 -95 -54 -146 -153 -282c-6 -5 -11 -7 -15 -7h-93c-4 0 -6 2 -6 7v11c0 1 1 4 2 8c41 57 71 102 92 135
c21 34 36 69 47 106s17 68 18 93c2 25 3 67 3 125s-1 100 -3 125c-1 25 -7 56 -18 93s-26 72 -47 105c-21 34 -51 79 -92 136c-1 4 -2 7 -2 8v11c0 5 2 7 6 7z" />
    <glyph glyph-name="asterisk" unicode="*" horiz-adv-x="423" 
d="M186 785h51c10 0 15 -5 14 -15l-7 -121l113 44c11 3 17 0 19 -9l15 -47c3 -10 -1 -16 -10 -19l-115 -33l77 -94c7 -8 6 -15 -2 -21l-39 -28c-8 -6 -15 -5 -21 4l-68 99l-70 -101c-6 -8 -13 -9 -21 -3l-37 29c-9 6 -10 13 -3 21l75 93l-115 34c-10 2 -13 8 -10 18l15 47
c3 10 10 13 20 9l111 -43l-6 121c-1 10 3 15 14 15z" />
    <glyph glyph-name="plus" unicode="+" horiz-adv-x="553" 
d="M235 546h84c10 0 15 -5 15 -15v-169h171c10 0 15 -5 15 -15v-80c0 -10 -5 -15 -15 -15h-171v-170c0 -10 -5 -15 -15 -15h-84c-10 0 -15 5 -15 15v170h-172c-10 0 -15 5 -15 15v80c0 10 5 15 15 15h172v169c0 10 5 15 15 15z" />
    <glyph glyph-name="comma" unicode="," horiz-adv-x="263" 
d="M85 122h120c7 0 10 -3 10 -10v-18c0 -4 -2 -9 -5 -14l-158 -240c-4 -5 -9 -7 -14 -4l-34 18c-5 3 -6 7 -3 14l72 246c2 5 6 8 12 8z" />
    <glyph glyph-name="hyphen" unicode="-" horiz-adv-x="444" 
d="M76 341h291c11 0 16 -5 16 -15v-82c0 -10 -5 -15 -16 -15h-291c-10 0 -15 5 -15 15v82c0 10 5 15 15 15z" />
    <glyph glyph-name="period" unicode="." horiz-adv-x="233" 
d="M117 133c45 0 72 -25 72 -69s-27 -69 -72 -69c-47 0 -74 25 -74 69s27 69 74 69z" />
    <glyph glyph-name="slash" unicode="/" horiz-adv-x="482" 
d="M402 801h49c9 0 11 -6 7 -17l-353 -805c-6 -11 -13 -17 -22 -17h-51c-11 0 -13 6 -7 17l354 805c5 11 13 17 23 17z" />
    <glyph glyph-name="zero" unicode="0" horiz-adv-x="677" 
d="M338 770c95 0 156 -15 200 -50c68 -58 84 -157 86 -339c0 -124 -10 -202 -34 -265c-39 -91 -112 -119 -252 -121c-114 0 -190 26 -228 79s-57 156 -57 307c0 156 13 243 56 306c44 63 112 83 229 83zM181 381c0 -107 10 -180 31 -218c21 -37 63 -56 126 -56
s105 19 126 56c21 38 32 111 32 218c0 108 -11 181 -32 219c-21 39 -63 58 -126 58s-105 -19 -126 -58c-21 -38 -31 -111 -31 -219z" />
    <glyph glyph-name="one" unicode="1" horiz-adv-x="467" 
d="M314 642v-530h122c10 0 15 -5 15 -15v-82c0 -10 -5 -15 -15 -15h-374c-11 0 -16 5 -16 15v82c0 10 5 15 15 15h129v497c0 43 -16 53 -79 53h-60c-11 0 -17 5 -17 15v64c0 9 5 15 16 18c25 7 55 11 92 11c45 0 75 -3 112 -19c39 -16 60 -53 60 -109z" />
    <glyph glyph-name="two" unicode="2" horiz-adv-x="609" 
d="M281 770c64 0 107 -2 156 -17c71 -21 116 -66 116 -159v-80c0 -41 -6 -75 -18 -102s-38 -52 -77 -75l-205 -118c-44 -23 -57 -43 -57 -80v-26h357c5 0 7 -2 7 -6v-101c0 -4 -2 -6 -6 -6h-494c-17 0 -26 9 -26 28v89c0 41 9 75 27 100c19 25 52 53 100 82l226 136
c31 19 38 45 38 92v48c0 67 -49 83 -153 83h-191c-6 0 -9 3 -9 9v72c0 8 4 13 13 16c72 10 137 15 196 15z" />
    <glyph glyph-name="three" unicode="3" horiz-adv-x="600" 
d="M235 770c115 0 195 -13 240 -39s68 -78 68 -157v-33c0 -89 -31 -142 -92 -158c61 -17 92 -70 92 -157v-30c0 -80 -22 -134 -67 -161s-125 -40 -241 -40c-61 0 -118 4 -169 11c-13 3 -19 8 -19 15v76c0 7 5 10 15 10h169c75 0 125 7 148 21s35 43 35 86v6
c0 42 -8 71 -25 87c-16 16 -49 24 -100 24h-186c-9 0 -13 4 -13 12v79c0 9 4 13 13 13h185c51 0 85 8 101 24c17 16 25 45 25 88v12c0 42 -12 69 -37 81c-24 12 -75 18 -152 18h-163c-10 0 -15 4 -15 11v74c0 8 6 13 19 16c45 7 101 11 169 11z" />
    <glyph glyph-name="four" unicode="4" horiz-adv-x="663" 
d="M185 765h98c11 0 14 -6 11 -18l-128 -445h213v189c0 9 4 15 12 18l99 35c12 5 18 1 18 -11v-231h119c11 0 16 -5 16 -14v-83c0 -10 -5 -15 -16 -15h-119v-175c0 -10 -5 -15 -15 -15h-99c-10 0 -15 5 -15 15v175h-337c-10 0 -15 5 -15 15v54c0 6 2 17 7 34l133 462
c2 7 8 10 18 10z" />
    <glyph glyph-name="five" unicode="5" horiz-adv-x="621" 
d="M92 765h452c11 0 16 -5 16 -15v-82c0 -10 -5 -15 -16 -15h-352l-14 -189c37 3 69 5 97 5c110 0 187 -15 231 -44s66 -86 67 -170v-48c-1 -83 -24 -140 -69 -169s-124 -43 -239 -43c-77 0 -141 3 -191 9c-12 3 -18 9 -18 18v74c0 7 5 11 15 11h195c71 0 119 8 143 24
c24 17 36 48 36 95v8c-1 47 -13 80 -37 97c-23 17 -71 26 -142 26h-189c-14 0 -21 5 -21 15v78l21 300c0 10 5 15 15 15z" />
    <glyph glyph-name="six" unicode="6" horiz-adv-x="618" 
d="M275 765h107c13 0 16 -6 10 -18l-145 -291c23 6 51 9 82 9c176 0 259 -63 259 -210v-46c0 -155 -88 -214 -272 -214c-187 0 -276 58 -276 214v46c0 45 7 82 21 113l196 387c4 7 10 10 18 10zM316 357c-109 0 -148 -34 -148 -123v-4c0 -89 39 -123 148 -123
c107 0 143 34 143 123v4c0 89 -36 123 -143 123z" />
    <glyph glyph-name="seven" unicode="7" horiz-adv-x="585" 
d="M36 765h515c10 0 15 -5 15 -15v-62c0 -7 -2 -15 -7 -23l-337 -655c-4 -7 -10 -10 -18 -10h-115c-13 0 -16 6 -10 18l329 635h-372c-11 0 -16 5 -16 14v83c0 10 5 15 16 15z" />
    <glyph glyph-name="eight" unicode="8" horiz-adv-x="647" 
d="M317 770h16c169 0 248 -66 248 -209c0 -89 -30 -144 -99 -183c83 -37 118 -87 118 -176c0 -138 -89 -207 -268 -207h-18c-183 0 -268 67 -268 211c0 79 41 141 122 186c-67 34 -100 90 -100 167c0 144 80 211 249 211zM332 658h-13c-81 0 -122 -33 -122 -98
c0 -59 32 -87 92 -110l87 -27c51 29 77 72 77 127c0 72 -40 108 -121 108zM378 308l-108 35c-71 -35 -95 -73 -95 -126c0 -73 47 -110 141 -110h14c94 0 141 33 141 99c0 60 -34 83 -93 102z" />
    <glyph glyph-name="nine" unicode="9" horiz-adv-x="617" 
d="M578 555v-45c0 -45 -7 -83 -22 -113l-196 -387c-4 -7 -10 -10 -18 -10h-106c-13 0 -16 6 -10 18l144 290c-19 -5 -46 -8 -81 -8c-176 0 -259 63 -259 210v46c0 155 87 214 272 214s276 -59 276 -215zM302 658c-108 0 -144 -34 -144 -123v-4c0 -89 36 -123 144 -123
c109 0 147 34 147 123v3c0 91 -38 124 -147 124z" />
    <glyph glyph-name="colon" unicode=":" horiz-adv-x="267" 
d="M134 559c45 0 72 -25 72 -69s-27 -69 -72 -69c-47 0 -73 25 -73 69s26 69 73 69zM134 133c45 0 72 -25 72 -69s-27 -69 -72 -69c-47 0 -73 25 -73 69s26 69 73 69z" />
    <glyph glyph-name="semicolon" unicode=";" horiz-adv-x="289" 
d="M153 559c48 0 72 -23 72 -69s-24 -69 -72 -69c-47 0 -73 25 -73 69s26 69 73 69zM93 122h119c7 0 10 -3 10 -10v-18c0 -4 -2 -9 -5 -14l-157 -240c-4 -5 -9 -7 -14 -4l-34 18c-5 3 -6 7 -3 14l71 246c2 5 6 8 13 8z" />
    <glyph glyph-name="less" unicode="&#x3c;" horiz-adv-x="545" 
d="M468 615h13c5 0 8 -3 8 -8v-91c0 -7 -4 -13 -12 -17l-292 -130l292 -130c8 -4 12 -10 12 -18v-91c0 -5 -3 -8 -8 -8h-13c-5 0 -8 1 -11 2l-416 190c-8 4 -12 10 -12 17v75c0 8 4 14 12 17l416 190c3 1 6 2 11 2z" />
    <glyph glyph-name="equal" unicode="=" horiz-adv-x="655" 
d="M78 496h499c10 0 15 -5 15 -15v-82c0 -10 -5 -15 -15 -15h-499c-10 0 -15 5 -15 15v82c0 10 5 15 15 15zM78 246h499c10 0 15 -5 15 -15v-82c0 -10 -5 -15 -15 -15h-499c-10 0 -15 5 -15 15v82c0 10 5 15 15 15z" />
    <glyph glyph-name="greater" unicode="&#x3e;" horiz-adv-x="545" 
d="M64 615h14c4 0 7 -1 10 -2l416 -190c8 -3 12 -9 12 -17v-75c0 -7 -4 -13 -12 -17l-416 -190c-3 -1 -6 -2 -10 -2h-14c-5 0 -8 3 -8 8v91c0 8 4 14 12 18l293 130l-293 130c-8 4 -12 10 -12 17v91c0 5 3 8 8 8z" />
    <glyph glyph-name="question" unicode="?" horiz-adv-x="530" 
d="M229 770c65 0 106 -2 155 -17c69 -19 112 -66 112 -162v-57c0 -53 -8 -92 -24 -117c-15 -25 -44 -47 -86 -66l-102 -49c-40 -20 -50 -30 -53 -59l-2 -21c-1 -6 -5 -9 -10 -9h-82c-6 0 -10 3 -11 9l-5 57c-5 48 5 67 61 99l130 63c41 20 56 40 56 95v42
c0 31 -11 50 -24 61c-7 6 -17 10 -31 13c-27 5 -44 6 -85 6h-186c-10 0 -15 5 -15 16v63c0 12 6 19 18 21c45 8 106 12 184 12zM122 115c13 12 31 18 54 18s41 -6 54 -18s19 -29 19 -51s-6 -39 -19 -51s-31 -18 -54 -18s-41 6 -54 18s-19 29 -19 51s6 39 19 51z" />
    <glyph glyph-name="at" unicode="@" horiz-adv-x="1036" 
d="M529 764c308 0 459 -123 459 -403c0 -228 -110 -302 -288 -305l-201 1c-65 1 -110 9 -137 26s-40 52 -41 105v15c1 96 50 128 161 128h121v44c0 47 -27 67 -94 67h-139c-11 0 -12 1 -12 12v52c0 8 4 12 11 13c43 8 88 12 133 12c152 0 204 -42 204 -139v-284
c71 0 127 19 166 56c40 38 60 103 60 195c0 244 -137 355 -405 355c-291 0 -426 -137 -426 -433c0 -154 37 -254 94 -317c41 -44 82 -69 137 -86c55 -19 99 -24 158 -27c9 0 13 -4 13 -13v-24c0 -9 -4 -14 -13 -14c-304 1 -445 158 -445 483c0 332 149 481 484 481zM603 141
v117h-113c-59 0 -67 -10 -67 -55v-7c0 -45 21 -54 78 -55h102z" />
    <glyph glyph-name="A" unicode="A" horiz-adv-x="691" 
d="M344 770c56 0 92 -6 109 -19s33 -45 48 -98l173 -637c2 -11 -2 -16 -12 -16h-102c-7 0 -11 5 -14 16l-59 215h-285l-60 -215c-3 -11 -7 -16 -13 -16h-103c-10 0 -14 5 -12 16l178 637c15 52 30 84 47 97s52 20 105 20zM344 661c-23 0 -24 -4 -35 -41l-77 -281h226
l-75 281c-11 37 -12 41 -39 41z" />
    <glyph glyph-name="B" unicode="B" horiz-adv-x="693" 
d="M360 770c94 0 162 -16 204 -47c43 -31 64 -86 64 -165c0 -104 -28 -157 -99 -172v-3c87 -12 118 -75 118 -180c0 -79 -21 -134 -62 -164c-41 -29 -107 -44 -198 -44c-117 0 -215 3 -295 9c-12 1 -15 3 -15 14v730c0 11 3 13 15 14c71 5 161 8 268 8zM348 658h-142v-227
h113c71 0 119 6 143 19c25 13 37 43 37 92c0 91 -42 116 -151 116zM385 334h-179v-227h177c97 0 135 24 135 108c0 92 -42 119 -133 119z" />
    <glyph glyph-name="C" unicode="C" horiz-adv-x="610" 
d="M365 770c84 0 148 -4 191 -12c13 -2 19 -9 19 -21v-63c0 -11 -5 -16 -15 -16h-195c-76 0 -126 -19 -149 -56s-34 -110 -34 -219c0 -110 11 -184 34 -221s73 -55 149 -55h195c10 0 15 -5 15 -15v-63c0 -13 -6 -20 -19 -22c-49 -8 -113 -12 -191 -12
c-127 0 -201 21 -250 82c-48 63 -63 151 -63 306s15 244 63 305c49 63 122 82 250 82z" />
    <glyph glyph-name="D" unicode="D" horiz-adv-x="741" 
d="M374 770c115 0 196 -30 245 -91c49 -60 73 -159 73 -297c0 -137 -24 -236 -73 -297c-49 -60 -130 -90 -245 -90c-108 0 -202 3 -282 9c-12 1 -15 2 -15 13v731c0 11 3 13 15 14c71 5 165 8 282 8zM364 658h-158v-551h168c136 0 188 80 188 275c0 196 -55 276 -198 276z
" />
    <glyph glyph-name="E" unicode="E" horiz-adv-x="639" 
d="M92 765h484c11 0 16 -5 16 -15v-82c0 -10 -5 -15 -16 -15h-370v-224h338c10 0 15 -5 15 -15v-79c0 -10 -5 -15 -15 -15h-338v-208h370c11 0 16 -5 16 -15v-82c0 -10 -5 -15 -16 -15h-484c-10 0 -15 5 -15 15v735c0 10 5 15 15 15z" />
    <glyph glyph-name="F" unicode="F" horiz-adv-x="603" 
d="M92 765h473c11 0 16 -5 16 -15v-82c0 -10 -5 -15 -16 -15h-359v-224h327c10 0 15 -5 15 -15v-79c0 -10 -5 -15 -15 -15h-327v-305c0 -10 -5 -15 -15 -15h-99c-10 0 -15 5 -15 15v735c0 10 5 15 15 15z" />
    <glyph glyph-name="G" unicode="G" horiz-adv-x="674" 
d="M365 770c91 0 158 -4 203 -12c12 -2 18 -9 18 -21v-63c0 -11 -5 -16 -15 -16h-206c-76 0 -126 -19 -149 -56s-34 -110 -34 -220c0 -109 11 -183 34 -220s73 -55 149 -55h139v254c0 11 5 16 15 16h91c10 0 15 -5 15 -16v-291c0 -10 -1 -17 -4 -22
c-18 -35 -103 -53 -256 -53c-127 0 -201 21 -250 82c-48 61 -63 150 -63 305s15 244 63 305c49 63 122 83 250 83z" />
    <glyph glyph-name="H" unicode="H" horiz-adv-x="781" 
d="M590 765h99c10 0 15 -5 15 -15v-734c0 -11 -5 -16 -15 -16h-99c-10 0 -15 5 -15 16v313h-369v-313c0 -11 -5 -16 -15 -16h-99c-10 0 -15 5 -15 16v734c0 10 5 15 15 15h99c10 0 15 -5 15 -15v-308h369v308c0 10 5 15 15 15z" />
    <glyph glyph-name="I" unicode="I" horiz-adv-x="282" 
d="M92 765h98c10 0 15 -5 15 -15v-734c0 -11 -5 -16 -15 -16h-98c-10 0 -15 5 -15 16v734c0 10 5 15 15 15z" />
    <glyph glyph-name="J" unicode="J" horiz-adv-x="581" 
d="M154 765h342c10 0 15 -5 15 -15v-373c0 -149 -22 -250 -66 -303s-129 -79 -255 -79c-53 0 -105 4 -155 12c-13 2 -19 9 -19 21v64c0 10 5 15 15 15h159c79 0 131 18 156 55s37 108 36 215v276h-228c-10 0 -15 5 -15 15v82c0 10 5 15 15 15z" />
    <glyph glyph-name="K" unicode="K" horiz-adv-x="649" 
d="M500 765h110c16 0 19 -6 9 -19l-279 -334l303 -385c11 -12 8 -27 -17 -27h-108c-11 0 -18 4 -22 11l-290 372v-368c0 -10 -5 -15 -15 -15h-99c-10 0 -15 5 -15 15v735c0 10 5 15 15 15h99c10 0 15 -5 15 -15v-316l273 321c5 7 12 10 21 10z" />
    <glyph glyph-name="L" unicode="L" horiz-adv-x="582" 
d="M92 765h99c10 0 15 -5 15 -15v-638h346c10 0 15 -5 15 -15v-82c0 -10 -5 -15 -15 -15h-460c-10 0 -15 5 -15 15v735c0 10 5 15 15 15z" />
    <glyph glyph-name="M" unicode="M" horiz-adv-x="961" 
d="M732 765h99c9 0 13 -5 14 -15l68 -734c1 -11 -4 -16 -15 -16h-98c-9 0 -14 5 -15 16l-45 525l-198 -503c-4 -9 -11 -13 -20 -13h-83c-10 0 -16 4 -19 13l-198 503l-46 -525c-1 -11 -6 -16 -15 -16h-98c-11 0 -16 5 -15 16l68 734c1 10 6 15 14 15h99c28 0 37 -8 48 -39
l204 -529l203 530c12 31 21 38 48 38z" />
    <glyph glyph-name="N" unicode="N" horiz-adv-x="779" 
d="M589 765h98c10 0 15 -5 15 -15v-734c0 -11 -5 -16 -15 -16h-77c-18 0 -32 7 -42 22l-362 539v-545c0 -11 -5 -16 -15 -16h-99c-10 0 -15 5 -15 16v734c0 10 5 15 15 15h83c36 -1 43 -6 60 -31l339 -503v519c0 10 5 15 15 15z" />
    <glyph glyph-name="O" unicode="O" horiz-adv-x="732" 
d="M366 770c128 0 202 -20 250 -83c49 -61 64 -151 64 -306s-15 -243 -64 -304c-48 -61 -122 -82 -250 -82c-127 0 -201 21 -250 82s-64 151 -64 304c0 155 15 245 64 306c49 63 123 83 250 83zM182 381c0 -109 12 -182 35 -219s73 -55 149 -55s126 18 149 55
c24 37 36 110 36 219s-12 183 -36 220c-23 38 -73 57 -149 57s-126 -19 -149 -57c-23 -37 -35 -111 -35 -220z" />
    <glyph glyph-name="P" unicode="P" horiz-adv-x="661" 
d="M331 770c114 0 192 -17 234 -50s63 -100 63 -199c0 -84 -13 -137 -40 -174c-13 -18 -33 -32 -58 -42c-49 -19 -104 -24 -199 -24h-125v-266c0 -12 -3 -15 -15 -15h-99c-12 0 -15 3 -15 15v733c0 11 3 13 15 14c71 5 151 8 239 8zM319 658h-113v-274h113
c79 0 111 2 142 21c31 20 37 50 37 113c0 59 -12 97 -35 114s-71 26 -144 26z" />
    <glyph glyph-name="Q" unicode="Q" horiz-adv-x="732" 
d="M680 381c0 -135 -17 -231 -51 -287c-34 -55 -98 -87 -191 -96l36 -123c3 -11 -2 -16 -15 -16h-90c-11 0 -17 5 -20 16l-36 122c-101 6 -170 36 -207 91c-36 55 -54 153 -54 293c0 155 15 245 63 306c49 63 123 83 251 83c127 0 201 -20 250 -83c49 -61 64 -151 64 -306z
M551 381c0 109 -12 183 -36 220c-23 38 -73 57 -149 57s-126 -19 -150 -57c-23 -37 -35 -111 -35 -220s12 -182 35 -219c24 -37 74 -55 150 -55s126 18 149 55c24 37 36 110 36 219z" />
    <glyph glyph-name="R" unicode="R" horiz-adv-x="676" 
d="M331 770c114 0 192 -17 234 -50s63 -100 63 -199c0 -77 -12 -133 -36 -167c-23 -33 -64 -55 -123 -64l169 -270c8 -11 3 -20 -12 -20h-93c-21 0 -29 6 -40 22l-165 260l-122 -1v-266c0 -12 -3 -15 -15 -15h-99c-12 0 -15 3 -15 15v733c0 11 3 13 15 14c71 5 151 8 239 8z
M319 658h-113v-274h113c79 0 111 2 142 21c31 20 37 50 37 113c0 59 -12 97 -35 114s-71 26 -144 26z" />
    <glyph glyph-name="S" unicode="S" horiz-adv-x="613" 
d="M322 770c59 0 126 -6 201 -17c11 -2 16 -7 16 -16v-62c0 -11 -5 -17 -15 -17h-231c-75 0 -112 -26 -112 -77v-16c0 -44 16 -68 67 -89l203 -81c93 -37 126 -88 126 -187v-31c0 -72 -27 -121 -80 -148c-52 -25 -110 -34 -195 -34c-82 0 -164 6 -246 18c-9 2 -14 8 -14 18
v60c0 11 5 16 16 16h279c74 0 111 25 111 75v17c0 48 -18 73 -74 96l-216 85c-79 29 -106 86 -106 186v23c0 151 111 181 270 181z" />
    <glyph glyph-name="T" unicode="T" horiz-adv-x="625" 
d="M30 765h565c10 0 15 -5 15 -15v-82c0 -10 -5 -15 -15 -15h-219v-638c0 -10 -5 -15 -15 -15h-98c-10 0 -15 5 -15 15v638h-218c-10 0 -15 5 -15 15v82c0 10 5 15 15 15z" />
    <glyph glyph-name="U" unicode="U" horiz-adv-x="754" 
d="M571 765h98c10 0 15 -5 15 -15v-369c0 -160 -14 -248 -62 -309c-48 -60 -118 -77 -245 -77s-197 17 -245 77c-48 61 -62 149 -62 309v369c0 10 5 15 15 15h99c10 0 15 -5 15 -15v-369c0 -109 12 -182 35 -219c24 -37 72 -55 143 -55s119 18 143 55s36 110 36 219v369
c0 12 3 15 15 15z" />
    <glyph glyph-name="V" unicode="V" horiz-adv-x="680" 
d="M32 765h102c8 0 10 -3 13 -16l162 -605c11 -36 14 -42 30 -42c20 0 25 6 34 42l157 605c3 13 5 16 13 16h102c11 0 15 -5 12 -16l-166 -636c-13 -53 -28 -86 -45 -99c-16 -13 -52 -19 -107 -19c-52 0 -86 6 -102 19s-31 46 -46 99l-171 636c-3 11 1 16 12 16z" />
    <glyph glyph-name="W" unicode="W" horiz-adv-x="1094" 
d="M948 765h105c12 0 14 -3 13 -16l-130 -636c-11 -52 -24 -85 -40 -98s-49 -20 -100 -20c-56 0 -92 6 -108 19c-15 13 -29 46 -42 99l-99 417l-99 -417c-33 -112 -30 -112 -151 -118c-50 0 -83 7 -99 20s-29 46 -40 98l-130 636c-1 13 1 16 13 16h104c9 0 11 -3 14 -16
l118 -587c7 -35 13 -42 30 -42c20 0 24 6 35 42l137 558c3 11 9 16 19 16h98c10 0 16 -5 19 -16l137 -558c9 -36 14 -42 35 -42c17 0 22 7 30 42l118 587c1 11 6 16 13 16z" />
    <glyph glyph-name="X" unicode="X" horiz-adv-x="671" 
d="M523 765h108c17 0 20 -7 11 -22l-231 -345l252 -376c10 -15 6 -22 -11 -22h-108c-11 0 -20 5 -27 16l-182 278l-181 -278c-7 -11 -16 -16 -27 -16h-108c-17 0 -21 7 -11 22l252 376l-231 345c-9 15 -6 22 11 22h108c11 0 20 -5 27 -16l160 -247l161 247c7 11 16 16 27 16
z" />
    <glyph glyph-name="Y" unicode="Y" horiz-adv-x="685" 
d="M560 765h109c15 0 19 -7 11 -22l-274 -504v-223c0 -11 -5 -16 -15 -16h-98c-10 0 -15 5 -15 16v224l-273 503c-8 15 -4 22 11 22h108c12 0 21 -5 27 -16l191 -377l191 377c6 11 15 16 27 16z" />
    <glyph glyph-name="Z" unicode="Z" horiz-adv-x="670" 
d="M57 765h557c10 0 15 -5 15 -15v-73c0 -6 -2 -12 -7 -19l-423 -546h423c11 0 16 -5 16 -15v-82c0 -10 -5 -15 -16 -15h-576c-10 0 -15 5 -15 15l-1 72c0 7 2 13 7 19l423 547h-402c-11 0 -16 5 -16 14l-1 83c0 10 5 15 16 15z" />
    <glyph glyph-name="bracketleft" unicode="[" horiz-adv-x="406" 
d="M94 821h271c10 0 15 -5 15 -15v-65c0 -10 -5 -15 -15 -15h-169v-781h169c10 0 15 -5 15 -15v-65c0 -10 -5 -15 -15 -15h-271c-10 0 -15 5 -15 15v941c0 10 5 15 15 15z" />
    <glyph glyph-name="backslash" unicode="\" horiz-adv-x="481" 
d="M31 801h48c11 0 18 -6 22 -17l356 -805c5 -11 2 -17 -8 -17h-51c-10 0 -17 6 -22 17l-353 805c-4 11 -1 17 8 17z" />
    <glyph glyph-name="bracketright" unicode="]" horiz-adv-x="406" 
d="M41 821h271c10 0 15 -5 15 -15v-941c0 -10 -5 -15 -15 -15h-271c-10 0 -15 5 -15 15v65c0 10 5 15 15 15h169v781h-169c-10 0 -15 5 -15 15v65c0 10 5 15 15 15z" />
    <glyph glyph-name="asciicircum" unicode="^" horiz-adv-x="525" 
d="M220 739h85c9 0 15 -4 18 -11l170 -341c7 -12 3 -18 -11 -18h-95c-8 0 -14 4 -17 11l-108 226l-108 -226c-4 -7 -10 -11 -18 -11h-93c-14 0 -18 6 -11 18l170 341c4 7 10 11 18 11z" />
    <glyph glyph-name="underscore" unicode="_" horiz-adv-x="595" 
d="M15 -47h565c10 0 15 -5 15 -15v-43c0 -10 -5 -15 -15 -15h-565c-10 0 -15 5 -15 15v43c0 10 5 15 15 15z" />
    <glyph glyph-name="grave" unicode="`" horiz-adv-x="453" 
d="M130 775h116c6 0 10 -2 12 -6l73 -125c3 -6 2 -11 -3 -14l-31 -19c-5 -4 -9 -4 -14 0l-158 135c-3 3 -5 7 -5 12v7c0 7 3 10 10 10z" />
    <glyph glyph-name="a" unicode="a" horiz-adv-x="549" 
d="M255 558c171 0 234 -52 234 -164v-348c0 -15 -7 -24 -20 -29c-51 -15 -126 -22 -225 -22c-77 0 -131 11 -163 32c-32 22 -48 67 -48 135c0 121 59 159 190 159h145v52c0 56 -33 80 -113 80h-164c-12 0 -15 3 -15 15v61c0 12 3 13 14 16c47 9 102 13 165 13zM368 107v127
h-138c-55 0 -77 -18 -77 -67c0 -56 25 -71 101 -71c48 0 86 4 114 11z" />
    <glyph glyph-name="b" unicode="b" horiz-adv-x="589" 
d="M79 764h92c10 0 15 -5 15 -15v-197c33 4 76 6 128 6c92 0 153 -19 183 -57s45 -113 45 -225c0 -116 -10 -179 -47 -224c-37 -44 -94 -57 -198 -57c-70 0 -141 6 -214 18c-13 2 -19 9 -19 21v715c0 10 5 15 15 15zM295 453h-109v-345c37 -5 75 -8 112 -8
c54 0 88 11 102 34s21 70 21 142c0 74 -7 122 -22 144s-49 33 -104 33z" />
    <glyph glyph-name="c" unicode="c" horiz-adv-x="498" 
d="M291 558c62 0 115 -4 158 -11c10 -2 15 -8 15 -18v-61c0 -10 -5 -15 -16 -15h-157c-52 0 -85 -11 -100 -34c-14 -22 -21 -69 -21 -142s7 -120 21 -143c15 -23 48 -34 100 -34h157c11 0 16 -5 16 -15v-61c0 -10 -5 -16 -15 -18c-43 -7 -96 -11 -158 -11
c-101 0 -166 18 -197 55s-46 112 -46 227c0 119 9 179 45 224c37 45 94 57 198 57z" />
    <glyph glyph-name="d" unicode="d" horiz-adv-x="589" 
d="M419 764h91c10 0 15 -5 15 -15v-715c0 -12 -6 -19 -18 -21c-73 -12 -144 -18 -214 -18c-104 0 -160 13 -199 57c-37 45 -47 107 -47 224c0 112 15 187 45 225c31 38 92 57 184 57c52 0 95 -2 128 -6v197c0 10 5 15 15 15zM404 108v345h-109c-55 0 -90 -11 -105 -33
s-22 -70 -22 -144c0 -72 7 -119 21 -142c15 -23 49 -34 103 -34c37 0 75 3 112 8z" />
    <glyph glyph-name="e" unicode="e" horiz-adv-x="558" 
d="M286 558c97 0 150 -12 186 -55c37 -43 47 -103 48 -216v-30c0 -20 -7 -27 -34 -27h-317c1 -53 10 -88 26 -105c17 -17 49 -25 98 -25h171c10 0 15 -5 15 -15v-62c0 -9 -5 -15 -14 -17c-49 -7 -108 -11 -179 -11c-97 0 -161 18 -192 55s-47 113 -47 226s15 189 46 226
s96 56 193 56zM286 453c-47 0 -78 -9 -93 -28c-15 -18 -23 -54 -24 -108h229c-1 54 -8 90 -23 108c-15 19 -44 28 -89 28z" />
    <glyph glyph-name="f" unicode="f" horiz-adv-x="375" 
d="M265 770c29 0 62 -3 98 -9c10 -2 15 -8 15 -18v-63c0 -10 -5 -15 -16 -15h-66c-53 0 -71 -7 -71 -47v-66h125c11 0 15 -5 13 -16l-12 -65c-2 -9 -8 -14 -17 -14h-109v-442c0 -10 -5 -15 -15 -15h-91c-10 0 -15 5 -15 15v442h-68c-11 0 -16 5 -16 15v65c0 10 5 15 16 15
h68v90c0 56 19 93 54 109c36 16 62 19 107 19z" />
    <glyph glyph-name="g" unicode="g" horiz-adv-x="590" 
d="M294 558c81 0 152 -6 213 -18c13 -1 19 -8 19 -20v-488c0 -75 -6 -118 -26 -158c-27 -57 -93 -79 -212 -79c-60 0 -115 4 -164 11c-9 2 -14 7 -14 16v59c0 10 5 15 15 15h156c49 0 82 7 99 22c17 14 25 41 25 81v5c-37 -6 -79 -9 -128 -9c-92 0 -153 19 -184 58
s-46 115 -46 228c0 111 16 184 48 221c33 37 99 56 199 56zM405 107v346h-115c-53 0 -86 -11 -100 -34s-21 -70 -21 -142c0 -73 7 -121 22 -143s50 -33 105 -33c45 0 81 2 109 6z" />
    <glyph glyph-name="h" unicode="h" horiz-adv-x="600" 
d="M80 764h91c10 0 15 -5 15 -15v-196c29 3 68 5 117 5c100 0 147 -6 186 -41c40 -33 50 -89 50 -196v-306c0 -10 -5 -15 -15 -15h-91c-10 0 -15 5 -15 15v284c0 76 -3 112 -24 133s-40 22 -93 22h-115v-439c0 -10 -5 -15 -15 -15h-92c-9 0 -14 5 -14 15v734
c0 10 5 15 15 15z" />
    <glyph glyph-name="i" unicode="i" horiz-adv-x="251" 
d="M126 780c48 0 72 -23 72 -69s-24 -69 -72 -69c-47 0 -73 25 -73 69s26 69 73 69zM80 553h91c10 0 15 -5 15 -15v-523c0 -10 -5 -15 -15 -15h-91c-10 0 -15 5 -15 15v523c0 10 5 15 15 15z" />
    <glyph glyph-name="j" unicode="j" horiz-adv-x="255" 
d="M130 780c45 0 72 -25 72 -69s-27 -69 -72 -69c-47 0 -73 25 -73 69s26 69 73 69zM84 553h91c10 0 15 -5 15 -15v-638c0 -45 -13 -75 -38 -88s-48 -16 -87 -16c-31 0 -53 2 -68 6c-10 2 -15 8 -15 18v67c0 9 5 14 16 14h24c41 0 47 5 47 44v593c0 10 5 15 15 15z" />
    <glyph glyph-name="k" unicode="k" horiz-adv-x="531" 
d="M80 764h91c10 0 15 -5 15 -16v-388l154 183c5 7 12 10 21 10h108c17 0 20 -6 9 -19l-169 -199l220 -308c11 -12 8 -27 -17 -27h-97c-9 0 -16 4 -22 11l-207 297v-292c0 -11 -5 -16 -15 -16h-91c-10 0 -15 5 -15 16v732c0 11 5 16 15 16z" />
    <glyph glyph-name="l" unicode="l" horiz-adv-x="251" 
d="M80 765h91c10 0 15 -5 15 -15v-735c0 -10 -5 -15 -15 -15h-91c-10 0 -15 5 -15 15v735c0 10 5 15 15 15z" />
    <glyph glyph-name="m" unicode="m" horiz-adv-x="879" 
d="M597 559c88 0 135 -8 172 -40s49 -87 49 -182l-2 -322c0 -10 -5 -15 -14 -15h-91c-9 0 -14 5 -14 15v284c0 49 -4 85 -11 106c-13 44 -34 49 -99 49c-36 0 -69 -3 -100 -8c10 -30 15 -72 15 -125l-2 -306c0 -10 -4 -15 -13 -15h-92c-10 0 -15 5 -15 15v304
c0 65 -4 98 -24 115c-20 19 -37 19 -86 19h-85v-438c0 -10 -5 -15 -15 -15h-91c-9 0 -14 5 -15 15v511c0 9 5 14 15 16c51 11 111 16 178 16c72 0 129 -10 172 -30c59 21 115 31 168 31z" />
    <glyph glyph-name="n" unicode="n" horiz-adv-x="599" 
d="M302 558c100 0 147 -6 186 -41c40 -33 50 -89 50 -196v-306c0 -10 -5 -15 -16 -15h-90c-10 0 -15 5 -15 15v284c0 76 -3 112 -24 132c-11 11 -22 17 -34 19s-32 3 -59 3h-115v-438c0 -10 -5 -15 -15 -15h-92c-9 0 -14 5 -14 15v511c0 13 5 14 14 16c53 11 127 16 224 16z
" />
    <glyph glyph-name="o" unicode="o" horiz-adv-x="581" 
d="M534 276c0 -113 -16 -189 -48 -226c-31 -37 -97 -55 -196 -55s-165 18 -196 55s-47 113 -47 226c0 114 16 189 47 226s97 56 196 56s165 -19 196 -56c32 -37 48 -112 48 -226zM390 419c-15 23 -48 34 -100 34s-85 -11 -100 -34s-22 -70 -22 -143s7 -120 22 -143
c15 -22 48 -33 100 -33s85 11 100 33c15 23 22 70 22 143s-7 120 -22 143z" />
    <glyph glyph-name="p" unicode="p" horiz-adv-x="590" 
d="M296 558c100 0 166 -19 198 -56c33 -37 49 -110 49 -221c0 -114 -15 -190 -46 -229c-31 -38 -92 -57 -184 -57c-50 0 -92 2 -127 6v-185c0 -11 -5 -16 -15 -16h-92c-10 0 -15 5 -15 16v704c0 11 6 18 19 20c73 12 144 18 213 18zM300 453h-114v-346c34 -4 70 -6 108 -6
c55 0 90 11 105 33s23 70 23 143c0 72 -7 119 -21 142s-48 34 -101 34z" />
    <glyph glyph-name="q" unicode="q" horiz-adv-x="589" 
d="M294 558c69 0 140 -6 213 -18c12 -2 18 -9 18 -20v-704c0 -11 -5 -16 -15 -16h-91c-10 0 -15 5 -15 16v184c-29 -3 -71 -5 -127 -5c-92 0 -153 19 -184 58s-46 115 -46 228c0 92 8 148 28 192c31 66 99 85 219 85zM404 107v346h-114c-53 0 -87 -11 -101 -34
s-21 -70 -21 -142c0 -73 7 -121 22 -143s51 -33 106 -33c45 0 81 2 108 6z" />
    <glyph glyph-name="r" unicode="r" horiz-adv-x="384" 
d="M232 558c57 0 97 -4 122 -11c11 -3 16 -9 16 -18v-61c0 -11 -6 -16 -17 -15h-91c-61 0 -78 -10 -78 -54v-384c0 -10 -5 -15 -15 -15h-91c-10 0 -15 5 -15 15v415c0 56 21 93 58 109s66 19 111 19z" />
    <glyph glyph-name="s" unicode="s" horiz-adv-x="494" 
d="M264 558c57 0 109 -4 156 -11c10 -2 15 -7 15 -16v-59c0 -10 -5 -15 -16 -15h-184c-44 0 -66 -15 -66 -44v-12c0 -25 18 -45 55 -59l131 -48c81 -31 102 -75 102 -146v-13c0 -108 -66 -140 -207 -140c-64 0 -129 3 -195 9c-10 1 -15 6 -15 15v62c0 11 5 16 16 16h194
c68 0 88 8 88 43v10c0 25 -13 41 -57 57l-132 50c-67 24 -100 73 -100 147v20c0 101 76 134 215 134z" />
    <glyph glyph-name="t" unicode="t" horiz-adv-x="362" 
d="M110 683l91 23c11 3 17 -1 17 -14v-140h99c11 0 16 -5 16 -15v-63c0 -11 -5 -16 -16 -16h-99v-305c0 -44 13 -53 62 -53h44c11 0 17 -5 17 -14v-66c0 -10 -5 -16 -15 -18c-26 -5 -50 -7 -71 -7c-40 0 -56 0 -89 8c-44 12 -66 41 -70 114v341h-57c-11 0 -16 5 -16 16v63
c0 10 5 15 16 15h57v115c0 9 5 14 14 16z" />
    <glyph glyph-name="u" unicode="u" horiz-adv-x="600" 
d="M429 553h92c10 0 15 -5 15 -15v-510c0 -13 -5 -14 -15 -16c-56 -11 -130 -17 -223 -17c-100 0 -147 6 -187 41s-50 90 -50 197v305c0 10 6 15 17 15h90c9 0 14 -5 14 -15v-283c0 -76 3 -112 24 -133s40 -22 93 -22h115v438c0 10 5 15 15 15z" />
    <glyph glyph-name="v" unicode="v" horiz-adv-x="564" 
d="M428 553h100c11 0 13 -3 12 -16l-113 -424c-15 -60 -19 -78 -42 -98c-21 -19 -45 -20 -105 -20c-51 0 -84 6 -99 18c-14 13 -28 46 -43 100l-117 424c-1 12 1 16 13 16h99c8 0 9 -3 13 -16l104 -398c11 -36 13 -40 30 -40c21 0 25 5 34 40l101 398c3 13 5 16 13 16z" />
    <glyph glyph-name="w" unicode="w" horiz-adv-x="860" 
d="M721 553h99c11 0 13 -3 12 -15l-87 -436c-9 -47 -22 -76 -38 -89c-15 -12 -45 -18 -89 -18c-49 0 -81 6 -94 17s-26 41 -37 90l-57 252l-57 -252c-11 -49 -23 -79 -37 -90c-13 -11 -45 -17 -94 -17c-44 0 -74 6 -89 18c-15 13 -28 42 -38 89l-87 436c-1 10 3 15 12 15h99
c8 0 9 -3 12 -15l76 -409c5 -25 10 -29 22 -29c13 0 15 2 22 29l95 393c2 10 7 15 14 15h100c7 0 12 -5 15 -15l95 -393c5 -27 8 -29 21 -29s17 4 22 29l76 409c2 10 6 15 12 15z" />
    <glyph glyph-name="x" unicode="x" horiz-adv-x="552" 
d="M402 553h111c12 0 15 -9 8 -18l-172 -244l192 -273c7 -11 3 -18 -9 -18h-111c-6 0 -11 3 -15 9l-130 188l-130 -188c-4 -6 -9 -9 -15 -9h-111c-12 0 -15 7 -8 18l191 273l-172 244c-7 9 -4 18 8 18h111c7 0 13 -3 17 -9l109 -158l109 158c5 6 10 9 17 9z" />
    <glyph glyph-name="y" unicode="y" horiz-adv-x="606" 
d="M435 553h91c10 0 15 -5 15 -15v-506c0 -75 -6 -118 -26 -158c-27 -57 -93 -79 -212 -79c-62 0 -118 4 -169 11c-9 2 -13 7 -13 16v59c0 10 5 15 14 15h161c49 0 82 7 99 22c17 14 25 41 25 81v5c-37 -6 -79 -9 -128 -9c-91 0 -153 19 -185 56c-31 37 -47 107 -47 209v278
c0 10 5 15 15 15h91c10 0 15 -5 15 -15v-261c0 -73 8 -120 23 -143c16 -22 52 -33 107 -33c45 0 81 2 109 6v431c0 10 5 15 15 15z" />
    <glyph glyph-name="z" unicode="z" horiz-adv-x="528" 
d="M59 553h409c11 0 16 -5 16 -15v-45c0 -6 -2 -12 -6 -18l-272 -370h273c11 0 17 -5 17 -15v-75c0 -10 -6 -15 -17 -15h-432c-11 0 -16 5 -16 15v47c0 7 2 13 7 18l273 369h-252c-11 0 -16 5 -16 16v73c0 10 5 15 16 15z" />
    <glyph glyph-name="braceleft" unicode="{" horiz-adv-x="347" 
d="M234 828c24 0 45 -2 63 -6c11 -2 17 -8 17 -19v-63c0 -10 -5 -15 -15 -15h-39c-37 0 -52 -13 -48 -45l27 -245c4 -33 -3 -44 -26 -59l-69 -37v-6l69 -37c23 -15 30 -26 26 -59l-27 -245c-4 -32 11 -45 48 -45h39c10 0 15 -5 15 -15v-63c0 -11 -6 -17 -17 -19
c-18 -4 -39 -6 -63 -6c-107 0 -153 35 -144 124l28 267c1 9 -2 15 -9 18l-78 49c-5 3 -8 9 -8 18v32c0 9 3 15 8 18l78 49c7 3 10 9 9 18l-28 267c-9 89 37 124 144 124z" />
    <glyph glyph-name="bar" unicode="|" horiz-adv-x="279" 
d="M94 809h91c10 0 15 -5 15 -15v-872c0 -10 -5 -15 -15 -15h-91c-10 0 -15 5 -15 15v872c0 10 5 15 15 15z" />
    <glyph glyph-name="braceright" unicode="}" horiz-adv-x="347" 
d="M113 828c107 0 153 -35 144 -124l-28 -267c-1 -9 2 -15 9 -18l78 -49c5 -3 8 -9 8 -18v-32c0 -9 -3 -15 -8 -18l-78 -49c-7 -3 -10 -9 -9 -18l28 -267c9 -89 -37 -124 -144 -124c-24 0 -45 2 -64 6c-11 2 -16 8 -16 19v63c0 10 5 15 15 15h39c36 0 51 13 48 45l-27 245
c-4 33 3 44 26 59l69 37v6l-69 37c-23 15 -30 26 -26 59l27 245c3 32 -12 45 -48 45h-39c-10 0 -15 5 -15 15v63c0 11 5 17 16 19c19 4 41 6 64 6z" />
    <glyph glyph-name="asciitilde" unicode="~" horiz-adv-x="620" 
d="M201 441c79 3 160 -89 216 -85c37 0 63 16 80 48c5 9 11 10 19 5l54 -35c7 -4 8 -10 4 -18c-23 -67 -81 -112 -154 -112c-80 -4 -158 88 -216 85c-37 0 -63 -16 -80 -49c-4 -9 -10 -10 -18 -5l-54 35c-7 4 -9 10 -5 19c23 67 81 112 154 112z" />
    <glyph glyph-name="Adieresis" unicode="&#xa1;" horiz-adv-x="268" 
d="M135 558c45 0 72 -25 72 -69c0 -45 -24 -68 -72 -68c-47 0 -74 24 -74 68s27 69 74 69zM109 353h49c9 0 14 -5 15 -16l23 -153c1 -7 2 -14 2 -20v-348c0 -11 -5 -16 -15 -16h-98c-10 0 -15 5 -15 16v348c0 6 0 13 1 20l23 153c2 11 7 16 15 16z" />
    <glyph glyph-name="Aring" unicode="&#xa2;" horiz-adv-x="515" 
d="M450 453h-157c-52 0 -85 -11 -100 -34c-14 -22 -21 -69 -21 -142s7 -120 21 -143c15 -23 48 -34 100 -34h157c11 0 16 -5 16 -15v-61c0 -10 -5 -16 -15 -18c-43 -7 -96 -11 -158 -11h-25l-12 -70c-2 -10 -8 -15 -18 -15h-46c-9 0 -14 5 -13 15l14 77
c-57 10 -95 35 -114 74s-29 106 -29 201c0 110 14 184 42 221c29 37 88 57 177 60l12 70c1 10 6 15 17 15h47c10 0 14 -5 12 -15l-13 -71c40 -1 76 -5 107 -10c10 -2 15 -8 15 -18v-61c0 -10 -5 -15 -16 -15z" />
    <glyph glyph-name="Ccedilla" unicode="&#xa3;" horiz-adv-x="633" 
d="M436 767c32 0 73 -3 123 -9c13 -3 19 -9 19 -18v-74c0 -7 -5 -11 -15 -11h-129c-71 0 -119 -8 -143 -25c-24 -16 -36 -47 -36 -94v-170h233c11 0 16 -5 16 -15v-55c0 -10 -5 -15 -16 -15h-233v-169h329c10 0 15 -5 15 -15v-82c0 -10 -5 -15 -15 -15h-544
c-11 0 -15 5 -13 15l15 82c1 10 7 15 17 15h68v169h-56c-10 0 -15 5 -15 15v55c0 10 5 15 15 15h56v189c0 83 23 139 68 168s126 44 241 44z" />
    <glyph glyph-name="Eacute" unicode="&#xa4;" horiz-adv-x="570" 
d="M56 516l32 33c8 7 15 7 22 0l50 -50c34 18 76 27 125 27s91 -9 125 -27l50 50c7 7 14 7 22 0l32 -33c7 -7 8 -14 1 -21l-49 -48c21 -31 32 -72 32 -122c0 -49 -11 -89 -32 -122l49 -47c7 -8 6 -15 -1 -22l-32 -32c-8 -7 -15 -7 -22 0l-50 50c-34 -18 -76 -27 -125 -27
s-91 9 -125 27l-50 -50c-7 -7 -14 -7 -22 0l-32 32c-7 7 -8 14 -1 22l49 47c-21 33 -32 73 -32 122c0 50 11 91 32 122l-49 48c-7 7 -6 14 1 21zM185 325c0 -67 36 -103 100 -103s100 36 100 103c0 68 -36 104 -100 104s-100 -36 -100 -104z" />
    <glyph glyph-name="Ntilde" unicode="&#xa5;" horiz-adv-x="725" 
d="M581 765h108c15 0 19 -7 11 -22l-252 -435h133c11 0 16 -5 16 -15v-37c0 -10 -5 -15 -16 -15h-155v-78h155c11 0 16 -5 16 -15v-37c0 -10 -5 -15 -16 -15h-155v-80c0 -11 -5 -16 -15 -16h-98c-10 0 -15 5 -15 16v80h-154c-10 0 -15 5 -15 15v37c0 10 5 15 15 15h154v78
h-154c-10 0 -15 5 -15 15v37c0 10 5 15 15 15h133l-252 435c-8 15 -4 22 11 22h108c12 0 21 -5 27 -16l191 -349l192 349c6 11 15 16 27 16z" />
    <glyph glyph-name="Odieresis" unicode="&#xa6;" horiz-adv-x="279" 
d="M94 809h91c10 0 15 -5 15 -15v-354c0 -9 -4 -14 -13 -14h-95c-9 0 -13 5 -13 14v354c0 10 5 15 15 15zM92 292h95c9 0 13 -4 13 -13v-357c0 -10 -5 -15 -15 -15h-91c-10 0 -15 5 -15 15v357c0 9 4 13 13 13z" />
    <glyph glyph-name="Udieresis" unicode="&#xa7;" horiz-adv-x="459" 
d="M253 772c32 0 62 -3 91 -10c8 -1 12 -5 12 -12v-57c0 -9 -4 -13 -12 -13h-123c-45 0 -68 -17 -68 -52v-70l160 -61c73 -28 97 -72 97 -144v-285c0 -53 -17 -88 -50 -105s-84 -26 -153 -26c-33 0 -64 3 -91 10c-9 2 -13 6 -13 13v57c0 8 4 12 13 12h122c45 0 68 17 68 52
v66l-159 61c-75 28 -97 72 -97 144v289c0 53 16 88 49 105s84 26 154 26zM249 420l-96 37v-105c0 -31 19 -53 58 -68l95 -37v105c0 31 -19 53 -57 68z" />
    <glyph glyph-name="aacute" unicode="&#xa8;" horiz-adv-x="582" 
d="M190 757c45 0 68 -22 68 -66c0 -45 -23 -67 -68 -67c-47 0 -70 22 -70 67c0 44 23 66 70 66zM462 691c0 -45 -23 -67 -69 -67s-69 22 -69 67c0 44 23 66 69 66s69 -22 69 -66z" />
    <glyph glyph-name="agrave" unicode="&#xa9;" horiz-adv-x="854" 
d="M715 85c-61 -62 -157 -93 -288 -93s-227 31 -288 93s-92 159 -92 290s31 228 92 290s157 93 288 93s227 -31 288 -93s92 -159 92 -290s-31 -228 -92 -290zM105 375c0 -223 101 -325 322 -325s322 102 322 325s-101 325 -322 325s-322 -101 -322 -325zM429 568
c48 0 82 -3 101 -8c9 -2 13 -7 13 -15v-44c0 -6 -3 -9 -9 -9h-105c-31 0 -52 -8 -61 -25c-9 -16 -14 -48 -14 -96c0 -49 5 -81 14 -98c9 -16 30 -24 61 -24h105c6 0 9 -3 9 -8v-45c0 -8 -4 -13 -13 -15c-30 -6 -64 -9 -101 -9c-64 0 -107 14 -130 41c-22 28 -33 81 -33 158
s11 129 33 156c23 27 66 41 130 41z" />
    <glyph glyph-name="acircumflex" unicode="&#xaa;" horiz-adv-x="391" 
d="M187 770c104 0 142 -31 142 -100v-208c0 -9 -4 -15 -13 -18c-31 -8 -76 -12 -134 -12c-95 0 -130 17 -130 93v11c0 71 37 97 117 97h84v24c0 32 -22 48 -66 48h-101c-5 0 -7 3 -7 8v40c0 5 3 8 8 10c27 5 61 7 100 7zM253 499v72h-73c-37 0 -52 -10 -52 -35v-3
c0 -29 15 -39 55 -39c31 0 54 2 70 5zM82 373h222c10 0 15 -5 15 -15v-29c0 -10 -5 -15 -15 -15h-222c-10 0 -15 5 -15 15v29c0 10 5 15 15 15z" />
    <glyph glyph-name="adieresis" unicode="&#xab;" horiz-adv-x="549" 
d="M172 473h90c10 0 15 -5 15 -15v-7c0 -7 -2 -13 -7 -18l-126 -158l126 -157c5 -5 7 -11 7 -18v-7c0 -10 -5 -15 -15 -15h-90c-7 0 -13 3 -18 9l-110 143c-5 9 -8 16 -8 22v46c0 7 3 15 8 22l110 144c5 6 11 9 18 9zM394 473h91c10 0 15 -5 15 -15v-7c0 -7 -2 -13 -7 -18
l-127 -158l127 -157c5 -5 7 -11 7 -18v-7c0 -10 -5 -15 -15 -15h-91c-7 0 -13 3 -18 9l-110 143c-5 7 -7 15 -7 22v46c0 8 2 15 7 22l110 144c5 6 11 9 18 9z" />
    <glyph glyph-name="atilde" unicode="&#xac;" horiz-adv-x="613" 
d="M59 474h474c10 0 15 -5 15 -15v-257c0 -10 -5 -15 -15 -15h-86c-10 0 -15 5 -15 15v155h-373c-10 0 -15 5 -15 15v87c0 10 5 15 15 15z" />
    <glyph glyph-name="aring" unicode="&#xae;" horiz-adv-x="854" 
d="M715 85c-61 -62 -157 -93 -288 -93s-227 31 -288 93s-92 159 -92 290s31 228 92 290s157 93 288 93s227 -31 288 -93s92 -159 92 -290s-31 -228 -92 -290zM105 375c0 -223 101 -325 322 -325s322 102 322 325s-101 325 -322 325s-322 -101 -322 -325zM438 571
c55 0 93 -9 114 -28s32 -53 32 -102c0 -75 -20 -106 -75 -118l84 -134c5 -7 3 -11 -6 -11h-71c-9 0 -16 4 -22 12l-81 128h-37v-131c0 -6 -3 -9 -8 -9h-71c-6 0 -9 3 -9 9v371c0 5 3 7 8 8c39 3 87 5 142 5zM429 495h-53v-110h53c53 0 66 9 66 53s-14 57 -66 57z" />
    <glyph glyph-name="ccedilla" unicode="&#xaf;" horiz-adv-x="543" 
d="M135 722h273c10 0 15 -5 15 -15v-51c0 -10 -5 -15 -15 -15h-273c-10 0 -15 5 -15 15v51c0 10 5 15 15 15z" />
    <glyph glyph-name="eacute" unicode="&#xb0;" horiz-adv-x="353" 
d="M176 770c92 0 138 -44 138 -132s-46 -132 -138 -132c-91 0 -137 44 -137 132s46 132 137 132zM176 703c-43 0 -65 -22 -65 -65s22 -65 65 -65c44 0 66 22 66 65s-22 65 -66 65z" />
    <glyph glyph-name="egrave" unicode="&#xb1;" horiz-adv-x="602" 
d="M261 635h81c10 0 15 -5 15 -15v-134h171c10 0 15 -5 15 -15v-69c0 -10 -5 -15 -15 -15h-171v-135c0 -10 -5 -15 -15 -15h-81c-10 0 -15 5 -15 15v135h-172c-10 0 -15 5 -15 15v69c0 10 5 15 15 15h172v134c0 10 5 15 15 15zM72 179h457c10 0 15 -5 15 -15v-65
c0 -10 -5 -15 -15 -15h-457c-10 0 -15 5 -15 15v65c0 10 5 15 15 15z" />
    <glyph glyph-name="ecircumflex" unicode="&#xb2;" horiz-adv-x="351" 
d="M162 922c93 0 148 -20 148 -96v-47c0 -44 -7 -67 -54 -98l-96 -58c-25 -15 -38 -27 -38 -37v-6h189c3 0 5 -1 5 -4v-62c0 -3 -1 -4 -4 -4h-270c-9 0 -14 5 -14 15v46c0 44 15 64 67 97l107 70c19 12 28 30 28 54v14c0 36 -20 46 -71 46h-106c-5 0 -7 2 -7 7v43
c0 6 3 10 9 12c32 5 68 8 107 8z" />
    <glyph glyph-name="edieresis" unicode="&#xb3;" horiz-adv-x="348" 
d="M308 819v-23c0 -45 -21 -72 -62 -81c41 -7 62 -34 62 -81v-24c0 -80 -50 -103 -145 -103c-47 0 -86 3 -118 9c-7 1 -10 5 -10 12v42c0 5 3 7 8 7h96c68 0 89 7 89 46v12c0 33 -23 48 -78 48h-83c-5 0 -7 2 -7 7v48c0 5 2 7 7 7h82c57 0 79 12 79 49v12
c0 37 -22 46 -89 46h-96c-5 0 -8 2 -8 7v43c0 6 3 10 10 11c32 6 71 9 118 9c93 0 145 -23 145 -103z" />
    <glyph glyph-name="iacute" unicode="&#xb4;" horiz-adv-x="453" 
d="M207 775h116c7 0 10 -3 10 -10v-7c0 -5 -2 -9 -5 -12l-158 -135c-5 -4 -9 -4 -14 0l-31 19c-5 3 -6 8 -3 14l73 125c2 4 6 6 12 6z" />
    <glyph glyph-name="igrave" unicode="&#xb5;" horiz-adv-x="604" 
d="M433 553h92c10 0 15 -5 15 -15v-510c0 -13 -5 -14 -15 -16c-56 -11 -130 -17 -223 -17c-54 0 -93 4 -116 11v-130c0 -10 -5 -15 -15 -15h-91c-10 0 -15 5 -15 15v662c0 10 6 15 17 15h90c9 0 14 -5 14 -15v-283c0 -76 3 -112 24 -133s40 -22 93 -22h115v438
c0 10 5 15 15 15z" />
    <glyph glyph-name="icircumflex" unicode="&#xb6;" horiz-adv-x="692" 
d="M313 770c127 0 199 -19 246 -82s60 -149 60 -305v-383h-97v406c0 95 -11 162 -34 201s-62 62 -119 69v-386h-53c-104 -1 -166 7 -215 38c-48 32 -68 86 -68 174v50c1 86 21 144 62 173c41 30 113 45 218 45z" />
    <glyph glyph-name="idieresis" unicode="&#xb7;" horiz-adv-x="247" 
d="M124 346c45 0 72 -25 72 -69s-27 -69 -72 -69c-47 0 -74 25 -74 69s27 69 74 69z" />
    <glyph glyph-name="ntilde" unicode="&#xb8;" horiz-adv-x="420" 
d="M226 18h39c9 0 14 -4 17 -12c12 -39 18 -73 18 -100c0 -56 -31 -77 -99 -77c-33 0 -56 3 -69 8c-8 3 -12 9 -12 18v47c0 9 5 14 14 14h36c37 1 47 1 51 29c0 11 -3 30 -8 57c-3 11 1 16 13 16z" />
    <glyph glyph-name="oacute" unicode="&#xb9;" horiz-adv-x="279" 
d="M188 848v-268h64c6 0 9 -3 9 -9v-54c0 -5 -3 -7 -9 -7h-208c-6 0 -9 3 -9 8v53c0 6 3 9 9 9h67v246c0 24 -11 29 -38 29h-34c-6 0 -9 3 -9 9v42c0 5 3 8 8 10c18 4 36 6 54 6c59 0 96 -14 96 -74z" />
    <glyph glyph-name="ograve" unicode="&#xba;" horiz-adv-x="404" 
d="M202 770c60 0 99 -11 118 -34c19 -22 29 -67 29 -135c0 -69 -10 -114 -29 -136s-58 -33 -118 -33s-100 11 -119 33c-19 23 -28 68 -28 136s10 113 29 135c19 23 59 34 118 34zM131 601c0 -42 4 -70 13 -83s28 -20 58 -20s49 6 58 19s13 41 13 84s-4 71 -13 84
s-28 20 -58 20s-49 -7 -58 -20s-13 -41 -13 -84zM91 373h222c10 0 15 -5 15 -15v-29c0 -10 -5 -15 -15 -15h-222c-10 0 -15 5 -15 15v29c0 10 5 15 15 15z" />
    <glyph glyph-name="ocircumflex" unicode="&#xbb;" horiz-adv-x="548" 
d="M64 473h90c7 0 13 -3 18 -9l111 -144c5 -7 7 -14 7 -22v-46c0 -7 -2 -15 -7 -22l-111 -143c-5 -6 -11 -9 -18 -9h-90c-10 0 -15 5 -15 15v7c0 7 2 13 7 18l127 157l-127 158c-5 5 -7 11 -7 18v7c0 10 5 15 15 15zM287 473h90c7 0 13 -3 18 -9l110 -144c5 -7 7 -14 7 -22
v-46c0 -7 -2 -15 -7 -22l-110 -143c-5 -6 -11 -9 -18 -9h-90c-10 0 -15 5 -15 15v7c0 7 2 13 7 18l126 157l-126 158c-5 5 -7 11 -7 18v7c0 10 5 15 15 15z" />
    <glyph glyph-name="odieresis" unicode="&#xbc;" horiz-adv-x="872" 
d="M573 801h35c9 0 11 -6 7 -17l-353 -805c-5 -11 -13 -17 -22 -17h-37c-10 0 -12 6 -7 17l354 805c5 11 13 17 23 17zM268 417v-54c0 -5 -3 -7 -8 -7h-209c-6 0 -9 3 -9 8v53c0 6 3 9 9 9h67v246c0 24 -11 29 -38 29h-34c-6 0 -9 3 -9 9v42c0 5 3 8 8 10c18 4 36 6 54 6
c59 0 96 -14 96 -74v-268h65c5 0 8 -3 8 -9zM780 289v-119h60c6 0 9 -2 9 -7v-55c0 -5 -3 -7 -9 -7h-60v-92c0 -6 -3 -9 -8 -9h-65c-5 0 -7 3 -7 9v92h-179c-5 0 -8 2 -8 7v38c0 3 1 9 4 18l68 240c2 4 5 6 10 6h64c6 0 8 -3 6 -10l-65 -230h100v94c0 5 2 8 6 9l65 22
c6 2 9 0 9 -6z" />
    <glyph glyph-name="otilde" unicode="&#xbd;" horiz-adv-x="851" 
d="M572 801h35c9 0 11 -6 7 -17l-353 -805c-6 -11 -13 -17 -22 -17h-37c-11 0 -13 6 -7 17l354 805c5 11 13 17 23 17zM262 417v-54c0 -5 -3 -7 -8 -7h-209c-6 0 -9 3 -9 8v53c0 6 3 9 9 9h67v246c0 24 -11 29 -38 29h-34c-6 0 -9 3 -9 9v42c0 5 3 8 8 10c18 4 36 6 54 6
c59 0 96 -14 96 -74v-268h65c5 0 8 -3 8 -9zM626 76v-6h189c3 0 5 -1 5 -4v-62c0 -3 -1 -4 -4 -4h-270c-9 0 -14 5 -14 15v47c0 44 15 63 67 96l107 70c19 13 28 31 28 54v14c0 36 -20 46 -72 46h-105c-5 0 -7 2 -7 7v44c0 5 3 9 9 11c32 5 68 8 107 8c93 0 148 -20 148 -96
v-47c0 -43 -9 -68 -54 -97l-97 -59c-25 -15 -37 -28 -37 -37z" />
    <glyph glyph-name="uacute" unicode="&#xbe;" horiz-adv-x="914" 
d="M618 801h35c9 0 11 -6 7 -17l-353 -805c-6 -11 -13 -17 -22 -17h-37c-11 0 -13 6 -7 17l354 805c5 11 13 17 23 17zM314 665v-23c0 -45 -21 -72 -62 -81c41 -8 62 -35 62 -81v-24c0 -80 -50 -103 -145 -103c-47 0 -86 3 -118 9c-7 1 -10 5 -10 12v42c0 5 2 7 7 7h97
c68 0 89 7 89 46v12c0 35 -23 48 -79 48h-82c-5 0 -7 2 -7 7v48c0 5 2 7 7 7h82c57 0 79 12 79 49v12c0 37 -22 46 -89 46h-97c-5 0 -7 2 -7 7v43c0 6 3 10 10 11c32 6 71 9 118 9c93 0 145 -23 145 -103zM636 410h64c6 0 8 -3 6 -10l-65 -230h100v94c0 5 2 8 6 9l65 22
c7 2 10 0 10 -6v-119h59c6 0 9 -2 9 -7v-55c0 -5 -3 -7 -9 -7h-59v-92c0 -6 -3 -9 -9 -9h-64c-5 0 -8 3 -8 9v92h-179c-5 0 -7 2 -7 7v38c0 6 1 12 4 18l68 240c1 4 4 6 9 6z" />
    <glyph glyph-name="ugrave" unicode="&#xbf;" horiz-adv-x="524" 
d="M351 558c48 0 72 -23 72 -69c0 -45 -24 -68 -72 -68c-49 0 -73 23 -73 68c0 44 26 69 73 69zM307 353h83c5 0 9 -3 10 -10l5 -57c7 -47 -4 -66 -61 -98l-129 -64c-41 -20 -56 -41 -56 -94v-30c0 -72 59 -93 170 -93h156c10 0 15 -5 15 -15v-63c0 -11 -6 -19 -19 -22
c-50 -8 -101 -12 -153 -12c-87 0 -148 9 -207 36c-59 25 -91 79 -91 156v45c0 53 8 92 23 117c16 25 45 47 87 66l102 49c41 20 50 29 54 58l2 21c0 7 3 10 9 10z" />
    <glyph glyph-name="ucircumflex" unicode="&#xc0;" horiz-adv-x="691" 
d="M194 975h116c6 0 10 -2 12 -6l73 -125c3 -6 2 -11 -3 -14l-31 -19c-5 -4 -9 -4 -14 0l-158 135c-3 5 -5 9 -5 12v7c0 7 3 10 10 10zM344 770c56 0 92 -6 109 -19s33 -45 48 -98l173 -637c2 -11 -2 -16 -12 -16h-102c-7 0 -11 5 -14 16l-59 215h-285l-60 -215
c-3 -11 -7 -16 -13 -16h-103c-10 0 -14 5 -12 16l178 637c15 52 30 84 47 97s52 20 105 20zM344 661c-23 0 -24 -4 -35 -41l-77 -281h226l-75 281c-11 37 -12 41 -39 41z" />
    <glyph glyph-name="udieresis" unicode="&#xc1;" horiz-adv-x="691" 
d="M381 975h116c7 0 10 -3 10 -10v-7c0 -3 -2 -7 -5 -12l-158 -135c-5 -4 -9 -4 -14 0l-31 19c-5 3 -6 8 -3 14l73 125c2 4 6 6 12 6zM344 770c56 0 92 -6 109 -19s33 -45 48 -98l173 -637c2 -11 -2 -16 -12 -16h-102c-7 0 -11 5 -14 16l-59 215h-285l-60 -215
c-3 -11 -7 -16 -13 -16h-103c-10 0 -14 5 -12 16l178 637c15 52 30 84 47 97s52 20 105 20zM344 661c-23 0 -24 -4 -35 -41l-77 -281h226l-75 281c-11 37 -12 41 -39 41z" />
    <glyph glyph-name="dagger" unicode="&#xc2;" horiz-adv-x="691" 
d="M312 975h64c8 0 14 -3 18 -8l92 -127c5 -5 4 -10 -3 -15l-25 -14c-5 -4 -10 -4 -16 0l-98 74l-98 -74c-6 -4 -11 -4 -16 0l-25 14c-7 5 -8 10 -3 15l92 127c4 5 10 8 18 8zM344 770c56 0 92 -6 109 -19s33 -45 48 -98l173 -637c2 -11 -2 -16 -12 -16h-102
c-7 0 -11 5 -14 16l-59 215h-285l-60 -215c-3 -11 -7 -16 -13 -16h-103c-10 0 -14 5 -12 16l178 637c15 52 30 84 47 97s52 20 105 20zM344 661c-23 0 -24 -4 -35 -41l-77 -281h226l-75 281c-11 37 -12 41 -39 41z" />
    <glyph glyph-name="degree" unicode="&#xc3;" horiz-adv-x="691" 
d="M270 958c17 0 42 -7 75 -20s54 -20 64 -20c24 0 34 7 46 34c4 9 10 13 18 10l33 -9c9 -3 13 -11 11 -22c-24 -83 -44 -105 -99 -105c-17 0 -42 7 -75 20s-54 20 -64 20c-24 0 -34 -7 -46 -34c-4 -9 -10 -13 -18 -10l-33 8c-9 3 -13 11 -11 22c24 83 46 106 99 106z
M344 770c56 0 92 -6 109 -19s33 -45 48 -98l173 -637c2 -11 -2 -16 -12 -16h-102c-7 0 -11 5 -14 16l-59 215h-285l-60 -215c-3 -11 -7 -16 -13 -16h-103c-10 0 -14 5 -12 16l178 637c15 52 30 84 47 97s52 20 105 20zM344 661c-23 0 -24 -4 -35 -41l-77 -281h226l-75 281
c-11 37 -12 41 -39 41z" />
    <glyph glyph-name="cent" unicode="&#xc4;" horiz-adv-x="691" 
d="M243 957c45 0 68 -22 68 -66c0 -45 -23 -67 -68 -67c-47 0 -70 22 -70 67c0 44 23 66 70 66zM515 891c0 -45 -23 -67 -69 -67s-69 22 -69 67c0 44 23 66 69 66s69 -22 69 -66zM344 770c56 0 92 -6 109 -19s33 -45 48 -98l173 -637c2 -11 -2 -16 -12 -16h-102
c-7 0 -11 5 -14 16l-59 215h-285l-60 -215c-3 -11 -7 -16 -13 -16h-103c-10 0 -14 5 -12 16l178 637c15 52 30 84 47 97s52 20 105 20zM344 661c-23 0 -24 -4 -35 -41l-77 -281h226l-75 281c-11 37 -12 41 -39 41z" />
    <glyph glyph-name="sterling" unicode="&#xc5;" horiz-adv-x="691" 
d="M344 1023c75 0 112 -36 112 -108c0 -71 -37 -107 -112 -107c-74 0 -111 36 -111 107c0 72 37 108 111 108zM406 915c0 41 -21 62 -62 62s-62 -21 -62 -62s21 -62 62 -62s62 21 62 62zM344 770c56 0 92 -6 109 -19s33 -45 48 -98l173 -637c2 -11 -2 -16 -12 -16h-102
c-7 0 -11 5 -14 16l-59 215h-285l-60 -215c-3 -11 -7 -16 -13 -16h-103c-10 0 -14 5 -12 16l178 637c15 52 30 84 47 97s52 20 105 20zM344 661c-23 0 -24 -4 -35 -41l-77 -281h226l-75 281c-11 37 -12 41 -39 41z" />
    <glyph glyph-name="section" unicode="&#xc6;" horiz-adv-x="994" 
d="M344 770l247 -5h340c10 0 15 -5 15 -15v-82c0 -10 -5 -15 -15 -15h-331v-224h298c11 0 16 -5 16 -15v-79c0 -10 -5 -15 -16 -15h-298v-208h331c10 0 15 -5 15 -15v-82c0 -10 -5 -15 -15 -15h-444c-10 0 -15 5 -15 15v216h-270l-60 -215c-3 -11 -7 -16 -13 -16h-103
c-10 0 -14 5 -12 16l178 637c15 52 30 84 47 97s52 20 105 20zM472 339v322h-118c-31 0 -36 -6 -47 -49l-75 -273h240z" />
    <glyph glyph-name="bullet.001" unicode="&#xc7;" horiz-adv-x="610" 
d="M560 658h-195c-76 0 -126 -19 -149 -56s-34 -110 -34 -219c0 -110 11 -184 34 -221s73 -55 149 -55h195c10 0 15 -5 15 -15v-63c0 -13 -6 -20 -19 -22c-45 -7 -102 -11 -173 -12c10 -33 15 -63 15 -89c0 -28 -8 -48 -24 -59c-15 -12 -40 -18 -74 -18s-57 3 -70 8
c-8 3 -12 9 -12 18v47c0 9 5 14 15 14h36c35 0 50 1 50 29c0 12 -2 29 -6 51c-101 7 -170 38 -207 93c-36 55 -54 153 -54 294c0 155 15 244 63 305c49 63 122 82 250 82c84 0 148 -4 191 -12c13 -2 19 -9 19 -21v-63c0 -11 -5 -16 -15 -16z" />
    <glyph glyph-name="paragraph" unicode="&#xc8;" horiz-adv-x="639" 
d="M205 975h116c6 0 10 -2 12 -6l73 -125c3 -6 2 -11 -3 -14l-31 -19c-5 -4 -9 -4 -14 0l-158 135c-3 5 -5 9 -5 12v7c0 7 3 10 10 10zM92 765h484c11 0 16 -5 16 -15v-82c0 -10 -5 -15 -16 -15h-370v-224h338c10 0 15 -5 15 -15v-79c0 -10 -5 -15 -15 -15h-338v-208h370
c11 0 16 -5 16 -15v-82c0 -10 -5 -15 -16 -15h-484c-10 0 -15 5 -15 15v735c0 10 5 15 15 15z" />
    <glyph glyph-name="germandbls" unicode="&#xc9;" horiz-adv-x="639" 
d="M339 975h116c7 0 10 -3 10 -10v-7c0 -3 -2 -7 -5 -12l-158 -135c-5 -4 -9 -4 -14 0l-31 19c-5 3 -6 8 -3 14l73 125c2 4 6 6 12 6zM92 765h484c11 0 16 -5 16 -15v-82c0 -10 -5 -15 -16 -15h-370v-224h338c10 0 15 -5 15 -15v-79c0 -10 -5 -15 -15 -15h-338v-208h370
c11 0 16 -5 16 -15v-82c0 -10 -5 -15 -16 -15h-484c-10 0 -15 5 -15 15v735c0 10 5 15 15 15z" />
    <glyph glyph-name="registered" unicode="&#xca;" horiz-adv-x="639" 
d="M295 975h63c9 0 15 -3 18 -8l92 -127c5 -5 4 -10 -3 -15l-24 -14c-6 -4 -11 -4 -16 0l-98 74l-99 -74c-5 -3 -11 -3 -16 0l-24 14c-7 4 -9 9 -4 15l93 127c3 5 9 8 18 8zM92 765h484c11 0 16 -5 16 -15v-82c0 -10 -5 -15 -16 -15h-370v-224h338c10 0 15 -5 15 -15v-79
c0 -10 -5 -15 -15 -15h-338v-208h370c11 0 16 -5 16 -15v-82c0 -10 -5 -15 -16 -15h-484c-10 0 -15 5 -15 15v735c0 10 5 15 15 15z" />
    <glyph glyph-name="copyright" unicode="&#xcb;" horiz-adv-x="639" 
d="M225 957c46 0 69 -22 69 -66c0 -45 -23 -67 -69 -67c-47 0 -70 22 -70 67c0 44 23 66 70 66zM497 891c0 -45 -23 -67 -69 -67s-69 22 -69 67c0 44 23 66 69 66s69 -22 69 -66zM92 765h484c11 0 16 -5 16 -15v-82c0 -10 -5 -15 -16 -15h-370v-224h338c10 0 15 -5 15 -15
v-79c0 -10 -5 -15 -15 -15h-338v-208h370c11 0 16 -5 16 -15v-82c0 -10 -5 -15 -16 -15h-484c-10 0 -15 5 -15 15v735c0 10 5 15 15 15z" />
    <glyph glyph-name="trademark" unicode="&#xcc;" horiz-adv-x="283" 
d="M-7 975h116c6 0 10 -2 12 -6l73 -125c3 -6 2 -11 -3 -14l-31 -19c-5 -3 -10 -3 -14 0l-158 135c-3 3 -5 7 -5 12v7c0 7 3 10 10 10zM92 765h99c10 0 15 -5 15 -15v-734c0 -11 -5 -16 -15 -16h-99c-10 0 -15 5 -15 16v734c0 10 5 15 15 15z" />
    <glyph glyph-name="acute" unicode="&#xcd;" horiz-adv-x="283" 
d="M172 975h116c7 0 10 -3 10 -10v-7c0 -5 -2 -9 -5 -12l-158 -135c-4 -3 -9 -3 -14 0l-31 19c-5 3 -6 8 -3 14l73 125c2 4 6 6 12 6zM92 765h99c10 0 15 -5 15 -15v-734c0 -11 -5 -16 -15 -16h-99c-10 0 -15 5 -15 16v734c0 10 5 15 15 15z" />
    <glyph glyph-name="dieresis" unicode="&#xce;" horiz-adv-x="282" 
d="M108 975h63c9 0 15 -3 18 -8l92 -127c5 -5 4 -10 -3 -15l-24 -14c-5 -3 -11 -3 -16 0l-98 74l-99 -74c-5 -4 -10 -4 -16 0l-24 14c-7 5 -8 10 -3 15l92 127c3 5 9 8 18 8zM92 765h98c10 0 15 -5 15 -15v-734c0 -11 -5 -16 -15 -16h-98c-10 0 -15 5 -15 16v734
c0 10 5 15 15 15z" />
    <glyph glyph-name="notequal" unicode="&#xcf;" horiz-adv-x="282" 
d="M39 957c45 0 68 -22 68 -66c0 -45 -23 -67 -68 -67c-47 0 -70 22 -70 67c0 44 23 66 70 66zM242 957c46 0 69 -22 69 -66c0 -45 -23 -67 -69 -67c-47 0 -70 22 -70 67c0 44 23 66 70 66zM92 765h98c10 0 15 -5 15 -15v-734c0 -11 -5 -16 -15 -16h-98c-10 0 -15 5 -15 16
v734c0 10 5 15 15 15z" />
    <glyph glyph-name="AE" unicode="&#xd0;" horiz-adv-x="752" 
d="M385 770c115 0 196 -30 245 -91c49 -60 73 -159 73 -297c0 -137 -24 -236 -73 -297c-49 -60 -130 -90 -245 -90c-108 0 -202 3 -282 9c-12 1 -15 2 -15 13v321h-70c-10 0 -15 5 -15 15v51c0 10 5 15 15 15h70v329c0 11 3 13 15 14c71 5 165 8 282 8zM217 338v-231h168
c136 0 188 80 188 275c0 196 -55 276 -199 276h-157v-239h144c10 0 15 -5 15 -15v-51c0 -10 -5 -15 -15 -15h-144z" />
    <glyph glyph-name="Oslash" unicode="&#xd1;" horiz-adv-x="779" 
d="M316 958c17 0 42 -7 75 -20s54 -20 64 -20c23 0 33 7 45 34c4 9 10 13 19 10l32 -9c10 -3 14 -11 11 -22c-24 -83 -44 -105 -99 -105c-17 0 -42 7 -75 20s-54 20 -64 20c-23 0 -33 -7 -45 -34c-4 -9 -10 -13 -19 -10l-32 8c-10 4 -14 11 -11 22c24 83 46 106 99 106z
M589 765h98c10 0 15 -5 15 -15v-734c0 -11 -5 -16 -15 -16h-77c-18 0 -32 7 -42 22l-362 539v-545c0 -11 -5 -16 -15 -16h-99c-10 0 -15 5 -15 16v734c0 10 5 15 15 15h83c36 -1 43 -6 60 -31l339 -503v519c0 10 5 15 15 15z" />
    <glyph glyph-name="infinity" unicode="&#xd2;" horiz-adv-x="732" 
d="M194 975h116c6 0 10 -2 12 -6l73 -125c3 -6 2 -11 -3 -14l-31 -19c-5 -3 -10 -3 -14 0l-158 135c-3 3 -5 7 -5 12v7c0 7 3 10 10 10zM366 770c128 0 202 -20 250 -83c49 -61 64 -151 64 -306s-15 -243 -64 -304c-48 -61 -122 -82 -250 -82c-127 0 -201 21 -250 82
s-64 151 -64 304c0 155 15 245 64 306c49 63 123 83 250 83zM182 381c0 -109 12 -182 35 -219s73 -55 149 -55s126 18 149 55c24 37 36 110 36 219s-12 183 -36 220c-23 38 -73 57 -149 57s-126 -19 -149 -57c-23 -37 -35 -111 -35 -220z" />
    <glyph glyph-name="plusminus" unicode="&#xd3;" horiz-adv-x="732" 
d="M397 975h116c7 0 10 -3 10 -10v-7c0 -3 -2 -7 -5 -12l-158 -135c-5 -4 -9 -4 -14 0l-31 19c-5 3 -6 8 -3 14l73 125c2 4 6 6 12 6zM366 770c128 0 202 -20 250 -83c49 -61 64 -151 64 -306s-15 -243 -64 -304c-48 -61 -122 -82 -250 -82c-127 0 -201 21 -250 82
s-64 151 -64 304c0 155 15 245 64 306c49 63 123 83 250 83zM182 381c0 -109 12 -182 35 -219s73 -55 149 -55s126 18 149 55c24 37 36 110 36 219s-12 183 -36 220c-23 38 -73 57 -149 57s-126 -19 -149 -57c-23 -37 -35 -111 -35 -220z" />
    <glyph glyph-name="lessequal.001" unicode="&#xd4;" horiz-adv-x="732" 
d="M335 975h63c9 0 15 -3 18 -8l92 -127c5 -5 4 -10 -3 -15l-24 -14c-6 -4 -11 -4 -16 0l-99 74l-98 -74c-5 -3 -11 -3 -16 0l-24 14c-7 4 -9 9 -4 15l92 127c4 5 10 8 19 8zM366 770c128 0 202 -20 250 -83c49 -61 64 -151 64 -306s-15 -243 -64 -304
c-48 -61 -122 -82 -250 -82c-127 0 -201 21 -250 82s-64 151 -64 304c0 155 15 245 64 306c49 63 123 83 250 83zM182 381c0 -109 12 -182 35 -219s73 -55 149 -55s126 18 149 55c24 37 36 110 36 219s-12 183 -36 220c-23 38 -73 57 -149 57s-126 -19 -149 -57
c-23 -37 -35 -111 -35 -220z" />
    <glyph glyph-name="greaterequal.001" unicode="&#xd5;" horiz-adv-x="732" 
d="M293 958c17 0 42 -7 75 -20s54 -20 64 -20c23 0 33 7 45 34c4 9 10 13 18 10l33 -9c10 -3 14 -11 11 -22c-24 -83 -44 -105 -99 -105c-17 0 -42 7 -75 20s-54 20 -64 20c-24 0 -34 -7 -45 -34c-5 -9 -11 -13 -19 -10l-33 8c-9 4 -13 11 -10 22c23 83 44 106 99 106z
M366 770c128 0 202 -20 250 -83c49 -61 64 -151 64 -306s-15 -243 -64 -304c-48 -61 -122 -82 -250 -82c-127 0 -201 21 -250 82s-64 151 -64 304c0 155 15 245 64 306c49 63 123 83 250 83zM182 381c0 -109 12 -182 35 -219s73 -55 149 -55s126 18 149 55
c24 37 36 110 36 219s-12 183 -36 220c-23 38 -73 57 -149 57s-126 -19 -149 -57c-23 -37 -35 -111 -35 -220z" />
    <glyph glyph-name="yen" unicode="&#xd6;" horiz-adv-x="732" 
d="M265 957c45 0 68 -22 68 -66c0 -45 -23 -67 -68 -67c-47 0 -70 22 -70 67c0 44 23 66 70 66zM537 891c0 -45 -23 -67 -69 -67s-69 22 -69 67c0 44 23 66 69 66s69 -22 69 -66zM366 770c128 0 202 -20 250 -83c49 -61 64 -151 64 -306s-15 -243 -64 -304
c-48 -61 -122 -82 -250 -82c-127 0 -201 21 -250 82s-64 151 -64 304c0 155 15 245 64 306c49 63 123 83 250 83zM182 381c0 -109 12 -182 35 -219s73 -55 149 -55s126 18 149 55c24 37 36 110 36 219s-12 183 -36 220c-23 38 -73 57 -149 57s-126 -19 -149 -57
c-23 -37 -35 -111 -35 -220z" />
    <glyph glyph-name="mu" unicode="&#xd7;" horiz-adv-x="532" 
d="M423 536l58 -57c7 -7 7 -15 0 -22l-135 -134l134 -133c7 -7 7 -15 0 -22l-62 -61c-7 -7 -15 -7 -22 0l-133 133l-134 -134c-7 -7 -15 -8 -22 -1l-57 58c-6 7 -6 15 0 22l135 133l-133 134c-7 7 -8 15 -1 22l62 61c7 7 15 7 22 0l133 -133l134 134c7 7 14 7 21 0z" />
    <glyph glyph-name="partialdiff.001" unicode="&#xd8;" horiz-adv-x="732" 
d="M366 770c92 0 160 -13 203 -40l26 38c7 9 14 11 21 4l34 -23c8 -5 9 -12 3 -21l-32 -46c39 -53 59 -154 59 -301c0 -155 -15 -243 -64 -304c-48 -61 -122 -82 -250 -82c-89 0 -156 13 -200 38l-30 -42c-6 -9 -13 -10 -20 -3l-34 23c-8 5 -9 11 -4 20l35 49
c-41 54 -61 154 -61 301c0 155 15 245 64 306c49 63 123 83 250 83zM366 658c-76 0 -126 -19 -149 -57c-23 -37 -35 -111 -35 -220c0 -82 6 -141 17 -177l296 421c-26 22 -69 33 -129 33zM534 558l-294 -420c26 -21 68 -31 126 -31c76 0 126 18 149 55c24 37 36 110 36 219
c0 82 -6 141 -17 177z" />
    <glyph glyph-name="summation" unicode="&#xd9;" horiz-adv-x="754" 
d="M225 975h116c6 0 10 -2 12 -6l73 -125c3 -6 2 -11 -3 -14l-31 -19c-5 -4 -9 -4 -14 0l-158 135c-3 5 -5 9 -5 12v7c0 7 3 10 10 10zM571 765h98c10 0 15 -5 15 -15v-369c0 -160 -14 -248 -62 -309c-48 -60 -118 -77 -245 -77s-197 17 -245 77c-48 61 -62 149 -62 309v369
c0 10 5 15 15 15h99c10 0 15 -5 15 -15v-369c0 -109 12 -182 35 -219c24 -37 72 -55 143 -55s119 18 143 55s36 110 36 219v369c0 12 3 15 15 15z" />
    <glyph glyph-name="product" unicode="&#xda;" horiz-adv-x="754" 
d="M400 975h116c7 0 10 -3 10 -10v-7c0 -3 -2 -7 -5 -12l-158 -135c-5 -4 -9 -4 -14 0l-31 19c-5 3 -6 8 -3 14l73 125c2 4 6 6 12 6zM571 765h98c10 0 15 -5 15 -15v-369c0 -160 -14 -248 -62 -309c-48 -60 -118 -77 -245 -77s-197 17 -245 77c-48 61 -62 149 -62 309v369
c0 10 5 15 15 15h99c10 0 15 -5 15 -15v-369c0 -109 12 -182 35 -219c24 -37 72 -55 143 -55s119 18 143 55s36 110 36 219v369c0 12 3 15 15 15z" />
    <glyph glyph-name="pi.001" unicode="&#xdb;" horiz-adv-x="754" 
d="M345 975h64c9 0 15 -3 18 -8l92 -127c5 -5 4 -10 -3 -15l-25 -14c-5 -4 -10 -4 -16 0l-98 74l-98 -74c-6 -4 -11 -4 -16 0l-25 14c-7 5 -8 10 -3 15l92 127c4 5 10 8 18 8zM571 765h98c10 0 15 -5 15 -15v-369c0 -160 -14 -248 -62 -309c-48 -60 -118 -77 -245 -77
s-197 17 -245 77c-48 61 -62 149 -62 309v369c0 10 5 15 15 15h99c10 0 15 -5 15 -15v-369c0 -109 12 -182 35 -219c24 -37 72 -55 143 -55s119 18 143 55s36 110 36 219v369c0 12 3 15 15 15z" />
    <glyph glyph-name="integral" unicode="&#xdc;" horiz-adv-x="754" 
d="M276 957c45 0 68 -22 68 -66c0 -45 -23 -67 -68 -67c-47 0 -70 22 -70 67c0 44 23 66 70 66zM548 891c0 -45 -23 -67 -69 -67s-69 22 -69 67c0 44 23 66 69 66s69 -22 69 -66zM571 765h98c10 0 15 -5 15 -15v-369c0 -160 -14 -248 -62 -309c-48 -60 -118 -77 -245 -77
s-197 17 -245 77c-48 61 -62 149 -62 309v369c0 10 5 15 15 15h99c10 0 15 -5 15 -15v-369c0 -109 12 -182 35 -219c24 -37 72 -55 143 -55s119 18 143 55s36 110 36 219v369c0 12 3 15 15 15z" />
    <glyph glyph-name="ordfeminine" unicode="&#xdd;" horiz-adv-x="685" 
d="M375 975h116c7 0 10 -3 10 -10v-7c0 -5 -2 -9 -5 -12l-158 -135c-5 -4 -9 -4 -14 0l-31 19c-5 3 -6 8 -3 14l73 125c2 4 6 6 12 6zM560 765h109c15 0 19 -7 11 -22l-274 -504v-223c0 -11 -5 -16 -15 -16h-98c-10 0 -15 5 -15 16v224l-273 503c-8 15 -4 22 11 22h108
c12 0 21 -5 27 -16l191 -377l191 377c6 11 15 16 27 16z" />
    <glyph glyph-name="ordmasculine" unicode="&#xde;" horiz-adv-x="656" 
d="M92 766h99c10 0 15 -5 15 -16v-119c43 2 83 3 119 3c114 0 192 -17 234 -51c42 -33 63 -100 63 -200c0 -99 -21 -166 -63 -200c-42 -33 -120 -50 -234 -50c-22 0 -62 1 -119 2v-118c0 -11 -5 -16 -15 -16h-99c-10 0 -15 5 -15 16v733c0 11 5 16 15 16zM313 523h-107v-280
h107c73 0 121 9 144 26s35 55 35 114s-12 97 -35 114s-71 26 -144 26z" />
    <glyph glyph-name="Omega.001" unicode="&#xdf;" horiz-adv-x="613" 
d="M300 770c89 0 152 -16 191 -47s59 -86 59 -165c0 -104 -26 -157 -97 -172v-3c87 -12 116 -73 116 -180c0 -79 -20 -134 -61 -164c-41 -29 -106 -44 -197 -44c-16 0 -39 1 -68 4c-11 1 -15 7 -13 17l19 78c2 9 7 13 14 13h48c95 1 132 24 132 108c0 92 -42 119 -134 119
h-54c-10 0 -15 5 -15 15v67c0 10 5 15 16 15h52c76 0 116 23 116 111c0 92 -33 116 -125 116c-41 0 -69 -9 -85 -26s-24 -50 -24 -100v-517c0 -10 -5 -15 -15 -15h-95c-10 0 -15 5 -15 15v519c0 88 17 149 50 184s95 52 185 52z" />
    <glyph glyph-name="ae" unicode="&#xe0;" horiz-adv-x="549" 
d="M134 775h116c6 0 10 -2 12 -6l73 -125c3 -6 2 -11 -3 -14l-31 -19c-5 -4 -9 -4 -14 0l-158 135c-3 3 -5 7 -5 12v7c0 7 3 10 10 10zM255 558c171 0 234 -52 234 -164v-348c0 -15 -7 -24 -20 -29c-51 -15 -126 -22 -225 -22c-77 0 -131 11 -163 32c-32 22 -48 67 -48 135
c0 121 59 159 190 159h145v52c0 56 -33 80 -113 80h-164c-12 0 -15 3 -15 15v61c0 12 3 13 14 16c47 9 102 13 165 13zM368 107v127h-138c-55 0 -77 -18 -77 -67c0 -56 25 -71 101 -71c48 0 86 4 114 11z" />
    <glyph glyph-name="oslash" unicode="&#xe1;" horiz-adv-x="549" 
d="M274 775h116c7 0 10 -3 10 -10v-7c0 -3 -2 -7 -5 -12l-158 -135c-5 -4 -9 -4 -14 0l-31 19c-5 3 -6 8 -3 14l73 125c2 4 6 6 12 6zM255 558c171 0 234 -52 234 -164v-348c0 -15 -7 -24 -20 -29c-51 -15 -126 -22 -225 -22c-77 0 -131 11 -163 32c-32 22 -48 67 -48 135
c0 121 59 159 190 159h145v52c0 56 -33 80 -113 80h-164c-12 0 -15 3 -15 15v61c0 12 3 13 14 16c47 9 102 13 165 13zM368 107v127h-138c-55 0 -77 -18 -77 -67c0 -56 25 -71 101 -71c48 0 86 4 114 11z" />
    <glyph glyph-name="questiondown" unicode="&#xe2;" horiz-adv-x="549" 
d="M238 775h63c9 0 15 -3 19 -8l92 -127c5 -5 4 -10 -3 -15l-25 -14c-5 -4 -10 -4 -16 0l-98 74l-98 -74c-6 -4 -11 -4 -16 0l-25 14c-7 5 -8 10 -3 15l92 127c3 5 9 8 18 8zM255 558c171 0 234 -52 234 -164v-348c0 -15 -7 -24 -20 -29c-51 -15 -126 -22 -225 -22
c-77 0 -131 11 -163 32c-32 22 -48 67 -48 135c0 121 59 159 190 159h145v52c0 56 -33 80 -113 80h-164c-12 0 -15 3 -15 15v61c0 12 3 13 14 16c47 9 102 13 165 13zM368 107v127h-138c-55 0 -77 -18 -77 -67c0 -56 25 -71 101 -71c48 0 86 4 114 11z" />
    <glyph glyph-name="exclamdown" unicode="&#xe3;" horiz-adv-x="549" 
d="M196 758c17 0 42 -7 75 -20s54 -20 64 -20c24 0 34 7 45 34c5 9 12 13 19 10l33 -9c9 -3 13 -11 11 -22c-24 -83 -44 -105 -99 -105c-17 0 -43 7 -76 20s-54 20 -64 20c-23 0 -33 -7 -45 -34c-4 -9 -10 -13 -18 -10l-33 8c-9 3 -13 11 -11 22c24 83 46 106 99 106z
M255 558c171 0 234 -52 234 -164v-348c0 -15 -7 -24 -20 -29c-51 -15 -126 -22 -225 -22c-77 0 -131 11 -163 32c-32 22 -48 67 -48 135c0 121 59 159 190 159h145v52c0 56 -33 80 -113 80h-164c-12 0 -15 3 -15 15v61c0 12 3 13 14 16c47 9 102 13 165 13zM368 107v127
h-138c-55 0 -77 -18 -77 -67c0 -56 25 -71 101 -71c48 0 86 4 114 11z" />
    <glyph glyph-name="logicalnot" unicode="&#xe4;" horiz-adv-x="549" 
d="M169 757c45 0 68 -22 68 -66c0 -45 -23 -67 -68 -67c-47 0 -70 22 -70 67c0 44 23 66 70 66zM441 691c0 -45 -23 -67 -69 -67s-69 22 -69 67c0 44 23 66 69 66s69 -22 69 -66zM255 558c171 0 234 -52 234 -164v-348c0 -15 -7 -24 -20 -29c-51 -15 -126 -22 -225 -22
c-77 0 -131 11 -163 32c-32 22 -48 67 -48 135c0 121 59 159 190 159h145v52c0 56 -33 80 -113 80h-164c-12 0 -15 3 -15 15v61c0 12 3 13 14 16c47 9 102 13 165 13zM368 107v127h-138c-55 0 -77 -18 -77 -67c0 -56 25 -71 101 -71c48 0 86 4 114 11z" />
    <glyph glyph-name="radical.001" unicode="&#xe5;" horiz-adv-x="549" 
d="M381 715c0 -71 -37 -107 -111 -107s-111 36 -111 107c0 72 37 108 111 108s111 -36 111 -108zM332 715c0 41 -21 62 -62 62s-62 -21 -62 -62s21 -62 62 -62s62 21 62 62zM255 558c171 0 234 -52 234 -164v-348c0 -15 -7 -24 -20 -29c-51 -15 -126 -22 -225 -22
c-77 0 -131 11 -163 32c-32 22 -48 67 -48 135c0 121 59 159 190 159h145v52c0 56 -33 80 -113 80h-164c-12 0 -15 3 -15 15v61c0 12 3 13 14 16c47 9 102 13 165 13zM368 107v127h-138c-55 0 -77 -18 -77 -67c0 -56 25 -71 101 -71c48 0 86 4 114 11z" />
    <glyph glyph-name="florin.001" unicode="&#xe6;" horiz-adv-x="879" 
d="M607 558c94 0 156 -18 187 -54s46 -108 47 -217v-30c0 -20 -6 -27 -34 -27h-316c1 -53 10 -88 26 -105s49 -25 98 -25h170c10 0 15 -5 15 -15v-62c0 -9 -5 -15 -14 -17c-48 -7 -108 -11 -179 -11c-30 0 -62 4 -95 11c-33 8 -57 17 -74 28c-50 -26 -115 -39 -194 -39
c-77 0 -131 11 -163 32c-32 22 -48 67 -48 135c0 121 59 159 190 159h145v52c0 56 -33 80 -113 80h-164c-12 0 -15 3 -15 15v61c0 12 3 13 14 16c47 9 102 13 165 13c84 0 144 -16 180 -47c33 31 91 47 172 47zM607 453c-46 0 -77 -9 -92 -28c-15 -18 -24 -54 -25 -108h230
c-1 55 -9 91 -24 109s-44 27 -89 27zM371 234h-141c-55 0 -77 -18 -77 -67c0 -56 25 -72 100 -72c59 0 105 7 136 22c-12 28 -18 67 -18 117z" />
    <glyph glyph-name="approxequal" unicode="&#xe7;" horiz-adv-x="498" 
d="M448 453h-157c-52 0 -85 -11 -100 -34c-14 -22 -21 -69 -21 -142s7 -120 21 -143c15 -23 48 -34 100 -34h157c11 0 16 -5 16 -15v-61c0 -10 -5 -16 -15 -18c-35 -6 -77 -10 -126 -11c10 -33 15 -63 15 -89c0 -28 -8 -48 -24 -59c-15 -12 -40 -18 -74 -18s-57 3 -70 8
c-8 3 -12 9 -12 18v47c0 9 5 14 14 14h36c37 1 47 1 51 29c0 9 -2 26 -7 51c-83 3 -137 24 -164 62c-27 39 -40 112 -40 219c0 119 9 179 45 224c37 45 94 57 198 57c62 0 115 -4 158 -11c10 -2 15 -8 15 -18v-61c0 -10 -5 -15 -16 -15z" />
    <glyph glyph-name="increment" unicode="&#xe8;" horiz-adv-x="558" 
d="M134 775h116c6 0 10 -2 12 -6l73 -125c3 -6 2 -11 -3 -14l-31 -19c-5 -4 -9 -4 -14 0l-158 135c-3 5 -5 9 -5 12v7c0 7 3 10 10 10zM286 558c97 0 150 -12 186 -55c37 -43 47 -103 48 -216v-30c0 -20 -7 -27 -34 -27h-317c1 -53 10 -88 26 -105c17 -17 49 -25 98 -25h171
c10 0 15 -5 15 -15v-62c0 -9 -5 -15 -14 -17c-49 -7 -108 -11 -179 -11c-97 0 -161 18 -192 55s-47 113 -47 226s15 189 46 226s96 56 193 56zM286 453c-47 0 -78 -9 -93 -28c-15 -18 -23 -54 -24 -108h229c-1 54 -8 90 -23 108c-15 19 -44 28 -89 28z" />
    <glyph glyph-name="guillemotleft" unicode="&#xe9;" horiz-adv-x="558" 
d="M302 775h116c7 0 10 -3 10 -10v-7c0 -5 -2 -9 -5 -12l-158 -135c-5 -4 -9 -4 -14 0l-31 19c-5 3 -6 8 -3 14l73 125c2 4 6 6 12 6zM286 558c97 0 150 -12 186 -55c37 -43 47 -103 48 -216v-30c0 -20 -7 -27 -34 -27h-317c1 -53 10 -88 26 -105c17 -17 49 -25 98 -25h171
c10 0 15 -5 15 -15v-62c0 -9 -5 -15 -14 -17c-49 -7 -108 -11 -179 -11c-97 0 -161 18 -192 55s-47 113 -47 226s15 189 46 226s96 56 193 56zM286 453c-47 0 -78 -9 -93 -28c-15 -18 -23 -54 -24 -108h229c-1 54 -8 90 -23 108c-15 19 -44 28 -89 28z" />
    <glyph glyph-name="guillemotright" unicode="&#xea;" horiz-adv-x="558" 
d="M253 775h63c9 0 15 -3 18 -8l92 -127c5 -5 4 -10 -3 -15l-24 -14c-5 -3 -11 -3 -16 0l-98 74l-99 -74c-5 -3 -11 -3 -16 0l-24 14c-7 5 -8 10 -3 15l92 127c3 5 9 8 18 8zM286 558c97 0 150 -12 186 -55c37 -43 47 -103 48 -216v-30c0 -20 -7 -27 -34 -27h-317
c1 -53 10 -88 26 -105c17 -17 49 -25 98 -25h171c10 0 15 -5 15 -15v-62c0 -9 -5 -15 -14 -17c-49 -7 -108 -11 -179 -11c-97 0 -161 18 -192 55s-47 113 -47 226s15 189 46 226s96 56 193 56zM286 453c-47 0 -78 -9 -93 -28c-15 -18 -23 -54 -24 -108h229
c-1 54 -8 90 -23 108c-15 19 -44 28 -89 28z" />
    <glyph glyph-name="ellipsis" unicode="&#xeb;" horiz-adv-x="558" 
d="M184 757c45 0 68 -22 68 -66c0 -45 -23 -67 -68 -67c-47 0 -70 22 -70 67c0 44 23 66 70 66zM387 757c45 0 68 -22 68 -66c0 -45 -23 -67 -68 -67c-47 0 -70 22 -70 67c0 44 23 66 70 66zM286 558c97 0 150 -12 186 -55c37 -43 47 -103 48 -216v-30c0 -20 -7 -27 -34 -27
h-317c1 -53 10 -88 26 -105c17 -17 49 -25 98 -25h171c10 0 15 -5 15 -15v-62c0 -9 -5 -15 -14 -17c-49 -7 -108 -11 -179 -11c-97 0 -161 18 -192 55s-47 113 -47 226s15 189 46 226s96 56 193 56zM286 453c-47 0 -78 -9 -93 -28c-15 -18 -23 -54 -24 -108h229
c-1 54 -8 90 -23 108c-15 19 -44 28 -89 28z" />
    <glyph glyph-name="nbspace" unicode="&#xec;" horiz-adv-x="251" 
d="M-24 775h116c6 0 10 -2 12 -6l73 -125c3 -6 2 -11 -3 -14l-31 -19c-5 -4 -9 -4 -14 0l-158 135c-3 3 -5 7 -5 12v7c0 7 3 10 10 10zM80 553h91c10 0 15 -5 15 -15v-523c0 -10 -5 -15 -15 -15h-91c-10 0 -15 5 -15 15v523c0 10 5 15 15 15z" />
    <glyph glyph-name="Agrave" unicode="&#xed;" horiz-adv-x="251" 
d="M160 775h116c7 0 10 -3 10 -10v-7c0 -3 -2 -7 -5 -12l-158 -135c-5 -4 -9 -4 -14 0l-31 19c-5 3 -6 8 -3 14l73 125c2 4 6 6 12 6zM80 553h91c10 0 15 -5 15 -15v-523c0 -10 -5 -15 -15 -15h-91c-10 0 -15 5 -15 15v523c0 10 5 15 15 15z" />
    <glyph glyph-name="Atilde" unicode="&#xee;" horiz-adv-x="251" 
d="M94 775h63c9 0 15 -3 18 -8l92 -127c5 -5 4 -10 -3 -15l-24 -14c-6 -4 -11 -4 -16 0l-99 74l-98 -74c-5 -3 -11 -3 -16 0l-24 14c-7 4 -9 9 -4 15l92 127c4 5 10 8 19 8zM171 0h-91c-10 0 -15 5 -15 15v523c0 10 5 15 15 15h91c10 0 15 -5 15 -15v-523
c0 -10 -5 -15 -15 -15z" />
    <glyph glyph-name="Otilde" unicode="&#xef;" horiz-adv-x="251" 
d="M24 757c45 0 68 -22 68 -66c0 -45 -23 -67 -68 -67c-47 0 -70 22 -70 67c0 44 23 66 70 66zM296 691c0 -45 -23 -67 -69 -67s-69 22 -69 67c0 44 23 66 69 66s69 -22 69 -66zM80 553h91c10 0 15 -5 15 -15v-523c0 -10 -5 -15 -15 -15h-91c-10 0 -15 5 -15 15v523
c0 10 5 15 15 15z" />
    <glyph glyph-name="OE" unicode="&#xf0;" horiz-adv-x="580" 
d="M194 764h98c8 0 14 -3 18 -10l27 -45l83 30c10 4 16 1 19 -9l10 -26c3 -9 0 -16 -9 -19l-73 -26l140 -238c18 -28 27 -85 27 -171c0 -102 -16 -170 -48 -204s-97 -51 -195 -51c-101 0 -157 12 -196 52c-37 41 -48 98 -48 203c1 100 16 167 46 200s91 50 183 50
c21 0 40 -1 57 -3l-73 123l-87 -30c-10 -4 -16 -1 -19 9l-10 26c-3 9 0 16 9 19l76 27l-45 75c-7 11 -2 18 10 18zM413 250c-1 61 -8 101 -23 120c-15 20 -48 30 -99 30s-85 -10 -100 -30s-22 -60 -22 -120s7 -100 22 -120s49 -30 100 -30s84 10 99 29c15 20 22 60 23 121z
" />
    <glyph glyph-name="oe.001" unicode="&#xf1;" horiz-adv-x="599" 
d="M226 758c17 0 42 -7 75 -20s55 -20 65 -20c23 0 33 7 45 34c4 9 10 13 18 10l33 -9c9 -3 13 -11 11 -22c-24 -83 -44 -105 -99 -105c-18 0 -43 7 -76 20c-32 13 -53 20 -63 20c-24 0 -34 -7 -45 -34c-5 -9 -11 -13 -19 -10l-33 8c-9 3 -13 11 -11 22c24 83 46 106 99 106
zM302 558c100 0 147 -6 186 -41c40 -33 50 -89 50 -196v-306c0 -10 -5 -15 -16 -15h-90c-10 0 -15 5 -15 15v284c0 76 -3 112 -24 132c-11 11 -22 17 -34 19s-32 3 -59 3h-115v-438c0 -10 -5 -15 -15 -15h-92c-9 0 -14 5 -14 15v511c0 13 5 14 14 16c53 11 127 16 224 16z
" />
    <glyph glyph-name="endash.001" unicode="&#xf2;" horiz-adv-x="581" 
d="M129 775h116c6 0 10 -2 12 -6l73 -125c3 -6 2 -11 -3 -14l-31 -19c-5 -3 -10 -3 -14 0l-158 135c-3 3 -5 7 -5 12v7c0 7 3 10 10 10zM534 276c0 -113 -16 -189 -48 -226c-31 -37 -97 -55 -196 -55s-165 18 -196 55s-47 113 -47 226c0 114 16 189 47 226s97 56 196 56
s165 -19 196 -56c32 -37 48 -112 48 -226zM390 419c-15 23 -48 34 -100 34s-85 -11 -100 -34s-22 -70 -22 -143s7 -120 22 -143c15 -22 48 -33 100 -33s85 11 100 33c15 23 22 70 22 143s-7 120 -22 143z" />
    <glyph glyph-name="emdash.001" unicode="&#xf3;" horiz-adv-x="581" 
d="M323 775h116c7 0 10 -3 10 -10v-7c0 -5 -2 -9 -5 -12l-158 -135c-4 -3 -9 -3 -14 0l-31 19c-5 3 -6 8 -3 14l73 125c2 4 6 6 12 6zM534 276c0 -113 -16 -189 -48 -226c-31 -37 -97 -55 -196 -55s-165 18 -196 55s-47 113 -47 226c0 114 16 189 47 226s97 56 196 56
s165 -19 196 -56c32 -37 48 -112 48 -226zM390 419c-15 23 -48 34 -100 34s-85 -11 -100 -34s-22 -70 -22 -143s7 -120 22 -143c15 -22 48 -33 100 -33s85 11 100 33c15 23 22 70 22 143s-7 120 -22 143z" />
    <glyph glyph-name="quotedblleft" unicode="&#xf4;" horiz-adv-x="581" 
d="M259 775h63c9 0 15 -3 18 -8l92 -127c5 -5 4 -10 -3 -15l-24 -14c-6 -4 -11 -4 -16 0l-99 74l-98 -74c-5 -3 -11 -3 -16 0l-24 14c-7 4 -9 9 -4 15l92 127c4 5 10 8 19 8zM534 276c0 -113 -16 -189 -48 -226c-31 -37 -97 -55 -196 -55s-165 18 -196 55s-47 113 -47 226
c0 114 16 189 47 226s97 56 196 56s165 -19 196 -56c32 -37 48 -112 48 -226zM390 419c-15 23 -48 34 -100 34s-85 -11 -100 -34s-22 -70 -22 -143s7 -120 22 -143c15 -22 48 -33 100 -33s85 11 100 33c15 23 22 70 22 143s-7 120 -22 143z" />
    <glyph glyph-name="quotedblright.001" unicode="&#xf5;" horiz-adv-x="581" 
d="M217 758c17 0 42 -7 75 -20s54 -20 64 -20c23 0 33 7 45 34c4 9 10 13 18 10l33 -9c10 -3 14 -11 11 -22c-24 -83 -44 -105 -99 -105c-17 0 -42 7 -75 20s-54 20 -64 20c-24 0 -34 -7 -45 -34c-5 -9 -11 -13 -19 -10l-33 8c-9 4 -13 11 -10 22c23 83 44 106 99 106z
M534 276c0 -113 -16 -189 -48 -226c-31 -37 -97 -55 -196 -55s-165 18 -196 55s-47 113 -47 226c0 114 16 189 47 226s97 56 196 56s165 -19 196 -56c32 -37 48 -112 48 -226zM390 419c-15 23 -48 34 -100 34s-85 -11 -100 -34s-22 -70 -22 -143s7 -120 22 -143
c15 -22 48 -33 100 -33s85 11 100 33c15 23 22 70 22 143s-7 120 -22 143z" />
    <glyph glyph-name="quoteleft" unicode="&#xf6;" horiz-adv-x="581" 
d="M189 757c45 0 68 -22 68 -66c0 -45 -23 -67 -68 -67c-47 0 -70 22 -70 67c0 44 23 66 70 66zM461 691c0 -45 -23 -67 -69 -67s-69 22 -69 67c0 44 23 66 69 66s69 -22 69 -66zM534 276c0 -113 -16 -189 -48 -226c-31 -37 -97 -55 -196 -55s-165 18 -196 55
s-47 113 -47 226c0 114 16 189 47 226s97 56 196 56s165 -19 196 -56c32 -37 48 -112 48 -226zM390 419c-15 23 -48 34 -100 34s-85 -11 -100 -34s-22 -70 -22 -143s7 -120 22 -143c15 -22 48 -33 100 -33s85 11 100 33c15 23 22 70 22 143s-7 120 -22 143z" />
    <glyph glyph-name="quoteright.001" unicode="&#xf7;" horiz-adv-x="569" 
d="M286 562c45 0 72 -25 72 -69s-27 -69 -72 -69c-47 0 -74 25 -74 69s27 69 74 69zM55 370h459c10 0 15 -5 15 -15v-83c0 -10 -5 -15 -15 -15h-459c-10 0 -15 5 -15 15v83c0 10 5 15 15 15zM286 202c48 0 72 -23 72 -68s-25 -70 -72 -70s-74 25 -74 70c0 44 27 68 74 68z
" />
    <glyph glyph-name="divide" unicode="&#xf8;" horiz-adv-x="581" 
d="M290 558c61 0 107 -6 138 -17l18 26c7 9 14 11 21 4l34 -23c8 -5 9 -12 3 -21l-18 -25c32 -36 48 -111 48 -226c0 -113 -16 -189 -48 -226c-31 -37 -97 -55 -196 -55c-63 0 -112 7 -145 20l-21 -29c-6 -9 -13 -10 -20 -3l-34 23c-9 5 -10 12 -4 20l23 33
c-28 37 -42 109 -42 217c0 114 16 189 47 226s97 56 196 56zM290 453c-52 0 -85 -11 -100 -34s-22 -70 -22 -143c0 -45 2 -77 6 -96l185 263c-16 7 -39 10 -69 10zM404 384l-190 -271c17 -9 42 -13 76 -13c52 0 85 11 100 33c15 23 22 70 22 143c0 53 -3 89 -8 108z" />
    <glyph glyph-name="lozenge" unicode="&#xf9;" horiz-adv-x="600" 
d="M149 775h116c6 0 10 -2 12 -6l73 -125c3 -6 2 -11 -3 -14l-31 -19c-5 -4 -9 -4 -14 0l-158 135c-3 3 -5 7 -5 12v7c0 7 3 10 10 10zM429 553h92c10 0 15 -5 15 -15v-510c0 -13 -5 -14 -15 -16c-56 -11 -130 -17 -223 -17c-100 0 -147 6 -187 41s-50 90 -50 197v305
c0 10 6 15 17 15h90c9 0 14 -5 14 -15v-283c0 -76 3 -112 24 -133s40 -22 93 -22h115v438c0 10 5 15 15 15z" />
    <glyph glyph-name="ydieresis" unicode="&#xfa;" horiz-adv-x="600" 
d="M318 775h116c7 0 10 -3 10 -10v-7c0 -5 -2 -9 -5 -12l-158 -135c-5 -4 -9 -4 -14 0l-31 19c-5 3 -6 8 -3 14l73 125c2 4 6 6 12 6zM429 553h92c10 0 15 -5 15 -15v-510c0 -13 -5 -14 -15 -16c-56 -11 -130 -17 -223 -17c-100 0 -147 6 -187 41s-50 90 -50 197v305
c0 10 6 15 17 15h90c9 0 14 -5 14 -15v-283c0 -76 3 -112 24 -133s40 -22 93 -22h115v438c0 10 5 15 15 15z" />
    <glyph glyph-name="Ydieresis.001" unicode="&#xfb;" horiz-adv-x="600" 
d="M267 775h63c9 0 15 -3 19 -8l92 -127c5 -6 3 -11 -4 -15l-24 -14c-5 -3 -11 -3 -16 0l-98 74l-99 -74c-5 -4 -10 -4 -16 0l-24 14c-7 5 -8 10 -3 15l92 127c3 5 9 8 18 8zM429 553h92c10 0 15 -5 15 -15v-510c0 -13 -5 -14 -15 -16c-56 -11 -130 -17 -223 -17
c-100 0 -147 6 -187 41s-50 90 -50 197v305c0 10 6 15 17 15h90c9 0 14 -5 14 -15v-283c0 -76 3 -112 24 -133s40 -22 93 -22h115v438c0 10 5 15 15 15z" />
    <glyph glyph-name="fraction" unicode="&#xfc;" horiz-adv-x="600" 
d="M193 757c45 0 68 -22 68 -66c0 -45 -23 -67 -68 -67c-47 0 -70 22 -70 67c0 44 23 66 70 66zM465 691c0 -45 -23 -67 -69 -67s-69 22 -69 67c0 44 23 66 69 66s69 -22 69 -66zM429 553h92c10 0 15 -5 15 -15v-510c0 -13 -5 -14 -15 -16c-56 -11 -130 -17 -223 -17
c-100 0 -147 6 -187 41s-50 90 -50 197v305c0 10 6 15 17 15h90c9 0 14 -5 14 -15v-283c0 -76 3 -112 24 -133s40 -22 93 -22h115v438c0 10 5 15 15 15z" />
    <glyph glyph-name="currency" unicode="&#xfd;" horiz-adv-x="606" 
d="M332 775h116c7 0 10 -3 10 -10v-7c0 -3 -2 -7 -5 -12l-158 -135c-5 -4 -9 -4 -14 0l-31 19c-5 3 -6 8 -3 14l73 125c2 4 6 6 12 6zM435 553h91c10 0 15 -5 15 -15v-506c0 -75 -6 -118 -26 -158c-27 -57 -93 -79 -212 -79c-62 0 -118 4 -169 11c-9 2 -13 7 -13 16v59
c0 10 5 15 14 15h161c49 0 82 7 99 22c17 14 25 41 25 81v5c-37 -6 -79 -9 -128 -9c-91 0 -153 19 -185 56c-31 37 -47 107 -47 209v278c0 10 5 15 15 15h91c10 0 15 -5 15 -15v-261c0 -73 8 -120 23 -143c16 -22 52 -33 107 -33c45 0 81 2 109 6v431c0 10 5 15 15 15z" />
    <glyph glyph-name="guilsinglleft.001" unicode="&#xfe;" horiz-adv-x="590" 
d="M80 764h91c10 0 15 -5 15 -15v-197c33 4 76 6 128 6c92 0 153 -19 183 -57c31 -38 46 -113 46 -225c0 -113 -16 -188 -48 -225s-98 -56 -198 -56c-41 0 -78 2 -111 5v-184c0 -11 -5 -16 -15 -16h-91c-10 0 -15 5 -15 16v933c0 10 5 15 15 15zM295 453h-109v-345
c37 -5 75 -8 112 -8c54 0 88 11 102 34c15 23 22 70 22 142c0 74 -7 122 -22 144s-50 33 -105 33z" />
    <glyph glyph-name="guilsinglright.001" unicode="&#xff;" horiz-adv-x="606" 
d="M204 757c45 0 68 -22 68 -66c0 -45 -23 -67 -68 -67c-47 0 -70 22 -70 67c0 44 23 66 70 66zM476 691c0 -45 -23 -67 -69 -67s-69 22 -69 67c0 44 23 66 69 66s69 -22 69 -66zM435 553h91c10 0 15 -5 15 -15v-506c0 -75 -6 -118 -26 -158c-27 -57 -93 -79 -212 -79
c-62 0 -118 4 -169 11c-9 2 -13 7 -13 16v59c0 10 5 15 14 15h161c49 0 82 7 99 22c17 14 25 41 25 81v5c-37 -6 -79 -9 -128 -9c-91 0 -153 19 -185 56c-31 37 -47 107 -47 209v278c0 10 5 15 15 15h91c10 0 15 -5 15 -15v-261c0 -73 8 -120 23 -143c16 -22 52 -33 107 -33
c45 0 81 2 109 6v431c0 10 5 15 15 15z" />
    <glyph glyph-name="fi" unicode="&#x100;" horiz-adv-x="691" 
d="M207 922h273c10 0 15 -5 15 -15v-51c0 -10 -5 -15 -15 -15h-273c-10 0 -15 5 -15 15v51c0 10 5 15 15 15zM344 770c56 0 92 -6 109 -19s33 -45 48 -98l173 -637c2 -11 -2 -16 -12 -16h-102c-7 0 -11 5 -14 16l-59 215h-285l-60 -215c-3 -11 -7 -16 -13 -16h-103
c-10 0 -14 5 -12 16l178 637c15 52 30 84 47 97s52 20 105 20zM344 661c-23 0 -24 -4 -35 -41l-77 -281h226l-75 281c-11 37 -12 41 -39 41z" />
    <glyph glyph-name="fl.001" unicode="&#x101;" horiz-adv-x="549" 
d="M133 722h273c10 0 15 -5 15 -15v-51c0 -10 -5 -15 -15 -15h-273c-10 0 -15 5 -15 15v51c0 10 5 15 15 15zM255 558c171 0 234 -52 234 -164v-348c0 -15 -7 -24 -20 -29c-51 -15 -126 -22 -225 -22c-77 0 -131 11 -163 32c-32 22 -48 67 -48 135c0 121 59 159 190 159h145
v52c0 56 -33 80 -113 80h-164c-12 0 -15 3 -15 15v61c0 12 3 13 14 16c47 9 102 13 165 13zM368 107v127h-138c-55 0 -77 -18 -77 -67c0 -56 25 -71 101 -71c48 0 86 4 114 11z" />
    <glyph glyph-name="daggerdbl.001" unicode="&#x102;" horiz-adv-x="691" 
d="M447 965h45c11 0 16 -5 14 -16c-7 -49 -23 -82 -46 -101c-23 -18 -62 -27 -116 -27s-93 9 -116 27c-23 19 -39 52 -46 101c-2 11 3 16 14 16h45c9 0 14 -4 17 -12c17 -41 38 -54 86 -54s69 13 86 54c3 8 9 12 17 12zM344 770c56 0 92 -6 109 -19s33 -45 48 -98l173 -637
c2 -11 -2 -16 -12 -16h-102c-7 0 -11 5 -14 16l-59 215h-285l-60 -215c-3 -11 -7 -16 -13 -16h-103c-10 0 -14 5 -12 16l178 637c15 52 30 84 47 97s52 20 105 20zM344 661c-23 0 -24 -4 -35 -41l-77 -281h226l-75 281c-11 37 -12 41 -39 41z" />
    <glyph glyph-name="middot" unicode="&#x103;" horiz-adv-x="549" 
d="M373 765h45c11 0 16 -5 14 -16c-7 -49 -23 -82 -46 -101c-23 -18 -62 -27 -116 -27s-93 9 -116 27c-23 19 -39 52 -46 101c-2 11 3 16 14 16h45c9 0 14 -4 17 -12c17 -41 38 -54 86 -54s69 13 86 54c3 8 8 12 17 12zM255 558c171 0 234 -52 234 -164v-348
c0 -15 -7 -24 -20 -29c-51 -15 -126 -22 -225 -22c-77 0 -131 11 -163 32c-32 22 -48 67 -48 135c0 121 59 159 190 159h145v52c0 56 -33 80 -113 80h-164c-12 0 -15 3 -15 15v61c0 12 3 13 14 16c47 9 102 13 165 13zM368 107v127h-138c-55 0 -77 -18 -77 -67
c0 -56 25 -71 101 -71c48 0 86 4 114 11z" />
    <glyph glyph-name="quotesinglbase.001" unicode="&#x104;" horiz-adv-x="691" 
d="M344 770c56 0 92 -6 109 -19s33 -45 48 -98l173 -637c2 -11 -2 -16 -12 -16h-50c-15 -75 -13 -84 44 -84h35c10 0 15 -5 15 -14v-47c0 -9 -4 -15 -12 -18c-13 -5 -36 -8 -70 -8c-68 0 -98 21 -98 77c0 36 7 71 21 106l-60 219h-285l-60 -215c-3 -11 -7 -16 -13 -16h-103
c-10 0 -14 5 -12 16l178 637c15 52 30 84 47 97s52 20 105 20zM344 661c-23 0 -24 -4 -35 -41l-77 -281h226l-75 281c-11 37 -12 41 -39 41z" />
    <glyph glyph-name="quotedblbase.001" unicode="&#x105;" horiz-adv-x="549" 
d="M442 -84h36c9 0 14 -5 14 -14v-47c0 -9 -4 -15 -12 -18c-13 -5 -36 -8 -69 -8c-68 0 -98 21 -98 77c0 27 5 58 15 91c-37 -1 -65 -2 -84 -2c-77 0 -131 11 -163 32c-32 22 -48 67 -48 135c0 121 59 159 190 159h145v52c0 56 -33 80 -113 80h-164c-12 0 -15 3 -15 15v61
c0 12 3 13 14 16c47 9 102 13 165 13c171 0 234 -52 234 -164v-348c0 -15 -7 -24 -20 -29c-23 -6 -46 -10 -70 -13c-5 -25 -8 -44 -8 -59c0 -25 12 -29 51 -29zM153 167c0 -56 25 -71 101 -71c48 0 86 4 114 11v127h-138c-55 0 -77 -18 -77 -67z" />
    <glyph glyph-name="perthousand" unicode="&#x106;" horiz-adv-x="610" 
d="M362 975h116c7 0 10 -3 10 -10v-7c0 -5 -2 -9 -5 -12l-158 -135c-5 -4 -9 -4 -14 0l-31 19c-5 3 -6 8 -3 14l73 125c2 4 6 6 12 6zM365 770c84 0 148 -4 191 -12c13 -2 19 -9 19 -21v-63c0 -11 -5 -16 -15 -16h-195c-76 0 -126 -19 -149 -56s-34 -110 -34 -219
c0 -110 11 -184 34 -221s73 -55 149 -55h195c10 0 15 -5 15 -15v-63c0 -13 -6 -20 -19 -22c-49 -8 -113 -12 -191 -12c-127 0 -201 21 -250 82c-48 63 -63 151 -63 306s15 244 63 305c49 63 122 82 250 82z" />
    <glyph glyph-name="Acircumflex" unicode="&#x107;" horiz-adv-x="498" 
d="M291 775h116c7 0 10 -3 10 -10v-7c0 -5 -2 -9 -5 -12l-158 -135c-5 -4 -9 -4 -14 0l-31 19c-5 3 -6 8 -3 14l73 125c2 4 6 6 12 6zM291 558c62 0 115 -4 158 -11c10 -2 15 -8 15 -18v-61c0 -10 -5 -15 -16 -15h-157c-52 0 -85 -11 -100 -34c-14 -22 -21 -69 -21 -142
s7 -120 21 -143c15 -23 48 -34 100 -34h157c11 0 16 -5 16 -15v-61c0 -10 -5 -16 -15 -18c-43 -7 -96 -11 -158 -11c-101 0 -166 18 -197 55s-46 112 -46 227c0 119 9 179 45 224c37 45 94 57 198 57z" />
    <glyph glyph-name="Ecircumflex" unicode="&#x108;" horiz-adv-x="610" 
d="M320 975h63c9 0 15 -3 18 -8l92 -127c5 -5 4 -10 -3 -15l-25 -14c-5 -4 -10 -4 -15 0l-99 74l-98 -74c-6 -4 -11 -4 -16 0l-24 14c-7 4 -9 9 -4 15l92 127c4 5 10 8 19 8zM365 770c84 0 148 -4 191 -12c13 -2 19 -9 19 -21v-63c0 -11 -5 -16 -15 -16h-195
c-76 0 -126 -19 -149 -56s-34 -110 -34 -219c0 -110 11 -184 34 -221s73 -55 149 -55h195c10 0 15 -5 15 -15v-63c0 -13 -6 -20 -19 -22c-49 -8 -113 -12 -191 -12c-127 0 -201 21 -250 82c-48 63 -63 151 -63 306s15 244 63 305c49 63 122 82 250 82z" />
    <glyph glyph-name="Aacute" unicode="&#x109;" horiz-adv-x="498" 
d="M242 775h63c9 0 15 -3 18 -8l92 -127c5 -5 4 -10 -3 -15l-24 -14c-6 -4 -11 -4 -16 0l-98 74l-99 -74c-5 -3 -11 -3 -16 0l-24 14c-7 4 -9 9 -4 15l93 127c3 5 9 8 18 8zM291 558c62 0 115 -4 158 -11c10 -2 15 -8 15 -18v-61c0 -10 -5 -15 -16 -15h-157
c-52 0 -85 -11 -100 -34c-14 -22 -21 -69 -21 -142s7 -120 21 -143c15 -23 48 -34 100 -34h157c11 0 16 -5 16 -15v-61c0 -10 -5 -16 -15 -18c-43 -7 -96 -11 -158 -11c-101 0 -166 18 -197 55s-46 112 -46 227c0 119 9 179 45 224c37 45 94 57 198 57z" />
    <glyph glyph-name="Edieresis" unicode="&#x10a;" horiz-adv-x="610" 
d="M424 891c0 -46 -24 -69 -72 -69s-72 23 -72 69c0 45 24 68 72 68s72 -23 72 -68zM365 770c84 0 148 -4 191 -12c13 -2 19 -9 19 -21v-63c0 -11 -5 -16 -15 -16h-195c-76 0 -126 -19 -149 -56s-34 -110 -34 -219c0 -110 11 -184 34 -221s73 -55 149 -55h195
c10 0 15 -5 15 -15v-63c0 -13 -6 -20 -19 -22c-49 -8 -113 -12 -191 -12c-127 0 -201 21 -250 82c-48 63 -63 151 -63 306s15 244 63 305c49 63 122 82 250 82z" />
    <glyph glyph-name="Egrave" unicode="&#x10b;" horiz-adv-x="498" 
d="M270 759c47 0 71 -23 71 -68c0 -46 -24 -69 -71 -69c-49 0 -73 23 -73 69c0 45 24 68 73 68zM291 558c62 0 115 -4 158 -11c10 -2 15 -8 15 -18v-61c0 -10 -5 -15 -16 -15h-157c-52 0 -85 -11 -100 -34c-14 -22 -21 -69 -21 -142s7 -120 21 -143c15 -23 48 -34 100 -34
h157c11 0 16 -5 16 -15v-61c0 -10 -5 -16 -15 -18c-43 -7 -96 -11 -158 -11c-101 0 -166 18 -197 55s-46 112 -46 227c0 119 9 179 45 224c37 45 94 57 198 57z" />
    <glyph glyph-name="Iacute" unicode="&#x10c;" horiz-adv-x="610" 
d="M446 972l25 -14c7 -5 8 -10 3 -15l-92 -127c-3 -5 -9 -8 -18 -8h-64c-8 0 -14 3 -18 8l-92 127c-5 5 -4 10 3 15l25 14c5 4 10 4 16 0l98 -74l98 74c6 4 11 4 16 0zM365 770c84 0 148 -4 191 -12c13 -2 19 -9 19 -21v-63c0 -11 -5 -16 -15 -16h-195
c-76 0 -126 -19 -149 -56s-34 -110 -34 -219c0 -110 11 -184 34 -221s73 -55 149 -55h195c10 0 15 -5 15 -15v-63c0 -13 -6 -20 -19 -22c-49 -8 -113 -12 -191 -12c-127 0 -201 21 -250 82c-48 63 -63 151 -63 306s15 244 63 305c49 63 122 82 250 82z" />
    <glyph glyph-name="Icircumflex" unicode="&#x10d;" horiz-adv-x="498" 
d="M395 772l24 -14c7 -5 8 -10 3 -15l-92 -127c-3 -5 -9 -8 -18 -8h-63c-9 0 -15 3 -19 8l-92 127c-5 6 -3 11 4 15l24 14c5 3 11 3 16 0l98 -74l99 74c5 4 10 4 16 0zM291 558c62 0 115 -4 158 -11c10 -2 15 -8 15 -18v-61c0 -10 -5 -15 -16 -15h-157
c-52 0 -85 -11 -100 -34c-14 -22 -21 -69 -21 -142s7 -120 21 -143c15 -23 48 -34 100 -34h157c11 0 16 -5 16 -15v-61c0 -10 -5 -16 -15 -18c-43 -7 -96 -11 -158 -11c-101 0 -166 18 -197 55s-46 112 -46 227c0 119 9 179 45 224c37 45 94 57 198 57z" />
    <glyph glyph-name="Idieresis" unicode="&#x10e;" horiz-adv-x="741" 
d="M454 972l24 -14c7 -5 8 -10 3 -15l-92 -127c-3 -5 -9 -8 -18 -8h-63c-9 0 -15 3 -18 8l-92 127c-5 5 -4 10 3 15l24 14c5 3 11 3 16 0l99 -74l98 74c5 3 11 3 16 0zM374 770c115 0 196 -30 245 -91c49 -60 73 -159 73 -297c0 -137 -24 -236 -73 -297
c-49 -60 -130 -90 -245 -90c-108 0 -202 3 -282 9c-12 1 -15 2 -15 13v731c0 11 3 13 15 14c71 5 165 8 282 8zM364 658h-158v-551h168c136 0 188 80 188 275c0 196 -55 276 -198 276z" />
    <glyph glyph-name="Igrave" unicode="&#x10f;" horiz-adv-x="619" 
d="M625 766h105c7 0 10 -3 10 -10v-7c0 -5 -2 -9 -5 -12l-113 -135c-3 -5 -8 -5 -14 0l-25 18c-4 3 -5 8 -4 15l33 124c1 5 5 7 13 7zM419 764h91c10 0 15 -5 15 -15v-715c0 -12 -6 -19 -18 -21c-73 -12 -144 -18 -214 -18c-104 0 -160 13 -199 57c-37 45 -47 107 -47 224
c0 112 15 187 45 225c31 38 92 57 184 57c52 0 95 -2 128 -6v197c0 10 5 15 15 15zM404 108v345h-109c-55 0 -90 -11 -105 -33s-22 -70 -22 -144c0 -72 7 -119 21 -142c15 -23 49 -34 103 -34c37 0 75 3 112 8z" />
    <glyph glyph-name="Oacute" unicode="&#x110;" horiz-adv-x="752" 
d="M385 770c115 0 196 -30 245 -91c49 -60 73 -159 73 -297c0 -137 -24 -236 -73 -297c-49 -60 -130 -90 -245 -90c-108 0 -202 3 -282 9c-12 1 -15 2 -15 13v321h-70c-10 0 -15 5 -15 15v51c0 10 5 15 15 15h70v329c0 11 3 13 15 14c71 5 165 8 282 8zM217 338v-231h168
c136 0 188 80 188 275c0 196 -55 276 -199 276h-157v-239h144c10 0 15 -5 15 -15v-51c0 -10 -5 -15 -15 -15h-144z" />
    <glyph glyph-name="Ocircumflex" unicode="&#x111;" horiz-adv-x="589" 
d="M525 749v-56h62c10 0 15 -5 15 -15v-32c0 -10 -5 -15 -15 -15h-62v-597c0 -12 -6 -19 -18 -21c-73 -12 -144 -18 -214 -18c-104 0 -160 13 -199 57c-37 45 -47 107 -47 224c0 112 15 187 45 225c31 38 92 57 184 57c52 0 95 -2 128 -6v79h-132c-10 0 -15 5 -15 15v32
c0 10 5 15 15 15h132v56c0 10 5 15 15 15h91c10 0 15 -5 15 -15zM404 108v345h-109c-55 0 -90 -11 -105 -33s-22 -70 -22 -144c0 -72 7 -119 21 -142c15 -23 49 -34 103 -34c37 0 75 3 112 8z" />
    <glyph glyph-name="apple" unicode="&#x112;" horiz-adv-x="639" 
d="M190 922h273c10 0 15 -5 15 -15v-51c0 -10 -5 -15 -15 -15h-273c-10 0 -15 5 -15 15v51c0 10 5 15 15 15zM92 765h484c11 0 16 -5 16 -15v-82c0 -10 -5 -15 -16 -15h-370v-224h338c10 0 15 -5 15 -15v-79c0 -10 -5 -15 -15 -15h-338v-208h370c11 0 16 -5 16 -15v-82
c0 -10 -5 -15 -16 -15h-484c-10 0 -15 5 -15 15v735c0 10 5 15 15 15z" />
    <glyph glyph-name="Ograve" unicode="&#x113;" horiz-adv-x="558" 
d="M148 722h273c10 0 15 -5 15 -15v-51c0 -10 -5 -15 -15 -15h-273c-10 0 -15 5 -15 15v51c0 10 5 15 15 15zM286 558c97 0 150 -12 186 -55c37 -43 47 -103 48 -216v-30c0 -20 -7 -27 -34 -27h-317c1 -53 10 -88 26 -105c17 -17 49 -25 98 -25h171c10 0 15 -5 15 -15v-62
c0 -9 -5 -15 -14 -17c-49 -7 -108 -11 -179 -11c-97 0 -161 18 -192 55s-47 113 -47 226s15 189 46 226s96 56 193 56zM286 453c-47 0 -78 -9 -93 -28c-15 -18 -23 -54 -24 -108h229c-1 54 -8 90 -23 108c-15 19 -44 28 -89 28z" />
    <glyph glyph-name="Uacute" unicode="&#x114;" horiz-adv-x="639" 
d="M443 965h45c11 0 16 -5 14 -16c-7 -49 -23 -82 -46 -101c-23 -18 -62 -27 -116 -27s-93 9 -116 27c-23 19 -39 52 -46 101c-2 11 3 16 14 16h45c9 0 14 -4 17 -12c17 -41 38 -54 86 -54s69 13 86 54c3 8 8 12 17 12zM92 765h484c11 0 16 -5 16 -15v-82
c0 -10 -5 -15 -16 -15h-370v-224h338c10 0 15 -5 15 -15v-79c0 -10 -5 -15 -15 -15h-338v-208h370c11 0 16 -5 16 -15v-82c0 -10 -5 -15 -16 -15h-484c-10 0 -15 5 -15 15v735c0 10 5 15 15 15z" />
    <glyph glyph-name="Ucircumflex" unicode="&#x115;" horiz-adv-x="558" 
d="M387 765h45c11 0 16 -5 14 -16c-7 -49 -22 -82 -45 -101c-23 -18 -62 -27 -116 -27c-55 0 -94 9 -117 27c-23 19 -38 52 -45 101c-2 11 3 16 14 16h45c8 0 14 -4 17 -12c17 -41 38 -54 86 -54s68 13 85 54c4 8 10 12 17 12zM286 558c97 0 150 -12 186 -55
c37 -43 47 -103 48 -216v-30c0 -20 -7 -27 -34 -27h-317c1 -53 10 -88 26 -105c17 -17 49 -25 98 -25h171c10 0 15 -5 15 -15v-62c0 -9 -5 -15 -14 -17c-49 -7 -108 -11 -179 -11c-97 0 -161 18 -192 55s-47 113 -47 226s15 189 46 226s96 56 193 56zM286 453
c-47 0 -78 -9 -93 -28c-15 -18 -23 -54 -24 -108h229c-1 54 -8 90 -23 108c-15 19 -44 28 -89 28z" />
    <glyph glyph-name="Ugrave" unicode="&#x116;" horiz-adv-x="639" 
d="M327 959c47 0 71 -23 71 -68c0 -46 -24 -69 -71 -69c-49 0 -73 23 -73 69c0 45 24 68 73 68zM92 765h484c11 0 16 -5 16 -15v-82c0 -10 -5 -15 -16 -15h-370v-224h338c10 0 15 -5 15 -15v-79c0 -10 -5 -15 -15 -15h-338v-208h370c11 0 16 -5 16 -15v-82
c0 -10 -5 -15 -16 -15h-484c-10 0 -15 5 -15 15v735c0 10 5 15 15 15z" />
    <glyph glyph-name="dotlessi" unicode="&#x117;" horiz-adv-x="558" 
d="M285 759c47 0 71 -23 71 -68c0 -46 -24 -69 -71 -69c-49 0 -73 23 -73 69c0 45 24 68 73 68zM286 558c97 0 150 -12 186 -55c37 -43 47 -103 48 -216v-30c0 -20 -7 -27 -34 -27h-317c1 -53 10 -88 26 -105c17 -17 49 -25 98 -25h171c10 0 15 -5 15 -15v-62
c0 -9 -5 -15 -14 -17c-49 -7 -108 -11 -179 -11c-97 0 -161 18 -192 55s-47 113 -47 226s15 189 46 226s96 56 193 56zM286 453c-47 0 -78 -9 -93 -28c-15 -18 -23 -54 -24 -108h229c-1 54 -8 90 -23 108c-15 19 -44 28 -89 28z" />
    <glyph glyph-name="circumflex" unicode="&#x118;" horiz-adv-x="639" 
d="M92 765h484c11 0 16 -5 16 -15v-82c0 -10 -5 -15 -16 -15h-370v-224h338c10 0 15 -5 15 -15v-79c0 -10 -5 -15 -15 -15h-338v-208h370c11 0 16 -5 16 -15v-82c0 -10 -5 -15 -16 -15h-89c-5 -28 -8 -46 -8 -55c0 -25 12 -29 51 -29h36c9 0 14 -5 14 -14v-47
c0 -9 -4 -15 -12 -18c-13 -5 -36 -8 -69 -8c-68 0 -99 21 -99 77c0 25 5 56 16 94h-324c-10 0 -15 5 -15 15v735c0 10 5 15 15 15z" />
    <glyph glyph-name="tilde.001" unicode="&#x119;" horiz-adv-x="558" 
d="M286 558c97 0 150 -12 186 -55c37 -43 47 -103 48 -216v-30c0 -20 -7 -27 -34 -27h-317c1 -53 10 -88 26 -105c17 -17 49 -25 98 -25h171c10 0 15 -5 15 -15v-62c0 -9 -5 -15 -14 -17c-26 -4 -47 -6 -64 -7c-5 -27 -8 -45 -8 -54c0 -25 12 -29 51 -29h36
c9 0 14 -5 14 -14v-47c0 -9 -4 -15 -12 -18c-13 -5 -36 -8 -69 -8c-34 0 -59 6 -75 18c-31 23 -28 85 -9 149l-43 -1c-97 0 -161 18 -192 55s-47 113 -47 226s15 189 46 226s96 56 193 56zM286 453c-47 0 -78 -9 -93 -28c-15 -18 -23 -54 -24 -108h229c-1 54 -8 90 -23 108
c-15 19 -44 28 -89 28z" />
    <glyph glyph-name="overscore" unicode="&#x11a;" horiz-adv-x="639" 
d="M441 972l24 -14c7 -5 8 -10 3 -15l-92 -127c-3 -5 -9 -8 -18 -8h-63c-9 0 -15 3 -18 8l-93 127c-5 6 -3 11 4 15l24 14c5 3 11 3 16 0l99 -74l98 74c5 4 10 4 16 0zM92 765h484c11 0 16 -5 16 -15v-82c0 -10 -5 -15 -16 -15h-370v-224h338c10 0 15 -5 15 -15v-79
c0 -10 -5 -15 -15 -15h-338v-208h370c11 0 16 -5 16 -15v-82c0 -10 -5 -15 -16 -15h-484c-10 0 -15 5 -15 15v735c0 10 5 15 15 15z" />
    <glyph glyph-name="breve" unicode="&#x11b;" horiz-adv-x="558" 
d="M399 772l24 -14c7 -5 8 -10 3 -15l-92 -127c-3 -5 -9 -8 -18 -8h-63c-9 0 -15 3 -18 8l-92 127c-5 5 -4 10 3 15l24 14c5 3 11 3 16 0l99 -74l98 74c5 3 11 3 16 0zM286 558c97 0 150 -12 186 -55c37 -43 47 -103 48 -216v-30c0 -20 -7 -27 -34 -27h-317
c1 -53 10 -88 26 -105c17 -17 49 -25 98 -25h171c10 0 15 -5 15 -15v-62c0 -9 -5 -15 -14 -17c-49 -7 -108 -11 -179 -11c-97 0 -161 18 -192 55s-47 113 -47 226s15 189 46 226s96 56 193 56zM286 453c-47 0 -78 -9 -93 -28c-15 -18 -23 -54 -24 -108h229
c-1 54 -8 90 -23 108c-15 19 -44 28 -89 28z" />
    <glyph glyph-name="dotaccent" unicode="&#x11c;" horiz-adv-x="674" 
d="M317 975h63c9 0 15 -3 18 -8l92 -127c5 -5 4 -10 -3 -15l-24 -14c-5 -3 -11 -3 -16 0l-98 74l-99 -74c-5 -3 -11 -3 -16 0l-24 14c-7 5 -8 10 -3 15l92 127c3 5 9 8 18 8zM365 770c91 0 158 -4 203 -12c12 -2 18 -9 18 -21v-63c0 -11 -5 -16 -15 -16h-206
c-76 0 -126 -19 -149 -56s-34 -110 -34 -220c0 -109 11 -183 34 -220s73 -55 149 -55h139v254c0 11 5 16 15 16h91c10 0 15 -5 15 -16v-291c0 -10 -1 -17 -4 -22c-18 -35 -103 -53 -256 -53c-127 0 -201 21 -250 82c-48 61 -63 150 -63 305s15 244 63 305
c49 63 122 83 250 83z" />
    <glyph glyph-name="ring.001" unicode="&#x11d;" horiz-adv-x="590" 
d="M264 775h63c9 0 15 -3 18 -8l93 -127c4 -5 3 -10 -4 -15l-24 -14c-5 -3 -11 -3 -16 0l-98 74l-99 -74c-5 -4 -10 -4 -16 0l-24 14c-7 5 -8 10 -3 15l92 127c3 5 9 8 18 8zM294 558c81 0 152 -6 213 -18c13 -1 19 -8 19 -20v-488c0 -75 -6 -118 -26 -158
c-27 -57 -93 -79 -212 -79c-60 0 -115 4 -164 11c-9 2 -14 7 -14 16v59c0 10 5 15 15 15h156c49 0 82 7 99 22c17 14 25 41 25 81v5c-37 -6 -79 -9 -128 -9c-92 0 -153 19 -184 58s-46 115 -46 228c0 111 16 184 48 221c33 37 99 56 199 56zM405 107v346h-115
c-53 0 -86 -11 -100 -34s-21 -70 -21 -142c0 -73 7 -121 22 -143s50 -33 105 -33c45 0 81 2 109 6z" />
    <glyph glyph-name="cedilla" unicode="&#x11e;" horiz-adv-x="674" 
d="M449 965h45c11 0 16 -5 14 -16c-7 -49 -23 -82 -46 -101c-23 -18 -62 -27 -116 -27s-93 9 -116 27c-23 19 -39 52 -46 101c-2 11 3 16 14 16h45c9 0 14 -4 17 -12c17 -41 38 -54 86 -54s69 13 86 54c3 8 8 12 17 12zM365 770c91 0 158 -4 203 -12c12 -2 18 -9 18 -21v-63
c0 -11 -5 -16 -15 -16h-206c-76 0 -126 -19 -149 -56s-34 -110 -34 -220c0 -109 11 -183 34 -220s73 -55 149 -55h139v254c0 11 5 16 15 16h91c10 0 15 -5 15 -16v-291c0 -10 -1 -17 -4 -22c-18 -35 -103 -53 -256 -53c-127 0 -201 21 -250 82c-48 61 -63 150 -63 305
s15 244 63 305c49 63 122 83 250 83z" />
    <glyph glyph-name="hungarumlaut" unicode="&#x11f;" horiz-adv-x="590" 
d="M399 765h44c11 0 16 -5 14 -16c-7 -49 -22 -82 -45 -101c-23 -18 -62 -27 -116 -27s-93 9 -117 27c-23 19 -38 52 -45 101c-2 11 3 16 14 16h45c9 0 14 -4 17 -12c17 -41 38 -54 86 -54s67 13 86 54c3 8 9 12 17 12zM294 558c81 0 152 -6 213 -18c13 -1 19 -8 19 -20
v-488c0 -75 -6 -118 -26 -158c-27 -57 -93 -79 -212 -79c-60 0 -115 4 -164 11c-9 2 -14 7 -14 16v59c0 10 5 15 15 15h156c49 0 82 7 99 22c17 14 25 41 25 81v5c-37 -6 -79 -9 -128 -9c-92 0 -153 19 -184 58s-46 115 -46 228c0 111 16 184 48 221c33 37 99 56 199 56z
M405 107v346h-115c-53 0 -86 -11 -100 -34s-21 -70 -21 -142c0 -73 7 -121 22 -143s50 -33 105 -33c45 0 81 2 109 6z" />
    <glyph glyph-name="ogonek.001" unicode="&#x120;" horiz-adv-x="674" 
d="M347 959c47 0 71 -23 71 -68c0 -46 -24 -69 -71 -69c-49 0 -73 23 -73 69c0 45 24 68 73 68zM365 770c91 0 158 -4 203 -12c12 -2 18 -9 18 -21v-63c0 -11 -5 -16 -15 -16h-206c-76 0 -126 -19 -149 -56s-34 -110 -34 -220c0 -109 11 -183 34 -220s73 -55 149 -55h139
v254c0 11 5 16 15 16h91c10 0 15 -5 15 -16v-291c0 -10 -1 -17 -4 -22c-18 -35 -103 -53 -256 -53c-127 0 -201 21 -250 82c-48 61 -63 150 -63 305s15 244 63 305c49 63 122 83 250 83z" />
    <glyph glyph-name="caron" unicode="&#x121;" horiz-adv-x="590" 
d="M296 759c47 0 71 -23 71 -68c0 -46 -24 -69 -71 -69c-49 0 -73 23 -73 69c0 45 24 68 73 68zM294 558c81 0 152 -6 213 -18c13 -1 19 -8 19 -20v-488c0 -75 -6 -118 -26 -158c-27 -57 -93 -79 -212 -79c-60 0 -115 4 -164 11c-9 2 -14 7 -14 16v59c0 10 5 15 15 15h156
c49 0 82 7 99 22c17 14 25 41 25 81v5c-37 -6 -79 -9 -128 -9c-92 0 -153 19 -184 58s-46 115 -46 228c0 111 16 184 48 221c33 37 99 56 199 56zM405 107v346h-115c-53 0 -86 -11 -100 -34s-21 -70 -21 -142c0 -73 7 -121 22 -143s50 -33 105 -33c45 0 81 2 109 6z" />
    <glyph glyph-name="Lslash" unicode="&#x122;" horiz-adv-x="674" 
d="M365 770c91 0 158 -4 203 -12c12 -2 18 -9 18 -21v-63c0 -11 -5 -16 -15 -16h-206c-76 0 -126 -19 -149 -56s-34 -110 -34 -220c0 -109 11 -183 34 -220s73 -55 149 -55h139v254c0 11 5 16 15 16h91c10 0 15 -5 15 -16v-291c0 -10 -1 -17 -4 -22
c-18 -35 -103 -53 -256 -53c-127 0 -201 21 -250 82c-48 61 -63 150 -63 305s15 244 63 305c49 63 122 83 250 83zM314 -39h100c7 0 10 -3 10 -10v-7c0 -6 -2 -10 -5 -12l-142 -126c-5 -4 -9 -4 -14 0l-27 17c-5 3 -6 8 -3 14l69 118c2 4 6 6 12 6z" />
    <glyph glyph-name="lslash" unicode="&#x123;" horiz-adv-x="590" 
d="M397 768l27 -17c5 -4 6 -9 3 -14l-69 -118c-2 -4 -6 -6 -12 -6h-100c-7 0 -10 3 -10 10v7c0 5 2 9 5 12l142 126c4 3 9 3 14 0zM294 558c81 0 152 -6 213 -18c13 -1 19 -8 19 -20v-488c0 -75 -6 -118 -26 -158c-27 -57 -93 -79 -212 -79c-60 0 -115 4 -164 11
c-9 2 -14 7 -14 16v59c0 10 5 15 15 15h156c49 0 82 7 99 22c17 14 25 41 25 81v5c-37 -6 -79 -9 -128 -9c-92 0 -153 19 -184 58s-46 115 -46 228c0 111 16 184 48 221c33 37 99 56 199 56zM405 107v346h-115c-53 0 -86 -11 -100 -34s-21 -70 -21 -142
c0 -73 7 -121 22 -143s50 -33 105 -33c45 0 81 2 109 6z" />
    <glyph glyph-name="Scaron.001" unicode="&#x124;" horiz-adv-x="781" 
d="M366 975h64c8 0 14 -3 18 -8l92 -127c5 -5 4 -10 -3 -15l-25 -14c-5 -4 -10 -4 -16 0l-98 74l-98 -74c-6 -4 -11 -4 -16 0l-25 14c-7 5 -8 10 -3 15l92 127c4 5 10 8 18 8zM590 765h99c10 0 15 -5 15 -15v-734c0 -11 -5 -16 -15 -16h-99c-10 0 -15 5 -15 16v313h-369
v-313c0 -11 -5 -16 -15 -16h-99c-10 0 -15 5 -15 16v734c0 10 5 15 15 15h99c10 0 15 -5 15 -15v-308h369v308c0 10 5 15 15 15z" />
    <glyph glyph-name="scaron.001" unicode="&#x125;" horiz-adv-x="600" 
d="M89 962h64c8 0 14 -3 18 -8l92 -126c5 -6 4 -11 -3 -16l-25 -14c-5 -4 -10 -4 -16 0l-98 74l-98 -74c-6 -4 -11 -4 -16 0l-25 14c-7 5 -8 10 -3 16l92 126c3 5 9 8 18 8zM79 764h91c10 0 15 -5 15 -15v-196c29 3 68 5 117 5c100 0 147 -6 186 -41c40 -33 50 -89 50 -196
v-306c0 -10 -5 -15 -15 -15h-91c-10 0 -15 5 -15 15v284c0 76 -3 112 -24 133s-40 22 -93 22h-115v-439c0 -10 -5 -15 -15 -15h-92c-9 0 -14 5 -14 15v734c0 10 5 15 15 15z" />
    <glyph glyph-name="Zcaron" unicode="&#x126;" horiz-adv-x="791" 
d="M709 750v-84h46c10 0 15 -5 15 -15v-38c0 -10 -5 -15 -15 -15h-46v-582c0 -11 -5 -16 -15 -16h-98c-10 0 -15 5 -15 16v313h-370v-313c0 -11 -5 -16 -15 -16h-98c-10 0 -15 5 -15 16v582h-47c-10 0 -15 5 -15 15v38c0 10 5 15 15 15h47v84c0 10 5 15 15 15h98
c10 0 15 -5 15 -15v-84h370v84c0 10 5 15 15 15h98c10 0 15 -5 15 -15zM211 442h370v156h-370v-156z" />
    <glyph glyph-name="zcaron" unicode="&#x127;" horiz-adv-x="600" 
d="M303 558c100 0 147 -6 186 -41c40 -33 50 -89 50 -196v-306c0 -10 -5 -15 -15 -15h-91c-10 0 -15 5 -15 15v284c0 76 -3 112 -24 133s-40 22 -93 22h-115v-439c0 -10 -5 -15 -15 -15h-92c-9 0 -14 5 -14 15v616h-60c-10 0 -15 5 -15 15v32c0 10 5 15 15 15h60v56
c0 10 5 15 15 15h91c10 0 15 -5 15 -15v-56h133c10 0 15 -5 15 -15v-32c0 -10 -5 -15 -15 -15h-133v-78c29 3 68 5 117 5z" />
    <glyph glyph-name="brokenbar" unicode="&#x128;" horiz-adv-x="282" 
d="M65 958c17 0 42 -7 75 -20s54 -20 64 -20c24 0 34 7 45 34c5 9 12 13 19 10l33 -9c9 -4 13 -11 10 -22c-23 -83 -44 -105 -99 -105c-17 0 -42 7 -75 20s-54 20 -64 20c-23 0 -33 -7 -45 -34c-4 -9 -10 -13 -19 -10l-32 8c-10 4 -14 11 -11 22c24 83 46 106 99 106z
M91 765h98c10 0 15 -5 15 -15v-734c0 -11 -5 -16 -15 -16h-98c-10 0 -15 5 -15 16v734c0 10 5 15 15 15z" />
    <glyph glyph-name="Eth" unicode="&#x129;" horiz-adv-x="251" 
d="M51 758c18 0 43 -7 76 -20s54 -20 63 -20c24 0 34 7 46 34c4 9 10 13 18 10l33 -9c9 -3 13 -11 11 -22c-24 -83 -44 -105 -99 -105c-18 0 -43 7 -76 20s-54 20 -63 20c-24 0 -34 -7 -46 -34c-4 -9 -10 -13 -18 -10l-33 8c-9 3 -13 11 -11 22c24 83 46 106 99 106zM80 553
h91c10 0 15 -5 15 -15v-523c0 -10 -5 -15 -15 -15h-91c-10 0 -15 5 -15 15v523c0 10 5 15 15 15z" />
    <glyph glyph-name="eth" unicode="&#x12a;" horiz-adv-x="282" 
d="M3 922h273c10 0 15 -5 15 -15v-51c0 -10 -5 -15 -15 -15h-273c-10 0 -15 5 -15 15v51c0 10 5 15 15 15zM92 765h98c10 0 15 -5 15 -15v-734c0 -11 -5 -16 -15 -16h-98c-10 0 -15 5 -15 16v734c0 10 5 15 15 15z" />
    <glyph glyph-name="Yacute" unicode="&#x12b;" horiz-adv-x="251" 
d="M-11 722h273c10 0 15 -5 15 -15v-51c0 -10 -5 -15 -15 -15h-273c-10 0 -15 5 -15 15v51c0 10 5 15 15 15zM80 553h91c10 0 15 -5 15 -15v-523c0 -10 -5 -15 -15 -15h-91c-10 0 -15 5 -15 15v523c0 10 5 15 15 15z" />
    <glyph glyph-name="yacute" unicode="&#x12e;" horiz-adv-x="282" 
d="M92 765h98c10 0 15 -5 15 -15v-734c0 -11 -5 -16 -15 -16h-44c-5 -23 -8 -42 -8 -55c0 -25 11 -29 51 -29h35c10 0 15 -5 15 -14v-47c0 -9 -4 -15 -12 -18c-13 -5 -36 -8 -70 -8c-68 0 -98 21 -98 77c0 25 6 58 18 100v744c0 10 5 15 15 15z" />
    <glyph glyph-name="Thorn" unicode="&#x12f;" horiz-adv-x="251" 
d="M198 691c0 -46 -24 -69 -72 -69s-72 23 -72 69c0 45 24 68 72 68s72 -23 72 -68zM80 553h91c10 0 15 -5 15 -15v-523c0 -10 -5 -15 -15 -15h-37c-5 -23 -8 -42 -8 -55c0 -25 11 -29 51 -29h35c10 0 15 -5 15 -14v-47c0 -9 -4 -15 -12 -18c-13 -5 -36 -8 -70 -8
c-68 0 -98 21 -98 77c0 27 6 61 18 100v532c0 10 5 15 15 15z" />
    <glyph glyph-name="thorn" unicode="&#x130;" horiz-adv-x="282" 
d="M140 959c47 0 71 -23 71 -68c0 -46 -24 -69 -71 -69c-49 0 -73 23 -73 69c0 45 24 68 73 68zM92 765h98c10 0 15 -5 15 -15v-734c0 -11 -5 -16 -15 -16h-98c-10 0 -15 5 -15 16v734c0 10 5 15 15 15z" />
    <glyph glyph-name="minus.001" unicode="&#x131;" horiz-adv-x="251" 
d="M80 553h91c10 0 15 -5 15 -15v-523c0 -10 -5 -15 -15 -15h-91c-10 0 -15 5 -15 15v523c0 10 5 15 15 15z" />
    <glyph glyph-name="multiply" unicode="&#x132;" horiz-adv-x="863" 
d="M92 765h98c10 0 15 -5 15 -15v-734c0 -11 -5 -16 -15 -16h-98c-10 0 -15 5 -15 16v734c0 10 5 15 15 15zM436 765h342c10 0 15 -5 15 -15v-373c0 -149 -22 -250 -66 -303s-129 -79 -255 -79c-53 0 -105 4 -155 12c-13 2 -19 9 -19 21v64c0 10 5 15 15 15h159
c79 0 131 18 156 55s37 108 36 215v276h-228c-10 0 -15 5 -15 15v82c0 10 5 15 15 15z" />
    <glyph glyph-name="onesuperior" unicode="&#x133;" horiz-adv-x="506" 
d="M126 780c48 0 72 -23 72 -69s-24 -69 -72 -69c-47 0 -73 25 -73 69s26 69 73 69zM80 553h91c10 0 15 -5 15 -15v-523c0 -10 -5 -15 -15 -15h-91c-10 0 -15 5 -15 15v523c0 10 5 15 15 15zM381 780c45 0 72 -25 72 -69s-27 -69 -72 -69c-47 0 -73 25 -73 69s26 69 73 69z
M335 553h91c10 0 15 -5 15 -15v-638c0 -45 -13 -75 -38 -88s-48 -16 -87 -16c-31 0 -53 2 -68 6c-10 2 -15 8 -15 18v67c0 9 5 14 16 14h24c41 0 47 5 47 44v593c0 10 5 15 15 15z" />
    <glyph glyph-name="twosuperior" unicode="&#x134;" horiz-adv-x="574" 
d="M280 975h63c9 0 15 -3 19 -8l92 -127c5 -6 3 -11 -4 -15l-24 -14c-5 -3 -11 -3 -16 0l-98 74l-99 -74c-5 -4 -10 -4 -16 0l-24 14c-7 5 -8 10 -3 15l92 127c3 5 9 8 18 8zM147 765h342c10 0 15 -5 15 -15v-373c0 -149 -22 -250 -66 -303s-129 -79 -255 -79
c-53 0 -105 4 -155 12c-13 2 -19 9 -19 21v64c0 10 5 15 15 15h159c79 0 131 18 156 55s37 108 36 215v276h-228c-10 0 -15 5 -15 15v82c0 10 5 15 15 15z" />
    <glyph glyph-name="threesuperior" unicode="&#x135;" horiz-adv-x="256" 
d="M96 775h63c9 0 15 -3 19 -8l92 -127c5 -5 4 -10 -3 -15l-25 -14c-5 -4 -10 -4 -16 0l-98 74l-98 -74c-6 -4 -11 -4 -16 0l-25 14c-7 5 -8 10 -3 15l92 127c3 5 9 8 18 8zM84 553h92c10 0 15 -5 15 -15v-638c0 -45 -13 -75 -38 -88s-48 -16 -87 -16c-31 0 -53 2 -68 6
c-10 2 -15 8 -15 18v67c0 9 5 14 16 14h24c41 0 46 4 46 44v593c0 10 5 15 15 15z" />
    <glyph glyph-name="onehalf" unicode="&#x136;" horiz-adv-x="649" 
d="M500 765h110c16 0 19 -6 9 -19l-279 -334l303 -385c11 -12 8 -27 -17 -27h-108c-11 0 -18 4 -22 11l-290 372v-368c0 -10 -5 -15 -15 -15h-99c-10 0 -15 5 -15 15v735c0 10 5 15 15 15h99c10 0 15 -5 15 -15v-316l273 321c5 7 12 10 21 10zM296 -39h100c7 0 10 -3 10 -10
v-7c0 -6 -2 -10 -5 -12l-142 -126c-5 -4 -9 -4 -14 0l-27 17c-5 3 -6 8 -3 14l69 118c2 4 6 6 12 6z" />
    <glyph glyph-name="onequarter" unicode="&#x137;" horiz-adv-x="531" 
d="M80 764h91c10 0 15 -5 15 -16v-388l154 183c5 7 12 10 21 10h108c17 0 20 -6 9 -19l-169 -199l220 -308c12 -18 6 -27 -17 -27h-97c-9 0 -16 4 -22 11l-207 297v-292c0 -11 -5 -16 -15 -16h-91c-10 0 -15 5 -15 16v732c0 11 5 16 15 16zM239 -39h100c7 0 10 -3 10 -10v-7
c0 -5 -2 -9 -5 -12l-143 -126c-4 -3 -9 -3 -14 0l-26 17c-5 3 -6 8 -3 14l69 118c2 4 6 6 12 6z" />
    <glyph glyph-name="threequarters" unicode="&#x138;" horiz-adv-x="560" 
d="M412 553h111c15 0 18 -6 7 -19l-202 -250l220 -264c11 -15 7 -22 -12 -22h-118c-9 0 -16 3 -21 10l-203 242v-235c0 -10 -5 -15 -15 -15h-99c-10 0 -15 5 -15 15v523c0 10 5 15 15 15h99c10 0 15 -5 15 -15v-237l197 242c5 7 12 10 21 10z" />
    <glyph glyph-name="franc" unicode="&#x139;" horiz-adv-x="582" 
d="M173 975h116c7 0 10 -3 10 -10v-7c0 -5 -2 -9 -5 -12l-158 -135c-5 -4 -9 -4 -14 0l-31 19c-5 3 -6 8 -3 14l73 125c2 4 6 6 12 6zM92 765h99c10 0 15 -5 15 -15v-638h346c10 0 15 -5 15 -15v-82c0 -10 -5 -15 -15 -15h-460c-10 0 -15 5 -15 15v735c0 10 5 15 15 15z" />
    <glyph glyph-name="Gbreve" unicode="&#x13a;" horiz-adv-x="252" 
d="M156 971h116c7 0 10 -3 10 -10v-7c0 -5 -2 -9 -5 -12l-158 -136c-4 -3 -9 -3 -14 0l-31 19c-5 4 -6 9 -3 14l73 126c2 4 6 6 12 6zM80 765h92c10 0 15 -5 15 -15v-735c0 -10 -5 -15 -15 -15h-92c-10 0 -15 5 -15 15v735c0 10 5 15 15 15z" />
    <glyph glyph-name="gbreve" unicode="&#x13b;" horiz-adv-x="582" 
d="M92 765h99c10 0 15 -5 15 -15v-638h346c10 0 15 -5 15 -15v-82c0 -10 -5 -15 -15 -15h-460c-10 0 -15 5 -15 15v735c0 10 5 15 15 15zM291 -39h100c7 0 10 -3 10 -10v-7c0 -6 -2 -10 -5 -12l-142 -126c-5 -4 -9 -4 -14 0l-27 17c-5 3 -6 8 -3 14l69 118c2 4 6 6 12 6z
" />
    <glyph glyph-name="Idot" unicode="&#x13c;" horiz-adv-x="251" 
d="M80 765h91c10 0 15 -5 15 -15v-735c0 -10 -5 -15 -15 -15h-91c-10 0 -15 5 -15 15v735c0 10 5 15 15 15zM73 -39h100c7 0 10 -3 10 -10v-7c0 -6 -2 -10 -5 -12l-142 -126c-5 -4 -9 -4 -14 0l-27 17c-5 3 -6 8 -3 14l69 118c2 4 6 6 12 6z" />
    <glyph glyph-name="Scedilla.001" unicode="&#x13d;" horiz-adv-x="582" 
d="M338 766h105c7 0 10 -3 10 -10v-7c0 -5 -2 -9 -5 -12l-113 -135c-3 -5 -8 -5 -14 0l-25 18c-4 3 -5 8 -4 15l33 124c1 5 5 7 13 7zM92 765h99c10 0 15 -5 15 -15v-638h346c10 0 15 -5 15 -15v-82c0 -10 -5 -15 -15 -15h-460c-10 0 -15 5 -15 15v735c0 10 5 15 15 15z" />
    <glyph glyph-name="scedilla.001" unicode="&#x13e;" horiz-adv-x="281" 
d="M277 766h105c7 0 10 -3 10 -10v-7c0 -5 -2 -9 -5 -12l-113 -135c-3 -5 -8 -5 -14 0l-25 18c-4 3 -5 8 -4 15l33 124c1 5 5 7 13 7zM80 765h91c10 0 15 -5 15 -15v-735c0 -10 -5 -15 -15 -15h-91c-10 0 -15 5 -15 15v735c0 10 5 15 15 15z" />
    <glyph glyph-name="Cacute" unicode="&#x13f;" horiz-adv-x="582" 
d="M92 765h99c10 0 15 -5 15 -15v-638h346c10 0 15 -5 15 -15v-82c0 -10 -5 -15 -15 -15h-460c-10 0 -15 5 -15 15v735c0 10 5 15 15 15zM465 354c0 -46 -24 -69 -72 -69s-72 23 -72 69c0 45 24 67 72 67s72 -22 72 -67z" />
    <glyph glyph-name="cacute" unicode="&#x140;" horiz-adv-x="373" 
d="M80 765h91c10 0 15 -5 15 -15v-735c0 -10 -5 -15 -15 -15h-91c-10 0 -15 5 -15 15v735c0 10 5 15 15 15zM384 354c0 -46 -24 -69 -72 -69s-72 23 -72 69c0 45 24 67 72 67s72 -22 72 -67z" />
    <glyph glyph-name="Ccaron" unicode="&#x141;" horiz-adv-x="601" 
d="M225 364v-252h346c10 0 15 -5 15 -15v-82c0 -10 -5 -15 -15 -15h-460c-10 0 -15 5 -15 15v275l-63 -36c-9 -6 -16 -4 -19 6l-18 30c-5 8 -4 15 5 20l95 55v385c0 10 5 15 15 15h99c10 0 15 -5 15 -15v-311l108 62c10 5 17 4 21 -5l18 -31c5 -8 3 -15 -6 -20z" />
    <glyph glyph-name="ccaron" unicode="&#x142;" horiz-adv-x="305" 
d="M100 765h91c10 0 15 -5 15 -15v-308l51 29c10 5 17 4 21 -5l17 -31c5 -8 3 -15 -6 -20l-83 -48v-352c0 -10 -5 -15 -15 -15h-91c-10 0 -15 5 -15 15v282l-41 -23c-9 -6 -16 -4 -19 6l-18 30c-5 8 -4 15 5 20l73 42v378c0 10 5 15 15 15z" />
    <glyph glyph-name="dslash" unicode="&#x143;" horiz-adv-x="779" 
d="M393 975h116c7 0 10 -3 10 -10v-7c0 -5 -2 -9 -5 -12l-158 -135c-4 -3 -9 -3 -14 0l-31 19c-5 3 -6 8 -3 14l73 125c2 4 6 6 12 6zM589 765h98c10 0 15 -5 15 -15v-734c0 -11 -5 -16 -15 -16h-77c-18 0 -32 7 -42 22l-362 539v-545c0 -11 -5 -16 -15 -16h-99
c-10 0 -15 5 -15 16v734c0 10 5 15 15 15h83c36 -1 43 -6 60 -31l339 -503v519c0 10 5 15 15 15z" />
    <glyph glyph-name="nacute" unicode="&#x144;" horiz-adv-x="599" 
d="M304 775h116c7 0 10 -3 10 -10v-7c0 -5 -2 -9 -5 -12l-158 -135c-5 -4 -9 -4 -14 0l-31 19c-5 3 -6 8 -3 14l73 125c2 4 6 6 12 6zM302 558c100 0 147 -6 186 -41c40 -33 50 -89 50 -196v-306c0 -10 -5 -15 -16 -15h-90c-10 0 -15 5 -15 15v284c0 76 -3 112 -24 132
c-11 11 -22 17 -34 19s-32 3 -59 3h-115v-438c0 -10 -5 -15 -15 -15h-92c-9 0 -14 5 -14 15v511c0 13 5 14 14 16c53 11 127 16 224 16z" />
    <glyph glyph-name="uni0145" unicode="&#x145;" horiz-adv-x="779" 
d="M589 765h98c10 0 15 -5 15 -15v-734c0 -11 -5 -16 -15 -16h-77c-18 0 -32 7 -42 22l-362 539v-545c0 -11 -5 -16 -15 -16h-99c-10 0 -15 5 -15 16v734c0 10 5 15 15 15h83c36 -1 43 -6 60 -31l339 -503v519c0 10 5 15 15 15zM344 -39h100c7 0 10 -3 10 -10v-7
c0 -6 -2 -10 -5 -12l-142 -126c-5 -4 -9 -4 -14 0l-27 17c-5 3 -6 8 -3 14l69 118c2 4 6 6 12 6z" />
    <glyph glyph-name="uni0146" unicode="&#x146;" horiz-adv-x="599" 
d="M302 558c100 0 147 -6 186 -41c40 -33 50 -89 50 -196v-306c0 -10 -5 -15 -16 -15h-90c-10 0 -15 5 -15 15v284c0 76 -3 112 -24 132c-11 11 -22 17 -34 19s-32 3 -59 3h-115v-438c0 -10 -5 -15 -15 -15h-92c-9 0 -14 5 -14 15v511c0 13 5 14 14 16c53 11 127 16 224 16z
M248 -39h100c7 0 10 -3 10 -10v-7c0 -6 -2 -10 -5 -12l-142 -126c-5 -4 -9 -4 -14 0l-27 17c-5 3 -6 8 -3 14l69 118c2 4 6 6 12 6z" />
    <glyph glyph-name="Ncaron" unicode="&#x147;" horiz-adv-x="779" 
d="M504 972l24 -14c7 -5 8 -10 3 -15l-92 -127c-3 -5 -9 -8 -18 -8h-63c-9 0 -15 3 -18 8l-92 127c-5 5 -4 10 3 15l24 14c5 3 11 3 16 0l99 -74l98 74c5 3 11 3 16 0zM589 765h98c10 0 15 -5 15 -15v-734c0 -11 -5 -16 -15 -16h-77c-18 0 -32 7 -42 22l-362 539v-545
c0 -11 -5 -16 -15 -16h-99c-10 0 -15 5 -15 16v734c0 10 5 15 15 15h83c36 -1 43 -6 60 -31l339 -503v519c0 10 5 15 15 15z" />
    <glyph glyph-name="ncaron" unicode="&#x148;" horiz-adv-x="599" 
d="M414 772l25 -14c7 -5 8 -10 3 -15l-92 -127c-3 -5 -9 -8 -18 -8h-63c-9 0 -15 3 -19 8l-92 127c-5 6 -3 11 4 15l24 14c5 4 10 4 16 0l98 -74l99 74c5 4 10 4 15 0zM302 558c100 0 147 -6 186 -41c40 -33 50 -89 50 -196v-306c0 -10 -5 -15 -16 -15h-90
c-10 0 -15 5 -15 15v284c0 76 -3 112 -24 132c-11 11 -22 17 -34 19s-32 3 -59 3h-115v-438c0 -10 -5 -15 -15 -15h-92c-9 0 -14 5 -14 15v511c0 13 5 14 14 16c53 11 127 16 224 16z" />
    <glyph glyph-name="napostrophe" unicode="&#x149;" horiz-adv-x="599" 
d="M24 766h105c7 0 10 -3 10 -10v-7c0 -5 -2 -9 -5 -12l-113 -135c-3 -5 -8 -5 -14 0l-25 18c-4 3 -5 8 -4 15l33 124c1 5 5 7 13 7zM302 558c100 0 147 -6 186 -41c40 -33 50 -89 50 -196v-306c0 -10 -5 -15 -16 -15h-90c-10 0 -15 5 -15 15v284c0 76 -3 112 -24 132
c-11 11 -22 17 -34 19s-32 3 -59 3h-115v-438c0 -10 -5 -15 -15 -15h-92c-9 0 -14 5 -14 15v511c0 13 5 14 14 16c53 11 127 16 224 16z" />
    <glyph glyph-name="Eng" unicode="&#x14a;" horiz-adv-x="778" 
d="M589 765h98c10 0 15 -5 15 -15v-571c0 -52 -1 -96 -4 -132c-5 -71 -21 -134 -46 -170c-38 -57 -108 -80 -224 -80c-34 0 -68 3 -101 10c-13 2 -19 9 -19 21v66c0 10 5 15 15 15h90c115 0 160 33 157 129l-364 523v-545c0 -11 -5 -16 -15 -16h-99c-10 0 -15 5 -15 16v734
c0 10 5 15 15 15h83c36 -1 43 -6 60 -31l339 -503v519c0 10 5 15 15 15z" />
    <glyph glyph-name="eng" unicode="&#x14b;" horiz-adv-x="599" 
d="M302 558c100 0 147 -6 186 -41c40 -33 50 -89 50 -196v-421c0 -85 -44 -104 -124 -104c-32 0 -55 2 -68 6c-11 2 -16 8 -16 18v67c0 9 6 14 17 14h24c41 0 46 4 46 44v354c0 76 -3 112 -24 132c-11 11 -22 17 -34 19s-32 3 -59 3h-115v-438c0 -10 -5 -15 -15 -15h-92
c-9 0 -14 5 -14 15v511c0 13 5 14 14 16c53 11 127 16 224 16z" />
    <glyph glyph-name="Omacron" unicode="&#x14c;" horiz-adv-x="732" 
d="M229 922h274c10 0 15 -5 15 -15v-51c0 -10 -5 -15 -15 -15h-274c-10 0 -15 5 -15 15v51c0 10 5 15 15 15zM366 770c128 0 202 -20 250 -83c49 -61 64 -151 64 -306s-15 -243 -64 -304c-48 -61 -122 -82 -250 -82c-127 0 -201 21 -250 82s-64 151 -64 304
c0 155 15 245 64 306c49 63 123 83 250 83zM182 381c0 -109 12 -182 35 -219s73 -55 149 -55s126 18 149 55c24 37 36 110 36 219s-12 183 -36 220c-23 38 -73 57 -149 57s-126 -19 -149 -57c-23 -37 -35 -111 -35 -220z" />
    <glyph glyph-name="omacron" unicode="&#x14d;" horiz-adv-x="581" 
d="M154 722h273c10 0 15 -5 15 -15v-51c0 -10 -5 -15 -15 -15h-273c-10 0 -15 5 -15 15v51c0 10 5 15 15 15zM534 276c0 -113 -16 -189 -48 -226c-31 -37 -97 -55 -196 -55s-165 18 -196 55s-47 113 -47 226c0 114 16 189 47 226s97 56 196 56s165 -19 196 -56
c32 -37 48 -112 48 -226zM390 419c-15 23 -48 34 -100 34s-85 -11 -100 -34s-22 -70 -22 -143s7 -120 22 -143c15 -22 48 -33 100 -33s85 11 100 33c15 23 22 70 22 143s-7 120 -22 143z" />
    <glyph glyph-name="Obreve" unicode="&#x14e;" horiz-adv-x="732" 
d="M469 965h45c11 0 16 -5 14 -16c-7 -49 -23 -82 -46 -101c-23 -18 -61 -27 -116 -27c-54 0 -93 9 -116 27c-23 19 -38 52 -45 101c-2 11 3 16 14 16h44c9 0 14 -4 17 -12c17 -41 38 -54 86 -54s69 13 86 54c3 8 8 12 17 12zM366 770c128 0 202 -20 250 -83
c49 -61 64 -151 64 -306s-15 -243 -64 -304c-48 -61 -122 -82 -250 -82c-127 0 -201 21 -250 82s-64 151 -64 304c0 155 15 245 64 306c49 63 123 83 250 83zM182 381c0 -109 12 -182 35 -219s73 -55 149 -55s126 18 149 55c24 37 36 110 36 219s-12 183 -36 220
c-23 38 -73 57 -149 57s-126 -19 -149 -57c-23 -37 -35 -111 -35 -220z" />
    <glyph glyph-name="obreve" unicode="&#x14f;" horiz-adv-x="581" 
d="M393 765h45c11 0 16 -5 14 -16c-7 -49 -23 -82 -46 -101c-23 -18 -61 -27 -116 -27c-54 0 -93 9 -116 27c-23 19 -38 52 -45 101c-2 11 3 16 14 16h44c9 0 14 -4 17 -12c17 -41 38 -54 86 -54c49 0 69 13 86 54c4 8 10 12 17 12zM534 276c0 -113 -16 -189 -48 -226
c-31 -37 -97 -55 -196 -55s-165 18 -196 55s-47 113 -47 226c0 114 16 189 47 226s97 56 196 56s165 -19 196 -56c32 -37 48 -112 48 -226zM390 419c-15 23 -48 34 -100 34s-85 -11 -100 -34s-22 -70 -22 -143s7 -120 22 -143c15 -22 48 -33 100 -33s85 11 100 33
c15 23 22 70 22 143s-7 120 -22 143z" />
    <glyph glyph-name="Ohungarumlaut" unicode="&#x150;" horiz-adv-x="732" 
d="M326 975h89c7 0 10 -3 10 -10v-7c0 -5 -2 -9 -5 -12l-142 -131c-5 -4 -9 -4 -14 0l-20 15c-5 4 -6 9 -3 14l73 125c2 4 6 6 12 6zM508 975h89c7 0 10 -3 10 -10v-7c0 -3 -2 -7 -5 -12l-142 -131c-5 -4 -9 -4 -14 0l-20 15c-5 4 -6 9 -3 14l73 125c2 4 6 6 12 6zM366 770
c128 0 202 -20 250 -83c49 -61 64 -151 64 -306s-15 -243 -64 -304c-48 -61 -122 -82 -250 -82c-127 0 -201 21 -250 82s-64 151 -64 304c0 155 15 245 64 306c49 63 123 83 250 83zM182 381c0 -109 12 -182 35 -219s73 -55 149 -55s126 18 149 55c24 37 36 110 36 219
s-12 183 -36 220c-23 38 -73 57 -149 57s-126 -19 -149 -57c-23 -37 -35 -111 -35 -220z" />
    <glyph glyph-name="ohungarumlaut" unicode="&#x151;" horiz-adv-x="581" 
d="M246 775h89c7 0 10 -3 10 -10v-7c0 -5 -2 -9 -5 -12l-142 -131c-5 -4 -9 -4 -14 0l-20 15c-5 4 -6 9 -3 14l73 125c2 4 6 6 12 6zM428 775h89c7 0 10 -3 10 -10v-7c0 -3 -2 -7 -5 -12l-142 -131c-5 -4 -9 -4 -14 0l-20 15c-5 4 -6 9 -3 14l73 125c2 4 6 6 12 6zM534 276
c0 -113 -16 -189 -48 -226c-31 -37 -97 -55 -196 -55s-165 18 -196 55s-47 113 -47 226c0 114 16 189 47 226s97 56 196 56s165 -19 196 -56c32 -37 48 -112 48 -226zM390 419c-15 23 -48 34 -100 34s-85 -11 -100 -34s-22 -70 -22 -143s7 -120 22 -143
c15 -22 48 -33 100 -33s85 11 100 33c15 23 22 70 22 143s-7 120 -22 143z" />
    <glyph glyph-name="OE.001" unicode="&#x152;" horiz-adv-x="1056" 
d="M366 770l348 -5h279c11 0 16 -5 16 -15v-82c0 -10 -5 -15 -16 -15h-366v-224h334c10 0 15 -5 15 -15v-79c0 -10 -5 -15 -15 -15h-334v-208h366c11 0 16 -5 16 -15v-82c0 -10 -5 -15 -16 -15l-627 -5c-128 -1 -202 19 -251 80c-48 63 -63 151 -63 306c0 156 15 245 63 308
c49 63 124 84 251 81zM499 107v551h-133c-76 0 -126 -19 -150 -57c-23 -37 -35 -111 -35 -220s12 -182 35 -219c24 -37 74 -55 150 -55h133z" />
    <glyph glyph-name="oe" unicode="&#x153;" horiz-adv-x="924" 
d="M652 558c94 0 156 -18 187 -54s46 -108 47 -217v-30c0 -20 -6 -27 -34 -27h-316c1 -53 10 -88 26 -105s49 -25 98 -25h170c10 0 15 -5 15 -15v-62c0 -9 -5 -15 -14 -17c-47 -7 -107 -11 -179 -11c-87 0 -146 17 -179 52c-33 -35 -94 -52 -183 -52c-99 0 -165 18 -196 55
s-47 113 -47 226c0 114 16 189 47 226s97 56 196 56c90 0 151 -17 183 -51c33 34 93 51 179 51zM390 419c-15 23 -48 34 -100 34s-85 -11 -100 -34s-22 -70 -22 -143s7 -120 22 -143c15 -22 48 -33 100 -33s85 11 100 33c15 23 22 70 22 143s-7 120 -22 143zM652 453
c-46 0 -77 -9 -92 -28c-15 -18 -24 -54 -25 -108h230c-1 54 -10 90 -25 108c-15 19 -44 28 -88 28z" />
    <glyph glyph-name="Racute" unicode="&#x154;" horiz-adv-x="676" 
d="M346 975h116c7 0 10 -3 10 -10v-7c0 -5 -2 -9 -5 -12l-158 -135c-4 -3 -9 -3 -14 0l-31 19c-5 3 -6 8 -3 14l73 125c2 4 6 6 12 6zM331 770c114 0 192 -17 234 -50s63 -100 63 -199c0 -77 -12 -133 -36 -167c-23 -33 -64 -55 -123 -64l169 -270c8 -11 3 -20 -12 -20h-93
c-21 0 -29 6 -40 22l-165 260l-122 -1v-266c0 -12 -3 -15 -15 -15h-99c-12 0 -15 3 -15 15v733c0 11 3 13 15 14c71 5 151 8 239 8zM319 658h-113v-274h113c79 0 111 2 142 21c31 20 37 50 37 113c0 59 -12 97 -35 114s-71 26 -144 26z" />
    <glyph glyph-name="racute" unicode="&#x155;" horiz-adv-x="384" 
d="M234 775h116c7 0 10 -3 10 -10v-7c0 -5 -2 -9 -5 -12l-158 -135c-4 -3 -9 -3 -14 0l-31 19c-5 3 -6 8 -3 14l73 125c2 4 6 6 12 6zM232 558c57 0 97 -4 122 -11c11 -3 16 -9 16 -18v-61c0 -11 -6 -16 -17 -15h-91c-61 0 -78 -10 -78 -54v-384c0 -10 -5 -15 -15 -15h-91
c-10 0 -15 5 -15 15v415c0 56 21 93 58 109s66 19 111 19z" />
    <glyph glyph-name="uni0156" unicode="&#x156;" horiz-adv-x="676" 
d="M331 770c114 0 192 -17 234 -50s63 -100 63 -199c0 -77 -12 -133 -36 -167c-23 -33 -64 -55 -123 -64l169 -270c8 -11 3 -20 -12 -20h-93c-21 0 -29 6 -40 22l-165 260l-122 -1v-266c0 -12 -3 -15 -15 -15h-99c-12 0 -15 3 -15 15v733c0 11 3 13 15 14c71 5 151 8 239 8z
M319 658h-113v-274h113c79 0 111 2 142 21c31 20 37 50 37 113c0 59 -12 97 -35 114s-71 26 -144 26zM305 -39h100c7 0 10 -3 10 -10v-7c0 -6 -2 -10 -5 -12l-142 -126c-5 -4 -9 -4 -14 0l-27 17c-5 3 -6 8 -3 14l69 118c2 4 6 6 12 6z" />
    <glyph glyph-name="uni0157" unicode="&#x157;" horiz-adv-x="384" 
d="M232 558c57 0 97 -4 122 -11c11 -3 16 -9 16 -18v-61c0 -11 -6 -16 -17 -15h-91c-61 0 -78 -10 -78 -54v-384c0 -10 -5 -15 -15 -15h-91c-10 0 -15 5 -15 15v415c0 56 21 93 58 109s66 19 111 19zM71 -39h100c7 0 10 -3 10 -10v-7c0 -6 -2 -10 -5 -12l-142 -126
c-5 -4 -9 -4 -14 0l-27 17c-5 3 -6 8 -3 14l69 118c2 4 6 6 12 6z" />
    <glyph glyph-name="Rcaron" unicode="&#x158;" horiz-adv-x="676" 
d="M452 972l25 -14c7 -5 8 -10 3 -15l-92 -127c-3 -5 -9 -8 -18 -8h-64c-8 0 -14 3 -18 8l-92 127c-5 5 -4 10 3 15l25 14c5 4 10 4 16 0l98 -74l98 74c6 4 11 4 16 0zM331 770c114 0 192 -17 234 -50s63 -100 63 -199c0 -77 -12 -133 -36 -167c-23 -33 -64 -55 -123 -64
l169 -270c8 -11 3 -20 -12 -20h-93c-21 0 -29 6 -40 22l-165 260l-122 -1v-266c0 -12 -3 -15 -15 -15h-99c-12 0 -15 3 -15 15v733c0 11 3 13 15 14c71 5 151 8 239 8zM319 658h-113v-274h113c79 0 111 2 142 21c31 20 37 50 37 113c0 59 -12 97 -35 114s-71 26 -144 26z
" />
    <glyph glyph-name="rcaron" unicode="&#x159;" horiz-adv-x="384" 
d="M305 772l24 -14c7 -5 8 -10 3 -15l-92 -127c-3 -5 -9 -8 -18 -8h-63c-9 0 -15 3 -18 8l-93 127c-4 5 -3 10 4 15l24 14c5 3 11 3 16 0l99 -74l98 74c5 4 10 4 16 0zM232 558c57 0 97 -4 122 -11c11 -3 16 -9 16 -18v-61c0 -11 -6 -16 -17 -15h-91c-61 0 -78 -10 -78 -54
v-384c0 -10 -5 -15 -15 -15h-91c-10 0 -15 5 -15 15v415c0 56 21 93 58 109s66 19 111 19z" />
    <glyph glyph-name="Sacute" unicode="&#x15a;" horiz-adv-x="613" 
d="M335 975h116c7 0 10 -3 10 -10v-7c0 -5 -2 -9 -5 -12l-158 -135c-5 -4 -9 -4 -14 0l-31 19c-5 3 -6 8 -3 14l73 125c2 4 6 6 12 6zM322 770c59 0 126 -6 201 -17c11 -2 16 -7 16 -16v-62c0 -11 -5 -17 -15 -17h-231c-75 0 -112 -26 -112 -77v-16c0 -44 16 -68 67 -89
l203 -81c93 -37 126 -88 126 -187v-31c0 -72 -27 -121 -80 -148c-52 -25 -110 -34 -195 -34c-82 0 -164 6 -246 18c-9 2 -14 8 -14 18v60c0 11 5 16 16 16h279c74 0 111 25 111 75v17c0 48 -18 73 -74 96l-216 85c-79 29 -106 86 -106 186v23c0 151 111 181 270 181z" />
    <glyph glyph-name="sacute" unicode="&#x15b;" horiz-adv-x="494" 
d="M266 775h116c7 0 10 -3 10 -10v-7c0 -5 -2 -9 -5 -12l-158 -135c-4 -3 -9 -3 -14 0l-31 19c-5 3 -6 8 -3 14l73 125c2 4 6 6 12 6zM264 558c57 0 109 -4 156 -11c10 -2 15 -7 15 -16v-59c0 -10 -5 -15 -16 -15h-184c-44 0 -66 -15 -66 -44v-12c0 -25 18 -45 55 -59
l131 -48c81 -31 102 -75 102 -146v-13c0 -108 -66 -140 -207 -140c-64 0 -129 3 -195 9c-10 1 -15 6 -15 15v62c0 11 5 16 16 16h194c68 0 88 8 88 43v10c0 25 -13 41 -57 57l-132 50c-67 24 -100 73 -100 147v20c0 101 76 134 215 134z" />
    <glyph glyph-name="Scircumflex" unicode="&#x15c;" horiz-adv-x="613" 
d="M276 975h63c9 0 15 -3 18 -8l93 -127c5 -6 3 -11 -4 -15l-24 -14c-5 -3 -11 -3 -16 0l-98 74l-99 -74c-5 -4 -10 -4 -16 0l-24 14c-7 5 -8 10 -3 15l92 127c3 5 9 8 18 8zM322 770c59 0 126 -6 201 -17c11 -2 16 -7 16 -16v-62c0 -11 -5 -17 -15 -17h-231
c-75 0 -112 -26 -112 -77v-16c0 -44 16 -68 67 -89l203 -81c93 -37 126 -88 126 -187v-31c0 -72 -27 -121 -80 -148c-52 -25 -110 -34 -195 -34c-82 0 -164 6 -246 18c-9 2 -14 8 -14 18v60c0 11 5 16 16 16h279c74 0 111 25 111 75v17c0 48 -18 73 -74 96l-216 85
c-79 29 -106 86 -106 186v23c0 151 111 181 270 181z" />
    <glyph glyph-name="scircumflex" unicode="&#x15d;" horiz-adv-x="494" 
d="M220 775h64c8 0 14 -3 18 -8l92 -127c5 -5 4 -10 -3 -15l-25 -14c-5 -4 -10 -4 -16 0l-98 74l-98 -74c-6 -4 -11 -4 -16 0l-25 14c-7 5 -8 10 -3 15l92 127c4 5 10 8 18 8zM264 558c57 0 109 -4 156 -11c10 -2 15 -7 15 -16v-59c0 -10 -5 -15 -16 -15h-184
c-44 0 -66 -15 -66 -44v-12c0 -25 18 -45 55 -59l131 -48c81 -31 102 -75 102 -146v-13c0 -108 -66 -140 -207 -140c-64 0 -129 3 -195 9c-10 1 -15 6 -15 15v62c0 11 5 16 16 16h194c68 0 88 8 88 43v10c0 25 -13 41 -57 57l-132 50c-67 24 -100 73 -100 147v20
c0 101 76 134 215 134z" />
    <glyph glyph-name="Scedilla" unicode="&#x15e;" horiz-adv-x="613" 
d="M322 770c59 0 126 -6 201 -17c11 -2 16 -7 16 -16v-62c0 -11 -5 -17 -15 -17h-231c-75 0 -112 -26 -112 -77v-16c0 -44 16 -68 67 -89l203 -81c93 -37 126 -88 126 -187v-31c0 -116 -70 -165 -194 -178c10 -35 15 -66 15 -93c0 -56 -30 -77 -98 -77c-33 0 -56 3 -69 8
c-8 3 -12 9 -12 18v47c0 9 5 14 14 14h36c35 0 50 1 50 29c0 11 -2 28 -6 50h-11c-81 0 -163 6 -245 18c-10 2 -15 8 -15 18v60c0 11 5 16 16 16h279c74 0 111 25 111 75v17c0 48 -18 73 -74 96l-216 85c-79 29 -106 86 -106 186v23c0 151 111 181 270 181z" />
    <glyph glyph-name="scedilla" unicode="&#x15f;" horiz-adv-x="494" 
d="M224 342l131 -48c81 -31 102 -75 102 -146v-13c0 -85 -43 -124 -130 -136c11 -37 16 -68 16 -93c0 -56 -31 -77 -99 -77c-33 0 -56 3 -69 8c-8 3 -12 9 -12 18v47c0 9 5 14 14 14h36c37 1 47 1 51 29c0 14 -2 31 -7 50h-7c-64 0 -129 3 -195 9c-10 1 -15 6 -15 15v62
c0 11 5 16 16 16h194c68 0 88 8 88 43v10c0 25 -13 41 -57 57l-132 50c-67 24 -100 73 -100 147v20c0 101 76 134 215 134c57 0 109 -4 156 -11c10 -2 15 -7 15 -16v-59c0 -10 -5 -15 -16 -15h-184c-44 0 -66 -15 -66 -44v-12c0 -25 18 -45 55 -59z" />
    <glyph glyph-name="Scaron" unicode="&#x160;" horiz-adv-x="613" 
d="M422 972l24 -14c7 -4 9 -9 4 -15l-93 -127c-3 -5 -9 -8 -18 -8h-63c-9 0 -15 3 -18 8l-92 127c-5 5 -4 10 3 15l24 14c6 4 11 4 16 0l99 -74l98 74c5 3 11 3 16 0zM322 770c59 0 126 -6 201 -17c11 -2 16 -7 16 -16v-62c0 -11 -5 -17 -15 -17h-231
c-75 0 -112 -26 -112 -77v-16c0 -44 16 -68 67 -89l203 -81c93 -37 126 -88 126 -187v-31c0 -72 -27 -121 -80 -148c-52 -25 -110 -34 -195 -34c-82 0 -164 6 -246 18c-9 2 -14 8 -14 18v60c0 11 5 16 16 16h279c74 0 111 25 111 75v17c0 48 -18 73 -74 96l-216 85
c-79 29 -106 86 -106 186v23c0 151 111 181 270 181z" />
    <glyph glyph-name="scaron" unicode="&#x161;" horiz-adv-x="494" 
d="M366 772l25 -14c7 -5 8 -10 3 -15l-92 -127c-4 -5 -10 -8 -18 -8h-64c-8 0 -14 3 -18 8l-92 127c-5 5 -4 10 3 15l25 14c5 4 10 4 16 0l98 -74l98 74c6 4 11 4 16 0zM264 558c57 0 109 -4 156 -11c10 -2 15 -7 15 -16v-59c0 -10 -5 -15 -16 -15h-184
c-44 0 -66 -15 -66 -44v-12c0 -25 18 -45 55 -59l131 -48c81 -31 102 -75 102 -146v-13c0 -108 -66 -140 -207 -140c-64 0 -129 3 -195 9c-10 1 -15 6 -15 15v62c0 11 5 16 16 16h194c68 0 88 8 88 43v10c0 25 -13 41 -57 57l-132 50c-67 24 -100 73 -100 147v20
c0 101 76 134 215 134z" />
    <glyph glyph-name="uni0162" unicode="&#x162;" horiz-adv-x="625" 
d="M30 765h565c10 0 15 -5 15 -15v-82c0 -10 -5 -15 -15 -15h-219v-638c12 -55 18 -92 18 -109c0 -56 -31 -77 -99 -77c-33 0 -56 3 -69 8c-8 3 -12 9 -12 18v47c0 9 5 14 14 14h36c37 1 47 1 51 29c0 9 -3 27 -8 55h-44c-10 0 -15 5 -15 15v638h-218c-10 0 -15 5 -15 15v82
c0 10 5 15 15 15z" />
    <glyph glyph-name="uni0163" unicode="&#x163;" horiz-adv-x="362" 
d="M280 100h44c11 0 17 -5 17 -14v-66c0 -10 -5 -16 -15 -18c-19 -3 -41 -6 -64 -7c10 -33 15 -63 15 -89c0 -28 -8 -48 -24 -59c-15 -12 -40 -18 -74 -18s-57 3 -70 8c-8 3 -12 9 -12 18v47c0 9 5 14 15 14h35c37 0 51 1 51 29c0 9 -2 26 -7 53c-60 8 -95 39 -95 119v341
h-57c-11 0 -16 5 -16 16v63c0 10 5 15 16 15h57v115c0 9 5 14 14 16l91 23c11 3 17 -1 17 -14v-140h99c11 0 16 -5 16 -15v-63c0 -11 -5 -16 -16 -16h-99v-305c0 -44 13 -53 62 -53z" />
    <glyph glyph-name="Tcaron" unicode="&#x164;" horiz-adv-x="625" 
d="M426 972l25 -14c7 -5 8 -10 3 -15l-92 -127c-3 -5 -9 -8 -18 -8h-64c-8 0 -14 3 -18 8l-92 127c-5 5 -4 10 3 15l25 14c5 4 10 4 16 0l98 -74l98 74c6 4 11 4 16 0zM30 765h565c10 0 15 -5 15 -15v-82c0 -10 -5 -15 -15 -15h-219v-638c0 -10 -5 -15 -15 -15h-98
c-10 0 -15 5 -15 15v638h-218c-10 0 -15 5 -15 15v82c0 10 5 15 15 15z" />
    <glyph glyph-name="tcaron" unicode="&#x165;" horiz-adv-x="383" 
d="M337 766h106c7 0 10 -3 10 -10v-7c0 -3 -2 -7 -5 -12l-113 -130c-3 -4 -8 -4 -14 -1l-25 14c-5 3 -6 8 -4 15l31 122c1 6 6 9 14 9zM110 683l91 23c11 3 17 -1 17 -14v-140h99c11 0 16 -5 16 -15v-63c0 -11 -5 -16 -16 -16h-99v-305c0 -44 13 -53 62 -53h44
c11 0 17 -5 17 -14v-66c0 -10 -5 -16 -15 -18c-26 -5 -50 -7 -71 -7c-40 0 -56 0 -89 8c-44 12 -66 41 -70 114v341h-57c-11 0 -16 5 -16 16v63c0 10 5 15 16 15h57v115c0 9 5 14 14 16z" />
    <glyph glyph-name="Tbar" unicode="&#x166;" horiz-adv-x="645" 
d="M40 765h565c10 0 15 -5 15 -15v-82c0 -10 -5 -15 -15 -15h-218v-224h153c10 0 15 -5 15 -15v-49c0 -10 -5 -15 -15 -15h-153v-335c0 -10 -5 -15 -15 -15h-99c-10 0 -15 5 -15 15v335h-153c-10 0 -15 5 -15 15v49c0 10 5 15 15 15h153v224h-218c-10 0 -15 5 -15 15v82
c0 10 5 15 15 15z" />
    <glyph glyph-name="tbar" unicode="&#x167;" horiz-adv-x="362" 
d="M280 100h44c11 0 17 -5 17 -14v-66c0 -10 -5 -16 -15 -18c-26 -5 -50 -7 -71 -7c-40 0 -56 0 -89 8c-44 12 -66 41 -70 114v146h-34c-10 0 -15 5 -15 15v45c0 10 5 15 15 15h34v120h-57c-11 0 -16 5 -16 16v63c0 10 5 15 16 15h57v115c0 9 5 14 14 16l91 23
c11 3 17 -1 17 -14v-140h99c11 0 16 -5 16 -15v-63c0 -11 -5 -16 -16 -16h-99v-120h75c10 0 15 -5 15 -15v-45c0 -10 -5 -15 -15 -15h-75v-110c0 -44 13 -53 62 -53z" />
    <glyph glyph-name="Utilde" unicode="&#x168;" horiz-adv-x="754" 
d="M303 958c17 0 42 -7 75 -20s55 -20 65 -20c23 0 33 7 45 34c4 9 10 13 18 10l33 -9c9 -3 13 -11 11 -22c-24 -83 -44 -105 -99 -105c-18 0 -43 7 -76 20s-54 20 -63 20c-24 0 -34 -7 -45 -34c-5 -9 -11 -13 -19 -10l-33 8c-9 3 -13 11 -11 22c24 83 46 106 99 106z
M571 765h98c10 0 15 -5 15 -15v-369c0 -160 -14 -248 -62 -309c-48 -60 -118 -77 -245 -77s-197 17 -245 77c-48 61 -62 149 -62 309v369c0 10 5 15 15 15h99c10 0 15 -5 15 -15v-369c0 -109 12 -182 35 -219c24 -37 72 -55 143 -55s119 18 143 55s36 110 36 219v369
c0 12 3 15 15 15z" />
    <glyph glyph-name="utilde" unicode="&#x169;" horiz-adv-x="600" 
d="M220 758c17 0 42 -7 75 -20s54 -20 64 -20c24 0 34 7 45 34c5 9 12 13 19 10l33 -9c9 -3 13 -11 11 -22c-24 -83 -44 -105 -99 -105c-17 0 -43 7 -76 20s-54 20 -64 20c-23 0 -33 -7 -45 -34c-4 -9 -10 -13 -18 -10l-33 8c-9 3 -13 11 -11 22c24 83 46 106 99 106z
M429 553h92c10 0 15 -5 15 -15v-510c0 -13 -5 -14 -15 -16c-56 -11 -130 -17 -223 -17c-100 0 -147 6 -187 41s-50 90 -50 197v305c0 10 6 15 17 15h90c9 0 14 -5 14 -15v-283c0 -76 3 -112 24 -133s40 -22 93 -22h115v438c0 10 5 15 15 15z" />
    <glyph glyph-name="Umacron" unicode="&#x16a;" horiz-adv-x="754" 
d="M240 922h273c10 0 15 -5 15 -15v-51c0 -10 -5 -15 -15 -15h-273c-10 0 -15 5 -15 15v51c0 10 5 15 15 15zM571 765h98c10 0 15 -5 15 -15v-369c0 -160 -14 -248 -62 -309c-48 -60 -118 -77 -245 -77s-197 17 -245 77c-48 61 -62 149 -62 309v369c0 10 5 15 15 15h99
c10 0 15 -5 15 -15v-369c0 -109 12 -182 35 -219c24 -37 72 -55 143 -55s119 18 143 55s36 110 36 219v369c0 12 3 15 15 15z" />
    <glyph glyph-name="umacron" unicode="&#x16b;" horiz-adv-x="600" 
d="M157 722h273c10 0 15 -5 15 -15v-51c0 -10 -5 -15 -15 -15h-273c-10 0 -15 5 -15 15v51c0 10 5 15 15 15zM429 553h92c10 0 15 -5 15 -15v-510c0 -13 -5 -14 -15 -16c-56 -11 -130 -17 -223 -17c-100 0 -147 6 -187 41s-50 90 -50 197v305c0 10 6 15 17 15h90
c9 0 14 -5 14 -15v-283c0 -76 3 -112 24 -133s40 -22 93 -22h115v438c0 10 5 15 15 15z" />
    <glyph glyph-name="Ubreve" unicode="&#x16c;" horiz-adv-x="754" 
d="M480 965h45c11 0 16 -5 14 -16c-7 -49 -22 -82 -46 -101c-23 -18 -62 -27 -116 -27s-93 9 -116 27c-23 19 -38 52 -45 101c-2 11 3 16 14 16h44c8 0 14 -4 17 -12c17 -41 38 -54 86 -54s69 13 86 54c3 8 9 12 17 12zM571 765h98c10 0 15 -5 15 -15v-369
c0 -160 -14 -248 -62 -309c-48 -60 -118 -77 -245 -77s-197 17 -245 77c-48 61 -62 149 -62 309v369c0 10 5 15 15 15h99c10 0 15 -5 15 -15v-369c0 -109 12 -182 35 -219c24 -37 72 -55 143 -55s119 18 143 55s36 110 36 219v369c0 12 3 15 15 15z" />
    <glyph glyph-name="ubreve" unicode="&#x16d;" horiz-adv-x="600" 
d="M397 765h45c11 0 16 -5 14 -16c-7 -49 -23 -82 -46 -101c-23 -18 -62 -27 -116 -27s-93 9 -116 27c-23 19 -39 52 -46 101c-2 11 3 16 14 16h45c9 0 14 -4 17 -12c17 -41 38 -54 86 -54s69 13 86 54c3 8 8 12 17 12zM429 553h92c10 0 15 -5 15 -15v-510
c0 -13 -5 -14 -15 -16c-56 -11 -130 -17 -223 -17c-100 0 -147 6 -187 41s-50 90 -50 197v305c0 10 6 15 17 15h90c9 0 14 -5 14 -15v-283c0 -76 3 -112 24 -133s40 -22 93 -22h115v438c0 10 5 15 15 15z" />
    <glyph glyph-name="Uring" unicode="&#x16e;" horiz-adv-x="754" 
d="M377 1023c75 0 112 -36 112 -108c0 -71 -37 -107 -112 -107c-74 0 -111 36 -111 107c0 72 37 108 111 108zM439 915c0 41 -21 62 -62 62s-62 -21 -62 -62s21 -62 62 -62s62 21 62 62zM571 765h98c10 0 15 -5 15 -15v-369c0 -160 -14 -248 -62 -309
c-48 -60 -118 -77 -245 -77s-197 17 -245 77c-48 61 -62 149 -62 309v369c0 10 5 15 15 15h99c10 0 15 -5 15 -15v-369c0 -109 12 -182 35 -219c24 -37 72 -55 143 -55s119 18 143 55s36 110 36 219v369c0 12 3 15 15 15z" />
    <glyph glyph-name="uring" unicode="&#x16f;" horiz-adv-x="600" 
d="M405 715c0 -71 -37 -107 -111 -107s-111 36 -111 107c0 72 37 108 111 108s111 -36 111 -108zM356 715c0 41 -21 62 -62 62s-62 -21 -62 -62s21 -62 62 -62s62 21 62 62zM429 553h92c10 0 15 -5 15 -15v-510c0 -13 -5 -14 -15 -16c-56 -11 -130 -17 -223 -17
c-100 0 -147 6 -187 41s-50 90 -50 197v305c0 10 6 15 17 15h90c9 0 14 -5 14 -15v-283c0 -76 3 -112 24 -133s40 -22 93 -22h115v438c0 10 5 15 15 15z" />
    <glyph glyph-name="Uhungarumlaut" unicode="&#x170;" horiz-adv-x="754" 
d="M309 975h88c7 0 10 -3 10 -10v-7c0 -5 -2 -9 -5 -12l-142 -131c-5 -4 -9 -4 -14 0l-19 15c-5 4 -6 9 -3 14l73 125c2 4 6 6 12 6zM491 975h88c7 0 10 -3 10 -10v-7c0 -5 -2 -9 -5 -12l-142 -131c-5 -4 -9 -4 -14 0l-19 15c-5 4 -6 9 -3 14l73 125c2 4 6 6 12 6zM571 765
h98c10 0 15 -5 15 -15v-369c0 -160 -14 -248 -62 -309c-48 -60 -118 -77 -245 -77s-197 17 -245 77c-48 61 -62 149 -62 309v369c0 10 5 15 15 15h99c10 0 15 -5 15 -15v-369c0 -109 12 -182 35 -219c24 -37 72 -55 143 -55s119 18 143 55s36 110 36 219v369
c0 12 3 15 15 15z" />
    <glyph glyph-name="uhungarumlaut" unicode="&#x171;" horiz-adv-x="600" 
d="M240 775h88c7 0 10 -3 10 -10v-7c0 -5 -2 -9 -5 -12l-142 -131c-5 -4 -9 -4 -14 0l-19 15c-5 4 -6 9 -3 14l73 125c2 4 6 6 12 6zM421 775h89c7 0 10 -3 10 -10v-7c0 -5 -2 -9 -5 -12l-142 -131c-5 -4 -9 -4 -14 0l-20 15c-5 4 -6 9 -3 14l73 125c2 4 6 6 12 6zM429 553
h92c10 0 15 -5 15 -15v-510c0 -13 -5 -14 -15 -16c-56 -11 -130 -17 -223 -17c-100 0 -147 6 -187 41s-50 90 -50 197v305c0 10 6 15 17 15h90c9 0 14 -5 14 -15v-283c0 -76 3 -112 24 -133s40 -22 93 -22h115v438c0 10 5 15 15 15z" />
    <glyph glyph-name="Uogonek" unicode="&#x172;" horiz-adv-x="754" 
d="M571 765h98c10 0 15 -5 15 -15v-369c0 -149 -13 -236 -54 -297c-40 -61 -102 -84 -209 -88c-5 -25 -8 -42 -8 -51c0 -25 12 -29 51 -29h36c9 0 14 -5 14 -14v-47c0 -9 -4 -15 -12 -18c-13 -5 -36 -8 -69 -8c-34 0 -59 6 -75 18c-31 23 -28 85 -9 148
c-111 3 -185 30 -223 83c-37 53 -56 154 -56 303v369c0 10 5 15 15 15h99c10 0 15 -5 15 -15v-369c0 -109 12 -182 35 -219c24 -37 72 -55 143 -55s119 18 143 55s36 110 36 219v369c0 12 3 15 15 15z" />
    <glyph glyph-name="uogonek" unicode="&#x173;" horiz-adv-x="600" 
d="M429 553h92c10 0 15 -5 15 -15v-510c0 -13 -5 -14 -15 -16c-27 -5 -50 -8 -70 -11c-5 -20 -8 -39 -8 -56c0 -25 11 -29 51 -29h35c10 0 15 -5 15 -14v-47c0 -9 -4 -15 -12 -18c-13 -5 -36 -8 -70 -8c-68 0 -98 21 -98 77c0 26 5 56 15 91c-21 -1 -48 -2 -81 -2
c-100 0 -147 6 -187 41s-50 90 -50 197v305c0 10 6 15 17 15h90c9 0 14 -5 14 -15v-283c0 -76 3 -112 24 -133s40 -22 93 -22h115v438c0 10 5 15 15 15z" />
    <glyph glyph-name="Wcircumflex" unicode="&#x174;" horiz-adv-x="1094" 
d="M515 975h63c9 0 15 -3 19 -8l92 -127c5 -6 3 -11 -4 -15l-24 -14c-5 -3 -11 -3 -16 0l-98 74l-99 -74c-5 -4 -10 -4 -16 0l-24 14c-7 5 -8 10 -3 15l92 127c3 5 9 8 18 8zM948 765h105c12 0 14 -3 13 -16l-130 -636c-11 -52 -24 -85 -40 -98s-49 -20 -100 -20
c-56 0 -92 6 -108 19c-15 13 -29 46 -42 99l-99 417l-99 -417c-33 -112 -30 -112 -151 -118c-50 0 -83 7 -99 20s-29 46 -40 98l-130 636c-1 13 1 16 13 16h104c9 0 11 -3 14 -16l118 -587c7 -35 13 -42 30 -42c20 0 24 6 35 42l137 558c3 11 9 16 19 16h98
c10 0 16 -5 19 -16l137 -558c9 -36 14 -42 35 -42c17 0 22 7 30 42l118 587c1 11 6 16 13 16z" />
    <glyph glyph-name="wcircumflex" unicode="&#x175;" horiz-adv-x="860" 
d="M398 775h64c8 0 14 -3 18 -8l92 -127c5 -5 4 -10 -3 -15l-25 -14c-5 -4 -10 -4 -16 0l-98 74l-98 -74c-6 -4 -11 -4 -16 0l-25 14c-7 5 -8 10 -3 15l92 127c4 5 10 8 18 8zM721 553h99c11 0 13 -3 12 -15l-87 -436c-9 -47 -22 -76 -38 -89c-15 -12 -45 -18 -89 -18
c-49 0 -81 6 -94 17s-26 41 -37 90l-57 252l-57 -252c-11 -49 -23 -79 -37 -90c-13 -11 -45 -17 -94 -17c-44 0 -74 6 -89 18c-15 13 -28 42 -38 89l-87 436c-1 10 3 15 12 15h99c8 0 9 -3 12 -15l76 -409c5 -25 10 -29 22 -29c13 0 15 2 22 29l95 393c2 10 7 15 14 15h100
c7 0 12 -5 15 -15l95 -393c5 -27 8 -29 21 -29s17 4 22 29l76 409c2 10 6 15 12 15z" />
    <glyph glyph-name="Ycircumflex" unicode="&#x176;" horiz-adv-x="685" 
d="M311 975h63c9 0 15 -3 18 -8l92 -127c5 -5 4 -10 -3 -15l-24 -14c-6 -4 -11 -4 -16 0l-99 74l-98 -74c-5 -3 -11 -3 -16 0l-24 14c-7 4 -9 9 -4 15l93 127c3 5 9 8 18 8zM560 765h109c15 0 19 -7 11 -22l-274 -504v-223c0 -11 -5 -16 -15 -16h-98c-10 0 -15 5 -15 16v224
l-273 503c-8 15 -4 22 11 22h108c12 0 21 -5 27 -16l191 -377l191 377c6 11 15 16 27 16z" />
    <glyph glyph-name="ycircumflex" unicode="&#x177;" horiz-adv-x="606" 
d="M274 775h63c9 0 15 -3 18 -8l92 -127c5 -5 4 -10 -3 -15l-25 -14c-5 -4 -10 -4 -15 0l-99 74l-98 -74c-6 -4 -11 -4 -16 0l-24 14c-7 4 -9 9 -4 15l92 127c4 5 10 8 19 8zM435 553h91c10 0 15 -5 15 -15v-506c0 -75 -6 -118 -26 -158c-27 -57 -93 -79 -212 -79
c-62 0 -118 4 -169 11c-9 2 -13 7 -13 16v59c0 10 5 15 14 15h161c49 0 82 7 99 22c17 14 25 41 25 81v5c-37 -6 -79 -9 -128 -9c-91 0 -153 19 -185 56c-31 37 -47 107 -47 209v278c0 10 5 15 15 15h91c10 0 15 -5 15 -15v-261c0 -73 8 -120 23 -143c16 -22 52 -33 107 -33
c45 0 81 2 109 6v431c0 10 5 15 15 15z" />
    <glyph glyph-name="Ydieresis" unicode="&#x178;" horiz-adv-x="685" 
d="M241 957c46 0 69 -22 69 -66c0 -45 -23 -67 -69 -67c-47 0 -70 22 -70 67c0 44 23 66 70 66zM513 891c0 -45 -23 -67 -69 -67s-69 22 -69 67c0 44 23 66 69 66s69 -22 69 -66zM560 765h109c15 0 19 -7 11 -22l-274 -504v-223c0 -11 -5 -16 -15 -16h-98
c-10 0 -15 5 -15 16v224l-273 503c-8 15 -4 22 11 22h108c12 0 21 -5 27 -16l191 -377l191 377c6 11 15 16 27 16z" />
    <glyph glyph-name="Zacute" unicode="&#x179;" horiz-adv-x="670" 
d="M337 975h117c7 0 10 -3 10 -10v-7c0 -3 -2 -7 -5 -12l-159 -135c-4 -3 -9 -3 -14 0l-31 19c-5 3 -6 8 -3 14l73 125c2 4 6 6 12 6zM57 765h557c10 0 15 -5 15 -15v-73c0 -6 -2 -12 -7 -19l-423 -546h423c11 0 16 -5 16 -15v-82c0 -10 -5 -15 -16 -15h-576
c-10 0 -15 5 -15 15l-1 72c0 7 2 13 7 19l423 547h-402c-11 0 -16 5 -16 14l-1 83c0 10 5 15 16 15z" />
    <glyph glyph-name="zacute" unicode="&#x17a;" horiz-adv-x="528" 
d="M267 775h116c7 0 10 -3 10 -10v-7c0 -5 -2 -9 -5 -12l-158 -135c-5 -4 -9 -4 -14 0l-31 19c-5 3 -6 8 -3 14l73 125c2 4 6 6 12 6zM59 553h409c11 0 16 -5 16 -15v-45c0 -6 -2 -12 -6 -18l-272 -370h273c11 0 17 -5 17 -15v-75c0 -10 -6 -15 -17 -15h-432
c-11 0 -16 5 -16 15v47c0 7 2 13 7 18l273 369h-252c-11 0 -16 5 -16 16v73c0 10 5 15 16 15z" />
    <glyph glyph-name="Zdotaccent" unicode="&#x17b;" horiz-adv-x="670" 
d="M334 959c47 0 71 -23 71 -68c0 -46 -24 -69 -71 -69c-48 0 -72 23 -72 69c0 45 24 68 72 68zM57 765h557c10 0 15 -5 15 -15v-73c0 -6 -2 -12 -7 -19l-423 -546h423c11 0 16 -5 16 -15v-82c0 -10 -5 -15 -16 -15h-576c-10 0 -15 5 -15 15l-1 72c0 7 2 13 7 19l423 547
h-402c-11 0 -16 5 -16 14l-1 83c0 10 5 15 16 15z" />
    <glyph glyph-name="zdotaccent" unicode="&#x17c;" horiz-adv-x="528" 
d="M335 691c0 -46 -24 -69 -72 -69s-72 23 -72 69c0 45 24 68 72 68s72 -23 72 -68zM59 553h409c11 0 16 -5 16 -15v-45c0 -6 -2 -12 -6 -18l-272 -370h273c11 0 17 -5 17 -15v-75c0 -10 -6 -15 -17 -15h-432c-11 0 -16 5 -16 15v47c0 7 2 13 7 18l273 369h-252
c-11 0 -16 5 -16 16v73c0 10 5 15 16 15z" />
    <glyph glyph-name="Zcaron.001" unicode="&#x17d;" horiz-adv-x="670" 
d="M448 972l24 -14c7 -4 9 -9 4 -15l-92 -127c-4 -5 -10 -8 -19 -8h-63c-9 0 -15 3 -18 8l-92 127c-5 5 -4 10 3 15l24 14c6 4 11 4 16 0l99 -74l98 74c5 3 11 3 16 0zM57 765h557c10 0 15 -5 15 -15v-73c0 -6 -2 -12 -7 -19l-423 -546h423c11 0 16 -5 16 -15v-82
c0 -10 -5 -15 -16 -15h-576c-10 0 -15 5 -15 15l-1 72c0 7 2 13 7 19l423 547h-402c-11 0 -16 5 -16 14l-1 83c0 10 5 15 16 15z" />
    <glyph glyph-name="zcaron.001" unicode="&#x17e;" horiz-adv-x="528" 
d="M377 772l25 -14c7 -5 8 -10 3 -15l-92 -127c-3 -5 -9 -8 -18 -8h-63c-9 0 -15 3 -19 8l-92 127c-5 6 -3 11 4 15l24 14c5 4 10 4 16 0l98 -74l99 74c5 4 10 4 15 0zM59 553h409c11 0 16 -5 16 -15v-45c0 -6 -2 -12 -6 -18l-272 -370h273c11 0 17 -5 17 -15v-75
c0 -10 -6 -15 -17 -15h-432c-11 0 -16 5 -16 15v47c0 7 2 13 7 18l273 369h-252c-11 0 -16 5 -16 16v73c0 10 5 15 16 15z" />
    <glyph glyph-name="florin" unicode="&#x192;" horiz-adv-x="580" 
d="M456 770c28 0 60 -3 96 -10c13 -2 18 -9 17 -20l-9 -62c-1 -9 -6 -13 -16 -13h-65c-52 0 -75 -10 -80 -50l-18 -129h114c10 0 15 -5 15 -15v-66c0 -10 -5 -15 -15 -15h-128l-38 -269c-8 -57 -31 -93 -68 -109c-37 -15 -62 -17 -106 -17c-31 0 -63 4 -96 11
c-13 1 -19 8 -17 19l8 63c1 11 4 12 15 12h66c53 0 76 10 81 50l34 240h-65c-11 0 -16 6 -16 19v63c0 9 5 14 15 14h80l22 159c8 56 31 92 67 107c37 15 63 18 107 18z" />
    <glyph glyph-name="uni01CD" unicode="&#x1cd;" horiz-adv-x="691" 
d="M458 972l25 -14c7 -5 8 -10 3 -15l-92 -127c-4 -5 -10 -8 -18 -8h-64c-8 0 -14 3 -18 8l-92 127c-5 5 -4 10 3 15l25 14c5 4 10 4 16 0l98 -74l98 74c6 4 11 4 16 0zM344 770c56 0 92 -6 109 -19s33 -45 48 -98l173 -637c2 -11 -2 -16 -12 -16h-102c-7 0 -11 5 -14 16
l-59 215h-285l-60 -215c-3 -11 -7 -16 -13 -16h-103c-10 0 -14 5 -12 16l178 637c15 52 30 84 47 97s52 20 105 20zM343 661c-23 0 -25 -4 -34 -41l-78 -281h227l-76 281c-9 37 -12 41 -39 41z" />
    <glyph glyph-name="uni01CE" unicode="&#x1ce;" horiz-adv-x="549" 
d="M384 772l25 -14c7 -5 8 -10 3 -15l-92 -127c-4 -5 -10 -8 -19 -8h-63c-9 0 -15 3 -18 8l-92 127c-5 5 -4 10 3 15l25 14c5 4 10 4 16 0l98 -74l98 74c6 4 11 4 16 0zM255 558c171 0 234 -52 234 -164v-348c0 -15 -7 -24 -20 -29c-51 -15 -126 -22 -225 -22
c-77 0 -131 11 -163 32c-32 22 -48 67 -48 135c0 121 59 159 190 159h145v52c0 56 -33 80 -113 80h-164c-12 0 -15 3 -15 15v61c0 12 3 13 14 16c47 9 102 13 165 13zM368 107v127h-138c-55 0 -77 -18 -77 -67c0 -56 25 -71 101 -71c48 0 86 4 114 11z" />
    <glyph glyph-name="uni01CF" unicode="&#x1cf;" horiz-adv-x="282" 
d="M253 972l24 -14c7 -4 9 -9 4 -15l-93 -127c-3 -5 -9 -8 -18 -8h-63c-9 0 -15 3 -18 8l-92 127c-5 5 -4 10 3 15l24 14c6 4 11 4 16 0l99 -74l98 74c5 3 11 3 16 0zM91 765h98c10 0 15 -5 15 -15v-734c0 -11 -5 -16 -15 -16h-98c-10 0 -15 5 -15 16v734c0 10 5 15 15 15z
" />
    <glyph glyph-name="uni01D0" unicode="&#x1d0;" horiz-adv-x="251" 
d="M239 772l25 -14c7 -5 8 -10 3 -15l-92 -127c-4 -5 -10 -8 -18 -8h-64c-8 0 -14 3 -18 8l-92 127c-5 5 -4 10 3 15l25 14c5 4 10 4 16 0l98 -74l98 74c6 4 11 4 16 0zM80 553h91c10 0 15 -5 15 -15v-523c0 -10 -5 -15 -15 -15h-91c-10 0 -15 5 -15 15v523c0 10 5 15 15 15
z" />
    <glyph glyph-name="uni01D1" unicode="&#x1d1;" horiz-adv-x="732" 
d="M481 972l24 -14c7 -5 8 -10 3 -15l-92 -127c-3 -5 -9 -8 -18 -8h-63c-9 0 -15 3 -19 8l-92 127c-5 6 -3 11 4 15l24 14c5 3 11 3 16 0l98 -74l99 74c5 4 10 4 16 0zM366 770c128 0 202 -20 250 -83c49 -61 64 -151 64 -306s-15 -243 -64 -304c-48 -61 -122 -82 -250 -82
c-127 0 -201 21 -250 82s-64 151 -64 304c0 155 15 245 64 306c49 63 123 83 250 83zM182 381c0 -109 12 -182 35 -219s73 -55 149 -55s126 18 149 55c24 37 36 110 36 219s-12 183 -36 220c-23 38 -73 57 -149 57s-126 -19 -149 -57c-23 -37 -35 -111 -35 -220z" />
    <glyph glyph-name="uni01D2" unicode="&#x1d2;" horiz-adv-x="581" 
d="M405 772l24 -14c7 -5 8 -10 3 -15l-92 -127c-3 -5 -9 -8 -18 -8h-63c-9 0 -15 3 -19 8l-92 127c-5 6 -3 11 4 15l24 14c5 3 11 3 16 0l98 -74l99 74c5 4 10 4 16 0zM534 276c0 -113 -16 -189 -48 -226c-31 -37 -97 -55 -196 -55s-165 18 -196 55s-47 113 -47 226
c0 114 16 189 47 226s97 56 196 56s165 -19 196 -56c32 -37 48 -112 48 -226zM390 419c-15 23 -48 34 -100 34s-85 -11 -100 -34s-22 -70 -22 -143s7 -120 22 -143c15 -22 48 -33 100 -33s85 11 100 33c15 23 22 70 22 143s-7 120 -22 143z" />
    <glyph glyph-name="uni01D3" unicode="&#x1d3;" horiz-adv-x="754" 
d="M491 972l25 -14c7 -5 8 -10 3 -15l-92 -127c-3 -5 -9 -8 -18 -8h-64c-8 0 -14 3 -18 8l-92 127c-5 5 -4 10 3 15l25 14c5 4 10 4 16 0l98 -74l98 74c6 4 11 4 16 0zM571 765h98c10 0 15 -5 15 -15v-369c0 -160 -14 -248 -62 -309c-48 -60 -118 -77 -245 -77
s-197 17 -245 77c-48 61 -62 149 -62 309v369c0 10 5 15 15 15h99c10 0 15 -5 15 -15v-369c0 -109 12 -182 35 -219c24 -37 72 -55 143 -55s119 18 143 55s36 110 36 219v369c0 12 3 15 15 15z" />
    <glyph glyph-name="uni01D4" unicode="&#x1d4;" horiz-adv-x="600" 
d="M408 772l25 -14c7 -5 8 -10 3 -15l-92 -127c-4 -5 -10 -8 -19 -8h-63c-9 0 -15 3 -18 8l-92 127c-5 5 -4 10 3 15l25 14c5 4 10 4 16 0l98 -74l98 74c6 4 11 4 16 0zM429 553h92c10 0 15 -5 15 -15v-510c0 -13 -5 -14 -15 -16c-56 -11 -130 -17 -223 -17
c-100 0 -147 6 -187 41s-50 90 -50 197v305c0 10 6 15 17 15h90c9 0 14 -5 14 -15v-283c0 -76 3 -112 24 -133s40 -22 93 -22h115v438c0 10 5 15 15 15z" />
    <glyph glyph-name="uni01D5" unicode="&#x1d5;" horiz-adv-x="754" 
d="M240 1098h273c10 0 15 -5 15 -15v-51c0 -10 -5 -15 -15 -15h-273c-10 0 -15 5 -15 15v51c0 10 5 15 15 15zM276 957c45 0 68 -22 68 -66c0 -45 -23 -67 -68 -67c-47 0 -70 22 -70 67c0 44 23 66 70 66zM548 891c0 -45 -23 -67 -69 -67s-69 22 -69 67c0 44 23 66 69 66
s69 -22 69 -66zM571 765h98c10 0 15 -5 15 -15v-369c0 -160 -14 -248 -62 -309c-48 -60 -118 -77 -245 -77s-197 17 -245 77c-48 61 -62 149 -62 309v369c0 10 5 15 15 15h99c10 0 15 -5 15 -15v-369c0 -109 12 -182 35 -219c24 -37 72 -55 143 -55s119 18 143 55
s36 110 36 219v369c0 12 3 15 15 15z" />
    <glyph glyph-name="uni01D6" unicode="&#x1d6;" horiz-adv-x="600" 
d="M157 886h273c10 0 15 -5 15 -15v-51c0 -10 -5 -15 -15 -15h-273c-10 0 -15 5 -15 15v51c0 10 5 15 15 15zM193 757c45 0 68 -22 68 -66c0 -45 -23 -67 -68 -67c-47 0 -70 22 -70 67c0 44 23 66 70 66zM465 691c0 -45 -23 -67 -69 -67s-69 22 -69 67c0 44 23 66 69 66
s69 -22 69 -66zM429 553h92c10 0 15 -5 15 -15v-510c0 -13 -5 -14 -15 -16c-56 -11 -130 -17 -223 -17c-100 0 -147 6 -187 41s-50 90 -50 197v305c0 10 6 15 17 15h90c9 0 14 -5 14 -15v-283c0 -76 3 -112 24 -133s40 -22 93 -22h115v438c0 10 5 15 15 15z" />
    <glyph glyph-name="uni01D7" unicode="&#x1d7;" horiz-adv-x="754" 
d="M428 1138h116c7 0 10 -3 10 -10v-7c0 -5 -2 -9 -5 -12l-158 -135c-5 -4 -9 -4 -14 0l-31 19c-5 4 -6 9 -3 14l73 125c2 4 6 6 12 6zM276 957c45 0 68 -22 68 -66c0 -45 -23 -67 -68 -67c-47 0 -70 22 -70 67c0 44 23 66 70 66zM548 891c0 -45 -23 -67 -69 -67
s-69 22 -69 67c0 44 23 66 69 66s69 -22 69 -66zM571 765h98c10 0 15 -5 15 -15v-369c0 -160 -14 -248 -62 -309c-48 -60 -118 -77 -245 -77s-197 17 -245 77c-48 61 -62 149 -62 309v369c0 10 5 15 15 15h99c10 0 15 -5 15 -15v-369c0 -109 12 -182 35 -219
c24 -37 72 -55 143 -55s119 18 143 55s36 110 36 219v369c0 12 3 15 15 15z" />
    <glyph glyph-name="uni01D8" unicode="&#x1d8;" horiz-adv-x="600" 
d="M347 942h116c7 0 10 -3 10 -10v-7c0 -5 -2 -9 -5 -12l-158 -135c-4 -3 -9 -3 -14 0l-31 19c-5 4 -6 9 -3 14l73 125c2 4 6 6 12 6zM193 757c45 0 68 -22 68 -66c0 -45 -23 -67 -68 -67c-47 0 -70 22 -70 67c0 44 23 66 70 66zM465 691c0 -45 -23 -67 -69 -67
s-69 22 -69 67c0 44 23 66 69 66s69 -22 69 -66zM429 553h92c10 0 15 -5 15 -15v-510c0 -13 -5 -14 -15 -16c-56 -11 -130 -17 -223 -17c-100 0 -147 6 -187 41s-50 90 -50 197v305c0 10 6 15 17 15h90c9 0 14 -5 14 -15v-283c0 -76 3 -112 24 -133s40 -22 93 -22h115v438
c0 10 5 15 15 15z" />
    <glyph glyph-name="uni01D9" unicode="&#x1d9;" horiz-adv-x="754" 
d="M491 1143l25 -14c7 -5 8 -10 3 -15l-92 -127c-4 -5 -10 -8 -18 -8h-64c-7 0 -13 3 -18 8l-92 127c-5 5 -4 10 3 15l25 14c5 5 11 5 16 0l98 -74l98 74c5 5 11 5 16 0zM276 957c45 0 68 -22 68 -66c0 -45 -23 -67 -68 -67c-47 0 -70 22 -70 67c0 44 23 66 70 66zM548 891
c0 -45 -23 -67 -69 -67s-69 22 -69 67c0 44 23 66 69 66s69 -22 69 -66zM571 765h98c10 0 15 -5 15 -15v-369c0 -160 -14 -248 -62 -309c-48 -60 -118 -77 -245 -77s-197 17 -245 77c-48 61 -62 149 -62 309v369c0 10 5 15 15 15h99c10 0 15 -5 15 -15v-369
c0 -109 12 -182 35 -219c24 -37 72 -55 143 -55s119 18 143 55s36 110 36 219v369c0 12 3 15 15 15z" />
    <glyph glyph-name="uni01DA" unicode="&#x1da;" horiz-adv-x="600" 
d="M408 942l25 -14c6 -4 7 -9 3 -16l-92 -126c-4 -5 -10 -8 -19 -8h-63c-9 0 -15 3 -18 8l-92 126c-5 6 -4 11 3 16l25 14c5 4 10 4 16 0l98 -74l98 74c6 4 11 4 16 0zM193 757c45 0 68 -22 68 -66c0 -45 -23 -67 -68 -67c-47 0 -70 22 -70 67c0 44 23 66 70 66zM465 691
c0 -45 -23 -67 -69 -67s-69 22 -69 67c0 44 23 66 69 66s69 -22 69 -66zM429 553h92c10 0 15 -5 15 -15v-510c0 -13 -5 -14 -15 -16c-56 -11 -130 -17 -223 -17c-100 0 -147 6 -187 41s-50 90 -50 197v305c0 10 6 15 17 15h90c9 0 14 -5 14 -15v-283c0 -76 3 -112 24 -133
s40 -22 93 -22h115v438c0 10 5 15 15 15z" />
    <glyph glyph-name="uni01DB" unicode="&#x1db;" horiz-adv-x="754" 
d="M218 1138h116c6 0 10 -2 12 -6l73 -125c3 -5 2 -10 -3 -14l-31 -19c-5 -4 -9 -4 -14 0l-158 135c-3 3 -5 7 -5 12v7c0 7 3 10 10 10zM276 957c45 0 68 -22 68 -66c0 -45 -23 -67 -68 -67c-47 0 -70 22 -70 67c0 44 23 66 70 66zM548 891c0 -45 -23 -67 -69 -67
s-69 22 -69 67c0 44 23 66 69 66s69 -22 69 -66zM571 765h98c10 0 15 -5 15 -15v-369c0 -160 -14 -248 -62 -309c-48 -60 -118 -77 -245 -77s-197 17 -245 77c-48 61 -62 149 -62 309v369c0 10 5 15 15 15h99c10 0 15 -5 15 -15v-369c0 -109 12 -182 35 -219
c24 -37 72 -55 143 -55s119 18 143 55s36 110 36 219v369c0 12 3 15 15 15z" />
    <glyph glyph-name="uni01DC" unicode="&#x1dc;" horiz-adv-x="600" 
d="M124 942h116c6 0 10 -2 12 -6l73 -125c3 -5 2 -10 -3 -14l-31 -19c-5 -3 -10 -3 -14 0l-158 135c-3 3 -5 7 -5 12v7c0 7 3 10 10 10zM193 757c45 0 68 -22 68 -66c0 -45 -23 -67 -68 -67c-47 0 -70 22 -70 67c0 44 23 66 70 66zM465 691c0 -45 -23 -67 -69 -67
s-69 22 -69 67c0 44 23 66 69 66s69 -22 69 -66zM429 553h92c10 0 15 -5 15 -15v-510c0 -13 -5 -14 -15 -16c-56 -11 -130 -17 -223 -17c-100 0 -147 6 -187 41s-50 90 -50 197v305c0 10 6 15 17 15h90c9 0 14 -5 14 -15v-283c0 -76 3 -112 24 -133s40 -22 93 -22h115v438
c0 10 5 15 15 15z" />
    <glyph glyph-name="Aringacute" unicode="&#x1fa;" horiz-adv-x="691" 
d="M369 1119h116c7 0 10 -3 10 -10v-7c0 -5 -2 -9 -5 -12l-101 -74c45 -12 67 -46 67 -101c0 -71 -37 -107 -112 -107c-74 0 -111 36 -111 107c0 56 23 90 69 102l55 96c2 4 6 6 12 6zM406 915c0 41 -21 62 -62 62s-62 -21 -62 -62s21 -62 62 -62s62 21 62 62zM344 770
c56 0 92 -6 109 -19s33 -45 48 -98l173 -637c2 -11 -2 -16 -12 -16h-102c-7 0 -11 5 -14 16l-59 215h-285l-60 -215c-3 -11 -7 -16 -13 -16h-103c-10 0 -14 5 -12 16l178 637c15 52 30 84 47 97s52 20 105 20zM344 661c-23 0 -24 -4 -35 -41l-77 -281h226l-75 281
c-11 37 -12 41 -39 41z" />
    <glyph glyph-name="aringacute" unicode="&#x1fb;" horiz-adv-x="549" 
d="M295 919h116c7 0 10 -3 10 -10v-7c0 -5 -2 -9 -5 -12l-102 -73c45 -13 67 -47 67 -102c0 -71 -37 -107 -111 -107s-111 36 -111 107c0 56 23 90 68 102l56 96c2 4 6 6 12 6zM332 715c0 41 -21 62 -62 62s-62 -21 -62 -62s21 -62 62 -62s62 21 62 62zM255 558
c171 0 234 -52 234 -164v-348c0 -15 -7 -24 -20 -29c-51 -15 -126 -22 -225 -22c-77 0 -131 11 -163 32c-32 22 -48 67 -48 135c0 121 59 159 190 159h145v52c0 56 -33 80 -113 80h-164c-12 0 -15 3 -15 15v61c0 12 3 13 14 16c47 9 102 13 165 13zM368 107v127h-138
c-55 0 -77 -18 -77 -67c0 -56 25 -71 101 -71c48 0 86 4 114 11z" />
    <glyph glyph-name="AEacute" unicode="&#x1fc;" horiz-adv-x="994" 
d="M585 975h116c7 0 10 -3 10 -10v-7c0 -5 -2 -9 -5 -12l-158 -135c-5 -4 -9 -4 -14 0l-31 19c-5 3 -6 8 -3 14l73 125c2 4 6 6 12 6zM344 770l247 -5h340c10 0 15 -5 15 -15v-82c0 -10 -5 -15 -15 -15h-331v-224h298c11 0 16 -5 16 -15v-79c0 -10 -5 -15 -16 -15h-298v-208
h331c10 0 15 -5 15 -15v-82c0 -10 -5 -15 -15 -15h-444c-10 0 -15 5 -15 15v216h-270l-60 -215c-3 -11 -7 -16 -13 -16h-103c-10 0 -14 5 -12 16l178 637c15 52 30 84 47 97s52 20 105 20zM472 339v322h-118c-31 0 -36 -6 -47 -49l-75 -273h240z" />
    <glyph glyph-name="aeacute" unicode="&#x1fd;" horiz-adv-x="879" 
d="M476 775h116c7 0 10 -3 10 -10v-7c0 -5 -2 -9 -5 -12l-158 -135c-4 -3 -9 -3 -14 0l-31 19c-5 3 -6 8 -3 14l73 125c2 4 6 6 12 6zM607 558c94 0 156 -18 187 -54s46 -108 47 -217v-30c0 -20 -6 -27 -34 -27h-316c1 -53 10 -88 26 -105s49 -25 98 -25h170
c10 0 15 -5 15 -15v-62c0 -9 -5 -15 -14 -17c-48 -7 -108 -11 -179 -11c-30 0 -62 4 -95 11c-33 8 -57 17 -74 28c-50 -26 -115 -39 -194 -39c-77 0 -131 11 -163 32c-32 22 -48 67 -48 135c0 121 59 159 190 159h145v52c0 56 -33 80 -113 80h-164c-12 0 -15 3 -15 15v61
c0 12 3 13 14 16c47 9 102 13 165 13c84 0 144 -16 180 -47c33 31 91 47 172 47zM607 453c-46 0 -77 -9 -92 -28c-15 -18 -24 -54 -25 -108h230c-1 55 -9 91 -24 109s-44 27 -89 27zM371 234h-141c-55 0 -77 -18 -77 -67c0 -56 25 -72 100 -72c59 0 105 7 136 22
c-12 28 -18 67 -18 117z" />
    <glyph glyph-name="Oslashacute" unicode="&#x1fe;" horiz-adv-x="732" 
d="M412 975h116c7 0 10 -3 10 -10v-7c0 -5 -2 -9 -5 -12l-158 -135c-4 -3 -9 -3 -14 0l-31 19c-5 3 -6 8 -3 14l73 125c2 4 6 6 12 6zM680 381c0 -155 -15 -243 -64 -304c-48 -61 -122 -82 -250 -82c-89 0 -156 13 -200 38l-30 -42c-6 -9 -13 -10 -20 -3l-34 23
c-8 5 -9 11 -4 20l35 49c-41 54 -61 154 -61 301c0 155 15 245 64 306c49 63 123 83 250 83c92 0 160 -13 203 -40l26 38c7 9 14 11 21 4l34 -23c8 -5 9 -12 3 -21l-32 -46c39 -53 59 -154 59 -301zM366 658c-76 0 -126 -19 -149 -57c-23 -37 -35 -111 -35 -220
c0 -82 6 -141 17 -177l296 421c-26 22 -69 33 -129 33zM551 381c0 82 -6 141 -17 177l-294 -420c26 -21 68 -31 126 -31c76 0 126 18 149 55c24 37 36 110 36 219z" />
    <glyph glyph-name="oslashacute" unicode="&#x1ff;" horiz-adv-x="581" 
d="M328 775h116c7 0 10 -3 10 -10v-7c0 -5 -2 -9 -5 -12l-158 -135c-5 -4 -9 -4 -14 0l-31 19c-5 3 -6 8 -3 14l73 125c2 4 6 6 12 6zM534 276c0 -113 -16 -189 -48 -226c-31 -37 -97 -55 -196 -55c-63 0 -112 7 -145 20l-21 -29c-6 -9 -13 -10 -20 -3l-34 23
c-9 5 -10 12 -4 20l23 33c-28 37 -42 109 -42 217c0 114 16 189 47 226s97 56 196 56c61 0 107 -6 138 -17l18 26c7 9 14 11 21 4l34 -23c8 -5 9 -12 3 -21l-18 -25c32 -36 48 -111 48 -226zM290 453c-52 0 -85 -11 -100 -34s-22 -70 -22 -143c0 -45 2 -77 6 -96l185 263
c-16 7 -39 10 -69 10zM404 384l-190 -271c17 -9 42 -13 76 -13c52 0 85 11 100 33c15 23 22 70 22 143c0 53 -3 89 -8 108z" />
    <glyph glyph-name="uni0218" unicode="&#x218;" horiz-adv-x="613" 
d="M322 770c59 0 126 -6 201 -17c11 -2 16 -7 16 -16v-62c0 -11 -5 -17 -15 -17h-231c-75 0 -112 -26 -112 -77v-16c0 -44 16 -68 67 -89l203 -81c93 -37 126 -88 126 -187v-31c0 -72 -27 -121 -80 -148c-52 -25 -110 -34 -195 -34c-82 0 -164 6 -246 18c-9 2 -14 8 -14 18
v60c0 11 5 16 16 16h279c74 0 111 25 111 75v17c0 48 -18 73 -74 96l-216 85c-79 29 -106 86 -106 186v23c0 151 111 181 270 181zM254 -39h100c7 0 10 -3 10 -10v-7c0 -6 -2 -10 -5 -12l-142 -126c-5 -4 -9 -4 -14 0l-27 17c-5 3 -6 8 -3 14l69 118c2 4 6 6 12 6z" />
    <glyph glyph-name="uni0219" unicode="&#x219;" horiz-adv-x="494" 
d="M264 558c57 0 109 -4 156 -11c10 -2 15 -7 15 -16v-59c0 -10 -5 -15 -16 -15h-184c-44 0 -66 -15 -66 -44v-12c0 -25 18 -45 55 -59l131 -48c81 -31 102 -75 102 -146v-13c0 -108 -66 -140 -207 -140c-64 0 -129 3 -195 9c-10 1 -15 6 -15 15v62c0 11 5 16 16 16h194
c68 0 88 8 88 43v10c0 25 -13 41 -57 57l-132 50c-67 24 -100 73 -100 147v20c0 101 76 134 215 134zM198 -39h100c7 0 10 -3 10 -10v-7c0 -6 -2 -10 -5 -12l-142 -126c-5 -4 -9 -4 -14 0l-27 17c-5 3 -6 8 -3 14l69 118c2 4 6 6 12 6z" />
    <glyph glyph-name="uni021A" unicode="&#x21a;" horiz-adv-x="625" 
d="M30 765h565c10 0 15 -5 15 -15v-82c0 -10 -5 -15 -15 -15h-219v-638c0 -10 -5 -15 -15 -15h-98c-10 0 -15 5 -15 15v638h-218c-10 0 -15 5 -15 15v82c0 10 5 15 15 15zM261 -39h100c7 0 10 -3 10 -10v-7c0 -5 -2 -9 -5 -12l-142 -126c-5 -4 -9 -4 -14 0l-27 17
c-5 3 -6 8 -3 14l69 118c2 4 6 6 12 6z" />
    <glyph glyph-name="uni021B" unicode="&#x21b;" horiz-adv-x="362" 
d="M110 683l91 23c11 3 17 -1 17 -14v-140h99c11 0 16 -5 16 -15v-63c0 -11 -5 -16 -16 -16h-99v-305c0 -44 13 -53 62 -53h44c11 0 17 -5 17 -14v-66c0 -10 -5 -16 -15 -18c-26 -5 -50 -7 -71 -7c-40 0 -56 0 -89 8c-44 12 -66 41 -70 114v341h-57c-11 0 -16 5 -16 16v63
c0 10 5 15 16 15h57v115c0 9 5 14 14 16zM168 -39h100c7 0 10 -3 10 -10v-7c0 -6 -2 -10 -5 -12l-142 -126c-5 -4 -9 -4 -14 0l-27 17c-5 3 -6 8 -3 14l69 118c2 4 6 6 12 6z" />
    <glyph glyph-name="circumflex.001" unicode="&#x2c6;" horiz-adv-x="529" 
d="M233 775h63c9 0 15 -3 18 -8l92 -127c5 -5 4 -10 -3 -15l-24 -14c-5 -3 -11 -3 -16 0l-98 74l-99 -74c-5 -4 -10 -4 -16 0l-24 14c-7 5 -8 10 -3 15l92 127c3 5 9 8 18 8z" />
    <glyph glyph-name="caron.001" unicode="&#x2c7;" horiz-adv-x="529" 
d="M379 772l24 -14c7 -5 8 -10 3 -15l-92 -127c-3 -5 -9 -8 -18 -8h-63c-9 0 -15 3 -18 8l-92 127c-5 5 -4 10 3 15l24 14c6 4 11 4 16 0l99 -74l98 74c5 3 11 3 16 0z" />
    <glyph glyph-name="breve.001" unicode="&#x2d8;" horiz-adv-x="565" 
d="M385 765h45c11 0 16 -5 14 -16c-7 -49 -22 -82 -45 -101c-23 -18 -62 -27 -116 -27c-55 0 -94 9 -117 27c-23 19 -38 52 -45 101c-2 11 3 16 14 16h45c9 0 14 -4 17 -12c17 -41 38 -54 86 -54s68 13 85 54c4 8 10 12 17 12z" />
    <glyph glyph-name="dotaccent.001" unicode="&#x2d9;" horiz-adv-x="384" 
d="M264 691c0 -46 -24 -69 -72 -69s-72 23 -72 69c0 45 24 68 72 68s72 -23 72 -68z" />
    <glyph glyph-name="ring" unicode="&#x2da;" horiz-adv-x="463" 
d="M231 823c75 0 112 -36 112 -108c0 -71 -37 -107 -112 -107c-74 0 -111 36 -111 107c0 72 37 108 111 108zM293 715c0 41 -21 62 -62 62s-62 -21 -62 -62s21 -62 62 -62s62 21 62 62z" />
    <glyph glyph-name="ogonek" unicode="&#x2db;" horiz-adv-x="412" 
d="M155 18h39c11 0 15 -5 13 -16c-5 -27 -8 -46 -8 -57c0 -25 11 -29 51 -29h35c10 0 15 -5 15 -14v-47c0 -9 -4 -15 -12 -18c-13 -5 -36 -8 -70 -8c-68 0 -98 21 -98 77c0 27 6 61 18 100c3 8 8 12 17 12z" />
    <glyph glyph-name="tilde" unicode="&#x2dc;" horiz-adv-x="587" 
d="M219 758c17 0 42 -7 75 -20s54 -20 64 -20c24 0 33 7 45 34c5 9 11 12 19 10l33 -9c9 -4 13 -11 10 -22c-23 -83 -44 -105 -99 -105c-17 0 -42 7 -75 20s-54 20 -64 20c-23 0 -33 -7 -45 -34c-4 -9 -10 -13 -19 -10l-32 8c-10 4 -14 11 -11 22c24 83 46 106 99 106z" />
    <glyph glyph-name="hungarumlaut.001" unicode="&#x2dd;" horiz-adv-x="607" 
d="M207 775h88c7 0 10 -3 10 -10v-7c0 -5 -2 -9 -5 -12l-142 -131c-5 -4 -9 -4 -14 0l-19 15c-5 4 -6 9 -3 14l73 125c2 4 6 6 12 6zM389 775h88c7 0 10 -3 10 -10v-7c0 -5 -2 -9 -5 -12l-142 -131c-5 -4 -9 -4 -14 0l-19 15c-5 4 -6 9 -3 14l73 125c2 4 6 6 12 6z" />
    <glyph glyph-name="uni0326" unicode="&#x326;" horiz-adv-x="0" 
d="M200 -39h100c7 0 10 -3 10 -10v-7c0 -6 -2 -10 -5 -12l-142 -126c-5 -4 -9 -4 -14 0l-27 17c-5 3 -6 8 -3 14l69 118c2 4 6 6 12 6z" />
    <glyph glyph-name="pi" unicode="&#x3c0;" horiz-adv-x="665" 
d="M38 554h592c10 0 15 -5 15 -15v-79c0 -10 -5 -15 -15 -15h-84v-430c0 -10 -5 -15 -15 -15h-85c-10 0 -15 5 -15 15v430h-191c0 -141 -12 -285 -37 -430c-2 -10 -7 -15 -15 -15h-85c-11 0 -16 5 -15 15c25 145 37 289 37 430h-87c-10 0 -15 5 -15 15v79c0 10 5 15 15 15z
" />
    <glyph glyph-name="uni0401" unicode="&#x401;" horiz-adv-x="639" 
d="M225 957c46 0 69 -22 69 -66c0 -45 -23 -67 -69 -67c-47 0 -70 22 -70 67c0 44 23 66 70 66zM497 891c0 -45 -23 -67 -69 -67s-69 22 -69 67c0 44 23 66 69 66s69 -22 69 -66zM92 765h484c11 0 16 -5 16 -15v-82c0 -10 -5 -15 -16 -15h-370v-224h338c10 0 15 -5 15 -15
v-79c0 -10 -5 -15 -15 -15h-338v-208h370c11 0 16 -5 16 -15v-82c0 -10 -5 -15 -16 -15h-484c-10 0 -15 5 -15 15v735c0 10 5 15 15 15z" />
    <glyph glyph-name="uni0410" unicode="&#x410;" horiz-adv-x="691" 
d="M344 770c56 0 92 -6 109 -19s33 -45 48 -98l173 -637c2 -11 -2 -16 -12 -16h-102c-7 0 -11 5 -14 16l-59 215h-285l-60 -215c-3 -11 -7 -16 -13 -16h-103c-10 0 -14 5 -12 16l178 637c15 52 30 84 47 97s52 20 105 20zM344 661c-23 0 -24 -4 -35 -41l-77 -281h226
l-75 281c-11 37 -12 41 -39 41z" />
    <glyph glyph-name="uni0411" unicode="&#x411;" horiz-adv-x="688" 
d="M206 653v-191h181c91 0 157 -15 198 -46c41 -30 62 -85 62 -165v-48c0 -79 -21 -134 -62 -164c-41 -29 -107 -44 -198 -44c-117 0 -215 3 -295 9c-12 1 -15 3 -15 14v732c0 10 5 15 16 15h501c10 0 15 -5 15 -15v-82c0 -10 -5 -15 -15 -15h-388zM518 215v24
c0 88 -42 113 -133 113h-179v-245h177c97 0 135 24 135 108z" />
    <glyph glyph-name="uni0412" unicode="&#x412;" horiz-adv-x="693" 
d="M360 770c94 0 162 -16 204 -47c43 -31 64 -86 64 -165c0 -104 -28 -157 -99 -172v-3c87 -12 118 -75 118 -180c0 -79 -21 -134 -62 -164c-41 -29 -107 -44 -198 -44c-117 0 -215 3 -295 9c-12 1 -15 3 -15 14v730c0 11 3 13 15 14c71 5 161 8 268 8zM348 658h-142v-227
h113c71 0 119 6 143 19c25 13 37 43 37 92c0 91 -42 116 -151 116zM385 334h-179v-227h177c97 0 135 24 135 108c0 92 -42 119 -133 119z" />
    <glyph glyph-name="uni0413" unicode="&#x413;" horiz-adv-x="553" 
d="M191 0h-99c-10 0 -15 5 -15 15v735c0 10 5 15 15 15h434c10 0 15 -5 15 -15v-82c0 -10 -5 -15 -15 -15h-320v-638c0 -10 -5 -15 -15 -15z" />
    <glyph glyph-name="uni0414" unicode="&#x414;" horiz-adv-x="712" 
d="M222 765h376c10 0 15 -5 15 -15v-638h45c10 0 15 -5 15 -15v-235c0 -10 -5 -15 -15 -15h-92c-10 0 -15 5 -15 15v138h-402v-138c0 -10 -5 -15 -15 -15h-93c-10 0 -15 5 -15 15v237c0 9 5 13 16 13h41c44 13 58 55 67 135l57 503c1 10 6 15 15 15zM485 112v541h-161
l-50 -445c-5 -38 -12 -70 -22 -96h233z" />
    <glyph glyph-name="uni0415" unicode="&#x415;" horiz-adv-x="639" 
d="M92 765h484c11 0 16 -5 16 -15v-82c0 -10 -5 -15 -16 -15h-370v-224h338c10 0 15 -5 15 -15v-79c0 -10 -5 -15 -15 -15h-338v-208h370c11 0 16 -5 16 -15v-82c0 -10 -5 -15 -16 -15h-484c-10 0 -15 5 -15 15v735c0 10 5 15 15 15z" />
    <glyph glyph-name="uni0416" unicode="&#x416;" horiz-adv-x="979" 
d="M949 746l-267 -334l291 -385c11 -12 8 -27 -17 -27h-107c-11 0 -18 4 -22 11l-273 372v-368c0 -10 -5 -15 -15 -15h-98c-10 0 -15 5 -15 15v368l-273 -372c-4 -7 -11 -11 -22 -11h-107c-25 0 -29 15 -17 27l291 385l-267 334c-11 13 -8 19 9 19h110c9 0 16 -3 21 -10
l255 -321v316c0 10 5 15 15 15h98c10 0 15 -5 15 -15v-316l255 321c5 7 12 10 21 10h110c17 0 20 -6 9 -19z" />
    <glyph glyph-name="uni0417" unicode="&#x417;" horiz-adv-x="615" 
d="M248 770c115 0 195 -13 240 -39s68 -78 68 -157v-33c0 -89 -31 -142 -92 -158c61 -17 92 -70 92 -157v-30c0 -80 -22 -134 -67 -161s-125 -40 -241 -40c-73 0 -135 4 -188 11c-13 3 -19 8 -19 15v76c0 7 5 10 15 10h188c75 0 125 7 148 21s35 43 35 86v6
c0 42 -8 71 -25 87c-16 16 -49 24 -100 24h-204c-9 0 -13 4 -13 12v79c0 9 4 13 13 13h203c51 0 85 8 101 24c17 16 25 45 25 88v12c0 42 -12 69 -37 81c-24 12 -75 18 -152 18h-182c-10 0 -15 4 -15 11v74c0 7 6 13 19 16c46 7 109 11 188 11z" />
    <glyph glyph-name="uni0418" unicode="&#x418;" horiz-adv-x="779" 
d="M92 765h99c10 0 15 -5 15 -15v-519l339 503c16 25 23 30 59 31h83c10 0 15 -5 15 -15v-734c0 -11 -5 -16 -15 -16h-98c-10 0 -15 5 -15 16v545l-363 -539c-10 -15 -24 -22 -42 -22h-77c-10 0 -15 5 -15 16v734c0 10 5 15 15 15z" />
    <glyph glyph-name="uni0419" unicode="&#x419;" horiz-adv-x="779" 
d="M488 965h45c11 0 16 -5 14 -16c-7 -49 -23 -82 -46 -101c-23 -18 -62 -27 -116 -27s-93 9 -116 27c-23 19 -39 52 -46 101c-2 11 3 16 14 16h45c8 0 14 -4 17 -12c17 -41 38 -54 86 -54s69 13 86 54c3 8 9 12 17 12zM92 765h99c10 0 15 -5 15 -15v-519l339 503
c16 25 23 30 59 31h83c10 0 15 -5 15 -15v-734c0 -11 -5 -16 -15 -16h-98c-10 0 -15 5 -15 16v545l-363 -539c-10 -15 -24 -22 -42 -22h-77c-10 0 -15 5 -15 16v734c0 10 5 15 15 15z" />
    <glyph glyph-name="uni041A" unicode="&#x41a;" horiz-adv-x="649" 
d="M500 765h110c16 0 19 -6 9 -19l-279 -334l303 -385c11 -12 8 -27 -17 -27h-108c-11 0 -18 4 -22 11l-290 372v-368c0 -10 -5 -15 -15 -15h-99c-10 0 -15 5 -15 15v735c0 10 5 15 15 15h99c10 0 15 -5 15 -15v-316l273 321c5 7 12 10 21 10z" />
    <glyph glyph-name="uni041B" unicode="&#x41b;" horiz-adv-x="706" 
d="M237 765h377c10 0 15 -5 15 -15v-735c0 -10 -5 -15 -15 -15h-98c-10 0 -15 5 -15 15v638h-161l-52 -460c-9 -75 -28 -126 -59 -155c-30 -29 -70 -43 -120 -43c-25 0 -46 3 -65 8c-13 3 -19 10 -19 22v67c0 10 5 15 15 15h20c38 0 64 9 77 27c13 19 23 51 28 98l57 518
c1 10 6 15 15 15z" />
    <glyph glyph-name="uni041C" unicode="&#x41c;" horiz-adv-x="961" 
d="M732 765h99c9 0 13 -5 14 -15l68 -734c1 -11 -4 -16 -15 -16h-98c-9 0 -14 5 -15 16l-45 525l-198 -503c-4 -9 -11 -13 -20 -13h-83c-10 0 -16 4 -19 13l-198 503l-46 -525c-1 -11 -6 -16 -15 -16h-98c-11 0 -16 5 -15 16l68 734c1 10 6 15 14 15h99c28 0 37 -8 48 -39
l204 -529l203 530c12 31 21 38 48 38z" />
    <glyph glyph-name="uni041D" unicode="&#x41d;" horiz-adv-x="781" 
d="M590 765h99c10 0 15 -5 15 -15v-734c0 -11 -5 -16 -15 -16h-99c-10 0 -15 5 -15 16v313h-369v-313c0 -11 -5 -16 -15 -16h-99c-10 0 -15 5 -15 16v734c0 10 5 15 15 15h99c10 0 15 -5 15 -15v-308h369v308c0 10 5 15 15 15z" />
    <glyph glyph-name="uni041E" unicode="&#x41e;" horiz-adv-x="732" 
d="M366 770c128 0 202 -20 250 -83c49 -61 64 -151 64 -306s-15 -243 -64 -304c-48 -61 -122 -82 -250 -82c-127 0 -201 21 -250 82s-64 151 -64 304c0 155 15 245 64 306c49 63 123 83 250 83zM182 381c0 -109 12 -182 35 -219s73 -55 149 -55s126 18 149 55
c24 37 36 110 36 219s-12 183 -36 220c-23 38 -73 57 -149 57s-126 -19 -149 -57c-23 -37 -35 -111 -35 -220z" />
    <glyph glyph-name="uni041F" unicode="&#x41f;" horiz-adv-x="697" 
d="M92 765h513c10 0 15 -5 15 -15v-735c0 -10 -5 -15 -15 -15h-98c-10 0 -15 5 -15 15v638h-287v-638c0 -10 -5 -15 -15 -15h-98c-10 0 -15 5 -15 15v735c0 10 5 15 15 15z" />
    <glyph glyph-name="uni0420" unicode="&#x420;" horiz-adv-x="661" 
d="M331 770c114 0 192 -17 234 -50s63 -100 63 -199c0 -84 -13 -137 -40 -174c-13 -18 -33 -32 -58 -42c-49 -19 -104 -24 -199 -24h-125v-266c0 -12 -3 -15 -15 -15h-99c-12 0 -15 3 -15 15v733c0 11 3 13 15 14c71 5 151 8 239 8zM319 658h-113v-274h113
c79 0 111 2 142 21c31 20 37 50 37 113c0 59 -12 97 -35 114s-71 26 -144 26z" />
    <glyph glyph-name="uni0421" unicode="&#x421;" horiz-adv-x="610" 
d="M365 770c84 0 148 -4 191 -12c13 -2 19 -9 19 -21v-63c0 -11 -5 -16 -15 -16h-195c-76 0 -126 -19 -149 -56s-34 -110 -34 -219c0 -110 11 -184 34 -221s73 -55 149 -55h195c10 0 15 -5 15 -15v-63c0 -13 -6 -20 -19 -22c-49 -8 -113 -12 -191 -12
c-127 0 -201 21 -250 82c-48 63 -63 151 -63 306s15 244 63 305c49 63 122 82 250 82z" />
    <glyph glyph-name="uni0422" unicode="&#x422;" horiz-adv-x="625" 
d="M30 765h565c10 0 15 -5 15 -15v-82c0 -10 -5 -15 -15 -15h-219v-638c0 -10 -5 -15 -15 -15h-98c-10 0 -15 5 -15 15v638h-218c-10 0 -15 5 -15 15v82c0 10 5 15 15 15z" />
    <glyph glyph-name="uni0423" unicode="&#x423;" horiz-adv-x="604" 
d="M488 765h105c13 0 17 -6 12 -17l-206 -555c-28 -76 -58 -128 -90 -156c-31 -28 -72 -42 -122 -42c-30 0 -58 3 -83 10c-12 3 -18 11 -18 23v64c0 10 5 15 15 15h60c47 0 71 21 100 86l-260 554c-5 12 -2 18 11 18h109c9 0 14 -4 17 -11l185 -395l147 394c4 8 10 12 18 12
z" />
    <glyph glyph-name="uni0424" unicode="&#x424;" horiz-adv-x="847" 
d="M376 773h95c10 0 15 -5 15 -15v-74c127 -4 213 -26 258 -67c45 -40 68 -117 68 -230c0 -114 -23 -191 -68 -232c-45 -40 -131 -62 -258 -66v-73c0 -11 -5 -16 -15 -16h-95c-10 0 -15 5 -15 16v73c-129 4 -203 20 -256 65c-52 47 -70 116 -70 233s18 186 70 231
c53 47 127 62 256 66v74c0 10 5 15 15 15zM361 203v368c-79 -3 -131 -17 -158 -42c-26 -25 -39 -72 -39 -142s13 -117 39 -142c27 -25 79 -39 158 -42zM486 571v-368c79 3 132 17 158 42s39 72 39 142s-13 117 -39 142s-79 39 -158 42z" />
    <glyph glyph-name="uni0425" unicode="&#x425;" horiz-adv-x="671" 
d="M523 765h108c17 0 20 -7 11 -22l-231 -345l253 -379c10 -15 6 -22 -11 -22h-108c-11 0 -20 5 -27 16l-183 281l-181 -278c-7 -11 -16 -16 -27 -16h-108c-17 0 -21 7 -11 22l252 376l-231 345c-9 15 -6 22 11 22h108c11 0 20 -5 27 -16l160 -247l161 247c7 11 16 16 27 16
z" />
    <glyph glyph-name="uni0426" unicode="&#x426;" horiz-adv-x="731" 
d="M627 750v-638h66c10 0 15 -5 15 -15v-235c0 -10 -5 -15 -15 -15h-92c-10 0 -15 5 -15 15v138h-494c-10 0 -15 5 -15 15v735c0 10 5 15 15 15h98c10 0 15 -5 15 -15v-638h294v638c0 10 5 15 15 15h98c10 0 15 -5 15 -15z" />
    <glyph glyph-name="uni0427" unicode="&#x427;" horiz-adv-x="661" 
d="M470 765h99c10 0 15 -5 15 -15v-734c0 -11 -5 -16 -15 -16h-99c-10 0 -15 5 -15 16v259h-109c-120 0 -180 9 -231 42c-51 35 -66 93 -66 197v236c0 10 5 15 15 15h99c10 0 15 -5 15 -15v-230c0 -59 11 -96 34 -111s71 -22 146 -22h97v363c0 10 5 15 15 15z" />
    <glyph glyph-name="uni0428" unicode="&#x428;" horiz-adv-x="977" 
d="M786 765h99c10 0 15 -5 15 -15v-735c0 -10 -5 -15 -15 -15h-793c-10 0 -15 5 -15 15v735c0 10 5 15 15 15h98c10 0 15 -5 15 -15v-638h219v638c0 10 5 15 15 15h98c10 0 15 -5 15 -15v-638h219v638c0 10 5 15 15 15z" />
    <glyph glyph-name="uni0429" unicode="&#x429;" horiz-adv-x="1004" 
d="M900 750v-638h65c10 0 15 -5 15 -15v-235c0 -10 -5 -15 -15 -15h-91c-10 0 -15 5 -15 15v138h-767c-10 0 -15 5 -15 15v735c0 10 5 15 15 15h98c10 0 15 -5 15 -15v-638h219v638c0 10 5 15 15 15h98c10 0 15 -5 15 -15v-638h219v638c0 10 5 15 15 15h99
c10 0 15 -5 15 -15z" />
    <glyph glyph-name="uni042A" unicode="&#x42a;" horiz-adv-x="728" 
d="M253 750v-288h182c91 0 157 -15 198 -46c41 -30 62 -85 62 -165v-48c0 -79 -21 -134 -62 -164c-41 -29 -107 -44 -198 -44c-117 0 -216 3 -295 9c-12 1 -15 3 -15 14v635h-93c-10 0 -15 5 -15 15v82c0 10 5 15 15 15h206c10 0 15 -5 15 -15zM565 215v24
c0 88 -42 113 -133 113h-179v-245h178c97 0 134 23 134 108z" />
    <glyph glyph-name="uni042B" unicode="&#x42b;" horiz-adv-x="940" 
d="M205 750v-288h182c91 0 157 -15 198 -46c41 -30 62 -85 62 -165v-48c0 -79 -21 -134 -62 -164c-41 -29 -107 -44 -198 -44c-118 0 -216 3 -295 9c-12 1 -15 3 -15 14v732c0 10 5 15 15 15h98c10 0 15 -5 15 -15zM750 765h98c10 0 15 -5 15 -15v-734c0 -11 -5 -16 -15 -16
h-98c-10 0 -15 5 -15 16v734c0 10 5 15 15 15zM518 215v24c0 88 -42 113 -133 113h-180v-245h178c97 0 135 24 135 108z" />
    <glyph glyph-name="uni042C" unicode="&#x42c;" horiz-adv-x="680" 
d="M206 750v-288h181c91 0 157 -15 198 -46c41 -30 62 -85 62 -165v-48c0 -79 -21 -134 -62 -164c-41 -29 -107 -44 -198 -44c-117 0 -215 3 -295 9c-12 1 -15 3 -15 14v732c0 10 5 15 15 15h99c10 0 15 -5 15 -15zM518 215v24c0 88 -42 113 -133 113h-179v-245h177
c97 0 135 24 135 108z" />
    <glyph glyph-name="uni042D" unicode="&#x42d;" horiz-adv-x="634" 
d="M270 770c128 0 201 -19 249 -82c48 -61 63 -150 63 -305s-15 -243 -63 -306c-48 -61 -122 -82 -249 -82c-95 0 -167 4 -217 12c-13 2 -19 9 -19 22v63c0 10 5 15 15 15h221c70 0 117 15 141 46c25 31 38 89 41 176h-285c-10 0 -15 5 -15 15v77c0 10 5 15 15 15h285
c-3 87 -16 145 -41 176c-24 31 -71 46 -141 46h-221c-10 0 -15 5 -15 16v63c0 12 6 19 19 21c45 8 117 12 217 12z" />
    <glyph glyph-name="uni042E" unicode="&#x42e;" horiz-adv-x="1017" 
d="M651 770c128 0 202 -20 250 -83c49 -61 64 -151 64 -306s-15 -243 -64 -304c-48 -61 -122 -82 -250 -82c-117 0 -197 23 -241 70c-43 47 -67 135 -72 264h-132v-313c0 -11 -5 -16 -15 -16h-99c-10 0 -15 5 -15 16v734c0 10 5 15 15 15h99c10 0 15 -5 15 -15v-308h132
c5 126 30 212 74 258c44 47 124 70 239 70zM466 381c0 -109 12 -182 35 -219c24 -37 74 -55 150 -55s126 18 149 55c24 37 36 110 36 219s-12 183 -36 220c-23 38 -73 57 -149 57s-126 -19 -150 -57c-23 -37 -35 -111 -35 -220z" />
    <glyph glyph-name="uni042F" unicode="&#x42f;" horiz-adv-x="676" 
d="M345 770c89 0 169 -3 239 -8c12 -1 15 -3 15 -14v-733c0 -12 -3 -15 -15 -15h-98c-12 0 -15 3 -15 15v266h-123l-164 -259c-11 -16 -19 -22 -40 -22h-94c-15 0 -20 9 -12 20l169 270c-59 9 -100 31 -123 64c-23 34 -35 90 -35 167c0 99 21 166 62 199
c42 33 120 50 234 50zM471 384v274h-113c-73 0 -121 -9 -145 -26c-23 -17 -35 -55 -35 -114c0 -63 6 -93 37 -113c31 -19 64 -21 143 -21h113z" />
    <glyph glyph-name="uni0430" unicode="&#x430;" horiz-adv-x="549" 
d="M255 558c171 0 234 -52 234 -164v-348c0 -15 -7 -24 -20 -29c-51 -15 -126 -22 -225 -22c-76 0 -130 10 -162 30c-32 21 -48 63 -49 126v18c1 115 60 152 191 152h144v52c0 56 -33 80 -113 80h-164c-12 0 -15 3 -15 15v61c0 12 3 13 14 16c47 9 102 13 165 13zM368 108
v126h-135c-35 0 -57 -4 -66 -13s-14 -26 -14 -53v-7c0 -55 25 -65 93 -65c51 0 92 4 122 12z" />
    <glyph glyph-name="uni0431" unicode="&#x431;" horiz-adv-x="592" 
d="M467 770h40c9 0 14 -10 14 -31c0 -72 -35 -94 -119 -106l-75 -12c-7 -1 -18 -2 -31 -5c-25 -5 -32 -8 -52 -16c-38 -16 -60 -47 -67 -106c29 36 69 48 138 48c91 0 153 -18 184 -55c31 -36 47 -106 47 -211c0 -113 -16 -189 -48 -226c-31 -37 -97 -55 -196 -55
s-165 18 -197 55c-31 37 -47 113 -46 226v88c0 147 22 226 67 280c14 17 34 31 59 43c51 24 97 36 181 49c37 5 62 12 73 20c10 8 8 14 28 14zM180 276c0 -73 7 -120 22 -143c15 -22 48 -33 100 -33s85 11 100 33c15 23 22 70 22 143c0 67 -7 112 -22 133s-48 32 -100 32
s-85 -11 -100 -32s-22 -66 -22 -133z" />
    <glyph glyph-name="uni0432" unicode="&#x432;" horiz-adv-x="565" 
d="M293 558c152 0 214 -42 214 -154c0 -80 -22 -115 -85 -126v-2c73 -8 99 -47 99 -128c0 -113 -61 -153 -209 -153c-104 0 -182 3 -234 8c-9 1 -13 5 -13 14v521c0 7 4 11 13 12c61 5 132 8 215 8zM281 454h-91v-135h75c93 0 123 13 123 66c0 52 -30 69 -107 69zM305 234
h-115v-134h115c71 0 97 16 97 65c0 52 -30 69 -97 69z" />
    <glyph glyph-name="uni0433" unicode="&#x433;" horiz-adv-x="460" 
d="M78 553h349c9 0 13 -4 13 -12v-88c0 -8 -4 -12 -13 -12h-234v-429c0 -8 -4 -12 -13 -12h-102c-9 0 -13 4 -13 12v529c0 8 4 12 13 12z" />
    <glyph glyph-name="uni0434" unicode="&#x434;" horiz-adv-x="584" 
d="M172 553h312c9 0 13 -4 13 -12v-435h38c9 0 13 -4 13 -12v-185c0 -9 -4 -13 -13 -13h-89c-8 0 -12 4 -12 13v91h-296v-91c0 -9 -4 -13 -13 -13h-88c-9 0 -13 4 -13 13v186c0 7 4 11 13 11h31c27 9 45 44 52 104l39 331c1 8 5 12 13 12zM375 106v341h-104l-33 -274
c-3 -25 -8 -48 -15 -67h152z" />
    <glyph glyph-name="uni0435" unicode="&#x435;" horiz-adv-x="558" 
d="M286 558c94 0 156 -18 187 -54s46 -108 47 -217v-30c0 -20 -6 -27 -34 -27h-316c1 -53 9 -88 25 -105c17 -17 50 -25 99 -25h170c10 0 15 -5 15 -15v-62c0 -9 -5 -15 -14 -17c-47 -7 -107 -11 -179 -11c-97 0 -161 18 -192 55s-47 113 -47 226s15 189 46 226
s96 56 193 56zM286 453c-46 0 -77 -9 -93 -28c-15 -18 -23 -54 -24 -108h230c-1 54 -10 90 -25 108c-15 19 -44 28 -88 28z" />
    <glyph glyph-name="uni0436" unicode="&#x436;" horiz-adv-x="847" 
d="M816 538l-198 -239l221 -281c7 -9 3 -18 -10 -18h-119c-7 0 -13 3 -18 8l-206 262v-255c0 -10 -5 -15 -15 -15h-95c-10 0 -15 5 -15 15v255l-207 -262c-3 -5 -9 -8 -17 -8h-120c-12 0 -17 9 -9 18l221 281l-199 239c-7 8 -1 15 12 15h110c8 0 14 -2 17 -7l192 -230v222
c0 10 5 15 15 15h95c10 0 15 -5 15 -15v-222l192 230c3 5 8 7 16 7h111c12 0 18 -7 11 -15z" />
    <glyph glyph-name="uni0437" unicode="&#x437;" horiz-adv-x="511" 
d="M222 558c83 0 144 -9 181 -28s56 -55 56 -109v-41c0 -59 -26 -93 -78 -104c52 -10 78 -45 78 -104v-38c0 -55 -19 -92 -56 -111s-98 -28 -181 -28c-61 0 -116 4 -164 13c-11 3 -17 10 -17 21v63c0 8 4 12 13 12h161c48 0 79 4 94 12s23 23 23 46v7c0 45 -16 61 -81 61
h-159c-9 0 -13 4 -13 13v66c0 9 4 13 13 13h158c67 0 82 16 82 61v11c0 23 -8 37 -24 44c-15 7 -47 11 -96 11h-158c-9 0 -13 4 -13 12v64c0 11 6 18 17 20c39 9 93 13 164 13z" />
    <glyph glyph-name="uni0438" unicode="&#x438;" horiz-adv-x="632" 
d="M481 553h74c8 0 12 -4 12 -11v-530c0 -8 -4 -12 -12 -12h-99c-8 0 -12 4 -12 12v338l-258 -331c-9 -13 -22 -19 -39 -19h-70c-8 0 -12 4 -12 12v530c0 7 4 11 12 11h99c8 0 12 -4 12 -11v-330l244 317c12 16 28 24 49 24z" />
    <glyph glyph-name="uni0439" unicode="&#x439;" horiz-adv-x="632" 
d="M421 765h45c11 0 16 -5 14 -16c-7 -49 -23 -82 -46 -101c-23 -18 -61 -27 -116 -27c-54 0 -93 9 -116 27c-23 19 -38 52 -45 101c-2 11 3 16 14 16h44c9 0 14 -4 17 -12c17 -41 38 -54 86 -54s69 13 86 54c3 8 8 12 17 12zM481 553h74c8 0 12 -4 12 -11v-530
c0 -8 -4 -12 -12 -12h-99c-8 0 -12 4 -12 12v338l-258 -331c-9 -13 -22 -19 -39 -19h-70c-8 0 -12 4 -12 12v530c0 7 4 11 12 11h99c8 0 12 -4 12 -11v-330l244 317c12 16 28 24 49 24z" />
    <glyph glyph-name="uni043A" unicode="&#x43a;" horiz-adv-x="550" 
d="M402 553h110c13 0 19 -7 12 -15l-199 -239l221 -281c8 -9 3 -18 -9 -18h-119c-9 0 -15 3 -18 8l-207 262v-255c0 -10 -5 -15 -15 -15h-98c-10 0 -15 5 -15 15v523c0 10 5 15 15 15h98c10 0 15 -5 15 -15v-222l192 230c4 5 10 7 17 7z" />
    <glyph glyph-name="uni043B" unicode="&#x43b;" horiz-adv-x="578" 
d="M181 553h321c7 0 11 -4 11 -11v-531c0 -7 -4 -11 -11 -11h-101c-7 0 -11 4 -11 11v434h-108l-34 -293c-12 -104 -62 -156 -151 -156c-22 0 -41 2 -57 6c-12 3 -18 10 -18 21v71c0 7 4 10 12 10h18c55 0 69 23 77 84l41 354c1 7 5 11 11 11z" />
    <glyph glyph-name="uni043C" unicode="&#x43c;" horiz-adv-x="787" 
d="M586 553h91c7 0 11 -3 12 -10l56 -531c1 -8 -3 -12 -11 -12h-102c-7 0 -11 4 -12 12l-34 342l-139 -326c-3 -7 -8 -10 -16 -10h-76c-7 0 -12 3 -16 10l-137 326l-35 -342c-1 -8 -5 -12 -12 -12h-102c-9 0 -12 4 -11 11l56 531c1 7 6 11 13 11h90c25 0 36 -6 45 -29
l147 -344l148 345c9 23 18 28 45 28z" />
    <glyph glyph-name="uni043D" unicode="&#x43d;" horiz-adv-x="637" 
d="M458 553h99c10 0 15 -5 15 -15v-523c0 -10 -5 -15 -15 -15h-99c-10 0 -15 5 -15 15v203h-250v-203c0 -10 -5 -15 -15 -15h-98c-10 0 -15 5 -15 15v523c0 10 5 15 15 15h98c10 0 15 -5 15 -15v-207h250v207c0 10 5 15 15 15z" />
    <glyph glyph-name="uni043E" unicode="&#x43e;" horiz-adv-x="581" 
d="M290 558c100 0 166 -19 197 -56s47 -112 47 -226c0 -113 -16 -189 -47 -226s-97 -55 -197 -55c-99 0 -165 18 -196 55s-47 113 -47 226c0 114 16 189 47 226s97 56 196 56zM290 453c-52 0 -85 -11 -100 -34s-22 -70 -22 -143s7 -120 22 -143c15 -22 48 -33 100 -33
c53 0 86 11 101 33c15 23 22 70 22 143s-7 120 -22 143s-48 34 -101 34z" />
    <glyph glyph-name="uni043F" unicode="&#x43f;" horiz-adv-x="574" 
d="M80 553h414c10 0 15 -5 15 -15v-523c0 -10 -5 -15 -15 -15h-99c-10 0 -15 5 -15 15v426h-187v-426c0 -10 -5 -15 -15 -15h-98c-10 0 -15 5 -15 15v523c0 10 5 15 15 15z" />
    <glyph glyph-name="uni0440" unicode="&#x440;" horiz-adv-x="589" 
d="M295 558c101 0 167 -19 199 -56s48 -110 48 -221c0 -114 -15 -190 -46 -229c-30 -38 -91 -57 -183 -57c-51 0 -93 2 -128 6v-185c0 -11 -5 -16 -15 -16h-91c-10 0 -15 5 -15 16v704c0 11 6 18 19 20c72 12 143 18 212 18zM299 453h-114v-346c34 -4 70 -6 109 -6
c55 0 89 11 104 33s23 70 23 143c0 72 -7 119 -21 142s-48 34 -101 34z" />
    <glyph glyph-name="uni0441" unicode="&#x441;" horiz-adv-x="498" 
d="M291 558c62 0 114 -4 157 -11c11 -2 16 -8 16 -18v-61c0 -10 -5 -15 -16 -15h-157c-52 0 -85 -11 -100 -34c-15 -22 -22 -69 -22 -142s7 -120 22 -143s48 -34 100 -34h157c11 0 16 -5 16 -15v-61c0 -10 -5 -16 -16 -18c-43 -7 -95 -11 -157 -11c-101 0 -166 18 -197 55
s-46 112 -46 227c0 119 9 179 45 224c37 45 94 57 198 57z" />
    <glyph glyph-name="uni0442" unicode="&#x442;" horiz-adv-x="515" 
d="M35 553h445c10 0 15 -5 15 -15v-82c0 -10 -5 -15 -15 -15h-158v-426c0 -10 -5 -15 -15 -15h-99c-10 0 -15 5 -15 15v426h-158c-10 0 -15 5 -15 15v82c0 10 5 15 15 15z" />
    <glyph glyph-name="uni0443" unicode="&#x443;" horiz-adv-x="606" 
d="M435 553h91c10 0 15 -5 15 -15v-506c0 -75 -6 -118 -26 -158c-27 -57 -93 -79 -212 -79c-62 0 -118 4 -169 11c-9 2 -13 7 -13 16v59c0 10 5 15 14 15h161c49 0 82 7 99 22c17 14 25 41 25 81v5c-37 -6 -79 -9 -128 -9c-91 0 -153 19 -185 56c-31 37 -47 107 -47 209v278
c0 10 5 15 15 15h91c10 0 15 -5 15 -15v-261c0 -73 8 -120 23 -143c16 -22 52 -33 107 -33c45 0 81 2 109 6v431c0 10 5 15 15 15z" />
    <glyph glyph-name="uni0444" unicode="&#x444;" horiz-adv-x="785" 
d="M555 558c125 0 184 -79 184 -282c0 -201 -59 -281 -184 -281c-49 0 -83 8 -102 25v-204c0 -11 -5 -16 -15 -16h-91c-10 0 -15 5 -15 16v204c-19 -17 -53 -25 -102 -25c-125 0 -184 80 -184 281c0 203 59 282 184 282c45 0 79 -8 102 -25v217c0 10 5 15 15 15h91
c10 0 15 -5 15 -15v-217c23 17 57 25 102 25zM331 119v315c-15 12 -39 18 -73 18c-37 0 -62 -13 -73 -38s-17 -71 -17 -138s6 -113 17 -138s36 -37 73 -37c34 0 58 6 73 18zM526 101c38 0 63 12 74 37s17 71 17 138s-6 113 -17 138s-36 38 -74 38c-33 0 -57 -6 -72 -18v-315
c15 -12 39 -18 72 -18z" />
    <glyph glyph-name="uni0445" unicode="&#x445;" horiz-adv-x="553" 
d="M402 553h111c12 0 15 -9 7 -18l-171 -243l191 -274c7 -11 4 -18 -8 -18h-111c-7 0 -12 3 -15 9l-130 187l-131 -187c-3 -6 -8 -9 -14 -9h-111c-12 0 -16 7 -9 18l192 273l-172 244c-8 9 -4 18 7 18h112c7 0 12 -3 17 -9l109 -157l109 157c5 6 10 9 17 9z" />
    <glyph glyph-name="uni0446" unicode="&#x446;" horiz-adv-x="603" 
d="M513 538v-426h47c10 0 15 -5 15 -15v-185c0 -10 -5 -15 -15 -15h-93c-10 0 -15 5 -15 15v88h-372c-10 0 -15 5 -15 15v523c0 10 5 15 15 15h99c10 0 15 -5 15 -15v-426h190v426c0 10 5 15 15 15h99c10 0 15 -5 15 -15z" />
    <glyph glyph-name="uni0447" unicode="&#x447;" horiz-adv-x="549" 
d="M370 553h99c10 0 15 -5 15 -15v-522c0 -11 -5 -16 -15 -16h-99c-10 0 -15 5 -15 16v166h-34c-39 0 -72 1 -98 3c-52 4 -101 18 -126 39c-41 35 -56 93 -56 197v117c0 10 5 15 15 15h99c10 0 15 -5 15 -15v-111c0 -60 9 -97 27 -112c19 -14 64 -21 136 -21h22v244
c0 10 5 15 15 15z" />
    <glyph glyph-name="uni0448" unicode="&#x448;" horiz-adv-x="797" 
d="M619 553h98c10 0 15 -5 15 -15v-523c0 -10 -5 -15 -15 -15h-637c-10 0 -15 5 -15 15v523c0 10 5 15 15 15h98c10 0 15 -5 15 -15v-429h145v429c0 10 5 15 15 15h92c10 0 15 -5 15 -15v-429h144v429c0 10 5 15 15 15z" />
    <glyph glyph-name="uni0449" unicode="&#x449;" horiz-adv-x="818" 
d="M728 538v-426h47c10 0 15 -5 15 -15v-185c0 -10 -5 -15 -15 -15h-92c-10 0 -15 5 -15 15v88h-588c-10 0 -15 5 -15 15v523c0 10 5 15 15 15h98c10 0 15 -5 15 -15v-426h139v426c0 10 5 15 15 15h98c10 0 15 -5 15 -15v-426h139v426c0 10 5 15 15 15h99c10 0 15 -5 15 -15
z" />
    <glyph glyph-name="uni044A" unicode="&#x44a;" horiz-adv-x="625" 
d="M260 542v-200h125c149 0 210 -40 210 -152v-42c0 -113 -61 -153 -210 -153c-105 0 -185 3 -238 8c-7 1 -11 4 -11 11v429h-105c-8 0 -12 4 -12 11v88c0 7 4 11 12 11h217c8 0 12 -4 12 -11zM472 163v17c0 48 -28 62 -87 62h-125v-140h117c71 0 95 13 95 61z" />
    <glyph glyph-name="uni044B" unicode="&#x44b;" horiz-adv-x="766" 
d="M190 542v-200h124c149 0 211 -40 211 -152v-42c0 -113 -60 -153 -211 -153c-105 0 -185 3 -238 8c-7 1 -11 4 -11 11v528c0 7 4 11 12 11h101c8 0 12 -4 12 -11zM595 553h91c10 0 15 -5 15 -15v-523c0 -10 -5 -15 -15 -15h-91c-10 0 -15 5 -15 15v523c0 10 5 15 15 15z
M401 163v17c0 47 -27 62 -86 62h-125v-140h116c71 0 95 13 95 61z" />
    <glyph glyph-name="uni044C" unicode="&#x44c;" horiz-adv-x="555" 
d="M190 541v-199h124c149 0 211 -40 211 -152v-42c0 -113 -60 -153 -211 -153c-105 0 -185 3 -238 8c-7 1 -11 5 -11 13v526c0 7 4 11 13 11h99c9 0 13 -4 13 -12zM401 163v17c0 47 -27 62 -86 62h-125v-140h116c71 0 95 13 95 61z" />
    <glyph glyph-name="uni044D" unicode="&#x44d;" horiz-adv-x="525" 
d="M228 558c99 0 165 -20 199 -59c35 -39 52 -113 52 -222s-17 -184 -52 -223c-34 -39 -100 -59 -199 -59c-67 0 -124 4 -172 13c-12 2 -18 8 -18 19v63c0 8 4 12 12 12h178c47 0 80 9 97 27c17 19 27 52 30 100h-217c-8 0 -12 4 -12 11v74c0 7 4 10 12 10h217
c-3 48 -13 81 -30 100s-50 28 -97 28h-178c-8 0 -12 4 -12 11v63c0 11 6 17 18 20c38 8 95 12 172 12z" />
    <glyph glyph-name="uni044E" unicode="&#x44e;" horiz-adv-x="817" 
d="M526 558c100 0 166 -19 197 -56s47 -112 47 -226c0 -113 -16 -189 -47 -226s-97 -55 -197 -55c-90 0 -152 15 -185 45c-33 31 -51 90 -56 178h-92v-203c0 -10 -5 -15 -15 -15h-98c-10 0 -15 5 -15 15v523c0 10 5 15 15 15h98c10 0 15 -5 15 -15v-207h92
c4 90 22 150 55 181s95 46 186 46zM526 100c53 0 86 11 101 33c15 23 22 70 22 143s-7 120 -22 143s-48 34 -101 34c-52 0 -85 -11 -100 -34c-14 -23 -21 -70 -21 -143s7 -120 21 -143c15 -22 48 -33 100 -33z" />
    <glyph glyph-name="uni044F" unicode="&#x44f;" horiz-adv-x="557" 
d="M281 558c86 0 152 -2 198 -7c8 -1 12 -4 12 -11v-529c0 -9 -3 -11 -12 -11h-101c-9 0 -11 2 -11 11v186h-75l-127 -181c-7 -11 -17 -16 -31 -16h-97c-13 0 -16 5 -9 14l132 192c-88 16 -119 61 -119 165c0 70 18 119 53 146s98 41 187 41zM367 288v161h-84
c-45 0 -76 -6 -92 -17c-15 -11 -23 -33 -23 -66s7 -54 22 -64c15 -9 46 -14 93 -14h84z" />
    <glyph glyph-name="uni0451" unicode="&#x451;" horiz-adv-x="558" 
d="M184 757c45 0 68 -22 68 -66c0 -45 -23 -67 -68 -67c-47 0 -70 22 -70 67c0 44 23 66 70 66zM456 691c0 -45 -23 -67 -69 -67s-69 22 -69 67c0 44 23 66 69 66s69 -22 69 -66zM286 558c94 0 156 -18 187 -54s46 -108 47 -217v-30c0 -20 -6 -27 -34 -27h-316
c1 -53 9 -88 25 -105c17 -17 50 -25 99 -25h170c10 0 15 -5 15 -15v-62c0 -9 -5 -15 -14 -17c-47 -7 -107 -11 -179 -11c-97 0 -161 18 -192 55s-47 113 -47 226s15 189 46 226s96 56 193 56zM286 453c-46 0 -77 -9 -93 -28c-15 -18 -23 -54 -24 -108h230
c-1 54 -10 90 -25 108c-15 19 -44 28 -88 28z" />
    <glyph glyph-name="Wgrave" unicode="&#x1e80;" horiz-adv-x="1094" 
d="M386 975h116c6 0 10 -2 12 -6l73 -125c3 -6 2 -11 -3 -14l-31 -19c-5 -4 -9 -4 -14 0l-158 135c-3 5 -5 9 -5 12v7c0 7 3 10 10 10zM948 765h105c12 0 14 -3 13 -16l-130 -636c-11 -52 -24 -85 -40 -98s-49 -20 -100 -20c-56 0 -92 6 -108 19c-15 13 -29 46 -42 99
l-99 417l-99 -417c-33 -112 -30 -112 -151 -118c-50 0 -83 7 -99 20s-29 46 -40 98l-130 636c-1 13 1 16 13 16h104c9 0 11 -3 14 -16l118 -587c7 -35 13 -42 30 -42c20 0 24 6 35 42l137 558c3 11 9 16 19 16h98c10 0 16 -5 19 -16l137 -558c9 -36 14 -42 35 -42
c17 0 22 7 30 42l118 587c1 11 6 16 13 16z" />
    <glyph glyph-name="wgrave" unicode="&#x1e81;" horiz-adv-x="860" 
d="M267 775h116c6 0 10 -2 12 -6l73 -125c3 -6 2 -11 -3 -14l-31 -19c-5 -4 -9 -4 -14 0l-158 135c-3 5 -5 9 -5 12v7c0 7 3 10 10 10zM721 553h99c11 0 13 -3 12 -15l-87 -436c-9 -47 -22 -76 -38 -89c-15 -12 -45 -18 -89 -18c-49 0 -81 6 -94 17s-26 41 -37 90l-57 252
l-57 -252c-11 -49 -23 -79 -37 -90c-13 -11 -45 -17 -94 -17c-44 0 -74 6 -89 18c-15 13 -28 42 -38 89l-87 436c-1 10 3 15 12 15h99c8 0 9 -3 12 -15l76 -409c5 -25 10 -29 22 -29c13 0 15 2 22 29l95 393c2 10 7 15 14 15h100c7 0 12 -5 15 -15l95 -393
c5 -27 8 -29 21 -29s17 4 22 29l76 409c2 10 6 15 12 15z" />
    <glyph glyph-name="Wacute" unicode="&#x1e82;" horiz-adv-x="1094" 
d="M582 975h116c7 0 10 -3 10 -10v-7c0 -3 -2 -7 -5 -12l-158 -135c-5 -4 -9 -4 -14 0l-31 19c-5 3 -6 8 -3 14l73 125c2 4 6 6 12 6zM948 765h105c12 0 14 -3 13 -16l-130 -636c-11 -52 -24 -85 -40 -98s-49 -20 -100 -20c-56 0 -92 6 -108 19c-15 13 -29 46 -42 99
l-99 417l-99 -417c-33 -112 -30 -112 -151 -118c-50 0 -83 7 -99 20s-29 46 -40 98l-130 636c-1 13 1 16 13 16h104c9 0 11 -3 14 -16l118 -587c7 -35 13 -42 30 -42c20 0 24 6 35 42l137 558c3 11 9 16 19 16h98c10 0 16 -5 19 -16l137 -558c9 -36 14 -42 35 -42
c17 0 22 7 30 42l118 587c1 11 6 16 13 16z" />
    <glyph glyph-name="wacute" unicode="&#x1e83;" horiz-adv-x="860" 
d="M464 775h116c7 0 10 -3 10 -10v-7c0 -5 -2 -9 -5 -12l-158 -135c-5 -4 -9 -4 -14 0l-31 19c-5 3 -6 8 -3 14l73 125c2 4 6 6 12 6zM721 553h99c11 0 13 -3 12 -15l-87 -436c-9 -47 -22 -76 -38 -89c-15 -12 -45 -18 -89 -18c-49 0 -81 6 -94 17s-26 41 -37 90l-57 252
l-57 -252c-11 -49 -23 -79 -37 -90c-13 -11 -45 -17 -94 -17c-44 0 -74 6 -89 18c-15 13 -28 42 -38 89l-87 436c-1 10 3 15 12 15h99c8 0 9 -3 12 -15l76 -409c5 -25 10 -29 22 -29c13 0 15 2 22 29l95 393c2 10 7 15 14 15h100c7 0 12 -5 15 -15l95 -393
c5 -27 8 -29 21 -29s17 4 22 29l76 409c2 10 6 15 12 15z" />
    <glyph glyph-name="Wdieresis" unicode="&#x1e84;" horiz-adv-x="1094" 
d="M446 957c45 0 68 -22 68 -66c0 -45 -23 -67 -68 -67c-47 0 -70 22 -70 67c0 44 23 66 70 66zM718 891c0 -45 -23 -67 -69 -67s-69 22 -69 67c0 44 23 66 69 66s69 -22 69 -66zM948 765h105c12 0 14 -3 13 -16l-130 -636c-11 -52 -24 -85 -40 -98s-49 -20 -100 -20
c-56 0 -92 6 -108 19c-15 13 -29 46 -42 99l-99 417l-99 -417c-33 -112 -30 -112 -151 -118c-50 0 -83 7 -99 20s-29 46 -40 98l-130 636c-1 13 1 16 13 16h104c9 0 11 -3 14 -16l118 -587c7 -35 13 -42 30 -42c20 0 24 6 35 42l137 558c3 11 9 16 19 16h98
c10 0 16 -5 19 -16l137 -558c9 -36 14 -42 35 -42c17 0 22 7 30 42l118 587c1 11 6 16 13 16z" />
    <glyph glyph-name="wdieresis" unicode="&#x1e85;" horiz-adv-x="860" 
d="M329 757c45 0 68 -22 68 -66c0 -45 -23 -67 -68 -67c-47 0 -70 22 -70 67c0 44 23 66 70 66zM601 691c0 -45 -23 -67 -69 -67s-69 22 -69 67c0 44 23 66 69 66s69 -22 69 -66zM721 553h99c11 0 13 -3 12 -15l-87 -436c-9 -47 -22 -76 -38 -89c-15 -12 -45 -18 -89 -18
c-49 0 -81 6 -94 17s-26 41 -37 90l-57 252l-57 -252c-11 -49 -23 -79 -37 -90c-13 -11 -45 -17 -94 -17c-44 0 -74 6 -89 18c-15 13 -28 42 -38 89l-87 436c-1 10 3 15 12 15h99c8 0 9 -3 12 -15l76 -409c5 -25 10 -29 22 -29c13 0 15 2 22 29l95 393c2 10 7 15 14 15h100
c7 0 12 -5 15 -15l95 -393c5 -27 8 -29 21 -29s17 4 22 29l76 409c2 10 6 15 12 15z" />
    <glyph glyph-name="Ygrave" unicode="&#x1ef2;" horiz-adv-x="685" 
d="M179 975h116c6 0 10 -2 12 -6l73 -125c3 -6 2 -11 -3 -14l-31 -19c-5 -3 -10 -3 -14 0l-158 135c-3 3 -5 7 -5 12v7c0 7 3 10 10 10zM560 765h109c15 0 19 -7 11 -22l-274 -504v-223c0 -11 -5 -16 -15 -16h-98c-10 0 -15 5 -15 16v224l-273 503c-8 15 -4 22 11 22h108
c12 0 21 -5 27 -16l191 -377l191 377c6 11 15 16 27 16z" />
    <glyph glyph-name="ygrave" unicode="&#x1ef3;" horiz-adv-x="606" 
d="M158 775h116c6 0 10 -2 12 -6l73 -125c3 -6 2 -11 -3 -14l-31 -19c-5 -3 -10 -3 -14 0l-158 135c-3 3 -5 7 -5 12v7c0 7 3 10 10 10zM435 553h91c10 0 15 -5 15 -15v-506c0 -75 -6 -118 -26 -158c-27 -57 -93 -79 -212 -79c-62 0 -118 4 -169 11c-9 2 -13 7 -13 16v59
c0 10 5 15 14 15h161c49 0 82 7 99 22c17 14 25 41 25 81v5c-37 -6 -79 -9 -128 -9c-91 0 -153 19 -185 56c-31 37 -47 107 -47 209v278c0 10 5 15 15 15h91c10 0 15 -5 15 -15v-261c0 -73 8 -120 23 -143c16 -22 52 -33 107 -33c45 0 81 2 109 6v431c0 10 5 15 15 15z" />
    <glyph glyph-name="uni1EF8" unicode="&#x1ef8;" horiz-adv-x="685" 
d="M269 958c17 0 42 -7 75 -20s54 -20 64 -20c23 0 33 7 45 34c4 9 10 13 19 10l32 -9c10 -3 14 -11 11 -22c-24 -83 -44 -105 -99 -105c-17 0 -42 7 -75 20s-54 20 -64 20c-24 0 -34 -7 -45 -34c-5 -9 -11 -13 -19 -10l-33 8c-9 4 -13 11 -10 22c23 83 44 106 99 106z
M560 765h109c15 0 19 -7 11 -22l-274 -504v-223c0 -11 -5 -16 -15 -16h-98c-10 0 -15 5 -15 16v224l-273 503c-8 15 -4 22 11 22h108c12 0 21 -5 27 -16l191 -377l191 377c6 11 15 16 27 16z" />
    <glyph glyph-name="uni1EF9" unicode="&#x1ef9;" horiz-adv-x="606" 
d="M232 758c17 0 42 -7 75 -20s54 -20 64 -20c23 0 33 7 45 34c4 9 10 13 18 10l33 -9c9 -3 13 -11 11 -22c-24 -83 -44 -105 -99 -105c-17 0 -43 7 -76 20s-54 20 -63 20c-24 0 -34 -7 -45 -34c-5 -9 -11 -13 -19 -10l-33 8c-9 4 -13 11 -10 22c23 83 44 106 99 106z
M435 553h91c10 0 15 -5 15 -15v-506c0 -75 -6 -118 -26 -158c-27 -57 -93 -79 -212 -79c-62 0 -118 4 -169 11c-9 2 -13 7 -13 16v59c0 10 5 15 14 15h161c49 0 82 7 99 22c17 14 25 41 25 81v5c-37 -6 -79 -9 -128 -9c-91 0 -153 19 -185 56c-31 37 -47 107 -47 209v278
c0 10 5 15 15 15h91c10 0 15 -5 15 -15v-261c0 -73 8 -120 23 -143c16 -22 52 -33 107 -33c45 0 81 2 109 6v431c0 10 5 15 15 15z" />
    <glyph glyph-name="endash" unicode="&#x2013;" horiz-adv-x="618" 
d="M76 341h466c10 0 15 -5 15 -15v-82c0 -10 -5 -15 -15 -15h-466c-10 0 -15 5 -15 15v82c0 10 5 15 15 15z" />
    <glyph glyph-name="emdash" unicode="&#x2014;" horiz-adv-x="924" 
d="M76 341h772c10 0 15 -5 15 -15v-82c0 -10 -5 -15 -15 -15h-772c-10 0 -15 5 -15 15v82c0 10 5 15 15 15z" />
    <glyph glyph-name="quoteleft.001" unicode="&#x2018;" horiz-adv-x="275" 
d="M208 764l33 -18c5 -3 6 -7 3 -14l-71 -246c-2 -6 -6 -9 -12 -9h-120c-7 0 -10 3 -10 10v19c0 4 2 8 5 13l157 240c5 6 10 8 15 5z" />
    <glyph glyph-name="quoteright" unicode="&#x2019;" horiz-adv-x="268" 
d="M120 765h119c7 0 10 -3 10 -10v-18c0 -5 -2 -9 -5 -14l-157 -240c-3 -5 -8 -7 -14 -4l-34 18c-5 3 -6 7 -3 14l72 246c2 5 6 8 12 8z" />
    <glyph glyph-name="quotesinglbase" unicode="&#x201a;" horiz-adv-x="263" 
d="M85 122h120c7 0 10 -3 10 -10v-18c0 -4 -2 -9 -5 -14l-157 -240c-5 -5 -10 -7 -15 -4l-33 18c-5 3 -6 7 -3 14l71 246c2 5 6 8 12 8z" />
    <glyph glyph-name="quotedblleft.001" unicode="&#x201c;" horiz-adv-x="492" 
d="M207 764l34 -18c5 -3 6 -7 3 -14l-71 -246c-2 -6 -6 -9 -13 -9h-119c-7 0 -10 3 -10 10v19c0 4 2 8 5 13l157 240c4 6 9 8 14 5zM424 764l34 -18c5 -3 6 -7 3 -14l-71 -246c-2 -6 -6 -9 -13 -9h-119c-7 0 -10 3 -10 10v19c0 4 2 8 5 13l157 240c4 6 9 8 14 5z" />
    <glyph glyph-name="quotedblright" unicode="&#x201d;" horiz-adv-x="495" 
d="M120 765h119c7 0 10 -3 10 -10v-18c0 -5 -2 -9 -5 -14l-157 -240c-3 -5 -8 -7 -14 -4l-34 18c-5 3 -6 7 -3 14l72 246c2 5 6 8 12 8zM346 765h120c7 0 10 -3 10 -10v-18c0 -5 -2 -9 -5 -14l-158 -240c-3 -5 -8 -7 -14 -4l-34 18c-5 3 -6 7 -3 14l72 246c2 5 6 8 12 8z
" />
    <glyph glyph-name="quotedblbase" unicode="&#x201e;" horiz-adv-x="483" 
d="M85 122h120c7 0 10 -3 10 -10v-18c0 -4 -2 -9 -5 -14l-158 -240c-4 -5 -9 -7 -14 -4l-34 18c-5 3 -6 7 -3 14l72 246c2 5 6 8 12 8zM306 122h119c7 0 10 -3 10 -10v-18c0 -4 -2 -9 -5 -14l-157 -240c-3 -5 -8 -7 -14 -4l-34 18c-5 3 -6 7 -3 14l71 246c2 5 6 8 13 8z" />
    <glyph glyph-name="dagger.001" unicode="&#x2020;" horiz-adv-x="493" 
d="M434 476h-127v-461c0 -10 -5 -15 -15 -15h-91c-10 0 -15 5 -15 15v462h-126c-10 0 -15 5 -15 15v73c0 10 5 15 15 15h126v170c0 10 5 15 15 15h91c10 0 15 -5 15 -15v-170h127c10 0 15 -5 15 -15v-74c0 -10 -5 -15 -15 -15z" />
    <glyph glyph-name="daggerdbl" unicode="&#x2021;" horiz-adv-x="493" 
d="M201 765h91c10 0 15 -5 15 -15v-170h127c10 0 15 -5 15 -15v-74c0 -10 -5 -15 -15 -15h-127v-177h127c10 0 15 -5 15 -15v-73c0 -10 -5 -15 -15 -15h-127v-181c0 -10 -5 -15 -15 -15h-91c-10 0 -15 5 -15 15v182h-126c-10 0 -15 5 -15 15v72c0 10 5 15 15 15h126v178
h-126c-10 0 -15 5 -15 15v73c0 10 5 15 15 15h126v170c0 10 5 15 15 15z" />
    <glyph glyph-name="bullet" unicode="&#x2022;" horiz-adv-x="560" 
d="M281 437c103 0 164 -55 164 -147c0 -93 -61 -148 -164 -148c-105 0 -166 55 -166 148c0 92 61 147 166 147z" />
    <glyph glyph-name="ellipsis.001" unicode="&#x2026;" horiz-adv-x="668" 
d="M117 133c48 0 72 -23 72 -69s-24 -69 -72 -69c-47 0 -73 25 -73 69s26 69 73 69zM333 133c48 0 72 -23 72 -69s-24 -69 -72 -69c-47 0 -73 25 -73 69s26 69 73 69zM552 133c48 0 72 -23 72 -69s-24 -69 -72 -69c-47 0 -73 25 -73 69s26 69 73 69z" />
    <glyph glyph-name="perthousand.001" unicode="&#x2030;" horiz-adv-x="1357" 
d="M213 770c72 0 121 -14 146 -43c25 -28 38 -82 38 -161c0 -80 -13 -134 -38 -163c-25 -28 -74 -42 -146 -42c-71 0 -120 14 -145 43s-38 83 -38 162s13 133 38 161c25 29 74 43 145 43zM639 765h49c10 0 12 -5 6 -15l-386 -735c-5 -10 -13 -15 -23 -15h-49
c-9 0 -12 5 -7 15l386 735c6 10 14 15 24 15zM133 566c0 -88 19 -115 80 -115s81 27 81 115c0 87 -20 114 -81 114s-80 -27 -80 -114zM710 404c72 0 121 -14 146 -43c25 -28 38 -82 38 -162c0 -79 -13 -133 -38 -162c-25 -28 -74 -42 -146 -42c-71 0 -120 14 -145 42
c-25 29 -38 83 -38 162s13 133 38 162s74 43 145 43zM1000 361c25 29 74 43 145 43s120 -14 145 -43s38 -83 38 -162s-13 -133 -38 -162c-25 -28 -74 -42 -145 -42s-120 14 -146 42c-25 29 -38 83 -38 162s13 133 39 162zM710 85c63 0 81 26 81 114s-20 115 -81 115
s-80 -27 -80 -115s19 -114 80 -114zM1145 85c61 0 80 26 80 114s-19 115 -80 115s-81 -27 -81 -115s18 -114 81 -114z" />
    <glyph glyph-name="guilsinglleft" unicode="&#x2039;" horiz-adv-x="326" 
d="M172 473h90c10 0 15 -5 15 -15v-7c0 -7 -2 -13 -7 -18l-126 -158l126 -157c5 -5 7 -11 7 -18v-7c0 -10 -5 -15 -15 -15h-90c-7 0 -13 3 -18 9l-110 143c-5 9 -8 16 -8 22v46c0 7 3 15 8 22l110 144c5 6 11 9 18 9z" />
    <glyph glyph-name="guilsinglright" unicode="&#x203a;" horiz-adv-x="325" 
d="M64 473h90c7 0 13 -3 18 -9l110 -144c5 -7 7 -14 7 -22v-46c0 -7 -2 -15 -7 -22l-110 -143c-5 -6 -11 -9 -18 -9h-90c-10 0 -15 5 -15 15v7c0 7 2 13 7 18l126 157l-126 158c-5 5 -7 11 -7 18v7c0 10 5 15 15 15z" />
    <glyph glyph-name="fraction.001" unicode="&#x2044;" horiz-adv-x="140" 
d="M238 801h35c9 0 11 -6 7 -17l-353 -805c-6 -11 -13 -17 -22 -17h-37c-11 0 -13 6 -7 17l354 805c5 11 13 17 23 17z" />
    <glyph glyph-name="uni2070" unicode="&#x2070;" horiz-adv-x="386" 
d="M68 878c21 29 63 44 125 44s103 -15 124 -44s32 -83 32 -164s-11 -135 -32 -164s-62 -43 -124 -43s-104 14 -125 43s-31 83 -31 164s10 135 31 164zM253 823c-10 19 -30 29 -60 29s-50 -10 -61 -29c-10 -19 -15 -56 -15 -109s5 -90 15 -109c11 -19 31 -28 61 -28
s50 9 60 28c11 19 16 56 16 109s-5 90 -16 109z" />
    <glyph glyph-name="uni2074" unicode="&#x2074;" horiz-adv-x="382" 
d="M107 919h64c6 0 8 -3 5 -9l-64 -230h100v93c0 5 2 8 6 10l64 22c7 2 10 0 10 -6v-119h60c5 0 8 -3 8 -8v-54c0 -5 -3 -8 -8 -8h-60v-92c0 -5 -3 -8 -8 -8h-65c-5 0 -7 3 -7 8v92h-179c-5 0 -8 3 -8 8v37c0 4 1 10 4 18l68 241c2 3 5 5 10 5z" />
    <glyph glyph-name="uni2075" unicode="&#x2075;" horiz-adv-x="354" 
d="M61 919h240c5 0 8 -3 8 -8v-54c0 -5 -3 -8 -8 -8h-178l-6 -90c14 3 33 4 57 4c97 0 146 -25 146 -109v-38c0 -84 -48 -109 -159 -109c-46 0 -83 3 -112 8c-6 1 -9 5 -9 11v44c0 5 3 7 8 7h107c63 0 84 9 84 49v16c0 41 -23 51 -84 51h-102c-9 0 -13 3 -13 10v48l12 160
c1 5 4 8 9 8z" />
    <glyph glyph-name="uni2076" unicode="&#x2076;" horiz-adv-x="355" 
d="M154 919h69c7 0 8 -3 5 -10l-77 -156c13 3 29 5 46 5c88 0 132 -33 132 -98v-53c0 -75 -51 -100 -148 -100s-150 27 -151 104v45c0 20 4 37 11 52l103 206c2 3 5 5 10 5zM181 693c-53 0 -71 -10 -71 -49v-17c0 -39 18 -50 71 -50c51 0 68 11 68 50v17c0 39 -17 49 -68 49
z" />
    <glyph glyph-name="uni2077" unicode="&#x2077;" horiz-adv-x="340" 
d="M31 919h281c5 0 8 -3 8 -8v-41c0 -4 -1 -8 -4 -12l-179 -343c-1 -3 -4 -5 -9 -5h-75c-7 0 -9 3 -6 9l174 330h-190c-6 0 -9 2 -9 7v55c0 5 3 8 9 8z" />
    <glyph glyph-name="uni2078" unicode="&#x2078;" horiz-adv-x="377" 
d="M185 922h9c92 0 138 -37 138 -112c0 -45 -18 -78 -55 -99c44 -15 66 -46 66 -93c0 -74 -50 -111 -150 -111h-10c-100 0 -150 37 -150 110c0 48 23 82 69 103c-37 16 -55 46 -55 91c0 74 46 111 138 111zM192 852h-7c-38 0 -57 -17 -57 -50c0 -28 14 -40 43 -48l48 -10
c21 11 32 30 32 56c0 35 -20 52 -59 52zM219 675l-59 14c-30 -11 -45 -31 -45 -58c0 -36 23 -54 70 -54h6c47 0 71 16 71 48c0 27 -14 43 -43 50z" />
    <glyph glyph-name="uni2079" unicode="&#x2079;" horiz-adv-x="354" 
d="M174 921c97 0 150 -27 151 -104v-45c0 -20 -4 -37 -11 -51l-104 -206c-1 -3 -4 -5 -9 -5h-69c-7 0 -9 3 -6 9l79 157c-12 -3 -28 -5 -47 -5c-88 0 -132 33 -132 98v52c0 75 49 100 148 100zM174 851c-52 0 -68 -10 -68 -49v-18c0 -39 16 -49 68 -49c53 0 70 10 70 49v18
c0 39 -17 49 -70 49z" />
    <glyph glyph-name="uni207D" unicode="&#x207d;" horiz-adv-x="212" 
d="M132 946h58c3 0 4 -1 4 -3v-5c0 -3 0 -5 -1 -6c-40 -53 -64 -93 -72 -119s-12 -68 -12 -125c0 -52 4 -91 13 -117s33 -68 71 -127c1 -1 1 -3 1 -6v-5c0 -2 -1 -3 -4 -3h-58c-3 0 -6 1 -8 3c-44 53 -66 84 -77 128c-5 22 -8 40 -9 53c-1 14 -1 39 -1 74c0 64 3 106 8 126
c9 37 36 80 79 129c2 2 5 3 8 3z" />
    <glyph glyph-name="uni207E" unicode="&#x207e;" horiz-adv-x="212" 
d="M22 946h58c3 0 6 -1 8 -3c44 -53 66 -84 77 -128c5 -22 8 -40 9 -54c1 -13 1 -38 1 -73c0 -64 -3 -106 -8 -126c-9 -37 -36 -80 -79 -129c-2 -2 -5 -3 -8 -3h-58c-3 0 -4 1 -4 3v5c0 3 0 5 1 6c40 53 64 93 72 119s12 68 12 125c0 52 -5 91 -14 117s-32 68 -70 127
c-1 1 -1 3 -1 6v5c0 2 1 3 4 3z" />
    <glyph glyph-name="lira" unicode="&#x20a4;" horiz-adv-x="634" 
d="M437 767c32 0 73 -3 123 -9c13 -3 19 -9 19 -18v-74c0 -7 -5 -11 -15 -11h-129c-71 0 -119 -8 -143 -25c-24 -16 -36 -47 -36 -94v-99h233c11 0 16 -5 16 -15v-35c0 -10 -5 -15 -16 -15h-233v-69h233c11 0 16 -5 16 -15v-35c0 -10 -5 -15 -16 -15h-233v-126h329
c10 0 15 -5 15 -15v-82c0 -10 -5 -15 -15 -15h-544c-11 0 -15 5 -13 15l15 82c1 10 7 15 17 15h68v126h-56c-10 0 -15 5 -15 15v35c0 10 5 15 15 15h56v69h-56c-10 0 -15 5 -15 15v35c0 10 5 15 15 15h56v118c0 83 23 139 68 168s126 44 241 44z" />
    </font>
</defs>
</svg>
