<?xml version="1.0" encoding="utf-8"?>
<!-- Generator: Adobe Illustrator 19.2.1, SVG Export Plug-In . SVG Version: 6.00 Build 0)  -->
<svg version="1.1" id="Layer_1" xmlns="http://www.w3.org/2000/svg" xmlns:xlink="http://www.w3.org/1999/xlink" x="0px" y="0px"
	 viewBox="0 0 19 17" style="enable-background:new 0 0 19 17;" xml:space="preserve">
<style type="text/css">
	.st0{fill:#D51E1E;}
</style>
<title>147E222A-A1DD-4ECD-8DC5-AD5E6478CB89</title>
<desc>Created with sketchtool.</desc>
<g id="Symbols">
	<g id="featured-slider-arrow" transform="translate(-23.000000, -24.000000)">
		
			<g id="noun_698570" transform="translate(32.500000, 32.500000) scale(-1, 1) translate(-32.500000, -32.500000) translate(23.000000, 24.000000)">
			<path id="Path" class="st0" d="M0,8.5C0,8.7,0.1,9,0.3,9.1l7.2,7.6c0.3,0.3,0.9,0.4,1.3,0c0.4-0.3,0.4-0.9,0-1.3L3,9.4h15.1
				C18.6,9.4,19,9,19,8.5s-0.4-0.9-0.9-0.9H3l5.8-6.1c0.3-0.3,0.3-0.9,0-1.3c-0.4-0.3-0.9-0.3-1.3,0L0.3,7.9C0,8.1,0,8.3,0,8.5z"/>
		</g>
	</g>
</g>
</svg>
