<svg width="12" height="7" viewBox="0 0 12 7" fill="none" xmlns="http://www.w3.org/2000/svg">
<path fill-rule="evenodd" clip-rule="evenodd" d="M11.7423 6.76255C11.4356 7.07915 10.9448 7.07915 10.6503 6.76255L5.98773 1.95025L1.32515 6.76255C1.0184 7.07915 0.527607 7.07915 0.233129 6.76255C0.0858896 6.61058 0 6.40796 0 6.19267C0 5.97739 0.0858896 5.77476 0.233129 5.6228L5.44785 0.240615C5.59509 0.0886474 5.79141 0 6 0C6.20859 0 6.40491 0.0886474 6.55215 0.240615L11.7669 5.6228C11.9141 5.77476 12 5.97739 12 6.19267C11.9755 6.42062 11.8896 6.61058 11.7423 6.76255Z" fill="black"/>
</svg>
