<svg width="12" height="7" viewBox="0 0 12 7" fill="none" xmlns="http://www.w3.org/2000/svg">
<path fill-rule="evenodd" clip-rule="evenodd" d="M11.7423 0.237449C11.4356 -0.0791497 10.9448 -0.0791497 10.6503 0.237449L5.98773 5.04975L1.32515 0.237449C1.0184 -0.0791497 0.527607 -0.0791497 0.233129 0.237449C0.0858896 0.389417 0 0.59204 0 0.807327C0 1.02261 0.0858896 1.22524 0.233129 1.3772L5.44785 6.75939C5.59509 6.91135 5.79141 7 6 7C6.20859 7 6.40491 6.91135 6.55215 6.75939L11.7669 1.3772C11.9141 1.22524 12 1.02261 12 0.807327C11.9755 0.579376 11.8896 0.389417 11.7423 0.237449Z" fill="black"/>
</svg>
