<svg width="33" height="29" viewBox="0 0 33 29" fill="none" xmlns="http://www.w3.org/2000/svg">
<path fill-rule="evenodd" clip-rule="evenodd" d="M0 1.0875C0 0.486895 0.492474 0 1.10001 0H5.50004C5.93506 1.45e-05 6.35666 0.281003 6.51982 0.679687L7.7115 3.625H31.9002C32.5583 3.62288 33.1212 4.31557 32.9773 4.95039L30.7773 14.3754C30.6725 14.8218 30.2541 15.1778 29.7919 15.2137L12.1345 16.607L11.1834 18.85H27.8669C28.448 18.8419 28.9826 19.3629 28.9826 19.9375C28.9826 20.5121 28.448 21.033 27.8669 21.025H9.53341C9.17213 21.0265 8.81543 20.8391 8.6145 20.5423C8.4136 20.2454 8.37444 19.848 8.51363 19.5183L10.1751 15.5648C9.64639 14.2574 9.11878 12.95 8.59126 11.6428L8.59103 11.6422L8.59079 11.6416L8.59056 11.6411L8.59033 11.6405C7.3162 8.48317 6.04256 5.32704 4.75526 2.175H1.10001C0.492474 2.175 0 1.68811 0 1.0875ZM30.5138 5.8H8.59382L12.0887 14.432L28.8065 13.118L30.5138 5.8ZM13.2001 21.75C11.1881 21.75 9.53341 23.3858 9.53341 25.375C9.53341 27.3641 11.1881 29 13.2001 29C15.2121 29 16.8668 27.3641 16.8668 25.375C16.8668 23.3859 15.2121 21.75 13.2001 21.75ZM20.5335 25.375C20.5335 23.3859 22.1882 21.75 24.2002 21.75C26.2122 21.75 27.8669 23.3858 27.8669 25.375C27.8669 27.3641 26.2122 29 24.2002 29C22.1882 29 20.5335 27.3641 20.5335 25.375ZM13.2001 23.925C14.0232 23.925 14.6668 24.5613 14.6668 25.375C14.6668 26.1887 14.0232 26.825 13.2001 26.825C12.3771 26.825 11.7334 26.1887 11.7334 25.375C11.7334 24.5613 12.3771 23.925 13.2001 23.925ZM25.6669 25.375C25.6669 24.5613 25.0232 23.925 24.2002 23.925C23.3771 23.925 22.7335 24.5613 22.7335 25.375C22.7335 26.1887 23.3771 26.825 24.2002 26.825C25.0232 26.825 25.6669 26.1887 25.6669 25.375Z" fill="white"/>
</svg>
