<svg width="16" height="16" viewBox="0 0 16 16" fill="none" xmlns="http://www.w3.org/2000/svg">
<path fill-rule="evenodd" clip-rule="evenodd" d="M0 8C0 3.58172 3.58172 0 8 0C12.4183 0 16 3.58172 16 8C16 12.4183 12.4183 16 8 16C3.58172 16 0 12.4183 0 8ZM10.5438 4.8875L8 7.43124C7.78399 7.21523 7.56803 6.99893 7.35203 6.78258C6.71726 6.14681 6.08212 5.51066 5.44423 4.88052C5.28886 4.79198 5.12694 4.75638 4.89488 4.86772C4.75217 5.06122 4.73062 5.21638 4.8875 5.44994L7.4375 7.99994L4.8875 10.5437C4.73451 10.6913 4.73282 10.9666 4.88398 11.116C5.03513 11.2656 5.31034 11.2609 5.45625 11.1062L8 8.5625L10.5437 11.1063C10.6897 11.2609 10.9649 11.2656 11.116 11.1161C11.2672 10.9666 11.2655 10.6914 11.1125 10.5438L8.5625 8L11.1125 5.45C11.2061 5.2772 11.2862 5.04014 11.0919 4.85842C10.9002 4.76484 10.7373 4.72176 10.5438 4.8875Z" fill="#C23636"/>
</svg>
