<svg width="57" height="68" viewBox="0 0 57 68" fill="none" xmlns="http://www.w3.org/2000/svg">
<g id="noun_buy online_740933_000000">
<path id="Shape" fill-rule="evenodd" clip-rule="evenodd" d="M56.9612 60.5894C56.0168 58.5144 55.0133 55.1351 55.1904 54.3051C55.4855 52.2895 55.4265 49.3845 54.246 47.1316C53.3015 45.2345 52.0029 43.7524 50.4682 42.6853V7.1735C50.4682 3.2014 47.2808 0 43.326 0H7.14229C3.18747 0 0 3.2014 0 7.1735V57.9215C0 61.8936 3.18747 65.095 7.14229 65.095H40.6697C41.0829 65.7472 41.4961 66.5772 41.9093 67.4664C42.0274 67.7036 42.2044 67.8814 42.3815 67.9407C42.4996 68 42.6176 68 42.6767 68C42.7947 68 42.9128 68 43.0308 67.9407L56.43 61.7751C56.6661 61.6565 56.7841 61.4786 56.9022 61.3008C57.0203 61.0636 57.0203 60.8265 56.9612 60.5894ZM7.14229 63.3165C4.19093 63.3165 1.77082 60.8858 1.77082 57.9215V7.1735C1.77082 4.20924 4.19093 1.77855 7.14229 1.77855H43.2669C46.2183 1.77855 48.6384 4.20924 48.6384 7.1735V41.6774C47.0447 40.966 45.3919 40.7289 43.7391 41.0253V7.70706C43.7391 6.63993 42.8537 5.80994 41.7322 5.80994H8.677C7.55548 5.80994 6.67007 6.69922 6.67007 7.70706V53.5937C6.67007 54.6609 7.55548 55.4908 8.677 55.4908H27.5657C27.9789 56.558 28.8053 57.5065 29.9268 58.0401L30.0448 58.0994H20.1283V59.8779H30.399V58.2772L37.7184 61.6565C37.8954 61.7751 38.6038 62.3086 39.4892 63.3758H7.14229V63.3165ZM38.6953 60.1886C39.1772 60.5625 41.3817 62.2731 43.1489 65.9843L55.0724 60.5301C54.246 58.5144 53.2425 55.3723 53.4786 54.0087C53.7147 52.408 53.6557 49.7995 52.7113 47.9024C50.5863 43.6338 46.2183 41.5588 42.8537 43.1595L38.3086 45.2345C37.8364 45.4717 37.3052 45.2345 37.1281 44.8195L35.0621 40.4324L36.4198 39.1874L38.3677 43.2781L42.0864 41.5588V7.70706C42.0864 7.70706 42.0274 7.58849 41.8503 7.58849H8.677C8.55894 7.58849 8.44089 7.64778 8.44089 7.70706V53.653C8.44089 53.653 8.49991 53.7716 8.677 53.7716H27.1525C27.1708 53.6431 27.1834 53.5203 27.1956 53.4014C27.2228 53.1363 27.2481 52.8908 27.3296 52.6452C27.6247 51.5187 28.274 50.6888 29.2185 50.2738C30.1629 49.8588 31.2254 49.8588 32.2288 50.333L32.7601 50.5702L27.5657 39.3653C27.0935 38.2389 26.9754 37.0532 27.2706 35.986C27.5657 34.8596 28.274 33.9704 29.2775 33.4961C30.2809 33.0218 31.4025 33.0811 32.4649 33.5554C33.2913 33.9111 33.9997 34.6225 34.5309 35.4525L36.3017 39.1874L34.9441 40.4324L33.4094 37.1125L33.2323 36.6975C32.9372 35.986 32.4059 35.4525 31.7566 35.1561C31.1663 34.8596 30.5761 34.8596 30.0448 35.0968C29.5136 35.3339 29.1594 35.8082 28.9823 36.4603C28.8053 37.1125 28.8643 37.8832 29.2185 38.5946L30.5171 41.381L31.6386 43.5745L35.4753 51.8745C35.4753 51.9337 35.4901 51.993 35.5048 52.0523C35.5196 52.1116 35.5344 52.1709 35.5344 52.2302C35.5934 52.5266 35.4753 52.823 35.2983 53.0009C35.0031 53.238 34.649 53.3566 34.2948 53.1787L31.5795 51.9337C31.2844 51.8152 31.0483 51.7559 30.7532 51.7559C30.5171 51.7559 30.2809 51.8152 30.0448 51.9337C29.5726 52.1116 29.2775 52.5859 29.1004 53.1194C28.7462 54.3644 29.4546 55.9058 30.6351 56.4394L38.4857 60.0558C38.5152 60.0558 38.53 60.0706 38.5447 60.0854C38.5595 60.1003 38.5743 60.1151 38.6038 60.1151C38.6147 60.1261 38.646 60.1503 38.6953 60.1886Z" fill="white"/>
<g id="Group">
<path id="Shape_2" fill-rule="evenodd" clip-rule="evenodd" d="M12.52 18.38C12.52 17.9 12.9245 17.48 13.3867 17.48L16.7378 17.54C17.0845 17.54 17.4311 17.78 17.5467 18.08L18.4711 20.48H37.1334C37.5956 20.48 38.0578 21.02 37.9422 21.56L36.2667 29.18C36.2089 29.54 35.8622 29.84 35.5156 29.84L21.88 30.98L21.1289 32.78H34.0134C34.4756 32.78 34.88 33.2 34.88 33.68C34.88 34.16 34.4756 34.58 34.0134 34.58H19.8578C19.5689 34.58 19.3378 34.4 19.1645 34.16C19.0489 33.92 18.9911 33.56 19.1067 33.32L20.3778 30.14C18.9911 26.48 17.6045 22.88 16.2178 19.28H13.3867C12.9245 19.28 12.52 18.86 12.52 18.38ZM36.0934 22.16H19.1645L21.88 29.18L34.7645 28.1L36.0934 22.16ZM22.6889 35.12C21.1289 35.12 19.8578 36.44 19.8578 38.06C19.8578 39.68 21.1289 41 22.6889 41C24.2489 41 25.52 39.68 25.52 38.06C25.52 36.44 24.2489 35.12 22.6889 35.12ZM23.8445 38.06C23.8445 37.4 23.3245 36.86 22.6889 36.86C22.0534 36.86 21.5334 37.4 21.5334 38.06C21.5334 38.72 22.0534 39.26 22.6889 39.26C23.3245 39.26 23.8445 38.72 23.8445 38.06Z" fill="white"/>
</g>
</g>
</svg>
