<svg width="68" height="68" viewBox="0 0 68 68" fill="none" xmlns="http://www.w3.org/2000/svg">
<g id="noun_Brochure_2222414_000000">
<path id="Shape" fill-rule="evenodd" clip-rule="evenodd" d="M67.15 68H26.35C25.84 68 25.5 67.66 25.5 67.15V59.415H0.85C0.34 59.415 0 59.075 0 58.565V0.85C0 0.34 0.34 0 0.85 0H41.65C42.16 0 42.5 0.34 42.5 0.85V8.585H67.15C67.66 8.585 68 8.925 68 9.435V67.15C68 67.66 67.66 68 67.15 68ZM27.2 65.62L38.335 59.415H27.2V65.62ZM66.3 10.285V66.3H29.58L42.075 59.33L42.16 59.245C42.2025 59.245 42.2237 59.2238 42.245 59.2025C42.2662 59.1813 42.2875 59.16 42.33 59.16C42.33 59.16 42.415 59.075 42.415 58.99C42.415 58.9475 42.4362 58.9263 42.4575 58.905C42.4788 58.8838 42.5 58.8625 42.5 58.82V58.65V58.565V10.285H66.3ZM40.8 1.7H1.7V57.715H40.8V1.7Z" fill="white"/>
<path id="Path" fill-rule="evenodd" clip-rule="evenodd" d="M49.8594 20H59.1406C59.6562 20 60 19.6 60 19C60 18.4 59.6562 18 59.1406 18H49.8594C49.3438 18 49 18.4 49 19C49 19.6 49.3438 20 49.8594 20Z" fill="white"/>
<path id="Path_2" fill-rule="evenodd" clip-rule="evenodd" d="M49.8594 28H59.1406C59.6562 28 60 27.6 60 27C60 26.4 59.6562 26 59.1406 26H49.8594C49.3438 26 49 26.4 49 27C49 27.6 49.3438 28 49.8594 28Z" fill="white"/>
<path id="Path_3" fill-rule="evenodd" clip-rule="evenodd" d="M49.8594 36H59.1406C59.6562 36 60 35.6 60 35C60 34.4 59.6562 34 59.1406 34H49.8594C49.3438 34 49 34.4 49 35C49 35.6 49.3438 36 49.8594 36Z" fill="white"/>
<path id="Path_4" fill-rule="evenodd" clip-rule="evenodd" d="M49.8594 44H59.1406C59.6562 44 60 43.6 60 43C60 42.4 59.6562 42 59.1406 42H49.8594C49.3438 42 49 42.4 49 43C49 43.6 49.3438 44 49.8594 44Z" fill="white"/>
<path id="Path_5" fill-rule="evenodd" clip-rule="evenodd" d="M49.8594 51H59.1406C59.6562 51 60 50.6 60 50C60 49.4 59.6562 49 59.1406 49H49.8594C49.3438 49 49 49.4 49 50C49 50.6 49.3438 51 49.8594 51Z" fill="white"/>
<path id="Path_6" fill-rule="evenodd" clip-rule="evenodd" d="M49.8594 59H59.1406C59.6562 59 60 58.6 60 58C60 57.4 59.6562 57 59.1406 57H49.8594C49.3438 57 49 57.4 49 58C49 58.6 49.3438 59 49.8594 59Z" fill="white"/>
<g id="Group">
<path id="Path_7" fill-rule="evenodd" clip-rule="evenodd" d="M25.96 37.1111C25.0933 37.8 23.5333 38.6611 22.32 38.575C21.1933 38.4889 21.3666 37.3694 21.6266 36.5083L23.5333 29.275C24.0533 27.2083 22.4933 25.2278 20.4133 25.2278C18.94 25.2278 17.64 26.175 17.2933 27.6389C17.0333 28.6722 14.78 37.8861 14.6933 37.9722C14.3466 39.2639 14 40.9861 14.6066 42.2778C15.4733 44.2583 18.16 43.6556 19.8066 43.225C20.9333 42.8806 21.9733 42.45 23.0133 41.8472C24.0533 41.2444 26.22 39.35 26.22 39.2639C26.1333 39.2639 25.96 37.1111 25.96 37.1111Z" fill="white"/>
<path id="Path_8" fill-rule="evenodd" clip-rule="evenodd" d="M23.1 13.3444C20.6733 13.1722 18.2466 15.325 18.16 17.8222C18.16 18.5972 18.3333 19.2861 18.68 19.8889C20.1533 22.3 23.62 21.7833 25.5266 20.1472C27.9533 17.9083 26.3066 13.5167 23.1 13.3444Z" fill="white"/>
</g>
</g>
</svg>
