<svg width="70" height="60" viewBox="0 0 70 60" fill="none" xmlns="http://www.w3.org/2000/svg">
<g id="noun_Shipping_103378_000000">
<path id="Shape" fill-rule="evenodd" clip-rule="evenodd" d="M58.5142 28.7399V23.0589L70 34.5484L58.5142 46.0372V40.3563H51.0504V45.9577C51.0504 46.4318 50.7872 46.8665 50.3679 47.0868L26.1195 59.8527C25.9335 59.9511 25.7286 60 25.5245 60C25.321 60 25.1161 59.9511 24.9302 59.8527L0.681771 47.0868C0.2625 46.8665 0 46.4311 0 45.9577V14.0434C0 13.5693 0.2625 13.1339 0.6825 12.9136L24.9302 0.147694C25.3021 -0.0492314 25.7469 -0.0492314 26.1195 0.147694L50.3679 12.9136C50.7879 13.1339 51.0504 13.5693 51.0504 14.0434V28.7399H58.5142ZM37.6483 19.7046L47.7181 14.4037L25.5245 2.7194L15.4554 8.02108L37.6483 19.7046ZM9.11896 21.5141C9.17292 21.412 9.13573 21.2866 9.03438 21.2326L4.57844 18.8389C4.47781 18.7849 4.35167 18.8228 4.29771 18.9227C4.24302 19.0241 4.28094 19.1503 4.38156 19.2043L8.83823 21.598C8.86958 21.6148 8.90312 21.6228 8.93594 21.6228C9.01031 21.6235 9.0825 21.5834 9.11896 21.5141ZM10.072 23.0706C10.1252 22.9692 10.0873 22.8438 9.98667 22.7898L4.57771 19.8928C4.47781 19.8403 4.35094 19.8775 4.29698 19.9774C4.24302 20.0788 4.28094 20.205 4.38229 20.2582L9.79125 23.1559C9.82187 23.172 9.85542 23.18 9.88823 23.18C9.96333 23.1807 10.0341 23.1406 10.072 23.0706ZM6.84615 38.2995C6.59312 38.1668 6.49615 37.8539 6.62958 37.6015C6.76229 37.3484 7.07583 37.2507 7.3274 37.3842L14.404 41.1083C14.6562 41.2425 14.7532 41.5539 14.6205 41.807C14.5279 41.9827 14.3485 42.0834 14.1626 42.0834C14.0817 42.0834 13.9993 42.0652 13.922 42.0236L6.84615 38.2995ZM6.62958 35.016C6.49615 35.269 6.59312 35.5819 6.84615 35.7147L15.7011 40.3753C15.7777 40.4168 15.8601 40.4358 15.941 40.4358C16.127 40.4358 16.3064 40.3344 16.399 40.1586C16.5324 39.9063 16.4347 39.5941 16.1824 39.4606L7.3274 34.7993C7.07583 34.6659 6.76229 34.7636 6.62958 35.016ZM6.84615 33.1291C6.59312 32.9956 6.49615 32.6835 6.62958 32.4304C6.76229 32.1773 7.07583 32.081 7.3274 32.2138L20.3321 39.0602C20.5844 39.193 20.6821 39.5059 20.5486 39.7582C20.456 39.934 20.2767 40.0354 20.0907 40.0354C20.0098 40.0354 19.9274 40.0157 19.8508 39.9756L6.84615 33.1291ZM6.62958 29.8456C6.49615 30.0979 6.59312 30.4101 6.84615 30.5436L17.5146 36.1603C17.5911 36.2004 17.6735 36.2201 17.7545 36.2201C17.9404 36.2201 18.1198 36.118 18.2124 35.9422C18.3458 35.6899 18.2481 35.3777 17.9958 35.2442L7.3274 29.6289C7.07583 29.4962 6.76229 29.5932 6.62958 29.8456ZM4.38156 22.3689C4.28094 22.315 4.24375 22.1888 4.29844 22.0874C4.3524 21.9868 4.48 21.9488 4.57917 22.0043L7.56948 23.6271C7.6701 23.6818 7.70802 23.808 7.65333 23.9086C7.61542 23.9779 7.54469 24.0173 7.47031 24.0173C7.4375 24.0173 7.40323 24.0093 7.37187 23.9918L4.38156 22.3689ZM4.29844 21.0328C4.24375 21.1334 4.28094 21.2589 4.38229 21.3136L8.09812 23.3186C8.12948 23.3353 8.16302 23.3441 8.19656 23.3441C8.27021 23.3441 8.34167 23.3032 8.37958 23.2347C8.43354 23.134 8.39635 23.0079 8.295 22.9539L4.57917 20.9482C4.47854 20.8949 4.3524 20.9314 4.29844 21.0328ZM14.0853 8.74241L36.279 20.4267L25.5245 26.0887L3.33083 14.4037L14.0853 8.74241ZM2.55208 45.1868L24.8865 56.9447V27.1944L2.55208 15.4364V45.1868ZM48.4983 15.4364V28.7399H37.2006V40.357H48.4983V45.1875L26.164 56.9447V27.1944L26.9711 26.7691L48.4983 15.4364Z" fill="white"/>
</g>
</svg>
