<svg width="24" height="25" viewBox="0 0 24 25" fill="none" xmlns="http://www.w3.org/2000/svg">
<path fill-rule="evenodd" clip-rule="evenodd" d="M9.8 0.237821C10.5 0.137821 11.3 0.0378208 12 0.0378208C12.7 0.0378208 13.5 0.0378208 14.2 0.237821C14.2 0.237821 14.4 3.03782 15.5 3.53782C16.6 3.93782 18.8 2.13782 18.8 2.13782C20 2.93782 21.1 4.03782 21.9 5.23782C21.9 5.23782 20 7.43782 20.5 8.53782C21 9.63782 23.8 9.83782 23.8 9.83782C23.9 10.5378 24 11.2378 24 12.0378C24 12.8378 23.9 13.5378 23.8 14.2378C23.8 14.2378 21 14.4378 20.5 15.5378C20.1 16.6378 21.9 18.8378 21.9 18.8378C21.1 20.0378 20 21.1378 18.8 21.9378C18.8 21.9378 16.6 20.0378 15.5 20.5378C14.4 21.0378 14.2 23.8378 14.2 23.8378C13.5 23.9378 12.8 24.0378 12 24.0378C11.2 24.0378 10.5 23.9378 9.8 23.8378C9.8 23.8378 9.6 21.0378 8.5 20.5378C7.4 20.1378 5.2 21.9378 5.2 21.9378C4 21.1378 2.9 20.0378 2.1 18.8378C2.1 18.8378 4 16.6378 3.5 15.5378C3 14.4378 0.2 14.2378 0.2 14.2378C0.1 13.5378 0 12.8378 0 12.0378C0 11.2378 0.1 10.5378 0.2 9.83782C0.2 9.83782 3 9.63782 3.5 8.53782C3.9 7.43782 2.1 5.23782 2.1 5.23782C2.9 4.03782 4 2.93782 5.2 2.13782C5.2 2.13782 7.4 4.03782 8.5 3.53782C9.6 3.03782 9.8 0.237821 9.8 0.237821ZM17.6 12.0378C17.6 8.93782 15.1 6.43782 12 6.43782C8.9 6.43782 6.4 8.93782 6.4 12.0378C6.4 15.1378 8.9 17.6378 12 17.6378C15.1 17.6378 17.6 15.1378 17.6 12.0378Z" fill="#D7DFE3"/>
</svg>
