<svg width="69" height="69" viewBox="0 0 69 69" fill="none" xmlns="http://www.w3.org/2000/svg">
<path fill-rule="evenodd" clip-rule="evenodd" d="M34.5 69C53.5538 69 69 53.5538 69 34.5C69 15.4462 53.5538 0 34.5 0C15.4462 0 0 15.4462 0 34.5C0 53.5538 15.4462 69 34.5 69Z" fill="#282828" fill-opacity="0.7"/>
<path fill-rule="evenodd" clip-rule="evenodd" d="M42.079 39.1091C41.7447 38.7748 41.6675 38.1613 41.9175 37.7497C41.9175 37.7497 42.0309 37.5968 42.2656 37.1173C42.9922 35.6329 43.4 33.9641 43.4 32.2C43.4 26.0144 38.3856 21 32.2 21C26.0144 21 21 26.0144 21 32.2C21 38.3856 26.0144 43.4 32.2 43.4C33.9578 43.4 35.6211 42.995 37.1016 42.2733C37.5867 42.0368 37.7412 41.922 37.7412 41.922C38.1586 41.6726 38.77 41.7398 39.1091 42.079L45.4151 48.3849C46.2352 49.205 47.5648 49.205 48.3849 48.3849C49.205 47.5648 49.205 46.2352 48.3849 45.4151L42.079 39.1091ZM39.2 32.2C39.2 36.066 36.066 39.2 32.2 39.2C28.334 39.2 25.2 36.066 25.2 32.2C25.2 28.334 28.334 25.2 32.2 25.2C36.066 25.2 39.2 28.334 39.2 32.2Z" fill="white"/>
</svg>
