<svg width="18" height="17" viewBox="0 0 18 17" fill="none" xmlns="http://www.w3.org/2000/svg">
<path fill-rule="evenodd" clip-rule="evenodd" d="M6.47489 17C6.15454 17 5.85422 16.8771 5.63398 16.6517L0.388267 11.1191C-0.112278 10.6478 -0.1323 9.8486 0.348223 9.33632C0.808725 8.82405 1.58957 8.80355 2.09012 9.29534L5.93431 12.1026C6.15454 12.3075 6.49492 12.2666 6.67511 12.0207L15.785 0.504654C16.1855 -0.0486059 16.9663 -0.171553 17.5069 0.258761C18.0475 0.668583 18.1676 1.46774 17.7472 2.021L7.45596 16.4877C7.23572 16.7746 6.91537 16.959 6.575 16.9795C6.53496 17 6.51494 17 6.47489 17Z" fill="#2EA345"/>
</svg>
