<svg width="20" height="25" viewBox="0 0 20 25" fill="none" xmlns="http://www.w3.org/2000/svg">
<path fill-rule="evenodd" clip-rule="evenodd" d="M10 0C6.5556 0 3.74996 2.80563 3.75 6.25C3.75002 8.60749 5.08027 10.6399 7.01416 11.7041C2.95327 12.9765 -6.25e-06 16.7743 0 21.25C0 21.9205 0.422659 22.4636 0.979004 22.8931C1.53535 23.3226 2.27482 23.6813 3.1665 23.9893C4.94988 24.6053 7.34835 25 10 25C12.6516 25 15.0501 24.6053 16.8335 23.9893C17.7252 23.6813 18.4647 23.3226 19.021 22.8931C19.5773 22.4636 20 21.9205 20 21.25C20 16.7743 17.0467 12.9765 12.9858 11.7041C14.9197 10.6399 16.25 8.60749 16.25 6.25C16.25 2.80563 13.4444 0 10 0ZM10 1C12.7686 1 15 3.22948 15 5.99878C15 8.76808 12.7686 11 10 11C7.2314 11 5.00003 8.76808 5 5.99878C4.99997 3.22948 7.23136 1 10 1ZM19 20.7778C19 16.4759 14.978 13 10 13C5.02199 13 0.999993 16.4759 1 20.7778C1 20.8763 1.10361 21.09 1.50725 21.3594C1.9109 21.6286 2.56282 21.9152 3.39062 22.1623C5.04624 22.6565 7.40194 23 10 23C12.5981 23 14.9538 22.6565 16.6094 22.1623C17.4372 21.9152 18.0891 21.6286 18.4927 21.3594C18.8964 21.09 19 20.8767 19 20.7778Z" fill="#646B6F"/>
</svg>
