<?xml version="1.0" standalone="no"?>
<!DOCTYPE svg PUBLIC "-//W3C//DTD SVG 1.1//EN" "http://www.w3.org/Graphics/SVG/1.1/DTD/svg11.dtd" >
<svg>
<metadata>
Created by FontForge 20090914 at Thu Sep  5 07:08:46 2019
 By www-data
Copyright &#195;&#130;&#194;&#169; 2014 by Ren&#195;&#131;&#194;&#169; Bieder. All rights reserved.
</metadata>
<defs>
<font id="Campton-Bold" horiz-adv-x="600" >
  <font-face 
    font-family="Campton"
    font-weight="700"
    font-stretch="normal"
    units-per-em="1000"
    panose-1="0 0 0 0 0 0 0 0 0 0"
    ascent="768"
    descent="-232"
    x-height="485"
    cap-height="680"
    bbox="-66.5088 -274 1489 979"
    underline-thickness="50"
    underline-position="-100"
    unicode-range="U+0020-U+FB02"
  />
<missing-glyph horiz-adv-x="870" 
d="M770 680v-680h-670v680h670zM700 610h-481l481 -481v481zM170 70h477l-477 477v-477z" />
    <glyph glyph-name=".notdef" horiz-adv-x="870" 
d="M770 680v-680h-670v680h670zM700 610h-481l481 -481v481zM170 70h477l-477 477v-477z" />
    <glyph glyph-name="space" unicode=" " horiz-adv-x="257" 
 />
    <glyph glyph-name="exclam" unicode="!" horiz-adv-x="295" 
d="M218 222h-142l-14 458h170zM209 13c-17.333 -16 -38 -24.1689 -62 -24.502s-44.667 7.83398 -62 24.501c-16.667 16 -25 36 -25 60s8.33301 44 25 60c17.333 16.667 38 24.834 62 24.501s44.667 -8.5 62 -24.5s26 -36 26 -60s-8.66699 -44 -26 -60z" />
    <glyph glyph-name="quotedbl" unicode="&#x22;" horiz-adv-x="368" 
d="M163 680v-296h-131v296h131zM337 680v-296h-131v296h131z" />
    <glyph glyph-name="numbersign" unicode="#" horiz-adv-x="793" 
d="M603 282h109v-136h-152l-46 -146h-156l46 146h-136l-45 -146h-156l45 146h-85v136h128l31 100h-104v136h147l51 163h156l-51 -163h135l51 163h156l-51 -163h91v-136h-133zM342 382l-31 -100h136l31 100h-136z" />
    <glyph glyph-name="dollar" unicode="$" horiz-adv-x="676" 
d="M629 207c0 -58 -18.999 -106 -56.999 -144s-90.333 -62 -157 -72v-101h-131v100c-69.333 10 -125.666 35.167 -168.999 75.5s-68.333 93.833 -75 160.5h169c5.33301 -30 20.5 -53.5 45.5 -70.5s57.5 -25.5 97.5 -25.5c31.333 0 55.166 5.33301 71.499 16
s24.5 25.334 24.5 44.001c0 27.333 -24 46.666 -72 57.999l-112 25c-67.333 15.333 -117 39 -149 71s-48 75 -48 129c0 59.333 19.5 108.5 58.5 147.5s91.833 62.833 158.5 71.5v107h131v-111c56.667 -10.667 104.667 -33.667 144 -69c40 -35.333 63 -85.333 69 -150h-170
c-10 57.333 -46.667 86 -110 86c-30 0 -53.667 -6 -71 -18s-26 -28.667 -26 -50c0 -17.333 6.16699 -30.833 18.5 -40.5s32.166 -17.5 59.499 -23.5l95 -22c70 -16 121.667 -38.833 155 -68.5s50 -71.5 50 -125.5z" />
    <glyph glyph-name="percent" unicode="%" horiz-adv-x="1091" 
d="M123 639c39.333 37.333 88.333 56 147 56c58 0 106.667 -18.667 146 -56s59 -85.333 59 -144s-19.667 -107 -59 -145c-39.333 -37.333 -88 -56 -146 -56c-58.667 0 -107.667 18.667 -147 56c-38.667 38 -58 86.333 -58 145c0 59.333 19.333 107.333 58 144zM366 0h-108
l454 680h108zM271 400c26.667 0 49 9 67 27s27 40.667 27 68s-9 50 -27 68s-40.333 27 -67 27s-49.167 -9 -67.5 -27s-27.5 -40.667 -27.5 -68s9.16699 -50 27.5 -68s40.833 -27 67.5 -27zM673 330c39.333 37.333 88.333 56 147 56c58 0 106.667 -18.667 146 -56
s59 -85.333 59 -144s-19.667 -107 -59 -145c-39.333 -37.333 -88 -56 -146 -56c-58.667 0 -107.667 18.667 -147 56c-38.667 38 -58 86.333 -58 145c0 59.333 19.333 107.333 58 144zM915 186c0 27.333 -9.16699 49.834 -27.5 67.501s-40.833 26.5 -67.5 26.5
s-49 -8.83301 -67 -26.5s-27 -40.167 -27 -67.5c0 -28 9 -51 27 -69s40.333 -27 67 -27s49.167 9.16699 67.5 27.5s27.5 41.166 27.5 68.499z" />
    <glyph glyph-name="ampersand" unicode="&#x26;" horiz-adv-x="738" 
d="M523 0l-42.999 40.998c-55.333 -37.333 -121 -56 -197 -56c-77.333 0 -140.333 19.667 -189 59c-47.333 39.333 -71 91 -71 155c0 78.667 38.333 138.334 115 179.001c-27.333 39.333 -41 79 -41 119c0 56 20.667 103 62 141c42 38 97 57 165 57
c66 0 119.167 -19 159.5 -57s63.166 -90.333 68.499 -157h-152c-2.66699 24 -10.167 42.667 -22.5 56s-28.5 20 -48.5 20c-18.667 0 -34 -5.83301 -46 -17.5s-18 -27.167 -18 -46.5s6.66699 -37.666 20 -54.999c6 -8 32 -34.333 78 -79l113 -110l72 118h165l-129 -213l-4 -7
l151 -147h-208zM286.001 120.998c28 0 56.667 6.99902 86 20.999l-108 101l-38 36c-31.333 -20 -47 -44.667 -47 -74c0 -23.333 10.333 -43.166 31 -59.499s46 -24.5 76 -24.5z" />
    <glyph glyph-name="quotesingle" unicode="'" horiz-adv-x="194" 
d="M163 680v-296h-131v296h131z" />
    <glyph glyph-name="parenleft" unicode="(" horiz-adv-x="389" 
d="M258 738l111 -111c-53.333 -56.667 -92.333 -110 -117 -160s-37 -108.667 -37 -176c0 -66.667 12.333 -124.667 37 -174c25.333 -50 64.333 -103 117 -159l-111 -111c-142.667 130.667 -214 278.667 -214 444c0 167.333 71.333 316.333 214 447z" />
    <glyph glyph-name="parenright" unicode=")" horiz-adv-x="386" 
d="M20 627l111 111c142.667 -130.667 214 -279.667 214 -447c0 -165.333 -71.333 -313.333 -214 -444l-111 111c51.333 54.667 90 107.667 116 159c25.333 50.667 38 108.667 38 174s-12.667 124 -38 176s-64 105.333 -116 160z" />
    <glyph glyph-name="asterisk" unicode="*" horiz-adv-x="412" 
d="M379 470l-42 -72l-89 53v-96h-84v96l-89 -53l-42 72l91 55l-91 55l42 73l89 -54v94h84v-94l89 54l42 -73l-91 -55z" />
    <glyph glyph-name="plus" unicode="+" horiz-adv-x="669" 
d="M401 264v-164h-133v164h-171v128h171v164h133v-164h172v-128h-172z" />
    <glyph glyph-name="comma" unicode="," horiz-adv-x="234" 
d="M27 -113l52 111c-34.667 14.667 -52 39 -52 73c0 23.333 8.83301 43.333 26.5 60s38.834 25 63.501 25c25.333 0 46.666 -8.16699 63.999 -24.5s26 -36.833 26 -61.5c0 -21.333 -10 -49 -30 -83l-60 -100h-90z" />
    <glyph glyph-name="hyphen" unicode="-" horiz-adv-x="554" 
d="M458 335v-154h-361v154h361z" />
    <glyph glyph-name="period" unicode="." horiz-adv-x="235" 
d="M117 -18c-24.667 0 -45.834 8.5 -63.501 25.5s-26.5 37.833 -26.5 62.5c0 24 8.83301 44.5 26.5 61.5s38.834 25.5 63.501 25.5c25.333 0 47 -8.5 65 -25.5s27 -37.5 27 -61.5c0 -24.667 -9 -45.5 -27 -62.5s-39.667 -25.5 -65 -25.5z" />
    <glyph glyph-name="slash" unicode="/" horiz-adv-x="431" 
d="M187 -160h-155l252 890h155z" />
    <glyph glyph-name="zero" unicode="0" horiz-adv-x="718" 
d="M129 596c56.667 66 133.334 99 230.001 99s173.334 -33 230.001 -99c56.667 -65.333 85 -150.666 85 -255.999s-28.333 -190.666 -85 -255.999c-56.667 -66 -133.334 -99 -230.001 -99s-173.334 33 -230.001 99c-56.667 65.333 -85 150.666 -85 255.999
s28.333 190.666 85 255.999zM245 190c26.667 -38.667 64.667 -58 114 -58s87.333 19.333 114 58c27.333 39.333 41 89.333 41 150s-13.667 110.667 -41 150c-26.667 38.667 -64.667 58 -114 58s-87.333 -19.333 -114 -58c-27.333 -39.333 -41 -89.333 -41 -150
s13.667 -110.667 41 -150z" />
    <glyph glyph-name="one" unicode="1" horiz-adv-x="531" 
d="M526 137v-137h-491v137h170v365l-160 -45v146l222 77h101v-543h158z" />
    <glyph glyph-name="two" unicode="2" horiz-adv-x="572" 
d="M531 137l0.000976562 -137.001h-485v80l207 251l23 27c12 14 19.333 23 22 27c21.333 26 32.333 39.667 33 41c12.667 20.667 19 38.667 19 54c0 19.333 -6.5 35.333 -19.5 48s-31.167 19 -54.5 19c-24 0 -43.167 -7.16699 -57.5 -21.5s-22.833 -34.5 -25.5 -60.5h-161
c1.33301 68.667 23 124.334 65 167.001c43.333 42 102.666 63 177.999 63c76 0 136.333 -20.333 181 -61c45.333 -40 68 -89.333 68 -148c0 -31.333 -10 -63 -30 -95c-18 -29.333 -54.667 -77.333 -110 -144l-92 -110h239z" />
    <glyph glyph-name="three" unicode="3" horiz-adv-x="578" 
d="M459 342c58 -32 87.0029 -80.3301 87.0029 -144.997c0 -62 -23.667 -113 -71 -153c-47.333 -39.333 -109 -59 -185 -59s-135.833 18.667 -179.5 56s-69.5 90 -77.5 158h158c6 -26.667 17.167 -46.334 33.5 -59.001s40.166 -19 71.499 -19
c27.333 0 49.666 7.16699 66.999 21.5s26 32.5 26 54.5c0 23.333 -9.33301 42.166 -28 56.499s-43 21.5 -73 21.5h-59v124h59c26.667 0 48.167 7.16699 64.5 21.5s24.5 33.166 24.5 56.499s-7.66699 42 -23 56c-14.667 14 -34.667 21 -60 21s-46.333 -7.33301 -63 -22
c-16 -14 -25 -33 -27 -57h-157c4 64.667 27.667 116.667 71 156c43.333 38.667 100.666 58 171.999 58c72 0 129.333 -19 172 -57c43.333 -38 65 -87.667 65 -149c0 -60.667 -22.667 -107.667 -68 -141z" />
    <glyph glyph-name="four" unicode="4" horiz-adv-x="656" 
d="M622 120h-85v-120h-159v120h-346v105l185 455h162l-160 -419h159v187h159v-187h85v-141z" />
    <glyph glyph-name="five" unicode="5" horiz-adv-x="611" 
d="M239 442l84 -0.000976562c74.667 0 133.667 -20.667 177 -62c44 -41.333 66 -94.666 66 -159.999c0 -69.333 -24 -126 -72 -170c-48.667 -43.333 -111.667 -65 -189 -65c-76.667 0 -138.667 19.333 -186 58c-48 39.333 -75.333 91.333 -82 156h159
c14.667 -52 51 -78 109 -78c31.333 0 57 9 77 27s30 41 30 69s-10.333 50.167 -31 66.5s-49 24.5 -85 24.5h-212l1 372h449v-144h-294z" />
    <glyph glyph-name="six" unicode="6" horiz-adv-x="624" 
d="M464 680l-130 -203.001c74 -4 134.667 -28.667 182 -74s71 -100.666 71 -165.999c0 -72 -25.667 -132 -77 -180c-50.667 -48 -116.667 -72 -198 -72s-147.333 24 -198 72s-76 107 -76 177c0 47.333 19.333 102.333 58 165l177 281h191zM312 340.999
c-33.333 -1.33301 -60.001 -9 -80.001 -23l-4 -7c-22 -31.333 -33 -58.333 -33 -81c0 -29.333 11 -55 33 -77c22.667 -22 50.667 -33 84 -33c31.333 0 59 11 83 33c16.667 16 26.834 35 30.501 57s1.5 42.667 -6.5 62s-21.667 35.833 -41 49.5s-41.333 20.167 -66 19.5z" />
    <glyph glyph-name="seven" unicode="7" horiz-adv-x="524" 
d="M506 680v-95l-261 -585h-184l240 529h-291v151h496z" />
    <glyph glyph-name="eight" unicode="8" horiz-adv-x="623" 
d="M478 361c72.667 -36 109 -90.668 109 -164.001c0 -64.667 -24.667 -116.167 -74 -154.5s-116.666 -57.5 -201.999 -57.5c-84.667 0 -151.667 19 -201 57c-48.667 38.667 -73 90.334 -73 155.001c0 73.333 36 128 108 164c-53.333 32 -80 78 -80 138c0 58 23 105 69 141
c45.333 36.667 104.333 55 177 55c73.333 0 132.666 -18.333 177.999 -55c46 -36 69 -83 69 -141c0 -58.667 -26.667 -104.667 -80 -138zM405 488.999c0 24 -8.83301 44 -26.5 60s-40.167 24 -67.5 24s-49.666 -8 -66.999 -24s-26 -36 -26 -60s8.66699 -44 26 -60
s39.666 -24 66.999 -24s49.833 8 67.5 24s26.5 36 26.5 60zM311 295.999c-30 -1.33301 -54.4971 -10 -73.4971 -26s-28.5 -36.667 -28.5 -62c0 -26 9.66699 -47.667 29 -65s43.666 -26 72.999 -26s53.666 8.66699 72.999 26c15.333 13.333 24.666 29.166 27.999 47.499
s1.5 35.333 -5.5 51s-19.167 28.834 -36.5 39.501s-37 15.667 -59 15z" />
    <glyph glyph-name="nine" unicode="9" horiz-adv-x="624" 
d="M586 446c0 -47.333 -19.333 -102.333 -58 -165l-177 -281h-191l130 203c-74.667 4 -135.667 28.667 -183 74c-46.667 44.667 -70 100 -70 166c0 72 25.667 132 77 180c50.667 48 116.667 72 198 72c80 0 145.667 -24 197 -72s77 -107 77 -177zM392 362l4.00195 6.99902
c22 31.333 33 58.333 33 81c0 29.333 -11.333 55 -34 77c-22 22 -49.667 33 -83 33s-61 -11.333 -83 -34c-17.333 -14.667 -27.833 -33.167 -31.5 -55.5s-1.33398 -43.166 6.99902 -62.499s22.166 -35.833 41.499 -49.5s41.333 -20.167 66 -19.5c33.333 1.33301 60 9 80 23z
" />
    <glyph glyph-name="colon" unicode=":" horiz-adv-x="235" 
d="M117 322c-24.667 0 -45.834 8.33301 -63.501 25s-26.5 37.667 -26.5 63c0 24 8.83301 44.333 26.5 61s38.834 25 63.501 25c25.333 0 47 -8.33301 65 -25s27 -37 27 -61c0 -25.333 -8.83301 -46.333 -26.5 -63s-39.5 -25 -65.5 -25zM182 7
c-17.333 -16.667 -38.8311 -25 -64.498 -25s-47.167 8.33301 -64.5 25c-18 17.333 -26.833 38.333 -26.5 63s9.16602 45.334 26.499 62.001c18 16.667 39.667 25 65 25s46.666 -8.33301 63.999 -25c18 -16.667 27 -37.334 27 -62.001s-9 -45.667 -27 -63z" />
    <glyph glyph-name="semicolon" unicode=";" horiz-adv-x="235" 
d="M28 -113l52 111c-34.667 14.667 -52 39 -52 73c0 23.333 8.83301 43.333 26.5 60s38.834 25 63.501 25c25.333 0 46.666 -8.16699 63.999 -24.5s26 -36.833 26 -61.5c0 -21.333 -10 -49 -30 -83l-60 -100h-90zM117 322c-24.667 0 -45.834 8.33301 -63.501 25
s-26.5 37.667 -26.5 63c0 24 8.83301 44.333 26.5 61s38.834 25 63.501 25c25.333 0 47 -8.33301 65 -25s27 -37 27 -61c0 -25.333 -8.83301 -46.333 -26.5 -63s-39.5 -25 -65.5 -25z" />
    <glyph glyph-name="less" unicode="&#x3c;" horiz-adv-x="529" 
d="M465 570v-147l-258 -116l258 -117v-147l-422 190v147z" />
    <glyph glyph-name="equal" unicode="=" horiz-adv-x="675" 
d="M579 361h-482v128h482v-128zM579 154h-482v128h482v-128z" />
    <glyph glyph-name="greater" unicode="&#x3e;" horiz-adv-x="529" 
d="M485 233l-422 -190v147l258 117l-258 116v147l422 -190v-147z" />
    <glyph glyph-name="question" unicode="?" horiz-adv-x="539" 
d="M183 219l-10.001 163h82c28.667 0 52.334 8 71.001 24s28 37 28 63c0 25.333 -8 45.833 -24 61.5s-37.333 23.5 -64 23.5s-48.167 -7.16699 -64.5 -21.5s-25.5 -33.5 -27.5 -57.5h-157c4 66.667 27.167 119 69.5 157s100.5 57 174.5 57c71.333 0 129.333 -20.333 174 -61
c46 -41.333 69 -94.333 69 -159c0 -52 -17.167 -95 -51.5 -129s-81.5 -55 -141.5 -63l-5 -58h-123zM301.999 13c-17.333 -16 -38 -24.1689 -62 -24.502s-44.667 7.83398 -62 24.501c-16.667 16 -25 36 -25 60s8.33301 44 25 60c17.333 16.667 38 24.834 62 24.501
s44.667 -8.5 62 -24.5s26 -36 26 -60s-8.66699 -44 -26 -60z" />
    <glyph glyph-name="at" unicode="@" horiz-adv-x="990" 
d="M713 442v-242c0 -46.667 16 -70 48 -70c46.667 0 70 42.667 70 128c0 90.667 -30.667 165.667 -92 225c-60.667 60 -138.334 90 -233.001 90c-96 0 -177.667 -32 -245 -96c-66.667 -64 -100 -142.333 -100 -235s32.667 -171 98 -235c66 -64 145.667 -96 239 -96
c82 0 153.333 24.333 214 73l58 -87c-77.333 -58 -167.666 -87 -270.999 -87c-123.333 0 -228.666 41.667 -315.999 125c-84.667 80.667 -128 183 -130 307c-1.33301 119.333 42.667 221.5 132 306.5s195.333 126.5 318 124.5c126 -2 229.333 -41 310 -117
c82.667 -78 124 -176.333 124 -295c0 -72.667 -15.333 -129.667 -46 -171s-76.334 -62 -137.001 -62c-68 0 -116.667 21.667 -146 65c-40 -42 -89 -63 -147 -63c-56.667 0 -104.334 20 -143.001 60c-38.667 40.667 -58 91 -58 151c0 60.667 19.333 110.667 58 150
c38.667 40.667 86.334 61 143.001 61c43.333 0 81.333 -11.333 114 -34v24h138zM490 145c34.667 0 64 15.334 88 46.001c-2 18 -3 36 -3 54v49c-24 29.333 -52.333 44 -85 44c-25.333 0 -47.333 -9 -66 -27s-28 -41.333 -28 -70s9.16699 -51.834 27.5 -69.501
s40.5 -26.5 66.5 -26.5z" />
    <glyph glyph-name="A" unicode="A" horiz-adv-x="763" 
d="M525 117h-288l-45 -117h-180l289 684h162l288 -684h-180zM469 261l-88 226l-88 -226h176z" />
    <glyph glyph-name="B" unicode="B" horiz-adv-x="694" 
d="M535 350c38.667 -8 68.999 -26.833 90.999 -56.5s33 -64.5 33 -104.5c0 -58 -21.667 -104 -65 -138s-102.666 -51 -177.999 -51h-356v680h336c73.333 0 130.5 -16.167 171.5 -48.5s61.5 -76.5 61.5 -132.5c0 -33.333 -8.66699 -64 -26 -92s-40 -47 -68 -57zM228.999 542
l0.000976562 -139h140c31.333 0 55.666 6.5 72.999 19.5s26 30.833 26 53.5c0 44 -33 66 -99 66h-140zM229 140h164c32.667 0 57.667 6.33301 75 19s26 30 26 52c0 42 -32.333 63 -97 63h-168v-134z" />
    <glyph glyph-name="C" unicode="C" horiz-adv-x="789" 
d="M403 144c44 0 80.667 12 110 36s48.666 58 57.999 102h174c-10.667 -88 -47.334 -159.667 -110.001 -215c-62 -54 -139 -81 -231 -81c-102.667 0 -188.334 33.333 -257.001 100s-103 151.334 -103 254.001c0 102 34.333 186.333 103 253c69.333 67.333 155 101 257 101
c92.667 0 169.667 -27.333 231 -82c62.667 -54.667 99.334 -126 110.001 -214h-174c-9.33301 44 -28.666 78 -57.999 102s-66 36 -110 36c-55.333 0 -100.666 -18.667 -135.999 -56c-34.667 -36.667 -52 -83.334 -52 -140.001c0 -57.333 17.333 -104.333 52 -141
s80 -55 136 -55z" />
    <glyph glyph-name="D" unicode="D" horiz-adv-x="737" 
d="M60 680h273c106.667 0 194.667 -31.667 264 -95c68.667 -62.667 103 -143.667 103 -243c0 -100.667 -34.333 -183 -103 -247c-69.333 -63.333 -157.333 -95 -264 -95h-273v680zM229 152l104.001 0.000976562c55.333 0 101.666 18 138.999 54
c37.333 37.333 56 82.666 56 135.999c0 52.667 -18.667 96.667 -56 132c-36.667 36 -83 54 -139 54h-104v-376z" />
    <glyph glyph-name="E" unicode="E" horiz-adv-x="610" 
d="M229 533v-124h302v-144h-302v-118h345v-147h-514v680h514v-147h-345z" />
    <glyph glyph-name="F" unicode="F" horiz-adv-x="583" 
d="M229 531v-144h292v-147h-292v-240h-169v680h508v-149h-339z" />
    <glyph glyph-name="G" unicode="G" horiz-adv-x="809" 
d="M754 382l-0.000976562 -382h-126l-7 82c-52 -64 -123.667 -96 -215 -96c-105.333 0 -192 33 -260 99c-68 67.333 -102 150 -102 248c0 106 34.333 192.333 103 259c68.667 68 155.334 102 260.001 102c86 0 160.667 -23 224 -69
c63.333 -45.333 102 -107.666 116 -186.999h-178c-25.333 67.333 -78 101 -158 101c-58.667 0 -106 -18.667 -142 -56c-36 -36.667 -54 -85.334 -54 -146.001c0 -55.333 18 -101.333 54 -138c37.333 -37.333 85 -56 143 -56c79.333 0 137 34.667 173 104l-195 2v133h364z
" />
    <glyph glyph-name="H" unicode="H" horiz-adv-x="734" 
d="M674 680v-680h-168v255h-277v-255h-169v680h169v-273h277v273h168z" />
    <glyph glyph-name="I" unicode="I" horiz-adv-x="289" 
d="M229 680v-680h-169v680h169z" />
    <glyph glyph-name="J" unicode="J" horiz-adv-x="623" 
d="M573 680v-408c0 -91.333 -24.667 -162 -74 -212s-118.333 -75 -207 -75c-81.333 0 -146.333 22.333 -195 67c-50 45.333 -76.333 108.333 -79 189h168c2 -32 13 -57 33 -75s46 -27 78 -27s57.333 11.833 76 35.5s28 56.167 28 97.5v408h172z" />
    <glyph glyph-name="K" unicode="K" horiz-adv-x="728" 
d="M326 250l-97 -112v-138h-169v680h169v-309l271 309h200l-259 -298l281 -382h-206z" />
    <glyph glyph-name="L" unicode="L" horiz-adv-x="585" 
d="M565 149v-149h-505v680h169v-531h336z" />
    <glyph glyph-name="M" unicode="M" horiz-adv-x="854" 
d="M794 680v-680h-169v341l-151 -233v-1h-94v1l-152 235l1 -343h-169v680h126l241 -363l241 363h126z" />
    <glyph glyph-name="N" unicode="N" horiz-adv-x="745" 
d="M685 680v-680h-130l-326 373v-373h-169v680h129l328 -383v383h168z" />
    <glyph glyph-name="O" unicode="O" horiz-adv-x="808" 
d="M147 591c68.667 68.667 154.333 103 257 103c102 0 187.333 -34.333 256 -103c69.333 -68 104 -151.667 104 -251c0 -98.667 -34.667 -182.667 -104 -252c-69.333 -68 -154.666 -102 -255.999 -102c-102.667 0 -188.334 34 -257.001 102
c-68.667 68.667 -103 152.667 -103 252s34.333 183 103 251zM268.999 200c36 -38 81 -57 135 -57s99 19 135 57c36 38.667 54 85.334 54 140.001s-18 101 -54 139c-36 38.667 -81 58 -135 58s-99 -19.333 -135 -58c-36 -38 -54 -84.333 -54 -139s18 -101.334 54 -140.001z
" />
    <glyph glyph-name="P" unicode="P" horiz-adv-x="641" 
d="M60 680h274c89.333 0 159.333 -22.333 210 -67c52 -45.333 78 -106 78 -182c0 -79.333 -27 -142.333 -81 -189c-54 -46 -127.333 -69 -220 -69h-92v-173h-169v680zM229 321h102c37.333 0 67.166 10 89.499 30s33.5 46.667 33.5 80c0 30.667 -11.167 55 -33.5 73
s-52.166 27 -89.499 27h-102v-210z" />
    <glyph glyph-name="Q" unicode="Q" horiz-adv-x="808" 
d="M765 340c0 -105.333 -38.334 -193 -115.001 -263l107 -126l-120 -109l-134 157c-28.667 -8.66699 -61.667 -13 -99 -13c-102.667 0 -188.334 34 -257.001 102c-68.667 68.667 -103 152.667 -103 252s34.333 183 103 251c68.667 68.667 154.334 103 257.001 103
s188.334 -34.333 257.001 -103c69.333 -68 104 -151.667 104 -251zM268.999 479c-36 -38 -54 -84.333 -54 -139s18 -101.334 54 -140.001c36 -38 81 -57 135 -57s99 19 135 57c36 38.667 54 85.334 54 140.001s-18 101 -54 139c-36 38.667 -81 58 -135 58
s-99 -19.333 -135 -58z" />
    <glyph glyph-name="R" unicode="R" horiz-adv-x="701" 
d="M334 197l-104.999 0.00195312v-197h-169v680h297c85.333 0 153.666 -21.667 204.999 -65s77 -101.333 77 -174c0 -46.667 -11.333 -88.334 -34 -125.001s-54.667 -65.334 -96 -86.001l175 -230h-203zM229.001 349.002l125 -0.000976562c34 0 61.833 8.5 83.5 25.5
s32.5 39.167 32.5 66.5c0 26.667 -11 48.334 -33 65.001s-49.667 25 -83 25h-125v-182z" />
    <glyph glyph-name="S" unicode="S" horiz-adv-x="676" 
d="M337 695c63.333 0 123.002 -14.667 179.002 -44c30.667 -16.667 56 -40.667 76 -72s32 -68 36 -110h-170c-10 57.333 -46.667 86 -110 86c-30 0 -53.667 -6 -71 -18s-26 -28.667 -26 -50c0 -17.333 6.16699 -30.833 18.5 -40.5s32.166 -17.5 59.499 -23.5l95 -22
c70 -16 121.667 -38.833 155 -68.5s50 -71.5 50 -125.5c0 -68 -25.667 -122 -77 -162c-51.333 -39.333 -119.666 -59 -204.999 -59c-83.333 0 -153.333 20 -210 60c-58 41.333 -90.333 101.333 -97 180h169c5.33301 -30 20.5 -53.5 45.5 -70.5s57.5 -25.5 97.5 -25.5
c31.333 0 55.166 5.33301 71.499 16s24.5 25.334 24.5 44.001c0 27.333 -24 46.666 -72 57.999l-112 25c-67.333 15.333 -117 39 -149 71s-48 75 -48 129c0 67.333 24.667 121 74 161c49.333 40.667 114.666 61 195.999 61z" />
    <glyph glyph-name="T" unicode="T" horiz-adv-x="648" 
d="M625 529h-217v-529h-168v529h-217v151h602v-151z" />
    <glyph glyph-name="U" unicode="U" horiz-adv-x="733" 
d="M683 680l-0.00195312 -362.999c0 -104.667 -28.333 -186.334 -85 -245.001c-57.333 -58 -134.666 -87 -231.999 -87c-98.667 0 -176 29 -232 87s-84 139.667 -84 245v363h170v-366c0 -52 13.167 -93.5 39.5 -124.5s61.833 -46.5 106.5 -46.5s80.334 15.5 107.001 46.5
s40 72.5 40 124.5v366h170z" />
    <glyph glyph-name="V" unicode="V" horiz-adv-x="780" 
d="M770 680l-294 -684h-171l-295 684h186l194 -461l194 461h186z" />
    <glyph glyph-name="W" unicode="W" horiz-adv-x="1080" 
d="M1060 680l-219 -684h-164l-137 417l-137 -417h-163l-220 684h179l127 -422l144 422h140l144 -422l127 422h179z" />
    <glyph glyph-name="X" unicode="X" horiz-adv-x="696" 
d="M495 0l-146 209l-147 -209h-194l227 335l-224 345h203l134 -210l134 210h203l-224 -345l227 -335h-193z" />
    <glyph glyph-name="Y" unicode="Y" horiz-adv-x="719" 
d="M713 680l-268 -475v-205h-170v205l-269 475h187l166 -296l167 296h187z" />
    <glyph glyph-name="Z" unicode="Z" horiz-adv-x="658" 
d="M623 149v-149h-589v80l337 451h-320v149h566v-80l-323 -451h329z" />
    <glyph glyph-name="bracketleft" unicode="[" horiz-adv-x="383" 
d="M211 5h145v-152h-307v877h307v-151h-145v-574z" />
    <glyph glyph-name="backslash" unicode="\" horiz-adv-x="431" 
d="M167 730l252 -890h-155l-252 890h155z" />
    <glyph glyph-name="bracketright" unicode="]" horiz-adv-x="383" 
d="M27 579v151h307v-877h-307v152h145v574h-145z" />
    <glyph glyph-name="asciicircum" unicode="^" horiz-adv-x="438" 
d="M421 435h-141l-61 123l-61 -123h-141l139 245h126z" />
    <glyph glyph-name="underscore" unicode="_" horiz-adv-x="621" 
d="M27 -91h568v-137h-568v137z" />
    <glyph glyph-name="grave" unicode="`" 
d="M406 557h-151l-100 160h171z" />
    <glyph glyph-name="a" unicode="a" horiz-adv-x="624" 
d="M569 485v-485h-162v27c-38.667 -24.667 -83 -37 -133 -37c-66.667 0 -123.334 24.333 -170.001 73c-47.333 49.333 -71 109.333 -71 180s23.667 130.667 71 180c46.667 48.667 103.334 73 170.001 73c50 0 94.333 -12.333 133 -37v26h162zM307 123
c39.333 0 72.666 15 99.999 45v151c-27.333 30 -60.666 45 -99.999 45c-32.667 0 -60 -11.667 -82 -35s-33 -52 -33 -86s11 -62.5 33 -85.5s49.333 -34.5 82 -34.5z" />
    <glyph glyph-name="b" unicode="b" horiz-adv-x="624" 
d="M350 494c66.667 0 123.334 -24.333 170.001 -73c47.333 -48.667 71 -108.334 71 -179.001c0 -71.333 -23.667 -131.666 -71 -180.999c-46.667 -48.667 -103.334 -73 -170.001 -73c-49.333 0 -93.333 12 -132 36v-24h-163v710h163v-252c38.667 24 82.667 36 132 36z
M318 121c32.667 0 59.833 11.668 81.5 35.001s32.5 52 32.5 86c0 33.333 -11 61.666 -33 84.999c-21.333 23.333 -48.333 35 -81 35c-40 0 -73.333 -15 -100 -45v-152c26 -29.333 59.333 -44 100 -44z" />
    <glyph glyph-name="c" unicode="c" horiz-adv-x="580" 
d="M299 126c24.667 0 45.666 6.66895 62.999 20.002s28 31 32 53h153c-6 -62.667 -32.333 -113.334 -79 -152.001c-45.333 -38.667 -102 -58 -170 -58c-76.667 0 -140 23.667 -190 71c-50 46.667 -75 107.667 -75 183c0 74 25 134.333 75 181c50.667 48 114 72 190 72
c66.667 0 123.334 -19.667 170.001 -59c46.667 -38.667 73 -89 79 -151h-153c-4 22 -14.667 39.667 -32 53s-38.333 20 -63 20c-33.333 0 -60.166 -10.667 -80.499 -32s-30.5 -49.333 -30.5 -84s10.167 -62.834 30.5 -84.501s47.166 -32.5 80.499 -32.5z" />
    <glyph glyph-name="d" unicode="d" horiz-adv-x="624" 
d="M569 710v-710h-162v25c-38.667 -24.667 -83 -37 -133 -37c-66.667 0 -123.334 24.333 -170.001 73c-47.333 49.333 -71 109.666 -71 180.999c0 70.667 23.667 130.334 71 179.001c46.667 48.667 103.334 73 170.001 73c50 0 94.333 -12.333 133 -37v253h162zM307 121
c39.333 0 72.666 14.999 99.999 44.999v151c-27.333 30 -60.666 45 -99.999 45c-32.667 0 -60 -11.667 -82 -35s-33 -51.666 -33 -84.999c0 -34 11 -62.667 33 -86s49.333 -35 82 -35z" />
    <glyph glyph-name="e" unicode="e" horiz-adv-x="573" 
d="M539 253c0 -26 -1 -45.333 -3 -58h-345c15.333 -52 51.666 -78 108.999 -78c34 0 58.667 11.667 74 35h161c-12 -50 -39.5 -89.667 -82.5 -119s-94.5 -44 -154.5 -44c-78.667 0 -142.667 23.667 -192 71c-48.667 46.667 -73 107.667 -73 183c0 74 23.667 134.667 71 182
c48.667 47.333 111.334 71 188.001 71c70.667 0 129.667 -22.667 177 -68c46.667 -44.667 70 -103 70 -175zM291 371c-54 0 -87.667 -27 -101 -81h197c-8.66699 54 -40.667 81 -96 81z" />
    <glyph glyph-name="f" unicode="f" horiz-adv-x="455" 
d="M284 485h170.999v-139h-171v-346h-162v346h-119v139h119v58c0 68.667 19.667 123.667 59 165c40 41.333 91.333 62 154 62c40 0 83 -6 129 -18l-22 -135c-29.333 6 -54 9 -74 9c-25.333 0 -45.666 -7.16699 -60.999 -21.5s-23 -33.5 -23 -57.5v-62z" />
    <glyph glyph-name="g" unicode="g" horiz-adv-x="628" 
d="M572 485v-477.001c0 -74.667 -24 -133.334 -72 -176.001c-46.667 -42.667 -109 -64 -187 -64c-74 0 -135.333 19.333 -184 58s-75 89.334 -79 152.001h161c6.66699 -48.667 40.334 -73 101.001 -73c30 0 53.833 8.83301 71.5 26.5s26.5 42.167 26.5 73.5v46
c-38.667 -22.667 -82.667 -34 -132 -34c-66.667 0 -123.334 23 -170.001 69c-47.333 46 -71 101.667 -71 167c0 72.667 23.333 132.334 70 179.001s103.667 70 171 70c49.333 0 93.333 -12 132 -36v19h162zM310 145.999c40 0 73.333 15.001 100 45.001v134
c-26.667 30 -60 45 -100 45c-33.333 0 -60.833 -10.833 -82.5 -32.5s-32.5 -49.834 -32.5 -84.501c0 -27.333 11 -52 33 -74c22.667 -22 50 -33 82 -33z" />
    <glyph glyph-name="h" unicode="h" horiz-adv-x="606" 
d="M351 500c61.333 0 111.001 -20.332 149.001 -60.999c38 -40 57 -94 57 -162v-277h-162v251c0 33.333 -7.83301 58.666 -23.5 75.999s-37.5 26 -65.5 26c-30.667 0 -60 -16 -88 -48v-305h-163v710h163v-257c41.333 31.333 85.666 47 132.999 47z" />
    <glyph glyph-name="i" unicode="i" horiz-adv-x="279" 
d="M139 561c-26.667 0 -49.167 8.66699 -67.5 26s-27.5 39 -27.5 65s9.16699 47.833 27.5 65.5s40.833 26.5 67.5 26.5c26 0 48.333 -8.83301 67 -26.5s28 -39.5 28 -65.5s-9.33301 -47.667 -28 -65s-41 -26 -67 -26zM221 485v-485h-162v485h162z" />
    <glyph glyph-name="j" unicode="j" horiz-adv-x="276" 
d="M136 561c-26 0 -48.333 8.66699 -67 26s-28 39 -28 65s9.33301 47.833 28 65.5s41 26.5 67 26.5c26.667 0 49.167 -8.83301 67.5 -26.5s27.5 -39.5 27.5 -65.5s-9.16699 -47.667 -27.5 -65s-40.833 -26 -67.5 -26zM218 485l-0.000976562 -446.001
c0 -79.333 -17 -138.666 -51 -177.999s-96.667 -60 -188 -62l-14 135c34.667 3.33301 58.334 11 71.001 23s19 32.333 19 61v467h163z" />
    <glyph glyph-name="k" unicode="k" horiz-adv-x="598" 
d="M285 168l-67 -72v-96h-163v710h163v-406l168 181h193l-184 -198l200 -287h-194z" />
    <glyph glyph-name="l" unicode="l" horiz-adv-x="273" 
d="M218 710v-710h-163v710h163z" />
    <glyph glyph-name="m" unicode="m" horiz-adv-x="912" 
d="M659 500c60 0 108.332 -20.333 144.999 -61c37.333 -40.667 56 -94.667 56 -162v-277h-162v251c0 68 -29 102 -87 102c-27.333 0 -52 -13.333 -74 -40c1.33301 -21.333 2 -33.333 2 -36v-277h-162v251c0 68 -29 102 -87 102c-26.667 0 -50.667 -14 -72 -42v-311h-163v485
h163v-28c32.667 28.667 72.334 43 119.001 43c62 0 112 -22 150 -66c48.667 44 106 66 172 66z" />
    <glyph glyph-name="n" unicode="n" horiz-adv-x="606" 
d="M351 500c61.333 0 111.001 -20.332 149.001 -60.999c38 -40 57 -94 57 -162v-277h-162v251c0 33.333 -7.83301 58.666 -23.5 75.999s-37.5 26 -65.5 26c-30.667 0 -60 -16 -88 -48v-305h-163v485h163v-32c41.333 31.333 85.666 47 132.999 47z" />
    <glyph glyph-name="o" unicode="o" horiz-adv-x="593" 
d="M297 496c76.667 0 139.333 -24 188 -72c49.333 -47.333 74 -107.666 74 -180.999c0 -74 -24.667 -135.667 -74 -185c-48.667 -48.667 -111.334 -73 -188.001 -73c-77.333 0 -140.666 24.333 -189.999 73c-49.333 49.333 -74 111 -74 185
c0 73.333 24.667 133.666 74 180.999c50 48 113.333 72 190 72zM296.999 125c32 0 58.167 11 78.5 33s30.5 50 30.5 84c0 32.667 -10.167 59.834 -30.5 81.501s-46.5 32.5 -78.5 32.5s-58.333 -10.833 -79 -32.5s-31 -48.834 -31 -81.501c0 -34 10.333 -62 31 -84
s47 -33 79 -33z" />
    <glyph glyph-name="p" unicode="p" horiz-adv-x="624" 
d="M350 496c66.667 0 123.334 -24.333 170.001 -73c47.333 -49.333 71 -109.333 71 -180s-23.667 -130.667 -71 -180c-46.667 -48.667 -103.334 -73 -170.001 -73c-49.333 0 -93.333 12 -132 36v-251h-163v710h163v-25c38.667 24 82.667 36 132 36zM318 123
c32.667 0 59.834 11.5 81.501 34.5s32.5 51.5 32.5 85.5s-10.833 62.667 -32.5 86s-48.834 35 -81.501 35c-40 0 -73.333 -15 -100 -45v-152c26 -29.333 59.333 -44 100 -44z" />
    <glyph glyph-name="q" unicode="q" horiz-adv-x="624" 
d="M567 485v-710h-162v251c-39.333 -24 -83.333 -36 -132 -36c-67.333 0 -124.333 24.333 -171 73s-70 108.667 -70 180c0 72.667 23.333 132.667 70 180c46.667 48.667 103.667 73 171 73c48.667 0 92.667 -12 132 -36v25h162zM305 123c40.667 0 73.999 14.667 99.999 44
v152c-27.333 30 -60.666 45 -99.999 45c-32.667 0 -60 -11.667 -82 -35s-33 -52 -33 -86s11 -62.5 33 -85.5s49.333 -34.5 82 -34.5z" />
    <glyph glyph-name="r" unicode="r" horiz-adv-x="410" 
d="M385 493v-154c-72.667 -2.66699 -128.334 -23 -167.001 -61v-278h-163v485h163v-52c46.667 40 102.334 60 167.001 60z" />
    <glyph glyph-name="s" unicode="s" horiz-adv-x="521" 
d="M22 167l143.997 -0.999023c6.66699 -40.667 37.334 -61 92.001 -61c21.333 0 38.333 3 51 9s19 14.333 19 25c0 17.333 -15.667 28.666 -47 33.999l-98 17c-44.667 7.33301 -79.667 23.5 -105 48.5s-38 57.5 -38 97.5c0 50 19.667 89.5 59 118.5s92 43.5 158 43.5
c60.667 0 112.334 -13.333 155.001 -40c44 -27.333 68 -70 72 -128h-145c-3.33301 36 -30.666 54 -81.999 54c-19.333 0 -34.333 -3.33301 -45 -10s-16 -15 -16 -25c0 -19.333 17 -32 51 -38l90 -15c101.333 -17.333 152 -66.333 152 -147c0 -53.333 -21.333 -94 -64 -122
c-42 -28 -96.667 -42 -164 -42c-70 0 -126.167 15.333 -168.5 46s-65.833 76 -70.5 136z" />
    <glyph glyph-name="t" unicode="t" horiz-adv-x="470" 
d="M426 146l17.999 -137c-50.667 -16 -99.667 -24 -147 -24c-59.333 0 -106.666 19.667 -141.999 59s-53 92 -53 158v144h-95v139h95v165h162v-165h165v-139h-165v-139c0 -48.667 25.333 -73 76 -73c16 0 44.667 4 86 12z" />
    <glyph glyph-name="u" unicode="u" horiz-adv-x="606" 
d="M551 485l-0.00195312 -485.001h-162v32c-41.333 -31.333 -85.666 -47 -132.999 -47c-62 0 -112 20 -150 60s-57 94.333 -57 163v277h162v-252c0 -33.333 7.83301 -58.666 23.5 -75.999s37.5 -26 65.5 -26c30.667 0 60.334 16 89.001 48v306h162z" />
    <glyph glyph-name="v" unicode="v" horiz-adv-x="594" 
d="M584 485l-210 -485h-154l-210 485h171l116 -280l116 280h171z" />
    <glyph glyph-name="w" unicode="w" horiz-adv-x="810" 
d="M796 485l-166 -485h-147l-78 252l-78 -252h-147l-167 485h170l75 -259l83 259h128l82 -258l76 258h169z" />
    <glyph glyph-name="x" unicode="x" horiz-adv-x="568" 
d="M389 241l170 -241h-178l-97 139l-97 -139h-179l170 242l-170 243h185l91 -128l90 128h185z" />
    <glyph glyph-name="y" unicode="y" horiz-adv-x="641" 
d="M624 485l-298 -709h-171l92 218l-230 491h171l140 -299l126 299h170z" />
    <glyph glyph-name="z" unicode="z" horiz-adv-x="512" 
d="M482 399l-220 -265h220v-134h-452v79l228 271h-224v135h448v-86z" />
    <glyph glyph-name="braceleft" unicode="{" horiz-adv-x="368" 
d="M268 538v-117.002c0 -39.333 -5.16699 -68.166 -15.5 -86.499s-30.833 -32.166 -61.5 -41.499c30.667 -9.33301 51.167 -23 61.5 -41s15.5 -46 15.5 -84v-117c0 -15.333 6.66699 -28 20 -38s31 -15 53 -15v-151c-71.333 0 -128.333 17.5 -171 52.5s-64 82.167 -64 141.5
v132c0 24.667 -4.83301 40.167 -14.5 46.5s-31.167 9.5 -64.5 9.5v128c33.333 0 54.833 3.16699 64.5 9.5s14.5 21.833 14.5 46.5v135c0 59.333 21.333 106.5 64 141.5s99.667 52.5 171 52.5v-151c-22 0 -39.667 -5 -53 -15s-20 -22.667 -20 -38z" />
    <glyph glyph-name="bar" unicode="|" horiz-adv-x="330" 
d="M237 730v-890h-144v890h144z" />
    <glyph glyph-name="braceright" unicode="}" horiz-adv-x="378" 
d="M110 421v117.002c0 15.333 -6.66699 28 -20 38s-31 15 -53 15v151c71.333 0 128.333 -17.5 171 -52.5s64 -82.167 64 -141.5v-135c0 -24.667 4.83301 -40.167 14.5 -46.5s31.167 -9.5 64.5 -9.5v-128c-33.333 0 -54.833 -3.16699 -64.5 -9.5s-14.5 -21.833 -14.5 -46.5
v-132c0 -59.333 -21.333 -106.5 -64 -141.5s-99.667 -52.5 -171 -52.5v151c22 0 39.667 5 53 15s20 22.667 20 38v117c0 38 5.16699 66 15.5 84s30.833 31.667 61.5 41c-30.667 9.33301 -51.167 23.166 -61.5 41.499s-15.5 47.166 -15.5 86.499z" />
    <glyph glyph-name="asciitilde" unicode="~" horiz-adv-x="473" 
d="M321 418l138 0.000976562c0 -40 -7.5 -73.833 -22.5 -101.5s-33.833 -46.667 -56.5 -57s-46.5 -15.166 -71.5 -14.499s-47.833 7.33398 -68.5 20.001l-42 26c-30.667 14 -46 4.66699 -46 -28h-137c0 39.333 7.5 72.666 22.5 99.999s33.667 46.166 56 56.499
s46 15.166 71 14.499s47.833 -7 68.5 -19l43 -25c30 -14 45 -4.66699 45 28z" />
    <glyph glyph-name="exclamdown" unicode="&#xa1;" horiz-adv-x="295" 
d="M85 475c17.333 16.667 38 24.832 62 24.499s44.667 -8.5 62 -24.5s26 -36 26 -60s-8.66699 -44 -26 -60s-38 -24.167 -62 -24.5s-44.667 7.83398 -62 24.501c-16.667 16 -25 36 -25 60s8.33301 44 25 60zM62 -192.002l14 458h142l14 -458h-170z" />
    <glyph glyph-name="cent" unicode="&#xa2;" horiz-adv-x="580" 
d="M298 126c24.667 0 45.667 6.66602 63 19.999s28 31 32 53h153c-4.66699 -50.667 -23.334 -94.167 -56.001 -130.5s-74.334 -60.166 -125.001 -71.499v-101h-131v100c-61.333 13.333 -110 42 -146 86c-36.667 44.667 -55 98.334 -55 161.001
c0 63.333 18.333 116.666 55 159.999c36 44 84.667 72.667 146 86v117h131v-118c50.667 -11.333 92.334 -35.166 125.001 -71.499s51.334 -79.833 56.001 -130.5h-153c-4 22 -14.667 39.667 -32 53s-38.333 20 -63 20c-33.333 0 -60.166 -10.667 -80.499 -32
s-30.5 -49.333 -30.5 -84s10.167 -62.834 30.5 -84.501s47.166 -32.5 80.499 -32.5z" />
    <glyph glyph-name="sterling" unicode="&#xa3;" horiz-adv-x="617" 
d="M245 139h333.999v-139h-551v139h56v130h-56v126h56v55c0 73.333 23.333 132 70 176s108.334 66 185.001 66c72 0 130.833 -19.333 176.5 -58s71.5 -91.334 77.5 -158.001h-162c-4.66699 24 -15 42.667 -31 56s-36.333 20 -61 20c-28.667 0 -51.5 -9.16699 -68.5 -27.5
s-25.5 -43.166 -25.5 -74.499v-55h182v-126h-182v-130z" />
    <glyph glyph-name="yen" unicode="&#xa5;" horiz-adv-x="719" 
d="M509 318h114v-105h-173l-5 -8v-34h178v-105h-178v-66h-170v66h-179v105h179v34l-5 8h-174v105h115l-205 362h187l166 -296l167 296h187z" />
    <glyph glyph-name="brokenbar" unicode="&#xa6;" horiz-adv-x="330" 
d="M237 336h-144v394h144v-394zM237 -160h-144v394h144v-394z" />
    <glyph glyph-name="section" unicode="&#xa7;" horiz-adv-x="561" 
d="M534 241c0 -58 -22.999 -101.332 -68.999 -129.999c19.333 -28.667 29 -61.334 29 -98.001c0 -52.667 -20 -95 -60 -127s-91.667 -48 -155 -48c-66.667 0 -121.167 18 -163.5 54s-65.833 84.667 -70.5 146h163c1.33301 -20 8 -35.667 20 -47s28 -17 48 -17
c15.333 0 27.833 3.83301 37.5 11.5s14.5 17.834 14.5 30.501c0 21.333 -13.333 38 -40 50l-114 50c-52 22.667 -89.5 47.667 -112.5 75s-34.5 59.666 -34.5 96.999c0 57.333 23.333 100.333 70 129c-20 30 -30 63 -30 99c0 52.667 19.667 94.667 59 126c40 32 92 48 156 48
c66.667 0 121.167 -17.833 163.5 -53.5s65.833 -84.167 70.5 -145.5h-163c-1.33301 20 -8 35.667 -20 47s-28 17 -48 17c-15.333 0 -27.833 -3.83301 -37.5 -11.5s-14.5 -17.834 -14.5 -30.501c0 -21.333 13.333 -38 40 -50l114 -51
c51.333 -23.333 88.666 -48.666 111.999 -75.999s35 -59 35 -95zM241.001 241.001l115 -49.999c18 8 27 20.667 27 38c0 20.667 -21 40 -63 58l-114 50c-18.667 -4.66699 -28 -17.334 -28 -38.001s21 -40 63 -58z" />
    <glyph glyph-name="dieresis" unicode="&#xa8;" 
d="M121 700c18.667 17.333 40.334 26 65.001 26s46 -8.66699 64 -26c17.333 -17.333 26.166 -38.166 26.499 -62.499s-8.5 -45.166 -26.5 -62.499c-17.333 -16.667 -38.666 -25 -63.999 -25s-47 8.33301 -65 25c-18.667 17.333 -27.834 38.166 -27.501 62.499
s9.5 45.166 27.5 62.499zM350 700c18.667 17.333 40.334 26 65.001 26s46 -8.66699 64 -26c17.333 -17.333 26.166 -38.166 26.499 -62.499s-8.5 -45.166 -26.5 -62.499c-17.333 -16.667 -38.666 -25 -63.999 -25s-47 8.33301 -65 25
c-18.667 17.333 -27.834 38.166 -27.501 62.499s9.5 45.166 27.5 62.499z" />
    <glyph glyph-name="copyright" unicode="&#xa9;" horiz-adv-x="815" 
d="M151 593c71.333 68 157 102 257 102s185.667 -34 257 -102s107 -152.333 107 -253s-35.667 -185 -107 -253s-157 -102 -257 -102s-185.667 34 -257 102s-107 152.333 -107 253s35.667 185 107 253zM407 75c73.333 0 136.666 25.667 189.999 77s80 114 80 188
s-26.667 136.667 -80 188s-116.666 77 -189.999 77c-72.667 0 -135.667 -25.667 -189 -77s-80 -114 -80 -188s26.667 -136.667 80 -188s116.333 -77 189 -77zM409 404c-19.333 0 -35 -6.16602 -47 -18.499s-18 -27.833 -18 -46.5s6 -34.167 18 -46.5s27.667 -18.5 47 -18.5
c13.333 0 25.166 3.5 35.499 10.5s17.5 15.833 21.5 26.5h106c-5.33301 -39.333 -23.333 -71.333 -54 -96c-29.333 -24.667 -65.666 -37 -108.999 -37c-49.333 0 -89.666 15.333 -120.999 46c-31.333 31.333 -47 69.666 -47 114.999c0 46 15.667 84.667 47 116
c31.333 30.667 71.666 46 120.999 46c43.333 0 80 -12.333 110 -37s47.667 -57 53 -97h-106c-8.66699 24.667 -27.667 37 -57 37z" />
    <glyph glyph-name="ordfeminine" unicode="&#xaa;" horiz-adv-x="363" 
d="M182 685c46.667 0 84.167 -12.499 112.5 -37.499s42.5 -59.167 42.5 -102.5v-194h-106v12c-24.667 -12 -51.334 -18 -80.001 -18c-40.667 0 -73.334 9.5 -98.001 28.5s-37 44.5 -37 76.5c0 30 11.333 53.333 34 70s54.334 25 95.001 25h86c0 36 -16.333 54 -49 54
c-14 0 -25.5 -3.33301 -34.5 -10s-13.833 -15.667 -14.5 -27h-104c0.666992 39.333 15.334 69.666 44.001 90.999s65 32 109 32zM166 429.001c22.667 0 44.333 6.33301 65 19v33h-83c-19.333 0 -29 -7 -29 -21c0 -20.667 15.667 -31 47 -31z" />
    <glyph glyph-name="guillemotleft" unicode="&#xab;" horiz-adv-x="486" 
d="M261 413l-95 -161l95 -161h-144l-95 161l95 161h144zM464 413l-95 -161l95 -161h-144l-95 161l95 161h144z" />
    <glyph glyph-name="registered" unicode="&#xae;" horiz-adv-x="557" 
d="M533 443c0 -70 -25 -129 -75 -177c-50.667 -47.333 -110.667 -71 -180 -71s-129.333 23.667 -180 71c-50 48 -75 107 -75 177c0 70.667 24.667 129.667 74 177c50 48 110.333 72 181 72c70 0 130 -24 180 -72s75 -107 75 -177zM152 317
c34.667 -34.667 76.667 -52 126 -52s91.333 17.333 126 52c36 35.333 54 77.333 54 126s-18 90.667 -54 126c-35.333 35.333 -77.333 53 -126 53s-90.667 -17.667 -126 -53s-53 -77.333 -53 -126s17.667 -90.667 53 -126zM374 476c0 -26 -11.668 -45.666 -35.001 -58.999
l45 -68h-70l-34 55h-25v-55h-58v202h90c26.667 0 47.834 -6.83301 63.501 -20.5s23.5 -31.834 23.5 -54.501zM254.999 453.001h31c18.667 0 28 8 28 24c0 15.333 -9.33301 23 -28 23h-31v-47z" />
    <glyph glyph-name="overscore" unicode="&#xaf;" 
d="M443 694v-124h-286v124h286z" />
    <glyph glyph-name="degree" unicode="&#xb0;" horiz-adv-x="462" 
d="M103 646c34.667 32.667 77.334 49.002 128.001 49.002c51.333 0 93.666 -16.333 126.999 -49c34.667 -32.667 52 -74.334 52 -125.001s-17.333 -92.334 -52 -125.001c-33.333 -32.667 -75.666 -49 -126.999 -49c-50.667 0 -93.334 16.333 -128.001 49
c-34 33.333 -51 75 -51 125s17 91.667 51 125zM302 521.002c0 20 -6.83301 36.667 -20.5 50s-30.5 20 -50.5 20s-36.833 -6.66699 -50.5 -20s-20.5 -30 -20.5 -50c0 -19.333 7 -35.833 21 -49.5s30.667 -20.5 50 -20.5s36 6.83301 50 20.5s21 30.167 21 49.5z" />
    <glyph glyph-name="plusminus" unicode="&#xb1;" horiz-adv-x="669" 
d="M572 324h-171v-123h-133v123h-171v128h171v124h133v-124h171v-128zM572 162v-128h-475v128h475z" />
    <glyph glyph-name="twosuperior" unicode="&#xb2;" horiz-adv-x="373" 
d="M345 375l-0.000976562 -97h-311v57l139 156c19.333 21.333 32 36.5 38 45.5s9 17.833 9 26.5c0 9.33301 -3.16699 16.833 -9.5 22.5s-14.833 8.5 -25.5 8.5c-27.333 0 -41.666 -13.667 -42.999 -41h-110c0.666992 44.667 14.334 80 41.001 106s64 39 112 39
c47.333 0 85.166 -12 113.499 -36s42.5 -54 42.5 -90c0 -19.333 -5.5 -39.333 -16.5 -60s-30.833 -47.667 -59.5 -81l-48 -56h128z" />
    <glyph glyph-name="threesuperior" unicode="&#xb3;" horiz-adv-x="384" 
d="M304 487c32.667 -18.667 48.999 -47.001 48.999 -85.001c0 -37.333 -15 -68.666 -45 -93.999c-28.667 -24.667 -67.334 -37 -116.001 -37c-46.667 0 -84.167 12 -112.5 36s-45.166 57.333 -50.499 100h112c7.33301 -26 25 -39 53 -39c14 0 25.333 3.33301 34 10
s13 15.334 13 26.001c0 24 -19 36 -57 36h-33v88h33c33.333 0 50 12.333 50 37c0 24 -14 36 -42 36c-25.333 0 -39.333 -13.333 -42 -40h-112c2.66699 42.667 17.334 76 44.001 100s62.667 36 108 36c46 0 82.667 -11.833 110 -35.5s41 -54.834 41 -93.501
c0 -33.333 -12.333 -60.333 -37 -81z" />
    <glyph glyph-name="acute" unicode="&#xb4;" 
d="M469 717l-100 -160h-151l80 160h171z" />
    <glyph glyph-name="paragraph" unicode="&#xb6;" horiz-adv-x="770" 
d="M714 680l-0.00195312 -840.001h-146v716h-71v-716h-147v363h-72c-73.333 0 -134.666 22.667 -183.999 68c-49.333 46 -74 105.333 -74 178c0 68.667 24.333 124.334 73 167.001s110.334 64 185.001 64h436zM349.998 555.999l-72 0.000976562
c-35.333 0 -63.833 -9.83301 -85.5 -29.5s-32.5 -45.834 -32.5 -78.501c0 -34.667 10.833 -62.5 32.5 -83.5s50.167 -31.5 85.5 -31.5h72v223z" />
    <glyph glyph-name="middot" unicode="&#xb7;" horiz-adv-x="235" 
d="M117 189c-24.667 0 -45.834 8.50195 -63.501 25.502s-26.5 37.5 -26.5 61.5s8.83301 44.5 26.5 61.5s38.834 25.5 63.501 25.5c25.333 0 47 -8.33301 65 -25s27 -37.334 27 -62.001s-9 -45.334 -27 -62.001s-39.667 -25 -65 -25z" />
    <glyph glyph-name="cedilla" unicode="&#xb8;" 
d="M327 -228h-135l43 177h152z" />
    <glyph glyph-name="onesuperior" unicode="&#xb9;" horiz-adv-x="341" 
d="M336 378v-97h-311v97h102v192l-97 -27v103l141 46h67v-314h98z" />
    <glyph glyph-name="ordmasculine" unicode="&#xba;" horiz-adv-x="390" 
d="M195 687c51.333 0 93.333 -16.333 126 -49c32.667 -32 49 -72.333 49 -121c0 -50 -16.333 -91.333 -49 -124c-32.667 -32 -74.667 -48 -126 -48s-93.333 16.333 -126 49s-49 73.667 -49 123c0 48.667 16.333 89 49 121c32.667 32.667 74.667 49 126 49zM195 440
c20.667 0 37.5 7.33301 50.5 22s19.5 33 19.5 55c0 20.667 -6.66699 38 -20 52s-30 21 -50 21c-21.333 0 -38.5 -7 -51.5 -21s-19.5 -31.333 -19.5 -52c0 -22 6.5 -40.333 19.5 -55s30.167 -22 51.5 -22z" />
    <glyph glyph-name="guillemotright" unicode="&#xbb;" horiz-adv-x="486" 
d="M261 252l-95 -161h-144l95 161l-95 161h144zM464 252l-95 -161h-144l95 161l-95 161h144z" />
    <glyph glyph-name="onequarter" unicode="&#xbc;" horiz-adv-x="953" 
d="M25 269v97h102v192l-97 -27v103l141 46h67v-314h98v-97h-311zM762 680l-454 -680h-108l454 680h108zM926 68h-48v-68h-114v68h-208v75l110 268h115l-92 -243h75v93h114v-93h48v-100z" />
    <glyph glyph-name="onehalf" unicode="&#xbd;" horiz-adv-x="933" 
d="M25 269v97h102v192l-97 -27v103l141 46h67v-314h98v-97h-311zM766 680l-454 -680h-108l454 680h108zM905 97l-0.000976562 -97h-311v57l139 156c19.333 21.333 32 36.5 38 45.5s9 17.833 9 26.5c0 9.33301 -3.16699 16.833 -9.5 22.5s-14.833 8.5 -25.5 8.5
c-27.333 0 -41.666 -13.667 -42.999 -41h-110c0.666992 44.667 14.334 80 41.001 106s64 39 112 39c47.333 0 85.166 -12 113.499 -36s42.5 -54 42.5 -90c0 -19.333 -5.5 -39.333 -16.5 -60s-30.833 -47.667 -59.5 -81l-48 -56h128z" />
    <glyph glyph-name="threequarters" unicode="&#xbe;" horiz-adv-x="939" 
d="M194 263c-46.667 0 -84.168 11.999 -112.501 35.999s-45.166 57.333 -50.499 100h112c7.33301 -26 25 -39 53 -39c14 0 25.333 3.33301 34 10s13 15.334 13 26.001c0 24 -19 36 -57 36h-33v88h33c33.333 0 50 12.333 50 37c0 24 -14 36 -42 36
c-25.333 0 -39.333 -13.333 -42 -40h-112c2.66699 42.667 17.334 76 44.001 100s62.667 36 108 36c46 0 82.667 -11.833 110 -35.5s41 -54.834 41 -93.501c0 -33.333 -12.333 -60.333 -37 -81c32.667 -18.667 49 -47 49 -85c0 -37.333 -15 -68.666 -45 -93.999
c-28.667 -24.667 -67.334 -37 -116.001 -37zM748.999 679.999l-454 -680h-109l454 680h109zM912.999 67.999h-48v-68h-114v68h-209v75l110 268h116l-92 -243h75v93h114v-93h48v-100z" />
    <glyph glyph-name="questiondown" unicode="&#xbf;" horiz-adv-x="539" 
d="M236 528c17.333 16 38 24 62 24s44.667 -8 62 -24s26 -36 26 -60s-8.66699 -44 -26 -60s-38 -24 -62 -24s-44.667 8 -62 24s-26 36 -26 60s8.66699 44 26 60zM356 322l10 -163h-82c-28.667 0 -52.334 -8 -71.001 -24s-28 -37 -28 -63c0 -25.333 8 -45.833 24 -61.5
s37.333 -23.5 64 -23.5c26 0 47.167 7.16699 63.5 21.5s25.833 33.5 28.5 57.5h157c-4 -66.667 -27.167 -119 -69.5 -157s-100.5 -57 -174.5 -57c-71.333 0 -129.666 20.333 -174.999 61c-45.333 41.333 -68 94.333 -68 159c0 52 17.167 95 51.5 129s81.5 55 141.5 63l5 58
h123z" />
    <glyph glyph-name="Agrave" unicode="&#xc0;" horiz-adv-x="763" 
d="M319 750l-100 160h171l80 -160h-151zM525 117h-288l-45 -117h-180l289 684h161l288 -684h-179zM469 261l-88 226l-88 -226h176z" />
    <glyph glyph-name="Aacute" unicode="&#xc1;" horiz-adv-x="763" 
d="M458 750h-151l80 160h171zM525 117h-288l-45 -117h-180l289 684h161l288 -684h-179zM469 261l-88 226l-88 -226h176z" />
    <glyph glyph-name="Acircumflex" unicode="&#xc2;" horiz-adv-x="763" 
d="M329 750h-141l117 164h153l116 -164h-141l-51 66zM525 117h-288l-45 -117h-180l289 684h161l288 -684h-179zM469 261l-88 226l-88 -226h176z" />
    <glyph glyph-name="Atilde" unicode="&#xc3;" horiz-adv-x="763" 
d="M389 760l-38 22c-26.667 15.333 -40 7.33301 -40 -24h-119c0 34.667 6.5 63.667 19.5 87s29.333 39.5 49 48.5s40.167 13.167 61.5 12.5s41 -6 59 -16l38 -22c26.667 -15.333 40 -7.33301 40 24h119c0 -34.667 -6.5 -63.834 -19.5 -87.501s-29.333 -40 -49 -49
s-40.167 -13.167 -61.5 -12.5s-41 6.33398 -59 17.001zM525 117h-288l-45 -117h-180l289 684h161l288 -684h-179zM469 261l-88 226l-88 -226h176z" />
    <glyph glyph-name="Adieresis" unicode="&#xc4;" horiz-adv-x="763" 
d="M331 768c-17.333 -16.667 -38.666 -25 -63.999 -25s-47 8.33301 -65 25c-18.667 17.333 -27.834 38.166 -27.501 62.499s9.5 45.166 27.5 62.499c18.667 16.667 40.334 25 65.001 25s46 -8.33301 64 -25c17.333 -17.333 26.166 -38.166 26.499 -62.499
s-8.5 -45.166 -26.5 -62.499zM560 768c-17.333 -16.667 -38.666 -25 -63.999 -25s-47 8.33301 -65 25c-18.667 17.333 -27.834 38.166 -27.501 62.499s9.5 45.166 27.5 62.499c18.667 16.667 40.334 25 65.001 25s46 -8.33301 64 -25
c17.333 -17.333 26.166 -38.166 26.499 -62.499s-8.5 -45.166 -26.5 -62.499zM525 117h-288l-45 -117h-180l289 684h161l288 -684h-179zM469 261l-88 226l-88 -226h176z" />
    <glyph glyph-name="Aring" unicode="&#xc5;" horiz-adv-x="763" 
d="M470 780c-23.333 -21.333 -53 -32.001 -89 -32.001c-36.667 0 -66.667 10.667 -90 32c-22.667 20.667 -34 48.667 -34 84c0 34.667 11.333 62.334 34 83.001c23.333 21.333 53.333 32 90 32c36 0 65.667 -10.667 89 -32s35 -49 35 -83c0 -34.667 -11.667 -62.667 -35 -84
zM337 863.999c-2 -18 4.83301 -30.833 20.5 -38.5s31.334 -7.66699 47.001 0s22.5 20.5 20.5 38.5c2 17.333 -4.83301 29.666 -20.5 36.999s-31.334 7.33301 -47.001 0s-22.5 -19.666 -20.5 -36.999zM525 116.999h-288l-45 -117h-180l289 684h161l288 -684h-179z
M469 260.999l-88 226l-88 -226h176z" />
    <glyph glyph-name="AE" unicode="&#xc6;" horiz-adv-x="1116" 
d="M734 533v-124h302v-144h-302v-118h345v-147h-514v117h-265l-84 -117h-204l505 680h562v-147h-345zM565 261v223l-161 -223h161z" />
    <glyph glyph-name="Ccedilla" unicode="&#xc7;" horiz-adv-x="789" 
d="M403 144c44 0 80.834 12.001 110.501 36.001s49.167 58 58.5 102h173c-10.667 -88.667 -47 -160.334 -109 -215.001c-62 -54 -139.333 -81 -232 -81c-102.667 0 -188.334 33.333 -257.001 100s-103 151.334 -103 254.001c0 102 34.333 186.333 103 253
c69.333 67.333 155 101 257 101c93.333 0 170.666 -27.333 231.999 -82c62 -54 98.333 -125.333 109 -214h-173c-9.33301 44 -28.833 78 -58.5 102s-66.5 36 -110.5 36c-55.333 0 -100.666 -18.667 -135.999 -56c-34.667 -36.667 -52 -83.334 -52 -140.001
c0 -57.333 17.333 -104.333 52 -141s80 -55 136 -55zM326.001 -50.999h152l-60 -177h-135z" />
    <glyph glyph-name="Egrave" unicode="&#xc8;" horiz-adv-x="610" 
d="M249 750l-100 160h171l80 -160h-151zM229 533v-124h301v-144h-301v-118h345v-147h-514v680h514v-147h-345z" />
    <glyph glyph-name="Eacute" unicode="&#xc9;" horiz-adv-x="610" 
d="M389 750h-151l80 160h171zM229 533v-124h301v-144h-301v-118h345v-147h-514v680h514v-147h-345z" />
    <glyph glyph-name="Ecircumflex" unicode="&#xca;" horiz-adv-x="610" 
d="M259 750h-141l117 164h153l116 -164h-141l-51 66zM229 533v-124h301v-144h-301v-118h345v-147h-514v680h514v-147h-345z" />
    <glyph glyph-name="Edieresis" unicode="&#xcb;" horiz-adv-x="610" 
d="M261 768c-17.333 -16.667 -38.666 -25 -63.999 -25s-47 8.33301 -65 25c-18.667 17.333 -27.834 38.166 -27.501 62.499s9.5 45.166 27.5 62.499c18.667 16.667 40.334 25 65.001 25s46 -8.33301 64 -25c17.333 -17.333 26.166 -38.166 26.499 -62.499
s-8.5 -45.166 -26.5 -62.499zM490 768c-17.333 -16.667 -38.666 -25 -63.999 -25s-47 8.33301 -65 25c-18.667 17.333 -27.834 38.166 -27.501 62.499s9.5 45.166 27.5 62.499c18.667 16.667 40.334 25 65.001 25s46 -8.33301 64 -25
c17.333 -17.333 26.166 -38.166 26.499 -62.499s-8.5 -45.166 -26.5 -62.499zM229 533v-124h301v-144h-301v-118h345v-147h-514v680h514v-147h-345z" />
    <glyph glyph-name="Igrave" unicode="&#xcc;" horiz-adv-x="289" 
d="M229 680v-680h-169v680h169zM233 750h-151l-100 160h171z" />
    <glyph glyph-name="Iacute" unicode="&#xcd;" horiz-adv-x="289" 
d="M229 680v-680h-169v680h169zM321 910l-100 -160h-151l80 160h171z" />
    <glyph glyph-name="Icircumflex" unicode="&#xce;" horiz-adv-x="289" 
d="M145 816l-53 -66h-141l117 164h153l116 -164h-141zM229 680v-680h-169v680h169z" />
    <glyph glyph-name="Idieresis" unicode="&#xcf;" horiz-adv-x="289" 
d="M-35 893c18.667 16.667 40.334 25 65.001 25s46 -8.33301 64 -25c17.333 -17.333 26.166 -38.166 26.499 -62.499s-8.5 -45.166 -26.5 -62.499c-17.333 -16.667 -38.666 -25 -63.999 -25s-47 8.33301 -65 25c-18.667 17.333 -27.834 38.166 -27.501 62.499
s9.5 45.166 27.5 62.499zM194 893c18.667 16.667 40.334 25 65.001 25s46 -8.33301 64 -25c17.333 -17.333 26.166 -38.166 26.499 -62.499s-8.5 -45.166 -26.5 -62.499c-17.333 -16.667 -38.666 -25 -63.999 -25s-47 8.33301 -65 25
c-18.667 17.333 -27.834 38.166 -27.501 62.499s9.5 45.166 27.5 62.499zM229 680v-680h-169v680h169z" />
    <glyph glyph-name="Eth" unicode="&#xd0;" horiz-adv-x="737" 
d="M60 680h274c106 0 193.667 -31.667 263 -95s104 -144.333 104 -243c0 -100.667 -34.667 -183 -104 -247c-69.333 -63.333 -157 -95 -263 -95h-274v262h-53v146h53v272zM229 152l105 0.000976562c56 0 102.333 18 139 54c37.333 37.333 56 82.666 56 135.999
c0 52.667 -18.667 96.667 -56 132c-36.667 36 -83 54 -139 54h-105v-120h112v-146h-112v-110z" />
    <glyph glyph-name="Ntilde" unicode="&#xd1;" horiz-adv-x="745" 
d="M380 760l-38 22c-14 7.33301 -24.167 8.5 -30.5 3.5s-9.5 -14.167 -9.5 -27.5h-119c0 34.667 6.5 63.667 19.5 87s29.333 39.5 49 48.5s40.167 13.167 61.5 12.5s41 -6 59 -16l38 -22c14 -6.66699 24.167 -7.66699 30.5 -3s9.5 13.667 9.5 27h119
c0 -34.667 -6.5 -63.834 -19.5 -87.501s-29.333 -40 -49 -49s-40.167 -13.167 -61.5 -12.5s-41 6.33398 -59 17.001zM686 680v-680h-131l-326 373v-373h-169v680h129l328 -383v383h169z" />
    <glyph glyph-name="Ograve" unicode="&#xd2;" horiz-adv-x="808" 
d="M492 750h-151l-100 160h171zM404 694c102.667 0 188.334 -34.333 257.001 -103c69.333 -68 104 -151.667 104 -251c0 -98.667 -34.667 -182.667 -104 -252c-68.667 -68 -154.334 -102 -257.001 -102s-188.334 34 -257.001 102c-68.667 68.667 -103 152.667 -103 252
s34.333 183 103 251c68.667 68.667 154.334 103 257.001 103zM269 200c36 -38 81 -57 135 -57s99 19 135 57c36 38.667 54 85.334 54 140.001s-18 101 -54 139c-36 38.667 -81 58 -135 58s-99 -19.333 -135 -58c-36 -38 -54 -84.333 -54 -139s18 -101.334 54 -140.001z" />
    <glyph glyph-name="Oacute" unicode="&#xd3;" horiz-adv-x="808" 
d="M581 910l-100 -160h-151l80 160h171zM404 694c102.667 0 188.334 -34.333 257.001 -103c69.333 -68 104 -151.667 104 -251c0 -98.667 -34.667 -182.667 -104 -252c-68.667 -68 -154.334 -102 -257.001 -102s-188.334 34 -257.001 102
c-68.667 68.667 -103 152.667 -103 252s34.333 183 103 251c68.667 68.667 154.334 103 257.001 103zM269 200c36 -38 81 -57 135 -57s99 19 135 57c36 38.667 54 85.334 54 140.001s-18 101 -54 139c-36 38.667 -81 58 -135 58s-99 -19.333 -135 -58
c-36 -38 -54 -84.333 -54 -139s18 -101.334 54 -140.001z" />
    <glyph glyph-name="Ocircumflex" unicode="&#xd4;" horiz-adv-x="808" 
d="M404 816l-53 -66h-141l117 164h153l116 -164h-141zM404 694c102.667 0 188.334 -34.333 257.001 -103c69.333 -68 104 -151.667 104 -251c0 -98.667 -34.667 -182.667 -104 -252c-68.667 -68 -154.334 -102 -257.001 -102s-188.334 34 -257.001 102
c-68.667 68.667 -103 152.667 -103 252s34.333 183 103 251c68.667 68.667 154.334 103 257.001 103zM269 200c36 -38 81 -57 135 -57s99 19 135 57c36 38.667 54 85.334 54 140.001s-18 101 -54 139c-36 38.667 -81 58 -135 58s-99 -19.333 -135 -58
c-36 -38 -54 -84.333 -54 -139s18 -101.334 54 -140.001z" />
    <glyph glyph-name="Otilde" unicode="&#xd5;" horiz-adv-x="808" 
d="M481 892h119c0 -34.667 -6.5 -63.834 -19.5 -87.501s-29.333 -40 -49 -49s-40.167 -13.167 -61.5 -12.5s-41 6.33398 -59 17.001l-38 22c-26.667 15.333 -40 7.33301 -40 -24h-119c0 34.667 6.5 63.667 19.5 87s29.333 39.5 49 48.5s40.167 13.167 61.5 12.5
s41 -6 59 -16l38 -22c26.667 -15.333 40 -7.33301 40 24zM404 694c102.667 0 188.334 -34.333 257.001 -103c69.333 -68 104 -151.667 104 -251c0 -98.667 -34.667 -182.667 -104 -252c-68.667 -68 -154.334 -102 -257.001 -102s-188.334 34 -257.001 102
c-68.667 68.667 -103 152.667 -103 252s34.333 183 103 251c68.667 68.667 154.334 103 257.001 103zM269 200c36 -38 81 -57 135 -57s99 19 135 57c36 38.667 54 85.334 54 140.001s-18 101 -54 139c-36 38.667 -81 58 -135 58s-99 -19.333 -135 -58
c-36 -38 -54 -84.333 -54 -139s18 -101.334 54 -140.001z" />
    <glyph glyph-name="Odieresis" unicode="&#xd6;" horiz-adv-x="808" 
d="M224 893c18.667 16.667 40.334 25 65.001 25s46 -8.33301 64 -25c17.333 -17.333 26.166 -38.166 26.499 -62.499s-8.5 -45.166 -26.5 -62.499c-17.333 -16.667 -38.666 -25 -63.999 -25s-47 8.33301 -65 25c-18.667 17.333 -27.834 38.166 -27.501 62.499
s9.5 45.166 27.5 62.499zM453 893c18.667 16.667 40.334 25 65.001 25s46 -8.33301 64 -25c17.333 -17.333 26.166 -38.166 26.499 -62.499s-8.5 -45.166 -26.5 -62.499c-17.333 -16.667 -38.666 -25 -63.999 -25s-47 8.33301 -65 25
c-18.667 17.333 -27.834 38.166 -27.501 62.499s9.5 45.166 27.5 62.499zM404 694c102.667 0 188.334 -34.333 257.001 -103c69.333 -68 104 -151.667 104 -251c0 -98.667 -34.667 -182.667 -104 -252c-68.667 -68 -154.334 -102 -257.001 -102s-188.334 34 -257.001 102
c-68.667 68.667 -103 152.667 -103 252s34.333 183 103 251c68.667 68.667 154.334 103 257.001 103zM269 200c36 -38 81 -57 135 -57s99 19 135 57c36 38.667 54 85.334 54 140.001s-18 101 -54 139c-36 38.667 -81 58 -135 58s-99 -19.333 -135 -58
c-36 -38 -54 -84.333 -54 -139s18 -101.334 54 -140.001z" />
    <glyph glyph-name="multiply" unicode="&#xd7;" horiz-adv-x="654" 
d="M557 183l-91 -91l-139 139l-139 -139l-91 91l139 139l-139 139l91 91l139 -139l139 139l91 -91l-139 -139z" />
    <glyph glyph-name="Oslash" unicode="&#xd8;" horiz-adv-x="808" 
d="M712 632l-42 -49.999c63.333 -67.333 95 -148 95 -242c0 -98.667 -34.667 -182.667 -104 -252c-68.667 -68 -154.334 -102 -257.001 -102c-68 0 -131.667 17 -191 51l-48 -57l-78 65l48 57c-60.667 65.333 -91 144.666 -91 237.999c0 99.333 34.333 183 103 251
c68.667 68.667 154.334 103 257.001 103c68 0 130.333 -16.333 187 -49l43 52zM215 340.001c0 -38.667 10 -74.333 30 -107l240 286c-24 12 -51 18 -81 18c-54 0 -99 -19.333 -135 -58c-36 -38 -54 -84.333 -54 -139zM404 143.002c54 0 99.001 18.999 135.001 56.999
c36 38.667 54 85.334 54 140.001c0 40 -10.667 77.333 -32 112l-242 -289c25.333 -13.333 53.666 -20 84.999 -20z" />
    <glyph glyph-name="Ugrave" unicode="&#xd9;" horiz-adv-x="733" 
d="M683 680l-0.00195312 -362.999c0 -104.667 -28.333 -186.334 -85 -245.001c-57.333 -58 -134.666 -87 -231.999 -87c-98.667 0 -176 29 -232 87s-84 139.667 -84 245v363h170v-366c0 -52 13.167 -93.5 39.5 -124.5s61.833 -46.5 106.5 -46.5s80.334 15.5 107.001 46.5
s40 72.5 40 124.5v366h170zM454.998 750.001h-151l-100 160h171z" />
    <glyph glyph-name="Uacute" unicode="&#xda;" horiz-adv-x="733" 
d="M683 680l-0.00195312 -362.999c0 -104.667 -28.333 -186.334 -85 -245.001c-57.333 -58 -134.666 -87 -231.999 -87c-98.667 0 -176 29 -232 87s-84 139.667 -84 245v363h170v-366c0 -52 13.167 -93.5 39.5 -124.5s61.833 -46.5 106.5 -46.5s80.334 15.5 107.001 46.5
s40 72.5 40 124.5v366h170zM543.998 910.001l-100 -160h-151l80 160h171z" />
    <glyph glyph-name="Ucircumflex" unicode="&#xdb;" horiz-adv-x="733" 
d="M683 680l-0.00195312 -362.999c0 -104.667 -28.333 -186.334 -85 -245.001c-57.333 -58 -134.666 -87 -231.999 -87c-98.667 0 -176 29 -232 87s-84 139.667 -84 245v363h170v-366c0 -52 13.167 -93.5 39.5 -124.5s61.833 -46.5 106.5 -46.5s80.334 15.5 107.001 46.5
s40 72.5 40 124.5v366h170zM366.998 816.001l-53 -66h-141l117 164h153l116 -164h-141z" />
    <glyph glyph-name="Udieresis" unicode="&#xdc;" horiz-adv-x="733" 
d="M683 680l-0.00195312 -362.999c0 -104.667 -28.333 -186.334 -85 -245.001c-57.333 -58 -134.666 -87 -231.999 -87c-98.667 0 -176 29 -232 87s-84 139.667 -84 245v363h170v-366c0 -52 13.167 -93.5 39.5 -124.5s61.833 -46.5 106.5 -46.5s80.334 15.5 107.001 46.5
s40 72.5 40 124.5v366h170zM186.998 893.001c18.667 16.667 40.334 25 65.001 25s46 -8.33301 64 -25c17.333 -17.333 26.166 -38.166 26.499 -62.499s-8.5 -45.166 -26.5 -62.499c-17.333 -16.667 -38.666 -25 -63.999 -25s-47 8.33301 -65 25
c-18.667 17.333 -27.834 38.166 -27.501 62.499s9.5 45.166 27.5 62.499zM415.998 893.001c18.667 16.667 40.334 25 65.001 25s46 -8.33301 64 -25c17.333 -17.333 26.166 -38.166 26.499 -62.499s-8.5 -45.166 -26.5 -62.499c-17.333 -16.667 -38.666 -25 -63.999 -25
s-47 8.33301 -65 25c-18.667 17.333 -27.834 38.166 -27.501 62.499s9.5 45.166 27.5 62.499z" />
    <glyph glyph-name="Yacute" unicode="&#xdd;" horiz-adv-x="719" 
d="M437 750h-151l80 160h171zM713 680l-268 -475v-205h-170v205l-269 475h187l166 -296l167 296h187z" />
    <glyph glyph-name="Thorn" unicode="&#xde;" horiz-adv-x="641" 
d="M229 594h105c89.333 0 159.333 -22.333 210 -67c52 -45.333 78 -106 78 -182c0 -79.333 -27 -142.333 -81 -189c-54 -46 -127.333 -69 -220 -69h-92v-87h-169v680h169v-86zM229 235h102c37.333 0 67.166 10 89.499 30s33.5 46.667 33.5 80c0 30.667 -11.167 55 -33.5 73
s-52.166 27 -89.499 27h-102v-210z" />
    <glyph glyph-name="germandbls" unicode="&#xdf;" horiz-adv-x="685" 
d="M623 393l-125 -161.998c51.333 -12.667 91.666 -36.834 120.999 -72.501s44 -79.167 44 -130.5c0 -69.333 -24 -126.333 -72 -171s-111.667 -67 -191 -67c-60 0 -116 8.33301 -168 25v139c54.667 -16 104.667 -24 150 -24c36.667 0 65 8.66699 85 26s30 40.333 30 69
c0 25.333 -8.66699 45.666 -26 60.999s-41 23 -71 23h-105v71l119 161h-197v-341h-162v533c0 70 22 126 66 168s102 63 174 63v-153c-23.333 0 -42.166 -7 -56.499 -21s-21.5 -33 -21.5 -57v-48h406v-92z" />
    <glyph glyph-name="agrave" unicode="&#xe0;" horiz-adv-x="624" 
d="M254 557l-100 160h171l80 -160h-151zM569 485v-485h-162v27c-38.667 -24.667 -83 -37 -133 -37c-66.667 0 -123.334 24.333 -170.001 73c-47.333 49.333 -71 109.333 -71 180s23.667 130.667 71 180c46.667 48.667 103.334 73 170.001 73c50 0 94.333 -12.333 133 -37v26
h162zM306 123c41.333 0 75 15 101 45v150c-26 30.667 -59.667 46 -101 46c-32.667 0 -59.834 -11.667 -81.501 -35s-32.5 -52 -32.5 -86s10.833 -62.5 32.5 -85.5s48.834 -34.5 81.501 -34.5z" />
    <glyph glyph-name="aacute" unicode="&#xe1;" horiz-adv-x="624" 
d="M401 557h-151l80 160h171zM569 485v-485h-162v27c-38.667 -24.667 -83 -37 -133 -37c-66.667 0 -123.334 24.333 -170.001 73c-47.333 49.333 -71 109.333 -71 180s23.667 130.667 71 180c46.667 48.667 103.334 73 170.001 73c50 0 94.333 -12.333 133 -37v26h162z
M306 123c41.333 0 75 15 101 45v150c-26 30.667 -59.667 46 -101 46c-32.667 0 -59.834 -11.667 -81.501 -35s-32.5 -52 -32.5 -86s10.833 -62.5 32.5 -85.5s48.834 -34.5 81.501 -34.5z" />
    <glyph glyph-name="acircumflex" unicode="&#xe2;" horiz-adv-x="624" 
d="M271 550h-141l117 164h153l116 -164h-141l-51 66zM569 485v-485h-162v27c-38.667 -24.667 -83 -37 -133 -37c-66.667 0 -123.334 24.333 -170.001 73c-47.333 49.333 -71 109.333 -71 180s23.667 130.667 71 180c46.667 48.667 103.334 73 170.001 73
c50 0 94.333 -12.333 133 -37v26h162zM306 123c41.333 0 75 15 101 45v150c-26 30.667 -59.667 46 -101 46c-32.667 0 -59.834 -11.667 -81.501 -35s-32.5 -52 -32.5 -86s10.833 -62.5 32.5 -85.5s48.834 -34.5 81.501 -34.5z" />
    <glyph glyph-name="atilde" unicode="&#xe3;" horiz-adv-x="624" 
d="M331 573l-38 22c-26.667 15.333 -40 7.33301 -40 -24h-119c0 34.667 6.5 63.667 19.5 87s29.333 39.5 49 48.5s40.167 13.167 61.5 12.5s41 -6 59 -16l38 -22c26.667 -15.333 40 -7.33301 40 24h119c0 -34.667 -6.5 -63.834 -19.5 -87.501s-29.333 -40 -49 -49
s-40.167 -13.167 -61.5 -12.5s-41 6.33398 -59 17.001zM569 485v-485h-162v27c-38.667 -24.667 -83 -37 -133 -37c-66.667 0 -123.334 24.333 -170.001 73c-47.333 49.333 -71 109.333 -71 180s23.667 130.667 71 180c46.667 48.667 103.334 73 170.001 73
c50 0 94.333 -12.333 133 -37v26h162zM306 123c41.333 0 75 15 101 45v150c-26 30.667 -59.667 46 -101 46c-32.667 0 -59.834 -11.667 -81.501 -35s-32.5 -52 -32.5 -86s10.833 -62.5 32.5 -85.5s48.834 -34.5 81.501 -34.5z" />
    <glyph glyph-name="adieresis" unicode="&#xe4;" horiz-adv-x="624" 
d="M274 575c-17.333 -16.667 -38.666 -25 -63.999 -25s-47 8.33301 -65 25c-18.667 17.333 -27.834 38.166 -27.501 62.499s9.5 45.166 27.5 62.499c18.667 17.333 40.334 26 65.001 26s46 -8.66699 64 -26c17.333 -17.333 26.166 -38.166 26.499 -62.499
s-8.5 -45.166 -26.5 -62.499zM503 575c-17.333 -16.667 -38.666 -25 -63.999 -25s-47 8.33301 -65 25c-18.667 17.333 -27.834 38.166 -27.501 62.499s9.5 45.166 27.5 62.499c18.667 17.333 40.334 26 65.001 26s46 -8.66699 64 -26
c17.333 -17.333 26.166 -38.166 26.499 -62.499s-8.5 -45.166 -26.5 -62.499zM569 485v-485h-162v27c-38.667 -24.667 -83 -37 -133 -37c-66.667 0 -123.334 24.333 -170.001 73c-47.333 49.333 -71 109.333 -71 180s23.667 130.667 71 180
c46.667 48.667 103.334 73 170.001 73c50 0 94.333 -12.333 133 -37v26h162zM306 123c41.333 0 75 15 101 45v150c-26 30.667 -59.667 46 -101 46c-32.667 0 -59.834 -11.667 -81.501 -35s-32.5 -52 -32.5 -86s10.833 -62.5 32.5 -85.5s48.834 -34.5 81.501 -34.5z" />
    <glyph glyph-name="aring" unicode="&#xe5;" horiz-adv-x="624" 
d="M413 580c-23.333 -21.333 -53 -32.001 -89 -32.001c-36.667 0 -66.667 10.667 -90 32c-22.667 20.667 -34 48.667 -34 84c0 34.667 11.333 62.334 34 83.001c23.333 21.333 53.333 32 90 32c36 0 65.667 -10.667 89 -32s35 -49 35 -83c0 -34.667 -11.667 -62.667 -35 -84
zM280 663.999c-2 -18 4.83301 -30.833 20.5 -38.5s31.334 -7.66699 47.001 0s22.5 20.5 20.5 38.5c2 17.333 -4.83301 29.666 -20.5 36.999s-31.334 7.33301 -47.001 0s-22.5 -19.666 -20.5 -36.999zM569 484.999v-485h-162v27c-38.667 -24.667 -83 -37 -133 -37
c-66.667 0 -123.334 24.333 -170.001 73c-47.333 49.333 -71 109.333 -71 180s23.667 130.667 71 180c46.667 48.667 103.334 73 170.001 73c50 0 94.333 -12.333 133 -37v26h162zM306 122.999c41.333 0 75 15 101 45v150c-26 30.667 -59.667 46 -101 46
c-32.667 0 -59.834 -11.667 -81.501 -35s-32.5 -52 -32.5 -86s10.833 -62.5 32.5 -85.5s48.834 -34.5 81.501 -34.5z" />
    <glyph glyph-name="ae" unicode="&#xe6;" horiz-adv-x="893" 
d="M859 253c0 -26 -0.998047 -45.333 -2.99805 -58h-345c15.333 -52 51.666 -78 108.999 -78c34 0 58.667 11.667 74 35h161c-12 -50 -39.5 -89.667 -82.5 -119s-94.5 -44 -154.5 -44c-82.667 0 -148.334 25.333 -197.001 76c-59.333 -49.333 -122.666 -74 -189.999 -74
c-62 0 -111.333 14 -148 42s-55 66 -55 114c0 45.333 17.167 80.5 51.5 105.5s81.833 37.5 142.5 37.5h134c0 55.333 -25.667 83 -77 83c-20.667 0 -37.834 -5 -51.501 -15s-21.834 -23.667 -24.501 -41h-154c2.66699 60 26 105.333 70 136c44.667 31.333 99.667 47 165 47
c67.333 0 121 -19 161 -57c46.667 35.333 102.334 53 167.001 53c70.667 0 129.667 -22.667 177 -68c46.667 -44.667 70 -103 70 -175zM611.002 371c-54 0 -87.667 -27 -101 -81h197c-8.66699 54 -40.667 81 -96 81zM253.002 114c36.667 0 75 12.999 115 38.999
c-5.33301 15.333 -9 29.333 -11 42h-130c-14 0 -25.333 -3 -34 -9s-13 -14 -13 -24c0 -13.333 6.5 -24.666 19.5 -33.999s30.833 -14 53.5 -14z" />
    <glyph glyph-name="ccedilla" unicode="&#xe7;" horiz-adv-x="580" 
d="M298 126c24.667 0 45.666 6.66797 62.999 20.001s28 31 32 53h153c-5.33301 -62.667 -31.333 -113.334 -78 -152.001c-45.333 -38.667 -102 -58 -170 -58c-76 0 -139.333 23.667 -190 71c-50 48 -75 109 -75 183s25 134.333 75 181c50 48 113.333 72 190 72
c66.667 0 123.334 -19.667 170.001 -59c47.333 -39.333 73.333 -89.666 78 -150.999h-153c-4 22 -14.667 39.667 -32 53s-38.333 20 -63 20c-33.333 0 -60.166 -10.667 -80.499 -32s-30.5 -49.333 -30.5 -84s10.167 -62.834 30.5 -84.501s47.166 -32.5 80.499 -32.5z
M220.999 -50.999h152l-60 -177h-135z" />
    <glyph glyph-name="egrave" unicode="&#xe8;" horiz-adv-x="573" 
d="M222 557l-100 160h171l80 -160h-151zM539 253c0 -24.667 -1 -43.001 -3 -55.001l1 -3h-346c15.333 -52 51.666 -78 108.999 -78c34 0 58.667 11.667 74 35h160c-10.667 -50 -38 -89.667 -82 -119c-43.333 -29.333 -94.666 -44 -153.999 -44
c-78.667 0 -142.667 23.667 -192 71c-48.667 46.667 -73 107.667 -73 183c0 74 23.667 134.667 71 182c48.667 47.333 111 71 187 71c70.667 0 129.667 -22.667 177 -68s71 -103.666 71 -174.999zM189 289.999h198c-8.66699 54 -40.667 81 -96 81s-89.333 -27 -102 -81z" />
    <glyph glyph-name="eacute" unicode="&#xe9;" horiz-adv-x="573" 
d="M369 557h-151l80 160h171zM539 253c0 -24.667 -1 -43.001 -3 -55.001l1 -3h-346c15.333 -52 51.666 -78 108.999 -78c34 0 58.667 11.667 74 35h160c-10.667 -50 -38 -89.667 -82 -119c-43.333 -29.333 -94.666 -44 -153.999 -44c-78.667 0 -142.667 23.667 -192 71
c-48.667 46.667 -73 107.667 -73 183c0 74 23.667 134.667 71 182c48.667 47.333 111 71 187 71c70.667 0 129.667 -22.667 177 -68s71 -103.666 71 -174.999zM189 289.999h198c-8.66699 54 -40.667 81 -96 81s-89.333 -27 -102 -81z" />
    <glyph glyph-name="ecircumflex" unicode="&#xea;" horiz-adv-x="573" 
d="M239 550h-141l117 164h153l116 -164h-141l-51 66zM539 253c0 -24.667 -1 -43.001 -3 -55.001l1 -3h-346c15.333 -52 51.666 -78 108.999 -78c34 0 58.667 11.667 74 35h160c-10.667 -50 -38 -89.667 -82 -119c-43.333 -29.333 -94.666 -44 -153.999 -44
c-78.667 0 -142.667 23.667 -192 71c-48.667 46.667 -73 107.667 -73 183c0 74 23.667 134.667 71 182c48.667 47.333 111 71 187 71c70.667 0 129.667 -22.667 177 -68s71 -103.666 71 -174.999zM189 289.999h198c-8.66699 54 -40.667 81 -96 81s-89.333 -27 -102 -81z" />
    <glyph glyph-name="edieresis" unicode="&#xeb;" horiz-adv-x="573" 
d="M242 575c-17.333 -16.667 -38.666 -25 -63.999 -25s-47 8.33301 -65 25c-18.667 17.333 -27.834 38.166 -27.501 62.499s9.5 45.166 27.5 62.499c18.667 17.333 40.334 26 65.001 26s46 -8.66699 64 -26c17.333 -17.333 26.166 -38.166 26.499 -62.499
s-8.5 -45.166 -26.5 -62.499zM471 575c-17.333 -16.667 -38.666 -25 -63.999 -25s-47 8.33301 -65 25c-18.667 17.333 -27.834 38.166 -27.501 62.499s9.5 45.166 27.5 62.499c18.667 17.333 40.334 26 65.001 26s46 -8.66699 64 -26
c17.333 -17.333 26.166 -38.166 26.499 -62.499s-8.5 -45.166 -26.5 -62.499zM539 253c0 -24.667 -1 -43.001 -3 -55.001l1 -3h-346c15.333 -52 51.666 -78 108.999 -78c34 0 58.667 11.667 74 35h160c-10.667 -50 -38 -89.667 -82 -119
c-43.333 -29.333 -94.666 -44 -153.999 -44c-78.667 0 -142.667 23.667 -192 71c-48.667 46.667 -73 107.667 -73 183c0 74 23.667 134.667 71 182c48.667 47.333 111 71 187 71c70.667 0 129.667 -22.667 177 -68s71 -103.666 71 -174.999zM189 289.999h198
c-8.66699 54 -40.667 81 -96 81s-89.333 -27 -102 -81z" />
    <glyph glyph-name="igrave" unicode="&#xec;" horiz-adv-x="279" 
d="M221 485v-485h-162v485h162zM221 557h-151l-100 160h171z" />
    <glyph glyph-name="iacute" unicode="&#xed;" horiz-adv-x="279" 
d="M221 485v-485h-162v485h162zM317 717l-100 -160h-151l80 160h171z" />
    <glyph glyph-name="icircumflex" unicode="&#xee;" horiz-adv-x="279" 
d="M140 616l-53 -66h-141l117 164h153l116 -164h-141zM221 485v-485h-162v485h162z" />
    <glyph glyph-name="idieresis" unicode="&#xef;" horiz-adv-x="279" 
d="M-39 700c18.667 17.333 40.334 26 65.001 26s46 -8.66699 64 -26c17.333 -17.333 26.166 -38.166 26.499 -62.499s-8.5 -45.166 -26.5 -62.499c-17.333 -16.667 -38.666 -25 -63.999 -25s-47 8.33301 -65 25c-18.667 17.333 -27.834 38.166 -27.501 62.499
s9.5 45.166 27.5 62.499zM190 700c18.667 17.333 40.334 26 65.001 26s46 -8.66699 64 -26c17.333 -17.333 26.166 -38.166 26.499 -62.499s-8.5 -45.166 -26.5 -62.499c-17.333 -16.667 -38.666 -25 -63.999 -25s-47 8.33301 -65 25
c-18.667 17.333 -27.834 38.166 -27.501 62.499s9.5 45.166 27.5 62.499zM221 485v-485h-162v485h162z" />
    <glyph glyph-name="eth" unicode="&#xf0;" horiz-adv-x="593" 
d="M468 621l-53.999 -19.998c96.667 -100.667 145 -220 145 -358c0 -74 -24.667 -135.667 -74 -185c-48.667 -48.667 -111.334 -73 -188.001 -73c-77.333 0 -140.666 24.333 -189.999 73c-49.333 49.333 -74 111 -74 185c0 73.333 24.667 133.666 74 180.999
c50 48 113.333 72 190 72c14 0 27.333 -1 40 -3c-16.667 22 -35.667 42 -57 60l-148 -53l-34 88l86 31c-18.667 12 -47.334 27.333 -86.001 46l140 61c34.667 -16.667 65.667 -34.334 93 -53.001l103 37zM297.001 125.002c32 0 58.167 11 78.5 33s30.5 50 30.5 84
c0 32.667 -10.167 59.834 -30.5 81.501s-46.5 32.5 -78.5 32.5s-58.333 -10.833 -79 -32.5s-31 -48.834 -31 -81.501c0 -34 10.333 -62 31 -84s47 -33 79 -33z" />
    <glyph glyph-name="ntilde" unicode="&#xf1;" horiz-adv-x="606" 
d="M311 573l-38 22c-26.667 15.333 -40 7.33301 -40 -24h-119c0 34.667 6.5 63.667 19.5 87s29.333 39.5 49 48.5s40.167 13.167 61.5 12.5s41 -6 59 -16l38 -22c26.667 -15.333 40 -7.33301 40 24h119c0 -34.667 -6.5 -63.834 -19.5 -87.501s-29.333 -40 -49 -49
s-40.167 -13.167 -61.5 -12.5s-41 6.33398 -59 17.001zM351 500c62 0 112 -19.999 150 -59.999s57 -94.333 57 -163v-277h-163v251c0 33.333 -7.66699 58.666 -23 75.999s-37 26 -65 26c-31.333 0 -61.333 -16.333 -90 -49v-304h-162v485h162v-33c40 32 84.667 48 134 48z
" />
    <glyph glyph-name="ograve" unicode="&#xf2;" horiz-adv-x="593" 
d="M378 557h-151l-100 160h171zM559 243c0 -74 -24.999 -135.667 -74.999 -185c-48.667 -48.667 -111.334 -73 -188.001 -73s-139.667 24.333 -189 73c-49.333 49.333 -74 111 -74 185c0 73.333 24.667 133.666 74 180.999c48.667 48 111.667 72 189 72s140.333 -24 189 -72
c49.333 -47.333 74 -107.666 74 -180.999zM297.001 125c32 0 58.167 11 78.5 33s30.5 50 30.5 84c0 32.667 -10.167 59.834 -30.5 81.501s-46.5 32.5 -78.5 32.5s-58.333 -10.833 -79 -32.5s-31 -48.834 -31 -81.501c0 -34 10.333 -62 31 -84s47 -33 79 -33z" />
    <glyph glyph-name="oacute" unicode="&#xf3;" horiz-adv-x="593" 
d="M474 717l-100 -160h-151l80 160h171zM559 243c0 -74 -24.999 -135.667 -74.999 -185c-48.667 -48.667 -111.334 -73 -188.001 -73s-139.667 24.333 -189 73c-49.333 49.333 -74 111 -74 185c0 73.333 24.667 133.666 74 180.999c48.667 48 111.667 72 189 72
s140.333 -24 189 -72c49.333 -47.333 74 -107.666 74 -180.999zM297.001 125c32 0 58.167 11 78.5 33s30.5 50 30.5 84c0 32.667 -10.167 59.834 -30.5 81.501s-46.5 32.5 -78.5 32.5s-58.333 -10.833 -79 -32.5s-31 -48.834 -31 -81.501c0 -34 10.333 -62 31 -84
s47 -33 79 -33z" />
    <glyph glyph-name="ocircumflex" unicode="&#xf4;" horiz-adv-x="593" 
d="M297 616l-53 -66h-141l117 164h153l116 -164h-141zM559 243c0 -74 -24.999 -135.667 -74.999 -185c-48.667 -48.667 -111.334 -73 -188.001 -73s-139.667 24.333 -189 73c-49.333 49.333 -74 111 -74 185c0 73.333 24.667 133.666 74 180.999
c48.667 48 111.667 72 189 72s140.333 -24 189 -72c49.333 -47.333 74 -107.666 74 -180.999zM297.001 125c32 0 58.167 11 78.5 33s30.5 50 30.5 84c0 32.667 -10.167 59.834 -30.5 81.501s-46.5 32.5 -78.5 32.5s-58.333 -10.833 -79 -32.5s-31 -48.834 -31 -81.501
c0 -34 10.333 -62 31 -84s47 -33 79 -33z" />
    <glyph glyph-name="otilde" unicode="&#xf5;" horiz-adv-x="593" 
d="M374 705h119c0 -34.667 -6.5 -63.834 -19.5 -87.501s-29.333 -40 -49 -49s-40.167 -13.167 -61.5 -12.5s-41 6.33398 -59 17.001l-38 22c-14 7.33301 -24.167 8.5 -30.5 3.5s-9.5 -14.167 -9.5 -27.5h-119c0 34.667 6.5 63.667 19.5 87s29.333 39.5 49 48.5
s40.167 13.167 61.5 12.5s41 -6 59 -16l38 -22c14 -7.33301 24.167 -8.5 30.5 -3.5s9.5 14.167 9.5 27.5zM559 243c0 -74 -24.999 -135.667 -74.999 -185c-48.667 -48.667 -111.334 -73 -188.001 -73s-139.667 24.333 -189 73c-49.333 49.333 -74 111 -74 185
c0 73.333 24.667 133.666 74 180.999c48.667 48 111.667 72 189 72s140.333 -24 189 -72c49.333 -47.333 74 -107.666 74 -180.999zM297.001 125c32 0 58.167 11 78.5 33s30.5 50 30.5 84c0 32.667 -10.167 59.834 -30.5 81.501s-46.5 32.5 -78.5 32.5
s-58.333 -10.833 -79 -32.5s-31 -48.834 -31 -81.501c0 -34 10.333 -62 31 -84s47 -33 79 -33z" />
    <glyph glyph-name="odieresis" unicode="&#xf6;" horiz-adv-x="593" 
d="M118 700c18.667 17.333 40.334 26 65.001 26s46 -8.66699 64 -26c17.333 -17.333 26.166 -38.166 26.499 -62.499s-8.5 -45.166 -26.5 -62.499c-17.333 -16.667 -38.666 -25 -63.999 -25s-47 8.33301 -65 25c-18.667 17.333 -27.834 38.166 -27.501 62.499
s9.5 45.166 27.5 62.499zM347 700c18.667 17.333 40.334 26 65.001 26s46 -8.66699 64 -26c17.333 -17.333 26.166 -38.166 26.499 -62.499s-8.5 -45.166 -26.5 -62.499c-17.333 -16.667 -38.666 -25 -63.999 -25s-47 8.33301 -65 25
c-18.667 17.333 -27.834 38.166 -27.501 62.499s9.5 45.166 27.5 62.499zM559 243c0 -74 -24.999 -135.667 -74.999 -185c-48.667 -48.667 -111.334 -73 -188.001 -73s-139.667 24.333 -189 73c-49.333 49.333 -74 111 -74 185c0 73.333 24.667 133.666 74 180.999
c48.667 48 111.667 72 189 72s140.333 -24 189 -72c49.333 -47.333 74 -107.666 74 -180.999zM297.001 125c32 0 58.167 11 78.5 33s30.5 50 30.5 84c0 32.667 -10.167 59.834 -30.5 81.501s-46.5 32.5 -78.5 32.5s-58.333 -10.833 -79 -32.5s-31 -48.834 -31 -81.501
c0 -34 10.333 -62 31 -84s47 -33 79 -33z" />
    <glyph glyph-name="divide" unicode="&#xf7;" horiz-adv-x="682" 
d="M401 470c-16.667 -15.333 -36.667 -23.167 -60 -23.5s-43.333 7.5 -60 23.5c-16 15.333 -24 34.5 -24 57.5s8 42.167 24 57.5c16.667 16 36.667 24 60 24s43.333 -8 60 -24c16.667 -15.333 25 -34.333 25 -57s-8.33301 -42 -25 -58zM97 391.999h488v-128h-488v128z
M401 74.999c-16.667 -15.333 -36.667 -23.167 -60 -23.5s-43.333 7.5 -60 23.5c-16 15.333 -24 34.5 -24 57.5s8 42.167 24 57.5c16.667 16 36.667 24 60 24s43.333 -8 60 -24c16.667 -15.333 25 -34.333 25 -57s-8.33301 -42 -25 -58z" />
    <glyph glyph-name="oslash" unicode="&#xf8;" horiz-adv-x="593" 
d="M520 447l-26 -32c43.333 -47.333 65 -104.666 65 -171.999c0 -74 -25 -135.667 -75 -185c-48.667 -48.667 -111.334 -73 -188.001 -73c-51.333 0 -96.666 11.333 -135.999 34l-30 -36l-62 51l29 35c-42.667 47.333 -64 105.333 -64 174
c0 73.333 24.667 133.666 74 180.999c48.667 48 111.667 72 189 72c50 0 94.667 -10.667 134 -32l28 34zM187 242c0 -17.333 3.66699 -34.999 11 -52.999l136 161c-12 4 -24.333 6 -37 6c-32 0 -58.333 -10.833 -79 -32.5s-31 -48.834 -31 -81.501zM297 125.001
c32 0 58.167 11 78.5 33s30.5 50 30.5 84c0 20 -4 38.333 -12 55l-138 -164c14 -5.33301 27.667 -8 41 -8z" />
    <glyph glyph-name="ugrave" unicode="&#xf9;" horiz-adv-x="606" 
d="M234 557l-100 160h171l80 -160h-151zM551 485l-0.00195312 -485.001h-162v32c-41.333 -31.333 -85.666 -47 -132.999 -47c-62 0 -112 20 -150 60s-57 94.333 -57 163v277h162v-252c0 -33.333 7.83301 -58.666 23.5 -75.999s37.5 -26 65.5 -26
c30.667 0 60.334 16 89.001 48v306h162z" />
    <glyph glyph-name="uacute" unicode="&#xfa;" horiz-adv-x="606" 
d="M381 557h-151l80 160h171zM551 485l-0.00195312 -485.001h-162v32c-41.333 -31.333 -85.666 -47 -132.999 -47c-62 0 -112 20 -150 60s-57 94.333 -57 163v277h162v-252c0 -33.333 7.83301 -58.666 23.5 -75.999s37.5 -26 65.5 -26c30.667 0 60.334 16 89.001 48v306h162
z" />
    <glyph glyph-name="ucircumflex" unicode="&#xfb;" horiz-adv-x="606" 
d="M251 550h-141l117 164h153l116 -164h-141l-51 66zM551 485l-0.00195312 -485.001h-162v32c-41.333 -31.333 -85.666 -47 -132.999 -47c-62 0 -112 20 -150 60s-57 94.333 -57 163v277h162v-252c0 -33.333 7.83301 -58.666 23.5 -75.999s37.5 -26 65.5 -26
c30.667 0 60.334 16 89.001 48v306h162z" />
    <glyph glyph-name="udieresis" unicode="&#xfc;" horiz-adv-x="606" 
d="M551 485l-0.00195312 -485.001h-162v32c-41.333 -31.333 -85.666 -47 -132.999 -47c-62 0 -112 20 -150 60s-57 94.333 -57 163v277h162v-252c0 -33.333 7.83301 -58.666 23.5 -75.999s37.5 -26 65.5 -26c30.667 0 60.334 16 89.001 48v306h162zM253.998 574.999
c-17.333 -16.667 -38.666 -25 -63.999 -25s-47 8.33301 -65 25c-18.667 17.333 -27.834 38.166 -27.501 62.499s9.5 45.166 27.5 62.499c18.667 17.333 40.334 26 65.001 26s46 -8.66699 64 -26c17.333 -17.333 26.166 -38.166 26.499 -62.499s-8.5 -45.166 -26.5 -62.499z
M482.998 574.999c-17.333 -16.667 -38.666 -25 -63.999 -25s-47 8.33301 -65 25c-18.667 17.333 -27.834 38.166 -27.501 62.499s9.5 45.166 27.5 62.499c18.667 17.333 40.334 26 65.001 26s46 -8.66699 64 -26c17.333 -17.333 26.166 -38.166 26.499 -62.499
s-8.5 -45.166 -26.5 -62.499z" />
    <glyph glyph-name="yacute" unicode="&#xfd;" horiz-adv-x="641" 
d="M400 557h-151l80 160h171zM624 485l-299 -709h-170l92 218l-230 491h172l139 -299l126 299h170z" />
    <glyph glyph-name="thorn" unicode="&#xfe;" horiz-adv-x="618" 
d="M350 496c66.667 0 123.334 -24.333 170.001 -73c47.333 -49.333 71 -109.333 71 -180s-23.667 -130.667 -71 -180c-46.667 -48.667 -103.334 -73 -170.001 -73c-49.333 0 -93.333 12 -132 36v-251h-163v905h163v-220c38.667 24 82.667 36 132 36zM318 123
c32.667 0 59.834 11.5 81.501 34.5s32.5 51.5 32.5 85.5s-10.833 62.667 -32.5 86s-48.834 35 -81.501 35c-40 0 -73.333 -15 -100 -45v-152c26 -29.333 59.333 -44 100 -44z" />
    <glyph glyph-name="ydieresis" unicode="&#xff;" horiz-adv-x="641" 
d="M273 575c-17.333 -16.667 -38.666 -25 -63.999 -25s-47 8.33301 -65 25c-18.667 17.333 -27.834 38.166 -27.501 62.499s9.5 45.166 27.5 62.499c18.667 17.333 40.334 26 65.001 26s46 -8.66699 64 -26c17.333 -17.333 26.166 -38.166 26.499 -62.499
s-8.5 -45.166 -26.5 -62.499zM502 575c-17.333 -16.667 -38.666 -25 -63.999 -25s-47 8.33301 -65 25c-18.667 17.333 -27.834 38.166 -27.501 62.499s9.5 45.166 27.5 62.499c18.667 17.333 40.334 26 65.001 26s46 -8.66699 64 -26
c17.333 -17.333 26.166 -38.166 26.499 -62.499s-8.5 -45.166 -26.5 -62.499zM624 485l-299 -709h-170l92 218l-230 491h172l139 -299l126 299h170z" />
    <glyph glyph-name="Amacron" unicode="&#x100;" horiz-adv-x="763" 
d="M524 751h-286v124h286v-124zM525 117h-288l-45 -117h-180l289 684h161l288 -684h-179zM469 261l-88 226l-88 -226h176z" />
    <glyph glyph-name="amacron" unicode="&#x101;" horiz-adv-x="624" 
d="M467 570h-286v124h286v-124zM569 485v-485h-162v27c-38.667 -24.667 -83 -37 -133 -37c-66.667 0 -123.334 24.333 -170.001 73c-47.333 49.333 -71 109.333 -71 180s23.667 130.667 71 180c46.667 48.667 103.334 73 170.001 73c50 0 94.333 -12.333 133 -37v26h162z
M306 123c41.333 0 75 15 101 45v150c-26 30.667 -59.667 46 -101 46c-32.667 0 -59.834 -11.667 -81.501 -35s-32.5 -52 -32.5 -86s10.833 -62.5 32.5 -85.5s48.834 -34.5 81.501 -34.5z" />
    <glyph glyph-name="Abreve" unicode="&#x102;" horiz-adv-x="763" 
d="M206 917h114.999c0 -21.333 5.33301 -37.5 16 -48.5s25.334 -16.5 44.001 -16.5c18 0 32.5 5.66699 43.5 17s16.5 27.333 16.5 48h115c0 -52.667 -15.833 -94 -47.5 -124s-74.167 -45 -127.5 -45s-95.833 15 -127.5 45s-47.5 71.333 -47.5 124zM524.999 117h-288
l-45 -117h-180l289 684h161l288 -684h-179zM468.999 261l-88 226l-88 -226h176z" />
    <glyph glyph-name="abreve" unicode="&#x103;" horiz-adv-x="624" 
d="M149 713h114.999c0 -21.333 5.33301 -37.5 16 -48.5s25.334 -16.5 44.001 -16.5c18 0 32.5 5.66699 43.5 17s16.5 27.333 16.5 48h115c0 -52.667 -15.833 -94 -47.5 -124s-74.167 -45 -127.5 -45s-95.833 15 -127.5 45s-47.5 71.333 -47.5 124zM568.999 485v-485h-162v27
c-38.667 -24.667 -83 -37 -133 -37c-66.667 0 -123.334 24.333 -170.001 73c-47.333 49.333 -71 109.333 -71 180s23.667 130.667 71 180c46.667 48.667 103.334 73 170.001 73c50 0 94.333 -12.333 133 -37v26h162zM305.999 123c41.333 0 75 15 101 45v150
c-26 30.667 -59.667 46 -101 46c-32.667 0 -59.834 -11.667 -81.501 -35s-32.5 -52 -32.5 -86s10.833 -62.5 32.5 -85.5s48.834 -34.5 81.501 -34.5z" />
    <glyph glyph-name="Aogonek" unicode="&#x104;" horiz-adv-x="763" 
d="M746 -53l14.999 -119.999c-20 -9.33301 -47 -14 -81 -14c-48.667 0 -88.167 11.5 -118.5 34.5s-45.5 53.833 -45.5 92.5c0 31.333 15.333 59.333 46 84l-37 93h-288l-45 -117h-180l289 684h161l288 -684h-71c-20 -6.66699 -30 -17.334 -30 -32.001
c0 -18.667 16.667 -28 50 -28c14.667 0 30.334 2.33301 47.001 7zM468.999 261.001l-88 226l-88 -226h176z" />
    <glyph glyph-name="aogonek" unicode="&#x105;" horiz-adv-x="624" 
d="M591 -56l14.999 -119.999c-20 -9.33301 -47 -14 -81 -14c-48.667 0 -88.167 11.5 -118.5 34.5s-45.5 53.833 -45.5 92.5c0 32 15.333 60 46 84v6c-38.667 -24.667 -83 -37 -133 -37c-66.667 0 -123.334 24.333 -170.001 73c-47.333 49.333 -71 109.333 -71 180
s23.667 130.667 71 180c46.667 48.667 103.334 73 170.001 73c50 0 94.333 -12.333 133 -37v26h162v-485h-36c-26 -6.66699 -39 -18.334 -39 -35.001c0 -18.667 16.667 -28 50 -28c14.667 0 30.334 2.33301 47.001 7zM305.999 123.001c41.333 0 75 15 101 45v150
c-26 30.667 -59.667 46 -101 46c-32.667 0 -59.834 -11.667 -81.501 -35s-32.5 -52 -32.5 -86s10.833 -62.5 32.5 -85.5s48.834 -34.5 81.501 -34.5z" />
    <glyph glyph-name="Cacute" unicode="&#x106;" horiz-adv-x="789" 
d="M478 750h-151l80 160h171zM403 144c44 0 80.834 12.001 110.501 36.001s49.167 58 58.5 102h173c-10.667 -88.667 -47 -160.334 -109 -215.001c-62 -54 -139.333 -81 -232 -81c-102.667 0 -188.334 33.333 -257.001 100s-103 151.334 -103 254.001
c0 102 34.333 186.333 103 253c69.333 67.333 155 101 257 101c93.333 0 170.666 -27.333 231.999 -82c62 -54 98.333 -125.333 109 -214h-173c-9.33301 44 -28.833 78 -58.5 102s-66.5 36 -110.5 36c-55.333 0 -100.666 -18.667 -135.999 -56
c-34.667 -36.667 -52 -83.334 -52 -140.001c0 -57.333 17.333 -104.333 52 -141s80 -55 136 -55z" />
    <glyph glyph-name="cacute" unicode="&#x107;" horiz-adv-x="580" 
d="M370 557h-151l80 160h171zM298 126c24.667 0 45.666 6.66797 62.999 20.001s28 31 32 53h153c-5.33301 -62.667 -31.333 -113.334 -78 -152.001c-45.333 -38.667 -102 -58 -170 -58c-76 0 -139.333 23.667 -190 71c-50 48 -75 109 -75 183s25 134.333 75 181
c50 48 113.333 72 190 72c66.667 0 123.334 -19.667 170.001 -59c47.333 -39.333 73.333 -89.666 78 -150.999h-153c-4 22 -14.667 39.667 -32 53s-38.333 20 -63 20c-33.333 0 -60.166 -10.667 -80.499 -32s-30.5 -49.333 -30.5 -84s10.167 -62.834 30.5 -84.501
s47.166 -32.5 80.499 -32.5z" />
    <glyph glyph-name="Cdotaccent" unicode="&#x10a;" horiz-adv-x="789" 
d="M465 768c-17.333 -16.667 -38.666 -25 -63.999 -25s-47 8.33301 -65 25c-18.667 17.333 -27.834 38.166 -27.501 62.499s9.5 45.166 27.5 62.499c18.667 16.667 40.334 25 65.001 25s46 -8.33301 64 -25c17.333 -17.333 26.166 -38.166 26.499 -62.499
s-8.5 -45.166 -26.5 -62.499zM403 144c44 0 80.834 12.001 110.501 36.001s49.167 58 58.5 102h173c-10.667 -88.667 -47 -160.334 -109 -215.001c-62 -54 -139.333 -81 -232 -81c-102.667 0 -188.334 33.333 -257.001 100s-103 151.334 -103 254.001
c0 102 34.333 186.333 103 253c69.333 67.333 155 101 257 101c93.333 0 170.666 -27.333 231.999 -82c62 -54 98.333 -125.333 109 -214h-173c-9.33301 44 -28.833 78 -58.5 102s-66.5 36 -110.5 36c-55.333 0 -100.666 -18.667 -135.999 -56
c-34.667 -36.667 -52 -83.334 -52 -140.001c0 -57.333 17.333 -104.333 52 -141s80 -55 136 -55z" />
    <glyph glyph-name="cdotaccent" unicode="&#x10b;" horiz-adv-x="580" 
d="M357 575c-17.333 -16.667 -38.666 -25 -63.999 -25s-47 8.33301 -65 25c-18.667 17.333 -27.834 38.166 -27.501 62.499s9.5 45.166 27.5 62.499c18.667 17.333 40.334 26 65.001 26s46 -8.66699 64 -26c17.333 -17.333 26.166 -38.166 26.499 -62.499
s-8.5 -45.166 -26.5 -62.499zM298 126c24.667 0 45.666 6.66797 62.999 20.001s28 31 32 53h153c-5.33301 -62.667 -31.333 -113.334 -78 -152.001c-45.333 -38.667 -102 -58 -170 -58c-76 0 -139.333 23.667 -190 71c-50 48 -75 109 -75 183s25 134.333 75 181
c50 48 113.333 72 190 72c66.667 0 123.334 -19.667 170.001 -59c47.333 -39.333 73.333 -89.666 78 -150.999h-153c-4 22 -14.667 39.667 -32 53s-38.333 20 -63 20c-33.333 0 -60.166 -10.667 -80.499 -32s-30.5 -49.333 -30.5 -84s10.167 -62.834 30.5 -84.501
s47.166 -32.5 80.499 -32.5z" />
    <glyph glyph-name="Ccaron" unicode="&#x10c;" horiz-adv-x="789" 
d="M323 740l-116 160h142l53 -66l51 66h142l-116 -160h-156zM403 144c44 0 80.834 12.001 110.501 36.001s49.167 58 58.5 102h173c-10.667 -88.667 -47 -160.334 -109 -215.001c-62 -54 -139.333 -81 -232 -81c-102.667 0 -188.334 33.333 -257.001 100
s-103 151.334 -103 254.001c0 102 34.333 186.333 103 253c69.333 67.333 155 101 257 101c93.333 0 170.666 -27.333 231.999 -82c62 -54 98.333 -125.333 109 -214h-173c-9.33301 44 -28.833 78 -58.5 102s-66.5 36 -110.5 36c-55.333 0 -100.666 -18.667 -135.999 -56
c-34.667 -36.667 -52 -83.334 -52 -140.001c0 -57.333 17.333 -104.333 52 -141s80 -55 136 -55z" />
    <glyph glyph-name="ccaron" unicode="&#x10d;" horiz-adv-x="580" 
d="M214 551l-116 160h142l53 -66l51 66h142l-116 -160h-156zM298 126c24.667 0 45.666 6.66797 62.999 20.001s28 31 32 53h153c-5.33301 -62.667 -31.333 -113.334 -78 -152.001c-45.333 -38.667 -102 -58 -170 -58c-76 0 -139.333 23.667 -190 71c-50 48 -75 109 -75 183
s25 134.333 75 181c50 48 113.333 72 190 72c66.667 0 123.334 -19.667 170.001 -59c47.333 -39.333 73.333 -89.666 78 -150.999h-153c-4 22 -14.667 39.667 -32 53s-38.333 20 -63 20c-33.333 0 -60.166 -10.667 -80.499 -32s-30.5 -49.333 -30.5 -84
s10.167 -62.834 30.5 -84.501s47.166 -32.5 80.499 -32.5z" />
    <glyph glyph-name="Dcaron" unicode="&#x10e;" horiz-adv-x="737" 
d="M260 740l-116 160h142l53 -66l51 66h142l-116 -160h-156zM60 680h274c106 0 193.667 -31.667 263 -95s104 -144.333 104 -243c0 -100.667 -34.667 -183 -104 -247c-69.333 -63.333 -157 -95 -263 -95h-274v680zM229 152l105 0.000976562c56 0 102.333 18 139 54
c37.333 37.333 56 82.666 56 135.999c0 52.667 -18.667 96.667 -56 132c-36.667 36 -83 54 -139 54h-105v-376z" />
    <glyph glyph-name="dcaron" unicode="&#x10f;" horiz-adv-x="624" 
d="M407 710h162v-710h-162v25c-38.667 -24.667 -83 -37 -133 -37c-66.667 0 -123.334 24.333 -170.001 73c-47.333 49.333 -71 109.666 -71 180.999c0 70.667 23.667 130.334 71 179.001c46.667 48.667 103.334 73 170.001 73c50 0 94.333 -12.333 133 -37v253zM770 710
l-39 -204h-115l6 204h148zM306 121c41.333 0 74.999 14.999 100.999 44.999v150c-26 30.667 -59.667 46 -101 46c-32.667 0 -60 -11.667 -82 -35c-21.333 -23.333 -32 -51.666 -32 -84.999c0 -34 10.833 -62.667 32.5 -86s48.834 -35 81.501 -35z" />
    <glyph glyph-name="Dcroat" unicode="&#x110;" horiz-adv-x="737" 
d="M60 680h274c106 0 193.667 -31.667 263 -95s104 -144.333 104 -243c0 -100.667 -34.667 -183 -104 -247c-69.333 -63.333 -157 -95 -263 -95h-274v262h-53v146h53v272zM229 152l105 0.000976562c56 0 102.333 18 139 54c37.333 37.333 56 82.666 56 135.999
c0 52.667 -18.667 96.667 -56 132c-36.667 36 -83 54 -139 54h-105v-120h112v-146h-112v-110z" />
    <glyph glyph-name="dslash" unicode="&#x111;" horiz-adv-x="624" 
d="M599 545h-30v-545h-162v25c-38.667 -24.667 -83 -37 -133 -37c-66.667 0 -123.334 24.333 -170.001 73c-47.333 49.333 -71 109.666 -71 180.999c0 70.667 23.667 130.334 71 179.001c46.667 48.667 103.334 73 170.001 73c50 0 94.333 -12.333 133 -37v88h-148v114h148
v51h162v-51h30v-114zM306 121c41.333 0 74.999 14.999 100.999 44.999v150c-26 30.667 -59.667 46 -101 46c-32.667 0 -60 -11.667 -82 -35c-21.333 -23.333 -32 -51.666 -32 -84.999c0 -34 10.833 -62.667 32.5 -86s48.834 -35 81.501 -35z" />
    <glyph glyph-name="Emacron" unicode="&#x112;" horiz-adv-x="610" 
d="M455 751h-286v124h286v-124zM229 533v-124h301v-144h-301v-118h345v-147h-514v680h514v-147h-345z" />
    <glyph glyph-name="emacron" unicode="&#x113;" horiz-adv-x="573" 
d="M435 570h-286v124h286v-124zM539 253c0 -24.667 -1 -43.001 -3 -55.001l1 -3h-346c15.333 -52 51.666 -78 108.999 -78c34 0 58.667 11.667 74 35h160c-10.667 -50 -38 -89.667 -82 -119c-43.333 -29.333 -94.666 -44 -153.999 -44c-78.667 0 -142.667 23.667 -192 71
c-48.667 46.667 -73 107.667 -73 183c0 74 23.667 134.667 71 182c48.667 47.333 111 71 187 71c70.667 0 129.667 -22.667 177 -68s71 -103.666 71 -174.999zM189 289.999h198c-8.66699 54 -40.667 81 -96 81s-89.333 -27 -102 -81z" />
    <glyph glyph-name="Edotaccent" unicode="&#x116;" horiz-adv-x="610" 
d="M376 768c-17.333 -16.667 -38.666 -25 -63.999 -25s-47 8.33301 -65 25c-18.667 17.333 -27.834 38.166 -27.501 62.499s9.5 45.166 27.5 62.499c18.667 16.667 40.334 25 65.001 25s46 -8.33301 64 -25c17.333 -17.333 26.166 -38.166 26.499 -62.499
s-8.5 -45.166 -26.5 -62.499zM229 533v-124h301v-144h-301v-118h345v-147h-514v680h514v-147h-345z" />
    <glyph glyph-name="edotaccent" unicode="&#x117;" horiz-adv-x="573" 
d="M356 575c-17.333 -16.667 -38.666 -25 -63.999 -25s-47 8.33301 -65 25c-18.667 17.333 -27.834 38.166 -27.501 62.499s9.5 45.166 27.5 62.499c18.667 17.333 40.334 26 65.001 26s46 -8.66699 64 -26c17.333 -17.333 26.166 -38.166 26.499 -62.499
s-8.5 -45.166 -26.5 -62.499zM539 253c0 -24.667 -1 -43.001 -3 -55.001l1 -3h-346c15.333 -52 51.666 -78 108.999 -78c34 0 58.667 11.667 74 35h160c-10.667 -50 -38 -89.667 -82 -119c-43.333 -29.333 -94.666 -44 -153.999 -44c-78.667 0 -142.667 23.667 -192 71
c-48.667 46.667 -73 107.667 -73 183c0 74 23.667 134.667 71 182c48.667 47.333 111 71 187 71c70.667 0 129.667 -22.667 177 -68s71 -103.666 71 -174.999zM189 289.999h198c-8.66699 54 -40.667 81 -96 81s-89.333 -27 -102 -81z" />
    <glyph glyph-name="Eogonek" unicode="&#x118;" horiz-adv-x="610" 
d="M596 -56l14.999 -119.999c-20 -9.33301 -47 -14 -81 -14c-48.667 0 -88.167 11.5 -118.5 34.5s-45.5 53.833 -45.5 92.5c0 22 8 43 24 63h-330v680h514v-147h-345v-124h301v-144h-301v-118h345v-147h-36c-26 -6.66699 -39 -18.334 -39 -35.001
c0 -18.667 16.667 -28 50 -28c14.667 0 30.334 2.33301 47.001 7z" />
    <glyph glyph-name="eogonek" unicode="&#x119;" horiz-adv-x="573" 
d="M539 253c0 -24.667 -0.999023 -43.002 -2.99902 -55.002l1 -3h-346c15.333 -52 51.666 -78 108.999 -78c34 0 58.667 11.667 74 35h160c-12 -48.667 -39.333 -88.334 -82 -119.001c-28.667 -21.333 -43 -42.666 -43 -63.999c0 -22.667 16.333 -34 49 -34
c15.333 0 31.333 2.33301 48 7l15 -120c-20 -9.33301 -47.333 -14 -82 -14c-46 0 -83.667 11.333 -113 34s-44 52.334 -44 89.001c0 20 5.33301 39.333 16 58c-78.667 0 -142.667 23.667 -192 71c-48.667 46.667 -73 107.667 -73 183c0 74 23.667 134.667 71 182
c48.667 47.333 111 71 187 71c70.667 0 129.667 -22.667 177 -68s71 -103.666 71 -174.999zM189.001 289.998h198c-8.66699 54 -40.667 81 -96 81s-89.333 -27 -102 -81z" />
    <glyph glyph-name="Ecaron" unicode="&#x11a;" horiz-adv-x="610" 
d="M233 740l-116 160h142l53 -66l51 66h142l-116 -160h-156zM229 533v-124h301v-144h-301v-118h345v-147h-514v680h514v-147h-345z" />
    <glyph glyph-name="ecaron" unicode="&#x11b;" horiz-adv-x="573" 
d="M213 551l-116 160h142l53 -66l51 66h142l-116 -160h-156zM539 253c0 -24.667 -1 -43.001 -3 -55.001l1 -3h-346c15.333 -52 51.666 -78 108.999 -78c34 0 58.667 11.667 74 35h160c-10.667 -50 -38 -89.667 -82 -119c-43.333 -29.333 -94.666 -44 -153.999 -44
c-78.667 0 -142.667 23.667 -192 71c-48.667 46.667 -73 107.667 -73 183c0 74 23.667 134.667 71 182c48.667 47.333 111 71 187 71c70.667 0 129.667 -22.667 177 -68s71 -103.666 71 -174.999zM189 289.999h198c-8.66699 54 -40.667 81 -96 81s-89.333 -27 -102 -81z" />
    <glyph glyph-name="Gbreve" unicode="&#x11e;" horiz-adv-x="809" 
d="M228 917h114.999c0 -21.333 5.33301 -37.5 16 -48.5s25.334 -16.5 44.001 -16.5c18 0 32.5 5.66699 43.5 17s16.5 27.333 16.5 48h115c0 -52.667 -15.833 -94 -47.5 -124s-74.167 -45 -127.5 -45s-95.833 15 -127.5 45s-47.5 71.333 -47.5 124zM753.999 382
l0.000976562 -382h-126l-7 82c-52 -64 -123.667 -96 -215 -96c-105.333 0 -192 33 -260 99c-68 67.333 -102 150 -102 248c0 106 34.333 192.333 103 259c68.667 68 155.667 102 261 102c85.333 0 159.666 -23 222.999 -69c63.333 -45.333 102 -107.666 116 -186.999h-177
c-25.333 67.333 -78.333 101 -159 101c-57.333 0 -104.666 -18.667 -141.999 -56c-36 -36.667 -54 -85.334 -54 -146.001c0 -55.333 18 -101.333 54 -138c37.333 -37.333 85.333 -56 144 -56c79.333 0 136.666 34.667 171.999 104l-195 2v133h364z" />
    <glyph glyph-name="gbreve" unicode="&#x11f;" horiz-adv-x="628" 
d="M152 713h114.999c0 -21.333 5.33301 -37.5 16 -48.5s25.334 -16.5 44.001 -16.5c18 0 32.5 5.66699 43.5 17s16.5 27.333 16.5 48h115c0 -52.667 -15.833 -94 -47.5 -124s-74.167 -45 -127.5 -45s-95.833 15 -127.5 45s-47.5 71.333 -47.5 124zM571.999 485
l0.000976562 -477c0 -74.667 -24 -133.334 -72 -176.001c-47.333 -42.667 -110 -64 -188 -64c-74 0 -135.333 19.333 -184 58c-48 39.333 -74 90 -78 152h160c8.66699 -48.667 42.667 -73 102 -73c29.333 0 53 8.83301 71 26.5s27 42.167 27 73.5v46
c-38.667 -22.667 -82.667 -34 -132 -34c-66.667 0 -123.334 23 -170.001 69c-47.333 46 -71 101.667 -71 167c0 72.667 23.333 132.334 70 179.001s103.667 70 171 70c49.333 0 93.333 -12 132 -36v19h162zM310 146c40 0 73.332 15.001 99.999 45.001v134
c-26.667 30 -60 45 -100 45c-33.333 0 -60.666 -10.833 -81.999 -32.5s-32 -49.834 -32 -84.501c0 -27.333 11 -52 33 -74s49 -33 81 -33z" />
    <glyph glyph-name="Gdotaccent" unicode="&#x120;" horiz-adv-x="809" 
d="M467 768c-17.333 -16.667 -38.666 -25 -63.999 -25s-47 8.33301 -65 25c-18.667 17.333 -27.834 38.166 -27.501 62.499s9.5 45.166 27.5 62.499c18.667 16.667 40.334 25 65.001 25s46 -8.33301 64 -25c17.333 -17.333 26.166 -38.166 26.499 -62.499
s-8.5 -45.166 -26.5 -62.499zM754 382l0.000976562 -382h-126l-7 82c-52 -64 -123.667 -96 -215 -96c-105.333 0 -192 33 -260 99c-68 67.333 -102 150 -102 248c0 106 34.333 192.333 103 259c68.667 68 155.667 102 261 102c85.333 0 159.666 -23 222.999 -69
c63.333 -45.333 102 -107.666 116 -186.999h-177c-25.333 67.333 -78.333 101 -159 101c-57.333 0 -104.666 -18.667 -141.999 -56c-36 -36.667 -54 -85.334 -54 -146.001c0 -55.333 18 -101.333 54 -138c37.333 -37.333 85.333 -56 144 -56
c79.333 0 136.666 34.667 171.999 104l-195 2v133h364z" />
    <glyph glyph-name="gdotaccent" unicode="&#x121;" horiz-adv-x="628" 
d="M391 575c-17.333 -16.667 -38.666 -25 -63.999 -25s-47 8.33301 -65 25c-18.667 17.333 -27.834 38.166 -27.501 62.499s9.5 45.166 27.5 62.499c18.667 17.333 40.334 26 65.001 26s46 -8.66699 64 -26c17.333 -17.333 26.166 -38.166 26.499 -62.499
s-8.5 -45.166 -26.5 -62.499zM572 485l0.000976562 -477c0 -74.667 -24 -133.334 -72 -176.001c-47.333 -42.667 -110 -64 -188 -64c-74 0 -135.333 19.333 -184 58c-48 39.333 -74 90 -78 152h160c8.66699 -48.667 42.667 -73 102 -73c29.333 0 53 8.83301 71 26.5
s27 42.167 27 73.5v46c-38.667 -22.667 -82.667 -34 -132 -34c-66.667 0 -123.334 23 -170.001 69c-47.333 46 -71 101.667 -71 167c0 72.667 23.333 132.334 70 179.001s103.667 70 171 70c49.333 0 93.333 -12 132 -36v19h162zM310.001 146
c40 0 73.332 15.001 99.999 45.001v134c-26.667 30 -60 45 -100 45c-33.333 0 -60.666 -10.833 -81.999 -32.5s-32 -49.834 -32 -84.501c0 -27.333 11 -52 33 -74s49 -33 81 -33z" />
    <glyph glyph-name="Gcommaaccent" unicode="&#x122;" horiz-adv-x="809" 
d="M754 382l0.000976562 -382h-126l-7 82c-52 -64 -123.667 -96 -215 -96c-105.333 0 -192 33 -260 99c-68 67.333 -102 150 -102 248c0 106 34.333 192.333 103 259c68.667 68 155.667 102 261 102c85.333 0 159.666 -23 222.999 -69
c63.333 -45.333 102 -107.666 116 -186.999h-177c-25.333 67.333 -78.333 101 -159 101c-57.333 0 -104.666 -18.667 -141.999 -56c-36 -36.667 -54 -85.334 -54 -146.001c0 -55.333 18 -101.333 54 -138c37.333 -37.333 85.333 -56 144 -56
c79.333 0 136.666 34.667 171.999 104l-195 2v133h364zM487.001 -124c0 -16 -4.33203 -31.667 -12.999 -47c-8 -14 -30 -48.333 -66 -103h-83l41 83c-32 12.667 -48 35 -48 67c0 22 8.33301 40.833 25 56.5s36.667 23.5 60 23.5s43.166 -7.83301 59.499 -23.5
s24.5 -34.5 24.5 -56.5z" />
    <glyph glyph-name="gcommaaccent" unicode="&#x123;" horiz-adv-x="628" 
d="M243 609c0 16 4.33203 31.666 12.999 46.999c8 14 30 48.333 66 103h83l-41 -83c32 -13.333 48 -35.666 48 -66.999c0 -22 -8.33301 -40.833 -25 -56.5s-36.667 -23.5 -60 -23.5s-43.166 7.83301 -59.499 23.5s-24.5 34.5 -24.5 56.5zM571.999 484.999l0.000976562 -477
c0 -74.667 -24 -133.334 -72 -176.001c-47.333 -42.667 -110 -64 -188 -64c-74 0 -135.333 19.333 -184 58c-48 39.333 -74 90 -78 152h160c8.66699 -48.667 42.667 -73 102 -73c29.333 0 53 8.83301 71 26.5s27 42.167 27 73.5v46c-38.667 -22.667 -82.667 -34 -132 -34
c-66.667 0 -123.334 23 -170.001 69c-47.333 46 -71 101.667 -71 167c0 72.667 23.333 132.334 70 179.001s103.667 70 171 70c49.333 0 93.333 -12 132 -36v19h162zM310 145.999c40 0 73.332 15.001 99.999 45.001v134c-26.667 30 -60 45 -100 45
c-33.333 0 -60.666 -10.833 -81.999 -32.5s-32 -49.834 -32 -84.501c0 -27.333 11 -52 33 -74s49 -33 81 -33z" />
    <glyph glyph-name="Hbar" unicode="&#x126;" horiz-adv-x="734" 
d="M711 485h-36v-485h-169v255h-277v-255h-169v485h-45v115h45v80h169v-80h277v80h169v-80h36v-115zM506 485h-277v-78h277v78z" />
    <glyph glyph-name="hbar" unicode="&#x127;" horiz-adv-x="606" 
d="M351 500c62 0 112 -19.999 150 -59.999s57 -94.333 57 -163v-277h-163v251c0 33.333 -7.66699 58.666 -23 75.999s-37 26 -65 26c-31.333 0 -61.333 -16.333 -90 -49v-304h-162v575h-33v95h33v40h162v-40h110v-95h-110v-123c40 32 84.667 48 134 48z" />
    <glyph glyph-name="Imacron" unicode="&#x12a;" horiz-adv-x="289" 
d="M287 875v-124h-286v124h286zM229 680v-680h-169v680h169z" />
    <glyph glyph-name="imacron" unicode="&#x12b;" horiz-adv-x="279" 
d="M283 694v-124h-286v124h286zM221 485v-485h-162v485h162z" />
    <glyph glyph-name="Iogonek" unicode="&#x12e;" horiz-adv-x="289" 
d="M249 -56l14.999 -119.999c-20 -9.33301 -47 -14 -81 -14c-48.667 0 -88.167 11.5 -118.5 34.5s-45.5 53.833 -45.5 92.5c0 30 13.667 56.667 41 80v663h169v-680h-38c-26 -6.66699 -39 -18.334 -39 -35.001c0 -18.667 16.667 -28 50 -28
c14.667 0 30.334 2.33301 47.001 7z" />
    <glyph glyph-name="iogonek" unicode="&#x12f;" horiz-adv-x="279" 
d="M139 561c-26.667 0 -49.167 8.66699 -67.5 26s-27.5 39 -27.5 65s9.16699 47.833 27.5 65.5s40.833 26.5 67.5 26.5c26 0 48.333 -8.83301 67 -26.5s28 -39.5 28 -65.5s-9.33301 -47.667 -28 -65s-41 -26 -67 -26zM242 -56l14.999 -119.998c-20 -9.33301 -47 -14 -81 -14
c-48.667 0 -88.167 11.5 -118.5 34.5s-45.5 53.833 -45.5 92.5c0 31.333 15.667 59.666 47 84.999v463h162v-485h-37c-26 -6.66699 -39 -18.334 -39 -35.001c0 -18.667 16.667 -28 50 -28c14.667 0 30.334 2.33301 47.001 7z" />
    <glyph glyph-name="Idot" unicode="&#x130;" horiz-adv-x="289" 
d="M144 745c-26.667 0 -49.167 8.66699 -67.5 26s-27.5 39 -27.5 65s9.16699 47.667 27.5 65s40.833 26 67.5 26c26 0 48.167 -8.66699 66.5 -26s27.5 -39 27.5 -65s-9.16699 -47.667 -27.5 -65s-40.5 -26 -66.5 -26zM229 680v-680h-169v680h169z" />
    <glyph glyph-name="dotlessi" unicode="&#x131;" horiz-adv-x="279" 
d="M221 485v-485h-162v485h162z" />
    <glyph glyph-name="IJ" unicode="&#x132;" horiz-adv-x="902" 
d="M852 680v-408c0 -91.333 -24.667 -162 -74 -212s-118.333 -75 -207 -75c-81.333 0 -146.333 22.333 -195 67c-50 45.333 -76.333 108.333 -79 189h168c2 -32 13 -57 33 -75s46 -27 78 -27s57.333 11.833 76 35.5s28 56.167 28 97.5v408h172zM229 680v-680h-169v680h169z
" />
    <glyph glyph-name="ij" unicode="&#x133;" horiz-adv-x="555" 
d="M139 561c-26.667 0 -49.167 8.66699 -67.5 26s-27.5 39 -27.5 65s9.16699 47.833 27.5 65.5s40.833 26.5 67.5 26.5c26 0 48.333 -8.83301 67 -26.5s28 -39.5 28 -65.5s-9.33301 -47.667 -28 -65s-41 -26 -67 -26zM415 561c-26 0 -48.333 8.66699 -67 26s-28 39 -28 65
s9.33301 47.833 28 65.5s41 26.5 67 26.5c26.667 0 49.167 -8.83301 67.5 -26.5s27.5 -39.5 27.5 -65.5s-9.16699 -47.667 -27.5 -65s-40.833 -26 -67.5 -26zM221 485v-485h-162v485h162zM497 485l-0.000976562 -446.001c0 -79.333 -17 -138.666 -51 -177.999
s-96.667 -60 -188 -62l-14 135c34.667 3.33301 58.334 11 71.001 23s19 32.333 19 61v467h163z" />
    <glyph glyph-name="Kcommaaccent" unicode="&#x136;" horiz-adv-x="728" 
d="M722 0h-206l-190 250l-97 -112v-138h-169v680h169v-309l271 309h200l-259 -298zM449 -124c0 -16 -4.33203 -31.667 -12.999 -47c-8 -14 -30 -48.333 -66 -103h-83l41 83c-32 12.667 -48 35 -48 67c0 22 8.33301 40.833 25 56.5s36.667 23.5 60 23.5
s43.166 -7.83301 59.499 -23.5s24.5 -34.5 24.5 -56.5z" />
    <glyph glyph-name="kcommaaccent" unicode="&#x137;" horiz-adv-x="598" 
d="M595 0h-194l-116 168l-68 -73v-95h-162v710h162v-407l169 182h193l-184 -198zM384 -124c0 -16 -4.33203 -31.667 -12.999 -47c-8 -14 -30 -48.333 -66 -103h-83l41 83c-32 12.667 -48 35 -48 67c0 22 8.33301 40.833 25 56.5s36.667 23.5 60 23.5
s43.166 -7.83301 59.499 -23.5s24.5 -34.5 24.5 -56.5z" />
    <glyph glyph-name="Lacute" unicode="&#x139;" horiz-adv-x="585" 
d="M221 750h-151l80 160h171zM565 149v-149h-505v680h169v-531h336z" />
    <glyph glyph-name="lacute" unicode="&#x13a;" horiz-adv-x="273" 
d="M314 942l-100 -160h-151l80 160h171zM217 710v-710h-162v710h162z" />
    <glyph glyph-name="Lcommaaccent" unicode="&#x13b;" horiz-adv-x="585" 
d="M565 149v-149h-505v680h169v-531h336zM404 -124c0 -16 -4.33203 -31.667 -12.999 -47c-8 -14 -30 -48.333 -66 -103h-83l41 83c-32 12.667 -48 35 -48 67c0 22 8.33301 40.833 25 56.5s36.667 23.5 60 23.5s43.166 -7.83301 59.499 -23.5s24.5 -34.5 24.5 -56.5z" />
    <glyph glyph-name="lcommaaccent" unicode="&#x13c;" horiz-adv-x="273" 
d="M217 710v-710h-162v710h162zM56 -274l41.001 83c-32 12.667 -48 35 -48 67c0 22 8.33301 40.833 25 56.5s36.667 23.5 60 23.5s43.166 -7.83301 59.499 -23.5s24.5 -34.5 24.5 -56.5c0 -16 -4.33301 -31.667 -13 -47c-8 -14 -30 -48.333 -66 -103h-83z" />
    <glyph glyph-name="Lcaron" unicode="&#x13d;" horiz-adv-x="585" 
d="M565 149v-149h-505v680h169v-531h336zM446 476h-115l6 204h148z" />
    <glyph glyph-name="lcaron" unicode="&#x13e;" horiz-adv-x="273" 
d="M217 710v-710h-162v710h162zM403 710l-39 -204h-115l6 204h148z" />
    <glyph glyph-name="Ldot" unicode="&#x13f;" horiz-adv-x="585" 
d="M476 297c-17.333 -16.667 -38.666 -25 -63.999 -25s-47 8.33301 -65 25c-18.667 17.333 -27.834 38.166 -27.501 62.499s9.5 45.166 27.5 62.499c18.667 17.333 40.334 26 65.001 26s46 -8.66699 64 -26c17.333 -17.333 26.166 -38.166 26.499 -62.499
s-8.5 -45.166 -26.5 -62.499zM565 149v-149h-505v680h169v-531h336z" />
    <glyph glyph-name="ldot" unicode="&#x140;" horiz-adv-x="464" 
d="M217 710v-710h-162v710h162zM397 281c-17.333 -16.667 -38.666 -25 -63.999 -25s-47 8.33301 -65 25c-18.667 17.333 -27.834 38.166 -27.501 62.499s9.5 45.166 27.5 62.499c18.667 17.333 40.334 26 65.001 26s46 -8.66699 64 -26
c17.333 -17.333 26.166 -38.166 26.499 -62.499s-8.5 -45.166 -26.5 -62.499z" />
    <glyph glyph-name="Lslash" unicode="&#x141;" horiz-adv-x="585" 
d="M565 149v-149h-505v235l-53 -19v133l53 19v312h169v-251l152 54v-133l-152 -54v-147h336z" />
    <glyph glyph-name="lslash" unicode="&#x142;" horiz-adv-x="273" 
d="M272 338l-55 -20v-318h-162v258l-53 -20v147l53 19v306h162v-246l55 20v-146z" />
    <glyph glyph-name="Nacute" unicode="&#x143;" horiz-adv-x="745" 
d="M450 750h-151l80 160h171zM686 680v-680h-131l-326 373v-373h-169v680h129l328 -383v383h169z" />
    <glyph glyph-name="nacute" unicode="&#x144;" horiz-adv-x="606" 
d="M381 557h-151l80 160h171zM351 500c62 0 112 -19.999 150 -59.999s57 -94.333 57 -163v-277h-163v251c0 33.333 -7.66699 58.666 -23 75.999s-37 26 -65 26c-31.333 0 -61.333 -16.333 -90 -49v-304h-162v485h162v-33c40 32 84.667 48 134 48z" />
    <glyph glyph-name="Ncommaaccent" unicode="&#x145;" horiz-adv-x="745" 
d="M686 680v-680h-131l-326 373v-373h-169v680h129l328 -383v383h169zM457 -124c0 -16 -4.33203 -31.667 -12.999 -47c-8 -14 -30 -48.333 -66 -103h-83l41 83c-32 12.667 -48 35 -48 67c0 22 8.33301 40.833 25 56.5s36.667 23.5 60 23.5s43.166 -7.83301 59.499 -23.5
s24.5 -34.5 24.5 -56.5z" />
    <glyph glyph-name="ncommaaccent" unicode="&#x146;" horiz-adv-x="606" 
d="M351 500c62 0 112 -19.999 150 -59.999s57 -94.333 57 -163v-277h-163v251c0 33.333 -7.66699 58.666 -23 75.999s-37 26 -65 26c-31.333 0 -61.333 -16.333 -90 -49v-304h-162v485h162v-33c40 32 84.667 48 134 48zM388 -123.999c0 -16 -4.33203 -31.667 -12.999 -47
c-8 -14 -30 -48.333 -66 -103h-83l41 83c-32 12.667 -48 35 -48 67c0 22 8.33301 40.833 25 56.5s36.667 23.5 60 23.5s43.166 -7.83301 59.499 -23.5s24.5 -34.5 24.5 -56.5z" />
    <glyph glyph-name="Ncaron" unicode="&#x147;" horiz-adv-x="745" 
d="M294 740l-116 160h142l53 -66l51 66h142l-116 -160h-156zM686 680v-680h-131l-326 373v-373h-169v680h129l328 -383v383h169z" />
    <glyph glyph-name="ncaron" unicode="&#x148;" horiz-adv-x="606" 
d="M225 551l-116 160h142l53 -66l51 66h142l-116 -160h-156zM351 500c62 0 112 -19.999 150 -59.999s57 -94.333 57 -163v-277h-163v251c0 33.333 -7.66699 58.666 -23 75.999s-37 26 -65 26c-31.333 0 -61.333 -16.333 -90 -49v-304h-162v485h162v-33
c40 32 84.667 48 134 48z" />
    <glyph glyph-name="Omacron" unicode="&#x14c;" horiz-adv-x="808" 
d="M547 875v-124h-286v124h286zM404 694c102.667 0 188.334 -34.333 257.001 -103c69.333 -68 104 -151.667 104 -251c0 -98.667 -34.667 -182.667 -104 -252c-68.667 -68 -154.334 -102 -257.001 -102s-188.334 34 -257.001 102c-68.667 68.667 -103 152.667 -103 252
s34.333 183 103 251c68.667 68.667 154.334 103 257.001 103zM269 200c36 -38 81 -57 135 -57s99 19 135 57c36 38.667 54 85.334 54 140.001s-18 101 -54 139c-36 38.667 -81 58 -135 58s-99 -19.333 -135 -58c-36 -38 -54 -84.333 -54 -139s18 -101.334 54 -140.001z" />
    <glyph glyph-name="omacron" unicode="&#x14d;" horiz-adv-x="593" 
d="M440 694v-124h-286v124h286zM559 243c0 -74 -24.999 -135.667 -74.999 -185c-48.667 -48.667 -111.334 -73 -188.001 -73s-139.667 24.333 -189 73c-49.333 49.333 -74 111 -74 185c0 73.333 24.667 133.666 74 180.999c48.667 48 111.667 72 189 72s140.333 -24 189 -72
c49.333 -47.333 74 -107.666 74 -180.999zM297.001 125c32 0 58.167 11 78.5 33s30.5 50 30.5 84c0 32.667 -10.167 59.834 -30.5 81.501s-46.5 32.5 -78.5 32.5s-58.333 -10.833 -79 -32.5s-31 -48.834 -31 -81.501c0 -34 10.333 -62 31 -84s47 -33 79 -33z" />
    <glyph glyph-name="Ohungarumlaut" unicode="&#x150;" horiz-adv-x="808" 
d="M455 911l-73 -160h-124l53 160h144zM619 911l-73 -160h-124l53 160h144zM404 694c102.667 0 188.334 -34.333 257.001 -103c69.333 -68 104 -151.667 104 -251c0 -98.667 -34.667 -182.667 -104 -252c-68.667 -68 -154.334 -102 -257.001 -102s-188.334 34 -257.001 102
c-68.667 68.667 -103 152.667 -103 252s34.333 183 103 251c68.667 68.667 154.334 103 257.001 103zM269 200c36 -38 81 -57 135 -57s99 19 135 57c36 38.667 54 85.334 54 140.001s-18 101 -54 139c-36 38.667 -81 58 -135 58s-99 -19.333 -135 -58
c-36 -38 -54 -84.333 -54 -139s18 -101.334 54 -140.001z" />
    <glyph glyph-name="ohungarumlaut" unicode="&#x151;" horiz-adv-x="593" 
d="M348 718l-73 -160h-124l53 160h144zM512 718l-73 -160h-124l53 160h144zM559 243c0 -74 -24.999 -135.667 -74.999 -185c-48.667 -48.667 -111.334 -73 -188.001 -73s-139.667 24.333 -189 73c-49.333 49.333 -74 111 -74 185c0 73.333 24.667 133.666 74 180.999
c48.667 48 111.667 72 189 72s140.333 -24 189 -72c49.333 -47.333 74 -107.666 74 -180.999zM297.001 125c32 0 58.167 11 78.5 33s30.5 50 30.5 84c0 32.667 -10.167 59.834 -30.5 81.501s-46.5 32.5 -78.5 32.5s-58.333 -10.833 -79 -32.5s-31 -48.834 -31 -81.501
c0 -34 10.333 -62 31 -84s47 -33 79 -33z" />
    <glyph glyph-name="OE" unicode="&#x152;" horiz-adv-x="986" 
d="M604 533l0.000976562 -124h302v-144h-302v-118h345v-147h-551c-108.667 0 -198.334 31.667 -269.001 95c-70 64 -105 145.667 -105 245c0 100 35 181.333 105 244c70 64 159.667 96 269 96h551v-147h-345zM435.001 158v364.001h-37c-61.333 0 -110.666 -17 -147.999 -51
c-36.667 -32.667 -55 -76.334 -55 -131.001c0 -54 18.333 -98 55 -132c37.333 -33.333 86.666 -50 147.999 -50h37z" />
    <glyph glyph-name="oe" unicode="&#x153;" horiz-adv-x="946" 
d="M912 253c0 -21.333 -0.666992 -40.666 -2 -57.999h-345c15.333 -52 51.333 -78 108 -78c34.667 0 59.667 11.667 75 35h160c-10.667 -50 -38 -89.667 -82 -119c-43.333 -29.333 -94.666 -44 -153.999 -44c-76.667 0 -139.667 22.667 -189 68
c-48.667 -48 -111 -72 -187 -72c-76.667 0 -139.667 24.333 -189 73c-49.333 49.333 -74 111 -74 185c0 73.333 24.667 133.666 74 180.999c48.667 48 111.667 72 189 72c74 0 135.667 -22.667 185 -68c47.333 45.333 108.666 68 183.999 68
c70.667 0 129.667 -22.667 177 -68c46.667 -44.667 70 -103 70 -175zM664 371c-54.667 0 -88.333 -27 -101 -81h198c-8.66699 54 -41 81 -97 81zM297.001 125c32 0 58.167 11 78.5 33s30.5 50 30.5 84c0 32.667 -10.167 59.834 -30.5 81.501s-46.5 32.5 -78.5 32.5
s-58.333 -10.833 -79 -32.5s-31 -48.834 -31 -81.501c0 -34 10.333 -62 31 -84s47 -33 79 -33z" />
    <glyph glyph-name="Racute" unicode="&#x154;" horiz-adv-x="701" 
d="M391 750h-151l80 160h171zM334 197l-105 0.00195312v-197h-169v680h298c84.667 0 152.667 -21.667 204 -65s77 -101.333 77 -174c0 -46.667 -11.333 -88.334 -34 -125.001s-54.667 -65.334 -96 -86.001l175 -230h-204zM229 349.002h125c34 0 62 8.5 84 25.5
s33 39.167 33 66.5c0 26 -11 47.5 -33 64.5s-50 25.5 -84 25.5h-125v-182z" />
    <glyph glyph-name="racute" unicode="&#x155;" horiz-adv-x="410" 
d="M294 557h-151l80 160h171zM217 485v-52c47.333 40 103 60 167 60v-154c-73.333 -3.33301 -129 -24 -167 -62v-277h-162v485h162z" />
    <glyph glyph-name="Rcommaaccent" unicode="&#x156;" horiz-adv-x="701" 
d="M684 0l-204 0.00195312l-146 197h-105v-197h-169v680h298c84.667 0 152.667 -21.667 204 -65s77 -101.333 77 -174c0 -46.667 -11.333 -88.334 -34 -125.001s-54.667 -65.334 -96 -86.001zM229 349.002h125c34 0 62 8.5 84 25.5s33 39.167 33 66.5
c0 26 -11 47.5 -33 64.5s-50 25.5 -84 25.5h-125v-182zM430 -123.998c0 -16 -4.33203 -31.667 -12.999 -47c-8 -14 -30 -48.333 -66 -103h-83l41 83c-32 12.667 -48 35 -48 67c0 22 8.33301 40.833 25 56.5s36.667 23.5 60 23.5s43.166 -7.83301 59.499 -23.5
s24.5 -34.5 24.5 -56.5z" />
    <glyph glyph-name="rcommaaccent" unicode="&#x157;" horiz-adv-x="410" 
d="M217 485v-52c47.333 40 103 60 167 60v-154c-73.333 -3.33301 -129 -24 -167 -62v-277h-162v485h162zM218 -124c0 -16 -4.33203 -31.667 -12.999 -47c-8 -14 -30 -48.333 -66 -103h-83l41 83c-32 12.667 -48 35 -48 67c0 22 8.33301 40.833 25 56.5s36.667 23.5 60 23.5
s43.166 -7.83301 59.499 -23.5s24.5 -34.5 24.5 -56.5z" />
    <glyph glyph-name="Rcaron" unicode="&#x158;" horiz-adv-x="701" 
d="M236 740l-116 160h142l53 -66l51 66h142l-116 -160h-156zM334 197l-105 0.00195312v-197h-169v680h298c84.667 0 152.667 -21.667 204 -65s77 -101.333 77 -174c0 -46.667 -11.333 -88.334 -34 -125.001s-54.667 -65.334 -96 -86.001l175 -230h-204zM229 349.002h125
c34 0 62 8.5 84 25.5s33 39.167 33 66.5c0 26 -11 47.5 -33 64.5s-50 25.5 -84 25.5h-125v-182z" />
    <glyph glyph-name="rcaron" unicode="&#x159;" horiz-adv-x="410" 
d="M138 551l-116 160h142l53 -66l51 66h142l-116 -160h-156zM217 485v-52c47.333 40 103 60 167 60v-154c-73.333 -3.33301 -129 -24 -167 -62v-277h-162v485h162z" />
    <glyph glyph-name="Sacute" unicode="&#x15a;" horiz-adv-x="676" 
d="M337 695c63.333 0 123.002 -14.667 179.002 -44c30.667 -16.667 56 -40.667 76 -72s32 -68 36 -110h-170c-10 57.333 -46.667 86 -110 86c-30 0 -53.667 -6 -71 -18s-26 -28.667 -26 -50c0 -17.333 6.16699 -30.833 18.5 -40.5s32.166 -17.5 59.499 -23.5l95 -22
c70 -16 121.667 -38.833 155 -68.5s50 -71.5 50 -125.5c0 -68 -25.667 -122 -77 -162c-51.333 -39.333 -119.666 -59 -204.999 -59c-83.333 0 -153.333 20 -210 60c-58 41.333 -90.333 101.333 -97 180h169c5.33301 -30 20.5 -53.5 45.5 -70.5s57.5 -25.5 97.5 -25.5
c31.333 0 55.166 5.33301 71.499 16s24.5 25.334 24.5 44.001c0 27.333 -24 46.666 -72 57.999l-112 25c-67.333 15.333 -117 39 -149 71s-48 75 -48 129c0 67.333 24.667 121 74 161c49.333 40.667 114.666 61 195.999 61zM515.002 910l-100 -160h-151l80 160h171z" />
    <glyph glyph-name="sacute" unicode="&#x15b;" horiz-adv-x="521" 
d="M437 717l-100 -160h-151l80 160h171zM22 167l144.001 -0.998047c6.66699 -40.667 37.667 -61 93 -61c46 0 69 11.333 69 34c0 17.333 -15.667 28.666 -47 33.999l-98 17c-45.333 8 -80.333 24.167 -105 48.5s-37 56.833 -37 97.5c0 50 19.5 89.5 58.5 118.5
s91.5 43.5 157.5 43.5c82 0 144.333 -23 187 -69c24.667 -26.667 38 -59.667 40 -99h-144c-1.33301 17.333 -9.33301 30.666 -24 39.999s-34 14 -58 14c-19.333 0 -34.333 -3.16699 -45 -9.5s-16 -14.833 -16 -25.5c0 -20 16.667 -32.667 50 -38l91 -15
c100.667 -16.667 151 -65.667 151 -147c0 -53.333 -21.333 -94 -64 -122c-42 -28 -96.333 -42 -163 -42c-70 0 -126.333 15.333 -169 46s-66.334 76 -71.001 136z" />
    <glyph glyph-name="Scedilla" unicode="&#x15e;" horiz-adv-x="676" 
d="M337 695c63.333 0 123.002 -14.667 179.002 -44c30.667 -16.667 56 -40.667 76 -72s32 -68 36 -110h-170c-10 57.333 -46.667 86 -110 86c-30 0 -53.667 -6 -71 -18s-26 -28.667 -26 -50c0 -17.333 6.16699 -30.833 18.5 -40.5s32.166 -17.5 59.499 -23.5l95 -22
c70 -16 121.667 -38.833 155 -68.5s50 -71.5 50 -125.5c0 -68 -25.667 -122 -77 -162c-51.333 -39.333 -119.666 -59 -204.999 -59c-83.333 0 -153.333 20 -210 60c-58 41.333 -90.333 101.333 -97 180h169c5.33301 -30 20.5 -53.5 45.5 -70.5s57.5 -25.5 97.5 -25.5
c31.333 0 55.166 5.33301 71.499 16s24.5 25.334 24.5 44.001c0 27.333 -24 46.666 -72 57.999l-112 25c-67.333 15.333 -117 39 -149 71s-48 75 -48 129c0 67.333 24.667 121 74 161c49.333 40.667 114.666 61 195.999 61zM368.002 -228h-135l43 177h152z" />
    <glyph glyph-name="scedilla" unicode="&#x15f;" horiz-adv-x="521" 
d="M22 167l144.001 -0.998047c6.66699 -40.667 37.667 -61 93 -61c46 0 69 11.333 69 34c0 17.333 -15.667 28.666 -47 33.999l-98 17c-45.333 8 -80.333 24.167 -105 48.5s-37 56.833 -37 97.5c0 50 19.5 89.5 58.5 118.5s91.5 43.5 157.5 43.5c82 0 144.333 -23 187 -69
c24.667 -26.667 38 -59.667 40 -99h-144c-1.33301 17.333 -9.33301 30.666 -24 39.999s-34 14 -58 14c-19.333 0 -34.333 -3.16699 -45 -9.5s-16 -14.833 -16 -25.5c0 -20 16.667 -32.667 50 -38l91 -15c100.667 -16.667 151 -65.667 151 -147
c0 -53.333 -21.333 -94 -64 -122c-42 -28 -96.333 -42 -163 -42c-70 0 -126.333 15.333 -169 46s-66.334 76 -71.001 136zM281.001 -227.998h-135l43 177h152z" />
    <glyph glyph-name="Scaron" unicode="&#x160;" horiz-adv-x="676" 
d="M337 695c63.333 0 123.002 -14.667 179.002 -44c30.667 -16.667 56 -40.667 76 -72s32 -68 36 -110h-170c-10 57.333 -46.667 86 -110 86c-30 0 -53.667 -6 -71 -18s-26 -28.667 -26 -50c0 -17.333 6.16699 -30.833 18.5 -40.5s32.166 -17.5 59.499 -23.5l95 -22
c70 -16 121.667 -38.833 155 -68.5s50 -71.5 50 -125.5c0 -68 -25.667 -122 -77 -162c-51.333 -39.333 -119.666 -59 -204.999 -59c-83.333 0 -153.333 20 -210 60c-58 41.333 -90.333 101.333 -97 180h169c5.33301 -30 20.5 -53.5 45.5 -70.5s57.5 -25.5 97.5 -25.5
c31.333 0 55.166 5.33301 71.499 16s24.5 25.334 24.5 44.001c0 27.333 -24 46.666 -72 57.999l-112 25c-67.333 15.333 -117 39 -149 71s-48 75 -48 129c0 67.333 24.667 121 74 161c49.333 40.667 114.666 61 195.999 61zM532.002 900l-116 -160h-156l-116 160h142l53 -66
l51 66h142z" />
    <glyph glyph-name="scaron" unicode="&#x161;" horiz-adv-x="521" 
d="M454 711l-116 -160h-156l-116 160h142l53 -66l51 66h142zM22 167l144.001 -0.998047c6.66699 -40.667 37.667 -61 93 -61c46 0 69 11.333 69 34c0 17.333 -15.667 28.666 -47 33.999l-98 17c-45.333 8 -80.333 24.167 -105 48.5s-37 56.833 -37 97.5
c0 50 19.5 89.5 58.5 118.5s91.5 43.5 157.5 43.5c82 0 144.333 -23 187 -69c24.667 -26.667 38 -59.667 40 -99h-144c-1.33301 17.333 -9.33301 30.666 -24 39.999s-34 14 -58 14c-19.333 0 -34.333 -3.16699 -45 -9.5s-16 -14.833 -16 -25.5c0 -20 16.667 -32.667 50 -38
l91 -15c100.667 -16.667 151 -65.667 151 -147c0 -53.333 -21.333 -94 -64 -122c-42 -28 -96.333 -42 -163 -42c-70 0 -126.333 15.333 -169 46s-66.334 76 -71.001 136z" />
    <glyph glyph-name="Tcedilla" unicode="&#x162;" horiz-adv-x="648" 
d="M625 529h-216v-529h-169v529h-217v151h602v-151zM251 -51h152l-60 -177h-135z" />
    <glyph glyph-name="tcedilla" unicode="&#x163;" horiz-adv-x="470" 
d="M297 -15c-59.333 0 -106.667 19.667 -142 59s-53 92 -53 158v144h-95v139h95v165h162v-165h165v-139h-165v-139c0 -48.667 25.333 -73 76 -73c16 0 44.667 4 86 12l18 -137c-50.667 -16 -99.667 -24 -147 -24zM199.999 -51h152l-60 -177h-135z" />
    <glyph glyph-name="Tcaron" unicode="&#x164;" horiz-adv-x="648" 
d="M245 740l-116 160h142l53 -66l51 66h142l-116 -160h-156zM625 529h-216v-529h-169v529h-217v151h602v-151z" />
    <glyph glyph-name="tcaron" unicode="&#x165;" horiz-adv-x="470" 
d="M421 514h-115l6 204h148zM340 134c16 0 44.666 4 85.999 12l18 -137c-50.667 -16 -99.667 -24 -147 -24c-59.333 0 -106.666 19.667 -141.999 59s-53 92 -53 158v144h-95v139h95v165h162v-165h165v-139h-165v-139c0 -48.667 25.333 -73 76 -73z" />
    <glyph glyph-name="Umacron" unicode="&#x16a;" horiz-adv-x="733" 
d="M683 680l-0.00195312 -362.999c0 -104.667 -28.333 -186.334 -85 -245.001c-57.333 -58 -134.666 -87 -231.999 -87c-98.667 0 -176 29 -232 87s-84 139.667 -84 245v363h170v-366c0 -52 13.167 -93.5 39.5 -124.5s61.833 -46.5 106.5 -46.5s80.334 15.5 107.001 46.5
s40 72.5 40 124.5v366h170zM509.998 875.001v-124h-286v124h286z" />
    <glyph glyph-name="umacron" unicode="&#x16b;" horiz-adv-x="606" 
d="M447 570h-286v124h286v-124zM551 485l-0.00195312 -485.001h-162v32c-41.333 -31.333 -85.666 -47 -132.999 -47c-62 0 -112 20 -150 60s-57 94.333 -57 163v277h162v-252c0 -33.333 7.83301 -58.666 23.5 -75.999s37.5 -26 65.5 -26c30.667 0 60.334 16 89.001 48v306
h162z" />
    <glyph glyph-name="Uring" unicode="&#x16e;" horiz-adv-x="733" 
d="M276 947c23.333 21.333 53.333 31.999 90 31.999c36 0 65.667 -10.667 89 -32s35 -49 35 -83c0 -34.667 -11.667 -62.667 -35 -84s-53 -32 -89 -32c-36.667 0 -66.667 10.667 -90 32c-22.667 20.667 -34 48.667 -34 84c0 34.667 11.333 62.334 34 83.001zM410 863.999
c2 17.333 -4.83301 29.666 -20.5 36.999s-31.334 7.33301 -47.001 0s-22.5 -19.666 -20.5 -36.999c-2 -18 4.83301 -30.833 20.5 -38.5s31.334 -7.66699 47.001 0s22.5 20.5 20.5 38.5zM683 679.999l-0.00195312 -362.999c0 -104.667 -28.333 -186.334 -85 -245.001
c-57.333 -58 -134.666 -87 -231.999 -87c-98.667 0 -176 29 -232 87s-84 139.667 -84 245v363h170v-366c0 -52 13.167 -93.5 39.5 -124.5s61.833 -46.5 106.5 -46.5s80.334 15.5 107.001 46.5s40 72.5 40 124.5v366h170z" />
    <glyph glyph-name="uring" unicode="&#x16f;" horiz-adv-x="606" 
d="M392 580c-23.333 -21.333 -53 -32.001 -89 -32.001c-36.667 0 -66.667 10.667 -90 32c-22.667 20.667 -34 48.667 -34 84c0 34.667 11.333 62.334 34 83.001c23.333 21.333 53.333 32 90 32c36 0 65.667 -10.667 89 -32s35 -49 35 -83c0 -34.667 -11.667 -62.667 -35 -84
zM259 663.999c-2 -18 4.83301 -30.833 20.5 -38.5s31.334 -7.66699 47.001 0s22.5 20.5 20.5 38.5c2 17.333 -4.83301 29.666 -20.5 36.999s-31.334 7.33301 -47.001 0s-22.5 -19.666 -20.5 -36.999zM551 484.999l-0.00195312 -485.001h-162v32
c-41.333 -31.333 -85.666 -47 -132.999 -47c-62 0 -112 20 -150 60s-57 94.333 -57 163v277h162v-252c0 -33.333 7.83301 -58.666 23.5 -75.999s37.5 -26 65.5 -26c30.667 0 60.334 16 89.001 48v306h162z" />
    <glyph glyph-name="Uhungarumlaut" unicode="&#x170;" horiz-adv-x="733" 
d="M683 680l-0.00195312 -362.999c0 -104.667 -28.333 -186.334 -85 -245.001c-57.333 -58 -134.666 -87 -231.999 -87c-98.667 0 -176 29 -232 87s-84 139.667 -84 245v363h170v-366c0 -52 13.167 -93.5 39.5 -124.5s61.833 -46.5 106.5 -46.5s80.334 15.5 107.001 46.5
s40 72.5 40 124.5v366h170zM417.998 911.001l-73 -160h-124l53 160h144zM581.998 911.001l-73 -160h-124l53 160h144z" />
    <glyph glyph-name="uhungarumlaut" unicode="&#x171;" horiz-adv-x="606" 
d="M282 558h-124l53 160h144zM322 558l53 160h144l-73 -160h-124zM551 485l-0.00195312 -485.001h-162v32c-41.333 -31.333 -85.666 -47 -132.999 -47c-62 0 -112 20 -150 60s-57 94.333 -57 163v277h162v-252c0 -33.333 7.83301 -58.666 23.5 -75.999s37.5 -26 65.5 -26
c30.667 0 60.334 16 89.001 48v306h162z" />
    <glyph glyph-name="Uogonek" unicode="&#x172;" horiz-adv-x="733" 
d="M683 680l-0.00195312 -363.001c0 -73.333 -14 -135.666 -42 -186.999s-68.333 -89.333 -121 -114c-43.333 -30 -65 -58 -65 -84c0 -22 15.667 -33 47 -33c14.667 0 30.334 2.33301 47.001 7l15 -128c-19.333 -8.66699 -46.333 -13 -81 -13
c-46.667 0 -84.167 10.833 -112.5 32.5s-42.5 50.834 -42.5 87.501c0 33.333 15.667 66.666 47 99.999h-9c-98.667 0 -176 29 -232 87s-84 139.667 -84 245v363h170v-366c0 -52 13.167 -93.5 39.5 -124.5s61.833 -46.5 106.5 -46.5s80.334 15.5 107.001 46.5
s40 72.5 40 124.5v366h170z" />
    <glyph glyph-name="uogonek" unicode="&#x173;" horiz-adv-x="606" 
d="M576 -61l14.9971 -120.001c-20 -9.33301 -47 -14 -81 -14c-48.667 0 -88.167 11.5 -118.5 34.5s-45.5 53.833 -45.5 92.5c0 30.667 14.333 58 43 82v18c-41.333 -31.333 -85.666 -47 -132.999 -47c-62 0 -112 20 -150 60s-57 94.333 -57 163v277h162v-252
c0 -33.333 7.83301 -58.666 23.5 -75.999s37.5 -26 65.5 -26c30.667 0 60.334 16 89.001 48v306h162v-485h-12c-40 -8 -60 -21.333 -60 -40s16.667 -28 50 -28c14.667 0 30.334 2.33301 47.001 7z" />
    <glyph glyph-name="Wcircumflex" unicode="&#x174;" horiz-adv-x="1080" 
d="M488 750h-141l117 164h153l116 -164h-141l-51 66zM1060 680l-220 -684h-163l-137 415l-137 -415h-163l-220 684h179l127 -423l144 421v2h140l144 -422l127 422h179z" />
    <glyph glyph-name="wcircumflex" unicode="&#x175;" horiz-adv-x="810" 
d="M352 550h-141l117 164h153l116 -164h-141l-51 66zM796 485l-166 -485h-148l-77 250l-78 -250h-147l-167 485h170l76 -260l82 260h128l82 -258l76 258h169z" />
    <glyph glyph-name="Ycircumflex" unicode="&#x176;" horiz-adv-x="719" 
d="M307 750h-141l117 164h153l116 -164h-141l-51 66zM713 680l-268 -475v-205h-170v205l-269 475h187l166 -296l167 296h187z" />
    <glyph glyph-name="ycircumflex" unicode="&#x177;" horiz-adv-x="641" 
d="M271 550h-141l117 164h153l116 -164h-141l-51 66zM624 485l-299 -709h-170l92 218l-230 491h172l139 -299l126 299h170z" />
    <glyph glyph-name="Ydieresis" unicode="&#x178;" horiz-adv-x="719" 
d="M713 680l-268 -475v-205h-170v205l-269 475h187l166 -296l167 296h187zM309 768c-17.333 -16.667 -38.666 -25 -63.999 -25s-47 8.33301 -65 25c-18.667 17.333 -27.834 38.166 -27.501 62.499s9.5 45.166 27.5 62.499c18.667 16.667 40.334 25 65.001 25
s46 -8.33301 64 -25c17.333 -17.333 26.166 -38.166 26.499 -62.499s-8.5 -45.166 -26.5 -62.499zM538 768c-17.333 -16.667 -38.666 -25 -63.999 -25s-47 8.33301 -65 25c-18.667 17.333 -27.834 38.166 -27.501 62.499s9.5 45.166 27.5 62.499
c18.667 16.667 40.334 25 65.001 25s46 -8.33301 64 -25c17.333 -17.333 26.166 -38.166 26.499 -62.499s-8.5 -45.166 -26.5 -62.499z" />
    <glyph glyph-name="Zacute" unicode="&#x179;" horiz-adv-x="658" 
d="M407 750h-151l80 160h171zM623 149v-149h-589v80l337 451h-320v149h566v-80l-323 -451h329z" />
    <glyph glyph-name="zacute" unicode="&#x17a;" horiz-adv-x="512" 
d="M333 557h-151l80 160h171zM483 399l-221 -265h221v-134h-453v79l228 271h-224v135h449v-86z" />
    <glyph glyph-name="Zdotaccent" unicode="&#x17b;" horiz-adv-x="658" 
d="M623 149v-149h-589v80l337 451h-320v149h566v-80l-323 -451h329zM394 768c-17.333 -16.667 -38.666 -25 -63.999 -25s-47 8.33301 -65 25c-18.667 17.333 -27.834 38.166 -27.501 62.499s9.5 45.166 27.5 62.499c18.667 17.333 40.334 26 65.001 26s46 -8.66699 64 -26
c17.333 -17.333 26.166 -38.166 26.499 -62.499s-8.5 -45.166 -26.5 -62.499z" />
    <glyph glyph-name="zdotaccent" unicode="&#x17c;" horiz-adv-x="512" 
d="M320 575c-17.333 -16.667 -38.666 -25 -63.999 -25s-47 8.33301 -65 25c-18.667 17.333 -27.834 38.166 -27.501 62.499s9.5 45.166 27.5 62.499c18.667 17.333 40.334 26 65.001 26s46 -8.66699 64 -26c17.333 -17.333 26.166 -38.166 26.499 -62.499
s-8.5 -45.166 -26.5 -62.499zM483 399l-221 -265h221v-134h-453v79l228 271h-224v135h449v-86z" />
    <glyph glyph-name="Zcaron" unicode="&#x17d;" horiz-adv-x="658" 
d="M251 740l-116 160h142l53 -66l51 66h142l-116 -160h-156zM623 149v-149h-589v80l337 451h-320v149h566v-80l-323 -451h329z" />
    <glyph glyph-name="zcaron" unicode="&#x17e;" horiz-adv-x="512" 
d="M177 551l-116 160h142l53 -66l51 66h142l-116 -160h-156zM483 399l-221 -265h221v-134h-453v79l228 271h-224v135h449v-86z" />
    <glyph glyph-name="florin" unicode="&#x192;" horiz-adv-x="591" 
d="M463 538c-48.667 0 -76.667 -26.666 -84 -79.999l-10 -73h154v-129h-172l-21 -151c-10 -72.667 -33.5 -128.834 -70.5 -168.501s-85.5 -59.5 -145.5 -59.5c-39.333 0 -82.333 6.33301 -129 19l22 138c27.333 -6 52 -9 74 -9c49.333 0 77.333 26.333 84 79l21 152h-122
v129h140l10 73c10 72.667 33.5 128.667 70.5 168s85.5 59 145.5 59c41.333 0 84.333 -6 129 -18l-21 -138c-29.333 6 -54.333 9 -75 9z" />
    <glyph glyph-name="Acaron" unicode="&#x1cd;" horiz-adv-x="763" 
d="M303 740l-116 160h142l53 -66l51 66h142l-116 -160h-156zM525 117h-288l-45 -117h-180l289 684h161l288 -684h-179zM469 261l-88 226l-88 -226h176z" />
    <glyph glyph-name="acaron" unicode="&#x1ce;" horiz-adv-x="624" 
d="M245 551l-116 160h142l53 -66l51 66h142l-116 -160h-156zM569 485v-485h-162v27c-38.667 -24.667 -83 -37 -133 -37c-66.667 0 -123.334 24.333 -170.001 73c-47.333 49.333 -71 109.333 -71 180s23.667 130.667 71 180c46.667 48.667 103.334 73 170.001 73
c50 0 94.333 -12.333 133 -37v26h162zM306 123c41.333 0 75 15 101 45v150c-26 30.667 -59.667 46 -101 46c-32.667 0 -59.834 -11.667 -81.501 -35s-32.5 -52 -32.5 -86s10.833 -62.5 32.5 -85.5s48.834 -34.5 81.501 -34.5z" />
    <glyph glyph-name="Scommaaccent" unicode="&#x218;" horiz-adv-x="676" 
d="M337 695c63.333 0 123.002 -14.667 179.002 -44c30.667 -16.667 56 -40.667 76 -72s32 -68 36 -110h-170c-10 57.333 -46.667 86 -110 86c-30 0 -53.667 -6 -71 -18s-26 -28.667 -26 -50c0 -17.333 6.16699 -30.833 18.5 -40.5s32.166 -17.5 59.499 -23.5l95 -22
c70 -16 121.667 -38.833 155 -68.5s50 -71.5 50 -125.5c0 -68 -25.667 -122 -77 -162c-51.333 -39.333 -119.666 -59 -204.999 -59c-83.333 0 -153.333 20 -210 60c-58 41.333 -90.333 101.333 -97 180h169c5.33301 -30 20.5 -53.5 45.5 -70.5s57.5 -25.5 97.5 -25.5
c31.333 0 55.166 5.33301 71.499 16s24.5 25.334 24.5 44.001c0 27.333 -24 46.666 -72 57.999l-112 25c-67.333 15.333 -117 39 -149 71s-48 75 -48 129c0 67.333 24.667 121 74 161c49.333 40.667 114.666 61 195.999 61zM254.002 -274l41.001 83
c-32 12.667 -48 35 -48 67c0 22 8.33301 40.833 25 56.5s36.667 23.5 60 23.5s43.166 -7.83301 59.499 -23.5s24.5 -34.5 24.5 -56.5c0 -16 -4.33301 -31.667 -13 -47c-8 -14 -30 -48.333 -66 -103h-83z" />
    <glyph glyph-name="scommaaccent" unicode="&#x219;" horiz-adv-x="521" 
d="M22 167l144.001 -0.998047c6.66699 -40.667 37.667 -61 93 -61c46 0 69 11.333 69 34c0 17.333 -15.667 28.666 -47 33.999l-98 17c-45.333 8 -80.333 24.167 -105 48.5s-37 56.833 -37 97.5c0 50 19.5 89.5 58.5 118.5s91.5 43.5 157.5 43.5c82 0 144.333 -23 187 -69
c24.667 -26.667 38 -59.667 40 -99h-144c-1.33301 17.333 -9.33301 30.666 -24 39.999s-34 14 -58 14c-19.333 0 -34.333 -3.16699 -45 -9.5s-16 -14.833 -16 -25.5c0 -20 16.667 -32.667 50 -38l91 -15c100.667 -16.667 151 -65.667 151 -147
c0 -53.333 -21.333 -94 -64 -122c-42 -28 -96.333 -42 -163 -42c-70 0 -126.333 15.333 -169 46s-66.334 76 -71.001 136zM167.001 -273.998l41.001 83c-32 12.667 -48 35 -48 67c0 22 8.33301 40.833 25 56.5s36.667 23.5 60 23.5s43.166 -7.83301 59.499 -23.5
s24.5 -34.5 24.5 -56.5c0 -16 -4.33301 -31.667 -13 -47c-8 -14 -30 -48.333 -66 -103h-83z" />
    <glyph glyph-name="uni021A" unicode="&#x21a;" horiz-adv-x="648" 
d="M625 529h-216v-529h-169v529h-217v151h602v-151zM391 -124c0 -16 -4.33203 -31.667 -12.999 -47c-8 -14 -30 -48.333 -66 -103h-83l41 83c-32 12.667 -48 35 -48 67c0 22 8.33301 40.833 25 56.5s36.667 23.5 60 23.5s43.166 -7.83301 59.499 -23.5
s24.5 -34.5 24.5 -56.5z" />
    <glyph glyph-name="uni021B" unicode="&#x21b;" horiz-adv-x="470" 
d="M426 146l17.999 -137c-50.667 -16 -99.667 -24 -147 -24c-59.333 0 -106.666 19.667 -141.999 59s-53 92 -53 158v144h-95v139h95v165h162v-165h165v-139h-165v-139c0 -48.667 25.333 -73 76 -73c16 0 44.667 4 86 12zM339.999 -124c0 -16 -4.33203 -31.667 -12.999 -47
c-8 -14 -30 -48.333 -66 -103h-83l41 83c-32 12.667 -48 35 -48 67c0 22 8.33301 40.833 25 56.5s36.667 23.5 60 23.5s43.166 -7.83301 59.499 -23.5s24.5 -34.5 24.5 -56.5z" />
    <glyph glyph-name="circumflex" unicode="&#x2c6;" 
d="M301 619l-53 -66h-141l117 164h153l116 -164h-141z" />
    <glyph glyph-name="caron" unicode="&#x2c7;" 
d="M494 713l-116 -160h-156l-116 160h142l53 -66l51 66h142z" />
    <glyph glyph-name="breve" unicode="&#x2d8;" 
d="M360 710h114.999c0 -52.667 -15.833 -94 -47.5 -124s-74.167 -45 -127.5 -45s-95.833 15 -127.5 45s-47.5 71.333 -47.5 124h115c0 -21.333 5.33301 -37.5 16 -48.5s25.334 -16.5 44.001 -16.5c18 0 32.5 5.66699 43.5 17s16.5 27.333 16.5 48z" />
    <glyph glyph-name="dotaccent" unicode="&#x2d9;" 
d="M364 575c-17.333 -16.667 -38.666 -25 -63.999 -25s-47 8.33301 -65 25c-18.667 17.333 -27.834 38.166 -27.501 62.499s9.5 45.166 27.5 62.499c18.667 17.333 40.334 26 65.001 26s46 -8.66699 64 -26c17.333 -17.333 26.166 -38.166 26.499 -62.499
s-8.5 -45.166 -26.5 -62.499z" />
    <glyph glyph-name="ring" unicode="&#x2da;" 
d="M208 747c23.333 21.333 53.333 31.999 90 31.999c36 0 65.667 -10.667 89 -32s35 -49 35 -83c0 -34.667 -11.667 -62.667 -35 -84s-53 -32 -89 -32c-36.667 0 -66.667 10.667 -90 32c-22.667 20.667 -34 48.667 -34 84c0 34.667 11.333 62.334 34 83.001zM342 663.999
c2 17.333 -4.83301 29.666 -20.5 36.999s-31.334 7.33301 -47.001 0s-22.5 -19.666 -20.5 -36.999c-2 -18 4.83301 -30.833 20.5 -38.5s31.334 -7.66699 47.001 0s22.5 20.5 20.5 38.5z" />
    <glyph glyph-name="ogonek" unicode="&#x2db;" 
d="M352 70l18.999 -62c-40 -8 -60 -21.333 -60 -40s16.667 -28 50 -28c14.667 0 30.334 2.33301 47.001 7l15 -120c-20 -9.33301 -47 -14 -81 -14c-48.667 0 -88.167 11.5 -118.5 34.5s-45.5 53.833 -45.5 92.5c0 32 15.5 60.167 46.5 84.5s73.5 39.5 127.5 45.5z" />
    <glyph glyph-name="tilde" unicode="&#x2dc;" 
d="M378 705h119c0 -34.667 -6.5 -63.834 -19.5 -87.501s-29.333 -40 -49 -49s-40.167 -13.167 -61.5 -12.5s-41 6.33398 -59 17.001l-38 22c-14 7.33301 -24.167 8.5 -30.5 3.5s-9.5 -14.167 -9.5 -27.5h-119c0 34.667 6.5 63.667 19.5 87s29.333 39.5 49 48.5
s40.167 13.167 61.5 12.5s41 -6 59 -16l38 -22c14 -7.33301 24.167 -8.5 30.5 -3.5s9.5 14.167 9.5 27.5z" />
    <glyph glyph-name="hungarumlaut" unicode="&#x2dd;" 
d="M352 718l-73 -160h-124l53 160h144zM516 718l-73 -160h-124l53 160h144z" />
    <glyph glyph-name="uni0326" unicode="&#x326;" horiz-adv-x="0" 
d="M217 -274l41.001 83c-32 12.667 -48 35 -48 67c0 22 8.33301 40.833 25 56.5s36.667 23.5 60 23.5s43.166 -7.83301 59.499 -23.5s24.5 -34.5 24.5 -56.5c0 -16 -4.33301 -31.667 -13 -47c-8 -14 -30 -48.333 -66 -103h-83z" />
    <glyph glyph-name="Wgrave" unicode="&#x1e80;" horiz-adv-x="1080" 
d="M478 750l-100 160h171l80 -160h-151zM1060 680l-220 -684h-163l-137 415l-137 -415h-163l-220 684h179l127 -423l144 421v2h140l144 -422l127 422h179z" />
    <glyph glyph-name="wgrave" unicode="&#x1e81;" horiz-adv-x="810" 
d="M335 557l-100 160h171l80 -160h-151zM796 485l-166 -485h-148l-77 250l-78 -250h-147l-167 485h170l76 -260l82 260h128l82 -258l76 258h169z" />
    <glyph glyph-name="Wacute" unicode="&#x1e82;" horiz-adv-x="1080" 
d="M618 750h-151l80 160h171zM1060 680l-220 -684h-163l-137 415l-137 -415h-163l-220 684h179l127 -423l144 421v2h140l144 -422l127 422h179z" />
    <glyph glyph-name="wacute" unicode="&#x1e83;" horiz-adv-x="810" 
d="M482 557h-151l80 160h171zM796 485l-166 -485h-148l-77 250l-78 -250h-147l-167 485h170l76 -260l82 260h128l82 -258l76 258h169z" />
    <glyph glyph-name="Wdieresis" unicode="&#x1e84;" horiz-adv-x="1080" 
d="M490 768c-17.333 -16.667 -38.666 -25 -63.999 -25s-47 8.33301 -65 25c-18.667 17.333 -27.834 38.166 -27.501 62.499s9.5 45.166 27.5 62.499c18.667 16.667 40.334 25 65.001 25s46 -8.33301 64 -25c17.333 -17.333 26.166 -38.166 26.499 -62.499
s-8.5 -45.166 -26.5 -62.499zM719 768c-17.333 -16.667 -38.666 -25 -63.999 -25s-47 8.33301 -65 25c-18.667 17.333 -27.834 38.166 -27.501 62.499s9.5 45.166 27.5 62.499c18.667 16.667 40.334 25 65.001 25s46 -8.33301 64 -25
c17.333 -17.333 26.166 -38.166 26.499 -62.499s-8.5 -45.166 -26.5 -62.499zM1060 680l-220 -684h-163l-137 415l-137 -415h-163l-220 684h179l127 -423l144 421v2h140l144 -422l127 422h179z" />
    <glyph glyph-name="wdieresis" unicode="&#x1e85;" horiz-adv-x="810" 
d="M355 575c-17.333 -16.667 -38.666 -25 -63.999 -25s-47 8.33301 -65 25c-18.667 17.333 -27.834 38.166 -27.501 62.499s9.5 45.166 27.5 62.499c18.667 17.333 40.334 26 65.001 26s46 -8.66699 64 -26c17.333 -17.333 26.166 -38.166 26.499 -62.499
s-8.5 -45.166 -26.5 -62.499zM584 575c-17.333 -16.667 -38.666 -25 -63.999 -25s-47 8.33301 -65 25c-18.667 17.333 -27.834 38.166 -27.501 62.499s9.5 45.166 27.5 62.499c18.667 17.333 40.334 26 65.001 26s46 -8.66699 64 -26
c17.333 -17.333 26.166 -38.166 26.499 -62.499s-8.5 -45.166 -26.5 -62.499zM796 485l-166 -485h-148l-77 250l-78 -250h-147l-167 485h170l76 -260l82 260h128l82 -258l76 258h169z" />
    <glyph glyph-name="Ygrave" unicode="&#x1ef2;" horiz-adv-x="719" 
d="M297 750l-100 160h171l80 -160h-151zM713 680l-268 -475v-205h-170v205l-269 475h187l166 -296l167 296h187z" />
    <glyph glyph-name="ygrave" unicode="&#x1ef3;" horiz-adv-x="641" 
d="M254 557l-100 160h171l80 -160h-151zM624 485l-299 -709h-170l92 218l-230 491h172l139 -299l126 299h170z" />
    <glyph glyph-name="endash" unicode="&#x2013;" horiz-adv-x="690" 
d="M594 337v-155h-497v155h497z" />
    <glyph glyph-name="emdash" unicode="&#x2014;" horiz-adv-x="1069" 
d="M972 337v-155h-875v155h875z" />
    <glyph glyph-name="quoteleft" unicode="&#x2018;" horiz-adv-x="234" 
d="M207 679l-52.002 -111c34.667 -14.667 52 -38.667 52 -72c0 -24 -8.66699 -44.333 -26 -61s-38.666 -25 -63.999 -25s-46.666 8.33301 -63.999 25s-26 37 -26 61c0 22 10 49.667 30 83l60 100h90z" />
    <glyph glyph-name="quoteright" unicode="&#x2019;" horiz-adv-x="234" 
d="M27 422l52.002 111c-34.667 14.667 -52 38.667 -52 72c0 24 8.66699 44.333 26 61s38.666 25 63.999 25s46.666 -8.33301 63.999 -25s26 -37 26 -61c0 -22 -10 -49.667 -30 -83l-60 -100h-90z" />
    <glyph glyph-name="quotesinglbase" unicode="&#x201a;" horiz-adv-x="234" 
d="M27 -113l52 111c-34.667 14.667 -52 39 -52 73c0 23.333 8.83301 43.333 26.5 60s38.834 25 63.501 25c25.333 0 46.666 -8.16699 63.999 -24.5s26 -36.833 26 -61.5c0 -21.333 -10 -49 -30 -83l-60 -100h-90z" />
    <glyph glyph-name="quotedblleft" unicode="&#x201c;" horiz-adv-x="441" 
d="M207 679l-52.002 -111c34.667 -14.667 52 -38.667 52 -72c0 -24 -8.66699 -44.333 -26 -61s-38.666 -25 -63.999 -25s-46.666 8.33301 -63.999 25s-26 37 -26 61c0 22 10 49.667 30 83l60 100h90zM413.998 679l-52 -111.001c34 -14.667 51 -38.667 51 -72
c0 -24 -8.66699 -44.333 -26 -61s-38.333 -25 -63 -25c-25.333 0 -46.833 8.33301 -64.5 25s-26.5 37 -26.5 61c0 20.667 10.333 48.334 31 83.001l60 100h90z" />
    <glyph glyph-name="quotedblright" unicode="&#x201d;" horiz-adv-x="441" 
d="M27 422l52.002 111c-34.667 14.667 -52 38.667 -52 72c0 24 8.66699 44.333 26 61s38.666 25 63.999 25s46.666 -8.33301 63.999 -25s26 -37 26 -61c0 -22 -10 -49.667 -30 -83l-60 -100h-90zM234.002 422l51.002 111c-34 15.333 -51 39.333 -51 72
c0 24 8.66699 44.333 26 61s38.666 25 63.999 25s46.666 -8.33301 63.999 -25s26 -37 26 -61c0 -12.667 -1.83301 -24 -5.5 -34s-12.167 -26.333 -25.5 -49l-59 -100h-90z" />
    <glyph glyph-name="quotedblbase" unicode="&#x201e;" horiz-adv-x="443" 
d="M27 -113l52 111c-34.667 14.667 -52 39 -52 73c0 23.333 8.83301 43.333 26.5 60s38.834 25 63.501 25c25.333 0 46.666 -8.16699 63.999 -24.5s26 -36.833 26 -61.5c0 -21.333 -10 -49 -30 -83l-60 -100h-90zM236 -113l52 111c-34.667 14.667 -52 39 -52 73
c0 23.333 8.83301 43.333 26.5 60s38.834 25 63.501 25c25.333 0 46.666 -8.16699 63.999 -24.5s26 -36.833 26 -61.5c0 -21.333 -10 -49 -30 -83l-60 -100h-90z" />
    <glyph glyph-name="dagger" unicode="&#x2020;" horiz-adv-x="403" 
d="M251 509v-212h-99v212h-112v98h112v112h99v-112h112v-98h-112z" />
    <glyph glyph-name="daggerdbl" unicode="&#x2021;" horiz-adv-x="403" 
d="M251 483h112v-98h-112v-88h-99v88h-112v98h112v52h-112v98h112v86h99v-86h112v-98h-112v-52z" />
    <glyph glyph-name="bullet" unicode="&#x2022;" horiz-adv-x="358" 
d="M178 146c-40.667 0 -76 15 -106 45s-45 65.333 -45 106s15 76 45 106s65.333 45 106 45c41.333 0 77 -15 107 -45c30.667 -30 46 -65.333 46 -106s-15.333 -76 -46 -106c-30 -30 -65.667 -45 -107 -45z" />
    <glyph glyph-name="ellipsis" unicode="&#x2026;" horiz-adv-x="739" 
d="M182 7c-17.333 -16.667 -38.8311 -25 -64.498 -25s-47.167 8.33301 -64.5 25c-18 17.333 -26.833 38.333 -26.5 63s9.16602 45.334 26.499 62.001c18 16.667 39.667 25 65 25s46.666 -8.33301 63.999 -25c18 -16.667 27 -37.334 27 -62.001s-9 -45.667 -27 -63z
M367.002 -18c-24.667 0 -45.834 8.5 -63.501 25.5s-26.5 37.833 -26.5 62.5c0 24 8.83301 44.5 26.5 61.5s38.834 25.5 63.501 25.5c25.333 0 47 -8.5 65 -25.5s27 -37.5 27 -61.5c0 -24.667 -9 -45.5 -27 -62.5s-39.667 -25.5 -65 -25.5zM685.002 7
c-17.333 -16.667 -38.8311 -25 -64.498 -25s-47.167 8.33301 -64.5 25c-18 17.333 -26.833 38.333 -26.5 63s9.16602 45.334 26.499 62.001c18 16.667 39.667 25 65 25s46.666 -8.33301 63.999 -25c18 -16.667 27 -37.334 27 -62.001s-9 -45.667 -27 -63z" />
    <glyph glyph-name="perthousand" unicode="&#x2030;" horiz-adv-x="1554" 
d="M123 639c39.333 37.333 88.333 56 147 56c58 0 106.667 -18.667 146 -56s59 -85.333 59 -144s-19.667 -107 -59 -145c-39.333 -37.333 -88 -56 -146 -56c-58.667 0 -107.667 18.667 -147 56c-38.667 38 -58 86.333 -58 145c0 59.333 19.333 107.333 58 144zM366 0h-108
l454 680h108zM271 400c26.667 0 49 9 67 27s27 40.667 27 68s-9 50 -27 68s-40.333 27 -67 27s-49.167 -9 -67.5 -27s-27.5 -40.667 -27.5 -68s9.16699 -50 27.5 -68s40.833 -27 67.5 -27zM673 330c39.333 37.333 88.333 56 147 56c58 0 106.667 -18.667 146 -56
s59 -85.333 59 -144s-19.667 -107 -59 -145c-39.333 -37.333 -88 -56 -146 -56c-58.667 0 -107.667 18.667 -147 56c-38.667 38 -58 86.333 -58 145c0 59.333 19.333 107.333 58 144zM1137 330c39.333 37.333 88.333 56 147 56c58 0 106.667 -18.667 146 -56
s59 -85.333 59 -144s-19.667 -107 -59 -145c-39.333 -37.333 -88 -56 -146 -56c-58.667 0 -107.667 18.667 -147 56c-38.667 38 -58 86.333 -58 145c0 59.333 19.333 107.333 58 144zM915 186c0 27.333 -9.16699 49.834 -27.5 67.501s-40.833 26.5 -67.5 26.5
s-49 -8.83301 -67 -26.5s-27 -40.167 -27 -67.5c0 -28 9 -51 27 -69s40.333 -27 67 -27s49.167 9.16699 67.5 27.5s27.5 41.166 27.5 68.499zM1378 186.001c0 27.333 -9.16699 49.834 -27.5 67.501s-40.833 26.5 -67.5 26.5s-49 -8.83301 -67 -26.5s-27 -40.167 -27 -67.5
c0 -28 9.16699 -51 27.5 -69s40.5 -27 66.5 -27c26.667 0 49.167 9.16699 67.5 27.5s27.5 41.166 27.5 68.499z" />
    <glyph glyph-name="guilsinglleft" unicode="&#x2039;" horiz-adv-x="283" 
d="M261 413l-95 -161l95 -161h-144l-95 161l95 161h144z" />
    <glyph glyph-name="guilsinglright" unicode="&#x203a;" horiz-adv-x="286" 
d="M264 252l-95 -161h-144l95 161l-95 161h144z" />
    <glyph glyph-name="fraction" unicode="&#x2044;" horiz-adv-x="533" 
d="M94 0h-109l454 680h109z" />
    <glyph glyph-name="zerosuperior" unicode="&#x2070;" horiz-adv-x="455" 
d="M227 702c62 0 111.333 -20.333 148 -61c36.667 -39.333 55 -91.333 55 -156c0 -63.333 -18.333 -115.333 -55 -156c-36.667 -40 -86 -60 -148 -60c-60.667 0 -109.667 20 -147 60c-36.667 40.667 -55 92.667 -55 156s18.333 115.333 55 156s85.667 61 147 61zM162 404
c14.667 -20.667 36.332 -31 64.999 -31s50.334 10.333 65.001 31c15.333 21.333 23 48.333 23 81s-7.66699 59.667 -23 81s-37 32 -65 32s-49.667 -10.667 -65 -32c-14.667 -20.667 -22 -47.667 -22 -81s7.33301 -60.333 22 -81z" />
    <glyph glyph-name="foursuperior" unicode="&#x2074;" horiz-adv-x="420" 
d="M394 349h-48v-68h-114v68h-209v75l110 268h116l-92 -243h75v93h114v-93h48v-100z" />
    <glyph glyph-name="fivesuperior" unicode="&#x2075;" horiz-adv-x="397" 
d="M169 550l40.002 0.00195312c48 0 85 -12 111 -36s39 -56.667 39 -98c0 -42.667 -14.833 -77.334 -44.5 -104.001s-68.834 -40 -117.501 -40c-46.667 0 -84.834 12 -114.501 36s-46.5 56 -50.5 96h113c7.33301 -24 25 -36 53 -36c15.333 0 27.833 4.16699 37.5 12.5
s14.5 19.166 14.5 32.499c0 30.667 -18 46 -54 46h-136v233h280v-99h-171v-43z" />
    <glyph glyph-name="sixsuperior" unicode="&#x2076;" horiz-adv-x="396" 
d="M300 692l-76 -120c44 -4.66699 79.167 -20.5 105.5 -47.5s39.5 -59.833 39.5 -98.5c0 -43.333 -16 -80 -48 -110c-31.333 -29.333 -72.333 -44 -123 -44c-49.333 0 -90.333 14.667 -123 44c-32 30 -48 65.667 -48 107c0 28 12.667 63 38 105l100 164h135zM198 367
c16.667 0 30.667 5.33105 42 15.998s17 23.667 17 39c2.66699 24.667 -9.33301 41.834 -36 51.501s-48.667 6.16699 -66 -10.5c-10.667 -15.333 -16 -28.666 -16 -39.999c0 -16 5.5 -29.333 16.5 -40s25.167 -16 42.5 -16z" />
    <glyph glyph-name="sevensuperior" unicode="&#x2077;" horiz-adv-x="347" 
d="M330 692v-67l-155 -344h-131l140 304h-167v107h313z" />
    <glyph glyph-name="eightsuperior" unicode="&#x2078;" horiz-adv-x="408" 
d="M315 496c41.333 -23.333 62 -56.001 62 -98.001c0 -40 -15.333 -71.5 -46 -94.5s-73 -34.5 -127 -34.5s-96.167 11.5 -126.5 34.5s-45.5 54.5 -45.5 94.5c0 42.667 20.333 75.334 61 98.001c-30 18.667 -45 45.667 -45 81c0 36 14.5 65.167 43.5 87.5
s66.5 33.5 112.5 33.5s83.5 -11.167 112.5 -33.5s43.5 -51.5 43.5 -87.5c0 -35.333 -15 -62.333 -45 -81zM237 599.999c-8.66699 8 -19.667 12 -33 12s-24.333 -4 -33 -12c-8.66699 -7.33301 -13 -17.333 -13 -30s4.33301 -23 13 -31s19.667 -12 33 -12s24.333 4 33 12
s13 18.333 13 31s-4.33301 22.667 -13 30zM168 373.999c9.33301 -8.66699 21.333 -12.832 36 -12.499s26.667 4.5 36 12.5s14 18.667 14 32s-4.66699 24 -14 32s-21.333 12.167 -36 12.5s-26.667 -3.83398 -36 -12.501c-8.66699 -8 -13 -18.667 -13 -32s4.33301 -24 13 -32z
" />
    <glyph glyph-name="ninesuperior" unicode="&#x2079;" horiz-adv-x="396" 
d="M198 699c50 0 91 -15 123 -45c32 -29.333 48 -64.666 48 -105.999c0 -28 -12.667 -63 -38 -105l-100 -164h-135l76 120c-44 4.66699 -79.167 20.5 -105.5 47.5s-39.5 59.833 -39.5 98.5c0 43.333 15.667 79.666 47 108.999c32 30 73.333 45 124 45zM241 508
c10.667 15.333 16 28.668 16 40.001c0 16 -5.5 29.333 -16.5 40s-25.167 16 -42.5 16c-16.667 0 -30.667 -5.33301 -42 -16s-17 -23.667 -17 -39c-2.66699 -24.667 9.33301 -41.834 36 -51.501s48.667 -6.16699 66 10.5z" />
    <glyph glyph-name="zeroinferior" unicode="&#x2080;" horiz-adv-x="455" 
d="M227 244c62 0 111.333 -20.333 148 -61c36.667 -39.333 55 -91.333 55 -156c0 -63.333 -18.333 -115.333 -55 -156c-36.667 -40 -86 -60 -148 -60c-60.667 0 -109.667 20 -147 60c-36.667 40.667 -55 92.667 -55 156s18.333 115.333 55 156s85.667 61 147 61zM162 -54
c14.667 -20.667 36.332 -31 64.999 -31s50.334 10.333 65.001 31c15.333 21.333 23 48.333 23 81s-7.66699 59.667 -23 81s-37 32 -65 32s-49.667 -10.667 -65 -32c-14.667 -20.667 -22 -47.667 -22 -81s7.33301 -60.333 22 -81z" />
    <glyph glyph-name="oneinferior" unicode="&#x2081;" horiz-adv-x="341" 
d="M336 -83v-97h-311v97h102v192l-97 -27v103l141 46h67v-314h98z" />
    <glyph glyph-name="twoinferior" unicode="&#x2082;" horiz-adv-x="373" 
d="M345 -83l-0.000976562 -97h-311v57l139 156c19.333 21.333 32 36.5 38 45.5s9 17.833 9 26.5c0 9.33301 -3.16699 16.833 -9.5 22.5s-14.833 8.5 -25.5 8.5c-27.333 0 -41.666 -13.667 -42.999 -41h-110c0.666992 44.667 14.334 80 41.001 106s64 39 112 39
c47.333 0 85.166 -12 113.499 -36s42.5 -54 42.5 -90c0 -19.333 -5.5 -39.333 -16.5 -60s-30.833 -47.667 -59.5 -81l-48 -56h128z" />
    <glyph glyph-name="threeinferior" unicode="&#x2083;" horiz-adv-x="384" 
d="M304 26c32.667 -18.667 48.999 -47 48.999 -85s-15 -69.333 -45 -94c-28.667 -24.667 -67.334 -37 -116.001 -37c-46.667 0 -84.167 12 -112.5 36s-45.166 57.333 -50.499 100h112c7.33301 -26 25 -39 53 -39c14 0 25.333 3.33301 34 10s13 15.334 13 26.001
c0 24 -19 36 -57 36h-33v88h33c33.333 0 50 12.333 50 37c0 24 -14 36 -42 36c-25.333 0 -39.333 -13.333 -42 -40h-112c2.66699 42.667 17.334 76 44.001 100s62.667 36 108 36c46 0 82.667 -11.833 110 -35.5s41 -54.834 41 -93.501c0 -33.333 -12.333 -60.333 -37 -81z
" />
    <glyph glyph-name="fourinferior" unicode="&#x2084;" horiz-adv-x="420" 
d="M394 -112h-48v-68h-114v68h-209v75l110 268h116l-92 -243h75v93h114v-93h48v-100z" />
    <glyph glyph-name="fiveinferior" unicode="&#x2085;" horiz-adv-x="397" 
d="M169 89l40.002 0.00195312c48 0 85 -12 111 -36s39 -56.667 39 -98c0 -42.667 -14.833 -77.334 -44.5 -104.001s-68.834 -40 -117.501 -40c-46.667 0 -84.834 12 -114.501 36s-46.5 56 -50.5 96h113c7.33301 -24 25 -36 53 -36c15.333 0 27.833 4.16699 37.5 12.5
s14.5 19.166 14.5 32.499c0 30.667 -18 46 -54 46h-136v233h280v-99h-171v-43z" />
    <glyph glyph-name="sixinferior" unicode="&#x2086;" horiz-adv-x="396" 
d="M300 231l-76 -120c44 -4.66699 79.167 -20.5 105.5 -47.5s39.5 -59.833 39.5 -98.5c0 -43.333 -16 -80 -48 -110c-31.333 -29.333 -72.333 -44 -123 -44c-49.333 0 -90.333 14.667 -123 44c-32 30 -48 65.667 -48 107c0 28 12.667 63 38 105l100 164h135zM198 -94
c16.667 0 30.667 5.33105 42 15.998s17 23.667 17 39c2.66699 24.667 -9.33301 41.834 -36 51.501s-48.667 6.16699 -66 -10.5c-10.667 -15.333 -16 -28.666 -16 -39.999c0 -16 5.5 -29.333 16.5 -40s25.167 -16 42.5 -16z" />
    <glyph glyph-name="seveninferior" unicode="&#x2087;" horiz-adv-x="347" 
d="M330 231v-67l-155 -344h-131l140 304h-167v107h313z" />
    <glyph glyph-name="eightinferior" unicode="&#x2088;" horiz-adv-x="408" 
d="M315 38c41.333 -23.333 62 -56.001 62 -98.001c0 -40 -15.333 -71.5 -46 -94.5s-73 -34.5 -127 -34.5s-96.167 11.5 -126.5 34.5s-45.5 54.5 -45.5 94.5c0 42.667 20.333 75.334 61 98.001c-30 18.667 -45 45.667 -45 81c0 36 14.5 65.167 43.5 87.5
s66.5 33.5 112.5 33.5s83.5 -11.167 112.5 -33.5s43.5 -51.5 43.5 -87.5c0 -35.333 -15 -62.333 -45 -81zM237 141.999c-8.66699 8 -19.667 12 -33 12s-24.333 -4 -33 -12c-8.66699 -7.33301 -13 -17.333 -13 -30s4.33301 -23 13 -31s19.667 -12 33 -12s24.333 4 33 12
s13 18.333 13 31s-4.33301 22.667 -13 30zM168 -84.001c9.33301 -8.66699 21.333 -12.832 36 -12.499s26.667 4.5 36 12.5s14 18.667 14 32s-4.66699 24 -14 32s-21.333 12.167 -36 12.5s-26.667 -3.83398 -36 -12.501c-8.66699 -8 -13 -18.667 -13 -32s4.33301 -24 13 -32z
" />
    <glyph glyph-name="nineinferior" unicode="&#x2089;" horiz-adv-x="396" 
d="M198 241c50 0 91 -14.999 123 -44.999c32 -28.667 48 -64 48 -106c0 -28 -12.667 -63 -38 -105l-100 -164h-135l76 120c-44 4.66699 -79.167 20.5 -105.5 47.5s-39.5 59.833 -39.5 98.5c0 43.333 15.667 79.666 47 108.999c32 30 73.333 45 124 45zM241 50.001
c10.667 15.333 16 28.668 16 40.001c0 16 -5.5 29.333 -16.5 40s-25.167 16 -42.5 16c-16.667 0 -30.667 -5.33301 -42 -16s-17 -23.667 -17 -39c-2.66699 -24.667 9.33301 -41.834 36 -51.501s48.667 -6.16699 66 10.5z" />
    <glyph glyph-name="Euro" unicode="&#x20ac;" horiz-adv-x="847" 
d="M461 144c44 0 80.835 12 110.502 36s49.167 58 58.5 102h173c-10.667 -88.667 -47 -160.334 -109 -215.001c-62 -54 -139.333 -81 -232 -81c-81.333 0 -152.333 21 -213 63s-103 98.333 -127 169h-87v89h68c-0.666992 4.66699 -1 15.667 -1 33v18h-67v89h82
c22 74.667 64.333 134.334 127 179.001c63.333 45.333 136 68 218 68c93.333 0 170.666 -27.333 231.999 -82c62 -54 98.333 -125.333 109 -214h-173c-9.33301 44 -28.833 78 -58.5 102s-66.5 36 -110.5 36c-72 0 -125.667 -29.667 -161 -89h229l-23 -89h-232l-1 -18
c0 -2 0.666992 -13 2 -33h219l-23 -89h-161c35.333 -49.333 85.666 -74 150.999 -74z" />
    <glyph glyph-name="uni2116" unicode="&#x2116;" horiz-adv-x="1369" 
d="M786 434c0 73.333 24.667 134.001 74 182.001c50 48 113 72 189 72c76.667 0 139.334 -24 188.001 -72c50 -48 75 -108.667 75 -182c0 -74.667 -25 -136.334 -75 -185.001c-48.667 -48.667 -111.334 -73 -188.001 -73s-139.667 24.333 -189 73
c-49.333 49.333 -74 111 -74 185zM517 680.001h169v-680h-131l-326 373v-373h-169v680h129l328 -383v383zM939 433.001c0 -32.667 10.5 -60.334 31.5 -83.001s47.167 -34 78.5 -34s57.333 11.333 78 34s31 50.334 31 83.001s-10.167 59.834 -30.5 81.501
s-46.5 32.5 -78.5 32.5s-58.333 -10.833 -79 -32.5s-31 -48.834 -31 -81.501zM808 120.001h482v-119h-482v119z" />
    <glyph glyph-name="uni2117" unicode="&#x2117;" horiz-adv-x="815" 
d="M151 593c71.333 68 157 102 257 102s185.667 -34 257 -102s107 -152.333 107 -253s-35.667 -185 -107 -253s-157 -102 -257 -102s-185.667 34 -257 102s-107 152.333 -107 253s35.667 185 107 253zM407 605c-72.667 0 -135.667 -25.667 -189 -77s-80 -114 -80 -188
s26.667 -136.667 80 -188s116.333 -77 189 -77c73.333 0 136.666 25.667 189.999 77s80 114 80 188s-26.667 136.667 -80 188s-116.666 77 -189.999 77zM295 501l138 -0.000976562c38.667 0 69.667 -10.333 93 -31s35 -47.667 35 -81s-11.667 -59.666 -35 -78.999
s-55 -29 -95 -29h-49v-83h-87v303zM382 423.999v-70h47c27.333 0 41 12 41 36c0 10 -3.66699 18.167 -11 24.5s-17.333 9.5 -30 9.5h-47z" />
    <glyph glyph-name="trademark" unicode="&#x2122;" horiz-adv-x="703" 
d="M294 679v-80h-91v-212h-86v212h-90v80h267zM662 679v-292h-86v131l-64 -94v-1h-45v1l-65 95l1 -132h-85v292h64l108 -149l107 149h65z" />
    <glyph glyph-name="oneeighth" unicode="&#x215b;" horiz-adv-x="976" 
d="M25 269v97h102v192l-97 -27v103l141 46h67v-314h98v-97h-311zM766 680l-454 -680h-108l454 680h108zM882 218c41.333 -23.333 62 -56 62 -98c0 -40 -15.167 -71.5 -45.5 -94.5s-72.5 -34.5 -126.5 -34.5s-96.333 11.5 -127 34.5s-46 54.5 -46 94.5
c0 42 20.667 74.667 62 98c-30 21.333 -45 48.333 -45 81c0 36 14.5 65.167 43.5 87.5s66.5 33.5 112.5 33.5s83.333 -11.167 112 -33.5s43 -51.5 43 -87.5c0 -35.333 -15 -62.333 -45 -81zM805 322c-8.66699 8 -19.667 12 -33 12s-24.333 -4 -33 -12
c-8.66699 -7.33301 -13 -17.333 -13 -30s4.33301 -23 13 -31s19.667 -12 33 -12s24.333 4 33 12s13 18.333 13 31s-4.33301 22.667 -13 30zM736 96c9.33301 -8 21.333 -12.002 36 -12.002s26.334 4 35.001 12c9.33301 8.66699 14 19.334 14 32.001
s-4.66699 23.334 -14 32.001c-8.66699 8 -20.334 12 -35.001 12s-26.667 -4 -36 -12s-14 -18.667 -14 -32s4.66699 -24 14 -32z" />
    <glyph glyph-name="threeeighths" unicode="&#x215c;" horiz-adv-x="959" 
d="M194 263c-46.667 0 -84.168 11.999 -112.501 35.999s-45.166 57.333 -50.499 100h112c7.33301 -26 25 -39 53 -39c14 0 25.333 3.33301 34 10s13 15.334 13 26.001c0 24 -19 36 -57 36h-33v88h33c33.333 0 50 12.333 50 37c0 24 -14 36 -42 36
c-25.333 0 -39.333 -13.333 -42 -40h-112c2.66699 42.667 17.334 76 44.001 100s62.667 36 108 36c46 0 82.667 -11.833 110 -35.5s41 -54.834 41 -93.501c0 -33.333 -12.333 -60.333 -37 -81c32.667 -18.667 49 -47 49 -85c0 -37.333 -15 -68.666 -45 -93.999
c-28.667 -24.667 -67.334 -37 -116.001 -37zM748.999 679.999l-454 -680h-109l454 680h109zM864.999 217.999c41.333 -23.333 62 -56 62 -98c0 -40 -15.167 -71.5 -45.5 -94.5s-72.5 -34.5 -126.5 -34.5s-96.333 11.5 -127 34.5s-46 54.5 -46 94.5c0 42 20.667 74.667 62 98
c-30 18.667 -45 45.667 -45 81c0 36 14.5 65.167 43.5 87.5s66.5 33.5 112.5 33.5s83.333 -11.167 112 -33.5s43 -51.5 43 -87.5c0 -35.333 -15 -62.333 -45 -81zM754.999 248.999c18.667 -0.666992 32 6.5 40 21.5s8 29.833 0 44.5s-21.333 21 -40 19
c-13.333 0 -24.5 -3.83301 -33.5 -11.5s-13.5 -17.834 -13.5 -30.501s4.33301 -22.667 13 -30s20 -11.666 34 -12.999zM718.999 95.999c9.33301 -8 21.333 -12.002 36 -12.002s26.334 4 35.001 12c9.33301 8.66699 14 19.334 14 32.001s-4.66699 23.334 -14 32.001
c-8.66699 8 -20.334 12 -35.001 12s-26.667 -4 -36 -12s-14 -18.667 -14 -32s4.66699 -24 14 -32z" />
    <glyph glyph-name="fiveeighths" unicode="&#x215d;" horiz-adv-x="965" 
d="M359 404c0 -42.667 -14.8311 -77.332 -44.498 -103.999s-68.834 -40 -117.501 -40c-46.667 0 -84.834 12 -114.501 36s-46.5 56 -50.5 96h113c7.33301 -24 25 -36 53 -36c15.333 0 27.833 4.16699 37.5 12.5s14.5 19.166 14.5 32.499c0 30.667 -18 46 -54 46h-136v233
h280v-99h-171v-43h40c48 0 85 -12 111 -36s39 -56.667 39 -98zM756.002 680.002l-454 -680h-109l454 680h109zM872.002 218.002c41.333 -23.333 62 -56.001 62 -98.001c0 -40 -15.333 -71.5 -46 -94.5s-73 -34.5 -127 -34.5s-96.167 11.5 -126.5 34.5s-45.5 54.5 -45.5 94.5
c0 42.667 20.333 75.334 61 98.001c-30 18.667 -45 45.667 -45 81c0 36 14.5 65.167 43.5 87.5s66.5 33.5 112.5 33.5s83.5 -11.167 112.5 -33.5s43.5 -51.5 43.5 -87.5c0 -35.333 -15 -62.333 -45 -81zM794.002 322.001c-8.66699 8 -19.667 12 -33 12s-24.333 -4 -33 -12
c-8.66699 -7.33301 -13 -17.333 -13 -30s4.33301 -23 13 -31s19.667 -12 33 -12s24.333 4 33 12s13 18.333 13 31s-4.33301 22.667 -13 30zM725.002 96.001c9.33301 -8.66699 21.333 -12.832 36 -12.499s26.667 4.5 36 12.5s14 18.667 14 32s-4.66699 24 -14 32
s-21.333 12.167 -36 12.5s-26.667 -3.83398 -36 -12.501c-8.66699 -8 -13 -18.667 -13 -32s4.33301 -24 13 -32z" />
    <glyph glyph-name="seveneighths" unicode="&#x215e;" horiz-adv-x="875" 
d="M57 269l140 304h-167v107h313v-67l-155 -344h-131zM666 680l-454 -680h-109l454 680h109zM782 218c41.333 -23.333 62 -56.001 62 -98.001c0 -40 -15.333 -71.5 -46 -94.5s-73 -34.5 -127 -34.5s-96.167 11.5 -126.5 34.5s-45.5 54.5 -45.5 94.5
c0 42.667 20.333 75.334 61 98.001c-30 18.667 -45 45.667 -45 81c0 36 14.5 65.167 43.5 87.5s66.5 33.5 112.5 33.5s83.5 -11.167 112.5 -33.5s43.5 -51.5 43.5 -87.5c0 -35.333 -15 -62.333 -45 -81zM704 321.999c-8.66699 8 -19.667 12 -33 12s-24.333 -4 -33 -12
c-8.66699 -7.33301 -13 -17.333 -13 -30s4.33301 -23 13 -31s19.667 -12 33 -12s24.333 4 33 12s13 18.333 13 31s-4.33301 22.667 -13 30zM635 95.999c9.33301 -8.66699 21.333 -12.832 36 -12.499s26.667 4.5 36 12.5s14 18.667 14 32s-4.66699 24 -14 32
s-21.333 12.167 -36 12.5s-26.667 -3.83398 -36 -12.501c-8.66699 -8 -13 -18.667 -13 -32s4.33301 -24 13 -32z" />
    <glyph glyph-name="arrowleft" unicode="&#x2190;" horiz-adv-x="766" 
d="M303 267l177 -173l-103 -99l-343 346l343 346l103 -99l-176 -173h422v-148h-423z" />
    <glyph glyph-name="arrowup" unicode="&#x2191;" horiz-adv-x="783" 
d="M318 423l-173 -177l-100 103l346 343l347 -343l-100 -103l-172 176v-422h-148v423z" />
    <glyph glyph-name="arrowright" unicode="&#x2192;" horiz-adv-x="766" 
d="M40 415h422l-176 173l103 99l343 -346l-343 -346l-103 99l177 173h-423v148z" />
    <glyph glyph-name="arrowdown" unicode="&#x2193;" horiz-adv-x="783" 
d="M466 680v-422l172 176l100 -103l-347 -343l-346 343l100 103l173 -177v423h148z" />
    <glyph glyph-name="arrowupleft" unicode="&#x2196;" horiz-adv-x="796" 
d="M667 -2l-435 435v-243h-142v490h490v-142h-244l435 -436z" />
    <glyph glyph-name="arrowupright" unicode="&#x2197;" horiz-adv-x="796" 
d="M460 538h-244v142h490v-490h-142v243l-435 -435l-104 104z" />
    <glyph glyph-name="arrowdownright" unicode="&#x2198;" horiz-adv-x="796" 
d="M129 682l435 -435v243h142v-490h-490v142h244l-435 436z" />
    <glyph glyph-name="arrowdownleft" unicode="&#x2199;" horiz-adv-x="796" 
d="M336 142h244v-142h-490v490h142v-243l435 435l104 -104z" />
    <glyph glyph-name="minus" unicode="&#x2212;" horiz-adv-x="669" 
d="M97 392h475v-128h-475v128z" />
    <glyph glyph-name="fi" unicode="&#xfb01;" horiz-adv-x="734" 
d="M676 485v-485h-162v346h-230v-346h-162v346h-119v139h119v38c0 75.333 21.333 135.333 64 180s97.667 67 165 67c42 0 83.333 -4.33301 124 -13l78 -18l-27 -136c-68.667 13.333 -118 20 -148 20s-53.167 -9 -69.5 -27s-24.5 -43.333 -24.5 -76v-35h392z" />
    <glyph glyph-name="fl" unicode="&#xfb02;" horiz-adv-x="728" 
d="M122 485l-0.000976562 58c0 68.667 19.667 123.667 59 165c40 41.333 91.333 62 154 62c40.667 0 83.667 -6 129 -18l-22 -135c-27.333 6 -52 9 -74 9c-25.333 0 -45.666 -7.16699 -60.999 -21.5s-23 -33.5 -23 -57.5v-62h148v-139h-148v-346h-162v346h-119v139h119z
M672.999 710v-710h-162v710h162z" />
    <glyph glyph-name=".null" horiz-adv-x="0" 
 />
    <glyph glyph-name="nonmarkingreturn" horiz-adv-x="333" 
 />
    <glyph glyph-name="NULL" horiz-adv-x="0" 
 />
    <glyph glyph-name="CR" horiz-adv-x="333" 
 />
    <glyph glyph-name="R.ss02" horiz-adv-x="701" 
d="M255 197h-25.999v-197h-169v680h294c87.333 0 156.666 -21.667 207.999 -65s77 -101.333 77 -174c0 -56 -15.833 -104.333 -47.5 -145s-75.5 -69 -131.5 -85l224 -211h-220zM229.001 531v-181.999h122c36 0 64.833 8.33301 86.5 25s32.5 39 32.5 67
c0 27.333 -10.833 49.166 -32.5 65.499s-50.5 24.5 -86.5 24.5h-122z" />
    <glyph glyph-name="Racute.ss02" horiz-adv-x="701" 
d="M405 750h-151l80 160h171zM255 197h-25.999v-197h-169v680h294c87.333 0 156.666 -21.667 207.999 -65s77 -101.333 77 -174c0 -56 -15.667 -104.333 -47 -145s-75.333 -69 -132 -85l224 -211h-220zM229.001 531v-181.999h122c36 0 65 8.33301 87 25s33 39 33 67
c0 27.333 -11 49.166 -33 65.499s-51 24.5 -87 24.5h-122z" />
    <glyph glyph-name="Rcaron.ss02" horiz-adv-x="701" 
d="M249 740l-116 160h142l53 -66l51 66h142l-116 -160h-156zM255 197h-25.999v-197h-169v680h294c87.333 0 156.666 -21.667 207.999 -65s77 -101.333 77 -174c0 -56 -15.667 -104.333 -47 -145s-75.333 -69 -132 -85l224 -211h-220zM229.001 531v-181.999h122
c36 0 65 8.33301 87 25s33 39 33 67c0 27.333 -11 49.166 -33 65.499s-51 24.5 -87 24.5h-122z" />
    <glyph glyph-name="Rcommaaccent.ss02" horiz-adv-x="701" 
d="M684 0h-219.999l-209 197h-26v-197h-169v680h294c87.333 0 156.666 -21.667 207.999 -65s77 -101.333 77 -174c0 -56 -15.667 -104.333 -47 -145s-75.333 -69 -132 -85zM229.001 531v-181.999h122c36 0 65 8.33301 87 25s33 39 33 67c0 27.333 -11 49.166 -33 65.499
s-51 24.5 -87 24.5h-122zM429.001 -123.999c0 -16 -4.33203 -31.667 -12.999 -47c-8 -14 -30 -48.333 -66 -103h-83l41 83c-32 12.667 -48 35 -48 67c0 22 8.33301 40.833 25 56.5s36.667 23.5 60 23.5s43.166 -7.83301 59.499 -23.5s24.5 -34.5 24.5 -56.5z" />
    <glyph glyph-name="Q.ss03" horiz-adv-x="808" 
d="M404 694c102.667 0 188.334 -34.333 257.001 -103c69.333 -68 104 -151.667 104 -251c0 -98.667 -34.667 -182.667 -104 -252c-68.667 -68 -154.334 -102 -257.001 -102s-188.334 34 -257.001 102c-68.667 68.667 -103 152.667 -103 252s34.333 183 103 251
c68.667 68.667 154.334 103 257.001 103zM269 200c36 -38 81 -57 135 -57s99 19 135 57c36 38.667 54 85.334 54 140.001s-18 101 -54 139c-36 38.667 -81 58 -135 58s-99 -19.333 -135 -58c-36 -38 -54 -84.333 -54 -139s18 -101.334 54 -140.001zM725 -93l-17 -143
c-107.333 13.333 -218 36.333 -332 69l13 113z" />
    <glyph glyph-name="i.loclTRK" horiz-adv-x="279" 
d="M139 561c-26.667 0 -49.167 8.66699 -67.5 26s-27.5 39 -27.5 65s9.16699 47.833 27.5 65.5s40.833 26.5 67.5 26.5c26 0 48.333 -8.83301 67 -26.5s28 -39.5 28 -65.5s-9.33301 -47.667 -28 -65s-41 -26 -67 -26zM221 485v-485h-162v485h162z" />
    <glyph glyph-name="germandbls.case" horiz-adv-x="1323" 
d="M337 695c63.333 0 123.002 -14.667 179.002 -44c30.667 -16.667 56 -40.667 76 -72s32 -68 36 -110h-170c-10 57.333 -46.667 86 -110 86c-30 0 -53.667 -6 -71 -18s-26 -28.667 -26 -50c0 -17.333 6.16699 -30.833 18.5 -40.5s32.166 -17.5 59.499 -23.5l95 -22
c70 -16 121.667 -38.833 155 -68.5s50 -71.5 50 -125.5c0 -68 -25.667 -122 -77 -162c-51.333 -39.333 -119.666 -59 -204.999 -59c-83.333 0 -153.333 20 -210 60c-58 41.333 -90.333 101.333 -97 180h169c5.33301 -30 20.5 -53.5 45.5 -70.5s57.5 -25.5 97.5 -25.5
c31.333 0 55.166 5.33301 71.499 16s24.5 25.334 24.5 44.001c0 27.333 -24 46.666 -72 57.999l-112 25c-67.333 15.333 -117 39 -149 71s-48 75 -48 129c0 67.333 24.667 121 74 161c49.333 40.667 114.666 61 195.999 61zM983.002 695
c63.333 0 123.002 -14.667 179.002 -44c30.667 -16.667 56 -40.667 76 -72s32 -68 36 -110h-170c-10 57.333 -46.667 86 -110 86c-30 0 -53.667 -6 -71 -18s-26 -28.667 -26 -50c0 -17.333 6.16699 -30.833 18.5 -40.5s32.166 -17.5 59.499 -23.5l95 -22
c70 -16 121.667 -38.833 155 -68.5s50 -71.5 50 -125.5c0 -68 -25.667 -122 -77 -162c-51.333 -39.333 -119.666 -59 -204.999 -59c-83.333 0 -153.333 20 -210 60c-58 41.333 -90.333 101.333 -97 180h169c5.33301 -30 20.5 -53.5 45.5 -70.5s57.5 -25.5 97.5 -25.5
c31.333 0 55.166 5.33301 71.499 16s24.5 25.334 24.5 44.001c0 27.333 -24 46.666 -72 57.999l-112 25c-67.333 15.333 -117 39 -149 71s-48 75 -48 129c0 67.333 24.667 121 74 161c49.333 40.667 114.666 61 195.999 61z" />
    <glyph glyph-name="l.ss01" horiz-adv-x="382" 
d="M218 710v-523c0 -20 4.16699 -34.333 12.5 -43s22.166 -13 41.499 -13c18.667 0 41.334 3.33301 68.001 10l18 -136c-48 -13.333 -88.333 -20 -121 -20c-57.333 0 -102 16.167 -134 48.5s-48 77.5 -48 135.5v541h163z" />
    <glyph glyph-name="lacute.ss01" horiz-adv-x="382" 
d="M312 942l-100 -160h-151l80 160h171zM217 710l-0.000976562 -523c0 -37.333 18.333 -56 55 -56c18.667 0 41.334 3.33301 68.001 10l18 -136c-48 -13.333 -88.667 -20 -122 -20c-57.333 0 -101.833 16.167 -133.5 48.5s-47.5 77.5 -47.5 135.5v541h162z" />
    <glyph glyph-name="lcaron.ss01" horiz-adv-x="382" 
d="M217 710l-0.000976562 -523c0 -37.333 18.333 -56 55 -56c18.667 0 41.334 3.33301 68.001 10l18 -136c-48 -13.333 -88.667 -20 -122 -20c-57.333 0 -101.833 16.167 -133.5 48.5s-47.5 77.5 -47.5 135.5v541h162zM427.999 710l-39 -204h-115l6 204h148z" />
    <glyph glyph-name="lcommaaccent.ss01" horiz-adv-x="382" 
d="M217 710l-0.000976562 -523c0 -37.333 18.333 -56 55 -56c18.667 0 41.334 3.33301 68.001 10l18 -136c-48 -13.333 -88.667 -20 -122 -20c-57.333 0 -101.833 16.167 -133.5 48.5s-47.5 77.5 -47.5 135.5v541h162zM126.999 -274l41.001 83c-32 12.667 -48 35 -48 67
c0 22 8.33301 40.833 25 56.5s36.667 23.5 60 23.5s43.166 -7.83301 59.499 -23.5s24.5 -34.5 24.5 -56.5c0 -16 -4.33301 -31.667 -13 -47c-8 -14 -30 -48.333 -66 -103h-83z" />
    <glyph glyph-name="ldot.ss01" horiz-adv-x="464" 
d="M217 710l-0.000976562 -523c0 -37.333 18.333 -56 55 -56c18.667 0 41.334 3.33301 68.001 10l18 -136c-48 -13.333 -88.667 -20 -122 -20c-57.333 0 -101.833 16.167 -133.5 48.5s-47.5 77.5 -47.5 135.5v541h162zM409.999 281c-17.333 -16.667 -38.666 -25 -63.999 -25
s-47 8.33301 -65 25c-18.667 17.333 -27.834 38.166 -27.501 62.499s9.5 45.166 27.5 62.499c18.667 17.333 40.334 26 65.001 26s46 -8.66699 64 -26c17.333 -17.333 26.166 -38.166 26.499 -62.499s-8.5 -45.166 -26.5 -62.499z" />
    <glyph glyph-name="lslash.ss01" horiz-adv-x="382" 
d="M340 141l17.999 -136c-48 -13.333 -88.667 -20 -122 -20c-57.333 0 -101.833 16.167 -133.5 48.5s-47.5 77.5 -47.5 135.5v88l-53 -19v147l53 19v306h162v-247l61 22v-146l-61 -22v-130c0 -37.333 18.333 -56 55 -56c18.667 0 41.334 3.33301 68.001 10z" />
    <glyph glyph-name="y.ss04" horiz-adv-x="611" 
d="M555 485v-477c0 -74.667 -23.333 -133.334 -70 -176.001s-108.667 -64 -186 -64c-74.667 0 -135.334 19.333 -182.001 58c-47.333 38 -73 88.667 -77 152h160c3.33301 -22 13.833 -39.667 31.5 -53s40.167 -20 67.5 -20c28.667 0 51.5 8.83301 68.5 26.5
s25.5 42.167 25.5 73.5v60c-41.333 -31.333 -85.666 -47 -132.999 -47c-62 0 -112 20 -150 60s-57 94.333 -57 163v244h163v-218c0 -33.333 7.66699 -58.666 23 -75.999s37 -26 65 -26c31.333 0 61 16 89 48v272h162z" />
    <glyph glyph-name="yacute.ss04" horiz-adv-x="611" 
d="M382 557h-151l80 160h171zM555 485v-477c0 -74.667 -23.333 -133.334 -70 -176.001s-108.667 -64 -186 -64c-74.667 0 -135.334 19.333 -182.001 58c-47.333 38 -73 88.667 -77 152h160c3.33301 -22 13.833 -39.667 31.5 -53s40.167 -20 67.5 -20
c28.667 0 51.5 8.83301 68.5 26.5s25.5 42.167 25.5 73.5v60c-41.333 -31.333 -85.666 -47 -132.999 -47c-62 0 -112 20 -150 60s-57 94.333 -57 163v244h162v-218c0 -33.333 7.83301 -58.666 23.5 -75.999s37.5 -26 65.5 -26c31.333 0 61 16 89 48v272h162z" />
    <glyph glyph-name="ycircumflex.ss04" horiz-adv-x="611" 
d="M253 550h-141l117 164h153l116 -164h-141l-51 66zM555 485v-477c0 -74.667 -23.333 -133.334 -70 -176.001s-108.667 -64 -186 -64c-74.667 0 -135.334 19.333 -182.001 58c-47.333 38 -73 88.667 -77 152h160c3.33301 -22 13.833 -39.667 31.5 -53s40.167 -20 67.5 -20
c28.667 0 51.5 8.83301 68.5 26.5s25.5 42.167 25.5 73.5v60c-41.333 -31.333 -85.666 -47 -132.999 -47c-62 0 -112 20 -150 60s-57 94.333 -57 163v244h162v-218c0 -33.333 7.83301 -58.666 23.5 -75.999s37.5 -26 65.5 -26c31.333 0 61 16 89 48v272h162z" />
    <glyph glyph-name="ydieresis.ss04" horiz-adv-x="611" 
d="M255 575c-17.333 -16.667 -38.666 -25 -63.999 -25s-47 8.33301 -65 25c-18.667 17.333 -27.834 38.166 -27.501 62.499s9.5 45.166 27.5 62.499c18.667 17.333 40.334 26 65.001 26s46 -8.66699 64 -26c17.333 -17.333 26.166 -38.166 26.499 -62.499
s-8.5 -45.166 -26.5 -62.499zM484 575c-17.333 -16.667 -38.666 -25 -63.999 -25s-47 8.33301 -65 25c-18.667 17.333 -27.834 38.166 -27.501 62.499s9.5 45.166 27.5 62.499c18.667 17.333 40.334 26 65.001 26s46 -8.66699 64 -26
c17.333 -17.333 26.166 -38.166 26.499 -62.499s-8.5 -45.166 -26.5 -62.499zM555 485v-477c0 -74.667 -23.333 -133.334 -70 -176.001s-108.667 -64 -186 -64c-74.667 0 -135.334 19.333 -182.001 58c-47.333 38 -73 88.667 -77 152h160
c3.33301 -22 13.833 -39.667 31.5 -53s40.167 -20 67.5 -20c28.667 0 51.5 8.83301 68.5 26.5s25.5 42.167 25.5 73.5v60c-41.333 -31.333 -85.666 -47 -132.999 -47c-62 0 -112 20 -150 60s-57 94.333 -57 163v244h162v-218c0 -33.333 7.83301 -58.666 23.5 -75.999
s37.5 -26 65.5 -26c31.333 0 61 16 89 48v272h162z" />
    <glyph glyph-name="ygrave.ss04" horiz-adv-x="611" 
d="M236 557l-100 160h171l80 -160h-151zM555 485v-477c0 -74.667 -23.333 -133.334 -70 -176.001s-108.667 -64 -186 -64c-74.667 0 -135.334 19.333 -182.001 58c-47.333 38 -73 88.667 -77 152h160c3.33301 -22 13.833 -39.667 31.5 -53s40.167 -20 67.5 -20
c28.667 0 51.5 8.83301 68.5 26.5s25.5 42.167 25.5 73.5v60c-41.333 -31.333 -85.666 -47 -132.999 -47c-62 0 -112 20 -150 60s-57 94.333 -57 163v244h162v-218c0 -33.333 7.83301 -58.666 23.5 -75.999s37.5 -26 65.5 -26c31.333 0 61 16 89 48v272h162z" />
    <glyph glyph-name="a.ss06" horiz-adv-x="555" 
d="M278 500c70 0 125.335 -19.001 166.002 -57.001c41.333 -37.333 62 -88.333 62 -153v-290h-152v21c-41.333 -20 -84.333 -30 -129 -30c-60.667 0 -108.667 13.833 -144 41.5s-53 65.834 -53 114.501c0 45.333 17.167 80.5 51.5 105.5s81.833 37.5 142.5 37.5h132
c0 24.667 -6.66699 44.667 -20 60s-32.333 23 -57 23c-20.667 0 -37.834 -5 -51.501 -15s-21.5 -23.667 -23.5 -41h-155c3.33301 60 26.666 105.333 69.999 136c45.333 31.333 99 47 161 47zM253.002 113.999c34 0 67.667 10 101 30v51h-123c-33.333 0 -50 -12 -50 -36
c0 -30 24 -45 72 -45z" />
    <glyph glyph-name="aacute.ss06" horiz-adv-x="555" 
d="M357 557h-151l80 160h171zM277 500c70 0 125.503 -18.833 166.503 -56.5s61.5 -88.834 61.5 -153.501v-290h-151v21c-41.333 -20 -84.333 -30 -129 -30c-60.667 0 -108.667 13.833 -144 41.5s-53 65.834 -53 114.501c0 45.333 17.167 80.5 51.5 105.5
s81.833 37.5 142.5 37.5h132c0 24.667 -6.66699 44.667 -20 60s-32.333 23 -57 23c-20.667 0 -37.834 -5 -51.501 -15s-21.834 -23.667 -24.501 -41h-154c3.33301 60 26.666 105.333 69.999 136c44.667 31.333 98 47 160 47zM253.003 114c34 0 67.667 10 101 30v51h-123
c-34 0 -51 -12 -51 -36c0 -30 24.333 -45 73 -45z" />
    <glyph glyph-name="abreve.ss06" horiz-adv-x="555" 
d="M105 713h114.999c0 -21.333 5.33301 -37.5 16 -48.5s25.334 -16.5 44.001 -16.5c18 0 32.5 5.66699 43.5 17s16.5 27.333 16.5 48h115c0 -52.667 -15.833 -94 -47.5 -124s-74.167 -45 -127.5 -45s-95.833 15 -127.5 45s-47.5 71.333 -47.5 124zM276.999 500
c70 0 125.503 -18.833 166.503 -56.5s61.5 -88.834 61.5 -153.501v-290h-151v21c-41.333 -20 -84.333 -30 -129 -30c-60.667 0 -108.667 13.833 -144 41.5s-53 65.834 -53 114.501c0 45.333 17.167 80.5 51.5 105.5s81.833 37.5 142.5 37.5h132
c0 24.667 -6.66699 44.667 -20 60s-32.333 23 -57 23c-20.667 0 -37.834 -5 -51.501 -15s-21.834 -23.667 -24.501 -41h-154c3.33301 60 26.666 105.333 69.999 136c44.667 31.333 98 47 160 47zM253.002 114c34 0 67.667 10 101 30v51h-123c-34 0 -51 -12 -51 -36
c0 -30 24.333 -45 73 -45z" />
    <glyph glyph-name="acaron.ss06" horiz-adv-x="555" 
d="M201 551l-116 160h142l53 -66l51 66h142l-116 -160h-156zM277 500c70 0 125.503 -18.833 166.503 -56.5s61.5 -88.834 61.5 -153.501v-290h-151v21c-41.333 -20 -84.333 -30 -129 -30c-60.667 0 -108.667 13.833 -144 41.5s-53 65.834 -53 114.501
c0 45.333 17.167 80.5 51.5 105.5s81.833 37.5 142.5 37.5h132c0 24.667 -6.66699 44.667 -20 60s-32.333 23 -57 23c-20.667 0 -37.834 -5 -51.501 -15s-21.834 -23.667 -24.501 -41h-154c3.33301 60 26.666 105.333 69.999 136c44.667 31.333 98 47 160 47zM253.003 114
c34 0 67.667 10 101 30v51h-123c-34 0 -51 -12 -51 -36c0 -30 24.333 -45 73 -45z" />
    <glyph glyph-name="acircumflex.ss06" horiz-adv-x="555" 
d="M227 550h-141l117 164h153l116 -164h-141l-51 66zM277 500c70 0 125.503 -18.833 166.503 -56.5s61.5 -88.834 61.5 -153.501v-290h-151v21c-41.333 -20 -84.333 -30 -129 -30c-60.667 0 -108.667 13.833 -144 41.5s-53 65.834 -53 114.501
c0 45.333 17.167 80.5 51.5 105.5s81.833 37.5 142.5 37.5h132c0 24.667 -6.66699 44.667 -20 60s-32.333 23 -57 23c-20.667 0 -37.834 -5 -51.501 -15s-21.834 -23.667 -24.501 -41h-154c3.33301 60 26.666 105.333 69.999 136c44.667 31.333 98 47 160 47zM253.003 114
c34 0 67.667 10 101 30v51h-123c-34 0 -51 -12 -51 -36c0 -30 24.333 -45 73 -45z" />
    <glyph glyph-name="adieresis.ss06" horiz-adv-x="555" 
d="M230 575c-17.333 -16.667 -38.666 -25 -63.999 -25s-47 8.33301 -65 25c-18.667 17.333 -27.834 38.166 -27.501 62.499s9.5 45.166 27.5 62.499c18.667 17.333 40.334 26 65.001 26s46 -8.66699 64 -26c17.333 -17.333 26.166 -38.166 26.499 -62.499
s-8.5 -45.166 -26.5 -62.499zM459 575c-17.333 -16.667 -38.666 -25 -63.999 -25s-47 8.33301 -65 25c-18.667 17.333 -27.834 38.166 -27.501 62.499s9.5 45.166 27.5 62.499c18.667 17.333 40.334 26 65.001 26s46 -8.66699 64 -26
c17.333 -17.333 26.166 -38.166 26.499 -62.499s-8.5 -45.166 -26.5 -62.499zM277 500c70 0 125.503 -18.833 166.503 -56.5s61.5 -88.834 61.5 -153.501v-290h-151v21c-41.333 -20 -84.333 -30 -129 -30c-60.667 0 -108.667 13.833 -144 41.5s-53 65.834 -53 114.501
c0 45.333 17.167 80.5 51.5 105.5s81.833 37.5 142.5 37.5h132c0 24.667 -6.66699 44.667 -20 60s-32.333 23 -57 23c-20.667 0 -37.834 -5 -51.501 -15s-21.834 -23.667 -24.501 -41h-154c3.33301 60 26.666 105.333 69.999 136c44.667 31.333 98 47 160 47zM253.003 114
c34 0 67.667 10 101 30v51h-123c-34 0 -51 -12 -51 -36c0 -30 24.333 -45 73 -45z" />
    <glyph glyph-name="agrave.ss06" horiz-adv-x="555" 
d="M210 557l-100 160h171l80 -160h-151zM277 500c70 0 125.503 -18.833 166.503 -56.5s61.5 -88.834 61.5 -153.501v-290h-151v21c-41.333 -20 -84.333 -30 -129 -30c-60.667 0 -108.667 13.833 -144 41.5s-53 65.834 -53 114.501c0 45.333 17.167 80.5 51.5 105.5
s81.833 37.5 142.5 37.5h132c0 24.667 -6.66699 44.667 -20 60s-32.333 23 -57 23c-20.667 0 -37.834 -5 -51.501 -15s-21.834 -23.667 -24.501 -41h-154c3.33301 60 26.666 105.333 69.999 136c44.667 31.333 98 47 160 47zM253.003 114c34 0 67.667 10 101 30v51h-123
c-34 0 -51 -12 -51 -36c0 -30 24.333 -45 73 -45z" />
    <glyph glyph-name="amacron.ss06" horiz-adv-x="555" 
d="M423 570h-286v124h286v-124zM277 500c70 0 125.503 -18.833 166.503 -56.5s61.5 -88.834 61.5 -153.501v-290h-151v21c-41.333 -20 -84.333 -30 -129 -30c-60.667 0 -108.667 13.833 -144 41.5s-53 65.834 -53 114.501c0 45.333 17.167 80.5 51.5 105.5
s81.833 37.5 142.5 37.5h132c0 24.667 -6.66699 44.667 -20 60s-32.333 23 -57 23c-20.667 0 -37.834 -5 -51.501 -15s-21.834 -23.667 -24.501 -41h-154c3.33301 60 26.666 105.333 69.999 136c44.667 31.333 98 47 160 47zM253.003 114c34 0 67.667 10 101 30v51h-123
c-34 0 -51 -12 -51 -36c0 -30 24.333 -45 73 -45z" />
    <glyph glyph-name="aogonek.ss06" horiz-adv-x="555" 
d="M539 -61l15.002 -120c-20 -9.33301 -47 -14 -81 -14c-48.667 0 -88.167 11.5 -118.5 34.5s-45.5 53.833 -45.5 92.5c0 31.333 15 59 45 83v6c-41.333 -20 -84.333 -30 -129 -30c-60.667 0 -108.667 13.833 -144 41.5s-53 65.834 -53 114.501
c0 45.333 17.167 80.5 51.5 105.5s81.833 37.5 142.5 37.5h132c0 24.667 -6.66699 44.667 -20 60s-32.333 23 -57 23c-20.667 0 -37.834 -5 -51.501 -15s-21.834 -23.667 -24.501 -41h-154c3.33301 60 26.666 105.333 69.999 136c44.667 31.333 98 47 160 47
c70 0 125.5 -18.833 166.5 -56.5s61.5 -88.834 61.5 -153.501v-290h-3c-40 -8 -60 -21.333 -60 -40s16.667 -28 50 -28c14.667 0 30.334 2.33301 47.001 7zM253.002 114c34 0 67.667 10 101 30v51h-123c-34 0 -51 -12 -51 -36c0 -30 24.333 -45 73 -45z" />
    <glyph glyph-name="aring.ss06" horiz-adv-x="555" 
d="M369 580c-23.333 -21.333 -53 -32.001 -89 -32.001c-36.667 0 -66.667 10.667 -90 32c-22.667 20.667 -34 48.667 -34 84c0 34.667 11.333 62.334 34 83.001c23.333 21.333 53.333 32 90 32c36 0 65.667 -10.667 89 -32s35 -49 35 -83c0 -34.667 -11.667 -62.667 -35 -84
zM236 663.999c-2 -18 4.83301 -30.833 20.5 -38.5s31.334 -7.66699 47.001 0s22.5 20.5 20.5 38.5c2 17.333 -4.83301 29.666 -20.5 36.999s-31.334 7.33301 -47.001 0s-22.5 -19.666 -20.5 -36.999zM277 499.999c70 0 125.503 -18.833 166.503 -56.5
s61.5 -88.834 61.5 -153.501v-290h-151v21c-41.333 -20 -84.333 -30 -129 -30c-60.667 0 -108.667 13.833 -144 41.5s-53 65.834 -53 114.501c0 45.333 17.167 80.5 51.5 105.5s81.833 37.5 142.5 37.5h132c0 24.667 -6.66699 44.667 -20 60s-32.333 23 -57 23
c-20.667 0 -37.834 -5 -51.501 -15s-21.834 -23.667 -24.501 -41h-154c3.33301 60 26.666 105.333 69.999 136c44.667 31.333 98 47 160 47zM253.003 113.999c34 0 67.667 10 101 30v51h-123c-34 0 -51 -12 -51 -36c0 -30 24.333 -45 73 -45z" />
    <glyph glyph-name="atilde.ss06" horiz-adv-x="555" 
d="M287 573l-38 22c-26.667 15.333 -40 7.33301 -40 -24h-119c0 34.667 6.5 63.667 19.5 87s29.333 39.5 49 48.5s40.167 13.167 61.5 12.5s41 -6 59 -16l38 -22c26.667 -15.333 40 -7.33301 40 24h119c0 -34.667 -6.5 -63.834 -19.5 -87.501s-29.333 -40 -49 -49
s-40.167 -13.167 -61.5 -12.5s-41 6.33398 -59 17.001zM277 500c70 0 125.503 -18.833 166.503 -56.5s61.5 -88.834 61.5 -153.501v-290h-151v21c-41.333 -20 -84.333 -30 -129 -30c-60.667 0 -108.667 13.833 -144 41.5s-53 65.834 -53 114.501
c0 45.333 17.167 80.5 51.5 105.5s81.833 37.5 142.5 37.5h132c0 24.667 -6.66699 44.667 -20 60s-32.333 23 -57 23c-20.667 0 -37.834 -5 -51.501 -15s-21.834 -23.667 -24.501 -41h-154c3.33301 60 26.666 105.333 69.999 136c44.667 31.333 98 47 160 47zM253.003 114
c34 0 67.667 10 101 30v51h-123c-34 0 -51 -12 -51 -36c0 -30 24.333 -45 73 -45z" />
    <glyph glyph-name="zero.osf" horiz-adv-x="640" 
d="M321 553c84 0 152.332 -26.333 204.999 -79c54 -53.333 81 -121.333 81 -204s-27 -150.667 -81 -204c-53.333 -52 -121.666 -78 -204.999 -78c-84 0 -153 26 -207 78c-54 53.333 -81 121.333 -81 204c0 84 27 152 81 204c53.333 52.667 122.333 79 207 79zM320.999 127
c38.667 0 70.834 13.498 96.501 40.498s38.5 61.167 38.5 102.5s-12.833 75.5 -38.5 102.5s-57.834 40.5 -96.501 40.5s-71.334 -13.333 -98.001 -40c-26 -27.333 -39 -61.666 -39 -102.999s13 -75.666 39 -102.999c26.667 -26.667 59.334 -40 98.001 -40z" />
    <glyph glyph-name="one.osf" horiz-adv-x="531" 
d="M526 137v-137h-491v137h170v231l-160 -45v147l222 77h101v-410h158z" />
    <glyph glyph-name="two.osf" horiz-adv-x="572" 
d="M531 137v-136.999h-485v87l146 94c53.333 34.667 93 64.167 119 88.5s39 46.5 39 66.5c0 19.333 -6.16699 34.833 -18.5 46.5s-30.833 17.5 -55.5 17.5s-44.667 -7.33301 -60 -22s-23.666 -34.667 -24.999 -60h-159c1.33301 70.667 23.333 126.667 66 168
s101.667 62 177 62s134.666 -19.667 177.999 -59s65 -87 65 -143c0 -40.667 -13.333 -77.334 -40 -110.001s-68 -65.667 -124 -99h177z" />
    <glyph glyph-name="three.osf" horiz-adv-x="578" 
d="M459 202c58 -32 87.0029 -80.3301 87.0029 -144.997c0 -62 -23.667 -113 -71 -153c-47.333 -39.333 -109 -59 -185 -59s-135.833 18.667 -179.5 56s-69.5 90 -77.5 158h158c6 -26.667 17.167 -46.334 33.5 -59.001s40.166 -19 71.499 -19
c27.333 0 49.666 7.16699 66.999 21.5s26 32.5 26 54.5c0 23.333 -9.33301 42.166 -28 56.499s-43 21.5 -73 21.5h-59v124h59c26.667 0 48.167 7.16699 64.5 21.5s24.5 33.166 24.5 56.499s-7.66699 42 -23 56c-14.667 14 -34.667 21 -60 21s-46.333 -7.33301 -63 -22
c-16 -14 -25 -33 -27 -57h-157c4 64.667 27.667 116.667 71 156c43.333 38.667 100.666 58 171.999 58c72 0 129.333 -19 172 -57c43.333 -38 65 -87.667 65 -149c0 -60.667 -22.667 -107.667 -68 -141z" />
    <glyph glyph-name="four.osf" horiz-adv-x="656" 
d="M622 0h-85v-120h-159v120h-346v105l185 455h162l-160 -419h159v187h159v-187h85v-141z" />
    <glyph glyph-name="five.osf" horiz-adv-x="611" 
d="M239 305l84 -0.000976562c74.667 0 133.667 -20.667 177 -62c44 -41.333 66 -94.666 66 -159.999c0 -69.333 -24 -126 -72 -170c-48.667 -43.333 -111.667 -65 -189 -65c-76.667 0 -138.667 19.333 -186 58c-48 39.333 -75.333 91.333 -82 156h159
c14.667 -52 51 -78 109 -78c31.333 0 57 9 77 27s30 41 30 69s-10.333 50.167 -31 66.5s-49 24.5 -85 24.5h-212l1 372h449v-144h-294z" />
    <glyph glyph-name="six.osf" horiz-adv-x="624" 
d="M463 680l-129 -203c74 -4.66699 134.667 -29.667 182 -75s71 -100.333 71 -165c0 -72 -25.667 -132 -77 -180c-50.667 -48 -116.667 -72 -198 -72s-147.333 24 -198 72s-76 107 -76 177c0 49.333 19.333 104.333 58 165l177 281h190zM312 341
c-32 0 -58.667 -7.66699 -80 -23l-4 -7c-22 -31.333 -33 -58.333 -33 -81c0 -29.333 11 -55 33 -77c22.667 -22 50.667 -33 84 -33s61 11 83 33c22 22.667 33 48.667 33 78s-11 55 -33 77s-49.667 33 -83 33z" />
    <glyph glyph-name="seven.osf" horiz-adv-x="524" 
d="M506 540v-95l-261 -585h-184l240 529h-291v151h496z" />
    <glyph glyph-name="eight.osf" horiz-adv-x="623" 
d="M478 361c72.667 -36 109.001 -90.667 109.001 -164c0 -64.667 -24.5 -116.167 -73.5 -154.5s-116.167 -57.5 -201.5 -57.5s-152.5 19.167 -201.5 57.5s-73.5 89.833 -73.5 154.5c0 73.333 36.333 128 109 164c-54 32.667 -81 78.667 -81 138c0 58 23 105 69 141
c45.333 36.667 104.666 55 177.999 55c72.667 0 131.667 -18.333 177 -55c46 -36 69 -83 69 -141c0 -58.667 -26.667 -104.667 -80 -138zM405.001 489c0 24 -8.83301 44 -26.5 60s-40.167 24 -67.5 24s-49.666 -8 -66.999 -24s-26 -36 -26 -60s8.66699 -44 26 -60
s39.666 -24 66.999 -24s49.833 8 67.5 24s26.5 36 26.5 60zM209.001 208c0 -26 9.66699 -47.667 29 -65s43.666 -26 72.999 -26s53.833 8.83301 73.5 26.5s29.5 39.167 29.5 64.5s-9.83301 46.333 -29.5 63s-44.167 25 -73.5 25s-53.666 -8.33301 -72.999 -25
s-29 -37.667 -29 -63z" />
    <glyph glyph-name="nine.osf" horiz-adv-x="624" 
d="M586 310c0 -47.333 -19.333 -102.333 -58 -165l-177 -281h-191l130 203c-74.667 4 -135.667 28.667 -183 74c-46.667 44.667 -70 100 -70 166c0 72 25.667 132 77 180c50.667 48 116.667 72 198 72c80 0 145.667 -24 197 -72s77 -107 77 -177zM392 226l4.00195 6.99902
c22 31.333 33 58.333 33 81c0 29.333 -11.333 55 -34 77c-22 22 -49.667 33 -83 33s-61 -11.333 -83 -34c-17.333 -14.667 -27.833 -33.167 -31.5 -55.5s-1.33398 -43.166 6.99902 -62.499s22.166 -35.833 41.499 -49.5s41.333 -20.167 66 -19.5c33.333 1.33301 60 9 80 23z
" />
    <glyph glyph-name="zero.tf" horiz-adv-x="650" 
d="M98 596c54 66 129 99.002 225 99.002s170.667 -32.667 224 -98c54 -65.333 81 -151 81 -257c0 -106.667 -27 -192.334 -81 -257.001c-53.333 -65.333 -128 -98 -224 -98s-171 32.667 -225 98c-54 66 -81 151.667 -81 257s27 190.666 81 255.999zM323 132.002
c46.667 0 82.334 18.667 107.001 56s37 88 37 152s-12.333 114.667 -37 152s-60.334 56 -107.001 56c-47.333 0 -83.333 -18.667 -108 -56s-37 -88 -37 -152s12.333 -114.667 37 -152s60.667 -56 108 -56z" />
    <glyph glyph-name="one.tf" horiz-adv-x="650" 
d="M603 137v-137h-538v137h202v365l-160 -45v146l222 77h100v-543h174z" />
    <glyph glyph-name="two.tf" horiz-adv-x="650" 
d="M561 137l0.000976562 -137.001h-485v80l207 251l23 27c12 14 19.333 23 22 27c21.333 26 32.333 39.667 33 41c12.667 20.667 19 38.667 19 54c0 19.333 -6.5 35.333 -19.5 48s-31.167 19 -54.5 19c-24 0 -43.167 -7.16699 -57.5 -21.5s-22.833 -34.5 -25.5 -60.5h-161
c1.33301 68.667 23 124.334 65 167.001c43.333 42 102.666 63 177.999 63c76 0 136.333 -20.333 181 -61c45.333 -40 68 -89.333 68 -148c0 -31.333 -10 -63 -30 -95c-18 -29.333 -54.667 -77.333 -110 -144l-92 -110h239z" />
    <glyph glyph-name="three.tf" horiz-adv-x="650" 
d="M491 342c58 -32 87.0029 -80.3301 87.0029 -144.997c0 -62 -23.667 -113 -71 -153c-47.333 -39.333 -109 -59 -185 -59s-135.833 18.667 -179.5 56s-69.5 90 -77.5 158h158c6 -26.667 17.167 -46.334 33.5 -59.001s40.166 -19 71.499 -19
c27.333 0 49.666 7.16699 66.999 21.5s26 32.5 26 54.5c0 23.333 -9.33301 42.166 -28 56.499s-43 21.5 -73 21.5h-59v124h59c26.667 0 48.167 7.16699 64.5 21.5s24.5 33.166 24.5 56.499s-7.66699 42 -23 56c-14.667 14 -34.667 21 -60 21s-46.333 -7.33301 -63 -22
c-16 -14 -25 -33 -27 -57h-157c4 64.667 27.667 116.667 71 156c43.333 38.667 100.666 58 171.999 58c72 0 129.333 -19 172 -57c43.333 -38 65 -87.667 65 -149c0 -60.667 -22.667 -107.667 -68 -141z" />
    <glyph glyph-name="four.tf" horiz-adv-x="650" 
d="M604 120h-85v-120h-159v120h-346v105l185 455h162l-160 -419h159v187h159v-187h85v-141z" />
    <glyph glyph-name="five.tf" horiz-adv-x="650" 
d="M241 442l84 -0.000976562c74.667 0 133.667 -20.667 177 -62c44 -41.333 66 -94.666 66 -159.999c0 -69.333 -24 -126 -72 -170c-48.667 -43.333 -111.667 -65 -189 -65c-76.667 0 -138.667 19.333 -186 58c-48 39.333 -75.333 91.333 -82 156h159
c14.667 -52 51 -78 109 -78c31.333 0 57 9 77 27s30 41 30 69s-10.333 50.167 -31 66.5s-49 24.5 -85 24.5h-212l1 372h449v-144h-294z" />
    <glyph glyph-name="six.tf" horiz-adv-x="650" 
d="M472 680l-130 -203.001c74 -4 134.667 -28.667 182 -74s71 -100.666 71 -165.999c0 -72 -25.667 -132 -77 -180c-50.667 -48 -116.667 -72 -198 -72s-147.333 24 -198 72s-76 107 -76 177c0 47.333 19.333 102.333 58 165l177 281h191zM320 340.999
c-33.333 -1.33301 -60.001 -9 -80.001 -23l-4 -7c-22 -31.333 -33 -58.333 -33 -81c0 -29.333 11 -55 33 -77c22.667 -22 50.667 -33 84 -33c31.333 0 59 11 83 33c16.667 16 26.834 35 30.501 57s1.5 42.667 -6.5 62s-21.667 35.833 -41 49.5s-41.333 20.167 -66 19.5z" />
    <glyph glyph-name="seven.tf" horiz-adv-x="650" 
d="M576 680v-95l-261 -585h-183l239 529h-291v151h496z" />
    <glyph glyph-name="eight.tf" horiz-adv-x="650" 
d="M495 361c72.667 -36 109.001 -90.667 109.001 -164c0 -64.667 -24.5 -116.167 -73.5 -154.5s-116.167 -57.5 -201.5 -57.5s-152.5 19.167 -201.5 57.5s-73.5 89.833 -73.5 154.5c0 73.333 36.333 128 109 164c-54 32.667 -81 78.667 -81 138c0 58 23 105 69 141
c45.333 36.667 104.666 55 177.999 55c72.667 0 131.667 -18.333 177 -55c46 -36 69 -83 69 -141c0 -58.667 -26.667 -104.667 -80 -138zM423.001 489c0 24 -8.83301 44 -26.5 60s-40.167 24 -67.5 24s-49.833 -8 -67.5 -24s-26.5 -36 -26.5 -60s8.83301 -44 26.5 -60
s40.167 -24 67.5 -24s49.833 8 67.5 24s26.5 36 26.5 60zM329.001 117c29.333 0 53.666 8.66699 72.999 26s29 39 29 65c0 25.333 -9.66699 46.333 -29 63s-43.666 25 -72.999 25c-30 0 -54.5 -8.33301 -73.5 -25s-28.5 -37.667 -28.5 -63c0 -26 9.5 -47.667 28.5 -65
s43.5 -26 73.5 -26z" />
    <glyph glyph-name="nine.tf" horiz-adv-x="623" 
d="M581 446c0 -47.333 -19.334 -102.333 -58.001 -165l-177 -281h-191l130 203c-74.667 4 -135.667 28.667 -183 74c-46.667 44.667 -70 100 -70 166c0 72 25.667 132 77 180s117.333 72 198 72s146.334 -24 197.001 -72c51.333 -48 77 -107 77 -177zM386.999 362
l4.00195 6.99902c22 31.333 33 58.333 33 81c0 29.333 -11.333 55 -34 77c-22 22 -49.667 33 -83 33s-61 -11.333 -83 -34c-17.333 -14.667 -27.833 -33.167 -31.5 -55.5s-1.33398 -43.166 6.99902 -62.499s22.166 -35.833 41.499 -49.5s41.333 -20.167 66 -19.5
c33.333 1.33301 60 9 80 23z" />
    <glyph glyph-name="zero.zero" horiz-adv-x="718" 
d="M129 596c56.667 66 133.667 99 231 99c96 0 172.667 -33 230 -99c56.667 -65.333 85 -150.666 85 -255.999s-28.333 -190.666 -85 -255.999c-57.333 -66 -134 -99 -230 -99c-97.333 0 -174.333 33 -231 99c-56.667 65.333 -85 150.666 -85 255.999
s28.333 190.666 85 255.999zM359 548c-48.667 0 -86.667 -19.001 -114 -57.001s-41 -88.333 -41 -151c0 -33.333 4 -63.666 12 -90.999l199 288c-18 7.33301 -36.667 11 -56 11zM359 131.999c48.667 0 86.333 19.333 113 58c27.333 39.333 41 89.333 41 150
c0 33.333 -4.66699 65 -14 95l-201 -290c16.667 -8.66699 37 -13 61 -13z" />
    <glyph glyph-name="zero.osf.zero" horiz-adv-x="640" 
d="M320 553c84.667 0 153.333 -26.333 206 -79c53.333 -52 80 -120 80 -204c0 -82.667 -26.667 -150.667 -80 -204c-53.333 -52 -122 -78 -206 -78c-83.333 0 -152 26 -206 78c-54 53.333 -81 121.333 -81 204c0 84 27 152 81 204c53.333 52.667 122 79 206 79zM320.999 413
c-38.667 0 -71.333 -13.334 -98 -40.001c-26 -27.333 -39 -61.666 -39 -102.999c0 -20 3.33301 -39 10 -57l185 188c-18 8 -37.333 12 -58 12zM321 126.999c38 0 69.999 13.333 95.999 40c26.667 26.667 40 61 40 103c0 20 -3.66699 40 -11 60l-187 -189
c20.667 -9.33301 41.334 -14 62.001 -14z" />
    <glyph glyph-name="zero.dnom" horiz-adv-x="455" 
d="M227 424c62 0 111.333 -20.333 148 -61c36.667 -39.333 55 -91.333 55 -156c0 -63.333 -18.333 -115.333 -55 -156c-36.667 -40 -86 -60 -148 -60c-60.667 0 -109.667 20 -147 60c-36.667 40.667 -55 92.667 -55 156s18.333 115.333 55 156s85.667 61 147 61zM162 126
c14.667 -20.667 36.332 -31 64.999 -31s50.334 10.333 65.001 31c15.333 21.333 23 48.333 23 81s-7.66699 59.667 -23 81s-37 32 -65 32s-49.667 -10.667 -65 -32c-14.667 -20.667 -22 -47.667 -22 -81s7.33301 -60.333 22 -81z" />
    <glyph glyph-name="one.dnom" horiz-adv-x="341" 
d="M336 97v-97h-311v97h102v192l-97 -27v103l141 46h67v-314h98z" />
    <glyph glyph-name="two.dnom" horiz-adv-x="373" 
d="M345 97l-0.000976562 -97h-311v57l139 156c19.333 21.333 32 36.5 38 45.5s9 17.833 9 26.5c0 9.33301 -3.16699 16.833 -9.5 22.5s-14.833 8.5 -25.5 8.5c-27.333 0 -41.666 -13.667 -42.999 -41h-110c0.666992 44.667 14.334 80 41.001 106s64 39 112 39
c47.333 0 85.166 -12 113.499 -36s42.5 -54 42.5 -90c0 -19.333 -5.5 -39.333 -16.5 -60s-30.833 -47.667 -59.5 -81l-48 -56h128z" />
    <glyph glyph-name="three.dnom" horiz-adv-x="384" 
d="M304 206c32.667 -18.667 48.999 -47.001 48.999 -85.001c0 -37.333 -15 -68.666 -45 -93.999c-28.667 -24.667 -67.334 -37 -116.001 -37c-46.667 0 -84.167 12 -112.5 36s-45.166 57.333 -50.499 100h112c7.33301 -26 25 -39 53 -39c14 0 25.333 3.33301 34 10
s13 15.334 13 26.001c0 24 -19 36 -57 36h-33v88h33c33.333 0 50 12.333 50 37c0 24 -14 36 -42 36c-25.333 0 -39.333 -13.333 -42 -40h-112c2.66699 42.667 17.334 76 44.001 100s62.667 36 108 36c46 0 82.667 -11.833 110 -35.5s41 -54.834 41 -93.501
c0 -33.333 -12.333 -60.333 -37 -81z" />
    <glyph glyph-name="four.dnom" horiz-adv-x="420" 
d="M394 68h-48v-68h-114v68h-209v75l110 268h116l-92 -243h75v93h114v-93h48v-100z" />
    <glyph glyph-name="five.dnom" horiz-adv-x="397" 
d="M169 269l40.002 0.00195312c48 0 85 -12 111 -36s39 -56.667 39 -98c0 -42.667 -14.833 -77.334 -44.5 -104.001s-68.834 -40 -117.501 -40c-46.667 0 -84.834 12 -114.501 36s-46.5 56 -50.5 96h113c7.33301 -24 25 -36 53 -36c15.333 0 27.833 4.16699 37.5 12.5
s14.5 19.166 14.5 32.499c0 30.667 -18 46 -54 46h-136v233h280v-99h-171v-43z" />
    <glyph glyph-name="six.dnom" horiz-adv-x="396" 
d="M300 411l-76 -120c44 -4.66699 79.167 -20.5 105.5 -47.5s39.5 -59.833 39.5 -98.5c0 -43.333 -16 -80 -48 -110c-31.333 -29.333 -72.333 -44 -123 -44c-49.333 0 -90.333 14.667 -123 44c-32 30 -48 65.667 -48 107c0 28 12.667 63 38 105l100 164h135zM198 86
c16.667 0 30.667 5.33105 42 15.998s17 23.667 17 39c2.66699 24.667 -9.33301 41.834 -36 51.501s-48.667 6.16699 -66 -10.5c-10.667 -15.333 -16 -28.666 -16 -39.999c0 -16 5.5 -29.333 16.5 -40s25.167 -16 42.5 -16z" />
    <glyph glyph-name="seven.dnom" horiz-adv-x="347" 
d="M330 411v-67l-155 -344h-131l140 304h-167v107h313z" />
    <glyph glyph-name="eight.dnom" horiz-adv-x="408" 
d="M315 218c41.333 -23.333 62 -56.001 62 -98.001c0 -40 -15.333 -71.5 -46 -94.5s-73 -34.5 -127 -34.5s-96.167 11.5 -126.5 34.5s-45.5 54.5 -45.5 94.5c0 42.667 20.333 75.334 61 98.001c-30 18.667 -45 45.667 -45 81c0 36 14.5 65.167 43.5 87.5
s66.5 33.5 112.5 33.5s83.5 -11.167 112.5 -33.5s43.5 -51.5 43.5 -87.5c0 -35.333 -15 -62.333 -45 -81zM237 321.999c-8.66699 8 -19.667 12 -33 12s-24.333 -4 -33 -12c-8.66699 -7.33301 -13 -17.333 -13 -30s4.33301 -23 13 -31s19.667 -12 33 -12s24.333 4 33 12
s13 18.333 13 31s-4.33301 22.667 -13 30zM168 95.999c9.33301 -8.66699 21.333 -12.832 36 -12.499s26.667 4.5 36 12.5s14 18.667 14 32s-4.66699 24 -14 32s-21.333 12.167 -36 12.5s-26.667 -3.83398 -36 -12.501c-8.66699 -8 -13 -18.667 -13 -32s4.33301 -24 13 -32z
" />
    <glyph glyph-name="nine.dnom" horiz-adv-x="396" 
d="M198 421c50 0 91 -15 123 -45c32 -29.333 48 -64.666 48 -105.999c0 -28 -12.667 -63 -38 -105l-100 -164h-135l76 120c-44 4.66699 -79.167 20.5 -105.5 47.5s-39.5 59.833 -39.5 98.5c0 43.333 15.667 79.666 47 108.999c32 30 73.333 45 124 45zM241 230
c10.667 15.333 16 28.668 16 40.001c0 16 -5.5 29.333 -16.5 40s-25.167 16 -42.5 16c-16.667 0 -30.667 -5.33301 -42 -16s-17 -23.667 -17 -39c-2.66699 -24.667 9.33301 -41.834 36 -51.501s48.667 -6.16699 66 10.5z" />
    <glyph glyph-name="zero.numr" horiz-adv-x="455" 
d="M227 693c62 0 111.333 -20.333 148 -61c36.667 -39.333 55 -91.333 55 -156c0 -63.333 -18.333 -115.333 -55 -156c-36.667 -40 -86 -60 -148 -60c-60.667 0 -109.667 20 -147 60c-36.667 40.667 -55 92.667 -55 156s18.333 115.333 55 156s85.667 61 147 61zM162 395
c14.667 -20.667 36.332 -31 64.999 -31s50.334 10.333 65.001 31c15.333 21.333 23 48.333 23 81s-7.66699 59.667 -23 81s-37 32 -65 32s-49.667 -10.667 -65 -32c-14.667 -20.667 -22 -47.667 -22 -81s7.33301 -60.333 22 -81z" />
    <glyph glyph-name="one.numr" horiz-adv-x="341" 
d="M336 366v-97h-311v97h102v192l-97 -27v103l141 46h67v-314h98z" />
    <glyph glyph-name="two.numr" horiz-adv-x="373" 
d="M345 366l-0.000976562 -97h-311v57l139 156c19.333 21.333 32 36.5 38 45.5s9 17.833 9 26.5c0 9.33301 -3.16699 16.833 -9.5 22.5s-14.833 8.5 -25.5 8.5c-27.333 0 -41.666 -13.667 -42.999 -41h-110c0.666992 44.667 14.334 80 41.001 106s64 39 112 39
c47.333 0 85.166 -12 113.499 -36s42.5 -54 42.5 -90c0 -19.333 -5.5 -39.333 -16.5 -60s-30.833 -47.667 -59.5 -81l-48 -56h128z" />
    <glyph glyph-name="three.numr" horiz-adv-x="384" 
d="M304 479c32.667 -18.667 48.999 -47.001 48.999 -85.001c0 -37.333 -15 -68.666 -45 -93.999c-28.667 -24.667 -67.334 -37 -116.001 -37c-46.667 0 -84.167 12 -112.5 36s-45.166 57.333 -50.499 100h112c7.33301 -26 25 -39 53 -39c14 0 25.333 3.33301 34 10
s13 15.334 13 26.001c0 24 -19 36 -57 36h-33v88h33c33.333 0 50 12.333 50 37c0 24 -14 36 -42 36c-25.333 0 -39.333 -13.333 -42 -40h-112c2.66699 42.667 17.334 76 44.001 100s62.667 36 108 36c46 0 82.667 -11.833 110 -35.5s41 -54.834 41 -93.501
c0 -33.333 -12.333 -60.333 -37 -81z" />
    <glyph glyph-name="four.numr" horiz-adv-x="420" 
d="M394 337h-48v-68h-114v68h-209v75l110 268h116l-92 -243h75v93h114v-93h48v-100z" />
    <glyph glyph-name="five.numr" horiz-adv-x="397" 
d="M169 538l40.002 0.00195312c48 0 85 -12 111 -36s39 -56.667 39 -98c0 -42.667 -14.833 -77.334 -44.5 -104.001s-68.834 -40 -117.501 -40c-46.667 0 -84.834 12 -114.501 36s-46.5 56 -50.5 96h113c7.33301 -24 25 -36 53 -36c15.333 0 27.833 4.16699 37.5 12.5
s14.5 19.166 14.5 32.499c0 30.667 -18 46 -54 46h-136v233h280v-99h-171v-43z" />
    <glyph glyph-name="six.numr" horiz-adv-x="396" 
d="M300 680l-76 -120c44 -4.66699 79.167 -20.5 105.5 -47.5s39.5 -59.833 39.5 -98.5c0 -43.333 -16 -80 -48 -110c-31.333 -29.333 -72.333 -44 -123 -44c-49.333 0 -90.333 14.667 -123 44c-32 30 -48 65.667 -48 107c0 28 12.667 63 38 105l100 164h135zM198 355
c16.667 0 30.667 5.33105 42 15.998s17 23.667 17 39c2.66699 24.667 -9.33301 41.834 -36 51.501s-48.667 6.16699 -66 -10.5c-10.667 -15.333 -16 -28.666 -16 -39.999c0 -16 5.5 -29.333 16.5 -40s25.167 -16 42.5 -16z" />
    <glyph glyph-name="seven.numr" horiz-adv-x="347" 
d="M330 680v-67l-155 -344h-131l140 304h-167v107h313z" />
    <glyph glyph-name="eight.numr" horiz-adv-x="408" 
d="M315 491c41.333 -23.333 62 -56.001 62 -98.001c0 -40 -15.333 -71.5 -46 -94.5s-73 -34.5 -127 -34.5s-96.167 11.5 -126.5 34.5s-45.5 54.5 -45.5 94.5c0 42.667 20.333 75.334 61 98.001c-30 19.333 -45 46.333 -45 81c0 36 14.5 65.167 43.5 87.5
s66.5 33.5 112.5 33.5s83.5 -11.167 112.5 -33.5s43.5 -51.5 43.5 -87.5c0 -34.667 -15 -61.667 -45 -81zM237 594.999c-8.66699 8 -19.667 12 -33 12s-24.333 -4 -33 -12c-8.66699 -7.33301 -13 -17.333 -13 -30s4.33301 -23 13 -31s19.667 -12 33 -12s24.333 4 33 12
s13 18.333 13 31s-4.33301 22.667 -13 30zM168 368.999c9.33301 -8.66699 21.333 -12.832 36 -12.499s26.667 4.5 36 12.5s14 18.667 14 32s-4.66699 24 -14 32s-21.333 12.167 -36 12.5s-26.667 -3.83398 -36 -12.501c-8.66699 -8 -13 -18.667 -13 -32s4.33301 -24 13 -32z
" />
    <glyph glyph-name="nine.numr" horiz-adv-x="396" 
d="M198 694c50 0 91 -14.999 123 -44.999c32 -28.667 48 -64 48 -106c0 -28 -12.667 -63 -38 -105l-100 -164h-135l76 120c-44 4.66699 -79.167 20.5 -105.5 47.5s-39.5 59.833 -39.5 98.5c0 43.333 15.667 79.666 47 108.999c32 30 73.333 45 124 45zM241 503.001
c10.667 15.333 16 28.668 16 40.001c0 16 -5.5 29.333 -16.5 40s-25.167 16 -42.5 16c-16.667 0 -30.667 -5.33301 -42 -16s-17 -23.667 -17 -39c-2.66699 -24.667 9.33301 -41.834 36 -51.501s48.667 -6.16699 66 10.5z" />
    <glyph glyph-name="backslash.case" horiz-adv-x="399" 
d="M8 730h162l220 -777h-162z" />
    <glyph glyph-name="bullet.case" horiz-adv-x="358" 
d="M178 181c-40.667 0 -76 15 -106 45s-45 65.333 -45 106s15 76 45 106s65.333 45 106 45c41.333 0 77 -15 107 -45c30.667 -30 46 -65.333 46 -106s-15.333 -76 -46 -106c-30 -30 -65.667 -45 -107 -45z" />
    <glyph glyph-name="exclamdown.case" horiz-adv-x="295" 
d="M85 667c17.333 16.667 38 24.832 62 24.499s44.667 -8.5 62 -24.5s26 -36 26 -60s-8.66699 -44 -26 -60s-38 -24.167 -62 -24.5s-44.667 7.83398 -62 24.501c-16.667 16 -25 36 -25 60s8.33301 44 25 60zM62 -0.00195312l14 458h142l14 -458h-170z" />
    <glyph glyph-name="periodcentered.case" horiz-adv-x="235" 
d="M117 243c-24.667 0 -45.834 8.33301 -63.501 25s-26.5 37.667 -26.5 63c0 24 8.83301 44.333 26.5 61s38.834 25 63.501 25c25.333 0 47 -8.33301 65 -25s27 -37 27 -61c0 -25.333 -8.83301 -46.333 -26.5 -63s-39.5 -25 -65.5 -25z" />
    <glyph glyph-name="questiondown.case" horiz-adv-x="539" 
d="M236 667c17.333 16 38 24 62 24s44.667 -8 62 -24s26 -36 26 -60s-8.66699 -44 -26 -60s-38 -24 -62 -24s-44.667 8 -62 24s-26 36 -26 60s8.66699 44 26 60zM356 461l10 -163h-82c-28.667 0 -52.334 -8 -71.001 -24s-28 -37 -28 -63c0 -25.333 8 -45.833 24 -61.5
s37.333 -23.5 64 -23.5c26 0 47.167 7.16699 63.5 21.5s25.833 33.5 28.5 57.5h157c-4 -66.667 -27.167 -119 -69.5 -157s-100.5 -57 -174.5 -57c-71.333 0 -129.666 20.333 -174.999 61c-45.333 41.333 -68 94.333 -68 159c0 52 17.167 95 51.5 129s81.5 55 141.5 63l5 58
h123z" />
    <glyph glyph-name="slash.case" horiz-adv-x="399" 
d="M28 -47l220 777h162l-220 -777h-162z" />
    <glyph glyph-name="braceleft.case" horiz-adv-x="368" 
d="M268 538l0.000976562 -91c0 -28.667 -5.83301 -51 -17.5 -67s-31.5 -28.333 -59.5 -37c28 -8.66699 47.833 -21.167 59.5 -37.5s17.5 -38.833 17.5 -67.5v-90c0 -16 6.66699 -28.833 20 -38.5s31 -14.5 53 -14.5v-151c-71.333 0 -128.333 17.5 -171 52.5
s-64 82.167 -64 141.5v88c0 25.333 -5 40.333 -15 45c-10.667 5.33301 -32 8 -64 8v128c23.333 0 40.666 1 51.999 3c8 0.666992 13.333 3 16 7c7.33301 12 11 26.333 11 43v88c0 59.333 21.333 106.5 64 141.5s99.667 52.5 171 52.5v-151c-22 0 -39.667 -5 -53 -15
s-20 -22.667 -20 -38z" />
    <glyph glyph-name="braceright.case" horiz-adv-x="378" 
d="M110 447v91.002c0 15.333 -6.66699 28 -20 38s-31 15 -53 15v151c71.333 0 128.333 -17.5 171 -52.5s64 -82.167 64 -141.5v-88c0 -14.667 1.16699 -25.334 3.5 -32.001s7.5 -11.667 15.5 -15c9.33301 -3.33301 16.666 -5.33301 21.999 -6h38v-128
c-30.667 0 -51 -2 -61 -6c-7.33301 -3.33301 -12.166 -8.33301 -14.499 -15s-3.5 -17.334 -3.5 -32.001v-88c0 -59.333 -21.333 -106.5 -64 -141.5s-99.667 -52.5 -171 -52.5v151c22 0 39.667 4.83301 53 14.5s20 22.5 20 38.5v90c0 28.667 5.83301 51.167 17.5 67.5
s31.5 28.833 59.5 37.5c-28 8.66699 -47.833 21 -59.5 37s-17.5 38.333 -17.5 67z" />
    <glyph glyph-name="bracketleft.case" horiz-adv-x="394" 
d="M222 105h146v-152h-308v777h308v-151h-146v-474z" />
    <glyph glyph-name="bracketright.case" horiz-adv-x="394" 
d="M27 579v151h307v-777h-307v152h145v474h-145z" />
    <glyph glyph-name="parenleft.case" horiz-adv-x="372" 
d="M241 731l111 -104.001c-52.667 -57.333 -88 -104.333 -106 -141c-19.333 -37.333 -29 -84 -29 -140c0 -55.333 9.66699 -102.333 29 -141c18.667 -36 54 -82.667 106 -140l-111 -104c-70 62.667 -120.333 123.334 -151 182.001c-30.667 59.333 -46 127 -46 203
s15.333 143.333 46 202s81 119.667 151 183z" />
    <glyph glyph-name="parenright.case" horiz-adv-x="372" 
d="M20 627l111 104c68.667 -62 118.667 -123 150 -183c31.333 -59.333 47 -126.666 47 -201.999c0 -74.667 -15.667 -142.334 -47 -203.001c-31.333 -59.333 -81.333 -120 -150 -182l-111 104c50.667 55.333 85.667 102 105 140c19.333 38.667 29 85.667 29 141
c0 56 -9.66699 102.667 -29 140c-19.333 38 -54.333 85 -105 141z" />
    <glyph glyph-name="emdash.case" horiz-adv-x="1069" 
d="M972 407v-155h-875v155h875z" />
    <glyph glyph-name="endash.case" horiz-adv-x="690" 
d="M594 407v-155h-497v155h497z" />
    <glyph glyph-name="hyphen.case" horiz-adv-x="554" 
d="M458 405v-154h-361v154h361z" />
    <glyph glyph-name="guillemotleft.case" horiz-adv-x="486" 
d="M261 489l-95 -160l95 -161h-144l-95 161l95 160h144zM464 489l-95 -160l95 -161h-144l-95 161l95 160h144z" />
    <glyph glyph-name="guillemotright.case" horiz-adv-x="486" 
d="M261 329l-95 -161h-144l95 161l-95 160h144zM464 329l-95 -161h-144l95 161l-95 160h144z" />
    <glyph glyph-name="guilsinglleft.case" horiz-adv-x="283" 
d="M261 489l-95 -160l95 -161h-144l-95 161l95 160h144z" />
    <glyph glyph-name="guilsinglright.case" horiz-adv-x="283" 
d="M261 329l-95 -161h-144l95 161l-95 160h144z" />
    <glyph glyph-name="florin.tf" horiz-adv-x="650" 
d="M511 538c-48.667 0 -76.667 -26.666 -84 -79.999l-10 -73h154v-129h-172l-21 -151c-10 -72.667 -33.5 -128.834 -70.5 -168.501s-85.5 -59.5 -145.5 -59.5c-39.333 0 -82.333 6.33301 -129 19l22 138c27.333 -6 52 -9 74 -9c49.333 0 77.333 26.333 84 79l21 152h-122
v129h140l10 73c10 72.667 33.5 128.667 70.5 168s85.5 59 145.5 59c41.333 0 84.333 -6 129 -18l-21 -138c-29.333 6 -54.333 9 -75 9z" />
    <glyph glyph-name="cent.tf" horiz-adv-x="650" 
d="M322 126c24.667 0 45.667 6.66602 63 19.999s28 31 32 53h153c-4.66699 -50.667 -23.334 -94.167 -56.001 -130.5s-74.334 -60.166 -125.001 -71.499v-101h-131v100c-61.333 13.333 -110 42 -146 86c-36.667 44.667 -55 98.334 -55 161.001
c0 63.333 18.333 116.666 55 159.999c36 44 84.667 72.667 146 86v117h131v-118c50.667 -11.333 92.334 -35.166 125.001 -71.499s51.334 -79.833 56.001 -130.5h-153c-4 22 -14.667 39.667 -32 53s-38.333 20 -63 20c-33.333 0 -60.166 -10.667 -80.499 -32
s-30.5 -49.333 -30.5 -84s10.167 -62.834 30.5 -84.501s47.166 -32.5 80.499 -32.5z" />
    <glyph glyph-name="dollar.tf" horiz-adv-x="650" 
d="M619 207c0 -58 -18.999 -106 -56.999 -144s-90.333 -62 -157 -72v-101h-131v100c-69.333 10 -125.666 35.167 -168.999 75.5s-68.333 93.833 -75 160.5h169c5.33301 -30 20.5 -53.5 45.5 -70.5s57.5 -25.5 97.5 -25.5c31.333 0 55.166 5.33301 71.499 16
s24.5 25.334 24.5 44.001c0 27.333 -24 46.666 -72 57.999l-112 25c-67.333 15.333 -117 39 -149 71s-48 75 -48 129c0 59.333 19.5 108.5 58.5 147.5s91.833 62.833 158.5 71.5v107h131v-111c56.667 -10.667 104.667 -33.667 144 -69c40 -35.333 63 -85.333 69 -150h-170
c-10 57.333 -46.667 86 -110 86c-30 0 -53.667 -6 -71 -18s-26 -28.667 -26 -50c0 -17.333 6.16699 -30.833 18.5 -40.5s32.166 -17.5 59.499 -23.5l95 -22c70 -16 121.667 -38.833 155 -68.5s50 -71.5 50 -125.5z" />
    <glyph glyph-name="Euro.tf" horiz-adv-x="650" 
d="M363 132c44.667 0 74.668 14.001 90.001 42.001h180c-16.667 -58.667 -48.834 -104.834 -96.501 -138.501s-105.5 -50.5 -173.5 -50.5c-75.333 0 -138.833 20.667 -190.5 62s-87.5 98.333 -107.5 171h-56v89h42c-0.666992 4.66699 -1 15.667 -1 33v18h-41v89h53
c18 76.667 53.333 137.167 106 181.5s117.667 66.5 195 66.5c70 0 129.5 -18 178.5 -54s81.167 -85.333 96.5 -148h-173c-16.667 36.667 -50.667 55 -102 55c-66 0 -111 -33.667 -135 -101h232l-23 -89h-226v-18c0 -17.333 0.333008 -28.333 1 -33h213l-23 -89h-168
c26 -57.333 69 -86 129 -86z" />
    <glyph glyph-name="sterling.tf" horiz-adv-x="650" 
d="M266 139h334v-139h-551v139h56v130h-56v126h56v55c0 73.333 23.333 132 70 176c47.333 44 109 66 185 66c72 0 130.833 -19.333 176.5 -58s71.5 -91.334 77.5 -158.001h-162c-4.66699 24 -15 42.667 -31 56s-36.333 20 -61 20c-28.667 0 -51.5 -9.16699 -68.5 -27.5
s-25.5 -43.166 -25.5 -74.499v-55h182v-126h-182v-130z" />
    <glyph glyph-name="yen.tf" horiz-adv-x="650" 
d="M463 318h125v-105h-174l-4 -8v-34h178v-105h-178v-66h-170v66h-179v105h179v34l-4 8h-175v105h126l-169 362h187l119 -295l121 295h187z" />
    <glyph glyph-name="arrowdown.ss05" horiz-adv-x="704" 
d="M627 396l-275 -275l-95 95l-180 182l95 95l180 -182l180 180z" />
    <glyph glyph-name="arrowleft.ss05" horiz-adv-x="704" 
d="M532 122l-180 180l-180 -182l-95 95l180 182l95 95l275 -275z" />
    <glyph glyph-name="arrowright.ss05" horiz-adv-x="565" 
d="M277 335l180 -180l-95 -95l-275 275l95 95l182 180l95 -95z" />
    <glyph glyph-name="arrowup.ss05" horiz-adv-x="565" 
d="M384 240l-181 -180l-95 95l180 180l-181 180l95 95l182 -180l95 -95z" />
    <glyph glyph-name="at.case" horiz-adv-x="990" 
d="M713 512v-242c0 -46.667 16 -70 48 -70c46.667 0 70 42.667 70 128c0 90.667 -30.667 165.667 -92 225c-60.667 60 -138.334 90 -233.001 90c-96 0 -177.667 -32 -245 -96c-66.667 -64 -100 -142.333 -100 -235s32.667 -171 98 -235c66 -64 145.667 -96 239 -96
c82 0 153.333 24.333 214 73l58 -87c-77.333 -58 -167.666 -87 -270.999 -87c-123.333 0 -228.666 41.667 -315.999 125c-84.667 80.667 -128 183 -130 307c-1.33301 119.333 42.667 221.5 132 306.5s195.333 126.5 318 124.5c126 -2 229.333 -41 310 -117
c82.667 -78 124 -176.333 124 -295c0 -72.667 -15.333 -129.667 -46 -171s-76.334 -62 -137.001 -62c-68 0 -116.667 21.667 -146 65c-40 -42 -89 -63 -147 -63c-56.667 0 -104.334 20 -143.001 60c-38.667 40.667 -58 91 -58 151c0 60.667 19.333 110.667 58 150
c38.667 40.667 86.334 61 143.001 61c43.333 0 81.333 -11.333 114 -34v24h138zM490 215c34.667 0 64 15.334 88 46.001c-2 18 -3 36 -3 54v49c-24 29.333 -52.333 44 -85 44c-25.333 0 -47.333 -9 -66 -27s-28 -41.333 -28 -70s9.16699 -51.834 27.5 -69.501
s40.5 -26.5 66.5 -26.5z" />
    <glyph glyph-name="bar.case" horiz-adv-x="330" 
d="M237 730v-777h-144v777h144z" />
    <glyph glyph-name="brokenbar.case" horiz-adv-x="330" 
d="M237 392h-144v338h144v-338zM237 -47h-144v337h144v-337z" />
    <glyph glyph-name="registered.ss07" horiz-adv-x="815" 
d="M151 593c71.333 68 157 102 257 102s185.667 -34 257 -102s107 -152.333 107 -253s-35.667 -185 -107 -253s-157 -102 -257 -102s-185.667 34 -257 102s-107 152.333 -107 253s35.667 185 107 253zM407 75c73.333 0 136.666 25.667 189.999 77s80 114 80 188
s-26.667 136.667 -80 188s-116.666 77 -189.999 77c-72.667 0 -135.667 -25.667 -189 -77s-80 -114 -80 -188s26.667 -136.667 80 -188s116.333 -77 189 -77zM551 389c0 -39.333 -17.333 -69 -52 -89l67 -102h-106l-49 83h-38v-83h-88v303h136c40 0 71.667 -10 95 -30
s35 -47.333 35 -82zM373 354l46.001 -0.000976562c13.333 0 23.666 3.33301 30.999 10s11 15.334 11 26.001c0 10 -3.66699 18.167 -11 24.5s-17.333 9.5 -30 9.5h-47v-70z" />
    <glyph glyph-name="caron.alt" 
d="M384 680l-39 -204h-115l6 204h148z" />
    <glyph glyph-name="acute.case" 
d="M469 877l-100 -160h-151l80 160h171z" />
    <glyph glyph-name="breve.case" 
d="M360 890h114.999c0 -52.667 -15.833 -94 -47.5 -124s-74.167 -45 -127.5 -45s-95.833 15 -127.5 45s-47.5 71.333 -47.5 124h115c0 -21.333 5.33301 -37.5 16 -48.5s25.334 -16.5 44.001 -16.5c18 0 32.5 5.66699 43.5 17s16.5 27.333 16.5 48z" />
    <glyph glyph-name="caron.case" 
d="M494 873l-116 -160h-156l-116 160h142l53 -66l51 66h142z" />
    <glyph glyph-name="circumflex.case" 
d="M301 779l-53 -66h-141l117 164h153l116 -164h-141z" />
    <glyph glyph-name="dieresis.case" 
d="M121 880c18.667 17.333 40.334 26 65.001 26s46 -8.66699 64 -26c17.333 -17.333 26.166 -38.166 26.499 -62.499s-8.5 -45.166 -26.5 -62.499c-17.333 -16.667 -38.666 -25 -63.999 -25s-47 8.33301 -65 25c-18.667 17.333 -27.834 38.166 -27.501 62.499
s9.5 45.166 27.5 62.499zM350 880c18.667 17.333 40.334 26 65.001 26s46 -8.66699 64 -26c17.333 -17.333 26.166 -38.166 26.499 -62.499s-8.5 -45.166 -26.5 -62.499c-17.333 -16.667 -38.666 -25 -63.999 -25s-47 8.33301 -65 25
c-18.667 17.333 -27.834 38.166 -27.501 62.499s9.5 45.166 27.5 62.499z" />
    <glyph glyph-name="dotaccent.case" 
d="M364 748c-17.333 -16.667 -38.666 -25 -63.999 -25s-47 8.33301 -65 25c-18.667 17.333 -27.834 38.166 -27.501 62.499s9.5 45.166 27.5 62.499c18.667 16.667 40.334 25 65.001 25s46 -8.33301 64 -25c17.333 -17.333 26.166 -38.166 26.499 -62.499
s-8.5 -45.166 -26.5 -62.499z" />
    <glyph glyph-name="grave.case" 
d="M412 717h-151l-100 160h172z" />
    <glyph glyph-name="hungarumlaut.case" 
d="M352 878l-73 -160h-124l53 160h144zM516 878l-73 -160h-124l53 160h144z" />
    <glyph glyph-name="macron.case" 
d="M443 854v-124h-286v124h286z" />
    <glyph glyph-name="ring.case" 
d="M208 920c23.333 21.333 53.333 31.999 90 31.999c36 0 65.667 -10.667 89 -32s35 -49 35 -83c0 -34.667 -11.667 -62.667 -35 -84s-53 -32 -89 -32c-36.667 0 -66.667 10.667 -90 32c-22.667 20.667 -34 48.667 -34 84c0 34.667 11.333 62.334 34 83.001zM342 836.999
c2 17.333 -4.83301 29.666 -20.5 36.999s-31.334 7.33301 -47.001 0s-22.5 -19.666 -20.5 -36.999c-2 -18 4.83301 -30.667 20.5 -38s31.334 -7.33301 47.001 0s22.5 20 20.5 38z" />
    <glyph glyph-name="tilde.case" 
d="M378 865h119c0 -34.667 -6.5 -63.834 -19.5 -87.501s-29.333 -40 -49 -49s-40.167 -13.167 -61.5 -12.5s-41 6.33398 -59 17.001l-38 22c-14 7.33301 -24.167 8.5 -30.5 3.5s-9.5 -14.167 -9.5 -27.5h-119c0 34.667 6.5 63.667 19.5 87s29.333 39.5 49 48.5
s40.167 13.167 61.5 12.5s41 -6 59 -16l38 -22c14 -7.33301 24.167 -8.5 30.5 -3.5s9.5 14.167 9.5 27.5z" />
    </font>
</defs>
</svg>
