<?xml version="1.0" encoding="utf-8"?>
<!-- Generator: Adobe Illustrator 19.1.0, SVG Export Plug-In . SVG Version: 6.00 Build 0)  -->
<svg version="1.1" id="Layer_1" xmlns="http://www.w3.org/2000/svg" xmlns:xlink="http://www.w3.org/1999/xlink" x="0px" y="0px"
	 viewBox="0 0 475.1 511.6" style="enable-background:new 0 0 475.1 511.6;" xml:space="preserve">
<style type="text/css">
	.st0{fill:#404040;}
</style>
<g>
	<path class="st0" d="M463.5,83.9c-7.2-7.2-15.8-10.8-25.7-10.8h-36.5V45.7c0-12.6-4.5-23.3-13.4-32.3C378.9,4.5,368.2,0,355.6,0
		h-18.3c-12.6,0-23.3,4.5-32.3,13.4c-8.9,8.9-13.4,19.7-13.4,32.3v27.4H182V45.7c0-12.6-4.5-23.3-13.4-32.3
		C159.6,4.5,148.9,0,136.3,0h-18.3c-12.6,0-23.3,4.5-32.3,13.4c-8.9,8.9-13.4,19.7-13.4,32.3v27.4H35.8c-9.9,0-18.5,3.6-25.7,10.8
		C2.9,91.2-0.7,99.7-0.7,109.6v365.5c0,9.9,3.6,18.5,10.9,25.7c7.2,7.2,15.8,10.8,25.7,10.8h402c9.9,0,18.5-3.6,25.7-10.8
		c7.2-7.2,10.9-15.8,10.9-25.7V109.6C474.4,99.7,470.7,91.2,463.5,83.9z M118,475.1H35.8v-82.2H118V475.1z M118,374.6H35.8v-91.4
		H118V374.6z M118,265H35.8v-82.2H118V265z M111.6,134.3c-1.8-1.8-2.7-3.9-2.7-6.4V45.7c0-2.5,0.9-4.6,2.7-6.4
		c1.8-1.8,3.9-2.7,6.4-2.7h18.3c2.5,0,4.6,0.9,6.4,2.7c1.8,1.8,2.7,3.9,2.7,6.4v82.2c0,2.5-0.9,4.6-2.7,6.4
		c-1.8,1.8-3.9,2.7-6.4,2.7h-18.3C115.6,137,113.4,136.1,111.6,134.3z M227.7,475.1h-91.4v-82.2h91.4L227.7,475.1L227.7,475.1z
		 M227.7,374.6h-91.4v-91.4h91.4L227.7,374.6L227.7,374.6z M227.7,265h-91.4v-82.2h91.4L227.7,265L227.7,265z M337.3,475.1H246
		v-82.2h91.4V475.1z M337.3,374.6H246v-91.4h91.4V374.6z M337.3,265H246v-82.2h91.4V265z M330.9,134.3c-1.8-1.8-2.7-3.9-2.7-6.4
		V45.7c0-2.5,0.9-4.6,2.7-6.4c1.8-1.8,3.9-2.7,6.4-2.7h18.3c2.5,0,4.6,0.9,6.4,2.7c1.8,1.8,2.7,3.9,2.7,6.4v82.2
		c0,2.5-0.9,4.6-2.7,6.4c-1.8,1.8-3.9,2.7-6.4,2.7h-18.3C334.8,137,332.7,136.1,330.9,134.3z M437.8,475.1h-82.2v-82.2h82.2V475.1z
		 M437.8,374.6h-82.2v-91.4h82.2V374.6z M437.8,265h-82.2v-82.2h82.2V265z"/>
</g>
</svg>
