<svg id="anbi-algemeen-nut-beogende-instelling" xmlns="http://www.w3.org/2000/svg" width="44.031" height="35" viewBox="0 0 44.031 35">
  <path id="Path_251" data-name="Path 251" d="M44.032,33.66A1.315,1.315,0,0,1,42.751,35H1.281A1.315,1.315,0,0,1,0,33.66V1.34A1.315,1.315,0,0,1,1.281,0h41.47a1.315,1.315,0,0,1,1.28,1.34V33.66Z" fill="#004990"/>
  <g id="Group_336" data-name="Group 336" transform="translate(3.908 16.928)">
    <path id="Path_252" data-name="Path 252" d="M20.616,56.088H15.865l-.686,1.852H12.968l3.663-9.651H19.77l3.719,9.651H21.318l-.7-1.853Zm-.483-1.35-1.9-5.027-1.872,5.027Zm14.531-6.449V57.94H31.122l-3.146-5.3q-.235-.4-.734-1.386l-.355-.693-.347-.693h-.08l.032.636.025.629.016,1.266v5.537h-2.09V48.289h3.542l2.864,4.893q.453.783.88,1.577l.419.785.42.792h.073l-.025-.622-.024-.622-.015-1.245V48.289h2.089ZM36.6,57.94V48.289h5.413a4.486,4.486,0,0,1,2.595.534,2.427,2.427,0,0,1,.69,2.012,1.892,1.892,0,0,1-1.622,2.107v.036a2.028,2.028,0,0,1,1.888,2.3,2.545,2.545,0,0,1-.726,2.072,4.083,4.083,0,0,1-2.533.594H36.6Zm2.09-5.6h2.558a3.262,3.262,0,0,0,1.585-.24q.343-.24.343-1.111,0-1.159-1.5-1.159H38.69v2.51Zm0,4.059h2.292l.734-.014a2.484,2.484,0,0,0,1.392-.262,1.373,1.373,0,0,0,.335-1.1q0-.877-.351-1.1a3.968,3.968,0,0,0-1.73-.226H38.69V56.4Zm10.481-8.11V57.94h-2.09V48.289Z" transform="translate(-12.968 -48.289)" fill="#fff"/>
  </g>
  <g id="Group_337" data-name="Group 337" transform="translate(12.011 6.108)">
    <path id="Path_253" data-name="Path 253" d="M33.649,17.867c.067.341.408,1.959.5,2.279a1.039,1.039,0,0,0-.155-.013.988.988,0,0,0-.152.013c-.023-.236-.115-.717-.152-.884-.067,0-.26-.01-.448-.01-.148,0-.3.007-.445.01-.122.177-.421.671-.529.884a.475.475,0,0,0-.108-.013,1.111,1.111,0,0,0-.128.013q.585-.831,1.149-1.677c.169-.252.286-.416.4-.6Zm-.171.4h-.011l-.586.868q.391.019.782,0l-.185-.868Zm1.25,1.88a.7.7,0,0,0-.273,0c.219-.789.458-1.971.529-2.449a.65.65,0,0,0,.128.013,1.243,1.243,0,0,0,.156-.013C35.217,17.871,34.815,19.587,34.728,20.146Zm.911-.6a.369.369,0,0,1-.243-.367.662.662,0,0,1,.738-.619.806.806,0,0,1,.256.039.574.574,0,0,0,.172.017c.081,0,.246-.01.333-.013,0,.02-.007.043-.007.069s.007.049.007.069q-.16-.01-.32-.016a.388.388,0,0,1,.095.269.615.615,0,0,1-.324.534.976.976,0,0,1-.455.092c-.074,0-.145,0-.2-.006-.037.023-.138.078-.138.18,0,.131.141.134.249.134.381,0,.5,0,.627.075a.317.317,0,0,1,.148.285.783.783,0,0,1-.869.711.678.678,0,0,1-.425-.115.4.4,0,0,1-.155-.311.457.457,0,0,1,.223-.377.871.871,0,0,1,.176-.082l0-.023c-.051-.013-.185-.052-.185-.19,0-.2.189-.285.29-.331V19.55Zm.111,1.353a.549.549,0,0,0,.6-.511c0-.255-.276-.265-.458-.265a.722.722,0,0,0-.37.082.405.405,0,0,0-.189.35C35.335,20.8,35.533,20.9,35.749,20.9Zm.215-1.375c.327,0,.448-.357.448-.557a.283.283,0,0,0-.3-.311c-.34,0-.461.35-.461.54A.3.3,0,0,0,35.965,19.527Zm2.228.5a1.112,1.112,0,0,1-.549.144.628.628,0,0,1-.671-.675.879.879,0,0,1,.866-.933c.32,0,.6.14.6.537a1.018,1.018,0,0,1-.038.265c-.249-.013-.344-.016-.745-.016-.128,0-.3,0-.407.006a1.107,1.107,0,0,0-.017.19.456.456,0,0,0,.489.508.824.824,0,0,0,.5-.174h.01Zm-.917-.8c.138.01.32.013.459.013s.323,0,.448-.013a.683.683,0,0,0,.02-.177.348.348,0,0,0-.364-.39c-.182,0-.461.115-.563.567Zm1.877-.39h.007a.745.745,0,0,1,.553-.262.375.375,0,0,1,.414.318.739.739,0,0,1,.589-.318c.294,0,.438.183.438.347a1.76,1.76,0,0,1-.05.3l-.128.6a2.965,2.965,0,0,0-.054.321.761.761,0,0,0-.131-.013,1.021,1.021,0,0,0-.145.013,7.6,7.6,0,0,0,.263-1.126.279.279,0,0,0-.307-.288.507.507,0,0,0-.482.373c-.054.177-.176.79-.215,1.042a.834.834,0,0,0-.128-.013,1.02,1.02,0,0,0-.145.013,6.947,6.947,0,0,0,.256-1.153.269.269,0,0,0-.3-.262.5.5,0,0,0-.482.38,10.206,10.206,0,0,0-.209,1.035.794.794,0,0,0-.135-.013.838.838,0,0,0-.135.013,13.99,13.99,0,0,0,.337-1.552.6.6,0,0,0,.118.013.966.966,0,0,0,.138-.013l-.067.246Zm3.533,1.192a1.112,1.112,0,0,1-.549.144.628.628,0,0,1-.671-.675.879.879,0,0,1,.866-.933c.32,0,.6.14.6.537a1.018,1.018,0,0,1-.038.265c-.249-.013-.344-.016-.745-.016-.128,0-.3,0-.407.006a1.1,1.1,0,0,0-.017.19.456.456,0,0,0,.489.508.825.825,0,0,0,.5-.174h.01Zm-.916-.8c.138.01.32.013.458.013s.323,0,.448-.013a.683.683,0,0,0,.02-.177.348.348,0,0,0-.364-.39c-.181,0-.461.115-.562.567Zm2.6.8a1.111,1.111,0,0,1-.549.144.628.628,0,0,1-.671-.675.879.879,0,0,1,.866-.933c.32,0,.6.14.6.537a1.048,1.048,0,0,1-.037.265c-.249-.013-.344-.016-.745-.016-.128,0-.3,0-.408.006a1.1,1.1,0,0,0-.017.19.456.456,0,0,0,.489.508.826.826,0,0,0,.5-.174h.01l-.043.147Zm-.916-.8q.229.014.458.013c.131,0,.323,0,.448-.013a.683.683,0,0,0,.02-.177.348.348,0,0,0-.364-.39c-.182,0-.461.115-.562.567Zm1.891-.393.014.006a.754.754,0,0,1,.556-.265.421.421,0,0,1,.472.393,1.644,1.644,0,0,1-.077.413c-.037.154-.139.626-.152.763a.751.751,0,0,0-.128-.013,1.028,1.028,0,0,0-.148.013,6.606,6.606,0,0,0,.253-1.123.3.3,0,0,0-.333-.291.515.515,0,0,0-.489.35c-.077.226-.216.96-.233,1.064a.676.676,0,0,0-.125-.013.848.848,0,0,0-.135.013c.091-.3.3-1.287.341-1.552a.646.646,0,0,0,.121.013.878.878,0,0,0,.128-.013Zm2.932-.963c.2.341,1.122,1.651,1.287,1.837.057-.206.283-1.261.347-1.808a.635.635,0,0,0,.118.013.463.463,0,0,0,.1-.013c-.125.419-.472,1.975-.509,2.279h-.047c-.1-.18-1.149-1.654-1.287-1.824-.1.386-.33,1.487-.354,1.788a.591.591,0,0,0-.115-.013.7.7,0,0,0-.118.013c.155-.449.485-1.981.535-2.273h.041Zm3.128,2.05-.014-.013a.751.751,0,0,1-.573.272c-.222,0-.472-.134-.472-.377a3.732,3.732,0,0,1,.1-.517c.027-.115.1-.458.132-.694a.947.947,0,0,0,.148.013.981.981,0,0,0,.146-.013,7.921,7.921,0,0,0-.263,1.117.292.292,0,0,0,.327.314.532.532,0,0,0,.5-.38c.084-.246.212-.992.222-1.051a1.029,1.029,0,0,0,.134.013.9.9,0,0,0,.139-.013,13.523,13.523,0,0,0-.341,1.552.753.753,0,0,0-.121-.013.761.761,0,0,0-.131.013l.061-.223Zm1.422-1.739c-.044.151-.077.3-.111.452.1,0,.233-.01.35-.013a.468.468,0,0,0-.02.134c-.118,0-.256-.013-.358-.013l-.131.616a3.028,3.028,0,0,0-.077.458.232.232,0,0,0,.239.239.45.45,0,0,0,.223-.065l-.006.085a.61.61,0,0,1-.344.1.33.33,0,0,1-.36-.308,1.511,1.511,0,0,1,.047-.292c.1-.449.115-.5.182-.835-.064,0-.148,0-.222.006a.312.312,0,0,0,.02-.127c.071,0,.159.013.216.013l.061-.347.293-.1ZM26.115,22.616c.391.036.505.272.505.442a.734.734,0,0,1-.435.632,1.441,1.441,0,0,1-.607.118c-.067,0-.364-.013-.425-.013a.957.957,0,0,0-.152.013c.172-.632.394-1.667.488-2.243.048,0,.121.013.179.013.128,0,.283-.013.438-.013a.883.883,0,0,1,.414.075.383.383,0,0,1,.209.338.715.715,0,0,1-.61.615Zm-.178.062a1.75,1.75,0,0,0-.232-.013c-.061,0-.132,0-.189,0q-.111.5-.2,1.009a1.127,1.127,0,0,0,.216.016,1.21,1.21,0,0,0,.431-.069.644.644,0,0,0,.381-.563c0-.233-.182-.354-.4-.383Zm.118-1.005c-.1,0-.206,0-.306.013-.115.458-.155.629-.206.868a1.338,1.338,0,0,0,.176.01.977.977,0,0,0,.471-.1.533.533,0,0,0,.269-.455c0-.242-.175-.337-.4-.337Zm2.144,2.02a1.11,1.11,0,0,1-.55.144.628.628,0,0,1-.67-.675.879.879,0,0,1,.866-.933c.32,0,.6.141.6.537a1.029,1.029,0,0,1-.038.265c-.249-.013-.344-.016-.745-.016-.128,0-.3,0-.407.006a1.11,1.11,0,0,0-.017.19.456.456,0,0,0,.488.508.823.823,0,0,0,.5-.174h.011l-.044.147Zm-.917-.8c.138.01.32.013.458.013s.324,0,.449-.013a.684.684,0,0,0,.02-.177.348.348,0,0,0-.364-.39C27.663,22.324,27.383,22.439,27.281,22.891Zm2.319-.665c.533,0,.718.308.718.639a.966.966,0,0,1-.954.976.629.629,0,0,1-.7-.658A.944.944,0,0,1,29.6,22.226Zm-.246,1.51c.509,0,.7-.606.7-.93a.432.432,0,0,0-.449-.475c-.488,0-.677.567-.677.93C28.927,23.536,29.051,23.736,29.355,23.736Zm1.534-.524a.369.369,0,0,1-.243-.367.662.662,0,0,1,.738-.619.81.81,0,0,1,.256.039.577.577,0,0,0,.171.016c.081,0,.246-.01.334-.013,0,.02-.007.042-.007.069s.007.049.007.069q-.16-.01-.32-.017a.388.388,0,0,1,.095.269.615.615,0,0,1-.323.534.978.978,0,0,1-.455.092c-.074,0-.145,0-.2-.006-.037.023-.138.079-.138.18,0,.131.141.134.249.134.381,0,.5,0,.627.075a.317.317,0,0,1,.149.285.783.783,0,0,1-.869.711.674.674,0,0,1-.425-.115.4.4,0,0,1-.155-.311.458.458,0,0,1,.223-.377.887.887,0,0,1,.176-.082l0-.023c-.051-.013-.185-.052-.185-.19,0-.2.189-.285.29-.331v-.023ZM31,24.564a.549.549,0,0,0,.6-.511c0-.255-.276-.265-.458-.265a.721.721,0,0,0-.37.082.406.406,0,0,0-.189.35C30.585,24.466,30.784,24.564,31,24.564Zm.215-1.376c.327,0,.448-.357.448-.557a.284.284,0,0,0-.3-.311c-.34,0-.461.35-.461.541a.3.3,0,0,0,.31.327Zm2.228.5a1.11,1.11,0,0,1-.549.144.628.628,0,0,1-.671-.675.879.879,0,0,1,.866-.933c.32,0,.6.141.6.537a1.048,1.048,0,0,1-.037.265c-.25-.013-.344-.016-.745-.016-.128,0-.3,0-.408.006a1.11,1.11,0,0,0-.017.19.456.456,0,0,0,.489.508.825.825,0,0,0,.5-.174h.01l-.044.147Zm-.916-.8q.229.014.458.013c.131,0,.323,0,.448-.013a.668.668,0,0,0,.02-.177.348.348,0,0,0-.364-.39C32.907,22.324,32.628,22.439,32.527,22.891Zm1.891-.393.013.007a.755.755,0,0,1,.556-.265.421.421,0,0,1,.472.393,1.635,1.635,0,0,1-.077.413c-.038.154-.138.626-.152.763a.76.76,0,0,0-.128-.013,1.028,1.028,0,0,0-.148.013,6.681,6.681,0,0,0,.253-1.123.3.3,0,0,0-.333-.292.515.515,0,0,0-.489.35c-.077.226-.215.96-.232,1.064a.682.682,0,0,0-.125-.013.841.841,0,0,0-.135.013c.091-.3.3-1.287.34-1.552a.617.617,0,0,0,.121.013.842.842,0,0,0,.128-.013l-.064.242Zm2.6,1.019a.723.723,0,0,1-.6.334.588.588,0,0,1-.607-.639.938.938,0,0,1,.879-.979.5.5,0,0,1,.509.324h.013c.081-.413.176-.842.232-1.2a.807.807,0,0,0,.135.013.763.763,0,0,0,.132-.013c-.2.776-.266,1.136-.411,1.827q-.065.309-.115.622a.461.461,0,0,0-.115-.013.653.653,0,0,0-.128.013l.074-.291Zm-.529.206c.509,0,.654-.642.654-.927a.4.4,0,0,0-.411-.445c-.525,0-.65.629-.65.881C36.083,23.549,36.232,23.723,36.491,23.723Zm2.447-.03a1.106,1.106,0,0,1-.549.144.628.628,0,0,1-.671-.675.879.879,0,0,1,.866-.933c.32,0,.6.141.6.537a1.037,1.037,0,0,1-.037.265c-.25-.013-.344-.016-.745-.016-.128,0-.3,0-.407.006a1.11,1.11,0,0,0-.017.19.456.456,0,0,0,.489.508.823.823,0,0,0,.5-.174h.01l-.045.147Zm-.916-.8c.138.01.32.013.458.013s.323,0,.448-.013a.668.668,0,0,0,.02-.177.348.348,0,0,0-.363-.39C38.4,22.324,38.123,22.439,38.021,22.891Zm2.845-1.326a1.025,1.025,0,0,0,.145.013,1.079,1.079,0,0,0,.155-.013q-.293,1.111-.492,2.243a.949.949,0,0,0-.149-.013,1.128,1.128,0,0,0-.152.013c.172-.632.394-1.667.492-2.243Zm.92.933.013.007a.755.755,0,0,1,.556-.265.421.421,0,0,1,.472.393,1.621,1.621,0,0,1-.078.413c-.037.154-.138.626-.152.763a.749.749,0,0,0-.128-.013,1.029,1.029,0,0,0-.149.013,6.62,6.62,0,0,0,.253-1.123.3.3,0,0,0-.334-.292.515.515,0,0,0-.488.35c-.078.226-.216.96-.232,1.064a.682.682,0,0,0-.125-.013.841.841,0,0,0-.135.013c.091-.3.3-1.287.34-1.552a.617.617,0,0,0,.121.013.843.843,0,0,0,.128-.013l-.064.242Zm2.325.02a.275.275,0,0,0-.276-.193.317.317,0,0,0-.32.311c0,.16.138.223.29.288s.3.134.3.347a.648.648,0,0,1-.695.573.675.675,0,0,1-.364-.095,1.287,1.287,0,0,0,.108-.219h.024a.336.336,0,0,0,.333.2.345.345,0,0,0,.367-.338c0-.144-.091-.187-.269-.269-.145-.065-.307-.141-.307-.377a.55.55,0,0,1,.617-.527.7.7,0,0,1,.307.066,1.016,1.016,0,0,0-.088.236h-.031Zm1.035-.671c-.044.151-.078.3-.112.452.1,0,.232-.01.35-.013a.47.47,0,0,0-.02.134c-.118,0-.256-.013-.357-.013l-.131.615a2.965,2.965,0,0,0-.078.459.233.233,0,0,0,.239.239.448.448,0,0,0,.222-.065l-.006.085a.61.61,0,0,1-.344.1.33.33,0,0,1-.36-.308,1.506,1.506,0,0,1,.047-.291c.1-.449.115-.5.182-.835-.064,0-.148,0-.222.006a.316.316,0,0,0,.02-.128c.071,0,.158.013.215.013l.061-.347.294-.1Zm1.533,1.847a1.109,1.109,0,0,1-.549.144.628.628,0,0,1-.671-.675.879.879,0,0,1,.866-.933c.32,0,.6.141.6.537a1.051,1.051,0,0,1-.037.265c-.25-.013-.344-.016-.745-.016-.129,0-.3,0-.408.006a1.22,1.22,0,0,0-.017.19.456.456,0,0,0,.489.508.825.825,0,0,0,.5-.174h.01l-.044.147Zm-.916-.8q.229.014.458.013c.132,0,.324,0,.448-.013a.668.668,0,0,0,.02-.177.348.348,0,0,0-.363-.39C46.145,22.324,45.865,22.439,45.764,22.891Zm1.635.917a.715.715,0,0,0-.273,0c.22-.789.458-1.971.529-2.449a.651.651,0,0,0,.128.013,1.244,1.244,0,0,0,.156-.013C47.887,21.532,47.486,23.248,47.4,23.808Zm.813,0a.715.715,0,0,0-.273,0c.219-.789.458-1.971.529-2.449a.655.655,0,0,0,.128.013,1.234,1.234,0,0,0,.156-.013C48.7,21.532,48.3,23.248,48.212,23.808Zm.822,0a1.293,1.293,0,0,0-.155-.013.7.7,0,0,0-.132.013,15.372,15.372,0,0,0,.347-1.552,1.057,1.057,0,0,0,.142.013.85.85,0,0,0,.138-.013,14.8,14.8,0,0,0-.34,1.552Zm.317-2.227a.157.157,0,1,1-.162.157A.159.159,0,0,1,49.35,21.581Zm.742.917.013.007a.754.754,0,0,1,.556-.265.421.421,0,0,1,.472.393,1.613,1.613,0,0,1-.077.413c-.037.154-.138.626-.152.763a.76.76,0,0,0-.128-.013,1.029,1.029,0,0,0-.149.013,6.591,6.591,0,0,0,.253-1.123.3.3,0,0,0-.334-.292.515.515,0,0,0-.488.35c-.078.226-.216.96-.233,1.064a.682.682,0,0,0-.125-.013.841.841,0,0,0-.135.013c.091-.3.3-1.287.341-1.552a.614.614,0,0,0,.121.013.843.843,0,0,0,.128-.013l-.064.242Zm1.715.714a.369.369,0,0,1-.243-.367.662.662,0,0,1,.738-.619.806.806,0,0,1,.256.039.579.579,0,0,0,.171.016c.081,0,.247-.01.333-.013,0,.02-.006.042-.006.069s.006.049.006.069q-.16-.01-.32-.017a.389.389,0,0,1,.094.269.615.615,0,0,1-.323.534.975.975,0,0,1-.455.092c-.074,0-.145,0-.2-.006-.037.023-.138.079-.138.18,0,.131.142.134.25.134.381,0,.5,0,.627.075a.317.317,0,0,1,.148.285.782.782,0,0,1-.869.711.677.677,0,0,1-.425-.115.4.4,0,0,1-.155-.311.458.458,0,0,1,.222-.377.878.878,0,0,1,.175-.082l0-.023c-.051-.013-.185-.052-.185-.19,0-.2.189-.285.29-.331v-.023Zm.112,1.353a.549.549,0,0,0,.6-.511c0-.255-.276-.265-.458-.265a.724.724,0,0,0-.371.082.407.407,0,0,0-.189.35c0,.245.2.344.415.344Zm.216-1.376c.327,0,.448-.357.448-.557a.284.284,0,0,0-.3-.311c-.341,0-.462.35-.462.541a.3.3,0,0,0,.31.327Z" transform="translate(-25.003 -17.697)" fill="#fff"/>
  </g>
  <path id="Path_254" data-name="Path 254" d="M10.838,91.364a.66.66,0,0,1-.7-.614v-.114a.66.66,0,0,1,.7-.614H47.478a.66.66,0,0,1,.7.614v.114a.66.66,0,0,1-.7.614Z" transform="translate(-7.086 -59.336)" fill="#ffef00"/>
</svg>
