<svg xmlns="http://www.w3.org/2000/svg" width="145.507" height="39.974" viewBox="0 0 145.507 39.974">
  <g id="Group_340" data-name="Group 340" transform="translate(-3.04 1.013)">
    <g id="Group_338" data-name="Group 338" transform="translate(51.131 19.339)">
      <path id="Path_255" data-name="Path 255" d="M75.919,29.625h-6.5v4.612h5.353v2.776H69.421V44H66.238V26.823h9.886a17.958,17.958,0,0,1-.2,2.8" transform="translate(-66.238 -25.037)" fill="#fff"/>
      <path id="Path_256" data-name="Path 256" d="M91.974,43.425c0,1.476-.968,1.963-2.164,1.963a2.274,2.274,0,0,1-2.446-1.377h-.128a5.42,5.42,0,0,1-3.618,1.377c-2.293,0-3.924-1.148-3.924-3.748,0-2.877,1.733-3.9,4.892-4.027l2.343-.1v-2.8a5.382,5.382,0,0,0-2.6-.534,8.323,8.323,0,0,0-3.059.562,15.387,15.387,0,0,1-.406-2.65,13.092,13.092,0,0,1,3.668-.512A8.712,8.712,0,0,1,89.707,33v8.613c0,.636.178.867.791.867h1.477Zm-5.045-3.95-2.367.1c-1.427.049-1.937.485-1.937,1.859,0,1.173.511,1.658,1.656,1.658a4.7,4.7,0,0,0,2.648-.791Z" transform="translate(-69.455 -26.173)" fill="#fff"/>
      <path id="Path_257" data-name="Path 257" d="M102.365,45.386c-3.977,0-6.168-2.192-6.168-6.674,0-5.047,2.7-7.137,5.81-7.137a10.976,10.976,0,0,1,3.542.512,17.3,17.3,0,0,1-.61,2.777,7.269,7.269,0,0,0-2.728-.509c-1.885,0-2.881.992-2.881,4,0,3.39.946,4.258,3.136,4.258a5.983,5.983,0,0,0,2.727-.665,15.427,15.427,0,0,1,.584,2.7,7.986,7.986,0,0,1-3.412.737" transform="translate(-73.399 -26.173)" fill="#fff"/>
      <path id="Path_258" data-name="Path 258" d="M120.9,39.222h-7.49v.229c0,2.165.686,3.182,3.211,3.182a8.12,8.12,0,0,0,3.514-.814,14.777,14.777,0,0,1,.661,2.727,11.221,11.221,0,0,1-4.229.843c-4.075,0-6.343-2.243-6.343-6.73,0-4.788,2.4-7.08,5.683-7.08,3.488,0,5.1,2.192,5.1,5.68a17.578,17.578,0,0,1-.1,1.963m-7.467-1.963h4.614c.024-.151.024-.586.024-.738,0-1.886-.74-2.727-2.214-2.727-1.531,0-2.4,1.046-2.424,3.465" transform="translate(-76.753 -26.174)" fill="#fff"/>
      <path id="Path_259" data-name="Path 259" d="M132.6,43.69a8.294,8.294,0,0,1-5.171-1.529V24.681a26.153,26.153,0,0,1,2.9-.2v6.8h.154a4.275,4.275,0,0,1,3.312-1.4c2.7,0,4.791,1.762,4.791,6.4,0,4.742-2.217,7.416-5.99,7.416m.307-11.238a3.884,3.884,0,0,0-2.574.919v7.236a3.8,3.8,0,0,0,2.115.559c2.115,0,3.032-1.223,3.032-4.611,0-3.185-.893-4.1-2.574-4.1" transform="translate(-80.866 -24.477)" fill="#fff"/>
      <path id="Path_260" data-name="Path 260" d="M149.831,45.389c-3.491,0-5.86-2.091-5.86-6.909,0-4.354,2.469-6.9,5.935-6.9,3.364,0,5.914,1.933,5.914,6.9,0,4.538-2.625,6.909-5.989,6.909m.05-11.315c-1.706,0-2.778,1.122-2.778,4.406,0,3.263.893,4.411,2.728,4.411s2.88-1.122,2.88-4.411c0-3.207-1.021-4.406-2.83-4.406" transform="translate(-84.819 -26.174)" fill="#fff"/>
      <path id="Path_261" data-name="Path 261" d="M167.24,45.389c-3.493,0-5.862-2.091-5.862-6.909,0-4.354,2.472-6.9,5.938-6.9,3.363,0,5.91,1.933,5.91,6.9,0,4.538-2.625,6.909-5.986,6.909m.048-11.315c-1.705,0-2.776,1.122-2.776,4.406,0,3.263.891,4.411,2.728,4.411s2.879-1.122,2.879-4.411c0-3.207-1.023-4.406-2.831-4.406" transform="translate(-88.98 -26.174)" fill="#fff"/>
      <path id="Path_262" data-name="Path 262" d="M187.756,43.562l-3.237-5.888-1.656,1.914v3.847h-2.9V24.682a25.977,25.977,0,0,1,2.9-.206V35.613h.151l4.792-5.761a17.573,17.573,0,0,1,2.905.587l-4.332,5.047c1.527,2.521,2.93,4.966,4.459,7.821a18.429,18.429,0,0,1-3.083.255" transform="translate(-93.422 -24.476)" fill="#fff"/>
    </g>
    <g id="Group_339" data-name="Group 339" transform="translate(3.04 4.091)">
      <path id="Rectangle_188" data-name="Rectangle 188" d="M2.619,0H32.252A2.618,2.618,0,0,1,34.87,2.618V32.251a2.619,2.619,0,0,1-2.619,2.619H2.619A2.619,2.619,0,0,1,0,32.251V2.619A2.619,2.619,0,0,1,2.619,0Z" fill="#004990"/>
      <rect id="Rectangle_189" data-name="Rectangle 189" width="29.888" height="4.982" transform="translate(2.49 27.395)" fill="#457aae"/>
      <path id="Path_263" data-name="Path 263" d="M28.159,38.4V25.587h-3.39V20.97h3.39V17.027c0-3.1,2-5.943,6.616-5.943a28.058,28.058,0,0,1,3.249.179l-.109,4.31s-1.408-.012-2.945-.012c-1.663,0-1.932.768-1.932,2.04V20.97h5.01l-.218,4.617H33.038V38.4Z" transform="translate(-8.235 -6.027)" fill="#fff"/>
    </g>
    <text id="Volg_ons_op" data-name="Volg ons op" transform="translate(50.652 14.987)" fill="#fff" font-size="15" font-family="SegoeUI, Segoe UI" letter-spacing="-0.05em"><tspan x="0" y="0">Volg ons op</tspan></text>
  </g>
</svg>
