<?xml version="1.0" encoding="utf-8"?>
<!-- Generator: Adobe Illustrator 19.1.0, SVG Export Plug-In . SVG Version: 6.00 Build 0)  -->
<svg version="1.1" id="Capa_1" xmlns="http://www.w3.org/2000/svg" xmlns:xlink="http://www.w3.org/1999/xlink" x="0px" y="0px"
	 viewBox="118 -114.1 512 512" style="enable-background:new 118 -114.1 512 512;" xml:space="preserve">
<style type="text/css">
	.st0{fill:#404040;}
</style>
<g>
	<g>
		<g>
			<path class="st0" d="M511.1,178.5h-18.3c-2.7,0-4.9,0.9-6.6,2.6c-1.7,1.7-2.6,3.9-2.6,6.6v91.4c0,12.6-4.5,23.3-13.4,32.3
				c-9,9-19.7,13.4-32.3,13.4H200.3c-12.6,0-23.3-4.5-32.3-13.4c-9-9-13.4-19.7-13.4-32.3V41.4c0-12.6,4.5-23.3,13.4-32.3
				c9-9,19.7-13.4,32.3-13.4h201.1c2.7,0,4.9-0.9,6.6-2.6c1.7-1.7,2.6-3.9,2.6-6.6v-18.3c0-2.7-0.9-4.9-2.6-6.6
				c-1.7-1.7-3.9-2.6-6.6-2.6H200.3c-22.7,0-42,8-58.1,24.1C126-0.7,118,18.7,118,41.4v237.7c0,22.7,8,42,24.1,58.1
				c16.1,16.1,35.5,24.1,58.1,24.1H438c22.7,0,42-8.1,58.1-24.1c16.1-16.1,24.1-35.5,24.1-58.1v-91.4c0-2.7-0.9-4.9-2.6-6.6
				C516,179.4,513.8,178.5,511.1,178.5z"/>
			<path class="st0" d="M624.6-72.1c-3.6-3.6-7.9-5.4-12.9-5.4H465.4c-5,0-9.2,1.8-12.9,5.4c-3.6,3.6-5.4,7.9-5.4,12.9
				s1.8,9.2,5.4,12.9l50.3,50.3L316.6,190.2c-1.9,1.9-2.9,4.1-2.9,6.6c0,2.5,1,4.7,2.9,6.6l32.6,32.6c1.9,1.9,4.1,2.9,6.6,2.9
				s4.7-0.9,6.6-2.9L548.6,49.7l50.3,50.3c3.6,3.6,7.9,5.4,12.9,5.4s9.2-1.8,12.9-5.4c3.6-3.6,5.4-7.9,5.4-12.9V-59.2
				C630-64.2,628.2-68.4,624.6-72.1z"/>
		</g>
	</g>
</g>
</svg>
