<?xml version="1.0" encoding="utf-8"?>
<!-- Generator: Adobe Illustrator 19.1.0, SVG Export Plug-In . SVG Version: 6.00 Build 0)  -->
<svg version="1.1" id="Layer_1" xmlns="http://www.w3.org/2000/svg" xmlns:xlink="http://www.w3.org/1999/xlink" x="0px" y="0px"
	 viewBox="0 0 612 333.8" style="enable-background:new 0 0 612 333.8;" xml:space="preserve">
<style type="text/css">
	.st0{fill:#FFFFFF;}
</style>
<g>
	<g>
		<path class="st0" d="M604.3,55.7c4.3,0,7.7-3.6,7.7-7.7V7.8c0-4.3-3.3-7.7-7.7-7.7H7.7C3.5,0.1,0,3.7,0,7.8V48
			c0,4.3,3.3,7.7,7.7,7.7L604.3,55.7L604.3,55.7z"/>
		<path class="st0" d="M0,187.1c0,4.3,3.3,7.7,7.7,7.7h596.5c4.3,0,7.7-3.6,7.7-7.7v-40.2c0-4.3-3.3-7.7-7.7-7.7H7.7
			c-4.3,0-7.7,3.6-7.7,7.7V187.1z"/>
		<path class="st0" d="M0,326.2c0,4.3,3.3,7.7,7.7,7.7h596.5c4.3,0,7.7-3.6,7.7-7.7V286c0-4.3-3.3-7.7-7.7-7.7H7.7
			c-4.3,0-7.7,3.6-7.7,7.7V326.2z"/>
	</g>
</g>
</svg>
