<?xml version="1.0" encoding="utf-8"?>
<!-- Generator: Adobe Illustrator 19.1.0, SVG Export Plug-In . SVG Version: 6.00 Build 0)  -->
<svg version="1.1" id="Layer_1" xmlns="http://www.w3.org/2000/svg" xmlns:xlink="http://www.w3.org/1999/xlink" x="0px" y="0px"
	 viewBox="0 0 275.8 284.9" style="enable-background:new 0 0 275.8 284.9;" xml:space="preserve">
<style type="text/css">
	.st0{fill:#C3C2BD;}
</style>
<g>
	<g>
		<path class="st0" d="M273.5,136.9L140.5,3.9C138.6,2,136.4,1,133.9,1c-2.5,0-4.7,1-6.6,2.9l-14.3,14.3c-1.9,1.9-2.9,4.1-2.9,6.6
			s0.9,4.7,2.9,6.6l112.2,112.2L113.1,255.7c-1.9,1.9-2.9,4.1-2.9,6.6c0,2.5,0.9,4.7,2.9,6.6l14.3,14.3c1.9,1.9,4.1,2.9,6.6,2.9
			c2.5,0,4.7-1,6.6-2.9l133.1-133c1.9-1.9,2.9-4.1,2.9-6.6S275.4,138.8,273.5,136.9z"/>
		<path class="st0" d="M166.7,143.5c0-2.5-0.9-4.7-2.9-6.6l-133-133C28.9,2,26.7,1,24.3,1s-4.7,1-6.6,2.9L3.4,18.1
			c-1.9,1.9-2.9,4.1-2.9,6.6s0.9,4.7,2.9,6.6l112.2,112.2L3.4,255.7c-1.9,1.9-2.9,4.1-2.9,6.6c0,2.5,0.9,4.7,2.9,6.6l14.3,14.3
			c1.9,1.9,4.1,2.9,6.6,2.9s4.7-1,6.6-2.9l133-133C165.8,148.1,166.7,145.9,166.7,143.5z"/>
	</g>
</g>
</svg>
