<svg id="Layer_1" data-name="Layer 1" xmlns="http://www.w3.org/2000/svg" viewBox="0 0 8.91 13.91"><defs><style>.cls-1{fill:#464135;}</style></defs><title>select-arw</title><path class="cls-1" d="M19.6,12.86a.31.31,0,0,0-.09-.21L15.35,8.49a.28.28,0,0,0-.41,0l-4.16,4.16a.28.28,0,0,0,0,.41l.45.45a.28.28,0,0,0,.41,0L15.14,10l3.51,3.51a.31.31,0,0,0,.21.09.29.29,0,0,0,.21-.09l.45-.45A.31.31,0,0,0,19.6,12.86Z" transform="translate(-10.69 -8.4)"/><path class="cls-1" d="M19.6,17.86a.31.31,0,0,0-.09-.21l-.45-.45a.28.28,0,0,0-.41,0l-3.51,3.51-3.51-3.51a.31.31,0,0,0-.21-.09.29.29,0,0,0-.21.09l-.45.45a.28.28,0,0,0,0,.41l4.16,4.16a.28.28,0,0,0,.41,0l4.16-4.16A.31.31,0,0,0,19.6,17.86Z" transform="translate(-10.69 -8.4)"/></svg>