<?xml version="1.0" standalone="no"?>
<!DOCTYPE svg PUBLIC "-//W3C//DTD SVG 1.1//EN" "http://www.w3.org/Graphics/SVG/1.1/DTD/svg11.dtd" >
<svg>
<metadata>
Created by FontForge 20090914 at Thu Oct  3 08:58:24 2019
 By www-data
Copyright (c) 1989 Adobe Systems Incorporated.  All Rights Reserved.Avenir is a registered trademark of Linotype AG and/or its subsidiaries.
</metadata>
<defs>
<font id="Avenir-Light" horiz-adv-x="1064" >
  <font-face 
    font-family="Avenir Light"
    font-weight="300"
    font-stretch="normal"
    units-per-em="2048"
    panose-1="0 0 0 0 0 0 0 0 0 0"
    ascent="1638"
    descent="-410"
    x-height="946"
    cap-height="1450"
    bbox="-74 -492 2048 1909"
    underline-thickness="102"
    underline-position="-153"
    unicode-range="U+0020-U+FB02"
  />
<missing-glyph horiz-adv-x="748" 
d="M68 0v1365h544v-1365h-544zM136 68h408v1229h-408v-1229z" />
    <glyph glyph-name=".notdef" horiz-adv-x="748" 
d="M68 0v1365h544v-1365h-544zM136 68h408v1229h-408v-1229z" />
    <glyph glyph-name="space" unicode=" " horiz-adv-x="532" 
 />
    <glyph glyph-name="exclam" unicode="!" horiz-adv-x="757" 
d="M281 86c0 27.333 9.5 50.5 28.5 69.5s42.167 28.5 69.5 28.5s50.5 -9.5 69.5 -28.5s28.5 -42.167 28.5 -69.5s-9.5 -50.5 -28.5 -69.5s-42.167 -28.5 -69.5 -28.5s-50.5 9.5 -69.5 28.5s-28.5 42.167 -28.5 69.5zM317 381v1069h123v-1069h-123z" />
    <glyph glyph-name="quotedbl" unicode="&#x22;" 
d="M330 983v467h123v-467h-123zM612 983v467h123v-467h-123z" />
    <glyph glyph-name="numbersign" unicode="#" 
d="M27 469v98h235l45 320h-221v98h236l61 465h106l-63 -465h285l63 465h107l-64 -465h221v-98h-235l-43 -320h221v-98h-236l-61 -469h-106l61 469h-285l-61 -469h-107l62 469h-221zM371 567h282l43 320h-282z" />
    <glyph glyph-name="dollar" unicode="$" 
d="M68 190l116.001 80c32.667 -55.333 75 -99 127 -131s107.333 -49.667 166 -53v594l-145 53c-48 17.333 -88.667 41 -122 71s-57.666 62.167 -72.999 96.5s-26 65.5 -32 93.5s-9 55.667 -9 83c0 55.333 11.333 107.333 34 156s52.334 89.667 89.001 123
s77.334 60.333 122.001 81s90 33.334 136 38.001v137h98v-137c78 0 148.5 -13.167 211.5 -39.5s118.833 -74.166 167.5 -143.499l-112 -82c-30.667 48 -70.334 85.667 -119.001 113s-98 41 -148 41v-578l144 -49c33.333 -12 64.5 -27.333 93.5 -46
s56.667 -42.334 83 -71.001s47.166 -64.334 62.499 -107.001s23 -90 23 -142c0 -74.667 -19.5 -142 -58.5 -202s-89 -106.333 -150 -139s-126.833 -51 -197.5 -55v-137h-98v137c-76.667 0 -152.334 18.833 -227.001 56.5s-135.334 90.5 -182.001 158.5zM231.001 1085
c0 -67.333 17.834 -120.332 53.501 -158.999s88.167 -70.334 157.5 -95.001l35 -12v545c-68.667 -12 -126.834 -43 -174.501 -93s-71.5 -112 -71.5 -186zM575.002 86.001c77.333 3.33301 141.833 32.668 193.5 88.001s77.5 123.666 77.5 204.999
c0 108.667 -60.667 185.667 -182 231l-89 33v-557z" />
    <glyph glyph-name="percent" unicode="%" horiz-adv-x="1669" 
d="M78 1122c0 97.333 34.333 180.5 103 249.5s151.667 103.5 249 103.5s180.333 -34.5 249 -103.5s103 -152.167 103 -249.5s-34.333 -180.333 -103 -249s-151.667 -103 -249 -103s-180.333 34.333 -249 103s-103 151.667 -103 249zM188 1122
c0 -68 23.5 -125.167 70.5 -171.5s104.167 -69.5 171.5 -69.5s124.5 23.167 171.5 69.5s70.5 103.5 70.5 171.5s-23.667 125.333 -71 172s-104.333 70 -171 70s-123.667 -23.333 -171 -70s-71 -104 -71 -172zM324 -12l933 1532l95 -58l-936 -1532zM887 328
c0 97.333 34.333 180.333 103 249s151.667 103 249 103s180.333 -34.333 249 -103s103 -151.667 103 -249s-34.333 -180.5 -103 -249.5s-151.667 -103.5 -249 -103.5s-180.333 34.5 -249 103.5s-103 152.167 -103 249.5zM997 328c0 -68 23.667 -125.333 71 -172
s104.333 -70 171 -70s123.667 23.333 171 70s71 104 71 172s-23.5 125.167 -70.5 171.5s-104.167 69.5 -171.5 69.5s-124.5 -23.167 -171.5 -69.5s-70.5 -103.5 -70.5 -171.5z" />
    <glyph glyph-name="ampersand" unicode="&#x26;" horiz-adv-x="1441" 
d="M121 385c0 31.333 3.50098 61.1699 10.501 89.5029s15.333 53.5 25 75.5s24 44.167 43 66.5s36.167 40.833 51.5 55.5s36.666 31.834 63.999 51.501s49.333 34.667 66 45l72 44.5c-28 33.333 -49.333 59.666 -64 78.999s-32.5 45.166 -53.5 77.499
s-36.167 63.833 -45.5 94.5s-14 61.667 -14 93c0 67.333 17.167 126.5 51.5 177.5s78.833 89.167 133.5 114.5s114.667 38 180 38c88.667 0 165.5 -28.833 230.5 -86.5s97.5 -131.167 97.5 -220.5c0 -29.333 -3.5 -57 -10.5 -83s-15.167 -48.833 -24.5 -68.5
s-23.5 -39.834 -42.5 -60.501s-35.667 -37.334 -50 -50.001s-35 -27.667 -62 -45s-48.5 -30.5 -64.5 -39.5l-70 -38.5l352 -373l209 377h140l-263 -463l330 -346h-182l-217 233c-63.333 -85.333 -130.333 -150 -201 -194s-154 -66 -250 -66
c-126 0 -231.167 38.833 -315.5 116.5s-126.5 179.5 -126.5 305.5zM256.001 389.004c0 -90 31.333 -162.999 94 -218.999s140.667 -84 234 -84c132 0 248 74.333 348 223l-402 418c-34.667 -20.667 -61.167 -37 -79.5 -49s-42 -29.667 -71 -53s-51 -45.333 -66 -66
s-28.333 -45.834 -40 -75.501s-17.5 -61.167 -17.5 -94.5zM412.001 1159c0 -23.333 4.50195 -47.6689 13.502 -73.002s23.333 -52.166 43 -80.499s35.167 -49.666 46.5 -63.999s28.666 -35.166 51.999 -62.499l51.5 27c11.667 6 28.667 15.667 51 29s39.666 25 51.999 35
s26.666 22.833 42.999 38.5s28.833 31 37.5 46s16.167 32.5 22.5 52.5s9.5 40.667 9.5 62c0 57.333 -19.167 104.166 -57.5 140.499s-86.833 54.5 -145.5 54.5c-61.333 0 -113.166 -19.333 -155.499 -58s-63.5 -87.667 -63.5 -147z" />
    <glyph glyph-name="quotesingle" unicode="'" horiz-adv-x="532" 
d="M205 983v467h123v-467h-123z" />
    <glyph glyph-name="parenleft" unicode="(" horiz-adv-x="532" 
d="M119 590c0 162 24.833 322.498 74.5 481.498s119.5 301.5 209.5 427.5l105 -65c-85.333 -108 -151 -238.5 -197 -391.5s-69 -303.833 -69 -452.5c0 -153.333 22.333 -298.166 67 -434.499s111 -274.166 199 -413.499l-96 -61c-94 130.667 -166.333 275.667 -217 435
s-76 317.333 -76 474z" />
    <glyph glyph-name="parenright" unicode=")" horiz-adv-x="532" 
d="M25 -254c85.333 108 151 238.502 197 391.502s69 303.833 69 452.5c0 153.333 -22.333 298.166 -67 434.499s-111 274.166 -199 413.499l96 61c94 -130.667 166.333 -275.667 217 -435s76 -317.333 76 -474c0 -162 -25 -322.5 -75 -481.5s-120 -301.5 -210 -427.5z" />
    <glyph glyph-name="asterisk" unicode="*" horiz-adv-x="909" 
d="M78 1145l28 92l302 -98v311h98v-311l295 98l30 -98l-294 -97l186 -249l-76 -60l-192 256l-183 -256l-82 60l187 249z" />
    <glyph glyph-name="plus" unicode="+" horiz-adv-x="1363" 
d="M160 571v99h473v473h98v-473h473v-99h-473v-473h-98v473h-473z" />
    <glyph glyph-name="comma" unicode="," horiz-adv-x="532" 
d="M102 -283l136 467h143l-158 -467h-121z" />
    <glyph glyph-name="hyphen" unicode="-" horiz-adv-x="681" 
d="M88 430v111h506v-111h-506z" />
    <glyph glyph-name="period" unicode="." horiz-adv-x="532" 
d="M168 86c0 27.333 9.5 50.5 28.5 69.5s42.167 28.5 69.5 28.5s50.666 -9.5 69.999 -28.5s29 -42.167 29 -69.5s-9.66699 -50.5 -29 -69.5s-42.666 -28.5 -69.999 -28.5s-50.5 9.5 -69.5 28.5s-28.5 42.167 -28.5 69.5z" />
    <glyph glyph-name="slash" unicode="/" horiz-adv-x="757" 
d="M18 -37l623 1561l107 -37l-621 -1561z" />
    <glyph glyph-name="zero" unicode="0" 
d="M53 725c0 48.667 1.66699 95.667 5 141s9.66602 93.666 18.999 144.999s21.333 98.666 36 141.999s34.5 85.333 59.5 126s53.667 75 86 103s71.833 50.5 118.5 67.5s98.334 25.5 155.001 25.5s108.334 -8.5 155.001 -25.5s86.334 -39.5 119.001 -67.5
s61.334 -62.333 86.001 -103s44.5 -82.667 59.5 -126s27.167 -90.666 36.5 -141.999s15.666 -99.666 18.999 -144.999s5 -92.333 5 -141s-1.66699 -95.667 -5 -141s-9.66602 -93.666 -18.999 -144.999s-21.5 -98.666 -36.5 -141.999s-34.833 -85.333 -59.5 -126
s-53.334 -75 -86.001 -103s-72.334 -50.5 -119.001 -67.5s-98.334 -25.5 -155.001 -25.5s-108.334 8.5 -155.001 25.5s-86.167 39.5 -118.5 67.5s-61 62.333 -86 103s-44.833 82.667 -59.5 126s-26.667 90.666 -36 141.999s-15.666 99.666 -18.999 144.999s-5 92.333 -5 141
zM188 725c0 -36.667 1 -72.1709 3 -106.504s6 -73.666 12 -117.999s13.833 -85 23.5 -122s23.334 -74.167 41.001 -111.5s38.167 -68.833 61.5 -94.5s52.333 -46.5 87 -62.5s73.334 -24 116.001 -24s81.334 8 116.001 24s63.667 37 87 63s43.833 57.5 61.5 94.5
s31.5 74 41.5 111s18 77.5 24 121.5s10 83.333 12 118s3 70.334 3 107.001s-1 72.334 -3 107.001s-6 74 -12 118s-14 84.5 -24 121.5s-23.833 74 -41.5 111s-38.167 68.5 -61.5 94.5s-52.333 47 -87 63s-73.334 24 -116.001 24s-81.334 -8 -116.001 -24
s-63.667 -36.833 -87 -62.5s-43.833 -57.167 -61.5 -94.5s-31.334 -74.5 -41.001 -111.5s-17.5 -77.667 -23.5 -122s-10 -83.666 -12 -117.999s-3 -69.833 -3 -106.5z" />
    <glyph glyph-name="one" unicode="1" 
d="M195 1157l358 293h104v-1450h-122v1278h-3l-262 -215z" />
    <glyph glyph-name="two" unicode="2" 
d="M84 0l0.00195312 142.999l545 576c31.333 32.667 56.166 59.667 74.499 81s39.333 49 63 83s41.167 68.5 52.5 103.5s17 70.833 17 107.5c0 82.667 -27 148.334 -81 197.001s-123.333 73 -208 73c-74 0 -137 -21.833 -189 -65.5s-86 -101.167 -102 -172.5l-143 15
c22.667 108.667 73 191.5 151 248.5s174.333 85.5 289 85.5c75.333 0 144.333 -14.5 207 -43.5s113.5 -72 152.5 -129s58.5 -123.167 58.5 -198.5c0 -31.333 -3.16699 -62.333 -9.5 -93s-13.833 -58.334 -22.5 -83.001s-21.667 -51.167 -39 -79.5
s-32.833 -52.166 -46.5 -71.499s-32.834 -43 -57.501 -71s-44.5 -49.667 -59.5 -65l-64.5 -66l-453 -464h762v-111h-897z" />
    <glyph glyph-name="three" unicode="3" 
d="M84 260l132.999 43.002c27.333 -72 65.166 -126.167 113.499 -162.5s112.166 -54.5 191.499 -54.5c103.333 0 183.166 29.667 239.499 89s84.5 134.666 84.5 225.999c0 51.333 -11.167 96.833 -33.5 136.5s-52.166 71 -89.499 94s-78 40.167 -122 51.5s-90 17 -138 17
h-53v123h61c40.667 0 79.667 5.16699 117 15.5s71.833 26 103.5 47s56.834 49.667 75.501 86s28 78.5 28 126.5c0 78 -24.833 141.833 -74.5 191.5s-114.5 74.5 -194.5 74.5c-58.667 0 -112 -15.167 -160 -45.5s-86 -71.833 -114 -124.5l-117 66
c38.667 72.667 91.834 126.667 159.501 162s144.834 53 231.501 53c75.333 0 143 -13.333 203 -40s108.5 -68.667 145.5 -126s55.5 -126.333 55.5 -207s-22.5 -151.334 -67.5 -212.001s-108.5 -102 -190.5 -124v-4c91.333 -16.667 165.666 -59.5 222.999 -128.5
s86 -149.833 86 -242.5c0 -120.667 -39 -220.167 -117 -298.5s-188.667 -117.5 -332 -117.5c-225.333 0 -374.666 95 -447.999 285z" />
    <glyph glyph-name="four" unicode="4" 
d="M47 356v146l580 948h170v-983h221v-111h-221v-356h-123v356h-627zM158 467h516v848h-4z" />
    <glyph glyph-name="five" unicode="5" 
d="M84 221l127.003 63.998c25.333 -56 66.833 -103.167 124.5 -141.5s118.5 -57.5 182.5 -57.5c34.667 0 70.5 7.5 107.5 22.5s72.333 36.167 106 63.5s61.167 63.833 82.5 109.5s32 95.834 32 150.501c0 105.333 -35.167 194.5 -105.5 267.5s-156.833 109.5 -259.5 109.5
c-96.667 0 -192 -32.667 -286 -98l12 739h717v-111h-598l-7 -460c52 27.333 122.333 41 211 41c89.333 0 168.666 -22 237.999 -66s122.166 -102.167 158.499 -174.5s54.5 -152.166 54.5 -239.499c0 -74.667 -14 -142.5 -42 -203.5s-64.667 -110 -110 -147
s-94.833 -65.333 -148.5 -85s-107.834 -29.5 -162.501 -29.5c-203.333 0 -348 82 -434 246z" />
    <glyph glyph-name="six" unicode="6" 
d="M57 426c0 36 3.66602 71 10.999 105s19.333 69 36 105s29.834 62.833 39.501 80.5s25.167 44.5 46.5 80.5l394 653h155l-395 -639h4c23.333 19.333 55.5 34.333 96.5 45s80.5 16 118.5 16c128 0 234.167 -42.833 318.5 -128.5s126.5 -191.5 126.5 -317.5
c0 -130.667 -45 -238.5 -135 -323.5s-203.667 -127.5 -341 -127.5s-250.833 42.5 -340.5 127.5s-134.5 192.833 -134.5 323.5zM192.999 426c0 -100.667 31.332 -182.5 93.999 -245.5s144.334 -94.5 245.001 -94.5s182.5 31.5 245.5 94.5s94.5 144.833 94.5 245.5
c0 94 -33.167 174.167 -99.5 240.5s-146.5 99.5 -240.5 99.5s-174 -33.167 -240 -99.5s-99 -146.5 -99 -240.5z" />
    <glyph glyph-name="seven" unicode="7" 
d="M84 1339v111h823v-111l-577 -1339h-137l587 1339h-696z" />
    <glyph glyph-name="eight" unicode="8" 
d="M84 403c0 90.667 25 170.834 75 240.501s119.333 113.834 208 132.501v4v-2c-68.667 18.667 -124.5 59.167 -167.5 121.5s-64.5 128.5 -64.5 198.5c0 111.333 37.667 202 113 272s170 105 284 105s208.833 -35 284.5 -105s113.5 -160.667 113.5 -272
c0 -70 -21.5 -136.167 -64.5 -198.5s-98.833 -102.833 -167.5 -121.5v2v-4c88.667 -18.667 158 -62.834 208 -132.501s75 -149.834 75 -240.501c0 -128 -42.333 -231.333 -127 -310s-192 -118 -322 -118s-237.167 39.333 -321.5 118s-126.5 182 -126.5 310zM219 403
c0 -89.333 29 -164.5 87 -225.5s133.333 -91.5 226 -91.5s168.167 30.5 226.5 91.5s87.5 136.167 87.5 225.5c0 93.333 -30.167 169.666 -90.5 228.999s-134.833 89 -223.5 89s-163 -29.667 -223 -89s-90 -135.666 -90 -228.999zM270 1098c0 -74 24.5 -137 73.5 -189
s111.833 -78 188.5 -78s139.667 26 189 78s74 115 74 189c0 79.333 -24.833 143.5 -74.5 192.5s-112.5 73.5 -188.5 73.5s-138.667 -24.5 -188 -73.5s-74 -113.167 -74 -192.5z" />
    <glyph glyph-name="nine" unicode="9" 
d="M57 1024c0 130.667 44.833 238.5 134.5 323.5s203.167 127.5 340.5 127.5s251 -42.5 341 -127.5s135 -192.833 135 -323.5c0 -36 -3.66699 -71 -11 -105s-19.5 -69.167 -36.5 -105.5s-30.167 -62.833 -39.5 -79.5l-47 -81l-393 -653h-155l395 639h-4
c-23.333 -19.333 -55.5 -34.333 -96.5 -45s-80.5 -16 -118.5 -16c-128 0 -234.167 42.833 -318.5 128.5s-126.5 191.5 -126.5 317.5zM193 1024c0 -94 33.001 -174.167 99.001 -240.5s146 -99.5 240 -99.5s174.167 33.167 240.5 99.5s99.5 146.5 99.5 240.5
c0 100.667 -31.5 182.5 -94.5 245.5s-144.833 94.5 -245.5 94.5s-182.334 -31.5 -245.001 -94.5s-94 -144.833 -94 -245.5z" />
    <glyph glyph-name="colon" unicode=":" horiz-adv-x="532" 
d="M168 86c0 27.333 9.5 50.5 28.5 69.5s42.167 28.5 69.5 28.5s50.666 -9.5 69.999 -28.5s29 -42.167 29 -69.5s-9.66699 -50.5 -29 -69.5s-42.666 -28.5 -69.999 -28.5s-50.5 9.5 -69.5 28.5s-28.5 42.167 -28.5 69.5zM168 860c0 27.333 9.5 50.5 28.5 69.5
s42.167 28.5 69.5 28.5s50.666 -9.5 69.999 -28.5s29 -42.167 29 -69.5s-9.66699 -50.5 -29 -69.5s-42.666 -28.5 -69.999 -28.5s-50.5 9.5 -69.5 28.5s-28.5 42.167 -28.5 69.5z" />
    <glyph glyph-name="semicolon" unicode=";" horiz-adv-x="532" 
d="M102 -283l136 467h143l-158 -467h-121zM168 860c0 27.333 9.5 50.5 28.5 69.5s42.167 28.5 69.5 28.5s50.666 -9.5 69.999 -28.5s29 -42.167 29 -69.5s-9.66699 -50.5 -29 -69.5s-42.666 -28.5 -69.999 -28.5s-50.5 9.5 -69.5 28.5s-28.5 42.167 -28.5 69.5z" />
    <glyph glyph-name="less" unicode="&#x3c;" horiz-adv-x="1363" 
d="M168 571v99l1028 479v-102l-917 -426l917 -426v-103z" />
    <glyph glyph-name="equal" unicode="=" horiz-adv-x="1363" 
d="M160 424v98h1044v-98h-1044zM160 719v98h1044v-98h-1044z" />
    <glyph glyph-name="greater" unicode="&#x3e;" horiz-adv-x="1363" 
d="M168 92v103l917 426l-917 426v102l1028 -479v-99z" />
    <glyph glyph-name="question" unicode="?" horiz-adv-x="948" 
d="M96 1155c18 103.333 63.4941 184.499 136.494 243.499s160.833 88.5 263.5 88.5c110.667 0 201 -31.167 271 -93.5s105 -148.5 105 -258.5c0 -46.667 -6.16699 -89.167 -18.5 -127.5s-28.166 -70.666 -47.499 -96.999s-40.833 -51.166 -64.5 -74.499l-70.5 -67.5
c-23.333 -21.667 -44.666 -44 -63.999 -67s-35.166 -50.667 -47.499 -83s-18.5 -67.833 -18.5 -106.5v-131h-123v172c0 36.667 5.83301 71 17.5 103s26.834 59.833 45.501 83.5s39.5 46.667 62.5 69l68.5 67c22.667 22.333 43.334 45.166 62.001 68.499
s33.834 50.833 45.501 82.5s17.5 65.5 17.5 101.5c0 74 -21.333 133.833 -64 179.5s-101 68.5 -175 68.5c-70 0 -128.667 -21.5 -176 -64.5s-78.333 -100.5 -93 -172.5zM382.994 85.999c0 27.333 9.5 50.5 28.5 69.5s42.167 28.5 69.5 28.5s50.666 -9.5 69.999 -28.5
s29 -42.167 29 -69.5s-9.66699 -50.5 -29 -69.5s-42.666 -28.5 -69.999 -28.5s-50.5 9.5 -69.5 28.5s-28.5 42.167 -28.5 69.5z" />
    <glyph glyph-name="at" unicode="@" horiz-adv-x="1638" 
d="M90 727c0 140 33.668 268.166 101.001 384.499s159 208 275 275s243.333 100.5 382 100.5c98 0 190.333 -15.667 277 -47s161 -74.166 223 -128.499s110.833 -119.666 146.5 -195.999s53.5 -157.5 53.5 -243.5c0 -82 -14.167 -161 -42.5 -237
s-65.166 -140.5 -110.499 -193.5s-96.666 -95.167 -153.999 -126.5s-114.666 -47 -171.999 -47c-36.667 0 -67 12 -91 36s-36 58 -36 102h-4c-30.667 -37.333 -70 -69.666 -118 -96.999s-96.667 -41 -146 -41c-88 0 -156.167 28.5 -204.5 85.5s-72.5 128.833 -72.5 215.5
c0 72 11.5 143.167 34.5 213.5s54.667 133.833 95 190.5s91.5 102.5 153.5 137.5s129 52.5 201 52.5c49.333 0 93.5 -13.667 132.5 -41s67.167 -70.333 84.5 -129h4l49 131h123l-199 -594c-14.667 -45.333 -22 -78 -22 -98c0 -35.333 17.667 -53 53 -53
c46 0 95 24.833 147 74.5s95.833 113.5 131.5 191.5s53.5 153.667 53.5 227c0 74 -16.167 143.667 -48.5 209s-75.5 120.166 -129.5 164.499s-116.5 79.333 -187.5 105s-144.5 38.5 -220.5 38.5c-120.667 0 -231.334 -31 -332.001 -93s-179 -143.5 -235 -244.5
s-84 -209.167 -84 -324.5c0 -120 29.167 -231 87.5 -333s137.833 -183 238.5 -243s210.334 -90 329.001 -90c100.667 0 199.167 25.333 295.5 76s171.166 115.667 224.499 195h119c-62 -112.667 -151.5 -202.334 -268.5 -269.001s-240.5 -100 -370.5 -100
c-108.667 0 -210.834 20 -306.501 60s-176.834 94.167 -243.501 162.5s-119.334 149.5 -158.001 243.5s-58 193.333 -58 298zM520.001 572.999c0 -57.333 15.667 -103.999 47 -139.999s73 -54 125 -54c60.667 0 118.5 26.667 173.5 80s97.5 115.666 127.5 186.999
s45 137.333 45 198c0 139.333 -55.333 209 -166 209c-49.333 0 -96.5 -15.833 -141.5 -47.5s-82.5 -71.5 -112.5 -119.5s-53.833 -99.833 -71.5 -155.5s-26.5 -108.167 -26.5 -157.5z" />
    <glyph glyph-name="A" unicode="A" horiz-adv-x="1402" 
d="M10 0l633 1450h139l611 -1450h-152l-158 385h-768l-163 -385h-142zM369 508h665l-327 795z" />
    <glyph glyph-name="B" unicode="B" horiz-adv-x="1290" 
d="M199 0l0.000976562 1450h417c49.333 0 94.166 -2.66699 134.499 -8s81.833 -16.166 124.5 -32.499s78.667 -38.166 108 -65.499s53.333 -64.5 72 -111.5s28 -102.167 28 -165.5c0 -75.333 -22.333 -140 -67 -194s-109 -89.667 -193 -107v-4
c96 -7.33301 174 -43.333 234 -108s90 -147.334 90 -248.001c0 -64 -10.667 -120.667 -32 -170s-48.5 -88.5 -81.5 -117.5s-71.833 -52.833 -116.5 -71.5s-87.5 -31.167 -128.5 -37.5s-83.167 -9.5 -126.5 -9.5h-463zM334.001 122.999l309.001 0.00292969
c60.667 0 114 6.5 160 19.5s81.833 29.167 107.5 48.5s46.5 42.166 62.5 68.499s26.5 50.666 31.5 72.999s7.5 45.166 7.5 68.499c0 51.333 -9.83301 96.833 -29.5 136.5s-46.334 71 -80.001 94s-70.667 40.167 -111 51.5s-82.833 17 -127.5 17h-330v-577zM334.002 823.002
l280 -0.000976562c53.333 0 100.666 5.66699 141.999 17s73.833 25.5 97.5 42.5s42.834 37 57.501 60s24.5 44.333 29.5 64s7.5 39.834 7.5 60.501c0 173.333 -105 260 -315 260h-299v-504z" />
    <glyph glyph-name="C" unicode="C" horiz-adv-x="1441" 
d="M104 725c0 146 31.5 276.834 94.5 392.501s151.667 206.167 266 271.5s244.166 98 389.499 98c214.667 0 381.334 -75.667 500.001 -227l-111 -93c-43.333 64.667 -99.833 113.667 -169.5 147s-142.834 50 -219.501 50c-123.333 0 -232 -28.333 -326 -85
s-165.5 -133.167 -214.5 -229.5s-73.5 -204.5 -73.5 -324.5s24.5 -228.167 73.5 -324.5s120.5 -172.833 214.5 -229.5s202.667 -85 326 -85c78.667 0 157.667 19.167 237 57.5s143 94.166 191 167.499l111 -84c-128 -176 -307.667 -264 -539 -264
c-145.333 0 -275.166 32.667 -389.499 98s-203 155.833 -266 271.5s-94.5 246.5 -94.5 392.5z" />
    <glyph glyph-name="D" unicode="D" horiz-adv-x="1517" 
d="M180 0v1450h449c80.667 0 155.667 -7.33301 225 -22s128.666 -33.667 177.999 -57s94.333 -51.833 135 -85.5s73.834 -67.834 99.501 -102.501s48.167 -72.167 67.5 -112.5s33.833 -77 43.5 -110s17.334 -67 23.001 -102s9.16699 -61.833 10.5 -80.5s2 -36.334 2 -53.001
s-0.666992 -34.334 -2 -53.001s-4.83301 -45.5 -10.5 -80.5s-13.334 -69 -23.001 -102s-24.167 -69.667 -43.5 -110s-41.833 -77.833 -67.5 -112.5s-58.834 -68.834 -99.501 -102.501s-85.667 -62.167 -135 -85.5s-108.666 -42.333 -177.999 -57s-144.333 -22 -225 -22h-449
zM315 123.004h279c98 0 187.833 12 269.5 36s153.667 60 216 108s111 111 146 189s52.5 167.667 52.5 269s-17.5 191 -52.5 269s-83.667 141 -146 189s-134.333 84 -216 108s-171.5 36 -269.5 36h-279v-1204z" />
    <glyph glyph-name="E" unicode="E" horiz-adv-x="1214" 
d="M199 0v1450h886v-123h-751v-516h704v-123h-704v-565h784v-123h-919z" />
    <glyph glyph-name="F" unicode="F" horiz-adv-x="1138" 
d="M199 0v1450h868v-123h-733v-516h682v-123h-682v-688h-135z" />
    <glyph glyph-name="G" unicode="G" horiz-adv-x="1593" 
d="M104 725c0 146 31.5 276.832 94.5 392.499s151.667 206.167 266 271.5s244.166 98 389.499 98c216 0 390 -67 522 -201l-98 -102c-44 52.667 -105.833 95.834 -185.5 129.501s-159.167 50.5 -238.5 50.5c-123.333 0 -232 -28.333 -326 -85s-165.5 -133.167 -214.5 -229.5
s-73.5 -204.5 -73.5 -324.5s24.5 -228.167 73.5 -324.5s120.5 -172.833 214.5 -229.5s202.667 -85 326 -85c174 0 309.333 28.667 406 86v487h-349v123h484v-688c-152.667 -87.333 -333 -131 -541 -131c-145.333 0 -275.166 32.667 -389.499 98s-203 155.833 -266 271.5
s-94.5 246.5 -94.5 392.5z" />
    <glyph glyph-name="H" unicode="H" horiz-adv-x="1478" 
d="M199 0v1450h135v-639h811v639h135v-1450h-135v688h-811v-688h-135z" />
    <glyph glyph-name="I" unicode="I" horiz-adv-x="532" 
d="M199 0v1450h135v-1450h-135z" />
    <glyph glyph-name="J" unicode="J" horiz-adv-x="987" 
d="M14 260l136.001 24.999c32.667 -132.667 113 -199 241 -199c91.333 0 157.833 27.5 199.5 82.5s62.5 129.833 62.5 224.5v1057h135v-1024c0 -30 -0.666992 -57 -2 -81s-5 -52.833 -11 -86.5s-14.333 -63.167 -25 -88.5s-25.834 -51.666 -45.501 -78.999
s-43.167 -49.833 -70.5 -67.5s-61.666 -32.167 -102.999 -43.5s-88 -17 -140 -17c-102.667 0 -185.834 26.5 -249.501 79.5s-106.167 125.5 -127.5 217.5z" />
    <glyph glyph-name="K" unicode="K" horiz-adv-x="1251" 
d="M199 0v1450h135v-639h12l703 639h186l-733 -664l774 -786h-195l-735 750h-12v-750h-135z" />
    <glyph glyph-name="L" unicode="L" horiz-adv-x="1024" 
d="M199 0v1450h135v-1327h676v-123h-811z" />
    <glyph glyph-name="M" unicode="M" horiz-adv-x="1820" 
d="M184 0v1450h203l528 -1217l529 1217h192v-1450h-135v1278h-4l-553 -1278h-59l-561 1278h-5v-1278h-135z" />
    <glyph glyph-name="N" unicode="N" horiz-adv-x="1593" 
d="M199 0v1450h174l882 -1270h5v1270h135v-1450h-174l-883 1270h-4v-1270h-135z" />
    <glyph glyph-name="O" unicode="O" horiz-adv-x="1708" 
d="M104 725c0 146 31.5 276.833 94.5 392.5s151.667 206.167 266 271.5s244.166 98 389.499 98s275.166 -32.667 389.499 -98s203 -155.833 266 -271.5s94.5 -246.5 94.5 -392.5s-31.5 -276.833 -94.5 -392.5s-151.667 -206.167 -266 -271.5s-244.166 -98 -389.499 -98
s-275.166 32.667 -389.499 98s-203 155.833 -266 271.5s-94.5 246.5 -94.5 392.5zM240 725c0 -120 24.5 -228.167 73.5 -324.5s120.5 -172.833 214.5 -229.5s202.667 -85 326 -85s232 28.333 326 85s165.5 133.167 214.5 229.5s73.5 204.5 73.5 324.5
s-24.5 228.167 -73.5 324.5s-120.5 172.833 -214.5 229.5s-202.667 85 -326 85s-232 -28.333 -326 -85s-165.5 -133.167 -214.5 -229.5s-73.5 -204.5 -73.5 -324.5z" />
    <glyph glyph-name="P" unicode="P" horiz-adv-x="1175" 
d="M199 0l-0.000976562 1450h417c44 0 86.5 -3.5 127.5 -10.5s82.667 -19.5 125 -37.5s78.833 -41 109.5 -69s55.834 -64.833 75.501 -110.5s29.5 -97.5 29.5 -155.5c0 -63.333 -12 -119.666 -36 -168.999s-56.5 -89 -97.5 -119s-87.167 -52.667 -138.5 -68
s-106 -23 -164 -23h-313v-688h-135zM333.999 810.999l306.999 0.00195312c40.667 0 78.5 4.5 113.5 13.5s67.333 23.167 97 42.5s53.167 46.166 70.5 80.499s26 74.166 26 119.499c0 44.667 -9 84.167 -27 118.5s-42.167 61.5 -72.5 81.5s-63.666 35 -99.999 45
s-74.833 15 -115.5 15h-299v-516z" />
    <glyph glyph-name="Q" unicode="Q" horiz-adv-x="1708" 
d="M104 743c0 104.667 17.499 202.498 52.499 293.498s83.833 169.667 146.5 236s140.334 118.666 233.001 156.999s194 57.5 304 57.5s211.167 -19.167 303.5 -57.5s169.833 -90.666 232.5 -156.999s111.5 -145 146.5 -236s52.5 -188.833 52.5 -293.5
c0 -85.333 -14.333 -169.5 -43 -252.5s-71 -157.333 -127 -223s-120.333 -112.5 -193 -140.5v-4h453v-123h-799c-100.667 0 -197 18 -289 54s-173 85.833 -243 149.5s-125.833 142.334 -167.5 236.001s-62.5 194.834 -62.5 303.501zM239.999 742.998
c0 -112.667 26.167 -216.167 78.5 -310.5s126.333 -169.5 222 -225.5s202.834 -84 321.501 -84c90.667 0 173 17.167 247 51.5s134.833 80.333 182.5 138s84.334 123.5 110.001 197.5s38.5 151.667 38.5 233c0 118 -23.5 223.667 -70.5 317s-116.333 167.333 -208 222
s-198.834 82 -321.501 82s-229.834 -27.333 -321.501 -82s-161 -128.667 -208 -222s-70.5 -199 -70.5 -317z" />
    <glyph glyph-name="R" unicode="R" horiz-adv-x="1214" 
d="M199 0v1450h381c26 0 48 -0.333008 66 -1s46.5 -3.33398 85.5 -8.00098s72.667 -11.5 101 -20.5s60.166 -23 95.499 -42s64.333 -41.5 87 -67.5s41.834 -59.833 57.501 -101.5s23.5 -88.5 23.5 -140.5c0 -52.667 -8 -100.167 -24 -142.5s-36 -76.5 -60 -102.5
s-53.167 -48.333 -87.5 -67s-67.333 -32.334 -99 -41.001s-65.167 -15.334 -100.5 -20.001l422 -696h-154l-407 688h-252v-688h-135zM334 811.003l287 -0.00195312c54.667 0 102.834 5.83301 144.501 17.5s74.5 26.334 98.5 44.001s43.667 38.5 59 62.5s25.5 46.667 30.5 68
s7.5 43.333 7.5 66s-2.5 44.667 -7.5 66s-15.167 44 -30.5 68s-35 44.833 -59 62.5s-56.833 32.334 -98.5 44.001s-89.834 17.5 -144.501 17.5h-287v-516z" />
    <glyph glyph-name="S" unicode="S" horiz-adv-x="1138" 
d="M109 182l129.001 86.002c72 -121.333 182.333 -182 331 -182c93.333 0 171 26.167 233 78.5s93 121.166 93 206.499c0 43.333 -8.5 81 -25.5 113s-40 58 -69 78s-62.167 37.667 -99.5 53s-76.666 29.333 -117.999 42l-124 40c-41.333 14 -80.666 31.5 -117.999 52.5
s-70.5 45.667 -99.5 74s-52 65.166 -69 110.499s-25.5 97.333 -25.5 156c0 82.667 22 154.667 66 216s100.667 106.833 170 136.5s145.666 44.5 228.999 44.5c172 0 304 -60.667 396 -182l-117 -84c-68.667 95.333 -163 143 -283 143c-60 0 -114 -9.83301 -162 -29.5
s-87.167 -50.5 -117.5 -92.5s-45.5 -92.667 -45.5 -152c0 -46.667 8.5 -87.167 25.5 -121.5s40 -61.833 69 -82.5s62.167 -38.834 99.5 -54.501s76.666 -29.5 117.999 -41.5s82.5 -24.667 123.5 -38s80.167 -30 117.5 -50s70.5 -43.5 99.5 -70.5s52 -62.667 69 -107
s25.5 -95.5 25.5 -153.5c0 -63.333 -12.333 -121.166 -37 -173.499s-57.834 -95.333 -99.501 -129s-89.5 -59.667 -143.5 -78s-110.667 -27.5 -170 -27.5c-209.333 0 -366.333 73 -471 219z" />
    <glyph glyph-name="T" unicode="T" horiz-adv-x="1175" 
d="M25 1327v123h1126v-123h-496v-1327h-135v1327h-495z" />
    <glyph glyph-name="U" unicode="U" horiz-adv-x="1400" 
d="M172 555v894.997h135v-860c0 -46.667 2.66699 -90.834 8 -132.501s16.5 -86.167 33.5 -133.5s39.333 -87.666 67 -120.999s65.834 -61.166 114.501 -83.499s105.334 -33.5 170.001 -33.5c46.667 0 89.334 5.83301 128.001 17.5s71.334 27 98.001 46
s50.167 42.333 70.5 70s36.666 56 48.999 85s22.166 60.833 29.499 95.5s12.333 66.834 15 96.501s4 60.834 4 93.501v860h135v-895c0 -64 -5.5 -124.167 -16.5 -180.5s-29.667 -110 -56 -161s-59.333 -94.833 -99 -131.5s-90 -65.667 -151 -87s-129.833 -32 -206.5 -32
s-145.334 10.667 -206.001 32s-110.834 50.333 -150.501 87s-72.667 80.5 -99 131.5s-45 104.667 -56 161s-16.5 116.5 -16.5 180.5z" />
    <glyph glyph-name="V" unicode="V" horiz-adv-x="1214" 
d="M-6 1450h145l467 -1272l471 1272h144l-551 -1450h-135z" />
    <glyph glyph-name="W" unicode="W" horiz-adv-x="1933" 
d="M10 1450h140l360 -1284h4l367 1284h172l366 -1284h4l361 1284h139l-422 -1450h-166l-366 1290h-4l-367 -1290h-166z" />
    <glyph glyph-name="X" unicode="X" horiz-adv-x="1251" 
d="M2 0l545 762l-496 688h160l418 -590l411 590h162l-491 -688l538 -762h-168l-458 655l-459 -655h-162z" />
    <glyph glyph-name="Y" unicode="Y" horiz-adv-x="1175" 
d="M-12 1450h162l438 -688l448 688h152l-533 -825v-625h-135v625z" />
    <glyph glyph-name="Z" unicode="Z" horiz-adv-x="1138" 
d="M47 0v106l848 1221h-836v123h1010v-111l-854 -1216h877v-123h-1045z" />
    <glyph glyph-name="bracketleft" unicode="[" horiz-adv-x="532" 
d="M152 -319v1818h307v-98h-185v-1622h185v-98h-307z" />
    <glyph glyph-name="backslash" unicode="\" horiz-adv-x="757" 
d="M10 1487l107 37l622 -1561l-108 -37z" />
    <glyph glyph-name="bracketright" unicode="]" horiz-adv-x="532" 
d="M74 -221h184v1622h-184v98h307v-1818h-307v98z" />
    <glyph glyph-name="asciicircum" unicode="^" horiz-adv-x="1363" 
d="M168 524l467 926h94l467 -926h-115l-399 815l-397 -815h-117z" />
    <glyph glyph-name="underscore" unicode="_" horiz-adv-x="1024" 
d="M0 -154h1024v-102h-1024v102z" />
    <glyph glyph-name="grave" unicode="`" horiz-adv-x="491" 
d="M-12 1450h164l213 -295h-103z" />
    <glyph glyph-name="a" unicode="a" horiz-adv-x="1062" 
d="M121 256c0 40 6.66602 76.167 19.999 108.5s30.333 59.333 51 81s46.334 40.5 77.001 56.5s61 28.5 91 37.5s63.333 16.167 100 21.5s69 8.66602 97 9.99902s57.333 2 88 2h143v58c0 78 -24.167 135.667 -72.5 173s-112.833 56 -193.5 56
c-110 0 -206.333 -35.333 -289 -106l-71 84c43.333 41.333 98.166 73.833 164.499 97.5s131.5 35.5 195.5 35.5c119.333 0 212 -28 278 -84s99 -142 99 -258v-232c0 -166 6.33301 -298.333 19 -397h-115c-8 46.667 -12 98 -12 154h-5
c-35.333 -61.333 -79.5 -106.5 -132.5 -135.5s-119.167 -43.5 -198.5 -43.5c-42 0 -82.333 5.33301 -121 16s-74.167 26.834 -106.5 48.501s-58.166 51.167 -77.499 88.5s-29 80 -29 128zM243.999 262c0 -54.667 21.833 -97.6641 65.5 -128.997s93.5 -47 149.5 -47
c62.667 0 116.334 9.33301 161.001 28s78.667 44.167 102 76.5s40.166 66.666 50.499 102.999s15.5 75.833 15.5 118.5v63h-135c-54.667 0 -105.167 -3.66699 -151.5 -11s-89.333 -18.833 -129 -34.5s-71 -37.834 -94 -66.501s-34.5 -62.334 -34.5 -101.001z" />
    <glyph glyph-name="b" unicode="b" horiz-adv-x="1251" 
d="M137 0v1548h123v-768h4c36 62 89.167 109.333 159.5 142s143.5 49 219.5 49c145.333 0 264.666 -46.833 357.999 -140.5s140 -212.834 140 -357.501s-46.667 -263.834 -140 -357.501s-212.666 -140.5 -357.999 -140.5c-76 0 -149.167 16.333 -219.5 49
s-123.5 80 -159.5 142h-4v-166h-123zM248 473.002c0 -107.333 38.167 -198.666 114.5 -273.999s169.833 -113 280.5 -113c112.667 0 203.334 37.167 272.001 111.5s103 166.166 103 275.499s-34.333 201.166 -103 275.499s-159.334 111.5 -272.001 111.5
c-110.667 0 -204.167 -37.667 -280.5 -113s-114.5 -166.666 -114.5 -273.999z" />
    <glyph glyph-name="c" unicode="c" horiz-adv-x="985" 
d="M111 473c0 144.667 46.498 263.83 139.498 357.497s212.167 140.5 357.5 140.5c138.667 0 256.334 -54.667 353.001 -164l-99 -74c-78 84.667 -162.667 127 -254 127c-112.667 0 -203.334 -37.167 -272.001 -111.5s-103 -166.166 -103 -275.499
s34.333 -201.166 103 -275.499s159.334 -111.5 272.001 -111.5c98.667 0 183.334 43.667 254.001 131l94 -78c-90.667 -109.333 -206.667 -164 -348 -164c-145.333 0 -264.5 46.833 -357.5 140.5s-139.5 212.834 -139.5 357.501z" />
    <glyph glyph-name="d" unicode="d" horiz-adv-x="1251" 
d="M111 473c0 144.667 46.5 263.832 139.5 357.499s212.167 140.5 357.5 140.5c76 0 149.167 -16.333 219.5 -49s123.5 -80 159.5 -142h4v768h123v-1548h-123v166h-4c-36 -62 -89.167 -109.333 -159.5 -142s-143.5 -49 -219.5 -49c-145.333 0 -264.5 46.833 -357.5 140.5
s-139.5 212.834 -139.5 357.501zM233 472.998c0 -109.333 34.333 -201.166 103 -275.499s159.334 -111.5 272.001 -111.5c110.667 0 204.334 37.667 281.001 113s115 166.666 115 273.999s-38.333 198.666 -115 273.999s-170.334 113 -281.001 113
c-112.667 0 -203.334 -37.167 -272.001 -111.5s-103 -166.166 -103 -275.499z" />
    <glyph glyph-name="e" unicode="e" horiz-adv-x="1138" 
d="M111 475c0 142 44.498 260.169 133.498 354.502s202.167 141.5 339.5 141.5c56.667 0 109.167 -8.33301 157.5 -25s89.833 -39.334 124.5 -68.001s64.334 -61.834 89.001 -99.501s43 -77.834 55 -120.501s18 -86 18 -130v-86h-795c0 -23.333 3.16699 -48.833 9.5 -76.5
s18 -58.5 35 -92.5s38.167 -64.5 63.5 -91.5s59.833 -49.667 103.5 -68s92.834 -27.5 147.501 -27.5c63.333 0 124.5 15.333 183.5 46s103.5 71.334 133.5 122.001l90 -76c-90.667 -135.333 -227 -203 -409 -203c-143.333 0 -259 46.5 -347 139.5s-132 213.167 -132 360.5z
M232.998 553.002h672.003c0 84 -31.833 156.167 -95.5 216.5s-140.834 90.5 -231.501 90.5c-50.667 0 -96.834 -9.16699 -138.501 -27.5s-74.834 -40.5 -99.501 -66.5s-45.5 -54 -62.5 -84s-28.667 -56 -35 -78s-9.5 -39 -9.5 -51z" />
    <glyph glyph-name="f" unicode="f" horiz-adv-x="606" 
d="M37 836v110h196v309c0 46.667 6 88.834 18 126.501s27.5 68.167 46.5 91.5s41.167 42.666 66.5 57.999s50.5 26.166 75.5 32.499s50.5 9.5 76.5 9.5c55.333 0 102.333 -8.33301 141 -25l-24 -106c-27.333 13.333 -64.333 20 -111 20c-56.667 0 -98.5 -20.667 -125.5 -62
s-40.5 -104.666 -40.5 -189.999v-264h222v-110h-222v-836h-123v836h-196z" />
    <glyph glyph-name="g" unicode="g" horiz-adv-x="1251" 
d="M123 485c0 87.333 22.667 168.334 68 243.001s106.833 133.834 184.5 177.501s162.167 65.5 253.5 65.5c79.333 0 149.666 -16.333 210.999 -49s110.333 -78 147 -136h4v160h123v-885c0 -65.333 -6 -125 -18 -179s-28 -99.667 -48 -137s-44 -70.333 -72 -99
s-56.833 -51.5 -86.5 -68.5s-61.5 -31 -95.5 -42s-65.667 -18.333 -95 -22s-59 -5.5 -89 -5.5c-96 0 -186.333 17.667 -271 53s-150.667 84 -198 146l97 90c42 -58.667 95.5 -103 160.5 -133s135.5 -45 211.5 -45c40.667 0 78 4 112 12s63.167 18.167 87.5 30.5
s46.333 28 66 47s35.667 37.667 48 56s23 39.666 32 63.999s15.667 45.833 20 64.5s7.83301 39.667 10.5 63s4.16699 41.333 4.5 54s0.5 27 0.5 43v131h-4c-36.667 -58 -85.667 -103.167 -147 -135.5s-131.666 -48.5 -210.999 -48.5c-91.333 0 -175.833 21.833 -253.5 65.5
s-139.167 102.667 -184.5 177s-68 155.166 -68 242.499zM246 485.001c0 -103.333 36.667 -191.5 110 -264.5s161.666 -109.5 264.999 -109.5s191.5 36.5 264.5 109.5s109.5 161.167 109.5 264.5s-36.5 191.666 -109.5 264.999s-161.167 110 -264.5 110
s-191.666 -36.667 -264.999 -110s-110 -161.666 -110 -264.999z" />
    <glyph glyph-name="h" unicode="h" horiz-adv-x="1138" 
d="M164 0v1548h123v-768h4c26 54.667 67.833 100.167 125.5 136.5s123.5 54.5 197.5 54.5c240.667 0 361 -136 361 -408v-563h-123v557c0 202 -79.333 303 -238 303c-96 0 -174.5 -33.333 -235.5 -100s-91.5 -162.334 -91.5 -287.001v-473h-123z" />
    <glyph glyph-name="i" unicode="i" horiz-adv-x="491" 
d="M154 1321c0 25.333 9 47 27 65s39.667 27 65 27s47 -9 65 -27s27 -39.667 27 -65s-9 -47 -27 -65s-39.667 -27 -65 -27s-47 9 -65 27s-27 39.667 -27 65zM184 0v946h123v-946h-123z" />
    <glyph glyph-name="j" unicode="j" horiz-adv-x="491" 
d="M-61 -473l18.001 107.999c28.667 -10.667 54.667 -16 78 -16c26 0 48.167 3.83301 66.5 11.5s32.833 17.5 43.5 29.5s19 27.5 25 46.5s9.83301 37.333 11.5 55s2.5 38.5 2.5 62.5v1122h123v-1112c0 -52 -4 -96.667 -12 -134s-21.833 -71.166 -41.5 -101.499
s-47.5 -53 -83.5 -68s-80.333 -22.5 -133 -22.5c-30.667 0 -63.334 6.33301 -98.001 19zM154.001 1321c0 25.333 9 47 27 65s39.667 27 65 27s47 -9 65 -27s27 -39.667 27 -65s-9 -47 -27 -65s-39.667 -27 -65 -27s-47 9 -65 27s-27 39.667 -27 65z" />
    <glyph glyph-name="k" unicode="k" horiz-adv-x="985" 
d="M164 0v1548h123v-1032l467 428h180l-488 -432l545 -512h-186l-518 500v-500h-123z" />
    <glyph glyph-name="l" unicode="l" horiz-adv-x="491" 
d="M184 0v1548h123v-1548h-123z" />
    <glyph glyph-name="m" unicode="m" horiz-adv-x="1744" 
d="M154 946l122 -0.00195312c2.66699 -96 5.66699 -151.333 9 -166h6c26 54.667 67.833 100.167 125.5 136.5s123.5 54.5 197.5 54.5c66 0 124.667 -17 176 -51s87.666 -85.333 108.999 -154c28 67.333 71.333 118.333 130 153s122.667 52 192 52
c57.333 0 107.5 -7.66699 150.5 -23s77.667 -35.5 104 -60.5s47.5 -55.667 63.5 -92s27 -73 33 -110s9 -77.833 9 -122.5v-563h-123v557c0 202 -79 303 -237 303c-43.333 0 -82.166 -7.16699 -116.499 -21.5s-62 -32.666 -83 -54.999s-38.333 -48.333 -52 -78
s-23 -58.667 -28 -87s-7.5 -57.166 -7.5 -86.499v-532h-123v569c0 90 -16.667 161 -50 213s-82.333 78 -147 78c-96 0 -174.5 -33.333 -235.5 -100s-91.5 -162.334 -91.5 -287.001v-473h-123v680c0 25.333 -1.66699 72.333 -5 141s-5 110.334 -5 125.001z" />
    <glyph glyph-name="n" unicode="n" horiz-adv-x="1138" 
d="M154 946h122c2.66699 -96 5.66699 -151.333 9 -166h6c26 54.667 67.833 100.167 125.5 136.5s123.5 54.5 197.5 54.5c240.667 0 361 -136 361 -408v-563h-123v557c0 202 -79.333 303 -238 303c-96 0 -174.5 -33.333 -235.5 -100s-91.5 -162.334 -91.5 -287.001v-473h-123
v680c0 25.333 -1.66699 72.333 -5 141s-5 110.334 -5 125.001z" />
    <glyph glyph-name="o" unicode="o" horiz-adv-x="1216" 
d="M111 473c0 144.667 46.5 263.834 139.5 357.501s212.167 140.5 357.5 140.5s264.666 -46.833 357.999 -140.5s140 -212.834 140 -357.501s-46.667 -263.834 -140 -357.501s-212.666 -140.5 -357.999 -140.5s-264.5 46.833 -357.5 140.5s-139.5 212.834 -139.5 357.501z
M233 473c0 -109.333 34.333 -201.166 103 -275.499s159.334 -111.5 272.001 -111.5s203.334 37.167 272.001 111.5s103 166.166 103 275.499s-34.333 201.166 -103 275.499s-159.334 111.5 -272.001 111.5s-203.334 -37.167 -272.001 -111.5s-103 -166.166 -103 -275.499z
" />
    <glyph glyph-name="p" unicode="p" horiz-adv-x="1251" 
d="M137 -467v1413h123v-166h4c36 62 89.167 109.333 159.5 142s143.5 49 219.5 49c145.333 0 264.666 -46.833 357.999 -140.5s140 -212.834 140 -357.501s-46.667 -263.834 -140 -357.501s-212.666 -140.5 -357.999 -140.5c-76 0 -149.167 16.333 -219.5 49
s-123.5 80 -159.5 142h-4v-633h-123zM248 473.002c0 -107.333 38.167 -198.666 114.5 -273.999s169.833 -113 280.5 -113c112.667 0 203.334 37.167 272.001 111.5s103 166.166 103 275.499s-34.333 201.166 -103 275.499s-159.334 111.5 -272.001 111.5
c-110.667 0 -204.167 -37.667 -280.5 -113s-114.5 -166.666 -114.5 -273.999z" />
    <glyph glyph-name="q" unicode="q" horiz-adv-x="1251" 
d="M111 473c0 144.667 46.5 263.832 139.5 357.499s212.167 140.5 357.5 140.5c76 0 149.167 -16.333 219.5 -49s123.5 -80 159.5 -142h4v166h123v-1413h-123v633h-4c-36 -62 -89.167 -109.333 -159.5 -142s-143.5 -49 -219.5 -49c-145.333 0 -264.5 46.833 -357.5 140.5
s-139.5 212.834 -139.5 357.501zM233 472.998c0 -109.333 34.333 -201.166 103 -275.499s159.334 -111.5 272.001 -111.5c110.667 0 204.334 37.667 281.001 113s115 166.666 115 273.999s-38.333 198.666 -115 273.999s-170.334 113 -281.001 113
c-112.667 0 -203.334 -37.167 -272.001 -111.5s-103 -166.166 -103 -275.499z" />
    <glyph glyph-name="r" unicode="r" horiz-adv-x="681" 
d="M154 946l121.999 -0.000976562c2.66699 -96 5.66699 -151.333 9 -166c70 127.333 170.333 191 301 191c19.333 0 43 -3.33301 71 -10l-14 -121c-16 5.33301 -31.667 8 -47 8c-68.667 0 -126.667 -15.167 -174 -45.5s-81.666 -69.833 -102.999 -118.5
s-32 -104.667 -32 -168v-516h-123v680c0 25.333 -1.66699 72.333 -5 141s-5 110.334 -5 125.001z" />
    <glyph glyph-name="s" unicode="s" horiz-adv-x="872" 
d="M57 168l109 74.0029c24.667 -48.667 62.167 -86.834 112.5 -114.501s104.166 -41.5 161.499 -41.5c56.667 0 107 16 151 48s66 74 66 126c0 34.667 -10.333 63.5 -31 86.5s-47.5 40.167 -80.5 51.5s-69.5 21.166 -109.5 29.499s-79.833 18 -119.5 29s-76 25 -109 42
s-59.833 42.333 -80.5 76s-31 74.834 -31 123.501c0 44 9.5 83.833 28.5 119.5s44.167 64.5 75.5 86.5s65.833 38.667 103.5 50s76.5 17 116.5 17c162.667 0 274 -59.333 334 -178l-111 -66c-24.667 44.667 -54.5 78 -89.5 100s-79.5 33 -133.5 33
c-49.333 0 -95.166 -13.833 -137.499 -41.5s-63.5 -64.167 -63.5 -109.5c0 -34.667 10.333 -62.834 31 -84.501s47.5 -37.834 80.5 -48.501s69.5 -19.667 109.5 -27s79.833 -16.5 119.5 -27.5s76 -25.333 109 -43s59.833 -44.167 80.5 -79.5s31 -79 31 -131
c0 -92.667 -33 -164.667 -99 -216s-147 -77 -243 -77c-84 0 -159.5 16.333 -226.5 49s-118.5 80.667 -154.5 144z" />
    <glyph glyph-name="t" unicode="t" horiz-adv-x="681" 
d="M29 836l-0.000976562 110h204v273h123v-273h271v-110h-271v-617c0 -42 11.5 -74.667 34.5 -98s55.167 -35 96.5 -35c40.667 0 87.334 11 140.001 33l10 -111c-62 -22 -115.333 -33 -160 -33c-83.333 0 -144.833 22.5 -184.5 67.5s-59.5 103.833 -59.5 176.5v617h-204z
" />
    <glyph glyph-name="u" unicode="u" horiz-adv-x="1138" 
d="M154 383l0.000976562 563.001h122v-557c0 -202 79.333 -303 238 -303c96 0 174.667 33.333 236 100s92 162.334 92 287.001v473h123v-680c0 -25.333 1.66699 -72.333 5 -141s5 -110.334 5 -125.001h-123c-2.66699 99.333 -5.33398 154.666 -8.00098 165.999h-6
c-26 -54.667 -68 -100.167 -126 -136.5s-124 -54.5 -198 -54.5c-57.333 0 -107.5 7.66699 -150.5 23s-77.667 35.5 -104 60.5s-47.5 55.667 -63.5 92s-27 73 -33 110s-9 77.833 -9 122.5z" />
    <glyph glyph-name="v" unicode="v" horiz-adv-x="948" 
d="M31 946h139l315 -813l308 813h125l-373 -946h-127z" />
    <glyph glyph-name="w" unicode="w" horiz-adv-x="1441" 
d="M31 946h135l229 -792h4l265 792h116l281 -792h4l223 792h123l-278 -946h-127l-283 774h-4l-264 -774h-127z" />
    <glyph glyph-name="x" unicode="x" horiz-adv-x="985" 
d="M12 0l394 512l-338 434h157l262 -358l261 358h153l-334 -434l406 -512h-160l-330 428l-323 -428h-148z" />
    <glyph glyph-name="y" unicode="y" horiz-adv-x="948" 
d="M31 946l137.001 0.000976562l313 -796l305 796h132l-488 -1239c-51.333 -132.667 -138 -199 -260 -199c-31.333 0 -71.666 6.33301 -120.999 19l12 115c53.333 -15.333 90.333 -23 111 -23c21.333 0 40.666 4.33301 57.999 13s32.166 21.667 44.499 39
s22.5 33.666 30.5 48.999s16.333 34.333 25 57l86 219z" />
    <glyph glyph-name="z" unicode="z" horiz-adv-x="872" 
d="M55 0v74l568 762h-539v110h709v-74l-566 -761h590v-111h-762z" />
    <glyph glyph-name="braceleft" unicode="{" horiz-adv-x="681" 
d="M135 541l0.00195312 98.0039c96 0 144 105 144 315v297c0 77.333 15.667 138 47 182s75.666 66 132.999 66h102v-98h-47c-26.667 0 -48.834 -10 -66.501 -30s-29.834 -44.333 -36.501 -73s-10 -61.334 -10 -98.001v-289
c0.666992 -40.667 -3.16602 -78.834 -11.499 -114.501s-18.333 -64.834 -30 -87.501s-24.667 -43 -39 -61s-26.666 -31 -36.999 -39s-18.833 -13.667 -25.5 -17v-4c10 -5.33301 21.667 -14.5 35 -27.5s28.833 -31.833 46.5 -56.5s32.5 -57.834 44.5 -99.501
s17.667 -87.167 17 -136.5v-291c0 -56 9.16699 -103 27.5 -141s46.833 -57 85.5 -57h47v-98h-102c-56.667 0 -100.834 22 -132.501 66s-47.5 104.333 -47.5 181v299c0 209.333 -48 314 -144 314z" />
    <glyph glyph-name="bar" unicode="|" horiz-adv-x="454" 
d="M178 -37v1585h98v-1585h-98z" />
    <glyph glyph-name="braceright" unicode="}" horiz-adv-x="681" 
d="M121 -221h46.9951c26.667 0 48.834 10 66.501 30s29.834 44.333 36.501 73s10 61.334 10 98.001v288c-0.666992 50 5 96 17 138s26.833 75.167 44.5 99.5s33.334 43.166 47.001 56.499s25.167 22 34.5 26v4c-10 5.33301 -21.667 14.5 -35 27.5s-28.833 31.667 -46.5 56
s-32.5 57.333 -44.5 99s-17.667 87.167 -17 136.5v291c0 56.667 -9.16699 104 -27.5 142s-46.833 57 -85.5 57h-47v98h102c56.667 0 100.834 -22.167 132.501 -66.5s47.5 -104.833 47.5 -181.5v-299c0 -208.667 48 -313 144 -313v-98c-96 0 -144 -105.333 -144 -316v-297
c0 -77.333 -15.667 -137.833 -47 -181.5s-75.666 -65.5 -132.999 -65.5h-102v98z" />
    <glyph glyph-name="asciitilde" unicode="~" horiz-adv-x="1363" 
d="M211 561c64 122.667 149.333 184 256 184c9.33301 0 19.166 -0.666992 29.499 -2s19.666 -2.83301 27.999 -4.5s18.666 -4.33398 30.999 -8.00098s21.833 -6.66699 28.5 -9s17 -6.33301 31 -12s23.5 -9.66699 28.5 -12s15.167 -6.83301 30.5 -13.5
s24.666 -10.667 27.999 -12c98 -44 165 -66 201 -66c36.667 0 68.5 12 95.5 36s55.167 58.333 84.5 103l70 -65c-58.667 -122.667 -144 -184 -256 -184c-9.33301 0 -19.166 0.666992 -29.499 2s-19.666 2.83301 -27.999 4.5s-18.666 4.33398 -30.999 8.00098
s-21.833 6.66699 -28.5 9s-17 6.33301 -31 12s-23.5 9.66699 -28.5 12s-15.167 6.83301 -30.5 13.5s-24.666 10.667 -27.999 12c-98 44 -165 66 -201 66c-36.667 0 -68.5 -12 -95.5 -36s-55.167 -58.333 -84.5 -103z" />
    <glyph glyph-name="uni00A0" unicode="&#xa0;" horiz-adv-x="532" 
 />
    <glyph glyph-name="exclamdown" unicode="&#xa1;" horiz-adv-x="757" 
d="M281 909c0 27.333 9.5 50.666 28.5 69.999s42.167 29 69.5 29s50.5 -9.66699 69.5 -29s28.5 -42.666 28.5 -69.999s-9.5 -50.5 -28.5 -69.5s-42.167 -28.5 -69.5 -28.5s-50.5 9.5 -69.5 28.5s-28.5 42.167 -28.5 69.5zM317 -455v1069h123v-1069h-123z" />
    <glyph glyph-name="cent" unicode="&#xa2;" 
d="M106 477c0 127.333 38.832 236.168 116.499 326.501s178.167 144.166 301.5 161.499v147h99v-145c129.333 -2 241 -55.333 335 -160l-98 -74c-67.333 74.667 -146.333 115.667 -237 123v-770c91.333 4 170.333 47.667 237 131l94 -78
c-87.333 -105.333 -197.666 -160 -330.999 -164v-141h-99v148c-124.667 17.333 -225.5 72 -302.5 164s-115.5 202.333 -115.5 331zM228.999 477.002c0 -91.333 27.167 -173.167 81.5 -245.5s125.5 -117.5 213.5 -135.5v758c-90.667 -14 -162.5 -56.833 -215.5 -128.5
s-79.5 -154.5 -79.5 -248.5z" />
    <glyph glyph-name="sterling" unicode="&#xa3;" 
d="M119 0l-0.000976562 110.998h215v589h-195v111h195v240c0 38.667 4.66699 77 14 115s24.833 75.833 46.5 113.5s48.5 70.834 80.5 99.501s73 51.834 123 69.501s105.333 26.5 166 26.5c108.667 0 206.334 -38.333 293.001 -115l-82 -98c-68 68 -140.333 102 -217 102
c-49.333 0 -93.333 -9.66699 -132 -29s-69 -44.333 -91 -75s-38.5 -62.667 -49.5 -96s-16.5 -66.333 -16.5 -99v-254h338v-111h-338v-589h502v-111h-852z" />
    <glyph glyph-name="currency" unicode="&#xa4;" 
d="M23 725c0 127.333 40.667 234.666 122 321.999l-116 112l69 76l117 -115c93.333 72.667 199 109 317 109c118.667 0 224.667 -36.333 318 -109l117 115l69 -76l-116 -112c81.333 -87.333 122 -194.666 122 -321.999s-40.667 -234.666 -122 -321.999l116 -112l-69 -76
l-117 115c-93.333 -72.667 -199.333 -109 -318 -109c-118 0 -223.667 36.333 -317 109l-117 -115l-69 76l116 112c-81.333 87.333 -122 194.666 -122 321.999zM145 725c0 -108 38 -200.5 114 -277.5s167 -115.5 273 -115.5s197.167 38.5 273.5 115.5
s114.5 169.5 114.5 277.5c0 108.667 -38.167 201.334 -114.5 278.001s-167.5 115 -273.5 115s-197 -38.333 -273 -115s-114 -169.334 -114 -278.001z" />
    <glyph glyph-name="yen" unicode="&#xa5;" 
d="M0 1450h139l393 -705l400 705h133l-391 -694h274v-99h-330l-18 -32v-158h348v-98h-348v-369h-135v369h-348v98h348v158l-19 32h-329v99h274z" />
    <glyph glyph-name="brokenbar" unicode="&#xa6;" horiz-adv-x="454" 
d="M178 -37v592h98v-592h-98zM178 956v592h98v-592h-98z" />
    <glyph glyph-name="section" unicode="&#xa7;" 
d="M131 -49l124.995 60.998c22.667 -60 56.667 -105.667 102 -137s100 -47 164 -47c66.667 0 124.667 17.667 174 53s74 84 74 146c0 32.667 -8.66699 62.667 -26 90s-40.333 50.333 -69 69s-61.334 37.5 -98.001 56.5s-74 36.333 -112 52s-75.333 34.834 -112 57.501
s-69.334 46.334 -98.001 71.001s-51.667 55.834 -69 93.501s-26 79.167 -26 124.5c0 114.667 72.333 202.667 217 264c-112 67.333 -168 154 -168 260c0 67.333 19 126 57 176s85.333 86.833 142 110.5s117.334 35.5 182.001 35.5c74 0 140.833 -16 200.5 -48
s102.167 -80.333 127.5 -145l-119 -69c-19.333 45.333 -47.666 79.833 -84.999 103.5s-80.666 35.5 -129.999 35.5c-66 0 -122.5 -17.333 -169.5 -52s-70.5 -83.667 -70.5 -147c0 -35.333 10.833 -67.333 32.5 -96s49.834 -53.167 84.501 -73.5s73 -40.166 115 -59.499
s84 -40 126 -62s80.333 -46.167 115 -72.5s62.834 -59.333 84.501 -99s32.5 -84.167 32.5 -133.5c0 -113.333 -60.667 -203.333 -182 -270c46.667 -27.333 83.834 -63 111.501 -107s41.5 -92.333 41.5 -145c0 -104.667 -37.5 -187.834 -112.5 -249.501
s-164.5 -92.5 -268.5 -92.5c-89.333 0 -169.166 20.667 -239.499 62s-121.5 102.666 -153.5 183.999zM294.995 644.998c0 -24.667 3.33398 -46.5 10.001 -65.5s17.334 -35.5 32.001 -49.5s28.667 -25.333 42 -34s31.666 -19 54.999 -31l209 -107
c41.333 22 77.666 50.5 108.999 85.5s47 72.167 47 111.5c0 44 -15 83 -45 117s-65.667 62 -107 84l-153 84c-132.667 -44 -199 -109 -199 -195z" />
    <glyph glyph-name="dieresis" unicode="&#xa8;" horiz-adv-x="491" 
d="M-47 1335c0 27.333 9.5 50.666 28.5 69.999s42.167 29 69.5 29s50.666 -9.66699 69.999 -29s29 -42.666 29 -69.999s-9.66699 -50.5 -29 -69.5s-42.666 -28.5 -69.999 -28.5s-50.5 9.5 -69.5 28.5s-28.5 42.167 -28.5 69.5zM342 1335c0 27.333 9.5 50.666 28.5 69.999
s42.167 29 69.5 29s50.666 -9.66699 69.999 -29s29 -42.666 29 -69.999s-9.66699 -50.5 -29 -69.5s-42.666 -28.5 -69.999 -28.5s-50.5 9.5 -69.5 28.5s-28.5 42.167 -28.5 69.5z" />
    <glyph glyph-name="copyright" unicode="&#xa9;" horiz-adv-x="1638" 
d="M57 725c0 103.333 20.167 202 60.5 296s94.5 175 162.5 243s149 122.167 243 162.5s192.667 60.5 296 60.5s202 -20.167 296 -60.5s175 -94.5 243 -162.5s122.167 -149 162.5 -243s60.5 -192.667 60.5 -296s-20.167 -202 -60.5 -296s-94.5 -175 -162.5 -243
s-149 -122.167 -243 -162.5s-192.667 -60.5 -296 -60.5s-202 20.167 -296 60.5s-175 94.5 -243 162.5s-122.167 149 -162.5 243s-60.5 192.667 -60.5 296zM168 725c0 -88.667 17.167 -173.167 51.5 -253.5s80.5 -149.5 138.5 -207.5s127.167 -104.167 207.5 -138.5
s164.833 -51.5 253.5 -51.5s173.167 17.167 253.5 51.5s149.5 80.5 207.5 138.5s104.167 127.167 138.5 207.5s51.5 164.833 51.5 253.5s-17.167 173.167 -51.5 253.5s-80.5 149.5 -138.5 207.5s-127.167 104.167 -207.5 138.5s-164.833 51.5 -253.5 51.5
s-173.167 -17.167 -253.5 -51.5s-149.5 -80.5 -207.5 -138.5s-104.167 -127.167 -138.5 -207.5s-51.5 -164.833 -51.5 -253.5zM399 725c0 138.667 38.998 251.499 116.998 338.499s185.333 130.5 322 130.5c99.333 0 184 -27.333 254 -82s111.667 -131 125 -229h-111
c-13.333 60 -43.166 110.333 -89.499 151s-105.166 61.334 -176.499 62.001c-101.333 0 -181.666 -35.667 -240.999 -107s-89 -159.333 -89 -264s29.667 -192.667 89 -264s139.666 -107 240.999 -107c72 0 131.667 20.5 179 61.5s76.333 91.5 87 151.5h111
c-13.333 -98 -55 -174.333 -125 -229s-154.667 -82 -254 -82c-136.667 0 -244 43.5 -322 130.5s-117 199.833 -117 338.5z" />
    <glyph glyph-name="ordfeminine" unicode="&#xaa;" horiz-adv-x="690" 
d="M70 1034c0 38 9 70.6699 27 98.0029s42.667 48 74 62s64.166 24 98.499 30s71.5 9 111.5 9h131v18c-2 47.333 -15.333 82.166 -40 104.499s-68 33.5 -130 33.5c-39.333 0 -73.666 -5.83301 -102.999 -17.5s-59 -29.834 -89 -54.501l-54 78
c66.667 53.333 156.334 80 269.001 80c83.333 0 145 -17.167 185 -51.5s60 -91.833 60 -172.5v-164c0 -88.667 3.66699 -157.334 11 -206.001h-101c-2.66699 8.66699 -4.33398 17.667 -5.00098 27s-1.16699 21.333 -1.5 36s-0.833008 25 -1.5 31h-4
c-44 -71.333 -115 -107 -213 -107c-64 0 -117.5 13.667 -160.5 41s-64.5 69 -64.5 125zM168 1038c0 -24 14.832 -44 44.499 -60s63.834 -24 102.501 -24c64.667 0 113.667 19 147 57s50 78.667 50 122v14h-78c-32.667 0 -63.167 -1.5 -91.5 -4.5s-56.5 -8.33301 -84.5 -16
s-50 -19 -66 -34s-24 -33.167 -24 -54.5z" />
    <glyph glyph-name="guillemotleft" unicode="&#xab;" horiz-adv-x="985" 
d="M129 485l281 416l86 -59l-238 -357l242 -360l-90 -55zM469 485l281 416l86 -59l-238 -357l242 -360l-90 -55z" />
    <glyph glyph-name="logicalnot" unicode="&#xac;" horiz-adv-x="1363" 
d="M160 719v98h1044v-543h-98v445h-946z" />
    <glyph glyph-name="uni00AD" unicode="&#xad;" horiz-adv-x="681" 
d="M88 430v111h506v-111h-506z" />
    <glyph glyph-name="registered" unicode="&#xae;" horiz-adv-x="1638" 
d="M57 725c0 103.333 20.167 202 60.5 296s94.5 175 162.5 243s149 122.167 243 162.5s192.667 60.5 296 60.5s202 -20.167 296 -60.5s175 -94.5 243 -162.5s122.167 -149 162.5 -243s60.5 -192.667 60.5 -296s-20.167 -202 -60.5 -296s-94.5 -175 -162.5 -243
s-149 -122.167 -243 -162.5s-192.667 -60.5 -296 -60.5s-202 20.167 -296 60.5s-175 94.5 -243 162.5s-122.167 149 -162.5 243s-60.5 192.667 -60.5 296zM168 725c0 -88.667 17.167 -173.167 51.5 -253.5s80.5 -149.5 138.5 -207.5s127.167 -104.167 207.5 -138.5
s164.833 -51.5 253.5 -51.5s173.167 17.167 253.5 51.5s149.5 80.5 207.5 138.5s104.167 127.167 138.5 207.5s51.5 164.833 51.5 253.5s-17.167 173.167 -51.5 253.5s-80.5 149.5 -138.5 207.5s-127.167 104.167 -207.5 138.5s-164.833 51.5 -253.5 51.5
s-173.167 -17.167 -253.5 -51.5s-149.5 -80.5 -207.5 -138.5s-104.167 -127.167 -138.5 -207.5s-51.5 -164.833 -51.5 -253.5zM543 289l0.000976562 877.999h338c97.333 0 167.666 -20.167 210.999 -60.5s65 -101.166 65 -182.499c0 -75.333 -20.333 -133 -61 -173
s-94 -65.667 -160 -77l262 -385h-125l-262 385h-158v-385h-110zM653.001 771.999h141.999c30 0 54.667 0.5 74 1.5s41.333 4.33301 66 10s44.334 13.667 59.001 24s27.167 25.333 37.5 45s15.5 43.5 15.5 71.5c0 27.333 -5.66699 50.833 -17 70.5s-26.833 34.667 -46.5 45
s-40.5 17.833 -62.5 22.5s-45.667 7 -71 7h-197v-297z" />
    <glyph glyph-name="macron" unicode="&#xaf;" horiz-adv-x="491" 
d="M-25 1241v98h541v-98h-541z" />
    <glyph glyph-name="degree" unicode="&#xb0;" horiz-adv-x="819" 
d="M115 1182c0 82 28.667 151.333 86 208s127 85 209 85s151.667 -28.333 209 -85s86 -126 86 -208c0 -82.667 -28.667 -152.834 -86 -210.501s-127 -86.5 -209 -86.5s-151.667 28.833 -209 86.5s-86 127.834 -86 210.501zM213 1180c0 -54.667 19.167 -101.167 57.5 -139.5
s84.833 -57.5 139.5 -57.5s101 19.167 139 57.5s57 84.833 57 139.5s-19 101 -57 139s-84.333 57 -139 57s-101.167 -19 -139.5 -57s-57.5 -84.333 -57.5 -139z" />
    <glyph glyph-name="plusminus" unicode="&#xb1;" horiz-adv-x="1363" 
d="M160 670v98h467v375h98v-375h479v-98h-479v-375h-98v375h-467zM168 98v99h1028v-99h-1028z" />
    <glyph glyph-name="uni00B2" unicode="&#xb2;" horiz-adv-x="692" 
d="M47 592l-0.00292969 88.002l352 344c24 23.333 41.833 41.166 53.5 53.499s24.834 28.333 39.501 48s25 39.167 31 58.5s9 40.333 9 63c0 38.667 -15.333 69.834 -46 93.501s-72.667 35.5 -126 35.5c-48 0 -86.5 -11.5 -115.5 -34.5s-49.167 -51.833 -60.5 -86.5l-104 9
c11.333 49.333 33.833 90.666 67.5 123.999s68.834 56.166 105.501 68.499s74 18.5 112 18.5c81.333 0 148 -20.167 200 -60.5s78 -94.833 78 -163.5c0 -32 -4.66699 -62 -14 -90s-24.666 -56 -45.999 -84s-40 -50.5 -56 -67.5s-40 -40.833 -72 -71.5l-260 -248h450v-98
h-598z" />
    <glyph glyph-name="uni00B3" unicode="&#xb3;" horiz-adv-x="692" 
d="M55 762l96.998 36.999c31.333 -80.667 94 -121 188 -121c46.667 0 89.334 15.833 128.001 47.5s58 67.834 58 108.501c0 110 -77 165 -231 165h-35v99h47c22.667 0 44.834 2.66699 66.501 8s42.334 13.666 62.001 24.999s35.667 27.333 48 48s18.5 44.667 18.5 72
c0 36 -14.5 65.833 -43.5 89.5s-67.167 35.5 -114.5 35.5c-38 0 -72.833 -9.16699 -104.5 -27.5s-56.834 -43.166 -75.501 -74.499l-80 51c62.667 100 149.334 150 260.001 150c76.667 0 140.5 -20.5 191.5 -61.5s76.5 -94.5 76.5 -160.5
c0 -45.333 -15.833 -86.333 -47.5 -123s-71.834 -63 -120.501 -79v-4c58.667 -8 105.5 -32.5 140.5 -73.5s52.5 -89.833 52.5 -146.5c0 -75.333 -28 -135.333 -84 -180s-127 -67 -213 -67c-144 0 -239 60.667 -285 182z" />
    <glyph glyph-name="acute" unicode="&#xb4;" horiz-adv-x="491" 
d="M127 1155l213 295h164l-275 -295h-102z" />
    <glyph glyph-name="paragraph" unicode="&#xb6;" horiz-adv-x="1228" 
d="M123 1049c0 128 40 226.832 120 296.499s192.333 104.5 337 104.5h464v-1708h-122v1610h-252v-1610h-123v920c-118.667 0 -219 37.833 -301 113.5s-123 166.834 -123 273.501z" />
    <glyph glyph-name="periodcentered" unicode="&#xb7;" horiz-adv-x="532" 
d="M168 651c0 27.333 9.5 50.666 28.5 69.999s42.167 29 69.5 29s50.666 -9.66699 69.999 -29s29 -42.666 29 -69.999s-9.66699 -50.5 -29 -69.5s-42.666 -28.5 -69.999 -28.5s-50.5 9.5 -69.5 28.5s-28.5 42.167 -28.5 69.5z" />
    <glyph glyph-name="cedilla" unicode="&#xb8;" horiz-adv-x="491" 
d="M68 -399l28.001 65.002c44 -23.333 96 -35 156 -35c31.333 0 60.666 7.5 87.999 22.5s41 36.833 41 65.5c0 28 -11.667 49.333 -35 64s-50 22 -80 22c-31.333 0 -61.333 -5.33301 -90 -16l-33 31l129 180h78l-96 -131l4 -4c16.667 9.33301 38 14 64 14
c47.333 0 87.5 -12.833 120.5 -38.5s49.5 -61.834 49.5 -108.501c0 -56.667 -23.333 -99.834 -70 -129.501s-100 -44.5 -160 -44.5c-69.333 0 -134 14.333 -194 43z" />
    <glyph glyph-name="uni00B9" unicode="&#xb9;" horiz-adv-x="692" 
d="M137 1286l225 176h111v-870h-111v760l-174 -135z" />
    <glyph glyph-name="ordmasculine" unicode="&#xba;" horiz-adv-x="790" 
d="M70 1171c0 90 29.5 163.168 88.5 219.501s137.167 84.5 234.5 84.5c95.333 0 173.833 -28 235.5 -84s92.5 -129.333 92.5 -220c0 -88.667 -31 -161.334 -93 -218.001s-140.333 -85 -235 -85c-97.333 0 -175.5 28 -234.5 84s-88.5 129 -88.5 219zM168 1171
c0 -59.333 21.332 -110.333 63.999 -153s96.334 -64 161.001 -64s119.167 21.167 163.5 63.5s66.5 93.5 66.5 153.5c0 62.667 -21.167 114.667 -63.5 156s-97.833 62 -166.5 62c-64 0 -117.5 -21.667 -160.5 -65s-64.5 -94.333 -64.5 -153z" />
    <glyph glyph-name="guillemotright" unicode="&#xbb;" horiz-adv-x="985" 
d="M145 846l91 55l280 -416l-280 -415l-86 59l237 356zM485 846l90 55l281 -416l-281 -415l-86 59l238 356z" />
    <glyph glyph-name="onequarter" unicode="&#xbc;" horiz-adv-x="1593" 
d="M74 1286l225 176h111v-870h-111v760l-174 -135zM236 -12l933 1532l95 -58l-936 -1532zM889 209v92l379 567h121v-561h131v-98h-131v-209h-111v209h-389zM999 307h279v414h-4z" />
    <glyph glyph-name="onehalf" unicode="&#xbd;" horiz-adv-x="1593" 
d="M57 1286l226 176h110v-870h-110v760l-174 -135zM217 -12l934 1532l94 -58l-936 -1532zM938 0v88.0029l352 344c24 23.333 41.833 41.166 53.5 53.499s24.834 28.333 39.501 48s25 39.167 31 58.5s9 40.333 9 63c0 38.667 -15.333 69.834 -46 93.501
s-72.667 35.5 -126 35.5c-48 0 -86.5 -11.333 -115.5 -34s-49.167 -51.334 -60.5 -86.001l-104 8c11.333 49.333 33.666 90.666 66.999 123.999s68.333 56.166 105 68.499s74 18.5 112 18.5c81.333 0 148.166 -20.167 200.499 -60.5s78.5 -94.833 78.5 -163.5
c0 -32 -4.66699 -62 -14 -90s-24.666 -56 -45.999 -84s-40 -50.5 -56 -67.5s-40 -40.833 -72 -71.5l-261 -248h451v-98h-598z" />
    <glyph glyph-name="threequarters" unicode="&#xbe;" horiz-adv-x="1593" 
d="M41 762l98 36.998c31.333 -80.667 94.333 -121 189 -121c46.667 0 89.334 15.833 128.001 47.5s58 67.834 58 108.501c0 110 -77 165 -231 165h-35v99h47c23.333 2 45.333 5.66699 66 11s41.167 13.5 61.5 24.5s36.5 26.5 48.5 46.5s18 43.667 18 71
c0 36 -14.333 65.833 -43 89.5s-66.667 35.5 -114 35.5c-38 0 -72.833 -9.16699 -104.5 -27.5s-56.834 -43.166 -75.501 -74.499l-80 51c62.667 100 149.334 150 260.001 150c76.667 0 140.5 -20.5 191.5 -61.5s76.5 -94.5 76.5 -160.5
c0 -45.333 -15.833 -86.333 -47.5 -123s-71.834 -63 -120.501 -79v-4c58.667 -8 105.5 -32.5 140.5 -73.5s52.5 -89.833 52.5 -146.5c0 -75.333 -28 -135.333 -84 -180s-127 -67 -213 -67c-143.333 0 -239 60.667 -287 182zM340 -12.002l934 1532l94 -58l-936 -1532z
M922 208.998v92l378 567h121v-561h131v-98h-131v-209h-110v209h-389zM1028 306.998h279v414h-4z" />
    <glyph glyph-name="questiondown" unicode="&#xbf;" horiz-adv-x="948" 
d="M76 -139c0 46.667 6.17285 89.167 18.5059 127.5s28.166 70.666 47.499 96.999s40.833 51 64.5 74l71 67c23.667 21.667 45.167 44.167 64.5 67.5s35.166 51 47.499 83s18.5 67.333 18.5 106v131h122v-172c0 -36.667 -5.83301 -71 -17.5 -103
s-26.834 -59.833 -45.501 -83.5s-39.5 -46.667 -62.5 -69l-68.5 -67c-22.667 -22.333 -43.334 -45.166 -62.001 -68.499s-33.834 -50.833 -45.501 -82.5s-17.5 -65.5 -17.5 -101.5c0 -74 21.5 -133.833 64.5 -179.5s101.5 -68.5 175.5 -68.5c70 0 128.5 21.667 175.5 65
s77.833 101 92.5 173l133 -17c-18 -103.333 -63.333 -184.5 -136 -243.5s-160.334 -88.5 -263.001 -88.5c-110.667 0 -201.167 31.333 -271.5 94s-105.5 149 -105.5 259zM369.006 909c0 27.333 9.5 50.666 28.5 69.999s42.167 29 69.5 29s50.5 -9.66699 69.5 -29
s28.5 -42.666 28.5 -69.999s-9.5 -50.5 -28.5 -69.5s-42.167 -28.5 -69.5 -28.5s-50.5 9.5 -69.5 28.5s-28.5 42.167 -28.5 69.5z" />
    <glyph glyph-name="Agrave" unicode="&#xc0;" horiz-adv-x="1402" 
d="M10 0l633 1450h139l611 -1450h-152l-158 385h-768l-163 -385h-142zM369 508h665l-327 795zM444 1835h164l213 -295h-102z" />
    <glyph glyph-name="Aacute" unicode="&#xc1;" horiz-adv-x="1402" 
d="M10 0l633 1450h139l611 -1450h-152l-158 385h-768l-163 -385h-142zM369 508h665l-327 795zM584 1540l213 295h164l-275 -295h-102z" />
    <glyph glyph-name="Acircumflex" unicode="&#xc2;" horiz-adv-x="1402" 
d="M10 0l633 1450h139l611 -1450h-152l-158 385h-768l-163 -385h-142zM369 508h665l-327 795zM410 1540l221 295h143l221 -295h-133l-166 221l-166 -221h-120z" />
    <glyph glyph-name="Atilde" unicode="&#xc3;" horiz-adv-x="1402" 
d="M10 0l633 1450h139l611 -1450h-152l-158 385h-768l-163 -385h-142zM369 508h665l-327 795zM383 1575c7.33301 55.333 25.6641 101.667 54.9971 139c35.333 46.667 78.333 70 129 70c38.667 0 90 -17 154 -51c61.333 -31.333 104.333 -47 129 -47
c27.333 0 49 9.33301 65 28s27 42 33 70h74c-6.66699 -57.333 -24.5 -106.5 -53.5 -147.5s-68.5 -61.5 -118.5 -61.5c-33.333 0 -84.666 16.333 -153.999 49l-28 13.5l-29.5 14c-6.33301 3 -14.666 6.5 -24.999 10.5s-19.666 6.83301 -27.999 8.5s-16.5 2.5 -24.5 2.5
c-53.333 0 -88 -32.667 -104 -98h-74z" />
    <glyph glyph-name="Adieresis" unicode="&#xc4;" horiz-adv-x="1402" 
d="M10 0l633 1450h139l611 -1450h-152l-158 385h-768l-163 -385h-142zM369 508h665l-327 795zM410 1720c0 27.333 9.5 50.666 28.5 69.999s42.167 29 69.5 29s50.5 -9.66699 69.5 -29s28.5 -42.666 28.5 -69.999s-9.5 -50.5 -28.5 -69.5s-42.167 -28.5 -69.5 -28.5
s-50.5 9.5 -69.5 28.5s-28.5 42.167 -28.5 69.5zM799 1720c0 27.333 9.5 50.666 28.5 69.999s42.167 29 69.5 29s50.5 -9.66699 69.5 -29s28.5 -42.666 28.5 -69.999s-9.5 -50.5 -28.5 -69.5s-42.167 -28.5 -69.5 -28.5s-50.5 9.5 -69.5 28.5s-28.5 42.167 -28.5 69.5z" />
    <glyph glyph-name="Aring" unicode="&#xc5;" horiz-adv-x="1402" 
d="M10 0l633 1450h139l611 -1450h-152l-158 385h-768l-163 -385h-142zM369 508h665l-327 795zM512 1714c0 52.667 19 98.334 57 137.001s83.333 58 136 58c52 0 96.333 -19.833 133 -59.5s55 -85.5 55 -137.5c0 -50.667 -18.5 -95.334 -55.5 -134.001
s-81.167 -58 -132.5 -58c-52.667 0 -98 19.333 -136 58s-57 84 -57 136zM586 1712c0 -34 11 -62.332 33 -84.999s49.667 -34 83 -34c34 0 62 11.667 84 35s33 52 33 86s-11 62.667 -33 86s-50 35 -84 35c-33.333 0 -61 -11.833 -83 -35.5s-33 -52.834 -33 -87.501z" />
    <glyph glyph-name="AE" unicode="&#xc6;" horiz-adv-x="1896" 
d="M-10 0l944 1450h825v-123h-600v-516h565v-123h-565v-565h617v-123h-752v385h-639l-252 -385h-143zM465 508h559v819h-25z" />
    <glyph glyph-name="Ccedilla" unicode="&#xc7;" horiz-adv-x="1441" 
d="M104 725c0 146 31.5 276.834 94.5 392.501s151.667 206.167 266 271.5s244.166 98 389.499 98c214.667 0 381.334 -75.667 500.001 -227l-111 -93c-43.333 64.667 -99.833 113.667 -169.5 147s-142.834 50 -219.501 50c-123.333 0 -232 -28.333 -326 -85
s-165.5 -133.167 -214.5 -229.5s-73.5 -204.5 -73.5 -324.5s24.5 -228.167 73.5 -324.5s120.5 -172.833 214.5 -229.5s202.667 -85 326 -85c78.667 0 157.667 19.167 237 57.5s143 94.166 191 167.499l111 -84c-128 -176 -307.667 -264 -539 -264
c-145.333 0 -275.166 32.667 -389.499 98s-203 155.833 -266 271.5s-94.5 246.5 -94.5 392.5zM543 -398.999l28.001 65.002c44 -23.333 96 -35 156 -35c31.333 0 60.666 7.5 87.999 22.5s41 36.833 41 65.5c0 28 -11.667 49.333 -35 64s-50 22 -80 22
c-31.333 0 -61.333 -5.33301 -90 -16l-33 31l130 180h77l-96 -131l4 -4c16.667 9.33301 38 14 64 14c47.333 0 87.5 -12.833 120.5 -38.5s49.5 -61.834 49.5 -108.501c0 -56.667 -23.333 -99.834 -70 -129.501s-100 -44.5 -160 -44.5c-69.333 0 -134 14.333 -194 43z" />
    <glyph glyph-name="Egrave" unicode="&#xc8;" horiz-adv-x="1214" 
d="M199 0v1450h886v-123h-751v-516h704v-123h-704v-565h784v-123h-919zM350 1835h164l213 -295h-102z" />
    <glyph glyph-name="Eacute" unicode="&#xc9;" horiz-adv-x="1214" 
d="M199 0v1450h886v-123h-751v-516h704v-123h-704v-565h784v-123h-919zM489 1540l213 295h164l-274 -295h-103z" />
    <glyph glyph-name="Ecircumflex" unicode="&#xca;" horiz-adv-x="1214" 
d="M199 0v1450h886v-123h-751v-516h704v-123h-704v-565h784v-123h-919zM315 1540l222 295h143l221 -295h-133l-166 221l-166 -221h-121z" />
    <glyph glyph-name="Edieresis" unicode="&#xcb;" horiz-adv-x="1214" 
d="M199 0v1450h886v-123h-751v-516h704v-123h-704v-565h784v-123h-919zM315 1720c0 27.333 9.66699 50.666 29 69.999s42.666 29 69.999 29s50.5 -9.66699 69.5 -29s28.5 -42.666 28.5 -69.999s-9.5 -50.5 -28.5 -69.5s-42.167 -28.5 -69.5 -28.5s-50.666 9.5 -69.999 28.5
s-29 42.167 -29 69.5zM705 1720c0 27.333 9.5 50.666 28.5 69.999s42.167 29 69.5 29s50.5 -9.66699 69.5 -29s28.5 -42.666 28.5 -69.999s-9.5 -50.5 -28.5 -69.5s-42.167 -28.5 -69.5 -28.5s-50.5 9.5 -69.5 28.5s-28.5 42.167 -28.5 69.5z" />
    <glyph glyph-name="Igrave" unicode="&#xcc;" horiz-adv-x="532" 
d="M8 1835h164l213 -295h-102zM199 0v1450h135v-1450h-135z" />
    <glyph glyph-name="Iacute" unicode="&#xcd;" horiz-adv-x="532" 
d="M147 1540l213 295h164l-274 -295h-103zM199 0v1450h135v-1450h-135z" />
    <glyph glyph-name="Icircumflex" unicode="&#xce;" horiz-adv-x="532" 
d="M-27 1540l222 295h143l221 -295h-133l-166 221l-166 -221h-121zM199 0v1450h135v-1450h-135z" />
    <glyph glyph-name="Idieresis" unicode="&#xcf;" horiz-adv-x="532" 
d="M-27 1720c0 27.333 9.66699 50.666 29 69.999s42.666 29 69.999 29s50.5 -9.66699 69.5 -29s28.5 -42.666 28.5 -69.999s-9.5 -50.5 -28.5 -69.5s-42.167 -28.5 -69.5 -28.5s-50.666 9.5 -69.999 28.5s-29 42.167 -29 69.5zM199 0v1450h135v-1450h-135zM362 1720
c0 27.333 9.66699 50.666 29 69.999s42.666 29 69.999 29s50.5 -9.66699 69.5 -29s28.5 -42.666 28.5 -69.999s-9.5 -50.5 -28.5 -69.5s-42.167 -28.5 -69.5 -28.5s-50.666 9.5 -69.999 28.5s-29 42.167 -29 69.5z" />
    <glyph glyph-name="Eth" unicode="&#xd0;" horiz-adv-x="1517" 
d="M20 700v111.004h160v639h449c80.667 0 155.667 -7.33301 225 -22s128.666 -33.667 177.999 -57s94.333 -51.833 135 -85.5s73.834 -67.834 99.501 -102.501s48.167 -72.167 67.5 -112.5s33.833 -77 43.5 -110s17.334 -67 23.001 -102s9.16699 -61.833 10.5 -80.5
s2 -36.334 2 -53.001s-0.666992 -34.334 -2 -53.001s-4.83301 -45.5 -10.5 -80.5s-13.334 -69 -23.001 -102s-24.167 -69.667 -43.5 -110s-41.833 -77.833 -67.5 -112.5s-58.834 -68.834 -99.501 -102.501s-85.667 -62.167 -135 -85.5s-108.666 -42.333 -177.999 -57
s-144.333 -22 -225 -22h-449v700h-160zM315 123.004h279c98 0 187.833 12 269.5 36s153.667 60 216 108s111 111 146 189s52.5 167.667 52.5 269s-17.5 191 -52.5 269s-83.667 141 -146 189s-134.333 84 -216 108s-171.5 36 -269.5 36h-279v-516h529v-111h-529v-577z" />
    <glyph glyph-name="Ntilde" unicode="&#xd1;" horiz-adv-x="1593" 
d="M199 0v1450h174l882 -1270h5v1270h135v-1450h-174l-883 1270h-4v-1270h-135zM477 1575c7.33301 55.333 25.6689 101.664 55.002 138.997c35.333 46.667 78.666 70 129.999 70c38 0 89 -17 153 -51c61.333 -31.333 104.333 -47 129 -47c27.333 0 49 9.33301 65 28
s27 42 33 70h74c-6.66699 -57.333 -24.5 -106.5 -53.5 -147.5s-68.5 -61.5 -118.5 -61.5c-5.33301 0 -10.833 0.333008 -16.5 1s-10.667 1.33398 -15 2.00098s-9.66602 1.83398 -15.999 3.50098l-15 4c-3.66699 1 -9 2.83301 -16 5.5l-14.5 5.5c-2.66699 1 -8 3.33301 -16 7
s-12.833 5.83398 -14.5 6.50098s-6.83398 3 -15.501 7s-13.334 6.33301 -14.001 7l-27.5 13.5c-14.333 7 -24.5 11.833 -30.5 14.5s-14.5 6 -25.5 10s-20.5 6.83301 -28.5 8.5s-16 2.5 -24 2.5c-53.333 0 -88 -32.667 -104 -98h-74z" />
    <glyph glyph-name="Ograve" unicode="&#xd2;" horiz-adv-x="1708" 
d="M104 725c0 146 31.5 276.833 94.5 392.5s151.667 206.167 266 271.5s244.166 98 389.499 98s275.166 -32.667 389.499 -98s203 -155.833 266 -271.5s94.5 -246.5 94.5 -392.5s-31.5 -276.833 -94.5 -392.5s-151.667 -206.167 -266 -271.5s-244.166 -98 -389.499 -98
s-275.166 32.667 -389.499 98s-203 155.833 -266 271.5s-94.5 246.5 -94.5 392.5zM240 725c0 -120 24.5 -228.167 73.5 -324.5s120.5 -172.833 214.5 -229.5s202.667 -85 326 -85s232 28.333 326 85s165.5 133.167 214.5 229.5s73.5 204.5 73.5 324.5
s-24.5 228.167 -73.5 324.5s-120.5 172.833 -214.5 229.5s-202.667 85 -326 85s-232 -28.333 -326 -85s-165.5 -133.167 -214.5 -229.5s-73.5 -204.5 -73.5 -324.5zM596 1835h164l213 -295h-103z" />
    <glyph glyph-name="Oacute" unicode="&#xd3;" horiz-adv-x="1708" 
d="M104 725c0 146 31.5 276.833 94.5 392.5s151.667 206.167 266 271.5s244.166 98 389.499 98s275.166 -32.667 389.499 -98s203 -155.833 266 -271.5s94.5 -246.5 94.5 -392.5s-31.5 -276.833 -94.5 -392.5s-151.667 -206.167 -266 -271.5s-244.166 -98 -389.499 -98
s-275.166 32.667 -389.499 98s-203 155.833 -266 271.5s-94.5 246.5 -94.5 392.5zM240 725c0 -120 24.5 -228.167 73.5 -324.5s120.5 -172.833 214.5 -229.5s202.667 -85 326 -85s232 28.333 326 85s165.5 133.167 214.5 229.5s73.5 204.5 73.5 324.5
s-24.5 228.167 -73.5 324.5s-120.5 172.833 -214.5 229.5s-202.667 85 -326 85s-232 -28.333 -326 -85s-165.5 -133.167 -214.5 -229.5s-73.5 -204.5 -73.5 -324.5zM735 1540l213 295h164l-274 -295h-103z" />
    <glyph glyph-name="Ocircumflex" unicode="&#xd4;" horiz-adv-x="1708" 
d="M104 725c0 146 31.5 276.833 94.5 392.5s151.667 206.167 266 271.5s244.166 98 389.499 98s275.166 -32.667 389.499 -98s203 -155.833 266 -271.5s94.5 -246.5 94.5 -392.5s-31.5 -276.833 -94.5 -392.5s-151.667 -206.167 -266 -271.5s-244.166 -98 -389.499 -98
s-275.166 32.667 -389.499 98s-203 155.833 -266 271.5s-94.5 246.5 -94.5 392.5zM240 725c0 -120 24.5 -228.167 73.5 -324.5s120.5 -172.833 214.5 -229.5s202.667 -85 326 -85s232 28.333 326 85s165.5 133.167 214.5 229.5s73.5 204.5 73.5 324.5
s-24.5 228.167 -73.5 324.5s-120.5 172.833 -214.5 229.5s-202.667 85 -326 85s-232 -28.333 -326 -85s-165.5 -133.167 -214.5 -229.5s-73.5 -204.5 -73.5 -324.5zM561 1540l221 295h144l221 -295h-133l-166 221l-166 -221h-121z" />
    <glyph glyph-name="Otilde" unicode="&#xd5;" horiz-adv-x="1708" 
d="M104 725c0 146 31.5 276.833 94.5 392.5s151.667 206.167 266 271.5s244.166 98 389.499 98s275.166 -32.667 389.499 -98s203 -155.833 266 -271.5s94.5 -246.5 94.5 -392.5s-31.5 -276.833 -94.5 -392.5s-151.667 -206.167 -266 -271.5s-244.166 -98 -389.499 -98
s-275.166 32.667 -389.499 98s-203 155.833 -266 271.5s-94.5 246.5 -94.5 392.5zM240 725c0 -120 24.5 -228.167 73.5 -324.5s120.5 -172.833 214.5 -229.5s202.667 -85 326 -85s232 28.333 326 85s165.5 133.167 214.5 229.5s73.5 204.5 73.5 324.5
s-24.5 228.167 -73.5 324.5s-120.5 172.833 -214.5 229.5s-202.667 85 -326 85s-232 -28.333 -326 -85s-165.5 -133.167 -214.5 -229.5s-73.5 -204.5 -73.5 -324.5zM535 1575c7.33301 55.333 25.666 101.664 54.999 138.997c35.333 46.667 78.333 70 129 70
c38 0 89 -17 153 -51c61.333 -31.333 104.333 -47 129 -47c27.333 0 49.333 9.33301 66 28s27.667 42 33 70h74c-6.66699 -57.333 -24.667 -106.5 -54 -147.5s-69 -61.5 -119 -61.5c-5.33301 0 -10.833 0.333008 -16.5 1s-10.667 1.33398 -15 2.00098
s-9.66602 1.83398 -15.999 3.50098l-15 4c-3.66699 1 -9 2.83301 -16 5.5l-14.5 5.5c-2.66699 1 -7.83398 3.33301 -15.501 7s-12.5 5.83398 -14.5 6.50098s-7.33301 3 -16 7s-13.334 6.33301 -14.001 7l-28 13.5l-29.5 14c-6.33301 3 -14.666 6.5 -24.999 10.5
s-19.666 6.83301 -27.999 8.5s-16.5 2.5 -24.5 2.5c-54 0 -89 -32.667 -105 -98h-73z" />
    <glyph glyph-name="Odieresis" unicode="&#xd6;" horiz-adv-x="1708" 
d="M104 725c0 146 31.5 276.833 94.5 392.5s151.667 206.167 266 271.5s244.166 98 389.499 98s275.166 -32.667 389.499 -98s203 -155.833 266 -271.5s94.5 -246.5 94.5 -392.5s-31.5 -276.833 -94.5 -392.5s-151.667 -206.167 -266 -271.5s-244.166 -98 -389.499 -98
s-275.166 32.667 -389.499 98s-203 155.833 -266 271.5s-94.5 246.5 -94.5 392.5zM240 725c0 -120 24.5 -228.167 73.5 -324.5s120.5 -172.833 214.5 -229.5s202.667 -85 326 -85s232 28.333 326 85s165.5 133.167 214.5 229.5s73.5 204.5 73.5 324.5
s-24.5 228.167 -73.5 324.5s-120.5 172.833 -214.5 229.5s-202.667 85 -326 85s-232 -28.333 -326 -85s-165.5 -133.167 -214.5 -229.5s-73.5 -204.5 -73.5 -324.5zM561 1720c0 27.333 9.5 50.666 28.5 69.999s42.167 29 69.5 29s50.666 -9.66699 69.999 -29
s29 -42.666 29 -69.999s-9.66699 -50.5 -29 -69.5s-42.666 -28.5 -69.999 -28.5s-50.5 9.5 -69.5 28.5s-28.5 42.167 -28.5 69.5zM950 1720c0 27.333 9.66699 50.666 29 69.999s42.666 29 69.999 29s50.5 -9.66699 69.5 -29s28.5 -42.666 28.5 -69.999
s-9.5 -50.5 -28.5 -69.5s-42.167 -28.5 -69.5 -28.5s-50.666 9.5 -69.999 28.5s-29 42.167 -29 69.5z" />
    <glyph glyph-name="multiply" unicode="&#xd7;" horiz-adv-x="1363" 
d="M205 215l409 406l-405 405l70 70l405 -406l408 406l67 -70l-407 -405l405 -406l-70 -70l-403 408l-408 -408z" />
    <glyph glyph-name="Oslash" unicode="&#xd8;" horiz-adv-x="1708" 
d="M104 725c0 146 31.5 276.833 94.5 392.5s151.667 206.167 266 271.5s244.166 98 389.499 98c186 0 346.333 -54 481 -162l152 166l69 -64l-153 -165c64 -67.333 113.5 -146.833 148.5 -238.5s52.5 -191.167 52.5 -298.5c0 -146 -31.5 -276.833 -94.5 -392.5
s-151.667 -206.167 -266 -271.5s-244.166 -98 -389.499 -98c-194 0 -357 56.667 -489 170l-154 -166l-72 64l156 168c-127.333 140 -191 315.333 -191 526zM240 725c0 -172.667 48.333 -316 145 -430l862 936c-107.333 88.667 -238.333 133 -393 133
c-123.333 0 -232 -28.333 -326 -85s-165.5 -133.167 -214.5 -229.5s-73.5 -204.5 -73.5 -324.5zM451 227c106.667 -94 241 -141 403 -141c123.333 0 232 28.333 326 85s165.5 133.167 214.5 229.5s73.5 204.5 73.5 324.5c0 178 -51 324.667 -153 440z" />
    <glyph glyph-name="Ugrave" unicode="&#xd9;" horiz-adv-x="1400" 
d="M172 555v894.997h135v-860c0 -46.667 2.66699 -90.834 8 -132.501s16.5 -86.167 33.5 -133.5s39.333 -87.666 67 -120.999s65.834 -61.166 114.501 -83.499s105.334 -33.5 170.001 -33.5c46.667 0 89.334 5.83301 128.001 17.5s71.334 27 98.001 46
s50.167 42.333 70.5 70s36.666 56 48.999 85s22.166 60.833 29.499 95.5s12.333 66.834 15 96.501s4 60.834 4 93.501v860h135v-895c0 -64 -5.5 -124.167 -16.5 -180.5s-29.667 -110 -56 -161s-59.333 -94.833 -99 -131.5s-90 -65.667 -151 -87s-129.833 -32 -206.5 -32
s-145.334 10.667 -206.001 32s-110.834 50.333 -150.501 87s-72.667 80.5 -99 131.5s-45 104.667 -56 161s-16.5 116.5 -16.5 180.5zM442 1835h164l213 -295h-102z" />
    <glyph glyph-name="Uacute" unicode="&#xda;" horiz-adv-x="1400" 
d="M172 555v894.997h135v-860c0 -46.667 2.66699 -90.834 8 -132.501s16.5 -86.167 33.5 -133.5s39.333 -87.666 67 -120.999s65.834 -61.166 114.501 -83.499s105.334 -33.5 170.001 -33.5c46.667 0 89.334 5.83301 128.001 17.5s71.334 27 98.001 46
s50.167 42.333 70.5 70s36.666 56 48.999 85s22.166 60.833 29.499 95.5s12.333 66.834 15 96.501s4 60.834 4 93.501v860h135v-895c0 -64 -5.5 -124.167 -16.5 -180.5s-29.667 -110 -56 -161s-59.333 -94.833 -99 -131.5s-90 -65.667 -151 -87s-129.833 -32 -206.5 -32
s-145.334 10.667 -206.001 32s-110.834 50.333 -150.501 87s-72.667 80.5 -99 131.5s-45 104.667 -56 161s-16.5 116.5 -16.5 180.5zM582 1540l213 295h163l-274 -295h-102z" />
    <glyph glyph-name="Ucircumflex" unicode="&#xdb;" horiz-adv-x="1400" 
d="M172 555v894.997h135v-860c0 -46.667 2.66699 -90.834 8 -132.501s16.5 -86.167 33.5 -133.5s39.333 -87.666 67 -120.999s65.834 -61.166 114.501 -83.499s105.334 -33.5 170.001 -33.5c46.667 0 89.334 5.83301 128.001 17.5s71.334 27 98.001 46
s50.167 42.333 70.5 70s36.666 56 48.999 85s22.166 60.833 29.499 95.5s12.333 66.834 15 96.501s4 60.834 4 93.501v860h135v-895c0 -64 -5.5 -124.167 -16.5 -180.5s-29.667 -110 -56 -161s-59.333 -94.833 -99 -131.5s-90 -65.667 -151 -87s-129.833 -32 -206.5 -32
s-145.334 10.667 -206.001 32s-110.834 50.333 -150.501 87s-72.667 80.5 -99 131.5s-45 104.667 -56 161s-16.5 116.5 -16.5 180.5zM408 1540l221 295h143l221 -295h-133l-166 221l-166 -221h-120z" />
    <glyph glyph-name="Udieresis" unicode="&#xdc;" horiz-adv-x="1400" 
d="M172 555v894.997h135v-860c0 -46.667 2.66699 -90.834 8 -132.501s16.5 -86.167 33.5 -133.5s39.333 -87.666 67 -120.999s65.834 -61.166 114.501 -83.499s105.334 -33.5 170.001 -33.5c46.667 0 89.334 5.83301 128.001 17.5s71.334 27 98.001 46
s50.167 42.333 70.5 70s36.666 56 48.999 85s22.166 60.833 29.499 95.5s12.333 66.834 15 96.501s4 60.834 4 93.501v860h135v-895c0 -64 -5.5 -124.167 -16.5 -180.5s-29.667 -110 -56 -161s-59.333 -94.833 -99 -131.5s-90 -65.667 -151 -87s-129.833 -32 -206.5 -32
s-145.334 10.667 -206.001 32s-110.834 50.333 -150.501 87s-72.667 80.5 -99 131.5s-45 104.667 -56 161s-16.5 116.5 -16.5 180.5zM408 1720c0 27.333 9.5 50.666 28.5 69.999s42.167 29 69.5 29s50.5 -9.66699 69.5 -29s28.5 -42.666 28.5 -69.999
s-9.5 -50.5 -28.5 -69.5s-42.167 -28.5 -69.5 -28.5s-50.5 9.5 -69.5 28.5s-28.5 42.167 -28.5 69.5zM797 1720c0 27.333 9.5 50.666 28.5 69.999s42.167 29 69.5 29s50.5 -9.66699 69.5 -29s28.5 -42.666 28.5 -69.999s-9.5 -50.5 -28.5 -69.5s-42.167 -28.5 -69.5 -28.5
s-50.5 9.5 -69.5 28.5s-28.5 42.167 -28.5 69.5z" />
    <glyph glyph-name="Yacute" unicode="&#xdd;" horiz-adv-x="1175" 
d="M-12 1450h162l438 -688l448 688h152l-533 -825v-625h-135v625zM469 1540l213 295h164l-275 -295h-102z" />
    <glyph glyph-name="Thorn" unicode="&#xde;" horiz-adv-x="1175" 
d="M199 0l-0.000976562 1450h133v-320h284c44 0 86.5 -3.5 127.5 -10.5s82.667 -19.5 125 -37.5s78.833 -40.833 109.5 -68.5s55.834 -64.334 75.501 -110.001s29.5 -97.5 29.5 -155.5c0 -63.333 -12 -119.666 -36 -168.999s-56.5 -89 -97.5 -119
s-87.167 -52.667 -138.5 -68s-106 -23 -164 -23h-313v-369h-135zM333.999 492l306.999 0.00195312c40.667 0 78.5 4.5 113.5 13.5s67.333 23.167 97 42.5s53.167 46.166 70.5 80.499s26 74.166 26 119.499c0 44.667 -9 84.167 -27 118.5s-42.167 61.5 -72.5 81.5
s-63.666 35 -99.999 45s-74.833 15 -115.5 15h-299v-516z" />
    <glyph glyph-name="germandbls" unicode="&#xdf;" horiz-adv-x="1214" 
d="M164 0l0.00195312 1094c0 143.333 37.667 259 113 347s181.666 132 318.999 132c110 0 200.667 -32.5 272 -97.5s107 -154.833 107 -269.5c0 -79.333 -18.333 -147 -55 -203s-86 -93.333 -148 -112v-4c34 -6.66699 65 -15.334 93 -26.001s57 -26.834 87 -48.501
s55.167 -47.667 75.5 -78s37.166 -69.666 50.499 -117.999s20 -102.833 20 -163.5c0 -145.333 -46.833 -259.166 -140.5 -341.499s-215.5 -123.5 -365.5 -123.5c-36.667 0 -68.667 3.33301 -96 10v119c32 -12.667 68 -19 108 -19c110.667 0 200.167 32.167 268.5 96.5
s102.5 149.833 102.5 256.5c0 62.667 -10.5 118.5 -31.5 167.5s-49.667 88.333 -86 118s-77.333 52.167 -123 67.5s-94.5 23 -146.5 23h-43v111h30c82.667 0 149.5 24 200.5 72s76.5 112 76.5 192c0 82.667 -24.5 146.667 -73.5 192s-113.167 68 -192.5 68
c-54 0 -100.833 -10.167 -140.5 -30.5s-70.667 -48.666 -93 -84.999s-38.833 -77 -49.5 -122s-16 -94.833 -16 -149.5v-1075h-123z" />
    <glyph glyph-name="agrave" unicode="&#xe0;" horiz-adv-x="1062" 
d="M121 256c0 40 6.66602 76.167 19.999 108.5s30.333 59.333 51 81s46.334 40.5 77.001 56.5s61 28.5 91 37.5s63.333 16.167 100 21.5s69 8.66602 97 9.99902s57.333 2 88 2h143v58c0 78 -24.167 135.667 -72.5 173s-112.833 56 -193.5 56
c-110 0 -206.333 -35.333 -289 -106l-71 84c43.333 41.333 98.166 73.833 164.499 97.5s131.5 35.5 195.5 35.5c119.333 0 212 -28 278 -84s99 -142 99 -258v-232c0 -166 6.33301 -298.333 19 -397h-115c-8 46.667 -12 98 -12 154h-5
c-35.333 -61.333 -79.5 -106.5 -132.5 -135.5s-119.167 -43.5 -198.5 -43.5c-42 0 -82.333 5.33301 -121 16s-74.167 26.834 -106.5 48.501s-58.166 51.167 -77.499 88.5s-29 80 -29 128zM243.999 262c0 -54.667 21.833 -97.6641 65.5 -128.997s93.5 -47 149.5 -47
c62.667 0 116.334 9.33301 161.001 28s78.667 44.167 102 76.5s40.166 66.666 50.499 102.999s15.5 75.833 15.5 118.5v63h-135c-54.667 0 -105.167 -3.66699 -151.5 -11s-89.333 -18.833 -129 -34.5s-71 -37.834 -94 -66.501s-34.5 -62.334 -34.5 -101.001zM273.999 1450
h164l213 -295h-102z" />
    <glyph glyph-name="aacute" unicode="&#xe1;" horiz-adv-x="1062" 
d="M121 256c0 40 6.66602 76.167 19.999 108.5s30.333 59.333 51 81s46.334 40.5 77.001 56.5s61 28.5 91 37.5s63.333 16.167 100 21.5s69 8.66602 97 9.99902s57.333 2 88 2h143v58c0 78 -24.167 135.667 -72.5 173s-112.833 56 -193.5 56
c-110 0 -206.333 -35.333 -289 -106l-71 84c43.333 41.333 98.166 73.833 164.499 97.5s131.5 35.5 195.5 35.5c119.333 0 212 -28 278 -84s99 -142 99 -258v-232c0 -166 6.33301 -298.333 19 -397h-115c-8 46.667 -12 98 -12 154h-5
c-35.333 -61.333 -79.5 -106.5 -132.5 -135.5s-119.167 -43.5 -198.5 -43.5c-42 0 -82.333 5.33301 -121 16s-74.167 26.834 -106.5 48.501s-58.166 51.167 -77.499 88.5s-29 80 -29 128zM243.999 262c0 -54.667 21.833 -97.6641 65.5 -128.997s93.5 -47 149.5 -47
c62.667 0 116.334 9.33301 161.001 28s78.667 44.167 102 76.5s40.166 66.666 50.499 102.999s15.5 75.833 15.5 118.5v63h-135c-54.667 0 -105.167 -3.66699 -151.5 -11s-89.333 -18.833 -129 -34.5s-71 -37.834 -94 -66.501s-34.5 -62.334 -34.5 -101.001zM413.999 1155
l213 295h164l-275 -295h-102z" />
    <glyph glyph-name="acircumflex" unicode="&#xe2;" horiz-adv-x="1062" 
d="M121 256c0 40 6.66602 76.167 19.999 108.5s30.333 59.333 51 81s46.334 40.5 77.001 56.5s61 28.5 91 37.5s63.333 16.167 100 21.5s69 8.66602 97 9.99902s57.333 2 88 2h143v58c0 78 -24.167 135.667 -72.5 173s-112.833 56 -193.5 56
c-110 0 -206.333 -35.333 -289 -106l-71 84c43.333 41.333 98.166 73.833 164.499 97.5s131.5 35.5 195.5 35.5c119.333 0 212 -28 278 -84s99 -142 99 -258v-232c0 -166 6.33301 -298.333 19 -397h-115c-8 46.667 -12 98 -12 154h-5
c-35.333 -61.333 -79.5 -106.5 -132.5 -135.5s-119.167 -43.5 -198.5 -43.5c-42 0 -82.333 5.33301 -121 16s-74.167 26.834 -106.5 48.501s-58.166 51.167 -77.499 88.5s-29 80 -29 128zM239.999 1155l221 295h143l221 -295h-133l-166 221l-166 -221h-120zM243.999 262
c0 -54.667 21.833 -97.6641 65.5 -128.997s93.5 -47 149.5 -47c62.667 0 116.334 9.33301 161.001 28s78.667 44.167 102 76.5s40.166 66.666 50.499 102.999s15.5 75.833 15.5 118.5v63h-135c-54.667 0 -105.167 -3.66699 -151.5 -11s-89.333 -18.833 -129 -34.5
s-71 -37.834 -94 -66.501s-34.5 -62.334 -34.5 -101.001z" />
    <glyph glyph-name="atilde" unicode="&#xe3;" horiz-adv-x="1062" 
d="M121 256c0 40 6.66602 76.167 19.999 108.5s30.333 59.333 51 81s46.334 40.5 77.001 56.5s61 28.5 91 37.5s63.333 16.167 100 21.5s69 8.66602 97 9.99902s57.333 2 88 2h143v58c0 78 -24.167 135.667 -72.5 173s-112.833 56 -193.5 56
c-110 0 -206.333 -35.333 -289 -106l-71 84c43.333 41.333 98.166 73.833 164.499 97.5s131.5 35.5 195.5 35.5c119.333 0 212 -28 278 -84s99 -142 99 -258v-232c0 -166 6.33301 -298.333 19 -397h-115c-8 46.667 -12 98 -12 154h-5
c-35.333 -61.333 -79.5 -106.5 -132.5 -135.5s-119.167 -43.5 -198.5 -43.5c-42 0 -82.333 5.33301 -121 16s-74.167 26.834 -106.5 48.501s-58.166 51.167 -77.499 88.5s-29 80 -29 128zM212.999 1190c7.33301 55.333 25.665 101.667 54.998 139
c35.333 46.667 78.333 70 129 70c38.667 0 90 -17 154 -51c2 -0.666992 7 -3.16699 15 -7.5s13.167 -7 15.5 -8s7 -3.33301 14 -7s12 -6 15 -7s7.66699 -2.83301 14 -5.5s11.333 -4.5 15 -5.5s8.16699 -2.33301 13.5 -4s10.166 -2.66699 14.499 -3s8.5 -0.5 12.5 -0.5
c27.333 0 49 9.5 65 28.5s27 42.5 33 70.5h74c-6.66699 -57.333 -24.5 -106.5 -53.5 -147.5s-68.5 -61.5 -118.5 -61.5c-33.333 0 -84.666 16.333 -153.999 49l-28 13.5l-29.5 14c-6.33301 3 -14.666 6.5 -24.999 10.5s-19.666 6.83301 -27.999 8.5s-16.5 2.5 -24.5 2.5
c-53.333 0 -88 -32.667 -104 -98h-74zM243.998 262.001c0 -54.667 21.833 -97.6641 65.5 -128.997s93.5 -47 149.5 -47c62.667 0 116.334 9.33301 161.001 28s78.667 44.167 102 76.5s40.166 66.666 50.499 102.999s15.5 75.833 15.5 118.5v63h-135
c-54.667 0 -105.167 -3.66699 -151.5 -11s-89.333 -18.833 -129 -34.5s-71 -37.834 -94 -66.501s-34.5 -62.334 -34.5 -101.001z" />
    <glyph glyph-name="adieresis" unicode="&#xe4;" horiz-adv-x="1062" 
d="M121 256c0 40 6.66602 76.167 19.999 108.5s30.333 59.333 51 81s46.334 40.5 77.001 56.5s61 28.5 91 37.5s63.333 16.167 100 21.5s69 8.66602 97 9.99902s57.333 2 88 2h143v58c0 78 -24.167 135.667 -72.5 173s-112.833 56 -193.5 56
c-110 0 -206.333 -35.333 -289 -106l-71 84c43.333 41.333 98.166 73.833 164.499 97.5s131.5 35.5 195.5 35.5c119.333 0 212 -28 278 -84s99 -142 99 -258v-232c0 -166 6.33301 -298.333 19 -397h-115c-8 46.667 -12 98 -12 154h-5
c-35.333 -61.333 -79.5 -106.5 -132.5 -135.5s-119.167 -43.5 -198.5 -43.5c-42 0 -82.333 5.33301 -121 16s-74.167 26.834 -106.5 48.501s-58.166 51.167 -77.499 88.5s-29 80 -29 128zM239.999 1335c0 27.333 9.5 50.666 28.5 69.999s42.167 29 69.5 29
s50.5 -9.66699 69.5 -29s28.5 -42.666 28.5 -69.999s-9.5 -50.5 -28.5 -69.5s-42.167 -28.5 -69.5 -28.5s-50.5 9.5 -69.5 28.5s-28.5 42.167 -28.5 69.5zM243.999 262c0 -54.667 21.833 -97.6641 65.5 -128.997s93.5 -47 149.5 -47c62.667 0 116.334 9.33301 161.001 28
s78.667 44.167 102 76.5s40.166 66.666 50.499 102.999s15.5 75.833 15.5 118.5v63h-135c-54.667 0 -105.167 -3.66699 -151.5 -11s-89.333 -18.833 -129 -34.5s-71 -37.834 -94 -66.501s-34.5 -62.334 -34.5 -101.001zM628.999 1335c0 27.333 9.5 50.666 28.5 69.999
s42.167 29 69.5 29s50.5 -9.66699 69.5 -29s28.5 -42.666 28.5 -69.999s-9.5 -50.5 -28.5 -69.5s-42.167 -28.5 -69.5 -28.5s-50.5 9.5 -69.5 28.5s-28.5 42.167 -28.5 69.5z" />
    <glyph glyph-name="aring" unicode="&#xe5;" horiz-adv-x="1062" 
d="M121 256c0 40 6.66602 76.167 19.999 108.5s30.333 59.333 51 81s46.334 40.5 77.001 56.5s61 28.5 91 37.5s63.333 16.167 100 21.5s69 8.66602 97 9.99902s57.333 2 88 2h143v58c0 78 -24.167 135.667 -72.5 173s-112.833 56 -193.5 56
c-110 0 -206.333 -35.333 -289 -106l-71 84c43.333 41.333 98.166 73.833 164.499 97.5s131.5 35.5 195.5 35.5c119.333 0 212 -28 278 -84s99 -142 99 -258v-232c0 -166 6.33301 -298.333 19 -397h-115c-8 46.667 -12 98 -12 154h-5
c-35.333 -61.333 -79.5 -106.5 -132.5 -135.5s-119.167 -43.5 -198.5 -43.5c-42 0 -82.333 5.33301 -121 16s-74.167 26.834 -106.5 48.501s-58.166 51.167 -77.499 88.5s-29 80 -29 128zM243.999 262c0 -54.667 21.833 -97.6641 65.5 -128.997s93.5 -47 149.5 -47
c62.667 0 116.334 9.33301 161.001 28s78.667 44.167 102 76.5s40.166 66.666 50.499 102.999s15.5 75.833 15.5 118.5v63h-135c-54.667 0 -105.167 -3.66699 -151.5 -11s-89.333 -18.833 -129 -34.5s-71 -37.834 -94 -66.501s-34.5 -62.334 -34.5 -101.001zM341.999 1329
c0 52.667 19 98.334 57 137.001s83.333 58 136 58c52 0 96.333 -19.833 133 -59.5s55 -85.5 55 -137.5c0 -50.667 -18.5 -95.334 -55.5 -134.001s-81.167 -58 -132.5 -58c-52.667 0 -98 19.333 -136 58s-57 84 -57 136zM415.999 1327c0 -34 11 -62.332 33 -84.999
s49.667 -34 83 -34c34 0 62 11.667 84 35s33 52 33 86s-11 62.667 -33 86s-50 35 -84 35c-33.333 0 -61 -11.833 -83 -35.5s-33 -52.834 -33 -87.501z" />
    <glyph glyph-name="ae" unicode="&#xe6;" horiz-adv-x="1744" 
d="M111 256c0 18.667 1.66699 36.8359 5 54.5029s9.33301 36.667 18 57s20.167 39.166 34.5 56.499s33.333 34 57 50s50.834 29.667 81.501 41s68.334 20.5 113.001 27.5s93.667 10.5 147 10.5h236v18c0 192.667 -97 289 -291 289c-110 0 -206.333 -35.333 -289 -106l-71 84
c43.333 41.333 98.166 73.833 164.499 97.5s131.5 35.5 195.5 35.5c90.667 0 166.167 -14.833 226.5 -44.5s107.833 -80.5 142.5 -152.5c34 62 83 110.333 147 145s130.333 52 199 52c59.333 0 114 -8.83301 164 -26.5s95.167 -44.334 135.5 -80.001
s71.833 -83.334 94.5 -143.001s34 -128.834 34 -207.501v-72h-729c-4 -102 22.833 -186.833 80.5 -254.5s139.834 -101.5 246.501 -101.5c57.333 0 109.666 13.333 156.999 40s86 64 116 112l96 -70c-52.667 -69.333 -108.834 -118.833 -168.501 -148.5
s-133.167 -44.5 -220.5 -44.5c-86.667 0 -162.334 19.167 -227.001 57.5s-113.334 97.166 -146.001 176.499c-26 -54.667 -60.5 -99.667 -103.5 -135s-90.333 -60.666 -142 -75.999s-108.5 -23 -170.5 -23c-42 0 -82.167 5.33301 -120.5 16s-73.666 26.834 -105.999 48.501
s-58.166 51.167 -77.499 88.5s-29 80 -29 128zM233 262.002c0 -54.667 22.0029 -97.666 66.0029 -128.999s94 -47 150 -47c61.333 0 115.333 9.33301 162 28s83.667 44.5 111 77.5s47.666 70.5 60.999 112.5s20 88 20 138h-240c-54.667 0 -102.834 -4.5 -144.501 -13.5
s-73.834 -20 -96.501 -33s-41.167 -28.333 -55.5 -46s-23.5 -33.334 -27.5 -47.001s-6 -27.167 -6 -40.5zM926.003 553.003h606c-1.33301 90.667 -27 164.5 -77 221.5s-124.667 85.5 -224 85.5c-91.333 0 -165 -29.5 -221 -88.5s-84 -131.833 -84 -218.5z" />
    <glyph glyph-name="ccedilla" unicode="&#xe7;" horiz-adv-x="985" 
d="M111 473c0 144.667 46.498 263.83 139.498 357.497s212.167 140.5 357.5 140.5c138.667 0 256.334 -54.667 353.001 -164l-99 -74c-78 84.667 -162.667 127 -254 127c-112.667 0 -203.334 -37.167 -272.001 -111.5s-103 -166.166 -103 -275.499
s34.333 -201.166 103 -275.499s159.334 -111.5 272.001 -111.5c98.667 0 183.334 43.667 254.001 131l94 -78c-90.667 -109.333 -206.667 -164 -348 -164c-145.333 0 -264.5 46.833 -357.5 140.5s-139.5 212.834 -139.5 357.501zM314.998 -399.004l29.001 65.002
c44 -23.333 96 -35 156 -35c31.333 0 60.666 7.5 87.999 22.5s41 36.833 41 65.5c0 28 -11.667 49.333 -35 64s-50 22 -80 22c-31.333 0 -61.333 -5.33301 -90 -16l-33 31l129 180h78l-96 -131l4 -4c16.667 9.33301 37.667 14 63 14c47.333 0 87.5 -12.833 120.5 -38.5
s49.5 -61.834 49.5 -108.501c0 -56.667 -23.167 -99.834 -69.5 -129.501s-99.5 -44.5 -159.5 -44.5c-70 0 -135 14.333 -195 43z" />
    <glyph glyph-name="egrave" unicode="&#xe8;" horiz-adv-x="1138" 
d="M111 475c0 142 44.498 260.169 133.498 354.502s202.167 141.5 339.5 141.5c56.667 0 109.167 -8.33301 157.5 -25s89.833 -39.334 124.5 -68.001s64.334 -61.834 89.001 -99.501s43 -77.834 55 -120.501s18 -86 18 -130v-86h-795c0 -23.333 3.16699 -48.833 9.5 -76.5
s18 -58.5 35 -92.5s38.167 -64.5 63.5 -91.5s59.833 -49.667 103.5 -68s92.834 -27.5 147.501 -27.5c63.333 0 124.5 15.333 183.5 46s103.5 71.334 133.5 122.001l90 -76c-90.667 -135.333 -227 -203 -409 -203c-143.333 0 -259 46.5 -347 139.5s-132 213.167 -132 360.5z
M232.998 553.002h672.003c0 84 -31.833 156.167 -95.5 216.5s-140.834 90.5 -231.501 90.5c-50.667 0 -96.834 -9.16699 -138.501 -27.5s-74.834 -40.5 -99.501 -66.5s-45.5 -54 -62.5 -84s-28.667 -56 -35 -78s-9.5 -39 -9.5 -51zM311.001 1450h164l213 -295h-102z" />
    <glyph glyph-name="eacute" unicode="&#xe9;" horiz-adv-x="1138" 
d="M111 475c0 142 44.498 260.169 133.498 354.502s202.167 141.5 339.5 141.5c56.667 0 109.167 -8.33301 157.5 -25s89.833 -39.334 124.5 -68.001s64.334 -61.834 89.001 -99.501s43 -77.834 55 -120.501s18 -86 18 -130v-86h-795c0 -23.333 3.16699 -48.833 9.5 -76.5
s18 -58.5 35 -92.5s38.167 -64.5 63.5 -91.5s59.833 -49.667 103.5 -68s92.834 -27.5 147.501 -27.5c63.333 0 124.5 15.333 183.5 46s103.5 71.334 133.5 122.001l90 -76c-90.667 -135.333 -227 -203 -409 -203c-143.333 0 -259 46.5 -347 139.5s-132 213.167 -132 360.5z
M232.998 553.002h672.003c0 84 -31.833 156.167 -95.5 216.5s-140.834 90.5 -231.501 90.5c-50.667 0 -96.834 -9.16699 -138.501 -27.5s-74.834 -40.5 -99.501 -66.5s-45.5 -54 -62.5 -84s-28.667 -56 -35 -78s-9.5 -39 -9.5 -51zM451.001 1155l213 295h163l-274 -295h-102
z" />
    <glyph glyph-name="ecircumflex" unicode="&#xea;" horiz-adv-x="1138" 
d="M111 475c0 142 44.498 260.169 133.498 354.502s202.167 141.5 339.5 141.5c56.667 0 109.167 -8.33301 157.5 -25s89.833 -39.334 124.5 -68.001s64.334 -61.834 89.001 -99.501s43 -77.834 55 -120.501s18 -86 18 -130v-86h-795c0 -23.333 3.16699 -48.833 9.5 -76.5
s18 -58.5 35 -92.5s38.167 -64.5 63.5 -91.5s59.833 -49.667 103.5 -68s92.834 -27.5 147.501 -27.5c63.333 0 124.5 15.333 183.5 46s103.5 71.334 133.5 122.001l90 -76c-90.667 -135.333 -227 -203 -409 -203c-143.333 0 -259 46.5 -347 139.5s-132 213.167 -132 360.5z
M232.998 553.002h672.003c0 84 -31.833 156.167 -95.5 216.5s-140.834 90.5 -231.501 90.5c-50.667 0 -96.834 -9.16699 -138.501 -27.5s-74.834 -40.5 -99.501 -66.5s-45.5 -54 -62.5 -84s-28.667 -56 -35 -78s-9.5 -39 -9.5 -51zM276.001 1155l222 295h143l221 -295h-133
l-166 221l-166 -221h-121z" />
    <glyph glyph-name="edieresis" unicode="&#xeb;" horiz-adv-x="1138" 
d="M111 475c0 142 44.498 260.169 133.498 354.502s202.167 141.5 339.5 141.5c56.667 0 109.167 -8.33301 157.5 -25s89.833 -39.334 124.5 -68.001s64.334 -61.834 89.001 -99.501s43 -77.834 55 -120.501s18 -86 18 -130v-86h-795c0 -23.333 3.16699 -48.833 9.5 -76.5
s18 -58.5 35 -92.5s38.167 -64.5 63.5 -91.5s59.833 -49.667 103.5 -68s92.834 -27.5 147.501 -27.5c63.333 0 124.5 15.333 183.5 46s103.5 71.334 133.5 122.001l90 -76c-90.667 -135.333 -227 -203 -409 -203c-143.333 0 -259 46.5 -347 139.5s-132 213.167 -132 360.5z
M232.998 553.002h672.003c0 84 -31.833 156.167 -95.5 216.5s-140.834 90.5 -231.501 90.5c-50.667 0 -96.834 -9.16699 -138.501 -27.5s-74.834 -40.5 -99.501 -66.5s-45.5 -54 -62.5 -84s-28.667 -56 -35 -78s-9.5 -39 -9.5 -51zM276.001 1335
c0 27.333 9.66699 50.666 29 69.999s42.666 29 69.999 29s50.5 -9.66699 69.5 -29s28.5 -42.666 28.5 -69.999s-9.5 -50.5 -28.5 -69.5s-42.167 -28.5 -69.5 -28.5s-50.666 9.5 -69.999 28.5s-29 42.167 -29 69.5zM666.001 1335c0 27.333 9.5 50.666 28.5 69.999
s42.167 29 69.5 29s50.5 -9.66699 69.5 -29s28.5 -42.666 28.5 -69.999s-9.5 -50.5 -28.5 -69.5s-42.167 -28.5 -69.5 -28.5s-50.5 9.5 -69.5 28.5s-28.5 42.167 -28.5 69.5z" />
    <glyph glyph-name="igrave" unicode="&#xec;" horiz-adv-x="491" 
d="M-12 1450h164l213 -295h-103zM184 0v946h123v-946h-123z" />
    <glyph glyph-name="iacute" unicode="&#xed;" horiz-adv-x="491" 
d="M127 1155l213 295h164l-275 -295h-102zM184 0v946h123v-946h-123z" />
    <glyph glyph-name="icircumflex" unicode="&#xee;" horiz-adv-x="491" 
d="M-47 1155l221 295h143l222 -295h-133l-166 221l-166 -221h-121zM184 0v946h123v-946h-123z" />
    <glyph glyph-name="idieresis" unicode="&#xef;" horiz-adv-x="491" 
d="M-47 1335c0 27.333 9.5 50.666 28.5 69.999s42.167 29 69.5 29s50.666 -9.66699 69.999 -29s29 -42.666 29 -69.999s-9.66699 -50.5 -29 -69.5s-42.666 -28.5 -69.999 -28.5s-50.5 9.5 -69.5 28.5s-28.5 42.167 -28.5 69.5zM184 0v946h123v-946h-123zM342 1335
c0 27.333 9.5 50.666 28.5 69.999s42.167 29 69.5 29s50.666 -9.66699 69.999 -29s29 -42.666 29 -69.999s-9.66699 -50.5 -29 -69.5s-42.666 -28.5 -69.999 -28.5s-50.5 9.5 -69.5 28.5s-28.5 42.167 -28.5 69.5z" />
    <glyph glyph-name="eth" unicode="&#xf0;" horiz-adv-x="1216" 
d="M111 473c0 144.667 46.498 263.832 139.498 357.499s212.167 140.5 357.5 140.5c120.667 0 222.334 -37.667 305.001 -113l5 4c-96 170.667 -206 312 -330 424l-219 -117l-64 68l213 115c-73.333 66 -137.333 119 -192 159l106 62c78.667 -58 143.667 -112.667 195 -164
l213 115l73 -62l-217 -116c273.333 -250.667 410 -524.667 410 -822c0 -168 -46.167 -301.5 -138.5 -400.5s-212.166 -148.5 -359.499 -148.5c-145.333 0 -264.5 46.833 -357.5 140.5s-139.5 212.834 -139.5 357.501zM232.998 472.998
c0 -109.333 34.333 -201.166 103 -275.499s159.334 -111.5 272.001 -111.5s203.334 37.167 272.001 111.5s103 166.166 103 275.499s-34.333 201.166 -103 275.499s-159.334 111.5 -272.001 111.5s-203.334 -37.167 -272.001 -111.5s-103 -166.166 -103 -275.499z" />
    <glyph glyph-name="ntilde" unicode="&#xf1;" horiz-adv-x="1138" 
d="M154 946h122c2.66699 -96 5.66699 -151.333 9 -166h6c26 54.667 67.833 100.167 125.5 136.5s123.5 54.5 197.5 54.5c240.667 0 361 -136 361 -408v-563h-123v557c0 202 -79.333 303 -238 303c-96 0 -174.5 -33.333 -235.5 -100s-91.5 -162.334 -91.5 -287.001v-473h-123
v680c0 25.333 -1.66699 72.333 -5 141s-5 110.334 -5 125.001zM250 1190c7.33301 55.333 25.665 101.667 54.998 139c35.333 46.667 78.333 70 129 70c38.667 0 90 -17 154 -51c2 -0.666992 7 -3.16699 15 -7.5s13.167 -7 15.5 -8s7 -3.33301 14 -7s12 -6 15 -7
s7.66699 -2.83301 14 -5.5s11.333 -4.5 15 -5.5s8.16699 -2.33301 13.5 -4s10.166 -2.66699 14.499 -3s8.5 -0.5 12.5 -0.5c27.333 0 49 9.5 65 28.5s27 42.5 33 70.5h74c-6.66699 -57.333 -24.5 -106.5 -53.5 -147.5s-68.5 -61.5 -118.5 -61.5
c-33.333 0 -84.666 16.333 -153.999 49l-28 13.5l-29.5 14c-6.33301 3 -14.666 6.5 -24.999 10.5s-19.666 6.83301 -27.999 8.5s-16.5 2.5 -24.5 2.5c-53.333 0 -88 -32.667 -104 -98h-74z" />
    <glyph glyph-name="ograve" unicode="&#xf2;" horiz-adv-x="1216" 
d="M111 473c0 144.667 46.5 263.834 139.5 357.501s212.167 140.5 357.5 140.5s264.666 -46.833 357.999 -140.5s140 -212.834 140 -357.501s-46.667 -263.834 -140 -357.501s-212.666 -140.5 -357.999 -140.5s-264.5 46.833 -357.5 140.5s-139.5 212.834 -139.5 357.501z
M233 473c0 -109.333 34.333 -201.166 103 -275.499s159.334 -111.5 272.001 -111.5s203.334 37.167 272.001 111.5s103 166.166 103 275.499s-34.333 201.166 -103 275.499s-159.334 111.5 -272.001 111.5s-203.334 -37.167 -272.001 -111.5s-103 -166.166 -103 -275.499z
M350 1450h164l213 -295h-102z" />
    <glyph glyph-name="oacute" unicode="&#xf3;" horiz-adv-x="1216" 
d="M111 473c0 144.667 46.5 263.834 139.5 357.501s212.167 140.5 357.5 140.5s264.666 -46.833 357.999 -140.5s140 -212.834 140 -357.501s-46.667 -263.834 -140 -357.501s-212.666 -140.5 -357.999 -140.5s-264.5 46.833 -357.5 140.5s-139.5 212.834 -139.5 357.501z
M233 473c0 -109.333 34.333 -201.166 103 -275.499s159.334 -111.5 272.001 -111.5s203.334 37.167 272.001 111.5s103 166.166 103 275.499s-34.333 201.166 -103 275.499s-159.334 111.5 -272.001 111.5s-203.334 -37.167 -272.001 -111.5s-103 -166.166 -103 -275.499z
M489 1155l213 295h164l-274 -295h-103z" />
    <glyph glyph-name="ocircumflex" unicode="&#xf4;" horiz-adv-x="1216" 
d="M111 473c0 144.667 46.5 263.834 139.5 357.501s212.167 140.5 357.5 140.5s264.666 -46.833 357.999 -140.5s140 -212.834 140 -357.501s-46.667 -263.834 -140 -357.501s-212.666 -140.5 -357.999 -140.5s-264.5 46.833 -357.5 140.5s-139.5 212.834 -139.5 357.501z
M233 473c0 -109.333 34.333 -201.166 103 -275.499s159.334 -111.5 272.001 -111.5s203.334 37.167 272.001 111.5s103 166.166 103 275.499s-34.333 201.166 -103 275.499s-159.334 111.5 -272.001 111.5s-203.334 -37.167 -272.001 -111.5s-103 -166.166 -103 -275.499z
M315 1155l222 295h143l221 -295h-133l-166 221l-166 -221h-121z" />
    <glyph glyph-name="otilde" unicode="&#xf5;" horiz-adv-x="1216" 
d="M111 473c0 144.667 46.5 263.834 139.5 357.501s212.167 140.5 357.5 140.5s264.666 -46.833 357.999 -140.5s140 -212.834 140 -357.501s-46.667 -263.834 -140 -357.501s-212.666 -140.5 -357.999 -140.5s-264.5 46.833 -357.5 140.5s-139.5 212.834 -139.5 357.501z
M233 473c0 -109.333 34.333 -201.166 103 -275.499s159.334 -111.5 272.001 -111.5s203.334 37.167 272.001 111.5s103 166.166 103 275.499s-34.333 201.166 -103 275.499s-159.334 111.5 -272.001 111.5s-203.334 -37.167 -272.001 -111.5s-103 -166.166 -103 -275.499z
M289 1190c7.33301 55.333 25.665 101.667 54.998 139c35.333 46.667 78.333 70 129 70c38.667 0 90 -17 154 -51c2 -0.666992 7 -3.16699 15 -7.5s13.167 -7 15.5 -8s7 -3.33301 14 -7s12 -6 15 -7s7.66699 -2.83301 14 -5.5s11.333 -4.5 15 -5.5s8.16699 -2.33301 13.5 -4
s10.166 -2.66699 14.499 -3s8.5 -0.5 12.5 -0.5c27.333 0 49 9.5 65 28.5s27 42.5 33 70.5h74c-6.66699 -57.333 -24.5 -106.5 -53.5 -147.5s-68.5 -61.5 -118.5 -61.5c-33.333 0 -84.666 16.333 -153.999 49l-28 13.5l-29.5 14c-6.33301 3 -14.666 6.5 -24.999 10.5
s-19.666 6.83301 -27.999 8.5s-16.5 2.5 -24.5 2.5c-54 0 -89 -32.667 -105 -98h-73z" />
    <glyph glyph-name="odieresis" unicode="&#xf6;" horiz-adv-x="1216" 
d="M111 473c0 144.667 46.5 263.834 139.5 357.501s212.167 140.5 357.5 140.5s264.666 -46.833 357.999 -140.5s140 -212.834 140 -357.501s-46.667 -263.834 -140 -357.501s-212.666 -140.5 -357.999 -140.5s-264.5 46.833 -357.5 140.5s-139.5 212.834 -139.5 357.501z
M233 473c0 -109.333 34.333 -201.166 103 -275.499s159.334 -111.5 272.001 -111.5s203.334 37.167 272.001 111.5s103 166.166 103 275.499s-34.333 201.166 -103 275.499s-159.334 111.5 -272.001 111.5s-203.334 -37.167 -272.001 -111.5s-103 -166.166 -103 -275.499z
M315 1335c0 27.333 9.66699 50.666 29 69.999s42.666 29 69.999 29s50.5 -9.66699 69.5 -29s28.5 -42.666 28.5 -69.999s-9.5 -50.5 -28.5 -69.5s-42.167 -28.5 -69.5 -28.5s-50.666 9.5 -69.999 28.5s-29 42.167 -29 69.5zM705 1335c0 27.333 9.5 50.666 28.5 69.999
s42.167 29 69.5 29s50.5 -9.66699 69.5 -29s28.5 -42.666 28.5 -69.999s-9.5 -50.5 -28.5 -69.5s-42.167 -28.5 -69.5 -28.5s-50.5 9.5 -69.5 28.5s-28.5 42.167 -28.5 69.5z" />
    <glyph glyph-name="divide" unicode="&#xf7;" horiz-adv-x="1363" 
d="M160 571v99h1044v-99h-1044zM578 305c0 29.333 10.167 53.834 30.5 73.501s44.833 30.167 73.5 31.5c28.667 0 53.167 -10.333 73.5 -31s30.5 -45.334 30.5 -74.001s-10.167 -53.167 -30.5 -73.5s-44.833 -30.5 -73.5 -30.5s-53.167 10.167 -73.5 30.5
s-30.5 44.833 -30.5 73.5zM578 936.001c0 28.667 10.167 53.167 30.5 73.5s44.833 30.5 73.5 30.5s53.167 -10.167 73.5 -30.5s30.5 -44.833 30.5 -73.5s-10.167 -53.334 -30.5 -74.001s-44.833 -31 -73.5 -31s-53.167 10.333 -73.5 31s-30.5 45.334 -30.5 74.001z" />
    <glyph glyph-name="oslash" unicode="&#xf8;" horiz-adv-x="1216" 
d="M80 4l143 145.998c-74.667 86.667 -112 194.334 -112 323.001c0 144.667 46.5 263.834 139.5 357.501s212.167 140.5 357.5 140.5c124.667 0 232 -36.333 322 -109l141 144l66 -60l-146 -145c76.667 -87.333 115 -196.666 115 -327.999
c0 -144.667 -46.667 -263.834 -140 -357.501s-212.666 -140.5 -357.999 -140.5c-128.667 0 -236.334 37 -323.001 111l-140 -141zM233 472.998c0 -94.667 24.667 -173.668 74 -237.001l539 542c-65.333 54.667 -144.666 82 -237.999 82
c-112.667 0 -203.334 -37.167 -272.001 -111.5s-103 -166.166 -103 -275.499zM369 169.997c62.667 -56 142.332 -83.999 238.999 -83.999c112.667 0 203.334 37.167 272.001 111.5s103 166.166 103 275.499c0 98 -25.333 178.667 -76 242z" />
    <glyph glyph-name="ugrave" unicode="&#xf9;" horiz-adv-x="1138" 
d="M154 383l0.000976562 563.001h122v-557c0 -202 79.333 -303 238 -303c96 0 174.667 33.333 236 100s92 162.334 92 287.001v473h123v-680c0 -25.333 1.66699 -72.333 5 -141s5 -110.334 5 -125.001h-123c-2.66699 99.333 -5.33398 154.666 -8.00098 165.999h-6
c-26 -54.667 -68 -100.167 -126 -136.5s-124 -54.5 -198 -54.5c-57.333 0 -107.5 7.66699 -150.5 23s-77.667 35.5 -104 60.5s-47.5 55.667 -63.5 92s-27 73 -33 110s-9 77.833 -9 122.5zM311.001 1450h164l213 -295h-102z" />
    <glyph glyph-name="uacute" unicode="&#xfa;" horiz-adv-x="1138" 
d="M154 383l0.000976562 563.001h122v-557c0 -202 79.333 -303 238 -303c96 0 174.667 33.333 236 100s92 162.334 92 287.001v473h123v-680c0 -25.333 1.66699 -72.333 5 -141s5 -110.334 5 -125.001h-123c-2.66699 99.333 -5.33398 154.666 -8.00098 165.999h-6
c-26 -54.667 -68 -100.167 -126 -136.5s-124 -54.5 -198 -54.5c-57.333 0 -107.5 7.66699 -150.5 23s-77.667 35.5 -104 60.5s-47.5 55.667 -63.5 92s-27 73 -33 110s-9 77.833 -9 122.5zM451.001 1155l213 295h163l-274 -295h-102z" />
    <glyph glyph-name="ucircumflex" unicode="&#xfb;" horiz-adv-x="1138" 
d="M154 383l0.000976562 563.001h122v-557c0 -202 79.333 -303 238 -303c96 0 174.667 33.333 236 100s92 162.334 92 287.001v473h123v-680c0 -25.333 1.66699 -72.333 5 -141s5 -110.334 5 -125.001h-123c-2.66699 99.333 -5.33398 154.666 -8.00098 165.999h-6
c-26 -54.667 -68 -100.167 -126 -136.5s-124 -54.5 -198 -54.5c-57.333 0 -107.5 7.66699 -150.5 23s-77.667 35.5 -104 60.5s-47.5 55.667 -63.5 92s-27 73 -33 110s-9 77.833 -9 122.5zM276.001 1155l222 295h143l221 -295h-133l-166 221l-166 -221h-121z" />
    <glyph glyph-name="udieresis" unicode="&#xfc;" horiz-adv-x="1138" 
d="M154 383l0.000976562 563.001h122v-557c0 -202 79.333 -303 238 -303c96 0 174.667 33.333 236 100s92 162.334 92 287.001v473h123v-680c0 -25.333 1.66699 -72.333 5 -141s5 -110.334 5 -125.001h-123c-2.66699 99.333 -5.33398 154.666 -8.00098 165.999h-6
c-26 -54.667 -68 -100.167 -126 -136.5s-124 -54.5 -198 -54.5c-57.333 0 -107.5 7.66699 -150.5 23s-77.667 35.5 -104 60.5s-47.5 55.667 -63.5 92s-27 73 -33 110s-9 77.833 -9 122.5zM276.001 1335c0 27.333 9.66699 50.666 29 69.999s42.666 29 69.999 29
s50.5 -9.66699 69.5 -29s28.5 -42.666 28.5 -69.999s-9.5 -50.5 -28.5 -69.5s-42.167 -28.5 -69.5 -28.5s-50.666 9.5 -69.999 28.5s-29 42.167 -29 69.5zM666.001 1335c0 27.333 9.5 50.666 28.5 69.999s42.167 29 69.5 29s50.5 -9.66699 69.5 -29
s28.5 -42.666 28.5 -69.999s-9.5 -50.5 -28.5 -69.5s-42.167 -28.5 -69.5 -28.5s-50.5 9.5 -69.5 28.5s-28.5 42.167 -28.5 69.5z" />
    <glyph glyph-name="yacute" unicode="&#xfd;" horiz-adv-x="948" 
d="M31 946l137.001 0.000976562l313 -796l305 796h132l-488 -1239c-51.333 -132.667 -138 -199 -260 -199c-31.333 0 -71.666 6.33301 -120.999 19l12 115c53.333 -15.333 90.333 -23 111 -23c21.333 0 40.666 4.33301 57.999 13s32.166 21.667 44.499 39
s22.5 33.666 30.5 48.999s16.333 34.333 25 57l86 219zM356.001 1155l213 295h164l-274 -295h-103z" />
    <glyph glyph-name="thorn" unicode="&#xfe;" horiz-adv-x="1251" 
d="M137 -467v2015h123v-768h4c36 62 89.167 109.333 159.5 142s143.5 49 219.5 49c145.333 0 264.666 -46.833 357.999 -140.5s140 -212.834 140 -357.501s-46.667 -263.834 -140 -357.501s-212.666 -140.5 -357.999 -140.5c-76 0 -149.167 16.333 -219.5 49
s-123.5 80 -159.5 142h-4v-633h-123zM248 473.002c0 -107.333 38.167 -198.666 114.5 -273.999s169.833 -113 280.5 -113c112.667 0 203.334 37.167 272.001 111.5s103 166.166 103 275.499s-34.333 201.166 -103 275.499s-159.334 111.5 -272.001 111.5
c-110.667 0 -204.167 -37.667 -280.5 -113s-114.5 -166.666 -114.5 -273.999z" />
    <glyph glyph-name="ydieresis" unicode="&#xff;" horiz-adv-x="948" 
d="M31 946l137.001 0.000976562l313 -796l305 796h132l-488 -1239c-51.333 -132.667 -138 -199 -260 -199c-31.333 0 -71.666 6.33301 -120.999 19l12 115c53.333 -15.333 90.333 -23 111 -23c21.333 0 40.666 4.33301 57.999 13s32.166 21.667 44.499 39
s22.5 33.666 30.5 48.999s16.333 34.333 25 57l86 219zM182.001 1335c0 27.333 9.66699 50.666 29 69.999s42.666 29 69.999 29s50.5 -9.66699 69.5 -29s28.5 -42.666 28.5 -69.999s-9.5 -50.5 -28.5 -69.5s-42.167 -28.5 -69.5 -28.5s-50.666 9.5 -69.999 28.5
s-29 42.167 -29 69.5zM571.001 1335c0 27.333 9.66699 50.666 29 69.999s42.666 29 69.999 29s50.5 -9.66699 69.5 -29s28.5 -42.666 28.5 -69.999s-9.5 -50.5 -28.5 -69.5s-42.167 -28.5 -69.5 -28.5s-50.666 9.5 -69.999 28.5s-29 42.167 -29 69.5z" />
    <glyph glyph-name="OE" unicode="&#x152;" horiz-adv-x="1933" 
d="M121 725c0 93.333 14.333 179.666 43 258.999s68 147.166 118 203.499s108.5 104.5 175.5 144.5s138.833 69.667 215.5 89s156 29 238 29h885v-123h-606v-516h571v-123h-571v-565h622v-123h-966c-96.667 0 -189 17.5 -277 52.5s-165.167 83.333 -231.5 145
s-119 138.334 -158 230.001s-58.5 190.834 -58.5 297.501zM256 725c0 -62.667 7.5 -121.167 22.5 -175.5s35 -101.5 60 -141.5s54.667 -76.333 89 -109s70.5 -59.667 108.5 -81s77.667 -39.333 119 -54s80.833 -25.167 118.5 -31.5s74.167 -9.5 109.5 -9.5h172v1204h-160
c-59.333 0 -118.333 -7.16699 -177 -21.5s-116 -37.5 -172 -69.5s-105.333 -70.833 -148 -116.5s-77 -102.5 -103 -170.5s-39 -142.667 -39 -224z" />
    <glyph glyph-name="oe" unicode="&#x153;" horiz-adv-x="1857" 
d="M90 473c0 144 44.6699 263.002 134.003 357.002s201.666 141 336.999 141c188.667 0 324.667 -78.667 408 -236c12.667 30 29 58.167 49 84.5s44.833 51.333 74.5 75s65.667 42.334 108 56.001s88.5 20.5 138.5 20.5c59.333 0 114 -8.83301 164 -26.5
s95.167 -44.334 135.5 -80.001s71.833 -83.334 94.5 -143.001s34 -128.834 34 -207.501v-72h-729c-4 -102 23 -186.833 81 -254.5s140.333 -101.5 247 -101.5c57.333 0 109.5 13.333 156.5 40s85.5 64 115.5 112l97 -70c-52.667 -69.333 -108.834 -118.833 -168.501 -148.5
s-133.167 -44.5 -220.5 -44.5c-86.667 0 -162.334 19.167 -227.001 57.5s-113.334 97.166 -146.001 176.499h-4c-38.667 -75.333 -93.667 -133.166 -165 -173.499s-152.333 -60.5 -243 -60.5c-135.333 0 -247.666 47 -336.999 141s-134 213 -134 357zM213.003 473.002
c0 -106 32.5 -197 97.5 -273s149.833 -114 254.5 -114c106 0 190.833 37 254.5 111s95.5 166 95.5 276s-31.833 202 -95.5 276s-148.5 111 -254.5 111c-104.667 0 -189.5 -38 -254.5 -114s-97.5 -167 -97.5 -273zM1038 553.002h606.998
c-1.33301 90.667 -27.166 164.5 -77.499 221.5s-125.166 85.5 -224.499 85.5c-91.333 0 -165 -29.5 -221 -88.5s-84 -131.833 -84 -218.5z" />
    <glyph glyph-name="Ydieresis" unicode="&#x178;" horiz-adv-x="1175" 
d="M-12 1450h162l438 -688l448 688h152l-533 -825v-625h-135v625zM295 1720c0 27.333 9.5 50.666 28.5 69.999s42.167 29 69.5 29s50.666 -9.66699 69.999 -29s29 -42.666 29 -69.999s-9.66699 -50.5 -29 -69.5s-42.666 -28.5 -69.999 -28.5s-50.5 9.5 -69.5 28.5
s-28.5 42.167 -28.5 69.5zM684 1720c0 27.333 9.5 50.666 28.5 69.999s42.167 29 69.5 29s50.666 -9.66699 69.999 -29s29 -42.666 29 -69.999s-9.66699 -50.5 -29 -69.5s-42.666 -28.5 -69.999 -28.5s-50.5 9.5 -69.5 28.5s-28.5 42.167 -28.5 69.5z" />
    <glyph glyph-name="circumflex" unicode="&#x2c6;" horiz-adv-x="491" 
d="M-47 1155l221 295h143l222 -295h-133l-166 221l-166 -221h-121z" />
    <glyph glyph-name="tilde" unicode="&#x2dc;" horiz-adv-x="491" 
d="M-74 1190c6.66699 54.667 25.3359 100.997 56.0029 138.997c35.333 46.667 78.333 70 129 70c38 0 89 -17 153 -51c2 -0.666992 7 -3.16699 15 -7.5s13.167 -7 15.5 -8s7 -3.33301 14 -7s12 -6 15 -7s7.66699 -2.83301 14 -5.5s11.333 -4.5 15 -5.5
s8.16699 -2.33301 13.5 -4s10.166 -2.66699 14.499 -3s8.5 -0.5 12.5 -0.5c27.333 0 49.166 9.5 65.499 28.5s27.5 42.5 33.5 70.5h73c-6.66699 -57.333 -24.5 -106.5 -53.5 -147.5s-68.5 -61.5 -118.5 -61.5c-5.33301 0 -10.833 0.333008 -16.5 1
s-10.667 1.33398 -15 2.00098s-9.66602 1.83398 -15.999 3.50098l-15 4c-3.66699 1 -9 2.83301 -16 5.5l-14.5 5.5c-2.66699 1 -8 3.33301 -16 7s-12.833 5.83398 -14.5 6.50098s-6.83398 3 -15.501 7s-13.334 6.33301 -14.001 7l-27.5 13.5
c-14.333 7 -24.5 11.833 -30.5 14.5s-14.5 6 -25.5 10s-20.5 6.83301 -28.5 8.5s-16 2.5 -24 2.5c-53.333 0 -88 -32.667 -104 -98h-74z" />
    <glyph glyph-name="uni2000" unicode="&#x2000;" horiz-adv-x="954" 
 />
    <glyph glyph-name="uni2001" unicode="&#x2001;" horiz-adv-x="1909" 
 />
    <glyph glyph-name="uni2002" unicode="&#x2002;" horiz-adv-x="954" 
 />
    <glyph glyph-name="uni2003" unicode="&#x2003;" horiz-adv-x="1909" 
 />
    <glyph glyph-name="uni2004" unicode="&#x2004;" horiz-adv-x="636" 
 />
    <glyph glyph-name="uni2005" unicode="&#x2005;" horiz-adv-x="477" 
 />
    <glyph glyph-name="uni2006" unicode="&#x2006;" horiz-adv-x="318" 
 />
    <glyph glyph-name="uni2007" unicode="&#x2007;" horiz-adv-x="318" 
 />
    <glyph glyph-name="uni2008" unicode="&#x2008;" horiz-adv-x="238" 
 />
    <glyph glyph-name="uni2009" unicode="&#x2009;" horiz-adv-x="381" 
 />
    <glyph glyph-name="uni200A" unicode="&#x200a;" horiz-adv-x="106" 
 />
    <glyph glyph-name="uni2010" unicode="&#x2010;" horiz-adv-x="681" 
d="M88 430v111h506v-111h-506z" />
    <glyph glyph-name="uni2011" unicode="&#x2011;" horiz-adv-x="681" 
d="M88 430v111h506v-111h-506z" />
    <glyph glyph-name="figuredash" unicode="&#x2012;" horiz-adv-x="681" 
d="M88 430v111h506v-111h-506z" />
    <glyph glyph-name="endash" unicode="&#x2013;" horiz-adv-x="1024" 
d="M0 430v111h1024v-111h-1024z" />
    <glyph glyph-name="emdash" unicode="&#x2014;" horiz-adv-x="2048" 
d="M0 430v111h2048v-111h-2048z" />
    <glyph glyph-name="quoteleft" unicode="&#x2018;" horiz-adv-x="532" 
d="M127 983l156 467h123l-132 -467h-147z" />
    <glyph glyph-name="quoteright" unicode="&#x2019;" horiz-adv-x="532" 
d="M127 983l129 467h150l-158 -467h-121z" />
    <glyph glyph-name="quotesinglbase" unicode="&#x201a;" horiz-adv-x="532" 
d="M127 -283l129 467h150l-158 -467h-121z" />
    <glyph glyph-name="quotedblleft" unicode="&#x201c;" 
d="M215 983l158 467h121l-129 -467h-150zM571 983l158 467h121l-129 -467h-150z" />
    <glyph glyph-name="quotedblright" unicode="&#x201d;" 
d="M215 983l129 467h150l-158 -467h-121zM571 983l129 467h150l-158 -467h-121z" />
    <glyph glyph-name="quotedblbase" unicode="&#x201e;" 
d="M215 -283l129 467h150l-158 -467h-121zM571 -283l129 467h150l-158 -467h-121z" />
    <glyph glyph-name="bullet" unicode="&#x2022;" horiz-adv-x="1024" 
d="M150 725c0 100.667 35.167 186.167 105.5 256.5s155.833 105.5 256.5 105.5s186.167 -35.167 256.5 -105.5s105.5 -155.833 105.5 -256.5s-35.167 -186.334 -105.5 -257.001s-155.833 -106 -256.5 -106s-186.167 35.333 -256.5 106s-105.5 156.334 -105.5 257.001z" />
    <glyph glyph-name="ellipsis" unicode="&#x2026;" horiz-adv-x="2048" 
d="M244 86c0 27.333 9.5 50.5 28.5 69.5s42.167 28.5 69.5 28.5s50.5 -9.5 69.5 -28.5s28.5 -42.167 28.5 -69.5s-9.5 -50.5 -28.5 -69.5s-42.167 -28.5 -69.5 -28.5s-50.5 9.5 -69.5 28.5s-28.5 42.167 -28.5 69.5zM926 86c0 27.333 9.5 50.5 28.5 69.5
s42.167 28.5 69.5 28.5s50.5 -9.5 69.5 -28.5s28.5 -42.167 28.5 -69.5s-9.5 -50.5 -28.5 -69.5s-42.167 -28.5 -69.5 -28.5s-50.5 9.5 -69.5 28.5s-28.5 42.167 -28.5 69.5zM1608 86c0 27.333 9.5 50.5 28.5 69.5s42.167 28.5 69.5 28.5s50.5 -9.5 69.5 -28.5
s28.5 -42.167 28.5 -69.5s-9.5 -50.5 -28.5 -69.5s-42.167 -28.5 -69.5 -28.5s-50.5 9.5 -69.5 28.5s-28.5 42.167 -28.5 69.5z" />
    <glyph glyph-name="uni202F" unicode="&#x202f;" horiz-adv-x="381" 
 />
    <glyph glyph-name="guilsinglleft" unicode="&#x2039;" horiz-adv-x="645" 
d="M129 485l281 416l86 -59l-238 -357l242 -360l-90 -55z" />
    <glyph glyph-name="guilsinglright" unicode="&#x203a;" horiz-adv-x="645" 
d="M145 846l91 55l280 -416l-280 -415l-86 59l237 356z" />
    <glyph glyph-name="uni205F" unicode="&#x205f;" horiz-adv-x="477" 
 />
    <glyph glyph-name="trademark" unicode="&#x2122;" horiz-adv-x="2027" 
d="M172 1352v98h655v-98h-272v-746h-111v746h-272zM979 606v844h176l266 -672l265 672h169v-844h-110v740h-4l-291 -740h-66l-290 740h-4v-740h-111z" />
    <glyph glyph-name="uni25FC" unicode="&#x25fc;" horiz-adv-x="942" 
d="M0 0v942h942v-942h-942z" />
    <glyph glyph-name="uniFB01" unicode="&#xfb01;" horiz-adv-x="1062" 
d="M37 836v110h196v309c0 46.667 6 88.834 18 126.501s27.5 68.167 46.5 91.5s41.167 42.666 66.5 57.999s50.5 26.166 75.5 32.499s50.5 9.5 76.5 9.5c55.333 0 102.333 -8.33301 141 -25l-24 -106c-27.333 13.333 -64.333 20 -111 20c-56.667 0 -98.5 -20.667 -125.5 -62
s-40.5 -104.666 -40.5 -189.999v-264h222v-110h-222v-836h-123v836h-196zM725 1321c0 25.333 9 47 27 65s39.667 27 65 27s47 -9 65 -27s27 -39.667 27 -65s-9 -47 -27 -65s-39.667 -27 -65 -27s-47 9 -65 27s-27 39.667 -27 65zM756 0v946h123v-946h-123z" />
    <glyph glyph-name="uniFB02" unicode="&#xfb02;" horiz-adv-x="1062" 
d="M37 836v110h196v309c0 46.667 6 88.834 18 126.501s27.5 68.167 46.5 91.5s41.167 42.666 66.5 57.999s50.5 26.166 75.5 32.499s50.5 9.5 76.5 9.5c55.333 0 102.333 -8.33301 141 -25l-24 -106c-27.333 13.333 -64.333 20 -111 20c-56.667 0 -98.5 -20.667 -125.5 -62
s-40.5 -104.666 -40.5 -189.999v-264h222v-110h-222v-836h-123v836h-196zM756 0v1548h123v-1548h-123z" />
    <glyph glyph-name="glyph1" horiz-adv-x="0" 
 />
    <glyph glyph-name="glyph2" horiz-adv-x="682" 
 />
    </font>
</defs>
</svg>
