<?xml version="1.0" encoding="utf-8"?>
<!-- Generator: Adobe Illustrator 22.0.1, SVG Export Plug-In . SVG Version: 6.00 Build 0)  -->
<svg version="1.1" id="Layer_1" xmlns="http://www.w3.org/2000/svg" xmlns:xlink="http://www.w3.org/1999/xlink" x="0px" y="0px"
	 viewBox="0 0 55.8 55.8" style="enable-background:new 0 0 55.8 55.8;" xml:space="preserve">
<style type="text/css">
	.st0{clip-path:url(#SVGID_2_);fill:#FFFFFF;}
</style>
<g>
	<defs>
		<rect id="SVGID_1_" y="0" width="55.8" height="55.8"/>
	</defs>
	<clipPath id="SVGID_2_">
		<use xlink:href="#SVGID_1_"  style="overflow:visible;"/>
	</clipPath>
	<path class="st0" d="M47.7,8.2C42.4,2.9,35.4,0,27.9,0S13.5,2.9,8.2,8.2C2.9,13.5,0,20.5,0,27.9c0,7.5,2.9,14.5,8.2,19.7
		c5.3,5.3,12.3,8.2,19.7,8.2s14.5-2.9,19.7-8.2c5.3-5.3,8.2-12.3,8.2-19.7C55.8,20.5,52.9,13.5,47.7,8.2 M35.9,29.2L24.7,40.4
		c-0.3,0.3-0.8,0.5-1.2,0.5c-0.4,0-0.9-0.2-1.2-0.5c-0.7-0.7-0.7-1.8,0-2.5l10-10l-10-10c-0.7-0.7-0.7-1.8,0-2.5
		c0.7-0.7,1.8-0.7,2.5,0l11.2,11.2c0.3,0.3,0.5,0.8,0.5,1.2C36.5,28.4,36.3,28.9,35.9,29.2"/>
</g>
</svg>
