<?xml version="1.0" encoding="utf-8"?>
<!-- Generator: Adobe Illustrator 22.0.1, SVG Export Plug-In . SVG Version: 6.00 Build 0)  -->
<svg version="1.1" id="Layer_1" xmlns="http://www.w3.org/2000/svg" xmlns:xlink="http://www.w3.org/1999/xlink" x="0px" y="0px" width="40"
	 viewBox="0 0 64.5 55.3" style="enable-background:new 0 0 64.5 55.3;" xml:space="preserve">
<style type="text/css">
	.st0{clip-path:url(#SVGID_2_);fill:#FFFFFF;}
</style>
<g>
	<defs>
		<rect id="SVGID_1_" y="0" width="64.5" height="55.3"/>
	</defs>
	<clipPath id="SVGID_2_">
		<use xlink:href="#SVGID_1_"  style="overflow:visible;"/>
	</clipPath>
	<path class="st0" d="M63.3,31.1L32.3,0L1.2,31.1c-1.6,1.6-1.6,4.1,0,5.7c1.6,1.6,4.1,1.6,5.7,0l1.2-1.2v19.7h48.4V35.6l1.2,1.2
		c0.8,0.8,1.8,1.2,2.9,1.2c1,0,2.1-0.4,2.9-1.2C64.9,35.2,64.9,32.6,63.3,31.1 M52.4,51.2H40.3V35.1H24.2v16.1H12.1V31.6l20.2-20.2
		l20.2,20.2V51.2z"/>
</g>
</svg>
