<?xml version="1.0" encoding="utf-8"?>
<!-- Generator: Adobe Illustrator 22.0.1, SVG Export Plug-In . SVG Version: 6.00 Build 0)  -->
<svg version="1.1" id="Layer_1" xmlns="http://www.w3.org/2000/svg" xmlns:xlink="http://www.w3.org/1999/xlink" x="0px" y="0px" width="64px"
	 viewBox="0 0 162 162" style="enable-background:new 0 0 162 162;" xml:space="preserve">
<style type="text/css">
	.st0{fill:#95BF4D;}
</style>
<g>
	<path class="st0" d="M81,162c-44.7,0-81-36.3-81-81S36.3,0,81,0c44.7,0,81,36.3,81,81S125.7,162,81,162z M81,14.9
		c-36.4,0-66.1,29.6-66.1,66.1c0,36.4,29.6,66.1,66.1,66.1s66.1-29.6,66.1-66.1C147.1,44.6,117.4,14.9,81,14.9z"/>
	<path class="st0" d="M113.7,66.4H48.1c-3.6,0-6.6-3-6.6-6.6v0c0-3.6,3-6.6,6.6-6.6h65.6c3.6,0,6.6,3,6.6,6.6v0
		C120.3,63.4,117.4,66.4,113.7,66.4z"/>
	<path class="st0" d="M113.7,87.6H48.1c-3.6,0-6.6-3-6.6-6.6v0c0-3.6,3-6.6,6.6-6.6h65.6c3.6,0,6.6,3,6.6,6.6v0
		C120.3,84.6,117.4,87.6,113.7,87.6z"/>
	<path class="st0" d="M113.7,108.8H48.1c-3.6,0-6.6-3-6.6-6.6v0c0-3.6,3-6.6,6.6-6.6h65.6c3.6,0,6.6,3,6.6,6.6v0
		C120.3,105.9,117.4,108.8,113.7,108.8z"/>
</g>
</svg>
