<svg id="Layer_1" data-name="Layer 1" xmlns="http://www.w3.org/2000/svg" viewBox="0 0 552.77 504.94"><defs><style>.cls-1{fill:#292929;}</style></defs><title>linkedin</title><path class="cls-1" d="M-109,402.85h71.86a18,18,0,0,0,17.95-18V70.8A18,18,0,0,0-37.19,52.85H-109A18,18,0,0,0-127,70.8V384.9A18,18,0,0,0-109,402.85Z" transform="translate(127 102.08)"/><path class="cls-1" d="M-109-2.37h71.86A18,18,0,0,0-19.24-20.32V-84.13a18,18,0,0,0-17.95-18H-109a18,18,0,0,0-18,18v63.81A18,18,0,0,0-109-2.37Z" transform="translate(127 102.08)"/><path class="cls-1" d="M398.73,89.28q-15.15-19.94-44.68-32.79t-65.2-12.85q-72.4,0-122.7,55.27c-6.67,7.33-11.52,5.73-11.52-4.19V70.8a18,18,0,0,0-18-17.95H72.49A18,18,0,0,0,54.54,70.8V384.9a18,18,0,0,0,17.95,18h71.86a18,18,0,0,0,18-18V275.67q0-68.26,8.24-93.57A77.28,77.28,0,0,1,201,141.44q22.24-15.34,50.24-15.34,21.86,0,37.39,10.74t22.44,30.1q6.91,19.37,6.9,85.33V384.9a18,18,0,0,0,17.95,18h71.86a18,18,0,0,0,17.95-18V207q0-47.17-5.94-72.48A118.71,118.71,0,0,0,398.73,89.28Z" transform="translate(127 102.08)"/></svg>