<?xml version="1.0" encoding="utf-8"?>
<!-- Generator: Adobe Illustrator 22.0.1, SVG Export Plug-In . SVG Version: 6.00 Build 0)  -->
<svg version="1.1" id="Layer_1" xmlns="http://www.w3.org/2000/svg" xmlns:xlink="http://www.w3.org/1999/xlink" x="0px" y="0px" width="230px"
	 viewBox="0 0 142 54" style="enable-background:new 0 0 142 54;" xml:space="preserve">
<style type="text/css">
	.st0{fill-rule:evenodd;clip-rule:evenodd;fill:#231F20;}
	.st1{fill-rule:evenodd;clip-rule:evenodd;fill:#9BCD66;}
	.st2{fill-rule:evenodd;clip-rule:evenodd;fill:#AED584;}
	.st3{fill-rule:evenodd;clip-rule:evenodd;fill:#FFFFFF;}
	.st4{fill-rule:evenodd;clip-rule:evenodd;fill:#C2DEA0;stroke:#FFFFFF;stroke-width:0.5;stroke-miterlimit:2.6131;}
</style>
<g>
	<polygon class="st0" points="0.1,21.6 141.9,21.6 141.9,43.1 0.1,43.1 0.1,21.6 	"/>
	<path class="st1" d="M47.7,20.3L42,15.5l-0.4-4.6h-8c0.2,0.7,0.4,1.4,0.4,2.2c0,4-3.6,7.2-8.1,7.2c-4.4,0-8.1-3.2-8.1-7.2
		c0-0.8,0.1-1.5,0.4-2.2H3.1v42.7h48.6V20.2L47.7,20.3z"/>
	<polygon class="st2" points="29.8,20.3 51.6,20.3 51.6,43.7 29.8,43.7 29.8,20.3 	"/>
	<path class="st0" d="M70.6,22.2L62.7,0.8h5.1l4.2,13.3c0.1,0.3,0.2,0.8,0.4,1.5c0.2,0.7,0.3,1.6,0.5,2.5c0.1-0.9,0.3-1.7,0.4-2.4
		c0.2-0.7,0.3-1.3,0.4-1.8l4.2-13.2h5l-8,21.4H70.6L70.6,22.2z M85.1,22.2V0.8h12.6v3.9h-8v4.4h8V13h-8v5.4h8v3.9H85.1L85.1,22.2z
		 M117.7,22.2h-5.3l-5.6-10v10h-4.6V0.8h6.5c2.6,0,4.5,0.5,5.8,1.5c1.3,1,1.9,2.5,1.9,4.5c0,1.5-0.4,2.7-1.3,3.8
		c-0.9,1-2,1.6-3.4,1.8L117.7,22.2L117.7,22.2z M106.8,10h0.7c1.8,0,3.1-0.2,3.7-0.6c0.6-0.4,0.9-1.1,0.9-2.1c0-1.1-0.3-1.8-1-2.2
		c-0.6-0.4-1.8-0.7-3.6-0.7h-0.7V10L106.8,10z M119,19.5l2.5-2.9c0.3,0.8,0.8,1.4,1.5,1.9c0.7,0.5,1.5,0.7,2.4,0.7
		c1.1,0,1.9-0.3,2.5-0.8c0.6-0.5,0.9-1.2,0.9-2c0-1-1-2-3.1-3c-0.7-0.3-1.2-0.6-1.6-0.8c-1.9-1-3.2-1.9-3.9-2.9
		c-0.7-0.9-1.1-2-1.1-3.3c0-1.8,0.7-3.2,2.1-4.3c1.4-1.1,3.2-1.7,5.4-1.7c1.3,0,2.4,0.2,3.4,0.7c0.9,0.5,1.8,1.2,2.5,2.1l-2.7,2.6
		c-0.3-0.6-0.7-1.1-1.3-1.4c-0.5-0.3-1.2-0.5-1.9-0.5c-0.9,0-1.6,0.2-2.2,0.7c-0.6,0.5-0.8,1-0.8,1.8c0,1.1,1.1,2.2,3.3,3.1
		c0.4,0.2,0.8,0.3,1,0.4c1.8,0.8,3.1,1.8,4,2.8c0.9,1,1.3,2.2,1.3,3.6c0,2-0.7,3.6-2.1,4.8c-1.4,1.2-3.2,1.8-5.5,1.8
		c-1.6,0-3-0.3-4.2-0.8C120.4,21.4,119.5,20.6,119,19.5L119,19.5z"/>
	<path class="st3" d="M61.1,32.2c-0.3-0.2-0.6-0.3-0.9-0.4c-0.3-0.1-0.6-0.1-0.9-0.1c-0.7,0-1.3,0.2-1.7,0.7
		c-0.4,0.5-0.6,1.1-0.6,1.9c0,0.7,0.2,1.3,0.7,1.7c0.4,0.4,1,0.7,1.7,0.7c0.3,0,0.6-0.1,1-0.2c0.3-0.1,0.6-0.3,1-0.5v0.9
		c-0.3,0.2-0.6,0.3-0.9,0.4c-0.3,0.1-0.7,0.1-1.1,0.1c-0.9,0-1.6-0.3-2.2-0.9c-0.6-0.6-0.9-1.3-0.9-2.3c0-1,0.3-1.7,0.9-2.3
		c0.6-0.6,1.4-0.9,2.3-0.9c0.4,0,0.7,0,1,0.1c0.3,0.1,0.6,0.2,0.8,0.3L61.1,32.2L61.1,32.2z M65.4,36.5c0.6,0,1.2-0.2,1.6-0.7
		c0.4-0.5,0.7-1,0.7-1.7c0-0.7-0.2-1.3-0.7-1.7c-0.4-0.5-1-0.7-1.6-0.7c-0.6,0-1.2,0.2-1.6,0.7c-0.4,0.5-0.7,1-0.7,1.7
		c0,0.7,0.2,1.2,0.7,1.7C64.2,36.3,64.7,36.5,65.4,36.5L65.4,36.5z M65.3,37.3c-0.4,0-0.8-0.1-1.2-0.2c-0.4-0.2-0.7-0.4-1-0.7
		c-0.3-0.3-0.5-0.6-0.7-1c-0.2-0.4-0.2-0.8-0.2-1.2c0-0.4,0.1-0.8,0.2-1.2c0.2-0.4,0.4-0.7,0.7-1c0.3-0.3,0.6-0.5,1-0.7
		c0.4-0.2,0.8-0.2,1.2-0.2c0.4,0,0.8,0.1,1.2,0.2c0.4,0.2,0.7,0.4,1,0.7c0.3,0.3,0.5,0.6,0.7,1c0.2,0.4,0.2,0.8,0.2,1.2
		c0,0.4-0.1,0.8-0.2,1.2c-0.2,0.4-0.4,0.7-0.7,1c-0.3,0.3-0.7,0.5-1.1,0.7C66.2,37.2,65.8,37.3,65.3,37.3L65.3,37.3z M70.2,37v-5.8
		H71v0.9c0.2-0.4,0.5-0.7,0.9-0.8c0.3-0.2,0.7-0.3,1.2-0.3c0.7,0,1.2,0.2,1.6,0.6c0.4,0.4,0.6,0.9,0.6,1.5v4h-0.8v-3.6
		c0-0.6-0.1-1-0.4-1.3c-0.2-0.3-0.6-0.4-1.1-0.4c-0.6,0-1.1,0.2-1.4,0.6C71.2,32.6,71,33.2,71,34V37H70.2L70.2,37z M76.6,36l0.8-0.4
		c0.1,0.3,0.3,0.6,0.6,0.7c0.2,0.2,0.5,0.2,0.9,0.2c0.3,0,0.6-0.1,0.8-0.3c0.2-0.2,0.3-0.4,0.3-0.7c0-0.4-0.4-0.8-1.2-1.1
		c-0.1,0-0.2-0.1-0.2-0.1c-0.6-0.2-1-0.5-1.3-0.7c-0.2-0.3-0.4-0.6-0.4-1c0-0.5,0.2-0.9,0.5-1.2c0.4-0.3,0.8-0.5,1.4-0.5
		c0.5,0,0.9,0.1,1.2,0.3c0.3,0.2,0.6,0.5,0.7,0.9L80,32.6c-0.1-0.3-0.2-0.5-0.5-0.6c-0.2-0.1-0.5-0.2-0.8-0.2
		c-0.3,0-0.5,0.1-0.7,0.2c-0.2,0.2-0.3,0.4-0.3,0.6c0,0.2,0.1,0.4,0.3,0.6c0.2,0.2,0.6,0.3,1.1,0.5c0.6,0.2,1.1,0.5,1.3,0.7
		c0.2,0.3,0.3,0.6,0.3,1.1c0,0.5-0.2,1-0.6,1.3c-0.4,0.3-0.9,0.5-1.5,0.5c-0.5,0-0.9-0.1-1.3-0.3C77,36.7,76.7,36.4,76.6,36L76.6,36
		z M83.2,31.2v2.9c0,0.9,0.1,1.5,0.4,1.9c0.3,0.4,0.7,0.5,1.3,0.5c0.6,0,1-0.2,1.3-0.6c0.3-0.4,0.4-1,0.4-1.9v-2.9h0.8v3.3
		c0,0.9-0.2,1.6-0.6,2.1c-0.4,0.5-1,0.7-1.8,0.7c-0.8,0-1.4-0.2-1.9-0.7c-0.4-0.5-0.6-1.2-0.6-2.1v-3.3H83.2L83.2,31.2z M90.4,37
		h-0.8V26.8h0.8V37L90.4,37z M92.8,31.9h-1.1v-0.7h1.1v-2.4h0.8v2.4h1.2v0.7h-1.2V37h-0.8V31.9L92.8,31.9z M96.3,34.2
		c0,0.8,0.2,1.3,0.5,1.7c0.3,0.4,0.8,0.6,1.5,0.6c0.6,0,1.1-0.2,1.5-0.7c0.4-0.4,0.5-1.1,0.5-1.8c0-0.7-0.2-1.3-0.5-1.7
		c-0.4-0.4-0.8-0.6-1.4-0.6c-0.6,0-1.1,0.2-1.5,0.7C96.5,32.8,96.3,33.4,96.3,34.2L96.3,34.2z M100.3,37V36c-0.2,0.4-0.5,0.8-0.8,1
		c-0.3,0.2-0.8,0.3-1.2,0.3c-0.8,0-1.5-0.3-2-0.9c-0.5-0.6-0.8-1.3-0.8-2.3c0-0.9,0.3-1.7,0.8-2.3c0.5-0.6,1.2-0.9,2-0.9
		c0.5,0,0.9,0.1,1.3,0.3c0.4,0.2,0.6,0.5,0.8,1v-1.1h0.8V37H100.3L100.3,37z M103.3,37v-5.8h0.8v0.9c0.2-0.4,0.5-0.7,0.9-0.8
		c0.3-0.2,0.7-0.3,1.2-0.3c0.7,0,1.2,0.2,1.5,0.6c0.4,0.4,0.6,0.9,0.6,1.5v4h-0.8v-3.6c0-0.6-0.1-1-0.4-1.3
		c-0.2-0.3-0.6-0.4-1.1-0.4c-0.6,0-1.1,0.2-1.4,0.6c-0.3,0.4-0.4,0.9-0.4,1.7V37H103.3L103.3,37z M114.9,32.2
		c-0.3-0.2-0.6-0.3-0.9-0.4c-0.3-0.1-0.6-0.1-1-0.1c-0.7,0-1.3,0.2-1.7,0.7c-0.4,0.5-0.6,1.1-0.6,1.9c0,0.7,0.2,1.3,0.7,1.7
		c0.4,0.4,1,0.7,1.7,0.7c0.3,0,0.6-0.1,1-0.2c0.3-0.1,0.6-0.3,1-0.5v0.9c-0.3,0.2-0.6,0.3-0.9,0.4c-0.3,0.1-0.7,0.1-1.1,0.1
		c-0.9,0-1.6-0.3-2.2-0.9c-0.6-0.6-0.9-1.3-0.9-2.3c0-1,0.3-1.7,0.9-2.3c0.6-0.6,1.4-0.9,2.3-0.9c0.4,0,0.7,0,1,0.1
		c0.3,0.1,0.6,0.2,0.8,0.3L114.9,32.2L114.9,32.2z M115.7,31.2h0.9l1.7,4.6l1.5-4.6h0.9l-3,8.8h-0.8l1-3L115.7,31.2L115.7,31.2z"/>
	<path class="st4" d="M47.7,40.7c-1.6,0.6-3.2,0.8-4.8,0.8c-1.7,0-3.2-0.3-4.5-1c-1.2-0.6-2.2-1.6-2.8-2.8h7.4l1.5-3.8h-9.8
		c0-0.2,0-0.4,0-0.6c0-0.2,0-0.6,0-1.1c0-0.3,0-0.8,0.1-1.3c0-0.1,0-0.1,0-0.1h10.8l1.5-3.9H36c0.7-1.1,1.7-2,2.9-2.6
		c1.2-0.6,2.7-0.9,4.3-0.9c1.6,0,3.1,0.3,4.5,0.8c1.5,0.6,2.7,1.3,3.9,2.4v-6.6L49,20.3l-4.9-2.1l-3.3-3.4l0.7-3.1
		c-2.4,0.1-4.6,0.4-6.7,0.9l-0.4,4.7l-5.6,3.5l-4.9-0.4c-1.3,1.9-2.2,4.2-2.7,6.7H17l-0.9,3.9h4.5c0,0.2,0,0.4,0,0.7
		c0,0.3,0,0.6,0,0.7c0,0.5,0,0.8,0,1.1c0,0.2,0,0.4,0,0.6H17l-0.9,3.8h5c1,4.9,3.4,8.8,7.1,11.6c3.7,2.8,8.3,4.1,13.8,4.1
		c1.6,0,3.2-0.2,4.7-0.5c1.6-0.3,3.3-0.9,4.9-1.5l0-13.2C50.4,39.3,49.3,40.2,47.7,40.7z"/>
	<path class="st0" d="M26.5,10.9h9.7c0,0.1,0,0.3,0,0.4c0,0.1,0,0.4,0,0.7c0,3.2-0.9,5.8-2.7,7.8c-1.8,2-4.2,3-7.1,3
		c-3.3,0-6.1-1.1-8.2-3.2c-2.2-2.1-3.2-4.8-3.2-8.1c0-3.2,1.1-5.9,3.2-8c2.2-2.1,4.9-3.2,8.2-3.2c1.7,0,3.3,0.4,4.8,1.1
		c1.5,0.7,2.7,1.8,3.9,3.3L32.1,7c-0.8-1-1.6-1.6-2.4-2.1c-0.8-0.4-1.8-0.6-2.9-0.6c-2.1,0-3.8,0.7-5.1,2c-1.3,1.3-1.9,3.1-1.9,5.3
		c0,2.2,0.6,3.9,1.9,5.2c1.3,1.3,2.9,2,5,2c1.5,0,2.7-0.4,3.7-1.1c0.9-0.7,1.4-1.6,1.4-2.8v-0.2h-5.1V10.9L26.5,10.9z M61.8,11.6
		c0,1.5-0.3,3-0.9,4.3c-0.6,1.4-1.4,2.6-2.5,3.6c-1.1,1.1-2.4,1.9-3.8,2.4c-1.4,0.6-2.8,0.8-4.3,0.8c-1.3,0-2.6-0.2-3.8-0.7
		c-1.3-0.4-2.4-1.1-3.4-1.9c-1.3-1.1-2.4-2.3-3.1-3.8c-0.7-1.5-1.1-3.1-1.1-4.8c0-1.5,0.3-3,0.8-4.3c0.6-1.3,1.4-2.5,2.5-3.6
		c1.1-1,2.3-1.8,3.7-2.4c1.4-0.6,2.9-0.9,4.4-0.9c1.5,0,2.9,0.3,4.3,0.9c1.4,0.6,2.7,1.4,3.7,2.4c1.1,1.1,1.9,2.3,2.5,3.6
		C61.5,8.6,61.8,10,61.8,11.6L61.8,11.6z M50.4,18.7c1.9,0,3.5-0.7,4.8-2c1.3-1.4,1.9-3.1,1.9-5.1c0-2-0.6-3.7-1.9-5.1
		c-1.3-1.4-2.9-2.1-4.8-2.1c-1.9,0-3.5,0.7-4.8,2.1c-1.3,1.4-1.9,3.1-1.9,5.1c0,2.1,0.6,3.8,1.9,5.1C46.8,18,48.4,18.7,50.4,18.7
		L50.4,18.7z"/>
	<path class="st0" d="M3.6,36.5l0.9-2.1c0.4,0.2,0.7,0.4,1,0.6c0.3,0.1,0.6,0.2,0.8,0.2c0.2,0,0.3,0,0.4-0.1
		c0.1-0.1,0.1-0.2,0.1-0.3c0-0.2-0.2-0.3-0.6-0.4c-0.1,0-0.2,0-0.3-0.1c-0.6-0.2-1.1-0.4-1.4-0.7c-0.3-0.3-0.4-0.7-0.4-1.2
		c0-0.7,0.3-1.3,0.9-1.8C5.5,30.2,6.3,30,7.3,30c0.5,0,0.9,0,1.4,0.1c0.4,0.1,0.8,0.2,1.2,0.4l-0.8,2c-0.3-0.2-0.6-0.4-0.8-0.5
		C8,32,7.8,31.9,7.6,31.9c-0.2,0-0.3,0-0.4,0.1c-0.1,0.1-0.1,0.1-0.1,0.3c0,0.2,0.3,0.3,0.8,0.4c0.1,0,0.2,0,0.3,0.1
		c0.7,0.2,1.2,0.4,1.5,0.7c0.3,0.3,0.5,0.7,0.5,1.2c0,0.8-0.3,1.4-0.9,1.9c-0.6,0.5-1.4,0.7-2.4,0.7c-0.6,0-1.1-0.1-1.6-0.2
		C4.6,36.9,4.1,36.8,3.6,36.5L3.6,36.5z M13.8,33.6c0,0.3,0.1,0.5,0.2,0.7c0.2,0.2,0.4,0.3,0.6,0.3c0.3,0,0.5-0.1,0.6-0.3
		c0.2-0.2,0.2-0.4,0.2-0.7c0-0.3-0.1-0.5-0.2-0.7c-0.2-0.2-0.4-0.3-0.6-0.3c-0.3,0-0.5,0.1-0.6,0.3C13.9,33,13.8,33.3,13.8,33.6
		L13.8,33.6z M15.6,37v-1c-0.3,0.4-0.7,0.8-1,1c-0.4,0.2-0.8,0.3-1.2,0.3c-0.8,0-1.4-0.3-2-1c-0.5-0.7-0.8-1.5-0.8-2.6
		c0-1.1,0.3-2,0.8-2.7c0.5-0.7,1.2-1,2-1c0.4,0,0.8,0.1,1.1,0.3c0.3,0.2,0.7,0.5,1,0.8v-0.9h3.2V37H15.6L15.6,37z M20.1,37V26.8h3.3
		V37H20.1L20.1,37z M27.8,33.6c0,0.3,0.1,0.5,0.2,0.7c0.2,0.2,0.4,0.3,0.6,0.3c0.3,0,0.5-0.1,0.6-0.3c0.2-0.2,0.2-0.4,0.2-0.7
		c0-0.3-0.1-0.5-0.2-0.7c-0.2-0.2-0.4-0.3-0.6-0.3c-0.3,0-0.5,0.1-0.6,0.3C27.9,33,27.8,33.3,27.8,33.6L27.8,33.6z M29.6,37v-1
		c-0.3,0.4-0.7,0.8-1,1c-0.4,0.2-0.8,0.3-1.2,0.3c-0.8,0-1.4-0.3-2-1c-0.5-0.7-0.8-1.5-0.8-2.6c0-1.1,0.3-2,0.8-2.7
		c0.5-0.7,1.2-1,2-1c0.4,0,0.8,0.1,1.1,0.3c0.3,0.2,0.7,0.5,1,0.8v-0.9h3.2V37H29.6L29.6,37z M34.1,37v-6.8h3.2v1
		c0.3-0.4,0.6-0.7,1-0.9c0.4-0.2,0.7-0.3,1.2-0.3c0.1,0,0.1,0,0.1,0c0,0,0.1,0,0.1,0v3.3c-0.2-0.1-0.4-0.2-0.5-0.2
		C39,33,38.8,33,38.7,33c-0.4,0-0.7,0.1-1,0.3c-0.2,0.2-0.3,0.5-0.3,1V37H34.1L34.1,37z M44.2,28.1c0,0.5-0.2,0.9-0.5,1.2
		c-0.3,0.3-0.8,0.4-1.3,0.4c-0.5,0-1-0.1-1.3-0.4c-0.3-0.3-0.5-0.7-0.5-1.2c0-0.5,0.2-0.9,0.5-1.1c0.3-0.3,0.8-0.4,1.3-0.4
		c0.6,0,1,0.1,1.3,0.4C44,27.2,44.2,27.6,44.2,28.1L44.2,28.1z M40.7,37v-6.8H44V37H40.7L40.7,37z M44.8,36.5l0.9-2.1
		c0.4,0.2,0.7,0.4,1,0.6c0.3,0.1,0.6,0.2,0.8,0.2c0.2,0,0.3,0,0.4-0.1C48,35,48,34.9,48,34.8c0-0.2-0.2-0.3-0.6-0.4
		c-0.1,0-0.2,0-0.3-0.1c-0.6-0.2-1.1-0.4-1.4-0.7c-0.3-0.3-0.4-0.7-0.4-1.2c0-0.7,0.3-1.3,0.9-1.8c0.6-0.5,1.4-0.7,2.3-0.7
		c0.5,0,0.9,0,1.4,0.1c0.4,0.1,0.8,0.2,1.2,0.4l-0.8,2c-0.3-0.2-0.6-0.4-0.8-0.5c-0.2-0.1-0.5-0.2-0.6-0.2c-0.2,0-0.3,0-0.4,0.1
		c-0.1,0.1-0.1,0.1-0.1,0.3c0,0.2,0.3,0.3,0.8,0.4c0.1,0,0.2,0,0.3,0.1c0.7,0.2,1.2,0.4,1.5,0.7c0.3,0.3,0.5,0.7,0.5,1.2
		c0,0.8-0.3,1.4-0.9,1.9C49.8,37,49,37.3,48,37.3c-0.6,0-1.1-0.1-1.6-0.2C45.8,36.9,45.3,36.8,44.8,36.5L44.8,36.5z"/>
</g>
</svg>
