<?xml version="1.0" encoding="utf-8"?>
<!-- Generator: Adobe Illustrator 22.0.1, SVG Export Plug-In . SVG Version: 6.00 Build 0)  -->
<svg version="1.1" id="Layer_1" xmlns="http://www.w3.org/2000/svg" xmlns:xlink="http://www.w3.org/1999/xlink" x="0px" y="0px"
	 viewBox="0 0 26 40" style="enable-background:new 0 0 26 40;" xml:space="preserve">
<style type="text/css">
	.st0{clip-path:url(#SVGID_2_);fill:#FFFFFF;}
</style>
<g>
	<g>
		<defs>
			
				<rect id="SVGID_1_" x="2.6" y="1.1" transform="matrix(0.993 -0.1182 0.1182 0.993 -2.2733 1.6771)" width="20.9" height="37.8"/>
		</defs>
		<clipPath id="SVGID_2_">
			<use xlink:href="#SVGID_1_"  style="overflow:visible;"/>
		</clipPath>
		<path class="st0" d="M19.7,0.2L1.9,2.3C1.1,2.4,0.5,3.1,0.6,3.9l4.1,34.6c0.1,0.8,0.8,1.4,1.6,1.3l17.8-2.1
			c0.8-0.1,1.4-0.8,1.3-1.6L21.3,1.5C21.2,0.7,20.5,0.1,19.7,0.2 M10,3.3c0-0.1,0.1-0.2,0.1-0.2l3.1-0.4c0.1,0,0.2,0.1,0.2,0.1
			l0,0.2c0,0.1-0.1,0.2-0.1,0.2l-3,0.4c-0.1,0-0.2-0.1-0.2-0.1L10,3.3L10,3.3z M8.8,3.2c0.2,0,0.4,0.1,0.4,0.3C9.3,3.8,9.2,4,8.9,4
			C8.7,4,8.5,3.9,8.5,3.7S8.6,3.3,8.8,3.2 M15.1,37.7c-0.7,0.1-1.3-0.4-1.4-1.1c-0.1-0.7,0.4-1.3,1.1-1.4c0.7-0.1,1.3,0.4,1.4,1.1
			C16.3,37,15.8,37.6,15.1,37.7 M23.7,33L5.6,35.2L2.2,6.3l18.1-2.2L23.7,33z"/>
	</g>
</g>
</svg>
