<svg id="Layer_1" data-name="Layer 1" xmlns="http://www.w3.org/2000/svg" viewBox="0 0 67 90"><defs><style>.cls-1{fill:#292929;}</style></defs><title>twitter</title><path id="Twitter" class="cls-1" d="M172.26,172.5H150.05a11.08,11.08,0,0,1-11.11-11.15v-7.9h31.64a10.43,10.43,0,0,0,0-20.86H138.95V116.25a10.87,10.87,0,0,0-3.29-7.94,10.68,10.68,0,0,0-7.87-3.31,11,11,0,0,0-8,3.25,10.83,10.83,0,0,0-3.28,8v45.09A33.65,33.65,0,0,0,150.07,195h22.2a11.25,11.25,0,0,0,0-22.5Z" transform="translate(-116.5 -105)"/></svg>