<?xml version="1.0" encoding="utf-8"?>
<!-- Generator: Adobe Illustrator 23.0.1, SVG Export Plug-In . SVG Version: 6.00 Build 0)  -->
<svg version="1.1" xmlns="http://www.w3.org/2000/svg" xmlns:xlink="http://www.w3.org/1999/xlink" x="0px" y="0px"
	 viewBox="0 0 595.3 333.6" style="enable-background:new 0 0 595.3 333.6;" xml:space="preserve">
<style type="text/css">
	.st0{display:none;}
	.st1{display:inline;}
	.st2{fill:#070308;}
	.st3{fill:#C33624;}
	.st4{fill:#FFFFFF;}
</style>
<g id="Capa_1" class="st0">
	<g id="_x34_uAehW.tif" class="st1">
		
			<image style="overflow:visible;" width="1680" height="931" id="Layer_0_1_" xlink:href="5E5894B5CD454EB2.png"  transform="matrix(0.3434 0 0 0.3434 9.1782 7.9146)">
		</image>
	</g>
</g>
<g id="Capa_2">
	<g>
		<path class="st2" d="M295.6,196.5c-4.2,0-6.2-1.1-9.2-3c-2.9-1.8-8.4-5.2-17.8-5.2c-8.8,0-13.5,2.7-17.3,4.9l-1.1,0.6
			c-3.3,1.9-4.6,2.7-8.7,2.7c-4.2,0-6.2-1.1-9.2-3c-2.9-1.8-8.4-5.2-17.8-5.2c-8.8,0-13.5,2.7-17.3,4.9l-1.1,0.6
			c-3.3,1.9-4.6,2.7-8.7,2.7c-4.2,0-6.2-1.1-9.2-3c-2.4-1.5-7.7-4.8-16.1-5.2l-1.7,0l-1.7,0c-8.4,0.4-13.7,3.7-16.1,5.2
			c-3.1,1.9-5,3-9.2,3c-4.1,0-5.4-0.8-8.7-2.7l-1.1-0.6c-3.8-2.2-8.5-4.9-17.3-4.9c-9.4,0-14.9,3.4-17.8,5.2c-3.1,1.9-5,3-9.2,3
			c-4.1,0-5.4-0.8-8.7-2.7l-1.1-0.6c-3.8-2.2-8.5-4.9-17.3-4.9c-9.4,0-14.9,3.4-17.8,5.2c-3.1,1.9-5,3-9.2,3h-6.2v10.1h6.2
			c9.4,0,15.1-3.5,17.8-5.2c3.1-1.9,5-3,9.2-3c4.1,0,5.4,0.8,8.7,2.7l1.1,0.6c3.8,2.2,8.5,4.9,17.3,4.9c9.4,0,14.9-3.4,17.8-5.2
			c3.1-1.9,5-3,9.2-3c4.1,0,5.4,0.8,8.7,2.7l1.1,0.6c3.8,2.2,8.5,4.9,17.3,4.9c9.4,0,14.9-3.4,17.8-5.2c3.1-1.9,5-3,9.2-3
			c4.2,0,6.1,1.1,9.2,3c2.9,1.8,8.4,5.2,17.8,5.2c8.8,0,13.5-2.7,17.3-4.9l1.1-0.6c3.3-1.9,4.6-2.7,8.7-2.7c4.2,0,6.2,1.1,9.2,3
			c2.9,1.8,8.4,5.2,17.8,5.2c8.8,0,13.5-2.7,17.3-4.9l1.1-0.6c3.3-1.9,4.6-2.7,8.7-2.7c4.2,0,6.2,1.1,9.2,3
			c4.1,2.6,9.5,5.2,17.8,5.2h4.8v-10.1H295.6z"/>
		<path class="st2" d="M295.6,218.3c-4.2,0-6.2-1.1-9.2-3c-2.9-1.8-8.4-5.2-17.8-5.2c-8.8,0-13.5,2.7-17.3,4.9l-1.1,0.6
			c-3.3,1.9-4.6,2.7-8.7,2.7c-4.2,0-6.2-1.1-9.2-3c-2.9-1.8-8.4-5.2-17.8-5.2c-8.8,0-13.5,2.7-17.3,4.9l-1.1,0.6
			c-3.3,1.9-4.6,2.7-8.7,2.7c-4.2,0-6.2-1.1-9.2-3c-3.5-2.2-8.5-4.7-16.1-5.1l-3.4,0c-7.6,0.3-12.5,2.8-16.1,5.1c-3.1,1.9-5,3-9.2,3
			c-4.1,0-5.4-0.8-8.7-2.7l-1.1-0.6c-3.8-2.2-8.5-4.9-17.3-4.9c-9.4,0-14.9,3.4-17.8,5.2c-3.1,1.9-5,3-9.2,3c-4.1,0-5.4-0.8-8.7-2.7
			l-1.1-0.6c-3.8-2.2-8.5-4.9-17.3-4.9c-9.4,0-14.9,3.4-17.8,5.2c-3.1,1.9-5,3-9.2,3h-6.2v10.1h6.2c8.6,0,14-2.7,17.8-5.1
			c3.1-1.9,5-3,9.2-3c4.1,0,5.4,0.8,8.7,2.7l1.1,0.6c3.8,2.2,8.5,4.9,17.3,4.9c9.4,0,14.9-3.4,17.8-5.2c3.1-1.9,5-3,9.2-3
			c4.1,0,5.4,0.8,8.7,2.7l1.1,0.6c3.8,2.2,8.5,4.9,17.3,4.9c9.4,0,14.9-3.4,17.8-5.2c3.1-1.9,5-3,9.2-3c4.2,0,6.1,1.1,9.2,3
			c2.9,1.8,8.4,5.2,17.8,5.2c8.8,0,13.5-2.7,17.3-4.9l1.1-0.6c3.3-1.9,4.6-2.7,8.7-2.7c4.2,0,6.2,1.1,9.2,3
			c2.9,1.8,8.4,5.2,17.8,5.2c8.8,0,13.5-2.7,17.3-4.9l1.1-0.6c3.3-1.9,4.6-2.7,8.7-2.7c4.2,0,6.2,1.1,9.2,3
			c3.8,2.4,9.3,5.1,17.8,5.1h4.8v-10.1H295.6z"/>
		<path class="st2" d="M295.6,240.3c-4.2,0-6.2-1.1-9.2-3c-2.9-1.8-8.4-5.2-17.8-5.2c-8.8,0-13.5,2.7-17.3,4.9l-1.1,0.6
			c-3.3,1.9-4.6,2.7-8.7,2.7c-4.2,0-6.2-1.1-9.2-3c-2.9-1.8-8.4-5.2-17.8-5.2c-8.8,0-13.5,2.7-17.3,4.9l-1.1,0.6
			c-3.3,1.9-4.6,2.7-8.7,2.7c-4.2,0-6.2-1.1-9.2-3c-2.5-1.5-8.3-5.2-17.7-5.2l-0.3,0c-9.3,0.1-15,3.7-17.5,5.2c-3.1,1.9-5,3-9.2,3
			c-4.1,0-5.4-0.8-8.7-2.7l-1.1-0.6c-3.8-2.2-8.5-4.9-17.3-4.9c-9.4,0-14.9,3.4-17.8,5.2c-3.1,1.9-5,3-9.2,3c-4.1,0-5.4-0.8-8.7-2.7
			l-1.1-0.6c-3.8-2.2-8.5-4.9-17.3-4.9c-9.4,0-14.9,3.4-17.8,5.2c-3.1,1.9-5,3-9.2,3h-6.2v10.1h6.2c9.4,0,15.1-3.5,17.8-5.2
			c3.1-1.9,5-3,9.2-3c4.1,0,5.4,0.8,8.7,2.7l1.1,0.6c3.8,2.2,8.5,4.9,17.3,4.9c9.4,0,14.9-3.4,17.8-5.2c3.1-1.9,5-3,9.2-3
			c4.1,0,5.4,0.8,8.7,2.7l1.1,0.6c3.8,2.2,8.5,4.9,17.3,4.9c9.4,0,14.9-3.4,17.8-5.2c3.1-1.9,5-3,9.2-3c4.2,0,6.1,1.1,9.2,3
			c2.9,1.8,8.4,5.2,17.8,5.2c8.8,0,13.5-2.7,17.3-4.9l1.1-0.6c3.3-1.9,4.6-2.7,8.7-2.7c4.2,0,6.2,1.1,9.2,3
			c2.9,1.8,8.4,5.2,17.8,5.2c8.8,0,13.5-2.7,17.3-4.9l1.1-0.6c3.3-1.9,4.6-2.7,8.7-2.7c4.2,0,6.2,1.1,9.2,3
			c2.7,1.7,8.4,5.2,17.8,5.2h4.8v-10.1H295.6z"/>
		<path class="st2" d="M295.6,262.5c-4.2,0-6.2-1.1-9.2-3c-2.9-1.8-8.4-5.2-17.8-5.2c-8.8,0-13.5,2.7-17.3,4.9l-1.1,0.6
			c-3.3,1.9-4.6,2.7-8.7,2.7c-4.2,0-6.2-1.1-9.2-3c-2.9-1.8-8.4-5.2-17.8-5.2c-8.8,0-13.5,2.7-17.3,4.9l-1.1,0.6
			c-3.3,1.9-4.6,2.7-8.7,2.7c-4.2,0-6.2-1.1-9.2-3c-2.4-1.5-7.7-4.8-16.1-5.2l-1.7,0l-1.7,0c-8.4,0.4-13.7,3.7-16.1,5.2
			c-3.1,1.9-5,3-9.2,3c-4.1,0-5.4-0.8-8.7-2.7l-1.1-0.6c-3.8-2.2-8.5-4.9-17.3-4.9c-9.4,0-14.9,3.4-17.8,5.2c-3.1,1.9-5,3-9.2,3
			c-4.1,0-5.4-0.8-8.7-2.7l-1.1-0.6c-3.8-2.2-8.5-4.9-17.3-4.9c-9.4,0-14.9,3.4-17.8,5.2c-3.1,1.9-5,3-9.2,3h-6.2v10.1h6.2
			c9.4,0,15.1-3.5,17.8-5.2c3.1-1.9,5-3,9.2-3c4.1,0,5.4,0.8,8.7,2.7l1.1,0.6c3.8,2.2,8.5,4.9,17.3,4.9c9.4,0,14.9-3.4,17.8-5.2
			c3.1-1.9,5-3,9.2-3c4.1,0,5.4,0.8,8.7,2.7l1.1,0.6c3.8,2.2,8.5,4.9,17.3,4.9c9.4,0,14.9-3.4,17.8-5.2c3.1-1.9,5-3,9.2-3
			c4.2,0,6.1,1.1,9.2,3c2.9,1.8,8.4,5.2,17.8,5.2c8.8,0,13.5-2.7,17.3-4.9l1.1-0.6c3.3-1.9,4.6-2.7,8.7-2.7c4.2,0,6.2,1.1,9.2,3
			c2.9,1.8,8.4,5.2,17.8,5.2c8.8,0,13.5-2.7,17.3-4.9l1.1-0.6c3.3-1.9,4.6-2.7,8.7-2.7c4.2,0,6.2,1.1,9.2,3
			c4.1,2.6,9.5,5.2,17.8,5.2h4.8v-10.1H295.6z"/>
		<path class="st2" d="M295.6,284.4c-4.2,0-6.2-1.1-9.2-3c-2.9-1.8-8.4-5.2-17.8-5.2c-8.8,0-13.5,2.7-17.3,4.9l-1.1,0.6
			c-3.3,1.9-4.6,2.7-8.7,2.7c-4.2,0-6.2-1.1-9.2-3c-2.9-1.8-8.4-5.2-17.8-5.2c-8.8,0-13.5,2.7-17.3,4.9l-1.1,0.6
			c-3.3,1.9-4.6,2.7-8.7,2.7c-4.2,0-6.2-1.1-9.2-3c-3.5-2.2-8.5-4.7-16.1-5.1l-3.4,0c-7.6,0.3-12.5,2.8-16.1,5.1c-3.1,1.9-5,3-9.2,3
			c-4.1,0-5.4-0.8-8.7-2.7l-1.1-0.6c-3.8-2.2-8.5-4.9-17.3-4.9c-9.4,0-14.9,3.4-17.8,5.2c-3.1,1.9-5,3-9.2,3c-4.1,0-5.4-0.8-8.7-2.7
			l-1.1-0.6c-3.8-2.2-8.5-4.9-17.3-4.9c-9.4,0-14.9,3.4-17.8,5.2c-3.1,1.9-5,3-9.2,3h-6.2v10.1h6.2c8.6,0,14-2.7,17.8-5.1
			c3.1-1.9,5-3,9.2-3c4.1,0,5.4,0.8,8.7,2.7l1.1,0.6c3.8,2.2,8.5,4.9,17.3,4.9c9.4,0,14.9-3.4,17.8-5.2c3.1-1.9,5-3,9.2-3
			c4.1,0,5.4,0.8,8.7,2.7l1.1,0.6c3.8,2.2,8.5,4.9,17.3,4.9c9.4,0,14.9-3.4,17.8-5.2c3.1-1.9,5-3,9.2-3c4.2,0,6.1,1.1,9.2,3
			c2.9,1.8,8.4,5.2,17.8,5.2c8.8,0,13.5-2.7,17.3-4.9l1.1-0.6c3.3-1.9,4.6-2.7,8.7-2.7c4.2,0,6.2,1.1,9.2,3
			c2.9,1.8,8.4,5.2,17.8,5.2c8.8,0,13.5-2.7,17.3-4.9l1.1-0.6c3.3-1.9,4.6-2.7,8.7-2.7c4.2,0,6.2,1.1,9.2,3
			c3.8,2.4,9.3,5.1,17.8,5.1h4.8v-10.1H295.6z"/>
		<path class="st2" d="M295.6,306.4c-4.2,0-6.2-1.1-9.2-3c-2.9-1.8-8.4-5.2-17.8-5.2c-8.8,0-13.5,2.7-17.3,4.9l-1.1,0.6
			c-3.3,1.9-4.6,2.7-8.7,2.7c-4.2,0-6.2-1.1-9.2-3c-2.9-1.8-8.4-5.2-17.8-5.2c-8.8,0-13.5,2.7-17.3,4.9l-1.1,0.6
			c-3.3,1.9-4.6,2.7-8.7,2.7c-4.2,0-6.2-1.1-9.2-3c-2.5-1.5-8.3-5.2-17.7-5.2l-0.3,0c-9.3,0.1-15,3.7-17.5,5.2c-3.1,1.9-5,3-9.2,3
			c-4.1,0-5.4-0.8-8.7-2.7l-1.1-0.6c-3.8-2.2-8.5-4.9-17.3-4.9c-9.4,0-14.9,3.4-17.8,5.2c-3.1,1.9-5,3-9.2,3c-4.1,0-5.4-0.8-8.7-2.7
			l-1.1-0.6c-3.8-2.2-8.5-4.9-17.3-4.9c-9.4,0-14.9,3.4-17.8,5.2c-3.1,1.9-5,3-9.2,3h-6.2v10.1h6.2c9.4,0,15.1-3.5,17.8-5.2
			c3.1-1.9,5-3,9.2-3c4.1,0,5.4,0.8,8.7,2.7l1.1,0.6c3.8,2.2,8.5,4.9,17.3,4.9c9.4,0,14.9-3.4,17.8-5.2c3.1-1.9,5-3,9.2-3
			c4.1,0,5.4,0.8,8.7,2.7l1.1,0.6c3.8,2.2,8.5,4.9,17.3,4.9c9.4,0,14.9-3.4,17.8-5.2c3.1-1.9,5-3,9.2-3c4.2,0,6.1,1.1,9.2,3
			c2.9,1.8,8.4,5.2,17.8,5.2c8.8,0,13.5-2.7,17.3-4.9l1.1-0.6c3.3-1.9,4.6-2.7,8.7-2.7c4.2,0,6.2,1.1,9.2,3
			c2.9,1.8,8.4,5.2,17.8,5.2c8.8,0,13.5-2.7,17.3-4.9l1.1-0.6c3.3-1.9,4.6-2.7,8.7-2.7c4.2,0,6.2,1.1,9.2,3
			c2.7,1.7,8.4,5.2,17.8,5.2h4.8v-10.1H295.6z"/>
	</g>
	<path class="st3" d="M160.1,10.9C90,10.9,31.6,60.4,18.8,125.8v54.3c1.1,5.6,2.5,11,4.2,16.4h1.9c4.2,0,6.2-1.1,9.2-3
		c2.9-1.8,8.4-5.2,17.8-5.2c8.8,0,13.5,2.7,17.3,4.9l1.1,0.6c3.3,1.9,4.6,2.7,8.7,2.7c4.2,0,6.2-1.1,9.2-3c2.9-1.8,8.4-5.2,17.8-5.2
		c8.8,0,13.5,2.7,17.3,4.9l1.1,0.6c3.3,1.9,4.6,2.7,8.7,2.7c4.2,0,6.2-1.1,9.2-3c2.3-1.5,7.7-4.8,16.1-5.2l1.7,0l1.7,0
		c8.5,0.4,13.8,3.7,16.1,5.2c3.1,1.9,5,3,9.2,3c4.1,0,5.4-0.8,8.7-2.7l1.1-0.6c3.8-2.2,8.5-4.9,17.3-4.9c9.4,0,14.9,3.4,17.8,5.2
		c3.1,1.9,5,3,9.2,3c4.1,0,5.4-0.8,8.7-2.7l1.1-0.6c3.8-2.2,8.5-4.9,17.3-4.9c9.4,0,14.9,3.4,17.8,5.2c3.1,1.9,5,3,9.2,3h1.5
		c1.2-3.8,2.3-7.8,3.2-11.7v-63.6C285.7,58,228.4,10.9,160.1,10.9z"/>
	<path class="st4" d="M120.6,118c-3.6-8.3-10.4-17.8-19.4-24.1c-3.1-2.4-6-2.4-6.7-1c-5.4-3.4-26.2-9.4-39.4,7.3
		c-2,2.6,0,3.7,2.1,3.9c2.1,0.2,30.5-1.5,52.1,23c-15.5-9-29-14-52.6-8.6c-4.1,1-3.2,3.6-2.4,4.4c-12.2,3.4-29.3,10.9-25.4,38.8
		c0.7,5,4.7,0.5,5.7-0.7c1.3-1.5,20.9-22.6,57.8-23.6c-20,5.5-28.2,11.1-36.7,22.8c-1.6,2.6-1.1,5.3,1.6,4.5
		c-5.3,6.2-17,27.2,6.4,46.3c2.3,1.6,2.8-0.4,2.8-2.8c0-2.4,3.4-45.1,50.3-65.7c1.3-0.7,1.7,8.3,2,14.1c0.2,5.9-0.7,41.9-14.1,71.2
		c-13.5,29.3-40.2,80-42.4,84.5s38.2,8.7,38.7,1.5s7.4-45.9,10.9-57.2c3.5-11.3,15.9-54.7,16.5-73.6s-1.5-36.9-2.6-39.7
		c5,2,43.9,23.5,44.3,60.4c0.2,7.4,1.7,10.4,6.1,6.3c4.3-4.1,21.7-18.7,6.1-43.7c2-0.4,2.8-1.3,1.1-4.1s-11.7-19.8-40.4-25.2
		c19.5-0.4,38,1.7,64.1,26.1c2.8,3.5,4.1,0.9,5-2.8c0.9-3.7,6.1-28.7-25.8-37.6c2.4-0.2,1.7-2.6-0.9-3.7c-2.6-1.1-31.9-7.8-53.4,7.4
		c10-9.6,25.2-20.6,50.4-21.3c5,0.2,5-1.5,3-4.3c-2-2.8-15.6-18.2-38.2-7c0.4-2.2-2-2.4-5-0.9C139.1,94.5,123.1,105.5,120.6,118z"/>
	<g>
		<path d="M311.8,80.4l11.7-1c0.6,4.4,1.8,8,3.9,10.8s5.2,5.1,9.4,6.8c4.2,1.7,9,2.6,14.3,2.6c4.7,0,8.9-0.7,12.5-2
			c3.6-1.3,6.3-3.1,8.1-5.4c1.8-2.3,2.6-4.8,2.6-7.5c0-2.7-0.9-5.1-2.5-7.2c-1.7-2-4.5-3.8-8.4-5.2c-2.5-0.9-8-2.3-16.6-4.3
			c-8.6-1.9-14.6-3.7-18-5.5c-4.5-2.2-7.8-4.9-10-8.1c-2.2-3.2-3.3-6.9-3.3-10.9c0-4.4,1.3-8.5,4-12.4c2.7-3.8,6.6-6.7,11.7-8.7
			c5.1-2,10.9-3,17.1-3c6.9,0,13,1,18.3,3.1s9.4,5.2,12.2,9.2s4.4,8.6,4.6,13.8l-11.9,0.8c-0.6-5.5-2.8-9.7-6.5-12.5
			c-3.7-2.8-9.1-4.2-16.3-4.2c-7.5,0-12.9,1.3-16.3,3.8c-3.4,2.6-5.1,5.6-5.1,9.3c0,3.1,1.2,5.7,3.6,7.7c2.4,2,8.6,4.1,18.6,6.2
			c10,2.1,16.9,4,20.7,5.6c5.4,2.3,9.5,5.3,12,8.9c2.6,3.6,3.9,7.7,3.9,12.4c0,4.6-1.4,9-4.3,13.1c-2.8,4.1-6.9,7.3-12.3,9.6
			c-5.3,2.3-11.3,3.4-18,3.4c-8.5,0-15.5-1.2-21.2-3.5s-10.2-5.8-13.4-10.4C313.7,91.5,312,86.2,311.8,80.4z"/>
		<path d="M403.3,108.4V21.1h67.5v10.3h-55.2v26.7h51.7v10.2h-51.7v29.7H473v10.3H403.3z"/>
		<path d="M481.8,108.4l35.9-87.3H531l38.2,87.3h-14.1L544.3,82h-39.1L495,108.4H481.8z M508.8,72.6h31.7l-9.7-24.2
			c-3-7.3-5.2-13.4-6.6-18.1c-1.2,5.6-2.9,11.2-5,16.7L508.8,72.6z"/>
	</g>
	<g>
		<path class="st3" d="M310.2,197.7l11.7-1c0.6,4.4,1.8,8,3.9,10.8s5.2,5.1,9.4,6.8c4.2,1.7,9,2.6,14.3,2.6c4.7,0,8.9-0.7,12.5-2
			c3.6-1.3,6.3-3.1,8.1-5.4c1.8-2.3,2.6-4.8,2.6-7.5c0-2.7-0.9-5.1-2.5-7.2c-1.7-2-4.5-3.8-8.4-5.2c-2.5-0.9-8-2.3-16.6-4.3
			c-8.6-1.9-14.6-3.7-18-5.5c-4.5-2.2-7.8-4.9-10-8.1c-2.2-3.2-3.3-6.9-3.3-10.9c0-4.4,1.3-8.5,4-12.4c2.7-3.8,6.6-6.7,11.7-8.7
			c5.1-2,10.9-3,17.1-3c6.9,0,13,1,18.3,3.1s9.4,5.2,12.2,9.2s4.4,8.6,4.6,13.8l-11.9,0.8c-0.6-5.5-2.8-9.7-6.5-12.5
			c-3.7-2.8-9.1-4.2-16.3-4.2c-7.5,0-12.9,1.3-16.3,3.8c-3.4,2.6-5.1,5.6-5.1,9.3c0,3.1,1.2,5.7,3.6,7.7c2.4,2,8.6,4.1,18.6,6.2
			c10,2.1,16.9,4,20.7,5.6c5.4,2.3,9.5,5.3,12,8.9c2.6,3.6,3.9,7.7,3.9,12.4c0,4.6-1.4,9-4.3,13.1c-2.8,4.1-6.9,7.3-12.3,9.6
			c-5.3,2.3-11.3,3.4-18,3.4c-8.5,0-15.5-1.2-21.2-3.5s-10.2-5.8-13.4-10.4C312.1,208.7,310.4,203.5,310.2,197.7z"/>
		<path class="st3" d="M462.7,138.4h12.4v50.5c0,8.8-1.1,15.7-3.2,20.9c-2.1,5.2-6,9.4-11.5,12.6c-5.5,3.2-12.8,4.9-21.8,4.9
			c-8.8,0-15.9-1.4-21.5-4.2c-5.6-2.8-9.5-6.9-11.9-12.2c-2.4-5.3-3.6-12.6-3.6-21.9v-50.5H414v50.4c0,7.6,0.8,13.2,2.3,16.8
			c1.5,3.6,4.1,6.4,7.8,8.3c3.7,1.9,8.2,2.9,13.5,2.9c9.1,0,15.6-1.9,19.4-5.8c3.9-3.9,5.8-11.3,5.8-22.2V138.4z"/>
		<path class="st3" d="M495.5,225.7v-87.3h12.7l49.1,68.6v-68.6h11.9v87.3h-12.7l-49.1-68.6v68.6H495.5z"/>
	</g>
	<g>
		<path d="M316.7,316.5v-63.2h9.5v63.2H316.7z"/>
		<path d="M342.8,316.5v-63.2h14.4l17.1,44.8c1.6,4.2,2.7,7.3,3.4,9.4c0.8-2.3,2.1-5.7,3.8-10.1l17.3-44h12.8v63.2h-9.2v-52.9
			l-21,52.9h-8.6L352,262.7v53.8H342.8z"/>
		<path d="M426.7,316.5v-63.2h14.4l17.1,44.8c1.6,4.2,2.7,7.3,3.4,9.4c0.8-2.3,2.1-5.7,3.8-10.1l17.3-44h12.8v63.2h-9.2v-52.9
			l-21,52.9h-8.6l-20.9-53.8v53.8H426.7z"/>
		<path d="M508,285.7c0-10.5,3.2-18.7,9.6-24.6s14.7-8.9,24.9-8.9c6.7,0,12.7,1.4,18,4.2s9.4,6.7,12.2,11.7c2.8,5,4.2,10.6,4.2,17
			c0,6.4-1.5,12.1-4.4,17.2c-3,5.1-7.1,8.9-12.5,11.5c-5.4,2.6-11.2,3.9-17.5,3.9c-6.8,0-12.9-1.4-18.2-4.3s-9.4-6.8-12.2-11.8
			S508,291.3,508,285.7z M517.9,285.9c0,7.6,2.3,13.6,7,18c4.7,4.4,10.5,6.6,17.6,6.6c7.2,0,13.1-2.2,17.7-6.6
			c4.6-4.4,7-10.7,7-18.8c0-5.1-1-9.6-3-13.5c-2-3.8-4.9-6.8-8.7-8.9c-3.8-2.1-8.1-3.2-12.9-3.2c-6.8,0-12.6,2-17.4,6.1
			S517.9,276.4,517.9,285.9z"/>
	</g>
</g>
</svg>
