<?xml version="1.0" standalone="no"?>
<!DOCTYPE svg PUBLIC "-//W3C//DTD SVG 1.1//EN" "http://www.w3.org/Graphics/SVG/1.1/DTD/svg11.dtd" >
<svg>
<metadata>
Created by FontForge 20090914 at Tue Mar  3 10:55:50 2020
 By www-data
Copyright 2015 Dalton Maag Ltd. Modification of this file requires prior written permission from Dalton Maag Ltd.
</metadata>
<defs>
<font id="ObjektivMk3W03-Light" horiz-adv-x="380" >
  <font-face 
    font-family="ObjektivMk3W03-Light"
    font-weight="300"
    font-stretch="normal"
    units-per-em="1000"
    panose-1="2 11 4 2 2 2 4 2 2 3"
    ascent="800"
    descent="-200"
    x-height="489"
    cap-height="760"
    bbox="-238 -302 1271 1060"
    underline-thickness="50"
    underline-position="-125"
    unicode-range="U+0008-U+FEFF"
  />
<missing-glyph horiz-adv-x="500" 
d="M50 750h400v-750h-400v750zM400 50v650h-300v-650h300z" />
    <glyph glyph-name=".notdef" horiz-adv-x="500" 
d="M50 750h400v-750h-400v750zM400 50v650h-300v-650h300z" />
    <glyph glyph-name="uni0008" horiz-adv-x="0" 
 />
    <glyph glyph-name="uni0008" horiz-adv-x="0" 
 />
    <glyph glyph-name="uni0008" horiz-adv-x="0" 
 />
    <glyph glyph-name="uni0009" unicode="&#x9;" horiz-adv-x="225" 
 />
    <glyph glyph-name="uni0009" unicode="&#xd;" horiz-adv-x="225" 
 />
    <glyph glyph-name="space" unicode=" " horiz-adv-x="225" 
 />
    <glyph glyph-name="exclam" unicode="!" horiz-adv-x="274" 
d="M107 789h61l-5 -570h-51zM137 -8c-12.667 0 -23.667 4.66699 -33 14s-14 20.333 -14 33c0 13.333 4.5 24.5 13.5 33.5s20.167 13.5 33.5 13.5s24.5 -4.5 33.5 -13.5s13.5 -20.167 13.5 -33.5c0 -12.667 -4.5 -23.667 -13.5 -33s-20.167 -14 -33.5 -14z" />
    <glyph glyph-name="quotedbl" unicode="&#x22;" horiz-adv-x="329" 
d="M50 760h62l-7 -292h-48zM217 760h62l-7 -292h-48z" />
    <glyph glyph-name="numbersign" unicode="#" horiz-adv-x="680" 
d="M162 185h-103v46h113l48 215h-124v46h135l42 185h49l-42 -185h183l42 185h49l-42 -185h106v-46h-116l-48 -215h127v-46h-138l-40 -185h-49l40 185h-183l-40 -185h-50zM405 231l48 215h-183l-48 -215h183z" />
    <glyph glyph-name="dollar" unicode="$" horiz-adv-x="620" 
d="M282 -130l-0.00195312 120.001c-37.333 0.666992 -73 5.66699 -107 15s-63.667 22 -89 38l8 53c54.667 -36 117.334 -54.333 188.001 -55v322c-69.333 28 -118.833 57.667 -148.5 89s-44.5 69.666 -44.5 114.999c0 52.667 17.333 95.667 52 129s81.667 52.333 141 57v123
h46v-123c58.667 -3.33301 112.334 -18.333 161.001 -45l-9 -50c-24 13.333 -48.333 23.833 -73 31.5s-51 12.167 -79 13.5v-301c70 -26.667 120.833 -57 152.5 -91s47.5 -75 47.5 -123c0 -52.667 -18 -96.5 -54 -131.5s-84.667 -56.167 -146 -63.5v-123h-46zM327.998 43.001
c45.333 6 80.668 21.5 106.001 46.5s38 57.167 38 96.5c0 37.333 -10.833 67.833 -32.5 91.5s-58.834 46.167 -111.501 67.5v-302zM282 703.001c-43.333 -3.33301 -77.168 -16.667 -101.501 -40s-36.5 -54 -36.5 -92c0 -36 10.333 -65.333 31 -88s56.334 -44 107.001 -64
v284z" />
    <glyph glyph-name="percent" unicode="%" horiz-adv-x="905" 
d="M227 456c34.667 0 63.5 12 86.5 36s34.5 54.333 34.5 91c0 37.333 -11.333 68 -34 92s-51.667 36 -87 36s-64.5 -12 -87.5 -36s-34.5 -54.667 -34.5 -92c0 -36 11.5 -66.167 34.5 -90.5s52.167 -36.5 87.5 -36.5zM227 407c-31.333 0 -60.3311 7.5 -86.998 22.5
s-48 36 -64 63s-24 57.167 -24 90.5c0 32 7.33301 61.333 22 88s35.5 48.167 62.5 64.5s57.167 24.5 90.5 24.5c31.333 0 60.166 -7.5 86.499 -22.5s47.5 -36 63.5 -63s24 -57.5 24 -91.5c0 -49.333 -16.833 -91 -50.5 -125s-74.834 -51 -123.501 -51zM708.002 744h63
l-578 -744h-63zM678.002 39c34.667 0 63.5 12 86.5 36s34.5 54.333 34.5 91c0 37.333 -11.333 68 -34 92s-51.667 36 -87 36s-64.5 -12 -87.5 -36s-34.5 -54.667 -34.5 -92c0 -36 11.5 -66.167 34.5 -90.5s52.167 -36.5 87.5 -36.5zM678.002 -10
c-31.333 0 -60.3311 7.5 -86.998 22.5s-48 36 -64 63s-24 57.167 -24 90.5c0 32 7.33301 61.333 22 88s35.5 48.167 62.5 64.5s57.167 24.5 90.5 24.5c31.333 0 60.166 -7.5 86.499 -22.5s47.5 -36 63.5 -63s24 -57.5 24 -91.5c0 -49.333 -16.833 -91 -50.5 -125
s-74.834 -51 -123.501 -51z" />
    <glyph glyph-name="ampersand" unicode="&#x26;" horiz-adv-x="739" 
d="M320 -16c-48 0 -90.835 8.33496 -128.502 25.002s-67.167 40.667 -88.5 72s-32 67.666 -32 108.999c0 44.667 14.167 85.167 42.5 121.5s72.5 70.166 132.5 101.499c-38.667 45.333 -65 81.833 -79 109.5s-21 57.167 -21 88.5c0 48.667 16.667 88.667 50 120
s76.333 47 129 47c50.667 0 92.167 -15.167 124.5 -45.5s48.5 -69.5 48.5 -117.5c0 -40 -13.833 -77.167 -41.5 -111.5s-71.167 -67.833 -130.5 -100.5l221 -246c36 56.667 54.667 131 56 223l52 -6c-1.33301 -100.667 -25.666 -186 -72.999 -256l106 -118h-73l-69 76
c-28.667 -30 -62.167 -52.833 -100.5 -68.5s-80.166 -23.5 -125.499 -23.5zM320.998 35.002c78.667 0 142.667 26.333 192 79l-238 265c-52 -29.333 -89.333 -58.5 -112 -87.5s-34 -62.5 -34 -100.5c0 -30 7.83301 -56.667 23.5 -80s38 -41.833 67 -55.5
s62.833 -20.5 101.5 -20.5zM294.998 438.002c52 28.667 89.6689 56.668 113.002 84.001s35 57.666 35 90.999c0 35.333 -10.833 63.833 -32.5 85.5s-50.167 32.5 -85.5 32.5c-36.667 0 -66.334 -10.833 -89.001 -32.5s-34 -50.167 -34 -85.5
c0 -25.333 6.16699 -49.833 18.5 -73.5s37.166 -57.5 74.499 -101.5z" />
    <glyph glyph-name="quotesingle" unicode="'" horiz-adv-x="162" 
d="M50 760h62l-7 -292h-48z" />
    <glyph glyph-name="parenleft" unicode="(" horiz-adv-x="383" 
d="M272 -133c-56 54 -100.5 124.002 -133.5 210.002s-49.5 174.667 -49.5 266c0 92 16.5 181.167 49.5 267.5s77.5 156.166 133.5 209.499h67c-61.333 -60.667 -108.833 -132.5 -142.5 -215.5s-50.5 -170.167 -50.5 -261.5s16.833 -178.333 50.5 -261
s81.167 -154.334 142.5 -215.001h-67z" />
    <glyph glyph-name="parenright" unicode=")" horiz-adv-x="383" 
d="M44 -133c61.333 60.667 108.833 132.498 142.5 215.498s50.5 170.167 50.5 261.5s-16.833 178.333 -50.5 261s-81.167 154.334 -142.5 215.001h67c56 -54 100.5 -124 133.5 -210s49.5 -174.667 49.5 -266c0 -92 -16.5 -181.167 -49.5 -267.5
s-77.5 -156.166 -133.5 -209.499h-67z" />
    <glyph glyph-name="asterisk" unicode="*" horiz-adv-x="490" 
d="M99 418l110 134l-158 51l20 50l151 -60l-7 167h57l-7 -167l152 60l19 -50l-157 -51l110 -134l-45 -32l-100 141l-100 -141z" />
    <glyph glyph-name="plus" unicode="+" horiz-adv-x="620" 
d="M282 309h-194v53h194v198h56v-198h194v-53h-194v-197h-56v197z" />
    <glyph glyph-name="comma" unicode="," horiz-adv-x="290" 
d="M28 -181c24 34.667 43.668 75.334 59.001 122.001s24.666 93.667 27.999 141h65c-4 -48.667 -15.333 -97.334 -34 -146.001s-41 -87.667 -67 -117h-51z" />
    <glyph glyph-name="hyphen" unicode="-" horiz-adv-x="441" 
d="M78 313h285v-57h-285v57z" />
    <glyph glyph-name="period" unicode="." horiz-adv-x="290" 
d="M145 -8c-12.667 0 -23.667 4.66699 -33 14s-14 20.333 -14 33c0 13.333 4.5 24.5 13.5 33.5s20.167 13.5 33.5 13.5s24.5 -4.5 33.5 -13.5s13.5 -20.167 13.5 -33.5c0 -12.667 -4.5 -23.667 -13.5 -33s-20.167 -14 -33.5 -14z" />
    <glyph glyph-name="slash" unicode="/" horiz-adv-x="505" 
d="M429 810h61l-413 -943h-61z" />
    <glyph glyph-name="zero" unicode="0" horiz-adv-x="620" 
d="M309 36c60 0 106.833 29.667 140.5 89s50.5 142 50.5 248c0 105.333 -16.833 187.5 -50.5 246.5s-80.5 88.5 -140.5 88.5s-106.667 -29.5 -140 -88.5s-50 -141.167 -50 -246.5c0 -106 16.833 -188.667 50.5 -248s80.167 -89 139.5 -89zM309 -16
c-50.667 0 -94.833 15.3301 -132.5 45.9971s-66.834 75.334 -87.501 134.001s-31 128.334 -31 209.001c0 78.667 9.83301 147 29.5 205s48.5 102.833 86.5 134.5s83 47.5 135 47.5c37.333 0 71.5 -8.5 102.5 -25.5s57.667 -42 80 -75s39.5 -73.667 51.5 -122
s18 -103.166 18 -164.499c0 -120 -22.667 -214.833 -68 -284.5s-106.666 -104.5 -183.999 -104.5z" />
    <glyph glyph-name="one" unicode="1" horiz-adv-x="620" 
d="M322 680l-217 -97l-8 54l237 107h46v-744h-58v680z" />
    <glyph glyph-name="two" unicode="2" horiz-adv-x="620" 
d="M86 0v50c50 48.667 111 114.334 183 197.001c64.667 74.667 109.667 134.667 135 180s38 88.333 38 129c0 46.667 -13.333 83.5 -40 110.5s-63.334 40.5 -110.001 40.5c-69.333 0 -129.666 -29.667 -180.999 -89l-12 55c24 27.333 53.333 48.666 88 63.999s71 23 109 23
c62.667 0 112.5 -18 149.5 -54s55.5 -84 55.5 -144c0 -48 -12.5 -96.167 -37.5 -144.5s-67.833 -106.833 -128.5 -175.5c-67.333 -76 -125.333 -138.333 -174 -187h365v-55h-440z" />
    <glyph glyph-name="three" unicode="3" horiz-adv-x="620" 
d="M270 -16c-34.667 0 -68.501 4.5 -101.501 13.5s-60.833 21.167 -83.5 36.5l7 54c54 -35.333 113.667 -53 179 -53c60.667 0 108.5 16 143.5 48s52.5 75.333 52.5 130c0 52 -16.5 92.833 -49.5 122.5s-78.833 44.5 -137.5 44.5c-24 0 -46.667 -2.66699 -68 -8l-16 36
l243 283h-340v53h405v-52l-229 -266c3.33301 0.666992 10.333 1 21 1c44.667 0 84.167 -8.5 118.5 -25.5s61.333 -41.667 81 -74s29.5 -70.5 29.5 -114.5c0 -70 -23.167 -125.667 -69.5 -167s-108.166 -62 -185.499 -62z" />
    <glyph glyph-name="four" unicode="4" horiz-adv-x="620" 
d="M399 200h-348v48l348 496h55v-495h102v-49h-102v-200h-55v200zM399 249v412l-290 -412h290z" />
    <glyph glyph-name="five" unicode="5" horiz-adv-x="620" 
d="M273 -16c-35.333 0 -69.834 4.6709 -103.501 14.0039s-61.5 21.666 -83.5 36.999l6 55c53.333 -36 113 -54 179 -54c60.667 0 108.834 17.333 144.501 52s53.5 81 53.5 139c0 55.333 -18.833 99.166 -56.5 131.499s-89.167 48.5 -154.5 48.5c-46 0 -92 -7.66699 -138 -23
l12 360h350v-55h-300l-8 -244c28 8 61 12 99 12c50 0 94.167 -9.16699 132.5 -27.5s68.166 -44.833 89.499 -79.5s32 -75.334 32 -122.001s-10.333 -88.334 -31 -125.001s-50.167 -65.667 -88.5 -87s-83.166 -32 -134.499 -32z" />
    <glyph glyph-name="six" unicode="6" horiz-adv-x="620" 
d="M309 -16c-42.667 0 -81.1689 9.83203 -115.502 29.499s-61.5 47.834 -81.5 84.501s-30 78.667 -30 126c0 54.667 11.333 112.834 34 174.501s55.334 122.667 98.001 183s92.667 114.833 150 163.5l72 -5c-66.667 -54 -124.5 -114.333 -173.5 -181
s-84.167 -133 -105.5 -199c20 27.333 44.833 48.166 74.5 62.499s62.5 21.5 98.5 21.5c40 0 76.333 -9.33301 109 -28s58.834 -45 78.501 -79s29.5 -73 29.5 -117s-9.83301 -83.833 -29.5 -119.5s-47.667 -64 -84 -85s-77.833 -31.5 -124.5 -31.5zM312.998 33.999
c51.333 0 93.668 17 127.001 51s50 77 50 129c0 56 -15.833 100 -47.5 132s-74.834 48 -129.501 48c-49.333 0 -90.833 -17.333 -124.5 -52s-50.5 -77.667 -50.5 -129c0 -53.333 16.167 -96.5 48.5 -129.5s74.5 -49.5 126.5 -49.5z" />
    <glyph glyph-name="seven" unicode="7" horiz-adv-x="620" 
d="M174 2l294 686h-386v56h446v-49l-292 -697z" />
    <glyph glyph-name="eight" unicode="8" horiz-adv-x="620" 
d="M309 -16c-46.667 0 -88.333 8.66699 -125 26s-65.5 42 -86.5 74s-31.5 69 -31.5 111c0 47.333 13.667 88.5 41 123.5s64.333 59.167 111 72.5c-40.667 12.667 -72.5 34.5 -95.5 65.5s-34.5 67.833 -34.5 110.5c0 36.667 9.16699 69.5 27.5 98.5s44.333 52 78 69
s72.5 25.5 116.5 25.5c41.333 0 78.666 -7.83301 111.999 -23.5s59.833 -38.167 79.5 -67.5s29.5 -63.333 29.5 -102c0 -42.667 -11.667 -79.5 -35 -110.5s-55.333 -52.833 -96 -65.5c46.667 -12.667 83.834 -36.667 111.501 -72s41.5 -76.666 41.5 -123.999
c0 -40.667 -9.83301 -76.834 -29.5 -108.501s-48 -56.667 -85 -75s-80.167 -27.5 -129.5 -27.5zM309.001 35c55.333 0 100.334 15.167 135.001 45.5s52 70.166 52 119.499c0 48.667 -17.333 88.167 -52 118.5s-79.667 45.5 -135 45.5c-35.333 0 -67 -6.66699 -95 -20
s-50.167 -32.5 -66.5 -57.5s-24.5 -53.833 -24.5 -86.5c0 -49.333 17.167 -89.166 51.5 -119.499s79.166 -45.5 134.499 -45.5zM309.002 416c49.333 0 89.5 13.5 120.5 40.5s46.5 62.167 46.5 105.5c0 44 -15.333 79.667 -46 107s-71 41 -121 41
c-49.333 0 -89.333 -13.667 -120 -41s-46 -63 -46 -107c0 -43.333 15.5 -78.5 46.5 -105.5s70.833 -40.5 119.5 -40.5z" />
    <glyph glyph-name="nine" unicode="9" horiz-adv-x="620" 
d="M182 4c66.667 54 124.502 114.335 173.502 181.002s83.833 132.667 104.5 198c-20 -26.667 -45 -47.167 -75 -61.5s-62.333 -21.5 -97 -21.5c-40 0 -76.333 9.33301 -109 28s-58.834 45 -78.501 79s-29.5 73 -29.5 117s9.83301 83.833 29.5 119.5s47.667 64 84 85
s77.833 31.5 124.5 31.5c42.667 0 81.167 -9.83301 115.5 -29.5s61.5 -47.834 81.5 -84.501s30 -78.667 30 -126c0 -54.667 -11.333 -112.834 -34 -174.501s-55.334 -122.667 -98.001 -183s-92.667 -114.833 -150 -163.5zM305.002 350.002
c49.333 0 90.8311 17.333 124.498 52s50.5 77.667 50.5 129c0 53.333 -16.167 96.5 -48.5 129.5s-74.5 49.5 -126.5 49.5c-51.333 0 -93.666 -17 -126.999 -51s-50 -77 -50 -129c0 -56 15.833 -100 47.5 -132s74.834 -48 129.501 -48z" />
    <glyph glyph-name="colon" unicode=":" horiz-adv-x="290" 
d="M145 -8c-12.667 0 -23.667 4.66699 -33 14s-14 20.333 -14 33c0 13.333 4.5 24.5 13.5 33.5s20.167 13.5 33.5 13.5s24.5 -4.5 33.5 -13.5s13.5 -20.167 13.5 -33.5c0 -12.667 -4.5 -23.667 -13.5 -33s-20.167 -14 -33.5 -14zM145 402c-12.667 0 -23.667 4.66699 -33 14
s-14 20.333 -14 33c0 13.333 4.5 24.5 13.5 33.5s20.167 13.5 33.5 13.5s24.5 -4.5 33.5 -13.5s13.5 -20.167 13.5 -33.5c0 -12.667 -4.5 -23.667 -13.5 -33s-20.167 -14 -33.5 -14z" />
    <glyph glyph-name="semicolon" unicode=";" horiz-adv-x="290" 
d="M28 -181c24 34.667 43.668 75.334 59.001 122.001s24.666 93.667 27.999 141h65c-4 -48.667 -15.333 -97.334 -34 -146.001s-41 -87.667 -67 -117h-51zM145.001 402c-12.667 0 -23.667 4.66699 -33 14s-14 20.333 -14 33c0 13.333 4.5 24.5 13.5 33.5
s20.167 13.5 33.5 13.5s24.5 -4.5 33.5 -13.5s13.5 -20.167 13.5 -33.5c0 -12.667 -4.5 -23.667 -13.5 -33s-20.167 -14 -33.5 -14z" />
    <glyph glyph-name="less" unicode="&#x3c;" horiz-adv-x="620" 
d="M103 311v56l412 194v-58l-347 -162l347 -163v-60z" />
    <glyph glyph-name="equal" unicode="=" horiz-adv-x="620" 
d="M99 476h411v-53h-411v53zM99 247h411v-53h-411v53z" />
    <glyph glyph-name="greater" unicode="&#x3e;" horiz-adv-x="620" 
d="M103 176l347 162l-347 163v60l412 -193v-56l-412 -194v58z" />
    <glyph glyph-name="question" unicode="?" horiz-adv-x="470" 
d="M174 219c-2 12 -3 28 -3 48c0 32.667 4.66699 61 14 85s21.333 45 36 63s30 34.667 46 50l46 45.5c14.667 15 26.667 31.5 36 49.5s14 39 14 63c0 37.333 -13.333 67.333 -40 90s-62 34 -106 34c-66.667 0 -126.667 -29 -180 -87l-15 51
c21.333 26.667 50.166 48 86.499 64s74.5 24 114.5 24c58.667 0 106.334 -16.333 143.001 -49s55 -75 55 -127c0 -28.667 -4.83301 -53.5 -14.5 -74.5s-22 -39.833 -37 -56.5s-30.833 -32.667 -47.5 -48s-32.5 -31.5 -47.5 -48.5s-27.333 -36.5 -37 -58.5
s-14.5 -48.333 -14.5 -79c0 -12.667 0.666992 -25.667 2 -39h-51zM201 -8c-12.667 0 -23.667 4.66699 -33 14s-14 20.333 -14 33c0 13.333 4.5 24.5 13.5 33.5s20.167 13.5 33.5 13.5s24.5 -4.5 33.5 -13.5s13.5 -20.167 13.5 -33.5c0 -12.667 -4.5 -23.667 -13.5 -33
s-20.167 -14 -33.5 -14z" />
    <glyph glyph-name="at" unicode="@" horiz-adv-x="983" 
d="M477 -224c-83.333 0 -156.829 16.3301 -220.496 48.9971s-113.5 79.667 -149.5 141s-54 133.666 -54 216.999s20.5 160.833 61.5 232.5s98.5 129.667 172.5 174s156.333 66.5 247 66.5c76.667 0 145 -15.5 205 -46.5s107.333 -75.167 142 -132.5s52 -124.333 52 -201
c0 -52 -8.5 -99.167 -25.5 -141.5s-41.333 -76.166 -73 -101.499s-67.834 -38 -108.501 -38c-66 0 -104.667 28.667 -116 86c-18.667 -27.333 -42 -48.333 -70 -63s-59 -22 -93 -22c-50.667 0 -92.334 18.167 -125.001 54.5s-49 82.833 -49 139.5
c0 42 9.16699 81.333 27.5 118s44 66.334 77 89.001s69.833 34 110.5 34c38 0 70.667 -9.66699 98 -29s46.666 -46.333 57.999 -81l21 94h48l-51 -263c-3.33301 -16 -5 -30.333 -5 -43c0 -46.667 23.667 -70 71 -70c28 0 53.667 9.83301 77 29.5s42 47.167 56 82.5
s21 75.333 21 120c0 66.667 -14 125.334 -42 176.001s-68.333 90.334 -121 119.001s-115 43 -187 43c-76.667 0 -147.334 -18 -212.001 -54s-116.834 -86.5 -156.501 -151.5s-59.5 -138.167 -59.5 -219.5c0 -72 15 -135 45 -189s73.167 -96.167 129.5 -126.5
s122.833 -45.5 199.5 -45.5c73.333 0 144 15.667 212 47l4 -48c-65.333 -30.667 -137.666 -46 -216.999 -46zM460.004 42.9971c47.333 0 86.832 18 118.499 54s47.5 81 47.5 135c0 47.333 -12 84.5 -36 111.5s-57 40.5 -99 40.5c-30 0 -57.667 -8 -83 -24
s-45.666 -38.667 -60.999 -68s-23 -62 -23 -98c0 -46.667 12.167 -83.5 36.5 -110.5s57.5 -40.5 99.5 -40.5z" />
    <glyph glyph-name="A" unicode="A" horiz-adv-x="751" 
d="M341 760h68l312 -760h-67l-98 243h-366l-97 -243h-63zM535 295l-161 405l-163 -405h324z" />
    <glyph glyph-name="B" unicode="B" horiz-adv-x="712" 
d="M122 760l243 0.00195312c74 0 131.333 -16.5 172 -49.5s61 -79.5 61 -139.5c0 -38.667 -9.83301 -72.834 -29.5 -102.501s-47.5 -51.5 -83.5 -65.5c47.333 -10 84.5 -32 111.5 -66s40.5 -75.333 40.5 -124c0 -68.667 -21.667 -121.334 -65 -158.001
s-105.333 -55 -186 -55h-264v760zM181 53.002h203c62.667 0 110.167 13.667 142.5 41s48.5 67 48.5 119c0 105.333 -66 158 -198 158h-196v-318zM181 424.002h182c115.333 0 173 48.333 173 145c0 92 -59.667 138 -179 138h-176v-283z" />
    <glyph glyph-name="C" unicode="C" horiz-adv-x="772" 
d="M460 -11c-73.333 0 -139.498 16.0029 -198.498 48.0029s-105.833 77.5 -140.5 136.5s-52 127.167 -52 204.5c0 74.667 16.167 141.667 48.5 201s78.833 106.166 139.5 140.499s131 51.5 211 51.5c38.667 0 77.834 -5.16699 117.501 -15.5s75.5 -24.5 107.5 -42.5l-13 -56
c-74 38 -146.667 57 -218 57c-62.667 0 -118.834 -13.5 -168.501 -40.5s-88.834 -65.833 -117.501 -116.5s-43 -109.334 -43 -176.001c0 -64.667 13.333 -122.334 40 -173.001s65 -90.334 115 -119.001s108 -43 174 -43c38 0 77.167 4.83301 117.5 14.5
s77.166 22.834 110.499 39.501l9 -55c-34.667 -18 -72.667 -31.833 -114 -41.5s-83 -14.5 -125 -14.5z" />
    <glyph glyph-name="D" unicode="D" horiz-adv-x="847" 
d="M122 760h253c128 0 227.167 -33.167 297.5 -99.5s105.5 -159.833 105.5 -280.5c0 -122.667 -35.5 -216.667 -106.5 -282s-173.167 -98 -306.5 -98h-243v760zM184 55l183 -0.000976562c114.667 0 201.167 27.333 259.5 82s87.5 135.334 87.5 242.001
c0 107.333 -29.167 188.5 -87.5 243.5s-144.5 82.5 -258.5 82.5h-184v-650z" />
    <glyph glyph-name="E" unicode="E" horiz-adv-x="654" 
d="M122 760h440v-54h-378v-288h338v-53h-338v-311h393v-54h-455v760z" />
    <glyph glyph-name="F" unicode="F" horiz-adv-x="604" 
d="M122 760h424v-54h-362v-305h312v-54h-312v-347h-62v760z" />
    <glyph glyph-name="G" unicode="G" horiz-adv-x="827" 
d="M467 -11c-76 0 -144 15.6631 -204 46.9961s-107.333 76.333 -142 135s-52 127 -52 205c0 74.667 16.5 141.834 49.5 201.501s80 106.834 141 141.501s131.5 52 211.5 52c44 0 88 -5.16699 132 -15.5s82.667 -24.5 116 -42.5l-13 -55c-32 17.333 -69.5 31 -112.5 41
s-85.5 15 -127.5 15c-62 0 -118.167 -13.667 -168.5 -41s-90.333 -66.5 -120 -117.5s-44.5 -109.5 -44.5 -175.5c0 -65.333 13.333 -123.166 40 -173.499s65.5 -89.666 116.5 -117.999s110.833 -42.5 179.5 -42.5c74.667 0 143.334 13 206.001 39v248h-194v55h255v-341
c-78.667 -38.667 -168.334 -58 -269.001 -58z" />
    <glyph glyph-name="H" unicode="H" horiz-adv-x="859" 
d="M122 760h62v-336h491v336h62v-760h-62v371h-491v-371h-62v760z" />
    <glyph glyph-name="I" unicode="I" horiz-adv-x="306" 
d="M122 760h62v-760h-62v760z" />
    <glyph glyph-name="J" unicode="J" horiz-adv-x="544" 
d="M208 -16c-58.667 0 -112.001 13.333 -160.001 40l8 57c44 -26.667 94 -40 150 -40c56.667 0 97.834 14.667 123.501 44s38.5 76.666 38.5 141.999v533h61v-533c0 -81.333 -18.167 -142.166 -54.5 -182.499s-91.833 -60.5 -166.5 -60.5z" />
    <glyph glyph-name="K" unicode="K" horiz-adv-x="746" 
d="M122 760h62v-349l410 349h84l-430 -364l470 -396h-92l-442 374v-374h-62v760z" />
    <glyph glyph-name="L" unicode="L" horiz-adv-x="603" 
d="M122 760h62v-706h373v-54h-435v760z" />
    <glyph glyph-name="M" unicode="M" horiz-adv-x="1038" 
d="M147 760h63l310 -567l308 567h63l35 -760h-59l-32 663l-290 -534h-52l-291 529l-31 -658h-59z" />
    <glyph glyph-name="N" unicode="N" horiz-adv-x="877" 
d="M122 760h61l514 -672v672h58v-760h-61l-514 672v-672h-58v760z" />
    <glyph glyph-name="O" unicode="O" horiz-adv-x="908" 
d="M454 41c58.667 0 112.334 14 161.001 42s87.5 67.833 116.5 119.5s43.5 110.5 43.5 176.5c0 62.667 -13.333 119.667 -40 171s-64.5 92.333 -113.5 123s-104.833 46 -167.5 46c-58.667 0 -112.334 -14 -161.001 -42s-87.5 -67.833 -116.5 -119.5
s-43.5 -110.5 -43.5 -176.5c0 -62.667 13.333 -119.667 40 -171s64.5 -92.333 113.5 -123s104.833 -46 167.5 -46zM454 -16c-70 0 -134.166 16.5 -192.499 49.5s-105 79.833 -140 140.5s-52.5 129 -52.5 205c0 72 16.167 138 48.5 198s78.166 108.167 137.499 144.5
s126 54.5 200 54.5c70 0 134 -16.667 192 -50s104.5 -80.333 139.5 -141s52.5 -129 52.5 -205c0 -71.333 -16.167 -137 -48.5 -197s-78 -108.167 -137 -144.5s-125.5 -54.5 -199.5 -54.5z" />
    <glyph glyph-name="P" unicode="P" horiz-adv-x="637" 
d="M122 760l206 0.000976562c49.333 0 93 -9 131 -27s67.667 -44 89 -78s32 -74 32 -120c0 -70.667 -23.5 -126.834 -70.5 -168.501s-110.833 -62.5 -191.5 -62.5h-136v-304h-60v760zM182 358.001h126.001c68 0 119.833 15 155.5 45s53.5 73.333 53.5 130
c0 54.667 -17.333 97.167 -52 127.5s-83.334 45.5 -146.001 45.5h-137v-348z" />
    <glyph glyph-name="Q" unicode="Q" horiz-adv-x="908" 
d="M682 -182l-151.999 174c-28.667 -5.33301 -54 -8 -76 -8c-70 0 -134.167 16.5 -192.5 49.5s-105 79.833 -140 140.5s-52.5 129 -52.5 205c0 72 16.167 138 48.5 198s78.166 108.167 137.499 144.5s126 54.5 200 54.5c70 0 134 -16.667 192 -50s104.5 -80.333 139.5 -141
s52.5 -129 52.5 -205c0 -54.667 -9.66699 -106.5 -29 -155.5s-47.5 -92.333 -84.5 -130s-80.833 -66.167 -131.5 -85.5l170 -191h-82zM454.001 41c58.667 0 112.334 14 161.001 42s87.5 67.833 116.5 119.5s43.5 110.5 43.5 176.5c0 62.667 -13.333 119.667 -40 171
s-64.5 92.333 -113.5 123s-104.833 46 -167.5 46c-58.667 0 -112.334 -14 -161.001 -42s-87.5 -67.833 -116.5 -119.5s-43.5 -110.5 -43.5 -176.5c0 -62.667 13.333 -119.667 40 -171s64.5 -92.333 113.5 -123s104.833 -46 167.5 -46z" />
    <glyph glyph-name="R" unicode="R" horiz-adv-x="697" 
d="M122 760h208c76 0 136.833 -20 182.5 -60s68.5 -93.333 68.5 -160c0 -49.333 -12.833 -92 -38.5 -128s-62.167 -62.333 -109.5 -79l221 -333h-74l-207 319c-14 -2 -31.333 -3 -52 -3h-139v-316h-60v760zM182 370l128.001 -0.000976562
c67.333 0 118.666 14.333 153.999 43s53 70.334 53 125.001c0 54 -16.833 95.5 -50.5 124.5s-81.5 43.5 -143.5 43.5h-141v-336z" />
    <glyph glyph-name="S" unicode="S" horiz-adv-x="656" 
d="M308 -16c-43.333 0 -85.999 5.66406 -127.999 16.9971s-77 26.333 -105 45l9 57c31.333 -20 66.666 -35.833 105.999 -47.5s78 -17.5 116 -17.5c62 0 111 13.667 147 41s54 64.333 54 111c0 30 -6.33301 54.5 -19 73.5s-33.5 36.167 -62.5 51.5s-69.833 32 -122.5 50
c-77.333 26 -132.166 55.167 -164.499 87.5s-48.5 74.5 -48.5 126.5c0 60 21.5 107.833 64.5 143.5s100.833 53.5 173.5 53.5c36 0 72 -4.33301 108 -13s69 -21 99 -37l-12 -54c-66.667 33.333 -131.667 50 -195 50c-55.333 0 -98.833 -12.333 -130.5 -37
s-47.5 -58.667 -47.5 -102c0 -27.333 5.5 -50.166 16.5 -68.499s29.167 -34.666 54.5 -48.999s60.666 -29.166 105.999 -44.499c61.333 -20.667 109.333 -41.667 144 -63s59.5 -45 74.5 -71s22.5 -56.667 22.5 -92c0 -64.667 -23.5 -116 -70.5 -154s-110.167 -57 -189.5 -57
z" />
    <glyph glyph-name="T" unicode="T" horiz-adv-x="672" 
d="M305 706h-260v54h582v-54h-260v-706h-62v706z" />
    <glyph glyph-name="U" unicode="U" horiz-adv-x="850" 
d="M424 -16c-98.667 0 -174.833 27.667 -228.5 83s-80.5 134 -80.5 236v457h61v-449c0 -89.333 21 -156.666 63 -201.999s104 -68 186 -68s144 22.667 186 68s63 112.666 63 201.999v449h61v-457c0 -102 -27 -180.667 -81 -236s-130.667 -83 -230 -83z" />
    <glyph glyph-name="V" unicode="V" horiz-adv-x="741" 
d="M35 760h68l269 -695l270 695h64l-300 -760h-70z" />
    <glyph glyph-name="W" unicode="W" horiz-adv-x="1100" 
d="M37 760h67l205 -686l210 676h64l209 -676l207 686h64l-236 -760h-66l-212 672l-209 -672h-68z" />
    <glyph glyph-name="X" unicode="X" horiz-adv-x="719" 
d="M324 398l-264 362h74l228 -318l230 318h69l-265 -362l291 -398h-74l-255 354l-256 -354h-70z" />
    <glyph glyph-name="Y" unicode="Y" horiz-adv-x="679" 
d="M308 337l-279 423h71l240 -372l244 372h66l-280 -424v-336h-62v337z" />
    <glyph glyph-name="Z" unicode="Z" horiz-adv-x="700" 
d="M62 53l487 653h-462v54h533v-53l-487 -653h495v-54h-566v53z" />
    <glyph glyph-name="bracketleft" unicode="[" horiz-adv-x="374" 
d="M108 820h225v-49h-170v-855h170v-49h-225v953z" />
    <glyph glyph-name="backslash" unicode="\" horiz-adv-x="505" 
d="M15 810h62l412 -943h-61z" />
    <glyph glyph-name="bracketright" unicode="]" horiz-adv-x="374" 
d="M41 -84h170v855h-170v49h225v-953h-225v49z" />
    <glyph glyph-name="asciicircum" unicode="^" horiz-adv-x="620" 
d="M287 696h52l201 -369h-61l-167 313l-173 -313h-59z" />
    <glyph glyph-name="underscore" unicode="_" horiz-adv-x="500" 
d="M0 -64h500v-53h-500v53z" />
    <glyph glyph-name="grave" unicode="`" horiz-adv-x="500" 
d="M154 773h69l123 -174h-57z" />
    <glyph glyph-name="a" unicode="a" horiz-adv-x="558" 
d="M232 -16c-52 0 -94.334 14.001 -127.001 42.001s-49 64.333 -49 109c0 50.667 18 90.667 54 120s85 44 147 44c26.667 0 53.5 -2.83301 80.5 -8.5s50.833 -13.167 71.5 -22.5v20c0 54.667 -13.5 96 -40.5 124s-66.833 42 -119.5 42c-58.667 0 -111.667 -18 -159 -54
l-7 50c20.667 16.667 46.5 30 77.5 40s62.5 15 94.5 15c66.667 0 118.334 -18.333 155.001 -55s55 -88 55 -154v-296h-54l-1 80c-16.667 -30.667 -40.5 -54.334 -71.5 -71.001s-66.5 -25 -106.5 -25zM239.999 34.001c31.333 0 59.833 7.66699 85.5 23s46 37.166 61 65.499
s22.5 60.833 22.5 97.5c-42.667 20 -92 30 -148 30c-46.667 0 -83.167 -9.66699 -109.5 -29s-39.5 -46.666 -39.5 -81.999c0 -32 11.5 -57.5 34.5 -76.5s54.167 -28.5 93.5 -28.5z" />
    <glyph glyph-name="b" unicode="b" horiz-adv-x="654" 
d="M347 -16c-42 0 -80.168 9.66895 -114.501 29.002s-60.833 45.666 -79.5 78.999l-1 -92h-56v810h58v-413c18.667 34 45.167 60.5 79.5 79.5s73.833 28.5 118.5 28.5c45.333 0 86.333 -10.833 123 -32.5s65.834 -52.334 87.501 -92.001s32.5 -84.834 32.5 -135.501
c0 -46.667 -10.5 -89.667 -31.5 -129s-50.5 -71.166 -88.5 -95.499s-80.667 -36.5 -128 -36.5zM341.999 36.002c35.333 0 67.668 8.50195 97.001 25.502s52.666 41.5 69.999 73.5s26 68.667 26 110c0 38.667 -7.83301 73.667 -23.5 105s-38.167 56.333 -67.5 75
s-63.333 28 -102 28c-36 0 -68.5 -8.5 -97.5 -25.5s-52.167 -41.333 -69.5 -73s-26 -68.167 -26 -109.5c0 -38.667 8 -73.834 24 -105.501s38.667 -56.834 68 -75.501s63 -28 101 -28z" />
    <glyph glyph-name="c" unicode="c" horiz-adv-x="530" 
d="M322 -15c-50.667 0 -95.832 10.499 -135.499 31.499s-70.834 51 -93.501 90s-34 84.5 -34 136.5c0 48.667 10.667 92.667 32 132s51.833 70.5 91.5 93.5s85.167 34.5 136.5 34.5c59.333 0 109 -12 149 -36l-9 -51c-20 11.333 -42.167 20 -66.5 26s-48.833 9 -73.5 9
c-38.667 0 -73 -8.33301 -103 -25s-53.667 -40.667 -71 -72s-26 -67.666 -26 -108.999c0 -62.667 18.667 -113 56 -151s87 -57 149 -57c52 0 101.333 12.667 148 38l7 -49c-20 -12.667 -44 -22.667 -72 -30s-56.333 -11 -85 -11z" />
    <glyph glyph-name="d" unicode="d" horiz-adv-x="654" 
d="M302 -16c-45.333 0 -86.332 10.832 -122.999 32.499s-65.834 52.334 -87.501 92.001s-32.5 84.834 -32.5 135.501c0 46.667 10.5 89.667 31.5 129s50.5 71.166 88.5 95.499s80.667 36.5 128 36.5c41.333 0 79.333 -9.66699 114 -29s61 -45.333 79 -78v412h58v-810h-56
l-2 92c-18.667 -34 -45.167 -60.5 -79.5 -79.5s-73.833 -28.5 -118.5 -28.5zM312.001 35.999c36 0 68.498 8.49805 97.498 25.498s52.167 41.333 69.5 73s26 68.167 26 109.5c0 38.667 -8 73.834 -24 105.501s-38.667 56.834 -68 75.501s-63 28 -101 28
c-35.333 0 -67.666 -8.5 -96.999 -25.5s-52.666 -41.5 -69.999 -73.5s-26 -68.667 -26 -110c0 -38.667 7.83301 -73.667 23.5 -105s38.167 -56.333 67.5 -75s63.333 -28 102 -28z" />
    <glyph glyph-name="e" unicode="e" horiz-adv-x="577" 
d="M326 -16c-80.667 0 -145.335 23.4971 -194.002 70.4971s-73 109.5 -73 187.5c0 48.667 9.83301 92.834 29.5 132.501s47.834 71.334 84.501 95.001s78.334 35.5 125.001 35.5c41.333 0 78.333 -9.66699 111 -29s58.334 -46.833 77.001 -82.5s28 -77.167 28 -124.5
c0 -11.333 -1 -25 -3 -41h-395c2.66699 -59.333 22.834 -106.166 60.501 -140.499s88.5 -51.5 152.5 -51.5c61.333 0 116.666 13.667 165.999 41l8 -50c-20.667 -13.333 -46.834 -23.833 -78.501 -31.5s-64.5 -11.5 -98.5 -11.5zM457.999 277.997
c-1.33301 54 -16.668 96.833 -46.001 128.5s-68.333 47.5 -117 47.5c-47.333 0 -87.166 -16 -119.499 -48s-51.833 -74.667 -58.5 -128h341z" />
    <glyph glyph-name="f" unicode="f" horiz-adv-x="388" 
d="M133 438h-103.001v51h103v93c0 76.667 16 134.667 48 174s78.667 59 140 59c37.333 0 70 -6.66699 98 -20l-7 -50c-31.333 12.667 -60.666 19 -87.999 19c-45.333 0 -78.833 -15.333 -100.5 -46s-32.5 -78.667 -32.5 -144v-85h166v-51h-166v-438h-58v438z" />
    <glyph glyph-name="g" unicode="g" horiz-adv-x="568" 
d="M277 -255c-73.333 0 -130.332 12.8359 -170.999 38.5029s-61 61.5 -61 107.5c0 31.333 8.66699 58.333 26 81s41.666 39 72.999 49c-22.667 4.66699 -40.5 14.334 -53.5 29.001s-19.5 32 -19.5 52c0 19.333 6.33301 37.166 19 53.499s31 30.166 55 41.499
c-23.333 15.333 -41 34.5 -53 57.5s-18 49.167 -18 78.5c0 51.333 18.667 92.833 56 124.5s86.333 47.5 147 47.5c18 0 36.667 -2.16699 56 -6.5s35.333 -9.83301 48 -16.5l157 8v-51l-107 4c32.667 -30 49 -66.667 49 -110c0 -52 -18.5 -93.667 -55.5 -125
s-86.167 -47 -147.5 -47c-35.333 0 -67 5.66699 -95 17c-18 -8.66699 -31.667 -18.667 -41 -30s-14 -23.333 -14 -36c0 -20.667 8.5 -35.334 25.5 -44.001s46.833 -13 89.5 -13h50c148 0 222 -49.333 222 -148c0 -50.667 -21 -90.334 -63 -119.001s-100 -43 -174 -43z
M283.001 -206.997c54.667 0 97.1689 9.66699 127.502 29s45.5 46.666 45.5 81.999c0 36 -13.333 62 -40 78s-69.334 24 -128.001 24h-25c-52.667 0 -92.834 -9.16699 -120.501 -27.5s-41.5 -45.166 -41.5 -80.499c0 -34 15.667 -60 47 -78s76.333 -27 135 -27z
M277.003 210.003c45.333 0 81 11 107 33s39 52 39 90c0 37.333 -13.167 67.166 -39.5 89.499s-61.833 33.5 -106.5 33.5s-80.167 -11 -106.5 -33s-39.5 -52 -39.5 -90c0 -37.333 13.167 -67.166 39.5 -89.499s61.833 -33.5 106.5 -33.5z" />
    <glyph glyph-name="h" unicode="h" horiz-adv-x="603" 
d="M96 810l57.999 0.000976562v-399c17.333 30.667 40.833 54 70.5 70s63.834 24 102.501 24c58 0 103 -18.333 135 -55s48 -88.334 48 -155.001v-295h-58v286c0 111.333 -45.667 167 -137 167c-49.333 0 -88.5 -16.833 -117.5 -50.5s-43.5 -79.167 -43.5 -136.5v-266h-58
v810z" />
    <glyph glyph-name="i" unicode="i" horiz-adv-x="250" 
d="M96 489h58v-489h-58v489zM125 639c-12.667 0 -23.167 4.16699 -31.5 12.5s-12.5 18.833 -12.5 31.5s4.16699 23 12.5 31s18.833 12 31.5 12s23 -4 31 -12s12 -18.333 12 -31s-4 -23.167 -12 -31.5s-18.333 -12.5 -31 -12.5z" />
    <glyph glyph-name="j" unicode="j" horiz-adv-x="250" 
d="M-4 -255c-36 0 -68.668 7.66602 -98.001 22.999l6 50c28.667 -14.667 60.334 -22 95.001 -22c33.333 0 57.833 10 73.5 30s23.5 51.667 23.5 95v568h58v-567c0 -59.333 -13 -103.666 -39 -132.999s-65.667 -44 -119 -44zM124.999 638.999
c-12.667 0 -23.167 4.16699 -31.5 12.5s-12.5 18.833 -12.5 31.5s4.16699 23 12.5 31s18.833 12 31.5 12s23 -4 31 -12s12 -18.333 12 -31s-4 -23.167 -12 -31.5s-18.333 -12.5 -31 -12.5z" />
    <glyph glyph-name="k" unicode="k" horiz-adv-x="549" 
d="M96 810h58v-522l249 201h80l-271 -216l311 -273h-82l-287 253v-253h-58v810z" />
    <glyph glyph-name="l" unicode="l" horiz-adv-x="250" 
d="M96 810h58v-810h-58v810z" />
    <glyph glyph-name="m" unicode="m" horiz-adv-x="936" 
d="M96 489h54l1 -84c16.667 31.333 40 55.833 70 73.5s63.667 26.5 101 26.5c40 0 74 -10 102 -30s48 -49 60 -87c14.667 36.667 38 65.334 70 86.001s69 31 111 31c56.667 0 100.5 -18.333 131.5 -55s46.5 -88.334 46.5 -155.001v-295h-58v286c0 111.333 -44 167 -132 167
c-47.333 0 -85 -17 -113 -51s-42 -79.667 -42 -137v-265h-58v286c0 111.333 -43.667 167 -131 167c-47.333 0 -85 -16.833 -113 -50.5s-42 -79.167 -42 -136.5v-266h-58v489z" />
    <glyph glyph-name="n" unicode="n" horiz-adv-x="603" 
d="M96 489l54.002 0.000976562l1 -83c17.333 32 41.166 56.5 71.499 73.5s65.166 25.5 104.499 25.5c58 0 103 -18.333 135 -55s48 -88.334 48 -155.001v-295h-58v286c0 111.333 -45.667 167 -137 167c-49.333 0 -88.5 -16.833 -117.5 -50.5s-43.5 -79.167 -43.5 -136.5
v-266h-58v489z" />
    <glyph glyph-name="o" unicode="o" horiz-adv-x="624" 
d="M312 -16c-46.667 0 -89 10.833 -127 32.5s-68.5 52.334 -91.5 92.001s-34.5 84.834 -34.5 135.501c0 46.667 10.667 89.667 32 129s51.333 71.166 90 95.499s82.334 36.5 131.001 36.5c46.667 0 89 -10.833 127 -32.5s68.5 -52.334 91.5 -92.001
s34.5 -84.834 34.5 -135.501c0 -46.667 -10.667 -89.667 -32 -129s-51.333 -71.166 -90 -95.499s-82.334 -36.5 -131.001 -36.5zM312 36c35.333 0 67.666 8.5 96.999 25.5s52.666 41.5 69.999 73.5s26 68.667 26 110c0 38.667 -7.83301 73.667 -23.5 105
s-38.167 56.333 -67.5 75s-63.333 28 -102 28c-35.333 0 -67.666 -8.5 -96.999 -25.5s-52.666 -41.5 -69.999 -73.5s-26 -68.667 -26 -110c0 -38.667 7.83301 -73.667 23.5 -105s38.167 -56.333 67.5 -75s63.333 -28 102 -28z" />
    <glyph glyph-name="p" unicode="p" horiz-adv-x="656" 
d="M98 489l55.9971 0.000976562l1 -92c18.667 34 45.334 60.5 80.001 79.5s74.334 28.5 119.001 28.5c45.333 0 86.333 -10.833 123 -32.5s65.834 -52.334 87.501 -92.001s32.5 -84.834 32.5 -135.501c0 -46.667 -10.5 -89.667 -31.5 -129s-50.5 -71.166 -88.5 -95.499
s-80.667 -36.5 -128 -36.5c-42 0 -80.333 9.66699 -115 29s-60.667 45.333 -78 78v-336h-58v734zM343.997 36.001c35.333 0 67.668 8.50195 97.001 25.502s52.666 41.5 69.999 73.5s26 68.667 26 110c0 38.667 -7.83301 73.667 -23.5 105s-38.167 56.333 -67.5 75
s-63.333 28 -102 28c-36 0 -68.5 -8.5 -97.5 -25.5s-52.167 -41.333 -69.5 -73s-26 -68.167 -26 -109.5c0 -38.667 8 -73.834 24 -105.501s38.667 -56.834 68 -75.501s63 -28 101 -28z" />
    <glyph glyph-name="q" unicode="q" horiz-adv-x="654" 
d="M500 -245l0.00292969 335.998c-18.667 -34 -45.334 -60.333 -80.001 -79s-74 -28 -118 -28c-45.333 0 -86.333 10.833 -123 32.5s-65.834 52.334 -87.501 92.001s-32.5 84.834 -32.5 135.501c0 46.667 10.5 89.667 31.5 129s50.5 71.166 88.5 95.499
s80.667 36.5 128 36.5c41.333 0 79.166 -9.66699 113.499 -29s60.833 -45.666 79.5 -78.999l2 92h56v-734h-58zM312.003 35.998c36 0 68.498 8.49805 97.498 25.498s52.167 41.333 69.5 73s26 68.167 26 109.5c0 38.667 -8 73.834 -24 105.501s-38.667 56.834 -68 75.501
s-63 28 -101 28c-35.333 0 -67.666 -8.5 -96.999 -25.5s-52.666 -41.5 -69.999 -73.5s-26 -68.667 -26 -110c0 -38.667 7.83301 -73.667 23.5 -105s38.167 -56.333 67.5 -75s63.333 -28 102 -28z" />
    <glyph glyph-name="r" unicode="r" horiz-adv-x="402" 
d="M96 489h55.002v-97c39.333 69.333 93 104 161 104c23.333 0 41.666 -3.33301 54.999 -10l-6 -54c-20 6.66699 -39 10 -57 10c-46.667 0 -83.334 -18.667 -110.001 -56s-40 -89 -40 -155v-231h-58v489z" />
    <glyph glyph-name="s" unicode="s" horiz-adv-x="459" 
d="M215 -16c-31.333 0 -62 4.33398 -92 13.001s-54.333 20 -73 34l8 53c21.333 -15.333 46.333 -27.5 75 -36.5s56 -13.5 82 -13.5c40.667 0 72.834 7.66699 96.501 23s35.5 36.666 35.5 63.999c0 18.667 -4.16699 33.334 -12.5 44.001s-22.333 20.5 -42 29.5
s-48.167 19.5 -85.5 31.5c-52.667 16.667 -90.167 36.167 -112.5 58.5s-33.5 51.166 -33.5 86.499c0 40.667 15.5 73.167 46.5 97.5s72.833 36.5 125.5 36.5c25.333 0 51.5 -3.5 78.5 -10.5s50.5 -16.5 70.5 -28.5l-9 -51c-20 12.667 -42.333 22.5 -67 29.5
s-49.334 10.5 -74.001 10.5c-36.667 0 -65 -7 -85 -21s-30 -33.333 -30 -58c0 -24 8.5 -43.333 25.5 -58s46.5 -28 88.5 -40c64 -18 109 -38.5 135 -61.5s39 -53.833 39 -92.5c0 -42.667 -17.167 -76.667 -51.5 -102s-80.5 -38 -138.5 -38z" />
    <glyph glyph-name="t" unicode="t" horiz-adv-x="427" 
d="M282 -16c-52 0 -90.332 14.333 -114.999 43s-37 73.667 -37 135v276h-114v51h114v155h58v-155h180v-51h-180v-263c0 -50.667 7.83301 -86.667 23.5 -108s42.167 -32 79.5 -32c34 0 67 9 99 27l8 -49c-14.667 -9.33301 -32.334 -16.5 -53.001 -21.5s-41.667 -7.5 -63 -7.5
z" />
    <glyph glyph-name="u" unicode="u" horiz-adv-x="601" 
d="M275 -16c-58 0 -102.833 18.333 -134.5 55s-47.5 88.334 -47.5 155.001v295h58v-286c0 -111.333 45.333 -167 136 -167c48.667 0 87.5 16.833 116.5 50.5s43.5 79.167 43.5 136.5v266h58v-489h-54l-1 83c-17.333 -32.667 -41 -57.334 -71 -74.001s-64.667 -25 -104 -25z
" />
    <glyph glyph-name="v" unicode="v" horiz-adv-x="528" 
d="M29 489h63l175 -424l173 424h59l-205 -489h-58z" />
    <glyph glyph-name="w" unicode="w" horiz-adv-x="797" 
d="M29 489h62l144 -423l136 417h52l139 -417l147 423h59l-177 -489h-56l-139 416l-136 -416h-56z" />
    <glyph glyph-name="x" unicode="x" horiz-adv-x="536" 
d="M233 252l-182 237h70l148 -197l148 197h65l-181 -235l200 -254h-70l-166 214l-164 -214h-66z" />
    <glyph glyph-name="y" unicode="y" horiz-adv-x="541" 
d="M79 -255c-12 0 -23.999 1.5 -35.999 4.5s-21.667 7.16699 -29 12.5l8 52c6.66699 -4.66699 15.167 -8.5 25.5 -11.5s20.5 -4.5 30.5 -4.5c22 0 41.167 5.83301 57.5 17.5s32 30.167 47 55.5s30.833 59 47.5 101l14 36l-217 481h63l185 -420l168 420h64l-220 -524
c-24 -56.667 -46.333 -101 -67 -133s-41.834 -54.5 -63.501 -67.5s-47.5 -19.5 -77.5 -19.5z" />
    <glyph glyph-name="z" unicode="z" horiz-adv-x="507" 
d="M55 48l315 390h-304v51h373v-48l-317 -391h324v-50h-391v48z" />
    <glyph glyph-name="braceleft" unicode="{" horiz-adv-x="423" 
d="M314 -145c-54.667 0 -94.834 11.1621 -120.501 33.4951s-38.5 57.5 -38.5 105.5c0.666992 23.333 3.66699 48 9 74l16.5 78.5c5.66699 26.333 8.83398 51.833 9.50098 76.5c0 32 -8.5 54.833 -25.5 68.5s-44.833 20.5 -83.5 20.5h-22v53h22
c39.333 0 67.333 6.83301 84 20.5s25 36.167 25 67.5c-0.666992 24.667 -3.66699 50.167 -9 76.5l-16.5 78.5c-5.66699 26 -8.83398 50.667 -9.50098 74c0 48 12.833 83.167 38.5 105.5s65.834 33.5 120.501 33.5c10.667 0 26 -0.666992 46 -2v-46
c-5.33301 0.666992 -21 1 -47 1c-36.667 0 -63.167 -7.16699 -79.5 -21.5s-24.5 -37.166 -24.5 -68.499c0 -15.333 1.83301 -32.333 5.5 -51l12 -59c4.33301 -20.667 8.33301 -41 12 -61s5.5 -39 5.5 -57c0 -30.667 -7.16699 -56.167 -21.5 -76.5
s-35.166 -34.166 -62.499 -41.499c27.333 -7.33301 48.166 -21 62.499 -41s21.5 -45.667 21.5 -77c0 -17.333 -1.83301 -36.166 -5.5 -56.499s-7.66699 -40.666 -12 -60.999s-8.33301 -40 -12 -59s-5.5 -36.167 -5.5 -51.5c0 -31.333 8.16699 -54.166 24.5 -68.499
s42.833 -21.5 79.5 -21.5c26 0 41.667 0.333008 47 1v-46c-20 -1.33301 -35.333 -2 -46 -2z" />
    <glyph glyph-name="bar" unicode="|" horiz-adv-x="271" 
d="M106 866h58v-1093h-58v1093z" />
    <glyph glyph-name="braceright" unicode="}" horiz-adv-x="423" 
d="M109 -145c-10.667 0 -26 0.671875 -46 2.00488v46c5.33301 -0.666992 21 -1 47 -1c36.667 0 63.167 7.16699 79.5 21.5s24.5 37.166 24.5 68.499c0 15.333 -1.83301 32.333 -5.5 51l-12 59c-4.33301 20.667 -8.33301 41 -12 61s-5.5 39 -5.5 57
c0 30.667 7.16699 56.167 21.5 76.5s35.166 34.166 62.499 41.499c-27.333 7.33301 -48.166 21 -62.499 41s-21.5 45.667 -21.5 77c0 17.333 1.83301 36.166 5.5 56.499s7.66699 40.666 12 60.999s8.33301 40 12 59s5.5 36.167 5.5 51.5
c0 31.333 -8.16699 54.166 -24.5 68.499s-42.833 21.5 -79.5 21.5c-26 0 -41.667 -0.333008 -47 -1v46c20 1.33301 35.333 2 46 2c54.667 0 94.834 -11.167 120.501 -33.5s38.5 -57.5 38.5 -105.5c-0.666992 -23.333 -3.66699 -48 -9 -74l-16.5 -78.5
c-5.66699 -26.333 -8.83398 -51.833 -9.50098 -76.5c0 -32 8.5 -54.833 25.5 -68.5s44.833 -20.5 83.5 -20.5h22v-53h-22c-39.333 0 -67.333 -6.83301 -84 -20.5s-25 -36.167 -25 -67.5c0.666992 -24.667 3.83398 -50.167 9.50098 -76.5l16.5 -78.5
c5.33301 -26 8.33301 -50.667 9 -74c0 -48 -12.833 -83.167 -38.5 -105.5s-65.834 -33.5 -120.501 -33.5z" />
    <glyph glyph-name="asciitilde" unicode="~" horiz-adv-x="620" 
d="M424 255c-19.333 0 -38.667 4.66504 -58 13.998s-41.666 25 -66.999 47c-26.667 22.667 -47 37.834 -61 45.501s-28 11.5 -42 11.5c-23.333 0 -41 -9.5 -53 -28.5s-18.333 -48.833 -19 -89.5h-51v8c0.666992 51.333 11.667 91.333 33 120s50.666 43 87.999 43
c19.333 0 38.833 -4.66699 58.5 -14s42.167 -24.666 67.5 -45.999c24.667 -22 44.5 -37.167 59.5 -45.5s29.5 -12.5 43.5 -12.5c23.333 0 40.833 9.5 52.5 28.5s18.167 48.833 19.5 89.5h51v-8c-0.666992 -51.333 -11.667 -91.333 -33 -120s-51 -43 -89 -43z" />
    <glyph glyph-name="uni00A0" unicode="&#xa0;" horiz-adv-x="225" 
 />
    <glyph glyph-name="exclamdown" unicode="&#xa1;" horiz-adv-x="274" 
d="M111 278h51l5 -570h-61zM137 505c13.333 0 24.5 -4.5 33.5 -13.5s13.5 -20.167 13.5 -33.5s-4.5 -24.5 -13.5 -33.5s-20.167 -13.5 -33.5 -13.5s-24.5 4.5 -33.5 13.5s-13.5 20.167 -13.5 33.5s4.66699 24.5 14 33.5s20.333 13.5 33 13.5z" />
    <glyph glyph-name="cent" unicode="&#xa2;" horiz-adv-x="620" 
d="M310 -130l-0.000976562 127.002c-40.667 7.33301 -76.167 22.166 -106.5 44.499s-53.833 51.166 -70.5 86.499s-25 75 -25 119c0 64.667 18.333 120.167 55 166.5s85.667 75.5 147 87.5v129h46v-125c55.333 -1.33301 102.333 -13.333 141 -36l-9 -51
c-40.667 22.667 -84.667 34.667 -132 36v-409c50.667 0 99.334 12.667 146.001 38l7 -49c-18.667 -12 -41.5 -21.5 -68.5 -28.5s-55.167 -10.833 -84.5 -11.5v-124h-46zM309.999 449.002c-44 -11.333 -78.833 -35.001 -104.5 -71.001s-38.5 -79 -38.5 -129
c0 -50.667 12.667 -93.667 38 -129s60.333 -58.666 105 -69.999v399z" />
    <glyph glyph-name="sterling" unicode="&#xa3;" horiz-adv-x="620" 
d="M82 51l97.999 -0.000976562v289h-94v50h94v85c0 92.667 19.5 163.334 58.5 212.001s95.833 73 170.5 73c49.333 0 95.333 -10.667 138 -32l-11 -51c-41.333 20.667 -84.333 31 -129 31c-57.333 0 -100.166 -19.5 -128.499 -58.5s-42.5 -98.833 -42.5 -179.5v-80h219v-50
h-219v-289h319v-51h-473v51z" />
    <glyph glyph-name="currency" unicode="&#xa4;" horiz-adv-x="620" 
d="M68 220l75 75.999c-24 35.333 -36 75.666 -36 120.999c0 46.667 12 87.334 36 122.001l-75 76l35 32l71 -73c18 16.667 38.833 29.667 62.5 39s48.167 14 73.5 14s49.833 -4.66699 73.5 -14s44.5 -22.333 62.5 -39l71 73l35 -32l-76 -77c24.667 -34 37 -74.333 37 -121
c0 -45.333 -12 -85.666 -36 -120.999l75 -76l-35 -32l-71 72c-38.667 -34.667 -84 -52 -136 -52c-25.333 0 -50 4.5 -74 13.5s-45 21.833 -63 38.5l-70 -72zM310 251.999c28.667 0 54.501 6.83301 77.501 20.5s41.333 33.167 55 58.5s20.5 54 20.5 86
c0 48 -14.333 87.5 -43 118.5s-65.334 46.5 -110.001 46.5s-81.167 -15.5 -109.5 -46.5s-42.5 -70.5 -42.5 -118.5s14.167 -87.5 42.5 -118.5s64.833 -46.5 109.5 -46.5z" />
    <glyph glyph-name="yen" unicode="&#xa5;" horiz-adv-x="620" 
d="M283 167h-205v49h205v114h-205v49h177l-219 365h66l209 -362l209 362h64l-218 -365h177v-49h-204v-114h204v-49h-204v-167h-56v167z" />
    <glyph glyph-name="brokenbar" unicode="&#xa6;" horiz-adv-x="270" 
d="M106 218h58v-445h-58v445zM106 866h58v-445h-58v445z" />
    <glyph glyph-name="section" unicode="&#xa7;" horiz-adv-x="481" 
d="M220 -121c-29.333 0 -58.5039 4.16797 -87.5039 12.501s-53.167 19.833 -72.5 34.5l9 52c20.667 -16 44.334 -28.333 71.001 -37s53.667 -13 81 -13c40.667 0 73 9.83301 97 29.5s36 46.167 36 79.5c0 28 -10.5 50.667 -31.5 68s-57.5 33.666 -109.5 48.999
s-90.667 36.5 -116 63.5s-38 60.833 -38 101.5c0 38.667 11.833 72.167 35.5 100.5s54.834 46.833 93.501 55.5c-36.667 14.667 -64 33.167 -82 55.5s-27 49.5 -27 81.5c0 40.667 16 73.667 48 99s74 38 126 38c26.667 0 52.834 -3.33301 78.501 -10s48.167 -16 67.5 -28
l-9 -50c-41.333 26 -87.333 39 -138 39c-37.333 0 -66.666 -7.66699 -87.999 -23s-32 -36.333 -32 -63c0 -24.667 10 -45.5 30 -62.5s53.333 -33.5 100 -49.5c58 -20 99.333 -43.167 124 -69.5s37 -60.166 37 -101.499c0 -37.333 -10.833 -69.833 -32.5 -97.5
s-51.167 -46.834 -88.5 -57.501c36.667 -14.667 64 -33.167 82 -55.5s27 -49.5 27 -81.5c0 -48.667 -17.5 -87.5 -52.5 -116.5s-81.167 -43.5 -138.5 -43.5zM242.996 207.001c37.333 0 67.667 11.166 91 33.499s35 50.833 35 85.5c0 34 -12.167 62.167 -36.5 84.5
s-54.833 33.5 -91.5 33.5c-38 0 -69 -11.5 -93 -34.5s-36 -52.5 -36 -88.5c0 -33.333 12.167 -60.666 36.5 -81.999s55.833 -32 94.5 -32z" />
    <glyph glyph-name="dieresis" unicode="&#xa8;" horiz-adv-x="500" 
d="M160 642c-12 0 -21.667 3.83203 -29 11.499s-11 17.5 -11 29.5c0 12.667 3.83301 22.834 11.5 30.501s17.167 11.5 28.5 11.5c12 0 22 -4 30 -12s12 -18 12 -30s-4 -21.833 -12 -29.5s-18 -11.5 -30 -11.5zM339 641.999c-12 0 -21.833 3.83301 -29.5 11.5
s-11.5 17.5 -11.5 29.5s3.83301 22 11.5 30s17.5 12 29.5 12s21.833 -4 29.5 -12s11.5 -18 11.5 -30s-3.83301 -21.833 -11.5 -29.5s-17.5 -11.5 -29.5 -11.5z" />
    <glyph glyph-name="copyright" unicode="&#xa9;" horiz-adv-x="797" 
d="M415 199c-57.333 0 -103.165 16.833 -137.498 50.5s-51.5 78.167 -51.5 133.5c0 34.667 7.66699 66.167 23 94.5s37.166 50.833 65.499 67.5s60.833 25 97.5 25c39.333 0 74.333 -8 105 -24l-8 -50c-30.667 16 -63.334 24 -98.001 24c-38 0 -69 -12.667 -93 -38
s-36 -58 -36 -98c0 -40.667 12.167 -73.5 36.5 -98.5s56.5 -37.5 96.5 -37.5c32 0 66.333 9 103 27l8 -49c-30.667 -18 -67.667 -27 -111 -27zM399.001 33c-64 0 -122.332 14.499 -174.999 43.499s-94.667 70 -126 123s-47 113.167 -47 180.5
c0 63.333 14.5 121.333 43.5 174s70 94.667 123 126s113.5 47 181.5 47c64 0 122.167 -14.333 174.5 -43s94.166 -69.5 125.499 -122.5s47 -113.5 47 -181.5c0 -64 -14.5 -122.167 -43.5 -174.5s-70 -94.166 -123 -125.499s-113.167 -47 -180.5 -47zM399.002 79.999
c56 0 106.331 12.333 150.998 37s80.167 59.834 106.5 105.501s39.5 98.167 39.5 157.5c0 56 -12.167 106.667 -36.5 152s-59.166 81.333 -104.499 108s-97.333 40 -156 40c-56 0 -106.5 -12.333 -151.5 -37s-80.667 -59.834 -107 -105.501s-39.5 -98.167 -39.5 -157.5
c0 -56 12.167 -106.667 36.5 -152s59.333 -81.333 105 -108s97.834 -40 156.501 -40z" />
    <glyph glyph-name="ordfeminine" unicode="&#xaa;" horiz-adv-x="460" 
d="M219 408c-29.333 0 -56.499 7.49805 -81.499 22.498s-45.167 36 -60.5 63s-23 57.167 -23 90.5c0 30.667 7.16699 59.334 21.5 86.001s34.5 48.334 60.5 65.001s54.667 25 86 25c25.333 0 48.666 -5.5 69.999 -16.5s39.333 -26.833 54 -47.5l1 54h46v-332h-46l-1 53
c-30.667 -42 -73 -63 -127 -63zM76.001 327.998h321v-43h-321v43zM226.001 451.998c34.667 0 63.667 12.499 87 37.499s35 56.5 35 94.5s-11.5 69.5 -34.5 94.5s-51.833 37.5 -86.5 37.5s-63.667 -12.5 -87 -37.5s-35 -56.5 -35 -94.5c0 -37.333 11.5 -68.666 34.5 -93.999
s51.833 -38 86.5 -38z" />
    <glyph glyph-name="guillemotleft" unicode="&#xab;" horiz-adv-x="471" 
d="M35 257l141 208h66l-141 -208l141 -208h-66zM219 257l141 208h66l-141 -208l141 -208h-66z" />
    <glyph glyph-name="logicalnot" unicode="&#xac;" horiz-adv-x="620" 
d="M462 334h-359v53h415v-213h-56v160z" />
    <glyph glyph-name="uni00AD" unicode="&#xad;" horiz-adv-x="441" 
d="M78 313h285v-57h-285v57z" />
    <glyph glyph-name="registered" unicode="&#xae;" horiz-adv-x="508" 
d="M254 395c-37.333 0 -72.001 8.99902 -104.001 26.999s-57.833 43.167 -77.5 75.5s-29.5 68.5 -29.5 108.5c0 38 8.83301 72.833 26.5 104.5s42.834 57.334 75.501 77.001s69 29.5 109 29.5c38 0 73 -9 105 -27s57.667 -43.167 77 -75.5s29 -68.5 29 -108.5
c0 -37.333 -9 -72 -27 -104s-43.167 -57.833 -75.5 -77.5s-68.5 -29.5 -108.5 -29.5zM253.999 431.999c30.667 0 59 7.33301 85 22s47 35.334 63 62.001s24 56.667 24 90c0 31.333 -7.33301 60.166 -22 86.499s-35.167 47.5 -61.5 63.5s-55.833 24 -88.5 24
c-30.667 0 -59 -7.33301 -85 -22s-47 -35.334 -63 -62.001s-24 -56.667 -24 -90c0 -31.333 7.33301 -60.166 22 -86.499s35.167 -47.5 61.5 -63.5s55.833 -24 88.5 -24zM182.999 711.999h68c24.667 0 44 -5.66699 58 -17s21 -27 21 -47c0 -28 -12 -47.333 -36 -58l50 -80
h-42l-44 73h-39v-73h-36v202zM218.999 614.999h28c16 0 27.5 2.5 34.5 7.5s10.5 13.5 10.5 25.5c0 21.333 -14.667 32 -44 32h-29v-65z" />
    <glyph glyph-name="macron" unicode="&#xaf;" horiz-adv-x="500" 
d="M103 704h294v-51h-294v51z" />
    <glyph glyph-name="degree" unicode="&#xb0;" horiz-adv-x="500" 
d="M250 434c-30 0 -57.668 7.16797 -83.001 21.501s-45.666 34.5 -60.999 60.5s-23 55.667 -23 89c0 30 7.16699 58 21.5 84s34.333 46.833 60 62.5s54.167 23.5 85.5 23.5c30 0 57.667 -7.16699 83 -21.5s45.5 -34.5 60.5 -60.5s22.5 -55.333 22.5 -88
c0 -30.667 -7 -58.834 -21 -84.501s-33.667 -46.5 -59 -62.5s-54 -24 -86 -24zM249.999 481.001c32.667 0 60 11.6689 82 35.002s33 53 33 89c0 35.333 -11 64.666 -33 87.999s-49.333 35 -82 35c-33.333 0 -61 -11.833 -83 -35.5s-33 -52.834 -33 -87.501
c0 -36 11 -65.667 33 -89s49.667 -35 83 -35z" />
    <glyph glyph-name="plusminus" unicode="&#xb1;" horiz-adv-x="620" 
d="M88 54h444v-53h-444v53zM282 361h-194v53h194v198h56v-198h194v-53h-194v-197h-56v197z" />
    <glyph glyph-name="uni00B2" unicode="&#xb2;" 
d="M58 456l0.000976562 45c41.333 36 80.666 72.667 117.999 110c30.667 30 52.334 56 65.001 78s19 44.333 19 67c0 22 -7.5 39.667 -22.5 53s-34.833 20 -59.5 20c-40.667 0 -77 -17 -109 -51l-12 43c14 16 32.5 28.833 55.5 38.5s46.167 14.5 69.5 14.5
c37.333 0 67.833 -10.5 91.5 -31.5s35.5 -48.5 35.5 -82.5c0 -28.667 -7.83301 -57 -23.5 -85s-41.834 -59.667 -78.501 -95c-12 -12 -41 -38.333 -87 -79h204v-45h-266z" />
    <glyph glyph-name="uni00B3" unicode="&#xb3;" 
d="M163 446c-20 0 -40.001 2.5 -60.001 7.5s-36.333 11.833 -49 20.5l5 44c31.333 -20 66 -30 104 -30c32.667 0 58.167 8 76.5 24s27.5 38 27.5 66c0 24.667 -8.83301 44 -26.5 58s-42.167 21 -73.5 21c-14.667 0 -27.667 -2 -39 -6l-13 29l132 140h-183v44h238v-43
l-116 -125c38.667 -1.33301 69.834 -13 93.501 -35s35.5 -50 35.5 -84c0 -39.333 -13.833 -71 -41.5 -95s-64.5 -36 -110.5 -36z" />
    <glyph glyph-name="acute" unicode="&#xb4;" horiz-adv-x="500" 
d="M294 773h70l-136 -174h-57z" />
    <glyph glyph-name="mu" unicode="&#xb5;" horiz-adv-x="603" 
d="M95 489h58.001v-286c0 -111.333 45.333 -167 136 -167c48.667 0 87.5 16.833 116.5 50.5s43.5 79.167 43.5 136.5v266h58v-489h-54l-1 83c-16.667 -30.667 -39.667 -54.834 -69 -72.501s-61.333 -26.5 -96 -26.5c-30.667 0 -57.334 5.33301 -80.001 16
s-40.667 26.334 -54 47.001v-292h-58v734z" />
    <glyph glyph-name="paragraph" unicode="&#xb6;" horiz-adv-x="620" 
d="M269 -130l-0.000976562 494.999c-67.333 4.66699 -119.5 24.167 -156.5 58.5s-55.5 80.5 -55.5 138.5c0 62.667 21.333 111.334 64 146.001s102.334 52 179.001 52h214v-890h-56v837h-133v-837h-56z" />
    <glyph glyph-name="periodcentered" unicode="&#xb7;" horiz-adv-x="290" 
d="M145 332c-12.667 0 -23.667 4.66699 -33 14s-14 20.333 -14 33c0 13.333 4.5 24.5 13.5 33.5s20.167 13.5 33.5 13.5s24.5 -4.5 33.5 -13.5s13.5 -20.167 13.5 -33.5c0 -12.667 -4.5 -23.667 -13.5 -33s-20.167 -14 -33.5 -14z" />
    <glyph glyph-name="cedilla" unicode="&#xb8;" horiz-adv-x="500" 
d="M238 -255c-14.667 0 -29.8301 1.83301 -45.4971 5.5s-28.5 8.16699 -38.5 13.5l10 42c10 -5.33301 21.667 -9.5 35 -12.5s26.333 -4.5 39 -4.5c22 0 39.333 4.66699 52 14s19 22 19 38c0 15.333 -5.83301 27.5 -17.5 36.5s-27.834 13.5 -48.501 13.5
c-18 0 -32 -1.33301 -42 -4l32 123h42l-21 -82h5c29.333 0 53.166 -8 71.499 -24s27.5 -36.667 27.5 -62c0 -29.333 -10.833 -52.833 -32.5 -70.5s-50.834 -26.5 -87.501 -26.5z" />
    <glyph glyph-name="uni00B9" unicode="&#xb9;" 
d="M203 812l-124 -57l-8 45l138 64h43v-408h-49v356z" />
    <glyph glyph-name="ordmasculine" unicode="&#xba;" horiz-adv-x="451" 
d="M225 408c-32 0 -61 7.33301 -87 22s-46.667 35.5 -62 62.5s-23 57.5 -23 91.5c0 50 16.5 91.833 49.5 125.5s73.833 50.5 122.5 50.5c32 0 61 -7.33301 87 -22s46.833 -35.5 62.5 -62.5s23.5 -57.5 23.5 -91.5c0 -50 -16.5 -91.833 -49.5 -125.5
s-74.167 -50.5 -123.5 -50.5zM225 452c34.667 0 63.667 12.5 87 37.5s35 56.5 35 94.5s-11.5 69.5 -34.5 94.5s-51.833 37.5 -86.5 37.5s-63.667 -12.5 -87 -37.5s-35 -56.5 -35 -94.5s11.5 -69.5 34.5 -94.5s51.833 -37.5 86.5 -37.5zM64 328h322v-43h-322v43z" />
    <glyph glyph-name="guillemotright" unicode="&#xbb;" horiz-adv-x="471" 
d="M186 257l-141 208h66l141 -208l-141 -208h-66zM370 257l-141 208h66l141 -208l-141 -208h-66z" />
    <glyph glyph-name="onequarter" unicode="&#xbc;" horiz-adv-x="931" 
d="M747 744h63l-578 -744h-63zM789 104h-202v41l197 263h50v-263h56v-41h-56v-104h-45v104zM789 145v203l-153 -203h153zM203 692l-124 -57l-8 45l138 64h43v-408h-49v356z" />
    <glyph glyph-name="onehalf" unicode="&#xbd;" horiz-adv-x="931" 
d="M708 744h63l-578 -744h-63zM609 0l0.000976562 45c41.333 36 80.666 72.667 117.999 110c30.667 30 52.334 56 65.001 78s19 44.333 19 67c0 22 -7.5 39.667 -22.5 53s-34.833 20 -59.5 20c-40.667 0 -77 -17 -109 -51l-12 43c14 16 32.5 28.833 55.5 38.5
s46.167 14.5 69.5 14.5c37.333 0 67.833 -10.5 91.5 -31.5s35.5 -48.5 35.5 -82.5c0 -28.667 -7.83301 -57 -23.5 -85s-41.834 -59.667 -78.501 -95c-12 -12 -41 -38.333 -87 -79h204v-45h-266zM203.001 692l-124 -57l-8 45l138 64h43v-408h-49v356z" />
    <glyph glyph-name="threequarters" unicode="&#xbe;" horiz-adv-x="931" 
d="M750 744h63l-578 -744h-63zM789 104h-202v41l197 263h50v-263h56v-41h-56v-104h-45v104zM789 145v203l-153 -203h153zM163 326c-20 0 -40.001 2.5 -60.001 7.5s-36.333 11.833 -49 20.5l5 44c31.333 -20 66 -30 104 -30c32.667 0 58.167 8 76.5 24s27.5 38 27.5 66
c0 24.667 -8.83301 44 -26.5 58s-42.167 21 -73.5 21c-14.667 0 -27.667 -2 -39 -6l-13 29l132 140h-183v44h238v-43l-116 -125c38.667 -1.33301 69.834 -13 93.501 -35s35.5 -50 35.5 -84c0 -39.333 -13.833 -71 -41.5 -95s-64.5 -36 -110.5 -36z" />
    <glyph glyph-name="questiondown" unicode="&#xbf;" horiz-adv-x="470" 
d="M247 -302c-58.667 0 -106.334 16.333 -143.001 49s-55 75 -55 127c0 28.667 4.83301 53.5 14.5 74.5s22 39.833 37 56.5s30.833 32.667 47.5 48s32.5 31.5 47.5 48.5s27.333 36.5 37 58.5s14.5 48.333 14.5 79c0 12.667 -0.666992 25.667 -2 39h51c2 -12 3 -28 3 -48
c0 -32.667 -4.66699 -61 -14 -85s-21.333 -45 -36 -63s-30 -34.667 -46 -50l-46 -45.5c-14.667 -15 -26.667 -31.5 -36 -49.5s-14 -39 -14 -63c0 -37.333 13.333 -67.333 40 -90s62 -34 106 -34c67.333 0 127.333 29 180 87l15 -51c-21.333 -26.667 -50.166 -48 -86.499 -64
s-74.5 -24 -114.5 -24zM269 505c13.333 0 24.5 -4.5 33.5 -13.5s13.5 -20.167 13.5 -33.5s-4.5 -24.5 -13.5 -33.5s-20.167 -13.5 -33.5 -13.5s-24.5 4.5 -33.5 13.5s-13.5 20.167 -13.5 33.5s4.66699 24.5 14 33.5s20.333 13.5 33 13.5z" />
    <glyph glyph-name="Agrave" unicode="&#xc0;" horiz-adv-x="751" 
d="M341 760h68l312 -760h-67l-98 243h-366l-97 -243h-63zM535 295l-161 405l-163 -405h324zM229 964h79l136 -129h-65z" />
    <glyph glyph-name="Aacute" unicode="&#xc1;" horiz-adv-x="751" 
d="M341 760h68l312 -760h-67l-98 243h-366l-97 -243h-63zM535 295l-161 405l-163 -405h324zM442 964h79l-149 -129h-66z" />
    <glyph glyph-name="Acircumflex" unicode="&#xc2;" horiz-adv-x="751" 
d="M341 760h68l312 -760h-67l-98 243h-366l-97 -243h-63zM535 295l-161 405l-163 -405h324zM349 977h53l143 -142h-65l-105 103l-104 -103h-66z" />
    <glyph glyph-name="Atilde" unicode="&#xc3;" horiz-adv-x="751" 
d="M341 760h68l312 -760h-67l-98 243h-366l-97 -243h-63zM535 295l-161 405l-163 -405h324zM445 834c-16.667 0.666992 -31.3301 4.83398 -43.9971 12.501s-24.167 16.5 -34.5 26.5s-20.333 18.833 -30 26.5s-19.834 11.834 -30.501 12.501c-31.333 0 -47 -25.667 -47 -77
h-45c0 40.667 7.66699 71.667 23 93s37.666 32 66.999 32c17.333 -0.666992 32.333 -4.83398 45 -12.501s24.167 -16.667 34.5 -27s20.166 -19.333 29.499 -27s19.333 -11.834 30 -12.501c32 0 48 26 48 78h45c0 -40 -7.83301 -70.833 -23.5 -92.5
s-38.167 -32.5 -67.5 -32.5z" />
    <glyph glyph-name="Adieresis" unicode="&#xc4;" horiz-adv-x="751" 
d="M341 760h68l312 -760h-67l-98 243h-366l-97 -243h-63zM535 295l-161 405l-163 -405h324zM281 847c-12 0 -21.833 4 -29.5 12s-11.5 18 -11.5 30s3.83301 21.833 11.5 29.5s17.5 11.5 29.5 11.5c11.333 0 21 -3.83301 29 -11.5s12 -17.5 12 -29.5s-4 -22 -12 -30
s-17.667 -12 -29 -12zM469 847c-12 0 -21.833 4 -29.5 12s-11.5 18 -11.5 30s3.83301 21.833 11.5 29.5s17.5 11.5 29.5 11.5s21.833 -3.83301 29.5 -11.5s11.5 -17.5 11.5 -29.5s-4 -22 -12 -30s-17.667 -12 -29 -12z" />
    <glyph glyph-name="Aring" unicode="&#xc5;" horiz-adv-x="751" 
d="M341 760h68l312 -760h-67l-98 243h-366l-97 -243h-63zM535 295l-161 405l-163 -405h324zM375 818c-36 0 -66.001 11.5 -90.001 34.5s-36 51.833 -36 86.5c0 35.333 11.833 64.333 35.5 87s53.834 34 90.501 34s67 -11.5 91 -34.5s36 -51.833 36 -86.5
s-12 -63.5 -36 -86.5s-54.333 -34.5 -91 -34.5zM374.999 858c24.667 0 44.667 7.50098 60 22.501s23 34.5 23 58.5s-7.66699 43.5 -23 58.5s-35.333 22.5 -60 22.5s-44.5 -7.33301 -59.5 -22s-22.5 -34.334 -22.5 -59.001c0 -24 7.5 -43.5 22.5 -58.5
s34.833 -22.5 59.5 -22.5z" />
    <glyph glyph-name="AE" unicode="&#xc6;" horiz-adv-x="1074" 
d="M543 295v406l-263 -406h263zM516 760h467v-54h-378v-288h338v-53h-338v-311h393v-54h-455v243h-296l-157 -243h-69z" />
    <glyph glyph-name="Ccedilla" unicode="&#xc7;" horiz-adv-x="772" 
d="M460 -11c-73.333 0 -139.498 16.0029 -198.498 48.0029s-105.833 77.5 -140.5 136.5s-52 127.167 -52 204.5c0 74.667 16.167 141.667 48.5 201s78.833 106.166 139.5 140.499s131 51.5 211 51.5c38.667 0 77.834 -5.16699 117.501 -15.5s75.5 -24.5 107.5 -42.5l-13 -56
c-74 38 -146.667 57 -218 57c-62.667 0 -118.834 -13.5 -168.501 -40.5s-88.834 -65.833 -117.501 -116.5s-43 -109.334 -43 -176.001c0 -64.667 13.333 -122.334 40 -173.001s65 -90.334 115 -119.001s108 -43 174 -43c38 0 77.167 4.83301 117.5 14.5
s77.166 22.834 110.499 39.501l9 -55c-34.667 -18 -72.667 -31.833 -114 -41.5s-83 -14.5 -125 -14.5zM402.002 -254.997c-14.667 0 -29.8301 1.83301 -45.4971 5.5s-28.5 8.16699 -38.5 13.5l10 43c22 -12 46.667 -18 74 -18c21.333 0 38.166 4.66699 50.499 14
s18.5 22 18.5 38c0 15.333 -5.5 27.333 -16.5 36s-26.833 13 -47.5 13c-20 0 -34.333 -1.33301 -43 -4l33 124h43l-22 -82h5c29.333 0 53.166 -8 71.499 -24s27.5 -36.667 27.5 -62c0 -29.333 -10.833 -52.833 -32.5 -70.5s-50.834 -26.5 -87.501 -26.5z" />
    <glyph glyph-name="Egrave" unicode="&#xc8;" horiz-adv-x="654" 
d="M122 760h440v-54h-378v-288h338v-53h-338v-311h393v-54h-455v760zM204 964h79l136 -129h-65z" />
    <glyph glyph-name="Eacute" unicode="&#xc9;" horiz-adv-x="654" 
d="M122 760h440v-54h-378v-288h338v-53h-338v-311h393v-54h-455v760zM417 964h79l-149 -129h-66z" />
    <glyph glyph-name="Ecircumflex" unicode="&#xca;" horiz-adv-x="654" 
d="M122 760h440v-54h-378v-288h338v-53h-338v-311h393v-54h-455v760zM324 977h53l143 -142h-65l-105 103l-104 -103h-66z" />
    <glyph glyph-name="Edieresis" unicode="&#xcb;" horiz-adv-x="654" 
d="M122 760h440v-54h-378v-288h338v-53h-338v-311h393v-54h-455v760zM256 847c-12 0 -21.833 4 -29.5 12s-11.5 18 -11.5 30s3.83301 21.833 11.5 29.5s17.5 11.5 29.5 11.5c11.333 0 21 -3.83301 29 -11.5s12 -17.5 12 -29.5s-4 -22 -12 -30s-17.667 -12 -29 -12zM444 847
c-12 0 -21.833 4 -29.5 12s-11.5 18 -11.5 30s3.83301 21.833 11.5 29.5s17.5 11.5 29.5 11.5s21.833 -3.83301 29.5 -11.5s11.5 -17.5 11.5 -29.5s-4 -22 -12 -30s-17.667 -12 -29 -12z" />
    <glyph glyph-name="Igrave" unicode="&#xcc;" horiz-adv-x="306" 
d="M122 760h62v-760h-62v760zM7 964h79l136 -129h-65z" />
    <glyph glyph-name="Iacute" unicode="&#xcd;" horiz-adv-x="306" 
d="M122 760h62v-760h-62v760zM220 964h79l-149 -129h-66z" />
    <glyph glyph-name="Icircumflex" unicode="&#xce;" horiz-adv-x="306" 
d="M122 760h62v-760h-62v760zM127 977h53l143 -142h-65l-105 103l-104 -103h-66z" />
    <glyph glyph-name="Idieresis" unicode="&#xcf;" horiz-adv-x="306" 
d="M122 760h62v-760h-62v760zM59 847c-12 0 -21.833 4 -29.5 12s-11.5 18 -11.5 30s3.83301 21.833 11.5 29.5s17.5 11.5 29.5 11.5c11.333 0 21 -3.83301 29 -11.5s12 -17.5 12 -29.5s-4 -22 -12 -30s-17.667 -12 -29 -12zM247 847c-12 0 -21.833 4 -29.5 12
s-11.5 18 -11.5 30s3.83301 21.833 11.5 29.5s17.5 11.5 29.5 11.5s21.833 -3.83301 29.5 -11.5s11.5 -17.5 11.5 -29.5s-4 -22 -12 -30s-17.667 -12 -29 -12z" />
    <glyph glyph-name="Eth" unicode="&#xd0;" horiz-adv-x="857" 
d="M132 358h-105v50h105v352h253c128 0 227.167 -33.167 297.5 -99.5s105.5 -159.833 105.5 -280.5c0 -122.667 -35.5 -216.667 -106.5 -282s-173.167 -98 -306.5 -98h-243v358zM194 55l183 -0.000976562c114.667 0 201.167 27.333 259.5 82s87.5 135.334 87.5 242.001
c0 107.333 -29.167 188.5 -87.5 243.5s-144.5 82.5 -258.5 82.5h-184v-297h195v-50h-195v-303z" />
    <glyph glyph-name="Ntilde" unicode="&#xd1;" horiz-adv-x="877" 
d="M122 760h61l514 -672v672h58v-760h-61l-514 672v-672h-58v760zM503 834c-16.667 0.666992 -31.3301 4.83398 -43.9971 12.501s-24.167 16.5 -34.5 26.5s-20.333 18.833 -30 26.5s-19.834 11.834 -30.501 12.501c-31.333 0 -47 -25.667 -47 -77h-45
c0 40.667 7.66699 71.667 23 93s37.666 32 66.999 32c17.333 -0.666992 32.333 -4.83398 45 -12.501s24.167 -16.667 34.5 -27s20.166 -19.333 29.499 -27s19.333 -11.834 30 -12.501c32 0 48 26 48 78h45c0 -40 -7.83301 -70.833 -23.5 -92.5s-38.167 -32.5 -67.5 -32.5z
" />
    <glyph glyph-name="Ograve" unicode="&#xd2;" horiz-adv-x="908" 
d="M454 41c58.667 0 112.334 14 161.001 42s87.5 67.833 116.5 119.5s43.5 110.5 43.5 176.5c0 62.667 -13.333 119.667 -40 171s-64.5 92.333 -113.5 123s-104.833 46 -167.5 46c-58.667 0 -112.334 -14 -161.001 -42s-87.5 -67.833 -116.5 -119.5
s-43.5 -110.5 -43.5 -176.5c0 -62.667 13.333 -119.667 40 -171s64.5 -92.333 113.5 -123s104.833 -46 167.5 -46zM454 -16c-70 0 -134.166 16.5 -192.499 49.5s-105 79.833 -140 140.5s-52.5 129 -52.5 205c0 72 16.167 138 48.5 198s78.166 108.167 137.499 144.5
s126 54.5 200 54.5c70 0 134 -16.667 192 -50s104.5 -80.333 139.5 -141s52.5 -129 52.5 -205c0 -71.333 -16.167 -137 -48.5 -197s-78 -108.167 -137 -144.5s-125.5 -54.5 -199.5 -54.5zM308.001 964h79l136 -129h-65z" />
    <glyph glyph-name="Oacute" unicode="&#xd3;" horiz-adv-x="908" 
d="M454 41c58.667 0 112.334 14 161.001 42s87.5 67.833 116.5 119.5s43.5 110.5 43.5 176.5c0 62.667 -13.333 119.667 -40 171s-64.5 92.333 -113.5 123s-104.833 46 -167.5 46c-58.667 0 -112.334 -14 -161.001 -42s-87.5 -67.833 -116.5 -119.5
s-43.5 -110.5 -43.5 -176.5c0 -62.667 13.333 -119.667 40 -171s64.5 -92.333 113.5 -123s104.833 -46 167.5 -46zM454 -16c-70 0 -134.166 16.5 -192.499 49.5s-105 79.833 -140 140.5s-52.5 129 -52.5 205c0 72 16.167 138 48.5 198s78.166 108.167 137.499 144.5
s126 54.5 200 54.5c70 0 134 -16.667 192 -50s104.5 -80.333 139.5 -141s52.5 -129 52.5 -205c0 -71.333 -16.167 -137 -48.5 -197s-78 -108.167 -137 -144.5s-125.5 -54.5 -199.5 -54.5zM521.001 964h79l-149 -129h-66z" />
    <glyph glyph-name="Ocircumflex" unicode="&#xd4;" horiz-adv-x="908" 
d="M454 41c58.667 0 112.334 14 161.001 42s87.5 67.833 116.5 119.5s43.5 110.5 43.5 176.5c0 62.667 -13.333 119.667 -40 171s-64.5 92.333 -113.5 123s-104.833 46 -167.5 46c-58.667 0 -112.334 -14 -161.001 -42s-87.5 -67.833 -116.5 -119.5
s-43.5 -110.5 -43.5 -176.5c0 -62.667 13.333 -119.667 40 -171s64.5 -92.333 113.5 -123s104.833 -46 167.5 -46zM454 -16c-70 0 -134.166 16.5 -192.499 49.5s-105 79.833 -140 140.5s-52.5 129 -52.5 205c0 72 16.167 138 48.5 198s78.166 108.167 137.499 144.5
s126 54.5 200 54.5c70 0 134 -16.667 192 -50s104.5 -80.333 139.5 -141s52.5 -129 52.5 -205c0 -71.333 -16.167 -137 -48.5 -197s-78 -108.167 -137 -144.5s-125.5 -54.5 -199.5 -54.5zM428.001 977h53l143 -142h-65l-105 103l-104 -103h-66z" />
    <glyph glyph-name="Otilde" unicode="&#xd5;" horiz-adv-x="908" 
d="M454 41c58.667 0 112.334 14 161.001 42s87.5 67.833 116.5 119.5s43.5 110.5 43.5 176.5c0 62.667 -13.333 119.667 -40 171s-64.5 92.333 -113.5 123s-104.833 46 -167.5 46c-58.667 0 -112.334 -14 -161.001 -42s-87.5 -67.833 -116.5 -119.5
s-43.5 -110.5 -43.5 -176.5c0 -62.667 13.333 -119.667 40 -171s64.5 -92.333 113.5 -123s104.833 -46 167.5 -46zM454 -16c-70 0 -134.166 16.5 -192.499 49.5s-105 79.833 -140 140.5s-52.5 129 -52.5 205c0 72 16.167 138 48.5 198s78.166 108.167 137.499 144.5
s126 54.5 200 54.5c70 0 134 -16.667 192 -50s104.5 -80.333 139.5 -141s52.5 -129 52.5 -205c0 -71.333 -16.167 -137 -48.5 -197s-78 -108.167 -137 -144.5s-125.5 -54.5 -199.5 -54.5zM524.001 834c-16.667 0.666992 -31.3301 4.83398 -43.9971 12.501
s-24.167 16.5 -34.5 26.5s-20.333 18.833 -30 26.5s-19.834 11.834 -30.501 12.501c-31.333 0 -47 -25.667 -47 -77h-45c0 40.667 7.66699 71.667 23 93s37.666 32 66.999 32c17.333 -0.666992 32.333 -4.83398 45 -12.501s24.167 -16.667 34.5 -27
s20.166 -19.333 29.499 -27s19.333 -11.834 30 -12.501c32 0 48 26 48 78h45c0 -40 -7.83301 -70.833 -23.5 -92.5s-38.167 -32.5 -67.5 -32.5z" />
    <glyph glyph-name="Odieresis" unicode="&#xd6;" horiz-adv-x="908" 
d="M454 41c58.667 0 112.334 14 161.001 42s87.5 67.833 116.5 119.5s43.5 110.5 43.5 176.5c0 62.667 -13.333 119.667 -40 171s-64.5 92.333 -113.5 123s-104.833 46 -167.5 46c-58.667 0 -112.334 -14 -161.001 -42s-87.5 -67.833 -116.5 -119.5
s-43.5 -110.5 -43.5 -176.5c0 -62.667 13.333 -119.667 40 -171s64.5 -92.333 113.5 -123s104.833 -46 167.5 -46zM454 -16c-70 0 -134.166 16.5 -192.499 49.5s-105 79.833 -140 140.5s-52.5 129 -52.5 205c0 72 16.167 138 48.5 198s78.166 108.167 137.499 144.5
s126 54.5 200 54.5c70 0 134 -16.667 192 -50s104.5 -80.333 139.5 -141s52.5 -129 52.5 -205c0 -71.333 -16.167 -137 -48.5 -197s-78 -108.167 -137 -144.5s-125.5 -54.5 -199.5 -54.5zM360.001 847c-12 0 -21.833 4 -29.5 12s-11.5 18 -11.5 30s3.83301 21.833 11.5 29.5
s17.5 11.5 29.5 11.5c11.333 0 21 -3.83301 29 -11.5s12 -17.5 12 -29.5s-4 -22 -12 -30s-17.667 -12 -29 -12zM548.001 847c-12 0 -21.833 4 -29.5 12s-11.5 18 -11.5 30s3.83301 21.833 11.5 29.5s17.5 11.5 29.5 11.5s21.833 -3.83301 29.5 -11.5s11.5 -17.5 11.5 -29.5
s-4 -22 -12 -30s-17.667 -12 -29 -12z" />
    <glyph glyph-name="multiply" unicode="&#xd7;" horiz-adv-x="620" 
d="M121 185l151 150l-151 152l37 37l152 -151l152 151l36 -37l-152 -151l152 -151l-37 -38l-152 152l-152 -151z" />
    <glyph glyph-name="Oslash" unicode="&#xd8;" horiz-adv-x="908" 
d="M454 -16c-48.667 0 -94.999 8.33301 -138.999 25s-83.667 40.667 -119 72l-89 -91l-36 37l89 91c-29.333 34.667 -51.833 74.334 -67.5 119.001s-23.5 92 -23.5 142c0 72 16.167 138 48.5 198s78.166 108.167 137.499 144.5s126 54.5 200 54.5c48 0 94 -8.5 138 -25.5
s83.667 -41.167 119 -72.5l89 91l36 -37l-89 -91c29.333 -36 51.833 -76.333 67.5 -121s23.5 -91.334 23.5 -140.001c0 -71.333 -16.167 -137 -48.5 -197s-78 -108.167 -137 -144.5s-125.5 -54.5 -199.5 -54.5zM454.001 41c58.667 0 112.333 14 161 42
s87.5 67.833 116.5 119.5s43.5 110.5 43.5 176.5c0 41.333 -6 80.5 -18 117.5s-29.333 70.5 -52 100.5l-467 -474c28.667 -26.667 61.5 -47 98.5 -61s76.167 -21 117.5 -21zM133 381c0 -85.333 23.334 -158.333 70.001 -219l467 474c-28.667 26.667 -61.5 47.167 -98.5 61.5
s-76.167 21.5 -117.5 21.5c-58.667 0 -112.334 -14 -161.001 -42s-87.5 -67.833 -116.5 -119.5s-43.5 -110.5 -43.5 -176.5z" />
    <glyph glyph-name="Ugrave" unicode="&#xd9;" horiz-adv-x="850" 
d="M424 -16c-98.667 0 -174.833 27.667 -228.5 83s-80.5 134 -80.5 236v457h61v-449c0 -89.333 21 -156.666 63 -201.999s104 -68 186 -68s144 22.667 186 68s63 112.666 63 201.999v449h61v-457c0 -102 -27 -180.667 -81 -236s-130.667 -83 -230 -83zM279.001 964h79
l136 -129h-65z" />
    <glyph glyph-name="Uacute" unicode="&#xda;" horiz-adv-x="850" 
d="M424 -16c-98.667 0 -174.833 27.667 -228.5 83s-80.5 134 -80.5 236v457h61v-449c0 -89.333 21 -156.666 63 -201.999s104 -68 186 -68s144 22.667 186 68s63 112.666 63 201.999v449h61v-457c0 -102 -27 -180.667 -81 -236s-130.667 -83 -230 -83zM492.001 964h79
l-149 -129h-66z" />
    <glyph glyph-name="Ucircumflex" unicode="&#xdb;" horiz-adv-x="850" 
d="M424 -16c-98.667 0 -174.833 27.667 -228.5 83s-80.5 134 -80.5 236v457h61v-449c0 -89.333 21 -156.666 63 -201.999s104 -68 186 -68s144 22.667 186 68s63 112.666 63 201.999v449h61v-457c0 -102 -27 -180.667 -81 -236s-130.667 -83 -230 -83zM399.001 977h53
l143 -142h-65l-105 103l-104 -103h-66z" />
    <glyph glyph-name="Udieresis" unicode="&#xdc;" horiz-adv-x="850" 
d="M424 -16c-98.667 0 -174.833 27.667 -228.5 83s-80.5 134 -80.5 236v457h61v-449c0 -89.333 21 -156.666 63 -201.999s104 -68 186 -68s144 22.667 186 68s63 112.666 63 201.999v449h61v-457c0 -102 -27 -180.667 -81 -236s-130.667 -83 -230 -83zM331.001 847
c-12 0 -21.833 4 -29.5 12s-11.5 18 -11.5 30s3.83301 21.833 11.5 29.5s17.5 11.5 29.5 11.5c11.333 0 21 -3.83301 29 -11.5s12 -17.5 12 -29.5s-4 -22 -12 -30s-17.667 -12 -29 -12zM519.001 847c-12 0 -21.833 4 -29.5 12s-11.5 18 -11.5 30s3.83301 21.833 11.5 29.5
s17.5 11.5 29.5 11.5s21.833 -3.83301 29.5 -11.5s11.5 -17.5 11.5 -29.5s-4 -22 -12 -30s-17.667 -12 -29 -12z" />
    <glyph glyph-name="Yacute" unicode="&#xdd;" horiz-adv-x="679" 
d="M308 337l-279 423h71l240 -372l244 372h66l-280 -424v-336h-62v337zM406 964h79l-149 -129h-66z" />
    <glyph glyph-name="Thorn" unicode="&#xde;" horiz-adv-x="639" 
d="M122 760l60 0.000976562v-143h146c49.333 0 93 -9 131 -27s67.667 -44 89 -78s32 -74 32 -120c0 -70.667 -23.5 -126.834 -70.5 -168.501s-110.833 -62.5 -191.5 -62.5h-136v-161h-60v760zM182 215.001h126.001c68 0 119.833 15 155.5 45s53.5 73.333 53.5 130
c0 54.667 -17.333 97.167 -52 127.5s-83.334 45.5 -146.001 45.5h-137v-348z" />
    <glyph glyph-name="germandbls" unicode="&#xdf;" horiz-adv-x="642" 
d="M355 -16c-52 0 -95 11 -129 33l11 49c15.333 -10 33.166 -17.833 53.499 -23.5s40.5 -8.5 60.5 -8.5c51.333 0 93 17.333 125 52s48 80 48 136c0 54 -17.667 97 -53 129s-82.666 48 -141.999 48h-44v51h36c46 0 82.667 14.833 110 44.5s41 68.834 41 117.501
c0 46 -13.833 82.667 -41.5 110s-64.834 41 -111.501 41c-52 0 -92.5 -18.333 -121.5 -55s-43.5 -88 -43.5 -154v-554h-58v568c0 75.333 20.167 135.333 60.5 180s94.833 67 163.5 67c40.667 0 76.834 -8.16699 108.501 -24.5s56.667 -39.833 75 -70.5s27.5 -66 27.5 -106
c0 -42.667 -10.167 -80.5 -30.5 -113.5s-48.166 -56.5 -83.499 -70.5c50.667 -11.333 91 -36.333 121 -75s45 -85.334 45 -140.001c0 -43.333 -9.33301 -82.5 -28 -117.5s-45.334 -62.667 -80.001 -83s-74.667 -30.5 -120 -30.5z" />
    <glyph glyph-name="agrave" unicode="&#xe0;" horiz-adv-x="558" 
d="M232 -16c-52 0 -94.334 14.001 -127.001 42.001s-49 64.333 -49 109c0 50.667 18 90.667 54 120s85 44 147 44c26.667 0 53.5 -2.83301 80.5 -8.5s50.833 -13.167 71.5 -22.5v20c0 54.667 -13.5 96 -40.5 124s-66.833 42 -119.5 42c-58.667 0 -111.667 -18 -159 -54
l-7 50c20.667 16.667 46.5 30 77.5 40s62.5 15 94.5 15c66.667 0 118.334 -18.333 155.001 -55s55 -88 55 -154v-296h-54l-1 80c-16.667 -30.667 -40.5 -54.334 -71.5 -71.001s-66.5 -25 -106.5 -25zM239.999 34.001c31.333 0 59.833 7.66699 85.5 23s46 37.166 61 65.499
s22.5 60.833 22.5 97.5c-42.667 20 -92 30 -148 30c-46.667 0 -83.167 -9.66699 -109.5 -29s-39.5 -46.666 -39.5 -81.999c0 -32 11.5 -57.5 34.5 -76.5s54.167 -28.5 93.5 -28.5zM139.999 773.001h69l123 -174h-57z" />
    <glyph glyph-name="aacute" unicode="&#xe1;" horiz-adv-x="558" 
d="M232 -16c-52 0 -94.334 14.001 -127.001 42.001s-49 64.333 -49 109c0 50.667 18 90.667 54 120s85 44 147 44c26.667 0 53.5 -2.83301 80.5 -8.5s50.833 -13.167 71.5 -22.5v20c0 54.667 -13.5 96 -40.5 124s-66.833 42 -119.5 42c-58.667 0 -111.667 -18 -159 -54
l-7 50c20.667 16.667 46.5 30 77.5 40s62.5 15 94.5 15c66.667 0 118.334 -18.333 155.001 -55s55 -88 55 -154v-296h-54l-1 80c-16.667 -30.667 -40.5 -54.334 -71.5 -71.001s-66.5 -25 -106.5 -25zM239.999 34.001c31.333 0 59.833 7.66699 85.5 23s46 37.166 61 65.499
s22.5 60.833 22.5 97.5c-42.667 20 -92 30 -148 30c-46.667 0 -83.167 -9.66699 -109.5 -29s-39.5 -46.666 -39.5 -81.999c0 -32 11.5 -57.5 34.5 -76.5s54.167 -28.5 93.5 -28.5zM309.999 773.001h70l-136 -174h-57z" />
    <glyph glyph-name="acircumflex" unicode="&#xe2;" horiz-adv-x="558" 
d="M232 -16c-52 0 -94.334 14.001 -127.001 42.001s-49 64.333 -49 109c0 50.667 18 90.667 54 120s85 44 147 44c26.667 0 53.5 -2.83301 80.5 -8.5s50.833 -13.167 71.5 -22.5v20c0 54.667 -13.5 96 -40.5 124s-66.833 42 -119.5 42c-58.667 0 -111.667 -18 -159 -54
l-7 50c20.667 16.667 46.5 30 77.5 40s62.5 15 94.5 15c66.667 0 118.334 -18.333 155.001 -55s55 -88 55 -154v-296h-54l-1 80c-16.667 -30.667 -40.5 -54.334 -71.5 -71.001s-66.5 -25 -106.5 -25zM239.999 34.001c31.333 0 59.833 7.66699 85.5 23s46 37.166 61 65.499
s22.5 60.833 22.5 97.5c-42.667 20 -92 30 -148 30c-46.667 0 -83.167 -9.66699 -109.5 -29s-39.5 -46.666 -39.5 -81.999c0 -32 11.5 -57.5 34.5 -76.5s54.167 -28.5 93.5 -28.5zM234.999 773.001h47l146 -174h-60l-109 131l-108 -131h-60z" />
    <glyph glyph-name="atilde" unicode="&#xe3;" horiz-adv-x="558" 
d="M232 -16c-52 0 -94.334 14.001 -127.001 42.001s-49 64.333 -49 109c0 50.667 18 90.667 54 120s85 44 147 44c26.667 0 53.5 -2.83301 80.5 -8.5s50.833 -13.167 71.5 -22.5v20c0 54.667 -13.5 96 -40.5 124s-66.833 42 -119.5 42c-58.667 0 -111.667 -18 -159 -54
l-7 50c20.667 16.667 46.5 30 77.5 40s62.5 15 94.5 15c66.667 0 118.334 -18.333 155.001 -55s55 -88 55 -154v-296h-54l-1 80c-16.667 -30.667 -40.5 -54.334 -71.5 -71.001s-66.5 -25 -106.5 -25zM239.999 34.001c31.333 0 59.833 7.66699 85.5 23s46 37.166 61 65.499
s22.5 60.833 22.5 97.5c-42.667 20 -92 30 -148 30c-46.667 0 -83.167 -9.66699 -109.5 -29s-39.5 -46.666 -39.5 -81.999c0 -32 11.5 -57.5 34.5 -76.5s54.167 -28.5 93.5 -28.5zM328.999 621.001c-16.667 0.666992 -31.3301 4.83398 -43.9971 12.501
s-24.167 16.5 -34.5 26.5s-20.333 18.833 -30 26.5s-19.834 11.834 -30.501 12.501c-31.333 0 -47 -25.667 -47 -77h-45c0 40.667 7.66699 71.667 23 93s37.666 32 66.999 32c17.333 -0.666992 32.333 -4.83398 45 -12.501s24.167 -16.667 34.5 -27
s20.166 -19.333 29.499 -27s19.333 -11.834 30 -12.501c32 0 48 26 48 78h45c0 -40 -7.83301 -70.833 -23.5 -92.5s-38.167 -32.5 -67.5 -32.5z" />
    <glyph glyph-name="adieresis" unicode="&#xe4;" horiz-adv-x="558" 
d="M232 -16c-52 0 -94.334 14.001 -127.001 42.001s-49 64.333 -49 109c0 50.667 18 90.667 54 120s85 44 147 44c26.667 0 53.5 -2.83301 80.5 -8.5s50.833 -13.167 71.5 -22.5v20c0 54.667 -13.5 96 -40.5 124s-66.833 42 -119.5 42c-58.667 0 -111.667 -18 -159 -54
l-7 50c20.667 16.667 46.5 30 77.5 40s62.5 15 94.5 15c66.667 0 118.334 -18.333 155.001 -55s55 -88 55 -154v-296h-54l-1 80c-16.667 -30.667 -40.5 -54.334 -71.5 -71.001s-66.5 -25 -106.5 -25zM239.999 34.001c31.333 0 59.833 7.66699 85.5 23s46 37.166 61 65.499
s22.5 60.833 22.5 97.5c-42.667 20 -92 30 -148 30c-46.667 0 -83.167 -9.66699 -109.5 -29s-39.5 -46.666 -39.5 -81.999c0 -32 11.5 -57.5 34.5 -76.5s54.167 -28.5 93.5 -28.5zM168.999 642.001c-12 0 -21.667 3.83203 -29 11.499s-11 17.5 -11 29.5
c0 12.667 3.83301 22.834 11.5 30.501s17.167 11.5 28.5 11.5c12 0 22 -4 30 -12s12 -18 12 -30s-4 -21.833 -12 -29.5s-18 -11.5 -30 -11.5zM347.999 642c-12 0 -21.833 3.83301 -29.5 11.5s-11.5 17.5 -11.5 29.5s3.83301 22 11.5 30s17.5 12 29.5 12s21.833 -4 29.5 -12
s11.5 -18 11.5 -30s-3.83301 -21.833 -11.5 -29.5s-17.5 -11.5 -29.5 -11.5z" />
    <glyph glyph-name="aring" unicode="&#xe5;" horiz-adv-x="558" 
d="M232 -16c-52 0 -94.334 14.001 -127.001 42.001s-49 64.333 -49 109c0 50.667 18 90.667 54 120s85 44 147 44c26.667 0 53.5 -2.83301 80.5 -8.5s50.833 -13.167 71.5 -22.5v20c0 54.667 -13.5 96 -40.5 124s-66.833 42 -119.5 42c-58.667 0 -111.667 -18 -159 -54
l-7 50c20.667 16.667 46.5 30 77.5 40s62.5 15 94.5 15c66.667 0 118.334 -18.333 155.001 -55s55 -88 55 -154v-296h-54l-1 80c-16.667 -30.667 -40.5 -54.334 -71.5 -71.001s-66.5 -25 -106.5 -25zM239.999 34.001c31.333 0 59.833 7.66699 85.5 23s46 37.166 61 65.499
s22.5 60.833 22.5 97.5c-42.667 20 -92 30 -148 30c-46.667 0 -83.167 -9.66699 -109.5 -29s-39.5 -46.666 -39.5 -81.999c0 -32 11.5 -57.5 34.5 -76.5s54.167 -28.5 93.5 -28.5zM258.999 588.001c-36 0 -66.001 11.5 -90.001 34.5s-36 51.833 -36 86.5
c0 35.333 11.833 64.333 35.5 87s53.834 34 90.501 34s67 -11.5 91 -34.5s36 -51.833 36 -86.5s-12 -63.5 -36 -86.5s-54.333 -34.5 -91 -34.5zM258.998 628.001c24.667 0 44.667 7.50098 60 22.501s23 34.5 23 58.5s-7.66699 43.5 -23 58.5s-35.333 22.5 -60 22.5
s-44.5 -7.33301 -59.5 -22s-22.5 -34.334 -22.5 -59.001c0 -24 7.5 -43.5 22.5 -58.5s34.833 -22.5 59.5 -22.5z" />
    <glyph glyph-name="ae" unicode="&#xe6;" horiz-adv-x="915" 
d="M229 -16c-52 0 -94.334 13.998 -127.001 41.998s-49 64.333 -49 109c0 50.667 18 90.667 54 120s85 44 147 44c26.667 0 53.5 -2.83301 80.5 -8.5s50.833 -13.167 71.5 -22.5v20c0 54.667 -13.5 96 -40.5 124s-66.833 42 -119.5 42c-58.667 0 -111.667 -18 -159 -54
l-7 50c20.667 16.667 46.5 30 77.5 40s62.5 15 94.5 15c49.333 0 90.166 -11.5 122.499 -34.5s54.166 -56.167 65.499 -99.5c16.667 41.333 42.834 74 78.501 98s75.834 36 120.501 36c41.333 0 78.333 -9.66699 111 -29s58.334 -46.833 77.001 -82.5s28 -77.167 28 -124.5
c0 -9.33301 -1 -23 -3 -41h-395c2.66699 -59.333 22.834 -106.166 60.501 -140.499s88.5 -51.5 152.5 -51.5c62 0 117.333 13.667 166 41l8 -50c-20.667 -13.333 -46.834 -23.833 -78.501 -31.5s-64.5 -11.5 -98.5 -11.5c-56.667 0 -105.834 11.833 -147.501 35.5
s-71.834 56.834 -90.501 99.501c-15.333 -42 -40.666 -75 -75.999 -99s-76.666 -36 -123.999 -36zM236.999 33.998c50 0 90.667 17.167 122 51.5s47 79.166 47 134.499c-42 20 -91.333 30 -148 30c-46.667 0 -83.167 -9.66699 -109.5 -29s-39.5 -46.666 -39.5 -81.999
c0 -32 11.5 -57.5 34.5 -76.5s54.167 -28.5 93.5 -28.5zM798.999 277.998c-1.33301 54 -16.668 96.833 -46.001 128.5s-68.333 47.5 -117 47.5c-47.333 0 -87.166 -16 -119.499 -48s-51.833 -74.667 -58.5 -128h341z" />
    <glyph glyph-name="ccedilla" unicode="&#xe7;" horiz-adv-x="530" 
d="M322 -15c-50.667 0 -95.832 10.499 -135.499 31.499s-70.834 51 -93.501 90s-34 84.5 -34 136.5c0 48.667 10.667 92.667 32 132s51.833 70.5 91.5 93.5s85.167 34.5 136.5 34.5c59.333 0 109 -12 149 -36l-9 -51c-20 11.333 -42.167 20 -66.5 26s-48.833 9 -73.5 9
c-38.667 0 -73 -8.33301 -103 -25s-53.667 -40.667 -71 -72s-26 -67.666 -26 -108.999c0 -62.667 18.667 -113 56 -151s87 -57 149 -57c52 0 101.333 12.667 148 38l7 -49c-20 -12.667 -44 -22.667 -72 -30s-56.333 -11 -85 -11zM288.002 -255.001
c-14.667 0 -29.8301 1.83301 -45.4971 5.5s-28.5 8.16699 -38.5 13.5l10 42c10 -5.33301 21.667 -9.5 35 -12.5s26.333 -4.5 39 -4.5c22 0 39.333 4.66699 52 14s19 22 19 38c0 15.333 -5.83301 27.5 -17.5 36.5s-27.834 13.5 -48.501 13.5c-18 0 -32 -1.33301 -42 -4
l32 123h42l-21 -82h5c29.333 0 53.166 -8 71.499 -24s27.5 -36.667 27.5 -62c0 -29.333 -10.833 -52.833 -32.5 -70.5s-50.834 -26.5 -87.501 -26.5z" />
    <glyph glyph-name="egrave" unicode="&#xe8;" horiz-adv-x="577" 
d="M326 -16c-80.667 0 -145.335 23.4971 -194.002 70.4971s-73 109.5 -73 187.5c0 48.667 9.83301 92.834 29.5 132.501s47.834 71.334 84.501 95.001s78.334 35.5 125.001 35.5c41.333 0 78.333 -9.66699 111 -29s58.334 -46.833 77.001 -82.5s28 -77.167 28 -124.5
c0 -11.333 -1 -25 -3 -41h-395c2.66699 -59.333 22.834 -106.166 60.501 -140.499s88.5 -51.5 152.5 -51.5c61.333 0 116.666 13.667 165.999 41l8 -50c-20.667 -13.333 -46.834 -23.833 -78.501 -31.5s-64.5 -11.5 -98.5 -11.5zM457.999 277.997
c-1.33301 54 -16.668 96.833 -46.001 128.5s-68.333 47.5 -117 47.5c-47.333 0 -87.166 -16 -119.499 -48s-51.833 -74.667 -58.5 -128h341zM172.997 772.997h69l123 -174h-57z" />
    <glyph glyph-name="eacute" unicode="&#xe9;" horiz-adv-x="577" 
d="M326 -16c-80.667 0 -145.335 23.4971 -194.002 70.4971s-73 109.5 -73 187.5c0 48.667 9.83301 92.834 29.5 132.501s47.834 71.334 84.501 95.001s78.334 35.5 125.001 35.5c41.333 0 78.333 -9.66699 111 -29s58.334 -46.833 77.001 -82.5s28 -77.167 28 -124.5
c0 -11.333 -1 -25 -3 -41h-395c2.66699 -59.333 22.834 -106.166 60.501 -140.499s88.5 -51.5 152.5 -51.5c61.333 0 116.666 13.667 165.999 41l8 -50c-20.667 -13.333 -46.834 -23.833 -78.501 -31.5s-64.5 -11.5 -98.5 -11.5zM457.999 277.997
c-1.33301 54 -16.668 96.833 -46.001 128.5s-68.333 47.5 -117 47.5c-47.333 0 -87.166 -16 -119.499 -48s-51.833 -74.667 -58.5 -128h341zM342.997 772.997h70l-136 -174h-57z" />
    <glyph glyph-name="ecircumflex" unicode="&#xea;" horiz-adv-x="577" 
d="M326 -16c-80.667 0 -145.335 23.4971 -194.002 70.4971s-73 109.5 -73 187.5c0 48.667 9.83301 92.834 29.5 132.501s47.834 71.334 84.501 95.001s78.334 35.5 125.001 35.5c41.333 0 78.333 -9.66699 111 -29s58.334 -46.833 77.001 -82.5s28 -77.167 28 -124.5
c0 -11.333 -1 -25 -3 -41h-395c2.66699 -59.333 22.834 -106.166 60.501 -140.499s88.5 -51.5 152.5 -51.5c61.333 0 116.666 13.667 165.999 41l8 -50c-20.667 -13.333 -46.834 -23.833 -78.501 -31.5s-64.5 -11.5 -98.5 -11.5zM457.999 277.997
c-1.33301 54 -16.668 96.833 -46.001 128.5s-68.333 47.5 -117 47.5c-47.333 0 -87.166 -16 -119.499 -48s-51.833 -74.667 -58.5 -128h341zM267.997 772.997h47l146 -174h-60l-109 131l-108 -131h-60z" />
    <glyph glyph-name="edieresis" unicode="&#xeb;" horiz-adv-x="577" 
d="M326 -16c-80.667 0 -145.335 23.4971 -194.002 70.4971s-73 109.5 -73 187.5c0 48.667 9.83301 92.834 29.5 132.501s47.834 71.334 84.501 95.001s78.334 35.5 125.001 35.5c41.333 0 78.333 -9.66699 111 -29s58.334 -46.833 77.001 -82.5s28 -77.167 28 -124.5
c0 -11.333 -1 -25 -3 -41h-395c2.66699 -59.333 22.834 -106.166 60.501 -140.499s88.5 -51.5 152.5 -51.5c61.333 0 116.666 13.667 165.999 41l8 -50c-20.667 -13.333 -46.834 -23.833 -78.501 -31.5s-64.5 -11.5 -98.5 -11.5zM457.999 277.997
c-1.33301 54 -16.668 96.833 -46.001 128.5s-68.333 47.5 -117 47.5c-47.333 0 -87.166 -16 -119.499 -48s-51.833 -74.667 -58.5 -128h341zM201.997 641.997c-12 0 -21.667 3.83203 -29 11.499s-11 17.5 -11 29.5c0 12.667 3.83301 22.834 11.5 30.501
s17.167 11.5 28.5 11.5c12 0 22 -4 30 -12s12 -18 12 -30s-4 -21.833 -12 -29.5s-18 -11.5 -30 -11.5zM380.997 641.996c-12 0 -21.833 3.83301 -29.5 11.5s-11.5 17.5 -11.5 29.5s3.83301 22 11.5 30s17.5 12 29.5 12s21.833 -4 29.5 -12s11.5 -18 11.5 -30
s-3.83301 -21.833 -11.5 -29.5s-17.5 -11.5 -29.5 -11.5z" />
    <glyph glyph-name="igrave" unicode="&#xec;" horiz-adv-x="250" 
d="M96 489h58v-489h-58v489zM6 773h69l123 -174h-57z" />
    <glyph glyph-name="iacute" unicode="&#xed;" horiz-adv-x="250" 
d="M96 489h58v-489h-58v489zM176 773h70l-136 -174h-57z" />
    <glyph glyph-name="icircumflex" unicode="&#xee;" horiz-adv-x="250" 
d="M96 489h58v-489h-58v489zM101 773h47l146 -174h-60l-109 131l-108 -131h-60z" />
    <glyph glyph-name="idieresis" unicode="&#xef;" horiz-adv-x="250" 
d="M96 489h58v-489h-58v489zM35 642c-12 0 -21.667 3.83203 -29 11.499s-11 17.5 -11 29.5c0 12.667 3.83301 22.834 11.5 30.501s17.167 11.5 28.5 11.5c12 0 22 -4 30 -12s12 -18 12 -30s-4 -21.833 -12 -29.5s-18 -11.5 -30 -11.5zM214 641.999
c-12 0 -21.833 3.83301 -29.5 11.5s-11.5 17.5 -11.5 29.5s3.83301 22 11.5 30s17.5 12 29.5 12s21.833 -4 29.5 -12s11.5 -18 11.5 -30s-3.83301 -21.833 -11.5 -29.5s-17.5 -11.5 -29.5 -11.5z" />
    <glyph glyph-name="eth" unicode="&#xf0;" horiz-adv-x="623" 
d="M313 -16c-47.333 0 -90.167 10.8301 -128.5 32.4971s-68.833 52.334 -91.5 92.001s-34 84.834 -34 135.501c0 46 10.5 88.833 31.5 128.5s50.333 71.667 88 96s79.834 36.5 126.501 36.5c35.333 0 68.166 -7.66699 98.499 -23s55.5 -36.666 75.5 -63.999
c-30.667 84 -76.334 162 -137.001 234l-146 -79l-22 40l137 75c-41.333 43.333 -83 80.666 -125 111.999l75 5c37.333 -28 70.333 -58 99 -90l114 62l22 -42l-104 -57c55.333 -66.667 97.5 -136 126.5 -208s43.5 -143 43.5 -213c0 -50.667 -10.167 -96.667 -30.5 -138
s-49.666 -74.166 -87.999 -98.499s-81.833 -36.5 -130.5 -36.5zM310.999 35.9971c36 0 68.667 8.5 98 25.5s52.5 41.5 69.5 73.5s25.5 68.667 25.5 110c0 38.667 -7.83301 73.667 -23.5 105s-38.167 56.333 -67.5 75s-63 28 -101 28c-56 0 -102.167 -19.667 -138.5 -59
s-54.5 -89.333 -54.5 -150c0 -38.667 8 -73.667 24 -105s38.5 -56.333 67.5 -75s62.5 -28 100.5 -28z" />
    <glyph glyph-name="ntilde" unicode="&#xf1;" horiz-adv-x="603" 
d="M96 489l54.002 0.000976562l1 -83c17.333 32 41.166 56.5 71.499 73.5s65.166 25.5 104.499 25.5c58 0 103 -18.333 135 -55s48 -88.334 48 -155.001v-295h-58v286c0 111.333 -45.667 167 -137 167c-49.333 0 -88.5 -16.833 -117.5 -50.5s-43.5 -79.167 -43.5 -136.5
v-266h-58v489zM373.002 621.001c-16.667 0.666992 -31.3301 4.83398 -43.9971 12.501s-24.167 16.5 -34.5 26.5s-20.333 18.833 -30 26.5s-19.834 11.834 -30.501 12.501c-31.333 0 -47 -25.667 -47 -77h-45c0 40.667 7.66699 71.667 23 93s37.666 32 66.999 32
c17.333 -0.666992 32.333 -4.83398 45 -12.501s24.167 -16.667 34.5 -27s20.166 -19.333 29.499 -27s19.333 -11.834 30 -12.501c32 0 48 26 48 78h45c0 -40 -7.83301 -70.833 -23.5 -92.5s-38.167 -32.5 -67.5 -32.5z" />
    <glyph glyph-name="ograve" unicode="&#xf2;" horiz-adv-x="624" 
d="M312 -16c-46.667 0 -89 10.833 -127 32.5s-68.5 52.334 -91.5 92.001s-34.5 84.834 -34.5 135.501c0 46.667 10.667 89.667 32 129s51.333 71.166 90 95.499s82.334 36.5 131.001 36.5c46.667 0 89 -10.833 127 -32.5s68.5 -52.334 91.5 -92.001
s34.5 -84.834 34.5 -135.501c0 -46.667 -10.667 -89.667 -32 -129s-51.333 -71.166 -90 -95.499s-82.334 -36.5 -131.001 -36.5zM312 36c35.333 0 67.666 8.5 96.999 25.5s52.666 41.5 69.999 73.5s26 68.667 26 110c0 38.667 -7.83301 73.667 -23.5 105
s-38.167 56.333 -67.5 75s-63.333 28 -102 28c-35.333 0 -67.666 -8.5 -96.999 -25.5s-52.666 -41.5 -69.999 -73.5s-26 -68.667 -26 -110c0 -38.667 7.83301 -73.667 23.5 -105s38.167 -56.333 67.5 -75s63.333 -28 102 -28zM193 773h69l123 -174h-57z" />
    <glyph glyph-name="oacute" unicode="&#xf3;" horiz-adv-x="624" 
d="M312 -16c-46.667 0 -89 10.833 -127 32.5s-68.5 52.334 -91.5 92.001s-34.5 84.834 -34.5 135.501c0 46.667 10.667 89.667 32 129s51.333 71.166 90 95.499s82.334 36.5 131.001 36.5c46.667 0 89 -10.833 127 -32.5s68.5 -52.334 91.5 -92.001
s34.5 -84.834 34.5 -135.501c0 -46.667 -10.667 -89.667 -32 -129s-51.333 -71.166 -90 -95.499s-82.334 -36.5 -131.001 -36.5zM312 36c35.333 0 67.666 8.5 96.999 25.5s52.666 41.5 69.999 73.5s26 68.667 26 110c0 38.667 -7.83301 73.667 -23.5 105
s-38.167 56.333 -67.5 75s-63.333 28 -102 28c-35.333 0 -67.666 -8.5 -96.999 -25.5s-52.666 -41.5 -69.999 -73.5s-26 -68.667 -26 -110c0 -38.667 7.83301 -73.667 23.5 -105s38.167 -56.333 67.5 -75s63.333 -28 102 -28zM363 773h70l-136 -174h-57z" />
    <glyph glyph-name="ocircumflex" unicode="&#xf4;" horiz-adv-x="624" 
d="M312 -16c-46.667 0 -89 10.833 -127 32.5s-68.5 52.334 -91.5 92.001s-34.5 84.834 -34.5 135.501c0 46.667 10.667 89.667 32 129s51.333 71.166 90 95.499s82.334 36.5 131.001 36.5c46.667 0 89 -10.833 127 -32.5s68.5 -52.334 91.5 -92.001
s34.5 -84.834 34.5 -135.501c0 -46.667 -10.667 -89.667 -32 -129s-51.333 -71.166 -90 -95.499s-82.334 -36.5 -131.001 -36.5zM312 36c35.333 0 67.666 8.5 96.999 25.5s52.666 41.5 69.999 73.5s26 68.667 26 110c0 38.667 -7.83301 73.667 -23.5 105
s-38.167 56.333 -67.5 75s-63.333 28 -102 28c-35.333 0 -67.666 -8.5 -96.999 -25.5s-52.666 -41.5 -69.999 -73.5s-26 -68.667 -26 -110c0 -38.667 7.83301 -73.667 23.5 -105s38.167 -56.333 67.5 -75s63.333 -28 102 -28zM288 773h47l146 -174h-60l-109 131l-108 -131
h-60z" />
    <glyph glyph-name="otilde" unicode="&#xf5;" horiz-adv-x="624" 
d="M312 -16c-46.667 0 -89 10.833 -127 32.5s-68.5 52.334 -91.5 92.001s-34.5 84.834 -34.5 135.501c0 46.667 10.667 89.667 32 129s51.333 71.166 90 95.499s82.334 36.5 131.001 36.5c46.667 0 89 -10.833 127 -32.5s68.5 -52.334 91.5 -92.001
s34.5 -84.834 34.5 -135.501c0 -46.667 -10.667 -89.667 -32 -129s-51.333 -71.166 -90 -95.499s-82.334 -36.5 -131.001 -36.5zM312 36c35.333 0 67.666 8.5 96.999 25.5s52.666 41.5 69.999 73.5s26 68.667 26 110c0 38.667 -7.83301 73.667 -23.5 105
s-38.167 56.333 -67.5 75s-63.333 28 -102 28c-35.333 0 -67.666 -8.5 -96.999 -25.5s-52.666 -41.5 -69.999 -73.5s-26 -68.667 -26 -110c0 -38.667 7.83301 -73.667 23.5 -105s38.167 -56.333 67.5 -75s63.333 -28 102 -28zM382 621
c-16.667 0.666992 -31.3301 4.83398 -43.9971 12.501s-24.167 16.5 -34.5 26.5s-20.333 18.833 -30 26.5s-19.834 11.834 -30.501 12.501c-31.333 0 -47 -25.667 -47 -77h-45c0 40.667 7.66699 71.667 23 93s37.666 32 66.999 32
c17.333 -0.666992 32.333 -4.83398 45 -12.501s24.167 -16.667 34.5 -27s20.166 -19.333 29.499 -27s19.333 -11.834 30 -12.501c32 0 48 26 48 78h45c0 -40 -7.83301 -70.833 -23.5 -92.5s-38.167 -32.5 -67.5 -32.5z" />
    <glyph glyph-name="odieresis" unicode="&#xf6;" horiz-adv-x="624" 
d="M312 -16c-46.667 0 -89 10.833 -127 32.5s-68.5 52.334 -91.5 92.001s-34.5 84.834 -34.5 135.501c0 46.667 10.667 89.667 32 129s51.333 71.166 90 95.499s82.334 36.5 131.001 36.5c46.667 0 89 -10.833 127 -32.5s68.5 -52.334 91.5 -92.001
s34.5 -84.834 34.5 -135.501c0 -46.667 -10.667 -89.667 -32 -129s-51.333 -71.166 -90 -95.499s-82.334 -36.5 -131.001 -36.5zM312 36c35.333 0 67.666 8.5 96.999 25.5s52.666 41.5 69.999 73.5s26 68.667 26 110c0 38.667 -7.83301 73.667 -23.5 105
s-38.167 56.333 -67.5 75s-63.333 28 -102 28c-35.333 0 -67.666 -8.5 -96.999 -25.5s-52.666 -41.5 -69.999 -73.5s-26 -68.667 -26 -110c0 -38.667 7.83301 -73.667 23.5 -105s38.167 -56.333 67.5 -75s63.333 -28 102 -28zM222 642c-12 0 -21.667 3.83203 -29 11.499
s-11 17.5 -11 29.5c0 12.667 3.83301 22.834 11.5 30.501s17.167 11.5 28.5 11.5c12 0 22 -4 30 -12s12 -18 12 -30s-4 -21.833 -12 -29.5s-18 -11.5 -30 -11.5zM401 641.999c-12 0 -21.833 3.83301 -29.5 11.5s-11.5 17.5 -11.5 29.5s3.83301 22 11.5 30s17.5 12 29.5 12
s21.833 -4 29.5 -12s11.5 -18 11.5 -30s-3.83301 -21.833 -11.5 -29.5s-17.5 -11.5 -29.5 -11.5z" />
    <glyph glyph-name="divide" unicode="&#xf7;" horiz-adv-x="620" 
d="M88 362h444v-53h-444v53zM310 112c-12.667 0 -23.334 4.5 -32.001 13.5s-13 19.833 -13 32.5s4.33301 23.334 13 32.001s19.334 13 32.001 13s23.5 -4.33301 32.5 -13s13.5 -19.334 13.5 -32.001s-4.5 -23.5 -13.5 -32.5s-19.833 -13.5 -32.5 -13.5zM310 464
c-12.667 0 -23.334 4.5 -32.001 13.5s-13 19.833 -13 32.5s4.33301 23.334 13 32.001s19.334 13 32.001 13s23.5 -4.33301 32.5 -13s13.5 -19.334 13.5 -32.001s-4.5 -23.5 -13.5 -32.5s-19.833 -13.5 -32.5 -13.5z" />
    <glyph glyph-name="oslash" unicode="&#xf8;" horiz-adv-x="624" 
d="M312 -16c-32 0 -62.5 5.33398 -91.5 16.001s-54.833 26 -77.5 46l-54 -55l-31 31l55 56c-17.333 22 -30.666 47.333 -39.999 76s-14 58.667 -14 90c0 46.667 10.667 89.667 32 129s51.333 71.166 90 95.499s82.334 36.5 131.001 36.5
c61.333 0 115.666 -19.333 162.999 -58l62 62l31 -31l-62 -63c39.333 -48.667 59 -105.334 59 -170.001c0 -46.667 -10.667 -89.667 -32 -129s-51.333 -71.166 -90 -95.499s-82.334 -36.5 -131.001 -36.5zM437 407.001c-34.667 30.667 -76.335 46 -125.002 46
c-35.333 0 -67.666 -8.5 -96.999 -25.5s-52.666 -41.5 -69.999 -73.5s-26 -68.667 -26 -110c0 -48 11.667 -89.667 35 -125zM311.999 36.001c35.333 0 67.668 8.50098 97.001 25.501s52.666 41.5 69.999 73.5s26 68.667 26 110c0 49.333 -13 92.666 -39 129.999l-284 -290
c34.667 -32.667 78 -49 130 -49z" />
    <glyph glyph-name="ugrave" unicode="&#xf9;" horiz-adv-x="601" 
d="M275 -16c-58 0 -102.833 18.333 -134.5 55s-47.5 88.334 -47.5 155.001v295h58v-286c0 -111.333 45.333 -167 136 -167c48.667 0 87.5 16.833 116.5 50.5s43.5 79.167 43.5 136.5v266h58v-489h-54l-1 83c-17.333 -32.667 -41 -57.334 -71 -74.001s-64.667 -25 -104 -25z
M179 773h69l123 -174h-57z" />
    <glyph glyph-name="uacute" unicode="&#xfa;" horiz-adv-x="601" 
d="M275 -16c-58 0 -102.833 18.333 -134.5 55s-47.5 88.334 -47.5 155.001v295h58v-286c0 -111.333 45.333 -167 136 -167c48.667 0 87.5 16.833 116.5 50.5s43.5 79.167 43.5 136.5v266h58v-489h-54l-1 83c-17.333 -32.667 -41 -57.334 -71 -74.001s-64.667 -25 -104 -25z
M349 773h70l-136 -174h-57z" />
    <glyph glyph-name="ucircumflex" unicode="&#xfb;" horiz-adv-x="601" 
d="M275 -16c-58 0 -102.833 18.333 -134.5 55s-47.5 88.334 -47.5 155.001v295h58v-286c0 -111.333 45.333 -167 136 -167c48.667 0 87.5 16.833 116.5 50.5s43.5 79.167 43.5 136.5v266h58v-489h-54l-1 83c-17.333 -32.667 -41 -57.334 -71 -74.001s-64.667 -25 -104 -25z
M274 773h47l146 -174h-60l-109 131l-108 -131h-60z" />
    <glyph glyph-name="udieresis" unicode="&#xfc;" horiz-adv-x="601" 
d="M275 -16c-58 0 -102.833 18.333 -134.5 55s-47.5 88.334 -47.5 155.001v295h58v-286c0 -111.333 45.333 -167 136 -167c48.667 0 87.5 16.833 116.5 50.5s43.5 79.167 43.5 136.5v266h58v-489h-54l-1 83c-17.333 -32.667 -41 -57.334 -71 -74.001s-64.667 -25 -104 -25z
M208 642c-12 0 -21.667 3.83203 -29 11.499s-11 17.5 -11 29.5c0 12.667 3.83301 22.834 11.5 30.501s17.167 11.5 28.5 11.5c12 0 22 -4 30 -12s12 -18 12 -30s-4 -21.833 -12 -29.5s-18 -11.5 -30 -11.5zM387 641.999c-12 0 -21.833 3.83301 -29.5 11.5
s-11.5 17.5 -11.5 29.5s3.83301 22 11.5 30s17.5 12 29.5 12s21.833 -4 29.5 -12s11.5 -18 11.5 -30s-3.83301 -21.833 -11.5 -29.5s-17.5 -11.5 -29.5 -11.5z" />
    <glyph glyph-name="yacute" unicode="&#xfd;" horiz-adv-x="541" 
d="M79 -255c-12 0 -23.999 1.5 -35.999 4.5s-21.667 7.16699 -29 12.5l8 52c6.66699 -4.66699 15.167 -8.5 25.5 -11.5s20.5 -4.5 30.5 -4.5c22 0 41.167 5.83301 57.5 17.5s32 30.167 47 55.5s30.833 59 47.5 101l14 36l-217 481h63l185 -420l168 420h64l-220 -524
c-24 -56.667 -46.333 -101 -67 -133s-41.834 -54.5 -63.501 -67.5s-47.5 -19.5 -77.5 -19.5zM321.001 773h70l-136 -174h-57z" />
    <glyph glyph-name="thorn" unicode="&#xfe;" horiz-adv-x="656" 
d="M98 -245l-0.00195312 1055h58v-412c18.667 34 45.334 60.333 80.001 79s74 28 118 28c45.333 0 86.333 -10.833 123 -32.5s65.834 -52.334 87.501 -92.001s32.5 -84.834 32.5 -135.501c0 -46.667 -10.5 -89.667 -31.5 -129s-50.5 -71.166 -88.5 -95.499
s-80.667 -36.5 -128 -36.5c-42 0 -80.333 9.66699 -115 29s-60.667 45.333 -78 78v-336h-58zM343.998 36.001c35.333 0 67.668 8.50195 97.001 25.502s52.666 41.5 69.999 73.5s26 68.667 26 110c0 38.667 -7.83301 73.667 -23.5 105s-38.167 56.333 -67.5 75
s-63.333 28 -102 28c-36 0 -68.5 -8.5 -97.5 -25.5s-52.167 -41.333 -69.5 -73s-26 -68.167 -26 -109.5c0 -38.667 8 -73.834 24 -105.501s38.667 -56.834 68 -75.501s63 -28 101 -28z" />
    <glyph glyph-name="ydieresis" unicode="&#xff;" horiz-adv-x="541" 
d="M79 -255c-12 0 -23.999 1.5 -35.999 4.5s-21.667 7.16699 -29 12.5l8 52c6.66699 -4.66699 15.167 -8.5 25.5 -11.5s20.5 -4.5 30.5 -4.5c22 0 41.167 5.83301 57.5 17.5s32 30.167 47 55.5s30.833 59 47.5 101l14 36l-217 481h63l185 -420l168 420h64l-220 -524
c-24 -56.667 -46.333 -101 -67 -133s-41.834 -54.5 -63.501 -67.5s-47.5 -19.5 -77.5 -19.5zM180.001 642c-12 0 -21.667 3.83203 -29 11.499s-11 17.5 -11 29.5c0 12.667 3.83301 22.834 11.5 30.501s17.167 11.5 28.5 11.5c12 0 22 -4 30 -12s12 -18 12 -30
s-4 -21.833 -12 -29.5s-18 -11.5 -30 -11.5zM359.001 641.999c-12 0 -21.833 3.83301 -29.5 11.5s-11.5 17.5 -11.5 29.5s3.83301 22 11.5 30s17.5 12 29.5 12s21.833 -4 29.5 -12s11.5 -18 11.5 -30s-3.83301 -21.833 -11.5 -29.5s-17.5 -11.5 -29.5 -11.5z" />
    <glyph glyph-name="Amacron" unicode="&#x100;" horiz-adv-x="751" 
d="M341 760h68l312 -760h-67l-98 243h-366l-97 -243h-63zM535 295l-161 405l-163 -405h324zM228 916h294v-51h-294v51z" />
    <glyph glyph-name="amacron" unicode="&#x101;" horiz-adv-x="558" 
d="M232 -16c-52 0 -94.334 14.001 -127.001 42.001s-49 64.333 -49 109c0 50.667 18 90.667 54 120s85 44 147 44c26.667 0 53.5 -2.83301 80.5 -8.5s50.833 -13.167 71.5 -22.5v20c0 54.667 -13.5 96 -40.5 124s-66.833 42 -119.5 42c-58.667 0 -111.667 -18 -159 -54
l-7 50c20.667 16.667 46.5 30 77.5 40s62.5 15 94.5 15c66.667 0 118.334 -18.333 155.001 -55s55 -88 55 -154v-296h-54l-1 80c-16.667 -30.667 -40.5 -54.334 -71.5 -71.001s-66.5 -25 -106.5 -25zM239.999 34.001c31.333 0 59.833 7.66699 85.5 23s46 37.166 61 65.499
s22.5 60.833 22.5 97.5c-42.667 20 -92 30 -148 30c-46.667 0 -83.167 -9.66699 -109.5 -29s-39.5 -46.666 -39.5 -81.999c0 -32 11.5 -57.5 34.5 -76.5s54.167 -28.5 93.5 -28.5zM111.999 704.001h294v-51h-294v51z" />
    <glyph glyph-name="Abreve" unicode="&#x102;" horiz-adv-x="751" 
d="M341 760h68l312 -760h-67l-98 243h-366l-97 -243h-63zM535 295l-161 405l-163 -405h324zM375 825c-44 0 -79.5 11.667 -106.5 35s-40.5 54.333 -40.5 93c0 6.66699 0.333008 11.334 1 14.001h47c0 -32 8.33301 -56.333 25 -73s41.334 -25 74.001 -25
c66 0 99 32.667 99 98h47c0.666992 -2.66699 1 -7.33398 1 -14.001c0 -38.667 -13.333 -69.667 -40 -93s-62.334 -35 -107.001 -35z" />
    <glyph glyph-name="abreve" unicode="&#x103;" horiz-adv-x="558" 
d="M232 -16c-52 0 -94.334 14.001 -127.001 42.001s-49 64.333 -49 109c0 50.667 18 90.667 54 120s85 44 147 44c26.667 0 53.5 -2.83301 80.5 -8.5s50.833 -13.167 71.5 -22.5v20c0 54.667 -13.5 96 -40.5 124s-66.833 42 -119.5 42c-58.667 0 -111.667 -18 -159 -54
l-7 50c20.667 16.667 46.5 30 77.5 40s62.5 15 94.5 15c66.667 0 118.334 -18.333 155.001 -55s55 -88 55 -154v-296h-54l-1 80c-16.667 -30.667 -40.5 -54.334 -71.5 -71.001s-66.5 -25 -106.5 -25zM239.999 34.001c31.333 0 59.833 7.66699 85.5 23s46 37.166 61 65.499
s22.5 60.833 22.5 97.5c-42.667 20 -92 30 -148 30c-46.667 0 -83.167 -9.66699 -109.5 -29s-39.5 -46.666 -39.5 -81.999c0 -32 11.5 -57.5 34.5 -76.5s54.167 -28.5 93.5 -28.5zM258.999 600.001c-43.333 0 -78.168 12.5 -104.501 37.5s-39.5 58.167 -39.5 99.5
c0 6.66699 0.333008 11.334 1 14.001h45c0 -72 32.667 -108 98 -108s98 36 98 108h45c0.666992 -2.66699 1 -7.33398 1 -14.001c0 -41.333 -13.167 -74.5 -39.5 -99.5s-61.166 -37.5 -104.499 -37.5z" />
    <glyph glyph-name="Aogonek" unicode="&#x104;" horiz-adv-x="751" 
d="M341 760h68l312 -760h-67l-98 243h-366l-97 -243h-63zM535 295l-161 405l-163 -405h324zM653 -252c-30 0 -54 8.33105 -72 24.998s-27 38.334 -27 65.001c0 30.667 11.667 61.5 35 92.5s57.333 60.833 102 89.5l30 -20c-76.667 -53.333 -115 -103.666 -115 -150.999
c0 -17.333 4.83301 -30.666 14.5 -39.999s23.167 -14 40.5 -14c20.667 0 42 6 64 18l7 -44c-10 -6.66699 -22.167 -11.834 -36.5 -15.501s-28.5 -5.5 -42.5 -5.5z" />
    <glyph glyph-name="aogonek" unicode="&#x105;" horiz-adv-x="558" 
d="M232 -16c-52 0 -94.334 14.001 -127.001 42.001s-49 64.333 -49 109c0 50.667 18 90.667 54 120s85 44 147 44c26.667 0 53.5 -2.83301 80.5 -8.5s50.833 -13.167 71.5 -22.5v20c0 54.667 -13.5 96 -40.5 124s-66.833 42 -119.5 42c-58.667 0 -111.667 -18 -159 -54
l-7 50c20.667 16.667 46.5 30 77.5 40s62.5 15 94.5 15c66.667 0 118.334 -18.333 155.001 -55s55 -88 55 -154v-296h-54l-1 80c-16.667 -30.667 -40.5 -54.334 -71.5 -71.001s-66.5 -25 -106.5 -25zM239.999 34.001c31.333 0 59.833 7.66699 85.5 23s46 37.166 61 65.499
s22.5 60.833 22.5 97.5c-42.667 20 -92 30 -148 30c-46.667 0 -83.167 -9.66699 -109.5 -29s-39.5 -46.666 -39.5 -81.999c0 -32 11.5 -57.5 34.5 -76.5s54.167 -28.5 93.5 -28.5zM397.999 -251.999c-30 0 -54 8.33203 -72 24.999s-27 38.334 -27 65.001
c0 62 45.333 122.667 136 182l30 -20c-76 -52.667 -114 -103 -114 -151c0 -17.333 4.83301 -30.666 14.5 -39.999s23.167 -14 40.5 -14c20.667 0 42 6 64 18l7 -44c-10 -6.66699 -22.167 -11.834 -36.5 -15.501s-28.5 -5.5 -42.5 -5.5z" />
    <glyph glyph-name="Cacute" unicode="&#x106;" horiz-adv-x="772" 
d="M460 -11c-73.333 0 -139.498 16.0029 -198.498 48.0029s-105.833 77.5 -140.5 136.5s-52 127.167 -52 204.5c0 74.667 16.167 141.667 48.5 201s78.833 106.166 139.5 140.499s131 51.5 211 51.5c38.667 0 77.834 -5.16699 117.501 -15.5s75.5 -24.5 107.5 -42.5l-13 -56
c-74 38 -146.667 57 -218 57c-62.667 0 -118.834 -13.5 -168.501 -40.5s-88.834 -65.833 -117.501 -116.5s-43 -109.334 -43 -176.001c0 -64.667 13.333 -122.334 40 -173.001s65 -90.334 115 -119.001s108 -43 174 -43c38 0 77.167 4.83301 117.5 14.5
s77.166 22.834 110.499 39.501l9 -55c-34.667 -18 -72.667 -31.833 -114 -41.5s-83 -14.5 -125 -14.5zM509.002 964.003h79l-149 -129h-66z" />
    <glyph glyph-name="cacute" unicode="&#x107;" horiz-adv-x="530" 
d="M322 -15c-50.667 0 -95.832 10.499 -135.499 31.499s-70.834 51 -93.501 90s-34 84.5 -34 136.5c0 48.667 10.667 92.667 32 132s51.833 70.5 91.5 93.5s85.167 34.5 136.5 34.5c59.333 0 109 -12 149 -36l-9 -51c-20 11.333 -42.167 20 -66.5 26s-48.833 9 -73.5 9
c-38.667 0 -73 -8.33301 -103 -25s-53.667 -40.667 -71 -72s-26 -67.666 -26 -108.999c0 -62.667 18.667 -113 56 -151s87 -57 149 -57c52 0 101.333 12.667 148 38l7 -49c-20 -12.667 -44 -22.667 -72 -30s-56.333 -11 -85 -11zM347.002 772.999h70l-136 -174h-57z" />
    <glyph glyph-name="Cdotaccent" unicode="&#x10a;" horiz-adv-x="772" 
d="M460 -11c-73.333 0 -139.498 16.0029 -198.498 48.0029s-105.833 77.5 -140.5 136.5s-52 127.167 -52 204.5c0 74.667 16.167 141.667 48.5 201s78.833 106.166 139.5 140.499s131 51.5 211 51.5c38.667 0 77.834 -5.16699 117.501 -15.5s75.5 -24.5 107.5 -42.5l-13 -56
c-74 38 -146.667 57 -218 57c-62.667 0 -118.834 -13.5 -168.501 -40.5s-88.834 -65.833 -117.501 -116.5s-43 -109.334 -43 -176.001c0 -64.667 13.333 -122.334 40 -173.001s65 -90.334 115 -119.001s108 -43 174 -43c38 0 77.167 4.83301 117.5 14.5
s77.166 22.834 110.499 39.501l9 -55c-34.667 -18 -72.667 -31.833 -114 -41.5s-83 -14.5 -125 -14.5zM442.002 846.003c-13.333 0 -23.833 3.83301 -31.5 11.5s-11.5 18.167 -11.5 31.5s4 24 12 32s18.333 12 31 12c13.333 0 24 -4 32 -12s12 -18.667 12 -32
c0 -12.667 -4 -23 -12 -31s-18.667 -12 -32 -12z" />
    <glyph glyph-name="cdotaccent" unicode="&#x10b;" horiz-adv-x="530" 
d="M322 -15c-50.667 0 -95.832 10.499 -135.499 31.499s-70.834 51 -93.501 90s-34 84.5 -34 136.5c0 48.667 10.667 92.667 32 132s51.833 70.5 91.5 93.5s85.167 34.5 136.5 34.5c59.333 0 109 -12 149 -36l-9 -51c-20 11.333 -42.167 20 -66.5 26s-48.833 9 -73.5 9
c-38.667 0 -73 -8.33301 -103 -25s-53.667 -40.667 -71 -72s-26 -67.666 -26 -108.999c0 -62.667 18.667 -113 56 -151s87 -57 149 -57c52 0 101.333 12.667 148 38l7 -49c-20 -12.667 -44 -22.667 -72 -30s-56.333 -11 -85 -11zM296.002 638.999
c-13.333 0 -23.833 4 -31.5 12s-11.5 18.667 -11.5 32c0 12.667 4 23 12 31s18.333 12 31 12c13.333 0 24 -4 32 -12s12 -18.333 12 -31s-4 -23.167 -12 -31.5s-18.667 -12.5 -32 -12.5z" />
    <glyph glyph-name="Ccaron" unicode="&#x10c;" horiz-adv-x="772" 
d="M460 -11c-73.333 0 -139.498 16.0029 -198.498 48.0029s-105.833 77.5 -140.5 136.5s-52 127.167 -52 204.5c0 74.667 16.167 141.667 48.5 201s78.833 106.166 139.5 140.499s131 51.5 211 51.5c38.667 0 77.834 -5.16699 117.501 -15.5s75.5 -24.5 107.5 -42.5l-13 -56
c-74 38 -146.667 57 -218 57c-62.667 0 -118.834 -13.5 -168.501 -40.5s-88.834 -65.833 -117.501 -116.5s-43 -109.334 -43 -176.001c0 -64.667 13.333 -122.334 40 -173.001s65 -90.334 115 -119.001s108 -43 174 -43c38 0 77.167 4.83301 117.5 14.5
s77.166 22.834 110.499 39.501l9 -55c-34.667 -18 -72.667 -31.833 -114 -41.5s-83 -14.5 -125 -14.5zM272.002 977.003h65l105 -104l104 104h66l-144 -142h-53z" />
    <glyph glyph-name="ccaron" unicode="&#x10d;" horiz-adv-x="530" 
d="M322 -15c-50.667 0 -95.832 10.499 -135.499 31.499s-70.834 51 -93.501 90s-34 84.5 -34 136.5c0 48.667 10.667 92.667 32 132s51.833 70.5 91.5 93.5s85.167 34.5 136.5 34.5c59.333 0 109 -12 149 -36l-9 -51c-20 11.333 -42.167 20 -66.5 26s-48.833 9 -73.5 9
c-38.667 0 -73 -8.33301 -103 -25s-53.667 -40.667 -71 -72s-26 -67.666 -26 -108.999c0 -62.667 18.667 -113 56 -151s87 -57 149 -57c52 0 101.333 12.667 148 38l7 -49c-20 -12.667 -44 -22.667 -72 -30s-56.333 -11 -85 -11zM126.002 772.999h61l109 -132l107 132h60
l-144 -174h-47z" />
    <glyph glyph-name="Dcaron" unicode="&#x10e;" horiz-adv-x="847" 
d="M122 760h253c128 0 227.167 -33.167 297.5 -99.5s105.5 -159.833 105.5 -280.5c0 -122.667 -35.5 -216.667 -106.5 -282s-173.167 -98 -306.5 -98h-243v760zM184 55l183 -0.000976562c114.667 0 201.167 27.333 259.5 82s87.5 135.334 87.5 242.001
c0 107.333 -29.167 188.5 -87.5 243.5s-144.5 82.5 -258.5 82.5h-184v-650zM229 976.999h65l105 -104l104 104h66l-144 -142h-53z" />
    <glyph glyph-name="dcaron" unicode="&#x10f;" horiz-adv-x="654" 
d="M302 -16c-45.333 0 -86.332 10.832 -122.999 32.499s-65.834 52.334 -87.501 92.001s-32.5 84.834 -32.5 135.501c0 46.667 10.5 89.667 31.5 129s50.5 71.166 88.5 95.499s80.667 36.5 128 36.5c41.333 0 79.333 -9.66699 114 -29s61 -45.333 79 -78v412h58v-810h-56
l-2 92c-18.667 -34 -45.167 -60.5 -79.5 -79.5s-73.833 -28.5 -118.5 -28.5zM312.001 35.999c36 0 68.498 8.49805 97.498 25.498s52.167 41.333 69.5 73s26 68.167 26 109.5c0 38.667 -8 73.834 -24 105.501s-38.667 56.834 -68 75.501s-63 28 -101 28
c-35.333 0 -67.666 -8.5 -96.999 -25.5s-52.666 -41.5 -69.999 -73.5s-26 -68.667 -26 -110c0 -38.667 7.83301 -73.667 23.5 -105s38.167 -56.333 67.5 -75s63.333 -28 102 -28zM639.999 809.997h58l-31 -230h-40z" />
    <glyph glyph-name="Dcroat" unicode="&#x110;" horiz-adv-x="857" 
d="M132 358h-105v50h105v352h253c128 0 227.167 -33.167 297.5 -99.5s105.5 -159.833 105.5 -280.5c0 -122.667 -35.5 -216.667 -106.5 -282s-173.167 -98 -306.5 -98h-243v358zM194 55l183 -0.000976562c114.667 0 201.167 27.333 259.5 82s87.5 135.334 87.5 242.001
c0 107.333 -29.167 188.5 -87.5 243.5s-144.5 82.5 -258.5 82.5h-184v-297h195v-50h-195v-303z" />
    <glyph glyph-name="dcroat" unicode="&#x111;" horiz-adv-x="654" 
d="M302 -16c-45.333 0 -86.332 10.832 -122.999 32.499s-65.834 52.334 -87.501 92.001s-32.5 84.834 -32.5 135.501c0 46.667 10.5 89.667 31.5 129s50.5 71.166 88.5 95.499s80.667 36.5 128 36.5c41.333 0 79.333 -9.66699 114 -29s61 -45.333 79 -78v226h-176v46h176
v140h58v-140h77v-46h-77v-624h-56l-2 92c-18.667 -34 -45.167 -60.5 -79.5 -79.5s-73.833 -28.5 -118.5 -28.5zM312.001 35.999c36 0 68.498 8.49805 97.498 25.498s52.167 41.333 69.5 73s26 68.167 26 109.5c0 38.667 -8 73.834 -24 105.501s-38.667 56.834 -68 75.501
s-63 28 -101 28c-35.333 0 -67.666 -8.5 -96.999 -25.5s-52.666 -41.5 -69.999 -73.5s-26 -68.667 -26 -110c0 -38.667 7.83301 -73.667 23.5 -105s38.167 -56.333 67.5 -75s63.333 -28 102 -28z" />
    <glyph glyph-name="Emacron" unicode="&#x112;" horiz-adv-x="654" 
d="M122 760h440v-54h-378v-288h338v-53h-338v-311h393v-54h-455v760zM203 916h294v-51h-294v51z" />
    <glyph glyph-name="emacron" unicode="&#x113;" horiz-adv-x="577" 
d="M326 -16c-80.667 0 -145.335 23.4971 -194.002 70.4971s-73 109.5 -73 187.5c0 48.667 9.83301 92.834 29.5 132.501s47.834 71.334 84.501 95.001s78.334 35.5 125.001 35.5c41.333 0 78.333 -9.66699 111 -29s58.334 -46.833 77.001 -82.5s28 -77.167 28 -124.5
c0 -11.333 -1 -25 -3 -41h-395c2.66699 -59.333 22.834 -106.166 60.501 -140.499s88.5 -51.5 152.5 -51.5c61.333 0 116.666 13.667 165.999 41l8 -50c-20.667 -13.333 -46.834 -23.833 -78.501 -31.5s-64.5 -11.5 -98.5 -11.5zM457.999 277.997
c-1.33301 54 -16.668 96.833 -46.001 128.5s-68.333 47.5 -117 47.5c-47.333 0 -87.166 -16 -119.499 -48s-51.833 -74.667 -58.5 -128h341zM144.997 703.997h294v-51h-294v51z" />
    <glyph glyph-name="Edotaccent" unicode="&#x116;" horiz-adv-x="654" 
d="M122 760h440v-54h-378v-288h338v-53h-338v-311h393v-54h-455v760zM350 846c-13.333 0 -23.833 3.83301 -31.5 11.5s-11.5 18.167 -11.5 31.5s4 24 12 32s18.333 12 31 12c13.333 0 24 -4 32 -12s12 -18.667 12 -32c0 -12.667 -4 -23 -12 -31s-18.667 -12 -32 -12z" />
    <glyph glyph-name="edotaccent" unicode="&#x117;" horiz-adv-x="577" 
d="M326 -16c-80.667 0 -145.335 23.4971 -194.002 70.4971s-73 109.5 -73 187.5c0 48.667 9.83301 92.834 29.5 132.501s47.834 71.334 84.501 95.001s78.334 35.5 125.001 35.5c41.333 0 78.333 -9.66699 111 -29s58.334 -46.833 77.001 -82.5s28 -77.167 28 -124.5
c0 -11.333 -1 -25 -3 -41h-395c2.66699 -59.333 22.834 -106.166 60.501 -140.499s88.5 -51.5 152.5 -51.5c61.333 0 116.666 13.667 165.999 41l8 -50c-20.667 -13.333 -46.834 -23.833 -78.501 -31.5s-64.5 -11.5 -98.5 -11.5zM457.999 277.997
c-1.33301 54 -16.668 96.833 -46.001 128.5s-68.333 47.5 -117 47.5c-47.333 0 -87.166 -16 -119.499 -48s-51.833 -74.667 -58.5 -128h341zM291.997 638.997c-13.333 0 -23.833 4 -31.5 12s-11.5 18.667 -11.5 32c0 12.667 4 23 12 31s18.333 12 31 12
c13.333 0 24 -4 32 -12s12 -18.333 12 -31s-4 -23.167 -12 -31.5s-18.667 -12.5 -32 -12.5z" />
    <glyph glyph-name="Eogonek" unicode="&#x118;" horiz-adv-x="654" 
d="M122 760h440v-54h-378v-288h338v-53h-338v-311h393v-54h-455v760zM509 -252c-30 0 -54 8.33105 -72 24.998s-27 38.334 -27 65.001c0 30.667 11.667 61.5 35 92.5s57.333 60.833 102 89.5l30 -20c-76.667 -53.333 -115 -103.666 -115 -150.999
c0 -17.333 4.83301 -30.666 14.5 -39.999s23.167 -14 40.5 -14c20.667 0 42 6 64 18l7 -44c-10 -6.66699 -22.167 -11.834 -36.5 -15.501s-28.5 -5.5 -42.5 -5.5z" />
    <glyph glyph-name="eogonek" unicode="&#x119;" horiz-adv-x="577" 
d="M326 -16c-80.667 0 -145.335 23.4971 -194.002 70.4971s-73 109.5 -73 187.5c0 48.667 9.83301 92.834 29.5 132.501s47.834 71.334 84.501 95.001s78.334 35.5 125.001 35.5c41.333 0 78.333 -9.66699 111 -29s58.334 -46.833 77.001 -82.5s28 -77.167 28 -124.5
c0 -11.333 -1 -25 -3 -41h-395c2.66699 -59.333 22.834 -106.166 60.501 -140.499s88.5 -51.5 152.5 -51.5c61.333 0 116.666 13.667 165.999 41l8 -50c-20.667 -13.333 -46.834 -23.833 -78.501 -31.5s-64.5 -11.5 -98.5 -11.5zM457.999 277.997
c-1.33301 54 -16.668 96.833 -46.001 128.5s-68.333 47.5 -117 47.5c-47.333 0 -87.166 -16 -119.499 -48s-51.833 -74.667 -58.5 -128h341zM394.997 -252.003c-30 0 -54 8.33301 -72 25s-27 38.334 -27 65.001c0 33.333 14 66.833 42 100.5s65 61.167 111 82.5l44 1
c-96.667 -62.667 -145 -120.334 -145 -173.001c0 -17.333 4.83301 -30.666 14.5 -39.999s23.5 -14 41.5 -14c20 0 41 6 63 18l7 -44c-10 -6.66699 -22.167 -11.834 -36.5 -15.501s-28.5 -5.5 -42.5 -5.5z" />
    <glyph glyph-name="Ecaron" unicode="&#x11a;" horiz-adv-x="654" 
d="M122 760h440v-54h-378v-288h338v-53h-338v-311h393v-54h-455v760zM180 977h65l105 -104l104 104h66l-144 -142h-53z" />
    <glyph glyph-name="ecaron" unicode="&#x11b;" horiz-adv-x="577" 
d="M326 -16c-80.667 0 -145.335 23.4971 -194.002 70.4971s-73 109.5 -73 187.5c0 48.667 9.83301 92.834 29.5 132.501s47.834 71.334 84.501 95.001s78.334 35.5 125.001 35.5c41.333 0 78.333 -9.66699 111 -29s58.334 -46.833 77.001 -82.5s28 -77.167 28 -124.5
c0 -11.333 -1 -25 -3 -41h-395c2.66699 -59.333 22.834 -106.166 60.501 -140.499s88.5 -51.5 152.5 -51.5c61.333 0 116.666 13.667 165.999 41l8 -50c-20.667 -13.333 -46.834 -23.833 -78.501 -31.5s-64.5 -11.5 -98.5 -11.5zM457.999 277.997
c-1.33301 54 -16.668 96.833 -46.001 128.5s-68.333 47.5 -117 47.5c-47.333 0 -87.166 -16 -119.499 -48s-51.833 -74.667 -58.5 -128h341zM121.997 772.997h61l109 -132l107 132h60l-144 -174h-47z" />
    <glyph glyph-name="Gbreve" unicode="&#x11e;" horiz-adv-x="827" 
d="M467 -11c-76 0 -144 15.6631 -204 46.9961s-107.333 76.333 -142 135s-52 127 -52 205c0 74.667 16.5 141.834 49.5 201.501s80 106.834 141 141.501s131.5 52 211.5 52c44 0 88 -5.16699 132 -15.5s82.667 -24.5 116 -42.5l-13 -55c-32 17.333 -69.5 31 -112.5 41
s-85.5 15 -127.5 15c-62 0 -118.167 -13.667 -168.5 -41s-90.333 -66.5 -120 -117.5s-44.5 -109.5 -44.5 -175.5c0 -65.333 13.333 -123.166 40 -173.499s65.5 -89.666 116.5 -117.999s110.833 -42.5 179.5 -42.5c74.667 0 143.334 13 206.001 39v248h-194v55h255v-341
c-78.667 -38.667 -168.334 -58 -269.001 -58zM445 824.996c-44 0 -79.5 11.667 -106.5 35s-40.5 54.333 -40.5 93c0 6.66699 0.333008 11.334 1 14.001h47c0 -32 8.33301 -56.333 25 -73s41.334 -25 74.001 -25c66 0 99 32.667 99 98h47
c0.666992 -2.66699 1 -7.33398 1 -14.001c0 -38.667 -13.333 -69.667 -40 -93s-62.334 -35 -107.001 -35z" />
    <glyph glyph-name="gbreve" unicode="&#x11f;" horiz-adv-x="568" 
d="M277 -255c-73.333 0 -130.332 12.8359 -170.999 38.5029s-61 61.5 -61 107.5c0 31.333 8.66699 58.333 26 81s41.666 39 72.999 49c-22.667 4.66699 -40.5 14.334 -53.5 29.001s-19.5 32 -19.5 52c0 19.333 6.33301 37.166 19 53.499s31 30.166 55 41.499
c-23.333 15.333 -41 34.5 -53 57.5s-18 49.167 -18 78.5c0 51.333 18.667 92.833 56 124.5s86.333 47.5 147 47.5c18 0 36.667 -2.16699 56 -6.5s35.333 -9.83301 48 -16.5l157 8v-51l-107 4c32.667 -30 49 -66.667 49 -110c0 -52 -18.5 -93.667 -55.5 -125
s-86.167 -47 -147.5 -47c-35.333 0 -67 5.66699 -95 17c-18 -8.66699 -31.667 -18.667 -41 -30s-14 -23.333 -14 -36c0 -20.667 8.5 -35.334 25.5 -44.001s46.833 -13 89.5 -13h50c148 0 222 -49.333 222 -148c0 -50.667 -21 -90.334 -63 -119.001s-100 -43 -174 -43z
M283.001 -206.997c54.667 0 97.1689 9.66699 127.502 29s45.5 46.666 45.5 81.999c0 36 -13.333 62 -40 78s-69.334 24 -128.001 24h-25c-52.667 0 -92.834 -9.16699 -120.501 -27.5s-41.5 -45.166 -41.5 -80.499c0 -34 15.667 -60 47 -78s76.333 -27 135 -27z
M277.003 210.003c45.333 0 81 11 107 33s39 52 39 90c0 37.333 -13.167 67.166 -39.5 89.499s-61.833 33.5 -106.5 33.5s-80.167 -11 -106.5 -33s-39.5 -52 -39.5 -90c0 -37.333 13.167 -67.166 39.5 -89.499s61.833 -33.5 106.5 -33.5zM289.003 600.003
c-43.333 0 -78.168 12.5 -104.501 37.5s-39.5 58.167 -39.5 99.5c0 6.66699 0.333008 11.334 1 14.001h45c0 -72 32.667 -108 98 -108s98 36 98 108h45c0.666992 -2.66699 1 -7.33398 1 -14.001c0 -41.333 -13.167 -74.5 -39.5 -99.5s-61.166 -37.5 -104.499 -37.5z" />
    <glyph glyph-name="Gdotaccent" unicode="&#x120;" horiz-adv-x="827" 
d="M467 -11c-76 0 -144 15.6631 -204 46.9961s-107.333 76.333 -142 135s-52 127 -52 205c0 74.667 16.5 141.834 49.5 201.501s80 106.834 141 141.501s131.5 52 211.5 52c44 0 88 -5.16699 132 -15.5s82.667 -24.5 116 -42.5l-13 -55c-32 17.333 -69.5 31 -112.5 41
s-85.5 15 -127.5 15c-62 0 -118.167 -13.667 -168.5 -41s-90.333 -66.5 -120 -117.5s-44.5 -109.5 -44.5 -175.5c0 -65.333 13.333 -123.166 40 -173.499s65.5 -89.666 116.5 -117.999s110.833 -42.5 179.5 -42.5c74.667 0 143.334 13 206.001 39v248h-194v55h255v-341
c-78.667 -38.667 -168.334 -58 -269.001 -58zM445 845.996c-13.333 0 -23.833 3.83301 -31.5 11.5s-11.5 18.167 -11.5 31.5s4 24 12 32s18.333 12 31 12c13.333 0 24 -4 32 -12s12 -18.667 12 -32c0 -12.667 -4 -23 -12 -31s-18.667 -12 -32 -12z" />
    <glyph glyph-name="gdotaccent" unicode="&#x121;" horiz-adv-x="568" 
d="M277 -255c-73.333 0 -130.332 12.8359 -170.999 38.5029s-61 61.5 -61 107.5c0 31.333 8.66699 58.333 26 81s41.666 39 72.999 49c-22.667 4.66699 -40.5 14.334 -53.5 29.001s-19.5 32 -19.5 52c0 19.333 6.33301 37.166 19 53.499s31 30.166 55 41.499
c-23.333 15.333 -41 34.5 -53 57.5s-18 49.167 -18 78.5c0 51.333 18.667 92.833 56 124.5s86.333 47.5 147 47.5c18 0 36.667 -2.16699 56 -6.5s35.333 -9.83301 48 -16.5l157 8v-51l-107 4c32.667 -30 49 -66.667 49 -110c0 -52 -18.5 -93.667 -55.5 -125
s-86.167 -47 -147.5 -47c-35.333 0 -67 5.66699 -95 17c-18 -8.66699 -31.667 -18.667 -41 -30s-14 -23.333 -14 -36c0 -20.667 8.5 -35.334 25.5 -44.001s46.833 -13 89.5 -13h50c148 0 222 -49.333 222 -148c0 -50.667 -21 -90.334 -63 -119.001s-100 -43 -174 -43z
M283.001 -206.997c54.667 0 97.1689 9.66699 127.502 29s45.5 46.666 45.5 81.999c0 36 -13.333 62 -40 78s-69.334 24 -128.001 24h-25c-52.667 0 -92.834 -9.16699 -120.501 -27.5s-41.5 -45.166 -41.5 -80.499c0 -34 15.667 -60 47 -78s76.333 -27 135 -27z
M277.003 210.003c45.333 0 81 11 107 33s39 52 39 90c0 37.333 -13.167 67.166 -39.5 89.499s-61.833 33.5 -106.5 33.5s-80.167 -11 -106.5 -33s-39.5 -52 -39.5 -90c0 -37.333 13.167 -67.166 39.5 -89.499s61.833 -33.5 106.5 -33.5zM289.003 639.003
c-13.333 0 -23.833 4 -31.5 12s-11.5 18.667 -11.5 32c0 12.667 4 23 12 31s18.333 12 31 12c13.333 0 24 -4 32 -12s12 -18.333 12 -31s-4 -23.167 -12 -31.5s-18.667 -12.5 -32 -12.5z" />
    <glyph glyph-name="uni0122" unicode="&#x122;" horiz-adv-x="827" 
d="M467 -11c-76 0 -144 15.6631 -204 46.9961s-107.333 76.333 -142 135s-52 127 -52 205c0 74.667 16.5 141.834 49.5 201.501s80 106.834 141 141.501s131.5 52 211.5 52c44 0 88 -5.16699 132 -15.5s82.667 -24.5 116 -42.5l-13 -55c-32 17.333 -69.5 31 -112.5 41
s-85.5 15 -127.5 15c-62 0 -118.167 -13.667 -168.5 -41s-90.333 -66.5 -120 -117.5s-44.5 -109.5 -44.5 -175.5c0 -65.333 13.333 -123.166 40 -173.499s65.5 -89.666 116.5 -117.999s110.833 -42.5 179.5 -42.5c74.667 0 143.334 13 206.001 39v248h-194v55h255v-341
c-78.667 -38.667 -168.334 -58 -269.001 -58zM360 -245.004c28 50.667 43.667 110.666 47 179.999h57c-2.66699 -32 -9.5 -64.667 -20.5 -98s-23.833 -60.666 -38.5 -81.999h-45z" />
    <glyph glyph-name="uni0123" unicode="&#x123;" horiz-adv-x="568" 
d="M277 -255c-73.333 0 -130.332 12.8359 -170.999 38.5029s-61 61.5 -61 107.5c0 31.333 8.66699 58.333 26 81s41.666 39 72.999 49c-22.667 4.66699 -40.5 14.334 -53.5 29.001s-19.5 32 -19.5 52c0 19.333 6.33301 37.166 19 53.499s31 30.166 55 41.499
c-23.333 15.333 -41 34.5 -53 57.5s-18 49.167 -18 78.5c0 51.333 18.667 92.833 56 124.5s86.333 47.5 147 47.5c18 0 36.667 -2.16699 56 -6.5s35.333 -9.83301 48 -16.5l157 8v-51l-107 4c32.667 -30 49 -66.667 49 -110c0 -52 -18.5 -93.667 -55.5 -125
s-86.167 -47 -147.5 -47c-35.333 0 -67 5.66699 -95 17c-18 -8.66699 -31.667 -18.667 -41 -30s-14 -23.333 -14 -36c0 -20.667 8.5 -35.334 25.5 -44.001s46.833 -13 89.5 -13h50c148 0 222 -49.333 222 -148c0 -50.667 -21 -90.334 -63 -119.001s-100 -43 -174 -43z
M283.001 -206.997c54.667 0 97.1689 9.66699 127.502 29s45.5 46.666 45.5 81.999c0 36 -13.333 62 -40 78s-69.334 24 -128.001 24h-25c-52.667 0 -92.834 -9.16699 -120.501 -27.5s-41.5 -45.166 -41.5 -80.499c0 -34 15.667 -60 47 -78s76.333 -27 135 -27z
M277.003 210.003c45.333 0 81 11 107 33s39 52 39 90c0 37.333 -13.167 67.166 -39.5 89.499s-61.833 33.5 -106.5 33.5s-80.167 -11 -106.5 -33s-39.5 -52 -39.5 -90c0 -37.333 13.167 -67.166 39.5 -89.499s61.833 -33.5 106.5 -33.5zM255.003 610.003
c1.33301 28.667 7.00098 57.332 17.001 85.999s23.333 54.334 40 77.001h45c-26.667 -46 -41.334 -100.333 -44.001 -163h-58z" />
    <glyph glyph-name="Hbar" unicode="&#x126;" horiz-adv-x="879" 
d="M132 569h-105v50h105v141h62v-141h491v141h62v-141h104v-50h-104v-569h-62v371h-491v-371h-62v569zM685 424v145h-491v-145h491z" />
    <glyph glyph-name="hbar" unicode="&#x127;" horiz-adv-x="603" 
d="M96 624l-90.001 0.000976562v46h90v140h58v-140h159v-46h-159v-213c17.333 30.667 40.833 54 70.5 70s63.834 24 102.501 24c58 0 103 -18.333 135 -55s48 -88.334 48 -155.001v-295h-58v286c0 111.333 -45.667 167 -137 167c-49.333 0 -88.5 -16.833 -117.5 -50.5
s-43.5 -79.167 -43.5 -136.5v-266h-58v624z" />
    <glyph glyph-name="Itilde" unicode="&#x128;" horiz-adv-x="306" 
d="M122 760h62v-760h-62v760zM223 834c-16.667 0.666992 -31.3301 4.83398 -43.9971 12.501s-24.167 16.5 -34.5 26.5s-20.333 18.833 -30 26.5s-19.834 11.834 -30.501 12.501c-31.333 0 -47 -25.667 -47 -77h-45c0 40.667 7.66699 71.667 23 93s37.666 32 66.999 32
c17.333 -0.666992 32.333 -4.83398 45 -12.501s24.167 -16.667 34.5 -27s20.166 -19.333 29.499 -27s19.333 -11.834 30 -12.501c32 0 48 26 48 78h45c0 -40 -7.83301 -70.833 -23.5 -92.5s-38.167 -32.5 -67.5 -32.5z" />
    <glyph glyph-name="itilde" unicode="&#x129;" horiz-adv-x="250" 
d="M96 489h58v-489h-58v489zM195 621c-16.667 0.666992 -31.3301 4.83398 -43.9971 12.501s-24.167 16.5 -34.5 26.5s-20.333 18.833 -30 26.5s-19.834 11.834 -30.501 12.501c-31.333 0 -47 -25.667 -47 -77h-45c0 40.667 7.66699 71.667 23 93s37.666 32 66.999 32
c17.333 -0.666992 32.333 -4.83398 45 -12.501s24.167 -16.667 34.5 -27s20.166 -19.333 29.499 -27s19.333 -11.834 30 -12.501c32 0 48 26 48 78h45c0 -40 -7.83301 -70.833 -23.5 -92.5s-38.167 -32.5 -67.5 -32.5z" />
    <glyph glyph-name="Imacron" unicode="&#x12a;" horiz-adv-x="306" 
d="M122 760h62v-760h-62v760zM6 916h294v-51h-294v51z" />
    <glyph glyph-name="imacron" unicode="&#x12b;" horiz-adv-x="250" 
d="M96 489h58v-489h-58v489zM-22 704h294v-51h-294v51z" />
    <glyph glyph-name="Iogonek" unicode="&#x12e;" horiz-adv-x="306" 
d="M122 760h62v-760h-62v760zM116 -252c-30 0 -54 8.33105 -72 24.998s-27 38.334 -27 65.001c0 30.667 11.667 61.5 35 92.5s57.333 60.833 102 89.5l30 -20c-76.667 -53.333 -115 -103.666 -115 -150.999c0 -17.333 4.83301 -30.666 14.5 -39.999s23.167 -14 40.5 -14
c20.667 0 42 6 64 18l7 -44c-10 -6.66699 -22.167 -11.834 -36.5 -15.501s-28.5 -5.5 -42.5 -5.5z" />
    <glyph glyph-name="iogonek" unicode="&#x12f;" horiz-adv-x="250" 
d="M96 489h58v-489h-58v489zM125 639c-12.667 0 -23.167 4.16699 -31.5 12.5s-12.5 18.833 -12.5 31.5s4.16699 23 12.5 31s18.833 12 31.5 12s23 -4 31 -12s12 -18.333 12 -31s-4 -23.167 -12 -31.5s-18.333 -12.5 -31 -12.5zM87 -252c-30 0 -54 8.33203 -72 24.999
s-27 38.334 -27 65.001c0 62 45.333 122.667 136 182l30 -20c-76 -52.667 -114 -103 -114 -151c0 -17.333 4.83301 -30.666 14.5 -39.999s23.167 -14 40.5 -14c20.667 0 42 6 64 18l7 -44c-10 -6.66699 -22.167 -11.834 -36.5 -15.501s-28.5 -5.5 -42.5 -5.5z" />
    <glyph glyph-name="Idotaccent" unicode="&#x130;" horiz-adv-x="306" 
d="M122 760h62v-760h-62v760zM153 846c-13.333 0 -23.833 3.83301 -31.5 11.5s-11.5 18.167 -11.5 31.5s4 24 12 32s18.333 12 31 12c13.333 0 24 -4 32 -12s12 -18.667 12 -32c0 -12.667 -4 -23 -12 -31s-18.667 -12 -32 -12z" />
    <glyph glyph-name="dotlessi" unicode="&#x131;" horiz-adv-x="250" 
d="M96 489h58v-489h-58v489z" />
    <glyph glyph-name="IJ" unicode="&#x132;" horiz-adv-x="850" 
d="M122 760h62v-760h-62v760zM514 -16c-58.667 0 -112.001 13.333 -160.001 40l8 57c44 -26.667 94 -40 150 -40c56.667 0 97.834 14.667 123.501 44s38.5 76.666 38.5 141.999v533h61v-533c0 -81.333 -18.167 -142.166 -54.5 -182.499s-91.833 -60.5 -166.5 -60.5z" />
    <glyph glyph-name="ij" unicode="&#x133;" horiz-adv-x="500" 
d="M96 489h58v-489h-58v489zM125 639c-12.667 0 -23.167 4.16699 -31.5 12.5s-12.5 18.833 -12.5 31.5s4.16699 23 12.5 31s18.833 12 31.5 12s23 -4 31 -12s12 -18.333 12 -31s-4 -23.167 -12 -31.5s-18.333 -12.5 -31 -12.5zM246 -255
c-36 0 -68.668 7.66602 -98.001 22.999l6 50c28.667 -14.667 60.334 -22 95.001 -22c33.333 0 57.833 10 73.5 30s23.5 51.667 23.5 95v568h58v-567c0 -59.333 -13 -103.666 -39 -132.999s-65.667 -44 -119 -44zM374.999 638.999c-12.667 0 -23.167 4.16699 -31.5 12.5
s-12.5 18.833 -12.5 31.5s4.16699 23 12.5 31s18.833 12 31.5 12s23 -4 31 -12s12 -18.333 12 -31s-4 -23.167 -12 -31.5s-18.333 -12.5 -31 -12.5z" />
    <glyph glyph-name="uni0136" unicode="&#x136;" horiz-adv-x="746" 
d="M122 760h62v-349l410 349h84l-430 -364l470 -396h-92l-442 374v-374h-62v760zM327 -245c28 50.667 43.667 110.666 47 179.999h57c-2.66699 -32 -9.5 -64.667 -20.5 -98s-23.833 -60.666 -38.5 -81.999h-45z" />
    <glyph glyph-name="uni0137" unicode="&#x137;" horiz-adv-x="549" 
d="M96 810h58v-522l249 201h80l-271 -216l311 -273h-82l-287 253v-253h-58v810zM232 -245c28 52 43.667 111.999 47 179.999h57c-2.66699 -31.333 -9.5 -63.666 -20.5 -96.999s-24.167 -61 -39.5 -83h-44z" />
    <glyph glyph-name="kgreenlandic" unicode="&#x138;" horiz-adv-x="549" 
d="M96 489h58v-208l251 208h78l-273 -223l313 -266h-82l-287 243v-243h-58v489z" />
    <glyph glyph-name="Lacute" unicode="&#x139;" horiz-adv-x="603" 
d="M122 760h62v-706h373v-54h-435v760zM220 964h79l-149 -129h-66z" />
    <glyph glyph-name="lacute" unicode="&#x13a;" horiz-adv-x="250" 
d="M96 810h58v-810h-58v810zM192 979h79l-149 -129h-66z" />
    <glyph glyph-name="uni013B" unicode="&#x13b;" horiz-adv-x="603" 
d="M122 760h62v-706h373v-54h-435v760zM261 -245c28 50.667 43.667 110.666 47 179.999h57c-2.66699 -32 -9.5 -64.667 -20.5 -98s-23.833 -60.666 -38.5 -81.999h-45z" />
    <glyph glyph-name="uni013C" unicode="&#x13c;" horiz-adv-x="250" 
d="M96 810h58v-810h-58v810zM54 -245c28 52 43.667 111.999 47 179.999h57c-2.66699 -31.333 -9.5 -63.666 -20.5 -96.999s-24.167 -61 -39.5 -83h-44z" />
    <glyph glyph-name="Lcaron" unicode="&#x13d;" horiz-adv-x="603" 
d="M122 760h62v-706h373v-54h-435v760zM328 810h58l-31 -230h-40z" />
    <glyph glyph-name="lcaron" unicode="&#x13e;" horiz-adv-x="250" 
d="M96 810h58v-810h-58v810zM236 810h58l-31 -230h-40z" />
    <glyph glyph-name="Lslash" unicode="&#x141;" horiz-adv-x="613" 
d="M132 278l-84 -58l-6 56l90 62v422h62v-379l208 145l6 -56l-214 -149v-267h373v-54h-435v278z" />
    <glyph glyph-name="lslash" unicode="&#x142;" horiz-adv-x="270" 
d="M106 347l-95 -56l-6 52l101 60v407h58v-373l95 57l7 -53l-102 -60v-381h-58v347z" />
    <glyph glyph-name="Nacute" unicode="&#x143;" horiz-adv-x="877" 
d="M122 760h61l514 -672v672h58v-760h-61l-514 672v-672h-58v760zM500 964h79l-149 -129h-66z" />
    <glyph glyph-name="nacute" unicode="&#x144;" horiz-adv-x="603" 
d="M96 489l54.002 0.000976562l1 -83c17.333 32 41.166 56.5 71.499 73.5s65.166 25.5 104.499 25.5c58 0 103 -18.333 135 -55s48 -88.334 48 -155.001v-295h-58v286c0 111.333 -45.667 167 -137 167c-49.333 0 -88.5 -16.833 -117.5 -50.5s-43.5 -79.167 -43.5 -136.5
v-266h-58v489zM354.002 773.001h70l-136 -174h-57z" />
    <glyph glyph-name="uni0145" unicode="&#x145;" horiz-adv-x="877" 
d="M122 760h61l514 -672v672h58v-760h-61l-514 672v-672h-58v760zM354 -245c28 50.667 43.667 110.666 47 179.999h57c-2.66699 -32 -9.5 -64.667 -20.5 -98s-23.833 -60.666 -38.5 -81.999h-45z" />
    <glyph glyph-name="uni0146" unicode="&#x146;" horiz-adv-x="603" 
d="M96 489l54.002 0.000976562l1 -83c17.333 32 41.166 56.5 71.499 73.5s65.166 25.5 104.499 25.5c58 0 103 -18.333 135 -55s48 -88.334 48 -155.001v-295h-58v286c0 111.333 -45.667 167 -137 167c-49.333 0 -88.5 -16.833 -117.5 -50.5s-43.5 -79.167 -43.5 -136.5
v-266h-58v489zM227.002 -244.999c28 52 43.667 111.999 47 179.999h57c-2.66699 -31.333 -9.5 -63.666 -20.5 -96.999s-24.167 -61 -39.5 -83h-44z" />
    <glyph glyph-name="Ncaron" unicode="&#x147;" horiz-adv-x="877" 
d="M122 760h61l514 -672v672h58v-760h-61l-514 672v-672h-58v760zM263 977h65l105 -104l104 104h66l-144 -142h-53z" />
    <glyph glyph-name="ncaron" unicode="&#x148;" horiz-adv-x="603" 
d="M96 489l54.002 0.000976562l1 -83c17.333 32 41.166 56.5 71.499 73.5s65.166 25.5 104.499 25.5c58 0 103 -18.333 135 -55s48 -88.334 48 -155.001v-295h-58v286c0 111.333 -45.667 167 -137 167c-49.333 0 -88.5 -16.833 -117.5 -50.5s-43.5 -79.167 -43.5 -136.5
v-266h-58v489zM133.002 773.001h61l109 -132l107 132h60l-144 -174h-47z" />
    <glyph glyph-name="Omacron" unicode="&#x14c;" horiz-adv-x="908" 
d="M454 41c58.667 0 112.334 14 161.001 42s87.5 67.833 116.5 119.5s43.5 110.5 43.5 176.5c0 62.667 -13.333 119.667 -40 171s-64.5 92.333 -113.5 123s-104.833 46 -167.5 46c-58.667 0 -112.334 -14 -161.001 -42s-87.5 -67.833 -116.5 -119.5
s-43.5 -110.5 -43.5 -176.5c0 -62.667 13.333 -119.667 40 -171s64.5 -92.333 113.5 -123s104.833 -46 167.5 -46zM454 -16c-70 0 -134.166 16.5 -192.499 49.5s-105 79.833 -140 140.5s-52.5 129 -52.5 205c0 72 16.167 138 48.5 198s78.166 108.167 137.499 144.5
s126 54.5 200 54.5c70 0 134 -16.667 192 -50s104.5 -80.333 139.5 -141s52.5 -129 52.5 -205c0 -71.333 -16.167 -137 -48.5 -197s-78 -108.167 -137 -144.5s-125.5 -54.5 -199.5 -54.5zM307.001 916h294v-51h-294v51z" />
    <glyph glyph-name="omacron" unicode="&#x14d;" horiz-adv-x="624" 
d="M312 -16c-46.667 0 -89 10.833 -127 32.5s-68.5 52.334 -91.5 92.001s-34.5 84.834 -34.5 135.501c0 46.667 10.667 89.667 32 129s51.333 71.166 90 95.499s82.334 36.5 131.001 36.5c46.667 0 89 -10.833 127 -32.5s68.5 -52.334 91.5 -92.001
s34.5 -84.834 34.5 -135.501c0 -46.667 -10.667 -89.667 -32 -129s-51.333 -71.166 -90 -95.499s-82.334 -36.5 -131.001 -36.5zM312 36c35.333 0 67.666 8.5 96.999 25.5s52.666 41.5 69.999 73.5s26 68.667 26 110c0 38.667 -7.83301 73.667 -23.5 105
s-38.167 56.333 -67.5 75s-63.333 28 -102 28c-35.333 0 -67.666 -8.5 -96.999 -25.5s-52.666 -41.5 -69.999 -73.5s-26 -68.667 -26 -110c0 -38.667 7.83301 -73.667 23.5 -105s38.167 -56.333 67.5 -75s63.333 -28 102 -28zM165 704h294v-51h-294v51z" />
    <glyph glyph-name="Ohungarumlaut" unicode="&#x150;" horiz-adv-x="908" 
d="M454 41c58.667 0 112.334 14 161.001 42s87.5 67.833 116.5 119.5s43.5 110.5 43.5 176.5c0 62.667 -13.333 119.667 -40 171s-64.5 92.333 -113.5 123s-104.833 46 -167.5 46c-58.667 0 -112.334 -14 -161.001 -42s-87.5 -67.833 -116.5 -119.5
s-43.5 -110.5 -43.5 -176.5c0 -62.667 13.333 -119.667 40 -171s64.5 -92.333 113.5 -123s104.833 -46 167.5 -46zM454 -16c-70 0 -134.166 16.5 -192.499 49.5s-105 79.833 -140 140.5s-52.5 129 -52.5 205c0 72 16.167 138 48.5 198s78.166 108.167 137.499 144.5
s126 54.5 200 54.5c70 0 134 -16.667 192 -50s104.5 -80.333 139.5 -141s52.5 -129 52.5 -205c0 -71.333 -16.167 -137 -48.5 -197s-78 -108.167 -137 -144.5s-125.5 -54.5 -199.5 -54.5zM434.001 964h70l-120 -129h-57zM586.001 964h70l-120 -129h-58z" />
    <glyph glyph-name="ohungarumlaut" unicode="&#x151;" horiz-adv-x="624" 
d="M312 -16c-46.667 0 -89 10.833 -127 32.5s-68.5 52.334 -91.5 92.001s-34.5 84.834 -34.5 135.501c0 46.667 10.667 89.667 32 129s51.333 71.166 90 95.499s82.334 36.5 131.001 36.5c46.667 0 89 -10.833 127 -32.5s68.5 -52.334 91.5 -92.001
s34.5 -84.834 34.5 -135.501c0 -46.667 -10.667 -89.667 -32 -129s-51.333 -71.166 -90 -95.499s-82.334 -36.5 -131.001 -36.5zM312 36c35.333 0 67.666 8.5 96.999 25.5s52.666 41.5 69.999 73.5s26 68.667 26 110c0 38.667 -7.83301 73.667 -23.5 105
s-38.167 56.333 -67.5 75s-63.333 28 -102 28c-35.333 0 -67.666 -8.5 -96.999 -25.5s-52.666 -41.5 -69.999 -73.5s-26 -68.667 -26 -110c0 -38.667 7.83301 -73.667 23.5 -105s38.167 -56.333 67.5 -75s63.333 -28 102 -28zM297 773h66l-130 -176h-54zM452 773h66
l-130 -176h-54z" />
    <glyph glyph-name="OE" unicode="&#x152;" horiz-adv-x="1292" 
d="M448 -16c-68.667 0 -131.666 16.5 -188.999 49.5s-103.333 79.833 -138 140.5s-52 129 -52 205c0 72 15.833 138 47.5 198s76.667 108.167 135 144.5s124.166 54.5 197.499 54.5c68 0 129.333 -17 184 -51s96.667 -81 126 -141v176h440v-54h-378v-288h338v-53h-338v-311
h393v-54h-455v176c-28.667 -60 -70.5 -107 -125.5 -141s-116.833 -51 -185.5 -51zM448.001 41c58.667 0 111.835 14.168 159.502 42.501s85.667 68.166 114 119.499s42.5 110 42.5 176c0 62.667 -13.167 119.667 -39.5 171s-63.5 92.333 -111.5 123s-103 46 -165 46
c-57.333 0 -109.833 -14 -157.5 -42s-85.834 -67.833 -114.501 -119.5s-43 -110.5 -43 -176.5c0 -62.667 13 -119.667 39 -171s63.167 -92.333 111.5 -123s103.166 -46 164.499 -46z" />
    <glyph glyph-name="oe" unicode="&#x153;" horiz-adv-x="1020" 
d="M312 36c36 0 68.498 8.66602 97.498 25.999s52.167 41.833 69.5 73.5s26 67.834 26 108.501c0 60.667 -18.167 110.667 -54.5 150s-82.5 59 -138.5 59c-35.333 0 -67.666 -8.5 -96.999 -25.5s-52.666 -41.5 -69.999 -73.5s-26 -68.667 -26 -110
c0 -38.667 7.83301 -73.667 23.5 -105s38.167 -56.333 67.5 -75s63.333 -28 102 -28zM311.998 -16.001c-46.667 0 -89.0029 10.833 -127.003 32.5s-68.5 52.334 -91.5 92.001s-34.5 84.834 -34.5 135.501c0 46.667 10.667 89.667 32 129s51.333 71.166 90 95.499
s82.334 36.5 131.001 36.5c31.333 0 61.5 -5.83301 90.5 -17.5s54.667 -28.667 77 -51s39.5 -48.5 51.5 -78.5c17.333 46 44.5 82 81.5 108s79.833 39 128.5 39c41.333 0 78.333 -9.66699 111 -29s58.334 -46.833 77.001 -82.5s28 -77.167 28 -124.5
c0 -10 -1 -23.667 -3 -41h-395c3.33301 -60.667 23.833 -107.834 61.5 -141.501s88.167 -50.5 151.5 -50.5c60 0 115.333 13.667 166 41l8 -50c-21.333 -13.333 -47.833 -23.833 -79.5 -31.5s-64.167 -11.5 -97.5 -11.5c-59.333 0 -109.666 12.667 -150.999 38
s-71.333 62 -90 110c-18.667 -45.333 -47.5 -81.333 -86.5 -108s-82.167 -40 -129.5 -40zM900.995 277.999c-1.33301 54 -16.668 96.833 -46.001 128.5s-68.333 47.5 -117 47.5c-47.333 0 -87.166 -16 -119.499 -48s-51.833 -74.667 -58.5 -128h341z" />
    <glyph glyph-name="Racute" unicode="&#x154;" horiz-adv-x="697" 
d="M122 760h208c76 0 136.833 -20 182.5 -60s68.5 -93.333 68.5 -160c0 -49.333 -12.833 -92 -38.5 -128s-62.167 -62.333 -109.5 -79l221 -333h-74l-207 319c-14 -2 -31.333 -3 -52 -3h-139v-316h-60v760zM182 370l128.001 -0.000976562
c67.333 0 118.666 14.333 153.999 43s53 70.334 53 125.001c0 54 -16.833 95.5 -50.5 124.5s-81.5 43.5 -143.5 43.5h-141v-336zM387.001 963.999h79l-149 -129h-66z" />
    <glyph glyph-name="racute" unicode="&#x155;" horiz-adv-x="402" 
d="M96 489h55.002v-97c39.333 69.333 93 104 161 104c23.333 0 41.666 -3.33301 54.999 -10l-6 -54c-20 6.66699 -39 10 -57 10c-46.667 0 -83.334 -18.667 -110.001 -56s-40 -89 -40 -155v-231h-58v489zM271.002 773h70l-136 -174h-57z" />
    <glyph glyph-name="Rcaron" unicode="&#x158;" horiz-adv-x="697" 
d="M122 760h208c76 0 136.833 -20 182.5 -60s68.5 -93.333 68.5 -160c0 -49.333 -12.833 -92 -38.5 -128s-62.167 -62.333 -109.5 -79l221 -333h-74l-207 319c-14 -2 -31.333 -3 -52 -3h-139v-316h-60v760zM182 370l128.001 -0.000976562
c67.333 0 118.666 14.333 153.999 43s53 70.334 53 125.001c0 54 -16.833 95.5 -50.5 124.5s-81.5 43.5 -143.5 43.5h-141v-336zM150.001 976.999h65l105 -104l104 104h66l-144 -142h-53z" />
    <glyph glyph-name="rcaron" unicode="&#x159;" horiz-adv-x="402" 
d="M96 489h55.002v-97c39.333 69.333 93 104 161 104c23.333 0 41.666 -3.33301 54.999 -10l-6 -54c-20 6.66699 -39 10 -57 10c-46.667 0 -83.334 -18.667 -110.001 -56s-40 -89 -40 -155v-231h-58v489zM50.002 773h61l109 -132l107 132h60l-144 -174h-47z" />
    <glyph glyph-name="Sacute" unicode="&#x15a;" horiz-adv-x="656" 
d="M308 -16c-43.333 0 -85.999 5.66406 -127.999 16.9971s-77 26.333 -105 45l9 57c31.333 -20 66.666 -35.833 105.999 -47.5s78 -17.5 116 -17.5c62 0 111 13.667 147 41s54 64.333 54 111c0 30 -6.33301 54.5 -19 73.5s-33.5 36.167 -62.5 51.5s-69.833 32 -122.5 50
c-77.333 26 -132.166 55.167 -164.499 87.5s-48.5 74.5 -48.5 126.5c0 60 21.5 107.833 64.5 143.5s100.833 53.5 173.5 53.5c36 0 72 -4.33301 108 -13s69 -21 99 -37l-12 -54c-66.667 33.333 -131.667 50 -195 50c-55.333 0 -98.833 -12.333 -130.5 -37
s-47.5 -58.667 -47.5 -102c0 -27.333 5.5 -50.166 16.5 -68.499s29.167 -34.666 54.5 -48.999s60.666 -29.166 105.999 -44.499c61.333 -20.667 109.333 -41.667 144 -63s59.5 -45 74.5 -71s22.5 -56.667 22.5 -92c0 -64.667 -23.5 -116 -70.5 -154s-110.167 -57 -189.5 -57
zM390.001 963.997h79l-149 -129h-66z" />
    <glyph glyph-name="sacute" unicode="&#x15b;" horiz-adv-x="459" 
d="M215 -16c-31.333 0 -62 4.33398 -92 13.001s-54.333 20 -73 34l8 53c21.333 -15.333 46.333 -27.5 75 -36.5s56 -13.5 82 -13.5c40.667 0 72.834 7.66699 96.501 23s35.5 36.666 35.5 63.999c0 18.667 -4.16699 33.334 -12.5 44.001s-22.333 20.5 -42 29.5
s-48.167 19.5 -85.5 31.5c-52.667 16.667 -90.167 36.167 -112.5 58.5s-33.5 51.166 -33.5 86.499c0 40.667 15.5 73.167 46.5 97.5s72.833 36.5 125.5 36.5c25.333 0 51.5 -3.5 78.5 -10.5s50.5 -16.5 70.5 -28.5l-9 -51c-20 12.667 -42.333 22.5 -67 29.5
s-49.334 10.5 -74.001 10.5c-36.667 0 -65 -7 -85 -21s-30 -33.333 -30 -58c0 -24 8.5 -43.333 25.5 -58s46.5 -28 88.5 -40c64 -18 109 -38.5 135 -61.5s39 -53.833 39 -92.5c0 -42.667 -17.167 -76.667 -51.5 -102s-80.5 -38 -138.5 -38zM280 773.001h70l-136 -174h-57z
" />
    <glyph glyph-name="Scedilla" unicode="&#x15e;" horiz-adv-x="656" 
d="M308 -16c-43.333 0 -85.999 5.66406 -127.999 16.9971s-77 26.333 -105 45l9 57c31.333 -20 66.666 -35.833 105.999 -47.5s78 -17.5 116 -17.5c62 0 111 13.667 147 41s54 64.333 54 111c0 30 -6.33301 54.5 -19 73.5s-33.5 36.167 -62.5 51.5s-69.833 32 -122.5 50
c-77.333 26 -132.166 55.167 -164.499 87.5s-48.5 74.5 -48.5 126.5c0 60 21.5 107.833 64.5 143.5s100.833 53.5 173.5 53.5c36 0 72 -4.33301 108 -13s69 -21 99 -37l-12 -54c-66.667 33.333 -131.667 50 -195 50c-55.333 0 -98.833 -12.333 -130.5 -37
s-47.5 -58.667 -47.5 -102c0 -27.333 5.5 -50.166 16.5 -68.499s29.167 -34.666 54.5 -48.999s60.666 -29.166 105.999 -44.499c61.333 -20.667 109.333 -41.667 144 -63s59.5 -45 74.5 -71s22.5 -56.667 22.5 -92c0 -64.667 -23.5 -116 -70.5 -154s-110.167 -57 -189.5 -57
zM297.001 -255.003c-14.667 0 -29.8301 1.83301 -45.4971 5.5s-28.5 8.16699 -38.5 13.5l10 43c22 -12 46.667 -18 74 -18c21.333 0 38.166 4.66699 50.499 14s18.5 22 18.5 38c0 15.333 -5.5 27.333 -16.5 36s-26.833 13 -47.5 13c-20 0 -34.333 -1.33301 -43 -4l33 124h43
l-22 -82h5c29.333 0 53.166 -8 71.499 -24s27.5 -36.667 27.5 -62c0 -29.333 -10.833 -52.833 -32.5 -70.5s-50.834 -26.5 -87.501 -26.5z" />
    <glyph glyph-name="scedilla" unicode="&#x15f;" horiz-adv-x="459" 
d="M215 -16c-31.333 0 -62 4.33398 -92 13.001s-54.333 20 -73 34l8 53c21.333 -15.333 46.333 -27.5 75 -36.5s56 -13.5 82 -13.5c40.667 0 72.834 7.66699 96.501 23s35.5 36.666 35.5 63.999c0 18.667 -4.16699 33.334 -12.5 44.001s-22.333 20.5 -42 29.5
s-48.167 19.5 -85.5 31.5c-52.667 16.667 -90.167 36.167 -112.5 58.5s-33.5 51.166 -33.5 86.499c0 40.667 15.5 73.167 46.5 97.5s72.833 36.5 125.5 36.5c25.333 0 51.5 -3.5 78.5 -10.5s50.5 -16.5 70.5 -28.5l-9 -51c-20 12.667 -42.333 22.5 -67 29.5
s-49.334 10.5 -74.001 10.5c-36.667 0 -65 -7 -85 -21s-30 -33.333 -30 -58c0 -24 8.5 -43.333 25.5 -58s46.5 -28 88.5 -40c64 -18 109 -38.5 135 -61.5s39 -53.833 39 -92.5c0 -42.667 -17.167 -76.667 -51.5 -102s-80.5 -38 -138.5 -38zM206 -254.999
c-14.667 0 -29.8301 1.83301 -45.4971 5.5s-28.5 8.16699 -38.5 13.5l10 42c10 -5.33301 21.667 -9.5 35 -12.5s26.333 -4.5 39 -4.5c22 0 39.333 4.66699 52 14s19 22 19 38c0 15.333 -5.83301 27.5 -17.5 36.5s-27.834 13.5 -48.501 13.5c-18 0 -32 -1.33301 -42 -4
l32 123h42l-21 -82h5c29.333 0 53.166 -8 71.499 -24s27.5 -36.667 27.5 -62c0 -29.333 -10.833 -52.833 -32.5 -70.5s-50.834 -26.5 -87.501 -26.5z" />
    <glyph glyph-name="Scaron" unicode="&#x160;" horiz-adv-x="656" 
d="M308 -16c-43.333 0 -85.999 5.66406 -127.999 16.9971s-77 26.333 -105 45l9 57c31.333 -20 66.666 -35.833 105.999 -47.5s78 -17.5 116 -17.5c62 0 111 13.667 147 41s54 64.333 54 111c0 30 -6.33301 54.5 -19 73.5s-33.5 36.167 -62.5 51.5s-69.833 32 -122.5 50
c-77.333 26 -132.166 55.167 -164.499 87.5s-48.5 74.5 -48.5 126.5c0 60 21.5 107.833 64.5 143.5s100.833 53.5 173.5 53.5c36 0 72 -4.33301 108 -13s69 -21 99 -37l-12 -54c-66.667 33.333 -131.667 50 -195 50c-55.333 0 -98.833 -12.333 -130.5 -37
s-47.5 -58.667 -47.5 -102c0 -27.333 5.5 -50.166 16.5 -68.499s29.167 -34.666 54.5 -48.999s60.666 -29.166 105.999 -44.499c61.333 -20.667 109.333 -41.667 144 -63s59.5 -45 74.5 -71s22.5 -56.667 22.5 -92c0 -64.667 -23.5 -116 -70.5 -154s-110.167 -57 -189.5 -57
zM153.001 976.997h65l105 -104l104 104h66l-144 -142h-53z" />
    <glyph glyph-name="scaron" unicode="&#x161;" horiz-adv-x="459" 
d="M215 -16c-31.333 0 -62 4.33398 -92 13.001s-54.333 20 -73 34l8 53c21.333 -15.333 46.333 -27.5 75 -36.5s56 -13.5 82 -13.5c40.667 0 72.834 7.66699 96.501 23s35.5 36.666 35.5 63.999c0 18.667 -4.16699 33.334 -12.5 44.001s-22.333 20.5 -42 29.5
s-48.167 19.5 -85.5 31.5c-52.667 16.667 -90.167 36.167 -112.5 58.5s-33.5 51.166 -33.5 86.499c0 40.667 15.5 73.167 46.5 97.5s72.833 36.5 125.5 36.5c25.333 0 51.5 -3.5 78.5 -10.5s50.5 -16.5 70.5 -28.5l-9 -51c-20 12.667 -42.333 22.5 -67 29.5
s-49.334 10.5 -74.001 10.5c-36.667 0 -65 -7 -85 -21s-30 -33.333 -30 -58c0 -24 8.5 -43.333 25.5 -58s46.5 -28 88.5 -40c64 -18 109 -38.5 135 -61.5s39 -53.833 39 -92.5c0 -42.667 -17.167 -76.667 -51.5 -102s-80.5 -38 -138.5 -38zM59 773.001h61l109 -132l107 132
h60l-144 -174h-47z" />
    <glyph glyph-name="uni0162" unicode="&#x162;" horiz-adv-x="672" 
d="M305 706h-260v54h582v-54h-260v-706h-62v706zM323 -255c-14.667 0 -29.8301 1.83301 -45.4971 5.5s-28.5 8.16699 -38.5 13.5l10 43c22 -12 46.667 -18 74 -18c21.333 0 38.166 4.66699 50.499 14s18.5 22 18.5 38c0 15.333 -5.5 27.333 -16.5 36s-26.833 13 -47.5 13
c-20 0 -34.333 -1.33301 -43 -4l33 124h43l-22 -82h5c29.333 0 53.166 -8 71.499 -24s27.5 -36.667 27.5 -62c0 -29.333 -10.833 -52.833 -32.5 -70.5s-50.834 -26.5 -87.501 -26.5z" />
    <glyph glyph-name="uni0163" unicode="&#x163;" horiz-adv-x="427" 
d="M282 -16c-52 0 -90.332 14.333 -114.999 43s-37 73.667 -37 135v276h-114v51h114v155h58v-155h180v-51h-180v-263c0 -50.667 7.83301 -86.667 23.5 -108s42.167 -32 79.5 -32c34 0 67 9 99 27l8 -49c-14.667 -9.33301 -32.334 -16.5 -53.001 -21.5s-41.667 -7.5 -63 -7.5
zM246.001 -255c-14.667 0 -29.8301 1.83301 -45.4971 5.5s-28.5 8.16699 -38.5 13.5l10 42c10 -5.33301 21.667 -9.5 35 -12.5s26.333 -4.5 39 -4.5c22 0 39.333 4.66699 52 14s19 22 19 38c0 15.333 -5.83301 27.5 -17.5 36.5s-27.834 13.5 -48.501 13.5
c-18 0 -32 -1.33301 -42 -4l32 123h42l-21 -82h5c29.333 0 53.166 -8 71.499 -24s27.5 -36.667 27.5 -62c0 -29.333 -10.833 -52.833 -32.5 -70.5s-50.834 -26.5 -87.501 -26.5z" />
    <glyph glyph-name="Tcaron" unicode="&#x164;" horiz-adv-x="672" 
d="M305 706h-260v54h582v-54h-260v-706h-62v706zM166 977h65l105 -104l104 104h66l-144 -142h-53z" />
    <glyph glyph-name="tcaron" unicode="&#x165;" horiz-adv-x="427" 
d="M282 -16c-52 0 -90.332 14.333 -114.999 43s-37 73.667 -37 135v276h-114v51h114v155h58v-155h180v-51h-180v-263c0 -50.667 7.83301 -86.667 23.5 -108s42.167 -32 79.5 -32c34 0 67 9 99 27l8 -49c-14.667 -9.33301 -32.334 -16.5 -53.001 -21.5s-41.667 -7.5 -63 -7.5
zM273.001 810h58l-30 -205h-40z" />
    <glyph glyph-name="Utilde" unicode="&#x168;" horiz-adv-x="850" 
d="M424 -16c-98.667 0 -174.833 27.667 -228.5 83s-80.5 134 -80.5 236v457h61v-449c0 -89.333 21 -156.666 63 -201.999s104 -68 186 -68s144 22.667 186 68s63 112.666 63 201.999v449h61v-457c0 -102 -27 -180.667 -81 -236s-130.667 -83 -230 -83zM495.001 834
c-16.667 0.666992 -31.3301 4.83398 -43.9971 12.501s-24.167 16.5 -34.5 26.5s-20.333 18.833 -30 26.5s-19.834 11.834 -30.501 12.501c-31.333 0 -47 -25.667 -47 -77h-45c0 40.667 7.66699 71.667 23 93s37.666 32 66.999 32
c17.333 -0.666992 32.333 -4.83398 45 -12.501s24.167 -16.667 34.5 -27s20.166 -19.333 29.499 -27s19.333 -11.834 30 -12.501c32 0 48 26 48 78h45c0 -40 -7.83301 -70.833 -23.5 -92.5s-38.167 -32.5 -67.5 -32.5z" />
    <glyph glyph-name="utilde" unicode="&#x169;" horiz-adv-x="601" 
d="M275 -16c-58 0 -102.833 18.333 -134.5 55s-47.5 88.334 -47.5 155.001v295h58v-286c0 -111.333 45.333 -167 136 -167c48.667 0 87.5 16.833 116.5 50.5s43.5 79.167 43.5 136.5v266h58v-489h-54l-1 83c-17.333 -32.667 -41 -57.334 -71 -74.001s-64.667 -25 -104 -25z
M368 621c-16.667 0.666992 -31.3301 4.83398 -43.9971 12.501s-24.167 16.5 -34.5 26.5s-20.333 18.833 -30 26.5s-19.834 11.834 -30.501 12.501c-31.333 0 -47 -25.667 -47 -77h-45c0 40.667 7.66699 71.667 23 93s37.666 32 66.999 32
c17.333 -0.666992 32.333 -4.83398 45 -12.501s24.167 -16.667 34.5 -27s20.166 -19.333 29.499 -27s19.333 -11.834 30 -12.501c32 0 48 26 48 78h45c0 -40 -7.83301 -70.833 -23.5 -92.5s-38.167 -32.5 -67.5 -32.5z" />
    <glyph glyph-name="Umacron" unicode="&#x16a;" horiz-adv-x="850" 
d="M424 -16c-98.667 0 -174.833 27.667 -228.5 83s-80.5 134 -80.5 236v457h61v-449c0 -89.333 21 -156.666 63 -201.999s104 -68 186 -68s144 22.667 186 68s63 112.666 63 201.999v449h61v-457c0 -102 -27 -180.667 -81 -236s-130.667 -83 -230 -83zM278.001 916h294v-51
h-294v51z" />
    <glyph glyph-name="umacron" unicode="&#x16b;" horiz-adv-x="601" 
d="M275 -16c-58 0 -102.833 18.333 -134.5 55s-47.5 88.334 -47.5 155.001v295h58v-286c0 -111.333 45.333 -167 136 -167c48.667 0 87.5 16.833 116.5 50.5s43.5 79.167 43.5 136.5v266h58v-489h-54l-1 83c-17.333 -32.667 -41 -57.334 -71 -74.001s-64.667 -25 -104 -25z
M151 704h294v-51h-294v51z" />
    <glyph glyph-name="Uring" unicode="&#x16e;" horiz-adv-x="850" 
d="M424 -16c-98.667 0 -174.833 27.667 -228.5 83s-80.5 134 -80.5 236v457h61v-449c0 -89.333 21 -156.666 63 -201.999s104 -68 186 -68s144 22.667 186 68s63 112.666 63 201.999v449h61v-457c0 -102 -27 -180.667 -81 -236s-130.667 -83 -230 -83zM425.001 818
c-36 0 -66.001 11.5 -90.001 34.5s-36 51.833 -36 86.5c0 35.333 11.833 64.333 35.5 87s53.834 34 90.501 34s67 -11.5 91 -34.5s36 -51.833 36 -86.5s-12 -63.5 -36 -86.5s-54.333 -34.5 -91 -34.5zM425 858c24.667 0 44.667 7.50098 60 22.501s23 34.5 23 58.5
s-7.66699 43.5 -23 58.5s-35.333 22.5 -60 22.5s-44.5 -7.33301 -59.5 -22s-22.5 -34.334 -22.5 -59.001c0 -24 7.5 -43.5 22.5 -58.5s34.833 -22.5 59.5 -22.5z" />
    <glyph glyph-name="uring" unicode="&#x16f;" horiz-adv-x="601" 
d="M275 -16c-58 0 -102.833 18.333 -134.5 55s-47.5 88.334 -47.5 155.001v295h58v-286c0 -111.333 45.333 -167 136 -167c48.667 0 87.5 16.833 116.5 50.5s43.5 79.167 43.5 136.5v266h58v-489h-54l-1 83c-17.333 -32.667 -41 -57.334 -71 -74.001s-64.667 -25 -104 -25z
M298 588c-36 0 -66.001 11.5 -90.001 34.5s-36 51.833 -36 86.5c0 35.333 11.833 64.333 35.5 87s53.834 34 90.501 34s67 -11.5 91 -34.5s36 -51.833 36 -86.5s-12 -63.5 -36 -86.5s-54.333 -34.5 -91 -34.5zM297.999 628c24.667 0 44.667 7.50098 60 22.501
s23 34.5 23 58.5s-7.66699 43.5 -23 58.5s-35.333 22.5 -60 22.5s-44.5 -7.33301 -59.5 -22s-22.5 -34.334 -22.5 -59.001c0 -24 7.5 -43.5 22.5 -58.5s34.833 -22.5 59.5 -22.5z" />
    <glyph glyph-name="Uhungarumlaut" unicode="&#x170;" horiz-adv-x="850" 
d="M424 -16c-98.667 0 -174.833 27.667 -228.5 83s-80.5 134 -80.5 236v457h61v-449c0 -89.333 21 -156.666 63 -201.999s104 -68 186 -68s144 22.667 186 68s63 112.666 63 201.999v449h61v-457c0 -102 -27 -180.667 -81 -236s-130.667 -83 -230 -83zM405.001 964h70
l-120 -129h-57zM557.001 964h70l-120 -129h-58z" />
    <glyph glyph-name="uhungarumlaut" unicode="&#x171;" horiz-adv-x="601" 
d="M275 -16c-58 0 -102.833 18.333 -134.5 55s-47.5 88.334 -47.5 155.001v295h58v-286c0 -111.333 45.333 -167 136 -167c48.667 0 87.5 16.833 116.5 50.5s43.5 79.167 43.5 136.5v266h58v-489h-54l-1 83c-17.333 -32.667 -41 -57.334 -71 -74.001s-64.667 -25 -104 -25z
M283 773h66l-130 -176h-54zM438 773h66l-130 -176h-54z" />
    <glyph glyph-name="Uogonek" unicode="&#x172;" horiz-adv-x="850" 
d="M424 -16c-98.667 0 -174.833 27.667 -228.5 83s-80.5 134 -80.5 236v457h61v-449c0 -89.333 21 -156.666 63 -201.999s104 -68 186 -68s144 22.667 186 68s63 112.666 63 201.999v449h61v-457c0 -102 -27 -180.667 -81 -236s-130.667 -83 -230 -83zM495.001 -252
c-30.667 0 -54.833 8.16992 -72.5 24.5029s-26.5 38.166 -26.5 65.499c0 33.333 14.167 67 42.5 101s65.166 62 110.499 84l44 -1c-96.667 -62.667 -145 -120.334 -145 -173.001c0 -36 18.667 -54 56 -54c22 0 43 6 63 18l7 -44
c-9.33301 -6.66699 -21.166 -11.834 -35.499 -15.501s-28.833 -5.5 -43.5 -5.5z" />
    <glyph glyph-name="uogonek" unicode="&#x173;" horiz-adv-x="601" 
d="M275 -16c-58 0 -102.833 18.333 -134.5 55s-47.5 88.334 -47.5 155.001v295h58v-286c0 -111.333 45.333 -167 136 -167c48.667 0 87.5 16.833 116.5 50.5s43.5 79.167 43.5 136.5v266h58v-489h-54l-1 83c-17.333 -32.667 -41 -57.334 -71 -74.001s-64.667 -25 -104 -25z
M438 -252c-30 0 -54 8.33203 -72 24.999s-27 38.334 -27 65.001c0 62 45.333 122.667 136 182l30 -20c-76 -52.667 -114 -103 -114 -151c0 -17.333 4.83301 -30.666 14.5 -39.999s23.167 -14 40.5 -14c20.667 0 42 6 64 18l7 -44
c-10 -6.66699 -22.167 -11.834 -36.5 -15.501s-28.5 -5.5 -42.5 -5.5z" />
    <glyph glyph-name="Wcircumflex" unicode="&#x174;" horiz-adv-x="1100" 
d="M37 760h67l205 -686l210 676h64l209 -676l207 686h64l-236 -760h-66l-212 672l-209 -672h-68zM526 977h53l143 -142h-65l-105 103l-104 -103h-66z" />
    <glyph glyph-name="wcircumflex" unicode="&#x175;" horiz-adv-x="797" 
d="M29 489h62l144 -423l136 417h52l139 -417l147 423h59l-177 -489h-56l-139 416l-136 -416h-56zM372 773h47l146 -174h-60l-109 131l-108 -131h-60z" />
    <glyph glyph-name="Ycircumflex" unicode="&#x176;" horiz-adv-x="679" 
d="M308 337l-279 423h71l240 -372l244 372h66l-280 -424v-336h-62v337zM313 977h53l143 -142h-65l-105 103l-104 -103h-66z" />
    <glyph glyph-name="ycircumflex" unicode="&#x177;" horiz-adv-x="541" 
d="M79 -255c-12 0 -23.999 1.5 -35.999 4.5s-21.667 7.16699 -29 12.5l8 52c6.66699 -4.66699 15.167 -8.5 25.5 -11.5s20.5 -4.5 30.5 -4.5c22 0 41.167 5.83301 57.5 17.5s32 30.167 47 55.5s30.833 59 47.5 101l14 36l-217 481h63l185 -420l168 420h64l-220 -524
c-24 -56.667 -46.333 -101 -67 -133s-41.834 -54.5 -63.501 -67.5s-47.5 -19.5 -77.5 -19.5zM246.001 773h47l146 -174h-60l-109 131l-108 -131h-60z" />
    <glyph glyph-name="Ydieresis" unicode="&#x178;" horiz-adv-x="679" 
d="M308 337l-279 423h71l240 -372l244 372h66l-280 -424v-336h-62v337zM245 847c-12 0 -21.833 4 -29.5 12s-11.5 18 -11.5 30s3.83301 21.833 11.5 29.5s17.5 11.5 29.5 11.5c11.333 0 21 -3.83301 29 -11.5s12 -17.5 12 -29.5s-4 -22 -12 -30s-17.667 -12 -29 -12z
M433 847c-12 0 -21.833 4 -29.5 12s-11.5 18 -11.5 30s3.83301 21.833 11.5 29.5s17.5 11.5 29.5 11.5s21.833 -3.83301 29.5 -11.5s11.5 -17.5 11.5 -29.5s-4 -22 -12 -30s-17.667 -12 -29 -12z" />
    <glyph glyph-name="Zacute" unicode="&#x179;" horiz-adv-x="700" 
d="M62 53l487 653h-462v54h533v-53l-487 -653h495v-54h-566v53zM415 964h79l-149 -129h-66z" />
    <glyph glyph-name="zacute" unicode="&#x17a;" horiz-adv-x="507" 
d="M55 48l315 390h-304v51h373v-48l-317 -391h324v-50h-391v48zM300 773h70l-136 -174h-57z" />
    <glyph glyph-name="Zdotaccent" unicode="&#x17b;" horiz-adv-x="700" 
d="M62 53l487 653h-462v54h533v-53l-487 -653h495v-54h-566v53zM348 846c-13.333 0 -23.833 3.83301 -31.5 11.5s-11.5 18.167 -11.5 31.5s4 24 12 32s18.333 12 31 12c13.333 0 24 -4 32 -12s12 -18.667 12 -32c0 -12.667 -4 -23 -12 -31s-18.667 -12 -32 -12z" />
    <glyph glyph-name="zdotaccent" unicode="&#x17c;" horiz-adv-x="507" 
d="M55 48l315 390h-304v51h373v-48l-317 -391h324v-50h-391v48zM249 639c-13.333 0 -23.833 4 -31.5 12s-11.5 18.667 -11.5 32c0 12.667 4 23 12 31s18.333 12 31 12c13.333 0 24 -4 32 -12s12 -18.333 12 -31s-4 -23.167 -12 -31.5s-18.667 -12.5 -32 -12.5z" />
    <glyph glyph-name="Zcaron" unicode="&#x17d;" horiz-adv-x="700" 
d="M62 53l487 653h-462v54h533v-53l-487 -653h495v-54h-566v53zM178 977h65l105 -104l104 104h66l-144 -142h-53z" />
    <glyph glyph-name="zcaron" unicode="&#x17e;" horiz-adv-x="507" 
d="M55 48l315 390h-304v51h373v-48l-317 -391h324v-50h-391v48zM79 773h61l109 -132l107 132h60l-144 -174h-47z" />
    <glyph glyph-name="florin" unicode="&#x192;" horiz-adv-x="388" 
d="M33 -255c-36 0 -68.6689 7.66602 -98.002 22.999l6 50c28.667 -14.667 60.334 -22 95.001 -22c33.333 0 57.833 10 73.5 30s23.5 51.667 23.5 95v517h-103v51h103v93c0 76.667 16 134.667 48 174s78.667 59 140 59c37.333 0 70 -6.66699 98 -20l-7 -50
c-31.333 12.667 -60.666 19 -87.999 19c-45.333 0 -78.833 -15.333 -100.5 -46s-32.5 -78.667 -32.5 -144v-85h166v-51h-166v-516c0 -59.333 -13 -103.666 -39 -132.999s-65.667 -44 -119 -44z" />
    <glyph glyph-name="uni0218" unicode="&#x218;" horiz-adv-x="656" 
d="M308 -16c-43.333 0 -85.999 5.66406 -127.999 16.9971s-77 26.333 -105 45l9 57c31.333 -20 66.666 -35.833 105.999 -47.5s78 -17.5 116 -17.5c62 0 111 13.667 147 41s54 64.333 54 111c0 30 -6.33301 54.5 -19 73.5s-33.5 36.167 -62.5 51.5s-69.833 32 -122.5 50
c-77.333 26 -132.166 55.167 -164.499 87.5s-48.5 74.5 -48.5 126.5c0 60 21.5 107.833 64.5 143.5s100.833 53.5 173.5 53.5c36 0 72 -4.33301 108 -13s69 -21 99 -37l-12 -54c-66.667 33.333 -131.667 50 -195 50c-55.333 0 -98.833 -12.333 -130.5 -37
s-47.5 -58.667 -47.5 -102c0 -27.333 5.5 -50.166 16.5 -68.499s29.167 -34.666 54.5 -48.999s60.666 -29.166 105.999 -44.499c61.333 -20.667 109.333 -41.667 144 -63s59.5 -45 74.5 -71s22.5 -56.667 22.5 -92c0 -64.667 -23.5 -116 -70.5 -154s-110.167 -57 -189.5 -57
zM246.001 -245.003c28 50.667 43.667 110.666 47 179.999h57c-2.66699 -32 -9.5 -64.667 -20.5 -98s-23.833 -60.666 -38.5 -81.999h-45z" />
    <glyph glyph-name="uni0219" unicode="&#x219;" horiz-adv-x="459" 
d="M215 -16c-31.333 0 -62 4.33398 -92 13.001s-54.333 20 -73 34l8 53c21.333 -15.333 46.333 -27.5 75 -36.5s56 -13.5 82 -13.5c40.667 0 72.834 7.66699 96.501 23s35.5 36.666 35.5 63.999c0 18.667 -4.16699 33.334 -12.5 44.001s-22.333 20.5 -42 29.5
s-48.167 19.5 -85.5 31.5c-52.667 16.667 -90.167 36.167 -112.5 58.5s-33.5 51.166 -33.5 86.499c0 40.667 15.5 73.167 46.5 97.5s72.833 36.5 125.5 36.5c25.333 0 51.5 -3.5 78.5 -10.5s50.5 -16.5 70.5 -28.5l-9 -51c-20 12.667 -42.333 22.5 -67 29.5
s-49.334 10.5 -74.001 10.5c-36.667 0 -65 -7 -85 -21s-30 -33.333 -30 -58c0 -24 8.5 -43.333 25.5 -58s46.5 -28 88.5 -40c64 -18 109 -38.5 135 -61.5s39 -53.833 39 -92.5c0 -42.667 -17.167 -76.667 -51.5 -102s-80.5 -38 -138.5 -38zM146 -244.999
c28 52 43.667 111.999 47 179.999h57c-2.66699 -31.333 -9.5 -63.666 -20.5 -96.999s-24.167 -61 -39.5 -83h-44z" />
    <glyph glyph-name="uni021A" unicode="&#x21a;" horiz-adv-x="672" 
d="M305 706h-260v54h582v-54h-260v-706h-62v706zM262 -245c28 50.667 43.667 110.666 47 179.999h57c-2.66699 -32 -9.5 -64.667 -20.5 -98s-23.833 -60.666 -38.5 -81.999h-45z" />
    <glyph glyph-name="uni021B" unicode="&#x21b;" horiz-adv-x="427" 
d="M282 -16c-52 0 -90.332 14.333 -114.999 43s-37 73.667 -37 135v276h-114v51h114v155h58v-155h180v-51h-180v-263c0 -50.667 7.83301 -86.667 23.5 -108s42.167 -32 79.5 -32c34 0 67 9 99 27l8 -49c-14.667 -9.33301 -32.334 -16.5 -53.001 -21.5s-41.667 -7.5 -63 -7.5
zM181.001 -245c28 52 43.667 111.999 47 179.999h57c-2.66699 -31.333 -9.5 -63.666 -20.5 -96.999s-24.167 -61 -39.5 -83h-44z" />
    <glyph glyph-name="uni0237" unicode="&#x237;" horiz-adv-x="250" 
d="M-4 -255c-36 0 -68.668 7.66602 -98.001 22.999l6 50c28.667 -14.667 60.334 -22 95.001 -22c33.333 0 57.833 10 73.5 30s23.5 51.667 23.5 95v568h58v-567c0 -59.333 -13 -103.666 -39 -132.999s-65.667 -44 -119 -44z" />
    <glyph glyph-name="circumflex" unicode="&#x2c6;" horiz-adv-x="500" 
d="M226 773h47l146 -174h-60l-109 131l-108 -131h-60z" />
    <glyph glyph-name="caron" unicode="&#x2c7;" horiz-adv-x="500" 
d="M80 773h61l109 -132l107 132h60l-144 -174h-47z" />
    <glyph glyph-name="uni02C9" unicode="&#x2c9;" horiz-adv-x="500" 
d="M103 704h294v-51h-294v51z" />
    <glyph glyph-name="uni02CB" unicode="&#x2cb;" horiz-adv-x="500" 
d="M154 773h69l123 -174h-57z" />
    <glyph glyph-name="breve" unicode="&#x2d8;" horiz-adv-x="500" 
d="M250 600c-43.333 0 -78.168 12.5 -104.501 37.5s-39.5 58.167 -39.5 99.5c0 6.66699 0.333008 11.334 1 14.001h45c0 -72 32.667 -108 98 -108s98 36 98 108h45c0.666992 -2.66699 1 -7.33398 1 -14.001c0 -41.333 -13.167 -74.5 -39.5 -99.5
s-61.166 -37.5 -104.499 -37.5z" />
    <glyph glyph-name="dotaccent" unicode="&#x2d9;" horiz-adv-x="500" 
d="M249 639c-13.333 0 -23.833 4 -31.5 12s-11.5 18.667 -11.5 32c0 12.667 4 23 12 31s18.333 12 31 12c13.333 0 24 -4 32 -12s12 -18.333 12 -31s-4 -23.167 -12 -31.5s-18.667 -12.5 -32 -12.5z" />
    <glyph glyph-name="ring" unicode="&#x2da;" horiz-adv-x="500" 
d="M250 588c-36 0 -66.001 11.5 -90.001 34.5s-36 51.833 -36 86.5c0 35.333 11.833 64.333 35.5 87s53.834 34 90.501 34s67 -11.5 91 -34.5s36 -51.833 36 -86.5s-12 -63.5 -36 -86.5s-54.333 -34.5 -91 -34.5zM249.999 628c24.667 0 44.667 7.50098 60 22.501
s23 34.5 23 58.5s-7.66699 43.5 -23 58.5s-35.333 22.5 -60 22.5s-44.5 -7.33301 -59.5 -22s-22.5 -34.334 -22.5 -59.001c0 -24 7.5 -43.5 22.5 -58.5s34.833 -22.5 59.5 -22.5z" />
    <glyph glyph-name="ogonek" unicode="&#x2db;" horiz-adv-x="500" 
d="M270 -252c-30 0 -54 8.33203 -72 24.999s-27 38.334 -27 65.001c0 62 45.333 122.667 136 182l30 -20c-76 -52.667 -114 -103 -114 -151c0 -17.333 4.83301 -30.666 14.5 -39.999s23.167 -14 40.5 -14c20.667 0 42 6 64 18l7 -44
c-10 -6.66699 -22.167 -11.834 -36.5 -15.501s-28.5 -5.5 -42.5 -5.5z" />
    <glyph glyph-name="tilde" unicode="&#x2dc;" horiz-adv-x="500" 
d="M320 621c-16.667 0.666992 -31.3301 4.83398 -43.9971 12.501s-24.167 16.5 -34.5 26.5s-20.333 18.833 -30 26.5s-19.834 11.834 -30.501 12.501c-31.333 0 -47 -25.667 -47 -77h-45c0 40.667 7.66699 71.667 23 93s37.666 32 66.999 32
c17.333 -0.666992 32.333 -4.83398 45 -12.501s24.167 -16.667 34.5 -27s20.166 -19.333 29.499 -27s19.333 -11.834 30 -12.501c32 0 48 26 48 78h45c0 -40 -7.83301 -70.833 -23.5 -92.5s-38.167 -32.5 -67.5 -32.5z" />
    <glyph glyph-name="hungarumlaut" unicode="&#x2dd;" horiz-adv-x="500" 
d="M215 773h66l-130 -176h-54zM370 773h66l-130 -176h-54z" />
    <glyph glyph-name="gravecomb" unicode="&#x300;" horiz-adv-x="0" 
d="M-119 773h69l123 -174h-57z" />
    <glyph glyph-name="acutecomb" unicode="&#x301;" horiz-adv-x="0" 
d="M51 773h70l-136 -174h-57z" />
    <glyph glyph-name="uni0302" unicode="&#x302;" horiz-adv-x="0" 
d="M-24 773h47l146 -174h-60l-109 131l-108 -131h-60z" />
    <glyph glyph-name="tildecomb" unicode="&#x303;" horiz-adv-x="0" 
d="M70 621c-16.667 0.666992 -31.3301 4.83398 -43.9971 12.501s-24.167 16.5 -34.5 26.5s-20.333 18.833 -30 26.5s-19.834 11.834 -30.501 12.501c-31.333 0 -47 -25.667 -47 -77h-45c0 40.667 7.66699 71.667 23 93s37.666 32 66.999 32
c17.333 -0.666992 32.333 -4.83398 45 -12.501s24.167 -16.667 34.5 -27s20.166 -19.333 29.499 -27s19.333 -11.834 30 -12.501c32 0 48 26 48 78h45c0 -40 -7.83301 -70.833 -23.5 -92.5s-38.167 -32.5 -67.5 -32.5z" />
    <glyph glyph-name="uni0304" unicode="&#x304;" horiz-adv-x="0" 
d="M-147 704h294v-51h-294v51z" />
    <glyph glyph-name="uni0306" unicode="&#x306;" horiz-adv-x="0" 
d="M0 600c-43.333 0 -78.168 12.5 -104.501 37.5s-39.5 58.167 -39.5 99.5c0 6.66699 0.333008 11.334 1 14.001h45c0 -72 32.667 -108 98 -108s98 36 98 108h45c0.666992 -2.66699 1 -7.33398 1 -14.001c0 -41.333 -13.167 -74.5 -39.5 -99.5s-61.166 -37.5 -104.499 -37.5
z" />
    <glyph glyph-name="uni0307" unicode="&#x307;" horiz-adv-x="0" 
d="M0 639c-13.333 0 -23.833 4 -31.5 12s-11.5 18.667 -11.5 32c0 12.667 4 23 12 31s18.333 12 31 12c13.333 0 24 -4 32 -12s12 -18.333 12 -31s-4 -23.167 -12 -31.5s-18.667 -12.5 -32 -12.5z" />
    <glyph glyph-name="uni0308" unicode="&#x308;" horiz-adv-x="0" 
d="M-90 642c-12 0 -21.667 3.83203 -29 11.499s-11 17.5 -11 29.5c0 12.667 3.83301 22.834 11.5 30.501s17.167 11.5 28.5 11.5c12 0 22 -4 30 -12s12 -18 12 -30s-4 -21.833 -12 -29.5s-18 -11.5 -30 -11.5zM89 641.999c-12 0 -21.833 3.83301 -29.5 11.5
s-11.5 17.5 -11.5 29.5s3.83301 22 11.5 30s17.5 12 29.5 12s21.833 -4 29.5 -12s11.5 -18 11.5 -30s-3.83301 -21.833 -11.5 -29.5s-17.5 -11.5 -29.5 -11.5z" />
    <glyph glyph-name="uni030A" unicode="&#x30a;" horiz-adv-x="0" 
d="M0 588c-36 0 -66.001 11.5 -90.001 34.5s-36 51.833 -36 86.5c0 35.333 11.833 64.333 35.5 87s53.834 34 90.501 34s67 -11.5 91 -34.5s36 -51.833 36 -86.5s-12 -63.5 -36 -86.5s-54.333 -34.5 -91 -34.5zM-0.000976562 628c24.667 0 44.667 7.50098 60 22.501
s23 34.5 23 58.5s-7.66699 43.5 -23 58.5s-35.333 22.5 -60 22.5s-44.5 -7.33301 -59.5 -22s-22.5 -34.334 -22.5 -59.001c0 -24 7.5 -43.5 22.5 -58.5s34.833 -22.5 59.5 -22.5z" />
    <glyph glyph-name="uni030B" unicode="&#x30b;" horiz-adv-x="0" 
d="M-15 773h66l-130 -176h-54zM140 773h66l-130 -176h-54z" />
    <glyph glyph-name="uni030C" unicode="&#x30c;" horiz-adv-x="0" 
d="M-170 773h61l109 -132l107 132h60l-144 -174h-47z" />
    <glyph glyph-name="uni0312" unicode="&#x312;" horiz-adv-x="0" 
d="M-34 610c1.33301 28.667 7.00098 57.332 17.001 85.999s23.333 54.334 40 77.001h45c-26.667 -46 -41.334 -100.333 -44.001 -163h-58z" />
    <glyph glyph-name="uni0315" unicode="&#x315;" horiz-adv-x="0" 
d="M-23 810h58l-31 -230h-40z" />
    <glyph glyph-name="uni0326" unicode="&#x326;" horiz-adv-x="0" 
d="M-71 -245c28 52 43.667 111.999 47 179.999h57c-2.66699 -31.333 -9.5 -63.666 -20.5 -96.999s-24.167 -61 -39.5 -83h-44z" />
    <glyph glyph-name="uni0327" unicode="&#x327;" horiz-adv-x="0" 
d="M-15 -255c-14.667 0 -29.8301 1.83301 -45.4971 5.5s-28.5 8.16699 -38.5 13.5l10 42c10 -5.33301 21.667 -9.5 35 -12.5s26.333 -4.5 39 -4.5c22 0 39.333 4.66699 52 14s19 22 19 38c0 15.333 -5.83301 27.5 -17.5 36.5s-27.834 13.5 -48.501 13.5
c-18 0 -32 -1.33301 -42 -4l32 123h42l-21 -82h5c29.333 0 53.166 -8 71.499 -24s27.5 -36.667 27.5 -62c0 -29.333 -10.833 -52.833 -32.5 -70.5s-50.834 -26.5 -87.501 -26.5z" />
    <glyph glyph-name="uni0328" unicode="&#x328;" horiz-adv-x="0" 
d="M-27 -252c-30 0 -54 8.33203 -72 24.999s-27 38.334 -27 65.001c0 62 45.333 122.667 136 182l30 -20c-76 -52.667 -114 -103 -114 -151c0 -17.333 4.83301 -30.666 14.5 -39.999s23.167 -14 40.5 -14c20.667 0 42 6 64 18l7 -44
c-10 -6.66699 -22.167 -11.834 -36.5 -15.501s-28.5 -5.5 -42.5 -5.5z" />
    <glyph glyph-name="pi" unicode="&#x3c0;" horiz-adv-x="639" 
d="M534 -5c-32.667 0 -55.667 9.16699 -69 27.5s-20 49.5 -20 93.5v322h-254v-438h-58v438h-82v51h536v-51h-84v-321c0 -27.333 3 -46 9 -56s17 -15 33 -15c13.333 0 25 2 35 6l6 -47c-14.667 -6.66699 -32 -10 -52 -10z" />
    <glyph glyph-name="Wgrave" unicode="&#x1e80;" horiz-adv-x="1100" 
d="M37 760h67l205 -686l210 676h64l209 -676l207 686h64l-236 -760h-66l-212 672l-209 -672h-68zM406 964h79l136 -129h-65z" />
    <glyph glyph-name="wgrave" unicode="&#x1e81;" horiz-adv-x="797" 
d="M29 489h62l144 -423l136 417h52l139 -417l147 423h59l-177 -489h-56l-139 416l-136 -416h-56zM277 773h69l123 -174h-57z" />
    <glyph glyph-name="Wacute" unicode="&#x1e82;" horiz-adv-x="1100" 
d="M37 760h67l205 -686l210 676h64l209 -676l207 686h64l-236 -760h-66l-212 672l-209 -672h-68zM619 964h79l-149 -129h-66z" />
    <glyph glyph-name="wacute" unicode="&#x1e83;" horiz-adv-x="797" 
d="M29 489h62l144 -423l136 417h52l139 -417l147 423h59l-177 -489h-56l-139 416l-136 -416h-56zM447 773h70l-136 -174h-57z" />
    <glyph glyph-name="Wdieresis" unicode="&#x1e84;" horiz-adv-x="1100" 
d="M37 760h67l205 -686l210 676h64l209 -676l207 686h64l-236 -760h-66l-212 672l-209 -672h-68zM458 847c-12 0 -21.833 4 -29.5 12s-11.5 18 -11.5 30s3.83301 21.833 11.5 29.5s17.5 11.5 29.5 11.5c11.333 0 21 -3.83301 29 -11.5s12 -17.5 12 -29.5s-4 -22 -12 -30
s-17.667 -12 -29 -12zM646 847c-12 0 -21.833 4 -29.5 12s-11.5 18 -11.5 30s3.83301 21.833 11.5 29.5s17.5 11.5 29.5 11.5s21.833 -3.83301 29.5 -11.5s11.5 -17.5 11.5 -29.5s-4 -22 -12 -30s-17.667 -12 -29 -12z" />
    <glyph glyph-name="wdieresis" unicode="&#x1e85;" horiz-adv-x="797" 
d="M29 489h62l144 -423l136 417h52l139 -417l147 423h59l-177 -489h-56l-139 416l-136 -416h-56zM306 642c-12 0 -21.667 3.83203 -29 11.499s-11 17.5 -11 29.5c0 12.667 3.83301 22.834 11.5 30.501s17.167 11.5 28.5 11.5c12 0 22 -4 30 -12s12 -18 12 -30
s-4 -21.833 -12 -29.5s-18 -11.5 -30 -11.5zM485 641.999c-12 0 -21.833 3.83301 -29.5 11.5s-11.5 17.5 -11.5 29.5s3.83301 22 11.5 30s17.5 12 29.5 12s21.833 -4 29.5 -12s11.5 -18 11.5 -30s-3.83301 -21.833 -11.5 -29.5s-17.5 -11.5 -29.5 -11.5z" />
    <glyph glyph-name="uni1E9E" unicode="&#x1e9e;" horiz-adv-x="790" 
d="M473 -16c-31.333 0 -62 4.00195 -92 12.002s-54 18.333 -72 31l6 55c47.333 -29.333 99.333 -44 156 -44c58 0 104.5 16.167 139.5 48.5s52.5 75.166 52.5 128.499c0 50 -16.167 90.167 -48.5 120.5s-75.5 45.5 -129.5 45.5c-18 0 -35.667 -2.66699 -53 -8l-13 35
l188 242c-26.667 22 -57 39.167 -91 51.5s-69.333 18.5 -106 18.5c-155.333 0 -233 -99.667 -233 -299v-421h-62v427c0 112.667 25.667 199 77 259s124.666 90 219.999 90c47.333 0 93.5 -8.83301 138.5 -26.5s82.833 -42.167 113.5 -73.5v-41l-159 -204
c40.667 -0.666992 77.334 -10.167 110.001 -28.5s58.667 -44 78 -77s29 -70.5 29 -112.5c0 -42.667 -10.167 -81.334 -30.5 -116.001s-49.5 -62.167 -87.5 -82.5s-81.667 -30.5 -131 -30.5z" />
    <glyph glyph-name="Ygrave" unicode="&#x1ef2;" horiz-adv-x="679" 
d="M308 337l-279 423h71l240 -372l244 372h66l-280 -424v-336h-62v337zM193 964h79l136 -129h-65z" />
    <glyph glyph-name="ygrave" unicode="&#x1ef3;" horiz-adv-x="541" 
d="M79 -255c-12 0 -23.999 1.5 -35.999 4.5s-21.667 7.16699 -29 12.5l8 52c6.66699 -4.66699 15.167 -8.5 25.5 -11.5s20.5 -4.5 30.5 -4.5c22 0 41.167 5.83301 57.5 17.5s32 30.167 47 55.5s30.833 59 47.5 101l14 36l-217 481h63l185 -420l168 420h64l-220 -524
c-24 -56.667 -46.333 -101 -67 -133s-41.834 -54.5 -63.501 -67.5s-47.5 -19.5 -77.5 -19.5zM151.001 773h69l123 -174h-57z" />
    <glyph glyph-name="uni2000" unicode="&#x2000;" horiz-adv-x="500" 
 />
    <glyph glyph-name="uni2001" unicode="&#x2001;" horiz-adv-x="1000" 
 />
    <glyph glyph-name="uni2002" unicode="&#x2002;" horiz-adv-x="500" 
 />
    <glyph glyph-name="uni2003" unicode="&#x2003;" horiz-adv-x="1000" 
 />
    <glyph glyph-name="uni2004" unicode="&#x2004;" horiz-adv-x="333" 
 />
    <glyph glyph-name="uni2005" unicode="&#x2005;" horiz-adv-x="250" 
 />
    <glyph glyph-name="uni2006" unicode="&#x2006;" horiz-adv-x="166" 
 />
    <glyph glyph-name="uni2007" unicode="&#x2007;" horiz-adv-x="620" 
 />
    <glyph glyph-name="uni2008" unicode="&#x2008;" horiz-adv-x="290" 
 />
    <glyph glyph-name="uni2009" unicode="&#x2009;" horiz-adv-x="200" 
 />
    <glyph glyph-name="uni200A" unicode="&#x200a;" horiz-adv-x="55" 
 />
    <glyph glyph-name="uni200B" unicode="&#x200b;" horiz-adv-x="0" 
 />
    <glyph glyph-name="uni2010" unicode="&#x2010;" horiz-adv-x="441" 
d="M78 313h285v-57h-285v57z" />
    <glyph glyph-name="figuredash" unicode="&#x2012;" horiz-adv-x="500" 
d="M0 316h500v-53h-500v53z" />
    <glyph glyph-name="endash" unicode="&#x2013;" horiz-adv-x="500" 
d="M0 316h500v-53h-500v53z" />
    <glyph glyph-name="emdash" unicode="&#x2014;" horiz-adv-x="1000" 
d="M0 316h1000v-53h-1000v53z" />
    <glyph glyph-name="uni2015" unicode="&#x2015;" horiz-adv-x="1000" 
d="M0 316h1000v-53h-1000v53z" />
    <glyph glyph-name="quoteleft" unicode="&#x2018;" horiz-adv-x="185" 
d="M46 530c3.33301 39.333 10.499 79.6689 21.499 121.002s24.833 77.666 41.5 108.999h45c-29.333 -68.667 -45.666 -145.334 -48.999 -230.001h-59z" />
    <glyph glyph-name="quoteright" unicode="&#x2019;" horiz-adv-x="185" 
d="M31 530c29.333 68.667 45.667 145.331 49 229.998h59c-3.33301 -39.333 -10.5 -79.666 -21.5 -120.999s-24.833 -77.666 -41.5 -108.999h-45z" />
    <glyph glyph-name="quotesinglbase" unicode="&#x201a;" horiz-adv-x="185" 
d="M31 -112c29.333 68.667 45.667 145.331 49 229.998h59c-3.33301 -39.333 -10.5 -79.666 -21.5 -120.999s-24.833 -77.666 -41.5 -108.999h-45z" />
    <glyph glyph-name="quotedblleft" unicode="&#x201c;" horiz-adv-x="329" 
d="M46 530c3.33301 39.333 10.499 79.6689 21.499 121.002s24.833 77.666 41.5 108.999h45c-29.333 -68.667 -45.666 -145.334 -48.999 -230.001h-59zM189.999 530.003c3.33301 39.333 10.499 79.6689 21.499 121.002s24.833 77.666 41.5 108.999h45
c-29.333 -68.667 -45.666 -145.334 -48.999 -230.001h-59z" />
    <glyph glyph-name="quotedblright" unicode="&#x201d;" horiz-adv-x="329" 
d="M31 530c29.333 68.667 45.667 145.331 49 229.998h59c-3.33301 -39.333 -10.5 -79.666 -21.5 -120.999s-24.833 -77.666 -41.5 -108.999h-45zM175.001 529.997c29.333 68.667 45.667 145.331 49 229.998h59c-3.33301 -39.333 -10.5 -79.666 -21.5 -120.999
s-24.833 -77.666 -41.5 -108.999h-45z" />
    <glyph glyph-name="quotedblbase" unicode="&#x201e;" horiz-adv-x="329" 
d="M31 -112c29.333 68.667 45.667 145.331 49 229.998h59c-3.33301 -39.333 -10.5 -79.666 -21.5 -120.999s-24.833 -77.666 -41.5 -108.999h-45zM175.001 -112.003c29.333 68.667 45.667 145.331 49 229.998h59c-3.33301 -39.333 -10.5 -79.666 -21.5 -120.999
s-24.833 -77.666 -41.5 -108.999h-45z" />
    <glyph glyph-name="dagger" unicode="&#x2020;" horiz-adv-x="500" 
d="M221 454h-173v54h173v252h57v-252h174v-54h-174v-584h-57v584z" />
    <glyph glyph-name="daggerdbl" unicode="&#x2021;" horiz-adv-x="500" 
d="M221 113h-173v53h173v298h-173v54h173v242h57v-242h174v-54h-174v-298h174v-53h-174v-243h-57v243z" />
    <glyph glyph-name="bullet" unicode="&#x2022;" horiz-adv-x="339" 
d="M170 163c-30.667 0 -56.834 10.833 -78.501 32.5s-32.5 47.834 -32.5 78.501s10.833 56.834 32.5 78.501s47.834 32.5 78.501 32.5s56.834 -10.833 78.501 -32.5s32.5 -47.834 32.5 -78.501s-10.833 -56.834 -32.5 -78.501s-47.834 -32.5 -78.501 -32.5z" />
    <glyph glyph-name="ellipsis" unicode="&#x2026;" horiz-adv-x="1000" 
d="M167 -8c-12.667 0 -23.667 4.66699 -33 14s-14 20.333 -14 33c0 13.333 4.5 24.5 13.5 33.5s20.167 13.5 33.5 13.5s24.5 -4.5 33.5 -13.5s13.5 -20.167 13.5 -33.5c0 -12.667 -4.5 -23.667 -13.5 -33s-20.167 -14 -33.5 -14zM500 -8c-12.667 0 -23.667 4.66699 -33 14
s-14 20.333 -14 33c0 13.333 4.5 24.5 13.5 33.5s20.167 13.5 33.5 13.5s24.5 -4.5 33.5 -13.5s13.5 -20.167 13.5 -33.5c0 -12.667 -4.5 -23.667 -13.5 -33s-20.167 -14 -33.5 -14zM833 -8c-12.667 0 -23.667 4.66699 -33 14s-14 20.333 -14 33
c0 13.333 4.5 24.5 13.5 33.5s20.167 13.5 33.5 13.5s24.5 -4.5 33.5 -13.5s13.5 -20.167 13.5 -33.5c0 -12.667 -4.5 -23.667 -13.5 -33s-20.167 -14 -33.5 -14z" />
    <glyph glyph-name="perthousand" unicode="&#x2030;" horiz-adv-x="1324" 
d="M227 456c34.667 0 63.5 12 86.5 36s34.5 54.333 34.5 91c0 37.333 -11.333 68 -34 92s-51.667 36 -87 36s-64.5 -12 -87.5 -36s-34.5 -54.667 -34.5 -92c0 -36 11.5 -66.167 34.5 -90.5s52.167 -36.5 87.5 -36.5zM227 407c-31.333 0 -60.3311 7.5 -86.998 22.5
s-48 36 -64 63s-24 57.167 -24 90.5c0 32 7.33301 61.333 22 88s35.5 48.167 62.5 64.5s57.167 24.5 90.5 24.5c31.333 0 60.166 -7.5 86.499 -22.5s47.5 -36 63.5 -63s24 -57.5 24 -91.5c0 -49.333 -16.833 -91 -50.5 -125s-74.834 -51 -123.501 -51zM708.002 744h63
l-578 -744h-63zM678.002 39c34.667 0 63.5 12 86.5 36s34.5 54.333 34.5 91c0 37.333 -11.333 68 -34 92s-51.667 36 -87 36s-64.5 -12 -87.5 -36s-34.5 -54.667 -34.5 -92c0 -36 11.5 -66.167 34.5 -90.5s52.167 -36.5 87.5 -36.5zM678.002 -10
c-31.333 0 -60.3311 7.5 -86.998 22.5s-48 36 -64 63s-24 57.167 -24 90.5c0 32 7.33301 61.333 22 88s35.5 48.167 62.5 64.5s57.167 24.5 90.5 24.5c31.333 0 60.166 -7.5 86.499 -22.5s47.5 -36 63.5 -63s24 -57.5 24 -91.5c0 -49.333 -16.833 -91 -50.5 -125
s-74.834 -51 -123.501 -51zM1097 39c34.667 0 63.5 12 86.5 36s34.5 54.333 34.5 91c0 37.333 -11.333 68 -34 92s-51.667 36 -87 36s-64.5 -12 -87.5 -36s-34.5 -54.667 -34.5 -92c0 -36 11.5 -66.167 34.5 -90.5s52.167 -36.5 87.5 -36.5zM1097 -10
c-31.333 0 -60.3311 7.5 -86.998 22.5s-48 36 -64 63s-24 57.167 -24 90.5c0 32 7.33301 61.333 22 88s35.5 48.167 62.5 64.5s57.167 24.5 90.5 24.5c31.333 0 60.166 -7.5 86.499 -22.5s47.5 -36 63.5 -63s24 -57.5 24 -91.5c0 -49.333 -16.833 -91 -50.5 -125
s-74.834 -51 -123.501 -51z" />
    <glyph glyph-name="minute" unicode="&#x2032;" horiz-adv-x="252" 
d="M121 760h62l-65 -291h-49z" />
    <glyph glyph-name="second" unicode="&#x2033;" horiz-adv-x="403" 
d="M121 760h62l-65 -291h-49zM273 760h62l-65 -291h-49z" />
    <glyph glyph-name="guilsinglleft" unicode="&#x2039;" horiz-adv-x="287" 
d="M35 257l141 208h66l-141 -208l141 -208h-66z" />
    <glyph glyph-name="guilsinglright" unicode="&#x203a;" horiz-adv-x="287" 
d="M186 257l-141 208h66l141 -208l-141 -208h-66z" />
    <glyph glyph-name="fraction" unicode="&#x2044;" horiz-adv-x="165" 
d="M340 744h63l-578 -744h-63z" />
    <glyph glyph-name="uni2070" unicode="&#x2070;" 
d="M189 446c-30 0 -56.999 8.66699 -80.999 26s-43 42.166 -57 74.499s-21 69.833 -21 112.5c0 64.667 14.667 116.667 44 156s67.666 59 114.999 59c48 0 86.667 -19.667 116 -59s44 -91.333 44 -156c0 -63.333 -14.833 -114.666 -44.5 -153.999s-68.167 -59 -115.5 -59z
M189.001 489c32.667 0 59 15.667 79 47s30 72.333 30 123c0 52 -10 93.667 -30 125s-46.333 47 -79 47s-58.834 -15.667 -78.501 -47s-29.5 -73 -29.5 -125c0 -51.333 9.83301 -92.5 29.5 -123.5s45.834 -46.5 78.501 -46.5z" />
    <glyph glyph-name="uni2074" unicode="&#x2074;" 
d="M238 560h-202v41l197 263h50v-263h56v-41h-56v-104h-45v104zM238 601v203l-153 -203h153z" />
    <glyph glyph-name="uni2075" unicode="&#x2075;" 
d="M175 446c-20.667 0 -41.335 2.66895 -62.002 8.00195s-37 12.333 -49 21l5 44c32.667 -20 68.334 -30 107.001 -30c32.667 0 57.834 8.16699 75.501 24.5s26.5 39.166 26.5 68.499c0 26.667 -9.5 47.5 -28.5 62.5s-45.5 22.5 -79.5 22.5s-63 -4.66699 -87 -14l7 211h212
v-46h-170l-3 -114c16.667 3.33301 32 5 46 5c46 0 82.833 -11.333 110.5 -34s41.5 -53.334 41.5 -92.001c0 -42 -13.667 -75.333 -41 -100s-64.333 -37 -111 -37z" />
    <glyph glyph-name="uni2076" unicode="&#x2076;" 
d="M187 446c-40.667 0 -73.999 13.168 -99.999 39.501s-39 59.833 -39 100.5c0 46.667 15 95.667 45 147s69.333 95.666 118 132.999l60 -3c-35.333 -25.333 -67.333 -54.833 -96 -88.5s-50.334 -67.167 -65.001 -100.5c23.333 24.667 53.333 37 90 37
c38 0 69.5 -12.167 94.5 -36.5s37.5 -54.833 37.5 -91.5c0 -40.667 -13.5 -73.667 -40.5 -99s-61.833 -38 -104.5 -38zM190.001 488.001c28 0 50.999 8.49902 68.999 25.499s27 38.5 27 64.5c0 28 -8.66699 50.333 -26 67s-40.666 25 -69.999 25
c-28 0 -51.167 -8.5 -69.5 -25.5s-27.5 -38.167 -27.5 -63.5c0 -27.333 9 -49.666 27 -66.999s41.333 -26 70 -26z" />
    <glyph glyph-name="uni2077" unicode="&#x2077;" 
d="M98 457l171 360h-213v47h265v-44l-170 -366z" />
    <glyph glyph-name="uni2078" unicode="&#x2078;" 
d="M192 446c-42.667 0 -77.5 11.168 -104.5 33.501s-40.5 51.166 -40.5 86.499c0 23.333 7.5 44.666 22.5 63.999s35.167 33.333 60.5 42c-22.667 8.66699 -40 21.167 -52 37.5s-18 35.5 -18 57.5c0 31.333 12.333 57 37 77s56.334 30 95.001 30
c37.333 0 68.166 -10 92.499 -30s36.5 -45.667 36.5 -77c0 -22 -6 -41.167 -18 -57.5s-28.667 -28.833 -50 -37.5c24.667 -8.66699 44.167 -22.5 58.5 -41.5s21.5 -40.5 21.5 -64.5c0 -35.333 -13 -64.166 -39 -86.499s-60 -33.5 -102 -33.5zM192 487.001
c28 0 50.498 7.33301 67.498 22s25.5 34 25.5 58c0 24.667 -8.66699 44.834 -26 60.501s-39.666 23.5 -66.999 23.5c-28 0 -51 -7.83301 -69 -23.5s-27 -35.834 -27 -60.501c0 -24 8.83301 -43.333 26.5 -58s40.834 -22 69.501 -22zM191.998 691.001
c24.667 0 44.5 6.83301 59.5 20.5s22.5 31.167 22.5 52.5s-7.5 38.5 -22.5 51.5s-34.833 19.5 -59.5 19.5c-25.333 0 -45.833 -6.5 -61.5 -19.5s-23.5 -30.167 -23.5 -51.5s7.83301 -38.833 23.5 -52.5s36.167 -20.5 61.5 -20.5z" />
    <glyph glyph-name="uni2079" unicode="&#x2079;" 
d="M109 457c34.667 24.667 66.665 53.998 95.998 87.998s51 67.333 65 100c-11.333 -11.333 -24.666 -20.166 -39.999 -26.499s-31.666 -9.5 -48.999 -9.5c-38 0 -69.667 12.167 -95 36.5s-38 54.833 -38 91.5c0 40 13.5 72.833 40.5 98.5s61.833 38.5 104.5 38.5
c40.667 0 74 -13.167 100 -39.5s39 -59.833 39 -100.5c0 -47.333 -15 -96.666 -45 -147.999s-69.333 -95.333 -118 -132zM190.998 649.998c28 0 51.001 8.50098 69.001 25.501s27 38.167 27 63.5c0 27.333 -9 49.666 -27 66.999s-41 26 -69 26s-51 -8.5 -69 -25.5
s-27 -38.5 -27 -64.5c0 -28 8.66699 -50.333 26 -67s40.666 -25 69.999 -25z" />
    <glyph glyph-name="uni2080" unicode="&#x2080;" 
d="M189 -135c-30 0 -56.999 8.66699 -80.999 26s-43 42.166 -57 74.499s-21 69.833 -21 112.5c0 64.667 14.667 116.667 44 156s67.666 59 114.999 59c48 0 86.667 -19.667 116 -59s44 -91.333 44 -156c0 -63.333 -14.833 -114.666 -44.5 -153.999s-68.167 -59 -115.5 -59z
M189.001 -92c32.667 0 59 15.667 79 47s30 72.333 30 123c0 52 -10 93.667 -30 125s-46.333 47 -79 47s-58.834 -15.667 -78.501 -47s-29.5 -73 -29.5 -125c0 -51.333 9.83301 -92.5 29.5 -123.5s45.834 -46.5 78.501 -46.5z" />
    <glyph glyph-name="uni2081" unicode="&#x2081;" 
d="M203 231l-124 -57l-8 45l138 64h43v-408h-49v356z" />
    <glyph glyph-name="uni2082" unicode="&#x2082;" 
d="M58 -125l0.000976562 45c41.333 36 80.666 72.667 117.999 110c30.667 30 52.334 56 65.001 78s19 44.333 19 67c0 22 -7.5 39.667 -22.5 53s-34.833 20 -59.5 20c-40.667 0 -77 -17 -109 -51l-12 43c14 16 32.5 28.833 55.5 38.5s46.167 14.5 69.5 14.5
c37.333 0 67.833 -10.5 91.5 -31.5s35.5 -48.5 35.5 -82.5c0 -28.667 -7.83301 -57 -23.5 -85s-41.834 -59.667 -78.501 -95c-12 -12 -41 -38.333 -87 -79h204v-45h-266z" />
    <glyph glyph-name="uni2083" unicode="&#x2083;" 
d="M163 -135c-20 0 -40.001 2.5 -60.001 7.5s-36.333 11.833 -49 20.5l5 44c31.333 -20 66 -30 104 -30c32.667 0 58.167 8 76.5 24s27.5 38 27.5 66c0 24.667 -8.83301 44 -26.5 58s-42.167 21 -73.5 21c-14.667 0 -27.667 -2 -39 -6l-13 29l132 140h-183v44h238v-43
l-116 -125c38.667 -1.33301 69.834 -13 93.501 -35s35.5 -50 35.5 -84c0 -39.333 -13.833 -71 -41.5 -95s-64.5 -36 -110.5 -36z" />
    <glyph glyph-name="uni2084" unicode="&#x2084;" 
d="M238 -21h-202v41l197 263h50v-263h56v-41h-56v-104h-45v104zM238 20v203l-153 -203h153z" />
    <glyph glyph-name="uni2085" unicode="&#x2085;" 
d="M175 -135c-20.667 0 -41.335 2.66895 -62.002 8.00195s-37 12.333 -49 21l5 44c32.667 -20 68.334 -30 107.001 -30c32.667 0 57.834 8.16699 75.501 24.5s26.5 39.166 26.5 68.499c0 26.667 -9.5 47.5 -28.5 62.5s-45.5 22.5 -79.5 22.5s-63 -4.66699 -87 -14l7 211h212
v-46h-170l-3 -114c16.667 3.33301 32 5 46 5c46 0 82.833 -11.333 110.5 -34s41.5 -53.334 41.5 -92.001c0 -42 -13.667 -75.333 -41 -100s-64.333 -37 -111 -37z" />
    <glyph glyph-name="uni2086" unicode="&#x2086;" 
d="M187 -135c-40.667 0 -73.999 13.168 -99.999 39.501s-39 59.833 -39 100.5c0 46.667 15 95.667 45 147s69.333 95.666 118 132.999l60 -3c-35.333 -25.333 -67.333 -54.833 -96 -88.5s-50.334 -67.167 -65.001 -100.5c23.333 24.667 53.333 37 90 37
c38 0 69.5 -12.167 94.5 -36.5s37.5 -54.833 37.5 -91.5c0 -40.667 -13.5 -73.667 -40.5 -99s-61.833 -38 -104.5 -38zM190.001 -92.999c28 0 50.999 8.49902 68.999 25.499s27 38.5 27 64.5c0 28 -8.66699 50.333 -26 67s-40.666 25 -69.999 25
c-28 0 -51.167 -8.5 -69.5 -25.5s-27.5 -38.167 -27.5 -63.5c0 -27.333 9 -49.666 27 -66.999s41.333 -26 70 -26z" />
    <glyph glyph-name="uni2087" unicode="&#x2087;" 
d="M98 -124l171 360h-213v47h265v-44l-170 -366z" />
    <glyph glyph-name="uni2088" unicode="&#x2088;" 
d="M192 -135c-42.667 0 -77.5 11.168 -104.5 33.501s-40.5 51.166 -40.5 86.499c0 23.333 7.5 44.666 22.5 63.999s35.167 33.333 60.5 42c-22.667 8.66699 -40 21.167 -52 37.5s-18 35.5 -18 57.5c0 31.333 12.333 57 37 77s56.334 30 95.001 30
c37.333 0 68.166 -10 92.499 -30s36.5 -45.667 36.5 -77c0 -22 -6 -41.167 -18 -57.5s-28.667 -28.833 -50 -37.5c24.667 -8.66699 44.167 -22.5 58.5 -41.5s21.5 -40.5 21.5 -64.5c0 -35.333 -13 -64.166 -39 -86.499s-60 -33.5 -102 -33.5zM192 -93.999
c28 0 50.498 7.33301 67.498 22s25.5 34 25.5 58c0 24.667 -8.66699 44.834 -26 60.501s-39.666 23.5 -66.999 23.5c-28 0 -51 -7.83301 -69 -23.5s-27 -35.834 -27 -60.501c0 -24 8.83301 -43.333 26.5 -58s40.834 -22 69.501 -22zM191.998 110.001
c24.667 0 44.5 6.83301 59.5 20.5s22.5 31.167 22.5 52.5s-7.5 38.5 -22.5 51.5s-34.833 19.5 -59.5 19.5c-25.333 0 -45.833 -6.5 -61.5 -19.5s-23.5 -30.167 -23.5 -51.5s7.83301 -38.833 23.5 -52.5s36.167 -20.5 61.5 -20.5z" />
    <glyph glyph-name="uni2089" unicode="&#x2089;" 
d="M109 -124c34.667 24.667 66.665 53.998 95.998 87.998s51 67.333 65 100c-11.333 -11.333 -24.666 -20.166 -39.999 -26.499s-31.666 -9.5 -48.999 -9.5c-38 0 -69.667 12.167 -95 36.5s-38 54.833 -38 91.5c0 40 13.5 72.833 40.5 98.5s61.833 38.5 104.5 38.5
c40.667 0 74 -13.167 100 -39.5s39 -59.833 39 -100.5c0 -47.333 -15 -96.666 -45 -147.999s-69.333 -95.333 -118 -132zM190.998 68.998c28 0 51.001 8.50098 69.001 25.501s27 38.167 27 63.5c0 27.333 -9 49.666 -27 66.999s-41 26 -69 26s-51 -8.5 -69 -25.5
s-27 -38.5 -27 -64.5c0 -28 8.66699 -50.333 26 -67s40.666 -25 69.999 -25z" />
    <glyph glyph-name="Euro" unicode="&#x20ac;" horiz-adv-x="620" 
d="M447 -13c-76 0 -139 23.666 -189 70.999s-83.333 114.666 -100 201.999h-111v49h104c-2 21.333 -3 43.333 -3 66c0 10 0.333008 20 1 30l2 30h-104v49h111c16 86.667 49.333 154.334 100 203.001s113.667 73 189 73c53.333 0 101 -12 143 -36l-12 -51
c-40.667 22.667 -85 34 -133 34c-58 0 -107.167 -19.5 -147.5 -58.5s-67.833 -93.833 -82.5 -164.5h282v-49h-289l-2 -28c-0.666992 -9.33301 -1 -18.666 -1 -27.999c0 -28 1.33301 -51.333 4 -70h288v-49h-280c14.667 -70.667 42 -125 82 -163s90 -57 150 -57
c48.667 0 95 11.333 139 34l6 -53c-42 -22.667 -91 -34 -147 -34z" />
    <glyph glyph-name="uni20BA" unicode="&#x20ba;" horiz-adv-x="620" 
d="M227 -13c-24 0 -50.333 3.33301 -79 10v293l-99 -43v49l99 44v115l-99 -43v49l99 44v239h56v-215l226 101v-50l-226 -101v-115l226 101v-50l-226 -101v-271c9.33301 -1.33301 20 -2 32 -2c77.333 0 140 24.5 188 73.5s75.333 115.833 82 200.5l53 -5
c-3.33301 -63.333 -18.833 -119.333 -46.5 -168s-66 -86.667 -115 -114s-105.833 -41 -170.5 -41z" />
    <glyph glyph-name="trademark" unicode="&#x2122;" horiz-adv-x="843" 
d="M403 760h53l124 -257l123 257h53l19 -370h-47l-13 302l-114 -238h-42l-115 238l-13 -302h-46zM146 716h-119v44h287v-44h-118v-326h-50v326z" />
    <glyph glyph-name="Omega" unicode="&#x2126;" horiz-adv-x="932" 
d="M97 55l199.001 -0.00195312c-63.333 38 -112.166 87.5 -146.499 148.5s-51.5 128.833 -51.5 203.5c0 68 15.333 129.833 46 185.5s74 100.167 130 133.5s119.667 50 191 50c68.667 0 130.834 -15.167 186.501 -45.5s100 -73.666 133 -129.999s49.5 -120.833 49.5 -193.5
c0 -74 -17.167 -141.833 -51.5 -203.5s-82.833 -111.167 -145.5 -148.5h198v-55h-296v48c71.333 32.667 127.666 80.667 168.999 144s62 133.666 62 210.999c0 60 -12.5 113.833 -37.5 161.5s-60.667 85.334 -107 113.001s-99.833 41.5 -160.5 41.5
c-57.333 0 -108.833 -13 -154.5 -39s-81.834 -63 -108.501 -111s-40 -103.333 -40 -166c0 -77.333 20.667 -147.666 62 -210.999s97.666 -111.333 168.999 -144v-48h-296v55z" />
    <glyph glyph-name="uni2150" unicode="&#x2150;" horiz-adv-x="931" 
d="M686 744h63l-578 -744h-63zM649 1l171 360h-213v47h265v-44l-170 -366zM203 692l-124 -57l-8 45l138 64h43v-408h-49v356z" />
    <glyph glyph-name="uni2151" unicode="&#x2151;" horiz-adv-x="931" 
d="M709 744h63l-578 -744h-63zM660 1c34.667 24.667 66.665 53.998 95.998 87.998s51 67.333 65 100c-11.333 -11.333 -24.666 -20.166 -39.999 -26.499s-31.666 -9.5 -48.999 -9.5c-38 0 -69.667 12.167 -95 36.5s-38 54.833 -38 91.5c0 40 13.5 72.833 40.5 98.5
s61.833 38.5 104.5 38.5c40.667 0 74 -13.167 100 -39.5s39 -59.833 39 -100.5c0 -47.333 -15 -96.666 -45 -147.999s-69.333 -95.333 -118 -132zM741.998 193.998c28 0 51.001 8.50098 69.001 25.501s27 38.167 27 63.5c0 27.333 -9 49.666 -27 66.999s-41 26 -69 26
s-51 -8.5 -69 -25.5s-27 -38.5 -27 -64.5c0 -28 8.66699 -50.333 26 -67s40.666 -25 69.999 -25zM202.999 691.999l-124 -57l-8 45l138 64h43v-408h-49v356z" />
    <glyph glyph-name="onethird" unicode="&#x2153;" horiz-adv-x="931" 
d="M693 744h63l-578 -744h-63zM714 -10c-20 0 -40.001 2.5 -60.001 7.5s-36.333 11.833 -49 20.5l5 44c31.333 -20 66 -30 104 -30c32.667 0 58.167 8 76.5 24s27.5 38 27.5 66c0 24.667 -8.83301 44 -26.5 58s-42.167 21 -73.5 21c-14.667 0 -27.667 -2 -39 -6l-13 29
l132 140h-183v44h238v-43l-116 -125c38.667 -1.33301 69.834 -13 93.501 -35s35.5 -50 35.5 -84c0 -39.333 -13.833 -71 -41.5 -95s-64.5 -36 -110.5 -36zM202.999 692l-124 -57l-8 45l138 64h43v-408h-49v356z" />
    <glyph glyph-name="twothirds" unicode="&#x2154;" horiz-adv-x="931" 
d="M727 744h63l-578 -744h-63zM714 -10c-20 0 -40.001 2.5 -60.001 7.5s-36.333 11.833 -49 20.5l5 44c31.333 -20 66 -30 104 -30c32.667 0 58.167 8 76.5 24s27.5 38 27.5 66c0 24.667 -8.83301 44 -26.5 58s-42.167 21 -73.5 21c-14.667 0 -27.667 -2 -39 -6l-13 29
l132 140h-183v44h238v-43l-116 -125c38.667 -1.33301 69.834 -13 93.501 -35s35.5 -50 35.5 -84c0 -39.333 -13.833 -71 -41.5 -95s-64.5 -36 -110.5 -36zM57.999 336l0.000976562 45c41.333 36 80.666 72.667 117.999 110c30.667 30 52.334 56 65.001 78s19 44.333 19 67
c0 22 -7.5 39.667 -22.5 53s-34.833 20 -59.5 20c-40.667 0 -77 -17 -109 -51l-12 43c14 16 32.5 28.833 55.5 38.5s46.167 14.5 69.5 14.5c37.333 0 67.833 -10.5 91.5 -31.5s35.5 -48.5 35.5 -82.5c0 -28.667 -7.83301 -57 -23.5 -85s-41.834 -59.667 -78.501 -95
c-12 -12 -41 -38.333 -87 -79h204v-45h-266z" />
    <glyph glyph-name="uni2155" unicode="&#x2155;" horiz-adv-x="931" 
d="M709 744h63l-578 -744h-63zM726 -10c-20.667 0 -41.335 2.66895 -62.002 8.00195s-37 12.333 -49 21l5 44c32.667 -20 68.334 -30 107.001 -30c32.667 0 57.834 8.16699 75.501 24.5s26.5 39.166 26.5 68.499c0 26.667 -9.5 47.5 -28.5 62.5s-45.5 22.5 -79.5 22.5
s-63 -4.66699 -87 -14l7 211h212v-46h-170l-3 -114c16.667 3.33301 32 5 46 5c46 0 82.833 -11.333 110.5 -34s41.5 -53.334 41.5 -92.001c0 -42 -13.667 -75.333 -41 -100s-64.333 -37 -111 -37zM202.999 692.002l-124 -57l-8 45l138 64h43v-408h-49v356z" />
    <glyph glyph-name="uni2156" unicode="&#x2156;" horiz-adv-x="931" 
d="M735 744h63l-578 -744h-63zM726 -10c-20.667 0 -41.335 2.66895 -62.002 8.00195s-37 12.333 -49 21l5 44c32.667 -20 68.334 -30 107.001 -30c32.667 0 57.834 8.16699 75.501 24.5s26.5 39.166 26.5 68.499c0 26.667 -9.5 47.5 -28.5 62.5s-45.5 22.5 -79.5 22.5
s-63 -4.66699 -87 -14l7 211h212v-46h-170l-3 -114c16.667 3.33301 32 5 46 5c46 0 82.833 -11.333 110.5 -34s41.5 -53.334 41.5 -92.001c0 -42 -13.667 -75.333 -41 -100s-64.333 -37 -111 -37zM57.999 336.002l0.000976562 45c41.333 36 80.666 72.667 117.999 110
c30.667 30 52.334 56 65.001 78s19 44.333 19 67c0 22 -7.5 39.667 -22.5 53s-34.833 20 -59.5 20c-40.667 0 -77 -17 -109 -51l-12 43c14 16 32.5 28.833 55.5 38.5s46.167 14.5 69.5 14.5c37.333 0 67.833 -10.5 91.5 -31.5s35.5 -48.5 35.5 -82.5
c0 -28.667 -7.83301 -57 -23.5 -85s-41.834 -59.667 -78.501 -95c-12 -12 -41 -38.333 -87 -79h204v-45h-266z" />
    <glyph glyph-name="uni2157" unicode="&#x2157;" horiz-adv-x="931" 
d="M708 744h63l-578 -744h-63zM726 -10c-20.667 0 -41.335 2.66895 -62.002 8.00195s-37 12.333 -49 21l5 44c32.667 -20 68.334 -30 107.001 -30c32.667 0 57.834 8.16699 75.501 24.5s26.5 39.166 26.5 68.499c0 26.667 -9.5 47.5 -28.5 62.5s-45.5 22.5 -79.5 22.5
s-63 -4.66699 -87 -14l7 211h212v-46h-170l-3 -114c16.667 3.33301 32 5 46 5c46 0 82.833 -11.333 110.5 -34s41.5 -53.334 41.5 -92.001c0 -42 -13.667 -75.333 -41 -100s-64.333 -37 -111 -37zM162.999 326.002c-20 0 -40.001 2.5 -60.001 7.5s-36.333 11.833 -49 20.5
l5 44c31.333 -20 66 -30 104 -30c32.667 0 58.167 8 76.5 24s27.5 38 27.5 66c0 24.667 -8.83301 44 -26.5 58s-42.167 21 -73.5 21c-14.667 0 -27.667 -2 -39 -6l-13 29l132 140h-183v44h238v-43l-116 -125c38.667 -1.33301 69.834 -13 93.501 -35s35.5 -50 35.5 -84
c0 -39.333 -13.833 -71 -41.5 -95s-64.5 -36 -110.5 -36z" />
    <glyph glyph-name="uni2158" unicode="&#x2158;" horiz-adv-x="931" 
d="M723 744h63l-578 -744h-63zM726 -10c-20.667 0 -41.335 2.66895 -62.002 8.00195s-37 12.333 -49 21l5 44c32.667 -20 68.334 -30 107.001 -30c32.667 0 57.834 8.16699 75.501 24.5s26.5 39.166 26.5 68.499c0 26.667 -9.5 47.5 -28.5 62.5s-45.5 22.5 -79.5 22.5
s-63 -4.66699 -87 -14l7 211h212v-46h-170l-3 -114c16.667 3.33301 32 5 46 5c46 0 82.833 -11.333 110.5 -34s41.5 -53.334 41.5 -92.001c0 -42 -13.667 -75.333 -41 -100s-64.333 -37 -111 -37zM237.999 440.002h-202v41l197 263h50v-263h56v-41h-56v-104h-45v104z
M237.999 481.002v203l-153 -203h153z" />
    <glyph glyph-name="uni2159" unicode="&#x2159;" horiz-adv-x="931" 
d="M734 744h63l-578 -744h-63zM738 -10c-40.667 0 -73.999 13.168 -99.999 39.501s-39 59.833 -39 100.5c0 46.667 15 95.667 45 147s69.333 95.666 118 132.999l60 -3c-35.333 -25.333 -67.333 -54.833 -96 -88.5s-50.334 -67.167 -65.001 -100.5
c23.333 24.667 53.333 37 90 37c38 0 69.5 -12.167 94.5 -36.5s37.5 -54.833 37.5 -91.5c0 -40.667 -13.5 -73.667 -40.5 -99s-61.833 -38 -104.5 -38zM741.001 32.001c28 0 50.999 8.49902 68.999 25.499s27 38.5 27 64.5c0 28 -8.66699 50.333 -26 67
s-40.666 25 -69.999 25c-28 0 -51.167 -8.5 -69.5 -25.5s-27.5 -38.167 -27.5 -63.5c0 -27.333 9 -49.666 27 -66.999s41.333 -26 70 -26zM203 692l-124 -57l-8 45l138 64h43v-408h-49v356z" />
    <glyph glyph-name="uni215A" unicode="&#x215a;" horiz-adv-x="931" 
d="M743 744h63l-578 -744h-63zM738 -10c-40.667 0 -73.999 13.168 -99.999 39.501s-39 59.833 -39 100.5c0 46.667 15 95.667 45 147s69.333 95.666 118 132.999l60 -3c-35.333 -25.333 -67.333 -54.833 -96 -88.5s-50.334 -67.167 -65.001 -100.5
c23.333 24.667 53.333 37 90 37c38 0 69.5 -12.167 94.5 -36.5s37.5 -54.833 37.5 -91.5c0 -40.667 -13.5 -73.667 -40.5 -99s-61.833 -38 -104.5 -38zM741.001 32.001c28 0 50.999 8.49902 68.999 25.499s27 38.5 27 64.5c0 28 -8.66699 50.333 -26 67
s-40.666 25 -69.999 25c-28 0 -51.167 -8.5 -69.5 -25.5s-27.5 -38.167 -27.5 -63.5c0 -27.333 9 -49.666 27 -66.999s41.333 -26 70 -26zM175 326c-20.667 0 -41.335 2.66895 -62.002 8.00195s-37 12.333 -49 21l5 44c32.667 -20 68.334 -30 107.001 -30
c32.667 0 57.834 8.16699 75.501 24.5s26.5 39.166 26.5 68.499c0 26.667 -9.5 47.5 -28.5 62.5s-45.5 22.5 -79.5 22.5s-63 -4.66699 -87 -14l7 211h212v-46h-170l-3 -114c16.667 3.33301 32 5 46 5c46 0 82.833 -11.333 110.5 -34s41.5 -53.334 41.5 -92.001
c0 -42 -13.667 -75.333 -41 -100s-64.333 -37 -111 -37z" />
    <glyph glyph-name="oneeighth" unicode="&#x215b;" horiz-adv-x="931" 
d="M707 744h63l-578 -744h-63zM743 -10c-42.667 0 -77.5 11.168 -104.5 33.501s-40.5 51.166 -40.5 86.499c0 23.333 7.5 44.666 22.5 63.999s35.167 33.333 60.5 42c-22.667 8.66699 -40 21.167 -52 37.5s-18 35.5 -18 57.5c0 31.333 12.333 57 37 77s56.334 30 95.001 30
c37.333 0 68.166 -10 92.499 -30s36.5 -45.667 36.5 -77c0 -22 -6 -41.167 -18 -57.5s-28.667 -28.833 -50 -37.5c24.667 -8.66699 44.167 -22.5 58.5 -41.5s21.5 -40.5 21.5 -64.5c0 -35.333 -13 -64.166 -39 -86.499s-60 -33.5 -102 -33.5zM743 31.001
c28 0 50.498 7.33301 67.498 22s25.5 34 25.5 58c0 24.667 -8.66699 44.834 -26 60.501s-39.666 23.5 -66.999 23.5c-28 0 -51 -7.83301 -69 -23.5s-27 -35.834 -27 -60.501c0 -24 8.83301 -43.333 26.5 -58s40.834 -22 69.501 -22zM742.998 235.001
c24.667 0 44.5 6.83301 59.5 20.5s22.5 31.167 22.5 52.5s-7.5 38.5 -22.5 51.5s-34.833 19.5 -59.5 19.5c-25.333 0 -45.833 -6.5 -61.5 -19.5s-23.5 -30.167 -23.5 -51.5s7.83301 -38.833 23.5 -52.5s36.167 -20.5 61.5 -20.5zM202.998 692.001l-124 -57l-8 45l138 64h43
v-408h-49v356z" />
    <glyph glyph-name="threeeighths" unicode="&#x215c;" horiz-adv-x="931" 
d="M707 744h63l-578 -744h-63zM743 -10c-42.667 0 -77.5 11.168 -104.5 33.501s-40.5 51.166 -40.5 86.499c0 23.333 7.5 44.666 22.5 63.999s35.167 33.333 60.5 42c-22.667 8.66699 -40 21.167 -52 37.5s-18 35.5 -18 57.5c0 31.333 12.333 57 37 77s56.334 30 95.001 30
c37.333 0 68.166 -10 92.499 -30s36.5 -45.667 36.5 -77c0 -22 -6 -41.167 -18 -57.5s-28.667 -28.833 -50 -37.5c24.667 -8.66699 44.167 -22.5 58.5 -41.5s21.5 -40.5 21.5 -64.5c0 -35.333 -13 -64.166 -39 -86.499s-60 -33.5 -102 -33.5zM743 31.001
c28 0 50.498 7.33301 67.498 22s25.5 34 25.5 58c0 24.667 -8.66699 44.834 -26 60.501s-39.666 23.5 -66.999 23.5c-28 0 -51 -7.83301 -69 -23.5s-27 -35.834 -27 -60.501c0 -24 8.83301 -43.333 26.5 -58s40.834 -22 69.501 -22zM742.998 235.001
c24.667 0 44.5 6.83301 59.5 20.5s22.5 31.167 22.5 52.5s-7.5 38.5 -22.5 51.5s-34.833 19.5 -59.5 19.5c-25.333 0 -45.833 -6.5 -61.5 -19.5s-23.5 -30.167 -23.5 -51.5s7.83301 -38.833 23.5 -52.5s36.167 -20.5 61.5 -20.5zM162.998 326.001
c-20 0 -40.001 2.5 -60.001 7.5s-36.333 11.833 -49 20.5l5 44c31.333 -20 66 -30 104 -30c32.667 0 58.167 8 76.5 24s27.5 38 27.5 66c0 24.667 -8.83301 44 -26.5 58s-42.167 21 -73.5 21c-14.667 0 -27.667 -2 -39 -6l-13 29l132 140h-183v44h238v-43l-116 -125
c38.667 -1.33301 69.834 -13 93.501 -35s35.5 -50 35.5 -84c0 -39.333 -13.833 -71 -41.5 -95s-64.5 -36 -110.5 -36z" />
    <glyph glyph-name="fiveeighths" unicode="&#x215d;" horiz-adv-x="931" 
d="M717 744h63l-578 -744h-63zM743 -10c-42.667 0 -77.5 11.168 -104.5 33.501s-40.5 51.166 -40.5 86.499c0 23.333 7.5 44.666 22.5 63.999s35.167 33.333 60.5 42c-22.667 8.66699 -40 21.167 -52 37.5s-18 35.5 -18 57.5c0 31.333 12.333 57 37 77s56.334 30 95.001 30
c37.333 0 68.166 -10 92.499 -30s36.5 -45.667 36.5 -77c0 -22 -6 -41.167 -18 -57.5s-28.667 -28.833 -50 -37.5c24.667 -8.66699 44.167 -22.5 58.5 -41.5s21.5 -40.5 21.5 -64.5c0 -35.333 -13 -64.166 -39 -86.499s-60 -33.5 -102 -33.5zM743 31.001
c28 0 50.498 7.33301 67.498 22s25.5 34 25.5 58c0 24.667 -8.66699 44.834 -26 60.501s-39.666 23.5 -66.999 23.5c-28 0 -51 -7.83301 -69 -23.5s-27 -35.834 -27 -60.501c0 -24 8.83301 -43.333 26.5 -58s40.834 -22 69.501 -22zM742.998 235.001
c24.667 0 44.5 6.83301 59.5 20.5s22.5 31.167 22.5 52.5s-7.5 38.5 -22.5 51.5s-34.833 19.5 -59.5 19.5c-25.333 0 -45.833 -6.5 -61.5 -19.5s-23.5 -30.167 -23.5 -51.5s7.83301 -38.833 23.5 -52.5s36.167 -20.5 61.5 -20.5zM174.998 326.001
c-20.667 0 -41.335 2.66895 -62.002 8.00195s-37 12.333 -49 21l5 44c32.667 -20 68.334 -30 107.001 -30c32.667 0 57.834 8.16699 75.501 24.5s26.5 39.166 26.5 68.499c0 26.667 -9.5 47.5 -28.5 62.5s-45.5 22.5 -79.5 22.5s-63 -4.66699 -87 -14l7 211h212v-46h-170
l-3 -114c16.667 3.33301 32 5 46 5c46 0 82.833 -11.333 110.5 -34s41.5 -53.334 41.5 -92.001c0 -42 -13.667 -75.333 -41 -100s-64.333 -37 -111 -37z" />
    <glyph glyph-name="seveneighths" unicode="&#x215e;" horiz-adv-x="931" 
d="M668 744h63l-578 -744h-63zM743 -10c-42.667 0 -77.5 11.168 -104.5 33.501s-40.5 51.166 -40.5 86.499c0 23.333 7.5 44.666 22.5 63.999s35.167 33.333 60.5 42c-22.667 8.66699 -40 21.167 -52 37.5s-18 35.5 -18 57.5c0 31.333 12.333 57 37 77s56.334 30 95.001 30
c37.333 0 68.166 -10 92.499 -30s36.5 -45.667 36.5 -77c0 -22 -6 -41.167 -18 -57.5s-28.667 -28.833 -50 -37.5c24.667 -8.66699 44.167 -22.5 58.5 -41.5s21.5 -40.5 21.5 -64.5c0 -35.333 -13 -64.166 -39 -86.499s-60 -33.5 -102 -33.5zM743 31.001
c28 0 50.498 7.33301 67.498 22s25.5 34 25.5 58c0 24.667 -8.66699 44.834 -26 60.501s-39.666 23.5 -66.999 23.5c-28 0 -51 -7.83301 -69 -23.5s-27 -35.834 -27 -60.501c0 -24 8.83301 -43.333 26.5 -58s40.834 -22 69.501 -22zM742.998 235.001
c24.667 0 44.5 6.83301 59.5 20.5s22.5 31.167 22.5 52.5s-7.5 38.5 -22.5 51.5s-34.833 19.5 -59.5 19.5c-25.333 0 -45.833 -6.5 -61.5 -19.5s-23.5 -30.167 -23.5 -51.5s7.83301 -38.833 23.5 -52.5s36.167 -20.5 61.5 -20.5zM97.998 337.001l171 360h-213v47h265v-44
l-170 -366z" />
    <glyph glyph-name="partialdiff" unicode="&#x2202;" horiz-adv-x="605" 
d="M248 -16c-40.667 0 -77.1699 8.8291 -109.503 26.4961s-57.666 42.834 -75.999 75.501s-27.5 70.334 -27.5 113.001c0 44 10.5 85 31.5 123s50.5 68.833 88.5 92.5s80.667 35.5 128 35.5s88 -11.5 122 -34.5s58 -55.167 72 -96.5c3.33301 38 5 71 5 99
c0 94 -17.667 165.833 -53 215.5s-86.333 74.5 -153 74.5c-27.333 0 -54.166 -5.66699 -80.499 -17s-50.166 -27.666 -71.499 -48.999l-8 53c21.333 20.667 46.666 36.667 75.999 48s59.333 17 90 17c80.667 0 143.334 -29.5 188.001 -88.5s67 -141.5 67 -247.5
c0 -87.333 -11.5 -164.166 -34.5 -230.499s-56.167 -117.833 -99.5 -154.5s-95 -55 -155 -55zM251.997 34.9961c32.667 0 63.833 8.99902 93.5 26.999s54.167 42.833 73.5 74.5s29 65.834 29 102.501c0 48 -15 86.667 -45 116s-69.333 44 -118 44
c-34 0 -65.5 -8.33301 -94.5 -25s-52.333 -40.167 -70 -70.5s-26.5 -64.5 -26.5 -102.5c0 -50 14.5 -90.167 43.5 -120.5s67.167 -45.5 114.5 -45.5z" />
    <glyph glyph-name="Delta" unicode="&#x2206;" horiz-adv-x="751" 
d="M341 760h68l312 -760h-691zM633 51l-259 649l-261 -649h520z" />
    <glyph glyph-name="product" unicode="&#x220f;" horiz-adv-x="731" 
d="M122 760h487v-840h-62v786h-363v-786h-62v840z" />
    <glyph glyph-name="summation" unicode="&#x2211;" horiz-adv-x="565" 
d="M41 -28l261 377l-244 359v52h452v-53h-381l241 -354l-263 -379h409v-53h-475v51z" />
    <glyph glyph-name="minus" unicode="&#x2212;" horiz-adv-x="620" 
d="M88 362h444v-53h-444v53z" />
    <glyph glyph-name="uni2215" unicode="&#x2215;" horiz-adv-x="165" 
d="M340 744h63l-578 -744h-63z" />
    <glyph glyph-name="uni2219" unicode="&#x2219;" horiz-adv-x="290" 
d="M145 333c-12.667 0 -23.667 4.66699 -33 14s-14 20.333 -14 33c0 13.333 4.5 24.5 13.5 33.5s20.167 13.5 33.5 13.5s24.5 -4.5 33.5 -13.5s13.5 -20.167 13.5 -33.5c0 -12.667 -4.5 -23.667 -13.5 -33s-20.167 -14 -33.5 -14z" />
    <glyph glyph-name="radical" unicode="&#x221a;" horiz-adv-x="656" 
d="M145 394h-107v52h148l153 -385l285 749h57l-313 -810h-60z" />
    <glyph glyph-name="infinity" unicode="&#x221e;" horiz-adv-x="724" 
d="M202 181c-45.333 0 -82.665 15.5 -111.998 46.5s-44 70.833 -44 119.5s14.667 88.5 44 119.5s66.666 46.5 111.999 46.5c35.333 0 66.833 -9.33301 94.5 -28s49.5 -45.667 65.5 -81c16.667 35.333 38.667 62.333 66 81s58.666 28 93.999 28
c45.333 0 82.666 -15.5 111.999 -46.5s44 -70.833 44 -119.5s-14.667 -88.5 -44 -119.5s-66.666 -46.5 -111.999 -46.5c-36 0 -67.667 9.16699 -95 27.5s-49.333 45.5 -66 81.5c-16 -35.333 -37.5 -62.333 -64.5 -81s-58.5 -28 -94.5 -28zM518.001 231
c32 0 57.8359 10.668 77.5029 32.001s29.5 49.333 29.5 84s-9.83301 62.667 -29.5 84s-45.5 32 -77.5 32c-28.667 0 -54.334 -10 -77.001 -30s-40.667 -48.333 -54 -85c13.333 -38.667 31.166 -67.834 53.499 -87.501s48.166 -29.5 77.499 -29.5zM206.004 231.001
c28.667 0 54.501 10.167 77.501 30.5s40.833 48.5 53.5 84.5c-12.667 38 -30.334 67 -53.001 87s-48.667 30 -78 30c-32 0 -57.833 -10.667 -77.5 -32s-29.5 -49.333 -29.5 -84s9.83301 -62.667 29.5 -84s45.5 -32 77.5 -32z" />
    <glyph glyph-name="integral" unicode="&#x222b;" horiz-adv-x="374" 
d="M55 -254c-15.333 0 -31.333 1.66797 -48 5.00098s-30.667 8 -42 14l7 51c12 -4.66699 25.833 -8.66699 41.5 -12s29.834 -5 42.501 -5c32 0 55.333 11 70 33s22 57 22 105c0 20 -0.333008 33.667 -1 41l-41 614c-0.666992 8 -1 21.667 -1 41
c0 62 12.833 108.833 38.5 140.5s63.167 47.5 112.5 47.5c15.333 0 31.333 -1.66699 48 -5s30.667 -8 42 -14l-7 -51c-12 4.66699 -25.833 8.66699 -41.5 12s-29.834 5 -42.501 5c-32 0 -55.333 -11 -70 -33s-22 -57 -22 -105c0 -19.333 0.333008 -33 1 -41l41 -614
c0.666992 -6.66699 1 -20.334 1 -41.001c0 -62 -12.833 -108.833 -38.5 -140.5s-63.167 -47.5 -112.5 -47.5z" />
    <glyph glyph-name="approxequal" unicode="&#x2248;" horiz-adv-x="620" 
d="M424 139c-19.333 0 -38.667 4.66504 -58 13.998s-41.666 25 -66.999 47c-26.667 22.667 -47 37.834 -61 45.501s-28 11.5 -42 11.5c-23.333 0 -41 -9.5 -53 -28.5s-18.333 -48.833 -19 -89.5h-51v8c0.666992 51.333 11.667 91.333 33 120s50.666 43 87.999 43
c19.333 0 38.833 -4.66699 58.5 -14s42.167 -24.666 67.5 -45.999c24.667 -22 44.5 -37.167 59.5 -45.5s29.5 -12.5 43.5 -12.5c23.333 0 40.833 9.5 52.5 28.5s18.167 48.833 19.5 89.5h51v-8c-0.666992 -51.333 -11.667 -91.333 -33 -120s-51 -43 -89 -43z
M423.999 393.998c-19.333 0 -38.667 4.66504 -58 13.998s-41.666 25 -66.999 47c-26.667 22.667 -47 37.834 -61 45.501s-28 11.5 -42 11.5c-23.333 0 -41 -9.5 -53 -28.5s-18.333 -48.833 -19 -89.5h-51v8c0.666992 51.333 11.667 91.333 33 120s50.666 43 87.999 43
c19.333 0 38.833 -4.66699 58.5 -14s42.167 -24.666 67.5 -45.999c24.667 -22 44.5 -37.167 59.5 -45.5s29.5 -12.5 43.5 -12.5c23.333 0 40.833 9.5 52.5 28.5s18.167 48.833 19.5 89.5h51v-8c-0.666992 -51.333 -11.667 -91.333 -33 -120s-51 -43 -89 -43z" />
    <glyph glyph-name="notequal" unicode="&#x2260;" horiz-adv-x="620" 
d="M209 194h-104v53h132l96 176h-228v53h255l70 128h54l-70 -128h102v-53h-129l-96 -176h225v-53h-253l-70 -130h-54z" />
    <glyph glyph-name="lessequal" unicode="&#x2264;" horiz-adv-x="620" 
d="M88 54h444v-53h-444v53zM104 360v56l412 194v-58l-347 -162l347 -163v-60z" />
    <glyph glyph-name="greaterequal" unicode="&#x2265;" horiz-adv-x="620" 
d="M88 54h444v-53h-444v53zM104 225l347 162l-347 163v60l412 -193v-56l-412 -194v58z" />
    <glyph glyph-name="lozenge" unicode="&#x25ca;" horiz-adv-x="606" 
d="M45 405l231 406h56l229 -406l-229 -405h-56zM501 405l-199 348l-194 -348l194 -346z" />
    <glyph glyph-name="uniF507" unicode="&#xf507;" horiz-adv-x="931" 
d="M722 744h63l-578 -744h-63zM649 1l171 360h-213v47h265v-44l-170 -366zM58 336l0.000976562 45c41.333 36 80.666 72.667 117.999 110c30.667 30 52.334 56 65.001 78s19 44.333 19 67c0 22 -7.5 39.667 -22.5 53s-34.833 20 -59.5 20c-40.667 0 -77 -17 -109 -51l-12 43
c14 16 32.5 28.833 55.5 38.5s46.167 14.5 69.5 14.5c37.333 0 67.833 -10.5 91.5 -31.5s35.5 -48.5 35.5 -82.5c0 -28.667 -7.83301 -57 -23.5 -85s-41.834 -59.667 -78.501 -95c-12 -12 -41 -38.333 -87 -79h204v-45h-266z" />
    <glyph glyph-name="uniF508" unicode="&#xf508;" horiz-adv-x="931" 
d="M687 744h63l-578 -744h-63zM649 1l171 360h-213v47h265v-44l-170 -366zM163 326c-20 0 -40.001 2.5 -60.001 7.5s-36.333 11.833 -49 20.5l5 44c31.333 -20 66 -30 104 -30c32.667 0 58.167 8 76.5 24s27.5 38 27.5 66c0 24.667 -8.83301 44 -26.5 58
s-42.167 21 -73.5 21c-14.667 0 -27.667 -2 -39 -6l-13 29l132 140h-183v44h238v-43l-116 -125c38.667 -1.33301 69.834 -13 93.501 -35s35.5 -50 35.5 -84c0 -39.333 -13.833 -71 -41.5 -95s-64.5 -36 -110.5 -36z" />
    <glyph glyph-name="uniF509" unicode="&#xf509;" horiz-adv-x="931" 
d="M703 744h63l-578 -744h-63zM649 1l171 360h-213v47h265v-44l-170 -366zM238 440h-202v41l197 263h50v-263h56v-41h-56v-104h-45v104zM238 481v203l-153 -203h153z" />
    <glyph glyph-name="uniF50A" unicode="&#xf50a;" horiz-adv-x="931" 
d="M698 744h63l-578 -744h-63zM649 1l171 360h-213v47h265v-44l-170 -366zM175 326c-20.667 0 -41.335 2.66895 -62.002 8.00195s-37 12.333 -49 21l5 44c32.667 -20 68.334 -30 107.001 -30c32.667 0 57.834 8.16699 75.501 24.5s26.5 39.166 26.5 68.499
c0 26.667 -9.5 47.5 -28.5 62.5s-45.5 22.5 -79.5 22.5s-63 -4.66699 -87 -14l7 211h212v-46h-170l-3 -114c16.667 3.33301 32 5 46 5c46 0 82.833 -11.333 110.5 -34s41.5 -53.334 41.5 -92.001c0 -42 -13.667 -75.333 -41 -100s-64.333 -37 -111 -37z" />
    <glyph glyph-name="uniF50B" unicode="&#xf50b;" horiz-adv-x="931" 
d="M694 744h63l-578 -744h-63zM649 1l171 360h-213v47h265v-44l-170 -366zM187 326c-40.667 0 -73.999 13.168 -99.999 39.501s-39 59.833 -39 100.5c0 46.667 15 95.667 45 147s69.333 95.666 118 132.999l60 -3c-35.333 -25.333 -67.333 -54.833 -96 -88.5
s-50.334 -67.167 -65.001 -100.5c23.333 24.667 53.333 37 90 37c38 0 69.5 -12.167 94.5 -36.5s37.5 -54.833 37.5 -91.5c0 -40.667 -13.5 -73.667 -40.5 -99s-61.833 -38 -104.5 -38zM190.001 368.001c28 0 50.999 8.49902 68.999 25.499s27 38.5 27 64.5
c0 28 -8.66699 50.333 -26 67s-40.666 25 -69.999 25c-28 0 -51.167 -8.5 -69.5 -25.5s-27.5 -38.167 -27.5 -63.5c0 -27.333 9 -49.666 27 -66.999s41.333 -26 70 -26z" />
    <glyph glyph-name="uniF50D" unicode="&#xf50d;" horiz-adv-x="931" 
d="M733 744h63l-578 -744h-63zM660 1c34.667 24.667 66.665 53.998 95.998 87.998s51 67.333 65 100c-11.333 -11.333 -24.666 -20.166 -39.999 -26.499s-31.666 -9.5 -48.999 -9.5c-38 0 -69.667 12.167 -95 36.5s-38 54.833 -38 91.5c0 40 13.5 72.833 40.5 98.5
s61.833 38.5 104.5 38.5c40.667 0 74 -13.167 100 -39.5s39 -59.833 39 -100.5c0 -47.333 -15 -96.666 -45 -147.999s-69.333 -95.333 -118 -132zM741.998 193.998c28 0 51.001 8.50098 69.001 25.501s27 38.167 27 63.5c0 27.333 -9 49.666 -27 66.999s-41 26 -69 26
s-51 -8.5 -69 -25.5s-27 -38.5 -27 -64.5c0 -28 8.66699 -50.333 26 -67s40.666 -25 69.999 -25zM57.999 335.999l0.000976562 45c41.333 36 80.666 72.667 117.999 110c30.667 30 52.334 56 65.001 78s19 44.333 19 67c0 22 -7.5 39.667 -22.5 53s-34.833 20 -59.5 20
c-40.667 0 -77 -17 -109 -51l-12 43c14 16 32.5 28.833 55.5 38.5s46.167 14.5 69.5 14.5c37.333 0 67.833 -10.5 91.5 -31.5s35.5 -48.5 35.5 -82.5c0 -28.667 -7.83301 -57 -23.5 -85s-41.834 -59.667 -78.501 -95c-12 -12 -41 -38.333 -87 -79h204v-45h-266z" />
    <glyph glyph-name="uniF50E" unicode="&#xf50e;" horiz-adv-x="931" 
d="M724 744h63l-578 -744h-63zM660 1c34.667 24.667 66.665 53.998 95.998 87.998s51 67.333 65 100c-11.333 -11.333 -24.666 -20.166 -39.999 -26.499s-31.666 -9.5 -48.999 -9.5c-38 0 -69.667 12.167 -95 36.5s-38 54.833 -38 91.5c0 40 13.5 72.833 40.5 98.5
s61.833 38.5 104.5 38.5c40.667 0 74 -13.167 100 -39.5s39 -59.833 39 -100.5c0 -47.333 -15 -96.666 -45 -147.999s-69.333 -95.333 -118 -132zM741.998 193.998c28 0 51.001 8.50098 69.001 25.501s27 38.167 27 63.5c0 27.333 -9 49.666 -27 66.999s-41 26 -69 26
s-51 -8.5 -69 -25.5s-27 -38.5 -27 -64.5c0 -28 8.66699 -50.333 26 -67s40.666 -25 69.999 -25zM237.999 439.999h-202v41l197 263h50v-263h56v-41h-56v-104h-45v104zM237.999 480.999v203l-153 -203h153z" />
    <glyph glyph-name="uniF50F" unicode="&#xf50f;" horiz-adv-x="931" 
d="M717 744h63l-578 -744h-63zM660 1c34.667 24.667 66.665 53.998 95.998 87.998s51 67.333 65 100c-11.333 -11.333 -24.666 -20.166 -39.999 -26.499s-31.666 -9.5 -48.999 -9.5c-38 0 -69.667 12.167 -95 36.5s-38 54.833 -38 91.5c0 40 13.5 72.833 40.5 98.5
s61.833 38.5 104.5 38.5c40.667 0 74 -13.167 100 -39.5s39 -59.833 39 -100.5c0 -47.333 -15 -96.666 -45 -147.999s-69.333 -95.333 -118 -132zM741.998 193.998c28 0 51.001 8.50098 69.001 25.501s27 38.167 27 63.5c0 27.333 -9 49.666 -27 66.999s-41 26 -69 26
s-51 -8.5 -69 -25.5s-27 -38.5 -27 -64.5c0 -28 8.66699 -50.333 26 -67s40.666 -25 69.999 -25zM174.999 325.999c-20.667 0 -41.335 2.66895 -62.002 8.00195s-37 12.333 -49 21l5 44c32.667 -20 68.334 -30 107.001 -30c32.667 0 57.834 8.16699 75.501 24.5
s26.5 39.166 26.5 68.499c0 26.667 -9.5 47.5 -28.5 62.5s-45.5 22.5 -79.5 22.5s-63 -4.66699 -87 -14l7 211h212v-46h-170l-3 -114c16.667 3.33301 32 5 46 5c46 0 82.833 -11.333 110.5 -34s41.5 -53.334 41.5 -92.001c0 -42 -13.667 -75.333 -41 -100
s-64.333 -37 -111 -37z" />
    <glyph glyph-name="uniF510" unicode="&#xf510;" horiz-adv-x="931" 
d="M672 744h63l-578 -744h-63zM660 1c34.667 24.667 66.665 53.998 95.998 87.998s51 67.333 65 100c-11.333 -11.333 -24.666 -20.166 -39.999 -26.499s-31.666 -9.5 -48.999 -9.5c-38 0 -69.667 12.167 -95 36.5s-38 54.833 -38 91.5c0 40 13.5 72.833 40.5 98.5
s61.833 38.5 104.5 38.5c40.667 0 74 -13.167 100 -39.5s39 -59.833 39 -100.5c0 -47.333 -15 -96.666 -45 -147.999s-69.333 -95.333 -118 -132zM741.998 193.998c28 0 51.001 8.50098 69.001 25.501s27 38.167 27 63.5c0 27.333 -9 49.666 -27 66.999s-41 26 -69 26
s-51 -8.5 -69 -25.5s-27 -38.5 -27 -64.5c0 -28 8.66699 -50.333 26 -67s40.666 -25 69.999 -25zM97.999 336.999l171 360h-213v47h265v-44l-170 -366z" />
    <glyph glyph-name="uniF511" unicode="&#xf511;" horiz-adv-x="931" 
d="M717 744h63l-578 -744h-63zM660 1c34.667 24.667 66.665 53.998 95.998 87.998s51 67.333 65 100c-11.333 -11.333 -24.666 -20.166 -39.999 -26.499s-31.666 -9.5 -48.999 -9.5c-38 0 -69.667 12.167 -95 36.5s-38 54.833 -38 91.5c0 40 13.5 72.833 40.5 98.5
s61.833 38.5 104.5 38.5c40.667 0 74 -13.167 100 -39.5s39 -59.833 39 -100.5c0 -47.333 -15 -96.666 -45 -147.999s-69.333 -95.333 -118 -132zM741.998 193.998c28 0 51.001 8.50098 69.001 25.501s27 38.167 27 63.5c0 27.333 -9 49.666 -27 66.999s-41 26 -69 26
s-51 -8.5 -69 -25.5s-27 -38.5 -27 -64.5c0 -28 8.66699 -50.333 26 -67s40.666 -25 69.999 -25zM191.999 325.999c-42.667 0 -77.5 11.168 -104.5 33.501s-40.5 51.166 -40.5 86.499c0 23.333 7.5 44.666 22.5 63.999s35.167 33.333 60.5 42
c-22.667 8.66699 -40 21.167 -52 37.5s-18 35.5 -18 57.5c0 31.333 12.333 57 37 77s56.334 30 95.001 30c37.333 0 68.166 -10 92.499 -30s36.5 -45.667 36.5 -77c0 -22 -6 -41.167 -18 -57.5s-28.667 -28.833 -50 -37.5c24.667 -8.66699 44.167 -22.5 58.5 -41.5
s21.5 -40.5 21.5 -64.5c0 -35.333 -13 -64.166 -39 -86.499s-60 -33.5 -102 -33.5zM191.999 367c28 0 50.498 7.33301 67.498 22s25.5 34 25.5 58c0 24.667 -8.66699 44.834 -26 60.501s-39.666 23.5 -66.999 23.5c-28 0 -51 -7.83301 -69 -23.5s-27 -35.834 -27 -60.501
c0 -24 8.83301 -43.333 26.5 -58s40.834 -22 69.501 -22zM191.997 571c24.667 0 44.5 6.83301 59.5 20.5s22.5 31.167 22.5 52.5s-7.5 38.5 -22.5 51.5s-34.833 19.5 -59.5 19.5c-25.333 0 -45.833 -6.5 -61.5 -19.5s-23.5 -30.167 -23.5 -51.5s7.83301 -38.833 23.5 -52.5
s36.167 -20.5 61.5 -20.5z" />
    <glyph glyph-name="uniFB01" unicode="&#xfb01;" horiz-adv-x="658" 
d="M133 438h-103v51h103v93c0 76 15.333 133.833 46 173.5s75.667 59.5 135 59.5c30 0 58 -5.66699 84 -17l-7 -49c-24.667 10 -49.334 15 -74.001 15c-43.333 0 -75.166 -15.333 -95.499 -46s-30.5 -78.667 -30.5 -144v-85h156v-51h-156v-438h-58v438zM504 489h58v-489h-58
v489zM533 639c-12.667 0 -23.167 4.16699 -31.5 12.5s-12.5 18.833 -12.5 31.5s4.16699 23 12.5 31s18.833 12 31.5 12s23 -4 31 -12s12 -18.333 12 -31s-4 -23.167 -12 -31.5s-18.333 -12.5 -31 -12.5z" />
    <glyph glyph-name="uniFB02" unicode="&#xfb02;" horiz-adv-x="658" 
d="M133 438h-103v51h103v93c0 76 15.333 133.833 46 173.5s75.667 59.5 135 59.5c30 0 58 -5.66699 84 -17l-7 -49c-24.667 10 -49.334 15 -74.001 15c-43.333 0 -75.166 -15.333 -95.499 -46s-30.5 -78.667 -30.5 -144v-85h156v-51h-156v-438h-58v438zM504 810h58v-810h-58
v810z" />
    <glyph glyph-name="uniFEFF" unicode="&#xfeff;" horiz-adv-x="0" 
 />
    <glyph glyph-name=".null" horiz-adv-x="0" 
 />
    <glyph glyph-name="nonmarkingreturn" horiz-adv-x="333" 
 />
    <glyph glyph-name="zero.pnum" horiz-adv-x="599" 
d="M299 36c60 0 106.833 29.667 140.5 89s50.5 142 50.5 248c0 105.333 -16.833 187.5 -50.5 246.5s-80.5 88.5 -140.5 88.5s-106.667 -29.5 -140 -88.5s-50 -141.167 -50 -246.5c0 -106 16.833 -188.667 50.5 -248s80.167 -89 139.5 -89zM299 -16
c-50.667 0 -94.833 15.3301 -132.5 45.9971s-66.834 75.334 -87.501 134.001s-31 128.334 -31 209.001c0 78.667 9.83301 147 29.5 205s48.5 102.833 86.5 134.5s83 47.5 135 47.5c37.333 0 71.5 -8.5 102.5 -25.5s57.667 -42 80 -75s39.5 -73.667 51.5 -122
s18 -103.166 18 -164.499c0 -120 -22.667 -214.833 -68 -284.5s-106.666 -104.5 -183.999 -104.5z" />
    <glyph glyph-name="one.pnum" horiz-adv-x="477" 
d="M280 680l-217 -97l-8 54l237 107h46v-744h-58v680z" />
    <glyph glyph-name="two.pnum" horiz-adv-x="584" 
d="M74 0v50c50 48.667 111 114.334 183 197.001c64.667 74.667 109.667 134.667 135 180s38 88.333 38 129c0 46.667 -13.333 83.5 -40 110.5s-63.334 40.5 -110.001 40.5c-69.333 0 -129.666 -29.667 -180.999 -89l-12 55c24 27.333 53.333 48.666 88 63.999s71 23 109 23
c62.667 0 112.5 -18 149.5 -54s55.5 -84 55.5 -144c0 -48 -12.5 -96.167 -37.5 -144.5s-67.833 -106.833 -128.5 -175.5c-67.333 -76 -125.333 -138.333 -174 -187h365v-55h-440z" />
    <glyph glyph-name="three.pnum" horiz-adv-x="584" 
d="M250 -16c-34.667 0 -68.501 4.5 -101.501 13.5s-60.833 21.167 -83.5 36.5l7 54c54 -35.333 113.667 -53 179 -53c60.667 0 108.5 16 143.5 48s52.5 75.333 52.5 130c0 52 -16.5 92.833 -49.5 122.5s-78.833 44.5 -137.5 44.5c-24 0 -46.667 -2.66699 -68 -8l-16 36
l243 283h-340v53h405v-52l-229 -266c3.33301 0.666992 10.333 1 21 1c44.667 0 84.167 -8.5 118.5 -25.5s61.333 -41.667 81 -74s29.5 -70.5 29.5 -114.5c0 -70 -23.167 -125.667 -69.5 -167s-108.166 -62 -185.499 -62z" />
    </font>
</defs>
</svg>
