<svg width="16" height="30" viewBox="0 0 16 30" fill="none" xmlns="http://www.w3.org/2000/svg">
<path fill-rule="evenodd" clip-rule="evenodd" d="M0.957253 28.5457C1.31081 28.9279 1.79208 29.1429 2.29414 29.1429C2.7962 29.1429 3.27747 28.9279 3.63102 28.5457L14.9286 16.4318C15.2851 16.0527 15.4856 15.5367 15.4856 14.9983C15.4856 14.46 15.2851 13.944 14.9286 13.5649L3.63102 1.45099C3.1534 0.938857 2.45725 0.738847 1.8048 0.9263C1.15236 1.11375 0.642741 1.66019 0.467919 2.35978C0.293097 3.05936 0.47963 3.80581 0.957253 4.31794L10.8992 15.0185L0.919594 25.7191C0.212283 26.5151 0.229023 27.7717 0.957253 28.5457Z" fill="#454545"/>
</svg>
