<svg width="16" height="30" viewBox="0 0 16 30" fill="none" xmlns="http://www.w3.org/2000/svg">
<path fill-rule="evenodd" clip-rule="evenodd" d="M15.0427 28.5457C14.6892 28.9279 14.2079 29.1429 13.7059 29.1429C13.2038 29.1429 12.7225 28.9279 12.369 28.5457L1.07135 16.4318C0.714887 16.0527 0.514381 15.5367 0.514381 14.9983C0.514381 14.46 0.714887 13.944 1.07135 13.5649L12.369 1.45099C12.8466 0.938857 13.5428 0.738847 14.1952 0.9263C14.8476 1.11375 15.3573 1.66019 15.5321 2.35978C15.7069 3.05936 15.5204 3.80581 15.0427 4.31794L5.10084 15.0185L15.0804 25.7191C15.7877 26.5151 15.771 27.7717 15.0427 28.5457Z" fill="#454545"/>
</svg>
