<svg width="13" height="22" viewBox="0 0 13 22" fill="none" xmlns="http://www.w3.org/2000/svg">
<path fill-rule="evenodd" clip-rule="evenodd" d="M0.450104 21.05C0.731754 21.334 1.11515 21.4937 1.5151 21.4937C1.91506 21.4937 2.29845 21.334 2.5801 21.05L11.5801 12.05C11.8641 11.7683 12.0238 11.3849 12.0238 10.985C12.0238 10.585 11.8641 10.2016 11.5801 9.91999L2.5801 0.919993C2.19962 0.539505 1.64504 0.390907 1.12529 0.530175C0.605531 0.669444 0.199556 1.07542 0.0602874 1.59518C-0.0789808 2.11493 0.0696166 2.6695 0.450104 3.04999L8.3701 11L0.420104 18.95C-0.14336 19.5414 -0.130023 20.4749 0.450104 21.05Z" fill="white"/>
</svg>
