<svg width="13" height="22" viewBox="0 0 13 22" fill="none" xmlns="http://www.w3.org/2000/svg">
<path fill-rule="evenodd" clip-rule="evenodd" d="M12.55 21.05C12.2684 21.334 11.885 21.4937 11.485 21.4937C11.085 21.4937 10.7017 21.334 10.42 21.05L1.42 12.05C1.13603 11.7683 0.976305 11.3849 0.976305 10.985C0.976305 10.585 1.13603 10.2016 1.42 9.91999L10.42 0.919993C10.8005 0.539505 11.3551 0.390907 11.8748 0.530175C12.3946 0.669444 12.8006 1.07542 12.9398 1.59518C13.0791 2.11493 12.9305 2.6695 12.55 3.04999L4.63 11L12.58 18.95C13.1435 19.5414 13.1301 20.4749 12.55 21.05Z" fill="white"/>
</svg>
