<svg width="24" height="22" viewBox="0 0 24 22" fill="none" xmlns="http://www.w3.org/2000/svg">
<path fill-rule="evenodd" clip-rule="evenodd" d="M22.8558 11.2096H2.51848V4.86257C2.51848 2.70427 3.72291 0.948231 5.20345 0.948231H5.33709C5.93393 0.948231 6.50239 1.31193 6.92261 1.91004C5.75262 2.25826 4.89015 3.30319 4.82732 4.55564H10.7271C10.653 3.08046 9.4687 1.89565 7.97962 1.79596C7.38581 0.68666 6.41504 0 5.33709 0H5.20345C3.19248 0 1.55653 2.18139 1.55653 4.86257V11.2096H1.03519C0.685518 11.2096 0.402252 11.4888 0.402252 11.8335C0.402252 12.1746 0.680558 12.4511 1.02527 12.4563H1.0024V15.9056C1.0024 18.3233 2.97672 20.2842 5.42251 20.3124L4.46938 21.0827C4.1908 21.4665 4.46911 22 4.94801 22C5.13787 22 5.31615 21.9095 5.42664 21.7574L6.8675 20.3149H17.3238L18.7647 21.7574C18.8752 21.9095 19.0535 22 19.2433 22C19.7219 22 20.0002 21.4665 19.7219 21.0827L18.7479 20.2836C20.976 20.0321 22.7075 18.169 22.7075 15.9054V12.4574H22.8558C23.2055 12.4574 23.4887 12.1782 23.4887 11.8335C23.4887 11.4888 23.2052 11.2096 22.8558 11.2096Z" fill="#404040"/>
</svg>
