<svg width="11" height="13" viewBox="0 0 11 13" fill="none" xmlns="http://www.w3.org/2000/svg">
<path fill-rule="evenodd" clip-rule="evenodd" d="M2.45453 4.53045C2.66319 3.95589 3.49783 3.95589 4.04035 3.54549C4.20728 3.42237 4.37421 3.25821 4.37421 3.01198C4.29074 2.19118 3.99862 0.836867 3.70649 0.30335C3.62303 0.13919 3.49783 0.016071 3.24744 0.016071C2.49626 -0.107048 1.16083 0.508549 0.952174 0.795827C-2.34466 4.73565 3.5813 14.0517 8.63088 12.9026C8.96474 12.8205 10.1332 11.8766 10.3836 11.1789C10.4254 10.9737 10.3836 10.7685 10.3002 10.6454C9.92458 10.1529 8.79781 9.29106 8.08836 8.88067C7.8797 8.75755 7.67104 8.83963 7.46238 8.92171C6.8364 9.25003 6.50254 9.98874 5.87656 9.90666C4.70806 9.7425 2.07894 5.63852 2.45453 4.53045Z" fill="#DEDEDE"/>
</svg>
