<?xml version="1.0" encoding="utf-8"?>
<!-- Generator: Adobe Illustrator 21.1.0, SVG Export Plug-In . SVG Version: 6.00 Build 0)  -->
<svg version="1.1" id="Layer_1" xmlns="http://www.w3.org/2000/svg" xmlns:xlink="http://www.w3.org/1999/xlink" x="0px" y="0px"
	 viewBox="0 0 11 13" style="enable-background:new 0 0 11 13;" xml:space="preserve">
<style type="text/css">
	.st0{fill:#313131;}
</style>
<path class="st0" d="M2.5,4.5C2.7,4,3.5,4,4,3.5C4.2,3.4,4.4,3.3,4.4,3C4.3,2.2,4,0.8,3.7,0.3C3.6,0.1,3.5,0,3.2,0
	C2.5-0.1,1.2,0.5,1,0.8c-3.3,3.9,2.6,13.3,7.7,12.1c0.3-0.1,1.5-1,1.8-1.7c0-0.2,0-0.4-0.1-0.5c-0.4-0.5-1.5-1.4-2.2-1.8
	c-0.2-0.1-0.4,0-0.6,0c-0.6,0.3-1,1.1-1.6,1C4.7,9.7,2.1,5.6,2.5,4.5z"/>
</svg>
