<?xml version="1.0" encoding="utf-8"?>
<!-- Generator: Adobe Illustrator 22.0.1, SVG Export Plug-In . SVG Version: 6.00 Build 0)  -->
<svg version="1.1" id="Layer_1" xmlns="http://www.w3.org/2000/svg" xmlns:xlink="http://www.w3.org/1999/xlink" x="0px" y="0px"
	 viewBox="0 0 512 512" style="enable-background:new 0 0 512 512;" xml:space="preserve">
<style type="text/css">
	.st0{fill:#d9d9d9;}
</style>
<path class="st0" d="M458,27.7H51.4c-13.9,0-25.2,11.3-25.2,25.2v406.7c0,13.9,11.3,25.2,25.2,25.2h218.9v-177h-59.6v-69h59.6v-50.9
	c0-59,36.1-91.2,88.7-91.2c25.2,0,46.9,1.9,53.2,2.7v61.7l-36.5,0c-28.6,0-34.2,13.6-34.2,33.6v44h68.3l-8.9,69h-59.4v177H458
	c13.9,0,25.2-11.3,25.2-25.2V52.9C483.3,39,472,27.7,458,27.7z"/>
</svg>
