<svg width="20" height="17" viewBox="0 0 20 17" fill="none" xmlns="http://www.w3.org/2000/svg">
<g id="noun_1052529">
<path id="Path" fill-rule="evenodd" clip-rule="evenodd" d="M5.67581 0.19194C4.25001 0.19194 2.8242 0.740327 1.75485 1.80968C-0.411283 3.97581 -0.411283 7.51291 1.75485 9.67904L9.15807 16.6436C9.29517 16.7532 9.45968 16.8355 9.6242 16.8355C9.78872 16.8355 9.95323 16.7806 10.0903 16.6436L17.4936 9.67904C18.5629 8.60968 19.1113 7.18388 19.1113 5.75807C19.1113 4.33226 18.5629 2.90646 17.4936 1.8371C16.5339 0.877424 15.3 0.438715 14.0113 0.438715C12.4484 0.438715 10.8581 1.09678 9.67904 2.24839L9.65162 2.27581C9.65162 2.27581 9.6242 2.27581 9.6242 2.24839C8.47259 1.20646 7.0742 0.19194 5.67581 0.19194Z" fill="#C91E11"/>
</g>
</svg>
