<svg xmlns="http://www.w3.org/2000/svg" xmlns:xlink="http://www.w3.org/1999/xlink" version="1.1" x="0px" y="0px" viewBox="0 0 100 100" style="enable-background:new 0 0 100 100;" xml:space="preserve"><path fill="#3D3D3D" d="M35.7,19.7c-5.2,0-10.4,2-14.3,5.9c-7.9,7.9-7.9,20.8,0,28.7l27,25.4c0.5,0.4,1.1,0.7,1.7,0.7  c0.6,0,1.2-0.2,1.7-0.7l27-25.4c3.9-3.9,5.9-9.1,5.9-14.3c0-5.2-2-10.4-5.9-14.3c-3.5-3.5-8-5.1-12.7-5.1c-5.7,0-11.5,2.4-15.8,6.6  c0,0-0.1,0.1-0.1,0.1c0,0-0.1,0-0.1-0.1C45.9,23.4,40.8,19.7,35.7,19.7L35.7,19.7z"></path></svg>