<svg width="26" height="22" viewBox="0 0 26 22" fill="none" xmlns="http://www.w3.org/2000/svg">
<path fill-rule="evenodd" clip-rule="evenodd" d="M25.4807 8.67504L13.5436 0.117722C13.3228 -0.0392407 13.023 -0.0392407 12.8022 0.117722L0.865168 8.67504C0.610282 8.8817 0.564512 9.24556 0.760652 9.50592C0.956792 9.76628 1.32722 9.83337 1.60652 9.65913L3.12065 8.55279V21.3888C3.12065 21.7263 3.40193 22 3.74891 22H22.5969C22.9439 22 23.2252 21.7263 23.2252 21.3888V8.55279L24.7393 9.64079C24.8448 9.72328 24.9748 9.77044 25.11 9.77526C25.3089 9.77383 25.4953 9.68088 25.6126 9.52466C25.8152 9.25408 25.7564 8.87532 25.4807 8.67504ZM10.6599 20.7775V13.4427H15.686V20.7775H10.6599ZM16.9425 20.7775H21.9687V7.67261L13.1729 1.36465L4.37718 7.67261V20.7775H9.40332V12.8314C9.40332 12.4939 9.68461 12.2202 10.0316 12.2202H16.3143C16.6612 12.2202 16.9425 12.4939 16.9425 12.8314V20.7775Z" fill="#404040"/>
</svg>
