<?xml version="1.0" encoding="utf-8"?>
<!-- Generator: Adobe Illustrator 21.1.0, SVG Export Plug-In . SVG Version: 6.00 Build 0)  -->
<svg version="1.1" id="Layer_1" xmlns="http://www.w3.org/2000/svg" xmlns:xlink="http://www.w3.org/1999/xlink" x="0px" y="0px"
	 viewBox="0 0 512 512" style="enable-background:new 0 0 512 512;" xml:space="preserve">
<style type="text/css">
	.st0{fill:#313131;}
</style>
<path class="st0" d="M449.4,27.7H59.7c-18.6,0-33.8,14.8-33.8,33V452c0,18.2,15.1,33,33.8,33h389.7c18.7,0,33.8-14.8,33.8-33V60.6
	C483.3,42.4,468.1,27.7,449.4,27.7z M161.6,417.3H93.8V199.1h67.8V417.3z M127.7,169.3c-21.7,0-39.3-17.6-39.3-39.3
	s17.6-39.3,39.3-39.3S167,108.3,167,130S149.4,169.3,127.7,169.3z M415.6,417.3h-67.8V311.2c0-25.3-0.5-57.9-35.2-57.9
	c-35.3,0-40.7,27.6-40.7,56v108h-67.8V199.1h65.1v29.8h0.9c9.1-17.2,31.2-35.2,64.2-35.2c68.7,0,81.4,45.2,81.4,104L415.6,417.3
	L415.6,417.3z"/>
</svg>
