<svg width="27" height="16" viewBox="0 0 27 16" fill="none" xmlns="http://www.w3.org/2000/svg">
<path fill-rule="evenodd" clip-rule="evenodd" d="M10.2915 3.92061H8.70026L7.17721 10.0115H1.92148V0.919202C1.92148 0.411483 1.49106 0 0.960739 0C0.430414 0 0 0.411774 0 0.919202V16H1.92178V12.746H24.1754V16H26.0977V12.746C26.0977 12.746 26.0977 12.2284 26.0977 9.34979C26.0971 4.52806 19.0317 3.92061 10.2915 3.92061Z" fill="#404040"/>
<path fill-rule="evenodd" clip-rule="evenodd" d="M6.02256 7C7.13129 7 8.03008 6.10457 8.03008 5C8.03008 3.89543 7.13129 3 6.02256 3C4.91384 3 4.01505 3.89543 4.01505 5C4.01505 6.10457 4.91384 7 6.02256 7Z" fill="#404040"/>
</svg>
