<svg width="22" height="25" viewBox="0 0 22 25" fill="none" xmlns="http://www.w3.org/2000/svg">
<path fill-rule="evenodd" clip-rule="evenodd" d="M21.7135 6.36161C21.5226 5.91518 21.2934 5.56176 21.026 5.30134L16.5573 0.948661C16.2899 0.688244 15.9271 0.46503 15.4688 0.279018C15.0104 0.093006 14.5903 0 14.2083 0H1.375C0.993056 0 0.668403 0.130208 0.401042 0.390625C0.133681 0.651042 0 0.967262 0 1.33929V23.6607C0 24.0327 0.133681 24.349 0.401042 24.6094C0.668403 24.8698 0.993056 25 1.375 25H20.625C21.0069 25 21.3316 24.8698 21.599 24.6094C21.8663 24.349 22 24.0327 22 23.6607V7.58929C22 7.21726 21.9045 6.80804 21.7135 6.36161ZM14.6667 7.14286V1.89732C14.9436 1.99033 15.1393 2.09263 15.2539 2.20424L19.737 6.57087C19.8516 6.68248 19.9566 6.87314 20.0521 7.14286H14.6667ZM20.1667 23.2143V8.92857H14.2083C13.8264 8.92857 13.5017 8.79836 13.2344 8.53795C12.967 8.27753 12.8333 7.96131 12.8333 7.58929V1.78571H1.83333V23.2143H20.1667ZM14.0078 15.7227C13.5208 15.4436 13.1198 15.1832 12.8047 14.9414C11.9358 14.2532 11.2387 13.1464 10.7135 11.6211C10.8281 10.9794 10.895 10.0865 10.9141 8.94252V8.524C10.9141 8.47749 10.9093 8.44029 10.8997 8.41239C10.9188 8.39379 10.9379 8.35658 10.957 8.30078C11.043 7.86365 11 7.54743 10.8281 7.35212C10.7135 7.21261 10.5464 7.14286 10.3268 7.14286H10.0117C9.71571 7.14286 9.51519 7.32887 9.41016 7.70089C9.28602 8.16592 9.25499 8.75884 9.31706 9.47963C9.37912 10.2004 9.52474 10.9422 9.75391 11.7048C9.41016 12.8767 8.91363 14.0951 8.26432 15.3599C7.73915 16.4016 7.2283 17.3177 6.73177 18.1083C6.73177 18.0897 6.72222 18.0711 6.70312 18.0525C6.61719 17.9129 6.50738 17.885 6.3737 17.9688C5.56207 18.3873 4.93186 18.836 4.48307 19.315C4.03429 19.794 3.76693 20.2195 3.68099 20.5915C3.6428 20.8333 3.67144 21.0007 3.76693 21.0938C3.81467 21.131 3.84332 21.1542 3.85286 21.1635L4.19661 21.3309C4.32075 21.396 4.45443 21.4286 4.59766 21.4286C5.44748 21.4286 6.60286 20.2102 8.0638 17.7734C9.69661 17.2247 11.5681 16.8387 13.6784 16.6155C14.2799 16.9224 14.9006 17.1689 15.5404 17.3549C16.1801 17.5409 16.7292 17.6339 17.1875 17.6339C17.8082 17.6339 18.1471 17.4572 18.2044 17.1038V17.0898L18.2331 17.0619C18.2426 17.0526 18.2474 17.0433 18.2474 17.034C18.3811 16.755 18.3715 16.5132 18.2188 16.3086C17.9323 15.8529 17.0872 15.625 15.6836 15.625C15.1298 15.625 14.5712 15.6576 14.0078 15.7227ZM4.55469 20.6752C5.05122 20.452 5.7053 19.7173 6.51693 18.471C6.02995 18.843 5.6122 19.2336 5.26367 19.6429C4.91515 20.0521 4.67882 20.3962 4.55469 20.6752ZM10.2266 9.68192C10.1024 8.84487 10.112 8.23103 10.2552 7.8404V7.8125C10.2648 7.8032 10.2695 7.7939 10.2695 7.7846C10.3841 7.91481 10.4462 8.08222 10.4557 8.28683C10.4557 8.29613 10.4581 8.30311 10.4629 8.30776C10.4677 8.31241 10.4701 8.31938 10.4701 8.32868C10.4701 8.33798 10.4748 8.34728 10.4844 8.35658C10.4557 8.39379 10.4366 8.43099 10.4271 8.46819C10.3602 8.84022 10.3268 9.04018 10.3268 9.06808C10.2695 9.4122 10.2361 9.61682 10.2266 9.68192ZM12.5469 15.9319C12.5278 15.9226 12.4657 15.8784 12.3607 15.7994C12.2556 15.7203 12.1793 15.6576 12.1315 15.611C11.4058 14.9879 10.7995 14.1695 10.3125 13.1557C10.0547 13.9555 9.65842 14.8717 9.1237 15.904C8.83724 16.4249 8.6224 16.8108 8.47917 17.0619C9.76823 16.5597 11.1241 16.183 12.5469 15.9319ZM15.7266 16.5039C16.8342 16.5039 17.5026 16.6155 17.7318 16.8387C17.7509 16.8573 17.7604 16.8713 17.7604 16.8806C17.7222 16.8899 17.6363 16.8945 17.5026 16.8945C17.0443 16.8945 16.4523 16.7643 15.7266 16.5039Z" fill="#333333"/>
</svg>
