<svg width="21" height="18" viewBox="0 0 21 18" fill="none" xmlns="http://www.w3.org/2000/svg">
<path id="Shape" fill-rule="evenodd" clip-rule="evenodd" d="M0 0V18H21V0H0ZM19.9296 1.04707V10.6639L14.8353 5.66561L7.85988 12.5122L5.25336 9.94829L1.0659 14.0488V1.04707H19.9296ZM1.0659 15.1288V16.9529H19.9341V11.7395L14.8353 6.74122L7.85988 13.579L5.25336 11.0239L1.0659 15.1288ZM6.34613 8.3239C7.72755 8.3239 8.84741 7.22613 8.84741 5.87195C8.84741 4.51778 7.72755 3.42 6.34613 3.42C4.96471 3.42 3.84485 4.51778 3.84485 5.87195C3.84608 7.22563 4.96522 8.32269 6.34613 8.3239ZM8.07262 5.87195C8.07262 4.93724 7.29964 4.17951 6.34613 4.17951V4.17073C5.88668 4.17073 5.44618 4.35024 5.12214 4.66954C4.7981 4.98883 4.61726 5.42157 4.61964 5.87195C4.61964 6.80666 5.39262 7.56439 6.34613 7.56439C7.29964 7.56439 8.07262 6.80666 8.07262 5.87195Z" fill="#FBFBFB"/>
</svg>
