<svg width="24" height="25" viewBox="0 0 24 25" fill="none" xmlns="http://www.w3.org/2000/svg">
<g id="noun_228208">
<path id="Path" fill-rule="evenodd" clip-rule="evenodd" d="M0.696517 10C0.278607 10 0 9.64789 0 9.22535V0.7277C0 0.28169 0.232172 0 0.650083 0H13.2338C13.6517 0 14 0.28169 14 0.7277V3.40376C14 3.82629 13.6053 4.1784 13.1642 4.1784C12.7463 4.1784 12.3284 3.82629 12.3284 3.40376V1.38498H1.36982V9.20188C1.36982 9.64789 1.11443 10 0.696517 10Z" fill="#333333"/>
<path id="Path_2" fill-rule="evenodd" clip-rule="evenodd" d="M13.1683 25H0.646865C0.231023 25 0 24.7267 0 24.2938V15.7517C0 15.3417 0.254125 15 0.693069 15C1.13201 15 1.38614 15.3417 1.38614 15.7517V23.6333H12.3366V20.3303C12.3366 19.9203 12.7294 19.5786 13.1683 19.5786C13.5842 19.5786 14 19.9203 14 20.3303V24.2938C13.9538 24.7267 13.6073 25 13.1683 25Z" fill="#333333"/>
<path id="Path_3" fill-rule="evenodd" clip-rule="evenodd" d="M13 17C12.4722 17 12 16.626 12 16.1773V8.82271C12 8.37396 12.4722 8 13 8C13.5 8 14 8.37396 14 8.82271V16.1773C14 16.626 13.5278 17 13 17Z" fill="#333333"/>
<path id="Path_4" fill-rule="evenodd" clip-rule="evenodd" d="M23.3766 25H12.8751C12.4606 25 12 24.7273 12 24.2955V20.3409C12 19.9318 12.3915 19.5909 12.8291 19.5909C13.2436 19.5909 13.6581 19.9318 13.6581 20.3409V23.6364H22.6627V12.6136H13.6581V15.7727C13.6581 16.2045 13.2666 16.5227 12.8291 16.5227C12.4145 16.5227 12 16.1818 12 15.7727V11.8182C12 11.4091 12.4376 11 12.8751 11H23.3536C23.7681 11 23.9984 11.4091 23.9984 11.8182V24.2955C24.0215 24.7273 23.7912 25 23.3766 25Z" fill="#333333"/>
</g>
</svg>
