<svg width="30" height="21" viewBox="0 0 30 21" fill="none" xmlns="http://www.w3.org/2000/svg">
<g id="noun_249740">
<path id="Path" fill-rule="evenodd" clip-rule="evenodd" d="M29.2023 18.1059C28.2035 18.6945 26.4364 19.5775 25.8217 19.5775C25.4375 19.5775 24.7845 19.185 24.2082 18.8417C23.5167 18.4492 22.8253 18.0568 22.249 18.0078C21.6344 17.9587 20.9044 18.4002 20.1361 18.8417C19.5983 19.185 18.9452 19.5284 18.6379 19.5284C18.2922 19.5284 17.6391 19.136 17.0628 18.8417C16.3329 18.4002 15.6414 18.0078 15.0268 18.0078C14.4121 18.0078 13.7206 18.4002 12.9907 18.8417C12.4145 19.185 11.7614 19.5284 11.4157 19.5284C11.0699 19.5284 10.4168 19.136 9.84061 18.8417C9.1107 18.4002 8.41921 18.0078 7.80455 18.0078C7.1899 18.0078 6.49841 18.4002 5.7685 18.8417C5.19226 19.185 4.53919 19.5284 4.19344 19.5284C3.57878 19.5284 1.81164 18.6455 0.812823 18.0568C0.505494 17.9097 0.198165 18.0568 0.0445006 18.4002C-0.0707477 18.7926 0.0445006 19.185 0.313413 19.3813C0.774407 19.6265 3.11779 21 4.15502 21C4.76968 21 5.46117 20.6076 6.19108 20.1661C6.76732 19.8227 7.42039 19.4794 7.76614 19.4794C8.11188 19.4794 8.76496 19.8718 9.3412 20.1661C10.0711 20.6076 10.7626 21 11.3773 21C11.9919 21 12.6834 20.6076 13.4133 20.1661C13.9895 19.8227 14.6426 19.4794 14.9884 19.4794C15.3341 19.4794 15.9872 19.8718 16.5634 20.1661C17.2933 20.6076 17.9848 21 18.5995 21C19.1757 21 19.8672 20.6076 20.5971 20.1661C21.1734 19.8227 21.8264 19.4303 22.1722 19.4794C22.5179 19.4794 23.171 19.8718 23.7088 20.1661C24.4771 20.6076 25.2071 21 25.8217 21C26.8589 21 29.2023 19.6756 29.6633 19.3813C29.9706 19.2341 30.0859 18.7926 29.9322 18.4002C29.817 18.1059 29.4712 17.9587 29.2023 18.1059Z" fill="#333333"/>
<path id="Path_2" fill-rule="evenodd" clip-rule="evenodd" d="M0.368115 15.4073C0.828259 15.6486 3.16732 17 4.20265 17C4.81617 17 5.50639 16.6139 6.23495 16.1795C6.81013 15.8417 7.462 15.5038 7.80711 15.5038C8.15222 15.5038 8.80409 15.8899 9.37927 16.1795C10.1078 16.6139 10.798 17 11.4116 17C12.0251 17 12.7153 16.6139 13.4439 16.1795C14.019 15.8417 14.6709 15.5038 15.016 15.5038C15.3611 15.5038 16.013 15.8899 16.5882 16.1795C17.3167 16.6139 18.007 17 18.6205 17C19.1957 17 19.8859 16.6139 20.6144 16.1795C21.1896 15.8417 21.8415 15.4556 22.1866 15.5038C22.5317 15.5038 23.1836 15.8899 23.7204 16.1795C24.4873 16.6139 25.2159 17 25.8294 17C26.8647 17 29.2038 15.6969 29.6639 15.4073C29.9707 15.2625 30.0857 14.8281 29.9324 14.442C29.8173 14.0559 29.4722 13.9111 29.1655 14.1042C28.1685 14.6833 26.4046 15.5521 25.7911 15.5521C25.4076 15.5521 24.7557 15.166 24.1806 14.8281C23.4903 14.442 22.8001 14.0559 22.2249 14.0076C21.6114 13.9594 20.8829 14.3938 20.116 14.8281C19.5791 15.166 18.9272 15.5038 18.6205 15.5038C18.2754 15.5038 17.6235 15.1177 17.0483 14.8281C16.2814 14.3938 15.5912 14.0076 14.9777 14.0076C14.3642 14.0076 13.6739 14.3938 12.9454 14.8281C12.3702 15.166 11.7183 15.5038 11.3732 15.5038C11.0281 15.5038 10.3762 15.1177 9.80106 14.8281C9.0725 14.3938 8.38229 14.0076 7.76876 14.0076C7.15524 14.0076 6.46502 14.3938 5.73646 14.8281C5.16128 15.166 4.50941 15.5038 4.1643 15.5038C3.55078 15.5038 1.78689 14.6351 0.789914 14.0559C0.483151 13.9111 0.176388 14.0559 0.0230072 14.3938C-0.0536835 14.7799 0.0613525 15.2142 0.368115 15.4073Z" fill="#333333"/>
<path id="Shape" fill-rule="evenodd" clip-rule="evenodd" d="M16.0887 12.4298C16.0887 12.7339 15.8347 13 15.5444 13C15.254 13 15 12.7719 15 12.4298V1.74854V1.6345C15.0726 0.722222 15.7984 0 16.6694 0C17.5766 0 18.3387 0.798246 18.3387 1.74854C18.3387 2.05263 18.0847 2.31871 17.7944 2.31871C17.504 2.31871 17.25 2.05263 17.25 1.74854C17.25 1.40643 16.996 1.14035 16.6694 1.14035C16.3427 1.14035 16.0887 1.40643 16.0887 1.74854V4.75146H20.6613V1.74854V1.6345C20.7339 0.722222 21.4597 0 22.3306 0C23.2379 0 24 0.798246 24 1.74854C24 2.05263 23.746 2.31871 23.4556 2.31871C23.1653 2.31871 22.9113 2.05263 22.9113 1.74854C22.9113 1.40643 22.6573 1.14035 22.3306 1.14035C22.004 1.14035 21.75 1.40643 21.75 1.74854V12.4298C21.75 12.7339 21.496 13 21.2056 13C20.9153 13 20.6613 12.7339 20.6613 12.4298V9.4269H16.0887V12.4298ZM20.6613 8.32456V5.89181H16.0887V8.32456H20.6613Z" fill="#333333"/>
</g>
</svg>
