<svg width="31" height="21" viewBox="0 0 31 21" fill="none" xmlns="http://www.w3.org/2000/svg">
<g id="noun_228209">
<path id="Path" fill-rule="evenodd" clip-rule="evenodd" d="M30.0952 21H0.891307C0.599269 21 0.30723 20.8438 0.144987 20.5938C-0.0172569 20.3438 -0.0497056 20.0312 0.0800892 19.7812L4.26597 11.5312C4.49311 11.0938 5.01229 10.9375 5.46658 11.125C5.92086 11.3438 6.0831 11.9375 5.88841 12.3438L2.31905 19.4375H28.635L25.1305 12.875H18.803C18.3163 12.875 17.8944 12.4062 17.8944 11.9375C17.8944 11.4688 18.2838 11 18.803 11H25.6497C25.9742 11 26.2987 11.1875 26.4284 11.4688L30.9064 19.75C31.0362 20.0312 31.0362 20.3438 30.8739 20.5938C30.7117 20.8438 30.4196 21 30.0952 21Z" fill="#404040"/>
<path id="Shape" fill-rule="evenodd" clip-rule="evenodd" d="M8.09507 11.608C8.22183 11.7889 8.44366 12 8.66549 12H16.3345C16.588 12 16.7782 11.7889 16.9049 11.608C17.0317 11.4271 17.0317 11.0955 16.9049 10.9146L16.2394 9.8593C16.4296 9.82915 16.5563 9.70854 16.6514 9.52764C16.7782 9.31658 16.7465 9.07538 16.588 8.89447L15.4789 7.53769H15.5106C15.7007 7.47739 15.8275 7.35678 15.8908 7.17588C15.9542 6.99498 15.9225 6.81407 15.8275 6.66332L15.3204 5.78894C15.3204 5.77387 15.3125 5.76633 15.3046 5.75879C15.2967 5.75126 15.2887 5.74372 15.2887 5.72864L15.1303 5.51759C15.257 5.45729 15.3838 5.36683 15.4472 5.24623C15.5423 5.06533 15.5423 4.85427 15.4472 4.67337L13.2289 0.361809C13.1338 0.150754 12.912 0 12.6585 0H12.6268C12.3732 0 12.1514 0.150754 12.0563 0.361809L9.86972 4.76382C9.77465 4.97487 9.77465 5.18593 9.90141 5.36683C9.91725 5.38191 9.9331 5.40452 9.94894 5.42714C9.96479 5.44975 9.98063 5.47236 9.99648 5.48744L9.9331 5.57789C9.91725 5.59297 9.90933 5.60804 9.90141 5.62312C9.89349 5.63819 9.88556 5.65327 9.86972 5.66834L9.2993 6.63317C9.20423 6.81407 9.20423 6.99498 9.26761 7.17588C9.33099 7.32663 9.42606 7.44724 9.58451 7.50754L9.52113 7.59799L8.50704 8.95477C8.38028 9.13568 8.34859 9.40704 8.47535 9.61809C8.53873 9.70854 8.6338 9.799 8.72887 9.8593L8.09507 10.9447C7.96831 11.1558 7.96831 11.4271 8.09507 11.608ZM14.6232 9.52764L15.2254 10.4925H9.80634L10.4401 9.49749C10.5669 9.31658 10.5669 9.10553 10.4401 8.92462C10.4085 8.86432 10.3768 8.80402 10.3134 8.77387L10.6303 8.32161L11.2641 7.53769C11.3908 7.38693 11.4225 7.17588 11.3592 6.96482C11.2958 6.78392 11.1373 6.63317 10.9155 6.57286H10.8838L11.0106 6.33166L11.7394 5.42714C11.8979 5.24623 11.8979 4.97487 11.8028 4.76382C11.7077 4.61307 11.6127 4.52261 11.4542 4.46231L12.6585 2.05025L13.8944 4.43216C13.6725 4.46231 13.4824 4.58291 13.3873 4.79397C13.2923 4.97487 13.3239 5.21608 13.4507 5.39699L14.2746 6.39196L14.4014 6.60301L14.2746 6.66332C14.0845 6.72362 13.9577 6.87437 13.8944 7.05528C13.831 7.26633 13.8627 7.44724 13.9894 7.59799L14.4648 8.201L14.8768 8.71357C14.7817 8.77387 14.6866 8.86432 14.6232 8.95477C14.4965 9.13568 14.4965 9.34673 14.6232 9.52764Z" fill="#404040"/>
<path id="Path_2" fill-rule="evenodd" clip-rule="evenodd" d="M12.5 15C12.2105 15 12 14.7353 12 14.4412V11.5588C12 11.2353 12.2368 11 12.5 11C12.7895 11 13 11.2647 13 11.5588V14.4412C13 14.7647 12.7632 15 12.5 15Z" fill="#404040"/>
</g>
</svg>
