<svg width="25" height="19" viewBox="0 0 25 19" fill="none" xmlns="http://www.w3.org/2000/svg">
<g id="noun_504096">
<path id="Shape" fill-rule="evenodd" clip-rule="evenodd" d="M20.7303 10.8523C21.1631 10.0558 21.346 9.15957 21.2598 8.26094C21.1403 7.01336 20.5207 5.88487 19.5154 5.08416C18.5108 4.28345 17.2382 3.90428 15.9389 4.0206C14.181 4.17616 12.6412 5.23347 11.9198 6.77967C11.9075 6.80606 11.8996 6.8328 11.892 6.85953C11.2176 6.62863 10.5042 6.49981 9.77778 6.49981C7.14792 6.49981 4.81936 8.0408 3.8749 10.369C1.6749 10.6738 0 12.4954 0 14.6597C0 17.0531 2.03052 19 4.52675 19H17.1111C19.8069 19 22 16.8972 22 14.3124C22 13.0339 21.4561 11.8697 20.5775 11.0204C20.6384 10.9756 20.693 10.9214 20.7303 10.8523ZM12.9114 7.20468C13.4727 6.00119 14.671 5.17861 16.0385 5.05742C17.0521 4.96749 18.0389 5.26194 18.8211 5.88487C19.6034 6.50779 20.085 7.38524 20.1781 8.35609C20.2454 9.05505 20.1031 9.75194 19.767 10.3707C19.7661 10.3723 19.7656 10.3738 19.7651 10.3754C19.7645 10.3769 19.764 10.3785 19.7631 10.3801C19.151 9.99986 18.4438 9.74673 17.6815 9.66131C16.8761 8.6554 15.5876 8.10782 14.2299 8.26025C13.8211 7.87274 13.3593 7.54739 12.865 7.28176C12.882 7.2578 12.8987 7.23246 12.9114 7.20468ZM4.52675 17.9583H17.1111C19.2079 17.9583 20.9136 16.3229 20.9136 14.3121C20.9136 12.394 19.3488 10.7981 17.3508 10.6783L17.0814 10.6624L16.9322 10.4464C16.3307 9.57624 15.262 9.11721 14.1383 9.32763L13.8406 9.38318L13.6353 9.16929C12.626 8.11962 11.256 7.54149 9.77778 7.54149C7.49992 7.54149 5.49475 8.937 4.78749 11.0145L4.67342 11.3502L4.30584 11.3725C2.50058 11.4825 1.08642 12.9263 1.08642 14.6597C1.08642 16.4784 2.62986 17.9583 4.52675 17.9583Z" fill="#FFC101"/>
<path id="Path" fill-rule="evenodd" clip-rule="evenodd" d="M15.5761 3C15.5893 3 15.6023 2.99932 15.6156 2.99797C15.8485 2.97228 16.0201 2.72514 15.9981 2.44623L15.8448 0.460375C15.8234 0.181124 15.6131 -0.0240879 15.3844 0.00228198C15.1515 0.0279757 14.9799 0.275109 15.0019 0.554022L15.1552 2.53988C15.1755 2.80256 15.3601 3 15.5761 3Z" fill="#FFC101"/>
<path id="Path_2" fill-rule="evenodd" clip-rule="evenodd" d="M24.4462 8.00186L22.4605 8.1549C22.1816 8.17636 21.9765 8.38276 22.0022 8.61543C22.0265 8.8351 22.2479 9 22.5065 9C22.522 9 22.5379 8.99944 22.5538 8.99831L24.5395 8.84527C24.8184 8.82381 25.0235 8.6174 24.9978 8.38474C24.9721 8.15179 24.7264 7.98012 24.4462 8.00186Z" fill="#FFC101"/>
<path id="Path_3" fill-rule="evenodd" clip-rule="evenodd" d="M21.0591 5.62622C21.1539 5.86362 21.3399 6 21.533 6C21.615 6 21.6984 5.9752 21.7765 5.92332L22.7112 5.30111C22.9725 5.12708 23.0754 4.71197 22.9409 4.37355C22.806 4.03559 22.4851 3.90242 22.2235 4.07645L21.2888 4.69866C21.0275 4.87223 20.9246 5.2878 21.0591 5.62622Z" fill="#FFC101"/>
<path id="Path_4" fill-rule="evenodd" clip-rule="evenodd" d="M19.2666 3.97526C19.3056 3.9921 19.3455 4 19.3842 4C19.5467 4 19.6975 3.86047 19.7497 3.64189L19.9814 2.6734C20.0465 2.40224 19.9351 2.11183 19.7334 2.02488C19.5311 1.93759 19.315 2.08743 19.2503 2.35791L19.0186 3.32639C18.9535 3.5979 19.0649 3.8883 19.2666 3.97526Z" fill="#FFC101"/>
<path id="Path_5" fill-rule="evenodd" clip-rule="evenodd" d="M13.6971 3.71041C13.8194 3.89424 14.0611 4 14.3112 4C14.4169 4 14.5245 3.98119 14.6251 3.94109C14.9639 3.80694 15.0976 3.48611 14.9239 3.2242L14.3034 2.28977C14.1292 2.02821 13.7146 1.92423 13.3749 2.05908C13.0361 2.19323 12.9024 2.51406 13.0761 2.77597L13.6971 3.71041Z" fill="#FFC101"/>
<path id="Path_6" fill-rule="evenodd" clip-rule="evenodd" d="M23.6405 10.2484L22.6735 10.0185C22.4012 9.95332 22.111 10.066 22.0246 10.2682C21.9378 10.4709 22.0879 10.6872 22.3595 10.7519L23.3265 10.9818C23.3785 10.9941 23.4319 11 23.4835 11C23.7024 11 23.9055 10.8956 23.9754 10.7321C24.0622 10.5297 23.9121 10.3131 23.6405 10.2484Z" fill="#FFC101"/>
<path id="Path_7" fill-rule="evenodd" clip-rule="evenodd" d="M20.4428 4C20.5701 4 20.6963 3.95091 20.7837 3.85619L21.8976 2.65235C22.0542 2.48333 22.0282 2.23232 21.8403 2.09195C21.6518 1.95132 21.3723 1.97467 21.2163 2.14369L20.1024 3.34753C19.9458 3.51655 19.9718 3.76756 20.1597 3.90793C20.2428 3.97002 20.3429 4 20.4428 4Z" fill="#FFC101"/>
<path id="Path_8" fill-rule="evenodd" clip-rule="evenodd" d="M11.3475 4.8978C11.4218 4.96633 11.512 5 11.6017 5C11.716 5 11.8293 4.94536 11.9082 4.83991C12.0485 4.65176 12.0254 4.37234 11.8564 4.21608L10.6523 3.10224C10.4835 2.94599 10.2322 2.97168 10.0918 3.15983C9.95148 3.34799 9.97456 3.62741 10.1436 3.78366L11.3475 4.8978Z" fill="#FFC101"/>
</g>
</svg>
