<?xml version="1.0" standalone="no"?>
<!DOCTYPE svg PUBLIC "-//W3C//DTD SVG 1.1//EN" "http://www.w3.org/Graphics/SVG/1.1/DTD/svg11.dtd" >
<svg>
<metadata>
Created by FontForge 20090914 at Thu Sep  5 07:04:03 2019
 By www-data
Copyright &#194;&#169; 2014 by Ren&#195;&#169; Bieder. All rights reserved.
</metadata>
<defs>
<font id="Campton-Book" horiz-adv-x="1259" >
  <font-face 
    font-family="Campton Book"
    font-weight="475"
    font-stretch="normal"
    units-per-em="2048"
    panose-1="0 0 5 0 0 0 0 0 0 0"
    ascent="1638"
    descent="-410"
    x-height="956"
    cap-height="1393"
    bbox="-68 -498 2152 1982"
    underline-thickness="102"
    underline-position="-102"
    unicode-range="U+0020-U+FB02"
  />
<missing-glyph horiz-adv-x="748" 
d="M68 0v1365h544v-1365h-544zM136 68h408v1229h-408v-1229z" />
    <glyph glyph-name="uniFB01" unicode="fi" horiz-adv-x="1400" 
d="M8 799l0.000976562 157h275v156c0 134.667 37.167 241.667 111.5 321s172.166 119 293.499 119c45.333 0 88.666 -2.83301 129.999 -8.5s73.166 -11.334 95.499 -17.001s63.833 -16.834 124.5 -33.501l-34 -162c-4 1.33301 -14 4 -30 8l-30 7.5l-27 6.5
c-14 3.33301 -23.5 5.5 -28.5 6.5l-26 5c-12.333 2.33301 -21.666 3.83301 -27.999 4.5s-15.333 1.83398 -27 3.50098s-22 2.83398 -31 3.50098s-19.167 1.16699 -30.5 1.5s-23 0.5 -35 0.5c-75.333 0 -134.166 -23.167 -176.499 -69.5s-63.5 -111.833 -63.5 -196.5v-156
h754v-956h-189v799h-565v-799h-188v799h-275z" />
    <glyph glyph-name="uniFB02" unicode="fl" horiz-adv-x="1357" 
d="M8 799v157h275v211c0 115.333 33.333 208.333 100 279s154.667 106 264 106c72 0 141.667 -9.33301 209 -28l-27 -164c-61.333 12 -110.333 18 -147 18c-63.333 0 -114.333 -19.333 -153 -58s-58 -89.667 -58 -153v-211h340v-157h-340v-799h-188v799h-275zM1014 0v1454
h186v-1454h-186z" />
    <glyph glyph-name=".notdef" horiz-adv-x="748" 
d="M68 0v1365h544v-1365h-544zM136 68h408v1229h-408v-1229z" />
    <glyph glyph-name="space" unicode=" " horiz-adv-x="546" 
 />
    <glyph glyph-name="exclam" unicode="!" horiz-adv-x="555" 
d="M156 100c0 32.667 11.668 60.334 35.001 83.001s51.666 34 84.999 34c34 0 63 -11.333 87 -34s36 -50.334 36 -83.001c0 -34 -11.833 -62.167 -35.5 -84.5s-52.834 -33.5 -87.501 -33.5c-33.333 0 -61.666 11.333 -84.999 34s-35 50.667 -35 84zM178.001 1393h199
l-17 -990h-167z" />
    <glyph glyph-name="quotedbl" unicode="&#x22;" horiz-adv-x="663" 
d="M98 836v557h160v-557h-160zM406 836v557h161v-557h-161z" />
    <glyph glyph-name="numbersign" unicode="#" horiz-adv-x="1533" 
d="M76 381v168h264l86 274h-238v168h289l127 404h195l-127 -404h368l127 404h195l-127 -404h221v-168h-272l-86 -274h245v-168h-299l-118 -381h-195l119 381h-369l-119 -381h-194l119 381h-211zM535 549h368l86 274h-368z" />
    <glyph glyph-name="dollar" unicode="$" horiz-adv-x="1359" 
d="M113 451l194.001 0.00292969c16 -96 58.833 -171 128.5 -225s162.167 -81 277.5 -81c98 0 175.333 20.833 232 62.5s85 97.5 85 167.5c0 110 -77.667 179 -233 207l-236 45c-129.333 24 -226.5 68.333 -291.5 133s-97.5 147.334 -97.5 248.001
c0 115.333 40.833 210.5 122.5 285.5s190.5 117.5 326.5 127.5v238h170v-244c119.333 -16 219.5 -58.5 300.5 -127.5s128.833 -165.833 143.5 -290.5h-195c-14 81.333 -49.833 144.666 -107.5 189.999s-137.834 68 -240.501 68c-94.667 0 -170.5 -21 -227.5 -63
s-85.5 -98.667 -85.5 -170c0 -110 85.333 -181 256 -213l194 -39c132 -25.333 232 -67.833 300 -127.5s102 -140.834 102 -243.501c0 -116 -39.667 -212 -119 -288s-186.333 -121.333 -321 -136v-233h-170v233c-146 13.333 -263.833 61.666 -353.5 144.999
s-141.167 193.666 -154.5 330.999z" />
    <glyph glyph-name="percent" unicode="%" horiz-adv-x="2222" 
d="M176 1032c0 114 37.5 207.667 112.5 281s168.5 110 280.5 110s205.667 -36.667 281 -110s113 -167 113 -281c0 -115.333 -37.667 -209.666 -113 -282.999s-169 -110 -281 -110s-205.5 36.667 -280.5 110s-112.5 167.666 -112.5 282.999zM319 1032
c0 -74 24.333 -135.167 73 -183.5s107.667 -72.5 177 -72.5s128.333 24.167 177 72.5s73 109.5 73 183.5c0 72.667 -24.333 133.167 -73 181.5s-107.667 72.5 -177 72.5s-128.333 -24.167 -177 -72.5s-73 -108.833 -73 -181.5zM563 0l936 1393h137l-936 -1393h-137z
M1260 362c0 114 37.5 207.833 112.5 281.5s168.5 110.5 280.5 110.5s205.5 -36.833 280.5 -110.5s112.5 -167.5 112.5 -281.5c0 -115.333 -37.5 -209.666 -112.5 -282.999s-168.5 -110 -280.5 -110s-205.5 36.667 -280.5 110s-112.5 167.666 -112.5 282.999zM1403 362
c0 -74 24.167 -134.667 72.5 -182s107.5 -71 177.5 -71s129.167 23.667 177.5 71s72.5 108 72.5 182s-24.167 134.833 -72.5 182.5s-107.5 71.5 -177.5 71.5s-129.167 -23.833 -177.5 -71.5s-72.5 -108.5 -72.5 -182.5z" />
    <glyph glyph-name="ampersand" unicode="&#x26;" horiz-adv-x="1486" 
d="M90 391c0 86 24 161.999 72 227.999s113.333 117 196 153c-77.333 90.667 -116 182.334 -116 275.001c0 110 39.167 200.167 117.5 270.5s177.5 105.5 297.5 105.5c115.333 0 209.833 -34.333 283.5 -103s117.167 -162.667 130.5 -282h-188
c-8.66699 69.333 -33.5 122.833 -74.5 160.5s-92.167 56.5 -153.5 56.5c-64 0 -116.5 -19.667 -157.5 -59s-61.5 -90.666 -61.5 -153.999c0 -32 5.83301 -62.333 17.5 -91s32.167 -59.834 61.5 -93.501s60 -65.834 92 -96.501l134 -123l25 -22l246 -225l205 303h196
l-264 -399l-12 -19l301 -276h-250l-162 147c-121.333 -117.333 -266 -176 -434 -176c-150 0 -271.167 38.833 -363.5 116.5s-138.5 178.834 -138.5 303.501zM274 392.999c0 -71.333 30.335 -131.499 91.002 -180.499s137 -73.5 229 -73.5
c113.333 0 215.666 40.333 306.999 121l-299 272c-62.667 57.333 -105 97 -127 119c-62.667 -26 -111.834 -61.333 -147.501 -106s-53.5 -95.334 -53.5 -152.001z" />
    <glyph glyph-name="quotesingle" unicode="'" horiz-adv-x="356" 
d="M98 836v557h160v-557h-160z" />
    <glyph glyph-name="parenleft" unicode="(" horiz-adv-x="724" 
d="M125 621c0 354 139.333 647.331 418 879.998l121 -123c-77.333 -74.667 -140.333 -147.167 -189 -217.5s-87.167 -150.833 -115.5 -241.5s-42.5 -190 -42.5 -298c0 -159.333 28.667 -297.666 86 -414.999s144.333 -231.666 261 -342.999l-121 -123
c-137.333 114 -241.333 245.167 -312 393.5s-106 310.833 -106 487.5z" />
    <glyph glyph-name="parenright" unicode=")" horiz-adv-x="724" 
d="M63 -137c116.667 111.333 203.667 225.668 261 343.001s86 255.666 86 414.999c0 108 -14.167 207.333 -42.5 298s-66.833 171.167 -115.5 241.5s-111.667 142.833 -189 217.5l121 123c278.667 -234.667 418 -528 418 -880c0 -176 -35.5 -338.333 -106.5 -487
s-174.833 -280 -311.5 -394z" />
    <glyph glyph-name="asterisk" unicode="*" horiz-adv-x="827" 
d="M96 956l211 129l-211 127l56 97l206 -125v219h111v-219l209 125l53 -97l-211 -127l211 -129l-53 -92l-209 123v-221h-111v221l-206 -123z" />
    <glyph glyph-name="plus" unicode="+" horiz-adv-x="1411" 
d="M227 582v174h389v379h181v-379h389v-174h-389v-379h-181v379h-389z" />
    <glyph glyph-name="comma" unicode="," horiz-adv-x="417" 
d="M76 -260l99.999 248c-50.667 18 -76 51.333 -76 100c0 32 11.667 59.167 35 81.5s52 33.5 86 33.5s62.667 -11.167 86 -33.5s35 -49.5 35 -81.5c0 -16 -2.16699 -30.667 -6.5 -44s-15.166 -37 -32.499 -71l-110 -233h-117z" />
    <glyph glyph-name="hyphen" unicode="-" horiz-adv-x="1142" 
d="M227 453h688v188h-688v-188z" />
    <glyph glyph-name="period" unicode="." horiz-adv-x="395" 
d="M76 88c0 32.667 11.833 60.334 35.5 83.001s52.167 34 85.5 34c34 0 62.833 -11.333 86.5 -34s35.5 -50.334 35.5 -83.001c0 -34 -11.833 -62.333 -35.5 -85s-52.5 -34 -86.5 -34c-33.333 0 -61.833 11.5 -85.5 34.5s-35.5 51.167 -35.5 84.5z" />
    <glyph glyph-name="slash" unicode="/" horiz-adv-x="827" 
d="M96 -328l533 1823h182l-532 -1823h-183z" />
    <glyph glyph-name="zero" unicode="0" horiz-adv-x="1470" 
d="M125 696c0 142 23.833 267.5 71.5 376.5s117.834 194.667 210.501 257s202 93.5 328 93.5c95.333 0 181.5 -18 258.5 -54s141.167 -86.167 192.5 -150.5s90.833 -141 118.5 -230s41.5 -186.5 41.5 -292.5s-13.833 -203.5 -41.5 -292.5s-67.167 -165.667 -118.5 -230
s-115.5 -114.5 -192.5 -150.5s-163.167 -54 -258.5 -54c-126 0 -235.333 31.167 -328 93.5s-162.834 148 -210.501 257s-71.5 234.5 -71.5 376.5zM322 696c0 -107.333 15.333 -202 46 -284s77.5 -147 140.5 -195s138.5 -72 226.5 -72s163.5 24 226.5 72
s110 113.167 141 195.5s46.5 176.833 46.5 283.5s-15.5 201.167 -46.5 283.5s-78 147.5 -141 195.5s-138.5 72 -226.5 72s-163.5 -24 -226.5 -72s-109.833 -113 -140.5 -195s-46 -176.667 -46 -284z" />
    <glyph glyph-name="one" unicode="1" horiz-adv-x="1046" 
d="M92 0v162h383v1018l-360 -119v168l444 164h111v-1231h354v-162h-932z" />
    <glyph glyph-name="two" unicode="2" horiz-adv-x="1146" 
d="M78 997c5.33301 127.333 52.0039 230.166 140.004 308.499s203 117.5 345 117.5c72 0 137.5 -11 196.5 -33s107.333 -51.833 145 -89.5s66.667 -81.5 87 -131.5s30.5 -103.667 30.5 -161c0 -75.333 -21.833 -147.333 -65.5 -216s-120.834 -162 -231.501 -280l-317 -350
h636v-162h-925v102l446 492l91 100l68 80.5c29.333 35.667 49.166 63.5 59.499 83.5s20.166 43.667 29.499 71s14 54.333 14 81c0 68.667 -23.833 126.667 -71.5 174s-113.834 71 -198.501 71c-80 0 -145.5 -23.167 -196.5 -69.5s-81.167 -109.166 -90.5 -188.499h-192z" />
    <glyph glyph-name="three" unicode="3" horiz-adv-x="1150" 
d="M90 356l189 -0.00292969c32 -144.667 135 -217 309 -217c88 0 159.167 22.333 213.5 67s81.5 102.334 81.5 173.001c0 72 -27.667 129.833 -83 173.5s-128.666 65.5 -219.999 65.5h-111v158h111c77.333 0 139.666 21.833 186.999 65.5s71 100.5 71 170.5
c0 72.667 -23.667 130.667 -71 174s-110.333 65 -189 65c-71.333 0 -131.333 -19.667 -180 -59s-77 -91.333 -85 -156h-190c10 114.667 56.167 206.834 138.5 276.501s186.833 104.5 313.5 104.5c134 0 241.667 -37.167 323 -111.5s122 -171.5 122 -291.5
c0 -68 -14.667 -128.667 -44 -182s-71.333 -95.666 -126 -126.999c69.333 -30.667 122.5 -73.834 159.5 -129.501s55.5 -121.167 55.5 -196.5c0 -119.333 -44 -217.166 -132 -293.499s-203 -114.5 -345 -114.5c-146 0 -261.5 34.5 -346.5 103.5s-135.5 162.833 -151.5 281.5
z" />
    <glyph glyph-name="four" unicode="4" horiz-adv-x="1312" 
d="M90 295v121l414 977h198l-383 -930h508v432h187v-432h209v-168h-209v-295h-187v295h-737z" />
    <glyph glyph-name="five" unicode="5" horiz-adv-x="1204" 
d="M78 375l190.001 0.000976562c19.333 -74.667 56.5 -133 111.5 -175s127.833 -63 218.5 -63c91.333 0 166.333 28.167 225 84.5s88 126.5 88 210.5c0 81.333 -28.833 147.166 -86.5 197.499s-135.167 75.5 -232.5 75.5l-402 -3l3 691h835v-174h-657v-347h243
c143.333 0 259.166 -40.333 347.499 -121s132.5 -185 132.5 -313c0 -134.667 -46.167 -246.5 -138.5 -335.5s-211.5 -133.5 -357.5 -133.5c-145.333 0 -262.833 36.167 -352.5 108.5s-145.5 171.5 -167.5 297.5z" />
    <glyph glyph-name="six" unicode="6" horiz-adv-x="1261" 
d="M106 455c0 56 9.83301 110 29.5 162s49.5 109 89.5 171l412 605h229l-307 -457c30.667 2.66699 55.334 4 74.001 4c151.333 0 276.166 -45.333 374.499 -136s147.5 -205 147.5 -343c0 -142 -49.333 -259.5 -148 -352.5s-224 -139.5 -376 -139.5s-277.5 46.5 -376.5 139.5
s-148.5 208.5 -148.5 346.5zM297 446c0 -90 31.5 -165.667 94.5 -227s142.833 -92 239.5 -92s176.5 31 239.5 93s94.5 139 94.5 231c0 90 -31.5 165.333 -94.5 226s-142.833 91 -239.5 91c-99.333 0 -179.333 -27.333 -240 -82l-6 -8c-58.667 -78.667 -88 -156 -88 -232z
" />
    <glyph glyph-name="seven" unicode="7" horiz-adv-x="1030" 
d="M29 1210v183h958v-119l-614 -1274h-217l587 1210h-714z" />
    <glyph glyph-name="eight" unicode="8" horiz-adv-x="1277" 
d="M106 387c0 80 21.998 150.167 65.998 210.5s106 106.166 186 137.499c-61.333 30 -108.666 70.833 -141.999 122.5s-50 111.834 -50 180.501c0 112 44.333 204.167 133 276.5s202 108.5 340 108.5s251.333 -36.167 340 -108.5s133 -164.5 133 -276.5
c0 -68.667 -16.667 -128.834 -50 -180.501s-80.666 -92.5 -141.999 -122.5c80 -31.333 141.833 -77.166 185.5 -137.499s65.5 -130.5 65.5 -210.5c0 -124 -48.333 -224.667 -145 -302s-225.667 -116 -387 -116s-290.5 38.667 -387.5 116s-145.5 178 -145.5 302zM318.998 399
c0 -77.333 29.833 -141.333 89.5 -192s136.5 -76 230.5 -76c93.333 0 169.833 25.5 229.5 76.5s89.5 114.833 89.5 191.5c0 74 -29.833 135.167 -89.5 183.5s-136.167 72.5 -229.5 72.5c-94 0 -170.833 -24.167 -230.5 -72.5s-89.5 -109.5 -89.5 -183.5zM355.998 1028
c0 -70.667 26.333 -128.334 79 -173.001s120.667 -67 204 -67s151.333 22.333 204 67s79 102.334 79 173.001c0 67.333 -26.667 124.5 -80 171.5s-121 70.5 -203 70.5s-149.667 -23.333 -203 -70s-80 -104 -80 -172z" />
    <glyph glyph-name="nine" unicode="9" horiz-adv-x="1261" 
d="M106 932c0 142 49.499 259.333 148.499 352s224.5 139 376.5 139s277.333 -46.333 376 -139s148 -208 148 -346c0 -56.667 -9.83301 -111 -29.5 -163s-49.5 -108.333 -89.5 -169l-411 -606h-230l310 459c-33.333 -2.66699 -58.666 -4 -75.999 -4
c-151.333 0 -276.333 45 -375 135s-148 204 -148 342zM296.999 942c0 -90 31.5 -165.333 94.5 -226s142.833 -91 239.5 -91c96 0 175.667 27.333 239 82l7 8c58.667 78.667 88 155.667 88 231c0 90 -31.5 165.833 -94.5 227.5s-142.833 92.5 -239.5 92.5
s-176.5 -31 -239.5 -93s-94.5 -139 -94.5 -231z" />
    <glyph glyph-name="colon" unicode=":" horiz-adv-x="395" 
d="M76 88c0 32.667 11.833 60.334 35.5 83.001s52.167 34 85.5 34c34 0 62.833 -11.333 86.5 -34s35.5 -50.334 35.5 -83.001c0 -34 -11.833 -62.333 -35.5 -85s-52.5 -34 -86.5 -34c-33.333 0 -61.833 11.5 -85.5 34.5s-35.5 51.167 -35.5 84.5zM76 868
c0 32.667 11.833 60.334 35.5 83.001s52.167 34 85.5 34c34 0 62.833 -11.333 86.5 -34s35.5 -50.334 35.5 -83.001c0 -34 -11.833 -62.167 -35.5 -84.5s-52.5 -33.5 -86.5 -33.5c-33.333 0 -61.833 11.333 -85.5 34s-35.5 50.667 -35.5 84z" />
    <glyph glyph-name="semicolon" unicode=";" horiz-adv-x="403" 
d="M57 -260l100.999 248c-49.333 18 -74 51.333 -74 100c0 31.333 11.667 58.333 35 81s51.333 34 84 34c34 0 62.667 -11.167 86 -33.5s35 -49.5 35 -81.5c0 -16 -2.16699 -30.667 -6.5 -44s-15.166 -37 -32.499 -71l-111 -233h-117zM79.999 868
c0 32.667 11.834 60.334 35.501 83.001s52.167 34 85.5 34c34 0 63 -11.333 87 -34s36 -50.334 36 -83.001c0 -34 -11.833 -62.167 -35.5 -84.5s-52.834 -33.5 -87.501 -33.5c-33.333 0 -61.833 11.333 -85.5 34s-35.5 50.667 -35.5 84z" />
    <glyph glyph-name="less" unicode="&#x3c;" horiz-adv-x="1124" 
d="M111 526v191l864 403v-190l-658 -309l658 -310v-188z" />
    <glyph glyph-name="equal" unicode="=" horiz-adv-x="1439" 
d="M227 377v174h987v-174h-987zM227 778v176h987v-176h-987z" />
    <glyph glyph-name="greater" unicode="&#x3e;" horiz-adv-x="1124" 
d="M152 123v188l655 310l-655 309v190l864 -403v-191z" />
    <glyph glyph-name="question" unicode="?" horiz-adv-x="1128" 
d="M82 1040c13.333 114.667 59.833 206.166 139.5 274.499s181.834 102.5 306.501 102.5c134 0 245.333 -40.833 334 -122.5s133 -185.5 133 -311.5c0 -113.333 -37.667 -206.5 -113 -279.5s-176 -114.167 -302 -123.5l-9 -174h-147l-16 307h112
c83.333 0 152.666 25.333 207.999 76s83 115.334 83 194.001c0 77.333 -25.5 141.333 -76.5 192s-116.833 76 -197.5 76c-67.333 0 -125.833 -19.5 -175.5 -58.5s-80.167 -89.833 -91.5 -152.5h-188zM373 99.999c0 32.667 11.833 60.334 35.5 83.001s52.167 34 85.5 34
c34 0 62.833 -11.333 86.5 -34s35.5 -50.334 35.5 -83.001c0 -34 -11.833 -62.167 -35.5 -84.5s-52.5 -33.5 -86.5 -33.5c-33.333 0 -61.833 11.333 -85.5 34s-35.5 50.667 -35.5 84z" />
    <glyph glyph-name="at" unicode="@" horiz-adv-x="2035" 
d="M145 489c0 118.667 23.1699 230.833 69.5029 336.5s109 196 188 271s172.667 134.167 281 177.5s222.5 65 342.5 65c120.667 0 234.334 -21.167 341.001 -63.5s198.334 -100 275.001 -173s137.167 -161.167 181.5 -264.5s66.5 -214 66.5 -332
c0 -63.333 -6.5 -121 -19.5 -173s-32.667 -98 -59 -138s-61.333 -71.167 -105 -93.5s-94.5 -33.5 -152.5 -33.5c-129.333 0 -218 45.667 -266 137c-36.667 -44.667 -81.334 -79.5 -134.001 -104.5s-110.334 -37.5 -173.001 -37.5c-114.667 0 -211.334 39.667 -290.001 119
s-118 177.666 -118 294.999c0 119.333 39.167 218.5 117.5 297.5s175.166 118.5 290.499 118.5c102 0 190 -32 264 -96v71h168v-454c0 -136.667 47 -205 141 -205c64 0 112.833 26.167 146.5 78.5s50.5 123.833 50.5 214.5c0 130.667 -32 249.834 -96 357.501
s-151.5 192 -262.5 253s-233.167 91.5 -366.5 91.5s-256.5 -31.5 -369.5 -94.5s-202.5 -149.333 -268.5 -259s-99 -230.167 -99 -361.5c0 -132.667 33.167 -254 99.5 -364s155.166 -195.833 266.499 -257.5s232.333 -92.5 363 -92.5c174 0 329 53 465 159l78 -116
c-154 -118.667 -334.333 -178 -541 -178c-118.667 0 -231.5 21.5 -338.5 64.5s-200 101.667 -279 176s-141.667 164.333 -188 270s-69.5 218.5 -69.5 338.5zM745.003 478.999c0 -79.333 25.834 -143.165 77.501 -191.498s113.5 -72.5 185.5 -72.5c46 0 90.5 11.333 133.5 34
s78.833 57.667 107.5 105c-2.66699 41.333 -4 73.666 -4 96.999v159c-28.667 43.333 -63.834 76.333 -105.501 99s-85.5 34 -131.5 34c-70.667 0 -132.167 -24.333 -184.5 -73s-78.5 -112.334 -78.5 -191.001z" />
    <glyph glyph-name="A" unicode="A" horiz-adv-x="1531" 
d="M53 0l621 1401h184l621 -1401h-209l-156 358h-696l-156 -358h-209zM496 539h540l-270 626z" />
    <glyph glyph-name="B" unicode="B" horiz-adv-x="1431" 
d="M176 0v1393h619c142 0 253.833 -32 335.5 -96s122.5 -151 122.5 -261c0 -74 -19.667 -139.5 -59 -196.5s-93.333 -96.5 -162 -118.5c94.667 -18 166.5 -57.333 215.5 -118s73.5 -134.667 73.5 -222c0 -114 -46 -206 -138 -276s-214.667 -105 -368 -105h-639zM371 172
h435.998c100.667 0 179.334 21.5 236.001 64.5s85 98.5 85 166.5c0 66.667 -27.667 118.167 -83 154.5s-132.666 54.5 -231.999 54.5h-442v-440zM370.998 786h389c98 0 173.667 20 227 60s80 95.333 80 166c0 64.667 -25.667 115.667 -77 153s-123.333 56 -216 56h-403v-435
z" />
    <glyph glyph-name="C" unicode="C" horiz-adv-x="1642" 
d="M125 696c0 101.333 19.001 197.166 57.001 287.499s89.5 167.333 154.5 231s142.167 114 231.5 151s183.333 55.5 282 55.5c170.667 0 316.334 -49.5 437.001 -148.5s197.667 -230.167 231 -393.5h-201c-28.667 110.667 -83.834 197.334 -165.501 260.001
s-182.167 94 -301.5 94c-150 0 -275.5 -50.833 -376.5 -152.5s-151.5 -229.834 -151.5 -384.501c0 -102 23.167 -194 69.5 -276s109.666 -145.833 189.999 -191.5s169.833 -68.5 268.5 -68.5c119.333 0 219.833 31.333 301.5 94s136.834 149.334 165.501 260.001h201
c-33.333 -163.333 -110.333 -294.666 -231 -393.999s-266.334 -149 -437.001 -149c-98.667 0 -192.667 18.5 -282 55.5s-166.5 87.333 -231.5 151s-116.5 140.667 -154.5 231s-57 186.166 -57 287.499z" />
    <glyph glyph-name="D" unicode="D" horiz-adv-x="1527" 
d="M176 0v1393h504c140.667 0 267.167 -29.333 379.5 -88s200 -140.5 263 -245.5s94.5 -223.167 94.5 -354.5c0 -134.667 -31.5 -255.834 -94.5 -363.501s-150.667 -191.5 -263 -251.5s-238.833 -90 -379.5 -90h-504zM371 180.001l309 0.00195312
c154.667 0 282.834 49.667 384.501 149s152.5 224.666 152.5 375.999c0 145.333 -50.833 266.166 -152.5 362.499s-229.834 144.5 -384.501 144.5h-309v-1032z" />
    <glyph glyph-name="E" unicode="E" horiz-adv-x="1280" 
d="M176 0v1393h989v-181h-794v-432h712v-180h-712v-420h794v-180h-989z" />
    <glyph glyph-name="F" unicode="F" horiz-adv-x="1212" 
d="M176 0v1393h973v-181h-778v-469h690v-180h-690v-563h-195z" />
    <glyph glyph-name="G" unicode="G" horiz-adv-x="1691" 
d="M125 684c0 104.667 19.1699 202.834 57.5029 294.501s90.166 169.667 155.499 234s143 115.166 233 152.499s185 56 285 56c102 0 198 -18.5 288 -55.5s169 -93.667 237 -170s115 -166.833 141 -271.5h-209c-34 103.333 -93.333 180.666 -178 231.999s-177 77 -277 77
c-75.333 0 -145.833 -13.5 -211.5 -40.5s-122.334 -64.167 -170.001 -111.5s-85.334 -105.333 -113.001 -174s-41.5 -143 -41.5 -223c0 -94.667 21.833 -181.834 65.5 -261.501s105.834 -143.334 186.501 -191.001s171.334 -71.5 272.001 -71.5
c127.333 0 232.5 37.333 315.5 112s136.167 172.334 159.5 293.001h-490v180h699v-49v-696h-156l-14 256c-50.667 -90 -119.334 -160 -206.001 -210s-189.334 -75 -308.001 -75c-134.667 0 -257.5 32.333 -368.5 97s-197.5 151.334 -259.5 260.001s-93 227.334 -93 356.001z
" />
    <glyph glyph-name="H" unicode="H" horiz-adv-x="1511" 
d="M176 0v1393h195v-617h768v617h196v-1393h-196v596h-768v-596h-195z" />
    <glyph glyph-name="I" unicode="I" horiz-adv-x="546" 
d="M176 0v1393h195v-1393h-195z" />
    <glyph glyph-name="J" unicode="J" horiz-adv-x="1220" 
d="M35 420h198c8.66699 -84 42.167 -149.667 100.5 -197s132.166 -71 221.499 -71c92 0 166.5 32.167 223.5 96.5s85.5 152.833 85.5 265.5v879h199v-883c0 -170 -46.667 -302.667 -140 -398s-220 -143 -380 -143c-140.667 0 -257.167 40.333 -349.5 121
s-145.166 190.667 -158.499 330z" />
    <glyph glyph-name="K" unicode="K" horiz-adv-x="1447" 
d="M176 0v1393h195v-781l735 781h235l-579 -627l647 -766h-248l-534 621l-256 -277v-344h-195z" />
    <glyph glyph-name="L" unicode="L" horiz-adv-x="1183" 
d="M176 0v1393h195v-1217h755v-176h-950z" />
    <glyph glyph-name="M" unicode="M" horiz-adv-x="1738" 
d="M176 0v1393h143l549 -904l549 904h146v-1393h-197v961l-434 -713h-125l-438 719l4 -967h-197z" />
    <glyph glyph-name="N" unicode="N" horiz-adv-x="1558" 
d="M176 0v1393h154l856 -1049v1049h196v-1393h-159l-852 1032v-1032h-195z" />
    <glyph glyph-name="O" unicode="O" horiz-adv-x="1699" 
d="M125 696c0 131.333 32.333 252.666 97 363.999s152.667 199.333 264 264s232.666 97 363.999 97s252.666 -32.333 363.999 -97s199.333 -152.667 264 -264s97 -232.666 97 -363.999s-32.333 -252.666 -97 -363.999s-152.667 -199.333 -264 -264
s-232.666 -97 -363.999 -97s-252.666 32.333 -363.999 97s-199.333 152.667 -264 264s-97 232.666 -97 363.999zM322 696c0 -98 22.999 -188.5 68.999 -271.5s109.5 -148.833 190.5 -197.5s170.5 -73 268.5 -73c97.333 0 186.333 24.333 267 73s144 114.5 190 197.5
s69 173.5 69 271.5s-23 188.5 -69 271.5s-109.333 149 -190 198s-169.667 73.5 -267 73.5s-186.666 -24.5 -267.999 -73.5s-145 -115 -191 -198s-69 -173.5 -69 -271.5z" />
    <glyph glyph-name="P" unicode="P" horiz-adv-x="1290" 
d="M176 0l0.000976562 1393h504c163.333 0 294.666 -43.167 393.999 -129.5s149 -200.166 149 -341.499c0 -147.333 -52.167 -265.833 -156.5 -355.5s-241.5 -134.5 -411.5 -134.5h-284v-432h-195zM371.001 611.999h303c106 0 191.833 28.667 257.5 86s98.5 132 98.5 224
c0 86.667 -32.667 156.667 -98 210s-151.333 80 -258 80h-303v-600z" />
    <glyph glyph-name="Q" unicode="Q" horiz-adv-x="1699" 
d="M125 696c0 131.333 32.333 252.667 97 364s152.667 199.333 264 264s232.666 97 363.999 97s252.666 -32.333 363.999 -97s199.333 -152.667 264 -264s97 -232.666 97 -363.999c0 -120 -27 -231.667 -81 -335s-128 -188.333 -222 -255l248 -301l-146 -133l-280 342
c-75.333 -28.667 -156.666 -43 -243.999 -43c-131.333 0 -252.666 32.333 -363.999 97s-199.333 152.667 -264 264s-97 232.666 -97 363.999zM322 696.001c0 -98 22.999 -188.5 68.999 -271.5s109.5 -148.833 190.5 -197.5s170.5 -73 268.5 -73
c97.333 0 186.333 24.333 267 73s144 114.5 190 197.5s69 173.5 69 271.5s-23 188.5 -69 271.5s-109.333 149 -190 198s-169.667 73.5 -267 73.5s-186.666 -24.5 -267.999 -73.5s-145 -115 -191 -198s-69 -173.5 -69 -271.5z" />
    <glyph glyph-name="R" unicode="R" horiz-adv-x="1390" 
d="M176 0v1393h545c158 0 286.5 -41.333 385.5 -124s148.5 -193 148.5 -331c0 -104.667 -29.333 -194.5 -88 -269.5s-139 -127.833 -241 -158.5l401 -510h-240l-380 481h-336v-481h-195zM371 662l344 -0.000976562c101.333 0 184.666 24.833 249.999 74.5
s98 116.834 98 201.501c0 83.333 -32.667 149.833 -98 199.5s-148.666 74.5 -249.999 74.5h-344v-550z" />
    <glyph glyph-name="S" unicode="S" horiz-adv-x="1359" 
d="M113 451l193.998 0.000976562c16 -96 58.833 -171 128.5 -225s162.167 -81 277.5 -81c98 0 175.333 20.833 232 62.5s85 97.5 85 167.5c0 110 -77.667 179 -233 207l-236 45c-129.333 24 -226.5 68.333 -291.5 133s-97.5 147.334 -97.5 248.001
c0 124 46.667 224.167 140 300.5s216 114.5 368 114.5c68.667 0 133.334 -8 194.001 -24s116.834 -40.333 168.501 -73s94.5 -77.167 128.5 -133.5s55.333 -121.5 64 -195.5h-195c-14 81.333 -49.833 144.666 -107.5 189.999s-137.834 68 -240.501 68
c-94.667 0 -170.5 -21 -227.5 -63s-85.5 -98.667 -85.5 -170c0 -110 85.333 -181 256 -213l194 -39c132 -25.333 232 -67.833 300 -127.5s102 -140.834 102 -243.501c0 -128.667 -48.5 -232.167 -145.5 -310.5s-224.833 -117.5 -383.5 -117.5
c-169.333 0 -306.166 42.5 -410.499 127.5s-163.833 202.5 -178.5 352.5z" />
    <glyph glyph-name="T" unicode="T" horiz-adv-x="1312" 
d="M57 1212v181h1198v-181h-501v-1212h-195v1212h-502z" />
    <glyph glyph-name="U" unicode="U" horiz-adv-x="1519" 
d="M156 604v789h194v-789c0 -132 37.833 -240.333 113.5 -325s174.5 -127 296.5 -127s220.667 42.333 296 127s113 193 113 325v789h195v-789c0 -190.667 -55.333 -344.167 -166 -460.5s-256.667 -174.5 -438 -174.5s-327.333 58.167 -438 174.5s-166 269.833 -166 460.5z
" />
    <glyph glyph-name="V" unicode="V" horiz-adv-x="1552" 
d="M49 1393h215l512 -1139l514 1139h213l-637 -1401h-180z" />
    <glyph glyph-name="W" unicode="W" horiz-adv-x="2193" 
d="M76 1393h207l358 -1100l373 1100h168l370 -1100l361 1100h205l-469 -1401h-193l-358 1052l-361 -1052h-190z" />
    <glyph glyph-name="X" unicode="X" horiz-adv-x="1363" 
d="M41 0l510 690l-496 703h238l389 -547l387 547h240l-498 -703l512 -690h-227l-414 545l-414 -545h-227z" />
    <glyph glyph-name="Y" unicode="Y" horiz-adv-x="1386" 
d="M27 1393h217l448 -721l451 721h217l-567 -910v-483h-199v483z" />
    <glyph glyph-name="Z" unicode="Z" horiz-adv-x="1339" 
d="M109 0v96l825 1118h-799v179h1082v-97l-803 -1118h811v-178h-1116z" />
    <glyph glyph-name="bracketleft" unicode="[" horiz-adv-x="714" 
d="M154 -264v1759h477v-180h-289v-1399h289v-180h-477z" />
    <glyph glyph-name="backslash" unicode="\" horiz-adv-x="827" 
d="M57 1495h181l532 -1823h-180z" />
    <glyph glyph-name="bracketright" unicode="]" horiz-adv-x="714" 
d="M66 -84h288v1399h-288v180h477v-1759h-477v180z" />
    <glyph glyph-name="asciicircum" unicode="^" horiz-adv-x="825" 
d="M55 909l273 484h170l272 -484h-174l-182 342l-185 -342h-174z" />
    <glyph glyph-name="underscore" unicode="_" horiz-adv-x="1314" 
d="M76 -233h1163v-166h-1163v166z" />
    <glyph glyph-name="grave" unicode="`" horiz-adv-x="1228" 
d="M408 1446h208l160 -299h-172z" />
    <glyph glyph-name="a" unicode="a" 
d="M109 477c0 92 21.667 176.667 65 254s102.333 138.333 177 183s156.334 67 245.001 67c125.333 0 231.666 -36.333 318.999 -109v84h189v-956h-189v84c-87.333 -72.667 -193.666 -109 -318.999 -109c-88.667 0 -170.334 22.333 -245.001 67s-133.667 105.5 -177 182.5
s-65 161.167 -65 252.5zM297 477c0 -91.333 31.499 -170.5 94.499 -237.5s140.167 -100.5 231.5 -100.5c124.667 0 222 51.333 292 154v371c-69.333 102 -166.666 153 -291.999 153c-92 0 -169.333 -33.333 -232 -100s-94 -146.667 -94 -240z" />
    <glyph glyph-name="b" unicode="b" 
d="M156 0v1454h188v-582c87.333 72.667 194 109 320 109c88.667 0 170.5 -22.333 245.5 -67s134.333 -105.5 178 -182.5s65.5 -161.167 65.5 -252.5s-21.833 -175.5 -65.5 -252.5s-103 -137.833 -178 -182.5s-156.833 -67 -245.5 -67c-126 0 -232.667 36.333 -320 109v-86
h-188zM344 295c72.667 -104 170.333 -156 293 -156c92 0 169.667 33.667 233 101s95 147 95 239s-31.667 171.333 -95 238s-141 100 -233 100c-125.333 0 -223 -51.667 -293 -155v-367z" />
    <glyph glyph-name="c" unicode="c" horiz-adv-x="1179" 
d="M109 477c0 143.333 47.668 263.165 143.001 359.498s215.333 144.5 360 144.5c118 0 219.667 -33.833 305 -101.5s136.666 -155.5 153.999 -263.5h-192c-13.333 58.667 -44.166 105.5 -92.499 140.5s-106.5 52.5 -174.5 52.5c-94.667 0 -170.834 -31.833 -228.501 -95.5
s-86.5 -142.5 -86.5 -236.5c0 -93.333 29 -171.666 87 -234.999s134 -95 228 -95c68 0 126.167 17.333 174.5 52s79.166 81 92.499 139h192c-17.333 -107.333 -68.666 -194.666 -153.999 -261.999s-187 -101 -305 -101c-95.333 0 -181.5 22 -258.5 66s-137 104.333 -180 181
s-64.5 161.667 -64.5 255z" />
    <glyph glyph-name="d" unicode="d" 
d="M109 479c0 91.333 21.667 175.5 65 252.5s102.333 137.833 177 182.5s156.334 67 245.001 67c127.333 0 233.666 -36.333 318.999 -109v582h189v-1454h-189v86c-85.333 -72.667 -191.666 -109 -318.999 -109c-88.667 0 -170.334 22.333 -245.001 67
s-133.667 105.5 -177 182.5s-65 161.167 -65 252.5zM297 479c0 -92.667 31.332 -172.5 93.999 -239.5s140 -100.5 232 -100.5c122.667 0 220 51.333 292 154v371c-69.333 102 -166.666 153 -291.999 153c-92 0 -169.333 -33.333 -232 -100s-94 -146 -94 -238z" />
    <glyph glyph-name="e" unicode="e" horiz-adv-x="1183" 
d="M109 477c0 94.667 20.6631 180.167 61.9961 256.5s100.333 136.666 177 180.999s164 66.5 262 66.5c88.667 0 168.5 -21 239.5 -63s126.5 -100.5 166.5 -175.5s60.333 -160.167 61 -255.5c0 -36 -1.33301 -63 -4 -81l-4 2v-2h-774c14 -79.333 48.833 -144.333 104.5 -195
s127.834 -76 216.501 -76c56 0 104 10.5 144 31.5s70 50.167 90 87.5h203c-27.333 -85.333 -81.166 -153.166 -161.499 -203.499s-174.166 -75.5 -281.499 -75.5c-147.333 0 -267.666 47.833 -360.999 143.5s-140 215.167 -140 358.5zM294.996 547h591.999
c-8 83.333 -37.167 149.5 -87.5 198.5s-116.166 73.5 -197.499 73.5c-84 0 -152.833 -25.333 -206.5 -76s-87.167 -116 -100.5 -196z" />
    <glyph glyph-name="f" unicode="f" horiz-adv-x="856" 
d="M8 799v157h275v211c0 115.333 33.333 208.333 100 279s154.667 106 264 106c72 0 141.667 -9.33301 209 -28l-27 -164c-61.333 12 -110.333 18 -147 18c-63.333 0 -114.333 -19.333 -153 -58s-58 -89.667 -58 -153v-211h381v-157h-381v-799h-188v799h-275z" />
    <glyph glyph-name="g" unicode="g" horiz-adv-x="1265" 
d="M106 498c0 141.333 46.3301 259.167 138.997 353.5s207 141.5 343 141.5c128.667 0 237.667 -37.333 327 -112v75h189v-970c0 -144.667 -44.5 -260 -133.5 -346s-205.5 -129 -349.5 -129c-128.667 0 -237.5 34.833 -326.5 104.5s-140.833 160.167 -155.5 271.5h191
c12 -62.667 43.833 -112.667 95.5 -150s116.834 -56 195.501 -56c88.667 0 159.834 27 213.501 81s80.5 128.667 80.5 224v141c-90.667 -74 -199.667 -111 -327 -111c-88 0 -169.167 22 -243.5 66s-132.666 103 -174.999 177s-63.5 153.667 -63.5 239zM294.997 498.001
c0 -84 30.667 -158.333 92 -223s137 -97 227 -97c127.333 0 227.666 53.333 300.999 160v334c-71.333 104.667 -171.666 157 -300.999 157c-92.667 0 -169 -31.5 -229 -94.5s-90 -141.833 -90 -236.5z" />
    <glyph glyph-name="h" unicode="h" horiz-adv-x="1206" 
d="M156 0l-0.000976562 1454h188v-594c91.333 84.667 199.333 127 324 127s224.667 -40.5 300 -121.5s113 -189.167 113 -324.5v-541h-186v530c0 90 -23.667 160.333 -71 211s-111.666 76 -192.999 76c-51.333 0 -102 -14 -152 -42s-95 -67.333 -135 -118v-657h-188z" />
    <glyph glyph-name="i" unicode="i" horiz-adv-x="544" 
d="M150 1313c0 34 11.667 62.333 35 85s52.333 34 87 34c34 0 63 -11.333 87 -34s36 -51 36 -85s-12 -62.333 -36 -85s-53 -34 -87 -34c-34.667 0 -63.667 11.333 -87 34s-35 51 -35 85zM180 0v956h187v-956h-187z" />
    <glyph glyph-name="j" unicode="j" horiz-adv-x="530" 
d="M-47 -215c80 4 135.166 22.668 165.499 56.001s45.5 91 45.5 173v942h188v-919c0 -71.333 -6.16699 -131.833 -18.5 -181.5s-33.166 -92.334 -62.499 -128.001s-68.833 -62.167 -118.5 -79.5s-111.5 -26.333 -185.5 -27zM134.999 1313c0 34 12 62.333 36 85s53 34 87 34
s62.667 -11.333 86 -34s35 -51 35 -85s-11.667 -62.333 -35 -85s-52 -34 -86 -34s-63 11.333 -87 34s-36 51 -36 85z" />
    <glyph glyph-name="k" unicode="k" horiz-adv-x="1165" 
d="M164 0v1454h188v-967l479 469h240l-399 -399l465 -557h-244l-354 426l-187 -186v-240h-188z" />
    <glyph glyph-name="l" unicode="l" horiz-adv-x="499" 
d="M156 0v1454h188v-1454h-188z" />
    <glyph glyph-name="m" unicode="m" horiz-adv-x="1857" 
d="M156 0l0.000976562 955.998h188v-86c38 38.667 79.667 67.834 125 87.501s99.333 29.5 162 29.5c67.333 0 128.666 -13.833 183.999 -41.5s101 -67.167 137 -118.5c52 54 107.167 94.167 165.5 120.5s126.833 39.5 205.5 39.5c117.333 0 213.833 -40.833 289.5 -122.5
s113.5 -189.5 113.5 -323.5v-541h-186v530c0 90.667 -22.333 161.167 -67 211.5s-107 75.5 -187 75.5c-106 0 -193.333 -52.667 -262 -158c8 -37.333 12 -76.666 12 -117.999v-541h-188v530c0 90.667 -22.333 161.167 -67 211.5s-107 75.5 -187 75.5
c-96 0 -179.333 -51 -250 -153v-664h-188z" />
    <glyph glyph-name="n" unicode="n" horiz-adv-x="1206" 
d="M156 0l-0.000976562 956h188v-96c91.333 84.667 199.333 127 324 127s224.667 -40.5 300 -121.5s113 -189.167 113 -324.5v-541h-186v530c0 90 -23.667 160.333 -71 211s-111.666 76 -192.999 76c-51.333 0 -102 -14 -152 -42s-95 -67.333 -135 -118v-657h-188z" />
    <glyph glyph-name="o" unicode="o" horiz-adv-x="1232" 
d="M109 477c0 144.667 48.5 264.833 145.5 360.5s218.167 143.5 363.5 143.5c144 0 264.667 -48 362 -144s146 -216 146 -360s-48.667 -264.667 -146 -362s-218 -146 -362 -146c-145.333 0 -266.5 48.5 -363.5 145.5s-145.5 217.833 -145.5 362.5zM297 476.999
c0 -94 30.333 -173.5 91 -238.5s137.334 -97.5 230.001 -97.5c91.333 0 167.166 32.5 227.499 97.5s90.5 144.5 90.5 238.5c0 92.667 -30.167 171.167 -90.5 235.5s-136.166 96.5 -227.499 96.5c-92.667 0 -169.334 -32 -230.001 -96s-91 -142.667 -91 -236z" />
    <glyph glyph-name="p" unicode="p" 
d="M156 -498l0.000976562 1454h188v-86c86.667 74 193.334 111 320.001 111c135.333 0 250.666 -49 345.999 -147s143 -217 143 -357c0 -91.333 -21.833 -175.5 -65.5 -252.5s-103 -137.833 -178 -182.5s-156.833 -67 -245.5 -67c-126.667 0 -233.334 37 -320.001 111v-584
h-188zM344.001 295c70.667 -104 168.333 -156 293 -156c92 0 169.667 33.5 233 100.5s95 146.167 95 237.5c0 93.333 -31.667 173.333 -95 240s-141 100 -233 100c-125.333 0 -223 -51.667 -293 -155v-367z" />
    <glyph glyph-name="q" unicode="q" 
d="M109 477c0 92 21.667 176.667 65 254s102.333 138.333 177 183s156.334 67 245.001 67c125.333 0 231.666 -36.333 318.999 -109v84h189v-1454h-189v582c-87.333 -72.667 -193.666 -109 -318.999 -109c-88.667 0 -170.334 22.333 -245.001 67s-133.667 105.5 -177 182.5
s-65 161.167 -65 252.5zM297 477c0 -91.333 31.499 -170.5 94.499 -237.5s140.167 -100.5 231.5 -100.5c124.667 0 222 51.333 292 154v371c-69.333 102 -166.666 153 -291.999 153c-92 0 -169.333 -33.333 -232 -100s-94 -146.667 -94 -240z" />
    <glyph glyph-name="r" unicode="r" horiz-adv-x="761" 
d="M156 0v956h188v-141c94 109.333 214.333 164 361 164v-178c-152.667 -4 -273 -67 -361 -189v-612h-188z" />
    <glyph glyph-name="s" unicode="s" horiz-adv-x="1062" 
d="M90 311l176.002 -1.99707c25.333 -124 117 -186 275 -186c68 0 122.833 12.5 164.5 37.5s62.5 58.833 62.5 101.5c0 33.333 -12.5 60.666 -37.5 81.999s-59.5 35.666 -103.5 42.999l-213 37c-190 31.333 -285 120 -285 266c0 90 36.167 161.667 108.5 215
s167.166 80 284.499 80c38 0 75 -3 111 -9s72.167 -16.5 108.5 -31.5s68.333 -34 96 -57s51 -52.833 70 -89.5s30.5 -78 34.5 -124l-174 -2c-6.66699 54.667 -31.834 96 -75.501 124s-99.834 42 -168.501 42c-65.333 0 -116.5 -12.167 -153.5 -36.5
s-55.5 -55.833 -55.5 -94.5c0 -68 54 -111 162 -129l185 -31c190.667 -34 286 -124.333 286 -271c0 -96 -38 -171.167 -114 -225.5s-175.667 -81.5 -299 -81.5s-225.166 28.167 -305.499 84.5s-126.833 142.166 -139.5 257.499z" />
    <glyph glyph-name="t" unicode="t" horiz-adv-x="897" 
d="M8 799l-0.000976562 157.001h236v353h188v-353h359v-157h-359v-443c0 -74 16.5 -128 49.5 -162s82.833 -51 149.5 -51c48.667 0 102 8.33301 160 25l28 -162c-81.333 -24.667 -155.666 -37 -222.999 -37c-112 0 -198.667 33.667 -260 101s-92 162.666 -92 285.999v443
h-236z" />
    <glyph glyph-name="u" unicode="u" horiz-adv-x="1206" 
d="M125 418v538h188v-528c0 -90.667 23.5 -161.167 70.5 -211.5s110.833 -75.5 191.5 -75.5c50.667 0 101.5 13.833 152.5 41.5s95.833 66.5 134.5 116.5v657h189v-956h-189v94c-92 -83.333 -199.667 -125 -323 -125c-124 0 -224 40.833 -300 122.5s-114 190.5 -114 326.5z
" />
    <glyph glyph-name="v" unicode="v" horiz-adv-x="1177" 
d="M57 956h199l334 -716l332 716h200l-448 -956h-168z" />
    <glyph glyph-name="w" unicode="w" horiz-adv-x="1609" 
d="M57 956h203l238 -659l225 659h162l225 -659l240 659h202l-358 -956h-168l-221 653l-221 -653h-168z" />
    <glyph glyph-name="x" unicode="x" horiz-adv-x="1114" 
d="M53 0l377 481l-373 477h230l270 -340l268 340h232l-375 -477l379 -481h-225l-279 350l-278 -350h-226z" />
    <glyph glyph-name="y" unicode="y" horiz-adv-x="1243" 
d="M47 958h203l377 -780l348 780h199l-648 -1454h-198l202 455z" />
    <glyph glyph-name="z" unicode="z" horiz-adv-x="1013" 
d="M86 0v92l571 707h-553v157h824v-104l-563 -694h563v-158h-842z" />
    <glyph glyph-name="braceleft" unicode="{" horiz-adv-x="727" 
d="M72 541v166c72 0 122 12.167 150 36.5s42 72.166 42 143.499v272c0 109.333 34.833 197.833 104.5 265.5s161.167 101.5 274.5 101.5v-183c-57.333 0 -103.333 -17 -138 -51s-52 -78.333 -52 -133v-276c0 -76 -10.667 -133.667 -32 -173s-61.333 -68.333 -120 -87
c58.667 -18.667 98.667 -47.667 120 -87s32 -96.333 32 -171v-277c0 -55.333 17.333 -99.833 52 -133.5s80.667 -50.5 138 -50.5v-183c-113.333 0 -204.833 33.5 -274.5 100.5s-104.5 155.833 -104.5 266.5v270c0 72.667 -14 121.334 -42 146.001s-78 37 -150 37z" />
    <glyph glyph-name="bar" unicode="|" horiz-adv-x="645" 
d="M233 -328v1823h179v-1823h-179z" />
    <glyph glyph-name="braceright" unicode="}" horiz-adv-x="745" 
d="M102 -96c58.667 0 105.501 16.833 140.501 50.5s52.5 78.167 52.5 133.5v277c0 75.333 10.333 132.5 31 171.5s60 67.833 118 86.5c-58 18.667 -97.333 47.667 -118 87s-31 97 -31 173v276c0 54.667 -17.667 99 -53 133s-82 51 -140 51v183
c113.333 0 205.166 -33.833 275.499 -101.5s105.5 -156.167 105.5 -265.5v-272c0 -71.333 14 -119.166 42 -143.499s77.667 -36.5 149 -36.5v-166c-71.333 0 -121 -12.333 -149 -37s-42 -73.334 -42 -146.001v-270c0 -110 -35 -198.667 -105 -266s-162 -101 -276 -101v183z
" />
    <glyph glyph-name="asciitilde" unicode="~" horiz-adv-x="923" 
d="M76 604c0 48 8.00098 89.999 24.001 125.999s36.667 63.5 62 82.5s53.5 32.5 84.5 40.5s62 9.5 93 4.5s59.167 -15.167 84.5 -30.5l123 -79c38 -22 70 -25.5 96 -10.5s39 42.167 39 81.5h166c0 -60 -12 -110.5 -36 -151.5s-53.833 -69.167 -89.5 -84.5
s-73.5 -22.166 -113.5 -20.499s-76.333 12.167 -109 31.5l-123 80c-36.667 22 -68.334 25.333 -95.001 10s-40 -42 -40 -80h-166z" />
    <glyph glyph-name="uni00A0" unicode="&#xa0;" horiz-adv-x="546" 
 />
    <glyph glyph-name="exclamdown" unicode="&#xa1;" horiz-adv-x="555" 
d="M156 864c0 34 11.667 62.333 35 85s51.666 34 84.999 34c34 0 63 -11.333 87 -34s36 -51 36 -85c0 -32.667 -12 -60.167 -36 -82.5s-53 -33.5 -87 -33.5c-33.333 0 -61.666 11.167 -84.999 33.5s-35 49.833 -35 82.5zM178 -428l15 989h167l17 -989h-199z" />
    <glyph glyph-name="cent" unicode="&#xa2;" horiz-adv-x="1179" 
d="M109 477c0 128 38.6689 238.168 116.002 330.501s177.666 148.166 300.999 167.499v252h172v-252c98.667 -16.667 181.667 -57.167 249 -121.5s108.666 -143.5 123.999 -237.5h-192c-13.333 58.667 -44.166 105.5 -92.499 140.5s-106.5 52.5 -174.5 52.5
c-94.667 0 -170.834 -31.833 -228.501 -95.5s-86.5 -142.5 -86.5 -236.5c0 -93.333 29 -171.666 87 -234.999s134 -95 228 -95c68 0 126.167 17.333 174.5 52s79.166 81 92.499 139h192c-15.333 -93.333 -56.833 -171.833 -124.5 -235.5s-150.5 -103.834 -248.5 -120.501
v-226h-172v226c-123.333 19.333 -223.666 75 -300.999 167s-116 201.333 -116 328z" />
    <glyph glyph-name="sterling" unicode="&#xa3;" horiz-adv-x="1275" 
d="M80 0l-0.000976562 164h141v409h-141v164h141v207c0 143.333 45.167 259 135.5 347s209.166 132 356.499 132c134.667 0 245.5 -37.167 332.5 -111.5s137.833 -174.166 152.5 -299.499h-190c-12.667 75.333 -45.167 134.666 -97.5 177.999s-118.166 65 -197.499 65
c-91.333 0 -164.666 -28.333 -219.999 -85s-83 -132 -83 -226v-207h454v-164h-454v-409h770v-164h-1100z" />
    <glyph glyph-name="yen" unicode="&#xa5;" horiz-adv-x="1386" 
d="M27 1393h217l448 -721l451 721h217l-514 -826h317v-139h-370v-121h370v-141h-370v-166h-199v166h-371v141h371v121h-371v139h318z" />
    <glyph glyph-name="brokenbar" unicode="&#xa6;" horiz-adv-x="645" 
d="M233 -328v807h179v-807h-179zM233 688v807h179v-807h-179z" />
    <glyph glyph-name="section" unicode="&#xa7;" horiz-adv-x="1112" 
d="M76 625c0 118 57.333 203.328 172 255.995c-53.333 57.333 -80 126 -80 206c0 100.667 36.333 180.167 109 238.5s166 87.5 280 87.5c120 0 218.333 -32.5 295 -97.5s122.334 -152.5 137.001 -262.5h-205c-7.33301 58.667 -30.333 105.334 -69 140.001
s-90.667 52 -156 52c-57.333 0 -104.5 -14.833 -141.5 -44.5s-55.5 -69.5 -55.5 -119.5c0 -40 12.833 -74 38.5 -102s68.834 -56 129.501 -84l224 -104c102 -48 174.5 -97.5 217.5 -148.5s64.5 -110.833 64.5 -179.5c0 -61.333 -15.5 -113.166 -46.5 -155.499
s-72.167 -75.166 -123.5 -98.499c52 -58 78 -127.667 78 -209c0 -100.667 -36.333 -180.167 -109 -238.5s-166 -87.5 -280 -87.5c-120.667 0 -219.167 32.5 -295.5 97.5s-121.833 152.833 -136.5 263.5h205c7.33301 -59.333 30.166 -106 68.499 -140s90.5 -51 156.5 -51
c58 0 105.333 14.333 142 43s55 68.334 55 119.001c0 41.333 -12.833 76.166 -38.5 104.499s-68.834 55.833 -129.501 82.5l-224 104c-102 46.667 -174.5 95.834 -217.5 147.501s-64.5 111.834 -64.5 180.501zM266 626.995c0 -36 13.833 -68 41.5 -96
s72.5 -56.333 134.5 -85l234 -108l39 -21c38.667 7.33301 70.167 23.833 94.5 49.5s36.5 57.167 36.5 94.5c0 35.333 -13.833 67 -41.5 95s-72.5 56.333 -134.5 85l-234 109l-39 20c-38 -6 -69.333 -21.833 -94 -47.5s-37 -57.5 -37 -95.5z" />
    <glyph glyph-name="dieresis" unicode="&#xa8;" horiz-adv-x="1228" 
d="M289 1264c0 34 12 62.5 36 85.5s53.667 34.5 89 34.5s65 -11.5 89 -34.5s36 -51.5 36 -85.5s-12 -62.667 -36 -86s-53.667 -35 -89 -35s-65 11.667 -89 35s-36 52 -36 86zM692 1264c0 34 12 62.5 36 85.5s53.667 34.5 89 34.5s65 -11.5 89 -34.5s36 -51.5 36 -85.5
s-12 -62.667 -36 -86s-53.667 -35 -89 -35s-65 11.667 -89 35s-36 52 -36 86z" />
    <glyph glyph-name="copyright" unicode="&#xa9;" horiz-adv-x="1740" 
d="M125 696c0 102 19.833 198.167 59.5 288.5s93.167 167.5 160.5 231.5s146.666 114.5 237.999 151.5s187 55.5 287 55.5c134 0 258 -31.333 372 -94s204.833 -150 272.5 -262s101.5 -235.667 101.5 -371s-33.833 -259 -101.5 -371s-158.5 -199.333 -272.5 -262
s-238 -94 -372 -94c-100 0 -195.667 18.5 -287 55.5s-170.666 87.5 -237.999 151.5s-120.833 141.167 -160.5 231.5s-59.5 186.5 -59.5 288.5zM258 696c0 -110.667 28 -212.334 84 -305.001s130.667 -165 224 -217s194 -78 302 -78c80.667 0 158.5 15.5 233.5 46.5
s140.333 72.833 196 125.5s100.167 116.334 133.5 191.001s50 153.667 50 237s-16.667 162.333 -50 237s-77.833 138.334 -133.5 191.001s-121 94.5 -196 125.5s-152.833 46.5 -233.5 46.5c-108 0 -208.667 -26 -302 -78s-168 -124.333 -224 -217s-84 -194.334 -84 -305.001
zM504 694c0 102.667 35.5 188.835 106.5 258.502s158.167 104.5 261.5 104.5c87.333 0 163.166 -25 227.499 -75s104.833 -115.333 121.5 -196h-150c-12.667 40 -37.334 72.667 -74.001 98s-79 38 -127 38c-62 0 -114.667 -22.333 -158 -67s-65 -98.334 -65 -161.001
c0 -63.333 21.5 -117.333 64.5 -162s95.833 -67 158.5 -67c48 0 90.333 12.5 127 37.5s61.334 58.167 74.001 99.5h150c-16.667 -80.667 -57.167 -145.834 -121.5 -195.501s-140.166 -74.5 -227.499 -74.5c-104 0 -191.333 34.5 -262 103.5s-106 155.167 -106 258.5z" />
    <glyph glyph-name="ordfeminine" unicode="&#xaa;" horiz-adv-x="722" 
d="M51 938c0 57.333 21.499 101.666 64.499 132.999s103.5 47 181.5 47h219c0 53.333 -11.5 95 -34.5 125s-61.833 45 -116.5 45c-38.667 0 -72.167 -8.66699 -100.5 -26s-44.833 -42 -49.5 -74h-131c4.66699 70 34.5 123.333 89.5 160s118.833 55 191.5 55
c86.667 0 155.334 -25.167 206.001 -75.5s76 -120.166 76 -209.499v-370h-131v40c-62.667 -36.667 -129.667 -55 -201 -55c-80 0 -144 18.167 -192 54.5s-72 86.5 -72 150.5zM177.999 944c0 -29.333 12.666 -53.333 37.999 -72s61.333 -28 108 -28
c69.333 0 133.333 21.667 192 65v111h-227c-35.333 0 -62.666 -7.16699 -81.999 -21.5s-29 -32.5 -29 -54.5z" />
    <glyph glyph-name="guillemotleft" unicode="&#xab;" horiz-adv-x="901" 
d="M78 516l209 307h184l-211 -307l211 -307h-184zM430 516l209 307h184l-209 -307l209 -307h-184z" />
    <glyph glyph-name="uni00AD" unicode="&#xad;" horiz-adv-x="1142" 
d="M227 453h688v188h-688v-188z" />
    <glyph glyph-name="registered" unicode="&#xae;" horiz-adv-x="1146" 
d="M76 934c0 90 22.5 172.333 67.5 247s105.5 133 181.5 175s158.667 63 248 63s172 -21 248 -63s136.667 -100.333 182 -175s68 -157 68 -247s-22.667 -172.167 -68 -246.5s-106 -132.333 -182 -174s-158.667 -62.5 -248 -62.5s-172 20.833 -248 62.5
s-136.5 99.667 -181.5 174s-67.5 156.5 -67.5 246.5zM184 934c0 -106.667 38.333 -197.167 115 -271.5s167.334 -111.5 272.001 -111.5c105.333 0 196.666 37.167 273.999 111.5s116 164.833 116 271.5c0 107.333 -38.667 198.666 -116 273.999s-168.666 113 -273.999 113
c-104.667 0 -195.334 -37.667 -272.001 -113s-115 -166.666 -115 -273.999zM410 721v447.999h188c49.333 0 90.333 -14.167 123 -42.5s49 -65.166 49 -110.499c0 -34 -9.5 -63.167 -28.5 -87.5s-44.833 -41.5 -77.5 -51.5l120 -156h-102l-113 145h-80v-145h-79zM489 939.999
l107 0.000976562c26.667 0 48.334 7.16699 65.001 21.5s25 33.166 25 56.499c0 22.667 -8.33301 41 -25 55s-38.334 21 -65.001 21h-107v-154z" />
    <glyph glyph-name="macron" unicode="&#xaf;" horiz-adv-x="1228" 
d="M328 1188v153h571v-153h-571z" />
    <glyph glyph-name="degree" unicode="&#xb0;" horiz-adv-x="980" 
d="M141 1083c0 97.333 33.167 178.333 99.5 243s149.166 97 248.499 97c100.667 0 184 -32.333 250 -97s99 -145.667 99 -243s-33 -178.333 -99 -243s-149.333 -97 -250 -97c-99.333 0 -182.166 32.333 -248.499 97s-99.5 145.667 -99.5 243zM291 1083
c0 -54.667 19.333 -101 58 -139s85.334 -57 140.001 -57c55.333 0 102.666 19 141.999 57s59 84.333 59 139c0 55.333 -19.667 102.333 -59 141s-86.666 58 -141.999 58c-54.667 0 -101.334 -19.333 -140.001 -58s-58 -85.667 -58 -141z" />
    <glyph glyph-name="plusminus" unicode="&#xb1;" horiz-adv-x="1411" 
d="M227 82v176h957v-176h-957zM227 662v174h389v305h181v-305h387v-174h-387v-304h-181v304h-389z" />
    <glyph glyph-name="uni00B2" unicode="&#xb2;" horiz-adv-x="743" 
d="M86 1169c3.33301 78.667 29.834 141.336 79.501 188.003s118.167 70 205.5 70c88 0 157 -22.833 207 -68.5s75 -101.834 75 -168.501c0 -42.667 -11.667 -84.834 -35 -126.501s-63.333 -91.834 -120 -150.501l-176 -184h346v-121h-576v76l285 295
c50 50 84.667 88.667 104 116s29 56.333 29 87c0 35.333 -12.333 63.5 -37 84.5s-57.334 31.5 -98.001 31.5c-44 0 -78.833 -11.5 -104.5 -34.5s-39.5 -54.5 -41.5 -94.5h-143z" />
    <glyph glyph-name="uni00B3" unicode="&#xb3;" horiz-adv-x="768" 
d="M80 831h142.999c8.66699 -33.333 27 -59.666 55 -78.999s65 -29 111 -29s83.5 10.833 112.5 32.5s43.5 49.167 43.5 82.5c0 37.333 -14.5 66 -43.5 86s-69.833 30 -122.5 30h-68v117h68c40.667 0 73.667 11 99 33s38 50 38 84c0 34.667 -12 62.5 -36 83.5
s-57.667 31.5 -101 31.5c-38.667 0 -69.667 -10 -93 -30s-36.666 -45.667 -39.999 -77h-144c6 72 33.667 129 83 171s114 63 194 63c84 0 150.667 -22.333 200 -67s74 -102.334 74 -173.001c0 -74.667 -29.333 -132 -88 -172c78 -36.667 117 -96.667 117 -180
c0 -69.333 -27.167 -127 -81.5 -173s-125.5 -69 -213.5 -69c-85.333 0 -154.833 21.167 -208.5 63.5s-86.5 99.5 -98.5 171.5z" />
    <glyph glyph-name="acute" unicode="&#xb4;" horiz-adv-x="1228" 
d="M504 1147l160 299h208l-196 -299h-172z" />
    <glyph glyph-name="paragraph" unicode="&#xb6;" horiz-adv-x="1540" 
d="M63 932c0 90 22.5 170.334 67.5 241.001s106.167 125 183.5 163s163.666 57 258.999 57h811v-1721h-194v1553h-242v-1553h-194v783h-181c-95.333 0 -181.666 19.5 -258.999 58.5s-138.5 95.167 -183.5 168.5s-67.5 156.666 -67.5 249.999zM254 932.001
c0 -89.333 30 -161.833 90 -217.5s136.333 -83.5 229 -83.5h181v594h-181c-92.667 0 -169 -27.167 -229 -81.5s-90 -124.833 -90 -211.5z" />
    <glyph glyph-name="periodcentered" unicode="&#xb7;" horiz-adv-x="395" 
d="M76 545c0 33.333 11.833 61.168 35.5 83.501s52.167 33.5 85.5 33.5c34.667 0 63.667 -11 87 -33s35 -50 35 -84s-11.667 -62 -35 -84s-52.333 -33 -87 -33c-33.333 0 -61.833 11.167 -85.5 33.5s-35.5 50.166 -35.5 83.499z" />
    <glyph glyph-name="cedilla" unicode="&#xb8;" horiz-adv-x="1228" 
d="M446 -436l93 307h186l-115 -307h-164z" />
    <glyph glyph-name="uni00B9" unicode="&#xb9;" horiz-adv-x="657" 
d="M61 614v121h226v522l-215 -61v125l274 86h78v-672h213v-121h-576z" />
    <glyph glyph-name="ordmasculine" unicode="&#xba;" horiz-adv-x="794" 
d="M59 1071c0 95.333 32.333 175.166 97 239.499s145 96.5 241 96.5s176.333 -32.167 241 -96.5s97 -144.166 97 -239.499c0 -98 -32.167 -179.5 -96.5 -244.5s-144.833 -97.5 -241.5 -97.5s-177.167 32.5 -241.5 97.5s-96.5 146.5 -96.5 244.5zM193 1071
c0 -62 18.999 -114 56.999 -156s87 -63 147 -63c58.667 0 107.167 21 145.5 63s57.5 94 57.5 156c0 59.333 -19.167 109.666 -57.5 150.999s-86.833 62 -145.5 62c-59.333 0 -108.166 -20.667 -146.499 -62s-57.5 -91.666 -57.5 -150.999z" />
    <glyph glyph-name="guillemotright" unicode="&#xbb;" horiz-adv-x="901" 
d="M78 209l209 307l-209 307h182l211 -307l-211 -307h-182zM430 209l209 307l-209 307h184l209 -307l-209 -307h-184z" />
    <glyph glyph-name="onequarter" unicode="&#xbc;" horiz-adv-x="1832" 
d="M61 594v121h226v522l-215 -61v124l274 86h78v-671h213v-121h-576zM383 0l938 1393h137l-936 -1393h-139zM1061 162v90l244 549h149l-219 -514h264v235h141v-235h117v-125h-117v-162h-141v162h-438z" />
    <glyph glyph-name="onehalf" unicode="&#xbd;" horiz-adv-x="1818" 
d="M61 594v121h226v522l-215 -61v124l274 86h78v-671h213v-121h-576zM391 0l938 1393h137l-938 -1393h-137zM1161 561c3.33301 78.667 29.835 141.337 79.502 188.004s118.167 70 205.5 70c88 0 157.167 -22.833 207.5 -68.5s75.5 -101.834 75.5 -168.501
c0 -42.667 -11.833 -84.834 -35.5 -126.501s-63.834 -91.834 -120.501 -150.501l-176 -184h346v-121h-576v76l285 295c50 50 84.667 88.5 104 115.5s29 55.833 29 86.5c0 35.333 -12.333 63.666 -37 84.999s-57.334 32 -98.001 32c-44 0 -78.667 -11.5 -104 -34.5
s-39 -54.5 -41 -94.5h-144z" />
    <glyph glyph-name="threequarters" unicode="&#xbe;" horiz-adv-x="1806" 
d="M82 819l143 -0.00195312c8.66699 -33.333 27 -59.666 55 -78.999s65 -29 111 -29s83.5 10.667 112.5 32s43.5 48.666 43.5 81.999c0 38 -14.5 67 -43.5 87s-69.833 30 -122.5 30h-68v117h68c40.667 0 73.667 11 99 33s38 50 38 84c0 34.667 -12 62.334 -36 83.001
s-57.667 31 -101 31c-38.667 0 -69.667 -9.83301 -93 -29.5s-36.666 -45.167 -39.999 -76.5h-144c6 72 33.667 128.833 83 170.5s114 62.5 194 62.5c84 0 150.667 -22.167 200 -66.5s74 -101.833 74 -172.5c0 -74.667 -29.333 -132 -88 -172
c37.333 -17.333 66.166 -41.666 86.499 -72.999s30.5 -67.333 30.5 -108c0 -69.333 -27.167 -126.833 -81.5 -172.5s-125.5 -68.5 -213.5 -68.5c-85.333 0 -154.833 21.167 -208.5 63.5s-86.5 99.5 -98.5 171.5zM358 -0.00195312l938 1393h138l-938 -1393h-138z
M1034 161.998v90l244 549h149l-219 -514h265v235h141v-235h117v-125h-117v-162h-141v162h-439z" />
    <glyph glyph-name="questiondown" unicode="&#xbf;" horiz-adv-x="1128" 
d="M133 125c0 113.333 37.6689 206.666 113.002 279.999s176.333 114.333 303 123l6 174h150l14 -307h-111c-84.667 0 -154.334 -25.167 -209.001 -75.5s-82 -115.166 -82 -194.499c0 -78 25.5 -142.167 76.5 -192.5s117.167 -75.5 198.5 -75.5
c67.333 0 125.666 19.5 174.999 58.5s79 89.833 89 152.5h191c-13.333 -114.667 -60 -206.167 -140 -274.5s-182.333 -102.5 -307 -102.5c-134.667 0 -246.167 40.667 -334.5 122s-132.5 185.333 -132.5 312zM512.002 1008c0 33.333 11.833 61.333 35.5 84
s52.167 34 85.5 34c34 0 62.667 -11.167 86 -33.5s35 -50.5 35 -84.5c0 -32.667 -11.667 -60.334 -35 -83.001s-52 -34 -86 -34c-33.333 0 -61.833 11.333 -85.5 34s-35.5 50.334 -35.5 83.001z" />
    <glyph glyph-name="Agrave" unicode="&#xc0;" horiz-adv-x="1531" 
d="M53 0l621 1401h184l621 -1401h-209l-156 358h-696l-156 -358h-209zM496 539h540l-270 626zM506 1849h209l159 -299h-172z" />
    <glyph glyph-name="Aacute" unicode="&#xc1;" horiz-adv-x="1531" 
d="M53 0l621 1401h184l621 -1401h-209l-156 358h-696l-156 -358h-209zM496 539h540l-270 626zM672 1550l159 299h209l-196 -299h-172z" />
    <glyph glyph-name="Acircumflex" unicode="&#xc2;" horiz-adv-x="1531" 
d="M53 0l621 1401h184l621 -1401h-209l-156 358h-696l-156 -358h-209zM426 1552l248 306h184l248 -306h-178l-160 185l-162 -185h-180zM496 539h540l-270 626z" />
    <glyph glyph-name="Atilde" unicode="&#xc3;" horiz-adv-x="1531" 
d="M53 0l621 1401h184l621 -1401h-209l-156 358h-696l-156 -358h-209zM418 1612c0 53.333 10.8301 98.167 32.4971 134.5s48.834 61.5 81.501 75.5s67.334 19.833 104.001 17.5s70.334 -12.833 101.001 -31.5l90 -57c39.333 -22.667 70 -27.5 92 -14.5s33 36.833 33 71.5
h152c0 -53.333 -10.667 -98.333 -32 -135s-48 -62.167 -80 -76.5s-66.5 -20.166 -103.5 -17.499s-71.167 13.667 -102.5 33l-92 57c-36 22 -65.5 26.667 -88.5 14s-34.5 -36.334 -34.5 -71.001h-153zM495.997 539.001h540l-270 626z" />
    <glyph glyph-name="Adieresis" unicode="&#xc4;" horiz-adv-x="1531" 
d="M53 0l621 1401h184l621 -1401h-209l-156 358h-696l-156 -358h-209zM440 1681c0 34 12 62.667 36 86s53.667 35 89 35s65 -11.667 89 -35s36 -52 36 -86s-12 -62.5 -36 -85.5s-53.667 -34.5 -89 -34.5s-65 11.5 -89 34.5s-36 51.5 -36 85.5zM496 539h540l-270 626z
M844 1681c0 34 12 62.667 36 86s53.667 35 89 35s65 -11.667 89 -35s36 -52 36 -86s-12 -62.5 -36 -85.5s-53.667 -34.5 -89 -34.5s-65 11.5 -89 34.5s-36 51.5 -36 85.5z" />
    <glyph glyph-name="Aring" unicode="&#xc5;" horiz-adv-x="1531" 
d="M53 0l621 1401h184l621 -1401h-209l-156 358h-696l-156 -358h-209zM496 539h540l-270 626zM549 1778c0 60 20.167 109.001 60.5 147.001s92.5 57 156.5 57c64.667 0 117 -18.833 157 -56.5s60 -86.834 60 -147.501s-20.167 -110.334 -60.5 -149.001s-92.5 -58 -156.5 -58
c-63.333 0 -115.333 19.333 -156 58s-61 88.334 -61 149.001zM659 1778c0 -30.667 10.167 -56.167 30.5 -76.5s45.833 -30.5 76.5 -30.5s56 10.167 76 30.5s30 45.833 30 76.5c0 29.333 -10 54 -30 74s-45.333 30 -76 30s-56.167 -10 -76.5 -30s-30.5 -44.667 -30.5 -74z
" />
    <glyph glyph-name="AE" unicode="&#xc6;" horiz-adv-x="2265" 
d="M59 0l1084 1393h1009v-181h-794v-432h713v-180h-713v-420h794v-180h-989v358h-588l-276 -358h-240zM713 539h450v583z" />
    <glyph glyph-name="Ccedilla" unicode="&#xc7;" horiz-adv-x="1642" 
d="M125 696c0 101.333 19.001 197.166 57.001 287.499s89.5 167.333 154.5 231s142.167 114 231.5 151s183.333 55.5 282 55.5c170.667 0 316.334 -49.5 437.001 -148.5s197.667 -230.167 231 -393.5h-201c-28.667 110.667 -83.834 197.334 -165.501 260.001
s-182.167 94 -301.5 94c-150 0 -275.5 -50.833 -376.5 -152.5s-151.5 -229.834 -151.5 -384.501c0 -102 23.167 -194 69.5 -276s109.666 -145.833 189.999 -191.5s169.833 -68.5 268.5 -68.5c119.333 0 219.833 31.333 301.5 94s136.834 149.334 165.501 260.001h201
c-33.333 -163.333 -110.333 -294.666 -231 -393.999s-266.334 -149 -437.001 -149c-98.667 0 -192.667 18.5 -282 55.5s-166.5 87.333 -231.5 151s-116.5 140.667 -154.5 231s-57 186.166 -57 287.499zM653.001 -436l92 307h187l-115 -307h-164z" />
    <glyph glyph-name="Egrave" unicode="&#xc8;" horiz-adv-x="1280" 
d="M176 0v1393h989v-181h-794v-432h712v-180h-712v-420h794v-180h-989zM406 1849h208l160 -299h-172z" />
    <glyph glyph-name="Eacute" unicode="&#xc9;" horiz-adv-x="1280" 
d="M176 0v1393h989v-181h-794v-432h712v-180h-712v-420h794v-180h-989zM571 1550l160 299h209l-197 -299h-172z" />
    <glyph glyph-name="Ecircumflex" unicode="&#xca;" horiz-adv-x="1280" 
d="M176 0v1393h989v-181h-794v-432h712v-180h-712v-420h794v-180h-989zM324 1552l247 306h185l248 -306h-179l-159 185l-162 -185h-180z" />
    <glyph glyph-name="Edieresis" unicode="&#xcb;" horiz-adv-x="1280" 
d="M176 0v1393h989v-181h-794v-432h712v-180h-712v-420h794v-180h-989zM338 1681c0 34 12 62.667 36 86s53.667 35 89 35s65 -11.667 89 -35s36 -52 36 -86s-12 -62.5 -36 -85.5s-53.667 -34.5 -89 -34.5s-65 11.5 -89 34.5s-36 51.5 -36 85.5zM741 1681
c0 34 12 62.667 36 86s53.667 35 89 35s65 -11.667 89 -35s36 -52 36 -86s-12 -62.5 -36 -85.5s-53.667 -34.5 -89 -34.5s-65 11.5 -89 34.5s-36 51.5 -36 85.5z" />
    <glyph glyph-name="Igrave" unicode="&#xcc;" horiz-adv-x="546" 
d="M14 1849h209l160 -299h-172zM176 0v1393h195v-1393h-195z" />
    <glyph glyph-name="Iacute" unicode="&#xcd;" horiz-adv-x="546" 
d="M176 0v1393h195v-1393h-195zM178 1550l160 299h209l-197 -299h-172z" />
    <glyph glyph-name="Icircumflex" unicode="&#xce;" horiz-adv-x="546" 
d="M-68 1552l248 306h185l247 -306h-178l-160 185l-161 -185h-181zM176 0v1393h195v-1393h-195z" />
    <glyph glyph-name="Idieresis" unicode="&#xcf;" horiz-adv-x="546" 
d="M-53 1681c0 34 12 62.667 36 86s53.667 35 89 35s65 -11.667 89 -35s36 -52 36 -86s-12 -62.5 -36 -85.5s-53.667 -34.5 -89 -34.5s-65 11.5 -89 34.5s-36 51.5 -36 85.5zM176 0v1393h195v-1393h-195zM350 1681c0 34 12 62.667 36 86s53.667 35 89 35s65 -11.667 89 -35
s36 -52 36 -86s-12 -62.5 -36 -85.5s-53.667 -34.5 -89 -34.5s-65 11.5 -89 34.5s-36 51.5 -36 85.5z" />
    <glyph glyph-name="Eth" unicode="&#xd0;" horiz-adv-x="1527" 
d="M39 596v180.001h137v617h504c140.667 0 267.167 -29.333 379.5 -88s200 -140.5 263 -245.5s94.5 -223.167 94.5 -354.5c0 -134.667 -31.5 -255.834 -94.5 -363.501s-150.667 -191.5 -263 -251.5s-238.833 -90 -379.5 -90h-504v596h-137zM371 180.001l309 0.00195312
c154.667 0 282.834 49.667 384.501 149s152.5 224.666 152.5 375.999c0 145.333 -50.833 266.166 -152.5 362.499s-229.834 144.5 -384.501 144.5h-309v-436h321v-180h-321v-416z" />
    <glyph glyph-name="Ntilde" unicode="&#xd1;" horiz-adv-x="1558" 
d="M176 0v1393h154l856 -1049v1049h196v-1393h-159l-852 1032v-1032h-195zM430 1612c0 53.333 10.998 98.167 32.998 134.5s49.333 61.5 82 75.5s67.334 19.833 104.001 17.5s70.334 -12.833 101.001 -31.5l90 -57c38.667 -22.667 69.167 -27.5 91.5 -14.5
s33.5 36.833 33.5 71.5h151c0 -53.333 -10.667 -98.333 -32 -135s-48 -62.167 -80 -76.5s-66.333 -20.166 -103 -17.499s-70.667 13.667 -102 33l-92 57c-36 22 -65.5 26.667 -88.5 14s-34.5 -36.334 -34.5 -71.001h-154z" />
    <glyph glyph-name="Ograve" unicode="&#xd2;" horiz-adv-x="1699" 
d="M125 696c0 131.333 32.333 252.666 97 363.999s152.667 199.333 264 264s232.666 97 363.999 97s252.666 -32.333 363.999 -97s199.333 -152.667 264 -264s97 -232.666 97 -363.999s-32.333 -252.666 -97 -363.999s-152.667 -199.333 -264 -264
s-232.666 -97 -363.999 -97s-252.666 32.333 -363.999 97s-199.333 152.667 -264 264s-97 232.666 -97 363.999zM322 696c0 -98 22.999 -188.5 68.999 -271.5s109.5 -148.833 190.5 -197.5s170.5 -73 268.5 -73c97.333 0 186.333 24.333 267 73s144 114.5 190 197.5
s69 173.5 69 271.5s-23 188.5 -69 271.5s-109.333 149 -190 198s-169.667 73.5 -267 73.5s-186.666 -24.5 -267.999 -73.5s-145 -115 -191 -198s-69 -173.5 -69 -271.5zM589.999 1849h209l159 -299h-172z" />
    <glyph glyph-name="Oacute" unicode="&#xd3;" horiz-adv-x="1699" 
d="M125 696c0 131.333 32.333 252.666 97 363.999s152.667 199.333 264 264s232.666 97 363.999 97s252.666 -32.333 363.999 -97s199.333 -152.667 264 -264s97 -232.666 97 -363.999s-32.333 -252.666 -97 -363.999s-152.667 -199.333 -264 -264
s-232.666 -97 -363.999 -97s-252.666 32.333 -363.999 97s-199.333 152.667 -264 264s-97 232.666 -97 363.999zM322 696c0 -98 22.999 -188.5 68.999 -271.5s109.5 -148.833 190.5 -197.5s170.5 -73 268.5 -73c97.333 0 186.333 24.333 267 73s144 114.5 190 197.5
s69 173.5 69 271.5s-23 188.5 -69 271.5s-109.333 149 -190 198s-169.667 73.5 -267 73.5s-186.666 -24.5 -267.999 -73.5s-145 -115 -191 -198s-69 -173.5 -69 -271.5zM755.999 1550l159 299h209l-196 -299h-172z" />
    <glyph glyph-name="Ocircumflex" unicode="&#xd4;" horiz-adv-x="1699" 
d="M125 696c0 131.333 32.333 252.666 97 363.999s152.667 199.333 264 264s232.666 97 363.999 97s252.666 -32.333 363.999 -97s199.333 -152.667 264 -264s97 -232.666 97 -363.999s-32.333 -252.666 -97 -363.999s-152.667 -199.333 -264 -264
s-232.666 -97 -363.999 -97s-252.666 32.333 -363.999 97s-199.333 152.667 -264 264s-97 232.666 -97 363.999zM322 696c0 -98 22.999 -188.5 68.999 -271.5s109.5 -148.833 190.5 -197.5s170.5 -73 268.5 -73c97.333 0 186.333 24.333 267 73s144 114.5 190 197.5
s69 173.5 69 271.5s-23 188.5 -69 271.5s-109.333 149 -190 198s-169.667 73.5 -267 73.5s-186.666 -24.5 -267.999 -73.5s-145 -115 -191 -198s-69 -173.5 -69 -271.5zM507.999 1552l248 306h184l248 -306h-178l-160 185l-162 -185h-180z" />
    <glyph glyph-name="Otilde" unicode="&#xd5;" horiz-adv-x="1699" 
d="M125 696c0 131.333 32.333 252.666 97 363.999s152.667 199.333 264 264s232.666 97 363.999 97s252.666 -32.333 363.999 -97s199.333 -152.667 264 -264s97 -232.666 97 -363.999s-32.333 -252.666 -97 -363.999s-152.667 -199.333 -264 -264
s-232.666 -97 -363.999 -97s-252.666 32.333 -363.999 97s-199.333 152.667 -264 264s-97 232.666 -97 363.999zM322 696c0 -98 22.999 -188.5 68.999 -271.5s109.5 -148.833 190.5 -197.5s170.5 -73 268.5 -73c97.333 0 186.333 24.333 267 73s144 114.5 190 197.5
s69 173.5 69 271.5s-23 188.5 -69 271.5s-109.333 149 -190 198s-169.667 73.5 -267 73.5s-186.666 -24.5 -267.999 -73.5s-145 -115 -191 -198s-69 -173.5 -69 -271.5zM499.999 1612c0 53.333 10.8301 98.167 32.4971 134.5s48.834 61.5 81.501 75.5
s67.334 19.833 104.001 17.5s70.334 -12.833 101.001 -31.5l90 -57c39.333 -22.667 70 -27.5 92 -14.5s33 36.833 33 71.5h152c0 -53.333 -10.667 -98.333 -32 -135s-48 -62.167 -80 -76.5s-66.5 -20.166 -103.5 -17.499s-71.167 13.667 -102.5 33l-92 57
c-36 22 -65.5 26.667 -88.5 14s-34.5 -36.334 -34.5 -71.001h-153z" />
    <glyph glyph-name="Odieresis" unicode="&#xd6;" horiz-adv-x="1699" 
d="M125 696c0 131.333 32.333 252.666 97 363.999s152.667 199.333 264 264s232.666 97 363.999 97s252.666 -32.333 363.999 -97s199.333 -152.667 264 -264s97 -232.666 97 -363.999s-32.333 -252.666 -97 -363.999s-152.667 -199.333 -264 -264
s-232.666 -97 -363.999 -97s-252.666 32.333 -363.999 97s-199.333 152.667 -264 264s-97 232.666 -97 363.999zM322 696c0 -98 22.999 -188.5 68.999 -271.5s109.5 -148.833 190.5 -197.5s170.5 -73 268.5 -73c97.333 0 186.333 24.333 267 73s144 114.5 190 197.5
s69 173.5 69 271.5s-23 188.5 -69 271.5s-109.333 149 -190 198s-169.667 73.5 -267 73.5s-186.666 -24.5 -267.999 -73.5s-145 -115 -191 -198s-69 -173.5 -69 -271.5zM521.999 1681c0 34 12 62.667 36 86s53.667 35 89 35s65 -11.667 89 -35s36 -52 36 -86
s-12 -62.5 -36 -85.5s-53.667 -34.5 -89 -34.5s-65 11.5 -89 34.5s-36 51.5 -36 85.5zM925.999 1681c0 34 12 62.667 36 86s53.667 35 89 35s65 -11.667 89 -35s36 -52 36 -86s-12 -62.5 -36 -85.5s-53.667 -34.5 -89 -34.5s-65 11.5 -89 34.5s-36 51.5 -36 85.5z" />
    <glyph glyph-name="multiply" unicode="&#xd7;" horiz-adv-x="1372" 
d="M252 344l311 311l-311 312l123 123l311 -310l311 310l123 -123l-309 -312l309 -311l-123 -123l-311 311l-311 -311z" />
    <glyph glyph-name="Oslash" unicode="&#xd8;" horiz-adv-x="1699" 
d="M125 696c0 131.333 32.333 252.665 97 363.998s152.667 199.333 264 264s232.666 97 363.999 97c145.333 0 279 -40.333 401 -121l103 121l119 -98l-103 -121c64.667 -66.667 115 -143.5 151 -230.5s54 -178.833 54 -275.5c0 -131.333 -32.333 -252.666 -97 -363.999
s-152.667 -199.333 -264 -264s-232.666 -97 -363.999 -97c-150 0 -285.333 41 -406 123l-114 -135l-119 100l115 136c-64 66.667 -113.5 142.834 -148.5 228.501s-52.5 176.5 -52.5 272.5zM322 695.999c0 -134.667 42.332 -252.667 126.999 -354l681 815
c-86 54.667 -179.333 82 -280 82c-97.333 0 -186.666 -24.5 -267.999 -73.5s-145 -115 -191 -198s-69 -173.5 -69 -271.5zM562.999 237.999c86.667 -56 182.333 -84 287 -84c97.333 0 186.333 24.333 267 73s144 114.5 190 197.5s69 173.5 69 271.5
c0 136 -43 255.667 -129 359z" />
    <glyph glyph-name="Ugrave" unicode="&#xd9;" horiz-adv-x="1519" 
d="M156 604v789h194v-789c0 -132 37.833 -240.333 113.5 -325s174.5 -127 296.5 -127s220.667 42.333 296 127s113 193 113 325v789h195v-789c0 -190.667 -55.333 -344.167 -166 -460.5s-256.667 -174.5 -438 -174.5s-327.333 58.167 -438 174.5s-166 269.833 -166 460.5z
M502 1849h209l159 -299h-172z" />
    <glyph glyph-name="Uacute" unicode="&#xda;" horiz-adv-x="1519" 
d="M156 604v789h194v-789c0 -132 37.833 -240.333 113.5 -325s174.5 -127 296.5 -127s220.667 42.333 296 127s113 193 113 325v789h195v-789c0 -190.667 -55.333 -344.167 -166 -460.5s-256.667 -174.5 -438 -174.5s-327.333 58.167 -438 174.5s-166 269.833 -166 460.5z
M666 1550l159 299h209l-196 -299h-172z" />
    <glyph glyph-name="Ucircumflex" unicode="&#xdb;" horiz-adv-x="1519" 
d="M156 604v789h194v-789c0 -132 37.833 -240.333 113.5 -325s174.5 -127 296.5 -127s220.667 42.333 296 127s113 193 113 325v789h195v-789c0 -190.667 -55.333 -344.167 -166 -460.5s-256.667 -174.5 -438 -174.5s-327.333 58.167 -438 174.5s-166 269.833 -166 460.5z
M420 1552l248 306h184l248 -306h-178l-160 185l-162 -185h-180z" />
    <glyph glyph-name="Udieresis" unicode="&#xdc;" horiz-adv-x="1519" 
d="M156 604v789h194v-789c0 -132 37.833 -240.333 113.5 -325s174.5 -127 296.5 -127s220.667 42.333 296 127s113 193 113 325v789h195v-789c0 -190.667 -55.333 -344.167 -166 -460.5s-256.667 -174.5 -438 -174.5s-327.333 58.167 -438 174.5s-166 269.833 -166 460.5z
M434 1681c0 34 12 62.667 36 86s53.667 35 89 35s65 -11.667 89 -35s36 -52 36 -86s-12 -62.5 -36 -85.5s-53.667 -34.5 -89 -34.5s-65 11.5 -89 34.5s-36 51.5 -36 85.5zM838 1681c0 34 12 62.667 36 86s53.667 35 89 35c34.667 0 64 -11.667 88 -35s36 -52 36 -86
s-11.833 -62.5 -35.5 -85.5s-53.167 -34.5 -88.5 -34.5s-65 11.5 -89 34.5s-36 51.5 -36 85.5z" />
    <glyph glyph-name="Yacute" unicode="&#xdd;" horiz-adv-x="1386" 
d="M27 1393h217l448 -721l451 721h217l-567 -910v-483h-199v483zM598 1550l160 299h209l-197 -299h-172z" />
    <glyph glyph-name="Thorn" unicode="&#xde;" horiz-adv-x="1290" 
d="M176 0l0.000976562 1393h195v-211h309c163.333 0 294.666 -43.167 393.999 -129.5s149 -200.166 149 -341.499c0 -147.333 -52.167 -265.833 -156.5 -355.5s-241.5 -134.5 -411.5 -134.5h-284v-221h-195zM371.001 400.999h303c106.667 0 192.667 28.5 258 85.5
s98 131.833 98 224.5c0 86.667 -32.667 156.667 -98 210s-151.333 80 -258 80h-303v-600z" />
    <glyph glyph-name="germandbls" unicode="&#xdf;" horiz-adv-x="1302" 
d="M150 0v1155c0 115.333 35.333 208.333 106 279s163.667 106 279 106v-184c-59.333 0 -107.333 -18.333 -144 -55s-55 -85.334 -55 -146.001v-199h829v-118l-338 -408c123.333 -12 222.5 -53.833 297.5 -125.5s112.5 -164.167 112.5 -277.5
c0 -130 -45.167 -236.667 -135.5 -320s-211.833 -125 -364.5 -125c-121.333 0 -237.333 22 -348 66v170c108.667 -45.333 222.667 -68 342 -68c106 0 186.5 26.333 241.5 79s82.5 117.334 82.5 194.001c0 75.333 -26.667 134.666 -80 177.999s-122.333 65 -207 65h-209v92
l342 424h-565v-782h-186z" />
    <glyph glyph-name="agrave" unicode="&#xe0;" 
d="M109 477c0 92 21.667 176.667 65 254s102.333 138.333 177 183s156.334 67 245.001 67c125.333 0 231.666 -36.333 318.999 -109v84h189v-956h-189v84c-87.333 -72.667 -193.666 -109 -318.999 -109c-88.667 0 -170.334 22.333 -245.001 67s-133.667 105.5 -177 182.5
s-65 161.167 -65 252.5zM297 477c0 -91.333 31.499 -170.5 94.499 -237.5s140.167 -100.5 231.5 -100.5c124.667 0 222 51.333 292 154v371c-69.333 102 -166.666 153 -291.999 153c-92 0 -169.333 -33.333 -232 -100s-94 -146.667 -94 -240zM386.999 1432h209l160 -299
h-172z" />
    <glyph glyph-name="aacute" unicode="&#xe1;" 
d="M109 477c0 92 21.667 176.667 65 254s102.333 138.333 177 183s156.334 67 245.001 67c125.333 0 231.666 -36.333 318.999 -109v84h189v-956h-189v84c-87.333 -72.667 -193.666 -109 -318.999 -109c-88.667 0 -170.334 22.333 -245.001 67s-133.667 105.5 -177 182.5
s-65 161.167 -65 252.5zM297 477c0 -91.333 31.499 -170.5 94.499 -237.5s140.167 -100.5 231.5 -100.5c124.667 0 222 51.333 292 154v371c-69.333 102 -166.666 153 -291.999 153c-92 0 -169.333 -33.333 -232 -100s-94 -146.667 -94 -240zM552.999 1130l160 300h209
l-197 -300h-172z" />
    <glyph glyph-name="acircumflex" unicode="&#xe2;" 
d="M109 477c0 92 21.667 176.667 65 254s102.333 138.333 177 183s156.334 67 245.001 67c125.333 0 231.666 -36.333 318.999 -109v84h189v-956h-189v84c-87.333 -72.667 -193.666 -109 -318.999 -109c-88.667 0 -170.334 22.333 -245.001 67s-133.667 105.5 -177 182.5
s-65 161.167 -65 252.5zM297 477c0 -91.333 31.499 -170.5 94.499 -237.5s140.167 -100.5 231.5 -100.5c124.667 0 222 51.333 292 154v371c-69.333 102 -166.666 153 -291.999 153c-92 0 -169.333 -33.333 -232 -100s-94 -146.667 -94 -240zM304.999 1114l248 305h184
l248 -305h-178l-160 184l-162 -184h-180z" />
    <glyph glyph-name="atilde" unicode="&#xe3;" 
d="M109 477c0 92 21.667 176.667 65 254s102.333 138.333 177 183s156.334 67 245.001 67c125.333 0 231.666 -36.333 318.999 -109v84h189v-956h-189v84c-87.333 -72.667 -193.666 -109 -318.999 -109c-88.667 0 -170.334 22.333 -245.001 67s-133.667 105.5 -177 182.5
s-65 161.167 -65 252.5zM297 477c0 -91.333 31.499 -170.5 94.499 -237.5s140.167 -100.5 231.5 -100.5c124.667 0 222 51.333 292 154v371c-69.333 102 -166.666 153 -291.999 153c-92 0 -169.333 -33.333 -232 -100s-94 -146.667 -94 -240zM314.999 1194
c0 53.333 10.998 98.335 32.998 135.002s49.333 61.834 82 75.501s67.334 19.5 104.001 17.5s70.334 -12.333 101.001 -31l90 -58c39.333 -22.667 70 -27.334 92 -14.001s33 37.333 33 72h151c0 -53.333 -10.667 -98.5 -32 -135.5s-48 -62.5 -80 -76.5
s-66.333 -19.833 -103 -17.5s-70.667 13.166 -102 32.499l-92 57c-36 22 -65.5 26.667 -88.5 14s-34.5 -36.334 -34.5 -71.001h-154z" />
    <glyph glyph-name="adieresis" unicode="&#xe4;" 
d="M109 477c0 92 21.667 176.667 65 254s102.333 138.333 177 183s156.334 67 245.001 67c125.333 0 231.666 -36.333 318.999 -109v84h189v-956h-189v84c-87.333 -72.667 -193.666 -109 -318.999 -109c-88.667 0 -170.334 22.333 -245.001 67s-133.667 105.5 -177 182.5
s-65 161.167 -65 252.5zM297 477c0 -91.333 31.499 -170.5 94.499 -237.5s140.167 -100.5 231.5 -100.5c124.667 0 222 51.333 292 154v371c-69.333 102 -166.666 153 -291.999 153c-92 0 -169.333 -33.333 -232 -100s-94 -146.667 -94 -240zM321.999 1278
c0 34 12 62.667 36 86s53.333 35 88 35c35.333 0 65 -11.667 89 -35s36 -52 36 -86s-12 -62.667 -36 -86s-53.667 -35 -89 -35c-34.667 0 -64 11.667 -88 35s-36 52 -36 86zM724.999 1278c0 34 12 62.667 36 86s53.667 35 89 35s65 -11.667 89 -35s36 -52 36 -86
s-12 -62.667 -36 -86s-53.667 -35 -89 -35s-65 11.667 -89 35s-36 52 -36 86z" />
    <glyph glyph-name="aring" unicode="&#xe5;" 
d="M109 477c0 92 21.667 176.667 65 254s102.333 138.333 177 183s156.334 67 245.001 67c125.333 0 231.666 -36.333 318.999 -109v84h189v-956h-189v84c-87.333 -72.667 -193.666 -109 -318.999 -109c-88.667 0 -170.334 22.333 -245.001 67s-133.667 105.5 -177 182.5
s-65 161.167 -65 252.5zM297 477c0 -91.333 31.499 -170.5 94.499 -237.5s140.167 -100.5 231.5 -100.5c124.667 0 222 51.333 292 154v371c-69.333 102 -166.666 153 -291.999 153c-92 0 -169.333 -33.333 -232 -100s-94 -146.667 -94 -240zM429.999 1319
c0 60.667 20.333 110 61 148s92.667 57 156 57c64.667 0 117 -19 157 -57s60 -87.333 60 -148s-20.167 -110.334 -60.5 -149.001s-92.5 -58 -156.5 -58c-63.333 0 -115.333 19.333 -156 58s-61 88.334 -61 149.001zM540.999 1319c0 -30.667 10 -56.167 30 -76.5
s45.333 -30.5 76 -30.5s56.167 10.167 76.5 30.5s30.5 45.833 30.5 76.5c0 29.333 -10.167 54 -30.5 74s-45.833 30 -76.5 30s-56 -10 -76 -30s-30 -44.667 -30 -74z" />
    <glyph glyph-name="ae" unicode="&#xe6;" horiz-adv-x="1873" 
d="M90 283c0 85.333 31.666 150.666 94.999 195.999s151.333 68 264 68h352c0 181.333 -82 272 -246 272c-62 0 -113.333 -13.5 -154 -40.5s-65 -64.5 -73 -112.5h-191c6.66699 69.333 30.667 128.333 72 177s91.5 83.834 150.5 105.501s124.167 32.5 195.5 32.5
c80.667 0 151.5 -14.667 212.5 -44s109.5 -71.333 145.5 -126c46 53.333 102.167 95 168.5 125s139.166 45 218.499 45c88.667 0 168.334 -21 239.001 -63s126.167 -100.667 166.5 -176s60.833 -160.333 61.5 -255c0 -36 -1.33301 -63 -4 -81l-6 4v-4h-772
c14 -79.333 48.833 -144.333 104.5 -195s127.5 -76 215.5 -76c56 0 104.167 10.5 144.5 31.5s70.5 50.167 90.5 87.5h203c-27.333 -85.333 -81.166 -153.166 -161.499 -203.499s-174.166 -75.5 -281.499 -75.5c-77.333 0 -148.5 14.167 -213.5 42.5
s-119.833 68.166 -164.5 119.499c-54.667 -49.333 -119 -88.333 -193 -117s-154 -43 -240 -43c-120.667 0 -217.334 27.5 -290.001 82.5s-109 129.5 -109 223.5zM271.999 291c0 -44.667 19.498 -81.833 58.498 -111.5s94.833 -44.5 167.5 -44.5
c62.667 0 120.834 10.5 174.501 31.5s108.834 55.5 165.501 103.5c-18.667 42 -31 87.333 -37 136h-363c-53.333 0 -94.333 -10.167 -123 -30.5s-43 -48.5 -43 -84.5zM984.997 547.001h591.999c-9.33301 83.333 -39.166 149.5 -89.499 198.5s-115.5 73.5 -195.5 73.5
c-83.333 0 -151.833 -25 -205.5 -75s-87.5 -114.333 -101.5 -193v-4z" />
    <glyph glyph-name="ccedilla" unicode="&#xe7;" horiz-adv-x="1179" 
d="M109 477c0 143.333 47.668 263.165 143.001 359.498s215.333 144.5 360 144.5c118 0 219.667 -33.833 305 -101.5s136.666 -155.5 153.999 -263.5h-192c-13.333 58.667 -44.166 105.5 -92.499 140.5s-106.5 52.5 -174.5 52.5c-94.667 0 -170.834 -31.833 -228.501 -95.5
s-86.5 -142.5 -86.5 -236.5c0 -93.333 29 -171.666 87 -234.999s134 -95 228 -95c68 0 126.167 17.333 174.5 52s79.166 81 92.499 139h192c-17.333 -107.333 -68.666 -194.666 -153.999 -261.999s-187 -101 -305 -101c-95.333 0 -181.5 22 -258.5 66s-137 104.333 -180 181
s-64.5 161.667 -64.5 255zM420.001 -436.001l92 307h186l-114 -307h-164z" />
    <glyph glyph-name="egrave" unicode="&#xe8;" horiz-adv-x="1183" 
d="M109 477c0 94.667 20.6631 180.167 61.9961 256.5s100.333 136.666 177 180.999s164 66.5 262 66.5c88.667 0 168.5 -21 239.5 -63s126.5 -100.5 166.5 -175.5s60.333 -160.167 61 -255.5c0 -36 -1.33301 -63 -4 -81l-4 2v-2h-774c14 -79.333 48.833 -144.333 104.5 -195
s127.834 -76 216.501 -76c56 0 104 10.5 144 31.5s70 50.167 90 87.5h203c-27.333 -85.333 -81.166 -153.166 -161.499 -203.499s-174.166 -75.5 -281.499 -75.5c-147.333 0 -267.666 47.833 -360.999 143.5s-140 215.167 -140 358.5zM294.996 547h591.999
c-8 83.333 -37.167 149.5 -87.5 198.5s-116.166 73.5 -197.499 73.5c-84 0 -152.833 -25.333 -206.5 -76s-87.167 -116 -100.5 -196zM343.995 1432h209l160 -299h-172z" />
    <glyph glyph-name="eacute" unicode="&#xe9;" horiz-adv-x="1183" 
d="M109 477c0 94.667 20.6631 180.167 61.9961 256.5s100.333 136.666 177 180.999s164 66.5 262 66.5c88.667 0 168.5 -21 239.5 -63s126.5 -100.5 166.5 -175.5s60.333 -160.167 61 -255.5c0 -36 -1.33301 -63 -4 -81l-4 2v-2h-774c14 -79.333 48.833 -144.333 104.5 -195
s127.834 -76 216.501 -76c56 0 104 10.5 144 31.5s70 50.167 90 87.5h203c-27.333 -85.333 -81.166 -153.166 -161.499 -203.499s-174.166 -75.5 -281.499 -75.5c-147.333 0 -267.666 47.833 -360.999 143.5s-140 215.167 -140 358.5zM294.996 547h591.999
c-8 83.333 -37.167 149.5 -87.5 198.5s-116.166 73.5 -197.499 73.5c-84 0 -152.833 -25.333 -206.5 -76s-87.167 -116 -100.5 -196zM509.995 1130l160 300h209l-197 -300h-172z" />
    <glyph glyph-name="ecircumflex" unicode="&#xea;" horiz-adv-x="1183" 
d="M109 477c0 94.667 20.6631 180.167 61.9961 256.5s100.333 136.666 177 180.999s164 66.5 262 66.5c88.667 0 168.5 -21 239.5 -63s126.5 -100.5 166.5 -175.5s60.333 -160.167 61 -255.5c0 -36 -1.33301 -63 -4 -81l-4 2v-2h-774c14 -79.333 48.833 -144.333 104.5 -195
s127.834 -76 216.501 -76c56 0 104 10.5 144 31.5s70 50.167 90 87.5h203c-27.333 -85.333 -81.166 -153.166 -161.499 -203.499s-174.166 -75.5 -281.499 -75.5c-147.333 0 -267.666 47.833 -360.999 143.5s-140 215.167 -140 358.5zM261.996 1114l248 305h184l248 -305
h-178l-160 184l-162 -184h-180zM294.996 547h591.999c-8 83.333 -37.167 149.5 -87.5 198.5s-116.166 73.5 -197.499 73.5c-84 0 -152.833 -25.333 -206.5 -76s-87.167 -116 -100.5 -196z" />
    <glyph glyph-name="edieresis" unicode="&#xeb;" horiz-adv-x="1183" 
d="M109 477c0 94.667 20.6631 180.167 61.9961 256.5s100.333 136.666 177 180.999s164 66.5 262 66.5c88.667 0 168.5 -21 239.5 -63s126.5 -100.5 166.5 -175.5s60.333 -160.167 61 -255.5c0 -36 -1.33301 -63 -4 -81l-4 2v-2h-774c14 -79.333 48.833 -144.333 104.5 -195
s127.834 -76 216.501 -76c56 0 104 10.5 144 31.5s70 50.167 90 87.5h203c-27.333 -85.333 -81.166 -153.166 -161.499 -203.499s-174.166 -75.5 -281.499 -75.5c-147.333 0 -267.666 47.833 -360.999 143.5s-140 215.167 -140 358.5zM278.996 1278c0 34 12 62.667 36 86
s53.333 35 88 35c35.333 0 65 -11.667 89 -35s36 -52 36 -86s-12 -62.667 -36 -86s-53.667 -35 -89 -35c-34.667 0 -64 11.667 -88 35s-36 52 -36 86zM294.996 547h591.999c-8 83.333 -37.167 149.5 -87.5 198.5s-116.166 73.5 -197.499 73.5
c-84 0 -152.833 -25.333 -206.5 -76s-87.167 -116 -100.5 -196zM681.995 1278c0 34 12 62.667 36 86s53.667 35 89 35s65 -11.667 89 -35s36 -52 36 -86s-12 -62.667 -36 -86s-53.667 -35 -89 -35s-65 11.667 -89 35s-36 52 -36 86z" />
    <glyph glyph-name="igrave" unicode="&#xec;" horiz-adv-x="544" 
d="M12 1432h209l160 -299h-172zM180 0v956h187v-956h-187z" />
    <glyph glyph-name="iacute" unicode="&#xed;" horiz-adv-x="544" 
d="M178 1130l160 300h209l-197 -300h-172zM180 0v956h187v-956h-187z" />
    <glyph glyph-name="icircumflex" unicode="&#xee;" horiz-adv-x="544" 
d="M-68 1114l248 305h185l247 -305h-178l-160 184l-161 -184h-181zM180 0v956h187v-956h-187z" />
    <glyph glyph-name="idieresis" unicode="&#xef;" horiz-adv-x="544" 
d="M-53 1278c0 34 12 62.667 36 86s53.667 35 89 35s65 -11.667 89 -35s36 -52 36 -86s-12 -62.667 -36 -86s-53.667 -35 -89 -35s-65 11.667 -89 35s-36 52 -36 86zM180 0v956h187v-956h-187zM350 1278c0 34 12 62.667 36 86s53.667 35 89 35s65 -11.667 89 -35
s36 -52 36 -86s-12 -62.667 -36 -86s-53.667 -35 -89 -35s-65 11.667 -89 35s-36 52 -36 86z" />
    <glyph glyph-name="eth" unicode="&#xf0;" horiz-adv-x="1212" 
d="M109 477c0 144.667 48.498 264.834 145.498 360.501s218.167 143.5 363.5 143.5c78 0 150 -20.333 216 -61c-49.333 91.333 -119 173.666 -209 246.999l-320 -118l-49 129l229 84c-69.333 40.667 -145.666 77.334 -228.999 110.001l195 82
c80.667 -32.667 156.334 -73.667 227.001 -123l188 70l49 -127l-112 -41c102 -96 181.333 -208.833 238 -338.5s85 -268.834 85 -417.501c0 -144 -48.667 -264.667 -146 -362s-218 -146 -362 -146c-145.333 0 -266.5 48.5 -363.5 145.5s-145.5 217.833 -145.5 362.5z
M296.998 477c0 -94 30.333 -173.5 91 -238.5s137.334 -97.5 230.001 -97.5c91.333 0 167.166 32.5 227.499 97.5s90.5 144.5 90.5 238.5c0 92.667 -30.167 171.167 -90.5 235.5s-136.166 96.5 -227.499 96.5c-92.667 0 -169.334 -32 -230.001 -96s-91 -142.667 -91 -236z
" />
    <glyph glyph-name="ntilde" unicode="&#xf1;" horiz-adv-x="1206" 
d="M156 0l-0.000976562 956h188v-96c91.333 84.667 199.333 127 324 127s224.667 -40.5 300 -121.5s113 -189.167 113 -324.5v-541h-186v530c0 90 -23.667 160.333 -71 211s-111.666 76 -192.999 76c-51.333 0 -102 -14 -152 -42s-95 -67.333 -135 -118v-657h-188z
M282.999 1194c0 42.667 7.16699 80.3359 21.5 113.003s33 57.5 56 74.5s48.5 29 76.5 36s56.5 8 85.5 3s55.5 -14.833 79.5 -29.5l90 -58c38.667 -22.667 69.167 -27.334 91.5 -14.001s33.5 37.333 33.5 72h152c0 -53.333 -10.667 -98.5 -32 -135.5s-48 -62.5 -80 -76.5
s-66.5 -19.833 -103.5 -17.5s-71.167 13.166 -102.5 32.499l-92 57c-36 22 -65.5 26.667 -88.5 14s-34.5 -36.334 -34.5 -71.001h-153z" />
    <glyph glyph-name="ograve" unicode="&#xf2;" horiz-adv-x="1232" 
d="M109 477c0 144.667 48.5 264.833 145.5 360.5s218.167 143.5 363.5 143.5c144 0 264.667 -48 362 -144s146 -216 146 -360s-48.667 -264.667 -146 -362s-218 -146 -362 -146c-145.333 0 -266.5 48.5 -363.5 145.5s-145.5 217.833 -145.5 362.5zM297 476.999
c0 -94 30.333 -173.5 91 -238.5s137.334 -97.5 230.001 -97.5c91.333 0 167.166 32.5 227.499 97.5s90.5 144.5 90.5 238.5c0 92.667 -30.167 171.167 -90.5 235.5s-136.166 96.5 -227.499 96.5c-92.667 0 -169.334 -32 -230.001 -96s-91 -142.667 -91 -236zM358 1432h209
l160 -299h-172z" />
    <glyph glyph-name="oacute" unicode="&#xf3;" horiz-adv-x="1232" 
d="M109 477c0 144.667 48.5 264.833 145.5 360.5s218.167 143.5 363.5 143.5c144 0 264.667 -48 362 -144s146 -216 146 -360s-48.667 -264.667 -146 -362s-218 -146 -362 -146c-145.333 0 -266.5 48.5 -363.5 145.5s-145.5 217.833 -145.5 362.5zM297 476.999
c0 -94 30.333 -173.5 91 -238.5s137.334 -97.5 230.001 -97.5c91.333 0 167.166 32.5 227.499 97.5s90.5 144.5 90.5 238.5c0 92.667 -30.167 171.167 -90.5 235.5s-136.166 96.5 -227.499 96.5c-92.667 0 -169.334 -32 -230.001 -96s-91 -142.667 -91 -236zM522 1130
l160 300h209l-197 -300h-172z" />
    <glyph glyph-name="ocircumflex" unicode="&#xf4;" horiz-adv-x="1232" 
d="M109 477c0 144.667 48.5 264.833 145.5 360.5s218.167 143.5 363.5 143.5c144 0 264.667 -48 362 -144s146 -216 146 -360s-48.667 -264.667 -146 -362s-218 -146 -362 -146c-145.333 0 -266.5 48.5 -363.5 145.5s-145.5 217.833 -145.5 362.5zM276 1114l248 305h185
l247 -305h-178l-160 184l-161 -184h-181zM297 476.999c0 -94 30.333 -173.5 91 -238.5s137.334 -97.5 230.001 -97.5c91.333 0 167.166 32.5 227.499 97.5s90.5 144.5 90.5 238.5c0 92.667 -30.167 171.167 -90.5 235.5s-136.166 96.5 -227.499 96.5
c-92.667 0 -169.334 -32 -230.001 -96s-91 -142.667 -91 -236z" />
    <glyph glyph-name="otilde" unicode="&#xf5;" horiz-adv-x="1232" 
d="M109 477c0 144.667 48.5 264.833 145.5 360.5s218.167 143.5 363.5 143.5c144 0 264.667 -48 362 -144s146 -216 146 -360s-48.667 -264.667 -146 -362s-218 -146 -362 -146c-145.333 0 -266.5 48.5 -363.5 145.5s-145.5 217.833 -145.5 362.5zM285 1194
c0 42.667 7.16699 80.3359 21.5 113.003s33 57.5 56 74.5s48.5 29 76.5 36s56.5 8 85.5 3s55.5 -14.833 79.5 -29.5l90 -58c38.667 -22.667 69.167 -27.334 91.5 -14.001s33.5 37.333 33.5 72h152c0 -53.333 -10.667 -98.5 -32 -135.5s-48 -62.5 -80 -76.5
s-66.5 -19.833 -103.5 -17.5s-71.167 13.166 -102.5 32.499l-92 57c-36 22 -65.5 26.667 -88.5 14s-34.5 -36.334 -34.5 -71.001h-153zM297 477.001c0 -94 30.333 -173.5 91 -238.5s137.334 -97.5 230.001 -97.5c91.333 0 167.166 32.5 227.499 97.5s90.5 144.5 90.5 238.5
c0 92.667 -30.167 171.167 -90.5 235.5s-136.166 96.5 -227.499 96.5c-92.667 0 -169.334 -32 -230.001 -96s-91 -142.667 -91 -236z" />
    <glyph glyph-name="odieresis" unicode="&#xf6;" horiz-adv-x="1232" 
d="M109 477c0 144.667 48.5 264.833 145.5 360.5s218.167 143.5 363.5 143.5c144 0 264.667 -48 362 -144s146 -216 146 -360s-48.667 -264.667 -146 -362s-218 -146 -362 -146c-145.333 0 -266.5 48.5 -363.5 145.5s-145.5 217.833 -145.5 362.5zM293 1278
c0 34 12 62.667 36 86s53.667 35 89 35s65 -11.667 89 -35s36 -52 36 -86s-12 -62.667 -36 -86s-53.667 -35 -89 -35s-65 11.667 -89 35s-36 52 -36 86zM297 476.999c0 -94 30.333 -173.5 91 -238.5s137.334 -97.5 230.001 -97.5c91.333 0 167.166 32.5 227.499 97.5
s90.5 144.5 90.5 238.5c0 92.667 -30.167 171.167 -90.5 235.5s-136.166 96.5 -227.499 96.5c-92.667 0 -169.334 -32 -230.001 -96s-91 -142.667 -91 -236zM696 1278c0 34 12 62.667 36 86s53.667 35 89 35s65 -11.667 89 -35s36 -52 36 -86s-12 -62.667 -36 -86
s-53.667 -35 -89 -35s-65 11.667 -89 35s-36 52 -36 86z" />
    <glyph glyph-name="divide" unicode="&#xf7;" horiz-adv-x="1411" 
d="M227 582v174h957v-174h-957zM590 287c0 32.667 11.1689 59.834 33.502 81.501s50.166 32.5 83.499 32.5c32 0 59.333 -10.833 82 -32.5s34 -48.834 34 -81.501c0 -31.333 -11.333 -58 -34 -80s-50 -33 -82 -33c-32.667 0 -60.334 11 -83.001 33s-34 48.667 -34 80z
M590.002 1055c0 32.667 11.1689 59.834 33.502 81.501s50.166 32.5 83.499 32.5c32 0 59.333 -10.833 82 -32.5s34 -48.834 34 -81.501c0 -31.333 -11.333 -58 -34 -80s-50 -33 -82 -33c-32.667 0 -60.334 11 -83.001 33s-34 48.667 -34 80z" />
    <glyph glyph-name="oslash" unicode="&#xf8;" horiz-adv-x="1232" 
d="M109 477c0 144.667 48.5 264.833 145.5 360.5s218.167 143.5 363.5 143.5c98 0 186.333 -23.333 265 -70l59 70l102 -84l-57 -68c92.667 -94.667 139 -212 139 -352c0 -144 -48.667 -264.667 -146 -362s-218 -146 -362 -146c-104.667 0 -198.667 26.667 -282 80l-62 -74
l-102 86l64 74c-84.667 95.333 -127 209.333 -127 342zM297 476.999c0 -74 19.001 -139.333 57.001 -196l414 491c-44.667 24.667 -94.667 37 -150 37c-92.667 0 -169.334 -32 -230.001 -96s-91 -142.667 -91 -236zM451.001 185.999c48.667 -30 104.334 -45 167.001 -45
c91.333 0 167.166 32.5 227.499 97.5s90.5 144.5 90.5 238.5c0 79.333 -22.667 149 -68 209z" />
    <glyph glyph-name="ugrave" unicode="&#xf9;" horiz-adv-x="1206" 
d="M125 418v538h188v-528c0 -90.667 23.5 -161.167 70.5 -211.5s110.833 -75.5 191.5 -75.5c50.667 0 101.5 13.833 152.5 41.5s95.833 66.5 134.5 116.5v657h189v-956h-189v94c-92 -83.333 -199.667 -125 -323 -125c-124 0 -224 40.833 -300 122.5s-114 190.5 -114 326.5z
M336 1432h209l160 -299h-173z" />
    <glyph glyph-name="uacute" unicode="&#xfa;" horiz-adv-x="1206" 
d="M125 418v538h188v-528c0 -90.667 23.5 -161.167 70.5 -211.5s110.833 -75.5 191.5 -75.5c50.667 0 101.5 13.833 152.5 41.5s95.833 66.5 134.5 116.5v657h189v-956h-189v94c-92 -83.333 -199.667 -125 -323 -125c-124 0 -224 40.833 -300 122.5s-114 190.5 -114 326.5z
M502 1130l160 300h208l-196 -300h-172z" />
    <glyph glyph-name="ucircumflex" unicode="&#xfb;" horiz-adv-x="1206" 
d="M125 418v538h188v-528c0 -90.667 23.5 -161.167 70.5 -211.5s110.833 -75.5 191.5 -75.5c50.667 0 101.5 13.833 152.5 41.5s95.833 66.5 134.5 116.5v657h189v-956h-189v94c-92 -83.333 -199.667 -125 -323 -125c-124 0 -224 40.833 -300 122.5s-114 190.5 -114 326.5z
M256 1114l248 305h184l248 -305h-178l-160 184l-162 -184h-180z" />
    <glyph glyph-name="udieresis" unicode="&#xfc;" horiz-adv-x="1206" 
d="M125 418v538h188v-528c0 -90.667 23.5 -161.167 70.5 -211.5s110.833 -75.5 191.5 -75.5c50.667 0 101.5 13.833 152.5 41.5s95.833 66.5 134.5 116.5v657h189v-956h-189v94c-92 -83.333 -199.667 -125 -323 -125c-124 0 -224 40.833 -300 122.5s-114 190.5 -114 326.5z
M270 1278c0 34 12 62.667 36 86s53.667 35 89 35s65 -11.667 89 -35s36 -52 36 -86s-12 -62.667 -36 -86s-53.667 -35 -89 -35s-65 11.667 -89 35s-36 52 -36 86zM674 1278c0 34 12 62.667 36 86s53.667 35 89 35s65 -11.667 89 -35s36 -52 36 -86s-12 -62.667 -36 -86
s-53.667 -35 -89 -35s-65 11.667 -89 35s-36 52 -36 86z" />
    <glyph glyph-name="yacute" unicode="&#xfd;" horiz-adv-x="1243" 
d="M47 958h203l377 -780l348 780h199l-648 -1454h-198l202 455zM524 1130l160 300h209l-197 -300h-172z" />
    <glyph glyph-name="thorn" unicode="&#xfe;" horiz-adv-x="1247" 
d="M156 -498l0.000976562 1891h188v-523c86.667 74 193.334 111 320.001 111c135.333 0 250.666 -49 345.999 -147s143 -217 143 -357c0 -91.333 -21.833 -175.5 -65.5 -252.5s-103 -137.833 -178 -182.5s-156.833 -67 -245.5 -67c-126.667 0 -233.334 37 -320.001 111v-584
h-188zM344.001 295c70.667 -104 168.333 -156 293 -156c92 0 169.667 33.5 233 100.5s95 146.167 95 237.5c0 93.333 -31.667 173.333 -95 240s-141 100 -233 100c-125.333 0 -223 -51.667 -293 -155v-367z" />
    <glyph glyph-name="ydieresis" unicode="&#xff;" horiz-adv-x="1243" 
d="M47 958h203l377 -780l348 780h199l-648 -1454h-198l202 455zM293 1278c0 34 12 62.667 36 86s53.667 35 89 35s65 -11.667 89 -35s36 -52 36 -86s-12 -62.667 -36 -86s-53.667 -35 -89 -35s-65 11.667 -89 35s-36 52 -36 86zM696 1278c0 34 12 62.667 36 86
s53.667 35 89 35s65 -11.667 89 -35s36 -52 36 -86s-12 -62.667 -36 -86s-53.667 -35 -89 -35s-65 11.667 -89 35s-36 52 -36 86z" />
    <glyph glyph-name="OE" unicode="&#x152;" horiz-adv-x="2062" 
d="M86 696c0 98.667 19.3301 191.169 57.9971 277.502s91.834 160.166 159.501 221.499s149.334 109.666 245.001 144.999s198.834 53 309.501 53h1092v-181h-795v-432h713v-180h-713v-420h795v-180h-1092c-147.333 0 -280 30 -398 90s-209.833 143 -275.5 249
s-98.5 225 -98.5 357zM282.997 696.002c0 -150 53 -273.167 159 -369.5s244.667 -144.5 416 -144.5l103 2v1026h-103c-171.333 0 -310 -48.167 -416 -144.5s-159 -219.5 -159 -369.5z" />
    <glyph glyph-name="oe" unicode="&#x153;" horiz-adv-x="2015" 
d="M109 477c0 144.667 48.499 264.834 145.499 360.501s218.167 143.5 363.5 143.5c85.333 0 164 -18 236 -54s130.667 -85.667 176 -149c44.667 63.333 102.667 113 174 149s150.666 54 237.999 54c88.667 0 168.334 -21 239.001 -63s126.167 -100.667 166.5 -176
s60.833 -160.333 61.5 -255c0 -36 -1.33301 -63 -4 -81l-7 4v-4h-772c14 -79.333 48.833 -144.333 104.5 -195s127.5 -76 215.5 -76c56 0 104.167 10.5 144.5 31.5s70.5 50.167 90.5 87.5h201c-26.667 -84.667 -79.834 -152.334 -159.501 -203.001s-173.167 -76 -280.5 -76
c-87.333 0 -166.166 17.833 -236.499 53.5s-128.166 84.834 -173.499 147.501c-46.667 -64.667 -106.167 -115.334 -178.5 -152.001s-150.833 -55 -235.5 -55c-145.333 0 -266.5 48.5 -363.5 145.5s-145.5 217.833 -145.5 362.5zM296.999 477c0 -94 30.333 -173.5 91 -238.5
s137.334 -97.5 230.001 -97.5c91.333 0 167.166 32.5 227.499 97.5s90.5 144.5 90.5 238.5c0 92.667 -30.167 171.167 -90.5 235.5s-136.166 96.5 -227.499 96.5c-92.667 0 -169.334 -32 -230.001 -96s-91 -142.667 -91 -236zM1126 547h590.001
c-8 83.333 -36.833 149.5 -86.5 198.5s-114.834 73.5 -195.501 73.5c-84 0 -153 -25.333 -207 -76s-87.667 -116 -101 -196z" />
    <glyph glyph-name="Ydieresis" unicode="&#x178;" horiz-adv-x="1386" 
d="M27 1393h217l448 -721l451 721h217l-567 -910v-483h-199v483zM367 1681c0 34 12 62.667 36 86s53.667 35 89 35c34.667 0 64 -11.667 88 -35s36 -52 36 -86s-11.833 -62.5 -35.5 -85.5s-53.167 -34.5 -88.5 -34.5s-65 11.5 -89 34.5s-36 51.5 -36 85.5zM770 1681
c0 34 12 62.667 36 86s53.667 35 89 35s65 -11.667 89 -35s36 -52 36 -86s-12 -62.5 -36 -85.5s-53.667 -34.5 -89 -34.5s-65 11.5 -89 34.5s-36 51.5 -36 85.5z" />
    <glyph glyph-name="circumflex" unicode="&#x2c6;" horiz-adv-x="1228" 
d="M274 1137l248 305h185l247 -305h-178l-160 184l-161 -184h-181z" />
    <glyph glyph-name="tilde" unicode="&#x2dc;" horiz-adv-x="1228" 
d="M266 1208c0 53.333 10.998 98.333 32.998 135s49.333 61.834 82 75.501s67.334 19.5 104.001 17.5s70.334 -12.333 101.001 -31l90 -57c38.667 -22.667 69.167 -27.5 91.5 -14.5s33.5 36.833 33.5 71.5h151c0 -53.333 -10.667 -98.5 -32 -135.5s-48 -62.5 -80 -76.5
s-66.333 -19.833 -103 -17.5s-70.667 13.166 -102 32.499l-92 58c-36 22 -65.5 26.5 -88.5 13.5s-34.5 -36.833 -34.5 -71.5h-154z" />
    <glyph glyph-name="uni2000" unicode="&#x2000;" horiz-adv-x="991" 
 />
    <glyph glyph-name="uni2001" unicode="&#x2001;" horiz-adv-x="1982" 
 />
    <glyph glyph-name="uni2002" unicode="&#x2002;" horiz-adv-x="991" 
 />
    <glyph glyph-name="uni2003" unicode="&#x2003;" horiz-adv-x="1982" 
 />
    <glyph glyph-name="uni2004" unicode="&#x2004;" horiz-adv-x="660" 
 />
    <glyph glyph-name="uni2005" unicode="&#x2005;" horiz-adv-x="495" 
 />
    <glyph glyph-name="uni2006" unicode="&#x2006;" horiz-adv-x="330" 
 />
    <glyph glyph-name="uni2007" unicode="&#x2007;" horiz-adv-x="330" 
 />
    <glyph glyph-name="uni2008" unicode="&#x2008;" horiz-adv-x="247" 
 />
    <glyph glyph-name="uni2009" unicode="&#x2009;" horiz-adv-x="396" 
 />
    <glyph glyph-name="uni200A" unicode="&#x200a;" horiz-adv-x="110" 
 />
    <glyph glyph-name="uni2010" unicode="&#x2010;" horiz-adv-x="1142" 
d="M227 453h688v188h-688v-188z" />
    <glyph glyph-name="uni2011" unicode="&#x2011;" horiz-adv-x="1142" 
d="M227 453h688v188h-688v-188z" />
    <glyph glyph-name="figuredash" unicode="&#x2012;" horiz-adv-x="1142" 
d="M227 453h688v188h-688v-188z" />
    <glyph glyph-name="endash" unicode="&#x2013;" horiz-adv-x="1470" 
d="M227 455h1018v188h-1018v-188z" />
    <glyph glyph-name="emdash" unicode="&#x2014;" horiz-adv-x="2021" 
d="M190 455h1641v188h-1641v-188z" />
    <glyph glyph-name="quoteleft" unicode="&#x2018;" horiz-adv-x="403" 
d="M61 1044c0 16 2.16797 30.667 6.50098 44s15.166 36.333 32.499 69l111 234h115l-99 -248c49.333 -18 74 -51 74 -99c0 -31.333 -11.667 -58.166 -35 -80.499s-51.333 -33.5 -84 -33.5c-34 0 -62.667 11.167 -86 33.5s-35 49.166 -35 80.499z" />
    <glyph glyph-name="quoteright" unicode="&#x2019;" horiz-adv-x="417" 
d="M76 944l99.999 248c-50.667 18 -76 50.667 -76 98c0 32.667 11.667 60.334 35 83.001s52 34 86 34s62.667 -11.333 86 -34s35 -50.334 35 -83.001c0 -14.667 -2.16699 -28.5 -6.5 -41.5s-15.166 -36.5 -32.499 -70.5l-110 -234h-117z" />
    <glyph glyph-name="quotesinglbase" unicode="&#x201a;" horiz-adv-x="417" 
d="M76 -260l99.999 248c-50.667 18 -76 51.333 -76 100c0 32 11.667 59.167 35 81.5s52 33.5 86 33.5s62.667 -11.167 86 -33.5s35 -49.5 35 -81.5c0 -16 -2.16699 -30.667 -6.5 -44s-15.166 -37 -32.499 -71l-110 -233h-117z" />
    <glyph glyph-name="quotedblleft" unicode="&#x201c;" horiz-adv-x="770" 
d="M76 1044c0 16 2.16699 30.667 6.5 44s15.166 36.333 32.499 69l110 234h117l-100 -248c50 -18.667 75 -51.667 75 -99c0 -31.333 -11.667 -58.166 -35 -80.499s-51.666 -33.5 -84.999 -33.5c-34 0 -62.667 11.167 -86 33.5s-35 49.166 -35 80.499zM428 1044
c0 16 2.16797 30.667 6.50098 44s15.166 36.333 32.499 69l111 234h116l-100 -248c50.667 -18 76 -51 76 -99c0 -31.333 -11.667 -58.166 -35 -80.499s-52 -33.5 -86 -33.5s-62.667 11.167 -86 33.5s-35 49.166 -35 80.499z" />
    <glyph glyph-name="quotedblright" unicode="&#x201d;" horiz-adv-x="770" 
d="M76 944l99.999 248c-50.667 18 -76 50.667 -76 98c0 32.667 11.667 60.334 35 83.001s52 34 86 34s62.667 -11.333 86 -34s35 -50.334 35 -83.001c0 -14.667 -2.16699 -28.5 -6.5 -41.5s-15.166 -36.5 -32.499 -70.5l-110 -234h-117zM429.999 944l97.999 248
c-48.667 18 -73 50.667 -73 98c0 32.667 11.333 60.334 34 83.001s50.667 34 84 34c34 0 62.667 -11.333 86 -34s35 -50.334 35 -83.001c0 -14.667 -2.16699 -28.5 -6.5 -41.5s-15.166 -36.5 -32.499 -70.5l-110 -234h-115z" />
    <glyph glyph-name="quotedblbase" unicode="&#x201e;" horiz-adv-x="774" 
d="M76 -260l99.999 248c-50.667 18 -76 51.333 -76 100c0 32 11.667 59.167 35 81.5s52 33.5 86 33.5s62.667 -11.167 86 -33.5s35 -49.5 35 -81.5c0 -16 -2.16699 -30.667 -6.5 -44s-15.166 -37 -32.499 -71l-110 -233h-117zM433.999 -260l97.999 248
c-48.667 18 -73 51.333 -73 100c0 31.333 11.667 58.333 35 81s51.333 34 84 34c34 0 62.5 -11.167 85.5 -33.5s34.5 -49.5 34.5 -81.5c0 -16 -2.16699 -30.667 -6.5 -44s-15.166 -37 -32.499 -71l-110 -233h-115z" />
    <glyph glyph-name="bullet" unicode="&#x2022;" horiz-adv-x="663" 
d="M80 608c0 67.333 25.167 125.833 75.5 175.5s109.166 74.5 176.499 74.5s126.166 -24.833 176.499 -74.5s75.5 -108.167 75.5 -175.5c0 -66.667 -25.167 -125 -75.5 -175s-109.166 -75 -176.499 -75s-126.166 25 -176.499 75s-75.5 108.333 -75.5 175z" />
    <glyph glyph-name="ellipsis" unicode="&#x2026;" horiz-adv-x="1261" 
d="M76 88c0 32.667 11.833 60.334 35.5 83.001s52.167 34 85.5 34c34 0 62.833 -11.333 86.5 -34s35.5 -50.334 35.5 -83.001c0 -34 -11.833 -62.333 -35.5 -85s-52.5 -34 -86.5 -34c-33.333 0 -61.833 11.5 -85.5 34.5s-35.5 51.167 -35.5 84.5zM504 88
c0 32.667 11.667 60.332 35 82.999s52 34 86 34s62.5 -11.167 85.5 -33.5s34.5 -50.166 34.5 -83.499c0 -34 -11.5 -62.333 -34.5 -85s-51.5 -34 -85.5 -34s-62.667 11.333 -86 34s-35 51 -35 85zM942 87.998c0 32.667 11.833 60.334 35.5 83.001s52.167 34 85.5 34
c34 0 63 -11.333 87 -34s36 -50.334 36 -83.001c0 -34 -12 -62.333 -36 -85s-53 -34 -87 -34c-33.333 0 -61.833 11.5 -85.5 34.5s-35.5 51.167 -35.5 84.5z" />
    <glyph glyph-name="uni202F" unicode="&#x202f;" horiz-adv-x="396" 
 />
    <glyph glyph-name="guilsinglleft" unicode="&#x2039;" horiz-adv-x="548" 
d="M78 516l209 307h184l-211 -307l211 -307h-184z" />
    <glyph glyph-name="guilsinglright" unicode="&#x203a;" horiz-adv-x="548" 
d="M78 209l209 307l-209 307h182l211 -307l-211 -307h-182z" />
    <glyph glyph-name="uni205F" unicode="&#x205f;" horiz-adv-x="495" 
 />
    <glyph glyph-name="Euro" unicode="&#x20ac;" horiz-adv-x="1789" 
d="M86 455l0.00195312 136.999h193c-4.66699 40.667 -7 75.334 -7 104.001s0.666992 50.667 2 66h-188v137h213c43.333 155.333 129.166 281.166 257.499 377.499s275.166 144.5 440.499 144.5c170.667 0 316.667 -49.5 438 -148.5s198.666 -230.167 231.999 -393.5h-203
c-28 110 -83 196.5 -165 259.5s-182.667 94.5 -302 94.5c-113.333 0 -213.833 -30.333 -301.5 -91s-150.834 -141.667 -189.501 -243h624l-34 -137h-621c-2.66699 -26.667 -4 -48.667 -4 -66c0 -40 2.66699 -74.667 8 -104h576l-33 -137h-500
c42.667 -90.667 106.167 -162.5 190.5 -215.5s179.166 -79.5 284.499 -79.5c119.333 0 220 31.5 302 94.5s137 149.5 165 259.5h203c-33.333 -163.333 -110.666 -294.666 -231.999 -393.999s-267.333 -149 -438 -149c-157.333 0 -298.666 44.5 -423.999 133.5
s-212.666 205.833 -261.999 350.5h-225z" />
    <glyph glyph-name="trademark" unicode="&#x2122;" horiz-adv-x="1409" 
d="M53 1286v105h533v-105h-211v-493h-109v493h-213zM662 793v598h83l240 -375l240 375h86v-598h-111v370l-184 -295h-60l-188 299l2 -374h-108z" />
    <glyph glyph-name="uni25FC" unicode="&#x25fc;" horiz-adv-x="962" 
d="M0 0v963h963v-963h-963z" />
    <glyph glyph-name="glyph1" horiz-adv-x="0" 
 />
    <glyph glyph-name="glyph2" horiz-adv-x="682" 
 />
    </font>
</defs>
</svg>
